<?xml version="1.0" encoding="utf-8"?>
<svg viewBox="-287.823 -26.353 1027.201 72.144" width="1027.201" height="72.144" xmlns="http://www.w3.org/2000/svg" xmlns:bx="https://boxy-svg.com">
	<defs>
		<style>
			.CheckBox {
			cursor: pointer;
			}
		</style>
	</defs>
	<g id="Toolbar">
		<g style="" transform="matrix(1.403415, 0, 0, 1.403415, -298.275726, -18.472748)">
			<title>row-header</title>
			<path d="M 21.379 3.819 L 22.916 2.911 L 22.42 2.619 L 22.944 2.309 L 23.963 2.91 L 22.063 4.035 C 21.841 3.945 21.612 3.874 21.379 3.819 Z M 16.085 7.147 L 15.952 6.979 C 15.86 6.862 15.822 6.71 15.849 6.564 L 13.278 5.044 L 13.772 4.752 L 13.248 4.442 L 12.23 5.043 L 16.41 7.516 C 16.297 7.397 16.188 7.273 16.085 7.147 Z M 18.097 4.247 L 12.23 0.776 L 18.097 -2.687 L 23.963 0.777 L 18.097 4.247 Z M 13.278 0.776 L 18.097 3.627 L 22.915 0.777 L 18.097 -2.068 L 13.278 0.776 Z M 17.07 5.153 L 13.278 2.91 L 13.772 2.618 L 13.248 2.308 L 12.23 2.909 L 16.656 5.529 C 16.777 5.41 16.916 5.283 17.069 5.153 L 17.07 5.153 Z M 24.374 6.809 L 24.497 6.646 L 24.374 6.484 C 24.305 6.393 22.626 4.247 20.497 4.247 C 18.369 4.247 16.699 6.389 16.627 6.481 L 16.496 6.646 L 16.627 6.813 C 16.699 6.904 18.368 9.046 20.497 9.046 C 22.626 9.046 24.305 6.901 24.374 6.809 Z M 20.497 4.726 C 22.094 4.726 23.493 6.152 23.92 6.646 C 23.494 7.142 22.097 8.567 20.497 8.567 C 18.901 8.567 17.529 7.147 17.083 6.646 C 17.529 6.147 18.901 4.726 20.497 4.726 Z M 21.777 6.646 C 21.777 5.662 20.71 5.046 19.856 5.538 C 19.003 6.031 19.003 7.263 19.856 7.755 C 20.051 7.867 20.272 7.927 20.497 7.927 C 21.203 7.926 21.776 7.354 21.777 6.646 Z" style="">
				<title>show-icon</title>
			</path>
			<text style="fill: rgb(51, 51, 51); font-family: Arial, sans-serif; font-size: 9px; white-space: pre;" x="28.591" y="6.352">Show/Hide</text>
			<path class="sketchy_een" d="M 23.827 18.187 C 23.803 18.101 23.746 18.026 23.669 17.982 C 23.649 17.969 23.627 17.962 23.604 17.955 C 23.524 17.883 23.443 17.813 23.365 17.738 C 23.277 17.655 23.193 17.566 23.105 17.483 C 23.011 17.393 22.92 17.301 22.827 17.209 C 22.734 17.117 22.636 17.031 22.538 16.944 C 22.332 16.765 22.14 16.572 21.938 16.388 C 21.721 16.192 21.512 15.986 21.297 15.788 C 21.254 15.748 21.203 15.726 21.15 15.711 C 21.147 15.708 21.146 15.704 21.143 15.7 C 21.081 15.639 20.993 15.605 20.904 15.605 C 20.821 15.605 20.738 15.635 20.68 15.7 C 20.446 15.961 20.206 16.213 19.946 16.448 C 19.709 16.663 19.467 16.873 19.226 17.084 C 18.747 17.501 18.293 17.948 17.851 18.403 C 17.429 18.837 16.991 19.254 16.555 19.672 C 16.335 19.883 16.124 20.101 15.895 20.302 C 15.787 20.397 15.676 20.491 15.569 20.586 C 15.465 20.677 15.368 20.776 15.273 20.873 C 15.134 21.016 14.992 21.157 14.845 21.289 C 14.777 21.35 14.755 21.439 14.765 21.526 C 14.742 21.598 14.74 21.677 14.769 21.745 C 14.776 21.835 14.785 21.925 14.787 22.015 C 14.79 22.102 14.794 22.192 14.787 22.281 C 14.756 22.427 14.711 22.572 14.657 22.712 C 14.595 22.845 14.518 22.971 14.445 23.098 C 14.377 23.216 14.3 23.33 14.216 23.439 C 14.221 23.434 14.225 23.429 14.229 23.423 C 14.189 23.479 14.162 23.536 14.162 23.611 C 14.162 23.666 14.181 23.717 14.208 23.763 C 14.179 23.876 14.197 24.002 14.288 24.08 C 14.301 24.091 14.314 24.103 14.326 24.113 C 14.224 24.238 14.12 24.361 14.019 24.485 C 13.88 24.655 13.748 24.831 13.605 24.998 C 13.523 25.094 13.442 25.187 13.365 25.287 C 13.32 25.346 13.28 25.408 13.238 25.469 C 13.158 25.585 13.086 25.706 13.005 25.821 C 12.979 25.858 12.969 25.902 12.966 25.946 C 12.903 26.008 12.863 26.092 12.863 26.18 C 12.863 26.361 13.012 26.506 13.191 26.508 C 13.6 26.515 14.009 26.528 14.419 26.524 C 14.756 26.521 15.097 26.515 15.433 26.552 C 15.447 26.555 15.458 26.556 15.471 26.557 C 15.472 26.557 15.475 26.557 15.476 26.558 C 15.475 26.558 15.474 26.557 15.472 26.557 C 15.498 26.56 15.523 26.558 15.548 26.556 C 15.661 26.581 15.784 26.556 15.871 26.469 C 16.053 26.286 16.235 26.104 16.414 25.919 C 16.439 25.952 16.463 25.987 16.499 26.008 C 16.599 26.066 16.715 26.053 16.807 25.998 C 16.863 25.984 16.917 25.962 16.958 25.918 C 17.038 25.835 17.122 25.758 17.203 25.679 C 17.269 25.616 17.332 25.553 17.402 25.495 C 17.576 25.366 17.76 25.252 17.957 25.16 C 18.052 25.124 18.147 25.095 18.247 25.075 C 18.261 25.074 18.274 25.073 18.287 25.073 C 18.42 25.103 18.548 25.148 18.674 25.2 C 18.75 25.231 18.855 25.207 18.922 25.167 C 18.965 25.142 18.998 25.105 19.025 25.063 C 19.029 25.059 19.036 25.058 19.04 25.054 C 19.047 25.046 19.05 25.037 19.056 25.029 C 19.068 25.02 19.085 25.015 19.095 25.003 C 19.123 24.969 19.149 24.933 19.175 24.899 C 19.333 24.694 19.475 24.478 19.63 24.271 C 19.73 24.145 19.833 24.022 19.929 23.892 C 20.026 23.761 20.123 23.629 20.221 23.499 C 20.422 23.235 20.611 22.963 20.808 22.696 C 21.012 22.418 21.215 22.138 21.417 21.858 C 21.609 21.592 21.789 21.32 21.968 21.046 C 22.246 20.622 22.545 20.212 22.843 19.803 C 22.999 19.587 23.148 19.365 23.3 19.145 C 23.46 18.912 23.628 18.683 23.792 18.453 C 23.843 18.38 23.849 18.27 23.827 18.187 Z M 14.438 25.922 C 14.2 25.91 13.963 25.894 13.726 25.88 C 13.774 25.811 13.822 25.741 13.872 25.673 C 13.947 25.582 14.027 25.497 14.102 25.408 C 14.193 25.299 14.277 25.186 14.365 25.076 C 14.51 24.893 14.665 24.719 14.821 24.544 C 14.831 24.553 14.841 24.561 14.85 24.57 C 15.031 24.732 15.218 24.886 15.404 25.042 C 15.558 25.172 15.709 25.304 15.86 25.437 C 15.698 25.608 15.534 25.779 15.384 25.96 C 15.246 25.951 15.109 25.941 14.971 25.938 C 14.793 25.934 14.615 25.931 14.438 25.922 Z M 17.435 24.735 C 17.351 24.78 17.273 24.835 17.193 24.887 C 17.12 24.936 17.047 24.984 16.976 25.038 C 16.858 25.129 16.749 25.231 16.638 25.331 C 16.527 25.237 16.415 25.144 16.308 25.046 C 16.145 24.898 15.978 24.755 15.812 24.61 C 15.466 24.306 15.153 23.968 14.813 23.658 C 14.878 23.567 14.945 23.475 15.005 23.381 C 15.109 23.218 15.209 23.048 15.276 22.867 C 15.306 22.784 15.333 22.699 15.357 22.614 C 15.386 22.513 15.408 22.412 15.417 22.308 C 15.476 22.356 15.537 22.403 15.596 22.452 C 15.722 22.556 15.844 22.665 15.968 22.771 C 16.091 22.877 16.216 22.977 16.34 23.081 C 16.589 23.294 16.831 23.514 17.081 23.724 C 17.333 23.94 17.578 24.163 17.822 24.389 C 17.868 24.431 17.912 24.474 17.957 24.517 C 17.774 24.567 17.6 24.646 17.435 24.735 Z M 22.627 19.007 C 22.448 19.3 22.238 19.575 22.042 19.857 C 21.852 20.132 21.664 20.407 21.478 20.686 C 21.39 20.816 21.308 20.948 21.221 21.078 C 21.127 21.218 21.029 21.356 20.93 21.493 C 20.673 21.853 20.411 22.21 20.159 22.573 C 20.035 22.752 19.912 22.928 19.782 23.102 C 19.654 23.272 19.531 23.447 19.403 23.618 C 19.34 23.696 19.277 23.773 19.216 23.853 C 19.149 23.94 19.085 24.03 19.02 24.12 C 18.956 24.208 18.893 24.297 18.829 24.385 C 18.757 24.324 18.687 24.262 18.616 24.201 C 18.499 24.099 18.38 24 18.262 23.899 C 18.012 23.682 17.767 23.459 17.511 23.248 C 17.01 22.836 16.516 22.415 16.014 22.002 C 15.822 21.845 15.631 21.685 15.443 21.525 C 15.545 21.424 15.648 21.322 15.75 21.22 C 15.951 21.016 16.167 20.829 16.38 20.639 C 16.608 20.436 16.825 20.217 17.044 20.004 C 17.254 19.8 17.463 19.594 17.669 19.386 C 17.896 19.156 18.129 18.931 18.357 18.702 C 18.572 18.486 18.796 18.281 19.019 18.073 C 19.254 17.852 19.492 17.636 19.737 17.425 C 19.988 17.211 20.242 17 20.497 16.79 C 20.661 16.655 20.812 16.508 20.959 16.356 C 21.139 16.514 21.318 16.672 21.502 16.825 C 21.711 17 21.908 17.189 22.103 17.379 C 22.196 17.47 22.295 17.556 22.391 17.646 C 22.485 17.735 22.58 17.824 22.675 17.912 C 22.765 17.995 22.852 18.081 22.943 18.162 C 22.988 18.204 23.035 18.245 23.083 18.285 C 22.926 18.524 22.776 18.765 22.627 19.007 Z M 20.869 20.7 C 20.71 20.932 20.542 21.154 20.378 21.384 C 20.298 21.495 20.219 21.609 20.136 21.72 C 20.061 21.822 19.982 21.921 19.909 22.025 C 19.76 22.235 19.626 22.454 19.479 22.666 C 19.334 22.876 19.188 23.088 19.033 23.292 C 18.989 23.35 18.946 23.395 18.872 23.415 C 18.802 23.434 18.727 23.425 18.665 23.388 C 18.605 23.352 18.56 23.294 18.542 23.226 C 18.524 23.165 18.527 23.074 18.569 23.02 C 18.729 22.809 18.884 22.593 19.031 22.373 C 19.171 22.165 19.299 21.95 19.448 21.748 C 19.769 21.311 20.062 20.855 20.361 20.402 C 20.421 20.312 20.518 20.258 20.619 20.258 C 20.667 20.258 20.717 20.27 20.764 20.297 C 20.895 20.374 20.961 20.567 20.869 20.7 Z" style="fill: rgb(17, 25, 24);">
				<title>highlight-icon</title>
			</path>
			<text style="fill: rgb(51, 51, 51); font-family: Arial, sans-serif; font-size: 9px; white-space: pre;" x="28.591" y="23.778">Highlight</text>
		</g>
		<g class="CheckBox" style="" transform="matrix(1.403415, 0, 0, 1.403415, -298.275726, -18.472748)">
			<g transform="matrix(1, 0, 0, 1, 90, -2)">
				<path d="M8.5,0C9.4,0,10,0.7,10,1.5v7C10,9.4,9.4,10,8.5,10h-7C0.7,10,0,9.4,0,8.5v-7C0,0.7,0.7,0,1.5,0H8.5z M8.5,0.8 h-7c-0.4,0-0.7,0.3-0.7,0.7v7c0,0.4,0.3,0.7,0.7,0.7h7c0.4,0,0.7-0.3,0.7-0.7v-7C9.2,1.1,8.9,0.8,8.5,0.8z"/>
				<g class="Tick">
					<path d="M3.9,6.4l3.6-3.6c0.2-0.2,0.4-0.2,0.6,0c0.1,0.1,0.2,0.4,0,0.5l0,0L4.2,7.3c-0.1,0.1-0.4,0.2-0.5,0l0,0L1.9,5.6 C1.8,5.4,1.8,5.2,1.9,5c0.1-0.1,0.4-0.2,0.5,0l0,0L3.9,6.4l3.6-3.6L3.9,6.4z"/>
				</g>
			</g>
			<text style="fill: rgb(51, 51, 51); font-family: Arial, sans-serif; font-size: 8px; white-space: pre;" x="102.694" y="6.338">Life Events</text>
		</g>
		<g class="CheckBox" transform="matrix(1.403415, 0, 0, 1.403415, -202.843567, -18.472748)" >
			<g transform="matrix(1, 0, 0, 1, 90, -2)">
				<path d="M8.5,0C9.4,0,10,0.7,10,1.5v7C10,9.4,9.4,10,8.5,10h-7C0.7,10,0,9.4,0,8.5v-7C0,0.7,0.7,0,1.5,0H8.5z M8.5,0.8 h-7c-0.4,0-0.7,0.3-0.7,0.7v7c0,0.4,0.3,0.7,0.7,0.7h7c0.4,0,0.7-0.3,0.7-0.7v-7C9.2,1.1,8.9,0.8,8.5,0.8z"/>
				<path class="Tick" d="M3.9,6.4l3.6-3.6c0.2-0.2,0.4-0.2,0.6,0c0.1,0.1,0.2,0.4,0,0.5l0,0L4.2,7.3c-0.1,0.1-0.4,0.2-0.5,0l0,0L1.9,5.6 C1.8,5.4,1.8,5.2,1.9,5c0.1-0.1,0.4-0.2,0.5,0l0,0L3.9,6.4l3.6-3.6L3.9,6.4z"/>
			</g>
			<text style="fill: rgb(51, 51, 51); font-family: Arial, sans-serif; font-size: 8px; white-space: pre;" x="102.781" y="6.286">Color Summary</text>
		</g>
		<g  class="CheckBox" transform="matrix(1.403415, 0, 0, 1.403415, -84.100655, -18.472748)" >
			<g transform="matrix(1, 0, 0, 1, 90, -2)">
				<path d="M8.5,0C9.4,0,10,0.7,10,1.5v7C10,9.4,9.4,10,8.5,10h-7C0.7,10,0,9.4,0,8.5v-7C0,0.7,0.7,0,1.5,0H8.5z M8.5,0.8 h-7c-0.4,0-0.7,0.3-0.7,0.7v7c0,0.4,0.3,0.7,0.7,0.7h7c0.4,0,0.7-0.3,0.7-0.7v-7C9.2,1.1,8.9,0.8,8.5,0.8z"/>
				<path class="Tick" d="M3.9,6.4l3.6-3.6c0.2-0.2,0.4-0.2,0.6,0c0.1,0.1,0.2,0.4,0,0.5l0,0L4.2,7.3c-0.1,0.1-0.4,0.2-0.5,0l0,0L1.9,5.6 C1.8,5.4,1.8,5.2,1.9,5c0.1-0.1,0.4-0.2,0.5,0l0,0L3.9,6.4l3.6-3.6L3.9,6.4z"/>
			</g>
			<text style="fill: rgb(51, 51, 51); font-family: Arial, sans-serif; font-size: 8px; white-space: pre;" x="103.569" y="6.286">Bar Summary</text>
		</g>
		<g style="" transform="matrix(1.403415, 0, 0, 1.403415, -298.275726, -18.472748)">
			<title>table-border</title>
			<path style="fill: none; stroke: rgb(0, 0, 0);" d="M 10.448 -5.615 H 83.983 V 11.791 H 7.448 V -2.615 A 3 3 0 0 1 10.448 -5.615 Z" bx:shape="rect 7.448 -5.615 76.535 17.406 3 0 0 0 1@f816bbbc"/>
			<path style="stroke: rgb(0, 0, 0); fill: none;" d="M 7.448 11.791 H 83.983 V 45.791 H 10.448 A 3 3 0 0 1 7.448 42.791 V 11.791 Z" bx:shape="rect 7.448 11.791 76.535 34 0 0 0 3 1@a29f3b01"/>
			<path style="stroke: rgb(0, 0, 0); fill: none;" d="M 83.983 -5.615 H 736.378 A 3 3 0 0 1 739.378 -2.615 V 11.791 H 83.983 V -5.615 Z" bx:shape="rect 83.983 -5.615 655.395 17.406 0 3 0 0 1@d79e9664"/>
			<path style="stroke: rgb(0, 0, 0); fill: none;" d="M 83.983 11.791 H 739.378 V 42.791 A 3 3 0 0 1 736.378 45.791 H 83.983 V 11.791 Z" bx:shape="rect 83.983 11.791 655.395 34 0 0 3 0 1@20355689"/>
		</g>
		<g transform="matrix(1.403415, 0, 0, 1.403415, -267.300232, -17.324522)" style="">
			<g>
				<g id="Planet" transform="matrix(0.174254, 0, 0, 0.174254, 4.594273, -33.299301)" style="">
					<title>planet-icon</title>
					<g id="Group_18" data-name="Group 18">
						<circle id="Ellipse_4" data-name="Ellipse 4" cx="4.92" cy="4.92" r="4.92" transform="translate(355.391 287.812) rotate(-45)"/>
					</g>
					<g id="Group_19" data-name="Group 19">
						<path id="Path_18" data-name="Path 18" d="M442.279,287.352c-2.261-7.09-15.761-6.48-21.731-5.85a27.744,27.744,0,0,0-47.44,15.14c-5.24,2.94-16.6,10.25-14.34,17.34,1.62,5.08,8.98,6.2,15.22,6.2a59.677,59.677,0,0,0,6.51-.37,27.7,27.7,0,0,0,47.42-15.11C433.148,301.772,444.539,294.442,442.279,287.352Zm-78.271,24.96c-.529-1.64,3.5-5.62,8.93-9.14a27.892,27.892,0,0,0,3.64,11.42C370.118,314.882,364.539,313.962,364.008,312.312Zm43.26,9.5a22.166,22.166,0,0,1-19.63-3.05,136.488,136.488,0,0,0,33.82-10.77A22.169,22.169,0,0,1,407.268,321.812Zm-4.01-12.58a134.339,134.339,0,0,1-20.5,4.76,22.284,22.284,0,0,1-3.38-6.58,22.183,22.183,0,0,1,14.4-27.89,22.173,22.173,0,0,1,23.45,6.5,2.336,2.336,0,0,1,.24.29l.039.04a22.31,22.31,0,0,1,5.2,14.91A136.28,136.28,0,0,1,403.258,309.232Zm24.85-11.07a26.83,26.83,0,0,0-1.19-5.91,27.3,27.3,0,0,0-2.439-5.51c6.449-.28,12.029.63,12.56,2.28S433.548,294.642,428.108,298.162Z"/>
					</g>
					<g id="Group_20" data-name="Group 20">
						<path id="Path_19" data-name="Path 19" d="M400.4,283.954" stroke="#e54b50" stroke-linecap="round" stroke-linejoin="round" stroke-width="5.5"/>
					</g>
					<g id="Group_21" data-name="Group 21">
						<path id="Path_20" data-name="Path 20" d="M416.111,299.381a2.751,2.751,0,0,1-2.59-1.825,15.278,15.278,0,0,0-4.807-6.7,2.75,2.75,0,0,1,3.463-4.274A20.791,20.791,0,0,1,418.7,295.7a2.752,2.752,0,0,1-2.59,3.677Z"/>
					</g>
					<g id="Group_22" data-name="Group 22">
						<path id="Path_21" data-name="Path 21" d="M402.912,287.813a2.765,2.765,0,0,1-.6-.066,15.41,15.41,0,0,0-1.972-.307,2.75,2.75,0,1,1,.494-5.478,20.862,20.862,0,0,1,2.676.417,2.75,2.75,0,0,1-.6,5.434Z"/>
					</g>
				</g>
				<g class="CheckBox" transform="matrix(1, 0, 0, 1, -1.98442, -0.301585)">
					<text style="white-space: pre; fill: rgb(51, 51, 51); font-family: Arial, sans-serif; font-size: 8px;" x="101.358" y="22.816">Sun</text>
					<g transform="matrix(1, 0, 0, 1, 89.364876, 14.571419)">
						<path d="M8.5,0C9.4,0,10,0.7,10,1.5v7C10,9.4,9.4,10,8.5,10h-7C0.7,10,0,9.4,0,8.5v-7C0,0.7,0.7,0,1.5,0H8.5z M8.5,0.8 h-7c-0.4,0-0.7,0.3-0.7,0.7v7c0,0.4,0.3,0.7,0.7,0.7h7c0.4,0,0.7-0.3,0.7-0.7v-7C9.2,1.1,8.9,0.8,8.5,0.8z"/>
						<g class="Tick">
							<path d="M3.9,6.4l3.6-3.6c0.2-0.2,0.4-0.2,0.6,0c0.1,0.1,0.2,0.4,0,0.5l0,0L4.2,7.3c-0.1,0.1-0.4,0.2-0.5,0l0,0L1.9,5.6 C1.8,5.4,1.8,5.2,1.9,5c0.1-0.1,0.4-0.2,0.5,0l0,0L3.9,6.4l3.6-3.6L3.9,6.4z"/>
						</g>
					</g>
				</g>
				<g class="CheckBox" transform="matrix(1, 0, 0, 1, 33.227375, -0.036324)">
					<text style="white-space: pre; fill: rgb(51, 51, 51); font-family: Arial, sans-serif; font-size: 8px;" x="101.191" y="22.636">Moon</text>
					<g transform="matrix(1, 0, 0, 1, 88.421997, 14.306158)">
						<path d="M8.5,0C9.4,0,10,0.7,10,1.5v7C10,9.4,9.4,10,8.5,10h-7C0.7,10,0,9.4,0,8.5v-7C0,0.7,0.7,0,1.5,0H8.5z M8.5,0.8 h-7c-0.4,0-0.7,0.3-0.7,0.7v7c0,0.4,0.3,0.7,0.7,0.7h7c0.4,0,0.7-0.3,0.7-0.7v-7C9.2,1.1,8.9,0.8,8.5,0.8z"/>
						<g class="Tick">
							<path d="M3.9,6.4l3.6-3.6c0.2-0.2,0.4-0.2,0.6,0c0.1,0.1,0.2,0.4,0,0.5l0,0L4.2,7.3c-0.1,0.1-0.4,0.2-0.5,0l0,0L1.9,5.6 C1.8,5.4,1.8,5.2,1.9,5c0.1-0.1,0.4-0.2,0.5,0l0,0L3.9,6.4l3.6-3.6L3.9,6.4z"/>
						</g>
					</g>
				</g>
				<g class="CheckBox" transform="matrix(1, 0, 0, 1, 74.480209, -1.254425)">
					<text style="white-space: pre; fill: rgb(51, 51, 51); font-family: Arial, sans-serif; font-size: 8px;" x="101.024" y="23.854">Mars</text>
					<g transform="matrix(1, 0, 0, 1, 87.989037, 15.524259)">
						<path d="M8.5,0C9.4,0,10,0.7,10,1.5v7C10,9.4,9.4,10,8.5,10h-7C0.7,10,0,9.4,0,8.5v-7C0,0.7,0.7,0,1.5,0H8.5z M8.5,0.8 h-7c-0.4,0-0.7,0.3-0.7,0.7v7c0,0.4,0.3,0.7,0.7,0.7h7c0.4,0,0.7-0.3,0.7-0.7v-7C9.2,1.1,8.9,0.8,8.5,0.8z"/>
						<g class="Tick">
							<path d="M3.9,6.4l3.6-3.6c0.2-0.2,0.4-0.2,0.6,0c0.1,0.1,0.2,0.4,0,0.5l0,0L4.2,7.3c-0.1,0.1-0.4,0.2-0.5,0l0,0L1.9,5.6 C1.8,5.4,1.8,5.2,1.9,5c0.1-0.1,0.4-0.2,0.5,0l0,0L3.9,6.4l3.6-3.6L3.9,6.4z"/>
						</g>
					</g>
				</g>
				<g class="CheckBox" transform="matrix(1, 0, 0, 1, 112.657883, -1.254425)">
					<text style="white-space: pre; fill: rgb(51, 51, 51); font-family: Arial, sans-serif; font-size: 8px;" x="100.94" y="23.854">Mercury</text>
					<g transform="matrix(1, 0, 0, 1, 88.659355, 15.524259)">
						<path d="M8.5,0C9.4,0,10,0.7,10,1.5v7C10,9.4,9.4,10,8.5,10h-7C0.7,10,0,9.4,0,8.5v-7C0,0.7,0.7,0,1.5,0H8.5z M8.5,0.8 h-7c-0.4,0-0.7,0.3-0.7,0.7v7c0,0.4,0.3,0.7,0.7,0.7h7c0.4,0,0.7-0.3,0.7-0.7v-7C9.2,1.1,8.9,0.8,8.5,0.8z"/>
						<g class="Tick">
							<path d="M3.9,6.4l3.6-3.6c0.2-0.2,0.4-0.2,0.6,0c0.1,0.1,0.2,0.4,0,0.5l0,0L4.2,7.3c-0.1,0.1-0.4,0.2-0.5,0l0,0L1.9,5.6 C1.8,5.4,1.8,5.2,1.9,5c0.1-0.1,0.4-0.2,0.5,0l0,0L3.9,6.4l3.6-3.6L3.9,6.4z"/>
						</g>
					</g>
				</g>
				<g class="CheckBox" transform="matrix(1, 0, 0, 1, 162.038162, -1.254425)">
					<text style="white-space: pre; fill: rgb(51, 51, 51); font-family: Arial, sans-serif; font-size: 8px;" x="101.358" y="23.854">Jupiter</text>
					<g transform="matrix(1, 0, 0, 1, 88.717323, 15.524259)">
						<path d="M8.5,0C9.4,0,10,0.7,10,1.5v7C10,9.4,9.4,10,8.5,10h-7C0.7,10,0,9.4,0,8.5v-7C0,0.7,0.7,0,1.5,0H8.5z M8.5,0.8 h-7c-0.4,0-0.7,0.3-0.7,0.7v7c0,0.4,0.3,0.7,0.7,0.7h7c0.4,0,0.7-0.3,0.7-0.7v-7C9.2,1.1,8.9,0.8,8.5,0.8z"/>
						<g class="Tick">
							<path d="M3.9,6.4l3.6-3.6c0.2-0.2,0.4-0.2,0.6,0c0.1,0.1,0.2,0.4,0,0.5l0,0L4.2,7.3c-0.1,0.1-0.4,0.2-0.5,0l0,0L1.9,5.6 C1.8,5.4,1.8,5.2,1.9,5c0.1-0.1,0.4-0.2,0.5,0l0,0L3.9,6.4l3.6-3.6L3.9,6.4z"/>
						</g>
					</g>
				</g>
				<g class="CheckBox" transform="matrix(1, 0, 0, 1, 207.091614, -1.254425)">
					<text style="white-space: pre; fill: rgb(51, 51, 51); font-family: Arial, sans-serif; font-size: 8px;" x="101.859" y="23.854">Saturn</text>
					<g transform="matrix(1, 0, 0, 1, 88.765694, 15.524259)">
						<path d="M8.5,0C9.4,0,10,0.7,10,1.5v7C10,9.4,9.4,10,8.5,10h-7C0.7,10,0,9.4,0,8.5v-7C0,0.7,0.7,0,1.5,0H8.5z M8.5,0.8 h-7c-0.4,0-0.7,0.3-0.7,0.7v7c0,0.4,0.3,0.7,0.7,0.7h7c0.4,0,0.7-0.3,0.7-0.7v-7C9.2,1.1,8.9,0.8,8.5,0.8z"/>
						<g class="Tick">
							<path d="M3.9,6.4l3.6-3.6c0.2-0.2,0.4-0.2,0.6,0c0.1,0.1,0.2,0.4,0,0.5l0,0L4.2,7.3c-0.1,0.1-0.4,0.2-0.5,0l0,0L1.9,5.6 C1.8,5.4,1.8,5.2,1.9,5c0.1-0.1,0.4-0.2,0.5,0l0,0L3.9,6.4l3.6-3.6L3.9,6.4z"/>
						</g>
					</g>
				</g>
				<g class="CheckBox" transform="matrix(1, 0, 0, 1, 252.187363, -1.254425)">
					<text style="white-space: pre; fill: rgb(51, 51, 51); font-family: Arial, sans-serif; font-size: 8px;" x="101.358" y="23.854">Venus</text>
					<g transform="matrix(1, 0, 0, 1, 88.3694, 15.524259)">
						<path d="M8.5,0C9.4,0,10,0.7,10,1.5v7C10,9.4,9.4,10,8.5,10h-7C0.7,10,0,9.4,0,8.5v-7C0,0.7,0.7,0,1.5,0H8.5z M8.5,0.8 h-7c-0.4,0-0.7,0.3-0.7,0.7v7c0,0.4,0.3,0.7,0.7,0.7h7c0.4,0,0.7-0.3,0.7-0.7v-7C9.2,1.1,8.9,0.8,8.5,0.8z"/>
						<g class="Tick">
							<path d="M3.9,6.4l3.6-3.6c0.2-0.2,0.4-0.2,0.6,0c0.1,0.1,0.2,0.4,0,0.5l0,0L4.2,7.3c-0.1,0.1-0.4,0.2-0.5,0l0,0L1.9,5.6 C1.8,5.4,1.8,5.2,1.9,5c0.1-0.1,0.4-0.2,0.5,0l0,0L3.9,6.4l3.6-3.6L3.9,6.4z"/>
						</g>
					</g>
				</g>
				<g class="CheckBox" transform="matrix(1, 0, 0, 1, 295.601776, -0.301586)">
					<text style="white-space: pre; fill: rgb(51, 51, 51); font-family: Arial, sans-serif; font-size: 8px;" x="101.358" y="22.816">Rahu</text>
					<g transform="matrix(1, 0, 0, 1, 88.220253, 14.57142)">
						<path d="M8.5,0C9.4,0,10,0.7,10,1.5v7C10,9.4,9.4,10,8.5,10h-7C0.7,10,0,9.4,0,8.5v-7C0,0.7,0.7,0,1.5,0H8.5z M8.5,0.8 h-7c-0.4,0-0.7,0.3-0.7,0.7v7c0,0.4,0.3,0.7,0.7,0.7h7c0.4,0,0.7-0.3,0.7-0.7v-7C9.2,1.1,8.9,0.8,8.5,0.8z"/>
						<g class="Tick">
							<path d="M3.9,6.4l3.6-3.6c0.2-0.2,0.4-0.2,0.6,0c0.1,0.1,0.2,0.4,0,0.5l0,0L4.2,7.3c-0.1,0.1-0.4,0.2-0.5,0l0,0L1.9,5.6 C1.8,5.4,1.8,5.2,1.9,5c0.1-0.1,0.4-0.2,0.5,0l0,0L3.9,6.4l3.6-3.6L3.9,6.4z"/>
						</g>
					</g>
				</g>
				<g class="CheckBox" transform="matrix(1, 0, 0, 1, 335.765289, -0.301585)">
					<text style="white-space: pre; fill: rgb(51, 51, 51); font-family: Arial, sans-serif; font-size: 8px;" x="101.358" y="22.816">Ketu</text>
					<g transform="matrix(1, 0, 0, 1, 88.355034, 14.57142)">
						<path d="M8.5,0C9.4,0,10,0.7,10,1.5v7C10,9.4,9.4,10,8.5,10h-7C0.7,10,0,9.4,0,8.5v-7C0,0.7,0.7,0,1.5,0H8.5z M8.5,0.8 h-7c-0.4,0-0.7,0.3-0.7,0.7v7c0,0.4,0.3,0.7,0.7,0.7h7c0.4,0,0.7-0.3,0.7-0.7v-7C9.2,1.1,8.9,0.8,8.5,0.8z"/>
						<g class="Tick">
							<path d="M3.9,6.4l3.6-3.6c0.2-0.2,0.4-0.2,0.6,0c0.1,0.1,0.2,0.4,0,0.5l0,0L4.2,7.3c-0.1,0.1-0.4,0.2-0.5,0l0,0L1.9,5.6 C1.8,5.4,1.8,5.2,1.9,5c0.1-0.1,0.4-0.2,0.5,0l0,0L3.9,6.4l3.6-3.6L3.9,6.4z"/>
						</g>
					</g>
				</g>
			</g>
			<g transform="matrix(1, 0, 0, 1, -381.736908, 15.957771)">
				<g style="" transform="matrix(0.472192, 0, 0, 0.472192, 211.201935, 2.314536)">
					<title>house-icon</title>
					<polyline class="cls-1" points="527.409 32.441 527.409 46.761 510.229 46.761 510.229 32.441" style="fill: none; stroke: rgb(2, 2, 2); stroke-miterlimit: 10; stroke-width: 1.91px;"/>
					<line class="cls-1" x1="507.369" y1="46.761" x2="530.269" y2="46.761" style="fill: none; stroke: rgb(2, 2, 2); stroke-miterlimit: 10; stroke-width: 1.91px;"/>
					<polyline class="cls-1" points="507.369 35.301 518.819 25.761 530.269 35.301" style="fill: none; stroke: rgb(2, 2, 2); stroke-miterlimit: 10; stroke-width: 1.91px;"/>
					<rect class="cls-1" x="515.959" y="39.121" width="5.73" height="7.64" style="fill: none; stroke: rgb(2, 2, 2); stroke-miterlimit: 10; stroke-width: 1.91px;"/>
					<circle class="cls-1" cx="518.819" cy="33.401" r="1.91" style="fill: none; stroke: rgb(2, 2, 2); stroke-miterlimit: 10; stroke-width: 1.91px;"/>
					<polyline class="cls-1" points="523.589 29.741 523.589 25.761 527.409 25.761 527.409 32.921" style="fill: none; stroke: rgb(2, 2, 2); stroke-miterlimit: 10; stroke-width: 1.91px;"/>
				</g>
				<g class="CheckBox" transform="matrix(1, 0, 0, 1, 380.951965, -0.036326)">
					<text style="white-space: pre; fill: rgb(51, 51, 51); font-family: Arial, sans-serif; font-size: 8px;" x="101.358" y="22.816">House 1</text>
					<g transform="matrix(1, 0, 0, 1, 88.292778, 14.485287)">
						<path d="M8.5,0C9.4,0,10,0.7,10,1.5v7C10,9.4,9.4,10,8.5,10h-7C0.7,10,0,9.4,0,8.5v-7C0,0.7,0.7,0,1.5,0H8.5z M8.5,0.8 h-7c-0.4,0-0.7,0.3-0.7,0.7v7c0,0.4,0.3,0.7,0.7,0.7h7c0.4,0,0.7-0.3,0.7-0.7v-7C9.2,1.1,8.9,0.8,8.5,0.8z"/>
						<g class="Tick">
							<path d="M3.9,6.4l3.6-3.6c0.2-0.2,0.4-0.2,0.6,0c0.1,0.1,0.2,0.4,0,0.5l0,0L4.2,7.3c-0.1,0.1-0.4,0.2-0.5,0l0,0L1.9,5.6 C1.8,5.4,1.8,5.2,1.9,5c0.1-0.1,0.4-0.2,0.5,0l0,0L3.9,6.4l3.6-3.6L3.9,6.4z"/>
						</g>
					</g>
				</g>
				<g class="CheckBox" transform="matrix(1, 0, 0, 1, 428.931946, -0.036326)">
					<text style="white-space: pre; fill: rgb(51, 51, 51); font-family: Arial, sans-serif; font-size: 8px;" x="101.358" y="22.816">House 2</text>
					<g transform="matrix(1, 0, 0, 1, 89.183395, 14.527001)">
						<path d="M8.5,0C9.4,0,10,0.7,10,1.5v7C10,9.4,9.4,10,8.5,10h-7C0.7,10,0,9.4,0,8.5v-7C0,0.7,0.7,0,1.5,0H8.5z M8.5,0.8 h-7c-0.4,0-0.7,0.3-0.7,0.7v7c0,0.4,0.3,0.7,0.7,0.7h7c0.4,0,0.7-0.3,0.7-0.7v-7C9.2,1.1,8.9,0.8,8.5,0.8z"/>
						<g class="Tick">
							<path d="M3.9,6.4l3.6-3.6c0.2-0.2,0.4-0.2,0.6,0c0.1,0.1,0.2,0.4,0,0.5l0,0L4.2,7.3c-0.1,0.1-0.4,0.2-0.5,0l0,0L1.9,5.6 C1.8,5.4,1.8,5.2,1.9,5c0.1-0.1,0.4-0.2,0.5,0l0,0L3.9,6.4l3.6-3.6L3.9,6.4z"/>
						</g>
					</g>
				</g>
				<g class="CheckBox" transform="matrix(1, 0, 0, 1, 477.14682, -0.036326)">
					<text style="white-space: pre; fill: rgb(51, 51, 51); font-family: Arial, sans-serif; font-size: 8px;" x="101.358" y="22.816">House 3</text>
					<g transform="matrix(1, 0, 0, 1, 88.948509, 14.527001)">
						<path d="M8.5,0C9.4,0,10,0.7,10,1.5v7C10,9.4,9.4,10,8.5,10h-7C0.7,10,0,9.4,0,8.5v-7C0,0.7,0.7,0,1.5,0H8.5z M8.5,0.8 h-7c-0.4,0-0.7,0.3-0.7,0.7v7c0,0.4,0.3,0.7,0.7,0.7h7c0.4,0,0.7-0.3,0.7-0.7v-7C9.2,1.1,8.9,0.8,8.5,0.8z"/>
						<g class="Tick">
							<path d="M3.9,6.4l3.6-3.6c0.2-0.2,0.4-0.2,0.6,0c0.1,0.1,0.2,0.4,0,0.5l0,0L4.2,7.3c-0.1,0.1-0.4,0.2-0.5,0l0,0L1.9,5.6 C1.8,5.4,1.8,5.2,1.9,5c0.1-0.1,0.4-0.2,0.5,0l0,0L3.9,6.4l3.6-3.6L3.9,6.4z"/>
						</g>
					</g>
				</g>
				<g class="CheckBox" transform="matrix(1, 0, 0, 1, 525.236328, -0.036326)">
					<text style="white-space: pre; fill: rgb(51, 51, 51); font-family: Arial, sans-serif; font-size: 8px;" x="101.358" y="22.816">House 4</text>
					<g transform="matrix(1, 0, 0, 1, 89.073853, 14.527001)">
						<path d="M8.5,0C9.4,0,10,0.7,10,1.5v7C10,9.4,9.4,10,8.5,10h-7C0.7,10,0,9.4,0,8.5v-7C0,0.7,0.7,0,1.5,0H8.5z M8.5,0.8 h-7c-0.4,0-0.7,0.3-0.7,0.7v7c0,0.4,0.3,0.7,0.7,0.7h7c0.4,0,0.7-0.3,0.7-0.7v-7C9.2,1.1,8.9,0.8,8.5,0.8z"/>
						<g class="Tick">
							<path d="M3.9,6.4l3.6-3.6c0.2-0.2,0.4-0.2,0.6,0c0.1,0.1,0.2,0.4,0,0.5l0,0L4.2,7.3c-0.1,0.1-0.4,0.2-0.5,0l0,0L1.9,5.6 C1.8,5.4,1.8,5.2,1.9,5c0.1-0.1,0.4-0.2,0.5,0l0,0L3.9,6.4l3.6-3.6L3.9,6.4z"/>
						</g>
					</g>
				</g>
				<g class="CheckBox" transform="matrix(1, 0, 0, 1, 573.2005, -0.036326)">
					<text style="white-space: pre; fill: rgb(51, 51, 51); font-family: Arial, sans-serif; font-size: 8px;" x="101.358" y="22.816">House 5</text>
					<g transform="matrix(1, 0, 0, 1, 89.199211, 14.527001)">
						<path d="M8.5,0C9.4,0,10,0.7,10,1.5v7C10,9.4,9.4,10,8.5,10h-7C0.7,10,0,9.4,0,8.5v-7C0,0.7,0.7,0,1.5,0H8.5z M8.5,0.8 h-7c-0.4,0-0.7,0.3-0.7,0.7v7c0,0.4,0.3,0.7,0.7,0.7h7c0.4,0,0.7-0.3,0.7-0.7v-7C9.2,1.1,8.9,0.8,8.5,0.8z"/>
						<g class="Tick">
							<path d="M3.9,6.4l3.6-3.6c0.2-0.2,0.4-0.2,0.6,0c0.1,0.1,0.2,0.4,0,0.5l0,0L4.2,7.3c-0.1,0.1-0.4,0.2-0.5,0l0,0L1.9,5.6 C1.8,5.4,1.8,5.2,1.9,5c0.1-0.1,0.4-0.2,0.5,0l0,0L3.9,6.4l3.6-3.6L3.9,6.4z"/>
						</g>
					</g>
				</g>
				<g class="CheckBox" transform="matrix(1, 0, 0, 1, 621.579651, -0.036326)">
					<text style="white-space: pre; fill: rgb(51, 51, 51); font-family: Arial, sans-serif; font-size: 8px;" x="101.358" y="22.816">House 6</text>
					<g transform="matrix(1, 0, 0, 1, 88.784256, 14.527001)">
						<path d="M8.5,0C9.4,0,10,0.7,10,1.5v7C10,9.4,9.4,10,8.5,10h-7C0.7,10,0,9.4,0,8.5v-7C0,0.7,0.7,0,1.5,0H8.5z M8.5,0.8 h-7c-0.4,0-0.7,0.3-0.7,0.7v7c0,0.4,0.3,0.7,0.7,0.7h7c0.4,0,0.7-0.3,0.7-0.7v-7C9.2,1.1,8.9,0.8,8.5,0.8z"/>
						<g class="Tick">
							<path d="M3.9,6.4l3.6-3.6c0.2-0.2,0.4-0.2,0.6,0c0.1,0.1,0.2,0.4,0,0.5l0,0L4.2,7.3c-0.1,0.1-0.4,0.2-0.5,0l0,0L1.9,5.6 C1.8,5.4,1.8,5.2,1.9,5c0.1-0.1,0.4-0.2,0.5,0l0,0L3.9,6.4l3.6-3.6L3.9,6.4z"/>
						</g>
					</g>
				</g>
				<g class="CheckBox" transform="matrix(1, 0, 0, 1, 668.842834, -0.036326)">
					<text style="white-space: pre; fill: rgb(51, 51, 51); font-family: Arial, sans-serif; font-size: 8px;" x="101.358" y="22.816">House 7</text>
					<g transform="matrix(1, 0, 0, 1, 89.9002, 14.527001)">
						<path d="M8.5,0C9.4,0,10,0.7,10,1.5v7C10,9.4,9.4,10,8.5,10h-7C0.7,10,0,9.4,0,8.5v-7C0,0.7,0.7,0,1.5,0H8.5z M8.5,0.8 h-7c-0.4,0-0.7,0.3-0.7,0.7v7c0,0.4,0.3,0.7,0.7,0.7h7c0.4,0,0.7-0.3,0.7-0.7v-7C9.2,1.1,8.9,0.8,8.5,0.8z"/>
						<g class="Tick">
							<path d="M3.9,6.4l3.6-3.6c0.2-0.2,0.4-0.2,0.6,0c0.1,0.1,0.2,0.4,0,0.5l0,0L4.2,7.3c-0.1,0.1-0.4,0.2-0.5,0l0,0L1.9,5.6 C1.8,5.4,1.8,5.2,1.9,5c0.1-0.1,0.4-0.2,0.5,0l0,0L3.9,6.4l3.6-3.6L3.9,6.4z"/>
						</g>
					</g>
				</g>
				<g class="CheckBox" transform="matrix(1, 0, 0, 1, 716.340881, -0.036326)">
					<text style="white-space: pre; fill: rgb(51, 51, 51); font-family: Arial, sans-serif; font-size: 8px;" x="101.358" y="22.816">House 8</text>
					<g transform="matrix(1, 0, 0, 1, 89.665352, 14.527001)">
						<path d="M8.5,0C9.4,0,10,0.7,10,1.5v7C10,9.4,9.4,10,8.5,10h-7C0.7,10,0,9.4,0,8.5v-7C0,0.7,0.7,0,1.5,0H8.5z M8.5,0.8 h-7c-0.4,0-0.7,0.3-0.7,0.7v7c0,0.4,0.3,0.7,0.7,0.7h7c0.4,0,0.7-0.3,0.7-0.7v-7C9.2,1.1,8.9,0.8,8.5,0.8z"/>
						<g class="Tick">
							<path d="M3.9,6.4l3.6-3.6c0.2-0.2,0.4-0.2,0.6,0c0.1,0.1,0.2,0.4,0,0.5l0,0L4.2,7.3c-0.1,0.1-0.4,0.2-0.5,0l0,0L1.9,5.6 C1.8,5.4,1.8,5.2,1.9,5c0.1-0.1,0.4-0.2,0.5,0l0,0L3.9,6.4l3.6-3.6L3.9,6.4z"/>
						</g>
					</g>
				</g>
				<g class="CheckBox" transform="matrix(1, 0, 0, 1, 764.43396, -0.036326)">
					<text style="white-space: pre; fill: rgb(51, 51, 51); font-family: Arial, sans-serif; font-size: 8px;" x="101.358" y="22.816">House 9</text>
					<g transform="matrix(1, 0, 0, 1, 89.07029, 14.527001)">
						<path d="M8.5,0C9.4,0,10,0.7,10,1.5v7C10,9.4,9.4,10,8.5,10h-7C0.7,10,0,9.4,0,8.5v-7C0,0.7,0.7,0,1.5,0H8.5z M8.5,0.8 h-7c-0.4,0-0.7,0.3-0.7,0.7v7c0,0.4,0.3,0.7,0.7,0.7h7c0.4,0,0.7-0.3,0.7-0.7v-7C9.2,1.1,8.9,0.8,8.5,0.8z"/>
						<g class="Tick">
							<path d="M3.9,6.4l3.6-3.6c0.2-0.2,0.4-0.2,0.6,0c0.1,0.1,0.2,0.4,0,0.5l0,0L4.2,7.3c-0.1,0.1-0.4,0.2-0.5,0l0,0L1.9,5.6 C1.8,5.4,1.8,5.2,1.9,5c0.1-0.1,0.4-0.2,0.5,0l0,0L3.9,6.4l3.6-3.6L3.9,6.4z"/>
						</g>
					</g>
				</g>
				<g class="CheckBox" transform="matrix(1, 0, 0, 1, 811.951416, -0.036326)">
					<text style="white-space: pre; fill: rgb(51, 51, 51); font-family: Arial, sans-serif; font-size: 8px;" x="101.358" y="22.816">House 10</text>
					<g transform="matrix(1, 0, 0, 1, 89.64592, 14.527001)">
						<path d="M8.5,0C9.4,0,10,0.7,10,1.5v7C10,9.4,9.4,10,8.5,10h-7C0.7,10,0,9.4,0,8.5v-7C0,0.7,0.7,0,1.5,0H8.5z M8.5,0.8 h-7c-0.4,0-0.7,0.3-0.7,0.7v7c0,0.4,0.3,0.7,0.7,0.7h7c0.4,0,0.7-0.3,0.7-0.7v-7C9.2,1.1,8.9,0.8,8.5,0.8z"/>
						<g class="Tick">
							<path d="M3.9,6.4l3.6-3.6c0.2-0.2,0.4-0.2,0.6,0c0.1,0.1,0.2,0.4,0,0.5l0,0L4.2,7.3c-0.1,0.1-0.4,0.2-0.5,0l0,0L1.9,5.6 C1.8,5.4,1.8,5.2,1.9,5c0.1-0.1,0.4-0.2,0.5,0l0,0L3.9,6.4l3.6-3.6L3.9,6.4z"/>
						</g>
					</g>
				</g>
				<g class="CheckBox" transform="matrix(1, 0, 0, 1, 863.885803, -0.036326)">
					<text style="white-space: pre; fill: rgb(51, 51, 51); font-family: Arial, sans-serif; font-size: 8px;" x="101.358" y="22.816">House 11</text>
					<g transform="matrix(1, 0, 0, 1, 89.681221, 14.527001)">
						<path d="M8.5,0C9.4,0,10,0.7,10,1.5v7C10,9.4,9.4,10,8.5,10h-7C0.7,10,0,9.4,0,8.5v-7C0,0.7,0.7,0,1.5,0H8.5z M8.5,0.8 h-7c-0.4,0-0.7,0.3-0.7,0.7v7c0,0.4,0.3,0.7,0.7,0.7h7c0.4,0,0.7-0.3,0.7-0.7v-7C9.2,1.1,8.9,0.8,8.5,0.8z"/>
						<g class="Tick">
							<path d="M3.9,6.4l3.6-3.6c0.2-0.2,0.4-0.2,0.6,0c0.1,0.1,0.2,0.4,0,0.5l0,0L4.2,7.3c-0.1,0.1-0.4,0.2-0.5,0l0,0L1.9,5.6 C1.8,5.4,1.8,5.2,1.9,5c0.1-0.1,0.4-0.2,0.5,0l0,0L3.9,6.4l3.6-3.6L3.9,6.4z"/>
						</g>
					</g>
				</g>
				<g class="CheckBox" transform="matrix(1, 0, 0, 1, 915.582397, -0.036326)">
					<text style="white-space: pre; fill: rgb(51, 51, 51); font-family: Arial, sans-serif; font-size: 8px;" x="101.358" y="22.816">House 12</text>
					<g transform="matrix(1, 0, 0, 1, 89.325783, 14.527001)">
						<path d="M8.5,0C9.4,0,10,0.7,10,1.5v7C10,9.4,9.4,10,8.5,10h-7C0.7,10,0,9.4,0,8.5v-7C0,0.7,0.7,0,1.5,0H8.5z M8.5,0.8 h-7c-0.4,0-0.7,0.3-0.7,0.7v7c0,0.4,0.3,0.7,0.7,0.7h7c0.4,0,0.7-0.3,0.7-0.7v-7C9.2,1.1,8.9,0.8,8.5,0.8z"/>
						<g class="Tick">
							<path d="M3.9,6.4l3.6-3.6c0.2-0.2,0.4-0.2,0.6,0c0.1,0.1,0.2,0.4,0,0.5l0,0L4.2,7.3c-0.1,0.1-0.4,0.2-0.5,0l0,0L1.9,5.6 C1.8,5.4,1.8,5.2,1.9,5c0.1-0.1,0.4-0.2,0.5,0l0,0L3.9,6.4l3.6-3.6L3.9,6.4z"/>
						</g>
					</g>
				</g>
			</g>
		</g>
	</g>
</svg>