<?xml version="1.0" encoding="utf-8"?>
<!-- Svg Vector Icons : http://www.onlinewebfonts.com/icon -->
<!DOCTYPE svg PUBLIC "-//W3C//DTD SVG 1.1//EN" "http://www.w3.org/Graphics/SVG/1.1/DTD/svg11.dtd">
<svg version="1.1" xmlns="http://www.w3.org/2000/svg" xmlns:xlink="http://www.w3.org/1999/xlink" x="0px" y="0px" viewBox="0 0 1000 1000" enable-background="new 0 0 1000 1000" xml:space="preserve">
<metadata> Svg Vector Icons : http://www.onlinewebfonts.com/icon </metadata>
<g><g><g id="c53_book"><path d="M985.2,279.9c-1.3-2.1-22.6-39.2-65.3-77.3c-42.3-37.9-108.1-77.3-194.6-77.3c-86.6,0-151.7,39.5-193.3,77.6c-12.8,11.8-23.6,23.4-32.5,34c-9.1-10.7-20.4-22.4-33.5-34.3c-42.5-37.9-108.2-77.3-194.8-77.3c-86.6,0-151.6,39.5-193.3,77.6c-41.8,38.2-62.2,75.4-63.4,77.6L10,297.6v559.3l67,17.1l0.1,0.1c0.9-1.9,19.1-33,52-61.9c33.3-29.2,79.7-56.1,141.9-56.3c64.1,0,112.9,28.9,147.2,59.4c16.9,15.1,30.2,30.4,38.6,41.7c4.4,5.7,7.4,10.4,9.5,13.4c0.9,1.6,1.7,2.8,2.1,3.6c0.2,0.3,0.4,0.6,0.4,0.7l0,0l0,0h0.2l62.2-0.6l0,0l0.1-0.1v-0.1c1.4-2.6,19.5-33.1,51.9-61.7c33.5-29.2,79.9-56.1,142-56.3c64.1,0,112.8,28.9,147.2,59.4c17,15.1,29.9,30.4,38.5,41.7c4.4,5.7,7.5,10.4,9.6,13.4c1,1.6,1.7,2.8,2.1,3.6c0.3,0.3,0.4,0.6,0.4,0.7h0.1l0,0l66.8-17.8V297.6L985.2,279.9z M271.1,684.5L271.1,684.5c-84.2,0-147.9,37.3-189.5,74.3V307.7c7.4-11.2,23.4-33.4,47.6-54.8c33.3-29.2,79.7-56.1,141.9-56.1c64.1,0,112.9,28.9,147.2,59.3c16.9,15.1,30.2,30.5,38.6,41.9c3,3.9,5.5,7.4,7.2,10.1v452.5C421.9,723.1,356.7,684.5,271.1,684.5z M918.4,760.5c-42.5-37.5-107.6-76-193.1-76c-84.1-0.1-147.9,37.3-189.6,74.3V307.7c7.4-11.1,23.5-33.4,47.6-54.8c33.5-29.2,79.9-56.1,142-56.1c64.1,0,112.8,28.9,147.2,59.3c17,15.1,29.9,30.5,38.5,41.9c3.1,3.9,5.5,7.4,7.4,10.1L918.4,760.5L918.4,760.5z"/></g><g id="Capa_1_50_"></g></g><g></g><g></g><g></g><g></g><g></g><g></g><g></g><g></g><g></g><g></g><g></g><g></g><g></g><g></g><g></g></g>
</svg>