<?xml version="1.0" encoding="UTF-8"?>
<svg id="Layer_1" data-name="Layer 1" xmlns="http://www.w3.org/2000/svg" viewBox="0 0 115 32">
  <defs>
    <style>
      .cls-1 {
        fill: #969696;
      }

      .cls-2 {
        fill: none;
      }
    </style>
  </defs>
  <g id="Layer_2" data-name="Layer 2">
    <rect class="cls-2" width="115" height="32"/>
  </g>
  <g>
    <path class="cls-1" d="m45.5,27.9V3.38h10.72c-.04.06-.07.11-.1.15-.57.76-1.14,1.52-1.7,2.28-.07.1-.15.13-.26.13-1.95,0-3.91,0-5.86,0h-.22v8.49h5.11c.37-3.12,1.68-5.78,3.97-7.93,1.79-1.68,3.91-2.74,6.32-3.18,5.16-.95,9.94,1.37,12.54,5.01-.68.5-1.37.99-2.06,1.49-2.18-2.79-5.01-4.24-8.55-4.14-2.8.08-5.17,1.2-7.07,3.26-3.7,4.01-3.5,10.32.41,14.06,1.44,1.38,3.13,2.27,5.09,2.65,1.96.38,3.86.2,5.71-.55,1.85-.75,3.34-1.95,4.5-3.58.7.49,1.4.98,2.09,1.46-2.56,3.77-7.31,6.01-12.2,5.3-5.74-.84-10.18-5.47-10.78-11.25h-5.12v.22c0,2.92,0,5.84,0,8.76,0,.15-.04.23-.17.31-.74.49-1.48.98-2.22,1.48-.05.03-.11.07-.18.11Z"/>
    <path class="cls-1" d="m69.6,18.42c.7.49,1.4.97,2.09,1.46-1.59,2.34-4.66,3.68-7.76,2.85-3.13-.83-5.31-3.61-5.37-6.83-.06-3.21,2-6.07,5.04-7.03,3.1-.98,6.31.26,8.01,2.65-.69.5-1.37,1-2.06,1.5-1.75-2.36-5.09-2.53-7.07-.55-1.87,1.88-1.8,4.92.16,6.73,2.01,1.84,5.26,1.59,6.96-.77Z"/>
  </g>
  <g>
    <path class="cls-1" d="m21.86,14.34h9.84v2.78h-9.85c.19.65.32,1.28.57,1.86.26.61.59,1.19.96,1.74.5.73,1.12,1.37,1.82,1.93.59.46,1.21.87,1.88,1.19,1.09.53,2.25.87,3.46.99.38.04.76.06,1.16.09v2.76c-.07,0-.14,0-.21,0-1.4-.02-2.76-.24-4.09-.67-.95-.31-1.87-.69-2.71-1.24-.56-.36-1.1-.75-1.63-1.15-.61-.46-1.13-1.01-1.61-1.59-.4-.49-.76-1-1.09-1.54-.45-.75-.8-1.53-1.07-2.36-.7-2.15-.67-4.3-.12-6.47.13-.51.32-1.01.55-1.48.31-.63.65-1.24,1.03-1.83.46-.7,1.02-1.34,1.63-1.91.65-.62,1.36-1.17,2.12-1.64,1.88-1.14,3.92-1.81,6.13-1.97.32-.02.64-.03.96-.04.03,0,.07,0,.12,0v2.76c-.21.01-.42.02-.64.04-1.06.06-2.08.27-3.08.65-1.01.38-1.95.89-2.78,1.58-.36.31-.71.64-1.05.98-.46.45-.84.96-1.14,1.53-.14.25-.27.5-.41.74-.34.63-.52,1.31-.66,2.01-.01.07-.05.14-.09.25Z"/>
    <path class="cls-1" d="m15.36,3.81v2.75c-.37.03-.73.04-1.09.08-1.23.12-2.4.46-3.52,1-.8.39-1.53.87-2.2,1.46-.61.54-1.15,1.14-1.61,1.82-.49.73-.85,1.52-1.12,2.36-.49,1.53-.47,3.07-.1,4.62.12.51.31,1.02.54,1.48.31.6.65,1.18,1.06,1.71.73.96,1.65,1.74,2.69,2.36,1.15.68,2.39,1.12,3.71,1.32.47.07.94.09,1.42.13.07,0,.14.01.21.02v2.78c-.46-.03-.91-.04-1.36-.08-1.37-.13-2.7-.45-3.96-.99-.62-.27-1.22-.58-1.8-.92-.88-.52-1.69-1.14-2.39-1.9-.33-.35-.66-.72-.97-1.09-.47-.56-.87-1.17-1.17-1.83-.17-.36-.32-.72-.49-1.08-.3-.63-.42-1.32-.58-2-.3-1.3-.27-2.6-.07-3.9.1-.63.29-1.25.48-1.85.13-.43.31-.85.52-1.25.33-.61.67-1.22,1.08-1.77.48-.63,1.02-1.23,1.6-1.78.78-.75,1.67-1.36,2.63-1.86,2-1.06,4.14-1.6,6.4-1.61.02,0,.04,0,.09.01Z"/>
  </g>
  <g>
    <path class="cls-1" d="m108.89.76s-.06.03-.08.05c-1.59,1.62-3.18,3.24-4.77,4.85,0,0-.01.01-.01.02.02.04.06.08.06.12,0,.71,0,1.42,0,2.13,0,0,0,.02-.02.04h-1.44c-.02.15-.03.28-.05.42-.17,1.81-.34,3.63-.51,5.44-.07.8-.15,1.61-.23,2.41,0,.1.02.16.09.24,1.85,1.95,3.71,3.9,5.56,5.85.04.04.08.09.14.15-.13.12-.25.24-.38.36-1.35-1.42-2.69-2.83-4.05-4.27,0,.09,0,.15,0,.21.04,1.11-.85,1.99-1.95,1.93-.64-.03-1.13-.34-1.47-.88-.04-.06-.07-.1-.16-.1-1.45,0-2.89,0-4.34,0-.03,0-.05,0-.1,0v.95h-1.19v-.95c-.26-.06-.29-.26-.31-.48-.07-.9-.15-1.8-.23-2.71,0-.01,0-.02-.02-.06-2.11,2.15-4.2,4.28-6.3,6.42-.12-.13-.24-.25-.36-.38.45-.46.91-.93,1.37-1.39,1.71-1.74,3.43-3.49,5.15-5.23.08-.08.1-.15.09-.26-.12-1.29-.23-2.58-.34-3.87-.1-1.15-.19-2.29-.29-3.44-.01-.17-.05-.35-.04-.52,0-.25-.1-.43-.27-.6-2-2.1-4-4.21-5.99-6.31-.05-.05-.08-.14-.09-.22-.01-.19,0-.37,0-.61,2.09,2.2,4.15,4.37,6.21,6.54,0,0,.02,0,.03,0-.05-.62-.11-1.23-.16-1.86h-.76v-.65c.19,0,.39,0,.58,0,.04,0,.1-.03.12-.07.22-.54.63-.89,1.14-1.14.13-.07.2-.14.17-.28-.01-.07,0-.14,0-.23.21,0,.4-.01.6,0,.18.01.36-.03.54.04.11.04.26-.05.4-.07.43-.06.86-.11,1.3-.17,0-.06,0-.14.01-.23h3.15v.31c1.06.17,2.1.34,2.91,1.15.18-.2.41-.32.69-.32.19,0,.37.07.52.19.3.24.41.66.25,1.02-.18.41-.53.56-1.12.46-.03.32-.06.63-.09.97.22,0,.42.04.61-.16,1.81-1.86,3.63-3.7,5.44-5.55v.76Zm-15.81,4c.08.87.15,1.73.23,2.58,0,.04.04.09.08.13,1.23,1.29,2.46,2.59,3.69,3.88.11.11.22.21.34.33.79-.8,1.58-1.61,2.37-2.42,0-.01-.01-.02-.02-.03h-3.35v-1.27h3.94v.7s.02.01.04.02c.04-.05.08-.1.12-.15.37-.38.74-.78,1.13-1.14.2-.19.29-.37.27-.65-.02-.33,0-.66,0-1,.1,0,.19,0,.28-.01.03-.32.06-.64.09-.96h-9.19Zm6.41,14.31c.11-1.3.45-1.73,1.64-2.07.01-.14.02-.29.04-.43.01-.09-.01-.16-.08-.22-1.2-1.27-2.4-2.53-3.61-3.8-.03-.03-.07-.06-.12-.11-.03.05-.06.09-.09.12-1.05,1.07-2.1,2.14-3.15,3.2-.08.08-.1.16-.09.26.08.86.15,1.73.23,2.59.01.15.03.3.05.46h5.18Zm2.39-11.2c-1.38,1.4-2.75,2.8-4.12,4.2,1.16,1.22,2.32,2.44,3.5,3.68.08-.87.16-1.7.23-2.53.15-1.56.3-3.12.44-4.68.02-.22.13-.45-.04-.67Zm-8.46.37s-.02,0-.03.01c.2,2.29.39,4.59.59,6.91,1.03-1.05,2.04-2.08,3.06-3.11-1.21-1.28-2.41-2.55-3.62-3.82Zm1.36-4.17h7.5c-.12-.15-.21-.27-.32-.38-.25-.24-.56-.37-.88-.48-.45-.15-.91-.24-1.4-.3v.59h-3.16v-.68c-.59.08-1.17.17-1.74.25v1Zm6.57,15.74c.53,0,.97-.43.97-.96,0-.52-.43-.96-.95-.96-.53,0-.97.42-.98.96,0,.53.43.97.96.97Zm2.18-13.53c-.07.04-.13.06-.17.09-.16.16-.31.34-.49.49-.17.14-.18.32-.18.52h.83v-1.1Zm-4.5-3.69h-1.86v.27h1.86v-.27Zm-5.36.9c-.27.15-.49.31-.63.58h.63v-.58Z"/>
    <path class="cls-1" d="m88.18,32s-.01-.08-.01-.13c0-1.42,0-2.84,0-4.27v-.14h18.66v.16c0,1.4,0,2.8,0,4.2,0,.06,0,.11,0,.17h-18.65Z"/>
    <path class="cls-1" d="m101.35,18.23c.34,0,.63.28.63.62,0,.34-.28.62-.63.62-.35,0-.63-.28-.63-.62,0-.34.28-.63.63-.63Z"/>
  </g>
</svg>