<?xml version="1.0" encoding="utf-8"?>
<!-- Generator: Adobe Illustrator 27.7.0, SVG Export Plug-In . SVG Version: 6.00 Build 0)  -->
<svg version="1.1" id="_x30_620dcdb56e444ffadaaf177f668716c"
	 xmlns="http://www.w3.org/2000/svg" xmlns:xlink="http://www.w3.org/1999/xlink" x="0px" y="0px" viewBox="0 0 1000 1000"
	 style="enable-background:new 0 0 1000 1000;" xml:space="preserve">
<style type="text/css">
	.st0{fill:#0B004A;}
	.st1{fill:#915C25;}
	.st2{fill:#E9DBCB;}
	.st3{fill:#F0EADF;}
	.st4{fill:#F8F5ED;}
	.st5{fill:#F5F2EA;}
	.st6{fill:#EEE7D8;}
	.st7{fill:#F8F6ED;}
	.st8{fill:#A37F4C;}
	.st9{fill:#EFE3D9;}
	.st10{fill:#A17747;}
	.st11{fill:#AB8457;}
	.st12{fill:#EEE7D9;}
	.st13{fill:#9D6928;}
	.st14{fill:#A58251;}
	.st15{fill:#9F7545;}
	.st16{fill:#EDE3D3;}
	.st17{fill:#E7DACA;}
	.st18{fill:#9C7541;}
	.st19{fill:#9C7542;}
	.st20{fill:#BE792A;}
	.st21{fill:#A98254;}
	.st22{fill:#9D6728;}
	.st23{fill:#9C6427;}
	.st24{fill:#A88353;}
	.st25{fill:#A88355;}
	.st26{fill:#EDE0CF;}
	.st27{fill:#EADCC9;}
	.st28{fill:#E08E27;}
	.st29{fill:#915B24;}
	.st30{fill:#D78728;}
	.st31{fill:#DC8A27;}
	.st32{fill:#DA8927;}
	.st33{fill:#976830;}
	.st34{fill:#CB7E29;}
	.st35{fill:#9A672E;}
	.st36{fill:#E99326;}
	.st37{fill:#945F25;}
	.st38{fill:#E8D9C7;}
	.st39{fill:#97672F;}
	.st40{fill:#F99C2E;}
	.st41{fill:#BC762A;}
	.st42{fill:#BD792A;}
	.st43{fill:#9D6527;}
	.st44{fill:#9D6627;}
	.st45{fill:#BD782A;}
	.st46{fill:#BC752A;}
	.st47{fill:#B16C29;}
	.st48{fill:#B26D29;}
	.st49{fill:#F99C2D;}
	.st50{fill:#DB8A27;}
	.st51{fill:#BC782A;}
	.st52{fill:#F7F8F8;}
	.st53{fill:#E5D7C4;}
	.st54{fill:#BF792A;}
	.st55{fill:#BF7B2A;}
	.st56{fill:#F5992C;}
	.st57{fill:#F89A32;}
	.st58{fill:#F8A038;}
	.st59{fill:#B16D29;}
	.st60{fill:#F79C2F;}
	.st61{fill:#B57129;}
	.st62{fill:#F79C2B;}
	.st63{fill:#B36E29;}
	.st64{fill:#E28E25;}
	.st65{fill:#F7992C;}
	.st66{fill:#F5992B;}
	.st67{fill:#F9A037;}
	.st68{fill:#EF962A;}
	.st69{fill:#E99323;}
	.st70{fill:#CA7D29;}
	.st71{fill:#CA8029;}
	.st72{fill:#E79225;}
	.st73{fill:#F69A2D;}
	.st74{fill:#F9A139;}
	.st75{fill:#F8A138;}
	.st76{fill:#F89B2D;}
	.st77{fill:#F69F37;}
	.st78{fill:#9D6226;}
	.st79{fill:#EE9629;}
	.st80{fill:#E18C2A;}
	.st81{fill:#E28C2A;}
	.st82{fill:#9E6226;}
	.st83{fill:#E18B2A;}
	.st84{fill:#9E672C;}
	.st85{fill:#925C24;}
	.st86{fill:#905D25;}
	.st87{fill:#966527;}
	.st88{fill:#946226;}
	.st89{fill:#925B25;}
	.st90{fill:#CBAE8B;}
	.st91{fill:#CFB095;}
	.st92{fill:#DECFBC;}
	.st93{fill:#F0EBDE;}
	.st94{fill:#ECE7DB;}
	.st95{fill:#CFB296;}
	.st96{fill:#D5C1A7;}
	.st97{fill:#D4BCA5;}
	.st98{fill:#DDCDB9;}
	.st99{fill:#EEE9DE;}
	.st100{fill:#F69A2D;stroke:#F69A2D;stroke-width:12;stroke-miterlimit:10;}
	.st101{font-family:'ArialMT';}
	.st102{font-size:35px;}
	.st103{fill:#FF386C;}
	.st104{fill:#FFFF48;}
	.st105{fill:#FF8233;}
	.st106{fill:#4DFFAD;}
</style>
<g id="darkmode">
	<rect x="72.7" y="69.2" class="st0" width="875.2" height="865.5"/>
</g>
<g>
	<g id="border">
		<path class="st1" d="M113.9,961l-0.6,9.3c-20.6,3.7-41.3,0.7-62,1.6c-1.7-0.2-2.6-1.2-2.8-2.9c0.7-1.3,1.8-2.3,3.1-2.9
			c16.9-3.1,34,0.2,51.1-2.9c-8.8-1.7-17.8-1.1-26.7-1.4c-6-0.2-12.3,1.1-17.6-3.4c-5.8-15.1-1.5-30.8-2.8-46.2c0-1.5,0-2.9,0.1-4.4
			c0.1-1.5,0.4-2.9,0.9-4.3c2.4-3.8-0.3-8.7,2.8-12.4c1.6-0.2,2.8,0.4,3.7,1.8c3.9,15.1,0.9,30.6,1.9,45.8c0.3,4.6-1.6,10,4.1,13
			c5.7,1.3,11.5,0.7,17.2,0.7l446.6,0.1c6.5,0,13.2-0.7,19.6,1.1c1.5,0.6,2.7,1.7,3.4,3.1c-1.1,4.5-5,2.1-7.5,3
			c-2,0.8-4,1.7-6.2,1.9c-16.8,0.8-33.8-0.6-50.6,1.6c17.2,3.4,34.8-0.7,51.9,3.3c1.8,1.4,3.8,2.8,1.1,5.2
			c-21.1-0.3-42.2,1.7-63.3-1.1l0.1,0c-1.2-7.3-3.1-12.1-12.9-11.3c-36.3,2.9-72.6,0.3-108.9,0.3l-238.8,0
			C118.5,959.6,115.9,959.1,113.9,961L113.9,961z"/>
		<path class="st2" d="M113.9,961c2.6-5,7.3-2.5,10.9-2.5l344.9-0.4c10.2,0,13,3.4,11.9,12.5c-2.6-6.9-6.5-11.9-15-9.6
			c-0.9,0-1.7,0-2.6,0c-13.9,1.7-27.9,1.7-41.8,0l-22.4,0c-4.9,1.5-9.8,1.7-14.6-0.1l-5.2,0.1c-4.9,1.4-9.7,1.6-14.6-0.1l-22.3,0
			C266.7,961,190.3,961,113.9,961L113.9,961z"/>
		<path class="st3" d="M59.6,891.8L59,903.7c-3.2,3.5-7,3.6-11.1,1.8l-1.5-1.4c9.4-1.9,10.9-8.1,10.5-16.8
			c-0.7-17.4-0.2-34.9-0.3-52.4c-2-3.3-1.8-6.5,0-9.8v-12.4l0.2-269.1c1.7-0.7,3-0.2,3.9,1.3c1.2,2.1,1.6,4.4,1.8,6.8l0.2,275.5
			l-0.1,50.5C62.6,882.5,63,887.6,59.6,891.8L59.6,891.8z M56.6,469.1l0-352.6c-3.3-4.4-3.7-8.7,0.4-12.9c1.8-0.2,3.1,0.6,3.9,2.2
			c2.3,5.1,1.7,10.5,1.7,15.8v331c0,5.3,0.7,10.7-1.9,15.7C59.6,469.8,58.2,470.1,56.6,469.1L56.6,469.1z"/>
		<path class="st4" d="M44.3,923.8c1-6.5-2-13.5,2.1-19.8l0.7,0.3c5.8,20.8,3.3,41.8,1.5,62.9c-0.3,1.5-1.2,2.8-2.4,3.7
			C42.1,955.4,45.4,939.5,44.3,923.8L44.3,923.8z"/>
		<path class="st5" d="M46.1,101.7l-1.8-0.1l0-14.8l0-19.8c-1.1-1.1-1.9-2.3-2.4-3.7c-0.2-9.9-5.3-20.5,4.5-28.9
			c1.3,0.9,2.2,2,2.8,3.5c1.7,20.2,1.9,40.3,0,60.5C48.5,99.9,47.5,101,46.1,101.7L46.1,101.7z"/>
		<path class="st6" d="M49.3,970.3l64,0c-1.6,3.2-4.6,3.1-7.5,2.9c-19.8-1.3-39.9,2.9-59.6-2.2l0.9-0.4
			C47.7,969.5,48.5,969.5,49.3,970.3L49.3,970.3z"/>
		<path class="st7" d="M46.2,536.4c-2.3-22.3-4.3-44.5,1-66.7c0.9,1.2,1.7,2.5,2.2,3.8c1.2,19.9,1.7,39.7-0.3,59.6
			C48.5,534.5,47.5,535.6,46.2,536.4L46.2,536.4z"/>
		<path class="st8" d="M47.2,472.1c-0.2-0.8-0.3-1.6-0.1-2.4l9.5-0.6c0.8,0.3,1.6,0.3,2.4,0.1c1.6,2.5,0.1,4.1-1.7,5.7
			c-1.5,0.9-3.1,1.2-4.8,0.9C50.2,475.3,48.7,473.7,47.2,472.1L47.2,472.1z"/>
		<path class="st9" d="M58.8,543.6l-2,0c-0.3-7.1-8.1-3.3-10.6-7.2L47,536c1.1-1,2.4-1.7,3.8-2.1C57.5,533.9,63.4,534.4,58.8,543.6
			L58.8,543.6z"/>
		<path class="st10" d="M970.7,104.2l0,14.7l0,212.3v93.9l0,44.2l-2.2,0.8c-1.4-0.9-2.4-2.1-3-3.6c-2.4-27.5-0.5-55-1-82.4
			c-0.2-11.9,0-23.8-0.1-35.7l0.2-239.9c0.1-1.5,0.5-3,1-4.5c0.7-1.4,1.8-2.4,3.3-2.9C970.5,101.4,971.1,102.5,970.7,104.2
			L970.7,104.2z"/>
		<path class="st2" d="M915.8,971.4c-1.7-9.6-7.8-10.8-16.7-10.8l-338.7,0.1c-0.7-1.8-0.2-3.1,1.5-4c4.6-2.3,9.6-1.8,14.5-1.8
			l323,0.1c8.4,0,19.6-2.6,18.9,12.2C917.9,968.9,917,970.3,915.8,971.4L915.8,971.4z"/>
		<path class="st10" d="M970.6,738.6v108.7l0,56.6c-1.8,0.5-3.2,0-4.2-1.5c-2.8-5-2-10.4-2-15.7V567.6c0-4.9-0.5-9.9,1.6-14.6
			c0.8-1.7,2.2-2.3,4-2l0.4,171.7C970.3,728,970.5,733.3,970.6,738.6L970.6,738.6z"/>
		<path class="st11" d="M970.6,469.3c9.7-1.5,12.6,2.6,12.2,12.3c-0.8,18.1-0.3,36.2-0.4,54.3c-1.2,1.2-2.4,1.1-3.5-0.2
			c-0.8-1.2-1.3-2.5-1.7-3.8c-1.2-14.9-0.4-29.9-0.5-44.8c0-5.5-0.6-10.5-6-13.5c-1.1-1-1.5-2.3-1.2-3.7L970.6,469.3L970.6,469.3z
			 M980,904.5c4.3,1.7,2.5,5.5,2.5,8.4l-0.1,57.4c-1.4,1.2-2.6,1.1-3.6-0.4c-0.8-1.3-1.3-2.7-1.6-4.1c-0.5-19.2-1.3-38.4,0.4-57.6
			C978.1,906.8,978.9,905.6,980,904.5L980,904.5z"/>
		<path class="st12" d="M979.9,970.3l2.5,0c-2.4,4-6.4,2.9-9.9,2.8c-18.9-0.9-38,2.2-56.8-1.7l0.4-1c3.3-3,7.5-3.4,11.6-3.1
			C945.1,968.7,962.8,963.9,979.9,970.3L979.9,970.3z"/>
		<path class="st6" d="M481.4,970.6l64-0.3c0.8-0.9,1.6-0.9,2.4,0c-1.4,2.6-3.8,2.8-6.3,2.8h-53.7
			C485.3,973.2,482.9,973,481.4,970.6L481.4,970.6z"/>
		<path class="st13" d="M980,904.5l-0.1,2.1c-2.2,2.4-6,3.5-6,7.6c-1.2,14.4,2.2,29-2.3,43.2c-1,1.3-2.2,1.8-3.8,1.4
			c-1.1-1-2-2.3-2.5-3.7c-1-16.5-2.5-33,0.9-49.4l1.6-1.7l2.8-0.2L980,904.5L980,904.5z"/>
		<path class="st14" d="M547.8,970.4l-1.2,0.1l-1.2-0.2l-2.3-2.3c-0.8-0.7-1.4-1.6-1.8-2.5c-0.4-1.5-0.4-3.1,0-4.6
			c0.4-0.9,1.1-1.8,1.9-2.4l5.2,0c0.7,0.5,0.9,1,0.7,1.6c-0.2,0.5-0.4,0.8-0.6,0.8L547.8,970.4L547.8,970.4z"/>
		<path class="st15" d="M969.8,551h-2c-1-0.8-1.8-1.8-2.2-3c-1-3.8-1-7.5,0.8-11.1c0.8-1.1,1.9-1.6,3.2-1.3c1.2,0.8,1.5,1.9,0.9,3.2
			L969.8,551L969.8,551z"/>
		<path class="st16" d="M970.7,538.8c-0.3-0.8-0.3-1.6-0.1-2.4c3-3.1,6.1-2.7,9.4-0.5c0.8,0.2,1.6,0.2,2.4,0
			C979.4,540.6,974.6,537.9,970.7,538.8L970.7,538.8z"/>
		<path class="st17" d="M548.4,961c-0.3-0.8-0.3-1.6-0.1-2.4l7.1-0.6c1.9-1.1,3.5-0.9,4.9,0.8v2L548.4,961L548.4,961z"/>
		<path class="st18" d="M113.6,46.9l285,0.3l80.2-0.4c1.7-0.5,2.8,0.1,3.2,1.8c-0.5,1.5-1.4,2.6-2.9,3.3c-1.5,0.6-3,0.9-4.5,1.1
			l-348,0.2c-4.1,0-8.3,0.2-12-2.1C113,50,112.7,48.6,113.6,46.9L113.6,46.9z"/>
		<path class="st19" d="M812.2,46.9l101.1,0c1.8-0.5,2.8,0.2,3.2,2c-0.7,1.5-1.8,2.5-3.2,3.1c-21.6,2.7-43.3,0.5-65,1.3
			c-92.3-0.1-184.6,0-276.9-0.1c-6.3,0-13.3,1.8-18.7-3.6c3.6-4.3,8.4-2.2,12.6-2.2l233.3-0.1C803.2,47.3,807.7,47,812.2,46.9
			L812.2,46.9z"/>
		<path class="st20" d="M552.7,49.6l296.5,0.3c0.8,1.4,0.6,2.5-0.7,3.5c-1.2,0.8-2.5,1.3-3.9,1.6c-2.9,0.7-5.8,0.6-8.8,0.6l-268.5,0
			c-5.3,0-10.7,0.5-15.9-0.9c-1.5-0.5-2.9-1.5-3.8-2.8l0.7-2.3L552.7,49.6L552.7,49.6z"/>
		<path class="st21" d="M916.2,35.1l21.9-0.6h9.9c8.5,0.1,17.1,0.7,25.6,0.3c7-0.3,9.2,2.1,9,9.1c-0.4,19.1-0.2,38.3-0.3,57.4
			c-1.4,1.1-2.6,1-3.6-0.5c-0.8-1.2-1.3-2.6-1.6-4.1c-1-15.2-0.4-30.4-0.4-45.6c0-7.3-2.9-10.3-10.3-10.3c-15.2,0-30.4,0.6-45.6-0.4
			c-1.5-0.3-2.8-0.8-4.1-1.6C915.3,37.8,915.1,36.5,916.2,35.1L916.2,35.1z"/>
		<path class="st22" d="M113.6,46.9l-0.1,2.8c-0.9,1.1-2.1,1.9-3.4,2.4c-14.6,2.2-29.3,0-43.9,1.4c-1.4,0.3-2.8,0.3-4.2,0
			c-2.1-0.6-3.8-1.7-5-3.5c0.2-6.9,5.9-5.5,9.7-5.8c9.3-0.7,18.6,0,27.9-0.4c3.8-0.2,8.4,1.4,10.7-3.5c0.6-1.2,1.4-2.2,2.4-3
			c1.8-1.1,3.6-1.3,5.3,0.3L113.6,46.9L113.6,46.9z"/>
		<path class="st23" d="M481.3,49.7l-0.1-2.8c-1.6-3.1-1.2-6.3-0.4-9.5c1.1-1,2.3-1,3.6-0.3c1,0.8,1.9,1.8,2.5,3
			c2.7,5.4,7.8,3.5,12,3.6c13.8,0.5,27.7-0.2,41.6,0.4c1.4,0.1,2.7,0.4,4,0.9c1.2,0.6,2.3,1.4,3.3,2.4c0.3,0.7,0.5,1.4,0.5,2.2
			l-0.4,0.3c-14.8,6.9-30.4,2.3-45.5,3.2C495.3,53.4,487.6,55.3,481.3,49.7L481.3,49.7z"/>
		<path class="st24" d="M547.7,47.4l-2.1-0.2c-4.7-6.5-11.7-6-18.6-6.5c-14.3-1.1-29.2,3.6-43.1-3.2l-1.1,0l-1.1,0.1
			c-0.9-0.5-1.1-1.1-0.8-1.6c0.3-0.5,0.6-0.8,0.9-0.8c18.3,0,36.7,0.5,55-0.4C547.2,34.2,549.5,38.4,547.7,47.4L547.7,47.4z"/>
		<path class="st25" d="M113,37.5l-4.5-0.1c-4.3,4-9.8,3.5-15,3.4c-14.2-0.3-28.3,1-42.5-0.8c-1.5-0.6-2.8-1.4-4-2.5V35
			c0.8-1.1,1.9-1.8,3.1-2.2c4-1.3,7.7,0,11.3,1.8l51.8,0.6C113.5,36,113.4,36.8,113,37.5z"/>
		<path class="st26" d="M481.7,35.1c-0.2,0.8-0.2,1.6,0,2.4l-0.5,9.4l-1.2,0.2l-1.2-0.2C479.6,42.9,476.9,38.1,481.7,35.1
			L481.7,35.1z"/>
		<path class="st27" d="M980,101.3c0.8,0.2,1.6,0.1,2.4-0.1c-2.9,4.8-7.8,2-11.7,3c-0.3-0.8-0.3-1.6,0-2.4
			C973.6,98.7,976.7,99.1,980,101.3L980,101.3z"/>
		<path class="st28" d="M555.4,956.2l-211.1-0.3l-280.2-0.2c-0.5-1.8,0.1-3.2,1.7-4c11.3-3.3,22.9-1.8,34.3-1.8l446.4-0.1
			c3.7,0,7.4-0.2,10.9,1.3c1.5,0.7,2.7,1.7,3.5,3.2C560.1,957.9,557.8,957,555.4,956.2L555.4,956.2z"/>
		<path class="st29" d="M555.4,956.2l4.9-0.5c4.1-3.6,9.2-3.2,14.1-3.2l379.3,0c3.3,0,6.6,0,9.8,0.9c1.5,0.6,3,1.5,4.2,2.5l-0.1,2.2
			c-7.8,6.5-17.2,2.6-25.8,3.6c-5.1,0.6-10.4-0.9-17.8,1.9c19,2.8,35.9-0.6,52.5,2.2c1.2,0.6,2.3,1.4,3.4,2.3c0,0.7,0,1.4,0,2.1
			l-63.8,0.1c-0.1-6.5,1-12.4-9.7-12.3l-343.6,0.3c-0.8,0-1.6,0.2-2.4,0.3l-4.9-0.8V956.2L555.4,956.2z"/>
		<path class="st30" d="M64.1,953.4v2.3c-4.1-3-2.4-7.5-2.5-11.3l-0.3-52.5c-2.1-21.5-0.4-43-1-64.5V550.7c-0.1-1.6,0.2-3.3,0.8-4.8
			c1.7-0.7,3.1-0.2,4.2,1.3c3.1,5.8,2,12.1,2,18.2l0.1,262.9c-0.3,6.9,0.6,13.8,0,20.7c-0.1,5.2,0.3,10.4,0.1,15.6
			c0.1,5.2-0.2,10.5,0.2,15.7c-0.5,23,1.4,46.1-1.2,69.1C66,950.9,65.1,952.2,64.1,953.4L64.1,953.4z"/>
		<path class="st31" d="M542.8,965.8c0.1,0.8,0.2,1.6,0.2,2.3l-50.3,0.1c-3.5,0-8.1,1.1-8.5-4.3c-0.5-6.5,4.8-5.4,8.6-5.5l50.3,0.2
			c0,0.8-0.1,1.6-0.2,2.3c-13.1,5.5-26.8,0.5-37.9,2.4C516.1,965.2,529.8,960.2,542.8,965.8L542.8,965.8z"/>
		<path class="st32" d="M59.4,958.3l43.2,0.1c3.6,0,8.1-0.6,8,5c-0.1,5.6-4.6,4.8-8.2,4.8L51.8,968c-0.8-1.3-0.5-2.5,0.7-3.4
			c15.3-3.4,30.8,0.2,43.9-1.5c-11-1.8-24.6,3.8-37.4-3C59.1,959.6,59.3,959,59.4,958.3L59.4,958.3z"/>
		<path class="st33" d="M49.3,970.3l-1.1,0.3l-1.1,0l0-66.2l11.9-0.6l0.1,3c-5.2,3.6-6.5,8.7-6.4,14.8c0.2,10.9,0,21.8,0.1,32.7
			c0,5-0.6,9.7-3.3,13.9L49.3,970.3L49.3,970.3z"/>
		<path class="st34" d="M49.3,968.1l-0.2-51.8c-0.2-7.5,2.3-10.9,9.9-9.6c0,0.8,0,1.6-0.1,2.4c-1,1-1.8,2-2.6,3.2
			c-2.5,12.8-0.7,25.7-1.2,38.5c-0.2,5.2,0.6,10.6-3.3,14.9c0,0.8,0,1.5,0,2.3L49.3,968.1L49.3,968.1z"/>
		<path class="st35" d="M61.5,827.5l-0.1,64.3l-1.8,0l0-64.3C60.2,826.4,60.8,826.4,61.5,827.5L61.5,827.5z"/>
		<path class="st36" d="M56.6,909.1c0.8,0,1.5,0,2.3,0l0.5,49.2l-0.5,0c-1.8,0-3.6-0.8-3.7-2.4C54.4,940.3,52,924.6,56.6,909.1
			L56.6,909.1z"/>
		<g>
			<path class="st37" d="M61.9,546l-0.4,2.5c-0.6,1.1-1.2,1.1-1.9,0l-0.8-4.9c2.3-9.2-4.9-6.9-9.5-7.8c-0.9-1.2-0.8-2.3,0.3-3.3
				c0.9-0.9,1.9-1.6,3-2.3c4.5-3.3,3-8.2,3.2-12.5c0.5-13.9-0.6-27.8,0.6-41.7l0.4-1.9l2.2-5l-0.3-365c-2.8-3-7.1,0.1-9.9-2.6
				c-0.4-1.2-0.2-2.4,0.5-3.4c0.9-0.9,1.8-1.7,2.9-2.3c4.8-3,3.4-7.9,3.6-12.3c0.6-10.2-1-20.5,1.1-30.6c0.6-1.2,1.3-2.3,2.3-3.2
				l2.4,2.5c4.3,4.3,3.4,9.9,3.4,15.2l0,463.3C65.1,536,65.7,541.5,61.9,546L61.9,546z"/>
			<path class="st37" d="M59.5,548.5h1.9l0,279h-1h-1L59.5,548.5L59.5,548.5z"/>
		</g>
		<path class="st38" d="M49.3,101.2c3,1.5,7.4-1.8,9.4,2.9h-1l-1,0c-3.6-0.4-7.5,0.7-10.5-2.5l1-0.3
			C47.8,100.4,48.5,100.4,49.3,101.2z"/>
		<path class="st39" d="M49.3,101.2l-1.1,0.3l-1.1-0.1l0-63.9l2.2,0c1,1.2,1.8,2.5,2.4,4C52,60.6,56.1,80,49.4,98.9
			C49.3,99.7,49.3,100.5,49.3,101.2L49.3,101.2z M49.4,533.5l-0.1,2.4l-1.1,0.3L47,536l0.2-64c1.8,0,3.5,0.2,4.5,2.1l0.4,2.2
			c1.2,15.6,0.3,31.2,0.5,46.8C52.6,526.9,52.1,530.6,49.4,533.5L49.4,533.5z"/>
		<path class="st40" d="M51.7,474.1l5.1,0l-0.1,0.4c2.8,17.4,0.6,34.9,1.2,52.4c0.1,4.1-1.8,6.2-6.2,4.6c-1.8-19-1.9-38.1,0.1-57.1
			L51.7,474.1L51.7,474.1z"/>
		<path class="st41" d="M967.6,104.1v244.4c-1.7,0.7-3,0.2-4-1.4c-0.8-1.4-1.3-2.9-1.6-4.5c-1.5-38.9-0.4-77.9-0.6-116.9V123.7
			c0-6.1-0.7-12.3,2.2-18.1C964.5,103.9,965.9,103.4,967.6,104.1L967.6,104.1z"/>
		<path class="st42" d="M965.5,348.5h2.2l0.2,121c6.5,14,2.6,28.8,3.2,43.2c0.3,7.9,2.3,16.3-3.2,23.6l-0.2,12.3
			c-1.7,0.7-3,0.2-4-1.4c-3.7-12.9-1.4-26-1.8-39.1c-0.5-15.1,0.1-30.3-0.3-45.5c-0.3-15.3-0.1-30.7-0.1-46
			c0.7-5.3-0.2-10.6,0.3-15.8c0-1.5,0-3,0-4.6c-0.3-11.8-0.1-23.5,0.1-35.3C962,356.5,961.5,351.8,965.5,348.5L965.5,348.5z"/>
		<path class="st43" d="M980,101.3l-9.4,0.5l-2.8-0.1c-5.2-5.4-2.7-12.3-3.5-18.6c-1-9.1,2.6-18.7-2.9-27.2
			c-8.7-5.3-18.2-1.7-27.2-2.7c-6.2-0.7-13,1.7-18.5-3.5l-0.1-2.9c-1.2-3.2-1.9-6.3,0.5-9.3c0.8-0.1,1.5-0.1,2.3-0.1l2.7,3.1
			c8.5,6.1,18.2,2.8,27.3,3c25.1,0.5,25,0.5,25.5,25.6c0.2,9.1-3.1,18.8,3,27.3c1,0.9,2,1.8,3,2.7C980.1,99.8,980.1,100.6,980,101.3
			L980,101.3z"/>
		<path class="st44" d="M967.8,536.2v-66.8c0.6,0,1.2,0.1,1.8,0.3c0.4,0.7,0.6,1.4,0.7,2.1c0.9,1.1,1.6,2.2,2.2,3.5
			c2.5,14.4,0.5,29,1.3,43.4c0.2,4.2-1.4,9.1,3.2,12.2c1,0.9,2,1.7,3,2.6c0.1,0.7,0.1,1.5,0,2.2l-9.4,0.5L967.8,536.2L967.8,536.2z"
			/>
		<path class="st45" d="M965.4,52c5.3,16.4,0.8,33.1,2.3,49.7c0,0.8-0.1,1.6-0.2,2.4h-1.1h-1.1c-7.1-16.6-4.5-33.5-1.7-50.4
			L965.4,52L965.4,52z"/>
		<path class="st46" d="M965.5,548.5h2.1l0.2,2.5L967.8,904l-0.1,0c-1.7,0.7-3,0.3-3.9-1.3c-4.7-17.4-1.2-35.2-2.2-52.7
			c-0.3-4.5,0.3-9,0.3-13.6c-0.1-4.5-0.3-8.9,0-13.4l0-6.6c-0.3-11.9-0.1-23.8-0.2-35.7c-0.3-3.1-0.3-6.2,0.1-9.3l0.2-205.5
			C961.9,560,960.4,553.5,965.5,548.5L965.5,548.5z"/>
		<path class="st47" d="M970.3,474.6l0-2.7c7.1-0.8,10.2,1.6,10,9.4c-0.5,17.4-0.2,34.9-0.2,52.3l-2.9-0.3
			c-6.4-13.9-1.7-28.7-3.2-43C973.5,485,975.6,478.9,970.3,474.6L970.3,474.6z"/>
		<path class="st48" d="M979.9,968.3l-2.5-0.2c-0.9-1.1-1.7-2.3-2.3-3.6c-2.4-13.9-0.5-27.9-1.2-41.8c-0.2-4.8,0.9-10-3.8-13.6
			c2.5-3.7,6.3-2.2,9.7-2.4L979.9,968.3z"/>
		<path class="st49" d="M970.2,909c7.5-1,7.5,3.9,7.4,9.1l-0.2,47.5c-17.3,2.9-34.8,0.5-52.2,1.3c-2.7,0.1-5.3-0.6-5.2-3.7
			c0-3,2.7-3.6,5.3-3.6l31.8-0.1c4.3-0.1,9,1.4,13-1.4L970.2,909L970.2,909z"/>
		<path class="st50" d="M970.1,958.2c-5.2,5.1-11.6,2.3-17.4,2.5c-10,0.5-20.1,0.1-30.3,2c8.6,4.5,18,2.7,27,3
			c9.3,0.3,18.7,0,28.1,0c0.1,0.8,0.1,1.6,0,2.4l-50.2,0.1c-3.9,0-9.1,0.9-8.6-5.5c0.4-5.5,5.1-4.2,8.5-4.3l40.4-0.3
			C968.5,958.3,969.3,958.3,970.1,958.2L970.1,958.2z"/>
		<path class="st51" d="M965.5,904.1l2.2,0l0.1,51.8l-2.6-0.2c-1-1.2-1.8-2.5-2.4-4C962.1,935.8,958.1,919.6,965.5,904.1
			L965.5,904.1z"/>
		<path class="st49" d="M542.8,965.8h-55l0-4.8h55L542.8,965.8z"/>
		<path class="st52" d="M996,349.9l-0.6-1.5c-0.2,0.9-0.4,1.9-0.4,2.8c-0.3,4.9,1.1,8.5,5.7,9.4L996,349.9L996,349.9z"/>
		<path class="st53" d="M916.2,37.5l-0.5,9.3l-1.2,0.2l-1.2-0.2c1-3.9-1.8-8.8,3-11.8C916,35.9,916,36.7,916.2,37.5L916.2,37.5z"/>
		<path class="st20" d="M111,49.9l2.5-0.2l365.4,0.2c0.7,1.6,0.3,2.9-1.2,3.8c-5.1,2.5-10.5,2.2-15.9,2c-111.2-0.1-222.4,0-333.6,0
			c-5.4-0.3-10.9,0.6-16-2C110.7,52.8,110.3,51.5,111,49.9L111,49.9z"/>
		<path class="st54" d="M478.9,52.1v-2.2l2.4-0.2l66.6,0.1L548,52c-1,1.3-2.3,2.2-3.8,2.8c-18.8,2.5-37.6,1-56.5,0.9
			C484.4,55.7,481.2,54.9,478.9,52.1L478.9,52.1z"/>
		<path class="st55" d="M915.8,49.8l38,0.1c4,0,8.3-1.2,11.6,2.2l-0.3,0.3c-4.7,4.2-10.6,3.8-16.2,3.8c-23.2,0-46.4,0.3-69.5-0.2
			c-10.1-1.2-20.8,2.7-30.2-3.9v-2.2L915.8,49.8L915.8,49.8z"/>
		<path class="st56" d="M846.8,52.4l-7.6,0l0,0c-10.5,2.7-21.2-0.1-31.8,1.6c-2.9,3.2-6.2,4.7-10.7,4.7c-18.3-0.3-36.7,0.2-55.1-0.4
			c-3.6-0.1-8.2-2.1-10.1,1.7c-2.4,4.6,2.1,7,5.5,9.2c16.5,1,33,1.5,49.5,1.6c0.9-0.1,1.7-0.1,2.6-0.1c1,0,2,0.1,3,0.1
			c17.5,0,35.1-0.6,52.6-1.6C850.9,64.3,853.9,59,846.8,52.4z"/>
		<path class="st57" d="M839.2,52.4c-10.3,5-21.4,1-32,2.3c-5.2,4.6-11.5,3.6-17.6,3.6l-206.7,0.1c-7,0-13.9,0.4-20.9,0.6
			c-5.9,0.2-13.5,1.7-16.5-6.7c0.8-0.1,1.6-0.2,2.4-0.3l275.2,0.2L839.2,52.4L839.2,52.4z"/>
		<path class="st58" d="M846.8,66.7c-0.8-4.8,4-9.5,0.1-14.3l2.4-0.4l29.7,0.4c5.7,3.8,13.2,6.4,9.1,15.8c-4.2,2.2-8.4,2.1-12.8,0.7
			c-0.7-0.3-1.5-0.7-2-1.3c-6.2-6.2-11.5-5.8-15.9,1.3C853.4,70,849.7,70.3,846.8,66.7L846.8,66.7z"/>
		<path class="st59" d="M980,99.1l-2.9-0.3c-6.4-13.3-2.9-27.4-2.8-41c0.1-11.3-3.2-14.7-14.6-14.6c-13.6,0.1-27.8,3.6-41-2.8
			l-0.3-2.9l52.6-0.2c6.9-0.1,9.3,2.3,9.2,9.2C979.8,64,980,81.6,980,99.1L980,99.1z"/>
		<path class="st30" d="M61.9,546L61.6,63.4V52.3l2.5-0.4l1.6,1.9c2.6,5.5,1.8,11.3,1.8,17l0,456.4c0,6.4,1.7,13.3-3.5,18.8
			L61.9,546L61.9,546z"/>
		<path class="st60" d="M59.2,49.8l-0.4,2.5c-2.1,12.4-0.3,24.9-1,37.4c-0.2,4,1.1,10.1-6.7,6.8c-0.7-18.9-1.3-37.8,0.3-56.8
			c19-1.4,38-2.1,57,0.4c1,7.6-4.1,7.2-9.2,7.2l-40,0.6c-0.2,0-0.6,0.5-0.5,0.8C58.7,49,59,49.4,59.2,49.8L59.2,49.8z"/>
		<path class="st61" d="M108.4,40.1l-56.5,0c-0.8,1.1-1.7,1-2.5,0l-0.1-2.6l59.2,0L108.4,40.1z"/>
		<path class="st20" d="M111,49.9l0,2.1c-15.6,6.1-31.2,5.4-46.9,0.4v-0.5C79.6,47.3,95.4,50.9,111,49.9z"/>
		<path class="st62" d="M542.9,47.2l-50.4,0.2c-5,0-9.2-0.3-8.4-7c18.2-3.7,36.5-0.9,54.8-1.5C545,38.7,545.2,42.6,542.9,47.2
			L542.9,47.2z"/>
		<path class="st63" d="M542.9,47.2c1-6.3-2.5-7.5-7.8-7.4l-50.9,0.5l-0.3-2.8l52.3-0.2c7.8-0.2,10.3,2.8,9.4,10L542.9,47.2
			L542.9,47.2z"/>
		<path class="st56" d="M965.5,904.1l-0.4-69.1c-12-0.2-12.3,11.1-17.3,17.7c-1.5,12.5-0.2,25.1-0.8,37.7
			c-0.7,14.9,2.1,29.9-1.8,44.7c-4.6,3.9-10.1,2.6-15.3,2.6l-188.5,0.1c-6,0-12.4-1.3-17.8,2.8c0,9.3,6.9,8.5,12.9,8.7
			c4.3,0.1,8.5,0.2,12.8,0.3l-154.3,0.2c41.4-0.1,82.8-0.3,124.3-2.4c-64.1-2.8-128.3-2.4-192.4-2.6c-0.3,0.1-0.7,0.2-1,0.3
			c0.3-0.1,0.6-0.2,0.8-0.3c19.6,0,39.3,0,58.9,0l125.2-0.2c3.2,0,9.6,4.2,9.7-4.2c-5.5-4-11.8-2.7-17.8-2.7l-184.2-0.1l-193.6,0.1
			c-6,0-12.4-1.2-18,2.5c-0.7,7.6,5.2,4.3,8.1,4.4c1.6,0.1,3.3,0.1,4.9,0.2c-4.5,0.2-8.9,1-13.2,2.9c7.1,2.5,14.3,1.8,19.8,2
			l-91.2,0c24.8-0.8,46-2.1,49.9-3.8c1.1,0.3,2.2,0.8,3.4,1.4c6.6,3.5,12.6-0.3,14.3-7.2c-5.6-3.6-11.9-2.4-18-2.4l-204.1-0.3
			c-1.6-0.3-3.2-0.7-4.8-0.5c-4.5,0.5-8.2,2.2-7.7,7.4c0.3,2.4,1.4,3.7,3,4.2c-2.4,0.1-4.8,0.8-7.1,2.5c0,0.8,0,1.6,0,2.4l496.2,0.1
			c3.5,2,7.2,1.1,10.9,1.1h383.1c3.6,0,7.4,1,10.8-1.2L965.5,904.1L965.5,904.1z M75.3,948.7c0.4-0.1,0.9-0.1,1.3-0.2
			c3-0.5,5.7,1.3,8.7,1.2C82,949.9,78.7,949.1,75.3,948.7z M275.5,944.8c3,0,5.8,0.1,8.7,0.9L98,944.8
			C157.2,944.8,216.4,944.8,275.5,944.8z M507.7,948.6c5.7-0.7,11.5-1.3,17-3.1c-1.3,0.6-2,1.5-0.6,3c0.2,0.2,0.3,0.3,0.5,0.5
			C518.9,948.3,513.3,948.1,507.7,948.6z M869.2,946.4c2.4,1.9,4.8,2.7,7.1,3l-33.1,0c1.2-0.4,2.3-1.6,2.7-4.6l-93,0
			c58.4-0.1,116.8,0.2,175.2,0C908.5,944.9,888.8,944.8,869.2,946.4z"/>
		<path class="st64" d="M560.4,953.5l404.8-0.1c0,0.8,0,1.6,0,2.3l-404.8-0.1V953.5z"/>
		<path class="st65" d="M64.1,52.4L111,52l14.8,0.4c0.2,3-1.9,3.9-4.1,4.9c-12.7,2.4-25.4,1.1-38.2,1.1c-9.5,0-13.2,3.7-13.2,13.2
			L70.4,459L70,736.5l0.2,76.5c0,5.3,0.6,10.8-2.1,15.7c-0.9,1.5-2.2,1.9-3.9,1.2L64,546L64.1,52.4L64.1,52.4z"/>
		<path class="st66" d="M76.4,938.6c-3.5,0.3-7.3,1.4-6.5,5.4c1,5,4.9,2.9,7.6,1.4c5.8-3.3,6.2,5.7,11,5.5H64.1l0.1-71.7
			c5.8-7.2,10.4-4.9,14.5,1.7C79.3,900.3,83.3,919.7,76.4,938.6L76.4,938.6z"/>
		<path class="st67" d="M64.2,830h2.4c4.4,3.2,8.6,6.6,11.7,11.1c1.7,5,1.9,10.1-0.4,15c-7.5,4.1-9.8-3-13.8-6.4L64.2,830z"/>
		<path class="st68" d="M64.1,849.8c5.8-0.2,7.8,5.7,12.3,7.4c3,3.2,2.8,6.5,0.8,10.1c-5.3,3.5-9.6,2.7-13.1-2.7L64.1,849.8
			L64.1,849.8z"/>
		<path class="st67" d="M64.1,864.6c3.8,2.3,8,2.7,12.3,2.4c3.6,4.1,3.6,8.3-0.1,12.4c-4.1-2.8-8.1-2.8-12.2,0L64.1,864.6
			L64.1,864.6z"/>
		<path class="st40" d="M56.6,909.1l0.1,37.8c0,3.9-1.3,8.2,2.2,11.5c9.6,5.2,19.9,1.5,29.8,2.4c6,0.5,12,0.1,18,0.1l0.2,4.9H51.8
			l0-47.4C51.8,914.6,50.4,909.8,56.6,909.1L56.6,909.1z"/>
		<path class="st69" d="M51.9,531.2c6.8-1.2,4.7-6.6,4.7-10.6l0-46c5,5.2,2.1,11.7,2.4,17.5c0.5,11,0,22.1,0.2,33.2
			c0.1,5.1-0.5,9.2-7.2,8.1c-0.8-0.5-1.1-0.9-0.9-1.4C51.3,531.4,51.6,531.2,51.9,531.2z"/>
		<path class="st70" d="M51.9,531.2c0,0.7,0,1.5,0.1,2.2l-2.6,0.1l0-48.9c0-3.5-1.2-7.5,2.4-10.2L51.9,531.2L51.9,531.2z"/>
		<path class="st71" d="M49.4,40l2.5,0l-0.1,56.6c0.8,0.5,1,0.9,0.8,1.4c-0.2,0.5-0.5,0.8-0.7,0.8l-2.5,0.1L49.4,40L49.4,40z"/>
		<path class="st72" d="M51.9,98.8c-0.1-0.7-0.1-1.4-0.1-2.2c6.9-1.2,4.3-6.7,4.8-10.7c1.3-11.2-2.6-22.7,2.2-33.6L59.2,91
			C59.3,96.2,58.3,99.9,51.9,98.8L51.9,98.8z"/>
		<path class="st73" d="M888.7,66.7l-9.8-14.3l86.3-0.1l0.3,51.8l-0.4,242.1c-1.3,2.5-4.2,5.1-3.1,7.7c3.5,8.2,1.3,15.8-0.5,23.8
			c-1.6,7,1,13.6,3.6,20.1l-0.1,2.6c-8.4,4.1-13.3-0.2-17-7.2c-1.5-6.5-1-13.1-1-19.6l0-284.9c0-12.1-6.2-18.1-18.6-18.2
			c-9,0-18.1,0.1-27.1-0.1C896.8,70.3,892,70.8,888.7,66.7L888.7,66.7z"/>
		<path class="st74" d="M965.1,397.8c-8-8.7-10.7-17.9-3.5-28.6c2.2-3.2,2.1-7.1-0.7-10.3c-6.1-6.8-1.6-10,4.2-12.8l0.4,2.4
			L965.1,397.8L965.1,397.8z"/>
		<g>
			<path class="st73" d="M965.1,817.5l0,5c-10.6,1.4-10.8-9.6-16.6-13.9c-2.2-9.1-1.5-18.2-0.5-27.3c2.7-7.8,1.7-15.5-0.4-23.3
				L947,512.1c0.6-31.3-0.9-62.6,0.7-93.8c6.7-11.6,9.5-12.1,17.4-3.2l0.1,47.1c-2.5,13.4-0.9,27-1,40.5
				c-0.1,15.2-0.8,30.4-0.2,45.5c0.1,2.5,0,5.6-3.1,5.8c-4.2,0.3-3.7-3-3.7-6c0.1-6-1-12-0.5-16.7l-0.1,164.9l0.1-142.3
				c7.3,5.8,6,11.3,6,16.1l0.1,176.4c0,9,0.5,18,2.3,26.8l0,7.6C956.4,793,958.5,805.3,965.1,817.5L965.1,817.5z"/>
			<path class="st73" d="M965.1,773.1c-3.9-8.3-4.8-17.1-4.8-26.1l0-176.5c0-4,1.1-8.2-2.2-14.2v149.5h-1.9V516
				c5,13.7-0.9,25.6,6.6,36.4v-30.4l0.1-48.1c0-4-1.4-8.3,2.3-11.6l0.4,86.3L965.1,773.1L965.1,773.1z"/>
		</g>
		<path class="st75" d="M965.1,415.1c-4.8-4.8-9.6-5-14.3,0.1c-5-6.6-5.1-13.2,0-19.7c4.5,2.3,8.7,5.5,14.2,5L965.1,415.1
			L965.1,415.1z"/>
		<path class="st76" d="M918.7,40.4l50.5-0.6c6.4-0.2,8.7,2.2,8.6,8.6l-0.6,50.5c-6.8,0.9-7-3.5-7-8.4l0.1-34.5
			c0.2-6.4-2.2-8.8-8.6-8.6c-11.5,0.3-23,0-34.5,0.1C922.3,47.4,917.8,47.2,918.7,40.4L918.7,40.4z M970.3,474.6
			c6.2-1,7.5,2.5,7.4,7.8l-0.5,51c-6.7,0.8-7-3.4-7-8.4L970.3,474.6L970.3,474.6z"/>
		<path class="st77" d="M950.7,810.2c8.6-0.4,6.6,11.7,14.3,12.4l0,12.3c-8,1.8-6.8,12.5-14.3,14.8
			C944.8,836.6,944.9,823.4,950.7,810.2L950.7,810.2z"/>
		<path class="st67" d="M965.1,817.5c-13.7-18-13.7-22.4,0-36.8L965.1,817.5z"/>
		<path class="st65" d="M76.3,839.9c-5.8-0.8-9.1-4.1-9.8-9.9l0-250.2l0.2-445.1c0.1-23,1.8-46.1-0.3-69.1
			c-0.8-8.8,2.8-11.4,11.3-11.1c15.2,0.5,30.4,0.2,45.6,0.2c6.9-1.1,13.8-1.2,20.8-1.2l306.5,0c4.4,0,9,1,13.3-1.1l14.9-0.3
			l66.8,0.3c6.3,3.3,12.7,4.4,19.8,2.9c3.9-0.9,8.2-0.5,12.3-0.5l229.6,0c0.8,4.1,1.8,7.9-5.1,7.5c-23-1.2-46.1,1.8-69.2-2l2.6,6.5
			c-1.2,1.9-3.2,2.6-5.3,2.9c-2.1,0.3-4.2,0.1-6.3-0.4c-1.4-0.4-2.8-0.9-4-1.6c-5.4-2.8-11.2-1.9-16.9-2l-165.9-0.1
			c-6.5,0-13.2,0.6-18.9-4.2c1.5,2.3,4.9,4.1,1.3,7.1c-6.2,3.2-12.9,2-19.4,2l-400,0.1c-5.7,0-11.5-1-17,1.5
			C78.1,76.7,80,82.8,80,88.3L79.9,272c0,6.1,0.4,12.3-0.8,18.4c-3.6,7.6-4.4,15.6-4.2,24c0.8,51.3-0.2,102.5,0,153.8l0,219.2
			c0,41.8,1.8,83.6,2.6,125.4c0.1,3.3,0.5,6.5,1.5,9.7C79.6,828.5,81.2,834.7,76.3,839.9L76.3,839.9z"/>
		<path class="st57" d="M464,52.4c-4.1,4.1-9.4,2.2-14.1,2.2c-102.2,0.1-204.4,0.2-306.5-0.2c-6.7,0-13.4,3.4-20,0.2l2.4-2.3
			L464,52.4L464,52.4z"/>
		<path class="st78" d="M950.5,380.7l-0.1-298c0-15.7,0-15.6-16.2-15.7l-45.5-0.3l-14.8,0c-5-3.3-10-4-15,0.1l-12.2-0.2l-111.1,0
			l-4.8,0.7c0,2.6,1.6,3.6,3.4,4.4c0.5,0,1-0.1,1.6-0.1c3.4-0.2,6.8,0.3,10,1.3c2.2,0,4.5-0.1,6.7-0.1l15.6,0c3.1-1,6.4-1.5,9.6-1.5
			c1.3,0,2.5,0.1,3.7,0.2c2.5-0.6,5.1-1,7.8-1c4.3,0,8.4,0.8,12.1,2.3l124.8,0c5.2,0,10.8-1.1,15.3,3.1c4.2,4.4,3.2,9.9,3.2,15.2
			v199.2l0,206.7c0,2.9,0,5.7-0.7,8.5c-0.2,2.1,0,4,1,5.9c1.8,1.2,3.5,1.4,5.2-0.1l0.6-96.3l0-19.7
			C950.7,390.5,950.5,385.6,950.5,380.7z"/>
		<path class="st79" d="M874,66.7l-15,0.1c-2.8-4.5-2.2-10,2.2-11C868.7,54.1,872,60.3,874,66.7z"/>
		<path class="st66" d="M723.3,941.1c3.4,6.7,9.6,6.6,15.8,6.6l104.6-1.5H743.1l0-2H935l0,1.6h-63.5l0,2.5h24l0,1.9H565.5
			c0-0.4,0-0.9,0-1.3h152.1V946H523.3c4-4.3,9.3-2.4,14-2.4l169.6-0.2c4.7,0,9.9,1.9,14-2.4C721.7,940.5,722.5,940.5,723.3,941.1
			L723.3,941.1z"/>
		<path class="st80" d="M76.3,839.9l0.1-17.3c-0.2-0.4-0.5-0.7-0.5-1.1c-0.3-36-3.3-72-0.6-108c0.4-1.9,1.5-2.7,3.4-2.4
			c1.2,1,2.2,2.4,2.7,3.9c2.2,35,0.3,70,1,105v54.8L82.3,924c-0.1,7.8,3.1,11.5,11,11.2c4.1-0.2,8.2,0,12.3,0l387.2,0
			c6.6,0,13.1-0.3,19.7,0.3c1.6,0.2,3.1,0.7,4.5,1.5c1.6,1,2,2.3,1.3,4l-212.3,0.1c-0.8,1-1.6,1-2.5,0c-71.1,0-142.1,0-213.1-0.1
			c-4.7,0-9.9,1.9-14-2.4l-0.1-59.3l0.1-12.4v-9.8L76.3,839.9L76.3,839.9z"/>
		<path class="st81" d="M518.4,941v-2.1c3.3-4,8-3.7,12.5-3.7l410.2,0c1.7,0,3.3,0.3,4.9,0.6c1.6,0.5,3,1.3,4.3,2.4
			c-3.8,4.9-9.1,2.7-13.7,2.7l-213.2,0.1h-2.5L518.4,941L518.4,941z"/>
		<path class="st82" d="M950.3,938.3l-1.2,0.1l-1.2-0.1c-1.1-1.2-2-2.6-2.5-4.1c-1.6-8.9-0.8-18-0.8-27l-0.1-184.4
			c0-1.6,0-3.2,0-4.8l-0.1-202.2c-0.1-1.6,0.5-3.2,1.6-4.4h4.2l0.3,229.8l0.3,19.7c1.5,6.5,1.5,13,0,19.5l0,29.8l0,39.5L950.3,938.3
			L950.3,938.3z"/>
		<path class="st66" d="M501,946c-24.1,0-48.2,1-72.1-0.5c-10.9-0.7-19.1,8.1-29.7,5.4c-2.3-0.6-5.4,0.1-5.8-3.1
			c-0.5-4.3,3-4.2,5.8-4.2l101.9,0L501,946L501,946z M539.8,950.4h-45.2C508.6,940.5,523.2,945.7,539.8,950.4z M435.2,949h26.1v1.2
			h-26.6L435.2,949L435.2,949z"/>
		<path class="st73" d="M957.4,736.9v31h-1.2v-31.4L957.4,736.9z M950.8,780.5V761C954.2,767.5,954.2,774,950.8,780.5z"/>
		<path class="st65" d="M76.5,711.5l-0.1,111.1c-2.7-2-2.7-5-2.4-7.9c2.6-27.9-3-55.5-2-83.4c1.6-43.4-0.6-86.9-0.4-130.3
			c0.1-33.6,1.9-67.3,1.1-100.6c-1.2-47.2-0.7-94.4-0.8-141.6l-0.5-51.2c0.1-5.8-0.1-11.6,5-15.8c4.4,4.3,3.4,9.9,3.4,15.1l0,389.4
			C79.9,701.5,80.5,707,76.5,711.5L76.5,711.5z"/>
		<path class="st78" d="M79.2,67.2L508.5,67c4.1,0,8.2-0.2,12.3-0.3c4-3,8.7-2.1,13.1-2.1l174.9,0c4.9,0,9.9-0.4,14.4,2.2l2.6,0.6
			c0.5,1.8,0,3.1-1.6,3.9c-5.9,2.6-12.1,1.7-18.2,1.7c-60.4,0.3-120.8-0.5-181.1,0.5c-1.5,0.5-3,0.7-4.5,0.9c-1.5,0.1-3,0-4.6-0.2
			c-2.2-0.5-4.5-1-6.8-1l-209,0c-1.6,0-3.2,0-4.8,0c-70.2-0.4-140.4,0.5-210.6-0.4c-1.6-0.2-3.1-0.7-4.5-1.5
			C78.5,70.1,78.2,68.8,79.2,67.2L79.2,67.2z"/>
		<path class="st83" d="M79.2,67.2c-0.1,0.8-0.1,1.6,0,2.4c3.8,4.6,3.1,10.1,3.1,15.3l0,610.4c0,5.6,1.3,11.7-3.7,16.2h-1.1h-1.1
			l-0.1-419.7l0.1-210.8C76.6,76.3,74.4,71,79.2,67.2L79.2,67.2z"/>
		<path class="st56" d="M723.2,66.8c-67.5,0-135,0-202.5,0l-6.6-7.9c10.4,4.1,19.4,3.2,28.3,3.2L709,62.2
			C714.2,62.2,720,60.6,723.2,66.8L723.2,66.8z"/>
		<path class="st84" d="M726.2,73.4c2.8-0.9,5.7-1.5,8.7-1.7c-0.4-0.7-0.9-1.4-1.4-2.1l-2.7-2.2l-5,0l-0.1,1.8l0,0
			C725.7,70.6,725.8,72,726.2,73.4z"/>
		<path class="st22" d="M947.9,284.1c-1.2-1-2.6-1.8-4-2.4c-0.6,0-1.2,0-1.7-0.1c0.2,1.5,0.4,2.9,0.5,4.4c0.1,1.4,0,2.8-0.1,4.2
			c0.4,0,0.8,0,1.1,0c1.6-0.1,3.1-0.5,4.5-1.2L947.9,284.1z"/>
		<path class="st85" d="M83,818.8c4.1-21.6,0.7-43.4,1.9-65.1c0.5-8.5-2.1-17.3,2-25.5c0.8-0.9,1.6-1.6,2.5-2.1
			c-0.7-2.6-1.1-5.3-1.2-8c0-0.9,0-1.9,0-2.8c-1.9-0.2-3.8-0.7-5.5-1.7c-1.2-0.6-2.4-0.5-3.5,0.3l-0.1,106.1
			C80.8,820.8,82.1,820.3,83,818.8z"/>
		<path class="st86" d="M515.9,938.3l-0.2-1.9l1.5-1.6c1.3-0.8,2.7-1.3,4.2-1.6c1.5-0.3,3-0.4,4.6-0.4l199.8-0.1l4.7,0h4.8
			l191.1,0.1c5.7,0,11.5-0.5,17.2,0.7c1.5,0.5,3,1.3,4.2,2.4c0,0.8,0.1,1.6,0.1,2.4l-225.9,0.4l-203.7,0.3L515.9,938.3L515.9,938.3z
			"/>
		<path class="st87" d="M79.1,820.1H81c6.2,18.1,6.2,36.3,0,54.4c-0.6,0-1.2,0-1.8,0L79.1,820.1L79.1,820.1z"/>
		<path class="st88" d="M517,75.1c-0.1-1-0.4-1.9-1-2.9l-3.1-2.4c-1,1.2-1.8,2.6-2.2,4.1c0,0.3-0.1,0.6-0.1,0.9
			C512.7,74.7,514.8,74.8,517,75.1z"/>
		<path class="st89" d="M293.1,77.6c2.7-0.7,5.4-1.2,8.3-1.3c0-0.8-0.1-1.6-0.1-2.4c-0.5-1.5-1.3-3-2.3-4.2l-3.2,0l-0.1,2.5l0,0
			C294.3,73.9,293.5,75.7,293.1,77.6z"/>
		<path class="st90" d="M724.6,527.7"/>
		<path class="st90" d="M732.1,529.6"/>
		<path class="st91" d="M942.6,286.9c0,1.5-0.1,3.1-0.3,4.5c1-0.5,2-1.1,2.9-2c0.4-0.2,0.8-0.5,1.2-0.7
			C945.2,287.7,943.9,287.2,942.6,286.9z"/>
		<path class="st92" d="M89.6,727c-0.5-1.8-0.9-3.7-1.2-5.7c-2.5-0.3-5-0.5-6.5,2.7l2.2,0.1h0C85.8,725.6,87.7,726.5,89.6,727z"/>
		<path class="st93" d="M305,917.2"/>
		<path class="st93" d="M299.1,933.6l2.1-0.1"/>
		<path class="st94" d="M88.1,718.1c-0.1-1.5,0-3,0.2-4.4c-1.2,0.3-2.4,0.7-3.5,1.3c-1.3,0.9-1.7,2-0.9,3.4l4.3,0
			C88.2,718.3,88.2,718.2,88.1,718.1z"/>
		<path class="st22" d="M85.6,286.9c-0.1-1.8,0-3.5,0.3-5.2c0,0-0.1,0-0.1,0c-1.5,0.5-3,1.3-4.2,2.3l0.1,3.3c1.3,0,2.7,0,4,0
			C85.6,287.2,85.6,287,85.6,286.9z"/>
		<path class="st95" d="M85.6,287.3l-4,0c0,0.7,0,1.5,0.2,2.2c0.7,1,1.4,1.1,2.2,0.2h1.8C85.7,288.9,85.7,288.1,85.6,287.3z"/>
		<path class="st96" d="M102.7,510"/>
		<path class="st97" d="M508.8,74.9c1.3-0.2,2.7-0.2,4.1-0.2l0-2.6c-0.8,0-1.5,0-2.3,0.1l0,0C509.8,73.1,509.2,74,508.8,74.9z"/>
		<path class="st98" d="M292.9,77.7c0.9-0.3,1.9-0.5,2.8-0.7l0-4.8c-0.8-0.1-1.5,0-2.3,0.1l0.1,4.5
			C293.3,77.1,293.1,77.4,292.9,77.7z"/>
		<path class="st99" d="M301.5,76.3c0.7,0,1.4,0,2.1,0c-0.5-1.5-1.3-2.8-2.4-3.9c-0.7-0.2-1.5-0.2-2.2-0.1l0,4.3
			C299.8,76.4,300.7,76.3,301.5,76.3z"/>
	</g>
	<g id="lines">
		<line class="st100" x1="299" y1="69.7" x2="299" y2="933.6"/>
		<path class="st100" d="M512.8,936"/>
		<path class="st100" d="M512.8,72.2"/>
		<line class="st100" x1="728.3" y1="71.9" x2="728.3" y2="935.8"/>
		<line class="st100" x1="81.8" y1="506.8" x2="291.2" y2="506.8"/>
		<line class="st100" x1="733.5" y1="501.5" x2="945.3" y2="501.5"/>
		<line class="st100" x1="517.3" y1="936.1" x2="517.3" y2="721.8"/>
		<line class="st100" x1="512.9" y1="69.8" x2="512.9" y2="290"/>
		<path class="st56" d="M324.9,943.5c-0.8,0-1.5,0.2-2.1,0.4c-0.8-1.2-2.1-2.1-4-2.1c-0.9,0-1.7,0.2-2.3,0.6
			c-0.7-0.5-1.6-0.8-2.6-0.7c-1.5,0.1-3,0-4.5-0.2c-0.4,0-0.8,0-1.2,0.1c-0.4-0.1-0.9-0.2-1.3-0.2c-0.4-0.1-0.9-0.2-1.4-0.2
			c-0.4,0-0.7,0-1,0.1c-0.3-0.1-0.6-0.1-1-0.1c-1.1,0-2,0.3-2.7,0.8c-0.8-0.3-1.6-0.3-2.6-0.2c-6.6,1.1-13.7-0.5-20.4-0.5
			c-6.7,0-13.4,0.4-20.1-0.1c-1.4-0.1-2.5,0.3-3.3,1c-8-0.1-16.1-0.4-24,0.5c-0.8-0.7-1.9-1.2-3.2-1.2c-21,0-41.9,0.1-62.9,0.3
			c-0.7-0.5-1.6-0.8-2.8-0.7c-21.2,0.5-42.5,0.8-63.7,1c-6.4,0.1-6.4,10.1,0,10c20.8-0.2,41.5-0.5,62.3-1c0.7,0.5,1.6,0.7,2.7,0.7
			c21.5-0.3,42.9-0.4,64.4-0.3c0.4,0,0.8,0,1.1-0.1c1,0.8,2.4,1.2,4,1c8.2-1.1,17-0.3,25.2-0.2c1.2,0,2.2-0.3,2.9-0.9
			c6.4,0.3,12.9-0.1,19.3,0c7.1,0.1,14,1.3,21.1,0.1c0.1,0,0.2,0,0.3-0.1c0.5,0.2,1,0.3,1.6,0.3c0.6,0,1.2-0.1,1.7-0.3
			c0,0,0.1,0,0.1,0c0.3,0,0.7,0,1-0.1c0.3,0.1,0.6,0.1,0.9,0.1h0.2c0.4,0,0.8,0,1.2-0.2c0.5,0.1,1,0.2,1.5,0.3
			c1.5,0.2,3,0.2,4.5,0.2c0.8,0,1.5-0.2,2.2-0.6c0.7,0.5,1.6,0.8,2.7,0.8c0.8,0,1.5-0.2,2.1-0.4c0.8,1.2,2.1,2.1,4,2.1
			C331.4,953.5,331.4,943.5,324.9,943.5z"/>
		<line class="st100" x1="81.9" y1="289.5" x2="947.9" y2="289.5"/>
		<line class="st100" x1="74.8" y1="721.1" x2="965.6" y2="721.1"/>
	</g>
</g>
<g id="PlanetLayer">
	<text transform="matrix(1 0 0 1 750 760)" class="st101 st102">Sun</text>
	<text transform="matrix(1 0 0 1 750 805)" class="st101 st102">Moon</text>
	<text transform="matrix(1 0 0 1 530 760)" class="st101 st102">Mars</text>
	<text transform="matrix(1 0 0 1 750 850)" class="st101 st102">Mercury</text>
	<text transform="matrix(1 0 0 1 310 100)" class="st101 st102">Jupiter</text>
	<text transform="matrix(1 0 0 1 750 540)" class="st101 st102">Venus</text>
	<text transform="matrix(1 0 0 1 90 320)" class="st101 st102">Saturn</text>
	<text transform="matrix(1 0 0 1 310 145)" class="st101 st102">Rahu</text>
	<text transform="matrix(1 0 0 1 530 805)" class="st101 st102">Ketu</text>
</g>
<g>
	<g>
		<g>
			<path class="st103" d="M419.7,194.7c0.2,1.1,1.3,3.1,4.1,3.1c0.2,0,0.3-0.1,0.4-0.2l6.9-10.6c1.4,0.1,6.6,0.4,7.5-3.7
				c0-0.2,0-0.3-0.1-0.4c-0.1-0.1-0.2-0.2-0.4-0.2h-2.5c0.7-0.6,1.4-1.4,1.8-2.5c0.5-0.4,0.7-1.1,0.7-1.7c0-1.3-1.1-2.4-2.4-2.4
				c-0.1,0-0.3,0-0.4,0c0.8-0.4,1.3-1.1,1.3-2c0-1.2-1-2.2-2.2-2.2c-0.5,0-1,0.2-1.4,0.5c0.4-0.4,0.6-0.9,0.6-1.5
				c0-1.2-1-2.2-2.2-2.2c-0.6,0-1.2,0.2-1.6,0.6c0.2-0.3,0.3-0.7,0.3-1.2c0-1.2-1-2.2-2.2-2.2c-0.8,0-1.5,0.5-1.9,1.1
				c0.1-0.2,0.1-0.4,0.1-0.6c0-1.2-1-2.2-2.2-2.2c-0.5,0-1,0.2-1.4,0.5c-0.2,0-0.3-0.1-0.5-0.1c-0.8,0-1.5,0.5-1.9,1.1
				c0.1-0.2,0.1-0.4,0.1-0.6c0-1.2-1-2.2-2.2-2.2c-1.1,0-2,0.8-2.2,1.8c-0.1-1.2-1-2.1-2.2-2.1c-1.2,0-2.2,1-2.2,2.2
				c0,0.1,0,0.3,0,0.4c-0.4-0.8-1.1-1.3-2-1.3c-1.2,0-2.2,1-2.2,2.2c0,0.4,0.1,0.8,0.3,1.2c-0.4-0.5-1-0.9-1.8-0.9
				c-1.2,0-2.2,1-2.2,2.2c0,0.6,0.2,1.1,0.6,1.5c-0.3-0.2-0.7-0.3-1.2-0.3c-1.2,0-2.2,1-2.2,2.2c0,0.9,0.6,1.7,1.3,2
				c-0.2-0.1-0.4-0.1-0.6-0.1c-1.2,0-2.2,1-2.2,2.2c0,1.2,1,2.2,2.2,2.2c0,0,0.1,0,0.1,0c0,0,0,0,0,0c-1.1,0.1-2,1-2,2.2
				c0,1.2,0.9,2.1,2.1,2.2c-0.2,0.6-0.7,1.9-1.6,4c-1.9,5-4.8,12.4-6.1,15.1c-1.3,2.6-5.4,7.1-9.7,11.9c-2.2,2.4-4.5,5-6.5,7.4
				c-2.3,2.7-3.2,5.6-3.5,8.2c0,0-0.1,0-0.1,0.1l-5.9,6.7c-0.1,0.1-0.1,0.3-0.1,0.4c0,0.2,0.1,0.3,0.3,0.4c0.1,0.1,1.5,0.8,3.2,0.8
				c1,0,2.1-0.2,3.2-1c0,0,0,0.1,0,0.1c0.2,1,0.4,1.8,0.4,2.3c-0.1,1.7-4.5,6.7-7.3,9.5c-0.1,0.1-0.2,0.2-0.2,0.4v18.2
				c0,0.3,0.2,0.5,0.5,0.5h9.7c0.3,0,0.5-0.2,0.5-0.5c0-0.1,0.1-2.1-1.2-3.5c-0.8-0.9-1.9-1.4-3.4-1.4v-10c1.4-0.3,5.6-1.4,9.7-4.4
				c0.1,0,0.2,0.1,0.3,0.1c0,0,0,0,0.1,0c0.7,0,5.1-0.2,8.6-3.7c3.1-3.2,4.4-8.1,4-14.6c1.5-0.9,3.1-1.8,4.7-2.3
				c2.5-0.8,6.7-2.8,10.3-5.6c2-1.6,3.6-3.3,4.8-5h3.1v7.4l-3.4,3.5c-0.2,0.2-0.2,0.5,0,0.7l3.6,4c0.1,0.1,0.2,0.2,0.4,0.2
				c0.1,0,0.2,0,0.3-0.1l4.6-3.9c0.1-0.1,1.2-1.3,1.4-5.1l1.5,1.8c0.2,0.2,0.4,0.2,0.6,0.1c0.2-0.1,5.5-2.6,5.5-7.3v-8.6
				c0,0,0-0.1,0-0.1c0-0.1-1.1-6-6.5-6h-8.9v-17.1h1.1L419.7,194.7C419.7,194.6,419.7,194.7,419.7,194.7z M423.8,165.2
				c0.7,0,1.2,0.5,1.2,1.2c0,0.1,0,0.2-0.1,0.3c-0.1,0.2,0,0.5,0,0.7c-0.5,0.1-0.9,0.3-1.2,0.6c0.2-0.3,0.3-0.7,0.3-1.2
				c0-0.6-0.3-1.2-0.7-1.6C423.6,165.2,423.7,165.2,423.8,165.2z M400.5,180.7c0-0.6,0.5-1.1,1.1-1.2c0.4,0,0.8-0.4,0.9-0.8
				c0,0,0,0,0-0.1c0.1-0.3,0-0.6-0.2-0.8c-0.2-0.2-0.5-0.4-0.8-0.4c0,0,0,0-0.1,0c0,0-0.1,0-0.1,0c-0.6,0-1.1-0.5-1.1-1.2
				c0-0.7,0.5-1.2,1.2-1.2c0.1,0,0.2,0,0.3,0.1c0.1,0,0.2,0,0.3,0c0.4,0,0.8-0.3,1-0.7c0.2-0.5-0.1-1.1-0.6-1.3
				c-0.4-0.2-0.7-0.6-0.7-1.1c0-0.7,0.5-1.2,1.2-1.2c0.2,0,0.4,0.1,0.6,0.2c0.2,0.1,0.4,0.2,0.5,0.2c0.3,0,0.6-0.1,0.8-0.4
				c0.3-0.4,0.3-1-0.1-1.4c-0.2-0.2-0.3-0.5-0.3-0.8c0-0.7,0.5-1.2,1.2-1.2c0.4,0,0.7,0.2,0.9,0.5c0.2,0.3,0.5,0.4,0.8,0.4
				c0.2,0,0.4-0.1,0.6-0.2c0.5-0.3,0.6-0.9,0.3-1.4c-0.1-0.2-0.2-0.4-0.2-0.6c0-0.7,0.5-1.2,1.2-1.2c0.5,0,0.9,0.3,1.1,0.7
				c0.2,0.4,0.5,0.6,0.9,0.6c0.1,0,0.2,0,0.3,0c0.5-0.2,0.8-0.7,0.7-1.2c0-0.1,0-0.2,0-0.2c0-0.7,0.5-1.2,1.2-1.2
				c0.6,0,1.1,0.5,1.2,1.1c0,0.5,0.5,0.9,1,1c0,0,0,0,0.1,0c0.5,0,0.9-0.4,1-0.8c0.1-0.6,0.6-1,1.2-1c0.7,0,1.2,0.5,1.2,1.2
				c0,0.1,0,0.2-0.1,0.3c-0.2,0.5,0.1,1,0.6,1.2c0.1,0.1,0.3,0.1,0.4,0.1c0.4,0,0.7-0.2,0.9-0.5c0.2-0.4,0.6-0.6,1-0.6
				c0.7,0,1.2,0.5,1.2,1.2c0,0.2-0.1,0.4-0.2,0.6c-0.3,0.4-0.2,1,0.2,1.4c0.2,0.2,0.4,0.2,0.6,0.2c0.3,0,0.5-0.1,0.7-0.3
				c0.2-0.2,0.5-0.3,0.8-0.3c0.7,0,1.2,0.5,1.2,1.2c0,0.4-0.2,0.6-0.3,0.8c-0.4,0.4-0.4,1,0,1.4c0.2,0.2,0.5,0.3,0.8,0.3
				c0.2,0,0.4-0.1,0.6-0.2c0.2-0.1,0.4-0.3,0.7-0.3c0.7,0,1.2,0.5,1.2,1.2c0,0.5-0.3,0.9-0.7,1.1c-0.5,0.2-0.7,0.8-0.5,1.3
				c0.1,0.4,0.5,0.7,1,0.7c0.1,0,0.1,0,0.2,0c0.1,0,0.2,0,0.2,0c0.8,0,1.4,0.6,1.4,1.4c0,0.4-0.1,0.7-0.4,1
				c-0.1,0.1-0.2,0.2-0.2,0.4c-0.8,2.2-2.7,3.1-4.2,3.1c-0.2,0-0.4,0-0.5,0c-1.2-0.2-1.9-1.1-1.9-2.4c0-4.6-4.3-8.6-9.1-8.6
				c-4.6,0-9.6,2.8-9.6,8.9c0,4.3,3.9,8.6,5.9,10.6c-4.4-0.5-5.7-1.8-5.7-2.5c0-0.3,0.2-0.6,0.3-0.7c0.2-0.3,0.3-0.6,0.2-1
				c-0.1-0.3-0.3-0.6-0.7-0.7c-0.1,0-0.2-0.1-0.3-0.1c-0.2,0-0.4,0.1-0.6,0.2c-0.1,0.1-0.4,0.2-0.7,0.2c-0.7,0-1.2-0.5-1.2-1.2
				c0-0.3,0.1-0.6,0.4-0.9c0.3-0.3,0.4-0.8,0.2-1.2c-0.2-0.4-0.5-0.6-0.9-0.6c-0.1,0-0.1,0-0.2,0c-0.1,0-0.2,0-0.2,0
				C401,181.9,400.5,181.3,400.5,180.7z M369.4,236.4l4.6-5.3c0,1.7,0.3,3.3,0.5,4.6C372.6,237.2,370.5,236.7,369.4,236.4z
				 M391.8,243.6c-2.4,2.5-5.4,3.2-6.9,3.3c3.5-3,6.6-7.5,7.4-14.2c0.4-0.3,1.7-1.3,3.3-2.3C395.8,236.3,394.6,240.7,391.8,243.6z
				 M424.3,227.8l-4.2,3.6l-3-3.2l3.2-3.3c0.1-0.1,0.1-0.2,0.1-0.4v-8.1c0-0.3-0.2-0.5-0.5-0.5h-3c0.8-1.4,1.3-2.9,1.5-4.4
				c2.2,0.1,3.9,0.7,5.1,2.1c2.2,2.5,1.8,6.4,1.8,6.5c-0.2,0.1-0.4,0.2-0.7,0.3c-0.2,0.1-0.3,0.2-0.3,0.4c0,0.2,0,0.3,0.1,0.5
				l0.9,1.1C425.3,226.6,424.2,227.8,424.3,227.8z M419.7,210.4h7c0.2,0,1.1,0.3,1.1,1.6v5c-0.1,0.3-0.5,1.3-1.4,2.1
				c0-1.5-0.2-4.3-2.1-6.3C423.2,211.5,421.6,210.7,419.7,210.4z M418.1,185.3c-0.3,0-0.5,0.2-0.5,0.5v18.1c0,0.3,0.2,0.5,0.5,0.5
				h9.4c4.3,0,5.4,4.5,5.5,5.1v8.5c0,3.4-3.5,5.6-4.6,6.2l-2.7-3.3c2.2-1.3,3.1-3.6,3.1-3.8c0-0.1,0-0.1,0-0.2V212
				c0-1.8-1.3-2.5-2-2.6c0,0-0.1,0-0.1,0h-8.6c-0.3,0-0.5,0.2-0.5,0.5c-0.1,9.2-12.3,15.2-16.6,16.6c-4.5,1.5-9.3,5.4-9.5,5.6
				c-0.1,0.1-0.2,0.2-0.2,0.3c-1.7,16.2-17.8,19-17.9,19c-0.3,0-0.4,0.3-0.4,0.5v10.9c0,0.3,0.2,0.5,0.5,0.5c1.4,0,2.5,0.4,3.2,1.1
				c0.7,0.7,0.9,1.7,0.9,2.3h-8.7v-17.5c1.2-1.3,7.3-7.5,7.4-10c0-0.6-0.2-1.5-0.4-2.6c-0.7-3.5-2-9.4,2.6-14.8
				c2-2.4,4.3-4.9,6.5-7.3c4.4-4.8,8.5-9.4,9.9-12.1c1.4-2.7,4.3-10.3,6.2-15.2c0.2-0.6,0.5-1.2,0.7-1.8c0.4,0.7,1.1,1.2,2,1.2
				c0.5,0,0.9-0.2,1.3-0.4c0,0,0,0,0,0c-0.3,0.4-0.5,0.9-0.5,1.4c0,1.1,1.3,3.2,8.2,3.6c0,0,0,0,0,0c0.2,0,0.4-0.1,0.5-0.3
				c0.1-0.2,0-0.4-0.2-0.6c-0.1-0.1-6.7-5.6-6.7-10.8c0-5.5,4.3-7.9,8.5-7.9c4.3,0,8.1,3.5,8.1,7.5c0,1.8,1.1,3.1,2.8,3.4
				c0.2,0,0.5,0.1,0.7,0.1c1.9,0,4.2-1.2,5.1-3.8c0.5-0.4,0.7-1.1,0.7-1.7c0-1.3-1.1-2.4-2.4-2.4c-0.1,0-0.3,0-0.4,0
				c0.8-0.4,1.3-1.1,1.3-2c0-1.2-1-2.2-2.2-2.2c-0.5,0-1,0.2-1.4,0.5c0.4-0.4,0.6-0.9,0.6-1.5c0-0.8-0.4-1.4-1-1.8
				c0.1-0.1,0.2-0.2,0.2-0.2c0.2-0.4,0.6-0.6,1-0.6c0.7,0,1.2,0.5,1.2,1.2c0,0.2-0.1,0.4-0.2,0.6c-0.3,0.4-0.2,1,0.2,1.4
				c0.2,0.2,0.4,0.2,0.6,0.2c0.3,0,0.5-0.1,0.7-0.3c0.2-0.2,0.5-0.3,0.8-0.3c0.7,0,1.2,0.5,1.2,1.2c0,0.4-0.2,0.6-0.3,0.8
				c-0.4,0.4-0.4,1,0,1.4c0.2,0.2,0.5,0.3,0.8,0.3c0.2,0,0.4-0.1,0.6-0.2c0.2-0.1,0.4-0.3,0.7-0.3c0.7,0,1.2,0.5,1.2,1.2
				c0,0.5-0.3,0.9-0.7,1.1c-0.5,0.2-0.7,0.8-0.5,1.3c0.1,0.4,0.5,0.7,1,0.7c0.1,0,0.1,0,0.2,0c0.1,0,0.2,0,0.2,0
				c0.8,0,1.4,0.6,1.4,1.4c0,0.4-0.1,0.7-0.4,1c-0.1,0.1-0.2,0.2-0.2,0.4c-0.5,1.4-1.6,2.4-2.6,2.8h-0.7c-0.3,0-0.5,0.2-0.5,0.5
				c0,0.3,0.2,0.5,0.5,0.5h4.3c-1.3,2.9-6.4,2.2-6.5,2.2c-0.2,0-0.4,0.1-0.5,0.2l-6.9,10.6c-2.2-0.1-2.7-1.9-2.8-2.2v-8.7
				c0-0.3-0.2-0.5-0.5-0.5H418.1z"/>
		</g>
		<g>
			<g>
				<g>
					<path class="st104" d="M424.5,234.2L424.5,234.2c-0.9,0.3-1.4,1.1-1.4,2l0,0l0,0c-0.5-0.7-1.5-1-2.3-0.8l0,0l0,0
						c0.5-0.7,0.5-1.7,0-2.4l0,0l0,0c0.9,0.3,1.8,0,2.3-0.8l0,0l0,0C423.1,233.1,423.7,233.9,424.5,234.2L424.5,234.2z"/>
				</g>
				<g>
					<path class="st104" d="M423.6,220.6L423.6,220.6c-0.8,0.3-1.3,1.2-1.3,2.1l0,0l0,0c-0.6-0.7-1.5-0.9-2.4-0.6l0,0l0,0
						c0.5-0.8,0.4-1.7-0.2-2.4l0,0l0,0c0.9,0.2,1.8-0.2,2.2-0.9l0,0l0,0C422.1,219.6,422.7,220.4,423.6,220.6L423.6,220.6z"/>
				</g>
				<g>
					<path class="st104" d="M412,208.9L412,208.9c-0.8,0.3-1.3,1.2-1.3,2.1l0,0l0,0c-0.6-0.7-1.5-0.9-2.4-0.6l0,0v0
						c0.5-0.8,0.4-1.7-0.2-2.4l0,0l0,0c0.9,0.2,1.8-0.2,2.2-0.9l0,0l0,0C410.4,207.9,411.1,208.7,412,208.9L412,208.9z"/>
				</g>
				<g>
					<path class="st104" d="M380.5,200.8L380.5,200.8c-0.5,0.7-0.5,1.7,0,2.4v0l0,0c-0.9-0.3-1.8,0-2.3,0.8l0,0l0,0
						c0-0.9-0.6-1.7-1.4-2l0,0l0,0c0.9-0.3,1.4-1.1,1.4-2l0,0l0,0C378.7,200.8,379.7,201,380.5,200.8L380.5,200.8z"/>
				</g>
			</g>
			<g>
				<polygon class="st104" points="422.3,234.4 421.3,220.9 409.9,209.1 378.6,201.9 378.7,201.5 410.1,208.7 410.2,208.7 
					421.8,220.7 422.8,234.3 				"/>
			</g>
		</g>
	</g>
</g>
<g>
	<g>
		<g>
			<g>
				<path class="st105" d="M685.5,212.1c0.1-0.2,0-0.5-0.2-0.7c-0.2-0.2-0.5-0.2-0.7,0l-7.7,5.6h-7.7c-2-4.3-7-12.3-10-16.8
					c-2.7-4-11.6-17.3-15.1-18.9c-5.2-2.4-12.8-0.7-20.3,4.7c-7.1,5.1-12.7,6.4-23.3,7.4c-9,0.9-14.2,4-15.7,9.5
					c-1,0.1-4.5,0.5-6.8-1.1c-1.1-0.7-1.8-1.9-2-3.3c-0.8-4.8,3.8-6.7,7.9-8.3c0.9-0.4,1.7-0.7,2.5-1c2.7-1.3,11.3-6.4,7.6-17.9
					c-1.8-5.6-3.2-7.3-4.1-8.3c-0.7-0.8-1.1-1.2-1.1-3.3c0-0.2-0.1-0.4-0.3-0.5c-0.2-0.1-0.4-0.1-0.6,0c-0.2,0.1-3.9,2.5-3.9,6.3
					c0,2.7,1.8,5.4,5.5,7.9c0.4,0.8,2.4,5.5-1,9c-1.3,1.3-3.8,2.5-6.4,3.6c-5.3,2.4-11.2,5-11.3,11c-0.1,3.5,1.2,6.4,3.6,8.3
					c2,1.6,4.7,2.4,7.4,2.4c0.8,0,1.6-0.1,2.5-0.2c0.2,6.2,1.8,14,2.1,15.5l-12.2,19.9c-0.1,0.1-0.1,0.3,0,0.5l1.6,4.4
					c0.1,0.2,0.3,0.4,0.5,0.4h10.4c0.2,0,0.3-0.1,0.4-0.2c0.1-0.1,0.2-0.3,0.1-0.5l-0.9-5.4l10.4-12.2l4.2,0l-9.6,12.8
					c-0.1,0.1-0.1,0.3-0.1,0.5l1.1,4.5c0.1,0.3,0.3,0.5,0.6,0.5h10c0.2,0,0.4-0.1,0.5-0.2c0.1-0.2,0.2-0.4,0.1-0.5l-1.3-4.5
					l11.8-12.9l13.9,0.1l10.4,17.6c0.1,0.2,0.3,0.3,0.5,0.3h10.4c0.2,0,0.4-0.1,0.5-0.3c0.1-0.2,0.1-0.4,0-0.6
					c-0.1-0.1-6.3-12.2-8-15.2c-0.3-0.6-0.4-1-0.2-1.4c0.4-0.8,2-1.2,2.5-1.3h6.3c0.5,5.4,2.2,9,5,10.9c3.5,2.3,7.4,0.9,7.5,0.9
					c0.2-0.1,0.3-0.2,0.3-0.3c0.1-0.3,1.1-3.1,2.3-6.5l5.6,8.8v4.4c0,0.3,0.3,0.6,0.6,0.6H683c0.2,0,0.4-0.1,0.5-0.3s0.1-0.4,0-0.6
					l-13.5-23.5l5.4,0C675.5,223.5,680.8,223.9,685.5,212.1z M584.4,206.3c-3.3,0.7-6.8,0-9.2-1.9c-2.1-1.7-3.2-4.3-3.2-7.4
					c0.1-5.3,5.7-7.8,10.6-10c2.7-1.2,5.3-2.4,6.7-3.9c4.2-4.4,1.1-10.4,1.1-10.4c0-0.1-0.1-0.2-0.2-0.2c-3.4-2.3-5.1-4.7-5.1-7
					c0-2.2,1.6-3.9,2.6-4.8c0.1,1.5,0.6,2.1,1.3,2.9c0.9,1,2.2,2.5,3.9,7.9c3.3,10.4-3.8,15-7,16.6c-0.7,0.3-1.5,0.7-2.4,1
					c-4,1.6-9.6,3.8-8.6,9.5c0.3,1.7,1.1,3.1,2.5,4c2.4,1.6,5.7,1.5,7.2,1.3C584.5,204.7,584.4,205.5,584.4,206.3z M601.2,242.2
					c-0.1,0.2-0.2,0.4-0.1,0.6l1.2,4h-8.7l-0.9-3.7l10-13.3l9.9,0.1L601.2,242.2z M664.9,232.4c-0.1,0.1-0.1,0.2-0.1,0.4
					c-1.2,3.4-2.2,6.3-2.5,7.2c-0.9,0.2-3.7,0.8-6.3-0.9c-2.6-1.7-4.1-5.3-4.5-10.5c0-0.3-0.3-0.5-0.6-0.5l-6.9,0
					c-0.3,0-2.7,0.4-3.5,1.9c-0.4,0.7-0.3,1.6,0.2,2.5c1.4,2.5,6.1,11.5,7.6,14.3h-9.1l-10.4-17.6c-0.1-0.2-0.3-0.3-0.5-0.3
					l-31.7-0.3c-0.2,0-0.3,0.1-0.4,0.2l-10.7,12.6c-0.1,0.1-0.2,0.3-0.1,0.5l0.8,5h-9.4l-1.4-3.8l12.2-19.8c0.1-0.1,0.1-0.3,0.1-0.4
					c0-0.1-2.1-9.7-2.1-16.4c0-7,5-11,15.2-12c10.8-1.1,16.5-2.4,23.9-7.6c7-5,14.4-6.8,19.1-4.6c4.9,2.3,25.5,34.4,25.3,37.2
					C668.8,220.9,666.7,227.1,664.9,232.4z M682,246.7h-9.7v-4c0-0.1,0-0.2-0.1-0.3l-6.2-9.7c1-3,2.1-6.2,2.9-8.8L682,246.7z
					 M669.4,222.3c0.4-1.3,0.6-2.2,0.7-2.7c0-0.3-0.1-0.8-0.3-1.4h7.4c0.1,0,0.2,0,0.3-0.1l6.2-4.5c-4.1,9-8.2,8.8-8.3,8.8H669.4z"
					/>
			</g>
			<g>
				<path class="st105" d="M655.1,217.5c0,0-0.1,0-0.1,0c-0.1-0.1-0.2-0.1-0.3-0.1h-10.4l-9.5-6.8c-0.2-0.1-0.5-0.1-0.7,0
					c-0.2,0.1-0.3,0.4-0.2,0.6c0.2,0.5,3.8,11.5,9.1,12.2h11.7c0.1,0,0.1,0,0.2,0c0.1,0,2.6-0.8,2.6-3
					C657.5,218.3,655.7,217.7,655.1,217.5z M654.6,222.2l-11.6,0c-3.2-0.4-6.1-6.1-7.5-9.7l8.2,5.8c0.1,0.1,0.2,0.1,0.3,0.1h10.5
					c0,0,0.1,0,0.1,0.1c0.8,0.3,1.7,0.7,1.7,1.8C656.4,221.6,655,222.1,654.6,222.2z"/>
			</g>
		</g>
		<g>
			<g>
				<g>
					<path class="st104" d="M633,216.5L633,216.5c-0.9,0.3-1.6,1.2-1.6,2.1l0,0l0,0c-0.6-0.8-1.6-1.1-2.5-0.8l0,0l0,0
						c0.6-0.8,0.6-1.9,0-2.6v0l0,0c0.9,0.3,1.9,0,2.5-0.8l0,0v0C631.4,215.3,632,216.2,633,216.5L633,216.5z"/>
				</g>
				<g>
					<path class="st104" d="M642.3,210.4L642.3,210.4c-0.9,0.3-1.6,1.2-1.6,2.1l0,0l0,0c-0.6-0.8-1.6-1.1-2.5-0.8l0,0l0,0
						c0.6-0.8,0.6-1.9,0-2.6l0,0l0,0c0.9,0.3,1.9,0,2.5-0.8l0,0l0,0C640.8,209.2,641.4,210.1,642.3,210.4L642.3,210.4z"/>
				</g>
				<g>
					<path class="st104" d="M616.4,218.4L616.4,218.4c-0.9,0.4-1.5,1.3-1.4,2.3l0,0l0,0c-0.6-0.7-1.7-1-2.6-0.6l0,0l0,0
						c0.5-0.8,0.4-1.9-0.2-2.6l0,0l0,0c1,0.2,1.9-0.2,2.4-1v0v0C614.8,217.4,615.5,218.2,616.4,218.4L616.4,218.4z"/>
				</g>
				<g>
					<path class="st104" d="M668.5,242.7L668.5,242.7c-0.9,0.4-1.5,1.3-1.4,2.3l0,0l0,0c-0.6-0.7-1.7-1-2.6-0.6l0,0l0,0
						c0.5-0.8,0.4-1.9-0.2-2.6l0,0l0,0c1,0.2,1.9-0.2,2.4-1l0,0l0,0C666.8,241.7,667.5,242.5,668.5,242.7L668.5,242.7z"/>
				</g>
				<g>
					<path class="st104" d="M587.2,218.2L587.2,218.2c-0.9,0.4-1.5,1.3-1.4,2.3l0,0l0,0c-0.6-0.7-1.7-1-2.6-0.6v0v0
						c0.5-0.8,0.4-1.9-0.2-2.6l0,0l0,0c1,0.2,1.9-0.2,2.4-1l0,0l0,0C585.5,217.2,586.2,218,587.2,218.2L587.2,218.2z"/>
				</g>
				<g>
					<path class="st104" d="M655.3,216L655.3,216c0.9-0.4,1.5-1.3,1.4-2.3l0,0l0,0c0.6,0.7,1.7,1,2.6,0.6l0,0l0,0
						c-0.5,0.8-0.4,1.9,0.2,2.6v0l0,0c-1-0.2-1.9,0.2-2.4,1l0,0l0,0C656.9,217,656.2,216.2,655.3,216L655.3,216z"/>
				</g>
				<g>
					<path class="st104" d="M633.4,199.6L633.4,199.6c0.9-0.4,1.5-1.3,1.4-2.3v0v0c0.6,0.7,1.7,1,2.6,0.6l0,0l0,0
						c-0.5,0.8-0.4,1.9,0.2,2.6l0,0l0,0c-1-0.2-1.9,0.2-2.4,1l0,0l0,0C635,200.7,634.3,199.9,633.4,199.6L633.4,199.6z"/>
				</g>
				<g>
					<path class="st104" d="M647.9,238.4L647.9,238.4c0.9-0.4,1.5-1.3,1.4-2.3v0v0c0.6,0.7,1.7,1,2.6,0.6l0,0v0
						c-0.5,0.8-0.4,1.9,0.2,2.6l0,0l0,0c-1-0.2-1.9,0.2-2.4,1l0,0l0,0C649.6,239.5,648.9,238.7,647.9,238.4L647.9,238.4z"/>
				</g>
				<g>
					<path class="st104" d="M605.1,194.9L605.1,194.9c0.9-0.5,1.3-1.4,1.2-2.4l0,0l0,0c0.7,0.7,1.8,0.8,2.6,0.4l0,0l0,0
						c-0.4,0.9-0.3,1.9,0.4,2.6l0,0l0,0c-1-0.1-1.9,0.4-2.3,1.2l0,0l0,0C606.8,195.8,606,195,605.1,194.9L605.1,194.9z"/>
				</g>
				<g>
					<path class="st104" d="M681,212L681,212c0.9-0.5,1.3-1.4,1.2-2.4l0,0l0,0c0.7,0.7,1.8,0.8,2.6,0.4v0v0
						c-0.4,0.9-0.3,1.9,0.4,2.6l0,0l0,0c-1-0.1-1.9,0.4-2.3,1.2l0,0l0,0C682.7,212.9,681.9,212.2,681,212L681,212z"/>
				</g>
				<g>
					<path class="st104" d="M576.1,193.6L576.1,193.6c0.9-0.5,1.3-1.4,1.2-2.4l0,0l0,0c0.7,0.7,1.8,0.8,2.6,0.4l0,0l0,0
						c-0.4,0.9-0.3,1.9,0.4,2.6l0,0l0,0c-1-0.1-1.9,0.4-2.3,1.2l0,0l0,0C577.8,194.5,577,193.7,576.1,193.6L576.1,193.6z"/>
				</g>
				<g>
					<path class="st104" d="M673.5,197.5L673.5,197.5c0.9-0.5,1.3-1.4,1.2-2.4l0,0l0,0c0.7,0.7,1.8,0.8,2.6,0.4l0,0l0,0
						c-0.4,0.9-0.3,1.9,0.4,2.6l0,0l0,0c-1-0.1-1.9,0.4-2.3,1.2l0,0l0,0C675.2,198.3,674.5,197.6,673.5,197.5L673.5,197.5z"/>
				</g>
			</g>
			<g>
				<polygon class="st104" points="584.7,218.9 584.7,218.3 614.2,218.3 630.4,216.6 640,210.1 635.4,199.4 607.3,194.8 
					578.2,193.4 578.3,192.9 607.4,194.2 635.8,199 635.9,199.1 640.7,210.3 630.5,217.2 614.2,218.9 				"/>
			</g>
			<g>
				<polygon class="st104" points="666.5,243.3 649.4,238.8 649.5,238.5 657.3,215.7 675.8,195.9 683.4,211.5 682.9,211.7 
					675.6,196.8 657.7,216 650.1,238.4 666.6,242.8 				"/>
			</g>
			<g>
				
					<rect x="648.4" y="204" transform="matrix(0.2998 -0.954 0.954 0.2998 250.8752 768.1186)" class="st104" width="0.5" height="18.3"/>
			</g>
		</g>
	</g>
</g>
<g>
	<g>
		<g>
			<path class="st106" d="M906.5,232.5c-1.4-1.3-11.4-19-18-30.8c-0.3-15.5-0.7-36.2-0.8-40.1c-0.1-3.9-2.5-8.3-4.5-12.1
				c-1.4-2.6-2.7-5.1-2.9-6.7c-0.3-3,3-9.2,5.2-12.9c0.3,6.2,1.1,19.9,1.4,21.5c0.5,2.1,8.6,23.4,12.2,26.8c1.9,1.8,4.7,2.1,6.9,0.7
				c2.1-1.3,2.8-3.6,2.1-6.1c-1.5-4.7-9.4-19.8-10.4-21.7l-0.3-25.1c0-0.2,0.5-4.3-2.4-7.6c-2.2-2.5-5.6-3.8-10.2-3.9l0-21.8
				c0-0.3,0.1-6.6-4.1-11c-2.5-2.6-5.9-3.8-10.2-3.8c-5.8,0-11,3.1-14,8.6c-4.5,8-3.8,18.9,1.8,28.7c-1.1,0.5-3,1.4-5,3.3
				c-2.7,2.6-5.9,7.5-5.9,16.1c0,2-0.5,3.7-1.4,5.2c-0.9-1.5-1.4-3.2-1.4-5.2c0-13.6-7.9-18.1-10.8-19.3c5.6-9.8,6.3-20.7,1.8-28.7
				c-3.1-5.5-8.2-8.6-14-8.6c-4.3,0-7.8,1.3-10.2,3.8c-4.2,4.3-4.1,10.7-4.1,11v21.8c-4.6,0.1-8,1.5-10.2,3.9
				c-2.9,3.3-2.5,7.4-2.4,7.5l-0.3,25.2c-1,1.9-8.9,17-10.4,21.7c-0.8,2.5,0,4.8,2.1,6.1c2.2,1.4,5,1.1,6.9-0.7
				c3.6-3.4,11.7-24.7,12.2-26.8c0.4-1.7,1.1-15.3,1.4-21.5c2.1,3.8,5.4,9.9,5.2,12.9c-0.1,1.6-1.5,4-2.9,6.7
				c-2.1,3.8-4.4,8.2-4.5,12.1c-0.1,3.9-0.5,24.5-0.8,40.1c-6.5,11.8-16.5,29.5-18,30.8c-2.1,2-3.4,3.6-1.3,6.7
				c1.8,2.6,9.9,7.3,10.2,7.5l0.2,0.1h2.2l0,0.1h38.8l0-0.8c0-0.7-0.6-71-0.6-80.3c0-3.1-0.3-6.3-0.8-9.4c4.1-0.4,8.2-1.3,11.9-3.2
				c3.7,1.8,7.8,2.7,11.9,3.2c-0.4,3.1-0.8,6.3-0.8,9.4c0,9.2-0.6,79.6-0.6,80.3l0,0.8h38.7l0-0.1h2.2l0.2-0.1
				c0.3-0.2,8.4-4.9,10.2-7.5C909.9,236.2,908.6,234.5,906.5,232.5z M893.7,119.6c2.4,2.7,2,6.2,2,6.4l0.3,25.6l0.1,0.2
				c0.1,0.2,8.9,16.8,10.4,21.6c0.6,1.7,0,3.3-1.4,4.2c-1.3,0.8-3.3,1-4.9-0.5c-3.1-3-11.2-23.8-11.7-26c-0.4-1.6-1.2-18-1.6-24.1
				l-0.1-2.9l-1.4,2.5c-0.2,0.4-0.5,0.8-0.7,1.3c-0.5,0.8-1,1.7-1.4,2.6l-15.8-14.9v-6.3l-0.6-0.2c-8.4-2.9-6.4-15.4-5.9-18.3
				c3.6-0.5,5.7-2.3,6.8-3.6c2,3.5,5.5,5.1,7,5.7v17.3c0,1.8,0.6,3.3,1.8,4.4c2.5,2.2,6.8,1.8,7.4,1.7
				C888.4,116.3,891.7,117.4,893.7,119.6z M857.8,87.5c2.8-4.9,7.4-7.8,12.6-7.8c3.8,0,6.9,1.1,9,3.3c3.7,3.8,3.6,9.7,3.6,9.8v21.8
				c-1.3,0.1-3.8,0-5.4-1.4c-0.8-0.7-1.3-1.8-1.3-3.1V91.7l-0.6-0.2c-0.1,0-5.4-1.6-7.1-6.3l-0.7-1.9l-0.8,1.8c0,0-1.7,3.6-6.9,4.1
				l-0.6,0l-0.1,0.6c0,0.2-1,4.3-0.7,8.8c0.4,6,2.8,10.1,7,11.8v4.6l-5.9-0.1C853.3,103.8,854.5,93.5,857.8,87.5z M842.9,134.7
				c0,2.5,0.7,4.8,2,6.6c-0.1,0.1-0.3,0.3-0.4,0.4c-1.4,1.4-3.3,2.3-5.4,3.1c-1.8-2.8-3-6.3-3.4-10.8c1.7-8-4.6-14.5-8-17.4l4.7-0.1
				C833.6,117,842.9,120.2,842.9,134.7z M832.3,141.6c0.2-2.3,1.2-4.2,2-5.4c0.5,3.7,1.6,6.7,3.1,9.2c-1.5,0.4-3.2,0.7-4.8,0.9
				C832.3,144.4,832.2,142.7,832.3,141.6z M812.5,83c2.2-2.2,5.2-3.3,9-3.3c5.2,0,9.8,2.8,12.6,7.8c3.4,6,4.5,16.3-2.1,27.5
				l-5.9,0.1v-4.6c4.2-1.7,6.6-5.7,7-11.8c0.3-4.6-0.7-8.7-0.7-8.8l-0.1-0.6l-0.6,0c-5.1-0.4-6.8-3.9-6.9-4.1l-0.8-1.8l-0.7,1.9
				c-1.8,4.6-7.1,6.2-7.1,6.3l-0.6,0.2v18.5c0,1.4-0.4,2.4-1.3,3.1c-1.6,1.4-4.2,1.4-5.4,1.4V92.8C808.8,92.8,808.8,86.9,812.5,83z
				 M806.5,126.6l-1.4-2.5L805,127c-0.3,6.2-1.2,22.5-1.6,24.1c-0.5,2.2-8.6,23-11.7,26c-1.6,1.5-3.6,1.3-4.9,0.5
				c-1.4-0.9-1.9-2.4-1.4-4.2c1.5-4.8,10.3-21.5,10.4-21.6l0.1-0.2l0.3-25.7c0,0-0.4-3.5,2-6.3c2-2.2,5.2-3.4,9.7-3.4
				c0.6,0.1,4.8,0.5,7.4-1.7c1.2-1.1,1.8-2.5,1.8-4.4V92.9c1.4-0.5,5-2.2,7-5.7c1.1,1.3,3.1,3.1,6.8,3.6c0.6,2.8,2.5,15.4-5.9,18.3
				l-0.6,0.2v6.3l-15.8,14.9c-0.5-0.9-1-1.7-1.4-2.6C807,127.4,806.7,127,806.5,126.6z M795,245.2c-2.4-1.4-8.2-5.1-9.5-6.9
				c-1.3-1.9-1-2.6,1.1-4.5c1.8-1.7,12.4-20.6,16.8-28.5c-0.1,7.7-0.2,13.5-0.3,14.2l-1.7,7.2c-8.1,6.3-8.4,8.9-7.9,9.9
				c1,1.8,3.5,4.7,4.3,5.6l-0.7,3H795z M798.3,240.2c-1.1-1.2-2.6-3.1-3.3-4.4c-0.2-0.8,2.4-3.6,5.8-6.5L798.3,240.2z M833.2,165.8
				c0,8.7,0.6,71.4,0.6,79.5h-34.4v-0.1h-0.6l5.9-25.4l0-0.2c0-0.2,0.1-7.8,0.3-17.5c0,0,0,0,0,0l0,0c0.3-15.6,0.7-36.5,0.8-40.4
				c0.1-3,1.7-6.4,3.4-9.6c0.3-0.6,0.6-1.2,0.9-1.7c0.6-1.1,1.2-2.2,1.7-3.2c0.8-1.5,1.3-2.9,1.4-4.1c0.2-2.7-1.6-6.8-3.8-11
				l15.9-15c2.2,1.7,10.4,8.6,8.7,16.7c-0.7,0.8-3.1,3.6-3.5,7.7c-0.1,1.3,0,3,0.3,5.1c0.1,0.5,0.1,1.1,0.2,1.6c0.1,1,0.3,2,0.5,3
				c0.2,1.2,0.4,2.5,0.6,3.8c0.1,0.6,0.2,1.1,0.2,1.7C832.9,159.7,833.2,162.8,833.2,165.8z M833.9,154.8c-0.2-1.3-0.4-2.6-0.6-3.9
				c-0.2-1-0.3-2-0.5-3c1.9-0.2,3.7-0.6,5.5-1.1c0.6-0.2,1.2-0.4,1.8-0.6c2.1-0.8,4.1-1.8,5.6-3.3c0.1-0.1,0.2-0.2,0.3-0.4
				c0.4-0.4,0.8-0.8,1.1-1.3c1.3-1.9,2-4.1,2-6.6c0-14.6,9.4-17.7,10.5-18.1l4.7,0.1c-3.4,2.8-9.7,9.4-8,17.4
				c-0.4,4.5-1.6,8-3.4,10.8c-0.3,0.5-0.6,1-1,1.4c-1.7,2.2-3.7,3.8-5.9,5.1c-0.6,0.3-1.3,0.7-1.9,0.9
				C840.9,153.7,837.4,154.4,833.9,154.8z M859.4,146.3c-1.6-0.2-3.3-0.5-4.8-0.9c1.5-2.5,2.5-5.5,3.1-9.2c0.8,1.2,1.8,3.1,2,5.4
				C859.8,142.7,859.7,144.4,859.4,146.3z M847.9,152.3c2.2-1.4,4.2-3.1,5.8-5.4c1.8,0.5,3.6,0.9,5.5,1.1c-0.1,0.9-0.3,1.9-0.5,3
				c-0.2,1.3-0.4,2.6-0.6,3.9C854.6,154.4,851.1,153.7,847.9,152.3z M858.7,165.8c0-3,0.3-6.2,0.7-9.2c0.1-0.6,0.2-1.1,0.2-1.7
				c0.2-1.3,0.4-2.6,0.6-3.8c0.2-1.1,0.3-2.1,0.5-3c0.1-0.6,0.2-1.1,0.2-1.6c0.3-2,0.4-3.8,0.3-5.1c-0.4-4.1-2.8-6.9-3.5-7.7
				c-1.7-8.1,6.5-15,8.7-16.7l15.9,15c-2.2,4.2-4,8.3-3.8,11c0.1,1.2,0.6,2.5,1.4,4.1c0.5,1,1.1,2.1,1.7,3.2
				c0.3,0.6,0.6,1.1,0.9,1.7c1.7,3.2,3.3,6.6,3.4,9.6c0.1,3.9,0.5,24.9,0.8,40.4l0,0c0,0,0,0,0,0c0.2,9.7,0.3,17.3,0.3,17.5
				l5.9,25.6h-0.6v0.1h-34.4C858.2,237.3,858.7,174.5,858.7,165.8z M891.1,229.3c3.4,2.9,6,5.7,5.8,6.5c-0.7,1.3-2.2,3.2-3.3,4.4
				L891.1,229.3z M906.4,238.3c-1.3,1.9-7.1,5.5-9.5,6.9h-2.2l-0.7-3c0.8-0.9,3.3-3.8,4.3-5.6c0.5-1,0.2-3.6-7.9-9.9l-1.7-7.2
				c0-0.8-0.1-6.6-0.3-14.2c4.4,7.9,15,26.8,16.8,28.5C907.4,235.7,907.8,236.4,906.4,238.3z"/>
		</g>
		<g>
			<g>
				<g>
					<path class="st104" d="M822.9,128.8L822.9,128.8c-1.4-0.3-2.9,0.2-3.6,1.5v0v0c-0.1-1.4-1.1-2.6-2.5-3l0,0l0,0
						c1.3-0.5,2.2-1.9,2.1-3.3l0,0l0,0c0.9,1.1,2.5,1.5,3.8,0.9l0,0l0,0C821.9,126.1,822,127.7,822.9,128.8L822.9,128.8z"/>
				</g>
				<g>
					<path class="st104" d="M789.6,145.8L789.6,145.8c-1.4-0.3-2.9,0.2-3.6,1.5l0,0l0,0c-0.1-1.4-1.1-2.6-2.5-3l0,0l0,0
						c1.3-0.5,2.2-1.9,2.1-3.3l0,0l0,0c0.9,1.1,2.5,1.5,3.8,0.9l0,0l0,0C788.5,143.1,788.6,144.7,789.6,145.8L789.6,145.8z"/>
				</g>
				<g>
					<path class="st104" d="M793.9,116.5L793.9,116.5c-1.4-0.3-2.9,0.2-3.6,1.5l0,0l0,0c-0.1-1.4-1.1-2.6-2.5-3v0l0,0
						c1.3-0.5,2.2-1.9,2.1-3.3l0,0l0,0c0.9,1.1,2.5,1.5,3.8,0.9l0,0l0,0C792.9,113.8,793,115.4,793.9,116.5L793.9,116.5z"/>
				</g>
				<g>
					<path class="st104" d="M863.7,152.5L863.7,152.5c-1.1,0.9-1.4,2.5-0.9,3.8l0,0l0,0c-1.2-0.7-2.8-0.6-3.9,0.3l0,0l0,0
						c0.3-1.4-0.3-2.9-1.5-3.6l0,0l0,0c1.4-0.1,2.6-1.2,3-2.6l0,0l0,0C860.9,151.8,862.3,152.6,863.7,152.5L863.7,152.5z"/>
				</g>
				<g>
					<path class="st104" d="M850.6,118.8L850.6,118.8c-1.4-0.2-2.8,0.5-3.5,1.8l0,0l0,0c-0.2-1.4-1.3-2.5-2.8-2.8l0,0l0,0
						c1.3-0.6,2-2.1,1.8-3.5l0,0l0,0c1,1,2.6,1.3,3.9,0.6l0,0l0,0C849.3,116.2,849.6,117.8,850.6,118.8L850.6,118.8z"/>
				</g>
				<g>
					<path class="st104" d="M838.6,184.4L838.6,184.4c-1.4-0.2-2.8,0.5-3.5,1.8l0,0l0,0c-0.2-1.4-1.3-2.5-2.8-2.8l0,0l0,0
						c1.3-0.6,2-2.1,1.8-3.5l0,0l0,0c1,1,2.6,1.3,3.9,0.6l0,0l0,0C837.4,181.8,837.6,183.3,838.6,184.4L838.6,184.4z"/>
				</g>
				<g>
					<path class="st104" d="M909.3,177.7L909.3,177.7c-1.4-0.2-2.8,0.5-3.5,1.8l0,0l0,0c-0.2-1.4-1.3-2.5-2.8-2.8l0,0l0,0
						c1.3-0.6,2-2.1,1.8-3.5v0v0c1,1,2.6,1.3,3.9,0.6l0,0l0,0C908.1,175.2,908.3,176.7,909.3,177.7L909.3,177.7z"/>
				</g>
				<g>
					<path class="st104" d="M809.7,172.6L809.7,172.6c-1.4-0.2-2.8,0.5-3.5,1.8l0,0l0,0c-0.2-1.4-1.3-2.5-2.8-2.8l0,0l0,0
						c1.3-0.6,2-2.1,1.8-3.5l0,0l0,0c1,1,2.6,1.3,3.9,0.6l0,0l0,0C808.5,170,808.7,171.6,809.7,172.6L809.7,172.6z"/>
				</g>
				<g>
					<path class="st104" d="M767.3,137.9L767.3,137.9c-1.4-0.2-2.8,0.5-3.5,1.8l0,0l0,0c-0.2-1.4-1.3-2.5-2.8-2.8l0,0l0,0
						c1.3-0.6,2-2.1,1.8-3.5l0,0l0,0c1,1,2.6,1.3,3.9,0.6l0,0l0,0C766,135.3,766.2,136.9,767.3,137.9L767.3,137.9z"/>
				</g>
				<g>
					<path class="st104" d="M811,118L811,118c-1.4-0.2-2.8,0.5-3.5,1.8l0,0l0,0c-0.2-1.4-1.3-2.5-2.8-2.8l0,0l0,0
						c1.3-0.6,2-2.1,1.8-3.5l0,0l0,0c1,1,2.6,1.3,3.9,0.6l0,0l0,0C809.7,115.4,810,117,811,118L811,118z"/>
				</g>
				<g>
					<path class="st104" d="M879.1,208.5L879.1,208.5c-1.2,0.7-1.9,2.2-1.6,3.6l0,0l0,0c-1.1-1-2.6-1.1-3.9-0.4l0,0l0,0
						c0.6-1.3,0.2-2.9-0.8-3.8l0,0l0,0c1.4,0.1,2.8-0.6,3.4-2l0,0l0,0C876.5,207.3,877.7,208.4,879.1,208.5L879.1,208.5z"/>
				</g>
				<g>
					<path class="st104" d="M808.4,140.6L808.4,140.6c-1.3,0.5-2.2,1.9-2.1,3.3l0,0l0,0c-0.9-1.1-2.5-1.5-3.8-0.9l0,0l0,0
						c0.8-1.2,0.6-2.8-0.3-3.9l0,0l0,0c1.4,0.3,2.9-0.3,3.6-1.5l0,0l0,0C806,139,807,140.2,808.4,140.6L808.4,140.6z"/>
				</g>
				<g>
					<path class="st104" d="M892.4,188.3L892.4,188.3c-1.3,0.5-2.2,1.9-2.1,3.3l0,0l0,0c-0.9-1.1-2.5-1.5-3.8-0.9l0,0l0,0
						c0.8-1.2,0.6-2.8-0.3-3.9h0h0c1.4,0.3,2.9-0.3,3.6-1.5l0,0l0,0C889.9,186.8,891,188,892.4,188.3L892.4,188.3z"/>
				</g>
				<g>
					<path class="st104" d="M777.2,161.5L777.2,161.5c-1.3,0.5-2.2,1.9-2.1,3.3l0,0l0,0c-0.9-1.1-2.5-1.5-3.8-0.9l0,0l0,0
						c0.8-1.2,0.6-2.8-0.3-3.9l0,0l0,0c1.4,0.3,2.9-0.3,3.6-1.5l0,0l0,0C774.8,159.9,775.8,161.1,777.2,161.5L777.2,161.5z"/>
				</g>
				<g>
					<path class="st104" d="M930.9,173.6L930.9,173.6c-1.3,0.5-2.2,1.9-2.1,3.3l0,0l0,0c-0.9-1.1-2.5-1.5-3.8-0.9h0h0
						c0.8-1.2,0.6-2.8-0.3-3.9l0,0l0,0c1.4,0.3,2.9-0.3,3.6-1.5l0,0v0C928.5,172.1,929.5,173.3,930.9,173.6L930.9,173.6z"/>
				</g>
				<g>
					<path class="st104" d="M861.8,226.2L861.8,226.2c-1.3,0.5-2.2,1.9-2.1,3.3l0,0l0,0c-0.9-1.1-2.5-1.5-3.8-0.9l0,0l0,0
						c0.8-1.2,0.6-2.8-0.3-3.9l0,0l0,0c1.4,0.3,2.9-0.3,3.6-1.5v0v0C859.4,224.6,860.4,225.8,861.8,226.2L861.8,226.2z"/>
				</g>
			</g>
			<g>
				<polygon class="st104" points="875.7,209.9 835.2,183.7 806.8,171.7 806.7,171.6 785.8,143.6 805.3,140.3 820.5,126.8 
					848,116.6 848.2,117.4 820.8,127.5 805.6,141.1 805.5,141.1 787.2,144.2 807.3,171 835.6,183 876.1,209.3 				"/>
			</g>
			<g>
				
					<rect x="846.5" y="179.4" transform="matrix(0.8795 -0.476 0.476 0.8795 4.7746 427.7684)" class="st104" width="0.8" height="50.1"/>
			</g>
			<g>
				
					<rect x="769.4" y="152.8" transform="matrix(0.588 -0.8088 0.8088 0.588 197.4892 694.1288)" class="st104" width="21.5" height="0.8"/>
			</g>
			<g>
				
					<rect x="774.9" y="128" transform="matrix(0.3321 -0.9432 0.9432 0.3321 385.8127 824.7131)" class="st104" width="0.8" height="23.8"/>
			</g>
			<g>
				<polygon class="st104" points="888.2,188.7 859,152.2 906.6,175.9 927.8,173.5 927.9,174.3 906.5,176.7 906.4,176.6 
					861.8,154.5 888.8,188.2 				"/>
			</g>
			<g>
				<polygon class="st104" points="860.2,153.7 820.4,127.5 807.8,116.9 790.4,115.2 790.5,114.4 808.1,116.2 820.9,126.8 
					860.6,153 				"/>
			</g>
		</g>
	</g>
</g>
</svg>
