<?xml version="1.0" encoding="utf-8"?>
<!-- Generator: Adobe Illustrator 27.4.1, SVG Export Plug-In . SVG Version: 6.00 Build 0)  -->
<svg version="1.1" id="Layer_1" xmlns="http://www.w3.org/2000/svg" xmlns:xlink="http://www.w3.org/1999/xlink" x="0px" y="0px"
	 viewBox="0 0 30 30" style="enable-background:new 0 0 30 30;" xml:space="preserve">
<style type="text/css">
	.st0{display:none;}
	.st1{display:inline;fill:#FFFFFF;}
	.st2{display:inline;}
	.st3{fill:#FFFFFF;}
</style>
<g id="Layer_2_00000176010796080187200220000016050061578188300163_" class="st0">
	<path class="st1" d="M12.3,4.2c-0.2,0.9-0.7,1.2-1.6,1.2c0.8,0.5,0.9,1.1,0.7,1.9c0.7-0.6,1.3-0.5,2,0c-0.3-0.8-0.2-1.4,0.6-1.9
		C13,5.4,12.5,5.1,12.3,4.2z"/>
	<path class="st1" d="M15.9,14.3c-0.9,0.1-1.3-0.4-1.6-1.1c-0.2,0.9-0.7,1.2-1.6,1.2c0.8,0.5,0.9,1.1,0.6,1.9c0.7-0.5,1.3-0.6,2,0
		C14.9,15.4,15.2,14.9,15.9,14.3z"/>
	<path class="st1" d="M22.9,25.4c0.4-0.4,0.8-0.3,1.3,0c-0.3-0.5,0-0.9,0.4-1.2c-0.6,0.2-0.8-0.3-1-0.7c-0.1,0.5-0.5,0.7-1,0.7
		C23,24.5,23.1,24.9,22.9,25.4z"/>
	<path class="st1" d="M28.6,20.8c0.4-0.4,0.8-0.3,1.3,0c-0.3-0.5,0-0.9,0.4-1.2c-0.6,0-0.9-0.2-1-0.7c-0.1,0.5-0.5,0.8-1,0.8
		C28.7,19.9,28.7,20.3,28.6,20.8z"/>
	<path class="st1" d="M2.1,12c0,0.1,0,0.1,0,0.2c3.2,0.6,6.3,1.2,9.5,1.8c0-0.1,0-0.1,0-0.2C8.4,13.2,5.3,12.6,2.1,12z"/>
	<path class="st1" d="M10.2,5.1c0-0.1,0-0.1,0-0.2c-2-0.5-3.9-1-5.9-1.4c0,0.1,0,0.1,0,0.2C6.3,4.1,8.3,4.6,10.2,5.1z"/>
	<path class="st1" d="M16.2,26.3c0.1,0.6-0.1,1.1,0.1,1.6h0.1c0-0.2,0-0.4,0.1-0.6c0,0,0.1,0,0.1-0.1c0.1,0.1,0.2,0.2,0.3,0.4
		c0.1,0.1,0.2,0.3,0.3,0.4l0.1-0.1c-0.1-0.2-0.2-0.4-0.3-0.6h0.1c0.1-0.2,0.2-0.5,0.2-0.7C17.1,26.1,16.6,26.3,16.2,26.3z"/>
	<path class="st1" d="M27.7,17.3c-0.2-0.1-0.4-0.3-0.5-0.4c-0.2,0.1-0.4,0.3-0.5,0.4c0.1,0.2,0.1,0.5,0.2,0.6c0.3,0,0.5,0,0.7,0
		C27.6,17.7,27.6,17.5,27.7,17.3z"/>
	<path class="st1" d="M17.9,10.8c-0.2,0.1-0.4,0.3-0.5,0.4c0.1,0.2,0.1,0.4,0.2,0.6c0.2,0,0.5,0,0.7,0c0.1-0.2,0.2-0.5,0.2-0.6
		C18.3,11,18.1,10.9,17.9,10.8z"/>
	<path class="st1" d="M14.2,28c0,0,0.1,0,0.1-0.1c-0.2-0.5-0.3-1-0.5-1.5c0-0.1-0.1-0.1-0.2-0.2c0,0-0.1,0.1-0.2,0.1
		c-0.2,0.5-0.3,1-0.5,1.5l0.1,0.1c0.2-0.4,0.4-0.7,0.8-0.5C14,27.6,14.1,27.8,14.2,28z"/>
	<path class="st1" d="M14.7,26.3c-0.1,0-0.1,0-0.2,0c0,0.4,0,0.8,0,1.2c0,0.2,0.3,0.4,0.4,0.4c0.2,0,0.4,0,0.6-0.2
		c0.2-0.2,0.2-1.2,0-1.5c0,0.1,0,0.2,0,0.3c0,0.3,0,0.6,0,0.9c0,0.1-0.2,0.4-0.3,0.3c-0.1,0-0.3-0.2-0.4-0.3c-0.1-0.2,0-0.4,0-0.6
		C14.7,26.7,14.7,26.5,14.7,26.3z"/>
	<path class="st1" d="M23.7,17.5c-0.2-0.2-0.4-0.3-0.5-0.4c-0.2,0.1-0.4,0.3-0.6,0.4c0.1,0.2,0.1,0.5,0.2,0.6c0.2,0,0.5,0,0.7,0
		C23.6,17.9,23.7,17.7,23.7,17.5z"/>
	<path class="st1" d="M16.1,9.2c0.1,0.2,0.1,0.5,0.2,0.6c0.2,0,0.5,0,0.7,0c0.1-0.2,0.2-0.4,0.2-0.6c-0.2-0.1-0.4-0.3-0.5-0.4
		C16.4,9,16.2,9.1,16.1,9.2z"/>
	<path class="st1" d="M17.9,26.3c-0.1,0-0.1,0-0.2,0c0,0.4,0,0.9,0,1.3c0,0.1,0.3,0.3,0.4,0.4c0.2,0,0.4-0.1,0.5-0.2
		c0.2-0.2,0.2-1.2,0-1.5c0,0.3,0,0.6,0,1c0,0.3-0.1,0.5-0.4,0.5s-0.4-0.3-0.4-0.6C17.9,26.9,17.9,26.6,17.9,26.3z"/>
	<path class="st1" d="M20.4,14.1c-0.2-0.1-0.4-0.3-0.5-0.4c-0.2,0.1-0.4,0.3-0.5,0.4c0.1,0.2,0.1,0.4,0.2,0.6c0.2,0,0.5,0,0.6,0
		C20.2,14.5,20.3,14.3,20.4,14.1z"/>
	<path class="st1" d="M20.7,21.8c0.1,0.2,0.2,0.4,0.2,0.6c0.2,0,0.5,0,0.6,0c0.1-0.2,0.2-0.5,0.2-0.6c-0.2-0.2-0.4-0.3-0.5-0.4
		C21,21.5,20.8,21.6,20.7,21.8z"/>
	<path class="st1" d="M0.9,12.1C1,11.9,1,11.7,1.1,11.5c-0.2-0.1-0.4-0.3-0.6-0.4c-0.2,0.1-0.4,0.3-0.5,0.4c0.1,0.2,0.1,0.4,0.2,0.6
		C0.4,12.1,0.7,12.1,0.9,12.1z"/>
	<path class="st1" d="M19.2,27.6c0,0,0,0.1-0.1,0.1c0.2,0.1,0.3,0.2,0.5,0.2s0.5-0.2,0.6-0.3c0.1-0.3,0-0.5-0.3-0.6
		c-0.1,0-0.2-0.1-0.3-0.1c-0.1-0.1-0.2-0.2-0.1-0.3c0-0.1,0.2-0.1,0.3-0.2c0.1,0,0.3,0,0.4,0.1c0-0.1,0-0.1,0-0.2
		c-0.2,0-0.5-0.1-0.7,0c-0.1,0-0.3,0.3-0.3,0.4c0.1,0.2,0.2,0.3,0.4,0.5c0,0,0.2,0,0.2,0.1c0.1,0.1,0.2,0.2,0.2,0.4
		c-0.1,0.1-0.3,0.2-0.4,0.2C19.5,27.8,19.4,27.7,19.2,27.6z"/>
	<path class="st1" d="M17.6,15.7c0.1-0.2,0.2-0.4,0.2-0.6c-0.2-0.1-0.4-0.3-0.5-0.4c-0.2,0.1-0.4,0.3-0.6,0.4
		c0.1,0.2,0.2,0.4,0.2,0.6C17.1,15.7,17.4,15.7,17.6,15.7z"/>
	<path class="st1" d="M2.8,3C2.9,3.2,2.9,3.4,3,3.6c0.2,0,0.5,0,0.7,0c0-0.2,0.1-0.4,0.2-0.6C3.7,2.9,3.5,2.7,3.3,2.6
		C3.2,2.7,3,2.9,2.8,3z"/>
	<path class="st1" d="M15.7,8.6l0.1-0.1c-0.7-0.7-1.3-1.3-2-2l-0.1,0.1C14.3,7.3,15,7.9,15.7,8.6z"/>
	<path class="st1" d="M12.3,26.5c0,0.5,0,1,0,1.4c0.1,0,0.1,0,0.2,0c0-0.5,0-1,0-1.4c0.2,0,0.4-0.1,0.5-0.1v-0.1c-0.4,0-0.8,0-1.2,0
		v0.1C11.9,26.4,12.1,26.5,12.3,26.5z"/>
	<path class="st1" d="M22.6,18.8c-0.1,0-0.1,0-0.2-0.1c-0.3,0.8-0.7,1.5-1,2.3c0,0,0.1,0,0.1,0.1C21.9,20.3,22.3,19.6,22.6,18.8z"/>
	<path class="st1" d="M22.5,16.9l0.1-0.1c-0.6-0.6-1.2-1.3-1.8-1.9L20.7,15C21.3,15.7,21.9,16.3,22.5,16.9z"/>
	<path class="st1" d="M26,17.5c0-0.1,0-0.1,0-0.2c-0.6,0-1.1,0.1-1.7,0.1c0,0.1,0,0.1,0,0.2C24.9,17.6,25.4,17.6,26,17.5z"/>
	<path class="st1" d="M18.8,12.2c-0.1,0-0.1,0.1-0.2,0.1c0.2,0.4,0.4,0.8,0.7,1.2l0.1-0.1C19.2,13,19,12.6,18.8,12.2z"/>
	<path class="st1" d="M22.7,23.6l0.1-0.1c-0.3-0.3-0.5-0.6-0.8-0.8c-0.1,0.1-0.1,0.1-0.2,0.2C22.2,23.1,22.5,23.4,22.7,23.6z"/>
	<path class="st1" d="M18.1,15.2c0,0.1,0.1,0.1,0.1,0.2c0.3-0.2,0.6-0.5,0.9-0.7L19,14.6C18.7,14.8,18.4,15,18.1,15.2z"/>
	<path class="st1" d="M28,18.1l-0.1,0.1c0.2,0.3,0.4,0.5,0.6,0.8l0.1-0.1C28.4,18.6,28.2,18.4,28,18.1z"/>
	<path class="st2" d="M12.3,4.2C12.5,5,13,5.4,13.9,5.4c-0.8,0.5-0.9,1.1-0.6,1.9c-0.7-0.5-1.3-0.6-2,0c0.2-0.8,0.1-1.5-0.7-1.9
		C11.5,5.4,12.1,5.1,12.3,4.2z"/>
	<path class="st2" d="M15.9,14.3c-0.6,0.5-1,1.1-0.6,1.9c-0.7-0.6-1.4-0.5-2,0c0.3-0.8,0.2-1.4-0.6-1.9c0.8,0,1.4-0.3,1.6-1.2
		C14.5,14,14.9,14.5,15.9,14.3z"/>
	<path class="st2" d="M22.9,25.4c0.2-0.5,0.1-0.9-0.4-1.2c0.5,0,0.9-0.2,1-0.7c0.2,0.4,0.4,0.8,1,0.7c-0.4,0.4-0.6,0.7-0.4,1.2
		C23.7,25.1,23.3,25,22.9,25.4z"/>
	<path class="st2" d="M28.6,20.8c0.2-0.5,0.1-0.9-0.4-1.2c0.5,0,0.9-0.2,1-0.8c0.2,0.5,0.5,0.8,1,0.7c-0.4,0.3-0.6,0.7-0.4,1.2
		C29.4,20.5,29,20.4,28.6,20.8z"/>
	<path class="st2" d="M2.1,12c3.2,0.6,6.3,1.2,9.5,1.9c0,0.1,0,0.1,0,0.2c-3.2-0.6-6.3-1.2-9.5-1.8C2.1,12.1,2.1,12,2.1,12z"/>
	<path class="st2" d="M10.2,5.1c-2-0.5-3.9-1-5.9-1.4c0-0.1,0-0.1,0-0.2c2,0.5,3.9,1,5.9,1.4C10.3,4.9,10.2,5,10.2,5.1z"/>
	<path class="st2" d="M16.2,26.3c0.4,0.1,0.9-0.2,1.1,0.3c0.1,0.2-0.1,0.5-0.2,0.7H17c0.1,0.2,0.2,0.4,0.3,0.6L17.2,28
		c-0.1-0.1-0.2-0.3-0.3-0.4c-0.1-0.1-0.2-0.2-0.3-0.4c0,0-0.1,0-0.1,0.1c0,0.2,0,0.4-0.1,0.6h-0.1C16.1,27.4,16.2,26.9,16.2,26.3z
		 M16.4,27.1c0.3,0,0.7,0,0.6-0.4c0-0.1-0.3-0.2-0.6-0.4C16.4,26.7,16.4,26.9,16.4,27.1z"/>
	<path class="st2" d="M27.7,17.3c-0.1,0.2-0.1,0.4-0.2,0.6c-0.2,0-0.4,0-0.7,0c-0.1-0.2-0.1-0.4-0.2-0.6c0.2-0.1,0.4-0.3,0.5-0.4
		C27.3,17,27.5,17.1,27.7,17.3z"/>
	<path class="st2" d="M17.9,10.8c0.2,0.1,0.3,0.3,0.5,0.4c-0.1,0.2-0.1,0.4-0.2,0.6c-0.2,0-0.5,0-0.7,0c-0.1-0.2-0.1-0.4-0.2-0.6
		C17.5,11,17.7,10.9,17.9,10.8z"/>
	<path class="st2" d="M14.2,28c-0.1-0.2-0.2-0.3-0.3-0.5c-0.5-0.2-0.7,0.2-0.8,0.5L13,27.9c0.2-0.5,0.3-1,0.5-1.5
		c0-0.1,0.1-0.1,0.2-0.1c0.1,0,0.1,0.1,0.2,0.2c0.2,0.5,0.3,1,0.5,1.5C14.3,27.9,14.2,27.9,14.2,28z M13.9,27.3
		c-0.1-0.2-0.1-0.4-0.2-0.8c-0.1,0.3-0.2,0.5-0.2,0.8C13.6,27.3,13.7,27.3,13.9,27.3z"/>
	<path class="st2" d="M14.7,26.3c0,0.2,0,0.4,0,0.6s0,0.4,0,0.6c0.1,0.1,0.2,0.3,0.4,0.3c0.1,0,0.3-0.2,0.3-0.3c0.1-0.3,0-0.6,0-0.9
		c0-0.1,0-0.2,0-0.3c0.2,0.3,0.2,1.3,0,1.5c0,0.1-0.2,0.2-0.4,0.2c-0.2-0.1-0.4-0.3-0.4-0.4c-0.1-0.4,0-0.8,0-1.2
		C14.6,26.3,14.7,26.3,14.7,26.3z"/>
	<path class="st2" d="M23.7,17.5c-0.1,0.2-0.1,0.4-0.2,0.6c-0.2,0-0.5,0-0.7,0c-0.1-0.2-0.1-0.4-0.2-0.6c0.2-0.1,0.4-0.2,0.6-0.4
		C23.4,17.2,23.6,17.3,23.7,17.5z"/>
	<path class="st2" d="M16.1,9.2c0.2-0.1,0.3-0.3,0.5-0.4c0.2,0.1,0.4,0.3,0.5,0.4C17,9.4,17,9.6,16.9,9.8c-0.2,0-0.4,0-0.7,0
		C16.2,9.7,16.1,9.5,16.1,9.2z"/>
	<path class="st2" d="M17.9,26.3c0,0.3,0,0.6,0,0.9s0,0.5,0.4,0.6c0.3,0,0.4-0.3,0.4-0.5c0-0.3,0-0.6,0-1c0.2,0.3,0.2,1.3,0,1.5
		c-0.1,0.1-0.4,0.2-0.5,0.2c-0.2,0-0.4-0.2-0.4-0.4c-0.1-0.4,0-0.9,0-1.3C17.7,26.3,17.8,26.3,17.9,26.3z"/>
	<path class="st2" d="M20.4,14.1c-0.1,0.2-0.1,0.4-0.2,0.6c-0.2,0-0.4,0-0.6,0c-0.1-0.2-0.1-0.4-0.2-0.6c0.2-0.1,0.3-0.3,0.5-0.4
		C20,13.8,20.2,13.9,20.4,14.1z"/>
	<path class="st2" d="M20.7,21.8c0.2-0.1,0.4-0.3,0.6-0.4c0.1,0.1,0.3,0.3,0.5,0.4c-0.1,0.2-0.1,0.4-0.2,0.6c-0.2,0-0.4,0-0.6,0
		C20.8,22.2,20.7,21.9,20.7,21.8z"/>
	<path class="st2" d="M0.9,12.1c-0.2,0-0.5,0-0.7,0C0.1,12,0.1,11.7,0,11.5c0.2-0.1,0.4-0.3,0.5-0.4c0.2,0.1,0.4,0.3,0.6,0.4
		C1,11.7,0.9,11.9,0.9,12.1z"/>
	<path class="st2" d="M19.2,27.6c0.1,0.1,0.3,0.1,0.4,0.1s0.3-0.1,0.4-0.2c-0.1-0.1-0.1-0.3-0.2-0.4c0-0.1-0.1,0-0.2-0.1
		c-0.1-0.2-0.3-0.3-0.4-0.5c0-0.1,0.1-0.3,0.3-0.4c0.2,0,0.5,0,0.7,0c0,0.1,0,0.1,0,0.2c-0.1,0-0.3-0.1-0.4-0.1s-0.2,0.1-0.3,0.2
		c0,0.1,0.1,0.2,0.1,0.3C19.7,27,19.8,27,20,27c0.3,0.1,0.5,0.3,0.3,0.6c-0.1,0.2-0.4,0.3-0.6,0.3C19.6,27.9,19.4,27.8,19.2,27.6
		C19.2,27.7,19.2,27.7,19.2,27.6z"/>
	<path class="st2" d="M17.6,15.7c-0.2,0-0.4,0-0.6,0c-0.1-0.2-0.2-0.4-0.2-0.6c0.2-0.1,0.4-0.3,0.6-0.4c0.2,0.1,0.4,0.3,0.5,0.4
		C17.7,15.3,17.6,15.5,17.6,15.7z"/>
	<path class="st2" d="M2.8,3C3,2.9,3.2,2.7,3.3,2.6C3.5,2.7,3.7,2.9,3.9,3C3.8,3.2,3.7,3.4,3.7,3.6c-0.2,0-0.5,0-0.7,0
		C2.9,3.4,2.9,3.2,2.8,3z"/>
	<path class="st2" d="M15.7,8.6c-0.7-0.6-1.3-1.3-2-1.9l0.1-0.1c0.7,0.7,1.3,1.3,2,2C15.8,8.5,15.7,8.5,15.7,8.6z"/>
	<path class="st2" d="M12.3,26.5c-0.2,0-0.4-0.1-0.5-0.1v-0.1c0.4,0,0.8,0,1.2,0v0.1c-0.1,0-0.3,0.1-0.5,0.1c0,0.5,0,0.9,0,1.4
		c-0.1,0-0.1,0-0.2,0C12.3,27.5,12.3,27,12.3,26.5z"/>
	<path class="st2" d="M22.6,18.8c-0.3,0.8-0.7,1.5-1,2.3c0,0-0.1,0-0.1-0.1c0.3-0.8,0.7-1.5,1-2.3C22.5,18.8,22.5,18.8,22.6,18.8z"
		/>
	<path class="st2" d="M22.5,16.9c-0.6-0.6-1.2-1.3-1.8-1.9l0.1-0.1c0.6,0.6,1.2,1.3,1.8,1.9C22.5,16.8,22.5,16.9,22.5,16.9z"/>
	<path class="st2" d="M26,17.5c-0.6,0-1.1,0.1-1.7,0.1c0-0.1,0-0.1,0-0.2c0.6,0,1.1-0.1,1.7-0.1C26,17.4,26,17.5,26,17.5z"/>
	<path class="st2" d="M18.8,12.2c0.2,0.4,0.4,0.8,0.7,1.2l-0.1,0.1c-0.2-0.4-0.4-0.8-0.7-1.2C18.7,12.3,18.7,12.2,18.8,12.2z"/>
	<path class="st2" d="M22.7,23.6c-0.3-0.3-0.6-0.5-0.9-0.8c0.1-0.1,0.1-0.1,0.2-0.2c0.3,0.3,0.5,0.6,0.8,0.8
		C22.8,23.6,22.8,23.6,22.7,23.6z"/>
	<path class="st2" d="M18.1,15.2c0.3-0.2,0.6-0.4,0.9-0.6l0.1,0.1c-0.3,0.2-0.6,0.5-0.9,0.7C18.2,15.3,18.1,15.2,18.1,15.2z"/>
	<path class="st2" d="M28,18.1c0.2,0.3,0.4,0.5,0.6,0.8L28.5,19c-0.2-0.3-0.4-0.5-0.6-0.8C27.9,18.2,27.9,18.1,28,18.1z"/>
	<path class="st1" d="M16.4,27.1c0-0.2,0-0.4,0-0.7c0.3,0.2,0.6,0.2,0.6,0.4C17.1,27.1,16.8,27.1,16.4,27.1z"/>
	<path class="st1" d="M13.9,27.3c-0.2,0-0.3,0-0.5,0c0.1-0.2,0.1-0.5,0.2-0.8C13.7,26.8,13.8,27,13.9,27.3z"/>
</g>
<path class="st3" d="M4.6,17.8c0.5-0.2,0.8-0.5,1.1-0.5c0.3,0,0.6,0.3,1.1,0.5c-0.4-0.8-0.2-1.4,0.5-1.9c-0.9,0.1-1.3-0.4-1.6-1.2
	c-0.1,0.9-0.7,1.2-1.5,1.2C4.8,16.3,5.1,16.9,4.6,17.8z"/>
<path class="st3" d="M3.7,24.8c-0.4-0.8-0.1-1.4,0.6-1.9c-0.9,0.1-1.4-0.3-1.6-1.1c-0.2,0.9-0.7,1.2-1.6,1.1
	c0.3,0.3,0.7,0.6,0.8,0.9c0.1,0.3-0.1,0.7-0.1,1c0,0,0,0.1,0.1,0.1C2.4,24.2,3,24.3,3.7,24.8z"/>
<path class="st3" d="M22.3,7.9c-0.5-0.1-0.9-0.1-1.1-0.2c-0.3-0.2-0.3-0.6-0.6-1c-0.2,0.9-0.7,1.3-1.6,1.2C19.8,8.4,20,9,19.6,9.8
	c0.4-0.2,0.7-0.5,1.1-0.5c0.3,0,0.6,0.3,1.1,0.5C21.3,9,21.5,8.4,22.3,7.9z"/>
<path class="st3" d="M13.3,5.3c0.7-0.7,1.3-0.5,2,0c-0.3-0.8-0.1-1.4,0.6-1.9c-0.9,0.1-1.4-0.4-1.6-1.2c-0.2,0.4-0.3,0.8-0.6,1
	c-0.3,0.2-0.7,0.2-1.1,0.2C13.4,3.9,13.6,4.5,13.3,5.3z"/>
<path class="st3" d="M28,12.7c0.4-0.3,0.8-0.3,1.2,0c-0.2-0.5,0-0.8,0.5-1.2c-0.6,0-0.9-0.2-1.1-0.7c0,0.6-0.5,0.7-1,0.8
	C28,11.8,28.1,12.2,28,12.7z"/>
<path class="st3" d="M12.7,27.5c0.6-0.3,0.7-0.8,0.6-1.3c-0.1-0.2-0.4-0.5-0.6-0.5c-0.3-0.1-0.6,0.2-0.7,0.5
	c-0.2,0.7,0.5,1.6,1.2,1.6c0.1,0,0.1,0,0.3-0.1C13.1,27.6,13,27.5,12.7,27.5z"/>
<path class="st3" d="M11.8,27.3c-0.2-0.5-0.3-1-0.5-1.5c0,0-0.3,0-0.3,0c-0.2,0.5-0.4,1-0.5,1.6c0.4-0.1,0.3-0.6,0.7-0.6
	C11.5,26.8,11.4,27.3,11.8,27.3z"/>
<path class="st3" d="M19.7,25.6c0,0.2,0,0.4,0,0.5c0,0.2,0,0.5,0,0.7c0,0.1-0.2,0.3-0.3,0.3c-0.1,0-0.3-0.2-0.4-0.3
	c-0.1-0.3,0-0.6,0-0.9c0-0.1-0.1-0.2-0.1-0.2c-0.1,0-0.1,0-0.2,0c0,0.4,0,0.9,0.1,1.3c0.1,0.4,0.7,0.5,1,0.1
	C20,26.9,20,26,19.7,25.6z"/>
<path class="st3" d="M14.9,25.7c-0.1,0-0.2,0-0.3,0c0,0.4,0,0.8,0,1.1c0,0.1-0.2,0.3-0.4,0.3c-0.1,0-0.3-0.2-0.3-0.4
	c-0.1-0.2,0-0.5,0-0.7c0-0.1,0-0.3-0.1-0.4c-0.1,0-0.1,0-0.2,0c0,0.5,0,0.9,0.1,1.4c0,0.1,0.3,0.3,0.5,0.3c0.2,0,0.5-0.1,0.5-0.3
	C14.8,26.6,14.8,26.2,14.9,25.7z"/>
<path class="st3" d="M26.6,11.2c0-0.1,0-0.1,0.1-0.2c-1.3-0.6-2.7-1.3-4-1.9c0,0.1,0,0.1-0.1,0.2C23.9,9.9,25.2,10.6,26.6,11.2z"/>
<path class="st3" d="M16.8,26.7c0,0,0.1-0.1,0.1-0.1c0.2,0.3,0.4,0.5,0.7,0.8c0,0,0.1,0,0.1-0.1c-0.1-0.2-0.2-0.4-0.3-0.6
	c0.1,0,0.1,0,0.2,0c0-0.2,0.2-0.7,0.1-0.7c-0.3-0.2-0.6-0.2-1-0.3c0,0.7,0,1.2,0,1.7c0,0,0.1,0,0.1,0C16.8,27.1,16.8,26.9,16.8,26.7
	z"/>
<path class="st3" d="M6.1,12.9c0.2,0,0.5,0,0.7,0C6.9,12.7,7,12.5,7,12.3c-0.2-0.1-0.4-0.3-0.5-0.4c-0.2,0.1-0.4,0.3-0.5,0.4
	C6,12.5,6.1,12.7,6.1,12.9z"/>
<path class="st3" d="M21.2,25.9c0-0.1,0-0.1,0.1-0.2c-0.2,0-0.4-0.1-0.7-0.1c-0.1,0-0.3,0.3-0.3,0.4c0,0.2,0.2,0.3,0.4,0.5
	c0,0,0.2,0,0.2,0.1c0.1,0.1,0.2,0.2,0.2,0.4c-0.1,0.1-0.3,0.1-0.4,0.2c-0.1,0-0.3-0.1-0.5-0.2c0.3,0.4,0.6,0.4,0.8,0.3
	c0.1,0,0.4-0.3,0.3-0.4c-0.1-0.2-0.2-0.3-0.4-0.5c-0.1-0.1-0.4-0.3-0.4-0.4C20.7,25.7,20.9,25.8,21.2,25.9
	C21.2,26,21.2,25.9,21.2,25.9z"/>
<path class="st3" d="M5.6,9.1C5.4,8.9,5.2,8.8,5,8.7C4.9,8.8,4.7,8.9,4.5,9c0.1,0.2,0.1,0.5,0.2,0.6c0.2,0,0.5,0,0.7,0
	C5.4,9.5,5.5,9.3,5.6,9.1z"/>
<path class="st3" d="M7.5,3.7c0.1-0.2,0.1-0.4,0.2-0.6C7.5,2.9,7.3,2.8,7.1,2.7C7,2.8,6.8,3,6.6,3.1c0.1,0.2,0.1,0.4,0.2,0.6
	C7.1,3.7,7.3,3.7,7.5,3.7z"/>
<path class="st3" d="M11.3,5c0.1-0.2,0.2-0.5,0.2-0.6c-0.2-0.1-0.4-0.3-0.5-0.4c-0.2,0.1-0.4,0.3-0.5,0.4c0.1,0.2,0.2,0.4,0.2,0.6
	C11,4.9,11.2,5,11.3,5z"/>
<path class="st3" d="M9.3,2.7C9.1,2.8,8.9,3,8.8,3.1C8.8,3.3,8.9,3.5,9,3.7c0.2,0,0.5,0,0.7,0c0.1-0.2,0.1-0.4,0.2-0.6
	C9.6,2.9,9.5,2.8,9.3,2.7z"/>
<path class="st3" d="M15,27.4c0.3-0.2,0.5-0.5,0.7-0.6c0.5-0.2,0.2,0.5,0.7,0.5c-0.2-0.5-0.3-1-0.5-1.4c0-0.1-0.1-0.1-0.2-0.2
	c0,0-0.1,0-0.1,0.1C15.4,26.3,15.2,26.8,15,27.4z"/>
<path class="st3" d="M6.7,4.5c-0.1,0-0.1,0-0.2-0.1C6.2,5.6,5.7,6.9,5.3,8.1c0.1,0,0.1,0,0.2,0.1C5.9,6.9,6.3,5.7,6.7,4.5z"/>
<path class="st3" d="M3.6,22c0,0,0.1,0.1,0.1,0.1c0.5-1.2,1-2.3,1.4-3.5c-0.1,0-0.1,0-0.2-0.1C4.5,19.6,4,20.8,3.6,22z"/>
<path class="st3" d="M18.8,6.8c0,0,0.1-0.1,0.1-0.1C18,6,17,5.3,16.1,4.6c0,0-0.1,0.1-0.1,0.1C16.9,5.4,17.9,6.1,18.8,6.8z"/>
<path class="st3" d="M6,11.6c0.1,0,0.1-0.1,0.2-0.1c-0.2-0.5-0.5-1-0.7-1.5c0,0-0.1,0-0.1,0.1C5.5,10.6,5.7,11.1,6,11.6z"/>
<path class="st3" d="M18.1,27.3C18.1,27.3,18.2,27.3,18.1,27.3c0.1-0.5,0.1-1.1,0.1-1.6c0,0-0.1,0-0.1,0
	C18.1,26.2,18.1,26.8,18.1,27.3z"/>
<path class="st3" d="M6.5,13.5c-0.1,0-0.1,0-0.2,0c-0.1,0.4-0.1,0.8-0.2,1.2c0.1,0,0.1,0,0.2,0C6.4,14.3,6.5,13.9,6.5,13.5z"/>
<path d="M4.6,17.8c0.4-0.9,0.2-1.4-0.5-1.9c0.8,0,1.4-0.3,1.5-1.2c0.3,0.8,0.7,1.3,1.6,1.2c-0.7,0.5-0.9,1.1-0.5,1.9
	c-0.4-0.2-0.8-0.5-1.1-0.5C5.4,17.3,5.1,17.5,4.6,17.8z"/>
<path d="M3.7,24.8c-0.7-0.5-1.3-0.6-1.9,0.1c0,0,0-0.1-0.1-0.1c0.1-0.3,0.2-0.7,0.1-1c-0.1-0.3-0.4-0.5-0.8-0.9
	c0.9,0.1,1.4-0.2,1.6-1.1c0.3,0.8,0.7,1.3,1.6,1.1C3.6,23.4,3.3,24,3.7,24.8z"/>
<path d="M22.3,7.9c-0.8,0.5-1,1-0.6,1.9c-0.5-0.2-0.8-0.5-1.1-0.5c-0.3,0-0.6,0.3-1.1,0.5C20,9,19.8,8.4,19.1,7.9
	c0.8,0,1.4-0.3,1.6-1.2c0.2,0.4,0.3,0.8,0.6,1C21.4,7.9,21.8,7.8,22.3,7.9z"/>
<path d="M13.3,5.3c0.3-0.8,0.1-1.4-0.7-1.9c0.5-0.1,0.9-0.1,1.1-0.2c0.2-0.2,0.3-0.6,0.6-1c0.2,0.8,0.7,1.3,1.6,1.2
	c-0.7,0.5-0.9,1.1-0.6,1.9C14.6,4.8,14,4.7,13.3,5.3z"/>
<path d="M28,12.7c0.2-0.5,0.1-0.9-0.4-1.1c0.5-0.1,1-0.1,1-0.8c0.2,0.5,0.5,0.7,1.1,0.7c-0.5,0.3-0.7,0.7-0.5,1.2
	C28.8,12.4,28.4,12.3,28,12.7z"/>
<path d="M12.7,27.5c0.3,0.1,0.5,0.1,0.7,0.2c-0.1,0.1-0.2,0.1-0.3,0.1c-0.7,0-1.4-0.9-1.2-1.6c0.1-0.3,0.4-0.6,0.7-0.5
	c0.2,0.1,0.5,0.3,0.6,0.5C13.4,26.7,13.3,27.1,12.7,27.5z M12.1,26.5c0,0.5,0.2,0.7,0.5,0.7c0.4,0,0.5-0.4,0.5-0.7
	c0-0.4-0.2-0.7-0.5-0.6C12.2,25.9,12.1,26.2,12.1,26.5z"/>
<path d="M11.8,27.3c-0.4,0-0.2-0.6-0.7-0.5c-0.4,0-0.3,0.5-0.7,0.6c0.2-0.6,0.4-1.1,0.5-1.6c0,0,0.3,0,0.3,0
	C11.4,26.3,11.6,26.8,11.8,27.3z"/>
<path d="M19.7,25.6c0.2,0.4,0.2,1.3,0,1.6c-0.2,0.3-0.9,0.3-1-0.1c-0.1-0.4-0.1-0.9-0.1-1.3c0.1,0,0.1,0,0.2,0
	c0,0.1,0.1,0.2,0.1,0.2c0,0.3,0,0.6,0,0.9c0,0.1,0.2,0.3,0.4,0.3c0.1,0,0.3-0.2,0.3-0.3c0.1-0.2,0-0.5,0-0.7
	C19.7,26,19.7,25.8,19.7,25.6z"/>
<path d="M14.9,25.7c0,0.5,0,0.9-0.1,1.4c0,0.1-0.3,0.3-0.5,0.3c-0.2,0-0.5-0.1-0.5-0.3c-0.1-0.4-0.1-0.9-0.1-1.4c0.1,0,0.1,0,0.2,0
	c0,0.1,0.1,0.3,0.1,0.4c0,0.2,0,0.5,0,0.7c0,0.1,0.2,0.3,0.3,0.4c0.1,0,0.3-0.2,0.4-0.3c0-0.4,0-0.7,0-1.1
	C14.7,25.7,14.8,25.7,14.9,25.7z"/>
<path d="M26.6,11.2c-1.3-0.6-2.7-1.3-4-1.9c0-0.1,0-0.1,0.1-0.2c1.3,0.6,2.7,1.3,4,1.9C26.6,11.1,26.6,11.1,26.6,11.2z"/>
<path d="M16.8,26.7c0,0.2,0,0.4,0,0.6c0,0-0.1,0-0.1,0c0-0.5,0-1,0-1.7c0.3,0.1,0.7,0.1,1,0.3c0.1,0.1-0.1,0.5-0.1,0.7
	c-0.1,0-0.1,0-0.2,0c0.1,0.2,0.2,0.4,0.3,0.6c0,0-0.1,0-0.1,0.1c-0.2-0.3-0.4-0.5-0.7-0.8C16.9,26.6,16.9,26.7,16.8,26.7z
	 M16.9,26.5c0.2-0.1,0.4-0.2,0.6-0.3c0,0,0-0.2,0-0.3c-0.2-0.1-0.4-0.2-0.6-0.2C16.9,26.1,16.9,26.2,16.9,26.5z"/>
<path d="M6.1,12.9c-0.1-0.2-0.1-0.4-0.2-0.6c0.2-0.1,0.4-0.3,0.5-0.4C6.6,12,6.8,12.2,7,12.3c-0.1,0.2-0.1,0.4-0.2,0.6
	C6.6,12.9,6.4,12.9,6.1,12.9z"/>
<path d="M21.2,25.9C21.2,25.9,21.2,26,21.2,25.9c-0.3-0.1-0.5-0.2-0.7,0.1c0,0.1,0.3,0.3,0.4,0.4c0.1,0.2,0.3,0.3,0.4,0.5
	c0,0.1-0.2,0.3-0.3,0.4c-0.3,0.1-0.6,0.1-0.8-0.3c0.3,0.1,0.4,0.2,0.5,0.2c0.1,0,0.3-0.1,0.4-0.2c-0.1-0.1-0.1-0.3-0.2-0.4
	c0-0.1-0.2,0-0.2-0.1c-0.1-0.2-0.3-0.3-0.4-0.5c0-0.1,0.2-0.3,0.3-0.4c0.2,0,0.4,0,0.7,0.1C21.3,25.8,21.2,25.9,21.2,25.9z"/>
<path d="M5.6,9.1C5.5,9.3,5.4,9.5,5.4,9.7c-0.2,0-0.4,0-0.7,0c0-0.2-0.1-0.4-0.2-0.6C4.7,8.9,4.9,8.8,5,8.7C5.2,8.8,5.4,8.9,5.6,9.1
	z"/>
<path d="M7.5,3.7c-0.2,0-0.4,0-0.7,0C6.8,3.5,6.7,3.3,6.6,3.1C6.8,3,7,2.8,7.1,2.7c0.2,0.1,0.4,0.3,0.5,0.4C7.6,3.3,7.5,3.5,7.5,3.7
	z"/>
<path d="M11.3,5c-0.2,0-0.4,0-0.6,0c-0.1-0.2-0.1-0.4-0.2-0.6c0.1-0.1,0.3-0.2,0.5-0.4c0.2,0.1,0.3,0.3,0.5,0.4
	C11.5,4.5,11.4,4.7,11.3,5z"/>
<path d="M9.3,2.7c0.2,0.1,0.4,0.3,0.5,0.4C9.8,3.3,9.7,3.5,9.6,3.7c-0.2,0-0.4,0-0.7,0C8.9,3.5,8.8,3.3,8.8,3.1
	C8.9,3,9.1,2.8,9.3,2.7z"/>
<path d="M15,27.4c0.2-0.6,0.4-1.1,0.5-1.6c0,0,0.1-0.1,0.1-0.1c0.1,0.1,0.2,0.1,0.2,0.2c0.2,0.5,0.3,0.9,0.5,1.4
	c-0.4,0-0.2-0.7-0.7-0.5C15.5,26.9,15.3,27.1,15,27.4z M15.7,26C15.7,26,15.7,26,15.7,26c-0.1,0.2-0.2,0.5-0.3,0.8
	c0.2,0,0.3-0.1,0.5-0.1C15.9,26.4,15.8,26.2,15.7,26z"/>
<path d="M6.7,4.5C6.3,5.7,5.9,6.9,5.5,8.2c-0.1,0-0.1,0-0.2-0.1c0.4-1.2,0.8-2.5,1.2-3.7C6.6,4.4,6.7,4.4,6.7,4.5z"/>
<path d="M3.6,22c0.5-1.2,1-2.3,1.4-3.5c0.1,0,0.1,0,0.2,0.1c-0.5,1.2-1,2.3-1.4,3.5C3.7,22,3.6,22,3.6,22z"/>
<path d="M18.8,6.8c-0.9-0.7-1.9-1.4-2.8-2.1c0,0,0.1-0.1,0.1-0.1C17,5.3,18,6,18.9,6.7C18.9,6.7,18.8,6.8,18.8,6.8z"/>
<path d="M6,11.6c-0.2-0.5-0.5-1-0.7-1.5c0,0,0.1,0,0.1-0.1c0.2,0.5,0.5,1,0.7,1.5C6.1,11.5,6,11.6,6,11.6z"/>
<path d="M18.1,27.3c0-0.5,0-1.1,0-1.6c0,0,0.1,0,0.1,0C18.2,26.2,18.2,26.8,18.1,27.3C18.2,27.3,18.1,27.3,18.1,27.3z"/>
<path d="M6.5,13.5c-0.1,0.4-0.1,0.8-0.2,1.2c-0.1,0-0.1,0-0.2,0c0.1-0.4,0.1-0.8,0.2-1.2C6.4,13.5,6.5,13.5,6.5,13.5z"/>
<path class="st3" d="M12.1,26.5c0-0.3,0.1-0.6,0.5-0.6c0.3,0,0.5,0.2,0.5,0.6c0,0.3-0.1,0.6-0.5,0.7C12.3,27.2,12.1,26.9,12.1,26.5z
	"/>
<path class="st3" d="M16.9,26.5c0-0.3,0-0.5,0-0.8c0.2,0.1,0.4,0.2,0.6,0.2c0,0,0,0.2,0,0.3C17.3,26.4,17.1,26.4,16.9,26.5z"/>
<path class="st3" d="M15.7,26c0.1,0.2,0.1,0.4,0.2,0.7c-0.1,0-0.3,0-0.5,0.1C15.5,26.4,15.6,26.2,15.7,26C15.7,26,15.7,26,15.7,26z"
	/>
</svg>
