<?xml version="1.0" encoding="utf-8"?>
<!-- Generator: Adobe Illustrator 25.0.0, SVG Export Plug-In . SVG Version: 6.00 Build 0)  -->
<svg version="1.1" id="Layer_1" xmlns="http://www.w3.org/2000/svg" xmlns:xlink="http://www.w3.org/1999/xlink" x="0px" y="0px"
	 width="105.5px" height="131px" viewBox="0 0 105.5 131" enable-background="new 0 0 105.5 131" xml:space="preserve">
<g>
	<path fill="#E2793D" d="M108,50.8c-2.1,2.3-4.5,4.2-6.9,6.1c-0.6,0.5-1.3,0.9-1.8,1.6c-1.5,1.6-3.4,2.5-5.2,3.8
		c-1.2,0.9-2.5,1.7-3.9,2.3c-1.4-0.5-1.4-0.5-2.1,1c-0.1,0.2-0.2,0.3-0.3,0.4c-0.1,0.1-0.2,0.1-0.3,0.2c-0.8,0.2-1.2-0.4-1.7-0.8
		c-0.2-0.2-0.5-0.5-0.7-0.7c-0.2-0.1-0.4-0.3-0.6,0c-0.2,0.2-0.1,0.4,0,0.6c0.3,0.6,1.2,0.9,1.3,1.7c-0.1,0.7-0.8,0.8-1.2,1.2
		c-0.1,0.1-0.2,0.1-0.3,0.2c-0.6,0.4-1.3,0.7-2,1c-2.3,1.3-4.7,2.5-7.1,3.6c-4.2,2.1-8.5,3.9-12.9,5.5c-0.4,0.1-0.9,0.3-1.3,0.5
		c-0.1,0-0.2,0.1-0.3,0.1c-0.4,0.1-0.9,0.3-1.3,0.4c-0.1,0.1-0.2,0.1-0.3,0.1c-1.8,0.7-3.6,1.3-5.4,2c-5.8,1.9-11.6,3.4-17.5,4.9
		c-3.7,0.7-7.3,1.4-11,2c-0.9,0.1-1.8,0.2-2.8,0.2c-1.4-0.5-2.8,0.1-4.1,0.1C12.6,88.9,7,89,1.5,88c-4.8-0.8-9.2-2.5-12.7-5.9
		c-0.5-0.4-0.9-0.9-1.1-1.5c-2.9-5.1-2-9.9,0.7-14.7c2.9-5.3,7.2-9.5,11.8-13.3C0.4,52.3,0.7,52,1,51.8c1.5-0.9,2.6-2.1,2.3-4
		C4,48.3,3.8,49,3.8,49.7c0.1,2.3,0,4.7,0.5,7c0,0.4,0.1,0.8-0.1,1.3c-0.7,1-1.8,1.7-2.6,2.5c-2.2,2.1-4.3,4.3-6.1,6.7
		c-0.2,0.3-0.4,0.6-0.6,1c-0.7,1.1-1.2,2.2-1.7,3.4c-1.1,3.3-0.1,5.9,3,7.6c1.8,1,3.8,1.6,5.8,1.9c4.4,0.8,8.8,0.9,13.3,0.5
		c2.7,0.2,5.3-0.5,7.9-0.5c10.3-1.5,20.4-4,30.3-7.4C61,71,68.2,68,75.4,64.5c4.7-2.3,9.2-4.9,13.6-7.6c2.8-1.7,5.4-3.7,8.1-5.7
		c1.1-0.8,2.2-1.6,2.9-2.8c0.1-0.1,0.2-0.1,0.3-0.2c0.9-0.4,1.6-1.1,2.3-1.8c2.8-2.6,5.3-5.4,7.1-8.8c0.7-1.4,1.1-2.8,1.1-4.4
		c0-1.8-0.8-3.1-2.2-4.1c-2.6-1.9-5.7-2.7-8.8-3.1c-0.7-0.1-1.4-0.2-2.1-0.5c-1-0.6-2.1-0.3-3.1-0.3c-1.1,0-1.9-0.4-2.5-1.3
		c-0.8-1.2-1.5-2.4-2.4-3.4c-0.4-0.5-0.7-1.1-0.5-1.8c6.7-0.4,13.3,0,19.6,2.6c8.2,3.3,11,10.4,7.3,18.5c-1.7,3.8-4.3,7.1-7.3,10
		C108.4,50.1,108.2,50.4,108,50.8z"/>
	<path fill="#E09F5E" d="M82,12.2c0.6,0.2,1,0.7,1.5,1.1c0.2,1,0.7,1.8,1.3,2.7c2.7,4.1,4.7,8.5,5.8,13.3c0.1,0.6,0.5,1.1,0.6,1.6
		c-0.4,0.7-1.1,0.4-1.6,0.7c-4.1,1-8.3,1.9-12.5,2.5C74,34.6,71,34,68,33.3c-0.1,0-0.2-0.1-0.4-0.1c-0.7-0.2-1.5-0.6-2.2-0.4
		c-0.8,0.2-0.7,1.2-1,1.8c-1.5,2.7-4.5,4.1-7.4,3.6c-3.1-0.6-5.3-2.9-5.7-6c-0.2-1.5-0.2-1.5-1.7-1.2c-1.2,0.2-2.4,0.5-3.5,1.1
		c-3.3,1.8-6.7,1.8-10.2,0.5C31.5,31,27,30,22.3,30.7c-0.6,0.1-1.4,0.1-1.2-1c0.9-1.4,1.6-2.9,3.2-3.8c9.6-2.2,19.3-4.1,28.9-6.2
		c5.1-1.1,10.1-2.1,15.2-3.2c1.7-0.4,1.7-0.3,2.2,1.3c0.6,1.9,2.3,3.2,4,3.1c2-0.1,3.6-1.5,4.1-3.5c0.1-0.6,0-1.2-0.1-1.8
		c-0.2-0.9,0.2-1.4,1-1.6c0.2,0,0.3-0.1,0.5-0.1C81.3,14,82,13.5,82,12.2z"/>
	<path fill="#FEEABB" d="M21.3,29.6c-0.2,0.6-0.1,0.9,0.6,0.7c4.8-0.9,9.3,0.1,13.8,1.8c3.5,1.3,6.8,1.4,10.2-0.4
		c1.4-0.8,3-1,4.5-1.3c0.8-0.2,1.2,0,1.2,1c0.1,3.6,2.5,6.3,5.9,6.6c3.3,0.3,6.2-1.8,7-5.1c0.2-0.9,0.7-0.6,1.2-0.5
		c3.4,0.9,6.9,1.8,10.5,1.5c3-0.3,6-1.1,9-1.7c1.5-0.3,2.9-0.6,4.3-0.9c1-0.4,1.6,0.1,1.8,1c0.3,1.4,0.8,2.9,0.2,4.3
		C91.1,37,90.5,37,90,37c-4.8,0.1-9.6,0.9-14.4,1.8c-9.6,1.7-19.2,4-28.8,6c-5.2,1.1-10.4,2.1-15.6,3.3c-0.5,0.1-0.9,0.2-1.4,0.3
		c-0.7,0.1-1.1-0.2-1.3-0.9c-0.1-0.4-0.2-0.7-0.3-1.1c-0.8-2.3-2.9-3.5-5.3-3.1c-2.2,0.4-3.8,2.3-3.7,4.6c0,2.5,0,2.7-2.5,2.8
		c-4,0.2-8.1,0.4-12-0.5c-0.4-0.1-0.8-0.2-1.1-0.5c-0.1-0.6-0.1-1.3-0.2-1.9c0.2-4.5,1-8.8,2.4-13.1c0.1-0.4,0.4-0.8,0.5-1.3
		c1.6-0.5,3.2-1.2,5-0.9c0.5,0.4,0.2,0.8,0.1,1.2c-0.6,1.6-1.4,3.2-1.8,4.9c-0.4,1.6,0.5,3.2,1.9,3.7c1.6,0.5,3.2-0.1,4-1.6
		s0.8-1.5,2.5-1c1.4,0.4,3.3-0.3,3.7-1.5c0.6-1.5,0-3.3-1.4-4.1c-1.5-0.9-1.6-1.2-0.7-2.7C20.2,30.8,20.2,29.6,21.3,29.6z"/>
	<path fill="#DDA262" d="M46.3,98.1c-3.4-0.3-6.6-1.1-9.8-2.1c-0.4-0.1-0.9-0.2-1.3-0.4c0-0.1,0-0.1-0.1-0.2c-0.4-0.5,0-0.8,0.3-1.1
		c2.8-2.6,5.7-5.2,8.9-7.3c0.1,0,0.3-0.1,0.4-0.1c5.9-0.1,11.6-0.9,17.1-3c2.8-1,5.5-2.3,8-3.9c0.6-0.4,1.2-0.8,1.9-1.1
		c0.1,0,0.2-0.1,0.4-0.1c0.5-0.1,1.1-0.2,1.3,0.3c0.2,0.5-0.3,0.8-0.7,1c-0.9,0.6-1.1,1.6-0.7,2.8c0.4,1.1,1.5,2,2.5,1.8
		c1-0.1,1.9-0.6,2.5-1.6c0.1-0.2,0.2-0.4,0-0.6c-0.3-0.2-0.5,0-0.6,0.2c-0.3,0.3-0.6,0.7-1,0.9c-0.3,0.2-0.6,0.3-1,0s-0.3-0.7-0.1-1
		c0.8-1.2,1.7-2.2,3-2.8c0.8,0.3,1.6,0.3,2.5,0.4c2,0.5,3.8,1.7,5.6,2.7c0.3,0.2,0.5,0.4,0.7,0.7c0.1,0.4,0,0.7-0.2,1
		c-2.6,2.8-5.7,5-8.9,6.9c-3.6,2.2-7.4,3.9-11.5,5c-1.6,0-1.6,0-1.7-1.7c0-0.2,0-0.4-0.2-0.7c-0.5,0.8-0.9,1.6-1.4,2.3
		c-0.4,0.4-0.7,0.9-1.3,0.4c-0.2-1,0.7-1.5,1-2.3s1.1-1.6,0.5-2.5c-0.7-0.9-1.8-1-2.9-0.9c-3,0.4-4.6,2.7-3.9,5.7
		c0.1,0.5,0.5,1.1-0.4,1.2c-0.6,0.1-1.2-0.1-1.1-1.1c-0.7,0.9-1.5,1.2-2.6,1.2C49.5,98.2,47.9,98,46.3,98.1z"/>
	<path fill="#FEEABB" d="M65.4,3.5C69.1,4.4,72.6,6,75.9,8c0.3,0.9-0.4,1.2-0.9,1.6c-2.8,2.3-5.9,3.8-9.4,4.5
		C56.2,16,46.8,18,37.4,20c-2.4,0.5-4.7,1-7.1,1.5c-0.4,0.1-0.8,0.2-1.2,0c-0.5-0.4-0.2-0.7,0.2-1c1.8-1.3,3.6-2.7,5.6-3.7
		c1.2-0.6,2-1.5,2.6-2.7c1.1-0.8,2.4-0.7,3.6-0.9c0.7-0.2,1.1-0.5,1.2-1.1c0.2-0.1,0.4-0.1,0.6,0c3,1.4,5.9,0.1,8.8-0.4
		c1.3-0.2,1.4-1.6,2-2.6c3.7-1.1,6.9-3.2,10.3-5C64.4,3.8,64.8,3.5,65.4,3.5z"/>
	<path fill="#F5B879" d="M29,21.4c4.3-0.9,8.7-1.9,13-2.8c8.1-1.7,16.2-3.4,24.3-5.1c3.3-0.7,6.2-2.3,8.8-4.4
		c0.4-0.3,0.8-0.6,0.9-1.2c2.2,1.2,4.3,2.5,6.1,4.2c0.5,1.7,0.5,1.7-1.4,2.1c-0.3,0.1-0.6,0.2-0.9,0.2c-0.9,0-1,0.4-0.8,1.2
		c0.6,2.8-1,5-4,5.6c-2.2,0.4-4.5-1.4-4.9-4c-0.1-0.7-0.3-0.8-1-0.6c-8.7,1.9-17.3,3.7-26,5.5c-5.6,1.2-11.2,2.3-16.8,3.5
		c-0.7,0.1-1.3,0.5-2.1,0.5c-0.2-0.3,0-0.6,0.2-0.8c1.3-1.4,2.5-2.7,4-3.9C28.5,21.4,28.7,21.3,29,21.4z"/>
	<path fill="#F6B879" d="M42.3,12.2c0.2,0.3,0.4,0.5,0.7,0.8c-1.7,0.8-3.5,0.8-5.3,1.2c-0.3-0.2-0.3-0.5-0.4-0.8
		c-0.5-2.7-2.7-3.8-5.1-2.5c-1.7,0.9-3.4,1.9-4.9,3.1c-0.7,0.5-1.3,1-2.1,1.4c-0.2,0.1-0.3,0.1-0.5,0.1c-0.8,0-1.5,0-2.1-0.5
		c-0.4-0.4-0.5-0.9,0.1-1c1.7-0.4,1.2-1.7,1.2-2.7c0-0.7,0.2-1,0.7-1.3C25,9.8,25.4,9.3,26,9.7c0.4,0.3,0.2-0.1,0.3-0.3
		c0.1-0.6,0.6-1,1.1-1.1c0.9-0.1,1.4-0.7,1.8-1.4c0.1-0.2,0.3-0.4,0.5-0.6C30.4,6,31.2,5.8,32,5.6c3.8-1.5,7.7-2.8,11.8-3.5
		C51.1,1,58.3,1.3,65.4,3.5C62.1,5.8,58.6,7.6,55,9.1c-0.3,0.1-0.7,0.5-1,0.1c-0.4-0.3-0.4-0.7-0.5-1.1c-0.5-1.7-1.9-2.6-3.7-2.4
		s-3.6,0.5-5.4,0.9C42,7,41.1,8.9,42,11.1C42.1,11.5,42.4,11.8,42.3,12.2z"/>
	<path fill="#F1D6A2" d="M85.6,83.6c-2-1.2-3.9-2.4-6.1-3.1c-0.8-0.2-1.6-0.4-2.4-0.6C76,80.1,75,79.5,74,79.2
		c-0.7-0.2-1.3-0.3-1.9-0.3c-0.2,0-0.4-0.1-0.5-0.3c2.9-1.5,5-4,7.4-5.9c0.1-0.1,0.2-0.1,0.4-0.1c2.3,0.3,4.6,1,6.8,1.8
		c2,0.8,4,1.4,5.6,2.9c-0.7,1.5-2,2.6-2.9,4.1c-0.8,0.9-1.7,1.7-2.5,2.6C86,84.1,85.8,83.9,85.6,83.6z"/>
	<path fill="#F1D6A1" d="M44.3,87.2c-2.8,2.2-5.6,4.3-8.2,6.8c-0.4,0.4-1,0.7-1,1.4c-3.8-1.1-7.2-3.1-10.6-5.3
		c-0.8-0.5-1.5-1.1-2.3-1.6c1.4-0.7,2.9-0.5,4.4-0.8c3.1-0.6,6.3-1.1,9.4-1.7c2.3,0.2,4.6,0.6,6.9,0.8C43.5,86.7,44,86.8,44.3,87.2z
		"/>
	<path fill="#DDA262" d="M91.7,77.2c-1.9-0.8-3.8-1.7-5.7-2.5c-0.4-0.4-0.3-0.9-0.3-1.4c0-1.5-0.7-2.3-2.1-2.7
		c-0.6-0.2-1.3-0.2-1.7-0.7c-0.2-0.4,0.2-0.7,0.3-1c0.7-0.3,1.4-0.7,2-1c0.5,1.7,2,2.5,3.2,3.7c0.1,0.1,0.4,0.3,0.6,0.1
		c0.2-0.3,0.1-0.6-0.1-0.8c-1-0.9-1.9-2-3-2.6c-0.2-0.1-0.4-0.2-0.5-0.3c0.2-0.6,1.1-0.4,1.3-1c0.1-0.1,0.3-0.2,0.5-0.1
		c0.9,0.9,1.9,1.8,2.8,2.8c0.2,0.2,0.5,0.5,0.9,0.3c0.5-0.3,0.1-0.6,0-0.9c-0.4-1.1-0.1-1.2,1.6-1.2c1.6,0.5,3.4,0.7,4.6,2.1
		C94.8,72.5,93.5,75,91.7,77.2z"/>
	<path fill="#F1D6A2" d="M95.9,69.9c-1.5-0.7-3-1.5-4.7-1.8c-1.1-0.4-2.4-0.3-3.5-0.8c-0.4-0.2-1-0.3-1.2-0.8
		c0.1-0.6,0.8-0.4,1.1-0.7l0,0c0.7-0.7,1.5-1.4,2.6-1.5c3.1-1.9,6.1-3.9,9.2-5.8c-0.2,3-1.2,5.9-2.2,8.7
		C96.8,68,96.3,68.9,95.9,69.9z"/>
	<path fill="#C68B4B" d="M91.2,30.9c-0.6-0.1-0.7-0.4-0.8-0.9c-1.2-5.6-3.7-10.7-7-15.4c-0.4-0.6,0.1-0.8,0.1-1.2
		c2.1,1.6,3.7,3.7,5.6,5.5c0.8,1.7,2.2,3,3.1,4.6c0.5,0.9,1.2,1.6,2.4,1.5c0.8-0.1,1.5,0,2.3,0c0.4,0,0.8-0.1,0.9,0.5
		c-1,0.8-2.2,0.1-3.4,0.4c0.2,0.9,0.8,1.6,1.1,2.4c0.2,0.5,0.6,1,0.3,1.7C94.4,30.8,92.9,31.3,91.2,30.9z"/>
	<path fill="#1F303A" d="M23.4,2.2"/>
	<path fill="#1F303A" d="M22.2,3.3"/>
	<path fill="#E0A15F" d="M7.6,29.9c0.1,0,0.1,0,0.2-0.1c0.3-0.2,0.5-0.5,0.9-0.6c1.1-0.2,2.2-0.5,3.4-0.7c0.5-0.1,1.1-0.3,1.4,0.5
		c0,1.1-0.9,1.8-1.2,2.8c-0.2,0.3-0.3,0.6-0.7,0.8c-0.1,0-0.1,0-0.2,0c-1.2,0.2-2.4,0.5-3.6,0.7c-0.5,0.1-0.9,0.4-1.4,0.1
		C6.5,32.2,7.3,31.1,7.6,29.9z"/>
	<path fill="#F4BD84" d="M18,15.3c0.4-0.4,0.7-0.8,1.1-1.2c0.1-0.1,0.1-0.1,0.2-0.2c0.2-0.6,0.7-0.9,1.1-1.3
		c0.8-0.6,1.5-1.2,2.3-1.8c0.5-0.3,1-0.7,1.6-0.7c0.1,0,0.2,0,0.3,0.1c-0.3,0.4-0.7,0.7-0.3,1.4c0.2,0.3,0.2,0.9-0.2,1.1
		c-0.5,0.3-0.2,0.4,0.1,0.6c0.2,0.1,0.4,0.3,0.3,0.6s-0.3,0.2-0.6,0.2c-0.4,0-0.9,0.2-1.4,0.4c0.5,1,1.4,0.8,2.2,0.9
		c0,0.4-0.3,0.5-0.6,0.5c-1.7,0.2-3.4,0.2-5.1,0C18.6,15.8,18.2,15.6,18,15.3z"/>
	<path fill="#EDBB89" d="M24.6,9.7c0.8-0.3,1.4-0.8,2.1-1.2c0.2-0.1,0.3-0.2,0.5-0.3C27.5,8,27.8,7.9,28,7.6
		c0.4-0.4,0.8-0.9,1.5-0.6c-0.3,0.9-0.8,1.6-1.9,1.7c-0.6,0-1.2,0.3-0.8,1.1c0.1,0.4-0.2,0.6-0.5,0.7C26,10.6,26,10.3,25.9,10
		c-0.4-0.8-0.7,0.3-1.2,0.1c-0.1,0-0.2,0-0.4,0c0-0.1,0-0.1,0-0.2C24.4,9.8,24.5,9.8,24.6,9.7z"/>
	<path fill="#E3B586" d="M9.4,26.3c0.3-0.4,0.6-0.8,0.7-1.3c0.4-0.5,0.8-1,1-1.6c0.3-0.4,0.7-0.8,1-1.3c0.3,0,0.5,0,0.6,0.3
		c-0.2,1-2.7,4.4-3.6,4.9c-0.1,0-0.1-0.1-0.2-0.1C9.2,26.9,9.3,26.6,9.4,26.3z"/>
	<path fill="#E3B586" d="M8.6,29.6c-0.3,0-0.4,0.6-0.8,0.3C8,29.4,8.1,29,8.3,28.6c0.3-0.4,0.5-0.9,0.8-1.3l0.1,0.1
		C9.8,28.3,9.1,28.9,8.6,29.6z"/>
	<path fill="#392010" d="M-12.3,80.6c0.4,0.5,0.7,1,1.1,1.5C-12.1,81.9-12.4,81.4-12.3,80.6z"/>
	<path fill="#BF7956" d="M108,50.8c-0.1-0.6,0.2-0.9,0.8-0.8C108.6,50.3,108.4,50.6,108,50.8z"/>
	<path fill="#E0A970" d="M46.3,98.1c1.6-0.4,3.2-0.1,4.8-0.2c1.5-0.1,2.1-0.5,2.5-2c0.3,0.5,0.5,0.9,0.5,1.4c0,0.4,0,0.4,0.8,0.4
		c-0.8-2.3-0.4-4.4,1.2-5.8c1.4-1.3,4.3-1.5,5.8-0.5c0.8,0.5,0.6,1.3,0.4,2c-0.4,1.2-1.3,2.2-1.9,3.4c0.1,0.2,0.2,0.4,0.1,0.5
		c-0.5,0.4-1.2,0.1-1.6,0.6c-0.2,0.1-0.5,0.2-0.7,0.2c-0.5,0-1,0-1.5,0.2c-0.4,0.1-0.9,0.1-1.3,0c-2,0-3.9,0-5.9,0
		c-0.6-0.2-1.2,0.1-1.8-0.2C47.3,98.1,46.8,98.1,46.3,98.1z"/>
	<path fill="#DDA86F" d="M63.4,97.2c-0.7,0.1-1.3,0.2-2,0.2c-0.3,0.1-0.5,0.2-0.8,0c0-0.2,0-0.3,0-0.5c1.2-0.3,1.5-1.5,2-2.4
		c0.2-0.4,0.4-1,0.8-1c0.6,0.1,0.4,0.7,0.4,1.1c0,1-0.1,2.1,1.4,1.9C64.6,96.8,63.9,96.7,63.4,97.2z"/>
	<path fill="#202528" d="M55.5,98.4c0.4-0.1,0.9-0.2,1.3-0.2c0.5-0.3,1.1,0.1,1.6-0.2c0.2,0,0.5,0,0.7-0.1c0.1-0.1,0.2-0.1,0.3,0.1"
		/>
	<path fill="#BD9B75" d="M59.3,97.9c-0.1,0-0.2,0-0.3-0.1c0.4-0.4,1-0.5,1.5-0.5c0.3,0,0.5,0,0.8,0c-0.5,0.4-1.1,0.1-1.6,0.5
		C59.6,97.9,59.5,97.9,59.3,97.9z"/>
	<path fill="#DDA262" d="M47.8,98.2c0.6,0,1.3-0.2,1.8,0.2C49,98.4,48.4,98.4,47.8,98.2z"/>
	<path fill="#C7AB80" d="M85.6,83.6c0.3,0.1,0.5,0.2,0.8,0.2c-0.2,0.3-0.5,0.6-0.8,0.7C85.6,84.3,85.6,84,85.6,83.6z"/>
	<path fill="#FEEABB" d="M89.1,57.1c-3.6,2.5-7.4,4.5-11.2,6.5c-0.7,0.4-1.5,0.8-2.3,1.1c-1.2,0.4-2.5,0.4-3.8,0.4
		c-6.4-0.1-12.6,1.1-18.7,2.8c-1.8,0.5-3.5,1-5.3,1.5s-1.9,0.5-2.7-1.2s-2.2-2.6-4-2.7s-3.3,0.7-4.2,2.3c-0.8,1.4-0.8,2.8-0.2,4.3
		s0.4,1.7-1,2.3c-2.1,0.8-4.3,1.4-6.5,1.8c-3.3,0.7-6.6,1.6-10,2.1c-0.8,0.1-1.5-0.3-2.1-0.8c-1.1-0.9-2.4-1.8-3.4-2.9
		c-0.3-0.4-0.8-0.7-0.8-1.3c0-0.1,0-0.3,0.1-0.4c0.3-0.4,0.7-0.7,1.1-1.1c3.2-2.4,6.8-4.2,10.3-6c7.5-3.7,15.2-6.9,23.3-9.2
		c5.7-1.7,11.5-2.7,17.2-3.9c1.3-0.3,1.6-0.1,1.9,1.2c0.3,0.9,0.6,1.8,1.3,2.4c1.4,1.2,3.3,1.5,5,0.7c1.6-0.8,2.5-2.4,2.3-4.3
		c-0.2-1.6-0.4-2.1,2-2.6c3.2-0.6,6.5-1,9.7-1.1c1.2,0.1,2.3-0.1,3.5,0.1c0.1,0.1,0.3,0.1,0.3,0.3c0.1,0.2,0.2,0.5,0.2,0.7
		C90.8,52.6,90.5,55,89.1,57.1z"/>
	<path fill="#F6B879" d="M3.5,49.7c3.3,0.5,6.6,1,10,0.8c1.5-0.1,3-0.1,4.6-0.3c0.8-0.1,1-0.4,0.8-1.2c-0.7-3.7,1.6-6.4,5.4-6.3
		c2.2,0.1,4.1,1.7,4.6,4.2c0.2,1,0.4,1.2,1.5,1c5.4-1.2,10.7-2.4,16.1-3.5c6.8-1.4,13.6-2.8,20.4-4.2c3.9-0.9,7.8-1.6,11.7-2.3
		c4.3-0.7,8.6-1.3,13-1.3c0.2-0.1,0.3,0,0.4,0.1c0.5,1.4,0.3,2.8,0.2,4.2c0,0.5-0.5,0.8-1,0.8c-0.5,0.1-1.1,0-1.6,0.1
		c-6.1-0.2-11.8,1.5-17.7,2.8c-8.7,1.8-17.4,3.6-26.1,5.5c-9.9,2.2-19.9,4.1-29.9,6.4c-3.3,0.8-6.7,1-10.1,0.9
		c-0.7,0-1.3-0.1-1.7-0.7C3.4,54.5,3.4,52.1,3.5,49.7z"/>
	<path fill="#E0A05E" d="M4,56.9c2.9,0.4,5.8,0.5,8.7-0.1c6.5-1.3,13.1-2.7,19.6-4.1c7.2-1.5,14.3-3.2,21.5-4.7
		c7-1.4,13.9-3,20.8-4.4c3.5-0.7,7-1.7,10.6-2c1.4-0.1,2.8-0.1,4.2-0.1c0.4,0.2,0.8,0.1,1.2,0.1c0.7,0.1,0.7,0.1,0.5,1.1
		c0.5-0.2-0.1-1.3,0.9-1c0.4,1.1,0.1,2.1,0,3.2c-0.1,0.1-0.2,0.2-0.3,0.3c-0.3,0.2-0.7,0.3-1.1,0.2c-6.3-0.3-12.4,1.3-18.5,2.5
		c-7.5,1.5-14.9,3.1-22.3,4.7c-7.4,1.6-14.8,3-22.2,4.7c-5.9,1.4-11.2,4.1-16.3,7.3c-0.6,0.4-1.3,0.8-1.9,1.2c-0.9,0.5-1,1.1-0.4,2
		c1,1.4,2.1,2.7,3.2,4c0.3,0.3,0.7,0.7,0.7,1.2c-0.3,1.2-1.3,1.7-2.3,2.3c-0.3,0-0.5-0.2-0.6-0.4c-1.4-2.3-2.7-4.6-3.4-7.2
		C7,67,6.9,66.2,6.2,65.4c-0.5-0.7-0.9-1.5-1.4-2.2c-0.6-1.6-1.3-3.2-0.9-5C4,57.7,4,57.3,4,56.9z"/>
	<path fill="#F6B879" d="M19,78c2.6-0.3,5.1-1,7.6-1.6c3.1-0.7,6.3-1.4,9.3-2.5c0.8-0.3,1-0.5,0.6-1.3c-1.4-2.6-0.4-5.8,2.2-7
		c2.5-1.2,5.8-0.3,6.8,2.6c0.5,1.3,1.1,1.2,2.1,0.9c5-1.6,10.1-2.9,15.3-3.8c4.2-0.7,8.4-0.8,12.7-0.6
		c-12.4,6.2-25.4,10.9-38.8,14.1c-4.4,1.1-8.9,2-13.5,2.4c-1.9-0.4-3.4-1.5-4.7-2.9C18.7,78.2,18.9,78.1,19,78z"/>
	<path fill="#FDEABB" d="M78.9,72.9c-1.8,2-3.9,3.7-6,5.4c-0.4,0.3-0.9,0.2-1.4,0.2c-0.3,0.4-0.8,0.4-1.3,0.4
		c-2.6-0.1-5.2,0.1-7.8,0.5c-0.6-0.1-1.2,0-1.8,0.3c-0.1,0-0.3,0.1-0.4,0.1c-0.5-0.1-1-0.1-1-0.8l0,0c0.4-0.2,0.9-0.1,1.3-0.5
		c0.1,0,0.1-0.1,0.2,0c0.4-0.2,0.9-0.2,1.3-0.5c3.1-1.3,6.3-2.7,9.4-4c1.2-0.5,2.4-1.1,3.6-1.6c0.9-0.2,1.8-0.5,2.7-0.2
		C78.3,72.3,78.7,72.4,78.9,72.9z"/>
	<path fill="#FDEABA" d="M44.3,87.2c-2.3-0.3-4.5-0.3-6.8-0.8c-0.5-0.1-1-0.2-1.4-0.5c2.6-0.7,5.2-1.3,7.8-2.1
		c3.2-0.9,6.5-1.9,9.7-2.8c0.5,0,1.2-0.5,1.1,0.5c-0.1,0.4-0.5,0.6-0.8,0.7c-2.7,1.2-5.3,2.6-7.8,4.2c-0.5,0.3-1.1,0.4-1.6,0.6
		C44.4,87.2,44.4,87.2,44.3,87.2z"/>
	<path fill="#DDA162" d="M100.1,48.5c0.1,0.5-0.1,0.9-0.5,1.2c-0.8,0.6-1.4,1.4-2.2,1.8c-1.5-1.1-3.2-1.3-4.9-1.6
		c-0.5-0.1-1,0-1.3-0.5c-0.3-1.5-0.2-2.9,0.6-4.2l0,0c0.2-0.2,0.5-0.3,0.8-0.3c2.6,0.3,5.1,0.8,7.4,2.3
		C100,47.5,100.1,48,100.1,48.5z"/>
	<path fill="#F2D5A1" d="M91.2,49.4c1.8,0,3.5,0.4,5.1,1c0.5,0.2,1.1,0.2,1,1c-2.7,1.9-5.2,4-8.2,5.6c0.5-1.9,1-3.9,1.6-5.8
		c0.2-0.6,0.2-1.2,0.2-1.9C91,49.4,91.1,49.4,91.2,49.4z"/>
	<path fill="#DDA160" d="M15.3,81.8c-0.6-0.8-1.3-1.5-1.9-2.3c0.1-0.3,0.3-0.6,0.5-0.6c1.6-0.4,3.1-1.2,4.8-0.6c1.4,1.2,3,2.1,4.6,3
		C20.7,81.5,18.1,82.5,15.3,81.8z"/>
	<path fill="#F5B779" d="M78.9,72.9c-1.2-0.5-2.5-0.5-3.8-0.5c2.4-1.2,4.8-2.4,7.1-3.6c0.5,0.4-0.2,0.5-0.3,0.8
		c-0.6,1.4-1.6,2.4-2.8,3.3C79.1,72.9,79,72.9,78.9,72.9z"/>
	<path fill="#FCE3B0" d="M54.5,81.6c0.2-0.9-0.6-0.3-0.8-0.5c1.8-0.8,3.7-1.5,5.7-2c0.3,0.3,0.6,0.5,1,0.5c0.1,0.4-0.2,0.5-0.5,0.6
		c-1.4,0.5-2.9,1-4.3,1.5C55.2,81.8,54.8,81.9,54.5,81.6z"/>
	<path fill="#E4844E" d="M87.6,65.8c-0.3,0.3-0.6,0.5-1,0.5c-0.2,0.2-0.2,0.5-0.6,0.5c-0.2,0-0.3,0-0.5,0c-0.2-0.7-0.9-0.9-1.3-1.4
		s-0.6-1-0.1-1.4s0.8,0,1.2,0.3C86,64.8,86.4,65.9,87.6,65.8z"/>
	<path fill="#E4834B" d="M82,66.5c0-0.7,0.4-1.1,1-1c0.5,0.1,1.1,0.4,1.1,1.1s-0.5,1-1.2,1C82.2,67.5,82,67.1,82,66.5z"/>
	<path fill="#E1844B" d="M90.2,64.3c-0.8,0.6-1.6,1.2-2.6,1.5c0.1-0.3,0.3-0.6,0.4-0.9C88.7,63,89,62.9,90.2,64.3z"/>
	<path fill="#AF9975" d="M100.1,48.5c-0.3-0.4-0.2-0.9-0.2-1.3c-0.4-0.6-0.7-1.2,0.2-1.8C100.1,46.4,100.1,47.4,100.1,48.5
		C100.2,48.4,100.1,48.5,100.1,48.5z"/>
	<path fill="#FCE3B0" d="M62.1,78c-0.2,0.7-0.8,0.5-1.3,0.5C61.2,78.2,61.6,78,62.1,78z"/>
	<path fill="#FCE3B0" d="M60.6,78.5c-0.3,0.6-0.8,0.5-1.3,0.5C59.7,78.7,60.1,78.6,60.6,78.5z"/>
	<path fill="#3C2515" d="M-4.7,67c0.1,0.4,0,0.8-0.5,0.8C-5.2,67.4-5,67.2-4.7,67z"/>
	<path fill="#FEF4DB" d="M11.9,31.8c0.2-1,1-1.8,1.3-2.8c0.6-2.3,2.2-4,3.6-5.9c1-1.3,2-2.6,3.2-3.8c1.6-1.6,3-3.3,5.2-4.1
		c2.2-1.9,4.6-3.5,7.2-4.8s5.7,0.5,5.3,3.8c-0.1,1.6-1.4,2.4-2.6,3c-1.6,0.9-3.2,1.8-4.6,3c-0.5,0.4-1.3,0.4-1.5,1.1
		c-1.7,1.5-3.5,3-4.8,4.8c-1.1,0.9-1.8,2.3-2.8,3.3c-0.9,0.9-1.3,2.1-1.8,3.2c-0.2,0.5,0.5,0.7,1,0.9c2.2,1.1,2.7,4.4,0.8,5.8
		c-1.1,0.8-2.3,1.2-3.7,0.5c-0.6-0.3-1.1-0.3-1.4,0.6c-0.5,1.5-1.6,2.3-3.3,2.4c-1.9,0.1-2.9-1-3.6-2.3c-0.6-1.3,0.2-2.7,0.6-4
		c0.5-1.3,1-2.6,1.5-3.9l0,0C11.8,32.5,11.9,32.2,11.9,31.8z"/>
	<path fill="#FDEABB" d="M58.3,27.5c2.2,0,3.8,1.6,3.8,3.8s-1.6,3.9-3.8,3.9c-2.4,0-3.9-1.5-3.9-3.9C54.4,29.1,56,27.5,58.3,27.5z"
		/>
	<path fill="#F1D6A1" d="M95.8,29.8c1.3,2.5,2.2,5.2,2.9,7.9C98.4,38,98,38,97.6,37.9c-1.7-0.4-3.5-0.7-5.2-0.9
		c-0.3,0-0.5-0.2-0.7-0.3c-0.1,0-0.2,0-0.3,0c0.1-1.4-0.2-2.8-0.4-4.3c-0.2-0.9-0.6-1.2-1.4-1.1c0.4-0.5,1.1,0,1.6-0.5
		C92.7,30.6,94.3,30.4,95.8,29.8z"/>
	<path fill="#E0A05E" d="M51.2,37c0,2-1.2,3.3-3.1,3.3c-1.9,0-3.4-1.4-3.3-3.3c0-1.8,1.5-3.3,3.2-3.3C49.7,33.7,51.2,35.1,51.2,37z"
		/>
	<path fill="#F5B87B" d="M13.7,47.4c0-1.2,0.8-2,1.9-2c1,0,1.9,1,1.9,2.1s-0.9,2-2.1,1.9C14.4,49.4,13.6,48.5,13.7,47.4z"/>
	<path fill="#FDF3D8" d="M24.6,34.3c-0.1-1.2,0.9-1.3,1.8-1.4c1-0.1,1.8,0.9,1.8,2c0,0.6-1.2,1.8-1.9,1.7
		C25.4,36.6,24.6,35.6,24.6,34.3z"/>
	<path fill="#F1BA7F" d="M31.7,46.4c-0.5,0-0.7-0.4-0.7-1.1c0-0.8,0.4-1.2,1.2-1.2c0.8,0,1.2,0.5,1.1,1.2
		C33.3,46.1,32.7,46.4,31.7,46.4z"/>
	<path fill="#E39F5D" d="M65.6,36c-0.2-0.2-0.2-0.4,0-0.6c0.3-0.3,0.4-0.8,0.8-1l0,0c1.5-0.1,2,0.4,1.8,1.8l0,0
		c-0.5,0.8-1.2,0.9-2.1,0.5l0,0C65.9,36.5,65.9,36.1,65.6,36z"/>
	<path fill="#DDB077" d="M68.2,36.2c0-1.2-0.7-1.7-1.8-1.8c0.6-0.5,1.2-0.2,1.7,0.3C68.5,35.1,68.7,35.6,68.2,36.2z"/>
	<path fill="#DDB077" d="M66.2,36.7c0.7,0,1.5,0,2.1-0.5C67.6,37.3,67.1,37.4,66.2,36.7z"/>
	<path fill="#DDB077" d="M66.4,34.4c-0.2,0.4-0.4,0.8-0.8,1C65.7,34.9,65.8,34.4,66.4,34.4z"/>
	<path fill="#DDB077" d="M65.6,36c0.4,0.1,0.6,0.4,0.6,0.8C65.7,36.7,65.7,36.3,65.6,36z"/>
	<path fill="#F6B879" d="M54.5,81.6c2-0.7,3.9-1.4,5.9-2c0.1,0,0.2,0,0.3,0c0.5-0.2,1-0.3,1.5-0.5c3.1-0.6,6.3-0.6,9.4-0.5
		c0.1,0.1,0.2,0.2,0.3,0.3C72,79,72,79,72,79.1s-0.1,0.1-0.1,0.1c-1.7,1.3-3.6,2.3-5.5,3.3c-4.1,2.1-8.5,3.5-13.1,4.2
		c-2.9,0.5-5.8,0.7-8.7,0.7c3-2.1,6.1-3.9,9.5-5.3C54.2,81.8,54.3,81.7,54.5,81.6z"/>
	<path fill="#E0A96F" d="M71.8,79c0-0.1,0-0.2,0-0.2c1.6,0,3.2,0,4.6,0.9c0.2,0.1,0.5,0.1,0.7,0.1c0.1,0.1,0.1,0.1,0.1,0.2
		s-0.1,0.1-0.1,0.1c-1,0.8-2,1.7-2.8,2.7c-0.2,0.2-0.4,0.5-0.1,0.8c0.3,0.2,0.6,0,0.8-0.2c0.3-0.4,0.6-0.8,1-1.2
		c0.3-0.3,0.7-0.4,1.1-0.2c0.5,0.2,0.3,0.6,0.2,1c-0.4,1.2-2.3,2.4-3.5,2.2c-1.3-0.2-2.5-1.6-2.5-3.1c0-1.1-0.2-2.2,1.3-2.4
		c0.2,0,0.3-0.3,0.6-0.6C72.6,79,72.2,79,71.8,79z"/>
	<path fill="#E0A970" d="M68.8,91.2c-0.9-0.4-1.5-1.1-2-1.8c-0.5-0.6-0.9-0.8-1.7-0.6c-0.7,0.2-1.1-0.3-0.8-0.9
		c0.3-0.6,0.1-0.9-0.3-1.3c-0.9-0.9-0.4-2.8,0.7-3.3c0.3-0.1,0.7-0.1,0.9,0.1c0.3,0.3,0.2,0.7-0.1,0.9c-0.6,0.4-0.6,0.9-0.1,1.4
		s0.8,0.1,1.1-0.3c0.4-0.5,0.6-0.1,0.9,0c0.4,0.2,0.4,0.5,0.1,0.8c-0.9,0.9-0.6,1.5,0.4,2.1c0.6,0.4,1.1,1,1.5,1.7
		C69.9,90.9,69.2,91,68.8,91.2z"/>
	<path fill="#E0A970" d="M67.8,84.7c0-0.4,0.2-0.5,0.4-0.7c0.5-0.4,0.9-0.8,1.2-1.4c0.2-0.3,0.5-0.7,0.9-0.4
		c0.4,0.3,0.7,0.9,0.3,1.2c-1.4,1.2,0,1.9,0.5,2.7c0.3,0.4,0.7,0.8,1.1,1.2c0.4,0.4,0.2,0.7-0.1,1c-0.2,0.2-0.5,0.6-0.8,0.2
		c-1.1-1.1-2.3-2.1-3.2-3.3C68,85,67.9,84.8,67.8,84.7z"/>
	<path fill="#E0A970" d="M54.1,93.7c-0.3-0.4-0.2-0.7,0-1c0.4-0.5,0.4-0.8-0.3-1c-0.3-0.1-0.4-0.3-0.4-0.6c0-0.2,0.3-0.5,0.4-0.4
		c0.8,0.7,1.6,0,2.5,0C55.6,91.8,54.9,92.8,54.1,93.7z"/>
	<path fill="#E1B27D" d="M77.2,80c0-0.1,0-0.2,0-0.3c0.8,0.1,1.6,0.3,2.3,0.8C78.7,80.4,77.8,80.8,77.2,80z"/>
	<path fill="#FEF4DB" d="M42.3,12.2c-2-2-1.1-5.8,2.4-6.2c1.5-0.2,3.1-0.5,4.6-0.7c2.8-0.4,4.6,1.1,4.6,3.9c-0.3,2-1.5,2.9-3.5,3.3
		c-1.7,0.4-3.4,0-5.1,0.7C44.2,13.8,43.3,12.5,42.3,12.2z"/>
	<path fill="#E1A05F" d="M72.1,16.9c0-1.5,1-2.6,2.5-2.6c1.2,0,2.5,1.2,2.6,2.5s-1.3,2.6-2.8,2.6C73.1,19.4,72.1,18.3,72.1,16.9z"/>
	<path fill="#FCEABC" d="M25.1,15.3c-1.4,0.8-2.6,2-3.7,3.1c-1.3,1.3-2.7,2.5-3.6,4.1c-0.2,0.4-0.4,0.7-0.8,0.9
		c-0.5-0.5-1.2-0.3-1.8-0.4c-0.9,0-1.8,0-2.5-0.6c-0.2-0.1-0.4-0.2-0.5-0.3c1.7-2.5,3.6-4.9,5.9-6.9c2.2,0.3,4.4,0.5,6.6,0
		C24.8,15.3,25,15.3,25.1,15.3z"/>
	<path fill="#1C2427" d="M29.9,6.7c-0.1,0.1-0.3,0.2-0.4,0.4c-0.6,0.1-1,0.4-1.5,0.6"/>
	<path fill="#E0A86D" d="M79.2,72.9c0.8-1.2,1.8-2.3,2.8-3.3c0.4,0.3,0.8,0.4,1.3,0.5c2.4,0.4,3.1,1.4,2.8,3.9c0,0.3,0,0.5,0,0.8
		C83.8,74,81.5,73.3,79.2,72.9z"/>
	<path fill="#E0A96F" d="M86.1,66.8c0.1-0.2,0.3-0.4,0.6-0.5c0.9,0.8,2.1,0.8,3.2,1.2c0.5,0.2,1,0.2,1.4,0.6c-0.2,0-0.4,0-0.6,0
		s-0.5-0.2-0.7,0.1c-0.2,0.4,0.1,0.6,0.3,0.8c0.3,0.3,0.6,0.5,0.2,1c-0.4,0.4-0.8,0.6-1.2,0.2c-1.1-0.9-2.1-1.9-3.1-2.9
		C86,67.2,86.1,67,86.1,66.8z"/>
	<path fill="#E0A970" d="M84.3,67.8c0.7-0.1,1.3,0.2,1.8,0.7c0.7,0.8,1.5,1.4,2.3,2.2c0.4,0.4,0.4,0.9,0,1.3
		c-0.5,0.5-0.8,0.1-1.1-0.3c-0.9-0.9-1.7-1.7-2.6-2.6C84.1,68.8,83.9,68.4,84.3,67.8L84.3,67.8z"/>
	<path fill="#12222D" d="M17.1,14.9"/>
	<path fill="#12222D" d="M15.2,15.8"/>
	<path fill="#12222E" d="M12.7,19.2"/>
	<path fill="#F5B87A" d="M12.7,22.5c1.3,0.2,2.6,0.3,3.9,0.2c0.7,0,0.5,0.4,0.4,0.8c-1.5,1.7-2.6,3.7-3.8,5.6
		c-0.4-0.6-1-0.2-1.4-0.1c-1.1,0.2-2.1,0.4-3.2,0.7c-0.1-0.8,0.7-1.4,0.5-2.3C10.7,26,11.2,23.9,12.7,22.5z"/>
	<path fill="#FEEABB" d="M11.9,31.8c0.1,0.4,0.3,0.9-0.5,0.8C11.5,32.3,11.7,32.1,11.9,31.8z"/>
	<path fill="#DDA264" d="M58.8,96.1c0,1-0.5,1.5-1.4,1.4c-0.7-0.1-1.5,0-1.5-1.2c0.1-1.1,0.6-1.6,1.5-1.7
		C58.4,94.6,58.8,95.2,58.8,96.1z"/>
	<path fill="#BD9B75" d="M58.3,97.9c-0.5,0.3-1,0.2-1.6,0.2C57.2,97.7,57.8,97.9,58.3,97.9z"/>
	<path fill="#F6B879" d="M91.2,49.4c-0.1,0-0.2,0-0.3,0l0,0c-1.3-0.2-2.6-0.2-3.8,0c-3.4,0.2-6.8,0.6-10.2,1.3
		c-1.1,0.2-1.2,0.6-1,1.6c0.7,3-1.4,5.2-3.7,5.6c-2,0.4-5.1-1-5.4-3.4c-0.2-1.2-0.6-1.6-1.9-1.3c-6.4,1.5-12.9,2.5-19.1,4.6
		c-6.6,2.2-13.1,4.7-19.4,7.8c-4.2,2-8.3,4.2-12.1,6.9c-0.4,0.2-0.7,0.5-1,0.8l0,0c-0.1,0.1-0.2,0.4-0.5,0.3
		c-1.1-1.4-2.3-2.8-3.3-4.2c-1.8-2.6-2.4-1.9,0.8-4.1c4.9-3.2,10.1-5.7,15.6-7.5c2.9-0.9,5.8-1.3,8.8-2c8.2-1.8,16.5-3.3,24.7-5.2
		c7.2-1.6,14.5-3.1,21.7-4.6c3.5-0.7,7.1-0.8,10.7-0.7C91.5,46.6,91.2,48,91.2,49.4z"/>
	<path fill="#F1D6A1" d="M12.7,73.4c0.2-0.1,0.3-0.2,0.5-0.3c0.8,1.7,2.4,2.7,3.8,3.8c0.6,0.5,1.1,1.3,2.1,1.1
		c-0.1,0.1-0.2,0.2-0.3,0.3c-1.8,0.3-3.6,0.5-5.3,1.3c-1.1-1.3-2-2.7-2.8-4.1C11.1,74.6,12,74.1,12.7,73.4z"/>
	<path fill="#F5B87A" d="M27.4,71.1c-0.2-1.6,1.3-2.5,2.4-2.5c1.5-0.1,2.5,1.1,2.5,2.7c0,1.3-1.1,2.4-2.4,2.4
		C28.3,73.7,27.4,72.7,27.4,71.1z"/>
	<path fill="#F4B97B" d="M65.9,58.7c0,1.3-0.7,2-2,2c-1.3,0-2.1-0.8-2.1-2.1c0-1.1,0.9-2,2-2C65.1,56.6,66,57.5,65.9,58.7z"/>
	<path fill="#DBA365" d="M79.9,55.9c0-1,0.6-1.5,1.4-1.5s1.5,0.5,1.4,1.4c0,1-0.5,1.6-1.5,1.5C80.5,57.3,79.9,56.8,79.9,55.9z"/>
	<path fill="#F0BC7F" d="M49.1,66.7c0,0.9-0.6,1.3-1.3,1.3s-1.2-0.5-1.2-1.2s0.5-1.2,1.2-1.2C48.6,65.5,49,66,49.1,66.7z"/>
	<path fill="#F0BF87" d="M78.9,52.5c0,0.6-0.3,1-0.9,1c-0.5,0-0.9-0.4-0.9-0.9c0-0.7,0.4-1,1-1C78.8,51.5,79,52,78.9,52.5z"/>
	<path fill="#EEBD82" d="M59.4,55.8c0.6,0,1,0.3,0.9,0.9c0,0.6-0.3,0.9-0.8,0.9c-0.6,0-0.9-0.3-0.9-0.9
		C58.5,56.1,58.8,55.8,59.4,55.8z"/>
	<path fill="#F2D5A1" d="M87.1,49.5c1.3-0.4,2.6-0.4,3.8,0C89.6,49.5,88.4,49.5,87.1,49.5z"/>
	<path fill="#F1D6A1" d="M13.2,73.2c0.2-0.4,0.5-0.7,1-0.8C14,72.8,13.7,73.1,13.2,73.2z"/>
	<path fill="#DDA263" d="M91.7,36.7c2.4-0.2,4.6,0.6,6.9,1c0.6,2.1,1.1,4.2,1.2,6.4c-0.4,0.3-0.7,0.1-1.1-0.1
		c-1.8-1-3.8-1.6-5.9-1.8c-0.3,0-0.7-0.1-0.9-0.4c-0.6,0.1-0.4,0.6-0.7,1.2c0.1-1.7-1.3-0.9-1.9-1.5c2.3,0,2.3,0,2.3-2.3
		C91.7,38.4,91.7,37.6,91.7,36.7z"/>
	<path fill="#FEEABB" d="M20.8,47.9c0-1.9,1.1-3.1,3-3.1c1.8,0,3.1,1.2,3.1,2.9s-1.5,3.2-3.1,3.2C22.1,51,20.8,49.6,20.8,47.9z"/>
	<path fill="#C28949" d="M91.9,41.8c2.9-0.1,5.4,1,7.9,2.3c0.1,0.4,0.1,0.9,0.2,1.3c-0.3,0.6-0.1,1.2-0.2,1.8
		c-2.2-0.7-4.3-1.7-6.6-1.9c-0.5,0-1-0.1-1.5-0.1C91.7,44,91.6,42.9,91.9,41.8z"/>
	<path fill="#BA8953" d="M6.8,67.8c-0.7-1.5-1.2-3-1.5-4.6c0.6,1,1.2,2,1.9,3C7.7,66.9,7.1,67.3,6.8,67.8z"/>
	<path fill="#FCE3B0" d="M62.1,79c-0.5,0.3-1,0.5-1.5,0.5C61,79.1,61.5,79,62.1,79z"/>
	<path fill="#FDEABA" d="M74.1,53.3c0,1.2-1.5,2.7-2.8,2.7c-1.5,0-2.8-1.2-2.8-2.7s1.2-2.8,2.6-2.9C72.8,50.5,74,51.7,74.1,53.3z"/>
</g>
<g>
	<path fill="#47A5DC" d="M99.2,124.7H6.3c-2.2,0-4-1.8-4-4v-23c0-2.2,1.8-4,4-4h92.9c2.2,0,4,1.8,4,4v23
		C103.2,123,101.4,124.7,99.2,124.7z"/>
	<g enable-background="new    ">
		<path fill="#FFFFFF" d="M12.8,101.6h3.6v10.2c0,4.6-2.2,6.2-5.8,6.2c-0.8,0-1.9-0.1-2.7-0.4l0.4-3c0.5,0.2,1.2,0.3,1.9,0.3
			c1.5,0,2.5-0.7,2.5-3.2V101.6z"/>
		<path fill="#FFFFFF" d="M23.2,101.6v9.3c0,2.8,1.1,4.2,2.9,4.2c1.9,0,3-1.3,3-4.2v-9.3h3.6v9.1c0,5-2.5,7.4-6.7,7.4
			c-4.1,0-6.5-2.3-6.5-7.4v-9H23.2z"/>
		<path fill="#FFFFFF" d="M35.9,101.9c1.1-0.2,2.7-0.3,4.9-0.3c2.3,0,3.9,0.4,4.9,1.3c1,0.8,1.7,2.2,1.7,3.7s-0.5,2.9-1.5,3.8
			c-1.2,1.2-3.1,1.7-5.3,1.7c-0.5,0-0.9,0-1.2-0.1v5.8h-3.6V101.9z M39.5,109.2c0.3,0.1,0.7,0.1,1.2,0.1c1.9,0,3.1-1,3.1-2.6
			c0-1.5-1-2.4-2.9-2.4c-0.7,0-1.2,0.1-1.5,0.1V109.2z"/>
		<path fill="#FFFFFF" d="M53.5,101.6v16.2h-3.7v-16.2H53.5z"/>
		<path fill="#FFFFFF" d="M59.8,104.7h-4.3v-3.1h12.4v3.1h-4.4v13.1h-3.7V104.7z"/>
		<path fill="#FFFFFF" d="M79.5,111h-6v3.8h6.6v3H69.8v-16.2h10v3h-6.3v3.4h6V111z"/>
		<path fill="#FFFFFF" d="M82.7,101.9c1.2-0.2,2.9-0.3,4.9-0.3c2.4,0,4.1,0.4,5.2,1.3c1,0.8,1.5,1.9,1.5,3.4c0,2.1-1.5,3.5-2.9,4
			v0.1c1.1,0.5,1.8,1.5,2.2,3c0.5,1.8,1,3.9,1.3,4.6h-3.7c-0.3-0.5-0.6-1.8-1.1-3.8c-0.4-2-1.1-2.6-2.6-2.6h-1.1v6.4h-3.6V101.9z
			 M86.3,108.8h1.4c1.8,0,2.9-0.9,2.9-2.3c0-1.5-1-2.2-2.7-2.3c-0.9,0-1.4,0.1-1.7,0.1V108.8z"/>
	</g>
</g>
</svg>
