<?xml version="1.0" encoding="utf-8"?>
<!-- Generator: Adobe Illustrator 25.0.0, SVG Export Plug-In . SVG Version: 6.00 Build 0)  -->
<svg version="1.1" id="Layer_1" xmlns="http://www.w3.org/2000/svg" xmlns:xlink="http://www.w3.org/1999/xlink" x="0px" y="0px"
	 width="105.5px" height="140px" viewBox="0 0 105.5 140" enable-background="new 0 0 105.5 140" xml:space="preserve">
<g>
	<path fill="#47A5DC" d="M85.5,131.8H24.3c-2.2,0-4-1.8-4-4v-23c0-2.2,1.8-4,4-4h61.2c2.2,0,4,1.8,4,4v23
		C89.5,130,87.7,131.8,85.5,131.8z"/>
	<g>
		<path fill="#FFFFFF" d="M27.7,108.7h3.6v7.2h0.1c0.4-0.6,0.7-1.2,1.1-1.8l3.7-5.4h4.5l-5.4,6.9l5.6,9.3h-4.3l-4-7l-1.4,1.7v5.3
			h-3.6v-16.2H27.7z"/>
		<path fill="#FFFFFF" d="M52,118.1h-6v3.8h6.6v3H42.4v-16.2h10v3h-6.3v3.4h6L52,118.1L52,118.1z"/>
		<path fill="#FFFFFF" d="M58.5,111.8h-4.4v-3.1h12.4v3.1h-4.4v13.1h-3.7L58.5,111.8L58.5,111.8z"/>
		<path fill="#FFFFFF" d="M72.1,108.7v9.3c0,2.8,1.1,4.2,2.9,4.2c1.9,0,3-1.3,3-4.2v-9.3h3.6v9.1c0,5-2.5,7.4-6.7,7.4
			c-4.1,0-6.5-2.3-6.5-7.4v-9L72.1,108.7L72.1,108.7z"/>
	</g>
</g>
<g>
	<g>
		<g>
			<defs>
				<path id="SVGID_1_" d="M7.8,24.7c2.3-3.5,4.9-6.7,7.9-9.7c5.8-5.4,12.4-9.4,19.9-11.6c2.3-0.7,4.6-1.2,6.9-1.5
					c3-0.4,6-0.6,9-0.5c7,0.3,13.7,2,20,5.2C84,12.7,93.3,23.9,97.5,37.3c0.8,2.5,1.3,5.1,1.8,7.6c0.3,2.5,0.5,4.9,0.6,7.4
					c0.1,21.9-13.1,41.1-32.6,48.5c-3,1.1-6.2,1.9-9.3,2.6c-3.3,0.5-6.7,0.7-10.1,0.7c-7.1-0.3-13.9-2-20.3-5.4
					c-7.8-4-14.3-9.8-19.2-17.3c0,0,0,0,0-0.1c0-0.2,0.1-0.3,0.2-0.2c2.1,1.5,4.4,2.8,6.9,3.8s5.1,1.7,7.7,2c2,0.3,3.9,0.4,5.9,0.3
					c10.3-0.5,19.5-5.6,25.4-13.8c2.9-4,4.8-8.5,5.9-13.4c0.4-1.7,0.6-3.4,0.7-5.1c0.1-1.7,0.1-3.5-0.1-5.2c-0.4-4.6-1.8-9-3.9-13.1
					c-4.5-8.4-12-14.4-21-16.9c-2.2-0.6-4.3-0.9-6.6-1.1c-1.6-0.1-3.2-0.1-4.8,0.1c-4.6,0.4-9,1.8-13,4.1c-1,0.5-1.9,1.2-2.9,1.8
					c-0.1,0-0.1,0-0.1,0.1l0,0c-0.1,0-0.2,0-0.2,0.1l0,0C8,24.9,7.9,25,7.8,24.7z"/>
			</defs>
			<clipPath id="SVGID_2_">
				<use xlink:href="#SVGID_1_"  overflow="visible"/>
			</clipPath>
			<g clip-path="url(#SVGID_2_)">
				<path fill="#688AC2" d="M98.6,37.9c1.1,3,1.5,6.1,2,9.2c0.6,5.3,0.3,10.5-0.8,15.7c-0.1,0.6,0.1,1.2-0.3,1.7
					c0,0.4,0.2,0.8-0.4,1.1c-1.5,0.1-2.1,0.8-2.1,2.1c0.8-0.1,0.7-1.7,1.9-1.1c0.1,1.3-0.3,2.4-1.1,3.3l0,0
					c-0.3,0.2,0.1,0.8-0.5,0.8c-0.5-0.5-0.8-1.1-1.7-1.2c-1.7-0.1-2.4,0.4-3,2.4c0.6,0,0.8-0.4,1.1-0.8c0.3-0.3,0.5-0.6,0.9-0.7
					c0.4-0.1,0.8-0.1,1.1,0.2c0.3,0.4-0.1,0.7-0.3,0.9c-0.3,0.4-0.7,0.7-1.1,1.1c-0.3,0.3-0.7,0.5-0.5,1c0.2,0.4,0.6,0.5,1,0.6
					c0.3,0,0.6,0,0.8,0.2c0.1,0.2,0.1,0.3-0.1,0.5c-0.2,0.3-0.5,0.7-0.7,1c-0.1,0-0.2,0.1-0.2,0.1c-1.4-1-2.8-2-3.5-3.7
					c0.2-1,0.7-1.9,1.2-2.8c0.8-1.6,1.4-3.3,1.9-5.1c0.5-2-0.4-3.8-2.2-4.4s-3.7,0.4-4.4,2.4c-0.6,1.7-1.2,3.5-2,5.2
					c-0.7,1.4-0.9,1.4-2.1,0.4c-4.8-4.2-11.8-3-15,2.5c-1.8,3.2-1.4,8.9,2.3,11.8c1.8,1.5,1.8,1.5-0.1,2.9c-1.1,0.8-2.4,1.4-3.5,2.1
					c-1.8,1.1-2.5,2.6-2,4.1c0.6,2.2,2.9,3.2,5.1,2.1c1.8-0.9,3.5-1.9,5.1-3c2.9-2,5.5-4.4,7.9-7c0.4-0.5,0.8-1,1.6-1
					c0.6,0.3,0.5,0.8,0.6,1.3c0.1,0.5-0.1,0.9,0.1,1.4c0.5-0.4,0.4-1,0.4-1.5c0-0.5-0.1-1,0.5-1.2c0.5-0.2,0.8,0.2,1.1,0.5
					c0.5,0.5,1.1,1,1.6,1.6c0.2,0.5-0.2,0.6-0.5,0.9C82.5,92.8,75,98,65.9,101c-7.9,2.7-15.9,3.3-24.1,2.1c-0.7-0.1-1.3-0.3-2-0.5
					c-0.3-0.5-0.2-1-0.1-1.5c0.6-4.1-1.8-8-5.1-9.7c-3.8-1.9-8-1.1-11,1.9c-0.4,0.4-0.8,0.8-1.1,1.3c-0.3,0.4-0.7,0.7-1.2,0.5
					c-0.9-0.6-1.8-1.2-2.6-2c-4.6-4.9-7.5-10.7-9.4-17.1c-0.3-0.9-0.1-1.5,0.8-2c1.2-0.7,1.6-1.6,1.3-2.6c-0.3-1.1-1-1.6-2.5-1.8
					c-1-0.1-1.4-0.8-1.3-2.2c0-1,0.6-1.2,1.5-1.1c2.5,0.2,4.7-0.2,6.7-1.9c2.5-2.2,3.4-5.6,2.2-8.8c-1.1-3.1-4-5.2-7.3-5.3
					c-1.8,0-1.9-0.2-1.5-1.9c2.1-7.1,5.5-13.4,10.4-19c1.5-1.7,3.1-3.3,4.9-4.7c0.4-0.2,0.7-0.6,1.3-0.6c0.6,0.2,0.7,0.7,0.8,1.2
					c0.1,0.6,0,1.2,0.1,1.9c0.3-0.5,0.2-1.1,0.2-1.7c0-0.4,0.1-0.8,0.5-1c0.5-0.2,0.8,0.1,1.1,0.4c0.6,0.5,1.1,1.2,1.8,1.7
					c0.2,0.1,0.4,0.3,0.7,0.1c0.2-0.2,0-0.5-0.1-0.6c-0.9-1.1-2.1-2-2.9-3.3c0-0.1-0.1-0.2-0.1-0.3c0-0.3-0.1-0.7,0.2-1
					c0.2-0.2,0.4-0.2,0.6,0c0.3,0.3,0.5,0.6,0.8,0.9c1,1.1,1,1.1,2,0.1c0.5-0.2,1,0,1.4-0.1c1.5-0.4,2-1.5,2.2-2.9
					c0.5-0.9,0.2-1.6-0.5-2.3c-0.5-0.5-1.3-0.9-1.2-1.8c0.1-0.1,0.3-0.2,0.5-0.2c1,0.2,1.9,0.6,2.5,1.5c0.2,0.3,0.5,0.5,0.9,0.3
					c1-0.5,2.1-0.8,3.1-1.2c0.6-0.3,0.5-0.8,0.5-1.3c0-0.5,0-1,0.1-1.4c0.2-0.6,0.8-0.8,1.3-1.1c1-0.7,1.2-2,0.4-3.1
					c-0.1-0.2,0-0.4,0.1-0.6C43,7.7,43.4,7.2,43.9,7c0.2-0.1,0.5-0.1,0.7,0.1c0.3,0.4,0.2,0.8,0,1.2c-0.3,0.6-0.1,1.1,0.2,1.7
					c0.1,0.6-0.2,1-0.4,1.5c-1.1,2.5-0.4,5.3,1.6,7c1.9,1.6,4.9,1.7,7,0.4c2.1-1.4,3.1-4.3,2.3-6.7c-0.8-2.3-2.4-3.6-4.9-4
					c-0.3-0.1-0.6-0.1-0.7-0.5C50.8,7,50.1,6,50,5.1c0.4-0.3,0.8-0.2,1.3-0.1c3.8,0.8,6.2,3.1,7.2,6.8c0.3,1,0.7,1.5,1.7,1.6
					c3.5,0.3,7,1,10.4,2c5.2,1.7,10,4,14.4,7.3c4.6,3.2,8.6,7.3,11.9,12.2C97.6,35.9,98.1,36.9,98.6,37.9z"/>
				<path fill="#406495" d="M24.5,24.9c-6.1,5.2-10.6,11.5-13.6,18.9c-0.7,1.7-1.3,3.4-1.8,5.1C8.9,49.8,9.1,50,10,50
					c3.3-0.2,5.7,1.4,7.3,4c1.6,2.5,1.8,5.2,0.6,7.9c-1.5,3-3.9,4.8-7.3,4.9c-0.6,0-1.2,0.1-1.8,0c-0.7-0.1-1.2-0.1-1,0.7
					c0.2,0.7-0.6,1.9,1,1.8c1.3-0.1,2.4,0.8,2.8,2.1c0.3,1.2-0.2,2.4-1.5,3c-0.8,0.4-0.9,0.7-0.7,1.5c1.5,5.2,3.9,9.9,7,14.3
					c0.7,1,1.7,1.9,2.1,3c-2.2-1.4-4-3.3-5.8-5.1c-3.5-3.6-6.5-7.7-8.7-12.1c-0.1-0.2-0.2-0.3-0.4-0.5c-0.7-1.6-1.4-3.2-1.9-4.8
					C-0.7,64-2,57.2-1.5,50.2c0.7-12.2,5-23,13.3-32.1c7.1-7.9,16-13,26.4-15.5c2.1-0.5,4.3-0.7,6.4-1.1c0.2-0.2,0.4-0.2,0.6-0.1
					c-0.1,1.2,0.8,1.7,1.5,2.4c0.6,0.7,0.8,1.3-0.1,1.8c-0.2,0.2-0.5,0.3-0.8,0.3c-0.9,0.2-1.4-0.5-2-1.1c-0.4-0.4-0.8-1.3-1.4-0.7
					c-0.6,0.6,0.3,1,0.7,1.4c0.4,0.5,1.1,0.8,0.4,1.6c-0.4,0.3-0.8,0.7-1.2,1c-0.8-0.6-1.6-1-2.6-0.9c-1,0.1-1.7,0.8-2.1,1.6
					c-0.1,0.2-0.2,0.5,0.1,0.6c0.2,0.1,0.4-0.1,0.5-0.2c0.3-0.4,0.6-0.9,1.1-1.1c0.4-0.1,0.8-0.2,1.1,0.2c0.3,0.4,0,0.7-0.2,1
					c-0.2,0.3-0.5,0.6-0.8,0.9c-1,1-1,1.2,0.3,1.8c0.5,0.2,0.9,0.4,0.8,1c-0.3,0.9,0.7,2.1-0.6,2.8c-1.1,0.4-2.1,0.8-3.2,1.2
					c-0.3,0.2-0.6,0.2-0.8-0.1c-0.1-0.4,0.2-0.4,0.5-0.6c0.3-0.1,0.7-0.3,1-0.5c1.2-0.8,1.4-1.6,0.8-3c-0.1-0.1-0.2-0.3-0.3-0.4
					c-0.6-1.1-1.6-1.3-2.7-1.1c-1.1,0.2-1.6,1.1-2,2.2c0.8,0,0.8-0.6,1.2-0.9c0.6-0.4,1.1-1.2,1.9-0.3c0,0.3,0,0.5-0.2,0.7
					c-0.4,0.7-0.9,1.2-1.5,1.7c-0.4,0.4-0.8,0.6-1.4,0.3c-0.2,0-0.3,0-0.5,0c-0.1,0-0.1,0-0.2,0c-0.8-0.3-1.4-0.9-2-1.5
					c-0.2-0.2-0.5-0.5-0.8-0.2c-0.3,0.2,0,0.5,0.1,0.7c0.3,0.4,0.7,0.7,0.3,1.3c-0.3,0.4-0.7,0.5-1,0.9c-0.1,0.1-0.2,0.2-0.4,0.3
					c-0.9,0.6-1.3,1.6-1.4,2.6c-0.1,0.7,0.3,1.5-0.1,2.2c0,0.2,0.3,0.5,0,0.7c-0.7,0.3-1-0.4-1.5-0.7c-0.2-0.1-0.4-0.4-0.7-0.2
					c-0.3,0.2-0.1,0.5,0.1,0.8c0.7,1.2,0.5,1.5-1,1.5c-0.5,0-1.1-0.2-1.6,0.2C23.5,24.4,24.6,23.9,24.5,24.9z"/>
				<path fill="#406495" d="M98.6,37.9c-1.6-2.3-3-4.7-4.7-6.8c-3.7-4.6-8.2-8.4-13.3-11.4c-4.8-2.7-9.7-4.6-15-5.7
					c-2-0.4-4-0.7-6-0.8c-1.1-0.1-1.2-0.6-1.4-1.4c-0.6-3-2.3-5.1-5-6.4c-1-0.5-2.1-0.7-3.3-0.8l-0.1-0.1c-0.1-0.8-0.3-1.4-1.4-1.4
					c-0.7,0-1.3-0.7-1.6-1.5c-0.1-0.3-0.1-0.6,0.4-0.6c2.1-0.9,4.2-0.1,6.3-0.2C54,1,54.6,1,55.1,1.5c7.1,0.9,13.8,3,20,6.6
					c6.7,4,12.3,9.1,16.7,15.5c2.8,4.1,5,8.6,6.5,13.4C98.5,37.2,98.5,37.6,98.6,37.9z"/>
				<path fill="#688AC2" d="M36.9,101.9c-4.4-1.1-8.5-2.6-12.4-5c-0.5-0.7-0.1-1.2,0.3-1.7c1.9-2.2,4.3-3,7.1-2.4
					c2.7,0.6,4.7,2.3,5.5,5.1c0.3,0.9,0.5,1.9,0.3,2.9C37.5,101.2,37.5,101.7,36.9,101.9z"/>
				<path fill="#406495" d="M36.9,101.9c1.3-2.9-0.6-6.9-3.3-8.2c-3.2-1.5-6.8-0.8-8.9,2.1c-0.3,0.4-0.3,0.7-0.3,1.1
					c-1.2-0.4-2.2-1.2-3.2-1.9c0.5,0,0.7-0.4,1-0.8c3.6-4.9,10.3-5.8,14.7-1.7c2.9,2.7,3.7,6.2,2.8,10
					C38.8,102.6,37.8,102.3,36.9,101.9z"/>
				<path fill="#7393C7" d="M91.5,72.4c0.8,1.6,2.2,2.6,3.4,3.7c-0.3,1-0.9,1.8-1.5,2.6c-2.2,1.5-3.3,1.4-5.4-0.6
					c0.2-1,0.6-1.7,1.5-2.2c0.3,0.2,0.4,0.6,0.7,0.8c0.3,0.4,0.7,0.6,1.3,0.5c0.4-0.2,0.6-0.5,0.5-1c-0.1-0.5-0.5-0.8-1-0.8
					c-0.3,0-0.7,0.1-1-0.2C90,74.1,90.5,73.1,91.5,72.4z"/>
				<path fill="#688CC1" d="M88.2,78.2c0.4-0.2,0.6,0,0.8,0.3c0.6,0.7,1.4,0.7,2.2,0.9c0.9,0.3,1.3-0.3,1.8-0.9
					c0.2-0.3,0.4,0.1,0.6,0.2c-0.4,1.1-1.2,1.9-1.7,2.9c-0.1,0.2-0.2,0.4-0.4,0.5c-0.6,0-0.7,0.6-0.9,1c-0.4,0.7-1.1,0.8-1.5,0.3
					c-0.8-1-2-1.8-2.4-3.1c0-0.1,0.1-0.2,0.1-0.3c0.4-0.4,0.9-0.3,1.3,0c0.3,0.2,0.5,0.5,0.8,0.8c0.2,0.3,0.5,0.8,0.9,0.4
					s-0.1-0.7-0.4-1c-0.4-0.6-1.1-0.9-1.1-1.7C88.1,78.3,88.1,78.3,88.2,78.2z"/>
				<path fill="#9EB2D7" d="M86.7,80c0,0.1,0,0.2,0,0.2c-0.4,1-0.9,1.9-1.9,2.4c-0.9,0.9-1.9,1.8-2.8,2.7c-3.4,3.5-7.3,6.2-11.4,8.6
					c-1.8,1-4.2,0.4-5.2-1.3c-1.1-1.8-0.7-4,1.2-5.2c1.6-1.1,3.2-2,4.9-2.9c0.7-0.4,0.8-0.7,0.1-1.2c-2.1-1.4-3.5-3.4-3.9-5.9
					c-0.8-4.3,0.1-7.8,4.1-10.5c3.6-2.4,8.1-2.3,11.4,0.3c0.3,0.2,0.6,0.3,0.8,0.6c0.9,1.5,1.3,0.4,1.6-0.4c0.7-1.7,1.4-3.4,2-5.2
					c0.6-1.9,2.7-3.1,4.6-2.6c2,0.5,3.2,2.5,2.8,4.4c-0.7,2.9-2,5.6-3.1,8.3c-0.5,1-1,1.9-1.5,2.9c0.1,0.4,0.1,0.7-0.5,0.7
					c-0.5,0.7-1,1.5-1.5,2.2l0,0C88.1,79.1,87.4,79.5,86.7,80z"/>
				<path fill="#406495" d="M84.5,35c0.3,5-4,9.8-9.6,9.8c-5.4,0-9.7-4.3-9.8-9.7c0-5.1,4.2-9.8,9.6-9.9
					C79.9,25.3,84.6,29.5,84.5,35z"/>
				<path fill="#406495" d="M50.3,7.5c2.7,0.1,5.7,2.9,5.4,6.3c-0.4,5-4.4,6.6-7.3,6c-4.4-0.9-6.4-5.2-4.5-9.2
					c0.1-0.3,0.3-0.6,0.4-0.9c0.1-0.6,0.5-0.8,0.9-1.2c0.6-0.4,1.2-0.9,2-1c0.3,0,0.6-0.1,0.8,0.1C48.9,8.3,49.6,7.9,50.3,7.5z"/>
				<path fill="#9EB2D7" d="M52,99.6c-3.4,0.4-5.1-3.1-3.7-5.7c0.6-1.1,1.7-1.6,2.9-1.8c1.8-0.3,3.6-0.5,5.4-0.8
					c2.1-0.4,4.1,0.8,4.6,2.7c0.5,2.1-0.7,4.1-2.8,4.7c-0.7,0.2-1.4,0.4-2.1,0.5C54.7,99.2,53.4,99.7,52,99.6z"/>
				<path fill="#406496" d="M17.8,48c-2.4,0-4-1.6-4-4c0-2.4,1.7-4,4-4c2.3,0,4,1.7,4,3.9C21.8,46.3,20.2,48,17.8,48z"/>
				<path fill="#406495" d="M23.2,56.7c-0.3-2,1.7-3.8,3.8-3.8c2,0,3.7,1.8,3.7,3.8c0,2.4-1.4,3.9-3.8,3.9
					C24.7,60.6,23.2,59.1,23.2,56.7z"/>
				<path fill="#9EB2D7" d="M58.3,79.9c0-2.2,1.5-3.7,3.8-3.7c2.1,0,3.9,1.7,3.8,3.7c0,2.2-1.7,3.9-3.9,3.9
					C59.8,83.8,58.3,82.3,58.3,79.9z"/>
				<path fill="#406495" d="M58.9,36c1.6,0,2.8,1.1,2.8,2.7c0.1,1.5-1.2,2.8-2.7,2.9s-2.8-1.2-2.9-2.7C56.1,37.2,57.2,36,58.9,36z"
					/>
				<path fill="#4F6F9F" d="M40.2,15.8c0.9-0.9,0.4-2.1,0.4-3.1c0-0.4-0.7-0.3-1-0.5c-1.4-0.6-1.5-1-0.4-2c0.3-0.3,0.6-0.6,0.9-0.9
					c0.2-0.2,0.7-0.5,0.4-0.8c-0.3-0.3-0.8-0.1-1.1,0.1c-0.3,0.3-0.5,0.7-0.6,1c-0.2,0.6-0.7,0.5-1.1,0.3c-0.5-0.1-0.4-0.6-0.3-0.9
					C38,7.2,40.3,6.3,42,7.2c0.5,0.2,0.3,0.7,0.6,0.9c-0.1,0.2-0.2,0.3-0.2,0.5c0,1.5-0.9,2.7-1.5,4.1c0,0.8,0,1.6,0,2.4
					C40.9,15.5,40.7,15.8,40.2,15.8z"/>
				<path fill="#7393C7" d="M97.3,70.8c-0.4,1.3-1,2.6-1.7,3.8c-0.3,0.1-0.6,0.2-0.9,0.2c-0.6,0-1.1-0.4-1.4-0.9
					c-0.3-0.5,0.3-0.8,0.6-1.1c0.6-0.6,1.2-1.1,2-1.8c-1-0.4-1.5-0.3-1.9,0.4c-0.4,0.8-1,1.2-2,1c0.3-0.7,0.6-1.4,1-2.1
					c0.7-1.2,1.8-1.1,3-1.1C96.8,69.4,97.2,70,97.3,70.8z"/>
				<path fill="#7393C7" d="M27.9,22.4c1.1,1.2,2.3,2.4,3.4,3.6c0.3,0.3,0.3,0.6-0.1,0.8c-0.3,0.3-0.7,0.5-1.1,0.1
					c-0.6-0.5-1.1-1.1-1.8-1.7c-0.3-0.3-0.5-0.9-1-0.6c-0.4,0.2-0.2,0.7-0.2,1.1c0.1,0.9-0.2,1.7-1.1,2.1c-0.4-1.2,0.3-2.6-0.6-3.7
					C26,23.2,26.6,22.3,27.9,22.4z"/>
				<path fill="#406395" d="M90.5,34.3c0,1.2-0.8,2-2.1,2c-1.3,0-2-0.8-2.1-2c0-1.2,1-2.1,2.2-2.1C89.8,32.2,90.6,33,90.5,34.3z"/>
				<path fill="#406495" d="M23.6,83.3c1.3,0,2,0.7,2,2c0,1.2-0.9,2.1-2,2.1c-1.1,0-2.1-0.9-2.1-2.1C21.5,84.1,22.3,83.3,23.6,83.3z
					"/>
				<path fill="#7493C7" d="M84.8,82.6c0.6-0.8,1.2-1.7,1.9-2.4c0.5,1.1,1.6,1.8,2.2,2.8c0.4,0.6,1,0.5,1.4-0.3
					c0.2-0.4,0.2-1.2,1.1-0.7c-0.4,0.5-0.7,1.1-1.1,1.6c-0.4,0.4-0.8,0.9-1.1,1.3c-1-0.2-1.4-1.1-2.1-1.7c-0.2-0.2-0.4-0.5-0.7-0.3
					c-0.2,0.1-0.2,0.4-0.2,0.7c0,1,0.1,2-1.1,2.5C84.7,84.9,85.4,83.7,84.8,82.6z"/>
				<path fill="#7393C6" d="M45.5,8.7c-0.2,0.4-0.6,0.7-1,1c-0.9-0.2-0.9-0.9-0.5-1.4c0.3-0.5,0.3-1,0.3-1.5
					c0.1-1.2,1.1-0.9,1.7-1.2c0.2-0.1,0.5-0.2,0.7-0.3c1-0.5,2-1.2,3.2-0.5l0,0c0.3,0.4,0.8,0.7,0.8,1.4c0,0.7-0.2,1.1-1,1
					c-0.1,0.1-0.2,0.1-0.3,0.2c-0.2,0-0.5,0-0.5-0.2c-0.4-1.2-1.1-0.8-1.6-0.3C46.6,7.6,46,8,45.5,8.7z"/>
				<path fill="#7393C7" d="M29.2,16.4c0.1-0.1,0.2-0.2,0.2-0.2c0.5-0.3,1.1-0.6,1.5-1.1c0.7-0.4,1.4-0.2,2.1,0.1l0,0
					c0.6,0.7,1,1.5,1.7,2c1,0.7,0.7,1.4,0.2,2.1c-0.2-0.1-0.3-0.2-0.4-0.3c-0.6-0.6-1-1.4-1.9-1.5c-0.7-0.1-1.5,0-2.1,0.5
					c-0.6,0.4-0.7,1.2-1.1,1.8c-0.1,0.1-0.2,0.1-0.3,0C28.5,18.5,28.5,17.4,29.2,16.4z"/>
				<path fill="#4F709F" d="M38.7,12.7c1.2,1.7,0.1,3.4-2.3,4.1c0.1,0.3,0.4,0.2,0.6,0.2c-0.3,0.3-0.7,0.4-0.9,0
					c-0.5-1.1-1.6-1.4-2.5-1.9c1.4-0.2,1.8-1.4,2.7-2.2c0.1,0,0.1,0.1,0.2,0.2c0.3,0.5,0.3,1.2,1,1.2c0.8,0,0.8-0.8,1-1.3
					C38.5,12.9,38.6,12.8,38.7,12.7z"/>
				<path fill="#406496" d="M18.3,35.3c0-0.8,0.9-1.7,1.7-1.7c0.8,0,1.6,0.9,1.6,1.7c0,0.8-0.8,1.6-1.6,1.6
					C19,37,18.3,36.3,18.3,35.3z"/>
				<path fill="#426596" d="M35.1,18.8c0,0.2,0,0.3,0,0.5c-0.1,2.6-1.5,3.7-3.9,3.2c-1.2,0-1.6-0.9-1.9-1.8
					c-0.1-0.3-0.1-0.7,0.2-0.9l0,0c0.5-0.2,0.8,0.3,1.1,0.5c1.3,0.8,2.4,0.6,3.3-0.7C34.3,19.1,34.5,18.6,35.1,18.8z"/>
				<path fill="#4F709F" d="M27.9,22.4c-1,0.3-1.6,1.1-2.4,1.7c-0.3,0.2-0.7,0.5-1,0.7c-0.3-0.6-0.9-0.4-1.4-0.5
					c-0.2,0-0.5,0.1-0.6-0.2c-0.1-0.3,0.2-0.5,0.4-0.7c0.3-0.4,0.8-0.3,1.2-0.3c0.6,0,1.3,0.3,2-0.2c-0.3-0.3-0.6-0.6-0.8-0.9
					c-0.5-0.5-0.2-0.9,0.2-1.2c0.4-0.4,0.6-0.2,0.9,0.2c0.4,0.5,0.9,0.9,1.5,1.2C27.9,22.2,27.9,22.3,27.9,22.4z"/>
				<path fill="#7393C7" d="M29.6,20.7c0.4,0.7,1,1.3,1.7,1.7c-0.1,0.5-0.2,1-0.7,1.1c-0.6,0.1-0.8-0.4-1.1-0.7
					c-0.5-0.5-0.7-1.3-1.5-1.4c-0.3-0.8-0.3-1.6-0.2-2.4c0.2-0.4,0.5-0.3,0.7,0C28.8,19.6,29.2,20.1,29.6,20.7z"/>
				<path fill="#4F709F" d="M46,5.6c-0.6,0.4-1.3,0.6-1.7,1.2C44.1,6.9,44,7,43.8,7c0.2-0.5-0.1-0.8-0.4-1.1c-0.4-0.3-0.8-0.7-1.2-1
					c-0.5-0.4-0.2-0.8,0.1-1.1c0.3-0.4,0.7-0.4,1-0.1c0.5,0.4,0.9,0.8,1.3,1.3C45,5.4,45.4,5.6,46,5.6z"/>
				<path fill="#7393C7" d="M40.9,12.6c0-1.5,0.9-2.8,1.5-4.1c0.3,0,0.6-0.3,0.8,0.2c0.4,1-0.1,2.8-1.1,3.3
					C41.7,12.2,41.3,12.4,40.9,12.6z"/>
				<path fill="#7393C6" d="M99,65.6c0,0.3-0.1,0.7-0.3,0.9c-0.5,0.3-0.8,0.7-1,1.3c-0.1,0.4-0.4,0.6-0.9,0.5
					c-0.6-0.2-0.4-0.6-0.3-0.9c0.2-1,0.9-1.6,1.8-2C98.8,65.1,98.9,65.2,99,65.6z"/>
				<path fill="#4D6F9F" d="M49.4,7.3L49.4,7.3l0.2,0c0.2,0.3,0.5,0.2,0.7,0.2c-0.6,0.8-1.3,1.6-2.2,0.3c-0.1-0.1-0.5-0.1-0.7-0.1
					C47.5,7,48,7.1,48.5,7.2C48.8,7.2,49.1,7.5,49.4,7.3z"/>
				<path fill="#4E6F9D" d="M49.9,4.8c-1.1-0.1-2.1,0.3-3.2,0.5c0.6-0.5,0.6-0.9,0-1.4c-0.7-0.6-1.4-1.3-2-1.9
					c0.2-0.5,0.7-0.2,0.8-0.5c0.4,0,0.8,0,1.2,0c0.6,0.8,1,2,2.5,1.6c0.3-0.1,1.2,0.3,0.7,1.1C49.7,4.4,49.7,4.6,49.9,4.8z"/>
				<path fill="#4F709F" d="M36.5,12.5c-1-0.6-1.5,0.3-1.9,0.9c-0.3,0.6-0.7,1-1.3,0.6c-0.6-0.4-0.1-0.9,0.2-1.4
					c0.6-1.2,1.5-1.8,2.9-1.7c1,0.1,1.7,0.5,2,1.5C37.8,12.8,37.2,12.8,36.5,12.5z"/>
				<path fill="#7192C4" d="M36.5,12.5c0.6-0.3,1.3-0.3,1.9,0c0.1,0.1,0.2,0.2,0.2,0.2c0,0.1,0,0.2,0,0.2c0.1,0.9,0,1.7-1.1,1.8
					c-0.9,0.1-1.3-0.6-1.4-1.8C36.4,12.8,36.4,12.6,36.5,12.5z"/>
				<path fill="#4E709F" d="M33.1,15.1c-0.7,0.1-1.5-0.2-2.2,0.2c-0.2,0.1-0.3,0.1-0.5,0c0.3-0.6-0.3-0.8-0.6-1.1
					c-0.4-0.4-0.5-0.7,0-1.2c0.5-0.4,0.8-0.3,1.1,0.1C31.6,13.9,32.4,14.4,33.1,15.1z"/>
				<path fill="#688ABF" d="M29.6,20.7c-0.7-0.2-1.1-0.9-1.4-1.5c-0.2-0.3-0.3-0.3-0.5-0.2c0.3-1.1,0.5-2.2,1.7-2.7
					c-0.4,1.2-0.5,2.3,0.2,3.4C29.6,20.1,29.6,20.4,29.6,20.7z"/>
				<path fill="#688ABF" d="M30.5,15.4c0.2,0,0.3,0,0.5,0c-0.4,0.4-0.9,0.6-1.5,0.7C29.7,15.7,30.1,15.6,30.5,15.4z"/>
				<path fill="#688AC3" d="M59.3,9.1c0-1.4,1.1-2.5,2.5-2.5c1.3,0,2.5,1.2,2.5,2.6c0,1.3-1.1,2.4-2.5,2.4
					C60.3,11.6,59.3,10.6,59.3,9.1z"/>
				<path fill="#4D6F9D" d="M55.5,2c-0.6,0.3-1.1,0.5-1.1,1.3c0,0.3-0.4,0.6-0.6,0.3c-0.4-0.5-0.5-1.4-1.3-1.7
					c-0.1,0,0.3-0.4,0.5-0.3C53.8,2.1,54.5,1.7,55.5,2z"/>
				<path fill="#698AC2" d="M89.6,76.1c0.2-0.2,0.3-0.5,0.5-0.7c1.4-0.5,2.4,0,2.4,1.1c0,0.6-0.3,1.1-0.9,1.3
					c-0.7,0.2-1.3-0.1-1.7-0.8C89.8,76.7,89.7,76.4,89.6,76.1z"/>
				<path fill="#7593C8" d="M86.7,80c0.5-0.6,1-1.1,1.4-1.7c0.3,0.8,1,1.4,1.7,2c0.4,0.4,0.6,0.8,0.1,1.3c-0.6,0.6-0.9,0.1-1.3-0.3
					C88.1,80.6,87.8,79.7,86.7,80z"/>
				<path fill="#688AC2" d="M82.4,75.3c0.3,2.4-2.1,5.4-5.4,5.3c-2.9-0.1-5.3-2.4-5.3-5.5c0-3,2.3-5.2,5.3-5.2
					C80.1,69.9,82.3,72,82.4,75.3z"/>
				<path fill="#688AC2" d="M74.7,28.9c3.3-0.3,6.3,2.8,6.3,6.3c0,3.3-2.9,6.1-6.4,6.1c-3.5,0-6.2-2.7-6.2-6.2
					C68.4,31.8,71.5,28.5,74.7,28.9z"/>
				<path fill="#688AC2" d="M49.4,7.3c-0.6,0.5-1.4-0.1-1.9,0.5c-0.8,0.1-1.2,0.7-1.9,1c0-0.1-0.2-0.3-0.1-0.3c1-0.9,1.6-2.1,3-2.5
					C48.9,5.9,49,6.1,49,6.5C48.9,6.7,48.8,7.2,49.4,7.3z"/>
				<path fill="#4F709E" d="M35.1,18.8c-0.3,0.2-0.6,0.3-0.8,0.7c-1,2-2.8,2.2-4.3,0.6c-0.1-0.1-0.3-0.3-0.4-0.4
					c0-0.8,0.3-1.5,0.9-2c0.4,0.1,0.4,0.4,0.6,0.7c0.3,0.6,0.8,0.8,1.4,0.6c0.6-0.2,0.6-0.7,0.5-1.3c-0.1-0.2-0.2-0.5,0-0.7
					C34.1,17.2,34.5,18.1,35.1,18.8z"/>
				<path fill="#416496" d="M33,17.1c0.5,0.7,0.8,1.5,0.1,2.1c-0.7,0.6-1.4,0.4-2.1-0.1c-0.5-0.4-0.1-0.9-0.5-1.3
					C31.2,16.9,32.1,17.1,33,17.1z"/>
			</g>
		</g>
	</g>
</g>
</svg>
