<?xml version="1.0" encoding="utf-8"?>
<!-- Generator: Adobe Illustrator 25.0.0, SVG Export Plug-In . SVG Version: 6.00 Build 0)  -->
<svg version="1.1" id="Layer_1" xmlns="http://www.w3.org/2000/svg" xmlns:xlink="http://www.w3.org/1999/xlink" x="0px" y="0px"
	 width="105.5px" height="129px" viewBox="0 0 105.5 129" style="enable-background:new 0 0 105.5 129;" xml:space="preserve">
<style type="text/css">
	.st0{fill:#48A6DD;}
	.st1{fill:#FFFFFF;}
	.st2{fill:#231F20;}
	.st3{fill:#F5F5E5;}
	.st4{fill:#E7E6D4;}
	.st5{fill:#DEDCCD;}
	.st6{fill:#18170E;}
	.st7{fill:#090804;}
	.st8{fill:#A2A18B;}
	.st9{fill:#F1F1E0;}
	.st10{fill:#323226;}
	.st11{fill:#D9D9C8;}
	.st12{fill:#F6F5EB;}
	.st13{fill:#1A1B11;}
	.st14{fill:#B2AF9B;}
	.st15{fill:#CFCCBE;}
	.st16{fill:#1E1D16;}
	.st17{fill:#2D2D21;}
	.st18{fill:#C3C2B1;}
	.st19{fill:#DDDBCA;}
	.st20{fill:#12100A;}
	.st21{fill:#D1CDBF;}
	.st22{fill:#858574;}
	.st23{fill:#0F0F0A;}
	.st24{fill:#222118;}
	.st25{fill:#A2A08D;}
	.st26{fill:#303124;}
	.st27{fill:#3E3E35;}
	.st28{fill:#646455;}
	.st29{fill:#15140E;}
	.st30{fill:#27271D;}
	.st31{fill:#3B3A32;}
	.st32{fill:#0C0C07;}
	.st33{fill:#6A6857;}
	.st34{fill:#C8C5B4;}
	.st35{fill:#211F1E;}
	.st36{fill:#1A1B18;}
	.st37{fill:#1F1F1B;}
	.st38{fill:#3D3E38;}
	.st39{fill:#86857C;}
	.st40{fill:#1C1B11;}
	.st41{fill:#282924;}
	.st42{fill:#DEDCCB;}
	.st43{fill:#E6E5D4;}
	.st44{fill:#CFCDBC;}
	.st45{fill:#D5D3C3;}
	.st46{fill:#DAD9C7;}
	.st47{fill:#B8B4A0;}
	.st48{fill:#C1BEAB;}
	.st49{fill:#C1BDAB;}
	.st50{fill:#27281C;}
	.st51{fill:#26251A;}
	.st52{fill:#302E29;}
	.st53{fill:#BDBCA9;}
	.st54{fill:#686855;}
	.st55{fill:#B0AF9A;}
	.st56{fill:#84846F;}
	.st57{fill:#9FA088;}
	.st58{fill:#7E7E68;}
	.st59{fill:#908F79;}
	.st60{fill:#686852;}
	.st61{fill:#73725C;}
	.st62{fill:#464638;}
	.st63{fill:#5B5C49;}
	.st64{fill:#4E4E41;}
	.st65{fill:#454538;}
	.st66{fill:#C6C4B5;}
	.st67{fill:#B4B19E;}
	.st68{fill:#A09D88;}
	.st69{fill:#8B8774;}
	.st70{fill:#9F9C84;}
	.st71{fill:#9E9A86;}
	.st72{fill:#B6B3A0;}
	.st73{fill:#C3C1B0;}
	.st74{fill:#414033;}
	.st75{fill:#4D4D3E;}
	.st76{fill:#525241;}
	.st77{fill:#60624A;}
	.st78{fill:#615F4E;}
	.st79{fill:#4B4B3D;}
	.st80{fill:#17160F;}
	.st81{fill:#ACAB95;}
	.st82{fill:#BCBAA7;}
	.st83{fill:#C6C3B3;}
	.st84{fill:#C4C3B1;}
	.st85{fill:#CCCABA;}
	.st86{fill:#ADAA95;}
	.st87{fill:#A3A08A;}
	.st88{fill:#A39F8D;}
	.st89{fill:#3D3D2F;}
	.st90{fill:#2F2E23;}
	.st91{fill:#252419;}
	.st92{fill:#39392B;}
	.st93{fill:#858470;}
	.st94{fill:#9D9C87;}
	.st95{fill:#ACA896;}
	.st96{fill:#6B6C59;}
	.st97{fill:#7C7D69;}
	.st98{fill:#6B6B57;}
	.st99{fill:#676751;}
	.st100{fill:#5D5E4C;}
	.st101{fill:#616150;}
	.st102{fill:#4F4F40;}
	.st103{fill:#51513F;}
	.st104{fill:#757663;}
	.st105{fill:#1C1D0C;}
	.st106{fill:#232317;}
	.st107{fill:#8E8D82;}
	.st108{fill:#C1BEAA;}
	.st109{fill:#908C79;}
	.st110{fill:#797563;}
	.st111{fill:#8B8973;}
	.st112{fill:#747260;}
	.st113{fill:#B0AE9A;}
	.st114{fill:#575747;}
	.st115{fill:#444233;}
	.st116{fill:#A5A48D;}
	.st117{fill:#A5A58E;}
	.st118{fill:#9E9D86;}
	.st119{fill:#B7B6A2;}
	.st120{fill:#999783;}
	.st121{fill:#8B8872;}
	.st122{fill:#9B9981;}
	.st123{fill:#A4A38F;}
	.st124{fill:#AEAA95;}
	.st125{fill:#B8B7A3;}
	.st126{fill:#BCBBA9;}
	.st127{fill:#A29F8A;}
	.st128{fill:#9B9782;}
	.st129{fill:#888470;}
	.st130{fill:#3A382D;}
	.st131{fill:#777662;}
	.st132{fill:#767262;}
	.st133{fill:#999884;}
	.st134{fill:#93927E;}
	.st135{fill:#AEAC98;}
	.st136{fill:#76755F;}
	.st137{fill:#7F7E68;}
	.st138{fill:#666653;}
	.st139{fill:#71715E;}
	.st140{fill:#565545;}
	.st141{fill:#7B7966;}
	.st142{fill:#72725E;}
	.st143{fill:#ACAC97;}
	.st144{fill:#928E79;}
	.st145{fill:#6E6B5B;}
	.st146{fill:#646351;}
	.st147{fill:#AEAC96;}
	.st148{fill:#B7B5A1;}
	.st149{fill:#B7B59E;}
	.st150{fill:#76745F;}
	.st151{fill:#AEAB95;}
	.st152{fill:#96937E;}
	.st153{fill:#A19D8A;}
	.st154{fill:#AEAB96;}
	.st155{fill:#8E8B73;}
	.st156{fill:#CBC8B6;}
	.st157{fill:#E7E5D4;}
	.st158{fill:#88846F;}
	.st159{fill:#4B4A3C;}
	.st160{fill:#8A8874;}
	.st161{fill:#85826D;}
	.st162{fill:#ABA794;}
	.st163{fill:#A9A590;}
	.st164{fill:#98967F;}
	.st165{fill:#87836E;}
	.st166{fill:#C8C7B3;}
	.st167{fill:#A6A491;}
	.st168{fill:#BAB6A1;}
	.st169{fill:#979580;}
	.st170{fill:#8C8B72;}
</style>
<g>
	<path class="st0" d="M90.8,126.5H15c-2.2,0-4-1.8-4-4v-23c0-2.2,1.8-4,4-4h75.8c2.2,0,4,1.8,4,4v23C94.8,124.7,93,126.5,90.8,126.5
		z"/>
	<g>
		<path class="st1" d="M31.9,113c-0.1-2-0.1-4.4-0.1-6.8h-0.1c-0.5,2.1-1.2,4.4-1.8,6.4l-2,6.4H25l-1.8-6.4
			c-0.5-1.9-1.1-4.3-1.5-6.4l0,0c-0.1,2.2-0.2,4.8-0.3,6.8l-0.3,6.3h-3.4l1.1-16.5h5l1.6,5.5c0.5,1.9,1,4,1.4,5.9h0.1
			c0.5-1.9,1-4.1,1.6-5.9l1.8-5.5h4.9l0.9,16.5h-3.6L31.9,113z"/>
		<path class="st1" d="M53.7,110.9c0,5.4-3.3,8.7-8.1,8.7c-4.9,0-7.7-3.7-7.7-8.4c0-4.9,3.2-8.6,8-8.6
			C51,102.6,53.7,106.3,53.7,110.9z M41.8,111.1c0,3.2,1.5,5.5,4,5.5s4-2.4,4-5.6c0-3-1.4-5.5-4-5.5
			C43.3,105.5,41.8,107.9,41.8,111.1z"/>
		<path class="st1" d="M71.2,110.9c0,5.4-3.3,8.7-8.1,8.7c-4.9,0-7.7-3.7-7.7-8.4c0-4.9,3.2-8.6,8-8.6
			C68.5,102.6,71.2,106.3,71.2,110.9z M59.3,111.1c0,3.2,1.5,5.5,4,5.5c2.5,0,4-2.4,4-5.6c0-3-1.4-5.5-4-5.5
			C60.8,105.5,59.3,107.9,59.3,111.1z"/>
		<path class="st1" d="M73.7,119.3v-16.5H78l3.4,6c1,1.7,2,3.8,2.7,5.6h0.1c-0.2-2.2-0.3-4.4-0.3-6.9v-4.8h3.4v16.5h-3.9l-3.5-6.4
			c-1-1.8-2.1-3.9-2.9-5.8h-0.1c0.1,2.2,0.1,4.5,0.1,7.2v5h-3.3C73.7,119.2,73.7,119.3,73.7,119.3z"/>
	</g>
</g>
<circle class="st2" cx="53" cy="52.3" r="51.2"/>
<g>
	<path class="st3" d="M8.2,76.9c-5.4-9.7-7.4-20-5.9-31C3.6,47.3,3,49,3,50.6c0,1.6,0.1,2.9,1.8,3.8c-1.9-1.1-1.5-2.8-1.5-4.5
		c0-2.1,1.1-4,0.4-6.1c-0.2-0.5,0.5-0.6,0.9-0.6c0.5,0.2,1,0.6,1.1,1.1c0.3,2.7,1.8,5.2,1.1,8c-0.3,1.2-0.6,2.4,0.1,3.6
		c0.4,0.8,0.3,1.6-0.9,1.8c-0.5,0-0.8,0.2-0.8,0.7C5.4,59.1,5.6,59,6,58.8c0.5-0.3,0.9-0.4,1.3,0.2C7.6,60,7.8,60.9,7,62
		c-0.6,0.9,0.2,2.2,0.4,3.3c0.1,0.2,0.2,0.4,0.2,0.6c0.2,0.9-1.3,1.4-0.6,2.5c0.2,0.1,0.3,0.2,0.4,0.3c0.7,0.2,1.1-0.8,1.9-0.3
		c0.5,0.6,0.9,1.4,1,2.2c-0.1,0.9,0.5,1.3,1,1.9c0.2,0.2,0.4,0.5,0.6,0.7c0.9,1.2,1.8,2.5,0.9,4C12,78.1,9.9,77.9,8.2,76.9z"/>
	<path class="st4" d="M20.7,92c-0.8-0.4-1.3-1.1-1.9-1.7c-1.2-1.7-1.6-3.9-3.9-5c-1.7-0.8-2.2-3-2-4.6c0.2-2.1-0.3-4.1,0.2-6.1
		c0.1-0.2,0.2-0.4,0.4-0.5c1.8-0.3,1.9,2,3.3,2.3c1,2,3,3.2,4.3,5c0.1,0.8-0.3,1.5-1,1.7c-1.4,0.4-1.2,1.3-0.9,2.2
		c0.6,2.2,1.6,4.1,3.7,5.1c0.4,0.2,0.6,0.4,0.4,0.9C22.7,92.2,21.8,92.5,20.7,92z"/>
	<path class="st5" d="M8.7,26.9c5.5-9.9,13.5-17.1,24-21.5c1.6-0.2,2.6,0.3,2.6,2C35.2,7.8,35,8,34.7,8.1c-2.2,0.2-3.7,1.7-5,3.3
		c-0.6,0.8-1.4,0.8-2.1,0.2c-0.9-0.7-1.7-0.5-2.6,0.2c-1.6,1.2-3.2,2.5-4.6,3.8c-1.8,0.9-3.1,2.3-3.7,4.2c-0.3,0.4-0.7,0.8-1.1,1.1
		c-1.9,1.5-3.2,3.5-4.8,5.3C10.1,26.7,9.9,28.3,8.7,26.9z"/>
	<path class="st6" d="M47.1,73.7c2.7,1.9,2.8,2.3,1.8,4.9c-0.1-0.1-0.2-0.2-0.3-0.3c-0.2,0.3,0.2,0.2,0.3,0.3
		c-0.1,2.2-0.3,4.5-0.4,6.7c-1.8-0.7-1.8-0.7-1.3-3.6c-0.4,0.8-0.8,1.7-1.6,0.5c-0.6-0.9-1.5-1.4-2.3-2c-0.5-1.8-0.9-3.5-0.6-5.4
		c0.1-0.8,0-1.6-0.5-2.3C42,72.5,42,72.3,42,72.1c0.2-0.8,1-1,1.5-1.6c-1.4-0.5-2.1-1.1-0.8-2.5c0.5-0.5-0.4-0.3-0.4-0.6
		c-0.2-0.1-0.3-0.3-0.3-0.5c-0.3-2.3,0.1-2.9,1.5-2.5c0.9,0.2,1.4,0.7,1.3,1.7c-0.1,0.5-0.3,1-0.2,1.5c0,0.2,0.1,0.4,0.2,0.6
		c0-0.2-0.1-0.4,0-0.7c0.6-0.6,0.6-1.3,0.5-2c0.1-0.3,0.4-0.5,0.7-0.5c1,0.3,1.5,0.9,1.2,2c-0.1,1.4-1.6,2.5-1,4.1
		c0,0.1-0.5,0.5-0.7,0.7c-0.3,0.2-1.2-0.2-0.9,0.8c0.3,1.1,1-0.5,1.4,0.2c0.3,1.4-0.9,2.4-0.9,4C45.7,75.7,45.9,74.3,47.1,73.7z"/>
	<path class="st7" d="M46.2,43.4c-0.4,2.6-0.8,5.2-1.2,7.7c-0.1,0.4-0.6,0.2-1,0.3c-0.3-0.5-0.2-1-0.1-1.5c0.4-2,0.5-3.9-0.2-5.9
		c0.1-0.5,0.2-0.9,0.3-1.4c0.9-2.3-0.3-4.6,0.1-6.8c0.2-1,0.2-1.9,1.6-1.3c-1.4-0.8-1.9-1.9-1.5-3.5c0.8-3.7,1.2-7.5,1.5-11.2
		c0.1-1.1,0.3-2.2,1.4-2.9c0.4-0.2,0.7-0.1,1,0.1c-0.1,1.3-1.5,2.6,0.1,3.9c0.1,0.1-1,1-1,1.9c-0.1,1.7-0.5,3.4-0.4,5.1
		c0,1.4-1.4,2.3-0.9,3.8c0.1,0.4-0.2,1,0.4,1.1c0.3,0.1,0.7-0.1,1-0.3c0.5-0.3,0.7-1.9,1.4-0.6c0.3,0.5,0.6,1.7,0.1,2.8
		c-0.6,1.4-2.4,1.6-2.6,2.4c-0.5,1.7-1.3,3.7,0,5.4C46.4,42.8,46.5,43.1,46.2,43.4z"/>
	<path class="st8" d="M40.7,101.9c-0.6-0.2-1.2-0.3-1.8-0.5c0.3-0.4,0.6-0.4,0.9-0.2c-0.1-0.2-0.4-0.2-0.6-0.3
		c-0.8-0.9-1.6-1.8-2.6-2.6c-0.3-0.7-0.8-1.2-1.4-1.6c-1.2-0.9-1.6-3.3-0.9-4.8c1.1-0.6,1.8-1.6,2.8-2.3c0.5,0.2,0.6,0.7,1,1.1
		c0.4,0.5,0.6,1,0.6,1.6c0.1,0.5-0.3,0.8-0.3,1.2c0,0.1,0,0.3,0.1,0.3c0.1,0,0.2-0.1,0.3-0.2c1.1,0,1.9-1.1,3.1-0.8
		c0.2,0.3,0.3,0.5,0.4,0.9c0.1,0.5,0.1,1,0,1.6c-0.1,1-0.2,2,0.1,2.9c0,0.5-0.1,1-0.3,1.5c0.6,0.3-1.6,0.2-0.1,0.7
		c0.4,0.1,0.8,0.3,0.8,0.9C42.3,102.3,41.5,102.1,40.7,101.9z"/>
	<path class="st9" d="M13.6,74.2c0.2,1.9-0.4,3.8,0.4,5.6c0.4,0.8,0.4,1.7,0.6,1.8c-1.3,1.2-0.7,2.8,1.4,3.6c1,0.4,3,4,2.8,5.1
		c-4.5-3.7-8.1-8.2-10.6-13.4c1.1-0.6,1.8,0.9,3.1,0.4c0.9-0.4,1.2-0.4,1.1-1.5C12.2,74,11,73.1,10,71.9c-0.3-0.4-1.5-0.9,0-1.3
		c0.9-0.6,1.3,0.1,1.5,0.7C12,72.5,12.9,73.2,13.6,74.2z"/>
	<path class="st10" d="M43.5,80.4c1.6-0.3,2,1.1,2.7,2.1c0.8-0.6,0.1-1.6,0.7-2.2c0.7-0.1,0.9,0.5,0.8,1c-0.4,1.5-0.7,2.9,0.7,4.1
		c-0.5,1.2,0.4,2.5-0.4,3.6c-0.3,0-0.6-0.2-0.8-0.4c-0.7-0.7-1.1-1.5-1.3-2.4c-0.1-0.5-0.1-0.9,0.1-1.6c-0.5,0.5-0.6,1-1.2,1
		c-1.1-0.5-1-1.8-1.7-2.6c-0.3-1.2-1.4-1.4-2.3-1.8c-2.2-1.1-2.4-1.5-1.7-4c0.1-0.5-0.1-0.9-0.2-1.3c-0.2-0.6-0.4-1.3-0.1-1.9
		c1.3-2.7,1.6-5.6,1.1-8.5c1.5-0.4,1.6,1.2,2.4,1.7v0c0,1.6-0.5,3.3,0,4.9c0,0.1,0,0.3,0,0.4c-0.9,1.7,0.2,3.6-0.5,5.5
		C41.3,79.1,42.3,80,43.5,80.4z"/>
	<path class="st11" d="M20.7,92c0.9-0.3,1.8-0.6,2.7-0.9c0.4-0.4,0.9-0.2,1.1,0.2c0.5,1.3,1.7,1.7,2.8,2.3c0.6,0.3,1.1,0.8,1.8,1
		c0.8,0.4,1.6,0.7,2.3,1.4c0.8,0.8,2,0.8,3,1.2c0.3,0.1,0.6,0.3,0.8,0.5c0.1,0.9,0.8,2.1-1.1,1.9C29,98.2,24.8,95.2,20.7,92z"/>
	<path class="st12" d="M4.7,43.4C4,43.5,4,43.7,4.3,44.3c0.5,1,0,2,0,2.9c0,2.1-1.7,4.4,0.5,6.4c0.6,0.6,0.4,1.6-0.3,2.7
		c-0.5-1-0.2-2.3-1.7-2.5c-0.9-0.1-0.5-1-0.5-1.5c-0.1-2.1-0.1-4.3-0.1-6.4c-0.1-1.7,0.3-3.2,0.8-4.8c0.8-0.6,0-1.6,0.6-2.2
		c-0.1-0.1-0.1-0.3,0.1-0.4c1.3,0,1.2,0.9,1,1.7c-0.1,0.8-0.4,1.6,0,2.4C5,42.9,4.9,43.2,4.7,43.4z"/>
	<path class="st13" d="M44,43.9c1.5,2.5,0.7,5.1,0,7.6c-0.2,2.7,0.1,5.1,2.7,6.7c0,0.7-0.7,1.7,0.9,1.6c0.6,0,0.9,0.4,0.5,1
		c-0.4,0.3-0.9,0.6-1.3,0.9c-0.1,0-0.2,0-0.3,0c-0.5,0.1-1.1,0.2-1.5-0.4c-0.4-0.8-1-1.5-1.6-2.1c-1.3-1.4-1.5-3-1.2-4.7
		c0.6-2.9,1.1-5.9,0.8-8.9C42.9,44.8,42.6,43.8,44,43.9z"/>
	<path class="st14" d="M37.6,3.6c0.9-0.6,2-0.8,3.1-0.9c1.8-0.5,2.6,0.6,3.3,2c0,0.2-0.1,0.4-0.3,0.5c-0.5,0.3-1.1,0.2-1.5,0.7
		c-0.3,0.4-0.7,0.8-1.1,1.2c-0.4,0.4-0.7,0.9-1.1,1.3c-1.6,1.2-3.4,1.9-4.9,3.3c-0.6,0.3-1.2,0.5-1.8,0.2c-0.1-0.2-0.2-0.4-0.2-0.6
		c1-1.6,2.2-3,4-3.9c0.7-0.4,1.4-0.7,1.7-1.6c0.1-0.2,0.2-0.3,0.3-0.5c0-0.3,0.8,0,0.3-0.5c-0.3-0.1-0.6-0.2-0.9-0.4
		C38.1,4.2,37.8,4,37.6,3.6z"/>
	<path class="st15" d="M8.7,26.9c1.2,0.9,1-1,1.8-0.9c1.5,1.4,1.6,3,0.9,4.8c-0.1,0.3-0.3,0.6-0.6,0.7c-0.8-0.2-0.9,0.9-1.6,0.8
		c-1.8,0-2.1-0.9-1.7-2.4c0.2-0.6,0.6-1.1,0.4-1.7C8,27.7,8.3,27.2,8.7,26.9z"/>
	<path class="st16" d="M48.9,9.9c-1,1.6-1.3,3.1,0.5,4.5c1,0.8,0.1,1.7-0.3,3c-0.3-1.4-0.1-2.9-1.9-2.6c-0.1-0.1-0.2-0.1-0.2-0.2
		c-0.2-0.3,0-0.9-0.4-0.9c-2.3-0.2-1.5-1.4-0.7-2.5c0.6-0.2,0.6-0.7,0.8-1.2C47.2,8.4,47.6,8.4,48.9,9.9z"/>
	<path class="st17" d="M48.9,9.9c-1.1-0.8-1.9-1.2-1.8,0.8c0.1,0.9-0.6,1-1.3,1c-0.7-0.8-0.6-1.7-0.4-2.7c1.8-1.2,2.9-3.1,4.7-4.4
		c0.1,0,0.2-0.1,0.3-0.1C50.6,5.9,51,7.3,49.4,8C48.2,8.5,50,9.6,48.9,9.9z"/>
	<path class="st18" d="M34.1,99.7c1.4-0.1,0.5-1.3,1-1.8c0.9-1.1,1.3-0.2,1.8,0.4c1.5,0.2,2.1,1.4,2.8,2.5c0.3,0.4,0.3,0.4-0.7,0.7
		C37.2,101.2,35.6,100.6,34.1,99.7z"/>
	<path class="st3" d="M4.7,42.5c-1.4-0.2-0.4-1.1-0.4-1.7c-0.1-0.8,0.9-1.7-0.4-2.3c0.5-2.5,1.3-4.9,2.6-7.2c1,0.1,0.7,0.9,0.7,1.4
		c-0.1,1.1-0.4,2.1-0.7,3.1C5.7,38.1,5.9,40.5,4.7,42.5z"/>
	<path class="st19" d="M6,35.8c-0.1-1.5,1.1-2.9,0.4-4.5c0.2-1.2,0.8-2.1,1.4-3.1c0.8,1.2-0.7,2.4,0.1,3.6c0.4-0.1,1.4-1.3,1.2,0.4
		C9,34.3,7.6,35.4,6,36.4C5.8,36.2,5.8,36,6,35.8z"/>
	<path class="st20" d="M47.1,67.1c-0.4-0.7-0.5-1.5-1.3-1.8c-0.4-0.4-0.5-0.9-0.3-1.5c0.3-0.8,1.3-0.1,1.7-0.8
		c1.1-0.1,1.9,0.6,1.7,1.5c-0.3,1.3,0.3,2.4,0.2,3.7C48.3,67.8,47.7,67.4,47.1,67.1z"/>
	<path class="st21" d="M38.6,4.1c0.3,0.2,0.6,0.3,0.9,0.5c0.3,0.5-0.2,0.6-0.4,0.9l0,0c-0.8,1.7-2.8,1.5-4,2.6C35,8,35,8,35,7.9
		c0-0.1,0-0.1,0-0.2c0-1.6-1.2-1.9-2.3-2.2c0.7-0.5,1.4-0.8,2.2-0.9C36.1,4.3,37.4,4.6,38.6,4.1z"/>
	<path class="st22" d="M40.7,101.9c0.8-0.1,1.6,0,1.9-1c0-0.3,0.2-0.5,0.3-0.7c0.2-0.4-0.1-0.9,0.3-1.3c0.2-0.1,0.4-0.1,0.6-0.1
		c0.9,0.2,1.8,0.4,1.8,1.5c0.1,0.3-0.7,0.7,0.2,0.9c0.4,0.1,0.6,0.5,0.4,1C44.3,103.2,42.5,102.2,40.7,101.9z"/>
	<path class="st23" d="M48.5,91.6c0.9,0.5,1.9,0.9,1.7,2.2c-0.2,0.3-0.4,0.4-0.7,0.6c-0.3,0.2-0.9,0.1-0.7,0.6
		c0.5,1.5-0.4,1.4-1.3,1.4c-0.2,0-0.4-0.1-0.6-0.1c-0.6-0.4-1-0.9-1.4-1.6c0-0.7,0.6-1,1.1-1.3C47.6,93,47.7,91.9,48.5,91.6z"/>
	<path class="st24" d="M47.1,73.7c-0.6,1.1-1.1,2.3-1.7,3.4c-0.2,0.4-0.6,0.7-1.1,0.4c-0.5-0.3-0.4-0.8-0.3-1.2
		c0.5-1.2,1.1-2.4,1.7-3.5c0.1,0,0.3,0,0.4,0C46.7,72.9,46.8,73.5,47.1,73.7L47.1,73.7z"/>
	<path class="st25" d="M43.9,4.9c-1-0.8-1.6-2.3-3.2-2.2C42,2.1,43.4,2,44.8,1.9c0.3-0.2,0.6-0.2,0.9-0.1c-0.4,0.9,0.5,1.9-0.2,2.8
		c-0.4,0.4-0.8,0.6-1.4,0.6C44.1,5.1,44,5,43.9,4.9z"/>
	<path class="st26" d="M48.9,1.4c0.9,0.2,1.8-0.7,3-0.1c-1.1,0.9-1.3,2.1-1.6,3.2c0,0-0.1,0.1-0.1,0.1c-1.1,0.3-2.3,0.9-2.5-1
		C47.6,2.6,48.9,2.4,48.9,1.4z"/>
	<path class="st27" d="M50.6,101.4c-2.1,0.9,0.3,1.3,0.2,2c-0.9,0.1-1.8,0.4-2.4-0.7c-1.7-1.6-1.7-2-0.2-3.4c0.2,0,0.4,0.1,0.6,0.2
		c0.1,1.1,0.8,1.4,1.8,1.4c0.1,0.1,0.2,0.2,0.1,0.3C50.7,101.3,50.7,101.4,50.6,101.4z"/>
	<path class="st28" d="M48.4,99.6c-2,1,0,2.1,0,3.2c-0.9,1.2-1.3-0.8-2.2-0.4c0-0.8-1.6-0.7-1-1.9c0.3-0.3,0.5-0.5,0.8-0.7
		c0.6-0.4,1-1.2,1.9-1.2C48.4,98.8,48.6,99.1,48.4,99.6z"/>
	<path class="st29" d="M47.1,73.7c-0.4-0.2-0.7-0.5-0.9-0.9c1.4-1.2,1.4-2.8,1.5-4.5c0.1,1.2,0.6,2.2,1.4,3.1c0.3,0.3,0.6,1.7,0,2
		c-0.9,0.5-0.8-0.4-0.7-1c0-0.2-0.1-0.4-0.1-0.7C47.7,72.4,47.1,72.9,47.1,73.7z"/>
	<path class="st30" d="M47.5,96.1c0.1-0.7,1.7,0.2,1-0.7c-1.7-1.8,0.7-1,0.8-1.6c0.7,0.4,1.1,1.1,1.4,1.8c-0.9,0.6-1.8,1.2-2.7,1.7
		c-0.2,0.1-0.4,0.1-0.6-0.1C47.1,96.9,47.2,96.4,47.5,96.1z"/>
	<path class="st31" d="M48.5,91.6c-0.3,0.8-0.4,1.9-1.5,2.1c-0.4-0.2-0.6-0.5-0.6-0.9c0-0.2,0.1-0.4,0.1-0.6c0.7-1-0.5-1.9-0.1-2.9
		c0.2-0.6,0.5-0.8,1.1-0.8c0.2,0.2,0.3,0.3,0.5,0.5C48,89.9,47.9,90.8,48.5,91.6z"/>
	<path class="st32" d="M48,60.8c0-0.4-0.2-0.6-0.7-0.6c-0.7,0-1.6,0.3-1.9-0.7c-0.2-0.8,0.9-0.9,1.2-1.4
		C48.5,58.3,48.8,59.3,48,60.8z"/>
	<path class="st33" d="M48.9,1.4c1,1.2-0.8,1.4-0.9,2.2c0.2,1.2,0,1.8-1.4,1.1c-0.1-1,0.3-2.2-1-2.8c-0.3,0-0.6-0.1-0.8-0.1
		C46.1,1.2,47.5,1.6,48.9,1.4z"/>
	<path class="st34" d="M38.6,4.1c-1,2-2.4,0.4-3.7,0.4c0.8-0.6,1.7-0.9,2.7-0.9C38,3.7,38.4,3.7,38.6,4.1z"/>
	<path class="st35" d="M46.2,43.4c0-0.3,0-0.6-0.1-0.9c0.9-0.6,1.8-1.2,2.7-1.8c0,0,0,0,0,0C49.1,42.7,47.3,42.8,46.2,43.4z"/>
	<path class="st36" d="M50.2,84.5c0.8,1.4,0.8,1.4-1,2.9C50,86.1,49.1,85.1,50.2,84.5L50.2,84.5z"/>
	<path class="st37" d="M50.6,101.4c0-0.1,0-0.3,0-0.4c0.9-0.6,1.6-1,1.6,0.6c0,0.5,0,1-0.6,1c-0.8-0.1-0.2-0.6-0.2-1
		C51.4,100.9,50.9,101.4,50.6,101.4z"/>
	<path class="st38" d="M50.7,95.7c-1.2-0.1-0.9-1.3-1.4-1.8c0.3,0,0.6,0,0.9,0C50.6,94.3,51.4,94.8,50.7,95.7z"/>
	<path class="st35" d="M48.9,40.7c0.4-0.7,0.8-1.4,2.3-1.2C50.3,40.3,50.1,41.3,48.9,40.7C48.9,40.7,48.9,40.7,48.9,40.7z"/>
	<path class="st13" d="M47.1,63c-0.1,1.2-0.6,1.3-1.3,0.5c-0.2-0.9-0.3-1.6,0.9-1.8c0,0,0,0,0,0C46.6,62.2,46.6,62.7,47.1,63z"/>
	<path class="st39" d="M47.6,97.3c0.1,0,0.3,0.1,0.4,0.1c0.3,0.7,1.2,1.2,0.9,2.2c0,0-0.2,0-0.2,0s-0.2,0-0.2,0
		c-0.2-0.3-0.4-0.6-0.6-0.9C46.8,97.9,46.8,97.8,47.6,97.3z"/>
	<path class="st23" d="M49.8,90.7c0-0.7-0.6-1.4,0.3-2c0.6,0.5-0.1,1.5,0.6,1.9C50.4,90.9,50.1,91,49.8,90.7z"/>
	<path class="st40" d="M48,17.1c-0.3,0-0.6,0-0.9,0c-0.1,0-0.2-0.1-0.3-0.1c-0.6-0.8-1.1-1.6,0.3-2.1c0,0,0.1,0.1,0.1,0.1
		C46.9,15.8,47.6,16.4,48,17.1z"/>
	<path class="st36" d="M50.2,84.5c0.1-0.5-0.2-1.1,0.7-1.9C50.9,83.5,51.3,84.2,50.2,84.5C50.2,84.5,50.2,84.5,50.2,84.5z"/>
	<path class="st7" d="M46.1,30.5c0.2-0.1,0.4-0.3,0.5-0.3c0.4,0,0.4,0.3,0.4,0.6c0,0.1-0.3,0.2-0.4,0.3C46.4,31,46.3,30.8,46.1,30.5
		z"/>
	<path class="st41" d="M49.8,90.7c0.3,0,0.6,0,0.9-0.1c0.3,0.3,0.5,0.6,0,0.8C50.1,91.7,49.8,91.3,49.8,90.7z"/>
	<path class="st3" d="M3.8,38.9c-0.1,0.8,0.4,1.7-0.6,2.2C3.2,40.3,3.3,39.6,3.8,38.9z"/>
	<path class="st42" d="M6,35.8c0,0.2,0,0.3,0,0.5c0.5,0.5,0.9,1.1,0.7,1.8c-0.9,3,0.5,5.8,0.5,8.8c0.8,3.2-0.4,6.7,1.2,9.8
		c0,0.4-0.1,0.9-0.1,1.3c0,0.7,0,1.4-0.4,1.9c-1,0.5-0.7-0.6-1-0.8c-0.3-0.5-0.6,0-0.9,0c-0.6-0.5-1-1-0.5-1.8
		c1.4,0.6,1.4-0.4,0.8-1c-1-1.3-0.6-2.4-0.3-3.7c0.8-3.2-0.5-6.2-1.5-9.1c0-0.3,0-0.6,0-0.9C4.8,40.2,5.2,38,6,35.8z"/>
	<path class="st9" d="M6.9,59c0.3,0.3,0.6,0.6,0.9,0.9c0.5,0.4,0.6,1.1,0.8,1.6c0.2,0.8,0.5,1.5,0.9,2.2c0.3,0.5,0.7,1.1,0.9,1.7
		c0.1,0.6,0.1,1.1-0.2,1.6c-1.7,1.1-2.2-0.2-2.9-1.3c-0.6-0.4-2.1-0.4-0.6-1.6c0.1-0.1,0.1-0.6,0.1-0.6c-2.4-0.9-0.9-1.4,0.1-2.2
		C7.7,60.7,6.7,59.8,6.9,59z"/>
	<path class="st43" d="M7.4,65.7c0.3-0.1,0.8-0.4,0.8,0.2c0.1,1.3,1,1.2,1.8,1.2c0.8-0.2,1,0.3,1.2,0.9c0.1,0.7,0.2,1.5,0.7,2.1
		c0.6,1.4,2.2,2.4,1.8,4.2c0,0,0,0,0,0c-1.2-0.2-1.9-1-2.2-2.1c-0.2-0.7-0.4-1.4-1.3-1.5c-0.4-0.7-1.1-1.3-0.9-2.2
		C8.6,68,8.2,68.1,8,68.8c-0.3,1-0.7,0.6-1.1,0.1c0-0.1,0-0.3,0-0.4C5.8,67.3,7.6,66.7,7.4,65.7z"/>
	<path class="st44" d="M5.6,57.2C5.7,57.8,5.9,58.4,6,59c-0.1,0.4,0.1,1-0.5,1.1c-0.5,0.1-0.9-0.4-0.8-0.8
		C4.9,58.6,3.8,57.3,5.6,57.2z"/>
	<path class="st9" d="M7.4,65.7c0.4,1-0.9,1.7-0.5,2.7c-0.3,0.2-0.5,0.5-0.8,0.5c-0.3,0-0.4-0.4-0.2-0.7C6.4,67.4,6.9,66.6,7.4,65.7
		z"/>
	<path class="st9" d="M6.9,68.8c0.4,0.1,0.7,0.3,1-0.3c0.3-0.8,0.8-0.7,1.3-0.1c-0.6,0-0.7,0.5-1,0.9C7.5,70.1,7.1,69.7,6.9,68.8z"
		/>
	<path class="st45" d="M27,94.3c-1.5-0.7-2.6-1.8-3.6-3.1c-1.7-0.3-3.4-2.8-4.3-4.5c-0.7-1.4,0-2.6-0.8-4.1c1.6,0.6,2.4,0.1,2.9-1.3
		c0.1,0,0.2-0.1,0.3-0.2c1.1-0.1,1.3,0.3,1.2,1.4c-0.1,1-0.9,2.4,0.9,2.9c0.4,0.2,0.7,0.4,1,0.7c1,0.9,2.2,1.6,1.1,3.4
		c-0.4,0.6,0.6,2,1.1,3C27,93.1,27.5,93.6,27,94.3z"/>
	<path class="st46" d="M13.6,74.2c-0.7-1.3-1.5-2.7-2.2-4c-0.6-1.1,0.1-2.4-0.7-3.4c0-0.2,0.1-0.4,0.2-0.6c1-0.1,2,0,2.7,1
		c0.1,0.4,0.2,0.8,0.2,1.2c0.2,2.3,0.4,2.6,2.6,2.2c1.2-0.2,2.1,0.1,3.2,0.4c0.5,0.8,0.1,1.5-0.4,2c-1,1-0.8,2-0.3,3.1
		c-0.4,1.9-1.2,1.1-2.1,0.4C14.9,76.7,15.1,74.2,13.6,74.2z"/>
	<path class="st45" d="M16.7,76.4c0.6-0.3,1.6,1.3,1.8-0.5c1.1-0.1,0.8,1,1.2,1.5c0.2,0.6,0.6,1.1,1,1.5c0.4,0.7,1.1,1.4,0.5,2.3
		c0,0,0,0,0,0C19.2,80.2,17.5,78.7,16.7,76.4z"/>
	<path class="st34" d="M35,7.7c0.9-1.6,2.9-1.1,4-2.2C39,6,39.3,6.9,38.6,7.1c-2.3,0.7-3.6,2.8-5.4,4.2c-1.8,1.4-3.8,2.6-6.2,2.7
		c-1.9,0.1-3.5,1.1-5.2,1.8c-0.9,0.4-1.6,0.8-2-0.6c1.6-1.7,3.4-3,5.2-4.4c1-0.8,1.9-0.8,2.7,0.1c0.7,0.8,1,0.7,1.6-0.2
		c0.6-1,1.6-1.7,2.3-2.6C32.2,7.6,33.9,7.9,35,7.7z"/>
	<path class="st47" d="M15.4,20.6c0.3-0.3,0.6-0.6,0.9-0.9c0.8-1,1.7-1.7,3.2-1.7c1.2,0,1.9-1.4,3.1-1.7c0.8-0.2,1.5-1.1,2.2-0.5
		c0.8,0.5,0.3,1.5,0.2,2.3c-0.3,0.8-1.1,0.9-1.7,1.3c-1.2,0.8-2.1,1.8-2.7,3.2c-0.6,1.3-1.5,2.2-2.9,2.5c-0.3,0-0.6,0-0.9-0.2
		c-0.3-0.5-0.6-0.8-1.1-0.2c-0.5,0.5-1.1,0.4-1.5-0.1c-0.5-0.5-0.3-1.1,0-1.6C14.5,22.1,15.3,21.6,15.4,20.6z"/>
	<path class="st48" d="M15.4,20.6c0.5,1-0.3,1.6-0.8,2.3c-0.3,0.4-0.7,0.8-0.2,1.3c0.6,0.6,0.9-0.1,1.2-0.4c0.3-0.4,0.7-1,1.2-0.7
		c0.7,0.4,0.1,1-0.1,1.6c0.4,1.1,0,1.8-1,2c-1.5,0.4-2.4,1.2-2.6,2.8c-0.2,1-1,1.6-2.1,1.4c0.7-1.7,0-3.3-0.5-4.9
		c0-0.5,0-1.2,0.5-1.4c1.6-0.5,2.1-2,2.9-3.1C14.2,20.9,14.6,20.6,15.4,20.6z"/>
	<path class="st49" d="M24.8,18c-0.8-0.5,0.2-1.2-0.3-2c-2.6,1.6-5.3,2.8-8.2,3.8c0.3-2.2,1.7-3.5,3.6-4.4c0.8,1.1,1.6,0.2,2.2-0.1
		c1.6-0.7,3.1-1.7,5-1.7c0.1,0.1,0.1,0.2,0.1,0.3c0,0.1,0,0.2,0,0.2c-0.1,0.1-0.3,0.2-0.4,0.3c-0.3,0.2-0.4,0.5-0.4,0.8
		c0,0.2,0,0.4-0.1,0.5c-0.2,0.8-0.1,1.8-0.9,2.4C25.1,18.1,24.9,18.1,24.8,18z"/>
	<path class="st50" d="M46.6,61.7c-0.3,0.6-0.6,1.2-0.9,1.8c0,0.6,0,1.2,0,1.8c-0.1,0.1-0.3,0.3-0.4,0.4c0.2,0.7,0,1.3-0.4,1.8
		c0.2,0.4,0.3,0.8,0.5,1.3c-1.3-0.3-1.7-1.4-1.3-2.3c0.7-1.5-0.4-1.7-1.2-1.8c-1.8-0.2,0,1.1-0.6,1.5c-0.2,0.1-0.1,0.5-0.2,0.8
		c-1.3,0.1-1.3-1.5-2.2-1.8c-1.2-0.7,0-1.2,0.1-1.7c0.1-0.2,0.2-0.3,0.3-0.5c0.4-0.5,0-1.1,0.3-1.7c0.4-0.5,0.9-0.5,1.4-0.1
		c0.7,0.5,1.1,1.5,2.4,0.8c0.6-0.3,0.6,0.8,0.6,1.4c0.1-0.5-0.1-1,0-1.5c0.1-0.1,0.1-0.2,0.2-0.2C45.7,61.8,46.2,60.3,46.6,61.7z"/>
	<path class="st51" d="M43.5,80.4c-1.7,0-3.2-1.9-2.5-3.4c0.6-1.2,1.2-2.2-0.5-3.1c-0.7-0.4-0.2-0.8,0.3-1c0.4-0.2,1.2,0.6,1.3-0.5
		c0.9,0.1,1.4,0.9,1.2,1.6C42.5,76.2,43.7,78.3,43.5,80.4z"/>
	<path class="st51" d="M42.2,72c-1.8-1.6-0.7-3.3,0-4.9c1.1,0.6,1,0.6,0.5,1.5c-0.2,0.4-0.6,1.2,0.5,1.2c0.5,0,1.4-0.3,1.5,0.5
		c0.2,1-1,0.6-1.4,1C43,71.6,42.7,71.9,42.2,72z"/>
	<path class="st20" d="M44.9,67.5c-0.1-0.6,0.1-1.2,0.4-1.8C45.9,66.5,47,67.4,44.9,67.5z"/>
	<path class="st52" d="M48.9,78.7c-0.3,0-0.6,0.8-0.8,0.4c-0.3-0.5-0.2-1.2,0.6-1.4C48.7,78,48.8,78.3,48.9,78.7
		C48.9,78.7,48.9,78.7,48.9,78.7z"/>
	<path class="st40" d="M47.1,17.1c-1.3,1.9-1.2,4.2-1.3,6.4c-0.1,2.6-1,5.1-1.2,7.7c-0.1,1.1-0.6,2.1,0.9,2.7
		c0.4,0.1,0.9,0.7,0.3,1.2c-0.4,0.3-1.5-0.7-1.3,0.1c0.2,1.2-0.5,2.3,0,3.5c0.6,1.5,0.3,2.9-0.1,4.3c-0.1,0.1-0.2,0.1-0.3,0.2
		c-0.1,0-0.2-0.1-0.3-0.1c-2-2.5-2-5.3-0.9-8.2c0.1-0.3,0.1-0.6-0.1-0.8c-0.8-0.9-2.6-1.4-1-3.1c0.4-3.2,2.3-6,2.2-9.3
		c0-1,0.5-2,0.9-2.9c0.3-0.8-1.3-2.1,0.6-2.4C46.2,16.3,46.6,16.8,47.1,17.1L47.1,17.1z"/>
	<path class="st50" d="M44,43c0.2,0,0.3,0,0.5,0c0,0.4-0.1,0.7-0.4,0.9c-1.6,1-0.6,3-0.4,3.7c0.7,2.3-0.5,4.3-0.7,6.4
		c-0.2,2.2-0.5,3.9,1.4,5.5c0.6,0.5,1.2,1.3,1,2.3c0,0,0,0,0,0c-1.7-0.2-3-0.9-4.1-2.1c-0.1-0.2-0.3-0.3-0.4-0.5
		c-0.7-1.4-2.2-2.6-0.9-4.6c0.6-0.9-1.3-0.9-1.5-1.9c-0.1-0.9,0.5-1.1,1.2-1.1c1.6,0.1,2.1-0.8,2.2-2.3c0.2-1.7-0.1-3.5,0.3-5.2
		C42.4,43.2,43.1,42.9,44,43z"/>
	<path class="st53" d="M24.3,86.3c-0.4,0-0.7-0.1-0.9-0.5c-0.2-0.6-1.2-1-0.8-1.9c0.4-0.9,1.3-0.1,1.9-0.4c0-0.5-0.4-0.8-0.4-1.3
		c0.1-0.7,0.3-1.7,1.2-1.5c1.4,0.2,3-2.7,4.3,0.2c0.1,0.4,0.1,0.8-0.1,1.2c-0.9,1.1-0.3,1.8,0.6,2.5c1.3,0.9,0.8,2.6,1.9,3.8
		c0.9,1.1,1.5,2.6,2.7,3.6c-1.2,1.1,0.8,1.7,0.4,2.4c-1.2,1.7,0.5,1.8,1.2,2.2c0.7,0.4,1.3,0.7,0.7,1.6c-0.6-0.1-1-1-1.8-0.4
		c-0.3,0-0.6,0-0.9,0c-0.7-1.2-2.2-0.7-3.1-1.3c-0.7-0.4-1.5-0.9-2.2-1.3c-0.5-0.4-0.4-1.1-1-1.4c-1.3-0.8-1.2-1.5,0-2.5
		c1.6-1.2,0.8-2.7,0-4c-0.7-1.2-1.5-2-3-0.9C24.7,86.6,24.5,86.4,24.3,86.3z"/>
	<path class="st54" d="M46.6,93c0.1,0.3,0.2,0.5,0.4,0.8c-0.5,0.2-1.1,0.3-1.2,1c0.4,0.3,0.7,0.7,0.7,1.2c-0.3,0.8-0.3,1.7-1.2,2.2
		c-0.5,0.1-0.9-0.1-1.4-0.2c-0.6-0.2-1,0.2-1.5,0.4c-0.1,0-0.2,0-0.3,0c-0.9-0.8-0.4-1.8-0.4-2.7c0.5-0.6,0.8-1.2,0.1-1.8
		c0-0.3-0.1-0.5-0.1-0.8c-0.8-1.2-1.4-2.3,0.2-3.4c0.4-0.1,0.6,0,0.9,0.3c0.3,0.9-0.1,2.2,1.3,2.6c0.4,0.3,0.8,0.7,1.3,0.2
		C45.9,92.2,46.3,92.4,46.6,93z"/>
	<path class="st55" d="M34.6,92.1c-1.8,0.1-2.4-1-2.7-2.6c-0.1-0.4-0.1-0.9-0.3-1C30.1,88,30,87,30.4,85.7c0.1-0.2-0.4-0.5-0.7-0.8
		c1.6-0.3,3.6,0.5,3.7,1.9c0.2,1.8,1.3,1.9,2.6,1.9c0.8,0,1.7-0.1,1.8,1.1c-0.1,0.2-0.3,0.2-0.5,0.1C36.4,90.6,35.9,91.8,34.6,92.1z
		"/>
	<path class="st56" d="M42.1,89.8c-1.7,0.8-0.1,2.2-0.5,3.2c-0.8,0.6-1.6,1.2-2.7,1.3c-0.8,0.2-0.8-0.6-1.3-0.9
		c0.3-0.3,0.6-0.6,0.9-0.9c0.1-0.1,0.2-0.1,0.2-0.2c1-0.1,1.2-0.9,1.2-1.7c1-1.7-0.5-3.1-0.6-4.6c0.1-1,0.9-1.5,1.7-2.1
		c1.5,0.6,0.9,2.4,1.9,3.3c0.4,0.9,0.8,1.8-0.5,2.4c-0.2,0-0.4-0.3-0.5-0.2c-0.2,0.2,0-0.2,0.1,0.1c0,0,0.1,0.2,0.1,0.2L42.1,89.8z"
		/>
	<path class="st57" d="M43,100.6c-0.1,0.1-0.3,0.3-0.4,0.4c-1,0.1-1.7-0.3-2.1-1.2c0.3-0.8,1,0.6,1.3-0.3c0.2-0.1,0.4-0.1,0.6,0
		C42.7,99.8,43,100.1,43,100.6z"/>
	<path class="st58" d="M41.8,93.8c0.5,0.1,1.1-0.1,1.2,0.6c0.1,0.9-0.8,0.9-1.3,1.2C41.7,95,41.8,94.4,41.8,93.8z"/>
	<path class="st59" d="M38.6,92.5c-0.3-0.4-0.6-0.9-0.9-1.3c-0.2-0.6,0.1-1,0.4-1.5c0.2,0,0.4,0,0.6,0.1
		C39.6,90.8,39.5,91.7,38.6,92.5L38.6,92.5z"/>
	<path class="st60" d="M37.7,93.4c0.7-0.1,0.9,0.6,1.3,0.9c0,0.3,0,0.7-0.4,0.6C38,94.6,37.6,94.1,37.7,93.4z"/>
	<path class="st54" d="M42.2,99.7c-0.1,0-0.3-0.1-0.4-0.1c0.1-0.4,0.2-0.8,0.3-1.2c0,0,0.1-0.1,0.1-0.1c0.7-0.1,1.3-0.1,1.3,0.9
		c-0.2,0-0.3,0-0.5,0C42.8,99.5,42.5,99.6,42.2,99.7z"/>
	<path class="st61" d="M38.1,89.8c-0.1,0.4-0.3,0.9-0.4,1.3c-0.6-0.3-0.5-0.8-0.4-1.3c0.1,0,0.3,0,0.4,0
		C37.8,89.7,38,89.7,38.1,89.8z"/>
	<path class="st62" d="M40.4,63.5c0.3,0.7-1,1-0.4,1.8c1.2,2.7,1,5.3-0.4,7.9c-0.5,0.9-0.6,2,0.1,2.9c0.5,0.7,0.9,1.3-0.4,1.8
		c-1,0.4-0.2,1.3,0.1,1.6c0.7,0.6,1.5,1.3,2.4,1.4c1.2,0.2,1.6,0.8,1.8,1.9c-0.8,0.4-1.5,1.5-2.7,0.7c-1.2-1.5-3.7-1.4-4.4-3.6
		c-0.3-3.2,0.8-6.2,0.4-9.4c0.3-1,0.5-2.3,2-2.1c0.9,0.1,0.8-0.4,0.6-1c-0.3-0.8-1.1-1.4-1-2.4c0.1-1.9,0.2-3.7-0.9-5.5
		c-0.6-1-0.5-2.1-0.3-3.2c0-0.2,0.1-0.4,0.3-0.6c0.8-0.6,1,0.2,1.3,0.6c0.8,0.9,1.3,2.2,2.5,2.8h0c0.3,0.4,0.4,1,0,1.2
		C39.4,60.9,40.2,62.3,40.4,63.5z"/>
	<path class="st63" d="M41.3,83.1c1,0.9,1.3-1.2,2.2-0.5c0.8,0.7,0.7,1.9,1.3,2.7c0.5,0.3,0.9,0.8,1.1,1.4c0,0.7-0.2,1.2-0.9,1.4
		c-0.3,0-0.5-0.2-0.7-0.5c-0.1-0.5-0.2-1-0.6-1.4c-0.5,0.1-0.2,0.8-0.6,1c-0.2,0.1-0.4,0.1-0.5-0.1c-1.2-0.7-0.5-2.3-1.3-3.1
		C41,83.7,41,83.4,41.3,83.1z"/>
	<path class="st64" d="M44.9,88c0.3-0.4,0.5-0.9,0.8-1.3c-0.2-0.5,0-0.5,0.4-0.4c0.5,0.7,0.9,1.5,1.4,2.2c-0.3,0.3-0.6,0.6-0.9,0.9
		c-0.3,0.4-0.6,0.8-0.6,1.3c-0.2,0.5-0.4,0.9-0.9,1.1c-0.2,0-0.4-0.1-0.5-0.3c-0.2-0.4-0.4-0.9-0.5-1.3C44,89.8,44,89.4,44.2,89
		C44.5,88.8,44.7,88.4,44.9,88z"/>
	<path class="st65" d="M46.1,86.3c-0.1,0.1-0.3,0.3-0.4,0.4c-0.6-0.3-0.9-0.7-0.9-1.3c0.1,0,0.1-0.1,0.2-0.1c0.6-0.4-0.1-2,1.1-1.7
		c1.1,0.3,0.2,1.4,0.1,2.1C46.2,85.8,46.2,86.1,46.1,86.3z"/>
	<path class="st66" d="M24.3,86.3c1.4-1.9,2.7-1.3,3.8,0.2c1.6,2.1,1.5,4.4-0.3,5.5c-1,0.6-0.8,1.1,0,1.3c1.3,0.3,1.3,1,1,1.9
		c-0.6-0.3-1.2-0.6-1.8-0.9c-0.3-1.3-1.5-2.1-1.6-3.5c-0.1-0.8-1.3-1.4,0.2-2.4C26.4,87.8,24.2,87.4,24.3,86.3z"/>
	<path class="st18" d="M31,96.5c1.2,0.1,2.6-0.3,3.1,1.3C33.2,97.2,31.8,97.6,31,96.5z"/>
	<path class="st67" d="M27,13.9c0-0.1,0-0.3,0-0.4c2.4,0,4-2,6.2-2.2c0,0.2,0,0.3,0,0.5c0.3,0.4,0.5,0.9,0.9,1.2
		c0.6,0.6,2.3,0.4,1.9,1.7c-0.4,1.3-1.1,2.8-2.8,3c-0.1,0-0.3,0.1-0.4,0.1c-0.3,0-0.6,0-0.9-0.2c-0.3-0.9,0.5-1.2,0.9-1.7
		c-1.8-0.2-3.1,1.9-5,0.8c-0.3-1.1,1.2-1,1.3-1.8C28.6,14.1,27.5,14.7,27,13.9z"/>
	<path class="st68" d="M32.8,17.5c1.5-0.5,2-2,3-3.1c-0.9-0.9-3.3-0.3-2.6-2.7c0.6-0.1,1.2-0.3,1.8-0.4c0.2,0.1,0.3,0.3,0.5,0.4
		c0.5,0.4,0.9,0.7,1.5,0.8c0.7,0.2,1.3,0.4,1.2,1.3c-0.1,0.8-0.2,1.6-1,2.1c-0.7,0.4-1.6,1.4-1.7,1.8c-0.6,0.4-1.2,0.7-1.9,0.7
		C33.2,18.3,32.7,18.2,32.8,17.5z"/>
	<path class="st69" d="M45.7,2c2.1,0.7,2.2,1.1,0.9,2.5c0,0.4,0,0.8-0.3,1.1c-0.6,0.6-1.3,1.2-1.9,1.8c-0.5,0.3-1,0.3-1.5,0.1
		c-0.2-0.1-0.3-0.2-0.4-0.4c-0.1-0.9,0.2-1.6,1-2.1c0.1,0,0.3-0.1,0.4-0.1c0,0,0,0.1,0,0.1c0.6,0.2,0.9-0.1,1.3-0.5
		C45.5,3.7,44.8,2.7,45.7,2z"/>
	<path class="st70" d="M35,11.7c0-0.2,0-0.3,0-0.4c1.2-1.7,3.1-2.3,4.9-3.1C40,8.2,40,8.3,40.1,8.4c-0.3,1.2-1,2.1-1.7,3
		C37.5,12.7,36.2,12.4,35,11.7z"/>
	<path class="st71" d="M43.5,5c-0.3,0.7-0.6,1.5-0.9,2.2C42,8.4,41,8.4,40,8.2c0,0,0,0,0,0c0-0.6,0.3-1.1,0.9-1.3
		c0.6-0.2,1.5-0.3,0.9-1.3C42.2,4.8,42.9,5.1,43.5,5z"/>
	<path class="st34" d="M39.1,5.5c0.1-0.3,0.3-0.6,0.4-0.9c0.4,0,0.9-0.7,1,0C40.6,5.3,39.8,5.5,39.1,5.5z"/>
	<path class="st25" d="M41.7,5.5c0.5,0.3,0.5,0.8,0.2,1.3c-0.3,0.5-0.7,0.2-1.1,0.1C41.1,6.3,41.8,6.2,41.7,5.5z"/>
	<path class="st72" d="M10.9,30.9c1-0.6,1.9-1.2,1.8-2.7c-0.1-1.2,0.8-1.7,2-1.8c1.1-0.1,1.7-0.8,2-1.7c0.3,0,0.6,0,0.9,0
		c0.4,1.4,1,2.5,2.6,1.1c0.3-0.2,0.7-0.4,1-0.1c0.2,0.3,0.2,0.7,0.1,1.1c-0.2,1-1,1.5-1.7,1.9c-1.9,2.7-5.3,3.2-7.6,5.1
		c-2.4,0-2.5-0.2-1.5-2.5C10.6,31.2,10.8,31.1,10.9,30.9z"/>
	<path class="st73" d="M10.5,31.4c-0.1,1.1-0.3,2.2,1.3,2.2c-1.1,2.1-1.9,4.5-3.7,6.2c-0.2,0.4-0.6,0.7-0.2,1.2
		c0.3,0.4,1.3,0.9,0.9,1.3c-1.4,1.3-0.2,3.6-1.9,4.7c-0.2-2.9-1.9-5.7-0.5-8.8c0.2-0.5-0.2-1.3-0.3-1.9c1-1.3,2.1-2.7,3.1-4
		C9.7,32.1,9.4,30.7,10.5,31.4z"/>
	<path class="st74" d="M47,17c-0.4-0.1-0.9-0.3-1.3-0.4c-0.8-0.5-1.9-0.1-2.7-0.8c-0.4-0.7-0.2-1.2,0.5-1.3c1.4-0.2-0.2-0.6,0.1-0.9
		c-0.5-1.6,0.9-2.8,1.1-4.2c0.1-0.4,0.3-0.8,0.7-0.9c0.1,0,0.2,0.1,0.3,0.1c0,1,0,2.1,0,3.1c0.2,0.6-1.1,2.1,1.1,1.6
		c0.8-0.2-0.1,1,0.2,1.5C46.3,15.6,46.8,16.3,47,17z"/>
	<path class="st75" d="M46.2,5.5c0-0.4,0.1-0.7,0.4-0.9c1,0.6,1.3,0,1.4-0.9c0.5,0.1,0.3,2.1,1.4,0.4c0.2-0.3,0.4,0.4,0.7,0.5
		c0,0.9-1,0.8-1.3,1.6c-0.5,1.4-1.5,2.3-3.1,2.5c0,0,0-0.1,0-0.1C45.3,7.4,46.5,6.6,46.2,5.5z"/>
	<path class="st76" d="M43.5,99.2c-0.4-0.3-0.9-0.6-1.3-0.9c0.4-0.6,0.6-1.6,1.7-0.9c0.2,1.3,2.1,1.1,2.3,2.4c0,0.1,0,0.2,0,0.3
		c-0.2,0.4-0.5,0.4-0.9,0.4C45.3,99.3,44,99.7,43.5,99.2z"/>
	<path class="st77" d="M42.2,99.7c0.2-0.4,0.5-0.4,0.9-0.5c-0.1,0.5,1.4,0.9,0,1.4C42.6,100.4,42.3,100.1,42.2,99.7z"/>
	<path class="st76" d="M45.3,97.8c0.1-0.7,0.2-1.4,0.9-1.8c0.3-0.2,0.6-0.2,0.8,0c0.1,0,0.3,0,0.4,0c0,0.4,0,0.8,0,1.3
		c-0.7,0.6,0.5,0.9,0.3,1.4c-0.7,0.3-0.7,1.4-1.7,1.4l0,0C46.1,99.3,45.2,98.8,45.3,97.8z"/>
	<path class="st30" d="M47.1,96c-0.3,0-0.6,0-0.8,0c-0.2-0.4-0.3-0.9-0.5-1.3C46.6,94.8,46.8,95.5,47.1,96z"/>
	<path class="st78" d="M45.3,4.6c-0.2,0.9-0.6,1.2-1.3,0.5C44.4,4.7,44.8,4.5,45.3,4.6z"/>
	<path class="st79" d="M46.6,93c-0.4-0.2-0.7-0.3-1,0.3c-0.7,1.2-1.2,0.5-1.6-0.3c-0.3-0.2-0.3-0.5-0.2-0.8c0.2-0.4,0.5-0.6,1-0.6
		l0.2,0.1c0.5,0.2,0.9-0.4,1.4-0.1c0.3,0.3,0.6,0.5,0.3,1C46.6,92.7,46.6,92.8,46.6,93z"/>
	<path class="st80" d="M46.6,92.5c-0.2-0.3-0.3-0.6-0.5-0.9c-0.3-0.2-0.4-0.6-0.4-1c-0.6-1,0.1-1.1,0.8-1.2
		C46.3,90.4,48.6,91.5,46.6,92.5z"/>
	<path class="st81" d="M7.8,57.6c0.1-0.3,0.3-0.6,0.4-0.8c0.3-2-1-3.8-0.5-5.8c0.2-1,0.2-1.9,1.4-2.2c1.4-0.3,0.5-1.6,0.9-2.4
		c0.1-0.2,0.1-0.4,0.3-0.6c0.4-0.4,0.8-0.2,1.2-0.1c0.2,0.1,0.4,0.2,0.5,0.4c0.4,0.8,1,1.4,1.9,1.7c0.7,0.5,1.5,0.9,1.2,2
		c-1.4,0.2-1.8,1-1.5,2.3c0.1,0.5,0.1,1,0.1,1.6c-0.1,0.5-0.2,1.1-0.8,1.2c-0.7,0.1-0.9-0.4-1-0.9c-0.2-1-0.7-1.8-2.3-1.4
		c1.6,1,1.9,2.3,1.5,3.8c-0.5,1.9,0.5,3.7,0.4,5.6c-1.3,0.5-1.7-0.4-2.1-1.3c-0.4-0.8-0.6-1.7-1.1-2.3C8.1,58,8,57.8,7.8,57.6z"/>
	<path class="st82" d="M10.5,46.1c-0.1,1.4,0.4,2.7-1.8,3.5c-1.1,0.4-0.7,3.3-0.1,4.9c0.4,1,0.4,1.6-0.4,2.3
		c-0.8-0.9-1.1-2.1-1.2-3.1c-0.3-2.2-0.1-4.5-0.1-6.7c0.8-0.5,0-1.3,0.2-1.8c0.4-1.1-0.3-2.7,1.8-3.2c-2.5-0.4-2.8-1.3-1.1-2.6
		c1.5-0.2,2.3,0.3,2,1.9c-0.2,1.1,0.2,2.3-0.3,3.5C9,45.8,10,45.8,10.5,46.1z"/>
	<path class="st46" d="M7.8,57.6c0.1,0,0.3,0,0.4,0.1c1.2,2.6,2.5,5,3,7.9c-0.1,0.2-0.2,0.4-0.3,0.6l0,0c-0.9,0.3-0.5-0.7-0.9-0.9
		c-0.3-0.4-0.6-0.9-0.9-1.3c-0.4-0.7-0.4-1.6-0.9-2.2c-0.6-0.5-0.4-1.2-0.4-1.8C7.8,59.2,7.8,58.4,7.8,57.6z"/>
	<path class="st42" d="M10,65.3c0.3,0.3,0.6,0.6,0.9,0.9c0.5,1.3,0.5,2.7,0.4,4c-1.2-0.7,0.1-2.5-1.3-3.1C10,66.5,10,65.9,10,65.3z"
		/>
	<path class="st42" d="M8.2,61.7c0.8,0.5,0.9,1.3,0.9,2.2C8.4,63.4,8.2,62.6,8.2,61.7z"/>
	<path class="st83" d="M24.3,82.2c0.2,0.2,0.3,0.5,0.5,0.7c0.4,0.3,1,0.5,0.7,1.2c-0.4,0.6-1,0.4-1.5,0.2c-0.3-0.1-0.5-0.5-1-0.3
		c-0.5,0.7,0.7,1.2,0.5,1.9c-2.8,0-0.6-2.4-1.6-3.3c1.4-1.3-0.5-0.7-0.7-1.2c-0.3-0.7-0.6-1.5-0.9-2.2c0.6-0.6,1.2-0.3,1.8,0
		c0.3,0.2,0.5,0.4,0.7,0.6C23,80.8,24.8,80.8,24.3,82.2z"/>
	<path class="st84" d="M19.4,77.8c-0.7-0.4-0.2-1.4-0.9-1.8c-1.2-1-1.4-1.9-0.1-3.1c0.5-0.4,1-1,1-1.9c-0.8-1-1.7-1.3-3.1-0.9
		c-1.4,0.4-2.9,0.3-3.2-1.7c0-0.4,0-0.9,0-1.3c0.1-0.1,0.3-0.2,0.5-0.2c1.3,0.2,2.4-0.7,3.7-0.9c0.2,0.1,0.4,0.2,0.5,0.3
		c0.3,0.5,0.6,1.3,1.2,0.4c0.5-0.7,1-1.1,1.8-0.7c0.5,0.8,1,1.5,1.5,2.4c0.1,0.8-0.1,1.7,0.2,2.5c0.1,0.5,0.1,1.1-0.2,1.6
		c-2.8,1.3-2.9,1.4-2.2,3.6C20.2,76.8,20,77.4,19.4,77.8z"/>
	<path class="st85" d="M13.2,68.4c0.8,1.6,2,1.5,3.6,1.1c0.9-0.2,3-1,2.7,1.6c-1.5,0.1-3.1,0.3-4.6,0.2
		C12.9,71.2,13.2,69.7,13.2,68.4z"/>
	<path class="st85" d="M13.6,67.1c-0.1,0-0.3,0-0.4,0c-0.8,0-1.6-0.4-2.2-0.9c0-0.2,0-0.3,0-0.5c1.1-0.3,0.7-2.6,2.6-2
		c0.2,0.1,0.3,0.3,0.4,0.5C14.3,65.2,15.8,66.4,13.6,67.1z"/>
	<path class="st14" d="M19.4,77.8c0.1-0.6,0.3-1.2,0.4-1.8c0.7,0,1.4-0.1,2.1-0.1c1,1.2,0.9,2.4,0.1,3.7c-0.6-0.3-1.1-0.5-1.8-0.4
		C19.7,78.8,19.4,78.4,19.4,77.8z"/>
	<path class="st86" d="M19.4,28.2c0.9-0.5,1.7-1.1,1.5-2.4c-1,0.8-1.9,1.9-3.2,1.3c-1.1-0.6,0.1-1.6-0.1-2.4
		c1.3-0.5,2.2-1.4,2.6-2.7c0.4-1.4,1.6-2.2,2.7-3.1c1.7,1.9,0.1,3.7-0.1,5.5c-0.3,2.3-0.6,4.6-0.1,6.9c0.5,0.5,0.7,1.1,0.2,1.8
		c-0.2,0.2-0.4,0.2-0.6,0.2c-1.1-0.1-2.1-0.4-2.1-1.8c0-0.5,0.2-1,0.3-1.6c-0.1-0.2,0.6-0.9-0.4-0.6c-0.4,0.1-0.7,0-1-0.3
		C19.1,28.8,19.2,28.5,19.4,28.2z"/>
	<path class="st87" d="M22.5,31.4c-0.3,0.1-1,0.3-0.8-0.2c0.7-2.2-0.2-4.5,0.5-6.7c0.6-1.8,1.1-3.7,0.7-5.6c0.6-0.3,1.2-0.6,1.8-0.9
		c0.1,0,0.3,0,0.4,0c1.6,0.4,0.8,1.5,0.5,2.2c-0.5,1.3-1.3,2.5-1.7,3.8c-0.1,0.7-0.4,1.4-0.2,2.1c-0.1,0.9-0.2,1.8,0.9,2.3
		c0.4,0.2,0.9,0.6,0.4,1.2c-0.4,0.4-1,0.3-1.5,0.6c-0.1,0.1-0.3,0.2-0.4,0.3C23,30.9,22.8,31.2,22.5,31.4z"/>
	<path class="st86" d="M19.1,20.3c0.2,0.3,0.5,0.5,0.4,0.5c-0.1,0.2-0.3,0.4-0.5,0.5c0,0-0.4-0.3-0.4-0.4
		C18.7,20.8,18.9,20.6,19.1,20.3z"/>
	<path class="st47" d="M23.4,24.2c0.1-1.6,1-2.8,1.7-4.1c0.4-0.8,0.8-1.4,0.1-2.1c0.7-0.8,0.1-2,0.9-2.7c0.5,0.3,0.6,0.9,0.7,1.4
		c0.3,0.9-0.7,2.1,0.3,2.6c0.8,0.4,1.4-0.6,2.1-1.3c0.7-0.6,1.6-0.5,2.4,0.1c0.2,1.6-0.6,2.9-1.2,4.3c-0.5,0.5-1.1,1-1.5,1.6
		c-0.3,0.3-0.6,0.5-1.1,0.4c-0.8-1-1.7-1-2.7-0.3C24.7,24.4,24.1,25.3,23.4,24.2z"/>
	<path class="st88" d="M26.6,16.6c-0.5-0.3-0.4-0.9-0.4-1.3c0,0,0,0,0,0c0.3-0.4-0.1-1,0.5-1.3c0.1,0,0.3,0,0.4,0c0.2,0,0.5,0,0.7,0
		c0.7,0.2,1.7-0.5,2.1,0.5c0.5,1.4-0.9,1.3-1.6,1.8c-0.1,0.1-0.2,0.2-0.3,0.3C27.4,17,27,17,26.6,16.6z"/>
	<path class="st47" d="M26.6,14c0,0.5,0.1,1-0.5,1.3C25.9,14.7,24.7,13.8,26.6,14z"/>
	<path class="st89" d="M40.4,63.5c-1.5-1.8-1.3-2.8,0.7-3.5c0.2-0.1,0.2-0.6,0.2-1c0.9,1.5,3,1.3,4,2.7c0,0.9,0,1.7,0,2.7
		c-0.8-0.6-0.1-1.5-0.8-2.1c-0.9-0.1-0.6,1.2-1.5,1.3c-0.6-0.8-0.2-2.8-2.2-2c-0.5,0.6,0.7,1.2,0,1.8C40.7,63.5,40.5,63.5,40.4,63.5
		z"/>
	<path class="st10" d="M40.8,63.5c0.6-0.6-1.8-1.2,0-1.8C41,62.3,41.7,62.9,40.8,63.5z"/>
	<path class="st90" d="M43.1,15.7c1,0,2,0,2.7,0.9c-0.5,0.1-1.1,0.3-0.4,0.9c0.4,0.4,0.4,0.8,0.4,1.3c-1.3,0.2-1.6,1.2-1.9,2.3
		c-0.7,3.4-1.6,6.7-1.7,10.2c-1.5,1.9,0.8,1.5,1.3,2.2c0.5,0.8-0.1,1.2-0.7,1.5c-0.7,0.4-1.3,0.9-1.2,1.7c0.3,2.2,0,4.7,2.3,6.1
		c-0.3,0.6-1.4,0.4-1.3,1.3c-0.4,0.1-0.7-0.1-0.9-0.4c-3.1-3.7-2.6-8-1.9-12.3c0.9-2.2,1.1-4.5,0.7-6.9c-0.1-0.9,0.2-1.6,0.7-2.4
		c0.7-1,1.5-2.1,0.8-3.4c0-1.1-0.1-2.2,0.8-3.1C42.9,15.8,43,15.8,43.1,15.7z"/>
	<path class="st91" d="M42.2,31.4c-1-2.1-0.5-4.8,0-6.4c0.6-1.9,0.7-3.9,1.4-5.8c0.5-1.5,1.5-0.2,2.2-0.3c-1.7,2.1-0.7,4.9-1.8,7.1
		C43.1,27.7,43.2,29.7,42.2,31.4z"/>
	<path class="st50" d="M44,43c-0.7-0.3-2.1-0.8-2.1-0.9c0.5-1.6-0.9-2.7-0.9-4.2c0-1.3-0.1-2.7,1.8-3.1c0.5-0.1,0.8-0.7,0.8-1.2
		c0.1,0.2,0.4,0.6,0.4,0.7C41.9,37.2,42.8,40.1,44,43z"/>
	<path class="st92" d="M42.2,43.8c0.1,0.2,0.3,0.3,0.4,0.5c-0.4,1.8,0,3.6-0.3,5.4c-0.3,1.8-0.7,3-2.8,2.4c-0.6-0.2-0.8,0.2-0.8,0.7
		c-0.2,0.1-0.4,0.1-0.6,0c-0.3-0.6-0.2-1.1,0.3-1.6c1.6-1.5,2.4-3.5,2.7-5.7c0.1-0.6,0.1-1.2,0.5-1.7C41.8,43.7,42,43.7,42.2,43.8z"
		/>
	<path class="st89" d="M38.2,52.8c0.1,0,0.3,0,0.4,0c1.3,0.6,3.2,0.9,1.2,3.1c-0.5,0.5,0.8,2.1,1.5,3.2c-1.9-0.5-2.7-2.1-3.6-3.6
		C36.9,54.4,37.2,53.5,38.2,52.8z"/>
	<path class="st93" d="M29.2,82.2c0-0.4,0-0.9,0-1.3c0.1-0.1,0.2-0.3,0.3-0.4c0.3-0.3,0.3-0.8,0.5-1.2c0.2-0.2,0.4-0.4,0.7-0.5
		c1-0.2,1.3,1.1,2.3,1.1c-0.2-1.3-1.5-2.1-1.6-3.3c-0.6,0.3-0.5,1-0.9,1.2c-0.5,0.3-1.4,0.2-1.3-0.2c0.1-0.8-1.1-1.5-0.3-2.1
		c2.2-1.7,2.5-4.5,3.7-6.7c0.2-0.1,0.4-0.2,0.6-0.1c0.6,0.6,0.6,1.4,0.5,2.1c-0.2,1.2,0.3,2.1,1,3c-0.1,0.6-0.3,1.3,0,1.9
		c-0.8,1.6,0.4,2.7,0.9,4c0.2,0.7,1.1,1.2,0.8,2.1c-0.4,0.4-1,0.7-0.8,1.4c0.1,0.5,0,1-0.4,1.5c-0.6,0.7-1.8,1.1-2.1,0.6
		C32.3,83.5,28.1,86.2,29.2,82.2z"/>
	<path class="st94" d="M29.2,82.2c0.6,0.8-0.1,3.3,2.3,1.5c0.4-0.3,0.9-0.3,1,0.6c0.1,0.9,1.1,0.9,1.7,0.7c0.9-0.2,1.2-1.2,0.9-1.8
		c-1.1-1.9,0.6-1.1,1.2-1.4c0.3,0,0.6,0.2,0.8,0.4c0.6,0.9-0.5,1.6-0.1,2.5c0,0.6-0.1,1.1-0.3,1.7c-0.1,0.2-0.2,0.3-0.4,0.4
		c-0.3,0.1-0.7,0-0.7,0.4c0,0.4,0.5,0.4,0.8,0.5c0.7,0.2,1.4,0.2,2,0.5c0.4,0.2,0.6,0.5,0.7,1c0,0.4-0.3,0.6-0.6,0.7
		c-0.2,0-0.3,0-0.5,0c-0.2,0-0.3,0-0.5,0c-0.4-1-1.1-0.4-1.8-0.5c-1.3-0.2-3.2,0.3-3-2.4c0.1-0.9-1.7-1.9-3.2-1.9
		C28.8,84.1,27.3,83.5,29.2,82.2z"/>
	<path class="st95" d="M29.6,80.9c-0.1,0-0.3,0-0.4,0c-1-0.8-1.9-0.8-2.7,0.3c-0.4,0.6-0.5,0.7-1.2,0c-0.7-0.6-0.4,0.9-1,1
		c-0.5-0.8-1.6-1.1-1.8-2.2c0.5-0.6,1.3-0.9,2-0.7c0.9,0.3,1.3,0.1,1.9-0.6c1-1,1.9,0.5,3,0.5c0.2,0.1,0.3,0.2,0.5,0.4
		C30,80.1,30.1,80.5,29.6,80.9z"/>
	<path class="st96" d="M44.4,88.9c0,0.4,0,0.9-0.1,1.3c-0.1,0.1-0.3,0.2-0.4,0.2c-0.4,0-0.9,0.1-1.3-0.2c-0.2-0.2-0.3-0.3-0.5-0.5
		c0-0.1,0-0.3,0-0.4l0,0c1.6-0.4,0.7-1.4,0.4-2.2c0.2,0,0.3,0,0.5,0c0.3-0.3,0.4-0.7,0.9-0.9c0.8,0.3,0.7,0.8,0.5,1.4
		C44.7,88.1,44.7,88.5,44.4,88.9z"/>
	<path class="st56" d="M42.6,90.3c0.4-0.2,0.9-0.7,1.3,0c0.3,0.6,0.2,1.1,0,1.7c0,0.3,0,0.6,0,0.9C42.2,92.8,42,91.7,42.6,90.3z"/>
	<path class="st97" d="M45.3,97.8c0.7,0.6,1,1.3,0.9,2.2c-0.7-0.7-1.4-1.2-2.3-1.6c-0.9-0.4-0.7-0.8,0-1.1
		C44.4,97.5,44.9,97.7,45.3,97.8z"/>
	<path class="st98" d="M36.8,82.2c-0.2-0.1-0.3-0.3-0.5-0.4c-1.4-1.3-1.7-3.3-2.7-4.8c-0.8-1.2,0.8-0.9,1-1.5
		c0.1-0.2,0.3-0.3,0.5-0.3c0.6,0,0.9,0.3,0.9,1c-0.1,1.4,0.4,2.6,0.8,3.8c1.1,1.6,3.4,1.4,4.4,3.1c0,0.3,0,0.6,0,0.9
		c-0.4,0.6-0.9,1.1-1.3,1.7c-0.8,0.2-1-0.4-1.1-0.9C38.6,83.6,37.8,82.9,36.8,82.2z"/>
	<path class="st59" d="M36.8,82.2c1.4,0.4,2.8,0.8,2.5,2.8c-0.1,0.4,0.3,0.6,0.6,0.8c0.1,1.7,2.1,3.1,0.5,4.9
		c-0.8,0.1-0.8-0.5-0.9-1c0-0.4,0-0.7-0.1-1.1c-0.1-0.3,0-0.5-0.1-0.8c-0.2,0.3-0.3,0.6-0.7,0.6c-0.7-0.1-1.6,0.3-2.2-0.5
		c-0.4-0.4-0.4-0.9,0-1.3l0.1,0c0.5-0.5,0.8-1.1,0.4-1.8C35,84,37.4,83.1,36.8,82.2z"/>
	<path class="st8" d="M39.9,89.4c0,0.5-0.1,1,0.5,1.3c0.2,1.4,0.1,2.5-1.8,1.8c0.3-0.9,0.3-1.8,0-2.7c0.1-0.1,0.3-0.3,0.4-0.4
		C39.3,89.1,39.6,89.1,39.9,89.4z"/>
	<path class="st99" d="M42.2,89.4c-0.5-0.3-0.5-0.8-0.4-1.3c0.1-0.3,0.3-0.2,0.5,0C42.8,88.5,42.3,88.9,42.2,89.4
		C42.2,89.4,42.2,89.4,42.2,89.4z"/>
	<path class="st100" d="M36.8,80c-0.8-1.2-1.8-2.4-1.2-4.1c0.1-0.3-0.3-0.4-0.6-0.4c-0.3-0.4-0.8-0.7-0.4-1.3
		c-2.6-1.3-1-3.6-1.3-5.4c-0.6-0.5-1.7,0.1-2.2-0.8c-0.5-0.7-0.6-1.5-0.4-2.3c0.2-0.5,0.7-1.2,1-0.9c1.5,1.7,0.5-1.1,1.3-0.7
		c0.2-0.2,0.5-0.4,0.8-0.5c0.9,0,1.9,0,2.2,1.1c-0.5,1.3-0.7,2.4,0.8,3.2c0.9,0.5,0.7,1.3,0.4,2.1C38.1,73.5,36.8,76.7,36.8,80z"/>
	<path class="st101" d="M37.7,55.9c0,1.7,0.1,3.2,1,4.8c0.7,1.3,0.7,3.1-0.1,4.6c-0.1-0.1-0.2-0.1-0.3-0.2c-0.9-1.1-1.2-2.2-1.3-3.8
		c-0.1-1.5,0.3-3.6-1-5c-1.3-0.8-1.9-2-1.5-3.5c0.2-0.7,0.1-1.4,0-2.1c0.2-0.5,0.8-0.8,1.1-1.3c0.2-0.2,0.4-0.5,0.5-0.7
		c1.2-2.4,0.6-4.5-1.3-6.4c0.4-2.1,0.6-2.2,2.2-1.2c0.6,0.7,2.2,0.5,2.1,1.3c-0.1,2.1,0.7,4.1,0,6.2c-0.4,1.4-1.2,2.7-1.5,4.1
		C37.5,53.9,37.4,54.8,37.7,55.9z"/>
	<path class="st102" d="M37.7,55.9c-1.6-2.1-0.2-4,0.4-5.9c0.6-1.9,1-3.6,0.5-5.5c0,0-0.1,0-0.2-0.1c1.7-2.2-0.9-2-1.6-2.8
		c-0.5-0.9,0.2-1.2,0.7-1.6c1-0.3,1.8-0.3,2.2,1c0.3,1.1,1.2,1.9,2,2.8c0.3,1.8-0.7,3.4-0.8,5.2c0,0.9-1.6,1.5-2.3,2.4
		c-0.3,0.5-0.5,0.8-0.5,1.3c-0.2,0.9-0.6,1.7-0.4,2.7C37.7,55.6,37.7,55.7,37.7,55.9z"/>
	<path class="st103" d="M37.3,70.2c0-0.8,0.1-1.5-1-1.9c-1.6-0.5-1.7-2.2-0.3-3.5c0.3,0,0.6,0.2,0.8,0.4c1,1.1,2.6,1.8,2.3,3.6
		C37.5,68,38,69.9,37.3,70.2z"/>
	<path class="st100" d="M39,68.8c-0.6-1.4-2-2.3-2.7-3.6c0.7-0.3,1.5-0.5,2.2,0c0,0,0,0,0,0c0.8,0.7,1.4,1.5,1.6,2.5
		C40.4,68.5,40.4,69.6,39,68.8z"/>
	<path class="st104" d="M44,86.2c0,0.6-0.3,0.9-0.9,0.9c0.1-0.8-0.2-1.6,0.2-2.3C44.1,85,43.9,85.7,44,86.2z"/>
	<path class="st105" d="M44.4,88.9c0-0.4,0-0.8,0-1.2c0.2,0.1,0.3,0.2,0.5,0.4c0.1,0.3,0.3,0.7,0.2,1C45,89.4,44.7,89,44.4,88.9z"/>
	<path class="st106" d="M44,92c-0.5-0.6-0.4-1.1,0-1.7c0.1,0,0.3-0.1,0.4-0.1c0.5,0.4,0.5,0.8,0.4,1.3C44.5,91.7,44.2,91.8,44,92z"
		/>
	<path class="st107" d="M45.8,90.6c0.3,0.2,0.4,0.6,0.4,1c-0.4,0.1-0.8,0.8-1.3,0C45.2,91.3,45.5,91,45.8,90.6z"/>
	<path class="st108" d="M26.6,16.6c0.4,0,0.9,0,1.3,0c2.1,0.2,3.7-1.7,6-1.5c-0.7,0.9-1.3,1.7-2,2.5c0,0.3-0.1,0.5-0.4,0.4
		c-1.7-0.4-2.5,1.3-3.7,1.9c-1.8,0.9-1.5-0.3-1.6-1.1C26.1,18.1,26.4,17.4,26.6,16.6z"/>
	<path class="st109" d="M31.5,18c0.1-0.1,0.3-0.3,0.4-0.4c0.3,0,0.6,0,0.9,0c0.2,0.4,0.5,0.4,0.9,0.4c-0.2,1.9-2,2.9-2.4,4.7
		c-0.4,0.2-0.9,0.1-1.2-0.3C30.6,20.9,31,19.5,31.5,18z"/>
	<path class="st110" d="M31.5,22.4c-0.9-1.8,1.1-2.4,1.5-3.6c0.1-0.3,0.5-0.5,0.7-0.8c0.6-0.2,1.2-0.3,1.8-0.5
		c0.5-0.4,1-0.4,1.4,0.1c-0.2,1-0.7,1.9-0.7,2.9c-0.1,0.2-0.2,0.3-0.4,0.4c-0.8,0.5-2.4-0.8-2.4,1.2c0.3,2.3,1,4.5-0.4,6.8
		c-0.4,0.7,0.4,2.1,0.7,3.2c0.3,0.8,0.2,1.5,0.1,2.2c-0.3,1.1-0.7,1.8-1.9,0.7c-1-1-0.6,0.4-0.8,0.6c0,0.2-0.1,0.4-0.2,0.5
		c-0.4,0.5-1.2-0.2-1.7,0.5c-1.7,0.1-2.5-1.3-1.9-3.4c0.2-0.1,0.3-0.2,0.5-0.3c0.4,0,1.1,0.3,1-0.4c-0.3-2.1,1.8-3.3,1.7-5.3
		c0-0.1-0.2-0.3-0.3-0.3c-1-0.3-1.7-0.7-1.3-2C29.3,23.5,30,22.6,31.5,22.4z"/>
	<path class="st111" d="M36.8,18c-0.3-0.6-0.8-0.4-1.3-0.5c0.3-0.7-0.5-2.1,1.4-1.9c0.8,0.1,0.8-1.1,0.9-1.8
		c0.2-1.1-0.7-0.7-1.1-0.8c-0.8-0.2-1.3-0.7-1.6-1.3c3.1,0.8,3.6-1.9,4.9-3.6c0.9-0.3,1.8-0.6,2.6-0.9c0,0,0,0,0,0
		c0.5,0.4,1.3,0.2,1.5,1c0,0.5-0.2,0.8-0.7,0.9c-1.8-0.4-2.8,0.2-3,2.2c-0.1,1.6-1.1,3-1.8,4.4c-0.4,0.8-0.6,1.4-0.6,2.3
		c-0.1,0.2-0.2,0.4-0.4,0.5C37.1,18.6,36.7,18.6,36.8,18z"/>
	<path class="st78" d="M43.5,9c0.1-0.3,0.3-0.6,0.4-0.8c-0.2-0.5,0.2-0.7,0.5-0.9c0-1.1,1-1.4,1.8-1.8c1.8,1.3-0.3,2.1-0.4,3.1
		c-0.3,0.2-0.4,0.5-0.4,0.9c-1.2,0.5-1.2,2.2-2.6,2.6c-0.2,0-0.4,0-0.7-0.1c-0.5-0.2-0.6-0.6-0.6-1.1C41.6,9.7,42.5,9.3,43.5,9z"/>
	<path class="st112" d="M44.4,7.2c-0.2,0.3-0.3,0.6-0.5,0.9c-0.4-0.3-0.9-0.6-1.3-0.9C43.2,7.3,43.8,7.3,44.4,7.2z"/>
	<path class="st113" d="M19.4,28.2c0,0.3,0,0.6,0,0.9c0,0.3,0.1,0.6,0,0.9c-0.4,1.5-1.6,2.1-3,2.7c-2.5,1.1-2.7,1.7-1.2,3.8
		c0.6,1.1,1.3,1.7,2.7,1.2c0.8-0.3,1.9-0.7,2.4,0.7c-0.1,0.2-0.3,0.3-0.5,0.4c-1.7,0.9-3.8,0.5-5.5,1.4c-0.4,0.2-0.5-0.8-1.2,0
		c-0.8,0.9-1.4,0.5-1.8-1.2c-0.6,2.2-0.7,4.4-1,6.6c0,0.2,0,0.3,0,0.5c-0.6,0.2-1.1,0.8-1.7,0c-0.5-0.6,0-1,0.3-1.6
		c0.7-1.3-0.1-2.8,0.3-4.3c0.2-0.6-1.2-0.2-1.5-0.9c2-1.5,2-4.4,4-5.8c1.1-1.2,2-2.6,4.1-2.4c0.9,0.1,1.2-0.9,1.6-1.5
		C18,29.1,18.6,28.5,19.4,28.2z"/>
	<path class="st113" d="M14.4,30.5c-0.8,0.2-0.8-0.2-0.8-0.7c0-1.1,0.7-1.4,1.6-1.5c0.6,0,1,0.3,1,1C16,30.3,15.2,30.5,14.4,30.5z"
		/>
	<path class="st114" d="M42.2,11.7c0.1,0,0.3,0,0.4,0c1.2,0.1,1,1.1,1.3,1.8c0.2,0.1,0.3,0.3,0.5,0.4c0.4,0.2,1.2,0.1,0.9,0.9
		c-0.2,0.5-0.7,0.4-1.1,0.2c-0.7-0.3-1.1-0.1-1.2,0.7c0,0,0,0,0,0c-0.5,0.2-0.9,0-1.3-0.2C40.2,14.1,41.7,12.9,42.2,11.7z"/>
	<path class="st115" d="M43.9,13.5c-0.4-0.6-0.9-1.2-1.3-1.8c1.2-0.4,0.9-2.5,2.7-2.2C45.3,11,43.8,12,43.9,13.5z"/>
	<path class="st116" d="M13.6,64.4c0-0.1,0-0.3,0-0.4c-1.2-0.3-2.3-0.7-2.2-2.2c-1-2.3-1.5-4.6-0.5-7.1c0.2-0.5,0-1.1-0.7-1.2
		c-0.7-0.1-1.5-0.1-1.3-1c0.1-0.6,1-1.3,1.1-1.1c0.7,0.7,2.1-0.1,2.3,1.3c0.1,0.6,0.1,1.1,0.2,2c1.3-1.2,0.5-2.4,0.4-3.4
		c-0.1-1.8,0.2-2.7,2.1-1.5c0.6-0.7,1.1-1.6,2.3-1.1c0.2,0.1,0.3,0.3,0.4,0.4c1,1.1,1.7,2.3,0.8,3.9c-0.6,0.1-0.9-0.5-1.3-0.7
		c-0.5-0.2-0.9,0-1.2,0.3c-0.3,0.3-0.8,0.8-0.3,1.1c1.3,1,0.3,1.7-0.2,2.6c-0.6,1.1-1,2.2,0.3,3.1c0.6,0.4,0.9,1,0.4,1.7
		c-0.4,0.7-0.2,1.4-0.3,2.2C15.5,64.3,15,65.2,13.6,64.4z"/>
	<path class="st117" d="M10.5,45.6c-0.1-1.6-1.3-3.1,0.2-4.7c0.6-0.6-0.4-1.5,0.1-2.3c0.3-0.5,0.3-1.2,1.2-0.9
		c0.8,0.3,0.4,0.8,0.1,1.2c-0.3,0.4-0.3,0.9,0.2,1.1c0.4,0.2,0.8-0.2,1.2-0.4c0.7-0.4,1.7-1,2.2-0.7c0.9,0.4,1.6,0,2.3-0.1
		c0.6-0.1,1.3-0.3,1.9-0.4c0.5,1.8-0.1,3.6-0.1,5.4c-0.6,0.1-1.3-0.1-1.7,0.7c-0.3,0.7-1,1.1-1.7,1.4c-1.3,0.6-2,0.2-1.8-1.2
		c0.1-0.5,0.1-1,0-1.5c-0.2-1.4-1.5-1.2-2.2-1.2c-0.8,0-0.6,1-0.5,1.6c0.2,0.9,0.3,1.7-0.5,2.4C11.1,45.9,10.8,45.8,10.5,45.6z"/>
	<path class="st118" d="M11.4,46.1c0.7-1.4-0.6-2.7-0.1-4.2c0.4-1,0.6-1.4,1.4-0.5c0.7,0.7,1.4,0.6,2.6-0.5
		c-0.8,1.9,0.9,3.1-0.4,4.5c-0.3,0.3,0.5,0.8,0.8,0.5c0.8-0.6,1.9-0.8,2.2-2c0.3-0.9,0.4-0.9,1.5,0c-0.1,0.4-0.5,0.8-0.6,1.2
		c-0.2,0.7-0.2,1.4-0.3,2.1c-0.3,0.6-0.2,1.6-1.3,1.6c-1-0.4-1.4,0.8-2.2,0.9c0.1-1-0.9-1.2-1.3-1.8c-0.1-0.7-1.2-0.9-0.9-1.7
		c0.1-0.2,0.2-0.4,0.4-0.5c-0.3,0.1-0.2,0.5-0.4,0.6c-0.3,0.2-0.6,0.1-0.8-0.1C11.7,46.1,11.5,46.1,11.4,46.1z"/>
	<path class="st119" d="M11.4,61.7c0.7,0.6,0.9,2,2.3,1.9c0,0,0.1,0.1,0.1,0.2c0,0.1-0.1,0.1-0.1,0.2c-0.8-0.1-1.4,0.2-1.4,1.2
		c0.1,1.2-0.8,0.6-1.3,0.6c-0.9-2.7-1.8-5.3-2.7-8c0.9,0.4,1.3,1.1,1.4,2C9.8,60.7,10.1,61.6,11.4,61.7z"/>
	<path class="st117" d="M11.8,46.1c0.3,0,0.6,0,0.9,0v0c0.2,0.5,0.6,0.7,1.1,0.9c0.9,0.4,0.2,0.6-0.2,0.9
		C12.3,48,11.7,47.4,11.8,46.1z"/>
	<path class="st120" d="M29.7,79.6c-0.5,0-1,0.3-1.6-0.2c-0.8-0.7-1-0.6-1.3,0.6c-0.2,0.8-1,0.6-1.2,0.4c-1-1-2-0.3-3.1-0.3
		c-0.1-0.2-0.3-0.3-0.4-0.5c-0.4-1.2,0.9-2.7-0.9-3.6c-1.8-0.7-1.8-0.9-0.5-2.3c1.4,0.5,1.7,1.9,2.6,2.9c1.5,1.8,1.4,1.8,3.7,1.2
		c0-0.5-0.6-0.6-0.6-1.1c0.6-1.3,1.5-2.6,0.8-4.2c0-0.2,0.1-0.4,0.2-0.6c0.3-0.2,0.6-0.2,0.9-0.2c0.6,0.1,0.9-0.1,1-0.8
		c0.1-0.8,0.3-1.5,0.9-2.1c0.9-0.5,1.8-0.4,2.7,0.1c-0.1,2.7-0.9,5.1-3.2,6.7c-0.2,0.2-0.6,0.2-0.5,0.6c1.6-0.5-0.3,2.2,1.4,1.6
		c0.1,0.2,0.1,0.3,0,0.5C30.1,78.6,30,79.1,29.7,79.6z"/>
	<path class="st121" d="M27.4,71.9c0,0.2,0,0.3,0,0.5c-0.1,0.1-0.3,0.3-0.4,0.4c-0.9,0.2-1.2,0.7-0.6,1.5c0.3,0.7,0.3,1.4,0.2,2.1
		c0.4,0.7,1.5,0.6,1.8,1.8c-1,0.2-1.9,0.2-2.8,0.6c-1.7,0.8-1.8-1.4-2.8-2.1c-0.7-0.5-1.6-1.8-2-2.9c-0.7-1.5,1-0.8,1.3-1.4
		c0-0.6,0-1.2,0-1.7c-0.4-1,0-1.3,0.9-0.9c0.6,0.2,0.7,0.9,1,1.4c0-1.2-1-1.8-1.7-2.5c-0.1-0.5,0-1-0.5-1.4
		c-1.2-0.9-1.3-2.3-1.1-3.6c0.2-1.1,0-2.1-0.5-3c-0.1-0.1-0.1-0.3-0.2-0.4c-0.5-1.4-0.2-2.6,1.1-3.4c0.6-0.4,1.4-0.5,1.8,0.1
		c0.6,1.2,1.8,2.3,0.6,3.8c-0.3,0.4-0.6,0.7-0.1,1.1c1.1,0.9,1.7,2.5,3.2,3c0.8,0.3,1.5,0.8,1.9,1.6c0.6,0.9,1,1.9,1.5,2.9
		c-0.1,0.7-0.4,1.4-0.4,2.1c0.1,1.9-0.8,0.8-1.4,0.5c0.2-1.9-0.8-3.1-2.2-3.9c-0.2-0.5-0.4,0-0.2-0.2c0.1-0.1,0.1,0,0.2,0.1
		c0.3,0.6,0.3,1.3,0.3,1.9c0.1,0.8,0.6-0.3,0.8,0.1C28,70.5,28,71.2,27.4,71.9z"/>
	<path class="st122" d="M20.7,60.4c0.6,1,0.9,2,0.6,3.3c-0.3,1.1-0.8,2.7,1.4,3.2c1.1,0.2-0.2,1-0.2,1.5c-0.1,0.2-0.3,0.2-0.5,0
		c-0.9-0.5-1.4-1.2-1.4-2.2c-0.5-0.4-1-0.6-1.5-0.1c-0.5,0.4-1,0.6-1.5,0l0,0c-2-0.2-2.6-1.3-1.8-3.1c-0.1-0.2-0.4-0.4-0.3-0.6
		c0.7-1.7-0.6-2.9-1-4.4c-0.4-1.5,0.5-2.6,1.5-3.4c-0.4-1-1.5,0.1-1.5-0.8c0.1-0.9,0.5-1.9,1.4-2.3c0.5-0.3,1.4-0.7,1.9,0.3
		c0.1,0.3,0.4,0.6,0.6,0.9c0.4,0.3,0.3,0.7,0.2,1.1c0,1.7-1.4,3-1.1,4.8c0.5,0.6,1.2,1,1.2,1.8c0.2,0.5,0.5,0.1,0.8,0
		C20,60.3,20.4,60.2,20.7,60.4z"/>
	<path class="st119" d="M15.8,63c0,1.4,0.4,2.5,1.8,3.1c-1.3,0.4-2.4,1.9-4,0.9c1.5-0.9-0.1-1.8,0-2.7C14.8,64.6,15.2,63.7,15.8,63z
		"/>
	<path class="st123" d="M22.1,72.4c-0.2,0.6-1.4,0.4-1.3,1.4c-0.6,0.9-0.6,1.7,0.4,2.2c-0.5,1.4-0.9-0.2-1.3,0
		c-1.5-0.7-0.6-1.9-0.4-2.8C19.9,71.8,21.2,72.6,22.1,72.4z"/>
	<path class="st124" d="M22.1,68.4c0.2,0,0.3,0,0.5,0c1.9,0.4,1.9,2,2.3,3.4c-1.2,0.5-1.3-0.4-1.6-1.1c-0.3-0.6-0.7-1.5-1.1,0
		C21.2,69.9,21.8,69.1,22.1,68.4z"/>
	<path class="st125" d="M17.6,66.1c1,0.5,2.1-2.1,3.1,0c-0.5,0.1-1.2-0.2-1.1,0.6c0.2,0.9,0,1.2-1,1C17.7,67.6,17.2,67.1,17.6,66.1z
		"/>
	<path class="st126" d="M14.9,36.7c-2.2-2.3-1.7-3.6,1.3-4.5c1.3-0.4,2.6-1,2.7-2.7c0.9-0.5,1.5,0,2.2,0.4c-0.1,0.4-0.3,0.9-0.4,1.3
		c-0.4,0.4-0.8,0.8-1.4,1.1c-1.4,0.1-1.8,1.3-2.5,2.2c-0.2,0.2-0.3,0.6,0,0.7c0.3,0.1,0.7-0.1,1-0.3c0.4-0.3,0.3-0.7,0.3-1.2
		c0.2-1.2,1.1-0.9,1.8-0.9c1,0.5,0.9,1.3,0.8,2.2c0,0.3-0.1,0.6-0.3,0.9C19,37.6,17,37.8,14.9,36.7z"/>
	<path class="st127" d="M22.5,33.1c0.1,0,0.3,0,0.4,0c0.1,0.1,0.1,0.1,0.2,0.2c0.3,0.6,0.3,1.2,0.2,1.8c0,0.4-0.2,0.9,0.2,1.3
		c0.1,0.1,0.3,0.2,0.4,0.4c1.4,0.8-0.3,2.1,0.4,3c0.1,0.2,0.1,0.4,0.1,0.6c-0.1,0.2-0.1,0.4-0.2,0.6c0,0.1-0.1,0.2-0.1,0.3
		c-0.4,1,0.2,2.2-0.7,3.1c-0.3,0-0.6-0.1-0.7-0.4c-0.2-2-1.5-3.6-1.9-5.5c-0.2-0.5-0.5-1-0.4-1.6c0.3-1.2,1.6-1.9,1.7-3.2
		C22.2,33.4,22.4,33.3,22.5,33.1z"/>
	<path class="st72" d="M22.5,33.1c0,0.1,0,0.3,0,0.4c-0.5,0.9-0.3,2.8-2.2,1.3c0.4-0.7,0.2-1.3-0.5-1.8c-0.8,0-0.7-0.4-0.4-0.9
		c0-0.9,0.7-0.9,1.3-0.9C20.4,32.9,22,32.5,22.5,33.1z"/>
	<path class="st72" d="M21.2,30c-0.9,0.5-1.4-0.9-2.2-0.4c0.1-0.2,0.3-0.3,0.4-0.5C20,29.4,21.6,27.7,21.2,30z"/>
	<path class="st127" d="M22.5,31.4c0-0.4,0.1-0.7,0.4-0.9c0.9,0.9,1.5,1.8,0,2.7c0,0,0,0,0,0C23,32.5,22.8,31.9,22.5,31.4z"/>
	<path class="st128" d="M23,33.1c1-0.9,0-1.8,0-2.7v0c0.3-0.8,1.2-0.5,1.8-0.9c0.3-0.3,0.2-0.6-0.1-0.7c-2.2-0.2-1.7-1.6-1.2-2.9
		c1.3-1.1,2.7-1.8,4.5-1.8c0.3-0.1,0.6-0.3,0.9-0.4c0.5,1.2-0.5,1.9-1.1,2.7c-1.2,1.8-1,2.9,0.8,3.9c0.9,0.5,1,1,0.3,1.7
		c-0.4,0.4-1,0.6-1.4,1.1v0c-0.1,0.1-0.3,0.3-0.5,0.4c-1.3,0-1.9,1.5-3.1,1.6c-0.1,0.1-0.2,0.3-0.4,0.4c-0.2,0.1-0.3,0-0.5-0.1
		C23,34.6,23,33.9,23,33.1z"/>
	<path class="st86" d="M27.9,24.2c-0.1,0-0.4,0-0.4,0c-0.9,1.7-2.7,1.1-4,1.8c-0.8-0.6,0.2-1.2,0-1.8c1,0.6,1.1-0.6,1.7-0.9
		C26.4,22.9,27.5,22.2,27.9,24.2z"/>
	<path class="st127" d="M24.8,29.6c-0.6,0.3-1.2,0.6-1.8,0.9C23.1,29.3,24.1,29.7,24.8,29.6z"/>
	<path class="st129" d="M27.4,33.1c-0.1-1.1,1.2-1.2,1.5-1.9c-0.7-1.1-1.6-0.2-2.1-0.3c-1.6-3.1,0.9-4.9,2-7.1
		c0-0.8,0.5-1.3,1.3-1.4c0.5,0,0.9,0,1.4,0c-1.7,0.3-1.6,2-2.2,3.1c-0.3,0.7,0.1,0.8,0.6,0.8c1.9-0.1,1.9,1,1.1,2.2
		c-1.2,1.7-1.7,3.6-1.8,5.7C28.3,34.1,28.2,33,27.4,33.1z"/>
	<path class="st74" d="M42.2,15.3c0.3,0.1,0.6,0.3,0.9,0.4c-0.3,1-0.6,2.1-0.9,3.1c0.4,0.5,0.5,1.1,0,1.4c-1.9,1.3-1.7,3.2-1.6,5
		c0.1,1.8-1.4,2.7-1.9,4.2c1.1,0.1,1.4,1,1.8,2c-0.1,1.1-0.3,2.2-0.4,3.3c-0.5,3.4,0.4,6.4,2.2,9.2c-0.1,0-0.3,0-0.4,0
		c-1.4-0.3-2.2-1.3-2.4-2.5c-0.2-1.2-0.8-1.2-1.6-1.1c-1.3-1.3-0.3-3.1-1-4.5c0.2-3.2-0.2-6.5,0.3-9.6c0.3-2.1,1-4.2,1.1-6.5
		c0.1-0.9,0.8-1.4,1.6-1.7c0.8-0.3,1.5-0.7,1.6-1.7C41.4,15.8,41.7,15.4,42.2,15.3z"/>
	<path class="st130" d="M40.4,31.4c-0.1,0-0.1-0.1-0.2-0.1c-2.1-1.4-2.5-3-0.3-4.7c0.3-0.2,0.7-0.9,0.2-1.1c-1.2-0.6-0.2-1-0.2-1.7
		c0.1-2,1-3.4,2.3-4.8c2.1,1.7-0.7,2.7-0.5,4.2c-1-0.1-0.7,0.5-0.7,1.1C41.2,26.6,41.8,29.1,40.4,31.4z"/>
	<path class="st131" d="M30.6,78.2c0-0.1,0-0.3,0-0.4c0.1-0.7-0.2-1.7,0.7-1.8c1.1-0.2,0.4,1,0.9,1.4c0.6,0.5,1,1.3,1.5,1.9
		c0.4,0.5,0.8,1.1,0,1.5c-0.5,0.3-1.4,0.4-1.7-0.4c-0.3-0.7-0.6-1.2-1.4-1.2C30.3,78.8,30.3,78.5,30.6,78.2z"/>
	<path class="st132" d="M30.1,69.3c-1.3-0.5-1.4-1.7-1.8-2.7c-0.2-0.4,0.1-0.5,0.4-0.5c2-0.9,1.9,1.2,2.7,1.9
		c0.6,0.4,1.6-0.2,1.8,0.9c-0.2,0-0.3,0-0.5,0C31.9,69,30.9,68.5,30.1,69.3z"/>
	<path class="st133" d="M32.6,82.7c-0.5-0.2-1.5,0.3-1.5-0.7c0-0.7,0.7-0.6,1.2-0.6c0.7,0,1.2,0.3,1.3,1
		C33.6,83.1,33,82.7,32.6,82.7z"/>
	<path class="st134" d="M34.6,74.2c0.1,0.4,0.3,0.9,0.4,1.3c-0.1,0-0.3,0-0.4,0c-0.5-0.1-0.9-0.2-0.8-0.8
		C33.8,74.3,34.2,74.3,34.6,74.2z"/>
	<path class="st135" d="M30.6,78.2c0,0.3,0,0.6,0.1,0.9c-0.2,0.2-0.3,0.3-0.5,0.5c-0.2,0.2-0.3,0.2-0.5,0c0,0,0,0,0,0
		C29.5,78.8,29.3,78,30.6,78.2z"/>
	<path class="st120" d="M29.7,79.5c0.2,0,0.3,0,0.5,0c0.2,0.6,0.7,1.3-0.5,1.3C29.7,80.4,29.7,80,29.7,79.5z"/>
	<path class="st136" d="M39.9,89.4c-0.3,0-0.6,0-0.9,0c-0.2-0.3-0.3-0.6-0.5-0.9c0.5-0.6,0.3-1.3,0.3-2
		C39.6,87.3,39.9,88.3,39.9,89.4z"/>
	<path class="st81" d="M36.4,86.7c0,0.4,0,0.9,0,1.3c-0.6,0-1.2,0-1.6-0.5c-0.4-0.7,0.6-0.6,0.7-1C35.8,85.6,36,86.8,36.4,86.7z"/>
	<path class="st137" d="M36.8,84.9c0.4,0.1,1.1,0.1,1,0.6c-0.1,0.6-0.6,1.1-1.4,1.2C36.4,86,36.2,85.4,36.8,84.9z"/>
	<path class="st138" d="M31.5,68c-0.8-0.8-1.6-1.5-2.7-1.8c0-0.1,0.1-0.2,0.1-0.3c0.9-0.7,0.1-1.9,0.8-2.6c0.9-0.7,1.3-1.5,1.1-2.7
		c-0.3-1.5,0.7-2.1,1.7-3c1.2-1,2.9-0.7,4-1.7c0.8,0.7,0.9,1.5,0.8,2.6c0,0.7-0.7,2,0.7,2.4c0.1,0,0.2,0.2,0.3,0.3
		c-2.4,1.6,0.6,2.8,0.4,4.2c-0.7,0.1-1.5,0.6-2.2,0c-0.1-0.1-0.3-0.3-0.4-0.4c-0.6-0.6-1.4-0.7-2.2-0.9c-0.3-1,0.4-1.6,0.9-2.3
		c0.1-0.2,0.5-0.1,0.6-0.3c-0.3,0.1-0.7-0.2-0.8,0c-0.5,0.9-1.1,1.9-1.1,3c-0.1,0.3-0.2,0.6-0.4,0.8c-0.4,0.6,1,1.8-0.6,1.8
		c-1.4,0,0.2-1.4-0.8-1.9C30.6,66.1,31,67,31.5,68z"/>
	<path class="st139" d="M33.2,64.4c-1-0.9,0.1-1.4,0.3-2.1c0.2-0.6-1.2-2,0.8-1.5c0.8,0.2,1.5,0.3,2.4,0.4c-1.6,0.4-2.6,1.3-3,2.8
		C33.5,64.1,33.4,64.2,33.2,64.4z"/>
	<path class="st140" d="M37.3,35.8c0.8,1.4,0.2,3,0.5,4.5c-0.3,0.5-1,0.6-0.9,1.3c-1.6-1.8-1.2,0.5-1.8,0.9
		c-0.3,0.3-0.6,0.2-0.9,0.1c-0.6-1,0.1-1.9,0.5-2.7c0.6-1.1,0.6-2,0.2-3.1c-0.5-1.4-1.4-2.7-0.5-4.3c0.2-0.4,0-0.9-0.3-1.2
		c-0.8-0.9-0.7-1.8,0-2.8c0.5-0.9,1-2,0.6-3c-0.9-2.2-0.3-3.8,1.5-5.1c-0.4-1.4,0.5-1.8,1.6-1.9l0,0c0.1-0.1,0.2-0.1,0.3-0.2
		c0.2,0.1,0.3,0.3,0.4,0.5c-0.1,2.8-1.6,5.3-1.5,8.2c0.1,1.4-1,2.8,0.3,4.2c0.4,0.5-0.1,1.3-0.4,1.9C36.4,34.1,36.8,35,37.3,35.8z"
		/>
	<path class="st141" d="M36.4,55.9c-0.1,0.6,0.1,1.3-0.7,2.2c-0.2-0.6-0.5-1.3-0.6-1.7c-1.2,0.5-0.7,1.6-1.4,1.6
		c-2.4,0.1-2.8,1.3-2.2,3.4c0.3,1.1-0.5,1.9-1.7,2.1c-0.1-0.1-0.1-0.1-0.2-0.2c-0.2-1.3-1.7-2.3-1-4c0.2-0.4-1.1-0.9-1.5-1.5
		c-0.9-1.2-0.3-1.4,0.8-1.3c1.6,1.2,1.8-0.6,2.6-1.1c0.6,0.1,1.2-0.2,1.7,0.3c0.3,0.3,0.6,0.9,1,0.3c0.3-0.4,0.8-0.9,0.3-1.4
		c-1.5-1.3,0.1-2.8-0.2-4.2c-0.1-0.5,0.8-0.3,1.2-0.1c0.1,0.1,0.1,0.2,0.2,0.3c0.6,0.6,1.1,1,0.6,2C34.4,54,35,55.1,36.4,55.9z"/>
	<path class="st142" d="M34.1,42.5c0.3,0,0.6,0,0.9,0c2.5,1.2,3.2,4.7,1.4,6.7c-0.6-0.5-0.6-1.3-0.8-2c-0.2-0.9-0.4-1.7-0.9-2.5
		c-0.5-0.6-0.6-1.2-0.6-2C34.1,42.6,34.1,42.6,34.1,42.5z"/>
	<path class="st143" d="M35.9,47c0.5,0.7,0.6,1.4,0.4,2.2c-0.2,0.1-0.3,0.3-0.5,0.4c-1.6,0.5-1.7-0.5-1.7-1.7
		C34.6,47.3,34.9,46.5,35.9,47z"/>
	<path class="st141" d="M34.6,47.9c-0.1,1,0.1,1.7,1.3,1.7c0,0.9-0.7,0.9-1.3,0.9c0,0,0,0,0,0c-0.4-0.5-0.9-0.8-1.2-1.5
		c-0.1-0.4-0.1-0.9,0.1-1.3C33.9,47.6,34.4,46.7,34.6,47.9z"/>
	<path class="st101" d="M36.4,20.6c-1.7,1.4-2.1,3.1-1,5.1c0.4,0.7-0.3,1.5-0.6,2c-0.8,1.5,0,2.8,0.1,4.2c0.1,2.1,0.1,4.2,1.2,6.1
		c0.3,0.6-0.2,0.9-0.4,1.3c-0.6,1-1,2.1-1.5,3.1c0,0,0,0.1,0,0.1c-0.4,0.1-0.6-0.1-0.7-0.4c0.5-1.6-1-3-0.7-4.6
		c0.1-0.4-0.2-0.2-0.4-0.2c-1.3,0.4-1.2-0.9-1.8-1.5c0-0.3,0-0.6,0-0.9c0.1-0.6-0.3-1.5,0.6-1.7c0.8-0.1,0.6,0.8,1,1.3
		c0.2,0.2,0.3,0.4,0.8,1.1c-0.1-1.6,1.5-2.7-0.4-3.6c0.9-1.4-1.1-3,0.4-4.7c0.7-0.7,0.2-2.6,0-3.9c-0.1-0.4-0.5-0.8-0.2-1.4
		c0.7-1.3,2.1-0.8,3.1-1.3v0C36.1,20.4,36.2,20.4,36.4,20.6z"/>
	<path class="st144" d="M24.3,39.8c-1.2-0.7-1.3-0.8-0.6-1.3c1.3-0.9,0-1.2-0.3-1.8c0.9-0.8,1.7-0.9,2.7-0.1c1,0.8,2.2,0.9,3.1-0.3
		c0.5-1.1,0.9-0.3,1.3,0c0.3,0.2,0.4,0.5,0.4,0.8c0.1,0.6,0,1.2-0.6,1.5c-1.5,0.9-1.2,2.1-0.6,3.4c-0.6,0.8-1.5,1-2.3,1.5
		c-0.2,0-0.4,0-0.6-0.2c-0.1-1.3-0.5-2.6-0.2-3.9C25.8,39,25.2,40.3,24.3,39.8z"/>
	<path class="st129" d="M29.2,36.2c-0.4,2.5-3,1.5-3.3,1.1c-0.8-1.3-1.7-0.5-2.5-0.6c-0.4-0.4-0.3-0.9,0-1.3c0.7-0.4,1.9,0,2-1.4
		c0.1-0.9,1.2-0.3,1.6-0.8c0.1,0,0.3,0,0.4,0C27.3,34.6,27.3,36,29.2,36.2z"/>
	<path class="st142" d="M30.6,37.1c0-0.3,0-0.6,0-0.9c0-0.2,0-0.3,0-0.5c0.8,0.2,1.3,1.8,2.5,0.6c0.2-0.2,1,0.6,0.8,0.7
		c-2.1,1.1,0.1,1.9,0.1,2.9c0,0.7-0.2,1.4-0.4,2.1c-1.2,0-1.7-1.4-3.1-1.5c-0.7,0-0.9-1.1-0.2-1.8C31,38.3,31.1,37.8,30.6,37.1z"/>
	<path class="st145" d="M35.9,20.6c-0.9,0.8-2.1,0.7-3.1,1.3C32.8,19.2,34.7,20.7,35.9,20.6z"/>
	<path class="st145" d="M36.4,20.6c-0.2,0-0.3,0-0.5,0c0.2-0.9-1-2.3,0.9-2.7c0.2,0.3,0.6,0.4,0.9,0.5C36.9,18.9,36,19.4,36.4,20.6z
		"/>
	<path class="st112" d="M38.2,18.4c-0.1,0-0.3,0-0.4,0c-1.3-2,1-3.1,1.3-4.8c0.2-1,0.9-1.9,0.9-3c0.1-1.9,1.9-2.7,3.5-1.6
		C43,9.7,42,9.9,41.7,10.8c-0.1,1.8-0.8,3.5-1.4,5.2C40,17.2,39.2,17.9,38.2,18.4z"/>
	<path class="st146" d="M38.2,18.4c2.2-2.1,2.2-5.1,3.6-7.6c0,0.4,0.1,0.7,0.4,0.9c0.7,1.2-1.5,2.4,0,3.6c-0.2,0.3-0.3,0.6-0.5,0.9
		C40.8,17.4,39.8,18.5,38.2,18.4L38.2,18.4z"/>
	<path class="st147" d="M21.2,38c0.9,2,1.8,4,2.2,6.3c0.3,0,0.6,0.2,0.7,0.5c0.3,0.6,0.5,1.3,0.6,2c0,0.2,0.1,0.4,0.1,0.6
		c0,0.2,0,0.4,0,0.6c0,0.9,0.4,1.7,0.8,2.6c-0.2,1.4-0.4,1.4-2.2,0.5c0-1.3,0-2.6-0.4-3.9c-0.2-0.9-0.8-1.1-1.6-1.4
		c-1-0.4-0.7,0.7-1.1,0.9c-1.3,0.6-1.1,3-3.2,2.5c0-0.1,0-0.3,0-0.4c0.3-0.6,0.6-1.2,0.9-1.8c0.5-0.7-0.1-1.6,0.4-2.2
		c0-0.6,0.3-0.9,0.9-0.9c-0.5-1.8-0.1-3.6,0.4-5.4c0.1,0,0.3,0,0.4,0c0.3,0.2,0.4,0.5,0.3,1C20.9,39,20.7,38.3,21.2,38z"/>
	<path class="st72" d="M21.2,38c-0.1,0.6,0.2,1.3-0.5,2c-0.5-0.5-0.3-1-0.4-1.5c-0.8-0.8-1.6-0.5-2.4-0.1c-1.7,0.7-2.6,0-3-1.6
		c1.8,0,3.8,0.6,5.4-0.9c0.8,0,0.7,0.4,0.4,0.9C20.9,37.2,21,37.6,21.2,38z"/>
	<path class="st148" d="M17.2,49.2c1.7-1,2.7-2.5,3.4-4.6c0.4,1.5,2.7-0.2,2.8,1.7c0.2,1.6,1.5,3.1,0,4.7c0.3,1.4-0.2,2.6-1.1,3.6
		c-1.4,0.6-1.3-0.6-1.7-1.3c-0.2,0.4,0,0.9-0.2,1.3c-0.6,0.5-1.2,0.4-1.7-0.2c0-0.1-0.1-0.2-0.1-0.3c0-0.4,0-0.9,0-1.3
		C18.4,51.5,18.3,50.2,17.2,49.2z"/>
	<path class="st149" d="M14,61.4c-1.2-0.6-1.2-1.9-2-2.6c-0.4-0.4-0.8-1,0-1.4c0.7-0.3,1.1,0.1,1.5,0.6C14.2,59,14,60.1,14,61.4z"/>
	<path class="st117" d="M12.7,46.1c0.1-0.7-0.8-1.3,0.1-2.3C13.3,44.7,14.1,45.3,12.7,46.1L12.7,46.1z"/>
	<path class="st117" d="M18.5,44.7c-0.1,0.8,0.3,1.6-0.4,2.2C18.2,46.2,17.8,45.4,18.5,44.7z"/>
	<path class="st150" d="M27.4,71.9c-0.1-0.7,0.3-1.6-0.9-1.7c-0.1,0.2-0.3,0.2-0.4,0c-0.6-1.1,0.1-2.5-1-3.5
		c1.5,1.3,3.6,2.1,3.9,4.4c0.1,0.7-0.2,0.8-0.7,0.8C28,72,27.7,71.9,27.4,71.9z"/>
	<path class="st151" d="M27,72.4c0.1,0,0.3,0,0.4,0c1,1.6,0.8,3-0.9,4c-0.4-0.7-0.5-1.4-0.5-2.2C24.8,72.8,26.6,73,27,72.4z"/>
	<path class="st152" d="M18.5,60.8c0.1-1-0.9-1.2-1.3-1.8c0.1-0.3,0.3-0.6,0.6-0.6c0.6,0,1.4,0.3,1.5-0.8c0.1-1.9,0.6-3.1,2.9-2.1
		c0.4,0.2,1-0.3,1.4-0.5c0.7-0.3,1,0.1,1.2,0.7c0.1,0.5,0.3,1,0.2,1.5c-0.5,0.6-0.2,1.3,0,1.9c0.5,1.2,0.4,2.6,1.4,3.6
		c0.3,0.8,0.6,1.7,0.2,2.6c-2.1-0.3-2.3-2.8-4.1-3.5c-0.4-0.1-0.1-0.8,0.1-1c2.6-1.1,0.2-2.4,0.1-3.6c0-0.7-0.8-0.4-1.3-0.1
		c-1.3,0.8-1.4,1.9-0.7,3.2c-0.3,0.1-0.6,0.3-0.9,0.4C19.4,60.3,19,61.1,18.5,60.8z"/>
	<path class="st153" d="M26.6,65.3c-0.5-0.8-0.4-1.8-0.4-2.7c-0.1-1.1,0.8-1.9,1.4-1.7c1.1,0.3,2.2,1.1,1.9,2.6
		c-0.1,0.9-0.1,1.8-0.7,2.6c-0.2,0.1-0.3,0.3-0.5,0.4C27.7,66.2,27.1,65.7,26.6,65.3z"/>
	<path class="st120" d="M27,72.4c-0.1,0.7-1.5,0.7-0.9,1.8c-0.6-0.1-1-0.4-0.7-1C25.6,72.4,26.3,72.4,27,72.4z"/>
	<path class="st154" d="M26.1,70.2c0.1,0,0.3,0,0.4,0c0.1,0.3,0.2,0.7,0.3,1c-0.2,0-0.4,0.2-0.6,0.1C25.7,71,25.9,70.6,26.1,70.2z"
		/>
	<path class="st155" d="M17.6,58.6c-0.2,0.2-0.3,0.3-0.5,0.5c-0.6-0.4-0.6-1.1-0.3-1.6c0.7-1,1.4-2,0.9-3.4c-0.1-0.2,0.5,0,0.7,0
		c0,0,0,0,0,0C19.8,56.8,19.7,57.5,17.6,58.6z"/>
	<path class="st121" d="M18.5,60.8c0.4-0.1,0.9-1.7,1.3,0c-0.5,0.2-0.6,1.1-1.3,0.8C18,61.4,18.2,61.1,18.5,60.8z"/>
	<path class="st156" d="M19.4,32.2c0,0.4,0.1,0.7,0.4,0.9c-0.1,0.7-1.4-0.2-1.3,0.9c-0.4,0.4-0.7,0.9,0,1.3
		c-0.4,0.6-1.2,0.6-1.8,0.8c-0.4,0.1-0.7,0-0.8-0.5C15.6,34.5,18.2,32,19.4,32.2z"/>
	<path class="st147" d="M20.8,36.7c0-0.4-0.1-0.7-0.4-0.9c0-0.3,0-0.6,0-0.9c1.5,0.7,1.6-0.7,2.2-1.3C22.9,35.2,21.4,35.7,20.8,36.7
		z"/>
	<path class="st157" d="M18.5,35.4c-0.5-0.1-1.3,0.2-1.4-0.2c-0.1-0.8,0.7-1,1.4-1.1C18.8,34.5,18.8,34.9,18.5,35.4z"/>
	<path class="st158" d="M24.3,39.8c0.5-0.3,1-0.7,1.5-0.9c0.5-0.3,1.1-0.6,1.6-0.1c0.7,0.6-0.2,1-0.2,1.4c-0.1,1.1,0.3,2.1-0.2,3.2
		c-0.1,0-0.2,0.1-0.3,0.1c-0.3,0-0.7-0.1-1-0.2c-1.2-0.5-2.6-0.7-1.8-2.6l0,0c0.6-0.3,0.9,0.3,1.5,0.3c-0.5-0.2-0.8-0.5-1-0.8
		C24.3,40.1,24.3,40,24.3,39.8z"/>
	<path class="st144" d="M23.9,40.7c-0.4,1.8,1.4,1.5,2.2,2.2c-0.5,0.9-0.6,2.4-2.2,1.8c-0.1-0.1-0.3-0.3-0.4-0.4
		C23.6,43.1,23,41.8,23.9,40.7z"/>
	<path class="st144" d="M24.3,40.3c0.9,0.1,1.7,0.4,2,1.5c-1.1,0.2-1.6-0.8-2.4-1.1C24,40.6,24.2,40.4,24.3,40.3z"/>
	<path class="st144" d="M23.4,35.4c0,0.4,0,0.9,0,1.3c-1.2-0.1-0.7-0.8-0.4-1.3C23.1,35.4,23.3,35.4,23.4,35.4z"/>
	<path class="st144" d="M27,33.1c-0.3,0.6-1.2,0.3-1.3,1.1c-0.1,1.8-1.2,1.5-2.3,1.2c0-0.8-0.3-2.2,1.2-0.9
		C24.9,33.1,25.9,33.1,27,33.1z"/>
	<path class="st159" d="M38.2,18.4c1.2-0.8,2.4-1.5,3.6-2.3c0.5,1.2,0.2,1.9-1.1,2.1c-1.6,0.2-2.1,1.2-2,2.8c0,1.6,0.5,3.2-1.1,4.6
		c-0.5,0.5-0.5,2.9-0.2,3.6c1.1,2.3-0.5,4.4,0,6.5c-1.4-0.9-1.5-2-0.8-3.4c0.5-0.9,0.6-1.9-0.6-2.4c-0.3-0.1-0.6-0.2-0.5-0.6
		c1.5-3.1,1.1-6.5,2.1-9.7C37.7,19.4,38.2,19,38.2,18.4z"/>
	<path class="st132" d="M28.8,66.2c-0.1-0.9,0.3-1.8,0.5-2.7c0.1-0.2,0.3-0.2,0.4,0c0,0,0,0,0,0C29.6,64.5,30.9,65.9,28.8,66.2z"/>
	<path class="st121" d="M29.7,63.5c-0.1,0-0.3,0-0.4,0c-0.8-2.5-1.4-2.7-3.2-0.9c-0.4-0.1-0.7-0.1-1.1-0.2c0.2-1.1-0.9-2.2-0.3-3.4
		c-0.2-0.6-0.5-1.2,0-1.8c-0.1-0.4-0.3-0.9-0.4-1.3c0.3-0.7,0.5-1.4,1.5-1.2c0.2,0.1,0.3,0.2,0.4,0.4c-0.2,1.3,1.5,0.5,1.7,1.4
		c0,0.1,0,0.2-0.1,0.3c-1.1-0.1-1.1,0.2-0.4,1c0.7,0.8,3.2,1,1.1,2.9c0,0,0.2,0.5,0.3,0.5C30.9,61.4,29.4,62.7,29.7,63.5z"/>
	<path class="st160" d="M33.7,49.2c0.6,0.3,0.9,0.7,0.9,1.3c-0.2,0.3-1.3-0.9-0.9,0.5c0.3,1.1-1.1,2.4-0.4,2.8
		c1.6,1,0.3,1.9,0.3,2.7c0,0.8-1.2,0.9-1.3,0.5c-0.2-1.1-1.4-0.9-1.8-1.6c0-0.1,0-0.2,0-0.3c0-1.1,0.8-2,0.6-3.2
		c0-0.2,0.1-0.4,0.2-0.6c1.4-0.3-0.4-0.6,0-0.9c0.3-1.1,1.3-1,2.1-1.3C33.5,49.2,33.6,49.2,33.7,49.2z"/>
	<path class="st121" d="M30.6,55.5c-0.8,0.6-0.2,1.6-0.7,2.4c-0.7-0.3-1.6-0.2-2-1.1c0,0,0,0,0,0c0.3-0.4,0.3-0.8-0.3-1
		c-0.5-0.2-1.1-0.3-1.5-0.8l0,0c0.2-2.5,0.4-2.8,2.4-2.5C31,52.8,31,53.3,30.6,55.5L30.6,55.5z"/>
	<path class="st161" d="M30.6,37.1c0.8,0.4,1.9,0.7,0.4,1.7c-0.4,0.2-0.7,0.5-0.5,1.1c0.3,1,0.8,0,1.1,0.1c1.1,0.3,1.4,1.4,2.2,2.1
		c0.2,0.2,0.3,0.3,0.5,0.5c0.3,0.6,0.6,1.2,0.9,1.8c-0.1,0.3-0.4,0.6-0.5,1c-0.3,0.7-0.1,1.8-1.2,1.8c-1,0-1.3-0.9-1.6-1.6
		c-0.5-0.8-1.1-1.6-1.7-2.3c-0.2-0.4-0.5-0.7-0.3-1.2c-1.8-1.2-1.6-2.4,0-3.5C30.2,38.2,30.7,37.9,30.6,37.1z"/>
	<path class="st144" d="M30.1,43c1.4,0.7,1.8,2.2,2.7,3.4c0.2,0.3,0.4,0.6,0.8,0.4c0.2-0.1,0.4-0.6,0.3-0.7
		c-0.9-1.4,0.6-1.2,1.1-1.7c0.4,0.8,1,1.6,0.9,2.7c-0.7-0.1-0.9,0.6-1.3,0.9c-0.3-0.5-0.6-0.1-0.9,0c-0.4,0-0.7,0.3-1,0.4
		c-1.1,0.8-1.8,0.5-2-0.8c0.2-1.1-0.2-1.8-1-2.5C29,44.3,28.5,43.3,30.1,43z"/>
	<path class="st162" d="M32.8,47.9c0.3-0.1,0.6-0.5,1,0c0,0.4,0,0.9-0.1,1.3l0,0c-0.5,0.4-0.9,0.2-1.2-0.3
		C32.1,48.4,32.4,48.1,32.8,47.9z"/>
	<path class="st163" d="M30.1,43c-1.3,0.7-0.6,1.6,0.2,1.9c1.5,0.6,1.2,1.5,0.7,2.5c-0.5,0.4,0.6,1.3-0.3,1.5c-1,0.2-2-0.4-2.8-1
		c-0.6-0.4-0.7-1.1-1-1.7c-0.1-0.2-0.1-0.4-0.2-0.6c-0.1-0.6,0.3-1,0.5-1.5c0.1-0.2,0.2-0.5,0.2-0.7c0.3-1.3,1.4-1,2.2-1.3
		C29.8,42.4,30,42.7,30.1,43z"/>
	<path class="st158" d="M27.4,43.4c0.4,0.2,0.4,0.5,0.4,0.9c-0.3,0.3-0.7,0.2-1,0.3c-0.2-0.1-0.3-0.2-0.4-0.3c0-0.4,0.2-0.7,0.6-0.8
		l0,0C27.1,43.4,27.3,43.4,27.4,43.4z"/>
	<path class="st122" d="M30.6,55.4c-0.1-2-1.1-2.6-3.1-2.5c-1.6,0.1,0,2-1.4,2.1c-0.8-0.2-1.3,0.4-1.8,0.9c-0.1-0.4-0.2-0.9-0.6-0.4
		c-0.9,0.9-1.5,0.8-2.7,0.3c-1.5-0.8-1.2,1-1.1,1.5c0.1,2.2-0.6,2.4-2.3,1.3c2-1.2,0.8-2.9,0.9-4.5c0.5,0.3,1.1,0.5,1.8,0.5
		c0.6-0.2,1.2,0.5,1.8,0c0.4-1.2,0.9-2.4,1.3-3.6c0.5,0.1,0.9,0.2,1.4,0.3c0.9,0.1,0.4-0.4,0.4-0.7c0.1-0.1,0.1-0.2,0.2-0.2
		c1.5-0.5,3,0.1,4.6,0c0.5,0,1-0.2,1.5,0.2c0.2,0.2,0.5,0.3,0.6,0.5c0.1,0.4-0.3,0.3-0.6,0.4c-0.3,0.2-0.7,0.5-1.2,0.2
		c0.3,0.4,0.8-0.1,1.1,0.2C32.2,53.3,31.1,54.3,30.6,55.4z"/>
	<path class="st164" d="M31.5,50.5c-0.5,0.2-0.9,0.3-1.4,0.5c-0.8-1-1.4-2.1-3-1.2c-0.3,0.2-1-0.2-1.4-0.4c-0.6-0.4-0.8-1.1-1.3-1.5
		c0-0.2,0-0.3,0-0.5c0.9-0.6,2-0.9,2.7-1.8c0.8,0.9,1.3,2,2.6,2.7c1.6,0.8,0.9-0.8,1.4-0.9c0.2,1.8,1.3-0.1,1.8,0.5
		c-0.5,1,0,1.3,0.9,1.3C33.2,50.1,32,49.8,31.5,50.5z"/>
	<path class="st165" d="M27,45.6c0.1,2.1-1.4,1.8-2.7,1.8c0-0.1,0-0.3,0-0.4c0.4-1.2,0.3-2.8,2.2-2.7C27,44.6,26.5,45.3,27,45.6
		L27,45.6z"/>
	<path class="st164" d="M26.5,44.3c-1.2,0.5-1.6,1.7-2.2,2.7c-0.2-0.7-0.3-1.5-0.5-2.2c1.4,0.2,1-1.8,2.2-1.8
		c0.3,0.1,0.6,0.3,0.9,0.4C26.8,43.7,26.7,44,26.5,44.3z"/>
	<path class="st122" d="M24.3,47.9c0.8,0,1.3,0.5,1.3,1.3c0.3,0.6-0.1,0.9-0.4,1.3c0,0,0,0,0,0C24.6,49.8,24.4,48.8,24.3,47.9z"/>
	<path class="st166" d="M22.2,52.2c-0.7-0.3-0.6-1.1-1.4-1.1c-1.1-0.1-1.5-1.1-1.5-2.2c-0.1-1.2,0.8-1.9,1.5-2.2
		c1-0.4,1.2,1.2,2.3,1.5c0.6,0.1,0.5,1.2,0.1,1.8C22.7,50.6,22.6,51.4,22.2,52.2z"/>
	<path class="st167" d="M22.1,54.6c-0.6,0.6-1.2,0.6-1.8,0C20.2,54.3,20,54,20,53.8c-0.1-0.6-0.3-1.5,0.6-1.5c0.6,0,0.9,0.6,0.7,1.3
		C21.1,54.2,21.5,54.5,22.1,54.6z"/>
	<path class="st122" d="M24.7,57.2c0,0.6,0.5,1.2,0,1.8C24,58.4,23.1,57.9,24.7,57.2z"/>
	<path class="st168" d="M28.6,63.1c-0.6,0.6-1.1,1-1.8,0.6c-0.3-0.2-0.3-0.6-0.1-0.8C27.4,62.2,27.9,63,28.6,63.1z"/>
	<path class="st169" d="M26.1,55c0.6,0.1,1.1,0.2,1.7,0.3c0.4,0.1,0.9-0.2,1,0.5c0.1,0.6-0.2,1-0.9,1c-0.7-0.9-1.6-0.1-2.5-0.1
		C25.7,56,25.9,55.5,26.1,55z"/>
	<path class="st122" d="M25.7,59c0.1-0.3,0.1-0.7,0.5-0.6c0.3,0.1,0.4,0.4,0.3,0.7c0,0.3-0.1,0.7-0.5,0.6
		C25.7,59.6,25.7,59.3,25.7,59z"/>
	<path class="st164" d="M31.5,51.9c-0.8,0.5-1.5,0.3-2.6-0.4c1.2,0,1.9,0,2.6,0C31.5,51.6,31.5,51.7,31.5,51.9z"/>
	<path class="st164" d="M27,45.6c-0.5-0.3-0.4-0.8-0.4-1.3c0.4,0,0.9,0,1.3,0C27.6,44.8,26.9,44.9,27,45.6z"/>
	<path class="st170" d="M25.2,50.5c0.1-0.4,0.3-0.9,0.4-1.3c0.8-0.5,2,1,2.6-0.6c0.9,0.6,2.1,0.9,1.9,2.4
		C28.5,50.8,26.9,50.7,25.2,50.5z"/>
</g>
</svg>
