<?xml version="1.0" encoding="utf-8"?>
<!-- Generator: Adobe Illustrator 25.0.0, SVG Export Plug-In . SVG Version: 6.00 Build 0)  -->
<svg version="1.1" id="Layer_1" xmlns="http://www.w3.org/2000/svg" xmlns:xlink="http://www.w3.org/1999/xlink" x="0px" y="0px"
	 width="105.5px" height="129px" viewBox="0 0 105.5 129" style="enable-background:new 0 0 105.5 129;" xml:space="preserve">
<style type="text/css">
	.st0{fill:#48A6DD;}
	.st1{fill:#FFFFFF;}
	.st2{fill:#231F20;}
	.st3{fill:#F9F9F9;}
	.st4{fill:#FAFAFA;}
	.st5{fill:#2E2E2E;}
	.st6{fill:#CBCBCB;}
	.st7{fill:#999999;}
	.st8{fill:#F4F4F4;}
	.st9{fill:#242424;}
	.st10{fill:#D5D5D5;}
	.st11{fill:#262626;}
	.st12{fill:#202020;}
	.st13{fill:#070707;}
	.st14{fill:#505050;}
	.st15{fill:#343434;}
	.st16{fill:#E6E6E6;}
	.st17{fill:#E4E4E4;}
	.st18{fill:#090909;}
	.st19{fill:#F3F3F3;}
	.st20{fill:#585858;}
	.st21{fill:#1E1E1E;}
	.st22{fill:#141414;}
	.st23{fill:#080808;}
	.st24{fill:#A0A0A0;}
	.st25{fill:#757575;}
	.st26{fill:#D8D8D8;}
	.st27{fill:#121212;}
	.st28{fill:#E3E3E3;}
	.st29{fill:#181818;}
	.st30{fill:#0D0D0D;}
	.st31{fill:#EDEDED;}
	.st32{fill:#AEAEAE;}
	.st33{fill:#E1E1E1;}
	.st34{fill:#8E8E8E;}
	.st35{fill:#BCBCBC;}
	.st36{fill:#AFAFAF;}
	.st37{fill:#858585;}
	.st38{fill:#C9C9C9;}
	.st39{fill:#1F1F1F;}
	.st40{fill:#303030;}
	.st41{fill:#E0E0E0;}
	.st42{fill:#F6F6F6;}
	.st43{fill:#D4D4D4;}
	.st44{fill:#E8E8E8;}
	.st45{fill:#FDFDFD;}
	.st46{fill:#E7E7E7;}
	.st47{fill:#434343;}
	.st48{fill:#404040;}
	.st49{fill:#0C0C0C;}
	.st50{fill:#C3C3C3;}
	.st51{fill:#B4B4B4;}
	.st52{fill:#BDBDBD;}
	.st53{fill:#898989;}
	.st54{fill:#838383;}
	.st55{fill:#7F7F7F;}
	.st56{fill:#3E3E3E;}
	.st57{fill:#2F2F2F;}
	.st58{fill:#C4C4C4;}
	.st59{fill:#383838;}
	.st60{fill:#3A3A3A;}
	.st61{fill:#2A2A2A;}
	.st62{fill:#575757;}
	.st63{fill:#414141;}
	.st64{fill:#676767;}
	.st65{fill:#5D5D5D;}
	.st66{fill:#171717;}
	.st67{fill:#4E4E4E;}
	.st68{fill:#D1D1D1;}
	.st69{fill:#C7C7C7;}
	.st70{fill:#626262;}
	.st71{fill:#8F8F8F;}
	.st72{fill:#969696;}
	.st73{fill:#ACACAC;}
	.st74{fill:#B7B7B7;}
	.st75{fill:#F0F0F0;}
	.st76{fill:#D0D0D0;}
	.st77{fill:#CACACA;}
	.st78{fill:#E2E2E2;}
	.st79{fill:#C6C6C6;}
	.st80{fill:#B6B6B6;}
	.st81{fill:#D7D7D7;}
	.st82{fill:#4F4F4F;}
	.st83{fill:#0B0B0B;}
	.st84{fill:#101010;}
	.st85{fill:#787878;}
	.st86{fill:#A7A7A7;}
	.st87{fill:#9A9A9A;}
	.st88{fill:#7E7E7E;}
	.st89{fill:#9D9D9D;}
	.st90{fill:#707070;}
	.st91{fill:#BBBBBB;}
	.st92{fill:#494949;}
	.st93{fill:#373737;}
	.st94{fill:#CFCFCF;}
	.st95{fill:#222222;}
	.st96{fill:#535353;}
	.st97{fill:#555555;}
	.st98{fill:#6F6F6F;}
	.st99{fill:#5A5A5A;}
	.st100{fill:#DEDEDE;}
	.st101{fill:#F1F1F1;}
	.st102{fill:#616161;}
	.st103{fill:#828282;}
	.st104{fill:#A8A8A8;}
	.st105{fill:#8C8C8C;}
	.st106{fill:#B2B2B2;}
	.st107{fill:#B8B8B8;}
	.st108{fill:#7D7D7D;}
	.st109{fill:#C0C0C0;}
	.st110{fill:#D3D3D3;}
	.st111{fill:#797979;}
	.st112{fill:#888888;}
	.st113{fill:#BEBEBE;}
	.st114{fill:#5C5C5C;}
	.st115{fill:#777777;}
	.st116{fill:#878787;}
	.st117{fill:#8B8B8B;}
	.st118{fill:#6B6B6B;}
	.st119{fill:#7B7B7B;}
	.st120{fill:#929292;}
	.st121{fill:#C2C2C2;}
	.st122{fill:#989898;}
	.st123{fill:#6E6E6E;}
	.st124{fill:#ADADAD;}
	.st125{fill:#9C9C9C;}
	.st126{fill:#9F9F9F;}
	.st127{fill:#727272;}
	.st128{fill:#ABABAB;}
</style>
<g>
	<path class="st0" d="M90.8,126.5H15c-2.2,0-4-1.8-4-4v-23c0-2.2,1.8-4,4-4h75.8c2.2,0,4,1.8,4,4v23C94.8,124.7,93,126.5,90.8,126.5
		z"/>
	<g>
		<path class="st1" d="M31.9,113c-0.1-2-0.1-4.4-0.1-6.8h-0.1c-0.5,2.1-1.2,4.4-1.8,6.4l-2,6.4H25l-1.8-6.4
			c-0.5-1.9-1.1-4.3-1.5-6.4l0,0c-0.1,2.2-0.2,4.8-0.3,6.8l-0.3,6.3h-3.4l1.1-16.5h5l1.6,5.5c0.5,1.9,1,4,1.4,5.9h0.1
			c0.5-1.9,1-4.1,1.6-5.9l1.8-5.5h4.9l0.9,16.5h-3.6L31.9,113z"/>
		<path class="st1" d="M53.7,110.9c0,5.4-3.3,8.7-8.1,8.7c-4.9,0-7.7-3.7-7.7-8.4c0-4.9,3.2-8.6,8-8.6
			C51,102.6,53.7,106.3,53.7,110.9z M41.8,111.1c0,3.2,1.5,5.5,4,5.5s4-2.4,4-5.6c0-3-1.4-5.5-4-5.5
			C43.3,105.5,41.8,107.9,41.8,111.1z"/>
		<path class="st1" d="M71.2,110.9c0,5.4-3.3,8.7-8.1,8.7c-4.9,0-7.7-3.7-7.7-8.4c0-4.9,3.2-8.6,8-8.6
			C68.5,102.6,71.2,106.3,71.2,110.9z M59.3,111.1c0,3.2,1.5,5.5,4,5.5c2.5,0,4-2.4,4-5.6c0-3-1.4-5.5-4-5.5
			C60.8,105.5,59.3,107.9,59.3,111.1z"/>
		<path class="st1" d="M73.7,119.3v-16.5H78l3.4,6c1,1.7,2,3.8,2.7,5.6h0.1c-0.2-2.2-0.3-4.4-0.3-6.9v-4.8h3.4v16.5h-3.9l-3.5-6.4
			c-1-1.8-2.1-3.9-2.9-5.8h-0.1c0.1,2.2,0.1,4.5,0.1,7.2v5h-3.3C73.7,119.2,73.7,119.3,73.7,119.3z"/>
	</g>
</g>
<circle class="st2" cx="53" cy="52.3" r="51.2"/>
<g>
	<path class="st3" d="M94.4,22.2c3.7,4.8,6.5,10,7.7,16c0,2,0.4,4,1.4,5.8c0.5,1.2,0.5,2.5,0.5,3.8c0.3,1.4,0.1,2.9,0.2,4.3
		c-0.2,0.7-0.6,0.6-1.1,0.4c-0.5-1.4-2.7-2.1-1.9-4.1c0-0.4,0-0.8,0-1.2c0-1.1,0.4-2.5-1.7-2.1c-0.3,0.1-0.6-0.4-0.8-0.7
		c-0.2-0.3-0.3-0.6-0.4-0.9c-0.1-0.4-0.1-0.9,0.2-1.2c1-0.4,1.2,0.6,1.8,1.1c-0.9-1.4-0.7-3-1.3-4.3c-0.4-1.6-1.4-3-1.4-4.7
		c0.3-2.4-1.8-3.7-2.6-5.6c-0.3-0.6-0.9-1.1-1.1-1.9c-0.6-0.8,0.7-1.9-0.4-2.6C92.6,23.1,92.9,22.3,94.4,22.2z"/>
	<path class="st4" d="M103.5,61.4c-1.3,6.7-3.6,12.9-7.7,18.5c-1,0-0.7-0.7-0.6-1.2c0.2-0.7,0.6-1.3,0.7-2.1c0-0.3,0.1-0.6,0.3-0.8
		c0.2-1.8,1.1-3.4,1.8-5.1c0.2-1.1,0.8-2,1.1-3.1c0.8-2.4,1.2-4.9,2.2-7.3c0.4-0.8,0.2-1.7,0.3-2.6c0.1-1.1,0.4-2,1.9-1.8
		c0.4,0.2,0.6,0.4,0.5,0.8l0,0C102.9,58.3,104.1,60,103.5,61.4z"/>
	<path class="st5" d="M57.2,103.5c-1.7,0.9-3.4,0.4-5.7-0.5c4-1,2.7-4.6,4.2-6.8c0.1-0.1,0.1-0.5,0-0.6c-1.1-1.3,0.2-2.2,0.5-3.3
		c0.6-1-0.1-2.3,0.9-3.2c0.4-0.6,0.7-1.2,1.3-1.7c1.2-0.1,0.8,1,1.2,1.6c0.1,0.2,0.2,0.3,0.3,0.5c0.3,0.4,0.7,0.7,0.5,1.2
		c-0.5,0.8-1.4,0.9-2,1.5c-0.4,0.4-0.6,0.8-0.4,1.3c0.2,0.6,1.2,1.1,0,1.7c0.4,0.5,0.7,1,0.9,1.6c0.2,1.1-0.2,1.9-0.9,2.9
		C57.2,100.6,55.9,102,57.2,103.5z"/>
	<path class="st6" d="M82.8,93.8c-4.6,3.5-9.7,5.9-15.2,7.5c-0.8-0.5-0.8-0.5,0.1-1.9c0.8-0.9,2-1.2,3.1-1.7
		c0.8-0.4,1.5-0.9,1.9-1.7c0.7-0.3,0.2-1.1,0.7-1.5c0.3-0.2,0.6-0.2,0.9-0.1c0.7-0.1,0.6,1.6,1.7,0.8c1-0.2,1.5-1.1,2.2-1.8
		c1.6-0.4,3.1-1.7,4.8-0.2C83,93.4,83,93.6,82.8,93.8z"/>
	<path class="st7" d="M63.5,2.1c1.2,0.3,2.4,0.6,3.6,0.9c-0.4,1.5,1,1.9,1.8,2.6C69.3,6,69.5,6.5,69.6,7c0.1,0.8,0.7,1.1,1.2,1.6
		c0.9,1.1,2.3,1.9,2.9,3.4c0.6,1.5,1,3.2,3,3.7c0.2,1,0.6,2,1.1,2.8c0.5,0.8,0.8,1.6,0.2,2.5c-2.1,0.9-2.9-0.8-3.6-2
		c-0.8-1.2-1-2.8-2.6-3.5c-0.3-0.1-0.3-0.7-0.3-1c-0.3-1.3-0.4-2.6-1.4-3.6c-1.7-1.8-2.9-4.1-5.1-5.5c-0.6-0.7-1.2-1.4-2.1-1.9
		c-0.4-0.2-1-0.6-0.7-1.1C62.4,1.8,63.1,2,63.5,2.1z"/>
	<path class="st8" d="M96.2,76.8c0.8,1.2-1.5,1.9-0.4,3.1c-0.9,1.6-1.9,3.1-3.2,4.4c-0.7,0.4-1.3,0.9-1.8,1.6
		c-0.3,0.5-0.4,1.2-1.2,1c-0.7-0.2-0.7-0.9-0.9-1.4c-0.1-0.3-0.1-0.7-0.5-1.1c-0.9,1.9-2.3,0.9-3.6,0.6c-1-0.2-1-0.9-0.8-1.7
		c0.9-0.9,0-2.7,1.6-3.2c1.1,0.3,0.3,1.4,0.7,1.9c0.1,0.1,0.2,0.3,0.4,0.4c2.8-0.8,5.8-1.3,7.3-4.3C94.4,77.1,95,76.6,96.2,76.8z"/>
	<path class="st9" d="M60.8,51.1c0-0.6,0-1.2,0-1.8c-0.5-1-0.3-2,0.1-3c1.3-2.9,1.3-2.9-0.8-5c-0.2-0.5-0.2-1.3,0.2-1.3
		c1.3-0.1,0.4-1,0.7-1.4c0.2-0.5,0.6-0.9,1.2-1c1.7,0.9,3.1,1.9,3.1,4c0.2,1.4-0.1,2.7-0.7,4c-0.4,1.1-1.2,2-1,3.3
		c0.1,0.9,0,0.7-1.1,1.1C62,50.3,62,51.7,60.8,51.1z"/>
	<path class="st10" d="M69.7,4c1.1,0.6,2.4,0.3,3.4,1.2c0.7,1.4,2.1,1.8,3.4,2.2C77.8,8,79,8.8,79.9,10c0.8,1.4,1.8,2.7,3.2,3.8
		c0.7,0.5,1.7,1.1,1.1,2.3c-2.3-0.1-4.7-1.8-5.6-3.8c-0.1-0.2-0.2-0.6-0.3-0.5c-2.2,0.9-2.9-1.8-4.7-1.8c-0.6,0-1.2-0.3-1.2-0.8
		c0-1.5-1.2-2.2-1.9-3.3c-0.2-0.1-0.3-0.3-0.5-0.4c-0.5-0.4-1.1-0.6-1.5-1.1C68.4,3.3,69.1,3.8,69.7,4z"/>
	<path class="st11" d="M59.4,25.3c-0.1,0-0.3,0-0.4,0c-0.3-0.7-0.4-1.5,0-2.2c0-0.3,0-0.6,0-0.9c0.3-0.3,0.8-0.5,1.2-0.6
		c1.2-0.3,2.3-0.3,3.3,0.4c0.6,0.5,0.9,1.3,0.8,2c-0.2,2.8,0.7,5.4,0.8,8.1c0.1,1.8,1.2,3.5-0.7,4.9c-1.7,0-2.2-1-1.9-2.4
		c0.2-1,0.1-1.8-0.3-2.7c-0.6-1.3-0.4-2.7-0.3-4.1c0.1-1.3-0.2-2.5-0.6-3.6c-0.8-0.1-0.7,0.6-1.1,0.9C60,25.3,59.7,25.5,59.4,25.3z"
		/>
	<path class="st12" d="M60.3,16.9c-1-2-0.8-4.4-2.5-6.2c-0.3-0.3-0.2-1-0.2-1.5C57.7,7.5,58,6,56.1,4.9c-1.1-0.6-0.4-2.6-1.5-3.7
		C55.8,0.7,57,1,58.1,0.9c-2,1.5-1,2.8,0.3,4.1c0.5,0.5,0.7,1.1,1,1.7c0.8,1.2,1.3,2.6,2.2,3.9c0.5,0.7,0.6,1.5,0.4,2.3
		c-0.1,0.5-0.1,1,0.1,1.4c0.1,0.3,0,0.6-0.1,0.9c-0.4,0.6-0.6,1.5-1.3,1.9C60.5,16.9,60.4,16.9,60.3,16.9z"/>
	<path class="st13" d="M58.5,75.1c-0.5-1-2.8-1.5-0.9-3.3c0.4-0.3-0.5-0.5-0.7-0.9c-0.3-0.7-0.3-0.8,0.7-1.2
		c0.8-0.3,0.5-0.9,0.6-1.4c0.3-1-0.4-0.3-0.7-0.3c-0.4,0-0.4-0.3-0.4-0.6c0-1.9,0.1-3.8,0.1-5.7c0,0,0.1-0.1,0.2-0.1
		c0.1,0,0.1,0.1,0.2,0.1c0.3,0.6,0.4,0.7,0.7,0.4c0.5-0.4,0.8-1.1,1.6-0.9c0.1,0.2,0.2,0.3,0.3,0.6c-0.1,1.1,0,2.2,0.5,3.2
		c0.1,0.3,0.3,0.6,0.2,0.8c-1,2.2-1,4.4-1,6.8c0,0.4-0.4,0.9-0.3,1.5C59.8,74.8,59.5,75.5,58.5,75.1z"/>
	<path class="st14" d="M59,1.3c0.2,0,0.3,0.1,0.5,0.1c0.2,0.2,0.3,0.5,0.4,0.8c1,1.1,2.1,2.1,2.7,3.5c1,1.5,1.8,3.2,3.2,4.5
		c1.2,1.1,0.8,2.7,0.6,4.2c-0.1,0.6-0.5,1.1,0,1.6c0.1,0.3,0.1,0.6,0,0.9c-0.2,0.4-0.6,0.8-1,1.1c-0.5,0.4-1,1.1-1.8,0.9
		c-0.2-0.1-0.3-0.2-0.3-0.4c0-0.6,0-1.1-0.1-1.7c0-0.6,0.6-1.2,0.1-1.8c1.2-4.2-2.3-6.6-4-9.7c-0.3-0.4-0.3-0.9-0.6-1.2
		C57.2,2.9,57.7,2.1,59,1.3z"/>
	<path class="st15" d="M60.8,51.1c1.2-0.1,1.4-0.9,1.4-2.1c0.5,0.6,0.8,1,1.1,1.4c-0.5-1.8-0.3-3.3,1.1-4.6c1.1,2,1.6,4.1,1.1,6.4
		c0,0.3-0.1,0.6-0.2,0.9c-0.4,1.2-0.6,2.4-1.5,3.4c-0.4,0.2-0.7,0.5-1.1,0.8c-0.3,0.3-0.6,0.7-1.1,0.4c-0.4-0.3-0.5-0.8-0.3-1.2
		c0.4-1.1-0.1-1.8-0.8-2.5c-0.3-0.8-1.5-1.5-0.2-2.4C60.5,51.4,60.6,51.2,60.8,51.1z"/>
	<path class="st16" d="M84.1,83.5c-0.2,2,1.8,0.9,2.6,1.6c0.6,0.5,0.7-0.3,0.7-0.8c0.1-0.6,0.6-0.9,1.2-0.7c0.6,0.1,0.9,0.5,0.7,1.1
		c-0.3,0.8,0.1,1.4,0.4,2c1.3-0.4,0.7-3,2.9-2.4c-1.8,2.4-3.5,4.8-6.2,6.3c-0.5,0.4-1,0.4-1.5,0c-0.1-0.2-0.1-0.4-0.1-0.6
		c0.1-0.5,0.3-1,0.7-1.4c1.4-1.3,0.6-1.8-0.7-2.3c-0.3,0-0.6,0.1-0.9,0.2c-0.5,0.2-1,0.8-1.6,0.4c-0.7-0.6-0.3-1.3-0.1-2
		c0.1-0.3,0.3-0.5,0.5-0.7c0.3-0.3,0.6-0.7,1.1-0.8C84,83.4,84,83.4,84.1,83.5z"/>
	<path class="st17" d="M84.1,16c-0.6-1.3-1.4-2.2-2.8-2.9c-1.1-0.5-0.9-2-1.6-2.9c0.1-0.1,0.2-0.1,0.2-0.2c1-0.2,1.7,0.5,2.6,0.5
		c2.2,1.5,4.4,2.9,6.1,5c-0.2,0.7-0.8,1-1.2,1.5c-0.8,0.9-1.7,1-2.6,0.2C84.3,16.9,83.9,16.6,84.1,16z"/>
	<path class="st18" d="M60.8,38.2c-0.2-1-1.4-1-1.8-1.8c0.2-0.2,0.5-0.3,0.7-0.6c-0.2,0.1-0.4,0.3-0.7,0.2c0-0.4,0-1.2-0.1-1.2
		c-1.8-0.4-1.1-1.7-1.2-2.7c-0.1-1.2-1.4-2.6,1.2-3.2c1.2-0.3-0.8-0.9-0.8-1.6c0-0.8,0.5-1.2,1.3-1.1c0.9,0.1,1.5,0.8,1.4,1.4
		c-0.6,3.3,1.7,6.3,0.5,9.6C61.2,37.5,61.1,37.9,60.8,38.2z"/>
	<path class="st19" d="M87.2,16.9c0-0.9,0.8-1,1.4-1.4c2.3,1.9,4.2,4.1,5.8,6.7c-1,0.4-1.2,1.2-0.9,2.2c-0.1,0.1-0.2,0.1-0.3,0.2
		c-2-1.7-4-3.5-5.4-5.7C87.5,18.3,86.9,17.7,87.2,16.9z"/>
	<path class="st11" d="M58.5,75.1c0.2-0.1,0.4-0.2,0.6-0.2c-1.3-1.4,0.6-2.6,0.3-4c-0.3-1.4-0.6-2.8,0.8-4c0.7-0.6,0.2-1.4-0.2-2
		c-0.6-1.1-0.6-2.1-0.2-3.1c0.9-0.7,1.6-0.6,1.9,0.6c0.1,0.4,0.3,0.9,0.2,1.3c-0.6,3.9-0.2,7.9-1.4,11.7c-0.2,0.6-0.1,1.1-0.1,1.7
		c-0.2,0.7-0.2,1.5-1.2,1.6c-0.3-0.2-0.4-0.5-0.4-0.8c0.3-0.9,0-1.6-0.5-2.3C58.5,75.4,58.5,75.2,58.5,75.1z"/>
	<path class="st20" d="M57.2,103.5c-0.7-0.1-1.6,0.1-1.3-1.2c0.1-0.5,1.4-2.7,2-3.3c0.6-0.6,0.6-1.5,0.6-2.3
		c-0.2-0.2-0.3-0.5-0.1-0.7c0.2-0.3,0.5-0.2,0.7,0c0.3,0.3,0.4,0.8,0.8,0.9c0.2,0,0.4,0.1,0.5,0.2c0.6,0.4,1.2,1,1.5,1.7
		c0.3,0.6,0.3,1.2,0,1.8c-0.1,0.2-0.3,0.3-0.4,0.4c-0.3,0.4-1.6-0.4-1.1,0.9c0,0.2-0.2,0.3-0.4,0.4c-0.4,0.2-1,0.1-1.5,0.5
		c0.8-0.2,1.6-0.5,2.2,0.3C59.7,103.7,58.4,103.4,57.2,103.5z"/>
	<path class="st11" d="M60.8,53.7c2.1,0.7,1,2.4,1,3.6c1.1,0.4,0.4-1.8,1.7-0.9c0.5,0.6,0.2,1.2,0.1,1.8c0.2,1.6-1.7,1-2.1,2
		c-0.5,0.5-0.8,1.3-1.7,1.1c-0.4,0.4-0.7,0.9-1.2,1.2c-0.9,0.6-1.1,0-1-0.8c1.4-0.7,1.4-1.9,1.3-3.1c0.2-1.2,0.5-2.3,0.4-3.5
		c0.1-0.3,0.3-0.6,0.4-0.9C60,53.8,60.4,53.7,60.8,53.7z"/>
	<path class="st21" d="M59.4,77.7c0,0.3,0,0.6,0,0.9c0.8-0.4-0.8,1.1,0.6,0.6c1.6-0.6,0.8,0.8,0.8,1.4c-0.3,0.6-0.4,1.2-0.6,1.8
		c-1,1.4-1.1,3.4-3.1,4c-1.4-0.6-1.3-0.8,0.1-2c-0.1-1.1,0.6-2.2-0.8-3.1c-0.3-0.2,0.2-2,1-2.7c0.5-0.4,1-0.9,1.5-1.3
		C59.2,77.2,59.2,77.5,59.4,77.7z"/>
	<path class="st22" d="M60.8,36.8c0.2-2.1,0.8-4.2-0.8-6.2c-0.4-0.5-0.1-1.6,0.3-2.3c0.6-1-0.2-1.4-0.6-1.9
		c-0.8-0.8-1.1,0.4-1.6,0.6c-1.4-1.9,1.2-0.9,1.3-1.8c0.2-0.2,0.3-0.3,0.5-0.5c1.9-0.9,2.4,1,2.2,1.7c-0.7,3.1,1.1,6.2,0.2,9.2
		c0,0.2,0,0.4-0.1,0.6C61.8,36.8,61.4,37.1,60.8,36.8z"/>
	<path class="st23" d="M57.2,84.4c0.6,0.6-1.9,1.2,0,1.8c0.6,0.1,0.9,0.6,1.3,1.1c0,0.1,0.1,0.2,0.1,0.3c0.1,0.8-0.6,1.2-0.9,1.8
		c-1-0.7-1.7,0.7-2.7,0.5c-0.4-0.4-0.7-0.9-1.1-1.3c-0.9-0.8-0.5-1.7,0.3-1.9c1.6-0.4,1.5-1.5,1.4-2.8
		C56.1,83.9,56.6,84.1,57.2,84.4z"/>
	<path class="st24" d="M68,99.5c0.2,0.7-1.1,1.1-0.4,1.8c-0.2,0.4-0.6,0.4-1,0.4c-0.8-1.2-1.8,0.3-2.6-0.2c-0.4-0.4-0.2-0.9-0.4-1.4
		c0-0.2,0-0.4,0.1-0.6c0.2-0.6,0.7-1,1.3-1.3c1-0.3,1.9-0.8,2.5-1.7c0.5-0.8,1.2-1.5,2.3-1.5c1.7,0.4,1.2,1.3,0.6,2.2
		C69.8,98.2,68.5,98.4,68,99.5z"/>
	<path class="st25" d="M59.4,2.2c0-0.3,0-0.5,0-0.8c1.3,0.8,2.9-0.1,4.1,0.8c-0.3,0-0.6,0.1-1.3,0.2c1.2,0.9,2.4,1.5,3,2.5
		c0.4,1.5,2.5,2.5,1.3,4.5c-1.7,0.5-2.1-1.1-2.9-1.9c-0.5-0.4-0.7-1-1-1.5C62.2,4.1,61,3,59.4,2.2z"/>
	<path class="st18" d="M61.2,38.6c-0.1,0.7,1.2,2-0.8,1.8c0,0.3-0.1,0.6-0.1,0.9c1.3,2.1,1.2,4.2,0.2,6.3c-0.1,0.3-0.3,0.4-0.7,0.3
		c-0.2-2.1-0.3-4.1-0.6-6.2c-0.1-0.8,0.1-1.7-1-2.1c-0.5-0.2-1-1.2-0.1-1.6c1-0.5,0.4,0.6,0.6,0.9c0.8,0.8,1.3-0.2,2-0.3
		C60.9,38.5,61.1,38.5,61.2,38.6z"/>
	<path class="st26" d="M85,90.1c0.3,0.5,0.9,0.4,1.4,0.5c0,0.1-0.1,0.3-0.2,0.4c-1.3,0.5-2.4,1.3-3.5,2.2c-1.8-1.1-3.3,0.7-4.9,0.4
		c-0.5-1.5,0.7-1.9,1.7-2.3c0.7-0.3,1.4-0.4,2.1-0.7C82.7,90.1,83.5,88.3,85,90.1z"/>
	<path class="st27" d="M59.8,47.9c1.7-2.1,0.4-4.4,0.5-6.7c2.9,1.5,3,2.1,1.3,4.6c-0.7,1-0.5,2.3-0.8,3.4c-0.5-0.1-1.3,0.3-1.6-0.4
		C59,48.4,59.5,48.2,59.8,47.9z"/>
	<path class="st5" d="M59,1.3c-1.7,1.5,1.1,2.6,0.5,4c0.1,0.5,0,1-0.5,1.4c-0.5-0.6-0.9-1.2-1.5-1.8c-2.1-2.1-1.9-3.1,0.6-4
		C58.4,0.9,58.7,1,59,1.3z"/>
	<path class="st28" d="M79.6,10.2C78.2,8.5,76,8.1,74.2,7C73.7,6.7,72,6.7,73,5.2c2.7,1,5.2,2.4,7.5,4.2
		C80.7,10.2,79.8,9.8,79.6,10.2L79.6,10.2z"/>
	<path class="st22" d="M60.2,22.2c-0.4,0-0.9,0-1.3,0c-0.2-1.7,0.5-3.3,0.1-5c-0.3-1.1,0.7-0.5,1.2-0.4c0,0,0,0,0,0
		c0.7,0.7,1.4,1.3,1.5,2.3C61.1,20.1,61,21.3,60.2,22.2z"/>
	<path class="st29" d="M54.9,89.7c0.9-0.1,1.4-2.6,2.7-0.5c-0.5,1-0.9,2.1-1.4,3.1c0-0.6,0.2-1.3-0.2-1.9c-0.2,0-0.4,0-0.5,0.1
		c-0.5,0.5-0.1,2.1-1.3,1.5C53.5,91.5,54.7,90.5,54.9,89.7z"/>
	<path class="st30" d="M60.8,53.7c-0.2,0.4-0.6,0.4-1,0.4c-1.9-0.6-1.9-2-1.6-3.6c0.9,0,1.2,1.1,2.1,1
		C59.6,52.4,60.9,52.9,60.8,53.7z"/>
	<path class="st31" d="M103.9,56.9c-0.2-0.2-0.3-0.3-0.5-0.5c-0.6-1.4-1.7-2.8,0.3-4c0.1-1.5,0.1-3.1,0.2-4.6
		C104.4,50.8,104.4,53.8,103.9,56.9z"/>
	<path class="st30" d="M59.4,55c0,0.1,0,0.1,0,0.2c0.8,2.1,0.8,2.1-0.5,3.3C57.6,56.8,57.6,56.6,59.4,55z"/>
	<path class="st32" d="M69.7,4c-0.2,0.3-1-0.5-0.8,0.4C69,4.8,69,5.2,69,5.6c-0.1,0.1-0.1,0.2-0.2,0.2c-2.1-0.7-2.7-1.5-1.7-2.7
		C68,3.3,69,3.3,69.7,4z"/>
	<path class="st33" d="M103.5,43.9c-1.5-1.7-2.4-3.5-1.4-5.8C103.2,40,103.1,42,103.5,43.9z"/>
	<path class="st34" d="M63.9,100.3c0.5,0.3,0,0.6,0,0.9c0,0.3-0.2,0.5-0.4,0.7c-0.2,0.2-0.3,0.5-0.5,0.7l-0.1,0.1l-0.2,0
		c-0.8,0-1.9,0.8-2.4-0.5l0,0c0.2-0.3,0.4-0.8,0.8-0.7c1,0.3,0.2-0.6,0.5-0.7c0-0.1,0.1-0.3,0.1-0.4C62.4,99.8,63.2,99.7,63.9,100.3
		z"/>
	<path class="st35" d="M82.8,93.2c0.3-2,1.9-2.2,3.5-2.2c-0.9,1.2-2.2,2-3.5,2.8C82.8,93.6,82.8,93.4,82.8,93.2z"/>
	<path class="st36" d="M63.4,101.7c0.2-0.2,0.3-0.3,0.5-0.5c1.6,0.7,0.6-1.4,1.9-1.2c0.4,0.3,0.1,1.3,0.9,1.7
		c-0.7,0.2-1.4,0.3-2.1,0.5C63.9,102.3,63.4,102.5,63.4,101.7z"/>
	<path class="st37" d="M60.3,102.1c0.7,0.8,1.6,0.3,2.4,0.5c-0.6,0.1-1.3,0.3-1.9,0.4c-1-0.3-2,0.3-3.3-0.5
		C58.6,102.4,59.3,101.8,60.3,102.1z"/>
	<path class="st31" d="M103.5,61.4c0.3-1.5-1.3-3.2,0.4-4.6C103.9,58.4,104.1,60,103.5,61.4z"/>
	<path class="st21" d="M61.2,38.6c-0.2,0-0.3,0-0.5,0c0-0.1,0-0.3,0-0.4c0-0.4,0-0.9,0-1.3c0.4-0.1,0.9-0.3,1.3-0.4
		c0.1,0.4,0.1,0.9,0,1.3C61.8,38,61.5,38.3,61.2,38.6z"/>
	<path class="st38" d="M79.6,10.2c0.3-0.3,0.6-0.5,0.9-0.8c0.9,0,1.4,0.6,2,1.2C81.4,11.4,80.6,10.2,79.6,10.2z"/>
	<path class="st39" d="M59,36c0.6-0.3,0.3-1,0.7-1.5c0.7,1.3,0.7,1.3-0.7,1.9C59,36.2,59,36.1,59,36z"/>
	<path class="st22" d="M58.9,23.1c0,0.7,0,1.5,0,2.2c-0.7-0.4-0.7-1.3-0.9-1.9C57.6,22.2,58.6,23.2,58.9,23.1z"/>
	<path class="st22" d="M51.8,99.6c0.3,0,0.6,0.1,0.6,0.5c0,0.3-0.2,0.5-0.5,0.6c-0.1,0-0.4-0.2-0.4-0.4
		C51.3,100,51.4,99.7,51.8,99.6z"/>
	<path class="st40" d="M59.4,77.7c-0.2-0.2-0.3-0.3-0.5-0.5c-0.2-0.6-0.5-1.1-0.4-1.7C59.6,75.9,59.4,76.9,59.4,77.7z"/>
	<path class="st37" d="M63.4,101.7c0.2,0.4,0.7,0.4,1.1,0.5c-0.4,0.4-0.9,0.4-1.5,0.4c-0.1-0.3-0.4-0.7-0.3-0.9
		C62.8,101.3,63.2,101.6,63.4,101.7z"/>
	<path class="st41" d="M98.5,43.5c0.1,0.1,0.3,0.3,0.4,0.4c-1.2,1.6,0.8,2.5,0.9,3.8c0.1,0.6,0.2,1.3-0.2,1.9
		c-0.5,0.5-0.8,0.1-1-0.2c-0.4-0.6-0.7-1.3-1.8-1.6c0.7,0.9,0.7,1.8,0.5,2.6c-0.4,0.7-1,0.7-1.7,0.6c-0.6-0.2-1.1-0.6-1.7-1
		c-0.3-0.2-0.5-0.4-0.6-0.7c-0.1-0.2-0.2-0.4-0.2-0.6c-0.1-1.7-1.8-1.9-2.8-2.8c-0.6-1.8-2.2-3.3-1.5-5.5c1.2-0.5,0.8,0.8,1.3,1.1
		c-0.5-1.1-0.9-2.1,0.1-3.1c0.2-0.1,0.4-0.2,0.6-0.2c1.7,0.4,0.9,1.9,1.2,2.9c0.1,0.9,0.5,1.7,1.5,2c1.4,1.4,2.9,0.6,4.4,0
		C98.2,43.3,98.3,43.4,98.5,43.5z"/>
	<path class="st42" d="M103.8,52.4c-1.2,1.2,0,2.7-0.3,4c-0.6,0-1.3,0-1.3,0.8c0,1.9-0.8,3.6-1,5.3c-0.3,2-1.4,3.6-1.7,5.4
		c-1.1,0.1-1.9,0-1.7-1.5c0.2-1.1-0.2-2-1.3-2.6c-0.9-0.5-1.1-1.3-1.1-2.3c0.2-1.1,0.8-1.9,1.9-2.3c1.3-0.1,2.5,0,3.3,1.2
		c0.1-0.7,0.1-1.8,0.3-2.8c0.2-1.6,0.9-3.1,1.2-4.7c0.1-0.5,0.2-1,0.9-1C103.1,52.3,103.4,52.4,103.8,52.4z"/>
	<path class="st43" d="M99.4,49.7c0-0.7,0-1.5,0-2.2c-0.1-0.3,0-0.6,0-0.9c0.1-0.6,0.3-1.2,0.9-1.3c0.9-0.1,0.8,0.7,1,1.2
		c0.1,0.2,0.2,0.4,0.3,0.6c0,0.4,0,0.9,0,1.3c-0.9,0.9-1.1,2-0.8,3.1c0.4,1.7,0.3,3.2-1,4.5c-0.4,0.4-0.3,1-0.5,1.4
		c-0.2,0.3-0.4,0.5-0.8,0.4c-0.6-0.6-0.7-1.3-0.9-2.1c0-0.2,0-0.4,0-0.6c0.2-1.1,0.7-2.3-0.6-3.2c-0.5-0.4-1.1-0.4-1.6-0.8
		c-0.1-0.2-0.1-0.4,0-0.6c0.6-0.1,1.3,0.2,1.8-0.4c-0.2-0.6,0.2-1.3,0.5-1.3c1.2,0.1,0.6,1.4,1.2,2C99,50.5,99,50,99.4,49.7z"/>
	<path class="st31" d="M98.9,57.3c1.2-2.4,1.6-4.9,1.5-7.5c0-0.8,0.6-1.1,1.2-1.4c-0.2,0.9-0.8,1.9,0.8,2.2c0.3,0,0.4,0.9,0.5,1.3
		c-0.6,1.9-1.2,3.9-1.8,5.8C100.4,57.7,99.7,57.3,98.9,57.3z"/>
	<path class="st19" d="M94,26.6c1.7,1.6,2.3,3.9,3.7,5.6c0.5,0.5,0.3,1.3,0.3,1.9c-1.3-0.4-3.1-0.1-3.5-2.1
		c-0.2-0.6-0.1-1.4-1.1-1.3c-0.2,0-0.4,0-0.6-0.1c-0.8-0.3-1.1-1-1.5-1.6c-0.2-0.2-0.3-0.5-0.2-0.8c0.6-1,2.1-0.5,2.6-1.6
		C93.8,26.7,93.9,26.7,94,26.6z"/>
	<path class="st43" d="M94.9,32c0.5,0.5,0.2,2.1,1.8,1c0.9-0.6,0.4,1.3,1.3,1.2c-0.1,1.8,1.2,3.2,1.4,4.9c0.5,1.3,0.1,2.3-0.9,3.1
		c0,0.4,0,0.9,0,1.3c-0.2,0-0.3,0-0.5,0c-0.8-0.9-0.6-2-0.3-2.9c0.6-1.8,0.2-3.3-1-4.6c-0.8-1.1-2.1-1.9-2.7-3.2
		c-0.1-0.2-0.1-0.4-0.1-0.6C94.2,31.7,94.5,31.6,94.9,32z"/>
	<path class="st44" d="M101.6,47.1c-0.7-0.3-0.9-0.8-1-1.5c-1,0.4-0.7,1.4-1.3,2c-0.6-0.6-0.6-2.2-2.2-1.5c-0.1,0-0.4-0.2-0.4-0.4
		c-0.1-0.3,0.1-0.7,0.4-0.6c1.2,0.5,1.2-0.6,1.7-1.1c0.3,0.3,0.6,0.8,0.7,0.7C102.1,44,101.5,45.8,101.6,47.1z"/>
	<path class="st44" d="M98.5,42.2c-0.2-1.2,1.3-1.9,0.9-3.1c0.5,1.6,1.1,3.2,1,5.2C99.4,43.6,99.4,42.5,98.5,42.2z"/>
	<path class="st19" d="M93.6,24.4c0.3-0.2,0.6-0.5,0.8-0.5c0.3,0,0.3,0.4,0.2,0.7c-0.3,0.7-0.7,1.3-0.6,2.1c0,0,0,0,0,0
		C92.3,25.9,92.2,25.8,93.6,24.4C93.5,24.4,93.6,24.4,93.6,24.4z"/>
	<path class="st8" d="M98.5,71c-0.2,1.5-2.2,2.5-1.2,4.4c0.2,0.4-0.5,0.8-1.1,0.5c-2.1,0.7-2.4,2.9-3.8,4.2
		c-1.4,1.3-1.3,1.3-2.2-0.4c-0.2-0.5-1.6-0.2-1.3-0.8c0.7-1.4-0.8-0.8-1-1.3c-0.4-0.8-0.1-1.6,0.2-2.3c0.3-0.7,0.6-1,1.5-0.7
		c1.5,0.6,2.1,0.1,2.1-1.5c0-0.7-0.2-1.5-0.1-2.2c0.1-0.4,0.3-0.8,0.7-1c2.5-0.4,2.8-0.2,2.9,2.3c0.5-0.5,1.2-0.7,1.2-1.4
		c0.1-0.6-0.1-1.2,0.8-1.3C98.5,69.4,98,70.6,98.5,71z"/>
	<path class="st45" d="M88.2,77.7c0.7-0.1,1.4-0.3,2.1-0.4c0.4,1-1.6,0.7-1,1.6c0.7,0.9,1.3-0.7,2.1-0.4c0,0.1,0.1,0.2,0.1,0.3
		c-0.1,0.7-1.6,1.1-0.8,1.7c1,0.8,1.3-0.7,1.7-1.2c0.9-1.1,1.6-2.4,2.4-3.6c0.5-0.7,1.1-1.1,1.4,0.2c0,0.3,0,0.6,0,0.9
		c-2.1,0.8-2.3,3.1-4,4.3c-0.6,0.4-0.7,1.3-1.7,0.6c-0.7-0.5-1,0.4-1.4,0.7c-1,0.6-2,1.9-3.2,0.2c-0.9-0.7-0.3-1.5,0-2.2
		c-0.1-0.2-0.2-0.4-0.2-0.6C86,78.4,86.6,77.6,88.2,77.7z"/>
	<path class="st46" d="M98.5,71c-0.6-0.2-0.4-1.5-1.3-1c-0.8,0.4,0.4,0.9,0.2,1.1c-0.7,0.9-1.5,1.7-2.4,2.3c-0.3,0.2-0.5-0.6-0.4-1
		c0.9-2.1-0.2-2.4-1.9-2.3c-0.8-1.4,0.3-1.3,1.2-1.4c0.9-1.4,1.6-0.8,2.2,0.3c0.7-0.5,0.7-1.1,0.8-1.8c-0.7-0.1-1.6,1.1-2.2-0.3
		c0.2-1.5,1.1-3,0.4-4.6c-0.1-0.3,0.2-0.9,0.8-0.7c0,0.6,0,1.4,0.5,1.6c2.6,0.6,1.7,2.6,1.7,4.3c0.6-0.3,1.5-1.4,1.3,0.3
		C99.7,69.1,98.2,69.8,98.5,71z"/>
	<path class="st47" d="M59.9,82.1c-0.1-0.6,0.1-1.2,0.5-1.7c0.6,0,1.2,0.1,1.8-0.1c0.8,0.4,0.8,1,0.5,1.7c-0.3,0.5-0.4,1-0.3,1.6
		c0,0.7,0.7,1.1,0.9,1.7c0.3,0.7-1,1-0.6,1.8c-0.4,0.8-1.2,1.5-1.4,2.5c-0.1,0.3-0.1,0.6-0.3,0.8c-0.1,0.2-0.3,0.3-0.5,0.3
		c-0.1,0-0.2-0.1-0.3-0.1c-0.3-0.3-0.6-0.6-0.9-0.9c0.2-0.3,0.2-0.6,0.2-1.1c0,0.5,0,0.8-0.2,1.1c-0.9-0.5-0.1-1.7-1-2.2
		c0,0,0,0,0,0c-0.3-0.3-0.3-0.9,0-1c2.2-0.7,1.7-2.3,1.5-3.8C59.9,82.5,60,82.3,59.9,82.1z"/>
	<path class="st48" d="M59.9,97.2c-0.7,0.3-0.6-0.4-0.8-0.7c-0.6-0.7-0.4,0-0.5,0.3c0.3-0.7-2.2-1-0.4-2.1c0.2-0.2-0.8-0.5-1-1
		c0.6-0.4,0.4-1.2,0.9-1.7c0.6-0.8,1.5-0.9,2.3-1.4c0,0,0,0,0,0c0.4,0.4,0.3,1.3,1.2,1.2c0.6,0.7,0.2,1.3-0.1,2
		C59.8,94.4,60.8,96.2,59.9,97.2z"/>
	<path class="st49" d="M58,91.9c0,0.7,0.3,1.6-0.9,1.7C57.1,92.9,57.2,92.3,58,91.9z"/>
	<path class="st50" d="M81.9,91c-0.7,0.5-1.4,0.9-2.4,0.9c-0.6,0-1.6,0.7-1.6,1.8c0.6,1.8-1,1.4-1.8,1.8c-0.4-0.3-0.5-0.7-0.5-1.2
		c0-0.3,0.1-0.6,0.2-0.9c0.2-0.3,0.5-0.5,0.9-0.7c0.3-0.1,0.1,0.2,0.2-0.1c0.1-0.2,0-0.3-0.2-0.2c-0.4-0.2-0.7-0.5-1-0.9
		c-0.1-0.2-0.1-0.4,0-0.6c1.7-0.8,3.6-1.1,5.4-1.6c0.5-0.2,1.1-0.1,1.4,0.4C82.7,90.4,82.3,90.7,81.9,91z"/>
	<path class="st51" d="M68,99.5c-0.2-1.4,1.3-1.5,1.8-2.3c0.3-0.5,1.6-1.2-0.1-1.7c-0.3-0.4-0.4-0.8-0.3-1.3c0.7-1.1,1.6-1.9,3-1.2
		c0.1,0.2,0.2,0.4,0.2,0.6c-0.8,0.8-0.6,1.4,0.2,2.1c0,0.1,0.1,0.2,0.1,0.3C72.3,98.5,69.8,98.5,68,99.5z"/>
	<path class="st52" d="M72.4,93.7c0-0.2,0-0.3,0-0.5c0-0.1,0.1-0.2,0.1-0.3c0.5-0.4,1-0.8,0.8-1.5c0.7-0.6,1.5-0.3,2.2,0
		c0.1,0,0.3,0,0.4,0c0.3,0.6,0.4,1.2,0,1.8c0,0.3,0,0.6,0,0.9c-0.5,0.6-1.1,0.7-1.8,0.5c-0.3,0-0.6,0-0.9,0
		c-0.3,0.3-0.6,0.3-0.9,0.1C72.2,94.3,72.2,94,72.4,93.7z"/>
	<path class="st51" d="M74.2,94.6c0.6-0.2,1.2-0.3,1.8-0.5c0,0.4,0,0.9,0,1.3C74.7,96.7,74.8,94.8,74.2,94.6z"/>
	<path class="st51" d="M72.4,94.6c0.3,0,0.6,0,0.9,0c-0.2,0.7,1,0.9,0.6,1.5c-0.2,0.4-0.7-0.1-1-0.1c0,0,0-0.1,0-0.1
		C72.5,95.5,72.1,95.1,72.4,94.6z"/>
	<path class="st53" d="M72,14.2c0.1,0.7-0.3,1.5,1.2,1.4c1-0.1,1,1.5,1.4,2.4c0.7,1.4,1.4,2.8,3.3,2.9c1.3,0.2,0.9,1.3,1.2,2
		c0,2.5-1.1,4.3-3.4,5.2c-1.5,0-2.3-0.7-2.4-2.2c0.1-0.2,0.2-0.4,0.3-0.6c0.5-0.7,1.3-1,2.1-1.1c1.2-0.1,1.2-1.1,1-1.8
		c-0.3-1.1-0.9,0-1.3,0c-1.1,0.1-2.4,0.2-2.5-1.4c-0.1-1.2-1.5-1.2-1.7-2.1c-0.1-0.2-0.1-0.4-0.2-0.6c0.3-0.8,0.5-1.6,0-2.4
		c0-0.2,0-0.4,0-0.6C71.1,14.9,71,14.1,72,14.2z"/>
	<path class="st32" d="M76.4,15.6c-1-0.8-1.3,0-1.9,1.4c-0.6-4.2-2.4-6.8-5.2-8.8c-0.4-0.3-0.5-0.7-0.1-1.1c0.1,0,0.2,0,0.3,0
		c0.4,0,0.8,0,1,0.3c1.6,2.5,4.4,3.5,6.3,5.7c0.8,1,0.8,1.6-0.2,2.3C76.6,15.5,76.5,15.5,76.4,15.6z"/>
	<path class="st32" d="M78.7,23.1c-0.8-0.5-0.1-1.7-0.9-2.2c0-1-0.2-1.9-0.9-2.7c-0.6-0.7-1-1.6-0.5-2.5c0,0,0,0,0,0
		c0.7-0.6,1.5-1.1,2.3-0.2c0.4,1.3,0.3,2.7,0.6,4c0.1,0.7,0.6,1.1,0.8,1.7c0.1,0.5-0.1,1-0.3,1.5c-0.1,0.3-0.4,0.5-0.6,0.7
		C79.1,23.3,78.9,23.2,78.7,23.1z"/>
	<path class="st54" d="M66.6,9.3c-0.3-1.5-1.5-2.8-1.3-4.4c2.1,1.5,3.6,3.6,4.9,5.8c-0.1,0.1-0.3,0.2-0.5,0.3
		c-1.1-0.1-1.9-0.9-2.9-1.4C66.7,9.5,66.7,9.4,66.6,9.3z"/>
	<path class="st55" d="M69.7,10.7c0.2,0,0.3,0,0.5,0c1.8,0.6,1.2,2.4,1.8,3.6c-0.3,0.4-0.6,0.9-0.9,1.3
		C69.1,14.3,69.5,12.5,69.7,10.7z"/>
	<path class="st32" d="M69.3,7.1c-0.2-0.4-0.3-0.9-0.5-1.3c0,0,0,0,0,0c0.3-0.6,0.7-0.8,1.3-0.4l0,0C70.6,6.3,71,7.2,69.3,7.1
		L69.3,7.1z"/>
	<path class="st16" d="M85.9,79.9c0,0.1,0,0.3,0,0.4C85.1,80.4,85,81,85,81.6c0,0.8-0.1,1.5-0.9,1.9c0,0,0,0,0,0
		c-1.2-0.9-0.2-1.9-0.1-2.8c0.3-0.9,0.1-2.7,1.9-1C85.9,79.7,85.9,79.8,85.9,79.9z"/>
	<path class="st56" d="M64.8,52c0.1-0.5,1-0.9,0.6-1.3c-1.4-1.5-0.4-3.4-1.1-4.9c0-1.3,0.8-2.6,0.5-4c0.3-0.3,0.7-0.4,1.2-0.2
		c0.8,0.4-0.2,1.7,0.9,1.8c0.8,0.3,1,1,1,1.8c0,0.8,0.1,1.5,0.9,2.1c0.7-0.8,1.7-1.2,0.8-2.8c-0.8-1.3,0.7-2.7,1.1-4.1
		c2.2,0.1,3.3,1.5,3.2,4c0,0.7-0.3,1.3-0.7,1.9c-0.3,0.7-0.8,1.2-1.4,1.7c-0.5,0.3-0.7,0.8-0.3,1.3c0.6,0.9,1,1.8-0.1,2.7
		c-1.1,0.8-2,0.3-2.9-0.3c-0.2-0.1-0.3-0.3-0.6-0.3c-0.6,0.6,0.4,1.8-0.6,2.1C66.1,53.6,65.6,52.5,64.8,52z"/>
	<path class="st57" d="M66.1,41.7c-0.4,0-0.9,0-1.3,0c0.3-2.1-1.7-2.7-2.7-4c-0.3-0.4-0.3-0.9,0-1.3c0,0,0,0,0,0
		c0.9-0.4,1.1,0.7,1.9,0.8c0.3,0.1-0.1,0,0.2,0.2c0.4,0.2,0.8,0.5,1.1,0c0.1-0.1,0.1-0.1-0.1,0c-0.2,0.2-0.5,0.1-0.8,0
		c-0.1-0.2-0.1-0.4,0-0.5c1.5-2.7,0.1-5.5-0.2-8.2c-0.2-2.1,0.3-4.4-0.7-6.5c0.2-0.2,0.4-0.3,0.6-0.3c1.4,0.1,2,1,2.4,2.2
		c-0.1,4.1,0.2,8.2,0.6,12.3c1.6,0.5,2,1.5,1.4,3.3c-0.8,0.3-1.6-0.2-2.3,0C66,40.4,68.4,41.2,66.1,41.7z"/>
	<path class="st58" d="M69.3,7.1c1.2-0.2,0.8-1.1,0.9-1.8c0.9,1.1,2.6,1.5,2.3,3.4c-0.1,0.8,0.6,1.1,1.4,0.7
		c0.6-0.2,1.5-0.3,1.5,0.3c0.2,2.1,1.7,1.2,2.8,1.3c0.9,0,1.8,0.1,0.9,1.4c-0.3,0.4-0.3,0.6,0.2,0.8c1.7,0.7,2.9,2.3,4.8,2.7
		c0.3,0.3,0.6,0.6,0.9,0.9c0.6,1.1-1,2.1-0.3,3.2c-0.1,0.6-0.6,0.8-1.1,1.1c-1.5,0.1-2.3,1.9-4,1.4c0-0.5-0.1-1,0.4-1.3
		c0.7-1.3-1.2-2.3-0.6-3.6c0.8-0.9,1-1.7-0.5-2.1c-0.1,0-0.2,0-0.3,0c-0.7-0.7-1.5-0.1-2.2,0c1.5-1.9-0.6-2.7-1.4-3.4
		C73.1,10.5,71.3,8.8,69.3,7.1z"/>
	<path class="st58" d="M70.2,5.3c-0.4,0.1-0.9,0.3-1.3,0.4c-0.3-0.4-0.3-0.9,0-1.3C69.3,4.7,69.7,5,70.2,5.3z"/>
	<path class="st21" d="M63.9,37.3c-0.8,0.1-1.2-0.6-1.8-0.9c0.4-2.9-1-5.8-0.3-8.8c0.3-1.3,0-2.7-1.9-2.8c0.2-0.4,0.3-0.8,0.5-1.2
		c0.2-0.5,0.6-0.7,1-0.7c0.6,0,0.7,0.5,0.7,1c0,1.8,0.7,3.4,0.4,5.3c-0.2,1-0.1,2.2,0.6,3.2c0.5,0.7,0.6,1.5,0.2,2.1
		c-0.8,1.4,0,1.9,1.1,2.4c0,0.1,0,0.3,0,0.4C64.2,37.5,64,37.5,63.9,37.3z"/>
	<path class="st59" d="M63.9,22.2c-0.2,0-0.3,0-0.5,0c-1.1-0.1-2.1-0.5-3.2,0c0.1-1.2-0.1-2.5,1.4-3.1c0.4-0.6-0.1-1.4,0.5-1.9
		c0.3-0.1,0.6-0.1,0.9,0c0.4,0.3,0.4,0.7,0.5,1.1c0,0.1,0,0.3,0,0.4C64.5,19.7,64.8,20.9,63.9,22.2z"/>
	<path class="st60" d="M62.9,17.3c-0.3,0-0.6,0-0.8,0c-1-0.6-0.2-1.5-0.5-2.2c0-0.3,0-0.6,0-0.9c0-0.5-0.1-0.9-0.4-1.3
		c1.1-2.1-1.4-3-1.6-4.7c-0.1-0.5-0.8-0.9-0.8-1.5c0-0.5-0.1-1,0.5-1.4c0.3-0.1,0.8-0.4,0.9,0.2c0.3,1.3,1.1,2.4,2.1,3.2
		c2.3,1.9,1.5,4.1,1.1,6.3c0,0.6-0.3,1.1-0.2,1.7C63.2,17,63.1,17.2,62.9,17.3z"/>
	<path class="st61" d="M61.6,15.1c1.2,0.5,0,1.5,0.5,2.2c0,0.6,0.7,1.4-0.5,1.8c-0.6-0.6-1.3-1.2-1.3-2.2
		C60.9,16.4,60.7,15.3,61.6,15.1z"/>
	<path class="st62" d="M61.2,12.9c0.6,0.3,1.2,0.6,0.4,1.3C61.1,13.9,61.2,13.4,61.2,12.9z"/>
	<path class="st40" d="M59.8,61.3c0.7-0.2,0.8-1,1.4-1.4c0.4,0.2,0.6,0.6,0.8,1c0.3,0.3,0.6,0.2,1,0.3c0.2,0.1,0.3,0.3,0.4,0.4
		c0.5,1.2-0.1,2.5,0,3.6c0.1,1.6-0.3,3.3,0.2,4.9c-0.2,0.7-0.5,1.4-0.9,2c-0.7,0.5-1,1.3-1,2.1c-0.2,0.7-0.1,1.8-1.4,1.3
		c-0.6-1.2,0.2-2.3,0.4-3.4c0.5-2.8,0.1-5.6,0.8-8.4c0.2-0.8,0-2.2-1.7-2C59.8,61.6,59.8,61.4,59.8,61.3z"/>
	<path class="st63" d="M63.9,22.2c0.1-1.2-0.1-2.4-0.4-3.6c0.6-0.3,1.2-0.6,1.8-0.9c0.4,0.3,0.5,0.7,0.5,1.1
		c-0.1,1.1,0.5,1.9,0.9,2.8c0.1,0.3,0,0.6,0.4,0.9c1.9,1.8,2.7,4.1,2.6,6.7c-0.5,1.5-0.6,2.8,1.3,3.6c0.8,0.3,0.6,1.3,0.2,1.9
		c-0.8,1.3-0.6,2.1,0.9,2.8c1.4,0.6,1.3,1.5,0,2.1c-0.9,0.4-2,0.6-3,0.8c-0.7,0.2-1.1-0.3-0.7-1.1c0.5-0.9-0.4-1.4-0.5-2.2
		c-0.1-1.6-0.6,1-0.9,0c-1.2-2.3,0-4.7-0.1-7.1c0-2.1-0.2-4.2-0.8-6.2C65.4,23.4,65.1,22.2,63.9,22.2z"/>
	<path class="st64" d="M63.9,7.1c0.9,0.8,1.3,2.1,2.7,2.2c2.1,0.7,3,2.2,2.8,4.3c0,0.6,0,1.1,0.1,1.7c0.2,1.3,0.9,2.5,0.6,3.9
		c-0.4,0.7-1.1,0.5-1.8,0.6c-0.6-0.2-0.9-0.5-1-1.1c-0.6-0.1,1.5-0.7-0.1-0.8c-0.5,0-0.9-0.5-1-1c0-0.3,0-0.6,0-0.9
		c0.6-2.5,1.3-5.1-1.6-6.8C63.8,8.8,63.3,8,63.9,7.1z"/>
	<path class="st65" d="M63.9,7.1c-0.1,1.4,0.9,2,1.9,2.7c2,1.4,2.1,4.6,0.4,6.2c-0.4-0.1-1.3,0.3-0.9-0.6c1.3-2.4,1-4.4-1.2-6.2
		c-0.9-0.8-1.3-2.2-1.9-3.4c0.3-0.2,0.6-0.3,0.9,0C63.3,6.2,63.6,6.7,63.9,7.1z"/>
	<path class="st65" d="M66.1,16.9c0.4,0.3,0.8,0.6,1.3,0.8c0.4,0.2,1.2-0.7,1.3,0.3c0.1,0.8-1.1-0.1-1.3,0.7c-0.7,0.3-1,2.8-2.2,0.4
		c0-0.4,0-0.9,0-1.3C65.3,17.2,65.5,16.9,66.1,16.9z"/>
	<path class="st64" d="M63,5.8c-0.3,0-0.6,0-0.9,0c-0.4-1.5-2.1-2.1-2.7-3.6C61.7,2.3,62.7,3.7,63,5.8z"/>
	<path class="st59" d="M63,16.9c0-0.6-0.2-1.3,0.4-1.8c1.4,0.6-0.3,1.2,0,1.7C63.3,17,63.2,17,63,16.9z"/>
	<path class="st66" d="M63,16.9c0.1,0,0.3,0,0.4-0.1c0.6,0.5,0.5,0.9,0,1.4c-0.4-0.2-0.5-0.5-0.5-0.9C63,17.2,63,17,63,16.9z"/>
	<path class="st67" d="M64.8,52c1-0.2,1.6,0.5,2.3,1.4c0.1-1.4-0.3-2.4,0.2-3.5c0.8,0.6,1.5,1.2,2.2,1.8c0.6,0.4,1.1,0.3,1.6-0.3
		c0.4-0.4,0.8-0.8,0.2-1.3c-1.5-1.4-1.4-2.4,0.7-3c0.2-0.1,0.3-0.6,0.4-1c0.2-0.2,0.3-0.2,0.5-0.1c0.4,0.8,0.8,1.4,1.8,0.7
		c0.3-0.1,0.6-0.1,0.9,0c0.9,0.7,1.7,1.2,0.1,2.4c-0.9,0.6-1,2.2-1.7,3.4c-0.7,1.1-1.3,1.9-2.5,2.3c-1.1,0-2,0.3-2.7,1.2
		c-0.3,0.4-0.7,0.7-1.3,0.4c-0.1,0-0.1-0.5-0.2-0.1c-0.2,0.7,0,1.7-1.1,1.9c-0.2,0-0.2-0.4-0.4-0.3c-0.3,0.3-0.5,0.3-0.7,0.1
		c-0.4-0.4-0.6-0.9-0.4-1.4c0.4-1.3,0-2.5,0.1-3.8C64.8,52.5,64.8,52.2,64.8,52z"/>
	<path class="st63" d="M64.8,52.8c0.7,1.1,0.3,2.3,0.6,3.4c0.1,0.5,0,0.7,0.7,1.1c0.1,0.1,0.1,0.5,0.1,0.8c0.1,0.2,0.2,0.3,0.3,0.5
		c-1.5,0.8-0.1,2.9-1.7,3.7c-0.3,0.2,0.1,1.2,0.4,1.8c0.4,1.3,1.2,2.4,1.6,3.7c-0.2,1.3-0.7,2.4-2,2.9c-0.4,0-0.8-0.2-1.1-0.4
		c-0.1-0.1-0.1-0.2-0.2-0.3c-0.6-0.5-0.9-1.1-0.6-1.9c0.1-0.3,0.5-0.7,0.4-0.9c-1.1-2,0.7-4.1-0.3-6.1c0.2-1,0.7-2.1,0-3.1
		c0.1-0.6,0.3-1.2,0.4-1.8C63.9,55.2,64.4,54,64.8,52.8z"/>
	<path class="st68" d="M75.6,91.5c-0.8,0.4-1.5-0.2-2.2,0c0-0.1-0.1-0.2-0.1-0.3c0.6-1.2,2-1.6,2.8-2.8c0.4-0.6,1.1-0.1,1.9,0.7
		c-1.2-2.5,0.6-2.8,1.9-3.6c0.8-1.2,1.7-1.9,3-0.7c-0.1,0.6-0.3,1.2-0.5,2c1.1-0.4,1.6-1.4,2.7-1.1c0.7,1.5,0,3,0,4.4c0,0,0,0,0,0
		c-1.5-1.2-2,0.8-3.1,0.9c0.5-0.8,0.4-1.7-0.7-1.2C79.3,90.6,77.4,90.7,75.6,91.5z"/>
	<path class="st69" d="M82.7,84.8c-1.1-0.3-2.1-0.3-2.7,0.9c-2,0.4-0.6-1.5-1.4-2c-0.5-0.3-0.3-1.1,0.4-1.4c0.5-0.2,0.9-0.4,1.4-0.6
		c1.2,0.6,2.4,1.2,2.7,2.7C83.1,84.5,82.9,84.6,82.7,84.8z"/>
	<path class="st68" d="M83.2,84.4c-1.3-0.5-1.7-1.8-2.7-2.7c0-0.1-0.1-0.2-0.1-0.3c0.2-0.5,0.7-0.7,1.2-0.8c1,0.3,1.9-0.2,2.9,0.2
		c-0.1,0.9-1,1.7-0.4,2.7C83.8,83.8,83.5,84.1,83.2,84.4z"/>
	<path class="st26" d="M85,90.1c-0.8-1.5,0-3,0-4.4c2.5,1.3,2.5,1.3,0.6,3.5C85.3,89.5,85.2,89.8,85,90.1z"/>
	<path class="st26" d="M84.5,20c-2-1.4,0.6-2,0.5-3.1c0.7,0.9,1.5,0.2,2.2,0c0.3,0.6,0.6,1.2,0.9,1.8c0.1,0.2,0.1,0.4,0,0.6
		c-0.5,0.9-0.5,2.2-1.8,2.6c1.1,0.1,1.3,0.9,1.6,1.8c0.1,0.2,0.1,0.4,0.1,0.6c0,1-0.4,1.7-1.4,2C85.2,24.5,84.6,22.3,84.5,20z"/>
	<path class="st17" d="M86.8,26.2c0.4-0.7,1.1-1.3,0.9-2.2c1.3-0.5,1.4,1.4,3,1.3c-1.4-1.1-2.4-2-2.7-3.4c0.2,0.7,0.4,1.5-0.3,2.1
		c-0.7-0.4-0.2-1.8-1.5-1.8c-0.5,0-0.1-0.2,0-0.4c0.7-1,1.3-2,1.9-3c1.8,1.9,3.6,3.8,5.4,5.8c-0.5,0.9-0.5,1.6,0.4,2.2
		c0,1.9-1.7,1.3-2.7,1.8c-0.2,0.8-0.2,1.7-1.3,1.9c-1.2-0.1-1.4-0.9-1.5-1.8c-0.1-0.9-0.3-1.6-1.4-1.7
		C86.9,26.7,86.6,26.6,86.8,26.2z"/>
	<path class="st40" d="M62.1,80.4c-0.6,1.1-1.2,1.3-1.8,0c0.1-0.3,0.2-0.6,0.4-1c-0.2,0-0.4,0-0.5,0c-0.7,0.2-1,1.7-1.8,0.9
		c-0.8-0.9,1.3-0.7,1-1.7c0.3-0.6,0.6-1.2,0.9-1.8c0.3-0.2,0.9,0.6,0.9-0.4c0-0.5,0.2-1,0.8-1c1.2,1.5,0.8,3.2,0.3,4.8
		C62.3,80.2,62.2,80.3,62.1,80.4z"/>
	<path class="st47" d="M62.1,75.5c-0.4,0.3-0.4,0.7-0.5,1.1c0,0.5,0.1,1.1-0.6,1.1c-0.2,0-0.5-0.6-0.7-1c-0.3-0.4-0.3-0.9,0-1.3
		c1.2-0.2,0.8-1.1,0.9-1.8c0.3-0.2,0.1-1,0.7-0.9c0.4,0.1,0.5,0.5,0.5,0.9c0,0.4,0,0.9,0,1.3C62.4,75.2,62.2,75.4,62.1,75.5z"/>
	<path class="st70" d="M61.2,93.7c-0.2-0.6,0.5-1.2,0.1-1.8c-0.1-0.1-0.2-0.2-0.1-0.3c0-0.1,0.1-0.2,0.1-0.2
		c0.5-0.4,1.3-0.2,1.9-1.4c-0.8,0.6-1.1,1-1.7,1.2c-0.4,0-0.6-0.3-0.6-0.6c0-0.3,0-0.6,0-0.9c0.6-0.8,1.3-1.6,1.7-2.5
		c-0.5-0.8,0.6-1.2,0.5-1.9c-0.1-0.4,0.1-0.6,0.5-0.7c0.3-0.1,0.7,0,1,0.1c0.8,1.1,2.2,2,2,3.6c-0.2,0.9-0.2,1.9-0.3,2.8
		c0,1.1-0.3,2.2-1.7,2.1c-1,0-0.6,0.7-0.6,0.9c0.1,1.9-1,3.3-1.7,4.9c-0.2,0.1-0.4,0.1-0.6,0c-0.5-0.6-0.9-1.2-1.4-1.8
		C60,95.9,61.3,95,61.2,93.7z"/>
	<path class="st67" d="M61.2,93.7c1.1,1.5-0.3,2.4-0.9,3.5c-0.1,0-0.3,0-0.4,0C60.3,96.1,58.4,94,61.2,93.7z"/>
	<path class="st37" d="M61.6,100.7c0.6,1.5-1,0.8-1.3,1.4c-0.1-0.7-1-0.9-1-1.6C60.1,100.1,60.8,101.1,61.6,100.7z"/>
	<path class="st37" d="M61.7,99c0.1,0,0.3,0,0.4,0c1-0.6,1.4,0.1,1.8,0.9c0,0.2,0,0.3,0,0.5c-0.7,0-1.5,0-2.2,0
		C61.9,99.9,62,99.5,61.7,99z"/>
	<path class="st15" d="M63,58.2c1.2,1,1.6,2.1,0,3.1c0,0,0,0,0,0c-0.4-0.7-0.9,0.4-1.3,0c-0.2-0.4-0.3-0.9-0.5-1.3
		c0.5-0.3,0.1-2.4,1.6-0.8C62.9,58.8,62.9,58.5,63,58.2z"/>
	<path class="st61" d="M59.9,82.1c0.4,0.9,0.9,1.7,1,2.6c0.1,0.9,0,2.1-1.6,1.8c-0.8-0.2-0.7,0.5-0.8,1c-0.8-0.1-1-0.8-1.3-1.3
		C58.6,85.2,58.6,83.2,59.9,82.1z"/>
	<path class="st71" d="M69.7,94.1c0,0.4,0,0.9,0,1.3c-1,0.1-1.7,0.7-2,1.5c-0.5,1.5-1.6,1.7-2.9,1.6c-0.9,0-0.7-0.6-0.4-1
		c1.2-1.5,1.5-3.5,2.8-4.9c1.3-1.1,1.3-2.9,2.3-4.2c0.3-0.4,0.1-1-0.4-1.3c-1.1-0.7-0.6-1.3,0.2-1.8c0.6-0.5,1.4-0.6,2.2-0.7
		c0.5-0.1,1.1-0.2,1.6,0c0.1,1.9,0.2,3.8-0.8,5.5C70,90.7,70.3,92.7,69.7,94.1z"/>
	<path class="st25" d="M67.5,92.8c-0.9,1.8-1.4,3.8-2.9,5.3c0,0,0.2,0.3,0.2,0.5c-0.3,0.4-0.6,0.9-0.9,1.3c-0.6-0.3-1-0.9-1.8-0.9
		c0-1.8,1.7-3.2,1.2-5.1c-0.1-0.2,0.2-1.6,1.6-1.2c0.7,0.2,0.8-0.7,0.9-1.4c0.1-1-0.4-2.1,0.4-2.9c0.1,0,0.2,0,0.3-0.1
		c1.4-0.3,2,0.1,1.8,1.6C68.1,90.8,68.1,91.9,67.5,92.8z"/>
	<path class="st72" d="M93.6,49.3c0.2,0.1,0.3,0.3,0.5,0.4c0.4,0.4,0.8,0.8,1.1,1.3c0.2,0.3,0.4,0.4,0.7,0.5
		c1.3,0.9,1.2,2.1,0.5,3.1c-1.1,1.5-1.5,3.1-1.9,4.8c-0.1,0.3-0.3,0.6-0.5,0.8c-0.3,0.4-0.5,0.9-0.9,1.3c-0.8,0.9-1.9,1.5-3.1,1.5
		c-1.1,0-4.4-3.2-4.5-4c0-0.3,0.1-0.7,0.4-0.7c1-0.3,0.8-0.7,0.2-1.3c-0.7-0.7-0.3-1.4,0.1-2c0.9-1.3-0.7-0.1-0.6-0.6
		c-0.2-0.2-0.2-0.3-0.3-0.5c0.7-2.2,1-4.4,2.4-6.3c1,0.1,0.8,0.8,0.8,1.5c-0.1,0.8-0.3,1.6-0.4,2.6c1,0,1.6-0.2,2.2-1.1
		C91,49.4,92,48.2,93.6,49.3z"/>
	<path class="st73" d="M96.7,35.5c1.6,1.3,2.4,2.8,1.5,4.9c-0.4,0.9-0.2,2-0.2,3.1c-1.5,1-3,2.1-4.5,0c-0.6-0.7-1.4-1.3-1.6-2.3
		c-0.4-1.1,0.4-2.3-0.6-3.5c-0.5-0.6-0.3-2.1,1.4-1.9c0.9,0.1,1.8-0.2,2.6-0.6C95.9,34.9,96.4,35,96.7,35.5z"/>
	<path class="st43" d="M89.9,30.2c0.4-0.6,0.9-1.2,1.3-1.8c0.1,0.2,0.3,0.3,0.4,0.5c0.3,0.7,0.2,1.7,1.4,1.8l0,0
		c0.6,0.4,0.6,1.1,0.9,1.7l0,0c0,0.1,0.1,0.2,0,0.2c-1.9,1.6-3.3,3.4-3.2,6c-0.2,0-0.3,0-0.5,0c-1.1-0.2-2.2-1.2-3.1,0.1
		c-0.2,0.1-0.4,0.1-0.6,0.1c-0.8-0.2-1.3-0.7-1.5-1.5c-0.3-1,1-1.5,0.9-2.5c0-0.2,0.1-0.4,0.3-0.5c1-0.7,1.2,0.2,1.6,0.9
		c0.1-1.2,0.5-2.2,0.4-3.3c0-0.2,0.1-0.4,0.2-0.6C89,31.1,89.6,30.8,89.9,30.2z"/>
	<path class="st73" d="M93.6,49.3c-1.1-0.1-2,0.3-2.7,1.1c-0.6,0.8-1,1.8-2.3,1.7c-0.3,0-0.6,0.7-1.1,0.3c-0.4-0.3-0.1-0.8-0.1-1.3
		c0.1-1.2,1.1-2.4,0.3-3.7c-1.4,0.1-1.8-0.5-1.5-1.8c1.5-1,0.3-2.1,0.2-3.2c0.3-0.2,0.6-0.3,0.9-0.2c1.3,0.5,2.5,1,2.5,2.7
		c0,0.6,0.5,0.9,1,1c1,0.8,2,1.7,2.8,2.9C93.5,49,93.6,49.1,93.6,49.3z"/>
	<path class="st74" d="M90.9,38.6c-1.3-3.2,0.8-4.8,3.1-6.2c0.9,1,1.8,2,2.7,3.1c-1.5,0.1-2.9,1.3-4.6,0.7c-0.4-0.1-0.5,1.1-0.3,1.3
		c1.2,1.2,0.2,2.5,0.4,3.8c-0.2,0.2-0.3,0.2-0.4,0C90.7,40.6,92.5,39.1,90.9,38.6z"/>
	<path class="st58" d="M90.8,46.2c-0.5-0.1-1.2-0.2-1.2-0.8c-0.1-1.6-1.4-2.1-2.4-2.8c-1.3-1.2-1.8-2.5-0.5-4c0.2,0,0.3,0,0.5,0
		c1.3-0.1,1.5,0.9,1.8,1.8c-0.1,2,0.9,3.6,1.8,5.3C91,45.8,91,45.9,91,46C90.9,46.1,90.9,46.2,90.8,46.2z"/>
	<path class="st75" d="M89,40.4c-0.6-0.6-1.2-1.2-1.8-1.8c-0.7-1.2-0.1-1,0.9-1.1c1.2-0.1,1.7,0.2,2.2,1.1c-0.2,0.9-0.7,1.8,0,2.7
		c0.2,0.2,1,0.5,0.2,0.9c-0.5,0.3-0.8,0-1-0.5C89.4,41.3,89.6,40.7,89,40.4z"/>
	<path class="st44" d="M99.4,49.7c0,0.6,0.2,1.3-0.5,2c-0.6-0.8-1.3-1.3-0.7-2.5c-0.7,0.2-0.8,0.7-1,1c-0.2-0.9-0.2-2.1-1.9-2.1
		C97.8,46.7,98.1,46.8,99.4,49.7z"/>
	<path class="st76" d="M90.8,46.2c0-0.2,0-0.3,0-0.5c1,1,3.1,1,2.7,3.1C92.2,48.4,91.6,47.2,90.8,46.2z"/>
	<path class="st77" d="M91.7,41.3c0.1,0,0.3,0,0.4,0c0.3,0.8,1.7,1,1.3,2.2C91.9,43.6,91.7,42.6,91.7,41.3z"/>
	<path class="st76" d="M94.9,51.1c-0.6-0.3-0.9-0.7-0.9-1.4c0.6,0,1.1,0.3,1.3,0.9c0,0.1,0,0.3,0,0.4C95.2,51.2,95,51.2,94.9,51.1z"
		/>
	<path class="st78" d="M98.9,57.3c1-1,1.7-0.8,2.2,0.5c-0.1,1.1,0.2,2.2-0.6,3.2c-0.9-1.1-2.2-1.1-3.4-1.4c-0.1-0.2-0.1-0.4-0.1-0.6
		c0.4-0.5,0.4-1.4,1.4-1.2C98.6,57.6,98.8,57.4,98.9,57.3z"/>
	<path class="st68" d="M97.2,59.1c0,0.1,0,0.3,0,0.4c-0.4,0.8-1.4,1.2-1.4,2.2c-0.3,0.2-0.6,0.7-0.4,0.9c1.3,1.6,0.1,3-0.5,4.4
		c-0.2,0.1-0.4,0.1-0.6,0c-0.3-2.3-0.9-4.5,0.5-6.7c0.4-0.8,1-1.4,2-1.4C97,59,97.1,59,97.2,59.1z"/>
	<path class="st32" d="M94,59.5c0-1.8,0.5-3.3,1.6-4.7c0.9-1.1,1-2.3-0.3-3.3c0.6-0.4,1.2-0.3,1.8,0.2c0.2,0.1,0.3,0.3,0.3,0.5
		c0,0.7-0.3,1.3,0.1,2c0.2,0.3,0.3,0.6,0.6,0.9c0,0.1,0,0.3,0,0.4c-0.1,0.1-0.3,0.3-0.5,0.4c-0.5,0.2-1.1,0.3-1.4,0.9
		c-0.1,0.2-0.2,0.3-0.3,0.5c-0.4,0.6-0.3,1.3-0.4,1.9C95.2,60,94.8,60.5,94,59.5z"/>
	<path class="st79" d="M97.6,55.5c0.1,0,0.3,0,0.4,0c0.2,0.7,0.3,1.5,0.5,2.2c-0.6,0.3-0.4,1.4-1.3,1.4c0,0,0-0.1,0-0.1
		c0.1-1.1-2-0.8-1.3-2.2v0C95.9,55.7,96.9,55.9,97.6,55.5z"/>
	<path class="st79" d="M98,55.1c-0.4,0-0.7-0.1-0.9-0.5c-0.3-0.7-0.3-1.5,0-2.2c0-0.1,0-0.3,0-0.4C97,51.8,97,51.7,97,51.6
		c0-0.1,0.1-0.1,0.1-0.1C99,52.3,98.4,53.7,98,55.1z"/>
	<path class="st80" d="M97.1,51.5c0,0.1,0,0.3,0,0.4c-0.6-0.3-1.2-0.5-1.8-0.4c-0.1-0.1-0.3-0.3-0.4-0.4c0.2,0,0.3,0,0.5,0
		C96,51.1,96.7,50.9,97.1,51.5z"/>
	<path class="st17" d="M94,32.4c-0.8-0.3-0.9-1-0.9-1.7c1.9-1.4,1.7,0.2,1.8,1.3C94.5,32,94.2,32,94,32.4z"/>
	<path class="st17" d="M93.1,30.6c-1.4,0.1-1.4-0.8-1.4-1.8C92.2,29.5,92.6,30,93.1,30.6z"/>
	<path class="st50" d="M95.3,60.4c-1.3,2.1-0.5,4.4-0.9,6.7c-0.1,0.9-0.1,1.8-0.5,2.7c-0.4,0.3-1.4-1.4-1.4,0.4
		c-0.3,0.2-0.4,0.5-0.4,0.9c-0.1,0.1-0.3,0.3-0.4,0.5c-0.4,0.9-1.1,1.4-2.1,1.5c-0.2,0-0.4-0.2-0.5-0.4c-0.4-1.5-1.8-2.9-0.2-4.5
		c0.4-0.7,1.2-0.7,1.9-1c1.2-0.5,0.6-0.9-0.2-1.1c-0.2-0.1-0.4-0.2-0.5-0.3c-0.3-0.3-0.5-0.7-0.3-1.1c2-0.5,2.7-2.3,3.8-3.8
		C94.2,60.6,94.6,60.1,95.3,60.4z"/>
	<path class="st16" d="M91.8,71c0.1,0,0.3,0,0.4,0c-0.5,1.2,1,2.4-0.1,3.7c-1.1,1.2-1.9,2.5-3.2-0.5c-0.3,1.5-0.5,2.5-0.7,3.5
		c-1,0.5-1.8,1.2-2.2,2.2c0,0-0.1-0.1-0.1-0.1c-0.5-1-2.1-1.5-1.6-3c1-1.9,1-1.9,2.2-0.2c-0.5-1.8,0.5-2.8,1.4-3.9
		c0.6-0.5,1.1-0.8,1.6,0.1l0,0C90.9,73,91.4,72.1,91.8,71z"/>
	<path class="st8" d="M87.8,80.1c0.4,0.1,0.6,0.3,0.6,0.6c0,0.4-0.3,0.5-0.6,0.4c-0.2,0-0.4-0.3-0.4-0.4
		C87.5,80.5,87.7,80.3,87.8,80.1z"/>
	<path class="st8" d="M86.4,81.4c0.1,0.1,0.3,0.2,0.3,0.4c0.1,0.3-0.1,0.6-0.4,0.7c-0.1,0-0.4,0.4-0.4-0.1
		C85.9,82,85.9,81.6,86.4,81.4z"/>
	<path class="st81" d="M94,69.7c0-0.9-0.1-1.8,0.5-2.7c0.1,0,0.3,0,0.4,0c1.4,1,1.1-1,2.1-1c1.2,1.8-0.3,2.9-1.1,4.3
		c-1.1-0.4-0.2-1.6-1.2-2.2C94.1,68.4,94.7,69.5,94,69.7z"/>
	<path class="st82" d="M63.4,84.8c-0.1,0.1-0.3,0.3-0.4,0.4c-0.7-0.4-1.5-0.8-0.9-1.8c0-0.3,0.1-0.6,0.2-0.8
		c0.4-0.7,0.5-1.4,0.4-2.2c0.8-0.7,0.7-2.3,2.2-2.4c1.7,1.8,1.7,1.8-0.1,3.5c-0.3,0.3-0.6,0.6-0.3,0.9C65.8,84,64.3,84.3,63.4,84.8z
		"/>
	<path class="st83" d="M62.5,87.1c0.3,1.4-0.8,1.9-1.7,2.5C60.9,88.5,61.3,87.6,62.5,87.1z"/>
	<path class="st5" d="M61.3,91.5c0,0.1,0,0.3,0,0.4c-2.2,0.9-0.5-1-0.9-1.3c0.2,0,0.3,0,0.5,0c0.2,0.1,0.3,0.3,0.5,0.4
		C61.4,91.1,61.5,91.3,61.3,91.5z"/>
	<path class="st40" d="M63,80.4c-0.1,0.9,0.3,1.9-0.4,2.7c-0.4-0.2-0.5-0.6-0.5-1c0.5-0.6,0.4-1.1,0-1.7c0,0,0,0,0,0
		C62.4,80.1,62.7,80.1,63,80.4z"/>
	<path class="st84" d="M62.1,82.1c0.4,0.2,0.5,0.6,0.5,1c-0.2,0.1-0.3,0.3-0.5,0.4C61.5,83,61.6,82.5,62.1,82.1z"/>
	<path class="st85" d="M59.4,89.6c0-0.6,0-1.2,0-2.3C60,88.5,60,89.1,59.4,89.6C59.4,89.6,59.4,89.6,59.4,89.6z"/>
	<path class="st68" d="M76,93.2c0-0.6,0-1.2,0-1.8c0.3,0.3,0.6,0.6,0.9,0.9c0.1,0.1,0.2,0.2,0.2,0.2c0,0.1-0.1,0.1-0.1,0.1
		C76.8,93.1,76.4,93.2,76,93.2z"/>
	<path class="st86" d="M77,92.7c0-0.1,0-0.3,0-0.4c0.1-0.2,0.2-0.5,0.4-0.7c0,0,0.3,0.1,0.3,0.1C77.8,92.3,77.4,92.6,77,92.7z"/>
	<path class="st24" d="M69.7,94.1c-0.6-2.7,0.3-4.4,2.3-4c0.1,0,0.2,0.1,0.3,0.1c0.3,0.3,0.5,0.6,0.7,0.9c0.1,0.2,0.1,0.4,0.2,0.5
		c0.1,0.7-0.4,1-0.7,1.5c0,0,0,0,0,0C71.3,92.8,70.6,93.7,69.7,94.1z"/>
	<path class="st87" d="M72.4,94.6c0.1,0.4,0.3,0.9,0.4,1.3c-0.8,0-1.5-0.5-1.6-1.2c-0.1-0.7,0.5-0.9,1.1-0.9
		C72.4,94,72.4,94.3,72.4,94.6z"/>
	<path class="st51" d="M72.4,93.2c0.2-0.6,0.3-1.2,0.5-1.8c0.1-0.1,0.3-0.1,0.5,0c0,0,0,0,0,0c0.4,0.3,0.8,0.5,1.4,1
		C73.8,92.7,73.1,93,72.4,93.2z"/>
	<path class="st88" d="M71.1,18.6c0.9,0.6,1.6,1.6,2.8,1.5c0.6,0.9-1.5,0.7-0.5,1.5c0.4,0.3,1.3,1.4,2.1-0.1
		c0.6-1.1,1.4-0.2,1.8,0.3c0.7,0.9-0.4,2.7-1.6,2.8c-0.8,0.1-1.4,0.5-1.9,1.1c-0.8-2.4-2.1-4.5-3.8-6.5C70,18.5,70.4,18.2,71.1,18.6
		z"/>
	<path class="st89" d="M78.7,23.1c0.2,0,0.3,0,0.5,0c0.9,0.3,1.5,0.8,1.6,1.8c-1.2,1.8-2.5,3.6-1.8,6c0.2,0.6-0.2,1.1-0.7,1.5
		c-1.3-0.1-0.9-1.4-1.6-2c-0.1-0.2-0.1-0.4-0.2-0.6c0-0.7,0-1.3-0.8-1.6c-0.1-0.1-0.1-0.1-0.2-0.2C77,26.6,78.6,25.3,78.7,23.1z"/>
	<path class="st90" d="M70.2,19.5c2.3,1.5,3.7,3.4,3.6,6.2c-0.1,0-0.3,0-0.4,0c-0.1-0.1-0.2-0.1-0.3-0.2c-0.5-0.6-0.9-1.3-1.6-1.7
		c-1.7-1-1.9-2.4-1.5-4.1C70.1,19.7,70.1,19.6,70.2,19.5z"/>
	<path class="st25" d="M68.8,13.8c0.3-2-0.6-3.4-2.2-4.4c1.3-0.2,2,1,3.1,1.3c0.8,1.5,0.1,3.5,1.4,4.9c0,0.1,0,0.3,0,0.4
		c-0.2,0.2-0.4,0.3-0.6,0.3c-0.6,0-1-0.3-1.2-0.9C69.2,14.8,69.4,14.2,68.8,13.8z"/>
	<path class="st90" d="M69.7,15.1c0,0.6,0.3,0.9,0.9,0.9c0.6,0.7,0.6,1.4,0.5,2.2c0,0.1,0,0.3,0,0.4c-0.6,0-0.9,0.3-0.9,0.9
		c0,0,0,0,0,0c-0.1,0.1-0.3,0.1-0.4,0c0-1.4-0.4-2.7-0.9-4C69.1,15.3,69.2,14.8,69.7,15.1z"/>
	<path class="st90" d="M73.4,25.8c0.3,1.1,1.1,1.8,2.2,2.2c0.5,0.3,0.9,0.7,0.5,1.4c-0.2,0.1-0.4,0.2-0.7,0.1
		c-0.9-0.5-1.8-1-2.3-1.9C72.7,27,72.1,26.2,73.4,25.8L73.4,25.8z"/>
	<path class="st55" d="M71.1,18.2c-0.4-0.7-0.5-1.4-0.5-2.2c0.2,0,0.3,0,0.5,0C72,16.7,72,17.5,71.1,18.2z"/>
	<path class="st91" d="M80.5,24.9c-0.5-0.6-0.9-1.2-1.4-1.8c0.2-0.1,0.3-0.3,0.5-0.4c1.4-0.5,2.3-1.9,4-1.8c0.7,1.4-0.1,2.5-0.9,3.6
		c-0.5,0.5-0.9,1.2-1.7,1.4C80.6,25.7,80.8,25.2,80.5,24.9z"/>
	<path class="st91" d="M79.6,17.7c0.3,0.8-0.1,1.9,1.4,2.1c0.4,0.1,0.4,0.3-0.9,1.4c-2.1-0.9-1.2-2.9-1.5-4.5
		c-0.1-0.4,0.1-0.9,0.2-1.3c0,0,0,0,0,0C80.1,15.8,80.2,16.7,79.6,17.7z"/>
	<path class="st69" d="M84.6,76.8c-0.4,1.3,1.3,1.8,1.3,3c-1.5-1.2-1.3,0-1.3,0.9c-1,0.5-2.1,1-3.1,0c-0.1,0-0.2-0.1-0.3-0.1
		c-0.6-0.4-0.9-1-1.4-1.6c-0.6-1.1,0.2-1.7,0.8-2.4c0.9-0.2,1.3-0.9,1.7-1.6c0.4-0.8,0.9-1.5,1.9-1.7c0.2,0,0.4,0.1,0.6,0.2
		C85.4,74.7,83.8,75.7,84.6,76.8z"/>
	<path class="st92" d="M75.6,47.1c-0.3,0-0.6,0-0.9,0c-0.9,0.2-1.3-0.5-1.8-0.9c-0.1,0-0.3,0-0.4,0c1.7-2.6,0.8-5.1-1.8-5.3
		c-0.7,1.9-2.8,1.6-4,2.7c-0.1,0.5-0.3,1.2-0.8,0.3c-0.3-0.6,0-1.4,0.4-2c0.3-0.2,1-0.5,0.3-0.8c-0.9-0.4-1.5-0.9-1.1-1.7
		c0.3-0.6,1.2,0,1.8,0.1c0.4,0.1,0.8,0.2,1.3,0.2c1.1,1.4,2.1-0.4,3.2-0.2c0.3,0.1,0.7-0.4,1.1-0.6C72.5,38,72,38.1,71.5,38
		c-1.3-0.3-1.9-1.7-1.1-2.8c0.8-1.2,0.5-0.9-0.5-1.7c-0.8-0.6-1.7-1.8-1.1-3.2c0.1-0.3,0.3-0.6,0.5-0.9c2.6,1.7,3.8,4,3.2,7.1
		c0.1,0.1,0.3,0.2,0.4,0.3c0.9,0.3,1.1,0.9,1.1,1.7c0,0.1,0,0.3,0.1,0.4c1.7,1.6,1.9,3.6,1.1,5.7C75.8,45.3,76.8,46.1,75.6,47.1z"/>
	<path class="st93" d="M66.6,43.5c0.7-1.9,3-1.4,4-2.7c0.7,0.5,0.1,0.9-0.1,1.3c-0.8,1.6-1.5,3.1,1.6,3.4c-1.1,0.9-2.8,0.6-2.6,2.3
		c0.1,0.7-0.7,0.3-1,0.1c-0.8-0.7-1.5-1.5-1.2-2.6C67.5,44.5,67.4,43.9,66.6,43.5z"/>
	<path class="st93" d="M66.1,24c2.5,2.5,1.5,5.5,1.2,8.3c-0.2,1.7-0.2,3.3-0.3,5c-0.2-0.4-0.8-0.8-0.7-1.1c0.5-2.8-1-5.4-0.3-8.2
		C66.3,26.7,65.3,25.3,66.1,24z"/>
	<path class="st11" d="M63.9,37.3c0.2,0,0.3,0,0.5,0c0.5,0.2,0.8-0.7,1.2-0.3c0.1,0.1,0,0.8-0.2,0.9C64.7,38.4,64.2,37.9,63.9,37.3z
		"/>
	<path class="st94" d="M82.3,24.4c0.9-1,1.1-2.3,1.3-3.5c0.3-0.3,0.6-0.6,0.9-0.9c0.6,1.6,1.2,3.2,1.8,4.8c0.2,0.5,0,1,0.5,1.4
		c0.1,0.1,0.3,0.3,0.4,0.4c-0.1,1.5-0.1,1.5-1.9,1c0.2,1.4,0.5,2.6,2.1,2.9c0.5,0.1,0.9,0.4,1.1,1c0,0.1,0,0.3,0,0.4
		c-0.4,0.8-1.1,1.2-2,0.8c-0.4-0.2-0.7-0.4-1.1-0.7c-0.5-0.5-1.1-0.9-1.7-1.4c-1.3-1-2.4-2.2-1.6-4C82.5,26,81.7,25.2,82.3,24.4z"/>
	<path class="st10" d="M79.6,17.7c0-0.9-0.2-1.6-0.9-2.2c0.9-0.7,1.6-0.7,1.8,0.6C80.7,17,81.2,17.9,79.6,17.7z"/>
	<path class="st63" d="M63,80.4c-0.3,0-0.6,0-0.9,0c0.2-1.6,0.3-3.2,0-4.9c0-0.2,0-0.3,0-0.5c0.6-1,0.1-2.1,0.4-3.1
		c0-0.8,0.1-1.5,0.9-1.8c0,0,0,0,0,0c0.4,0.3,0.5,0.9,1.1,0.8c0.6,0.1,1.2-1,1.7-0.1c0.4,0.6,0.1,1.3-0.4,1.8
		c-0.3,0.4-0.7,0.6-1,0.9c-0.5,0.5-0.6,1.1-0.7,1.8c-0.1,0.9,0.8,1.4,0.8,2.2c0,0.2-0.1,0.4-0.3,0.5C63.7,78.5,64.3,80.2,63,80.4z"
		/>
	<path class="st95" d="M62.5,71.9c0.4,1.1,0.8,2.2-0.4,3.1c-0.2-0.4-0.3-0.8-0.1-1.2c0.1-0.2,0.2-0.6-0.2-0.6
		c-0.2,0-0.4,0.3-0.6,0.5C61.2,72.8,61.3,72,62.5,71.9z"/>
	<path class="st11" d="M61.7,61.3c0.6-0.1,0.2-1.2,0.9-0.9c0.2,0.1,0.3,0.6,0.4,0.9C62.5,61.3,62.1,63,61.7,61.3z"/>
	<path class="st96" d="M72.4,36.9c-0.8,0.3-0.9,0.1-0.6-0.7c0.5-1.6,0.6-3.9-0.7-4.4c-1.5-0.6-1.2-1.8-1.9-2.5
		c0-0.1-0.1-0.1-0.1-0.2c-0.1-2.7-1.2-4.8-3.1-6.7c0,0,0.3-0.4,0.5-0.7c0.1,0,0.2-0.1,0.3-0.1c0.4,0,0.8,0.2,1,0.5
		c1.8,2.7,4.9,4.2,6.7,6.9c0.9,1.3,1.2,2.5,1.1,3.9c-0.1,0.5-0.1,1.2-0.8,1.2c-0.6,0-0.9-0.5-1-1c-0.1-0.5,0.1-1.1-0.5-1.6
		C72.9,33.4,74.3,35.4,72.4,36.9z"/>
	<path class="st96" d="M65.3,19.1c1,1.3,1.4-0.9,2.2-0.4c0.3,0.3,0.6,0.6,0.9,0.9c0.5,0.2,0.8,0.6,1,1.1c0.2,0.5,0.7,1.1,0.2,1.6
		c-0.5,0.5-1.1,0-1.6-0.3c-0.5-0.3-0.9-0.5-1.4-0.2c0,0,0,0,0,0C65.4,21.2,65.1,20.3,65.3,19.1z"/>
	<path class="st65" d="M66.6,21.7c1.1-1.9,1.7,0.3,2.8,0.3c-0.4-0.9-0.7-1.7-1-2.5c0.4-0.3,0.9-0.3,1.3,0c0.1,0,0.3,0,0.4,0
		c0,1.8,0.3,3.5,2.2,4.4c0.8,0.4,1,1,0.9,1.8c-0.7,1,0.1,1.6,0.7,2.1c0.6,0.4,1.2,0.8,1.5,1.5c0.5,0.6,0.3,1.2,0,1.7
		c0.3-0.1,0.1-0.7,0.5-0.8c0.6-0.1,0.8,0.4,0.8,0.8c0.1,1.6,0.1,3.1,0.2,4.7c-0.1,0.2-0.3,0.3-0.5,0.4c-0.8-0.2-1.4,0.1-2,0.5
		c-0.7,0.4-1.4,0.7-2.2,0.3c0,0,0,0,0,0c0.4-1.4,0.7-2.8,0.1-4.3c-0.2-0.5-0.5-1.2,0.2-1.5c0.4-0.2,0.9-0.2,1.3-0.1
		c0.8,0.3,0.3,1,0.2,1.5c-0.1,0.5-0.1,1,0.8,1.6c0-1.8,0.7-3.5-1.2-4.8c-0.6-0.4-0.8-1.3-1.2-2c-0.2-0.4-0.6-0.9-0.9-1
		c-2.6,0-2.8-2.7-4.3-3.9C67.2,22.2,66.9,22,66.6,21.7z"/>
	<path class="st55" d="M69.7,15.1c-0.3,0.1-0.6,0.3-0.9,0.4c0-0.6,0-1.2,0-1.8C69.7,13.8,69.7,14.4,69.7,15.1z"/>
	<path class="st97" d="M75.6,47.1c0.5-1-0.1-1.7-0.9-2.2c1.7-0.3,2.7,0.5,3.1,2.3c0.3,1,0,2,0.1,3c0.3,1.8-1.8,3-1.4,4.9
		c0.1,0.3-0.6,0.5-1.1,0.3c-1-0.5-2-0.4-3-0.4c-0.3,0-0.6-0.1-0.8-0.4c1.6-1.5,3.1-3.1,3.2-5.5c0-0.4,0.2-0.7,0.6-0.8
		C76.2,48,76.2,48,75.6,47.1z"/>
	<path class="st98" d="M71.5,54.6c0.3,0,0.6,0,0.9,0c0.9,0.4,2.5-0.5,2.6,1.4c-0.1,0.2-0.2,0.4-0.4,0.5c-0.7,0-1.4-0.1-2.1,0.3
		c-0.6,0.4-1.2-0.2-1.7,0c-1.1,0.9-1,3.3-3.4,2.4c-0.1-0.9-1-0.1-1.3-0.6c0-0.1,0-0.2,0-0.4c0.6-0.5,0.2-1.3,0.6-1.8
		c0.2-0.2-0.1-1.9,0.9-0.4c0.4,0.5,0.5-0.4,0.8-0.6C69.4,54.6,70.2,53.7,71.5,54.6z"/>
	<path class="st97" d="M72.9,46.2c0.8-0.2,1.3,0.4,1.8,0.9c-0.3,0.5-0.7,1.4-1.4,1.1C72.5,47.8,73,46.8,72.9,46.2z"/>
	<path class="st82" d="M64.8,77.7c0-0.9-1.5-1.1-0.9-2.2c0.6-0.6,1.3-1.3,0.4-2.2c0.7-0.6,1.9-0.9,1.7-2.3c-0.6,0.2-1.1,0.4-1.7,0.6
		c-0.3-0.3-0.2-0.6,0-0.9c1.3-0.5,1.6-1.7,2.2-2.7c0.5-0.2,0.8,0,1.1,0.3c1.4,1.1,1.3,2.4,0.5,3.8c-0.3,0.3-0.6,0.5-0.9,0.7
		c-0.6,0.7-0.8,1.4-0.1,2.2c0.2,0.3,0.3,0.7,0.2,1.1c-0.1,0.2-0.2,0.3-0.4,0.5C66.3,76.9,66,78.1,64.8,77.7z"/>
	<path class="st99" d="M67.5,68.4c-0.3-0.2-0.6-0.3-0.9-0.5c-0.9-1-1.5-2.2-1.8-3.6c-0.2-1.7-0.2-1.7,0.8-1.7
		c0.6,0.2,0.3-0.3,0.5-0.5c0.2-0.4,0.3-1,0.9-0.9c1,0.2,1,1.1,1.2,1.9c0.1,1.4,0.7,2.7,1,4c0.1,0.2,0.1,0.4,0.1,0.6
		C68.9,68.9,68,68.3,67.5,68.4z"/>
	<path class="st67" d="M67.5,63.4c0-0.7-0.1-1.3-0.6-1.8c-0.3,0.3-0.5,0.7-0.8,1C66,62.8,66,63,65.7,63c-1.9-0.6,0.4,1.5-0.9,1.3
		c-1-0.9-1.2-1.8,0.2-2.5c0.1-0.1,0.3-0.3,0.3-0.3c-0.9-1.3,0.3-2.1,0.9-3c0.4,0.2,1.5-1.3,1.3,0.5c0.2,0.3,0.4,0.5,0.6,0.8
		c0.3,0.7,0.7,1.5,0.8,2.3C69,63,68.9,64,67.5,63.4z"/>
	<path class="st40" d="M64.4,70.6c0,0.3,0,0.6,0,0.9c-0.9,0-0.9-0.7-0.9-1.3C63.8,70.1,64.2,70.2,64.4,70.6z"/>
	<path class="st52" d="M73.3,91.4c-0.2,0-0.3,0-0.5,0c0,0,0,0,0,0c-0.4-0.5-0.3-1-0.1-1.6c0.4-1.6,1.7-2.6,2.2-4.2
		c0.2-0.4,0.9,0.4,0.9-0.6c0.1-0.8-0.2-2.2,1.2-2.5c1.3,0,1.1-1.4,1.7-2c1-0.3,1.3,0.4,1.7,1c0,0,0,0,0,0c-0.1,0.5-0.2,0.8-0.8,0.9
		c-1.1,0.1-1.2,0.8-0.4,1.2c1.1,0.5-0.6,1.7,0.7,1.9c-0.3,1.1-0.2,1-1.2,0.7c-0.8-0.3-1,0.3-0.8,1c0.3,0.9,0.5,1.8-0.5,2.6
		c-0.6-0.4,0-1.4-1-1.5c-0.7,0-0.6,0.7-0.8,1.2C75.2,90.7,73.8,90.3,73.3,91.4z"/>
	<path class="st50" d="M81.9,89.2c-0.2-0.2-0.3-0.4-0.4-0.6c0-0.3,0.1-0.6,0.5-0.5c0.1,0,0.2,0.3,0.2,0.5
		C82.2,88.8,82,88.9,81.9,89.2z"/>
	<path class="st69" d="M80.5,81.7c-0.6-0.3-1.2-0.6-1.8-0.9c-0.5-0.8-0.4-1.3,0.5-1.6c1,0.1,1.3,1.2,2.1,1.6c0,0,0,0,0,0
		C81.1,81.1,80.8,81.4,80.5,81.7z"/>
	<path class="st100" d="M88.6,31.5c-1.7-0.7-3.6-1.2-3.8-3.5c-0.1-0.6-0.3-1.2,0.4-1.5c0.6-0.3,0.9,0.1,1.2,0.7
		c0.1,0.3,0.2,0.8,0.7,0.3c0.2-0.2,0.2-0.5,0.3-0.8c1.1-0.5,1.8-0.2,1.8,1.1c0,0.9-0.2,1.9,0.9,2.4C90.8,31.9,89.4,31.4,88.6,31.5z"
		/>
	<path class="st101" d="M87.7,24c0-1,0-2.1,0-3.2c1.3,1.3,1.2,3.9,3.9,3.6c-1.5,2.3-1.5,2.3-2.8,0.4C88.5,24.5,88,24.3,87.7,24
		L87.7,24z"/>
	<path class="st102" d="M64.8,77.7c0.4-0.3,1.2-0.3,1.2-1.1c0.1-1.1,0.7-0.2,1-0.2c0.9,0.6,1.5,1.4,1.4,2.5c0,0.3-0.1,0.6-0.2,0.9
		c-0.2,0.5-0.5,1-0.5,1.7c0,0.2,0.1,0.4,0.1,0.6c0.1,0.6,0.3,1.3,0.5,1.9c0.4,1-1,1.4-0.9,2.3c-0.2,0.1-0.4,0.1-0.6,0.1
		c-1.2,0.1-1.4-1.6-2.6-1.5c-0.3,0-0.6,0-0.9,0c0.1-0.7,2.3-1.1,0.2-2.1c-0.4-0.2-0.5-1,0.4-1.3c2-0.7,1.9-1.9,0.7-3.3
		C64.8,78,64.8,77.8,64.8,77.7z"/>
	<path class="st25" d="M64.4,84.8c1.4-0.5,1.7,1,2.7,1.3c0.4,1,0.4,1.9-0.9,2.2c0,0,0,0,0,0C66.3,86.8,64.5,86.2,64.4,84.8z"/>
	<path class="st47" d="M61.3,91.5c0-0.2,0-0.4,0-0.6c1-0.4,1-2,2.6-1.8C63.3,90.4,63.1,91.8,61.3,91.5z"/>
	<path class="st37" d="M72.9,84.8c-0.4,0.1-0.9,0.3-1.3,0.4c-0.5-0.6-1.1-1.1-1.6-1.6c-0.2-0.3-0.4-0.7-0.4-1.1
		c-0.1-0.4,0.1-0.8,0.4-1c0.2-0.2,0.5-0.4,0.4-0.8c-0.2-0.3-0.6-0.3-0.9-0.5c-0.5-0.3-1.1-0.4-1.1-1.2c0.4-1.5,1.1-2.8,3-2.8
		c1.4,0.5,2.6,1.2,2.4,3c-0.3,1-1.2,1.8-0.6,3C73,83.1,73.5,84,72.9,84.8z"/>
	<path class="st24" d="M72.9,84.8c-0.1-0.9-0.7-1.8,0-2.7c-0.5-0.7,0-1.2,0.2-1.8c0.8-0.9,1.4-0.4,2,0.2c0.4,0.5,1.3,1,0.2,1.7
		c-0.1,0.1,0.7,0.2,0.9,0.7c0.2,1.1-1.2,1.6-1,2.8c0.6,2-1.8,2.7-1.8,4.4c-0.4,0.3-0.9,0.4-1.3,0c0,0,0,0,0,0
		c0.3-1.1-0.3-2.5,0.7-3.4C71,85.9,73.2,85.4,72.9,84.8z"/>
	<path class="st103" d="M66.2,88.3c0.6-0.6,0.7-1.4,0.9-2.2c0.1,0,0.3,0,0.4,0c0.3-0.8,0.7-1.4,1.7-0.7c0.1,0.1,0.1,0.2,0.2,0.2
		c-0.2,0.2-0.4,0.4-0.5,0.7C72,87.7,69,89.4,69,91c0,0.6-0.6,1.5-1.5,1.8c0-0.7-0.2-1.6,0.1-2.2C68.3,89,67.4,88.7,66.2,88.3z"/>
	<path class="st103" d="M70.2,83.5c1.2,0,1.5,0.7,1.3,1.8c-0.8,0-1.5,0-2.2,0.5c0,0,0,0,0,0C68.1,84.4,68.5,83.7,70.2,83.5z"/>
	<path class="st32" d="M94,61.3c-0.2,0.2-0.6,0.4-0.6,0.5c0,2.2-1.5,2.8-3.4,3c-0.5,0.1-0.7,0.6-1.2,0.7c-0.4,0-0.8-0.1-1.2-0.2
		c-1.3-1.1-1.2-2.1-0.2-3.3c-0.8,0.5-1.8,1.5-2.2-0.4c0.2-1.1-0.7-1.3-1.4-1.6c-0.8-0.4-1.8-0.4-2.1-1.4c1-0.7,1.4-1.8,1.7-3
		c0.2-0.9,0.4-2.2,2-1.4c0.6,0,0.9-0.3,1-1.2c0.6,1.1,0.3,1.8-0.1,2.5c-0.3,0.5-0.5,0.9,0.3,1.3c0.5,0.3,1.3,1,0.9,1.8
		c-0.5,0.9-1-1-1.6,0c0.3,2.2,2.9,2.3,3.9,3.9c0.8-0.7,2.3-0.3,2.8-1.4c0.2-0.5,0.4-0.9,0.9-1.2C94,60.3,94.2,60.7,94,61.3z"/>
	<path class="st104" d="M85.5,54.2c-2.4,0.7-1.6,2.6-1.9,4.3c-0.3,0.2-1.2-0.8-1.7,0.1c0.3,0.5,1,1,0.8,1.7
		c-0.3,1.1,0.7,1.2,1.2,1.6c0.3,0.7,0.4,1.4,0.4,2.1c0,0.2-0.1,0.4-0.2,0.6c-1.2,1-1.7-0.5-2.5-0.7c-0.3-0.1-0.5-0.3-0.8-0.5
		c-2.1-1.5-2.1-1.5-0.6-3.4c0.4-0.6,0.4-1.1,0.1-1.6c-0.8-1.3-0.8-2.2,1.2-2.3c-0.9,0-1.5,0.1-1.7-0.8c0.2-0.6,0.5-1.1,0.6-1.7
		c0.2-0.7,0.6-1.1,1.3-1.3c0.2,0,0.4,0,0.6,0.1c0.6,1,1.7,0.8,2.6,1.1c0.2,0.1,0.3,0.2,0.5,0.4C85.5,53.9,85.5,54,85.5,54.2z"/>
	<path class="st105" d="M85.5,53.7c-0.1,0-0.3,0-0.4,0c-0.1-0.2-0.3-0.3-0.3-0.5c0.1-2,0.2-4,0.3-6c0.1-1,0.2-2,1.7-1.5
		c-0.8,1.2,0.4,1.3,0.9,1.8C87.1,49.6,86.5,51.8,85.5,53.7z"/>
	<path class="st80" d="M94,61.3c-0.2-0.4-0.3-0.9-0.5-1.3c0.2-0.1,0.3-0.3,0.5-0.4c0.6,0.2,1.3,0.5,1-0.6c-0.2-0.9-0.2-1.6,0.8-2.1
		c0.1,0.4,0.1,0.9,0.6,0.8c1.7-0.2,1.2,0.6,0.8,1.4c-0.6,0.4-1.5,0.5-1.8,1.3C94.9,60.7,94.4,61,94,61.3z"/>
	<path class="st58" d="M82.3,24.4c0.1,1.1,1.3,2.1,0.1,3.4c-0.4,0.5,0.3,1.1,0.7,1.7c0.8,1,2.2,1.3,2.8,2.5c0.5,1-1.5,2.3,0.4,3.1
		c1.1,1.3-1.4,1.2-0.9,2.2c-0.1,0.1-0.1,0.1-0.2,0.2c-0.2,0-0.4-0.1-0.5-0.2c-0.5-0.4-1.2-0.4-1.8-0.7c-0.6-0.5-0.4-1.1-0.3-1.6
		c0.3-1.9-1.8-2.5-2.4-3.9c-0.3-0.3-0.6-0.6-0.7-1c1.6-1.1,2.1-2.4,1-4.1c0,0,0.1-0.1,0.1-0.2c0.1-0.1,0.2-0.1,0.4,0
		C81.4,25.3,81.9,24.9,82.3,24.4z"/>
	<path class="st106" d="M85,37.3c0.1,0,0.3,0,0.4,0c0.3,0.6,0.7,1,1.3,1.3c-0.6,1.4,0,2.7,0.5,4c-0.3,0-0.6,0-1,0
		c-2.1,0.2-1.6-1.7-2.1-2.7C84.1,38.9,84.2,38,85,37.3z"/>
	<path class="st58" d="M86.8,32.4c0.8,0.6,1.1-0.6,1.8-0.5c0.8,1.5-0.2,2.8-0.4,4c-1.4,0.2-0.2-2-1.8-1.4
		C85.7,33.7,85.8,33,86.8,32.4z"/>
	<path class="st107" d="M86.8,32.4c-0.4,0.7-0.5,1.4-0.4,2.2c0,0.1,0,0.3,0,0.4c-0.6-0.2-1.2-0.5-1.9-0.8c0.5-0.8,1-1.6,1.5-2.3
		C86.2,32.1,86.5,32.3,86.8,32.4z"/>
	<path class="st50" d="M90.2,32.2c0.2,1,0.4,1.8-0.5,2.7C89.3,33.8,89.5,33.1,90.2,32.2z"/>
	<path class="st108" d="M84.6,39.9c0.8,0.8,0.2,2.4,1.7,2.7c1.3,0.9,2.7,1.7,0.4,3.1c-1,0.1-1.4,0.8-1.3,1.7c0.3,2-0.1,3.9-0.5,5.9
		c-1.1,0.4-2.2,0.6-2.7-0.9l-0.2,0l-0.2,0c-0.5,0.3-0.8,0.2-1-0.3c0-2,0.1-3.9,2.4-4.7c0.3-0.1,0.6-0.4,0.4-0.7
		c-0.8-1.3-0.4-2.3,0.5-3.4c0.6-0.7,0-1.5-0.5-2.2c-0.3-0.4-1-0.5-0.8-1.1c0.1-0.6,0.7-0.6,1.2-0.5C84.2,39.7,84.4,39.8,84.6,39.9z"
		/>
	<path class="st109" d="M90.4,49.2c0,0.4-0.1,0.8-0.6,0.6c-0.5-0.2-0.8-0.5-0.6-1c0.1-0.4,0.3-0.7,0.8-0.6
		C90.6,48.2,90.3,48.8,90.4,49.2z"/>
	<path class="st80" d="M97.6,55.5c-0.1,1.1-1.6,0.3-1.8,1.3C95.7,55.4,96.6,55.5,97.6,55.5z"/>
	<path class="st80" d="M97.1,52.4c0,0.7,0,1.5,0,2.2C96.5,53.9,96.5,53.1,97.1,52.4z"/>
	<path class="st77" d="M84.2,64.4c-0.5-0.7-0.5-1.4-0.5-2.2c0.9-1.7,1.1-1.8,1.8-0.9c0.5,2.1,1.8-0.1,2.6,0.6c-0.8,1-1.7,2,0.1,3
		c0.7,0.8,0,1.8,0.6,2.6c-0.2,0.7,0.5,0.7,0.8,1c-0.7,0.9-1.4,1.8-0.1,2.8c0.6,0.5,0.1,1.1,0.1,1.6c-0.4-0.3-0.9-0.3-1.3,0
		c-0.2,0.1-0.4,0.2-0.5,0c-0.2-1.1-0.5-2.1-1.1-3c-0.2-0.1,0.2-1-0.5-0.3c-0.8,0.6-1.7,0.7-2.5,0.1c-0.7-1.6-0.4-3,1-4.1
		c0.7-0.6,1.1-1.2,0.5-2c-0.1-0.4-0.1-0.1-0.1-0.1c0.3,0.3,0.6,0.8,0.3,1.2C84.7,65.1,84.4,64.8,84.2,64.4z"/>
	<path class="st81" d="M89.5,68.4c-0.5-0.1-1,0.5-1.4,0.1c-0.4-0.5,0.4-0.6,0.5-0.9c-0.3-0.8-0.4-1.6,0.4-2.2
		c0.1-0.6,0.2-1.1,0.9-0.5c0.1,0.3,0.3,0.6,0.4,0.9c0,0-0.1,0.1-0.1,0.1l0.1-0.1c0.7,0.4,2-1,2,0.6c0,1-0.7,1.9-2.1,1.4
		C89.9,67.6,89.7,68,89.5,68.4z"/>
	<path class="st77" d="M91.8,71c-0.1,1.5-0.6,2.3-2.3,1.8C90.5,72.5,91.1,71.8,91.8,71z"/>
	<path class="st110" d="M87.7,72.8c0.2,0,0.3,0,0.5,0c0,1.3-2.1,1.9-0.9,4c-1.3-0.8-2.2-1.3-2.7,0c-2-1,0.1-2.1,0-3.1
		c-0.5-0.6-0.4-1.2,0.2-1.7c0.5-0.5,1.1-0.2,1.6,0.1C86.8,72.4,87.3,72.5,87.7,72.8z"/>
	<path class="st51" d="M72,90.1c0.4,0,0.9,0,1.3,0c-0.1,0.4-0.3,0.9-0.4,1.3C72.3,91.2,72,90.8,72,90.1z"/>
	<path class="st111" d="M84.1,40c-0.3,0.1-0.7,0.1-1,0.2c0.3,0.2,0.6,0.5,1,0.7c0.1,1.5,0,2.6-2,1.9c-2.3-1.1-3.8-3.2-5.6-4.8
		c-0.4-0.4-0.5-0.9-0.4-1.4c0.1-0.2,0.2-0.4,0.4-0.5c0-1.7,0-3.4,0-5c-1.3,0-0.8-1-0.9-1.6c0.1,0,0.3,0,0.4,0
		c0.5-0.3,0.7,0.2,0.9,0.5c0,0.1,0,0.3,0,0.4c0.6,1,0.2,2.4,1.1,3.3c0.1,0.2,0.1,0.4,0.1,0.6c0,0.4-0.2,0.9-0.1,1.3
		c0.1,0.7,0.2,1.6,1,1.9c0.8,0.3,0.9-0.9,1.5-1c0.2,0,0.4,0,0.6,0.2c0.5,0.7,0.5,1.5,0.8,2.3c0.3-0.6,0.6-1.3,1.4-1.2
		c0.8,0.1,0.8,0.9,1,1.5C84.3,39.4,84.4,39.7,84.1,40z"/>
	<path class="st106" d="M81,25.7c-0.1,0.8,1,1.2,0.9,2.1c-0.2,1.3-0.7,2.2-2.2,2.4c0.3,0.2,0.3,0.9,0.9,0.4c0.8,1.6,2.9,2.3,2.7,4.4
		c-1.9-0.3-3.4-1.3-4.8-2.4c0-0.1-0.1-0.2-0.1-0.3c0.4-0.9,0.2-1.9,0.1-2.8c-0.4-2.1,0.8-3.5,2.2-4.8C80.9,25.1,81,25.4,81,25.7z"/>
	<path class="st112" d="M77.8,33.7c-1.3-0.9-0.8-2.3-0.9-3.6c1.1,0.4,0.6,1.7,1.3,2.2v0C78.6,33,78.8,33.6,77.8,33.7z"/>
	<path class="st53" d="M76.9,29.7c-0.3-0.2-0.6-0.3-0.9-0.5c-0.1-0.4-0.3-0.9-0.4-1.3C77.1,27.8,77.5,28.4,76.9,29.7z"/>
	<path class="st106" d="M79.6,79.5c-0.9,0-0.9,0.7-0.9,1.3c0.5,1.3-0.1,1.9-1.4,2.2c-0.4-0.6-1.1-1.2-0.1-2c0.9-0.7,0.4-1.5-0.1-2.3
		c-0.6-0.9-1.9-1.4-1.8-2.7c1.7-0.7,2.3-2.5,3.7-3.5c0.4-0.3,0.6-0.8,1.3-0.7c0.2,0.1,0.3,0.2,0.4,0.5c0.4,1.5-0.3,2.9-0.3,4.4
		c0.1,0.1,0.1,0.1,0.2,0.2c0.4,0.8-1,1.3-0.4,2.2C80.2,79.4,80,79.6,79.6,79.5z"/>
	<path class="st106" d="M84.2,64.4c2,0.3-0.5-1.4,0.9-1.4c0.7,0.8,0.7,1.9-0.1,2.5c-1.5,1.2-1.3,2.6-1.3,4.2c1.8,1.2,0.6,2.6,0.4,4
		c-1.2,0.4-1.7,1.7-1.9,2.5c-0.3,1.5-1.1,0.6-1.7,0.6c0,0,0,0,0,0c-0.7-1,0.4-1.6,0.7-2.3c0.5-1,1-1.9,1.3-2.9
		c0.1-0.9,0.1-1.7,0.1-2.6c0-0.3,0-0.6,0-1C82.2,66.5,83.4,65.5,84.2,64.4L84.2,64.4z"/>
	<path class="st113" d="M84.1,73.7c-0.1-1.3,0.3-2.7-0.4-4c0.6-0.6,1.5,0,2.2-0.4c0.3,0.2,0.3,0.8,0.9,0.4c0.9,0.9,1.6,1.8,0.9,3.1
		c-0.5,0.2-1.1,0.8-1.6,0.2c-1.7-2.2-1.3-0.1-1.6,0.7C84.4,73.7,84.3,73.7,84.1,73.7z"/>
	<path class="st52" d="M79.6,79.5c0.2-0.2,0.3-0.3,0.5-0.5c0.8,0.3,1,1.1,1.3,1.8C80.5,80.8,80,80.2,79.6,79.5z"/>
	<path class="st114" d="M76.5,36c0,0.1,0,0.3,0,0.4c-0.5,0.8-0.1,1.2,0.5,1.8c2.1,1.9,2.1,2.4,0.5,4.7c0.5,0.2,1-0.2,1.4-0.1
		c0.2,0,0.4,0.1,0.6,0.2c0.9,0.5,0.7,1.2,0.2,1.8c-0.9,1.3-1.4,2.6-1.2,4.1c0.1,0.8-0.4,1.4-1.2,1.7c-0.8-0.8,0.2-1.6,0-2.5
		c-0.3-1.7-0.7-3.1-2.7-3.3c-0.8-0.6-0.4-1.2,0.1-1.7c1.1-1,0.7-2.1-0.2-2.6c-1-0.6-1.1-1.5-1.3-2.4C74.5,37.5,74.6,35.6,76.5,36
		L76.5,36z"/>
	<path class="st96" d="M76.5,35.9c-1.2,0.5-1.7,2-3.1,2.2c0.7-1.1-0.8-0.8-0.9-1.3c1.2,0.1,2-0.8,2.9-1.3C76,35.1,76.4,35,76.5,35.9
		z"/>
	<path class="st70" d="M64.3,73.2c2.4,1.2,0.8,1.7-0.4,2.2C63.8,74.7,63.9,73.9,64.3,73.2z"/>
	<path class="st90" d="M69.6,23.1c0.1,0.1,0.4,0.2,0.4,0.4c0.1,0.3-0.2,0.4-0.4,0.3c-0.2-0.1-0.3-0.3-0.4-0.5
		C69.3,23.3,69.4,23.2,69.6,23.1z"/>
	<path class="st64" d="M77.4,50.6c0.4-0.7,0.9-1.2,0.6-2.2c-0.4-1.4,0.3-2.8,1.3-3.8c0.6-0.7,0.6-1.1-0.1-1.6
		c-0.8,0.3-1.7,0.3-2.3,1.2c0.1-1.2,0.2-1.1,1.2-2.9c0.7-1.2-0.5-2-1.1-2.8c-0.6-0.7-1.4-1.2-0.5-2.1c0.9,2.3,2.9,3.5,4.6,5.1
		c0.4,0.4,1.1,0.5,1.3,1.1c0.2,0.2,0.5,0.4,0.6,0.7c0.1,0.1-1.3,5.4-1.4,5.4c-2.2,1.1-3,2.9-2.7,5.2c0.1,0.4,0,0.9,0,1.3
		c0,0.9-0.2,1.8-1,2.3c-1,0.6-1.6,1.7-2.7,2.3C74,60.5,73,60,72.3,59.3c-0.8-0.7,0.1-1.1,0.5-1.6c0.2-0.1,0.3-0.2,0.5-0.3
		c0.5-0.2,1-0.6,1.4-1c0.2-1.8-1.5-1.1-2.2-1.8c0.4-0.5,0.8-0.2,1.2-0.1c1.7,0.3,1.6,0.2,2.2-1.3C76.2,52.3,77.5,51.9,77.4,50.6z"/>
	<path class="st115" d="M73.3,57.7c-0.2,0.5-0.6,0.8-1,1c1.9,1.8,3.2,0.7,4.2-0.9c0.2-0.4,0.5-0.5,0.9-0.5c1.1,2.6,1,3-1.2,4.6
		c-0.6,0.2-1.4,0-1.8,0.7c-0.1,0.1-0.3,0.2-0.5,0.4c-0.3,0.2-0.5,0.3-0.8,0.3c-0.7-0.3-1.3-0.5-1.9-1c-0.3-0.3-0.5-0.7-0.6-1.1
		c-0.1-1.7-0.5-3.4,0-5.1c0.4-0.5,0.7-0.4,0.9,0.1c0.2,0.7,0.6,0.4,0.9,0.3C72.9,56.7,73.2,57.2,73.3,57.7z"/>
	<path class="st116" d="M70.6,55.9c0.5,1.7,0.5,3.5,0.4,5.3c-0.5,0.3-1,0-1.5-0.2c-0.7-0.5-1.3-0.9-2.1-1.2c0-0.3,0-0.6,0-0.8
		C69.7,59.2,69.5,56.9,70.6,55.9z"/>
	<path class="st117" d="M73.3,57.7c-0.9,0-0.9-0.7-0.9-1.3c0.6,0.1,1.2-1.8,1.8,0C74.9,57.5,73.7,57.3,73.3,57.7L73.3,57.7z"/>
	<path class="st115" d="M73.3,57.7c0.3-0.5,1-0.6,0.9-1.3c0.1,0,0.3,0,0.4,0C74.8,57.4,74.3,57.8,73.3,57.7z"/>
	<path class="st118" d="M71.1,76.4c-1.3,0.5-1.8,1.8-2.7,2.7c-0.1,0.2-0.3,0.2-0.4,0c0.8-1.3-1.4-1.5-0.9-2.7c0,0,0,0,0,0
		c0.3-0.3,0.8-0.3,0.9-0.8c0-1,0.9-2.1-0.1-3.1c-0.1-0.2-0.1-0.4,0.1-0.5c0.5-1.3,0.4-2.4-0.5-3.5c0.3-0.8,1.1,0.1,1.4-0.5
		c1.1,0.1,1.1,1.2,1.6,1.8c0.3,1.1,0.9,2,1.2,3c0.3,0.9,0.6,2.1-1.1,2.1c-0.2,0,0.5,0.6,0.6,1C71.3,76,71.2,76.2,71.1,76.4z"/>
	<path class="st102" d="M68.4,75.9c0,1.2-0.9,0.3-1.3,0.5c0-0.5,0-0.9,0-1.4c-0.6-0.9-0.5-1.7,0-2.6c0.2-0.4,0.5-0.5,0.9-0.5
		c0,0.2,0,0.3,0,0.5C69.1,73.4,67.4,74.8,68.4,75.9z"/>
	<path class="st93" d="M67,72.4c0,0.9,0,1.7,0,2.6C65.8,74.6,65.8,73.9,67,72.4z"/>
	<path class="st118" d="M67.5,59.9c1.2-0.7,1.8,0.1,2.3,1c0.4,0.5,0.4,1,0.3,1.6c-0.1,0.6-0.2,1.1-0.2,1.7c-0.1,1.2,0.1,2.5-1.1,3.3
		c-1-1.2-1-2.7-1.3-4c0.9-0.1,1.2-0.5,0.9-1.3C68.1,61.4,67.8,60.6,67.5,59.9z"/>
	<path class="st119" d="M68.8,67.5c0.4-1.2,0.5-2.4,0.5-3.6c0.8,0.3,2.5-1.7,2.6,0.9c0.1,0.8-1,1.4-0.4,2.3c0,1.1,0.2,2.2-1.3,2.6
		c-0.9-0.3-0.7-1.3-1.3-1.8C68.9,67.8,68.8,67.6,68.8,67.5z"/>
	<path class="st118" d="M65.7,63c0.2-0.1,0.3-0.3,0.5-0.4c0.1,0.4,0.7,0.8,0.1,1.1C65.8,63.9,65.7,63.4,65.7,63z"/>
	<path class="st104" d="M77.4,78.6c1.5,0.5,0.7,1.7,0.8,2.6c-1.6,0-0.4,1.3-0.8,1.9c-1.7,0.3-0.5,1.8-1.2,2.7c-0.7,0.9-0.7,0-1.1,0
		c-0.7-0.7-1.7-1.5,0.3-1.8c0.2,0,0.4-0.6,0.5-0.9c-0.6-1.7-0.3-3.1,1-4.3C77.2,78.6,77.3,78.6,77.4,78.6z"/>
	<path class="st25" d="M70.2,83.5c-0.9,0.5-1.6,1.1-0.9,2.2c-0.7-0.2-1.3-0.2-1.8,0.4c0.1-0.6-1.4-1.8,0.6-1.6
		c-0.1-0.2-0.1-0.4-0.2-0.6c0.4-0.6-0.6-1.2-0.1-1.9c0.3-0.2,0.5-0.3,0.9-0.2c0.5,0,0.7,0.4,0.9,0.7C70.1,82.7,70.2,83.1,70.2,83.5z
		"/>
	<path class="st90" d="M68.9,82.1c-0.3,0-0.7,0-1,0c-0.3,0-0.3-0.3-0.5-0.4l0,0c-0.1-0.7,0.2-1.2,0.5-1.8c0-0.3,0-0.6,0-0.9
		c0.1,0,0.3,0,0.4,0c0.5,0.3,1,0.6,1.5,0.9C70.5,81.1,69.5,81.5,68.9,82.1z"/>
	<path class="st103" d="M67.5,81.7c0.2,0.1,0.3,0.3,0.5,0.4c-0.3,0.6,1.4,1.2,0,1.8C67.5,83.2,67.5,82.5,67.5,81.7z"/>
	<path class="st103" d="M67.9,79.9c0.1,0.7-0.1,1.3-0.5,1.8C66.7,80.9,67.5,80.4,67.9,79.9z"/>
	<path class="st104" d="M71.1,76.4c0-0.1,0-0.3-0.1-0.4c0.5-1,0.5-2.4,2-2.6c0.9-0.4,1.5-1.3,2.6-1.1c0.4,0.2,0.6,0.5,0.7,0.9
		c0.4,1.1-0.8,1.8-0.7,2.8c0.1,1.2,1.7,1.5,1.8,2.7c0,0,0,0,0,0c-0.2,0.1-0.5,0.2-0.5,0.3c-0.8,1.7-1.8,1.9-3.2,0.7
		c-0.1-0.1-0.2-0.1-0.3-0.2C73.6,77.7,72,77.3,71.1,76.4z"/>
	<path class="st103" d="M73.4,80.4c-0.2,0.6-0.3,1.2-0.5,1.8c-0.9-0.8-0.8-1.4,0.5-2.7c0,0,0,0,0,0C73.6,79.8,73.6,80.1,73.4,80.4z"
		/>
	<path class="st104" d="M68.9,82.1c0-0.9,1.1-1.3,0.9-2.2c0.3,0.1,0.5,0.3,0.8,0.4c0.2,0.6-0.1,1-0.5,1.3c-0.2,0.3-0.3,0.6-0.5,0.8
		C69.4,82.4,69.2,82.2,68.9,82.1z"/>
	<path class="st103" d="M70.2,81.7c0.2-0.4,0.3-0.9,0.5-1.3C71.4,81.1,71.1,81.5,70.2,81.7z"/>
	<path class="st120" d="M73.4,80.4c0-0.3,0-0.6,0-0.9c1.6,1,2.7-0.5,4-0.9C76.7,80,75.8,81.3,76,83c-0.2-0.1-0.4-0.2-0.6-0.1
		c-0.4,0.1-0.8,0.8-1.2,0c-0.2-0.4-0.6-0.8-0.3-1.2c0.4-0.5,0.9,0.3,1.6-0.1C74.7,81.3,74.6,80,73.4,80.4z"/>
	<path class="st25" d="M67.6,87.1c1.3,0,1.5,0.6,1.5,1.6C68.3,88.4,67.9,88,67.6,87.1z"/>
	<path class="st121" d="M85.5,61.3c-1.2-1-0.8,1.3-1.8,0.9c-1.4,0.1-1.4,0-1.4-1.6c0-0.6-0.3-1.3-0.4-1.9c1.1,0.4,2.2,1,3.4,1.3
		C86.7,60.2,85.9,60.7,85.5,61.3z"/>
	<path class="st50" d="M89,65.2c-0.4,0.7,0.2,1.6-0.4,2.2c-1.9-0.6,0-1.8-0.4-2.7C88.5,65,88.7,65.1,89,65.2z"/>
	<path class="st116" d="M83.2,67.9c0,0.3,0,0.6,0,0.9c-0.2,1.4-0.1,3.1-2.4,2.9c-1.3-0.1-2.3-0.8-3.6-1.1c-1.3-0.2-1.6-2.9-0.7-4.2
		c0.3-0.4,0.6-0.7,1-0.9c1.5-0.9,1.4-1.7-0.1-2.5c-0.2-0.1-0.3-0.3-0.4-0.5c0.5-2,0.5-4.1,1.6-5.9c1.7,0.8,0.7,2.1,0.6,3.2
		c-0.3,1.8,0.1,3,2.1,3.2c0.2,0.1,0.3,0.3,0.5,0.4c0.8,0.8,0.6,1.8,0.4,2.7C82,67.2,82.6,67.5,83.2,67.9z"/>
	<path class="st87" d="M81.4,63.1c-2,0.1-2.7-0.8-2.8-2.7c-0.1-1.2,1-2.3,0.1-3.5c-0.4-0.4-0.2-0.9-0.2-1.4c0-0.2,0.1-0.4,0.1-0.6
		c0.2-0.3,0.6-0.5,1-0.5c0.3,0.1,0.5,0.3,0.4,0.6c0.1,0.4,0.3,0.6,0.8,0.7c0.5,0,0.8-1.6,1.3-0.2c0.3,1-0.4,1.4-1.5,1.3
		c-0.1,0-0.3,0-0.6,0c0.7,1.5,2.4,2.9-0.4,4.3C78.8,61.6,80.8,62.4,81.4,63.1z"/>
	<path class="st122" d="M83.2,67.9c-1.3,0.4-2.2,0.4-1.6-1.4c0.3-0.9,0.2-2,0.2-3c1-0.2,1,1.7,2.2,0.9
		C84.5,65.7,82.4,66.5,83.2,67.9z"/>
	<path class="st72" d="M81,51.9c0.2,0.4,0.5,0.4,0.9,0.5c-0.3,0.4-1,0.6-0.9,1.3c-0.3,0.3-0.5,0.3-0.9,0.1c-0.2-0.1-0.3-0.3-0.4-0.5
		c-0.1-0.2-0.1-0.4-0.1-0.6c0.1-0.6,0.3-1,1-1C80.8,51.8,80.9,51.9,81,51.9z"/>
	<path class="st72" d="M82.3,52.4c0.7,1,1.7,0.9,2.7,0.9c0,0.1,0,0.3,0,0.4C84,53.4,82.4,54.5,82.3,52.4z"/>
	<path class="st121" d="M80,53.7c0.3,0,0.6,0,0.9,0.1c0,0.6,0,1.3-0.9,1.3c-0.1-0.1-0.3-0.3-0.4-0.4C79.3,54.1,79.4,53.8,80,53.7z"
		/>
	<path class="st89" d="M77.8,33.7c0.5-0.3,0.4-0.9,0.4-1.3c1.8,0.7,3.4,1.6,4.9,2.7c-0.1,0.4-0.7,0.9,0,1.3c0.5,0.4,1.5,0.1,1.8,0.9
		c0,0,0,0,0,0c-0.1,0.9-0.3,1.8-0.4,2.6c-0.2,0-0.3,0-0.5,0c0-0.3,0-0.6,0-0.9c-0.3-1.2-2.2-2.9-3.1-2.7c-0.1,0-0.3,0-0.4,0
		c-1.4-0.2-2.5-0.6-2.7-2.2C77.8,34,77.8,33.9,77.8,33.7z"/>
	<path class="st77" d="M80.5,30.6c-0.1,0.4-0.1,1.1-0.6,0.9c-0.6-0.2-0.2-0.9-0.3-1.4C79.9,30.3,80.2,30.5,80.5,30.6z"/>
	<path class="st106" d="M85,37.3c-0.6-0.3-1.2-0.6-1.8-0.9C83.9,36.5,84.9,36.1,85,37.3z"/>
	<path class="st123" d="M80.1,52.8c0,0.1,0,0.3,0,0.4c-0.7,0.4-0.8,1.2-1.3,1.8l0,0c-0.2,0.2-0.3,0.2-0.5,0c-0.2-1.1,0.1-2.2,0-3.4
		c-0.2-1.4,1.3-2.6,2.7-3.3c0.8-0.4,1.5-0.4,0.1-1.2c-1-0.5,0.2-1.6,0.6-1.8c1.2-0.8,1-1.8,0.7-2.9c0.6-0.3,2,0,1.1-1.4
		c0.2-0.1,0.5-0.3,0.7-0.4c0.6,1.3,1.9,2.4-0.2,3.8c-1.2,0.8,0.7,1.9,0.9,3.2c-3.2-0.4-3.1,2.2-3.8,4.1c0,0,0,0,0,0
		c-0.2-0.2-0.4-0.4-0.7-0.2C79.8,52,79.7,52.4,80.1,52.8z"/>
	<path class="st124" d="M86.8,69.7c-0.5,0.3-0.9,0.3-0.9-0.4c0.1-0.5-0.1-1.4,0.8-1.2C87.7,68.4,86.6,69.1,86.8,69.7z"/>
	<path class="st50" d="M90.4,65.7c-0.1,0.4,0.2,0.9-0.4,1.1c-0.1,0-0.3-0.1-0.3-0.2C89.6,66.1,90,65.9,90.4,65.7
		C90.4,65.7,90.4,65.7,90.4,65.7z"/>
	<path class="st105" d="M81,36.4c0.5-0.3,0.3-0.7,0.2-1.1c-0.1-0.3,0.1-0.6,0.5-0.5c0.2,0,0.5,0.2,0.5,0.3c0.1,1.4,0.7,2.2,2,2.7
		c0.5,0.2-0.1,0.9,0,1.4c-0.6-0.2-0.3-1.3-1.1-1.1c-0.8,0.2-0.5,1.1-0.9,1.6C81,38.8,80.9,37.6,81,36.4z"/>
	<path class="st112" d="M77.8,34.2c0.9,0.7,1.8,1.5,2.7,2.2c-0.7,0.4,0,2.2-1.3,1.7C77.5,37.4,77,35.9,77.8,34.2z"/>
	<path class="st125" d="M77.4,63c1.3-0.6,1.8,0.6,2.2,1.3c0.5,0.8-0.8,0.8-1.1,1.2c-0.8,0.9-2.3,1.3-2,2.8c0.2,0.9-0.3,2.4,1.7,1.9
		c0.7-0.1,1.5,0.8,2.3,1.2c0.1,0.1,0.1,0.2,0.1,0.3c0,0.1-0.1,0.1-0.1,0.1c-1,0.9-2.2,1.7-2.8,2.9c-0.5,1-1.3,1-2.1,1.1
		c-0.1-0.4-1.6-0.7-0.6-0.9c1.4-0.3,0.3-1.5,1.1-1.7c0.9-0.8,1.1-1.5,0-2.3c-0.7-0.5-0.9-1.3-1.2-2.1c-0.4-0.8,0.1-1.9-0.7-2.6
		c-0.3-0.3-0.5-0.6-0.5-1c0.2-0.9,0-1.8,0.2-2.6l0-0.1c0.8-0.4,1.2,0.1,1.5,0.7c0.2,0.2,0,1.3,0.8,0.4c0.3-0.2,0.6-0.5,1-0.6
		C77.2,63,77.3,63,77.4,63z"/>
	<path class="st113" d="M83.2,71.9c-0.9,1.6-1.8,3.3-2.7,4.9c-0.4-0.2-1.4,0.4-1.1-0.2c0.8-1.4,0.7-2.8,1.1-4.3c0,0,0.2,0,0.2,0
		c0.5-0.1,0.2-0.7,0.6-0.9C82.1,71,82.6,71.5,83.2,71.9z"/>
	<path class="st122" d="M83.2,71.9c-0.6,0.1-1.2-0.8-1.8,0c-0.2,0.2-0.4,0.7-0.9,0.4c0,0,0,0,0,0c0-0.1,0-0.3,0-0.4
		c0-0.1,0-0.3,0-0.4c1.6-0.2,2.4-1.2,2.7-2.7C83.2,69.8,83.2,70.9,83.2,71.9z"/>
	<path class="st108" d="M78.3,55.1c0.2,0,0.3,0,0.5,0c0,0.6,0,1.2,0,1.8c-0.3,2.1-1.3,4.1-1.4,6.2c0,0,0,0,0,0
		c-1,0.1-1.3-0.5-1.3-1.3c1.8-1.1,1.4-2.8,1.3-4.4C78.4,56.8,78.3,55.9,78.3,55.1z"/>
	<path class="st114" d="M79.2,43.1c0.1-0.5,0-1.1,0.8-1c0.1,0,0.3,0.2,0.3,0.3C80.2,43,79.6,43,79.2,43.1
		C79.2,43.1,79.2,43.1,79.2,43.1z"/>
	<path class="st112" d="M73.8,65.3c0.2,0.3,0.3,0.6,0.5,0.9c0,0.1,0,0.2,0,0.3c-0.2,0.7-0.8,1.1-1.1,1.7c-0.2,0.3-0.2,0.7-0.3,1
		c-0.1,0.6-0.2,1.2,0.8,1.1c0.4,1.3,0,2.6-0.3,3.8c-0.4,0-0.9-0.8-1.1,0.2c-0.1,0.8-0.8,1.1-1.2,1.7c-1.1-0.5-1.7-1.4-1.7-2.6
		c0.5-0.2,0.6,0.3,0.8,0.5c0.3,0.3,0.6,0.8,1.1,0.5c0.6-0.3,0.4-0.9,0.2-1.4c-0.5-1.1-1.4-1.9-1.2-3.2c0.8-0.9,0.9-2,0.9-3.1
		c1.1-0.3,0.9-1,0.5-1.8c-0.2-0.2,0.2-1.3-0.4-0.7c-0.9,0.8-1.2,0-1.8-0.2c0-0.5-0.2-1,0.4-1.3c0.6-0.4,1.3,0,1.8-0.5
		c0.6,0.3,1.4,0.2,1.7,0.9C74,63.7,73.7,64.5,73.8,65.3z"/>
	<path class="st112" d="M76,61.7c0.4,0.4,0.9,0.9,1.3,1.3c-0.2,0.4-0.5,0.7-0.9,0.9c-0.4-0.1-0.9-0.3-1.3-0.4
		c-0.5-0.3-0.7-1-1.3-0.9C74.3,61.8,74.9,61.1,76,61.7z"/>
	<path class="st126" d="M71.6,62.1c-0.3,1.3-1.2,0.5-1.8,0.5c0-0.6,0-1.2,0.1-1.7c0.4,0.1,0.9,0.3,1.3,0.4
		C71.2,61.6,71.4,61.8,71.6,62.1z"/>
	<path class="st107" d="M73.8,65.3c-0.8-0.6-0.4-1.5-0.5-2.2c0.2-0.1,0.3-0.3,0.5-0.4C74.2,63.5,74.6,64.4,73.8,65.3z"/>
	<path class="st82" d="M68.4,75.9c-1.6-1,0.2-2.4-0.4-3.5c0.6-0.3,1-0.2,0.9,0.6C68.7,73.9,68.5,74.9,68.4,75.9z"/>
	<path class="st51" d="M71.5,64.8c1.2,0.1,1,1,0.8,1.6c-0.2,0.8-0.8,0.2-1.3,0.1C71.2,66,71.4,65.4,71.5,64.8z"/>
	<path class="st125" d="M73.3,74.1c-0.4-1.3,0-2.7,0-4c-0.1-0.2-0.1-0.5,0.1-0.6c0.3-0.2,0.7-0.2,1.1-0.2c1.1,0.7,1.8,1.7,1.1,3
		C74.5,72.6,73.9,73.3,73.3,74.1z"/>
	<path class="st32" d="M75.6,72.4c-0.2-1,0-2.2-1.3-2.7c-0.1-0.7,0.2-1,0.9-0.9c0.6,0.7,0.7,1.9,1.9,2.2c1,0.3,0.2,1.1,0.2,1.7
		c0,0.8-0.6,0.9-1.3,0.5C75.9,72.9,75.7,72.7,75.6,72.4z"/>
	<path class="st108" d="M78.7,55.1c0.1-0.8,0.3-1.6,1.3-1.8c0,0.1,0,0.3,0,0.4c-0.3,0.2-0.4,0.6-0.4,0.9
		C79.4,54.8,79,54.9,78.7,55.1z"/>
	<path class="st108" d="M80.1,52.8c-1-1,0.1-1.4,0.7-1.8c0.2-0.1,0.2,0.6,0.3,0.9C80.4,52,80.1,52.3,80.1,52.8z"/>
	<path class="st58" d="M75.1,68.8c-0.4,0.2-0.7,0.5-0.9,0.9c-0.3,0-0.6,0-0.9,0c-0.4-0.3-0.4-0.8-0.3-1.2c0.5-0.7,0.9-1.5,1.2-2.3
		c0,0,0,0,0,0c0.4-0.1,0.9-0.3,0.9,0.5C75.1,67.3,75.1,68.1,75.1,68.8z"/>
	<path class="st127" d="M75.1,63.5c0.7-0.8,1-0.1,1.3,0.4c-0.5,0.3-0.5,1.2-1.4,1.2C75.1,64.6,75.1,64,75.1,63.5z"/>
	<path class="st106" d="M80.5,72.4c0.3-0.1,0.6-0.3,0.9-0.4c-0.1,0.5-0.1,0.9-0.2,1.4C80.8,73.2,80.7,72.7,80.5,72.4z"/>
	<path class="st111" d="M73.3,68.4c0,0.4,0,0.9,0.1,1.3c0,0.2,0,0.3-0.1,0.5c-0.4,0.3-0.8,0.6-1.2,1c0.7-1-0.7-2.4,0.7-3.2
		C73.1,68,73.3,68.1,73.3,68.4z"/>
	<path class="st128" d="M73.3,68.4c-0.2-0.1-0.3-0.3-0.5-0.4c0.1-0.8,0.9-1.2,1.4-1.8C74.2,67,74.4,68,73.3,68.4z"/>
</g>
</svg>
