<?xml version="1.0" encoding="utf-8"?>
<!-- Generator: Adobe Illustrator 25.0.0, SVG Export Plug-In . SVG Version: 6.00 Build 0)  -->
<svg version="1.1" id="Layer_1" xmlns="http://www.w3.org/2000/svg" xmlns:xlink="http://www.w3.org/1999/xlink" x="0px" y="0px"
	 width="105.5px" height="129px" viewBox="0 0 105.5 129" style="enable-background:new 0 0 105.5 129;" xml:space="preserve">
<style type="text/css">
	.st0{fill:#48A6DD;}
	.st1{fill:#FFFFFF;}
	.st2{fill:#231F20;}
	.st3{fill:#090909;}
	.st4{fill:#F9F9F9;}
	.st5{fill:#727272;}
	.st6{fill:#D5D5D5;}
	.st7{fill:#EFEFEF;}
	.st8{fill:#EAEAEA;}
	.st9{fill:#121212;}
	.st10{fill:#3F3F3F;}
	.st11{fill:#CBCBCB;}
	.st12{fill:#B2B2B2;}
	.st13{fill:#8D8D8D;}
	.st14{fill:#BEBEBE;}
	.st15{fill:#1A1A1A;}
	.st16{fill:#C8C8C8;}
	.st17{fill:#9E9E9E;}
	.st18{fill:#BABABA;}
	.st19{fill:#D3D3D3;}
	.st20{fill:#424242;}
	.st21{fill:#2E2E2E;}
	.st22{fill:#C5C5C5;}
	.st23{fill:#0F0F0F;}
	.st24{fill:#161616;}
	.st25{fill:#C3C3C3;}
	.st26{fill:#C7C7C7;}
	.st27{fill:#373737;}
	.st28{fill:#E2E2E2;}
	.st29{fill:#343434;}
	.st30{fill:#9B9B9B;}
	.st31{fill:#1E1E1E;}
	.st32{fill:#1B1B1B;}
	.st33{fill:#F1F1F1;}
	.st34{fill:#F7F7F7;}
	.st35{fill:#1F1F1F;}
	.st36{fill:#1C1C1C;}
	.st37{fill:#191919;}
	.st38{fill:#2A2A2A;}
	.st39{fill:#DEDEDE;}
	.st40{fill:#D9D9D9;}
	.st41{fill:#ECECEC;}
	.st42{fill:#A4A4A4;}
	.st43{fill:#8A8A8A;}
	.st44{fill:#505050;}
	.st45{fill:#7F7F7F;}
	.st46{fill:#636363;}
	.st47{fill:#5A5A5A;}
	.st48{fill:#4F4F4F;}
	.st49{fill:#696969;}
	.st50{fill:#585858;}
	.st51{fill:#8E8E8E;}
	.st52{fill:#9D9D9D;}
	.st53{fill:#515151;}
	.st54{fill:#B4B4B4;}
	.st55{fill:#FCFCFC;}
	.st56{fill:#323232;}
	.st57{fill:#272727;}
	.st58{fill:#232323;}
	.st59{fill:#666666;}
	.st60{fill:#EDEDED;}
	.st61{fill:#9C9C9C;}
	.st62{fill:#A6A6A6;}
	.st63{fill:#CACACA;}
	.st64{fill:#848484;}
	.st65{fill:#ABABAB;}
	.st66{fill:#3C3C3C;}
	.st67{fill:#FBFBFB;}
	.st68{fill:#C1C1C1;}
	.st69{fill:#AAAAAA;}
	.st70{fill:#313131;}
	.st71{fill:#171717;}
	.st72{fill:#606060;}
	.st73{fill:#282828;}
	.st74{fill:#3B3B3B;}
	.st75{fill:#252525;}
	.st76{fill:#A3A3A3;}
	.st77{fill:#C4C4C4;}
	.st78{fill:#ADADAD;}
	.st79{fill:#979797;}
	.st80{fill:#818181;}
	.st81{fill:#C6C6C6;}
	.st82{fill:#969696;}
	.st83{fill:#B0B0B0;}
	.st84{fill:#F3F3F3;}
	.st85{fill:#B3B3B3;}
	.st86{fill:#898989;}
	.st87{fill:#B1B1B1;}
	.st88{fill:#939393;}
	.st89{fill:#6C6C6C;}
	.st90{fill:#6E6E6E;}
	.st91{fill:#6D6D6D;}
	.st92{fill:#383838;}
	.st93{fill:#767676;}
	.st94{fill:#959595;}
	.st95{fill:#707070;}
	.st96{fill:#616161;}
	.st97{fill:#808080;}
	.st98{fill:#474747;}
	.st99{fill:#6B6B6B;}
	.st100{fill:#989898;}
	.st101{fill:#8B8B8B;}
	.st102{fill:#888888;}
	.st103{fill:#BFBFBF;}
	.st104{fill:#EEEEEE;}
	.st105{fill:#D0D0D0;}
	.st106{fill:#4A4A4A;}
	.st107{fill:#D1D1D1;}
	.st108{fill:#F8F8F8;}
	.st109{fill:#CFCFCF;}
	.st110{fill:#757575;}
	.st111{fill:#5C5C5C;}
	.st112{fill:#A5A5A5;}
	.st113{fill:#555555;}
	.st114{fill:#454545;}
	.st115{fill:#5F5F5F;}
	.st116{fill:#5E5E5E;}
	.st117{fill:#656565;}
	.st118{fill:#4C4C4C;}
	.st119{fill:#353535;}
	.st120{fill:#565656;}
	.st121{fill:#4B4B4B;}
	.st122{fill:#5B5B5B;}
	.st123{fill:#787878;}
	.st124{fill:#262626;}
	.st125{fill:#7B7B7B;}
	.st126{fill:#737373;}
	.st127{fill:#919191;}
	.st128{fill:#A8A8A8;}
	.st129{fill:#A1A1A1;}
	.st130{fill:#BCBCBC;}
	.st131{fill:#D2D2D2;}
	.st132{fill:#7A7A7A;}
	.st133{fill:#9A9A9A;}
	.st134{fill:#686868;}
	.st135{fill:#CECECE;}
	.st136{fill:#909090;}
	.st137{fill:#646464;}
	.st138{fill:#B6B6B6;}
	.st139{fill:#F4F4F4;}
	.st140{fill:#C0C0C0;}
	.st141{fill:#929292;}
	.st142{fill:#7C7C7C;}
	.st143{fill:#535353;}
	.st144{fill:#676767;}
	.st145{fill:#A2A2A2;}
	.st146{fill:#A0A0A0;}
	.st147{fill:#E1E1E1;}
	.st148{fill:#B5B5B5;}
	.st149{fill:#EBEBEB;}
	.st150{fill:#ACACAC;}
	.st151{fill:#E9E9E9;}
	.st152{fill:#868686;}
	.st153{fill:#D6D6D6;}
	.st154{fill:#E4E4E4;}
	.st155{fill:#7E7E7E;}
</style>
<g>
	<path class="st0" d="M90.8,126.5H15c-2.2,0-4-1.8-4-4v-23c0-2.2,1.8-4,4-4h75.8c2.2,0,4,1.8,4,4v23C94.8,124.7,93,126.5,90.8,126.5
		z"/>
	<g>
		<path class="st1" d="M31.9,113c-0.1-2-0.1-4.4-0.1-6.8h-0.1c-0.5,2.1-1.2,4.4-1.8,6.4l-2,6.4H25l-1.8-6.4
			c-0.5-1.9-1.1-4.3-1.5-6.4l0,0c-0.1,2.2-0.2,4.8-0.3,6.8l-0.3,6.3h-3.4l1.1-16.5h5l1.6,5.5c0.5,1.9,1,4,1.4,5.9h0.1
			c0.5-1.9,1-4.1,1.6-5.9l1.8-5.5h4.9l0.9,16.5h-3.6L31.9,113z"/>
		<path class="st1" d="M53.7,110.9c0,5.4-3.3,8.7-8.1,8.7c-4.9,0-7.7-3.7-7.7-8.4c0-4.9,3.2-8.6,8-8.6
			C51,102.6,53.7,106.3,53.7,110.9z M41.8,111.1c0,3.2,1.5,5.5,4,5.5s4-2.4,4-5.6c0-3-1.4-5.5-4-5.5
			C43.3,105.5,41.8,107.9,41.8,111.1z"/>
		<path class="st1" d="M71.2,110.9c0,5.4-3.3,8.7-8.1,8.7c-4.9,0-7.7-3.7-7.7-8.4c0-4.9,3.2-8.6,8-8.6
			C68.5,102.6,71.2,106.3,71.2,110.9z M59.3,111.1c0,3.2,1.5,5.5,4,5.5c2.5,0,4-2.4,4-5.6c0-3-1.4-5.5-4-5.5
			C60.8,105.5,59.3,107.9,59.3,111.1z"/>
		<path class="st1" d="M73.7,119.3v-16.5H78l3.4,6c1,1.7,2,3.8,2.7,5.6h0.1c-0.2-2.2-0.3-4.4-0.3-6.9v-4.8h3.4v16.5h-3.9l-3.5-6.4
			c-1-1.8-2.1-3.9-2.9-5.8h-0.1c0.1,2.2,0.1,4.5,0.1,7.2v5h-3.3C73.7,119.2,73.7,119.3,73.7,119.3z"/>
	</g>
</g>
<circle class="st2" cx="53" cy="52.3" r="51.2"/>
<g>
	<path class="st3" d="M39.3,72.2c0.2-5.3-0.3-10.5-0.4-15.8c0-0.7-0.4-1.7,0.7-2.1c0.3-0.1,0.6-0.4,0.4-0.7
		c-2.4-3.1,0.2-6.2,0.5-9.2c0.3-2.4-0.3-4.7,0.3-7.1c0.6-2.6,1.3-5.2,2.3-7.6c0.5-1.1,0.9-2.3,0.8-3.3c-0.1-2,1.1-3.6,1.5-5.4
		c0.5-2.3,1.2-4.6,1.9-6.9c0.4,0,1,0.3,0.9,0.5c-0.9,2.2,0.8,4.8-1.1,6.8c-0.5,0.5-0.8,1-1,1.7c-0.7,3.3-1.2,6.5-1.2,9.9
		c0.3,0.2-0.7,0.9,0.3,1c0.7,0.1,0.9,1,0.4,1.4c-1.8,1.4-0.1,3.9-1.7,5.3c1.9,3.6-1.5,6.2-2.1,9.3c-0.3,1.8-0.6,3.2,0.8,4.5
		c0.1,0.2,0.1,0.4,0,0.6c-0.3,1-0.7,2-1.2,2.9c-0.5,1.7-0.8,3.3-0.2,5.1c0.5,1.5-0.5,3.1,0,4.7c0,0.2,0,0.4,0,0.6
		c-0.2,1.3,0.4,2.6-0.4,3.8c-0.1,0.2-0.2,0.4-0.4,0.5C40,73,39.5,72.8,39.3,72.2z"/>
	<path class="st4" d="M87.8,15c7.2,6.4,11.9,14.2,14.3,23.6c-0.1,1.6-0.1,1.5-1.3,2.6c-0.1,0.1,0.3,0.5,0.4,0.9c0,1.5-0.6,2-2,1.2
		c-0.9-0.8-0.8-1.9-0.9-3c0.3-1.9,0.3-3.7-1.1-5.3c-0.4-0.6-0.8-1.2-1.2-1.8c-0.5-1.4-1.4-2.3-3-2.5c-1.2-0.1-2-0.7-2.1-2.1
		c0.1-0.6,0.4-1,1-1.1c1.5,0,1.2-0.9,0.8-1.7c-0.2-0.5-0.4-1.1-0.4-1.7c0-0.4,0.1-0.9-0.3-1.2c-1.4-1.2-2.9-2.4-3.7-4.2
		c-0.4-0.6-1-1.1-1.4-1.6C86.6,16.3,86.4,15.3,87.8,15z"/>
	<path class="st5" d="M54.9,103c-0.9,1-2.1,0.2-3.1,0.4c-1.2-0.6-2.7-1-2-3c1.8-1.3,2-4.1,0.5-6c-0.2-1-0.1-2-0.1-3.1
		c0-0.4,1.2-0.6,0.1-1.2c-0.4-0.2-0.2-0.9,0.4-1.2c1,0.6,1.5,0,2-0.9c0.1-0.1-0.2,0-0.2,0c-0.3,0.9-0.8,1.6-1.8,0.8
		c-0.2-0.4-0.4-0.8-0.3-1.3c0.5-1.7,0-3.3-1-4.7c-0.2-0.4-0.3-0.8-0.3-1.3c0-0.6,0.2-1.1,0.6-1.5c1.3-0.9,2,0.7,3.1,0.7
		c0.6,0.2,1.2,0.3,1.3,1.1c-0.4,0.6-1.1,0.6-1.7,1c-1.1,0.7,0.3,0.4,0.3,0.7c0.5,0.2,0.6-0.2,0.9-0.4c1.3,0.2,1.2,1.7,2.1,2.3
		c0.9-0.3,1.4-1,2.1-1.6c0.4-0.3,0.7-0.9,1.3-0.5c0.4,0.6,0.2,1.2-0.2,1.8c-0.5,0.6-1,1.3-0.8,2.2c0.2,1-0.3,1.7-1.4,1.8
		c-0.3-0.3-0.6-0.6-1-0.8c0,0.8,0.9,0.3,1.1,0.8c0.4,2.4-0.3,4.5-1.2,6.7c-0.2,0.5-0.5,1-1.1,1c-0.4,0-0.7-0.3-0.7-0.7
		c0-0.1,0.1-0.2,0-0.2c-0.3-0.3-0.2,0.1-0.3,0.2c-0.1,0.4-0.3,0.8,0.1,1.2c0.4,0.5,1,0.9,1.1,1.6c0,0.6-0.3,1.2,0.3,1.8
		c0.1,0.2,0.1,0.4,0.1,0.6c-0.2,0.8-0.9,0.6-1.5,0.8C53.9,102.5,54.6,102.5,54.9,103z"/>
	<path class="st6" d="M68.9,3.8c0.1-0.1,0.2-0.1,0.3,0.1c0.4,0.4,1,0.2,1.3,0.7c0.5,0.3,0.8,0.8,1.5,0.9c0.4,0,0.9,0.4,0.8,0.6
		c-0.6,1.2,0.1,1.8,0.9,2.3c1.6,1.1,3.4,2,5.2,2.9c0.4,0.2,0.3-0.5,0.7-0.5c1.2,0,1.9,0.2,1.5,1.6c-0.6,0.6-1.6,0.9-1.1,2.2
		c0.6,1.4,1.5,1.7,2.8,1.7c0.2,0.3,0.2,0.6,0.1,0.9c-0.2,0.4-0.7,0.6-0.8,1c-0.1,0.3-0.1,0.6,0.2,0.8c0.3,0.2,0.5-0.1,0.7-0.3
		c0.1-0.2,0.3-0.3,0.4-0.4c0.4-0.1,0.8-0.1,1.2,0.1c0.4,0.3,0.6,0.6,0.6,1.1c-0.6,2.1-2.6,2.4-4.2,3.3c-0.2,0-0.4,0-0.6,0
		c-2.1-1-2.8-2.7-2.6-4.9c0.1-1.3-0.2-2.4-1.9-2.4c-0.8,0-3-2.1-2.7-2.7c1.1-2.4-0.7-3.3-2.1-4.4c-0.2-0.2-0.4-0.4-0.6-0.6
		c-0.4-1.1-0.9-2.1-1.9-2.7c-0.3-0.2-0.7-0.6-0.3-1.1C68.1,3.5,68.5,3.7,68.9,3.8z"/>
	<path class="st7" d="M80.7,12.3c0.2-0.9-0.3-1.4-1.1-1.2c-3.1,0.8-4.8-1.6-6.9-2.9c-0.5-0.3-1-0.7-1.5-1c0.1-0.8,1-0.5,1.1-1.1
		c-0.6-0.8-1.9-0.5-2.4-1.4c0.4-0.3,0.9-0.3,1.3,0.1c6.5,1.8,11.6,5.9,16.5,10.3c-0.7,0.6-1,1.3-0.4,2.2c0.5,0.9,0,1-0.8,0.9
		c-0.5-0.1-0.9-0.5-1.2-0.9c-0.3-0.4-0.7-0.8-1-1.2c-1-0.8-1.4-2.2-3-2.2C80.8,13.9,80.4,13.1,80.7,12.3z"/>
	<path class="st8" d="M95,81.1c-0.1,0.8-0.7,1.3-1.3,1.8c-1.7,1.3-3.3,2.8-5.1,4c-0.5,0.3-0.8,0.8-1.5,0.7c-0.8-1.1-2.4-1.7-2-3.2
		c-1.3,2.6-2.5,0-3.9-0.5c-0.2-0.6,0.2-0.8,0.6-0.9c2.1-0.5,3.9-1.9,6.2-1.8c1.8,0.1,2.7-1.8,3.7-3c0.6-0.8,0.6-2,1.7-2.4
		c0.8,0.3,1.3,1,1.6,1.8C95.3,78.7,94.2,79.8,95,81.1z"/>
	<path class="st9" d="M44.7,32.9c-0.3,0-0.8-0.1-0.6-0.4c0.8-1.2-0.2-2.5,0.5-3.8c0.9-1.5,0.1-3.4,0.8-5.1c0.4-0.9,0.5-1.9,1.4-2.6
		c0.7-0.6,1.4-1.4,0.4-2.5c-0.7-0.7,0-1.4,0.3-2c0.3-0.8,0.8-1.6-0.2-2.4c-0.5-1.7,1-2.2,1.8-3.1c1.4,0.1,1.2,0.9,0.9,1.8
		c-0.5,2-1.4,3.9-1.3,6c0.5,1.9-0.7,3.6-0.7,5.4c0,0.2-0.1,0.4-0.2,0.6c-1.4,2.1-1.3,3.5,0.3,4.7c0.3,0.1,0.5,0.3,0.6,0.6
		c0,1.5-1.2,2.1-2.1,2.9C45.9,33.7,45.3,33.6,44.7,32.9z"/>
	<path class="st10" d="M47.3,101.2c-1-0.8-2-1.6-1.5-3.2c0.3-1.2-0.9-1-1.6-1.3c-0.4-0.9,0.7-1.4,0.5-2.3c0-0.4,0-0.9-0.1-1.3
		C44,92,44.5,90.9,45.3,90c0.3-0.2,0.6-0.3,1-0.2c0.4,0.2,0.7,0.5,0.9,0.9c0.2,0.3,0.4,0.7,0.6,1.1c0.2,1.1,1.2,1.8,1.7,2.7
		c0.2,0.6,0.3,1.1,0.3,1.7c-0.2,0.4-0.6,0.7-0.7,1.1c0,0.2-0.1,0.3-0.2,0.5c-0.2,0.4-0.5,0.6-0.9,0.9c-0.2,0.5,0.3,0.5,0.4,0.8
		c0.1,0.2,0.1,0.4,0.1,0.6C48.3,100.7,48.2,101.4,47.3,101.2z"/>
	<path class="st4" d="M102.6,64.3c-0.8,3.7-1.7,7.4-4.1,10.5c-0.6,0.2-1.1,0-1.5-0.5c-0.4-0.8-0.8-1.7-0.4-2.6
		c2.9-2.8,3.7-6.4,4.1-10.2c0.2-0.7,0.4-1.4,1.4-1.1c0.3,0.3,0.4,0.6,0.5,1C102.5,62.4,102.9,63.4,102.6,64.3z"/>
	<path class="st11" d="M87,87.4c1.2-1.8,3.8-1.8,4.8-3.8c0.4-0.9,1.2-0.6,1.9-0.6c-2.5,3.9-5.8,7.1-9.5,9.8c-1.2-1-1.2-1,0.1-2.9
		c0.1-0.2,0.3-0.3,0.4-0.4c0.3-0.2,0.5-0.4,0.3-0.8c0.1-0.5,0.5-0.7,0.9-0.9C86.3,87.6,86.7,87.6,87,87.4z"/>
	<path class="st12" d="M61.7,102.6c-1.3,0.5-2.7,0.4-4.1,0.4c-0.6,0.2-1.2,0.4-1.5-0.3c-0.3-0.6,0.2-0.9,0.6-1.3
		c0.7-0.6,0.9-1.5,1.3-2.3c0.1-0.2,0.2-0.4,0.3-0.5c0.4-1,1.9-0.2,2.3-1.3c1-1.2,2.3-1.2,3.7-0.7c0.5,1.2-0.3,2-1,2.8
		c-0.4,0.4-1.4,0.3-1,1.3c0.5,0.9,0,1.1-0.7,1.4c-0.1,0-0.3,0-0.4,0.1C61.5,102.3,61.6,102.4,61.7,102.6z"/>
	<path class="st13" d="M60.3,2c1,0.2,2.2-0.5,3.2,0.5c-0.2,1,0.7,1.3,1.1,1.9c0.6,0.5,1.3,0.9,1.3,1.8c-0.2,0.6,0.5,1.2,0,1.9
		c-0.3,0.2-0.7,0.3-1.1,0.4c-2,0-3.5-1.1-4.2-2.6C60,4.6,58,3.5,59.2,1.6C59.7,1.3,60,1.7,60.3,2z"/>
	<path class="st14" d="M62.9,99.4c0.4-0.9,0.9-1.8,1.3-2.7c0-0.1,0-0.2,0-0.3c0-0.6,0-1.5,0.7-1.4c1,0.1,0.7,1.3,0.9,2
		c0,0.2,0,0.4,0,0.6c-0.2,0.6-0.4,1.1-0.2,1.9c1.7-1.2,2.5,0,3.2,1.3c-2.3,0.9-4.6,1.6-7.1,1.8c-0.5-0.1-1.1-0.1-1.7-0.2
		c0.3-1.1,2.6,0.4,1.9-1.6c0.1-0.2,0.4-0.3,0.6-0.3c0.1,0.1,0.3,0.1,0.3-0.1c-0.2,0-0.3-0.1-0.3-0.3C62.7,99.8,62.7,99.6,62.9,99.4z
		"/>
	<path class="st15" d="M60.3,2c-0.3-0.1-0.6-0.2-0.9-0.3c-0.4,0.2-0.9,0.4-1.4,0.5c-0.2,0-0.4,0-0.6,0c-0.6,0-1,0.4-1.4,0.7
		c-0.5,0.3-0.9,0.5-1.4,0.9c-0.3,0.2-0.6,0.5-0.9,0.7c-0.3,0.4-0.5,0.8-0.5,1.4c-0.1,2.1-0.7,2.7-3,3.1c-0.1-0.1-0.2-0.1-0.2-0.2
		c-0.1-0.2-0.3-0.6-0.2-0.6c1.6-1.4,1.6-3.6,2.8-5.3C54.1,1.1,58.5,0.4,60.3,2z"/>
	<path class="st16" d="M102.1,61.4c0-0.3,0-0.6,0-0.9c-0.3-0.3-0.4-0.8-0.4-1.2c0-0.2,0.1-0.4,0.1-0.7c0.2-1.7-0.1-3.4,0.5-5
		c0.1-0.8,0.1-1.6,0.6-2.3c0.4-0.5,0.4-1.3,1.1-1.7c0.4,4.3,0.3,8.5-0.9,12.7C102.6,62.3,102.5,61.7,102.1,61.4z"/>
	<path class="st17" d="M58.5,99c-0.1,1.2-0.4,2.2-1.4,2.9c-0.3,0.2-0.8,0.3-0.5,0.7c0.2,0.3,0.8,0.3,1.2,0.4c-0.9,0.6-1.8,0.1-2.8,0
		c-0.5,0-1,0-1.5-0.1c-0.7-0.3-0.9-1-0.6-1.6c0.3-0.8,0.8-0.1,1.2,0.1c0.7,0.4,0.9,0.1,0.9-0.6c0.1-0.8,0.7-1.3,0.9-2.1
		C56.5,96.8,57.6,98.4,58.5,99z"/>
	<path class="st18" d="M84.7,89.6c0.2,1.1-2.1,1.8-0.6,3.1c-0.5,0.8-1.3,1.3-2.1,1.7c-0.7,0-1.4,0.1-2.1-0.1
		c-0.3-0.1-0.5-0.3-0.7-0.6c-0.1-0.6-0.2-1.2,0.1-1.8C81.1,91.1,82.7,89.7,84.7,89.6z"/>
	<path class="st19" d="M68.8,100.8c-0.3,0-0.8,0-0.8-0.1c-0.3-2.2-1.3-1-2.2-0.5c-0.2,0.1-0.5,0.2-1,0.3c0-1.1-0.2-2.2,0.8-2.9
		c0.8-0.7,1.9,0,2.7-0.6c0.2,0,0.4,0,0.6,0c0.3,0.2,0.8,0.5,0.7,0.7c-0.8,1.1,0.5,0.4,0.6,0.8c0.2,0.3,0.2,0.6,0.2,0.9
		c-0.1,0.4-0.5,0.7-0.6,1.1C69.5,100.9,69.2,100.9,68.8,100.8z"/>
	<path class="st15" d="M48.2,19.1c-0.2-2.3,0.7-4.4,1.4-6.5c0.3-0.9,0.2-1.2-0.5-1.6c-0.7-1.2,0.6-1.5,0.9-2.2c0,0,0,0,0,0
		c0.8,0.6,1.7,1,1.8,2.2c0,0.2,0,0.4,0,0.7c-1.3,1.9-1.2,4.4-2.4,6.4C49.1,18.4,49.1,19.2,48.2,19.1z"/>
	<path class="st20" d="M41.9,88.7c-0.7-0.5-0.1-0.9,0.1-1.4c0.5-0.6,1-1.1,1.4-1.7c0.2-0.4,0.2-0.8,0.1-1.3c0-0.3,0.1-0.6,0.3-0.8
		c0.3-0.1,0.6-0.1,0.8,0c0.3,0.4,0.4,1,1.1,1c0.1,0.1,0.2,0.3,0.3,0.5c0.2,0.6,0.4,1.1,0.3,1.7c-0.6,0.7,0.7,2-0.8,2.5
		c-0.4,0-0.8-0.5-1-0.4C43.1,90,43.1,90,41.9,88.7z"/>
	<path class="st21" d="M41.9,88.7c0.7,0.3,1.3,0.7,2,1c0.6-0.7-1.1-1.2-0.2-1.7c1-0.6,1.2,0.8,1.8,1.2c0.3,0.3,0,0.6,0,0.9
		c-0.5,1-0.9,2-0.9,3.1C43.5,91.9,42.1,90.7,41.9,88.7z"/>
	<path class="st11" d="M100.8,41.8c-0.2-0.6,0.1-0.4,0.5-0.8c0.5-0.6,0.6-1.6,0.9-2.4c1,2.2,1.1,4.5,1.3,6.8
		c-0.3,0.3-0.6,0.3-0.9,0.1C101.6,44.5,101,43.2,100.8,41.8z"/>
	<path class="st22" d="M79.9,94.1c0.8-0.4,1.5-0.1,2.2,0.3c-2,1.5-4.2,2.8-6.6,3.7c-0.3-0.2-0.4-0.6-0.4-0.9c0.1-1.2,0.8-1.8,1.9-2
		C78.1,95.5,78.9,94.5,79.9,94.1z"/>
	<path class="st4" d="M95,81.1c-2.3-1.2,0.1-2.4,0-3.6c-0.2-0.7,0.3-1.1,0.7-1.6c0.5-0.4,0.7-1.3,1.7-1.1c0.4,0.4,0.3,1,0.5,1.4
		c0,0.5-0.2,0.9-0.5,1.3c-0.5,0.4-0.6,1.1-0.9,1.7C95.9,79.9,95.4,80.5,95,81.1z"/>
	<path class="st23" d="M39.3,72.2c0.4,0.1,0.9,0.3,1.3,0.4c0.6,0.2,0.8,0.7,0.8,1.3c-0.5,1.2-0.7,2.4-0.5,3.8
		c0.1,0.9,0.7-0.1,0.8,0.4c0.1,0.2,0.2,0.4,0.2,0.6c-0.2,0.9-0.6,1.6-1.7,1.1C39.6,77.3,39.4,74.7,39.3,72.2z"/>
	<path class="st24" d="M40.2,82.9c0-0.5,0-0.9,0-1.4c1.3-0.2,1.2-2.4,2.9-2c0.5,0.3,0.6,0.8,0.5,1.4c-1.2,1.2-1.2,2.9-1.4,4.5
		c-0.1,0.1-0.2,0.1-0.2,0.2c-0.7,0.3,0,1.6-1.3,1.8c0.6-1,0-1.9,0.7-2.9C41.8,83.8,40.8,83.3,40.2,82.9L40.2,82.9z"/>
	<path class="st25" d="M68.9,3.8c-0.9,0.2-1,0.5-0.1,1c1.1,0.6,1.8,1.4,1.7,2.7c-1,0.6-1.8,0.6-2-0.7c-0.1-0.6-0.4-0.9-0.9-1.1
		c-0.7-0.5-1.2-1.2-2-1.5c-0.6-0.2-1-0.6-0.4-1.3c0.3-0.1,0.6,0,0.9,0.1C67.1,3,68,3.3,68.9,3.8z"/>
	<path class="st26" d="M75.4,97.2c0,0.3,0,0.6,0,0.9c-1.8,1.2-3.6,2.1-5.7,2.4c-0.1-0.4,0-0.8,0.4-1.1
		C71.6,98.2,73.5,97.7,75.4,97.2z"/>
	<path class="st21" d="M42.9,79.8c-0.9,0-0.9,0.8-1.1,1.4c-0.4,0.8-0.9,0.9-1.5,0.4c0-0.6,0-1.2,0-1.8c0.9,0,1.3-0.5,1.3-1.3
		c0.2-0.4,0.6-0.7,1-0.4C43.2,78.5,43.2,79.1,42.9,79.8z"/>
	<path class="st27" d="M50,100.3c-0.5,1.7,1.3,2,1.8,3.1c-1.3,0-2.6,0.3-3.6-0.8c-0.1-1.1,0.7-1.6,1.2-2.3
		C49.6,100.2,49.8,100.2,50,100.3z"/>
	<path class="st28" d="M102.6,45.4c0.3,0,0.6,0,0.9,0c0.6,1.4,0.5,2.9,0.5,4.4c-0.3,0.6,0.1,1.4-0.5,1.9c-0.8-1-0.6-2.3-1-3.4
		C102.5,47.3,102.1,46.3,102.6,45.4z"/>
	<path class="st29" d="M49.6,100.3c0,1-0.7,1.6-1.4,2.3c-0.3-0.4-0.6-0.9-0.9-1.3c0.3-0.4,0.6-0.9,0.9-1.3c0.3-0.3,0.4-0.9,0.9-1.1
		c0.2-0.1,0.4-0.1,0.6,0C50.5,99.4,50,99.8,49.6,100.3z"/>
	<path class="st30" d="M66.1,2.9c-0.3,0-0.6,0.1-0.9,0.1c-0.8,0.3,0,1.5-1,1.7c-0.4-0.3-0.8-0.6-1.2-0.9c-0.9-0.7-0.6-1.1,0.4-1.4
		C64.4,2.5,65.3,2.4,66.1,2.9z"/>
	<path class="st31" d="M43.8,85.6c-0.1,1.1-0.7,1.7-1.8,1.8c0-0.6,0-1.2-0.1-1.8c0,0,0.1,0,0.1,0C42.6,85.1,43.2,84.5,43.8,85.6z"/>
	<path class="st32" d="M44.7,94.5c0.8,1-0.3,1.5-0.5,2.3C42.5,95.6,43.4,95,44.7,94.5z"/>
	<path class="st33" d="M102.1,61.4c0.6,0,0.8,0.5,0.9,1c0,0.7,0.1,1.4-0.4,1.9C102.5,63.4,101.9,62.5,102.1,61.4z"/>
	<path class="st34" d="M97.8,76.2c-0.6-0.3-0.5-0.9-0.5-1.4c-0.1-0.1-0.1-0.2-0.1-0.3c0-0.1,0.1-0.1,0.1-0.1
		c0.4,0.1,0.9,0.3,1.3,0.4C98.3,75.3,98.3,75.9,97.8,76.2z"/>
	<path class="st35" d="M40.2,82.9c0,0.1,0,0.2,0,0.2c-0.2,0.6,0.6,1.2,0,1.7c-0.3,0.2-0.6,0-0.7-0.3C39.1,83.7,39.5,83.2,40.2,82.9
		C40.2,82.9,40.2,82.9,40.2,82.9z"/>
	<path class="st25" d="M71.3,4.8c-0.4,0-0.9,0-1.3-0.1c-0.3-0.3-0.6-0.6-0.9-0.9C70,3.8,70.8,4.1,71.3,4.8z"/>
	<path class="st34" d="M96.3,79.2c0-0.8,0.1-1.4,0.9-1.7C97.3,78.3,96.8,78.8,96.3,79.2z"/>
	<path class="st36" d="M44.7,32.9c0.6,0,1.2,0.4,1.8,0c0.6,0.6,0,1.4,0.3,2c1.9,2.3,1.8,2.4,0.2,4.9c-1.3,1.9-0.9,4-0.2,6
		c-0.2,1-0.2,2.1-1.7,2.1c-0.7,0-0.8,0.7-0.8,1.3c0,0.9,0.1,1.9,0.1,2.8c0,0.7,0.3,1.4,0.1,2.1c-0.4,1-1.4,0.4-2,0.6
		c-1.5-1.2-2.5-2.2-1.1-4.6c1.2-2,1.2-4.8,2.7-6.9c0.2-0.4,0.9-1.6-0.5-1.9c0,0-0.1-0.6,0-0.8c1-1.1,0.6-2.4,0.7-3.6
		c0-0.4,0-0.9,0.1-1.3c0.1-0.5,1.7,0,1.1-1.1c-0.5-0.9-1.2,0.4-1.9,0.1C43.5,33.8,44.8,33.8,44.7,32.9z"/>
	<path class="st37" d="M41.1,74c-0.1-0.4-0.3-0.9-0.4-1.3c0-0.1,0-0.3,0-0.4c1.1-1.2,1-2.6,0.4-4l0,0c0.6-3.4-0.2-6.8,0-10.3
		c0.5-0.9,0.5-2,1.3-2.7c0.6,0,1.3,0.4,1.1,0.8c-0.7,2,1.3,3.1,1.4,4.7c0,0.2,0,0.4-0.1,0.7c-2.3,2.5-1.7,5.5-1.3,8.5
		C43.9,72.2,43.4,73,41.1,74z"/>
	<path class="st38" d="M44.7,60.6c-0.7-0.3-0.1-1.7-1.6-1.5c-0.9,0.1-0.4-1.2-0.2-1.5c0.9-1.1,0.3-1.7-0.4-2.4c0-0.1,0-0.3,0-0.4
		c0.4-1,1.3,0,1.8-0.4c0.3-0.3,0.7-0.3,1,0C46.2,56.5,46.3,58.6,44.7,60.6z"/>
	<path class="st23" d="M41.1,57.9c1,3.4,1.2,6.8,0,10.3c-1.4-0.3-0.5-1.6-0.5-1.9C41.3,63.5,39.4,60.6,41.1,57.9z"/>
	<path class="st23" d="M41.1,68.2c1.4,1.3,1.3,2.5-0.4,4C41.3,70.9,39.8,69.4,41.1,68.2z"/>
	<path class="st39" d="M91.4,28.9c0.2,1.2,1,1.4,2,1.6c1.4,0.3,3.3,0.5,2.9,2.8c0,0.6-0.3,1-0.9,1.2c-1.5-0.8-2.8-2.3-4.7-0.6
		c-1.6,1.5-0.2,2.9,0.1,4.3c0,0.1,0,0.3,0,0.4c-0.3,1.1,0.4,1.9,1,2.7c0.5,0.7,1.2,1.5,1.4,2.4c-0.6,2.4-1,2.5-4.1,1.3
		c-0.7-0.2-1.3-0.5-1.5-1.3c0.5-1.4-1.2-2.6-0.3-4.1c1.2-0.3,1.5,1.2,2.5,1.3c-0.7-0.6-1.3-1.4-1.4-2.5c-0.2-2.4-0.9-2.7-3.1-1.8
		c-0.7,0.1-1.2-0.3-1.6-0.8c-0.8-1.4,0.9-1.7,1.2-2.7c0.1-0.2,0.2-0.3,0.3-0.5c1-0.7,1.4-0.1,1.6,0.9c0.6-1,0.3-2.2,0.8-3.1
		c1.3-0.1,1.4-1.3,1.9-2c0.1-0.2,0.3-0.3,0.5-0.4C90.9,27.7,91.1,28.4,91.4,28.9z"/>
	<path class="st40" d="M89.1,44.5c0.4,0,0.8,0,1,0.2c1.8,1.9,2.2,0.5,2.6-1.1c0.2-0.1,0.4-0.2,0.6-0.2c1.9,0.4,3.1-0.3,3.5-2.4
		c0.2-0.9,0.6-1.7,1.2-2.4c1.2-0.1,0.4,1.1,0.9,1.4c0.1,1.1-0.2,2.2,0.5,3.1c0.4,0.8,0.3,1.8,1.1,2.5c0.7,0.6,0.8,1.5,0.3,2.4
		c-0.7,0.4-1.1-0.2-1.5-0.6c-1.4-0.1-0.5,1.2-1,1.6c-0.2,0.3-0.4,0.5-0.7,0.5c-1-2.2-2.9-2.5-4.8-2.4c0.7,0.4,1.4,1.3,2.8,1.2
		c1.1-0.1,1.1,0.9,1.1,1.8c-0.3,0.6-0.7,1-1.3,1.2c-0.7-0.2-1.3-0.3-2-0.4c-1-0.6-1.8-1.5-2.5-2.5c-0.2-0.4-0.6-0.8-0.9-1.2
		C89.7,46.4,88.9,45.7,89.1,44.5z"/>
	<path class="st41" d="M91.4,28.9c-0.4-0.3-0.9-0.6-1.3-0.9c-0.7-1.5,0.2-2.5,1-3.8c-1.7,0.3-1.9-1.2-2.5-2.2
		c-0.4,0.6-0.1,1.1-0.3,1.6c-0.1,0.4-0.2,0.8-0.7,1c-2.3-0.9-2.6-3-2.9-5c-0.2-0.3-0.3-0.6-0.5-0.9c0-0.9,0.7-0.9,1.2-0.7
		c1.1,0.5,2.2,0.5,3.3,0.7c1.1,1.7,2.4,3.2,4,4.5c-0.1,0.3-0.1,0.6,0,0.9c0.1,0.6,0.3,1.2,0.4,1.8c-1.3,0.4-1,1.3-0.9,2.2
		C91.7,28,91.4,28.3,91.4,28.9z"/>
	<path class="st7" d="M100.8,48.1c0-1.2,0-2.2-1.5-2.8c-1.5-0.5,0.6-1.3,0.2-2.1c1.4,0.5,1.4-0.4,1.3-1.3c0.3,1.3,2.1,1.9,1.8,3.6
		c0.5,0.8,0.5,1.8,0.4,2.7c-1.4,0.5-0.4,2.4-1.7,3.1c-1.1,0.4-1.7-0.1-1.8-1.2C99.6,49.1,100.1,48.5,100.8,48.1z"/>
	<path class="st28" d="M88.8,18.6c-0.8,1.1-1.7,0.3-2.5,0.1c-0.7-0.2-1.2-0.9-1.9-0.1c-0.4,0-0.9,0-1.3,0c-0.1-2.1,0-2.1,2.7-1.8
		c1.2,1.2,1.2,1.2,1.8,0.4C88,17.5,88.5,18,88.8,18.6z"/>
	<path class="st41" d="M92.3,28c0.1-0.7-1.5-0.6-0.8-1.7c0.4-0.7,0.9-1.1,1.7-0.6c0.2,0.7,1.1,1.3,0.5,2.1
		C93.5,28.2,92.9,28.7,92.3,28z"/>
	<path class="st40" d="M95.4,34.2c0.3-0.3,0.6-0.6,0.9-0.9c1,0,0.7,1.1,1.3,1.4c-0.1,1.2,1.4,2.1,0.7,3.4c-1.2,0.5-1.1-0.7-1.5-1.2
		C96.7,35.8,95.3,35.4,95.4,34.2z"/>
	<path class="st39" d="M98.1,38.3c-0.1-1.2-0.3-2.4-0.4-3.6c1.4,1.5,1.8,3.3,1.3,5.3c-0.3-0.4-0.6-0.9-0.9-1.3
		C98,38.6,98,38.5,98,38.4C98,38.4,98,38.3,98.1,38.3z"/>
	<path class="st41" d="M92.8,24c-0.2-0.1-0.6-0.2-0.7-0.4c-0.1-0.5,0.3-0.5,0.7-0.5C93.2,23.4,93.2,23.7,92.8,24z"/>
	<path class="st42" d="M58.5,85.1c0.3-0.5,0.6-1.1,0.4-1.8c-0.9-1.4-0.3-2.4,1-3.1c0.8-0.2,1.6-1,2.3,0.1c0.3,0.4,0.8,1,1.2,0.4
		c0.5-0.6,0-1.4-0.2-2.1c-0.2-0.6-0.6-0.5-1.1-0.3c-0.7,0.4-1.3,1-2.2,0.7c-0.3-0.1-0.5-0.4-0.7-0.7c-0.1-0.3-0.1-0.6,0-1
		c0.8-1.1,2.4-1.4,2.2-3.4c-0.1-1.1,1-0.4,1.7-0.3c0.2,0.1,0.4,0.1,0.6,0.2c0.9,0,1.7,1.9,2.8,0c0.3-0.5,0.8,0,0.9,0.5
		c0.2,0.6,0,1.2-0.4,1.7c-1.2,1.5-0.3,2,1.1,2.3c0.2,0.1,0.3,0.2,0.4,0.4c-0.1,1,1.8,1.5,0.9,2.8C68.4,83,66.8,82,65.7,83
		c0.9,0.4,1.7,0.1,2.5-0.1c1.1-0.3,1.4,0.3,1.1,1.2c-0.4,1.6-1,3.1-3.1,3.1c-0.5,0.1-1.2-0.2-1,0.9c0.2,1.1-0.1,2.1-1.6,1.9
		c-0.1-0.2-0.3-0.4-0.3-0.6c-0.2-1.4-0.9-2.5-2-3.2c-0.6-0.5-0.1-1.3-0.3-1.9c-0.9-0.2-0.9,0.9-1.4,1.1
		C59.1,85.7,58.6,86.2,58.5,85.1z"/>
	<path class="st43" d="M58.5,85.1c0.5,0.6,1.1,0.3,1.1-0.2c0.1-1.4,1.3-1.7,2.1-1.3c1,0.5-0.2,1.3-0.2,2c0,0.1,0.1,0.3,0.1,0.4
		c1.2,2.3,1.2,2.3-1.2,3.9c-0.3,0.6-0.4,1.3-0.8,1.8c-1.1-0.1-0.3,0.7-0.5,1c-0.5,1.2,0.3,2.3,0.2,3.5c-0.1,1-0.3,1.9-0.8,2.7
		c0,0,0,0,0,0c-0.4,0.1-0.8,0.4-1.2-0.1c-0.3-0.4-0.6-1-1.2-0.4c-0.6,0.7,0.2,0.8,0.5,1c0.2,0.1,0.4,0.5,0.3,0.7
		c-0.2,0.5-0.5,0.2-0.8,0c-0.6-0.4-0.8,0.4-1.3,0.5c0,0,0,0,0,0c-0.9-0.4-0.2-1.2-0.4-1.8c-0.3-0.6-0.7-1.1-1.4-1.4
		c-0.2-0.5,0.1-0.9,0-1.3c0-0.9,1.1-1.1,1-2c1.4,0.9-0.3,1.5,0.3,2.6c1-1.7,1.5-3.2,1.8-4.9c0.2-0.9-0.1-1.9,0.5-2.8l0,0
		c0.6-0.6,1.3-1,0.8-2.1C57.1,86.2,57.7,85.6,58.5,85.1z"/>
	<path class="st44" d="M45.9,87c-0.1-0.6-0.3-1.2-0.4-1.9c0.9-1.6-0.1-2.8-0.7-4c-0.2-0.1-0.3-0.2-0.5-0.4c-1.2-2-0.8-4,0.3-5.7
		c1-1.6,1.8-0.4,2.4,0.5c0.2,0.7,0.1,1.4-0.1,2.1c-0.2,0.4-1,0.7-0.3,1.3c0.3,0.6,0.4,1.3,0.4,2c-0.1,0.3,0-0.1-0.1,0.2
		c-0.1,0.2-0.2,0.6-0.1,0.6c0.3,0.1,0.2-0.3,0.4-0.4c0.2-0.1,0.4-0.1,0.6,0c1.7,1.3,1.4,3.1,0.9,4.6c-0.5,1.3-0.4,2.1,0.5,2.9
		c0.7,0.6,0.7,1.6,1.1,2.4c0.4,1,0.5,2.1,0,3.1c-0.1,0.1-0.1,0.1-0.2,0.2c-0.4,0.2-0.8,0.1-1.1-0.2c-0.9-0.7-1.8-1.4-1.8-2.8
		c0.1-0.4,0.4-1-0.5-0.8c-0.4-0.2-0.4-0.6-0.5-0.9C46.7,88.9,45.7,88.1,45.9,87z"/>
	<path class="st45" d="M59.4,78.4c0.1,0.2,0.3,0.3,0.4,0.5c0.3,0.3,1.1,0.1,1.1,0.9c0,0.7-0.7,0.6-1.1,0.9c-1,0.7-0.7,1.8-0.9,2.7
		c-0.3,0.3-0.6,0.6-0.8,0.9c-0.6-0.4-1-1-1.9-0.8c-0.7,0.2-1.1-0.2-1.1-0.9c0-0.3,0.2-0.5,0.4-0.7c-0.3-0.1-0.4,0.3-0.5,0.4
		c-0.1,0.2-0.3,0.3-0.4,0.4c-0.3,0-0.5-0.2-0.4-0.5c-0.4-0.3-0.9-0.6-1.3-0.9c0.2-1.4,1.4-2.4,1.7-3.8c0.1-0.6,0-1.4,0.8-1.6
		c0.7-0.2,0.9,0.3,0.9,0.9c0.1,0-0.1,0.5,0.1,0.1c0.3-0.7,0.5-1.6,1.4-1.2c0.8,0.4,0.3,1.3,0,2c-0.1,0.3-0.4,0.8-0.3,0.9
		c0.4,0.2,0.5-0.5,0.9-0.5C58.7,77.7,58.9,78.3,59.4,78.4z"/>
	<path class="st46" d="M50.4,91.4c-1.3-0.9-1.5-2.5-2.7-3.5c-0.4-0.3-0.2-0.8,0.1-1.2c1.6-1.7,0.9-3.4,0-5.2c0.6-0.5,1.2-0.5,1.8,0
		c0,0.1,0,0.2,0,0.2c1.6,2.3,1.8,4.8,1.3,7.4l0,0c-1.5,1.7,1.7,1.1,1,2.4C51.5,92,51,90.4,50.4,91.4z"/>
	<path class="st47" d="M49.6,81.6c-0.6,0-1.2,0-1.8,0c-0.1,0-0.3,0-0.4,0c-0.2-0.1-0.4-0.2-0.4-0.5c-0.4-0.7-0.5-1.4-0.4-2.2
		c0.2-0.4,0.5-0.8,0.8-1c-0.2-0.9,0-1.8-0.1-2.6c0-0.5,0.2-1,0.5-1.4c0.6-0.5,1.1-1,1.9-0.9c0.3,0.1,0.5,0.4,0.7,0.7
		c0.2,0.6,0.2,1.2,0.1,1.9c-0.2,0.8-0.1,1.6,0,2.3c0.2,0.5,0.6,0.8,0.7,1.2c0.2,0.9-0.7,0.8-1.1,1.2C49.9,80.7,49.7,81.1,49.6,81.6z
		"/>
	<path class="st48" d="M49.6,100.3c-0.2-0.5,0.6-0.9,0-1.4c-0.2-0.4,0.1-0.7,0.2-1c0.2-0.5-0.1-0.9-0.1-1.4c0-0.7,0.1-1.5,0.7-2
		c0,0,0,0,0,0c0.8,0.2,1.3,0.4,1.4,1.5c0.2,1.5-0.8,2.8-0.5,4.3c0.1,0.8-0.9-0.2-1.3,0C49.9,100.3,49.7,100.3,49.6,100.3z"/>
	<path class="st49" d="M50,80.2c0.2-0.5,1-0.7,0.9-1.4c-0.1-0.9,0.3-1.2,1.1-1c0.3,0.2,0.3,0.5,0.4,0.7c0-0.3-0.2-0.5-0.4-0.8
		c-0.1-0.8,0.4-1,1-0.8c0.6,0.2,1.3,0.3,1.8,0.6c-1,1-0.7,2.9-2.2,3.6c-0.5,0.2-1.1,0.7-1.4-0.3C51.1,80.1,50.5,80.2,50,80.2z"/>
	<path class="st13" d="M55.3,82.5c0,0.6,0.4,0.7,0.9,0.5c1.3-0.5,1.7,0.2,1.8,1.3c-0.8,0.8-1.3,1.8-2.7,1.8c0.1-1.3-1.6-2.1-0.9-3.5
		l0,0C54.8,82.2,55.1,82.2,55.3,82.5z"/>
	<path class="st49" d="M54.5,82.5c0.2,1.2,1.1,2.2,0.9,3.5c-0.6-0.9-1.2-1.8-1.8-2.6c-0.2,0.3-0.5,0.5-0.9,0.4
		c-0.7,0.5-1.2-0.2-1.4-0.6c-0.4-0.9,0.7-0.2,0.9-0.7c0.3-0.7,1.1-0.5,1.8-0.5C54.2,82.2,54.3,82.3,54.5,82.5z"/>
	<path class="st50" d="M50.9,89.2c0.7-0.4,1.5-0.6,1.1-1.7c-0.2-0.4,0.2-0.8,0.6-0.8c0.6,0,0.6,0.5,0.6,0.9c0,1-0.5,1.8-1.4,2.2
		C51,90.1,51,89.6,50.9,89.2C50.9,89.1,50.9,89.2,50.9,89.2z"/>
	<path class="st51" d="M56.7,89.2c-0.5,0.2-1.1,0.4-1.6,0.6c-0.2-0.9-0.4-1.9,0.6-2.1C56.1,87.5,56.5,88.5,56.7,89.2
		C56.7,89.1,56.7,89.2,56.7,89.2z"/>
	<path class="st51" d="M52.7,83.8c0.2-0.3,0.5-0.4,0.9-0.4c-0.1,0.5,0.4,1.3-0.4,1.5C52.6,84.9,52.7,84.2,52.7,83.8z"/>
	<path class="st52" d="M54.5,99c0.7,0.5-0.2,1.3,0.4,1.8C53.1,100.6,53.9,99.8,54.5,99z"/>
	<path class="st53" d="M53.1,96.3c0.7,0.5,0.2,0.9,0,1.3C52.5,97.2,52.5,96.7,53.1,96.3z"/>
	<path class="st54" d="M67.8,5.2c0.7,0,1.6,0.5,1.4,1c-0.8,1.8,0.7,0.9,1.2,1.2c1,0.8,1.9,1.6,2.9,2.3c0.4,0.3,0.9,0.9,0.6,1.3
		c-1.3,1.5,0.2,2.3,0.7,3.3c0.2,0.4,0.8,1.9,1.2,0c0.1-0.2,0.2-0.4,0.4-0.3c0.9,0.4,0.5,1.6,1.4,2.1c0.7,0.4,1.7,0.5,0.6,1.9
		c-0.6,0.8-0.3,2.5,0.8,3.4c0.4,0.4,1,0.6,1.3,1.2c0.4,0.6,0.1,1-0.5,1.2c-2.1,0.6-1.9,2.4-2.1,4c-0.2,1.6,0.8,2.2,2.1,2.6
		c1.1,0.3,1.9,1,2.2,2c0.3,1,1.2,1.7,1.5,2.7c-0.8,0.9-1.6,0.4-2.3-0.1c-0.4-0.3-1.8-0.8-2-0.7c-0.9-0.4-1.7-1.5-2.8-0.7
		c-0.6-0.5-0.3-1.3-0.7-1.8c-0.1-0.2-0.1-0.4-0.1-0.6c0.1-0.7-0.3-1.3-0.4-2c0.4-2-0.6-3.3-2.2-4.3c-0.1-0.2-0.2-0.4-0.2-0.6
		c0.4-1.6,1.2-2.4,2.9-1.5c1.2,0.1,1.7-0.3,1.6-1.5c-0.1-1.1-0.8-1.8-1.7-2.3c-0.1,0-0.1-0.1-0.2-0.1c-4.7-1.1-4.7-1.1-3.4-5.8
		c0.1-0.3,0-0.6,0-0.9c0.1-1.5-0.8-2.2-2-2.8c-0.2-0.1-0.3-0.2-0.5-0.3c-0.6-0.4-1.2-0.6-1.8-0.8c-0.2-0.1-0.3-0.2-0.5-0.3
		c-0.1-0.2-0.2-0.3-0.3-0.5C66.4,6.3,66.8,5.6,67.8,5.2z"/>
	<path class="st6" d="M83.4,35.2c-0.7-0.7-1.7-1.1-1.7-2.5c0-0.9-1-1.6-2.2-1.9c-2.3-0.5-2.8-3.8-1.9-6c0.7-1.5,2.5-0.8,2.7-2.2
		c0.1,0,0.3,0,0.4,0c2.1,1.9,1.4,4.3-1.6,6.4c1.1-0.8,2.6,1.3,3.5-0.7c0.1-0.2,0.3-0.3,0.4-0.4c1.3-0.1,1.6,1.2,2.4,1.8
		c0.6,0.2,1.3,0.2,1.9,0.3c0.2,0.1,0.3,0.2,0.5,0.3c-0.4,1.4,0.8,3.4-0.9,4c-1.7,0.1,0.5-2.3-1.8-1.4c-0.3-0.2-0.2-0.5-0.5-0.7
		c0.1,0.3,0.3,0.5,0.5,0.7c0.7,1.5-1.8,1.3-1.3,2.7c-0.1,0.1-0.3,0.2-0.5,0.1C83.3,35.5,83.2,35.3,83.4,35.2z"/>
	<path class="st28" d="M85.2,30.2c-1-0.5-1-2-2.2-2.2c-0.4-0.3-0.6-0.1-0.8,0.2c0.2-0.1,0.4-0.5,0.8-0.2c0.2,1.8-0.7,2.2-2.3,1.7
		c-0.5-0.2-0.8-1-1.4,0c-0.3,0.5-0.5-0.3-0.6-0.5c-0.3-0.5-0.2-1.3,0.3-1.3c1.1,0,2.4-0.5,2.3-1.2c-0.2-1.3,0.3-2.8-0.6-4.1
		c0.8-1.7,3.4-1.2,4-3.1c0.3,0.2,0.9,0.5,0.9,0.5c-0.7,2,1,3,1.7,4.4c-0.1,0.4-0.1,0.7-0.1,1.1c-0.1,0.6-0.3,1.2-1,1.3
		c-0.7,0.1-0.8-0.5-1.1-0.9c-0.2-0.4-0.4-0.8-1-1c-0.6,0.8-1.5,1.4,0.1,2.3c0.8,0.4,1.3,1.2,1.3,2.2C85.6,29.7,85.4,30,85.2,30.2z"
		/>
	<path class="st28" d="M80.7,12.3c0.3,0.5,0.5,1.4,1,1.2c2.2-0.6,2,1.6,3,2.3c-0.6,0.6-1.2,0.3-1.7-0.1c-0.2-0.1-0.3-0.8-0.6-0.2
		c-0.1,0.1,0.2,0.5,0.1,0.8c-0.9,0.2-2.1,1.9-2.6-0.4C79.6,14.7,77.1,12.8,80.7,12.3z"/>
	<path class="st19" d="M82.5,16.4c-0.3-0.3-0.6-0.6-0.9-0.9c-0.2-0.3-0.6-0.8-0.1-1.1c0.4-0.3,0.8,0,1.2,0.3c0.6,0.6,0.9,1.6,2,1.3
		c0.3,0.3,0.6,0.6,0.9,0.9c-0.1,0.4-0.2,1-0.8,0.6c-1.6-1.1-1.6,0.2-1.9,1.1c0,0,0,0,0,0c-1-0.2-0.8-0.7-0.4-1.3
		C82.5,17,82.5,16.7,82.5,16.4z"/>
	<path class="st28" d="M82.5,17.3c0,0.5-0.1,1,0.4,1.3c0.1,0.4,0.7,1-0.1,1.3c-0.5,0.1-1.4,0.4-1.4-0.4c0-0.6-1.1-1.1-0.1-1.7
		C81.7,17.5,82.1,17.4,82.5,17.3z"/>
	<path class="st55" d="M93.6,75.8c-1.1,2.2-2.2,4.2-4.3,5.6c-0.4,0.3-0.7,0.7-1.1,0.6c-2.7-0.8-4.7,1.2-7.1,1.8
		c-0.1,0.1-0.2,0.1-0.3,0.2c-0.6,0-0.9-0.3-0.5-0.8c1.3-1.9,0.9-4.3,1.9-6.2c0.1-0.5,0.4-0.9,0.8-0.9c1.7,0,1.9-1.3,2.3-2.4
		c0.2-0.1,0.5-0.2,0.6,0c0.8,2,2,1.4,3.2,0.4c0.4-0.3,0.9-0.8,1.5-0.3c1.4,2.3,1.4,2.3-1.3,4.9c0.6-0.7,2.2-1.2,2.5-2.8
		c0.2-0.3,0.4-0.5,0.7-0.7c0.3-0.1,0.6-0.1,0.9,0.1c0.1,0.1,0.1,0.2,0.1,0.4C93.7,75.7,93.7,75.8,93.6,75.8z"/>
	<path class="st40" d="M87,87.4c0,0.8-0.4,0.6-0.9,0.4c-0.1-0.1-0.2-0.1-0.2-0.2c-1.7-0.9-3.9-1.2-4.8-3.3c-0.1-0.2,0-0.4,0.1-0.6
		c0,0,0,0,0,0c0.5,0.1,1.2,0,1.5,0.2c1.2,1.4,1.9,1.2,2.2-0.6c0.1-0.4,0.5-0.6,0.8-0.4c0.3,0.2,0.5,0.6,0.7,0.8
		c-2.1,1.5,1,2.1,0.6,3.3C86.9,87.2,87,87.3,87,87.4z"/>
	<path class="st28" d="M93.6,75.8c0-0.1,0-0.3,0-0.4c1.4-1.3,1.9-0.5,2.2,0.9c-0.3,0.4-0.6,0.9-0.9,1.3C94.5,77,93.7,76.6,93.6,75.8
		z"/>
	<path class="st56" d="M45.1,54.3c-0.3,0-0.6,0-0.9,0c-0.1-0.7-0.3-1.5-0.4-2.2c0.8-0.7,0.2-1.8,0.8-2.6c0.7-0.8,0.9-2.1,2.4-1.3
		c0.3,0.1,0.6,0,0.7-0.3c0.1-0.3-0.1-0.6-0.4-0.7c-0.8-0.2-1.2-0.5-0.6-1.3c0.2-0.9-0.2-1.7-0.4-2.6c-0.3-1.4,0-2.6,1.1-3.6
		c1.4-1.4,1.4-3.3,0.1-4.6c-0.1-0.1-1,0.5-1.5,0.1c0.1-0.7,0.3-1.5,0.4-2.2c0.8-0.8,1.9-1.4,2.2-2.7c0.3-0.2,0.6,0,0.8,0.2
		c0.2,0.3,0.4,0.7,0.5,1.1c0,0.2,0,0.4,0,0.6c-0.1,0.3-0.2,0.6-0.3,0.8c0,0.6,0.3,0.7,0.8,0.7c1.1,0,1.6,0.7,1.8,1.7
		c0.2,0.9,0.5,1.7,1.1,2.4c0.8,1,0.6,1.8-0.8,1.6c-1.6-0.2-2.5,0.1-3.2,1.8c-0.5,1.3-1,2.4-0.1,3.7c0.6,0.9,0.6,2,0.7,3
		c0.1,0.9-0.3,1.7-1.2,1.9C47.2,50,47.3,51,47.3,52c-0.1,0.6-0.3,1.2-0.5,1.8c-0.5,0.8-1,0.6-1.6,0.1c-0.2-0.1-0.2-0.3-0.2-0.5
		c-0.1,0.1,0,0.3,0,0.4c0.1,0.1,0.1,0.2,0.1,0.3C45.2,54.3,45.1,54.3,45.1,54.3z"/>
	<path class="st29" d="M49.1,30.7c-0.2-0.1-0.3-0.3-0.5-0.4c-0.1-0.1-0.3-0.3-0.4-0.4c-0.2-0.5,0.2-1.2-0.3-1.7
		c-1.3-1.1-0.6-2.2-0.2-3.3c0-0.1,0-0.3,0-0.4c0.8-0.5,1.4-1,1.5-2.1c0.1-2.5,1.3-4.8,1.9-7.2c0.4-1.5,1.3-2,2.5-0.5
		c0.1,0.2,0.1,0.4,0.2,0.6c-1.1,1.7-0.5,3.8-1.1,5.7c-0.1,0.4,0,0.9-0.2,1.3c-1,1.9-1,1.9,1.1,3c1.9,0.7,1.9,0.7,0.6,2.4
		c-1.1,0.4-1.5,1.5-2.3,2.2C51.1,30.7,50.4,31.5,49.1,30.7z"/>
	<path class="st57" d="M53.6,15c-0.9-1.1-1.8-1.2-2,0.4c-0.3,2.5-1.9,4.7-1.8,7.4c0,1-0.4,2.3-2,1.6c-0.2-0.5-0.8-1.2-0.2-1.6
		c1.2-1.1,0.7-2.5,0.7-3.7c1.9-2.2,1.4-5.4,3.2-7.6c0.8,0,1.6,0.1,2.1,0.8C53.7,13.2,54.3,14.1,53.6,15z"/>
	<path class="st57" d="M47.8,24.8c-0.3,1.3,0.2,2.5,0.8,3.5c0.5,0.8,0,1-0.3,1.4c-0.3,0.4-0.7,0.7-1,1.1
		C47.8,28.9,44.5,26.5,47.8,24.8z"/>
	<path class="st58" d="M45.9,87c0.2,1,1.6,1.8,0.5,3c-0.3,0-0.6,0-0.8,0.1c-0.5-0.3-0.1-0.6,0-0.9c0.5-0.3,0.4-0.7,0.1-1
		C45.1,87.6,45.3,87.2,45.9,87z"/>
	<path class="st44" d="M50,96.7c0.1,0.4,1.7,0.9,0,1.3c-0.6,0-0.9-0.5-1.3-0.9c-0.7-1.2,0.4-0.7,0.8-0.9
		C49.8,96.3,49.8,96.6,50,96.7z"/>
	<path class="st44" d="M49.1,99c0,0.6-0.4,0.8-0.9,0.9c0-0.2,0-0.4,0-0.5c-0.3-0.2-0.5-0.5-0.4-0.9c0.3-0.3,0.5-0.6,0.8-0.8
		C49.3,97.9,49.6,98.3,49.1,99z"/>
	<path class="st49" d="M50,96.7c-0.2-0.2-0.3-0.3-0.5-0.5c-0.1-0.6-0.2-1.2-0.4-1.7c0.4,0,0.9,0,1.3,0C50.3,95.3,50.2,96,50,96.7z"
		/>
	<path d="M47.8,98.5c0.3,0.2,0.5,0.5,0.4,0.9c-0.6,0-1.5,0.3-1.4-0.7C46.8,98.1,47.4,98.4,47.8,98.5z"/>
	<path class="st49" d="M49.1,99c-0.2-0.5-0.3-0.9-0.5-1.4c0-0.1,0-0.3,0.1-0.4c0.7,0,1.1,0.3,1.3,0.9c-0.2,0.3-0.3,0.6-0.5,0.8
		C49.4,99,49.3,99,49.1,99z"/>
	<path class="st59" d="M46.9,90.9c0.2-0.5,0.5-0.9,1.3-1.1c-0.2,0.7-0.2,1.4-0.8,2C47.2,91.5,47,91.2,46.9,90.9z"/>
	<path class="st28" d="M99.9,49.9c0.1,0.9,0.4,1.4,1.3,0.9c2,0.2,1.1,2.1,1.8,3.1c-1,1.7,0.2,3.7-0.9,5.4c-0.4-0.4-0.9-0.9-0.7-1.7
		c-0.4,0.8,0.2,1.2,0.7,1.7c0,0.4,0,0.9,0,1.3c-0.9,0-0.9,0.7-0.9,1.3c-0.4,0.4-1.2,0.4-1.3,1.1c-0.1,0.5-1.5,0.8,0,1.6
		c1,0.6-0.1,2.3-2.1,3.2c-0.6-0.2-0.9-0.7-0.7-1.2c-0.2,0.5-0.1,1.2-0.5,1.7c-0.5,0.7-1,1.1-1.6,0.2c-0.1-0.2-0.1-0.4-0.1-0.6
		c0.8-2-0.2-3.6-1.2-5.3c1.5-0.5,2.1-1.7,2.5-3.1c0.2-0.2,0.5-0.4,0.8-0.5c1.3-0.2,2.8,0,1.8-2.1c-0.4-0.9,1-1.9,0.2-2.9
		C97.7,51.5,97.9,50.5,99.9,49.9z"/>
	<path class="st33" d="M97.7,67.7c0.4-0.4,0.9-0.7,1.3-1.2c0.5-0.5,1.3-1.1,0.6-1.9c-0.8-0.8-0.8,1-1.7,0.5c0.1-1.3,1.7-1.8,1.7-3.3
		c0-0.6,1,0.2,1.5,0c-0.5,2.9-0.7,5.9-2.7,8.4c-0.5,0.7-0.9,1.4-1.8,1.4c0-0.1-0.1-0.2-0.1-0.3c0.1-0.7,0.2-1.5,0.2-2.2
		C96.9,68.6,97.1,68.1,97.7,67.7z"/>
	<path class="st60" d="M95.9,76.2c-0.7-0.5-1.1-1.7-2.2-0.9c-0.3,0-0.6,0-0.9,0c-0.1-0.1-0.1-0.3,0-0.4c1.4-0.9,2.7-2.1,4-3.2
		c0,0,0,0,0,0c0.1,0.9,0.3,1.8,0.4,2.7c0,0.1,0,0.3,0,0.4C96.8,75.3,96.3,75.8,95.9,76.2z"/>
	<path class="st40" d="M84.7,89.6c-1.7,1.1-3.4,2.1-5.3,2.7c-0.9,0.7-1.9,1.2-3,1.2c-0.8,0-1.7-0.1-2-1c-0.3-0.8,0.4-1.3,1.1-1.7
		c0.8-0.4,1.7,0,2.5-0.3c1.8-0.4,3.5-0.8,3.9-3c0.1-0.4,0.6-0.8,0.8-0.5c1,1.1,2.4,0.4,3.4,1l0,0c-0.3,0.3-0.6,0.6-0.9,0.9
		C85.2,89.1,85,89.4,84.7,89.6L84.7,89.6z"/>
	<path class="st18" d="M84.7,89.6c0-0.4,0.1-0.7,0.5-0.9c0.4,0,1-0.1,1,0.3C86.1,89.8,85.3,89.5,84.7,89.6z"/>
	<path class="st61" d="M58.5,99c-0.1-1.7,0.6-3.5-0.2-5.2c-0.2-0.3-0.2-1.1,0.6-1.1c0.2-0.3,0.1-0.7,0.4-0.9
		c0.2-0.7,0.3-1.5,0.5-2.2c1.2,0,0.7,1.5,1.6,1.8c1.4,1.1,2.2,2.2,0.5,3.7c0.8,1.4-0.7,1.8-1.2,2.6c-0.3,0.3,0.7,2.6-1.1,0.8
		C59.5,98.3,58.9,98.8,58.5,99z"/>
	<path class="st62" d="M60.7,97.6c0.8-1.5,1.6-3,1.4-4.8c-0.1-0.7-0.7-0.6-1-1c-0.4-0.5-0.5-1,0-1.4c0.8-0.6,1.5-0.1,2.2,0.4
		c1.1,1.1,1.9,2.3,0.6,3.8c-0.3,0.3,0.1,0.5,0.3,0.7c0.3,0.5,0.3,0.9,0,1.4c0,0,0,0,0,0C63.1,97.1,61.7,96.8,60.7,97.6z"/>
	<path class="st63" d="M62.9,100.8c-0.3,0-0.6,0-0.9,0c-0.3,0.1-0.6,0.4-1,0c0.7-0.3,0.6-1.9,1.9-1.4c0,0.3,0,0.6,0,0.9
		c0.2,0.1,0.2,0.2,0.1,0.3C63,100.7,63,100.8,62.9,100.8z"/>
	<path class="st49" d="M57.6,1.7c0.6,0,1.2,0,1.8,0c0,2.9,2.8,6.2,5.3,6.2c0.4,0.4,0.5,0.8,0.6,1.4c0.2,1.2-0.4,2.4-1.1,2.9
		c-1.1,0.8-0.6-1.4-1.6-1.2c-0.1,0.4,0.1,0.7,0.1,1.1c0,0.2-0.1,0.4-0.2,0.5c-1.7,0.7-1.7,2.6-2.8,3.7c-0.5,0.4-1,0.8-1.7,0.8
		c-0.8-0.3-1.6-0.5-2-1.4c0-0.2,0-0.4,0-0.6c1.1-1.2,2.6-1.8,3.7-3.3c-1.6-0.5-0.9-1.7-0.8-2.9C58.2,6.5,56.7,4.3,57.6,1.7z"/>
	<path class="st64" d="M62.5,12.4c0-0.1,0-0.3,0-0.4c0.4-0.7-0.4-0.9-0.5-1.3c1.6-0.7,1.6-0.7,1.8,1.3c1.1-1.2,1.1-2.6,0.8-4
		c0.4,0,0.9,0,1.3,0c0.4-0.4,0.9-0.4,1.3,0l0,0c0.6,0.5,1.5,0.5,2.2,0.9l0,0c0.4,0.5,1.8,0.6,1.4,1.4c-0.5,1-1,2.1-2.2,2.6
		c-1.2,0.4-2.3,0.9-3.5,1.1c-0.6,0.1-0.8,0.8-1.5,0.9c-0.5-0.1-0.8-0.5-1.1-0.9C62.9,13.3,62.9,12.8,62.5,12.4z"/>
	<path class="st65" d="M67.8,5.2c-0.4,0.7-1.2,1.3-0.5,2.2c-0.9,0.3-1.6,0.1-1.8-0.9c0.1-1-0.9-1.2-1.3-1.8c0.7-0.4-0.6-1.9,1-1.7
		C65.9,4,67.3,4,67.8,5.2z"/>
	<path class="st30" d="M65.6,6.5c0.5,0.6,1.1,0.8,1.8,0.9c0,0.1,0,0.3,0,0.4c-0.4,0-0.9,0-1.3,0C66,7.4,64.7,7.4,65.6,6.5z"/>
	<path class="st12" d="M64.3,96.7c0-0.5,0.1-1-0.4-1.3c-0.3-1.4,1-1.7,1.6-2.4c0.2-0.1,0.4-0.1,0.6-0.1c2.5,1.1,2.6,1.6,0.6,3.3
		c-0.3,0.2-0.5,0.5-0.8,0.8c-0.1,0.1-0.2,0.1-0.3,0.2c-0.7-0.4-0.3-1.2-0.6-1.8C64.4,95.7,64.9,96.5,64.3,96.7z"/>
	<path class="st26" d="M68.3,97.2c-0.6,1.6-1.8,0.2-2.7,0.5c0-0.1,0-0.3,0-0.4c0,0,0,0,0,0C66.5,95.5,67.4,96.1,68.3,97.2z"/>
	<path class="st12" d="M62.9,100.8c0-0.1,0-0.3,0-0.4c0.3-0.1,0.7-0.2,1-0.2c0,0,0.1,0.3,0.1,0.3C63.8,100.9,63.3,100.7,62.9,100.8z
		"/>
	<path class="st48" d="M58,16.8c0.4-0.3,0.9-0.6,1.3-0.9c0.5,0.6,0.2,1.1-0.1,1.6c-0.7,1.7-0.7,1.7-0.4,3.4c0.5-0.8,0.9-1.5,1.8-1.8
		c0.7-0.2,1.4-0.5,2.1-0.3c0.8,0.5,0.9,1,0.2,1.6c-0.4,0.3-0.9,0.4-0.7,1.1c0.7,1.7,0.5,2.9-1.2,3.4c-1.1,0.3-0.9,0.9-1.1,1.6
		c-1.3,0.8-1.4-1.2-2.4-1.1c-0.9,0.8-0.6,1.8-0.7,2.8c-0.1,0.5-0.3,1-0.9,1.2c-0.2,0-0.4-0.1-0.5-0.3c-0.3-0.7-0.6-1.2-1.3-1.4
		c-0.1-0.1-0.1-0.1-0.2-0.2c-0.1-0.6,1.7-1.7-0.4-1.8c-1.2-1.3-1.1-3,0.5-4.1c0.8-0.5,0.9-1,0.7-1.7c-0.3-1.7-0.3-3.4-1.2-4.9
		c0,0,0,0,0,0c-0.2-1-0.3-2.1-0.5-3.1c0.3-1.3-0.2-3,2.1-3.3c1.4-0.2,0.9-1.9,0.4-3c-0.3-0.8-1.4-1.1-1.2-2.2
		c0.5-0.3,0.9-0.5,1.4-0.8c1,0.4,0.9-0.6,1.3-0.9c0.2,0,0.3,0,0.5,0c0.1,0.6,0.5,1.1,0.3,2c-0.4,1.8,1.3,3.3,1.4,5.1
		c-0.1,0.7-1.1,1.1-0.7,2c0.2,0.6-0.4,0.9-0.9,1.1c-2,0.6-2,0.6-1.7,2.8c0,0.1,0.1,0.3,0.1,0.4c0,0.1,0,0.3,0,0.4
		c-0.4,0.8,0.7,1.3,0.3,2.2C57,17.2,57.4,16.7,58,16.8z"/>
	<path class="st66" d="M54.4,3.4c1.1,1.3,2.6,2.2,2.3,4.3c-0.2,1.2-0.5,2.3-2.1,1.7C54,9.1,54,9.4,54,9.8c0.1,0.9-0.6,1.5-0.9,2.2
		c-0.8,0.6-1.3,0.1-1.7-0.5c0-0.1,0-0.3,0-0.4c1-1.2,0.8-3,2.3-3.9c0.5-0.3,0.2-1,0-1.4c-0.3-0.6-0.5-1.2-0.1-1.9
		C53.9,3.7,54.1,3.6,54.4,3.4z"/>
	<path class="st38" d="M53.6,3.9C53.4,4.6,54,5,54.3,5.6c0.5,0.9,0.8,1.9-0.6,2.4c-0.8,0.3-1.1,0.9-1,1.7c0.1,1-0.4,1.3-1.3,1.3
		C51.5,9.9,50,9.8,50,8.8c1.3-0.7,3.6-0.7,2.5-3.3C52.4,5.1,53.2,4.4,53.6,3.9z"/>
	<path class="st49" d="M57.1,1.6C57,2.2,57.7,2.8,57,3.2c-0.6,0.3-0.9-0.2-1.2-0.6C56.2,2.2,56.4,1.5,57.1,1.6z"/>
	<path class="st67" d="M103,53.8c-1.1-0.7-0.4-2.5-1.8-3.1c0.5-0.4,0.4-0.8,0.3-1.3c-0.2-1.2,0.2-1.8,1.5-1.4
		c0.4,1.1,0.6,2.3,0.4,3.5C102.7,52.2,103.1,53.1,103,53.8z"/>
	<path class="st68" d="M75.8,90.9c-0.5,0.4-1.5,0.8-1.1,1.4c0.4,0.6,1.6,0.9,2.3,0.5c0.8-0.4,1.5-0.6,2.3-0.6c0.3,0.4,0.3,0.9,0,1.3
		c-0.4,1-1.4,1.2-2.3,1.6c-1.2,0.7-2.5,0.5-3.9,0.4c-1.3,0.2-2.7,0.5-4-0.2c-0.3-0.2-0.5-0.4-0.6-0.8c0.1-0.7,0.5-1.2,1.1-1.6
		c0.2-0.5,0.4,1.2,1-0.1c0.8-2,2.4-3.5,4.7-3.8c0.9-0.1,2-0.2,2.2,0.8C77.8,91.4,76.2,90.2,75.8,90.9z"/>
	<path class="st69" d="M77.1,95c0.4-1,1.5-0.8,2.3-1.4c0.2,0.2,0.3,0.3,0.5,0.5c-0.6,1-1.1,2.3-2.7,1.3C77,95.3,77,95.2,77,95.1
		C77,95,77.1,95,77.1,95z"/>
	<path class="st6" d="M77.1,95c0,0.1,0,0.3,0,0.4c-0.7,0.4-1.8,0.6-1.8,1.8C73.8,98.4,72,99,70,99.4c0-0.3,0-0.6,0-0.9
		c0-0.6,1.6-0.7,0.5-1.8c-0.6-0.5-0.1-1.1,0.7-1.1c0.8,0,1.4-0.2,2-0.7C74.5,94.9,75.8,95.4,77.1,95z"/>
	<path class="st26" d="M73.2,95c-0.4,1.2-1.7,0.7-2.4,1.1c-0.1,0.8,0.8,0.7,1.2,1.3c-0.5,0.5-1,1.1-1.9,1.1c-1.2,0.3-0.7-1-1.3-1.4
		c-0.6-0.9-0.3-1.6,0.4-2.2C70.5,95.5,71.8,95.5,73.2,95z"/>
	<path class="st14" d="M69.2,95c-0.1,0.7-0.3,1.5-0.4,2.2c-0.1,0-0.3,0-0.4,0c-0.9-0.1-1.8-0.7-2.7,0c0-0.4-0.1-1,0.4-1.2
		c2.2-0.9,1.7-1.9,0.1-2.8c-0.3-0.4-0.4-0.8-0.2-1.2c1-0.6,1.1,0.6,1.7,0.9c0.5,0.5,1.4,0.7,1.1,1.7C68.9,94.7,69,94.8,69.2,95z"/>
	<path class="st70" d="M43.8,85.6c-0.6-0.4-1.2,0-1.8,0c0.1-1.6-1-3.5,1.3-4.5c0.2-0.2,0.4-0.2,0.6-0.1c0.4,0.4,0.4,0.9,0.3,1.4
		c-0.1,0.2-0.2,0.3-0.3,0.5c-0.4,0.5-0.4,1.1-0.1,1.7C44.2,85,44.2,85.3,43.8,85.6z"/>
	<path class="st56" d="M45.1,80.7c1.4,1.3,1.7,3.8,0.5,4.5c0-0.2,0-0.3,0-0.5c-0.2-0.2-0.3-0.4-0.4-0.7c0-0.3-0.1-0.5-0.2-0.8
		c0-0.2-0.1-0.3-0.1-0.5c0-0.4,0-0.9-0.1-1.3C44.8,81.1,44.9,80.9,45.1,80.7z"/>
	<path class="st71" d="M43.8,84.7c-0.3-0.4-0.5-0.8-0.8-1.3c-0.2-0.3-0.6-0.6,0-0.8c0.2-0.1,0.5,0.2,0.8,0.3
		c0.3,0.3,0.3,0.6,0.1,0.9C43.8,84.1,43.8,84.4,43.8,84.7z"/>
	<path class="st44" d="M43.8,83.8c0-0.3,0-0.6-0.1-0.9c0,0,0.1,0,0.1,0c0.4-0.3,0.8-0.1,1.3,0c0.4,0.2,0.4,0.5,0.4,0.9
		c-0.3,0.2-0.6,0.2-0.8,0C44.4,83.8,44.1,83.8,43.8,83.8z"/>
	<path class="st72" d="M44.7,83.8c0.3,0,0.6,0,0.8,0c0,0.3,0,0.6,0,0.8C44.4,85.2,44.7,84.3,44.7,83.8z"/>
	<path class="st73" d="M41.1,74c2.7-1.5,2.2-4.2,1.7-6.4C42,64.8,43.2,63,44.7,61c1.3,0.2,1.1,1.2,1.3,2.1c0,0.2-0.1,0.4-0.1,0.6
		c-0.2,0.5-0.7,0.7-1.1,1c-0.6,0.3-0.3,0.9-0.2,1.4c0.1,1.1,0.7,0.1,1.1,0.2c0.3,0.1,0.5,0.3,0.7,0.5c0.4,1.8-1,3.2-0.9,4.9
		c-0.8,1.8-2.5,3.3-1.6,5.6c0.3,0.7-0.2,1-0.9,0.7c-0.5-0.2-0.9-0.5-1.4-0.1c-0.3,0-0.6,0.8-0.8,0.3C40.3,76.9,39.7,75.3,41.1,74z"
		/>
	<path class="st74" d="M41.5,78c0.4-1.9,1.4,0.3,1.9-0.3c-0.8-2.2-0.2-4.5,1.7-6c0.4-0.2,0.6,0.1,0.7,0.3c0.3,0.8,0.8,1.5,1.7,1.7
		c0.1,0.1,0.2,0.1,0.2,0.2c-0.1,0.5-0.3,0.9-0.4,1.4c0.1,0.4,0,0.5-0.4,0.5c-1.1-1.5-2.1-1.1-2.4,0.4c-0.2,1.4-0.9,3,0.1,4.4
		c-0.2,0.4-0.4,0.7-0.9,0.5l-0.2,0c0,0-0.2,0-0.2,0c0-0.5,0.1-1-0.4-1.4c-0.5-0.4,0.3-2.1-1.3-1.3C41.5,78.3,41.5,78.2,41.5,78z"/>
	<path class="st75" d="M46,35.1c1.5-1,2.2,0,2.7,1.1c0.7,1.4,0.8,2.8-0.8,3.7c-2.5,1.3-0.5,3.3-0.8,5c-0.1,0.3,0.1,0.7-0.2,1
		c-0.2,0.2-0.3,0.2-0.4,0c-1.5-2.7-1.1-5.1,0.9-7.4C48.7,36.7,46.9,36.1,46,35.1z"/>
	<path class="st38" d="M46.4,45.8c0.1,0,0.3,0,0.4,0c0,0.3-0.5,0.8,0.2,0.7c0.5,0,1.1-0.6,1.3,0.1c0.2,0.6,0.1,1.5-0.2,2.1
		c-0.3,0.5-1,0.2-1.6,0c-0.7-0.3-1.8,1-2,2.4c-0.1,0.6-0.2,1-0.8,1c-0.1-1-0.3-2.1-0.2-3.1c0.1-0.8,0-2.2,1.7-1.7
		C46.5,47.6,45.6,46,46.4,45.8z"/>
	<path class="st74" d="M45.6,63.3c-0.2-0.8-0.3-1.6-0.9-2.2c0-0.1,0-0.3,0-0.4c0.8-2,0.6-4.2,0.5-6.3c0-0.1,0-0.3,0-0.4h0
		c0.4-0.1,0.9,0.5,1.3,0c0.9-0.7,1.6,0.5,2.6,0.3c0.8-0.2,1.5,1.6,2,2.7c0,0.3-0.2,0.6-0.4,0.8c-0.9,0.5-1.6,1.1-2,2.2
		c-0.1,0.4-0.3,1.1-1,0.7c-0.1-0.2-0.1-0.4,0-0.7c-0.2,0.1,0,0.3-0.1,0.5c0,0.4,0.4,0.7,0.5,1.1c0.7,2.7,0.7,5.5,0.9,8.2
		c0.1,0.3,0.1,0.6,0,0.9c-0.1,0.5-0.3,1-0.5,1.4c-0.1,0.2-0.3,0.3-0.5,0.3c-0.5,0-1-0.1-1.5-0.2c-1.3-0.6-1.5-1.7-0.8-2.8
		C46.9,67.3,45.8,65.3,45.6,63.3z"/>
	<path class="st60" d="M85.2,29.3c-0.2-1.2-0.9-1.9-1.9-2.2c-1.3-0.3-1.7-0.6-0.3-1.5c0.5-0.4,0.8-1.2,1.1-1.8
		c0.1,0.1,0.3,0.1,0.4,0.2c0.5,0.8,1.1,2.2,1.6,2.3c1.5,0.5-0.2-2,1.3-1.9c0.4-0.2,0.4-0.5,0.4-0.9c1.1,0.7,1.5,1.8,1.6,2.9
		c0,0.7-0.1,1.5,0.6,2c-0.3,0.6-0.6,1.1-0.8,1.8c-0.3,0.9-0.9,0.6-1.4,0c-0.1,0-0.3,0-0.4,0C86.7,29.7,85.8,30,85.2,29.3z"/>
	<path class="st76" d="M89.1,44.5c0.5,0.9,0.9,1.8,1.4,2.7c-0.3,0.7-0.9,0.9-1.6,0.7c-0.5-0.2-0.6-1.1-1.4-0.9
		c-0.5,0.2-0.3,0.8-0.3,1.2c-0.1,0.6-0.2,1.2-0.4,1.8c-0.8,0.7-1.3,1.8-2.4,2.3c-0.4-0.2-0.6-0.6-0.7-1c0-1.1,0.8-1.9,1.1-2.9
		c0.3-0.8,0.6-1.7,0-2.5c-0.6-0.2-1.4,0-1.6-0.9c0.3-1.8,1.9-2.3,3.1-3.3c1.5-0.1,1.4,1.1,1.6,2C88.1,44.2,88.6,44.5,89.1,44.5z"/>
	<path class="st77" d="M87.9,43.6c-0.6-0.5-0.5-1.9-1.7-1.8C85,42,84.5,41,83.6,40.7c-0.8-0.7-1.1-1.6-1.2-2.6c-0.1-1-0.3-2.1,1-2.4
		c0.1,0,0.3,0,0.4,0c0.4,0.3,0.9,0.6,1.3,0.9c1.7,0.3,2.4,1.4,2.2,3.1C86.8,41,89.1,42.1,87.9,43.6z"/>
	<path class="st78" d="M95.4,34.2c0.5,0.8,1.6,1.2,1.7,2.2c-0.5,0.3-1,0-1.4-0.3c-2-0.8-3.9,0.1-4.4,1.9c0,0.2-0.1,0.4-0.3,0.6
		c-0.2,0.1-0.4,0.1-0.6,0c0.1-0.7-0.6-1.2-0.8-1.8c-0.8-2.3,0.8-4.6,3.2-4.6C94.3,32.3,94.6,33.6,95.4,34.2z"/>
	<path class="st4" d="M90.1,28.4c-0.7,0-1.5-0.1-1.3-1c0.4-1.5-0.6-2.6-0.9-3.9c0-0.9,0-1.9,0-3c1.2,0.4,1.3,1.4,1.7,2.1
		c0.3,0.6,0.2,1.4,1.4,1.1c0.8-0.2,0.5,1.2,0.4,1.3c-1.1,0.7-0.8,2-1.3,3C90.1,28.1,90.1,28.3,90.1,28.4z"/>
	<path class="st34" d="M87.4,39.6c-0.4-1.3-1.1-2.3-2.2-3.1c0.1-0.5-0.1-1.3,0.6-1.1c1,0.3,2.8-0.2,2.9,1.3c0.1,1.8,0.7,3.4,1.7,5.4
		C89.1,41.1,87.7,41,87.4,39.6z"/>
	<path class="st76" d="M90.5,38.7c0.2,0,0.3,0,0.5,0c1.7,0.2,1.4,1.7,1.9,2.7c0.1,0.2,0.2,0.3,0.3,0.5c0.2,0.6,0.6,1.1,0.1,1.7
		c-0.1,0-0.3,0-0.4,0c-0.6-0.9-1.3-1.7-1.9-2.6C90.4,40.3,89.6,39.6,90.5,38.7z"/>
	<path class="st79" d="M93.2,43.6c-0.2-0.6-0.3-1.2-0.5-1.8c0.3-0.2,0.4-0.5,0.5-0.9c-0.1,0.3-0.2,0.6-0.5,0.9
		c-1.2-0.7-0.5-2.5-1.8-3.1c0,0,0,0,0,0c0.9-0.8,1.7-1.7,2.6-2.3c0.6-0.5,1.4-0.8,2.3-0.3c0.4,0.2,0.9,0.3,1.3,0.5
		c0.3,0.6,0.6,1.2,0.9,1.8c0,0.1,0,0.3,0.1,0.4c0,1.6-0.8,3-1.5,4.4C96,44.3,94.5,44.5,93.2,43.6z"/>
	<path class="st80" d="M91.4,48.1c0.4,1.2,1.7,1.6,2.2,2.7c0.5,0.2,1.1,0.2,1.1,1c-0.1,0.9-0.2,1.8-1,2.4c-0.4,0.2-0.8,0.3-1.2,0.4
		c-0.3,0.1-0.5,0.3-0.8,0.3c-1,0.1-2.2,1.2-3,0.1c-0.8-1.1-0.6-2.6-0.1-3.8c0.3-0.8,0.8-1.6,1.2-2.4C90.1,48.1,90.6,47.6,91.4,48.1z
		"/>
	<path class="st39" d="M96.8,50.3c-0.7-0.2,0.1-2.8-1.8-1.1c-0.2,0.2-1.5-1.2-2.5-1.7c-0.5-0.3-0.2-1-0.2-1.6c0-0.1,0.3-0.3,0.5-0.4
		c0.3-0.1,0.5,0.1,0.4,0.4c-0.2,1.1,0.3,1.1,1.1,0.8c2.4-0.8,3.1,0.7,3.5,2.6c0.4,0.3,0.4,0.7,0.2,1.1c-0.3,0.5-0.7,0.3-1,0
		C96.8,50.5,96.8,50.4,96.8,50.3z"/>
	<path class="st81" d="M97.2,59.7c-0.3,0-0.6,0-0.9,0c-0.3,0.1-0.6,0-0.8-0.2c-0.3-0.3-0.6-0.5-0.7-1c1.4-2.2,0.1-4.5,0.3-6.8
		c0-0.2,0.1-0.4,0.3-0.5c0.4-0.3,0.6-1,1.3-0.9c0,0,0,0,0,0c0.4,0.5,0.6,1.1,0.8,1.8c0.2,0.7,0.5,1.4,0.5,2.2
		C97.1,56,97.4,57.9,97.2,59.7z"/>
	<path class="st81" d="M97.6,50.7c0-0.4,0-0.9,0-1.3c0.1-0.2,0.3-0.3,0.4-0.5c0.5-0.6,0.7-1.4,1.4-1.8c0.7,0,0.8,0.6,1.3,0.9
		c0.1,0.8-0.6,1.2-0.9,1.8c-2,1.1-1.3,2.6-0.5,4c0.3,0.5,0.4,1-0.1,1.3c-0.6,0.3-1-0.3-1.3-0.8c-0.3-1-0.3-2-0.6-3
		C97.4,51.1,97.5,50.9,97.6,50.7z"/>
	<path class="st82" d="M91.4,48.1c-0.6,0-1.1,0.3-1.3,0.9c-0.6,0.4-1.2,0.7-1.7,1.3c-0.8,1-1.4,0.6-1.9-0.4c0.1-0.6-0.2-1.3,0.5-1.8
		c0.6-0.3,1.2-0.4,1.8-0.4c0.6,0.1,1.2-0.1,1.8-0.4C90.8,47.5,91.1,47.8,91.4,48.1z"/>
	<path class="st83" d="M99.5,47.2c0.1,1-0.5,1.5-1.4,1.8c-0.1-0.8,0.1-1.6,0.4-2.3c0.1-0.3,0.2-0.8,0.7-0.5
		C99.4,46.3,99.4,46.8,99.5,47.2z"/>
	<path class="st39" d="M96.2,45.3c0,0.5-0.5,0.7-0.9,0.7c-0.2,0-0.5-0.3-0.6-0.5c-0.1-0.5,0.2-0.8,0.7-0.8
		C95.8,44.6,96.1,44.9,96.2,45.3z"/>
	<path class="st61" d="M95.5,51.2c0,0.2,0,0.3,0,0.5c0.1,0.9-0.4,0.4-0.8,0.3c-0.1-0.1-0.1-0.2-0.2-0.3c-0.3-0.3-0.6-0.6-0.9-0.9
		C94.4,50.2,95,50.4,95.5,51.2z"/>
	<path class="st84" d="M98.5,43.2c0,0.3,0,0.6-0.4,0.6c-0.4,0-0.4-0.4-0.4-0.6c0-0.3,0-0.6,0.4-0.6C98.5,42.5,98.5,42.9,98.5,43.2z"
		/>
	<path class="st85" d="M69.1,81.6c-0.1-0.7-0.2-1.5-1-1.7c-1.9-0.6,0.6-0.6,0.1-1c0.4-0.3,0.6-0.8,0.8-1.2c-0.3,0.4-0.4,0.9-0.8,1.2
		c-0.4,0-0.7,0-1.1,0c-1.6-0.1-2.4-0.6-1.1-2.3c0.5-0.6,1.2-1.2,0.8-2.3c-0.7,0.6-1.3,1.2-2,1.8c0.9-1.8-1.2-1-1.5-1.8
		c0.1-0.5,0.3-0.8,0.7-1c2.3-1.2,3.4-3,2.5-5.6c0-0.1,0.1-0.3,0.1-0.4c1.3-0.4,1.2-2.5,2.9-2.4c0.1,0.2,0.3,0.3,0.3,0.5
		c0.2,1.2-0.2,2.5,0.2,3.7c0.3,0.9-0.7,1.2-1.1,1.7c-0.6,0.7-2,1.6,0.3,1.9c1,0.2,1.3,1,1.4,2c0.1,0.8,0.5,1.7,1.5,0.8
		c0.3-0.3,0.6-0.7,1.1-0.5c0.6,0.3,0.8,1,0.6,1.5c-0.5,1.4-0.2,2.9-1,4.2C71.8,81.6,70.6,82.4,69.1,81.6z"/>
	<path class="st86" d="M62.9,74.4c-0.4,0.4-1.5-1.2-1.2,0.1c0.5,2.3-1.3,2.3-2.3,3.1c-0.2-0.1-0.3-0.3-0.4-0.5
		c0.3-2.1-1.3-3.2-2.7-3.7c-1.5-0.5-1.7-1.3-1.8-2.5c0-0.2,0.1-0.4,0.2-0.6c0.2-0.1,0.4-0.2,0.6-0.2c1.1,0.6,1.5-0.2,1.9-1
		c0.3-0.5,0.4-1.2,1.1-1.2c0.8,0,0.9,0.8,1.1,1.4c0.6,1.2,1.8,0.7,2.7,0.8c0.3,0.1,0.4,0.7,0.9,0.4c0.6-0.5,0.4-1.3,0.7-1.9
		c0.2-0.4,0.3-0.9,0.9-0.8c0.5,0.1,0.6,0.5,0.7,1c0,0.3,0,0.6-0.1,0.9c-0.1,0.5-0.2,1-0.3,1.5C64.7,72.7,63.5,73.3,62.9,74.4z"/>
	<path class="st76" d="M65.1,70c0-0.3,0-0.6,0-0.9c0.2-1.5-1.3-2.3-1.4-3.7c0-0.6-0.5-1.2-0.1-1.7c1.2-1.5,0.4-2.6-0.5-3.7
		c-0.5-0.6,0.3-1.1,0.2-1.8c0.7-0.9,1.4-0.1,2.2-0.1c0.2,0.1,0.4,0.2,0.5,0.4c0.4,0.5,0.6,1.1,0.6,1.8c-0.5,2,0,3.9,0.8,5.7
		c0.1,0.5,0,0.9-0.4,1.3c0,0.6,0.1,1.1,0.7,1.5c0.5,0.3,0.7,0.9,0.2,1.3c-0.9,0.8-1.1,1.9-1.6,2.9c-0.4,0.8-2,0.7-2.9,1.5
		c-0.2,0-0.3,0-0.5,0c-0.6-1.8,1.6-1.8,1.8-3.1C65,70.9,65.2,70.4,65.1,70z"/>
	<path class="st14" d="M69.1,81.6c1.3-0.3,2.7-0.6,4-0.9c0.5,0.4,0.5,1,0.4,1.6c-0.5,1.2-1.4,2.2-2,3.3c-0.2,0.2-0.5,0.4-0.5,0.7
		c-0.3,2-1.4,2.3-3.1,1.7c-0.4-0.1-0.7,0.1-1,0.3c-0.5,0.2-1,0.4-1.3-0.1c-0.3-0.6,0-0.9,0.5-1.2c2.1-0.3,2.6-1.9,3.1-3.7
		c-1.7,0.6-3.2,1-4.7-0.1C65.7,81.4,67.7,82.5,69.1,81.6z"/>
	<path class="st87" d="M66,86.9c-0.1,0.4-0.6,0.8-0.1,1.1c0.2,0.1,0.6-0.1,1-0.2c0.1,0.1,0.1,0.1,0.2,0.2c0.1,1,0.9,2,0.2,3.1
		c-0.3,0.7-1.2,0.2-1.5,0.8c-0.1,0.4-0.2,0.8-0.2,1.2c-0.6,0.8-1.6,1.1-1.8,2.2c-0.3,0.1-0.8,0.3-1,0.2c-0.5-0.4,0-0.8,0.3-1
		c1.7-1,1.1-2.1,0.2-3.2c-0.3-0.6-0.5-1.2,0.4-1.3c0.7-0.5,1.6-0.8,0.9-2C64,86.4,64.9,86.4,66,86.9z"/>
	<path class="st61" d="M63.8,90c-0.5,0.3-0.4,0.9-0.4,1.3c-0.8-0.3-2-2.1-2.2,0.4c-1.5-0.1-0.4-1.8-1.3-2.2c0-0.1,0-0.4,0.1-0.4
		c2.4-0.1,2.1-1.6,1.7-3.2c0.8,0.8,1.6,0.6,2.4-0.3C63.7,87.2,63.8,88.6,63.8,90z"/>
	<path class="st88" d="M59.8,80.7c0.8-0.6,0.8-1.2,0-1.8c0.2,0,0.4,0,0.7,0c1-0.2,1.5-2,2.7-1.4c1.1,0.5,0.4,2.1,1.1,3
		c0.7,0.9-0.4,0.7-0.8,1c-0.5,0.4-1.2,0.9-1.3,0C61.8,79.5,60.6,80.8,59.8,80.7z"/>
	<path class="st89" d="M59.4,77.1c0,0.2,0,0.3,0.1,0.5c0,0.3,0,0.5,0,0.8c-0.6,0.6-0.7-0.1-1-0.4c-0.3-0.3-0.2-0.6,0-1
		C58.7,76.8,59.1,76.8,59.4,77.1z"/>
	<path class="st61" d="M65.2,84.7c0.2,0.3,0.3,0.4,0.4,0.6c0,0.1-0.2,0.3-0.3,0.4c-0.1-0.1-0.3-0.3-0.4-0.4
		C64.8,85.1,65,85,65.2,84.7z"/>
	<path class="st62" d="M59.4,91.8c0,0.4-0.1,0.7-0.4,0.9c-0.1-0.2-0.2-0.4-0.3-0.6c-0.4-0.4-0.5-0.9-0.1-1.1
		C59.2,90.7,58.8,91.8,59.4,91.8z"/>
	<path class="st90" d="M60.1,86.2c-0.6,0.4-1,0.9-1.3,0.5c-0.4-0.5,0.2-0.5,0.5-0.6C59.4,86,59.7,86.1,60.1,86.2z"/>
	<path class="st91" d="M46.9,75.8c0.1-0.2,0.3-0.3,0.4-0.5c0.7,0.8-0.3,2.3,1,2.9c-0.6,0.9-0.7-0.4-1.1-0.2c-0.3,0-0.5-0.1-0.5-0.4
		C46.5,77,46.8,76.4,46.9,75.8z"/>
	<path class="st72" d="M43.8,81.1c0.3-0.2,0.6-0.3,0.9-0.5c0.1,0,0.3,0,0.4,0c0,0.3,0,0.6,0,0.9c0,0.4-0.3,0.9,0,1.3c0,0,0,0,0,0
		c-0.4,0.7-0.8,0.2-1.3,0C43.8,82.3,43.8,81.7,43.8,81.1z"/>
	<path class="st92" d="M46.8,77.6c0.2,0.1,0.3,0.3,0.5,0.4c0,0.6-0.3,0.8-0.8,0.9c-0.3,0.1-0.7,0.2-1,0.2
		C45.5,78.2,46,77.8,46.8,77.6z"/>
	<path class="st74" d="M46.9,81.1c0.1,0.2,0.3,0.3,0.4,0.5c0,0.4,0,0.9,0,1.6C46.6,82.4,46.1,81.9,46.9,81.1z"/>
	<path class="st93" d="M59.4,77.1c-0.3,0-0.5,0-0.8,0c-0.5,0-0.7,1.1-1.4,0.4c-0.1-0.6,0.7-1.2,0.2-1.9c-1,0.4-0.5,1.9-1.7,2.1
		c-0.4-0.5,0.6-1.1-0.2-1.7c-0.8,0.3-0.4,1.1-0.5,1.6c-0.7,0.3-1.2,0.6-1.9-0.1c-0.5-0.5-0.6,0.1-0.8,0.5l0,0
		c-0.6,0-1.1,0.3-1.3,0.9c-0.6,0-0.9-0.3-0.9-0.9c-0.2-0.4,0.1-0.7,0.3-0.9c0.4-0.3,0.1-0.5,0-0.8c0-0.2,0-0.4,0.1-0.6
		c0.2-0.1,0.3-0.2,0.5-0.3c0.3-0.1,0.6-0.1,0.9,0c1.6,0.1,0.5-0.9,0.5-1.5c-0.1-0.6,0.1-1.1,0.4-1.6c0.6-0.8,0.7-2.1,2.2-1.4
		c-0.1,2.1,1.9,2.3,3,2.9C59.6,74.6,59.8,75.6,59.4,77.1z"/>
	<path class="st94" d="M57.1,77.5c0.6,0.3,0.8-1,1.4-0.4c0,0.3-0.1,0.6-0.1,0.9c-0.1,0.1-0.2,0.2-0.4,0.2c-0.7,0.2,0.4,1.9-0.9,1.4
		C56.3,79.2,56.5,78.2,57.1,77.5z"/>
	<path class="st95" d="M55.3,82.5c-0.3,0-0.6,0-0.9,0c0.2-1.6,1.3-1.4,2.4-1.2C56.9,82.4,55.6,81.7,55.3,82.5z"/>
	<path class="st96" d="M50.9,75.8c-0.2,0-0.3,0-0.5,0c-0.2,0.2-0.3,0.2-0.4,0c0-0.7,0-1.4,0-2.2c0.5-0.5,0.3-1.2,0.6-1.8
		c0.3-0.6,0.3-1.6,1.3-1.6c1.5,1.3,0.1,2.5-0.1,3.7C51.7,74.6,51.4,75.2,50.9,75.8z"/>
	<path class="st97" d="M50.9,72.2c-0.9,0.1,0.9,1.9-0.9,1.4c-0.2-0.2-0.3-0.3-0.5-0.5c-0.2-0.2-0.2-0.4-0.2-0.6
		C49.8,71.8,50.2,71.1,50.9,72.2z"/>
	<path class="st74" d="M49.5,72.6c0,0.1,0,0.3,0,0.4c-0.6,0.3-1,1-1.8,0.9c0,0,0,0,0,0c-0.2-0.7,0.3-1.2,0.4-1.8l0,0
		C48.9,71.7,49.2,72,49.5,72.6z"/>
	<path class="st98" d="M50,75.7c0.1,0,0.3,0,0.4,0c0,0.1,0,0.3,0.1,0.4c0.2,0.3,0.2,0.6,0,0.9c-0.2,0.3-0.3,0.6-0.5,0.8
		C49.3,77.2,50.1,76.5,50,75.7z"/>
	<path class="st93" d="M52.2,78c0.1,0.2,0.4,0.5,0.4,0.7c0,0.5,0.3,1.1-0.4,1.3c-0.1,0-0.3,0-0.4-0.1c-0.6-0.6,0.2-0.9,0.3-1.3
		C52.2,78.4,52.2,78.2,52.2,78C52.2,78,52.2,78,52.2,78z"/>
	<path class="st99" d="M73.1,24.5c0,0.1,0,0.2,0.1,0.4c2.6,1.7,2.4,4.1,1.7,6.7c-0.2,0.5-0.4,0.9-0.7,1.3c-0.7,0.4-1.7,0.2-2.3,0.9
		c-0.5,0.3-0.9,0.4-1.4,0.2c-0.9-0.8-0.4-1.8-0.3-2.7c0.1-0.8,0-1.6-0.2-2.6c-1.1,0.9-2.4,1.4-3.2,2.7c-0.5,0.8-1.5,1.5-2-0.2
		c-0.1-0.4,0-0.8,0.1-1.3c1.2-1.8,1-4,2-5.8c0.3-0.5,0-0.7-0.4-0.9c-1.3-0.7-1.6-1.8-1.3-3.2c2.4,0.2,4,1.8,3.9,3.9
		c1-0.6,1.8-2,3.2-0.8c0.2,0.2,0.4,0.4,0.6,0.7C72.9,23.9,73,24.2,73.1,24.5z"/>
	<path class="st100" d="M64.7,13.3c2-0.4,3.8-0.6,5.4-2.4c1.4-1.6-0.8-1.3-0.5-2c1.5,0.5,3.2,0.9,2.7,3.1c-0.2,1.8-0.9,3.5-1.6,5.2
		c-1.7,0.4-1.1-1.5-1.9-2c-0.5,0.3-0.1,1.2-0.8,1.3c-0.5-0.1-1.1-0.5-1.5,0.3c-0.7,0.8-1.5,1.3-1.6-0.3C65,15.3,64.2,14.4,64.7,13.3
		z"/>
	<path class="st76" d="M70.5,17.3c0.6-1.8,1.2-3.6,1.8-5.4c1,1-0.1,1.7-0.4,2.5c-0.6,2.2,0.3,3.6,2.7,3.6c0.6,0,1.2-0.4,1.2,0.6
		c-1,1.5-0.1,3,0,4.5c-1.6-0.9-2.3-0.2-2.7,1.4c-0.2-0.2-0.3-0.3-0.5-0.5c-0.5-1.5,0.2-3-0.6-4.5C71.6,18.6,70.3,18.5,70.5,17.3z"/>
	<path class="st94" d="M75.8,23.1c0-0.3,0.1-0.8-0.1-0.8c-1.7-0.8-2-1.7-0.4-3c0.2-0.2,0.3-0.5,0.5-0.7c1.9,0.1,1.9,1.9,2.2,3
		c0.3,0.9-0.9,1.4-1.6,1.9C76,23.9,75.9,23.5,75.8,23.1z"/>
	<path class="st101" d="M83.5,35.6c-0.6,0.6-0.8,1.4-0.5,2.2c-1.2,0.4-1.1-1.5-2.2-1.2c-1.3,0.2-2.3,0-2.6-1.5
		c0.1-0.8,0-1.7,1.3-1.3c0.9,0.4,0.7-0.3,0.8-0.7c0.2-0.8,0.6-0.8,0.8-0.1c0.2,0.4-0.4,1,0.1,1.4c0.7,0.5,1.4,0.8,2.2,0.8
		C83.4,35.3,83.4,35.4,83.5,35.6z"/>
	<path class="st101" d="M78.5,35.6c0.6,0.7,1.4,0.9,2.2,0.5c0.8,0.5,0.6,1-0.1,1.2c-1.2,0.4-2.4,0.8-3.5-0.4
		c-0.4-0.5-0.9-0.8-1.4-1.2c-0.3-1-2.2-1.2-1.3-2.8c0.1-0.3,0.3-0.5,0.5-0.7c0.3-0.3,0.5-0.5,0.9-0.7c1.5,0.3,0.2,1.2,0.4,1.8
		C76.2,34.9,78.1,34.4,78.5,35.6z"/>
	<path class="st102" d="M75.9,31.5c0,0.4-0.1,0.7-0.5,0.9c-0.4-0.2-0.8-0.4-0.9-0.9c0.7-2.5,0.6-4.8-1.3-6.7c2.4,0.9,3,2.1,2.2,4.5
		c0.2,0.6,0.6,1.2,0.4,1.8C75.9,31.3,75.9,31.4,75.9,31.5z"/>
	<path class="st17" d="M78.5,35.6c-0.9-0.6-2.6-0.4-2.2-2.2c1.2-0.8,2.2-0.3,3.1,0.5C78.2,33.9,78.6,34.9,78.5,35.6z"/>
	<path class="st100" d="M69.6,8.8c-0.9,0-1.8,0.1-2.2-0.9C68.2,7.9,69,8.1,69.6,8.8z"/>
	<path class="st101" d="M75.9,31.1c-0.3-0.6-0.5-1.2-0.4-1.8C75.8,29.8,76.6,30.3,75.9,31.1z"/>
	<path class="st103" d="M85.2,32.9c-1.7-0.9-1.7-0.9,0.1-2.1C85.8,31.5,84.9,32.2,85.2,32.9C85.2,32.9,85.2,32.9,85.2,32.9z"/>
	<path class="st39" d="M85.2,29.3c0.7,0.4,2-0.6,2.2,0.9c-0.7,0.5-1.5-0.1-2.2,0C85.2,29.9,85.2,29.6,85.2,29.3z"/>
	<path class="st6" d="M83,28c-0.1,0.2-0.3,0.3-0.4,0.5c-0.2,0.6-0.4,1-1.1,0.7c-0.2-0.1-0.5-0.4-0.6-0.6c-0.1-0.7,0.7-0.6,1.1-0.8
		C82.4,27.6,82.7,27.6,83,28C83,28,83,28,83,28z"/>
	<path class="st28" d="M90.5,74c-0.8-0.1-1.1,0.6-1.5,0.9c-1.6,1.2-2.5,0.9-3.3-1.4c-0.2,0.1-0.4,0.2-0.5,0c0.1-0.9-1.2-2.5,1.1-2.2
		c1.2,0.9,1.7,0.1,2.1-0.9c0.4-0.4,0.5-1.3,1.4-0.9c0.6,0.6,0.4,1.5,0.7,2.2c1.4-1.3,0-1.6-0.7-2.2c-0.5-0.4-0.5-0.9-0.1-1.3
		c0.7-0.7,1.3,0.3,1.9,0.3c2.5,1,1.2,3,1.1,4.6c-0.1,0.2-0.2,0.4-0.3,0.6C91.7,74.1,91.2,74.5,90.5,74z"/>
	<path class="st28" d="M96.8,71.7c-0.5,2.2-2.4,2.7-4,3.6c-0.1,0.2-0.3,0.3-0.4,0.5c-0.9-0.7-0.9-0.8,0-2.2l0,0
		c1.2-3.8,1.8-4.3,4.9-4C97.5,70.3,97.3,71.1,96.8,71.7z"/>
	<path class="st8" d="M81.2,83.8c0,0.1,0,0.3,0,0.4c-0.1,1.1-0.8,1.5-1.8,1.6c-1.8-0.7-0.7-1.7-0.3-2.6c0.3-0.5,0.3-0.9,0-1.4
		c-0.3-0.5-0.4-1,0.1-1.4c1.3-0.8,1.7-2.4,2.8-3.4c0.2-0.1,0.4-0.1,0.6,0.1c1.2,1.2-0.7,1.5-0.7,2.4c0,1.4,0.4,3.1-1.2,4
		C80.8,83.6,81,83.7,81.2,83.8z"/>
	<path class="st60" d="M82.5,77.1c-0.1,0-0.3,0-0.4,0c-1.9-1.7-1.8-2.4,0.3-3.4c0.4-0.2,0.6-0.4,0.8-0.7c0.3-0.5,0.6-1.1,1.3-0.9
		c0.8,0.2,0.1,1.1,0.6,1.4c0.2,0,0.3,0,0.5,0c0,1.6,0.1,3.3-2.4,2.8C83.1,76.3,82.8,76.8,82.5,77.1z"/>
	<path class="st104" d="M92.3,73.5c0.3,0.7-0.8,1.5,0,2.2C92.2,77.9,90,78.5,89,80c-0.1,0.1-0.6,0.2-0.8,0c-0.4-0.3-0.1-0.7,0.1-0.9
		c0.4-0.5,0.9-1.1,1.4-1.4c1.8-1,1.9-2.2,0.8-3.7C91.1,73.8,91.7,73.7,92.3,73.5z"/>
	<path class="st105" d="M79.4,85.6c0.6-0.5,1.2-0.9,1.8-1.4c1.4,0.9,2.4,2.7,4.5,2.2c0.4-0.1,0.4,0.8,0.4,1.3
		c-2.7,0.6-2.7,0.6-3.8-1c0.3,3.3-2.2,3.4-4.2,4.1c-0.6-1,0.6-1.4,0.6-2.2c0-0.9,0.7-1.7,0.2-2.6C78.9,85.8,79.1,85.7,79.4,85.6z"/>
	<path class="st66" d="M49.6,32c0-0.1,0-0.3,0-0.4c0.3-0.5,0.8-0.8,1.1-0.2c0.6,1,1,0.3,1.5,0c0.2,0,0.4,0,0.6,0.1
		c0.6,0.9,1.1,1.8,2.3,2c1.4,0.2,1.2,1.5,1.7,2.4c0.8,1.4,1.7,2.7,1.5,4.4c-0.1,0.2-0.2,0.3-0.4,0.5c-1.7,0.5-3.5,0.3-5.3,0.3
		c-1.5,0-2,0.5-1.8,2c0.1,0.7,0,1.5,0.4,2.2c1.2,2.1,0.1,4.1-0.4,5.9c-0.7,2.3-1,2.2-3.8,1c0-1.3-0.8-2.6,1.7-2.9
		c1.9-0.2,0.9-2.9,0.4-3.4c-2.1-2.5-0.2-4.3,0.5-6.4c0.3-0.8,0.8-0.9,1.6-0.7c0.7,0.2,1.5,0.2,2.9,0.3c-1.7-1.2-2.3-2.4-2.3-4
		c0-0.4-0.4-0.9-1.2-0.8c-1.4,0.3-1.6-0.2-1.3-1.8c0.1,0.1,0.3,0.2,0.4,0.1C49.7,32.4,49.7,32.2,49.6,32z"/>
	<path class="st106" d="M46.9,52.1c0.5,0,0.5-1.2,1.2-0.5c0.4,0.4,0.8,1.4,1.2,1c0.7-0.6,1.6-1.9,1.3-2.5c-0.3-1,0-1.6,0.4-2.2
		c1.1-1.7-0.8-2.7-0.7-4.3c0.1-2.6,0.3-3.4,2.8-3.1c1.7,0.2,3.4-0.2,5,0.1c0.6,0.2,0.8,1.1,0.5,1.1c-1.6,0-1.1,1.8-2,2.3
		c-1,0.1-1.9,0-2.7-0.9c-1.1,2.5-0.8,5.1-0.8,7.7c0,0.2,0.2,0.5-0.1,0.6c-1.9,1.1-1.2,2.8-1,4.4c0.1,0.7,0,1.6-1.2,1.4
		c-1-1.7-2.5-2.8-4.4-3.1C46.4,53.2,46.6,52.6,46.9,52.1z"/>
	<path class="st106" d="M52.2,31.6c-0.3,0.5-0.6,1-0.8,1.4c-1.2,0.2-0.4-2.1-1.9-1.4c-0.1-0.3-0.3-0.6-0.4-0.9
		c1.3,0.4,1.8-0.8,2.6-1.4c0.1,0.1,0.2,0.1,0.2,0.2c0.2,0.2,0.2,0.5,0.3,0.8C52.3,30.7,52.3,31.1,52.2,31.6z"/>
	<path class="st38" d="M45.1,53.9c-0.9-1-0.1-1.5,0.6-2C46.3,52.9,45.3,53.2,45.1,53.9C45.1,53.9,45.1,53.9,45.1,53.9z"/>
	<path class="st106" d="M49.6,32c0.4,0.3,0.6,0.8,0.2,1.1c-0.5,0.3-0.5-0.3-0.6-0.6C49.3,32.3,49.4,32.1,49.6,32z"/>
	<path class="st20" d="M53.6,15c2.3,1,1.1,3.3,1.8,4.9c0.6,1.3,0.3,1.7-1.2,2.2c-0.9,0.3-1.5,2.2-0.6,3.6c-0.7-0.7-2.2-0.2-2.3-1.8
		c0-0.7,0-0.9,0.5-1.5c0.8-1.1,1.5-3.1,1-4.1C51.8,16.5,53,16,53.6,15z"/>
	<path class="st48" d="M51.7,29.3c0.8-0.6,1.1-1.7,2.3-1.8c0,0,0.1,0,0.1,0c0.8,0.4,1.2,1.2,1.7,1.8l0,0c0.2,0.2,0.3,0.5,0.3,0.7
		c0,0.8,0.9,1.7-0.3,2.3c-1.2,0.3-1.8-0.5-2.6-1.2c-0.2-0.1-0.3-0.3-0.4-0.4C52.4,30.3,52.2,29.7,51.7,29.3L51.7,29.3z"/>
	<path class="st107" d="M97.2,69.5c-0.3,0.2-0.6,0.7-0.8,0.7c-2.8-0.5-3.1,1.4-3.4,3.4c-0.1,0.4-0.5,0-0.7,0
		c-0.1-0.7-0.2-1.4,0.1-2.1c0.4-1,0.2-2-1-2.4c-0.9-1.3-0.3-2.4,0.4-3.5c0.7-1,1-1.8,0.6-3c-0.5-1.4,0-2.4,1.4-3
		c0.2,0,0.4,0.1,0.5,0.3c0.1,1,0,2-0.6,2.9c2.2,1.9,2.5,3.1,1.3,5.4c-0.2-0.1-0.3-0.3-0.5-0.4c-0.2-0.2-0.4-0.7-0.9-0.3
		c-0.1,0.1-0.1,0.3-0.1,0.4c0.1,0.6,0.4,0.5,0.8,0.3c0.2-0.1,0.4-0.1,0.6,0c0.3,0.4,0.5,1.1,1,0.2c0.3-0.6,0.6-1.3,1-2.1
		c0.3,0.5,0.5,1,0.7,1.5C97.5,68.3,97.4,68.9,97.2,69.5z"/>
	<path class="st19" d="M98.1,54.3c0.4-0.3,1.5,1.6,1.4-0.4c0.7,0.6,0.5,1.3,0,1.9c-0.4,0.5-0.5,1-0.3,1.6c0.8,2.2,0.7,2.3-1.4,2
		c-0.2,0-0.4,0.2-0.6,0.2c-0.9-1.9-0.6-3.7,0.5-5.4C97.8,54.1,97.9,54.1,98.1,54.3z"/>
	<path class="st108" d="M93.7,62.8c-0.2-1.1,0.1-2.1,0.5-3c0.4-0.9,1-0.9,1.7-0.5c0.1,0.1,0.3,0.3,0.4,0.4
		C96.3,61.5,96.1,63,93.7,62.8z"/>
	<path class="st33" d="M102.1,59.2c-3.7-0.5,0-2-0.4-2.4C101.6,57.4,101.8,58.3,102.1,59.2C102.1,59.2,102.1,59.2,102.1,59.2z"/>
	<path class="st109" d="M101.2,52.7c-0.1,0.1-0.2,0.4-0.3,0.4c-0.4,0-0.5-0.3-0.5-0.6c0-0.3,0-0.7,0.4-0.6
		C101.2,51.9,101.2,52.3,101.2,52.7z"/>
	<path class="st26" d="M79,86c1.5,1.4,0.1,2.6-0.2,3.8c-0.1,0.3-0.6,0.6-0.7,1.1c-0.7,0.5-1.5-0.1-2.2,0c0.3-0.6,1.1-0.2,1.5-0.8
		c-1.2-1.1-2.5-0.3-3.7-0.1c-0.7,0.1,0.4,1.1,0.1,1.9c-0.9,0-2.4-1.3-2.5,0.9c0,0.1-0.2,0.2-0.3,0.3c-0.4,0.7,1.6,1,0.3,1.6
		c-1.2,0.5-1-1.2-1.7-1.6c-1.1,0.5-1.2-0.4-1.6-1.1c-0.3-1.3,1.3-1.7,1.4-2.9c0.2-0.2,0.3-0.3,0.6-0.3c1.7,0.2,3.2-0.5,4.9-0.4
		c1.3,0,2.4-0.4,2.9-1.8C77.9,86.2,78.3,85.8,79,86z"/>
	<path class="st110" d="M60.7,19.5c-1,0.4-1.1,1.7-1.9,2.2c-1.7-2.1-0.1-3.9,0.6-5.8c1.2-1,0.6-3.6,3.1-3.6c1.2,0.1,1.3,0.5,0.4,1.3
		c0,0.5,0,1-0.1,1.4c-0.4,1.4-2.4,2-1.9,3.9C60.9,19.2,60.8,19.4,60.7,19.5z"/>
	<path class="st111" d="M56.2,15c-0.4-0.5-1.4-1-1.1-1.5c0.6-1,0.4-2.2,0.9-3.1c0.2-0.4,0.8-0.4,0.9,0.3c0.1,0.4-0.4,1.2,0.6,0.7
		c0.4-0.2,1.2-0.3,0.7-1c-0.9-1.4,0.5-1.2,1-1.6c0.2,0.1,0.3,0.3,0.5,0.4c-2.1,1.8,0.3,1.8,1.2,2.7C59,12.3,58.2,14.5,56.2,15z"/>
	<path class="st111" d="M58,16.8c-0.6,0.5-1.2,1.1-1.6,1.9c0.9-1.2-2-2-0.1-3.2C56.7,16.1,57.8,15.9,58,16.8z"/>
	<path class="st94" d="M62,10.6c0.9,0.2,1.2,0.6,0.5,1.3C62.4,11.4,61.1,11.4,62,10.6z"/>
	<path class="st101" d="M60.7,19c-0.3-1.1-0.7-2.3,0.7-2.9c0.6-0.3,0.8-0.6,1.1-1.1c0.3-0.5,0.6-1,1.3-0.5c0.3-0.4,0.6-0.9,0.9-1.3
		c0.3,1.2,1.5,2.3,0.6,3.7c0.8,0.3,0.7-0.5,1.1-0.6c0.1,0.1,0.2,0.1,0.3,0.2c0.8,0.8,1.3,1.9,2.5,2.7c0.4-1.5-1.2-1.7-1.4-2.5
		c0-0.1,0.1-0.2,0.1-0.3c0.9-0.6-0.8-2.4,0.8-2.4c0.9,0,1,1.5,1.2,2.4c0.1,0.3,0.4,0.6,0.6,0.9c2.7,1.8,3.2,3.3,2.2,6.7
		c-0.1-0.2-0.3-0.3-0.4-0.5C72.1,23.3,72,23,72,22.7c0.1-1.5-0.4-2.1-1.9-1.4c-1.2,0.5-2.4,0.4-3.1-0.8c-0.6-0.9-1.5-0.8-2.4-1
		c-0.2-0.1-0.4-0.1-0.6-0.2c-0.8-0.4-1.5-1-2.5-0.5C61.3,19,61,19,60.7,19z"/>
	<path class="st112" d="M63.8,14.6c-0.4,0.2-0.9,0.3-1.3,0.5c0-0.5-0.1-1,0.4-1.4C63.3,13.9,63.6,14.1,63.8,14.6z"/>
	<path class="st62" d="M65.6,93.2c-0.7-0.5-0.1-0.9,0-1.4c0.1-0.2,0.3-0.2,0.4,0c0,0.4,0,0.9,0,1.3C65.9,93.2,65.7,93.2,65.6,93.2z"
		/>
	<path class="st113" d="M56.7,43.6c-0.1-1.1-1.1-2.6,1.4-2.1c0.5,0.1,0-0.6,0-1c0,0,0,0,0,0c0.2-0.2,0.4-0.4,0.6-0.6
		c1-0.7,1.4-1.4-0.1-2c-0.6-0.2-1-0.6-1.1-1.3c0.2-0.5,0.5-1.1,0.4-1.7c0-0.2,0.1-0.4,0.3-0.5c0.8-0.9,0.7-2.1,1.3-3
		c0.7-1.2,1.2-0.8,1.7,0.1c0.1,0,0-0.1,0-0.2c0.5-1.8-0.3-3.3-1.2-4.7c-0.2-0.8-0.5-1.5-0.9-2.8c1.6,1.5,2.4,0.5,3.2-0.3
		c0.8-0.8-0.1-1.3-0.5-1.8c1.4-0.8,1.8,0.2,2.2,1.2c0.9,2.2,1.3,4.5,1.3,6.9c0,0.4,0,0.9,0,1.3c-0.5,0.7,0.1,1.2,0.4,1.7
		c0.4,0.7,1,1.4,0.6,2.4c-0.2,0.2-0.5,0.3-0.9,0.4c-0.5,0-1-0.1-1.4-0.3c-0.2-0.1-0.3-0.1-0.2,0.1c0,0.1,0.1,0.2,0.2,0.4
		c0.5,0.9,0.8,1.4-0.4,2.3c-1,0.8-2,2-2.6,3.1c-0.9,1.7-2.1,2.3-3.7,2.9C57,43.8,56.8,43.8,56.7,43.6z"/>
	<path class="st114" d="M59.8,26.6c1.3,1.1,3.2,1.9,1.5,4.1c-0.5,0.6,0.7,1.1,1.2,1.8c-1.2,0-1.2,0-2.4-1.8c0,1.3-1,1.9-0.8,3.1
		c0.2,0.9-0.7,0.8-1.2,0.8c-0.2,0.1-0.5,0.1-0.6,0c-0.5-0.8-0.9-1.7-1.8-2.1c-0.1,0,0-0.4,0.2-0.6c1.1-0.6-0.7-1.2,0-1.8
		c1.1-1,1.6-2.3,1.6-3.8c0-0.4-0.1-0.8,0.2-1.1c0.1-0.3,0.2-0.8,0.4-0.9c0.6-0.2,0.4,0.4,0.5,0.7C58.6,25.8,59.1,26.3,59.8,26.6z"/>
	<path class="st115" d="M65.2,29.8c-1.1-2.3-1.2-4.9-1.9-7.3c-0.2-0.8-1-0.8-1.6-0.8c-0.2-0.7-0.9-1.5,0.5-1.5
		c1.1,0,1.2-0.4,0.8-1.2c0.1-0.1,0.1-0.1,0.2-0.2c0.4-0.1,0.8-0.1,1.1,0.2l0,0c0.3,0.3,0.8,0.4,0.9,0.9c0.9,0.8-0.2,3.4,2.4,2.6
		c0,0,0.3,0.4,0.2,0.5C66.4,25.1,67,27.9,65.2,29.8z"/>
	<path class="st106" d="M58,26.2c-0.3,1.6-0.2,3.4-2.2,4c0-0.3,0-0.6,0-0.9c0.3-0.3,0.6-0.6,0.9-0.9C57.1,27.7,55.9,25.9,58,26.2z"
		/>
	<path class="st116" d="M58,26.2c-1.5,0.1-0.4,1.8-1.3,2.2c-0.5-1.8-0.3-2.7,0.9-3.1C57.7,25.6,57.9,25.9,58,26.2z"/>
	<path class="st117" d="M55.8,29.3c-1.2,0-1.3-1-1.7-1.8C55.9,26.9,55.8,28.1,55.8,29.3z"/>
	<path class="st115" d="M60.7,19c0.1-0.2,0.3-0.3,0.4-0.5c0.7-0.1,1.5-0.7,1.8,0.5c0,0,0,0,0,0c-0.7,0.1-1.5,0.3-2.2,0.4
		C60.7,19.3,60.7,19.2,60.7,19z"/>
	<path class="st12" d="M68.3,91.8c0.6,0.3,0.3,1.4,1.3,1.4c0,0.6-0.3,1.1-0.9,1.3c-0.4-0.4-0.9-0.9-1.3-1.3c0-0.3,0.1-0.5,0.3-0.8
		C67.8,92.2,68,92,68.3,91.8z"/>
	<path class="st26" d="M67.8,92.7c-0.1,0.1-0.3,0.3-0.4,0.4c-1,0.1-0.8-1-1.3-1.3c0,0-0.2,0-0.2,0l-0.2,0c0-1,1.2-0.1,1.3-0.9
		C68.2,90.9,68.2,91,67.8,92.7z"/>
	<path class="st44" d="M45.1,82.9c-0.9-0.4-0.9-0.9,0-1.3C45.8,82,45.2,82.5,45.1,82.9z"/>
	<path class="st118" d="M45.6,63.3c0.7-0.3,0.9,0,0.9,0.7c0,1.1-0.3,2.3,0.6,3.4c0.5,0.6-0.4,0.5-0.5,0.8c-0.4,1.2-1.9,2.6,0.4,3.6
		c0.3,0.4,0.2,0.8-0.3,1c-0.5,0.2-0.8-0.2-1-0.6c-0.2-0.2-0.3-0.3-0.5-0.5c-0.8-1.8,1-3.2,0.9-4.9c-0.6-1-1.2-2-0.4-3.1
		C45.5,63.6,45.6,63.4,45.6,63.3z"/>
	<path class="st119" d="M45.5,63.7c-0.1,1.1,0.7,2,0.4,3.1c-1.3-0.6-0.6,1-1.5,1.1C44,66.3,42.8,64.6,45.5,63.7z"/>
	<path class="st120" d="M45.6,72.2c0.6,0.3,1.2,0.7,1.3-0.5c0.4,0.1,0.9,0.3,1.3,0.4c0.6,0.8-0.2,1.2-0.4,1.8
		C46.3,74.3,45.6,73.6,45.6,72.2z"/>
	<path class="st121" d="M49.5,72.6c-0.4-0.2-0.8-0.3-1.3-0.5c0-0.5-0.1-1,0.4-1.3c1.1-0.2,0.2-0.6,0-0.9c-1.2-1.4-0.2-3.1-0.7-4.7
		c-0.3-0.9-0.5-2.5-0.3-3.8c-0.2-0.3-0.2-0.6,0-0.9c0.7-1.2,0.7-3,2.6-3.2c0.5,0.7,0.2,1.6,0.8,2.3c2.3,1.8,0.3,3-0.6,4.3
		c0.2,0.6-0.3,1.3,1.1,1c1.3-0.3,0.9,1.5,1.1,2.4c0,0.4,0.1,0.8,0,1.2c-0.4,0.6-1.5,0.7-1.1,1.8c-0.7,0.4-0.2,1.4-0.9,1.8
		C50.2,71.7,49.9,72.3,49.5,72.6z"/>
	<path class="st122" d="M50.9,59.7c-1.3-0.5-0.5-1.5-0.5-2.3c0.1-0.2,0.3-0.3,0.4-0.5c1.6-0.7,0.5-1.8,0.3-2.7
		c-0.2-1.3-0.5-2.5,1.1-3.1c0.9-0.3,0.2-0.4-0.1-0.6c-0.4-0.2-0.6-0.8-0.4-0.9c1.4-1.3,0.4-2.9,0.7-4.4c0.6-2.7,0.6-2.7,3.2-1.9
		c0.3,0.1,0.6,0.1,0.9,0.2c0.1,0,0.3,0,0.4,0c0.1,0.2,0.1,0.4,0.1,0.6c-0.6,1.2-1.3,2.3-1.7,3.6c-1.2,2.5-1.9,5.2-2,7.9
		C53,57.3,52,58.5,50.9,59.7z"/>
	<path class="st123" d="M48.7,70c0.5,0.1,1.2-0.1,1.3,0.7c0,0.3,0.1,0.6-0.3,0.7c-0.5,0.1-0.8-0.2-1.1-0.5
		C48.7,70.5,48.7,70.3,48.7,70z"/>
	<path class="st124" d="M47.8,60.6c0,0.3,0,0.6,0,0.9c-0.7-0.7-0.4-1.4-0.3-2.3C48,59.6,47.7,60.1,47.8,60.6z"/>
	<path class="st43" d="M86.5,49.8c0.5-0.2,0.9,1.5,1.4,0c0.4-1.1,1.3-0.9,2.2-0.9c-0.1,1.5-1.4,2.4-1.4,4.1c0,1.8,0.7,2,2.1,1.6
		c0.6-0.2,1.1-0.5,1.6-0.7c1,0.6,0.9,1.4,0.3,2.2c-0.9,1.2-1.3,2.5-1.7,3.9c-0.1,0.3-0.3,0.7-0.5,1c-0.8,0.7-1.1,3.7-2.6,0.5
		c-0.2-0.4-1.1-0.2-1.5-0.7c-1.4-1.4-2.5-2.8-1.8-4.9c-0.1-0.4-0.3-0.7-0.5-1.1c-0.3-0.6-0.5-1.1-0.4-1.8c0.1-0.4,0.3-0.8,0.8-0.9
		C84.8,51.1,85.3,50.2,86.5,49.8z"/>
	<path class="st85" d="M84.3,52.1c-0.1,0.3-0.3,0.6-0.4,0.9c-0.7,0.8,0.1,1.2,0.4,1.8c0.2,0.3,0.3,0.6,0.5,0.9
		c0,1.1-0.8,0.9-1.3,0.8c-0.8-0.2-1,0.3-1.2,0.9c-0.3,0.4-0.6,0.5-1.1,0.3c-0.6-0.4-1.3-1.8-1.6,0.2c-0.1,0.6-0.4,1.1-0.3,1.7
		c0,0.2-0.1,0.4-0.2,0.6c-0.2,0.2-0.3,0.3-0.5,0.3c-0.2,0.1-0.4,0.1-0.6,0.1c-0.4,0-0.8-0.2-1.1-0.5c-1.4-1.3-2-2.7-1.4-4.7
		c0.2-0.6,0.5-1.3,0.1-1.9c-0.8-2.2,1.1-3.1,2-4.6c1.2-0.3,2.3-0.4,2.9,0.9c0.9,1.1,2.4,0.6,3.4,1.4C84.2,51.4,84.3,51.7,84.3,52.1z
		"/>
	<path class="st125" d="M79.9,50.3c0-1.8-1.6-0.8-2.3-1.3c-1-0.7-1.7-1.3,0.2-1.6c0.3,0,0.6,0,0.7-0.4c0.8-1.9,2.7-1.8,4.3-2.2
		c0.2,0,0.4,0,0.6,0.1c0.6,0.8,1.2-0.2,1.7,0c0.5,2-0.5,3.5-1.5,5C82.5,51.5,81.1,50.4,79.9,50.3z"/>
	<path class="st126" d="M83.4,45c-0.2,0-0.3,0-0.5,0c-0.1,0-0.2,0-0.3,0c-2.2-1.5-2.1-2.5,0.7-4.6c0.2-0.1,0.4-0.1,0.6,0.1
		c0.9,0.1,1.6,0.7,2.2,1.4C85.5,43.1,84,43.6,83.4,45z"/>
	<path class="st82" d="M79.9,50.3c3.8,0.1,4.6-0.8,5.3-5.3c1.4,2.5-0.5,4.2-1.3,6.2C82.4,51.4,81.1,51.1,79.9,50.3z"/>
	<path class="st54" d="M88.8,47.6c-0.4,0.9-1,0.9-1.8,0.4c-0.1-0.5-1.1-0.8-0.4-1.5c0.3-0.3,0.9-0.6,1.4-0.5
		C88.8,46.2,88.7,47,88.8,47.6z"/>
	<path class="st123" d="M83.9,40.4c-0.2,0-0.4,0-0.5,0c-1.6-0.8-3.6,0-5-1.6c-0.6-0.7-1.6-1.1-1.4-2.2c0.1-0.1,0.1-0.2,0.2-0.2
		c1.6,1,3.1,0.8,3.6-0.4c0.6-0.3,1.1-0.3,1.3,0.5c0.1,0.6,0.3,1.1,0.9,1.3C82.9,38.8,83.5,39.6,83.9,40.4z"/>
	<path class="st76" d="M95.9,36c-1.1,0.2-2.2,0.3-2.8,1.6c-0.4,0.7-1.2,1-2,1.1c0.3-0.9-1.2-2.2,0.5-2.6
		C92.9,35.8,94.4,34.4,95.9,36z"/>
	<path class="st76" d="M92.8,41.8c0-0.1,0-0.1,0-0.2c0.1-0.6-0.3-1.4,0.4-1.8c0.1-0.1,0.5,0.1,0.5,0.2
		C93.8,40.8,93.9,41.6,92.8,41.8C92.8,41.8,92.8,41.8,92.8,41.8z"/>
	<path class="st100" d="M90.5,60.1c0-1.7,0.5-3.2,1.6-4.3c0.7-0.7,0.4-1.2,0.2-1.9c0.4,0,0.9,0,1.3,0c0.4,0.7,0.1,1.3,0.1,2
		C93.5,57.9,92.9,59.7,90.5,60.1z"/>
	<path class="st61" d="M93.2,55.7c-0.1-0.6,0.1-1.2,0.4-1.8c0.6-0.6,0.2-1.6,0.9-2.2c0,0,0,0,0,0c0.2,0.4,0.5,0.8,0.7,1.4
		C95.7,55.4,95.8,55.4,93.2,55.7z"/>
	<path class="st127" d="M89.7,51.9c0.1-0.4,0.3-0.6,0.7-0.6c0.5,0,0.9,0.1,0.8,0.7c-0.1,0.5-0.4,0.5-0.8,0.5
		C90.1,52.5,89.8,52.3,89.7,51.9z"/>
	<path class="st40" d="M97.6,50.7c0,0.1,0,0.3,0,0.4c0,0.4-0.1,0.7-0.4,0.9c-0.7-0.5-0.4-1.2-0.5-1.8C97.1,50.5,97.3,50.6,97.6,50.7
		z"/>
	<path class="st128" d="M93.2,55.7c0.1,0,0.1-0.1,0.2-0.1c2.4-0.7,1.5-2.4,1.2-3.9c0.3,0,0.6,0.5,0.9,0c0.3,1.5,0.6,2.9,0.8,4.4
		c0.2,1.1-0.7,1.9-1.3,2.7c-0.3,0.3-0.6,0.5-1,0.6c-1.3,0.8-2.6,1.7-1.7,3.6c0.2,0.4,0.2,0.9,0,1.3c-0.4,0.9-0.2,2.4-1.5,2.3
		c-1.7-0.2-0.9-1.6-0.8-2.7c-0.6-0.4-1.1,0.1-1.7,0.1c-1.4-0.5-3.4,0-4-1.7c-0.5-1.5-1.6-2.7-1.8-4.3c0-0.3-0.2-0.7-0.4-1
		c-0.6-1.1,0.3-1.4,1-1.2c0.7,0.2,1.2,0.4,1.7-0.2c0.5,0.3,0.9,0.6,0.3,1.2c-0.6,0.7-1.6,1.4,0.5,1.3c1.3-0.1-0.9,0.4,0,1.3
		c1,1,3.5,0.7,3.2,3.3c0.3-1.2,0.9-1.9,1.7-2.5C91.8,58.8,93.3,57.7,93.2,55.7z"/>
	<path class="st129" d="M97.2,52.1c0.1-0.3,0.3-0.6,0.4-0.9c0.9,0.9,0.3,2.1,0.4,3.1c0,0-0.2,0-0.2,0s-0.2,0-0.2,0
		C97.5,53.6,97.4,52.8,97.2,52.1z"/>
	<path class="st19" d="M94.1,59.2c0.3-0.2,0.6-0.3,0.9-0.5c0.4,0,0.8,0.1,0.9,0.5c-0.6-0.1-1.2,0.1-1.7,0.5c0,0-0.1-0.1-0.1-0.1
		c-0.1-0.1-0.2-0.2-0.1-0.3C94,59.3,94,59.2,94.1,59.2z"/>
	<path class="st77" d="M73.2,82.4c0-0.6,0-1.2,0-1.8c-0.8-1.7,0.9-3.3,0.2-5.4c-0.6,0.8-1,2.2-1.9,1.6c-0.5-0.3-2.2-0.7-1.1-2.3
		c0.3-0.5-0.4-1.6-1.4-1.1c-0.8,0.4-0.9-0.1-1.2-0.5c-0.3-0.4-0.5-1.2,0-1.4c3.1-1.3,1.4-4.1,2-6.1c0.1-0.1,0.3-0.2,0.4-0.1
		c0.3,0.2,0.6,0.3,0.9,0.1c0.4-0.2,0.7-0.6,1.2-0.5c0.7,1.2,1.8,2.1,2.2,3.5c-0.2,1.4-1.1,2.3-2.2,3.5c2-0.7,3.1-2,4.4-3.1
		c0.4-0.1,0.9,0.4,1.3-0.1c1.3-0.4,2,0.2,2.5,1.5c0-1-0.5-2-0.2-2.9c0.7-1,1.6-1,2.6-0.4c0.3,0.5,0.4,1,0.4,1.6c0,0.6,0.3,1.3,0,1.9
		c-1.5,1.3-3.7,2.1-3.2,4.8c0.1,0.8-0.6,0.9-1.2,1.1c-0.8,0.2-1.6,0.3-2.3,0.8c-0.2,0.1-0.4,0.2-0.6,0.2c-0.2,0-0.4-0.1-0.6-0.2
		c0.1,0.4,0.3,0.8,0.5,1.2c0.1,0.2,0.3,0.5,0.2,0.6c-1.1,1.6-0.2,2.7,1,3.7c-0.4,2.2-2.1,3-3.8,1.9C72.7,83.8,73,83.1,73.2,82.4z"/>
	<path class="st130" d="M66.9,67.3c0-0.4,0-0.9,0-1.3c0-2,0-4-0.9-5.8c-0.2-0.6-0.3-1.2-0.5-1.8c-0.3-0.6,0.7-1.6-0.6-1.9
		c-0.2-0.1-0.4-0.2-0.5-0.3c-0.5-0.6-0.5-1.3-0.3-2c0.1-0.2,0.1-0.4,0.2-0.6c1.2-0.6,1.8-2.2,3.5-1.9c0.7,1.3,0.6,2.6,0.7,4
		c-0.5,1.6,1.1,2.3,1.6,3.5c0.3,0.7,0.2,1.5,0.8,2.2c0.1,0.2,0.2,0.3,0.2,0.5c0.1,0.4,0,0.8-0.2,1.2c-0.6,0.6-0.9,1.5-1.5,2.1
		c-0.7,0.4-1.2,0.9-1.3,1.7C68.1,67.5,67.6,67.6,66.9,67.3z"/>
	<path class="st131" d="M69.6,65.1c-0.1-1.1,0.3-1.9,1.4-2.3c0.1,0.1,0.1,0.2,0.2,0.3c0.1,1,0,2-1.1,2.5c-0.1,0-0.3,0-0.4,0
		C69.6,65.3,69.6,65.2,69.6,65.1z"/>
	<path class="st42" d="M68.3,78.9c0.2-0.8,0.3-1.7,1.3-2.8C69.6,77.6,69.5,78.5,68.3,78.9C68.3,78.9,68.3,78.9,68.3,78.9z"/>
	<path class="st88" d="M62.9,59.7c1.8,0.6,2.5,2.2,1.5,3.6c-1.2,1.7,0.5,2.8,0.8,4.2c0.1,0.7,0.4,1.1-0.1,1.6
		c-0.2-0.2,0-1.4-0.6-0.3c-0.4,0.8-0.6,1.7-0.9,2.6c-0.1,0-0.2,0-0.2-0.1c-0.1-0.1-0.1-0.3-0.1-0.4c-0.4-0.4-0.5-0.9-0.5-1.5
		c0-1.2-1.2-1.8-1.6-2.9c-0.3-0.5-0.6-1.1,0-1.5c0.9-0.5,1.1-1.4,1.6-2.2c0.1-1-1.3-1.9-0.2-2.9C62.7,59.8,62.8,59.7,62.9,59.7z"/>
	<path class="st132" d="M59.3,69.5c-0.3-0.4-0.5-0.8-0.9-1.3c-0.5,0.9-0.9,1.7-1.4,2.5c-0.7,1.2-1.3,0.6-1.7-0.3
		c-0.8-1.1,0.9-2,0.3-3.1c0-0.2,0-0.4,0.1-0.6c0.6-0.7,1.2-0.4,1.8-0.1c0.1,0.1,0.2,0.2,0.3,0.2c-0.1-0.1-0.2-0.2-0.3-0.3
		c-1.1-0.5-1.3-1.3-0.9-2.4c0.2-0.1,0.3-0.2,0.5-0.2c2.5-0.3,2.5-0.3,2.5,2.3c0,0.5,0.1,0.9,0.4,1.2c0.2,0.4,0.2,0.8,0.1,1.2
		C60,69,59.8,69.4,59.3,69.5z"/>
	<path class="st96" d="M52.7,68.6c-0.1-0.3-0.3-0.6-0.4-0.9c0.3-0.3,0.1-0.7,0.2-1c0.2-0.6-0.6-2.4,1.3-1.2c0.2,0.1,0.4-0.1,0.5-0.2
		c0.4-0.6,1-0.7,1.5-0.2c0.6,0.5,0.4,1.2,0,1.8l0,0c-1.2,1-0.8,2.4-0.9,3.6c0,0.1,0,0.3,0,0.4c-1.2,0-1.4,1-1.8,1.8
		c-1.3-0.2-0.6-1.1-0.6-1.7C52.6,70.2,52.2,69.4,52.7,68.6z"/>
	<path class="st133" d="M59.3,69.5c0.2-0.3,0.3-0.6,0.5-0.9c1.7-1.5,2.2-0.1,2.8,1.2c0,0.2,0,0.4-0.1,0.6c-0.9,1.1-2.2-0.1-3.3,0.6
		C59,71.1,59.2,70,59.3,69.5z"/>
	<path class="st134" d="M54.9,70.4c-0.5-1.4-1.8-3,0.9-3.6c0.6,0.6,1.3,1.2,0.2,2c-0.4,0.3-0.5,1-0.7,1.5
		C55.2,70.4,55.1,70.4,54.9,70.4z"/>
	<path class="st93" d="M62.4,70.4c0-0.1,0-0.3,0-0.4c-0.3-0.9,0-1.3,0.9-0.9c0,0.6,0,1.2,0,1.8C62.8,71.1,62.5,71.1,62.4,70.4z"/>
	<path class="st88" d="M65.1,70c0.8,0.7,0,1-0.4,1.4C64.7,70.8,64.6,70.3,65.1,70z"/>
	<path class="st127" d="M65.2,58.3c-0.6,0.6-1.2-0.8-1.8,0c-0.4,0.1-0.7,0.3-1.1,0.3c-0.4,0-0.8-0.2-0.8-0.7
		c-0.1-0.1,0.2-0.7-0.3-0.4c-0.4,0.3-0.7,0.7-1.3,0.4c-0.2-0.1-0.2-0.3-0.3-0.5c0.7-3.1,1.5-3.7,3.8-2.8c0.4,0.5,0.7,1.1,1.3,1.4
		l0,0C65.4,56.7,65.8,57.4,65.2,58.3z"/>
	<path class="st83" d="M66,60.1c1.5,1.5,1.9,4.6,0.9,5.8C65.6,64.2,65.5,62.2,66,60.1z"/>
	<path class="st76" d="M65.2,58.3c-0.1-0.7-0.3-1.5-0.4-2.2c0.6,0.1,1.3-0.6,1.7,0.4c0.3,0.9-0.3,1.3-0.8,1.9
		C65.4,58.3,65.3,58.3,65.2,58.3z"/>
	<path class="st25" d="M62.4,58.3c0.3-0.4,0.6-0.4,0.9,0c0.4,0.7-0.2,1-0.5,1.3c0,0,0,0,0,0C61.9,59.5,62.2,58.9,62.4,58.3z"/>
	<path class="st26" d="M66.9,87.8c0.1-0.6,0.3-1,1-0.5c1.2,0.7,2.2,1.3,2.3-0.9c0-0.5,0.6-0.7,1.2-0.8c0.1,0,0.2,0.1,0.3,0.1
		c0.5,0.4,1.2,0.7,1.2,1.6c-0.6,1.5-1.9,1.8-3.3,1.9l0,0C68.3,89.5,67.6,88.7,66.9,87.8L66.9,87.8z"/>
	<path class="st135" d="M73.2,82.4c1.2,0.3-0.5,1.4,0.4,1.8c-0.2,1.3-0.7,2.2-2.2,1.3c0,0,0,0,0,0C71.4,84.2,72.2,83.3,73.2,82.4z"
		/>
	<path class="st14" d="M66.9,87.8c0.9,0.4,1.8,0.9,2.7,1.3c0.5,1.4-0.6,1.9-1.3,2.7c0,0.4-0.1,0.7-0.4,0.9c-0.1-0.7,0.3-1.6-0.9-1.8
		C67.6,89.9,66.1,88.9,66.9,87.8z"/>
	<path class="st134" d="M52.7,68.6c1,1.2-0.4,2.8,0.5,4c-0.1,0.4-0.3,0.9-0.4,1.3c-0.1,0.2-0.3,0.3-0.5,0.3c-0.3,0-0.6-0.1-0.8-0.3
		c-0.1-1.2,1.4-2.2,0.4-3.6c-0.3-0.5-1.2-0.7-0.7-1.6C51.5,68,52.2,69.2,52.7,68.6z"/>
	<path class="st96" d="M52.2,74c0.2,0,0.3,0,0.5,0c0.4,0.5,1.3,0.9,0.6,1.7c-0.5,0.6-1,0.3-1.5,0C51.2,75,51.5,74.5,52.2,74z"/>
	<path class="st136" d="M52.2,74c-0.3,0.6-0.5,1.1-0.4,1.8c-0.3,0-0.6,0-0.9,0c-0.1-0.7,0.1-1.2,0.4-1.8C51.6,74,51.9,74,52.2,74z"
		/>
	<path class="st49" d="M50.5,77.1c0-0.3,0-0.6,0-0.9c0.3,0.3,1.2,0.4,1,0.9C51.4,77.7,50.9,77.2,50.5,77.1z"/>
	<path class="st122" d="M70.5,33.8c0.4-0.1,0.9-0.3,1.3-0.4c0.6-0.2,0.6,0.3,0.7,0.7c-0.2,0.5-0.4,1-0.1,1.6c0.3,0.8,1.2,1,1.7,1.7
		c0.6,1,1.1,1.9-0.4,2.5c-0.4,0.2-0.9,0.3-0.7,0.9c0.1,0.4,0.4,0.6,0.8,0.7c0.6,0.3,0.9-0.1,1.2-0.6c0.3-0.6,0.7-1.3,1.5-1
		c0.9,0.4,0.6,1.2,0.5,1.9c-0.2,2-2.2,3.4-1.8,5.5c-0.1,0.2-0.2,0.4-0.4,0.4c-0.5,0.3-1.6-1.2-1.5,0.6c-1.7-0.1-2.5,2.2-4.6,1.4
		c-1.3-0.5-1-1.9-2.1-2.3c-1.6-2.3-2.4-4.8-1.6-7.6c0.2-0.4,0.4-0.9,0.9-0.8c0.5,0.1,0.6,0.6,0.6,1c0.1,0.9-0.2,1.9,0.3,3
		c0.7,0,1.3-0.5,1.9-0.7c1.7-0.8,2-1.5,1.2-3.4c-0.2-0.5-0.3-1-0.1-1.5c0.1-0.2,0.2-0.4,0.3-0.6c-0.3-0.2-0.4,0.2-0.5,0.2
		c-0.4,0.1-0.7,0.1-1.1,0c-0.3-0.8-0.9-1.4-1.2-2.1C67.8,33.3,69.1,33.5,70.5,33.8z"/>
	<path class="st137" d="M70.5,33.8c-0.9,0.7-2.6-0.2-3.1,1.3c-0.4,0.4-0.9,1-1.3,0c0.3-1.5-2.3-2.3-0.9-4c0.8,0.4,1.3,0.3,1.7-0.9
		c0.5-1.5,2.7-1.2,3.1-2.9c0-0.2,0.4,0.5,0.6,0.9C71.1,30.1,70.3,31.9,70.5,33.8z"/>
	<path class="st93" d="M65.1,19.9c-0.3-0.3-0.6-0.6-0.9-0.9c1.2,0.5,2.6,0.2,3.4,1.7c0.3,0.6,1.4,0.7,2,0.2c0.9-0.6,2-1,2.6-0.3
		c0.6,0.7,0.4,1.9,0,2.9c-2-1.7-2.4,1-3.7,1.4c-1.3-0.9,1.1-2.7-0.6-3.1C66.7,21.6,66.5,19.9,65.1,19.9z"/>
	<path class="st137" d="M72.3,34.2c0-0.4-0.1-0.7-0.4-0.9c0.5-1.2,1.4-0.9,2.2-0.5c0.1,0.1,0.1,0.1,0.2,0.2
		C74.6,35.2,73.5,34.9,72.3,34.2z"/>
	<path class="st137" d="M74.5,31.6c0.4,0.2,0.7,0.5,0.9,0.9c-0.1,0.1-0.3,0.3-0.4,0.4c-0.3,0.3-0.6,0.3-0.9,0c0,0,0,0,0,0
		C74.1,32.4,74,31.9,74.5,31.6z"/>
	<path class="st101" d="M66.5,16.4c0.1-0.4-0.2-1,0.4-1.1c0.6,0,0.6,0.7,0.9,1.1c0,0,0,0,0,0C67.4,16.8,66.9,16.7,66.5,16.4
		L66.5,16.4z"/>
	<path class="st99" d="M74.1,32.9c0.3,0,0.6,0,0.9,0c-0.3,0.7-0.8,1.4,0.5,1.6c0.6,0.1,0.3,0.7,0.4,1.1c-0.1,0.1-0.2,0.1-0.2,0.2
		c-1.3,0.2-2.6,2-3.8-0.2c-0.3-0.6-0.7-1.2,0.4-1.3C72.8,33.7,74.6,34.8,74.1,32.9z"/>
	<path class="st123" d="M75.9,35.6c0.6,0,1.3,0,1.3,0.9c0,0,0,0,0,0C76.2,36.9,75.8,36.5,75.9,35.6L75.9,35.6z"/>
	<path class="st135" d="M76.3,77.1c0.1-0.6-0.2-1.3,1-1.2c1.1,0.1,2.8,0.3,1.8-2c-0.4-1.1,2.3-3.4,3.8-3.6c0.6,0.9,1.2,0.3,1.9,0.1
		c0.2,0,0.4-0.1,0.6,0c0.6,0.2,1,0.5,0.6,1.2c-1.7-0.1-0.2,1.4-0.9,1.8c0,0.1,0,0.2,0,0.2c-0.1,0.1-0.2,0.2-0.3,0.2
		c-0.3-0.5,0.1-1.2-0.5-1.6c-0.7,0.1-0.8,0.8-0.9,1.3c-0.1,0.3,0.1,0.7-0.4,0.9c-1.9,0.5-1.9,0.5-0.9,2.5c-0.3,0.7-0.7,1.4-1,2.2
		c-0.4,1-2.9,1.4-0.9,3.2c0.2,0.2-0.4,0.7-0.8,0.9c-1,0.3-1.8-0.2-2.7-0.5c-0.1-0.4-0.1-0.8-0.6-0.8c-3,0.2-1.8-1.2-0.8-2.3
		c0.5-0.6,0.2-0.9,0-1.4c0-0.1,0.1-0.2,0.1-0.3C75.7,77.8,75.9,77.4,76.3,77.1z"/>
	<path class="st26" d="M86.1,71.7c0-0.6-0.3-0.9-0.9-0.9c-1.3-1.5-2.2-3.1-1.6-5.2c-0.5-1.1-1.3-2.2-0.6-3.5c-0.1,0.1,0,0.2-0.1,0.3
		c-0.1,0.5-0.2,1-0.3,1.5c-0.1,0.6,0,1.5-0.8,1.6c-0.9,0.1-1.1-0.8-1.3-1.4c-0.2-0.8,0.3-1.9-0.8-2.4c-0.2-0.3-0.2-0.5-0.2-0.9
		c0.4-0.9-0.8,0-0.7-0.6c0-0.2,0-0.3,0-0.5c0.3-0.3,0.4-0.8,0.9-1c0.6-0.2,1.3-0.9,1.4-1.3c0.4,0,0.7-0.1,0.9-0.4
		c0.5,0.4,0.8,0.8,1.2,1.2c1.3,1.5,0,5.2,3.8,4.7c0.4,0,0.7,0.8,1.3,0.7c0.1,0.2,0.2,0.3,0.2,0.6c-0.3,0.7-0.3,1.5-0.6,2.3
		c-0.6,0.6-1.7,0.8-1.5,2c0.3,1,0.3,2.2,1.8,2c0.2,0.1,0.4,0.2,0.5,0.3C88.1,72,87.7,73.6,86.1,71.7z"/>
	<path class="st138" d="M86.1,68.6c-0.8-1.8,0.4-2.1,1.8-2.2c1-0.6,0.6-1.4,0.4-2.2c0-0.2,0-0.3,0-0.5c0.8-0.7,1.6-0.8,2.6-0.5
		c0,1-1.4,1.7-0.6,2.8c0.2,0.3,0.7,0.3,0.8,0.1c0.4-1.1,1.1-2.3,0.6-3.6c-0.6-1.4,0.6-3.2,2.4-3.4c0,0.1,0,0.3,0,0.4
		c-1.4,0.9-2,1.9-0.9,3.5c0.5,0.7,0.3,1.3-0.3,1.9c-1,1.1-1.6,2.4-1.4,4c-0.3,1.1-1.9-2.2-1.8,0.5c-0.3,0.4-0.6,0.9-0.9,1.3
		c0,0-0.2,0-0.2,0l-0.2,0C87.9,69.7,87.5,68.6,86.1,68.6z"/>
	<path class="st139" d="M89.5,69.3c0.8,0.5,2.5-0.5,2.1,1.2c-0.1,0.8,0.3,2.5-1,2.3C88.8,72.6,90,70.7,89.5,69.3z"/>
	<path class="st6" d="M76.7,82.9c1-0.8,1.8,0.1,2.7,0.5c0.3,0.7-1.6,1.5,0,2.2c-0.1,0.1-0.3,0.3-0.4,0.4c-0.2,0.2-0.6,0.4-0.6,0.5
		c-0.1,2.3-1.7,2.5-3.4,2.6c-1.3-0.2-1.6-1.3-2.2-2.2c-0.6-0.3-1.3-0.5-1.3-1.3c0.9-0.1,1.8-0.3,2.2-1.3
		C74.6,84.8,76.4,84,76.7,82.9z"/>
	<path class="st106" d="M55.8,32c0.2,1.6,1.3,0.1,1.9,0.7c-0.2,0.7-0.9,1.5,0.3,2c0,0.2,0,0.3,0,0.5c0.2,0.6-0.1,0.9-0.5,1.3
		c0.3,0.3,0.6,0.6,0.9,0.9c0.6,0.5,2,0.2,1.8,1.2c-0.1,1.1-1.1,1.9-2.3,2c0.4-1.6-1.5-2.4-1.3-4.1c0.1-0.6-0.7,0.4-1.3,0.1
		c0.7-1.3,1.2-2.5-1.3-2.5c-1,0-1.6-1.2-1.6-2.4c0-0.4,0.1-0.7,0.5-0.9C54.2,30.7,54.5,32.4,55.8,32z"/>
	<path class="st48" d="M53.1,30.7c0,0.4-0.1,0.7-0.5,0.9c0,0-0.2,0-0.2,0s-0.2,0-0.2,0c-0.5-0.3-0.4-0.9-0.4-1.4
		C52.4,30,52.7,30.4,53.1,30.7L53.1,30.7z"/>
	<path class="st5" d="M53.1,30.6c-0.4-0.2-0.9-0.3-1.3-0.5c0-0.3,0-0.6,0-0.9C52.7,29.3,52.8,30.1,53.1,30.6z"/>
	<path class="st140" d="M95,68.2c-0.6,0.2-0.6,1.6-1.6,1c-0.5-0.3-0.7-0.9-0.5-1.6c0.2-0.5,0.4-1.4,1-1.3
		C94.7,66.4,94.8,67.4,95,68.2C95,68.2,95,68.2,95,68.2z"/>
	<path class="st28" d="M97.4,57.4c-0.4-1.2,0-1.7,0.9-1.9C98.4,56.3,98,56.7,97.4,57.4z"/>
	<path class="st28" d="M72.7,86.9c0-0.1,0.1-0.3,0.1-0.4c1.3,0.4,1.3,1.9,2.1,2.6c-1.8-0.4-3.6,1.1-5.3,0
		C70.6,88.4,72.1,88.3,72.7,86.9z"/>
	<path class="st97" d="M66.5,16.4c0.4,0,0.9,0,1.3,0c0.6,0.4,1.3,0.7,1.8,1.2c0.6,0.6,0.7,1.4,0.2,2c-0.7,0.7-1.6,0.1-1.8-0.5
		C67.8,18,66.2,17.7,66.5,16.4z"/>
	<path class="st110" d="M62.9,19c-0.5-0.6-1.2-0.3-1.8-0.5c1.2-0.8,2.2-0.4,3.1,0.5C63.8,19.1,63.4,19,62.9,19z"/>
	<path class="st110" d="M62.2,17.5c-0.3,0-0.6-0.1-0.6-0.4c0-0.2,0.1-0.4,0.3-0.5c0.3-0.2,0.6,0,0.7,0.3
		C62.8,17.2,62.5,17.4,62.2,17.5z"/>
	<path class="st90" d="M66,35.1c0.4,0.5,0.9-0.2,1.3,0c1.4,0.1,1.6,0.7,0.9,1.8c-0.2,1-1.1,1.4-1.9,1.6c-1,0.2-1,0.9-1.2,1.6
		c0,2.5,0,5.1,1.8,7.2c0.4,0.5,0.4,1-0.1,1.4c-1.1-0.4-2.1-1.4-3.5-0.9c-0.7-1.3-1.7-2.4-0.5-4.1c0.5-0.7-0.1-1.1-0.9-0.8
		c-1,0.5-1.9,1.2-2.8,1.8c-0.1,0.1-0.3,0.2-0.5,0.3c-0.7,0.2-1-0.3-1.4-0.7c0-0.1-0.1-0.2-0.1-0.3c0-0.1,0-0.3,0-0.4
		c2.4-0.5,2.8-3.3,4.9-4.2c0.5-0.2,0.6-0.8,0.4-1.4c-0.1-0.4,0-0.9,0.4-0.9c2.6,0.5,0.5-1,0.6-1.5c0.2-0.1,0.4-0.2,0.6-0.1
		c0.6,0.2,1,0.1,1.2-0.3C65.4,35.1,65.7,35.1,66,35.1z"/>
	<path class="st141" d="M65.1,35.1c-0.1,2.3-1.2,0.4-1.8,0.5C63.4,33.5,64.5,35.1,65.1,35.1z"/>
	<path class="st106" d="M61.4,36.5c0,0.3-0.1,0.6-0.5,0.6c-0.3,0-0.5-0.2-0.6-0.5c0-0.1,0.2-0.4,0.4-0.4
		C61.1,36,61.3,36.1,61.4,36.5z"/>
	<path class="st142" d="M57.6,36.5c0.2-0.4,0.3-0.9,0.5-1.3C58.8,35.9,58.6,36.3,57.6,36.5z"/>
	<path class="st134" d="M55.8,66.8c-0.1-0.6,0.3-1.3-0.4-1.6c-1.1-0.6-0.3,0.7-0.9,1c-0.9,0.4-1.5,0.5-1.5-1.1
		c-0.6,1.1,0,2.1-0.8,2.6c0-0.8,0-1.6,0-2.3c-1.2-0.3-1,0.9-1.7,1c-0.2-0.9-0.4-1.8-0.5-2.7c0.9-0.9,2.9-1,2.4-3
		c-0.1-0.3,0.2-0.6,0.6-0.5c0.4,0,0.7,0.3,0.7,0.7c0.1,1,0,2,0.1,2.7c0.3-1.2-0.3-2.7,0.1-4.2c0.3-0.3,0.8-0.5,0.5-1.1
		c0-0.2,0-0.4,0.1-0.5c0.4-0.4,0.9-0.7,1.4-1c0.3-0.1,0.6-0.1,0.9,0.1c0.1,0.2,0.2,0.4,0.2,0.6c-0.1,0.9,0.3,1.7,0.3,2.6
		c0,0.8,0.1,1.7-0.8,2.1c-0.9,0.4-0.2,0.8,0,1.3c0.2,0.1,0.3,0.2,0.4,0.3c0.1,0.2,0.1,0.3-0.1,0.5c0.1,0.9,0.1,1.9,1.3,2.3
		c0.1,0.4,0,0.6-0.4,0.5C57,66.8,56.4,66.4,55.8,66.8z"/>
	<path class="st143" d="M54.5,59.2c-1.1,1.7,0,3.6-0.7,5.4c-0.6-1.4,0.3-3-0.9-4.3c0.9,2.9-1.1,3.1-2.9,3.4c0-0.4,0.2-0.5,0.5-0.8
		c0.8-0.6,2.1-1.3,0.4-2.4c-0.1-0.1-0.1-0.6-0.1-0.9c-0.4-1.8,2.3-2.2,1.9-4c0,0,0.1-0.1,0.2-0.1c0.1,0,0.1,0.1,0.2,0.1
		c0.6,0.5,1.1,1,1.5,1.7c0.1,0.2,0,0.4-0.1,0.5c0,0.2,0,0.3,0,0.5C54.7,58.7,54.7,59,54.5,59.2z"/>
	<path class="st90" d="M55.3,47.6C55.2,46.1,56,45,57.1,44c0,0,0,0,0,0c0.6,0.6,0.8,1.3,0.7,2.2c-0.2,1.7-0.2,3.2,0.5,4.9
		c0.7,1.7-0.9,2.5-2.2,3.3c-0.3,0-0.5-0.1-0.6-0.3C54.5,52,54.2,49.8,55.3,47.6z"/>
	<path class="st144" d="M55.3,47.6c-0.4,2.3,0.2,4.5,0.5,6.7c0.3,0.8-0.4,1.3-0.6,1.9c-0.2,0.4-0.3,0.9-0.8,1.2
		c-0.7-0.4-1.3-0.9-1.3-1.8c-0.5-2.4,0.7-4.4,1.1-6.6C54.3,48.4,54.4,47.6,55.3,47.6z"/>
	<path class="st145" d="M84.3,54.8c-0.7-0.4-2.1-0.7-0.4-1.8C84,53.6,84.2,54.2,84.3,54.8z"/>
	<path class="st126" d="M83,45c-0.1,0.7-0.4,0.7-1.1,0.6c-1.9-0.1-2.9,0.9-2.8,2.7c-0.8,0.3-1.1-0.8-1.9-0.6
		c0.1,0.4,0.3,0.8,0.4,1.2c0,0.9-0.7,1.5-1.2,2.2c-0.6,0.7-1,1.4-0.6,2.3c-0.3,0.5-0.8,0.7-1.3,0.9c-0.8,0.2-1.4,0.7-2.1,1.1
		c-1,0.7-1.8,0.7-2.6-0.2c-0.2-0.2-0.3-0.5-0.3-0.8c0.3-0.7,1.3-0.8,1.3-1.7c0.1-1.6-1.8-1-2.2-2c0-0.2,0-0.4,0.1-0.6
		c2.3-0.3,3.2-0.1,4.6,1.3c0.3-1,0.4-2.4,2-1.5c0.1-0.9-1.8-1.3-0.4-2.4l0,0c1.3-2,3.8-2.3,5.4-4c0.4-0.4,0.8-0.1,1,0.4
		C81.6,44.8,82.4,44.6,83,45L83,45z"/>
	<path class="st13" d="M77.6,69.1c-0.3,0.4-0.6,0-0.9,0c-0.3-0.2-0.7-0.5-0.9-0.8c-2.9-2.5-2.9-3.7-0.1-6.7c0-0.5-0.3-0.9-0.2-1.5
		c0.4-0.8,0.9-0.8,1.6-0.4c0.2,0.4,0.5,0.4,0.9,0.5c0.8,0.7,1.2,1.7,0.8,2.6c-0.9,1.6,0,2.2,1.2,2.8C80.5,68.1,80.3,68.4,77.6,69.1z
		"/>
	<path class="st146" d="M77.2,59.7c-0.7,0-1.3,0-1.3,0.9c-0.8,0-1.6-0.2-2.4,0.5c-0.5,0.4-1.2,0.9-1.9,0.1c-0.4-0.7-0.4-1.8-1.5-1.9
		c-0.6-1.2-2.9-1.5-1.8-3.6c0.4-0.5,0-1.1,0.4-1.6c0.4-0.5,0.9-0.8,0.9,0.3c0.1,0.1,0.3,0.3,0.4,0.4c-0.1,2.3,2.1,1.9,3.2,2.8
		c0.5,0.4,0.4-0.3,0.6-0.6c0.8-0.9,0-2.2,0.7-3.1c0.4-0.2,0.9-0.3,1.3-0.5c1.4,0.7-0.8,1.8,0.3,2.5C74.8,57.6,76.3,58.6,77.2,59.7z"
		/>
	<path class="st6" d="M81.2,57.4c0,0.6-0.1,1.1,0.8,1.1c0.5,0,0.5,0.7,0.4,1.1c-0.2,0.6-0.8,0.4-1,0.1c-0.8-1.1-1.6-0.3-2.4,0
		c-0.8-1.2,0.8-2.3,0.1-3.5c-0.1-0.2,0.3-0.4,0.6-0.3C80.5,56.1,81.3,56.3,81.2,57.4z"/>
	<path class="st79" d="M79.8,65.5c-1.3-0.3-3.4,0.1-1.6-2.4c0.7-1-0.4-2-0.2-3c0.1,0,0.3,0,0.4,0c0.3,0.5,0.9,0.2,1.3,0.4
		c0,0.3,0,0.6,0,0.9c1,0.4,1.5,0.8,0.6,1.9c-0.2,0.2-1.2,0.5-0.2,1.1c0.2,0.1,0.2,0.3,0.2,0.5C80.4,65.2,80.2,65.4,79.8,65.5z"/>
	<path class="st146" d="M79.8,60.6c-0.6,0.3-1.2,0.7-1.3-0.4c0.2,0,0.3,0,0.5,0C79.2,60.4,79.9,59.7,79.8,60.6z"/>
	<path class="st147" d="M78.3,50.8c-0.2,0.5-0.4,0.7-0.7,0.7c-0.1,0-0.3-0.3-0.3-0.4c0-0.3,0.3-0.5,0.6-0.5
		C78.1,50.6,78.3,50.8,78.3,50.8z"/>
	<path class="st137" d="M83,44.9c-0.9,0-2.1,0.4-2.2-1.1c-1.3,2.3-3.9,2.5-5.8,3.8c-0.5-1.5-0.4-2.7,0.9-3.9c0.7-0.6,0.6-2,0.8-3.1
		c0-0.1-0.3-0.3-0.5-0.3c-0.4,0-0.6,0.4-0.7,0.7c-0.2,0.6-0.1,1.6-0.9,1.5c-0.9-0.1-1.8-0.7-2.3-1.5c-0.6-0.8,0.1-1.3,0.6-1.6
		c1.5-0.9,1.6-1.5,0-2.5c-0.5-0.4-0.9-0.7-1-1.3c0.8,0.6,1.6,1.2,2.4,0.1c0.5-0.6,1-0.4,1.6-0.1c0.3,0.6,0.7,0.9,1.3,0.9
		c0.2,2,2.4,1.9,3.3,3.2c0.1,0.1,0.4,0.1,0.4,0.1c1.6-2.5,1.7,0.4,2.6,0.7c-0.1,0.3-0.2,0.8-0.4,1C80.6,42.6,81.6,43.8,83,44.9z"/>
	<path class="st148" d="M71.8,61c0.9,0.6,1.3-0.2,1.8-0.6c0.9-1,1.6-0.7,2.3,0.2c0.3,0.3,0.6,0.6,0.9,0.9c-2.8,0.8-3.4,1.7-3,4.2
		c0.1,0.8,0.2,1.4,1.2,1.4c0.8,0.1,0.5,0.7,0.3,1.1c-0.2,0.3-0.5,0.4-0.8,0.5c-0.1,0-0.2-0.1-0.3-0.1c-0.7-1.2-1.9-2.1-2.2-3.6
		c-0.7-1.1,0-2.5-0.9-3.6l0,0C70.9,60.7,71.3,60.8,71.8,61z"/>
	<path class="st6" d="M80.2,65c0-0.1,0-0.3,0-0.4c-0.2-0.5-0.3-0.9,0.5-0.9c0.7,0.3,0.3,1.3,1.2,1.5c0.3-1.1,0.7-2.1,0.6-3.2
		c0.3-0.3,0.6-0.2,0.9,0c-0.1,1-1.1,2.2,0.8,2.8c0.7,0.2-0.1,0.6-0.3,0.8c-0.4,0.5-0.8,1-1.3,1.3c-0.7,0.5-1.5-0.2-2.2,0.4
		C79.9,66.5,80.1,65.8,80.2,65z"/>
	<path class="st87" d="M76.3,68.2c0.2,0.3,0.3,0.6,0.5,0.9c-1.5,2.6-3.2,3.6-5.9,2.8c1.7-0.7,2.4-2,3.2-3.3c0,0,0,0,0,0
		c0.6,0.6,1,0.3,1.2-0.4C75.6,67.9,75.9,67.8,76.3,68.2z"/>
	<path class="st54" d="M82.5,66.8c-0.1-1,0.4-1.4,1.3-1.3c-0.2,1.9,0.9,3.5,1.3,5.3c-0.1,0-0.3,0-0.4,0c-0.8,0.5-1.3,0-1.5-0.7
		c-0.2-0.6-0.3-1.1-0.7-1.6C82.5,68,82.5,67.4,82.5,66.8z"/>
	<path class="st62" d="M80.2,65c0,0.7,0.1,1.5,0.1,2.2c0.1,1.4,1.3,3-0.9,4.5c0.6-2,0.2-3-1.8-2.7c1.7-0.6,2.7-1.6,2.2-3.6
		C80,65.3,80.1,65.2,80.2,65z"/>
	<path class="st26" d="M82.5,68.6c1.4,0.1,0.5,2.5,2.2,2.2c-0.5,0.5-1,1-1.8,0.7c-0.1-0.1,0-0.8,0-1.1
		C82.8,69.8,82.7,69.2,82.5,68.6z"/>
	<path class="st131" d="M70.9,61.5c1.5,0.9,1.1,2.2,0.9,3.6c0,0.6-0.3,0.9-0.9,0.9c-0.5-1,0.6-2,0-3.1c0,0,0-0.1,0-0.1
		C70.9,62.3,70.9,61.9,70.9,61.5z"/>
	<path class="st8" d="M71,62.8c0.8,1,0.4,2.1,0,3.1c-0.5,0.3-0.9,0.3-0.9-0.4C70.3,64.6,70.6,63.7,71,62.8z"/>
	<path class="st28" d="M70.7,70.8c-0.2,0-0.5-0.1-0.3-0.4c0.2-0.3,0.4-0.6,0.7-0.7c0.3-0.1,0.5,0.2,0.4,0.5
		C71.4,70.7,71.1,70.8,70.7,70.8z"/>
	<path class="st135" d="M75.4,78.4c-0.6-0.5-0.6-1.2-0.3-1.8c0.2-0.3,0.5,0.4,0.8,0.4C76,77.7,75.7,78,75.4,78.4L75.4,78.4z"/>
	<path class="st149" d="M75.4,78.4c0.2-0.4,0.3-0.9,0.5-1.3c0.1,0,0.3,0,0.4,0C76.3,77.8,76.3,78.4,75.4,78.4z"/>
	<path class="st76" d="M68.7,50.7c1.1,0.5,3.1,0,2.7,2.2c-0.6,0.2-0.9-1-1.9-0.3c-0.8,0.6-1.4-0.3-1.7-1.1c-1.3,0.4-1.9,1.7-3.1,2.2
		c-2.1-0.5-1.3-1.8-0.7-3C65.5,50.4,67.1,48.7,68.7,50.7z"/>
	<path class="st127" d="M64.3,50.7c-0.1,1.1-1.1,2.3,0.4,3.1c0,0.1,0,0.3,0,0.4c-0.6,0.6-1.2,0-1.8-0.1c-1.2-0.9-0.6-2.5-1.5-3.6
		c0-0.6-0.3-1.2,0.2-1.8C63.7,48.1,64,48.2,64.3,50.7z"/>
	<path class="st150" d="M67.8,51.7c0.5,0.4,1,1.3,1.8,0.6c1.1-0.8,1.3,0.2,1.8,0.7c-0.1,1.1-1,1.1-1.8,1.4c-0.2-0.3-0.5-0.7-0.6,0
		c-0.1,0.5-0.2,1-0.7,1.3C68.1,54.3,68,53,67.8,51.7z"/>
	<path class="st131" d="M71.8,61c-0.4,0-0.7,0.1-0.8,0.5c-1.4-0.3-0.7-1.5-0.9-2.2C71.2,58.5,71.5,58.8,71.8,61z"/>
	<path class="st76" d="M63,53.9c0.6,0.1,1.1,0.3,1.7,0.4c-0.3,0.6,0,1.2,0,1.8c-1,0.1-1.4-0.3-1.3-1.3C63,54.6,62.7,54.4,63,53.9z"
		/>
	<path class="st151" d="M68.4,61.2c0.5,0.1,0.7,0.5,0.7,1c0,0.4-0.2,0.8-0.6,0.8c-0.5,0-0.7-0.5-0.7-0.9
		C67.8,61.6,67.9,61.3,68.4,61.2z"/>
	<path class="st64" d="M59.8,57.9c0.5,0,0.8-0.3,0.9-0.8c0.2-0.5,0.6-1,1.1-0.6c0.4,0.4,0.2,1-0.3,1.3c0.1,1.8,0.8,3.4,1.8,4.9
		c-0.7,0.8,0,2.8-2,2.6c0.1,0.3,0.2,0.7,0.2,1c0.3,0.5,0.4,1-0.1,1.4c-0.7,0.5-1.2,0-1.7-0.5c-0.4,0.1-0.8,0.5-0.7-0.4
		c0.1-0.9,0-1.8,0-2.8c-0.6-0.1-1.3,1.1-2,0.1c0.1-0.3,0.4-0.6,0.6-0.9c0.3-0.6,0.2-1.3,0.6-1.8c0.1-0.1,0.3-0.2,0.5-0.2
		c0.1,0,0.6,0.3,0.2-0.2c-0.1-0.2-0.2-0.3-0.3-0.5c-0.1-0.2-0.1-0.4,0-0.6C59.7,59.7,58.6,58.2,59.8,57.9z"/>
	<path class="st86" d="M59.8,67.3c0.8,0,1.9,0.9,1.8-0.9c0.5,0.9,1.7,1.4,1.8,2.7c-0.6,0-0.9,0.3-0.9,0.9c-0.7-0.8-1.3-1.9-2.6-1.3
		C59.8,68.2,59.8,67.7,59.8,67.3z"/>
	<path class="st76" d="M63.4,62.8c-1.3-1.4-2.8-2.7-1.8-4.9c0.2,0.3,0.5,0.4,0.9,0.4c0,0.5-0.1,1,0.5,1.3c-0.2,0.8-0.6,1.7,0.6,2.2
		C63.8,62.1,63.7,62.6,63.4,62.8z"/>
	<path class="st82" d="M58,63.7c-0.2,0.4-0.5,0.5-0.9,0.5c-0.1,0-0.3,0-0.4,0c0-0.1,0-0.3,0-0.4c0-0.6,0.3-0.7,0.8-0.7
		C57.8,63,58.1,63.2,58,63.7z"/>
	<path class="st86" d="M57.6,66.8c0.1-0.2,0.3-0.3,0.4-0.5c0.5,0.4,0.3,0.8-0.1,1.1c-0.1,0.1-0.4,0-0.6,0
		C57.5,67.3,57.5,67,57.6,66.8z"/>
	<path class="st132" d="M59.8,57.9c0.1,1.6,0.1,1.6-0.9,2.2c-1,0.4-2.3,1.1-1.5-1c0.3-0.8,0.2-0.9-0.6-0.8c-0.4,0-0.3-0.5-0.1-0.9
		c0-0.2,0-0.3,0-0.5c0-0.9,0.3-1.6,1.4-1.9c-0.7-0.1-1.4,0-1.8-0.8c0.1-0.4-0.1-0.8,0.7-1.1c0.6-0.2,1.8-0.9,0.6-2.3
		c-1-1.1-0.4-3-0.2-4.5c0.1-0.8,0-1.6-0.1-2.3c0.7-0.1,0.9,0.6,1.3,0.9c0.8,0.8,0.1,1.8,0.2,2.7c0,0.5,0.1,1,0.6,1.4
		c2.2,1.5,2.2,3.6,1.2,5.7c-0.4,0.9-0.3,1.9-0.7,2.7C59.8,57.6,59.8,57.8,59.8,57.9z"/>
	<path class="st152" d="M59.8,57.5c-0.1-1.4-0.1-2.8,0.5-4.1c0.7-1.7,0.1-3-1.3-3.7c-0.9-0.5-1-1.2-1-2c1.2-1.4,1.2-1.4,2,0.8
		c0.6,0.6,1.3,1.1,1.6,1.9c1.6,0.8,0.7,2.5,1.4,3.6c0.1,0.3,0.3,0.6,0.4,0.9C61.1,54.2,60.6,56,59.8,57.5z"/>
	<path class="st53" d="M65.2,40c-0.3-1-0.8-2.1,1.1-2c0.7,0,0.9-1.4,2-1.1c0.4,0,0.9,0,1.3,0c0.4-0.1,0.5,0,0.5,0.4
		c0.1,0.5,0,1.1,0.2,1.5c1.2,2,0.5,3.8-1.7,4.3c-0.8,0.2-1.2,0.8-1.9,1.2c-0.8-1.1-1.1-2.3-0.7-3.7C66.2,39.9,66.2,39,65.2,40z"/>
	<path class="st134" d="M74.9,47.6c-0.3,0.7-0.2,1,0.5,1.3c0.8,0.4,0.7,1.2,0.3,1.7c-0.5,0.6-1,0.6-1-0.4c0-0.2-0.3-0.3-0.5-0.1
		c-0.3,0.3-0.6,0.6-0.3,1c0.6,0.9-0.1,0.9-0.6,1.1c-1.1,0.4-0.4-0.5-0.6-0.7c-1-1.2-2.5-1.3-3.9-1.3C68,50,67.2,50,66.4,50
		c-0.5,0-0.8-0.4-0.8-0.9c0-0.5,0.4-0.8,0.9-0.6c0.6-0.3,0.5-0.8,0.5-1.3c0.1,0.1,0.3,0.1,0.4,0.2c0.7,1.4,1.7,2.3,3.5,2
		c-0.5-2.1,0.4-2.3,2-1.1c0.7-1-0.7-1.7-0.1-2.7C74,45.8,73.4,47.9,74.9,47.6z"/>
	<path class="st95" d="M70.1,37.4c-0.2-0.1-0.3-0.3-0.5-0.4c0-0.5,0.2-1.1,0.8-1.2c0.3-0.1,0.5,0.3,0.5,0.6
		C71,37,70.7,37.3,70.1,37.4z"/>
	<path class="st69" d="M86.1,68.6c2.2-0.7,2.6-0.3,2.2,2.2C86.2,71.5,86.4,69.7,86.1,68.6z"/>
	<path class="st62" d="M80.7,63.7c-0.4,0.2-0.4,0.6-0.5,0.9c-0.5,0.1-0.9,0.2-1.6,0.3c0.2-1.3,2.6-1.8,1.2-3.4
		C81.9,61.5,81.2,62.6,80.7,63.7z"/>
	<path class="st153" d="M88.3,64.2c0.3,0.6,1.4,0.3,1.3,1.3c-0.2,1-0.9,1-1.7,1C87.3,65.5,87.6,64.8,88.3,64.2z"/>
	<path class="st154" d="M83.4,61.9c-0.3,0-0.6,0-0.9,0c0.1-0.5-0.1-1.4,0.7-1.2C84.1,60.8,83.9,61.4,83.4,61.9z"/>
	<path class="st155" d="M61.6,50.3c-0.6-0.5-1.6-0.7-1.8-1.8c0.4-0.9,0.8-1.8-0.5-2.3c-0.8-0.3-0.4-1.2-0.8-1.7
		c1.1-0.8,2.2-1.6,3.4-2.3c1-0.6,2.3-0.7,1.5,1c-0.7,1.5-0.4,2.9-0.1,4.3c-0.6,0.4-1.2,0.9-1.8,1.4C61.4,49.4,62.1,49.9,61.6,50.3z"
		/>
	<path class="st152" d="M61.6,49c0.5-0.5,0.1-2.3,1.8-1.4c1.6-1.8,2.4-0.5,3.1,0.9c-0.9,0.7-0.9,1.2,0.3,1.2c0.7,0,1.4,0.1,2,0.6
		c0,0.1,0,0.3,0,0.4c-1.2-0.4-2.4-1.1-3.3,0.6c-0.4,0.6-0.7-0.5-1.1-0.5c-0.2-0.1-0.5-0.2-0.5-0.2C64.2,48.4,62.8,48.8,61.6,49z"/>
	<path class="st100" d="M58.5,44.6c0.5,0.5,0.7,1.1,1.4,1.5c1.5,0.7,1.4,1.7-0.1,2.5c-1.1,0.2-1.1,0.2-0.6-1.6
		c-0.4,0.2-0.8,0.5-1.2,0.7c0.1-0.9,0.3-1.8,0.4-2.7C58.5,44.8,58.5,44.7,58.5,44.6z"/>
	<path class="st5" d="M56.7,57.4c0,1.8,1-0.9,1.4,0.3c0.3,1,0.1,1.6-0.9,2.3c0.8,0,1.3,0,1.7,0c0,0.1,0,0.3,0,0.4
		c0.2,0.3,0.3,0.6,0,0.9c-0.1,0-0.3,0-0.4,0c-0.2,1.2-1.6,1.4-2.2,2.2c-0.4-0.1-1.3,0.9-0.9-0.3c0.2-0.6-1-2.5,1.2-1.9
		c0-0.7,0.1-1.5,0-2.2C56.5,58.6,55.9,58,56.7,57.4z"/>
	<path class="st43" d="M56.2,54.3c0.7,0,1.3,0.7,2.1,0.3c0.5-0.2,0.9-0.2,0.9,0.4c0,0.5-0.4,1.1-0.8,0.9c-1.3-0.7-1.1,0.9-1.8,1.1
		c-0.3,0-0.6,0-0.9,0c-0.9,0.3-1.3,0.1-0.9-0.9c-0.1-0.8,0.6-1.2,0.9-1.8C56,54.3,56.1,54.3,56.2,54.3z"/>
	<path class="st132" d="M56.2,63.7c-0.1-1.6,1.7-1.2,2.2-2.2c-0.1,0.7,0.3,1.6-0.4,2.2c-0.5-0.6-0.9-0.5-1.4,0
		C56.5,63.7,56.4,63.7,56.2,63.7z"/>
	<path class="st5" d="M54.9,56.1c0,0.6,0.3,0.9,0.9,0.9c0,0.9-0.7,0.9-1.3,0.9c0-0.1,0-0.3,0-0.4C54.5,57,54.4,56.4,54.9,56.1z"/>
	<path class="st5" d="M54.5,59.2c0-0.3,0-0.6,0.1-0.9c0.5,0,0.9,0.3,0.7,0.8C55.1,59.7,54.7,59.6,54.5,59.2z"/>
	<path class="st101" d="M74.5,53.9c1.2,1.7-0.6,3.3-0.2,5.1c-1.3-0.5-1.9-2.2-3.7-1.5c-0.7,0.3-0.6-1.8-0.5-2.8
		c0.6,0.6,1.1,1.2,2.1,0.3C72.7,54.5,73.4,53.7,74.5,53.9z"/>
	<path class="st146" d="M76.3,68.2c-0.4,0-0.7,0.1-0.9,0.4c-0.4,0.1-0.6,0-0.5-0.5c0-0.3,0.1-0.7,0-0.8c-2.3-1.3-2.7-4.7-0.5-6
		c0.5-0.3,1.5,0,2.3,0.1c-0.2,0.3-0.4,0.6-0.6,0.9c-2.3,2-2.4,3-0.2,5.1C76.1,67.6,76.1,67.9,76.3,68.2z"/>
	<path class="st61" d="M74.9,68.1c0.2,0.2,0.3,0.3,0.5,0.5c0.7,0.8-0.1,1-0.6,1.1c-1,0.2-0.7-0.6-0.8-1.1
		C74.4,68.5,74.6,68.3,74.9,68.1z"/>
	<path class="st132" d="M58.9,61.5c0-0.3,0-0.6,0-0.9c0.4,0.2,0.8,0.5,0.8,1c0,0.4,0.2,1-0.4,1C58.8,62.5,59,61.9,58.9,61.5z"/>
</g>
</svg>
