<?xml version="1.0" encoding="utf-8"?>
<!-- Generator: Adobe Illustrator 25.0.0, SVG Export Plug-In . SVG Version: 6.00 Build 0)  -->
<svg version="1.1" id="Layer_1" xmlns="http://www.w3.org/2000/svg" xmlns:xlink="http://www.w3.org/1999/xlink" x="0px" y="0px"
	 width="105.5px" height="129px" viewBox="0 0 105.5 129" style="enable-background:new 0 0 105.5 129;" xml:space="preserve">
<style type="text/css">
	.st0{fill:#48A6DD;}
	.st1{fill:#FFFFFF;}
	.st2{fill:#231F20;}
	.st3{fill:#E6E5D9;}
	.st4{fill:#BDBDAE;}
	.st5{fill:#B9B7A9;}
	.st6{fill:#232320;}
	.st7{fill:#292925;}
	.st8{fill:#D7D6C9;}
	.st9{fill:#141413;}
	.st10{fill:#929284;}
	.st11{fill:#D7D5C8;}
	.st12{fill:#141512;}
	.st13{fill:#C9C7B8;}
	.st14{fill:#0A0A0A;}
	.st15{fill:#CCCABE;}
	.st16{fill:#B9B9AA;}
	.st17{fill:#C7C6B7;}
	.st18{fill:#191814;}
	.st19{fill:#131313;}
	.st20{fill:#191815;}
	.st21{fill:#57584E;}
	.st22{fill:#949486;}
	.st23{fill:#45453F;}
	.st24{fill:#1A1917;}
	.st25{fill:#C7C8BA;}
	.st26{fill:#383834;}
	.st27{fill:#383632;}
	.st28{fill:#A9A89F;}
	.st29{fill:#232321;}
	.st30{fill:#0E0E0E;}
	.st31{fill:#23221E;}
	.st32{fill:#252421;}
	.st33{fill:#3B3C36;}
	.st34{fill:#383838;}
	.st35{fill:#3A3838;}
	.st36{fill:#AAA999;}
	.st37{fill:#CECCBE;}
	.st38{fill:#DDDCCF;}
	.st39{fill:#F3F0E5;}
	.st40{fill:#E9EAD8;}
	.st41{fill:#BEBFAE;}
	.st42{fill:#C3C1B2;}
	.st43{fill:#9F9F90;}
	.st44{fill:#B0B0A1;}
	.st45{fill:#A6A797;}
	.st46{fill:#A1A192;}
	.st47{fill:#B3B3A4;}
	.st48{fill:#CDCEBE;}
	.st49{fill:#AEAF9F;}
	.st50{fill:#A6A595;}
	.st51{fill:#ACAB9B;}
	.st52{fill:#969586;}
	.st53{fill:#C2C0B1;}
	.st54{fill:#ADAB9C;}
	.st55{fill:#A7A596;}
	.st56{fill:#515047;}
	.st57{fill:#393832;}
	.st58{fill:#32322B;}
	.st59{fill:#35342E;}
	.st60{fill:#403F39;}
	.st61{fill:#36372E;}
	.st62{fill:#484641;}
	.st63{fill:#494840;}
	.st64{fill:#33332D;}
	.st65{fill:#3D3C36;}
	.st66{fill:#4A4840;}
	.st67{fill:#0E0F0C;}
	.st68{fill:#605E58;}
	.st69{fill:#808072;}
	.st70{fill:#9D9C8D;}
	.st71{fill:#A7A799;}
	.st72{fill:#54544A;}
	.st73{fill:#2F302A;}
	.st74{fill:#47473D;}
	.st75{fill:#353631;}
	.st76{fill:#3E3F3A;}
	.st77{fill:#7E7F79;}
	.st78{fill:#66655D;}
	.st79{fill:#484740;}
	.st80{fill:#31302B;}
	.st81{fill:#6B6C60;}
	.st82{fill:#7F7F72;}
	.st83{fill:#5D5D50;}
	.st84{fill:#59584F;}
	.st85{fill:#6B685D;}
	.st86{fill:#A0A191;}
	.st87{fill:#B2B2A1;}
	.st88{fill:#9A9A8A;}
	.st89{fill:#BDBBAC;}
	.st90{fill:#B9B8A9;}
	.st91{fill:#BDBBAB;}
	.st92{fill:#BFC0B0;}
	.st93{fill:#BFBEAF;}
	.st94{fill:#BDBCAD;}
	.st95{fill:#B2B2A3;}
	.st96{fill:#D3D0C3;}
	.st97{fill:#878878;}
	.st98{fill:#868678;}
	.st99{fill:#8D8D7E;}
	.st100{fill:#78786B;}
	.st101{fill:#919182;}
	.st102{fill:#7A7A6B;}
	.st103{fill:#666658;}
	.st104{fill:#C0C0B0;}
	.st105{fill:#616055;}
	.st106{fill:#848476;}
	.st107{fill:#949484;}
	.st108{fill:#9C9D8D;}
	.st109{fill:#8A8A7B;}
	.st110{fill:#999A8B;}
	.st111{fill:#9D9D8D;}
	.st112{fill:#B6B6A6;}
	.st113{fill:#7C7B6D;}
	.st114{fill:#949485;}
	.st115{fill:#838374;}
	.st116{fill:#8B8B7C;}
	.st117{fill:#5B5A4F;}
	.st118{fill:#65655A;}
	.st119{fill:#403F36;}
	.st120{fill:#3B3A32;}
	.st121{fill:#77776B;}
	.st122{fill:#59564C;}
	.st123{fill:#69685D;}
	.st124{fill:#545449;}
	.st125{fill:#62645A;}
	.st126{fill:#69675E;}
	.st127{fill:#757169;}
	.st128{fill:#747468;}
	.st129{fill:#626255;}
	.st130{fill:#656459;}
	.st131{fill:#35342C;}
	.st132{fill:#808179;}
	.st133{fill:#67665D;}
	.st134{fill:#35342B;}
	.st135{fill:#050400;}
	.st136{fill:#989889;}
	.st137{fill:#9A9A8B;}
	.st138{fill:#B8B9A8;}
	.st139{fill:#AAAA99;}
	.st140{fill:#A8A898;}
	.st141{fill:#C3C4B4;}
	.st142{fill:#E1DFD0;}
	.st143{fill:#C5C4B5;}
	.st144{fill:#A7A797;}
	.st145{fill:#B5B5A5;}
	.st146{fill:#9C9C8C;}
	.st147{fill:#B1B1A1;}
	.st148{fill:#B6B7A7;}
	.st149{fill:#9E9E8E;}
	.st150{fill:#7F7F71;}
	.st151{fill:#959585;}
	.st152{fill:#6E6E60;}
	.st153{fill:#7D7D6F;}
	.st154{fill:#6D6D5E;}
	.st155{fill:#737366;}
	.st156{fill:#959586;}
	.st157{fill:#8A8A7C;}
	.st158{fill:#6E6E61;}
	.st159{fill:#A4A496;}
	.st160{fill:#A0A092;}
	.st161{fill:#858579;}
	.st162{fill:#808071;}
	.st163{fill:#767668;}
	.st164{fill:#8F8F7F;}
	.st165{fill:#7D7D6E;}
	.st166{fill:#A7A898;}
	.st167{fill:#A8A999;}
	.st168{fill:#AAAA9A;}
	.st169{fill:#757367;}
	.st170{fill:#969687;}
	.st171{fill:#6D6D60;}
	.st172{fill:#888779;}
	.st173{fill:#919183;}
	.st174{fill:#989888;}
	.st175{fill:#302F28;}
	.st176{fill:#7D7A70;}
	.st177{fill:#6F6F63;}
	.st178{fill:#808073;}
	.st179{fill:#555449;}
	.st180{fill:#7B7B6E;}
	.st181{fill:#9F9F8F;}
	.st182{fill:#A1A190;}
	.st183{fill:#CACABB;}
	.st184{fill:#9FA090;}
	.st185{fill:#B2B3A3;}
	.st186{fill:#999989;}
	.st187{fill:#909080;}
	.st188{fill:#9A988A;}
	.st189{fill:#9C9A8D;}
	.st190{fill:#AFB0A0;}
	.st191{fill:#9D9D8E;}
	.st192{fill:#B7B7A7;}
	.st193{fill:#909181;}
	.st194{fill:#6B685C;}
	.st195{fill:#5C594E;}
	.st196{fill:#87867B;}
	.st197{fill:#58584C;}
	.st198{fill:#949487;}
	.st199{fill:#919181;}
	.st200{fill:#BABAAA;}
</style>
<g>
	<path class="st0" d="M90.8,126.5H15c-2.2,0-4-1.8-4-4v-23c0-2.2,1.8-4,4-4h75.8c2.2,0,4,1.8,4,4v23C94.8,124.7,93,126.5,90.8,126.5
		z"/>
	<g>
		<path class="st1" d="M31.9,113c-0.1-2-0.1-4.4-0.1-6.8h-0.1c-0.5,2.1-1.2,4.4-1.8,6.4l-2,6.4H25l-1.8-6.4
			c-0.5-1.9-1.1-4.3-1.5-6.4l0,0c-0.1,2.2-0.2,4.8-0.3,6.8l-0.3,6.3h-3.4l1.1-16.5h5l1.6,5.5c0.5,1.9,1,4,1.4,5.9h0.1
			c0.5-1.9,1-4.1,1.6-5.9l1.8-5.5h4.9l0.9,16.5h-3.6L31.9,113z"/>
		<path class="st1" d="M53.7,110.9c0,5.4-3.3,8.7-8.1,8.7c-4.9,0-7.7-3.7-7.7-8.4c0-4.9,3.2-8.6,8-8.6
			C51,102.6,53.7,106.3,53.7,110.9z M41.8,111.1c0,3.2,1.5,5.5,4,5.5s4-2.4,4-5.6c0-3-1.4-5.5-4-5.5
			C43.3,105.5,41.8,107.9,41.8,111.1z"/>
		<path class="st1" d="M71.2,110.9c0,5.4-3.3,8.7-8.1,8.7c-4.9,0-7.7-3.7-7.7-8.4c0-4.9,3.2-8.6,8-8.6
			C68.5,102.6,71.2,106.3,71.2,110.9z M59.3,111.1c0,3.2,1.5,5.5,4,5.5c2.5,0,4-2.4,4-5.6c0-3-1.4-5.5-4-5.5
			C60.8,105.5,59.3,107.9,59.3,111.1z"/>
		<path class="st1" d="M73.7,119.3v-16.5H78l3.4,6c1,1.7,2,3.8,2.7,5.6h0.1c-0.2-2.2-0.3-4.4-0.3-6.9v-4.8h3.4v16.5h-3.9l-3.5-6.4
			c-1-1.8-2.1-3.9-2.9-5.8h-0.1c0.1,2.2,0.1,4.5,0.1,7.2v5h-3.3C73.7,119.2,73.7,119.3,73.7,119.3z"/>
	</g>
</g>
<circle class="st2" cx="53" cy="52.3" r="51.2"/>
<g>
	<path class="st3" d="M15.1,86.6C9,80.3,5.3,72.5,3.3,64C0.6,52.7,1.7,41.6,6.7,30.9c0.9,0.1,0.8,0.8,0.9,1.4
		C6.3,36.4,6.5,40.6,7,44.9c0.3,2.3-0.8,4.5-0.7,6.8c0,0.8,0,1.6-0.6,2.2c-0.6,0-1.4-0.3-1.2,0.9c0.1,0.5,0,1,0,1.5c0,1-0.1,2,0.2,3
		c0.1,0.6,0.2,1.3,1,1.4c1.1,0.6,0.1,1.2,0.1,1.9C5.7,63.4,4.9,64.9,7,64c1.1-0.5,1.3,0.6,1.4,1.2c0.7,2.4,2.1,4.3,4,5.9
		c-1.1,2.4,0.4,5-0.9,7.4c-0.6,1.2,1.3,1.3,1.3,2.4c0.2-0.5-0.1-1.2,0.5-1.4c0.5-0.2,0.8,0.2,1.1,0.5c0.6,0.6,0.5,1.5,0.9,2.2
		c0.8,0.8,1,1.9,1.6,2.8c0.2,0.4,0.4,0.7,0.3,1.1C16.8,87.3,16.1,87.5,15.1,86.6z"/>
	<path class="st4" d="M40.2,101.7c-1.1-0.2-2.2-0.3-3.2-0.8c0.7-0.6,0.5-1.8,1.4-2.2c1-1.7,0.9-2-1-3.2c-0.2-0.4-0.3-0.8-0.3-1.2
		c1.3-2.8,0.8-6.3,3.2-8.7c0.4-0.4,0.5-0.9,0-1.4c-0.7-0.1-1.2,1.5-1.7,0.7c-1-1.4-3.9-1.3-3.3-4c0.4-0.5,1-0.8,1.7-0.7
		c0.8,0.3,1.5,0.3,2.3,0c1.3,0,2.6,0.4,3.8-0.9c1-1.1,1.8-0.6,2.7,1.4c2.4-0.1,2.4-0.1,1.9,2.2c-0.3,1.5-0.8,2.9,0.1,4.4
		c0.3,0.5,0.2,1.1-0.2,1.6c-0.9,0.3-1.2-0.6-1.8-1c-0.3-0.2-0.6-0.5-1-0.4c-0.4,0.2-0.4,0.6-0.4,1c0.2,1.7,0.1,3.3-1.6,4.4
		c-0.3,0.2-0.3,0.5,0,0.8c1.9,1.6,0,1.8-0.9,2.4c0.8-0.1,1.7-1,2.3,0.2c0.9,0.8,0.9,2,1.4,2.9c0.3,0.4,0.9,0.5,1.1,1
		c0.1,1.2-1,1.1-1.7,1.5C43.4,102.7,41.8,101.6,40.2,101.7z"/>
	<path class="st5" d="M43.7,2c0.8-0.6,1.7-0.3,2.6-0.4c1.5,0,2.9-0.7,4.4-0.1c0.6,0.8-1.2,1.1-0.4,2c-1.8,0.5-2.9,2.6-4.5,2.9
		c-2.4,0.5-4.2,1.5-5.6,3.4c-1.9,0.6-3.9-0.1-5.4,0.4c0.7,0,1.7,0.5,2.7,0.9c0,2-1.6,1.1-2.6,1.3c-0.4,0.1-0.8-0.7-1.1,0.2
		c-0.5,1.6-1.9,1.8-3.3,2c-0.6,0.1-1.5,0.1-1.6,0.9c-0.1,0.8,0.8,0.7,1.2,1c0.5,0.3,0.8,0.7,1.1,1c0,0,0.1,0,0.2-0.1
		c0.1,0,0.1-0.1,0.1-0.2c0.1-0.2,0.2-0.3,0.3-0.5c0.6-0.9,1.2-1.8,2.1-2.4c0.8-0.5,1.3-0.6,1.4,0.6c0,0.2-0.1,0.4-0.2,0.6
		c-1.8,2-2.8,4.6-5.4,5.8c-1.7-0.3-3.4,0.2-5-0.5c0.1-1.5,1-2.7,1.9-3.9c0.3-0.4,0.6-0.8,0.1-1.2c-0.2,0-0.4-0.1-0.5-0.1
		c-2.2,0.1-2.8-1.7-3.6-3.2c1.3-2.2,3.6-3.1,5.6-4.2c0.9-0.5,1.6-0.1,1.2,1.1C29,10,29.2,10,29.7,10c2.7-0.8,5.5-1.2,8-2.8
		c1.2-0.8,2.4-1.3,3.8-1.7C43.5,4.9,44,4.1,43.7,2z"/>
	<path class="st6" d="M66.8,60.6c0.1,1.8,0.1,3.5,0.3,5.3c0.1,0.9-0.4,0.4-0.7,0.4c-0.2,0.3-0.5,0.7-0.9,0.8c-0.3,0-0.6,0-0.9-0.3
		c-0.1-0.2-0.2-0.4-0.2-0.6c0.1-0.8,0.2-1.6,0.1-2.4c0.3-1.1-0.6-1.7-1.1-2.4c-0.2-0.5-0.3-1-0.4-1.5c2-3.5,0.7-6.9-0.2-10.3
		c-0.4-0.5-0.5-1.1-0.3-1.8c1.4-1.8,1.4-1.8-0.7-2.4c-0.8-0.2-0.9-0.9-0.9-1.5c-0.1-0.6,0.3-1.3,0-1.9c0-0.9-0.9-1.5-1-2.4
		c0.7-0.9,1.4-1.9,0.7-3.2c0,0,0-0.1,0-0.2c2.2-3.1,0.2-6.5,0.9-9.7c0.2-1,0.7-1.8,2-1.3c1.5,2.2,1.3,4.6,1.1,7
		c-0.1,1.5-0.4,3,0,4.6c0,0.1,0.1,0.3,0,0.4c-1.3,2.6,0.1,4.2,1.9,5.8c0.1,0.2,0.2,0.4,0.2,0.6c-0.8,1.8-1.7,3.6-0.8,5.6
		c-0.1,0.5-0.1,1,0,1.5c0,1,0,2,0.4,3c0,1.6,0.3,3.3-0.2,4.9c-0.2,0.8,0.1,1.2,0.8,1.4C67,60.3,66.9,60.4,66.8,60.6z"/>
	<path class="st7" d="M63.2,25.1c-0.7,0.6-2.5,1.1-0.3,2.2c0.2,0.1,0.3,0.5,0,0.7c-1.7,1.5-1.7,1.5-0.5,3.7c0.5,0.9,0.6,1.8-0.2,2.4
		c-1.7,1.1-1.2,2.7-0.7,3.9c0.6,1.6,0.6,1.9-1.1,1.2c-0.1,0.2-0.2,0.4-0.2,0.6C60,39.9,59.7,40,59.5,40c-1.3-0.2-1.7-1.1-1.7-2.3
		c-0.2-1.4,1.1-1.7,1.7-2.5c2-2.4,0.8-4.8,0.1-7.2c-0.1-0.4-0.2-0.8-0.3-1.2c-0.3-1.2,1.6-1.2,1.3-2.4c0.1-0.6,0-1.1,0-1.7
		c0.1-0.4,0.3-0.7,0.6-0.9c0.7-0.3,1-1,1.5-1.5c0.3-0.2,0.5-0.4,0-0.6c-0.4-0.2-0.9-0.4-1.2-0.7c-0.3-0.3-0.5-0.7-0.4-1.1
		c0.3-0.7-0.1-1.2-0.4-1.8c-0.9-1.8-1.6-3.7-1.3-5.8c0.1-0.6,0.1-1.3-0.5-1.8c-0.4-0.6-0.7-1.2-0.9-1.9c0-0.9,0.7-1.1,1.4-1.3
		c0.2,0.1,0.3,0.2,0.5,0.4c1.3,1.7,2.3,3.4,1.8,5.8c-0.3,1.2,0.6,2.4,1.4,3.4c0.3,1.8,0.9,3.5,1.9,5c0.2,1.5,0.2,3,0,4.6
		C64.9,25.6,64.3,25.9,63.2,25.1z"/>
	<path class="st8" d="M15.1,86.6c0.8,0.4,1.5,0.1,2.1-0.4c2-0.2,2.9,1.7,4.6,2.2c0.6,0.2,0.2,0.8,0,1.3c-0.3,0.7,0.4,0.1,0.6,0.3
		c0.4,0.1,0.9,0.2,1.2,0.5c2.1,2.3,4.6,3.7,7.6,4.3c1.5,0.3,2,2.1,3.3,2.7c0.3,0.3-0.8,0.9,0.3,1c0.5,0,1,0.3,1.4,0.6
		c0.4,0.2,1.1,0.5,0.8,1c-0.2,0.5-0.9,0.2-1.4,0.1C27.5,97.7,20.7,93.1,15.1,86.6z"/>
	<path class="st9" d="M63.2,25.1c2.6-0.1,1.1-2.3,1.7-3.5c0.2-0.4-0.3-1.2,0.1-1.8c-0.1-0.2-0.1-0.4,0.2-0.5c0.2,0,0.4,0.1,0.4,0.4
		c0.1,0.3,0,0.7,0.3,1c0.1,0.4,0.3,0.9,0.4,1.3c-0.1,0.2-0.2,0.5-0.2,0.6c1.1,1.6,0.4,3.3,0.2,5c-0.3,2.3,0.1,4.5,0.4,6.8
		c0.5,3,0.5,6-0.5,8.9c-1.1-0.5-1.3-2.1-3.1-1.8c-0.6,0.1-0.6-1.4,0-2c0.9-0.9,0.9-1.9,0.6-3c-0.7-2.6,0.5-5.2,0.2-7.8
		C63.9,27.4,63,26.4,63.2,25.1z"/>
	<path class="st10" d="M50.8,2.1c-1.4-0.9-3-0.1-4.5-0.5c0.6-0.1,1.2-0.3,1.9-0.4c1.2-0.3,2.4-0.1,3.5-0.2c2.3,0.8,3,2.9,3.7,4.8
		c0.3,0.7,0,1.5-0.9,1.2c-1.1-0.3-1.6,0.6-2.3,1c-0.8,0.4-1.5,1-2.6,0.7c-1.4-0.3-1.9,1-2.5,1.9c0.3,0.6,0.7,0.4,1,0.3
		c0.9-0.1,1.8-0.2,2.3,0.7c0.2,0.4,0.3,0.9,0,1.2c-0.7,0.8-1.5,0.7-2.4,0.3c-0.8-0.7-2.1-0.4-2.9-1.3c-0.2-1-1.9-0.9-1.4-2.7
		c0.5-1.9,1.9-1.4,2.8-2c1.1-0.6,2.2-1.3,3.5-1.5c1.6-0.3,1.8-0.9,0.8-2.3C50.6,3.1,50.4,2.7,50.8,2.1z"/>
	<path class="st11" d="M29.2,7c2.7-1.7,5.7-2.8,8.8-3.6c0.9-0.2,1.7-0.4,2.6-0.5c0.8-0.1,1.8-0.2,2,0.8c0.3,1.1-0.7,1.6-1.6,1.8
		c-1.3,0.2-2.5,0.7-3.7,1.2c-0.3,0.1-0.8-0.1-0.8,0.2c-0.1,1.7-1.2,0.9-2,1c-0.7-0.4-1.2,0-1.6,0.6c-0.2,0.1-0.4,0.2-0.6,0.3
		C30.9,8.8,29.4,9.1,29.2,7z"/>
	<path class="st12" d="M63.2,85.3c0.7,0.6,0,1.4,0,1.6c0.5,2.7-1.9,4.2-2.6,6.4c-0.3,0.9-0.6,2.4-2.3,2.2c-0.2,0.3-0.5,0.3-0.8,0.2
		c-0.2-0.1-0.3-0.2-0.4-0.4c-0.3-0.4-0.4-0.9-0.4-1.4c0-0.5,0.2-1.1,0.1-1.6c0-0.3,0-0.6,0.1-0.8c0.1-0.3,0.3-0.5,0.5-0.6
		c0.6-0.3,1-0.8,1.2-1.4c0.7-1.2,2.6-1.5,2.3-3.4c0-0.3,0.4-0.3,0.7-0.2c0.3,0.1,0.4,0,0.3-0.6c0.1-0.3,0.2-0.7,0.6-0.8
		C63.1,84.4,63,84.9,63.2,85.3z"/>
	<path class="st13" d="M34,7.4c0.7-0.3,1.4-0.2,2.2-0.7c1.1-0.7,2.3-2.3,4.2-1.6c0.7,0.2,1.8-0.5,1.7-1.3c-0.1-0.8-1.1-0.7-1.8-0.6
		c-0.8,0.1-1.6,0.1-2.4,0.2c1.8-1.1,3.9-0.7,5.8-1.4c0.2,0.7,1.4-0.1,1.2,0.5c-0.3,1-0.6,2.2-1.7,2.7c-1.8,0.9-3.9,1.2-5.6,2.4
		c-2.4,1.8-5.3,2.1-8,2.8c0.3-1.8,2.2-1.3,3.1-2.2v0C33.1,7.9,33.5,7.6,34,7.4z"/>
	<path class="st14" d="M66.3,43.3c-0.8-1.4,0.4-2.5,0.5-3.8c0.1-2.3-0.4-4.6-0.7-6.9c-0.3-2.5-0.7-5,0.4-7.4
		c0.2-0.5,0.1-0.8-0.2-1.2c-0.5-0.6-0.7-1.3,0-1.9c2,3.9-0.3,8,0.8,12c0.7,2.7,0.7,5.6,1,8.4c-0.3,0.5,0,0.7,0.4,0.9
		c-1.4,0.8-0.6,2.9-2.2,3.5c-0.9-0.4-0.9-1.1-0.5-1.8c0.2-0.4,0.8-0.7,0.5-1.3C66.3,43.6,66.3,43.4,66.3,43.3z"/>
	<path class="st15" d="M32.7,8.3c-0.5,1.5-2.4,1.1-3.1,2.2c-2.9,0.3-0.2-1.4-0.8-2.1c-2.3,1.1-4.4,2.5-6.3,4.3
		c-1.3,1.7-3.1,2.9-4.4,4.5c-0.4,0.6-1.2,0.9-1.9,0.4c-0.2-0.3-0.1-0.6,0.1-0.9c3.7-4,7.9-7.3,12.9-9.7C29.9,8.6,31.4,8.3,32.7,8.3z
		"/>
	<path class="st16" d="M16.3,16.7c0,0.3,0,0.6,0,0.9c0.8,1,0.2,1.8-0.6,2.4c-1.7,1.3-2.8,2.6-2.7,5.2c0.1,1.9-1.2,4.1-3.5,5
		c0-1.1-1.2-2.1-0.7-3.3C10.7,23,13.2,19.7,16.3,16.7z"/>
	<path class="st12" d="M58.4,95.9c0.6,3.5-0.4,4.9-3.9,6c-0.8,0.3-1,1.9-2.4,1.5c0.1-1.5,0.1-3.2,1.9-3.9c0.2-0.2,0.4-0.4,0.6-0.6
		c0.5-1.1,2.1-0.9,2.5-2C57.5,96.6,57.5,95.7,58.4,95.9z"/>
	<path class="st17" d="M35.7,100.4c0.4-0.1,0.7-0.1,1.2-0.2c-1.2-0.6-2.3-1.2-3.4-1.7c0.4-0.3,0.7-0.5,1-0.8
		c0.5-0.8-0.3-1.5-0.3-2.3c0-0.7,0-1.3,0.8-1.6c0.8-0.2,1.4,0.1,1.7,0.9c0.2,0.8,0.4,1.5,1.2,2c0.6,0.6,0.8,1.4,1.1,2.2
		c0.3,0.6-1.5-0.1-0.6,1.2c0.6,0.9-0.9,0.2-1.3,0.6C36.5,100.8,36,100.8,35.7,100.4z"/>
	<path class="st18" d="M65,73.8c0,0.2,0,0.3,0,0.5c0.6,0.5,0.1,1.2,0.4,1.8c-0.3,1.3-0.6,2.7-0.9,4c-0.5,0.7-0.6,1.5-1,2.2
		c-0.4,0.7-0.8,0.7-1.3,0.1c-0.2-0.6,0.3-0.9,0.4-1.4c-0.3,0.3-0.5,1.1-1.3,0.9c-0.5-0.3-0.7-0.8-0.6-1.4c1.5-1.7,2-3.9,2.9-5.9
		C64.1,74.2,64.3,73.6,65,73.8z"/>
	<path class="st19" d="M65.4,50.3c-0.4-0.3-0.5-0.6,0-0.9c0.5-0.5-0.1-1.3,0.5-1.8c0.4,2.7,0.9,5.5,1.3,8.2c0.1,0.4-0.1,1,0.1,1.3
		c0.9,1,0.3,1.2-0.6,1.5c-0.3,0.1-0.4,0.6,0,0.9c0.1,0.1,0.2,0.2,0.1,0.3c0,0.1-0.1,0.1-0.1,0.1c-0.5,0-1.3,0.8-1.1-0.7
		c0.3-1.8,0.2-3.7,0.3-5.5C65.3,52.8,66,51.5,65.4,50.3z"/>
	<path class="st14" d="M65.9,20.7c-0.6,0-0.1-1.1-0.9-0.9c-1.2-1.4-2.4-2.8-1.8-4.9c-0.1-1.5-1.6-2.8-0.4-4.4c1.3,0.7,1,2,1.2,3.1
		c0.2,0.8,0.5,1.3,0.9,1.9c-0.2,0.5,0.1,0.9,0.4,1.2c-0.1,0.5-0.6,1.2,0.1,1.5C67,18.9,66.4,19.8,65.9,20.7z"/>
	<path class="st20" d="M62.8,10.5C62.5,12,64,13.4,63.2,15c-2-0.8-2.2-2.8-1.8-4.3c0.4-1.4,0.2-2.2-0.7-3.1
		c-0.5-0.4-0.6-1.2-0.5-1.8C62.3,6.6,62.2,8.7,62.8,10.5z"/>
	<path class="st21" d="M54.4,99.9c-0.8,0.3-1.6,0.7-1.4,1.7c0.2,0.9-0.6,1.2-0.8,1.8c-1.2,0-2.3,0-3.5,0c-0.1-0.5,0.3-0.7,0.7-0.9
		c1.7-0.6,1.1-2.5,1.9-3.6c1-1.1,2-0.6,3,0.1C54.3,99.2,54.5,99.5,54.4,99.9z"/>
	<path class="st22" d="M49.5,102.9c-0.3,0.1-0.6,0.3-0.9,0.4c-0.7-0.1-1.5-0.3-2.2-0.4c-0.8-0.4-1.9-0.4-1.8-1.7
		c0.3-0.8,1.8-0.1,1.8-1.3c1-1.2,1.2-1.2,2.3-0.2c0,0.4-0.4,0.8-0.2,1.3C48.7,101.7,50.2,101.7,49.5,102.9z"/>
	<path class="st23" d="M59.6,5.3c0.1,0.9-1,0.7-1.3,1.3c-0.1,0.1-0.1,0.1-0.2,0.2c-0.2,0.1-0.4,0.1-0.6,0c-0.5-0.2-0.8-0.5-0.7-1.1
		c0.1-0.3,0.4-0.5,0-0.8c-0.1-0.1-0.3-0.2-0.4-0.4c-0.9-0.9-2.5-1.3-2.4-3c0.1-0.4,0.4-0.4,0.7-0.6c0.3,0.1,0.5,0.3,0.8,0.4
		c1.1,0.7,2.1,1.4,3.1,2.1l0,0C59.5,3.9,59.4,4.6,59.6,5.3L59.6,5.3z"/>
	<path class="st24" d="M64.6,66.7c0.3,0,0.6,0,0.8,0c0.3,0.2,0.5,0.5,0.5,0.9c-0.4,1.6,1.5,3.6-0.9,4.8c-0.1,0-0.2-0.1-0.3-0.1
		c-0.5-0.8-1-1.6-1.8-2.2C62.8,68.7,64.3,68,64.6,66.7z"/>
	<path class="st25" d="M8.8,26.9c0.7,0.1-0.4,2,1.2,1.3c0.4,0.9-0.6,1.2-0.7,1.9c0,1.4-0.8,2.1-2.2,2.2c-0.1-0.5,0.1-1-0.4-1.3
		C7.1,29.4,7.8,28.1,8.8,26.9z"/>
	<path class="st26" d="M62.4,82.2c0.4,0.2,0.7,0.4,0.9-0.3c0.2-0.8,0.5-1.5,1.3-1.9c0.2,1.9-1.6,3.3-1.4,5.3c-0.3,0.3-0.6-1.5-0.9,0
		c-1.3-0.2-1.1-1.3-1.2-2.2c0-0.2,0.1-0.4,0.2-0.6C61.6,82.2,61.9,81.9,62.4,82.2z"/>
	<path class="st27" d="M65,73.8c-0.3,0.3-0.6,0.6-0.9,0.9c-0.1,0.2-0.3,0.2-0.4,0.1c-0.3-0.3-0.5-0.7-1-0.6
		c-0.7,0.1-1.6,0.4-1.8-0.6c-0.2-0.9,0.5-1.4,1.3-1.7c0.9,0.3,2.1-0.5,2.8,0.6c0,0,0,0,0,0C64.7,72.9,64.7,73.3,65,73.8z"/>
	<path class="st28" d="M44.6,101.2c0.6,0.6,1.2,1.2,1.8,1.7c-2.1-0.1-4.2-0.5-6.2-1.3C41.6,101,43.2,101.9,44.6,101.2z"/>
	<path class="st9" d="M65.9,47.7c-0.1,0.6,0.2,1.3-0.5,1.8c-0.8-2.1-1-4.1,0.9-5.8c0.5,0.4,0.6,0.9,0.1,1.2
		c-0.8,0.6-0.4,1.2-0.1,1.9C66,47,65.9,47.3,65.9,47.7z"/>
	<path class="st29" d="M58.8,3.4c-1.5,0-2.2-1.2-3.1-2.1C57,1.7,58.3,1.9,58.8,3.4z"/>
	<path class="st30" d="M67.8,70.8c-0.9-1.5-0.3-2.2,0.4-3.1C68.8,68.9,68.1,69.6,67.8,70.8z"/>
	<path class="st31" d="M58.4,95.9c-0.3,0.4-0.6,0.9-0.9,1.3c-0.7-0.1-1.2-0.4-1.1-1.2c0.1-0.7,0.5-1,1.2-0.6c0.3,0,0.6,0,0.9,0
		C58.4,95.6,58.4,95.8,58.4,95.9z"/>
	<path class="st29" d="M59.6,5.2c-0.6-0.5-0.8-1.1-0.8-1.8C60.6,3.3,59.7,4.5,59.6,5.2z"/>
	<path class="st32" d="M65.4,76c-1.3-0.3-0.1-1.2-0.4-1.8C66,74.6,65.8,75.3,65.4,76z"/>
	<path class="st9" d="M68.5,43.3c-0.4,0.1-0.9,0.6-1.1,0.1c-0.2-0.5,0.3-0.7,0.7-1C68.2,42.7,68.4,43,68.5,43.3z"/>
	<path class="st33" d="M65.9,67.6c-0.4-0.2-0.4-0.5-0.5-0.9c0.3-0.1,0.6-0.3,0.9-0.4C66.3,66.8,66.4,67.3,65.9,67.6z"/>
	<path class="st34" d="M66.7,60c0-0.1,0-0.3,0-0.4c0.2-0.2,0.5-0.5,0.7-0.2c0.4,0.6-0.2,0.9-0.6,1.1C66.7,60.4,66.7,60.2,66.7,60z"
		/>
	<path class="st35" d="M65.4,16.7c-1-0.1-1.2-0.5-0.4-1.2C65.1,15.9,65.3,16.3,65.4,16.7z"/>
	<path class="st36" d="M7.1,32.2c0.9-0.6,1.6-1.3,2.2-2.2c1.7-0.1,1.5-2,2.4-2.8c0.9-0.8,1.3-1.9,0.6-3.5c-0.5-1.2,1.2-2.4,2.2-3.4
		c0.8-0.7,2.3-1,1.8-2.6c2.2-0.3,2.5-2.8,4.2-3.6c0.7-0.4,1.1-1.2,2-1.3c1.4,0.8,1.8,3,4,2.7c0.2,0.8-0.5,0.8-0.9,1
		c-1,0.4-1.8,1-2.4,1.8c-0.9,1.3-1.9,2.6-3.5,3.1c-0.4,0.1-0.7,0.6-0.9,0.9c-0.2,0.3-0.4,0.7-0.2,1c0.2,0.4,0.6,0.3,1,0.2
		c0.3-0.1-0.1,0,0.2-0.1c3.2-0.9,3.5-0.6,2.7,2.8c-0.7,0.3-1.5,0-2.1,0.6c-0.1,0.2-0.2,0.3-0.3,0.4c-0.4,0.4-0.8,0.7-1.1,1.2
		c-0.4,0.7-0.8,1.4-1.6,1.6c-0.5,0.1-1.6-0.3-0.7,0.9c-0.1,0.3-0.2,0.6-0.3,0.8c-0.3,1.3,0.5,1.9,1.6,1.7c1-0.3,1.5,0,1.9,0.8
		c0.5,1.1,1.4,2.3,0.8,3.5c-0.6,1-1.2,0.1-1.6-0.5c-0.1-0.6-0.3-1.2-1-1.2c-0.2,0-0.4,0-0.7-0.1c-1.6-0.5-4.1-0.1-4.1-2.4
		c0-1.4-0.1-3.4,1.1-4.1c-0.6,0.7-1.5,1.9-2.7,2.9c-1.7,1.6-1.9,3.7-1.2,5.9c-0.4,1.9,0.6,3.3,1.6,4.8c-0.1,0.9-0.5,0.5-1.4,1.3
		c-0.7,0.6-2.3,1.2-2.1,2.7c0.1,0.9-0.3,1.8,0,2.8c0.5,1.5-0.2,2.8-0.8,4.2C7.4,54,7.2,54,7,54c-0.7-0.6-0.5-1.7-1.3-2.3
		c0-1,0-1.9,0.3-2.8c0.8-2.5,0.4-5.1,0.1-7.6C5.7,38.1,6.2,35.2,7.1,32.2z"/>
	<path class="st37" d="M22.1,90.2c-0.3,1.3-1,0.3-1.1,0.1c-0.8-1,1-0.5,0.6-1.5c-1.6-0.1-2.8-1.6-4.4-2.5c-0.2-0.3-0.3-0.6-0.5-0.9
		c0-0.1-0.1-0.1-0.1-0.2c0.8-1.6-0.8-2-1.4-2.8c-0.2-1.4,0.6-1.3,1.6-1.1c-1.6-1.1-1.6-1.4,0-2.2c0.6-0.3,1.1-0.7,1.7-1
		c2-0.6,2.8,1.2,4,2.1c0.6,0.5-0.2,1.1-0.9,1.4c-0.7,0.3-1.2-0.2-1.8-0.5c0.6,0.6,0.7,2.4,2.3,0.8c0.3-0.3,0.8,0.1,1.2,0.2
		c0.9,0.5,1.8,0.3,2.7-0.1c0.2,0,0.4,0.1,0.6,0.2c0.5,1.2,0.5,2.6,1.7,3.4c0.1,1.9,0.7,3.4,2.6,4.1c-0.8,2.7-1.5,3.1-3.3,1.1
		c-1.4-1.6-3.9-1.8-4.8-4.4C22.6,87.9,23.7,89.4,22.1,90.2z"/>
	<path class="st38" d="M18.5,78.2c-0.3,0.6-0.6,1.4-1.5,1.3c-0.4,0-1-0.1-0.9,0.6c0,0.5,0.5,0.8,1,0.6c0.5-0.2,1-0.2,1.3,0.4
		c0.1,0.3,0,0.6-0.2,0.8c-0.5,0.5-0.9,0.1-1.3-0.2c-0.7-0.5-1.2-0.4-1.4,0.6c0.1,0.4,0,0.6-0.4,0.4c-0.9-0.7,0-2.4-1.6-2.8
		c-0.5,1,0.7,1.6,0.4,2.7c-1.1-1.5-3.2-2.2-2.7-4.2c0.4-1.7,0.4-3.2,0-4.9c-0.3-1,1.3-1.3,1.2-2.4c0.1,0,0.2-0.1,0.3-0.1
		c1.7,0.8,2.2,2.6,3.4,3.9c0.5,0.5,0.6,1.4,1.5,1.4c0.7,0.3,0.7,1.1,1,1.6C18.5,78,18.5,78.1,18.5,78.2z"/>
	<path class="st38" d="M5.7,51.7C7.2,51.8,7,52.9,7,53.9c0.6,1.1,0.4,2.3,0.6,3.4c-0.1,1,0.1,2,0.7,2.9c1,1.5,0.9,3.3,1.3,5
		c0.5,2.2,2.1,3.9,2.8,6c0,0,0,0,0,0c-3.3-1.1-3.6-4.4-4.9-6.9c-0.9,0.1-1,1.1-1.8,1.5c-0.3-1.5-1.4-2.9,0.2-4.3
		C6,61.2,5.5,61,5.3,61c-0.4-1.5-1.3-3.1,0-4.6c0.5-0.5,0-1.1-0.2-1.6c-0.1-0.3,0-0.6,0.2-0.9C6,53.2,5.6,52.4,5.7,51.7z"/>
	<path class="st39" d="M5.2,66.7c2.3,1.4,4.6,2.4,4.8,5.2c0,0.4,0.1,0.9-0.3,1.2c-0.4,0.3-1,0.3-1.2,0C7.2,71.2,5.7,69.4,5.2,66.7z"
		/>
	<path class="st40" d="M5.3,54.8c1.1,0.2,1.1,1,0.6,1.6c-0.8,1.1-1.3,2.1-0.4,3.4C5.7,60,5.4,60.6,5.3,61c-1.5,0.3-0.7-0.8-0.9-1.3
		c-0.5-1.3-0.1-2.5,0.3-3.7C4.7,55.5,4.9,55.1,5.3,54.8z"/>
	<path class="st41" d="M5.3,54.8c0,0.4,0,0.9,0,1.3c-0.4,0.7-0.9,0.7-1.3,0c0-0.7,0-1.4,0-2.2c0-0.4,0-1,0.6-1
		c0.3,0,0.5,0.6,0.8,0.9C5.3,54.2,5.3,54.5,5.3,54.8z"/>
	<path class="st8" d="M15,82.6c0.1-0.1,0.3-0.3,0.4-0.4c0.8,0.2,1,1.1,1.8,1.4c0.6,0.3-0.9,0.9-0.4,1.7C15.6,84.8,16.1,83.2,15,82.6
		z"/>
	<path class="st38" d="M4,56.1c0.4,0.3,0.9,0.3,1.3,0c-0.6,1.1-1.1,2.3-0.9,3.6C3.5,58.5,4.1,57.3,4,56.1z"/>
	<path class="st42" d="M22.1,90.2c0.5-1,0.7-1.9,0-2.9c-0.3-0.4-0.6-0.9-0.1-1.3c0.5-0.4,1,0,1.3,0.4c0.4,0.4,0.9,0.8,1,1.4
		c0.1,0.3,0.3,0.7,0.4,0.7c3-1,2.5,2.9,4.9,3c0.3-0.4,0.8-1.1,1.4-1.7c-0.8-0.9-1.1-1.8-0.7-3c0.2-0.3,0.5-0.4,0.9-0.3
		c0.8,0.6,1.3,2.1,2.7,0.6c0.4-0.5,1.1,0.3,1.3,1c0.2,0.6-0.5,1-0.5,1.6c0.3,0.3,0.7,0.2,1,0.3c2.3,0.1,2.5,0.3,1.3,2.3
		c-0.6,1,0.1,1.4,0.6,2c0,0.4,0,0.9,0,1.3c0.4,0.6,0.5,1.2,0,1.8c-0.7-0.4-1.2-0.8-1.3-1.6c-0.1-0.6,0.1-1.4-0.9-1.4
		c-0.3,0-0.8,0.1-0.7,0.4c0.2,0.6-0.1,1.2,0.4,1.8c0.8,0.8,0.7,0.9-0.6,1.3c-0.5-0.1-1.3,0-1.4-0.3c-0.8-2.1-2.6-2.3-4.4-2.7
		C25.9,94.1,24.4,91.5,22.1,90.2z"/>
	<path class="st43" d="M47.3,88.8c0.5-1.6-1.4-2.9-0.7-4.6c0.4-1,0.5-2.1,0.8-3.1c-0.9-0.8-1.4,1.3-2.3,0.2c0.7-1.2-0.4-2.4,0-3.6
		c1.4,0.2,2.2-0.7,3.1-1.4c0.3,0,0.6,0.2,0.8,0.4c1.7,1,1.5,2.9,2.1,4.5c0.2,0.4,0.3,0.7,0.4,1.1c-0.1,1.1,1.7,2,0.2,3.2
		c-0.7-0.2-1.5-0.4-1.2,0.9c0.1,0.5,0.1,1,0.1,1.5c-0.6,1.1,0.5,1.4,0.9,2c0.1,0.3,0.2,0.6,0.1,0.9c-0.5,1.3-0.7,2.7-1.3,4
		c-0.3,0.7-0.8,1.2-1.7,1c-0.9-0.2-0.5-0.8-0.3-1.4c0.2-0.9-0.8-0.6-1.1-1c-0.5,0,0.4-1-0.7-0.9c-0.7,0.1-0.8-0.8-0.6-1.3
		c0.3-0.8,0.3-1.9,1.7-1.8c0,0,0.1,0,0.1,0C47.7,88.9,47.4,88.9,47.3,88.8z"/>
	<path class="st17" d="M37.6,94.1c-4.3-1,0.1-2.4-0.2-3.7c-0.7-0.6-1.8-0.1-2.5,0c-1.8,0.3-1.1-1.1-0.9-1.3c0.7-0.6,1.5-1.1,0.4-1.7
		c-1-0.5-0.9,0.8-1.2,1.3c-0.1,0.1-0.2,0.2-0.3,0.2c-0.9-0.5-1.2-1.4-1.4-2.3c1.1-0.9,2.3-1.4,3.8-1.4c-0.6-1-1.2-1.9-2.3-2.6
		c-1.7-1.1-1.5-2.6,0.4-3.5c1,0.2,2.1,0.3,2.1,1.8c0,2.3,3,1.9,3.2,3.9c1-0.3,0.7-2.4,2.1-1.2c0.8,0.7,1,1.5,0,2.4
		c-1.3,1.2-2.4,2.5-1.1,4.4c0.2,0.3-0.1,0.5-0.4,0.6C37.6,91.6,37.8,93,37.6,94.1z"/>
	<path class="st44" d="M47.3,88.8c0.4-0.1,0.5-0.8,1.3-0.6C48,88.7,49,90,47.2,89.6c-0.5-0.1-1.2,1.6-0.8,2.2c0.5,0.9,0.4-0.6,1-0.5
		c0,0.6,0,1.3,0,2c-0.1,0.3-0.3,0.5-0.6,0.6c-0.2,0-0.4-0.1-0.5-0.2c-0.1-0.1-0.2-0.2-0.2-0.3c0,0,0,0.1,0,0.2
		c0.2,0.2,0.4,0.4,0.5,0.7c-0.5,1.3-1.6,1.8-2.8,2.1c-2.6-2-0.2,1.4-1.3,1.1c-0.9-0.4-0.9-1.4-1.7-2.7c1.1,0.5,1.9,0.8,2.2,0.1
		c0.4-1-0.8-0.5-1-0.9c-0.4-0.7-0.4-1.5,0.5-1.8c1.5-0.5,1.4-1.7,1.4-3c0-1-0.6-2.3,0.6-2.8c0.8-0.3,1.5,0.9,2.2,1.5
		C46.9,88.2,47.1,88.6,47.3,88.8z"/>
	<path class="st10" d="M46.8,93.7c0.2-0.1,0.3-0.3,0.5-0.4c0.7-0.5,1.4-0.5,1.9,0.2c0.6,0.9-0.9,0.9-0.9,1.6
		c0.8,0.5,1.2-0.1,1.6-0.5c0.4-1,1.3-1.7,1.7-2.7c0.7-1.6,1.2-0.6,1.6,0.2c0.1,1-0.2,1.9-0.9,2.6c-0.8,0.5-1.8,0.9-1.5,2.2
		c0.1,0.6-0.4,1-0.8,1.5c-0.7,0.3-0.4,1.6-1.5,1.5c-0.7-1.1-1.5-0.3-2.2,0c-0.5,0-1,0.1-1.4-0.4c-0.5-0.8,0-1.6,0.1-2.3
		c0.2-1.1,0.9-0.9,1.6-0.4c0.3,0.1,0.6,0.3,0.5-0.2c-0.1-0.6-0.5-1-0.6-1.6C46.6,94.5,46.5,94,46.8,93.7z"/>
	<path class="st45" d="M45.1,77.8c0.5,1.2,1,2.4,0,3.5c-0.4-2.5-0.4-2.4-2.6-0.8c-1.2,0.9-2.4,0.1-3.6-0.1c-0.1-0.1-0.1-0.2-0.2-0.3
		c0-1.1,0.9-1.2,1.6-1.3c0.7-0.2,1.5,0.1,2-0.6c0.1-0.1,0.3-0.3,0.4-0.4c0.5-0.6,0.8-1.2,1-2c0-0.2,0.1-0.4,0.2-0.6
		c0.8-1.9-1.4-1.4-1.9-2.2c-0.5-0.6-0.6-1.2-0.3-1.8c0.9-1.2,1.8-1.5,3-0.1c0.8,0.9,2.2,1.2,2.4,2.6C46.9,75.3,45.8,76.5,45.1,77.8z
		"/>
	<path class="st46" d="M46.8,97.2c-2.6-0.8-1.1,1.6-1.8,2.2c-0.8-0.9-0.3-2.3-1.3-3.1c0.6-1.1,2.1-1.1,2.7-2.2
		c-0.1-0.1-0.1-0.2-0.1-0.3c0-0.1,0.1-0.1,0.1-0.1c0.1,0,0.3,0,0.4,0c0,0.4,0,0.9,0,1.3C47.3,95.8,47.5,96.5,46.8,97.2z"/>
	<path class="st47" d="M37.6,97.2c0-0.6,0-1.2,0-1.8c2.1-0.8,1.7,1.6,2.8,2.2C39.8,98,39,98.1,38.9,99C38,98.8,38.2,97.7,37.6,97.2z
		"/>
	<path class="st45" d="M35.4,80.9c-0.5-0.9-1.3-1.2-2.2-1.3c-0.2-0.2-0.1-0.5,0.1-0.6c1.6-0.4,3.2-1.1,4,1.2c0,0.1-0.1,0.2-0.1,0.4
		C36.5,80.6,35.9,80.7,35.4,80.9z"/>
	<path class="st48" d="M42,90.1c-0.3,0-0.6,0-0.9,0c-0.1,0.2-0.3,0.2-0.4,0c-0.6-0.5-0.7-1.3-0.3-1.7c0.5-0.6,1.1,0.2,1.6,0.4
		C42.4,89.3,42.4,89.7,42,90.1z"/>
	<path class="st49" d="M42,90.1c0-0.4,0-0.9,0-1.3c0-0.3,0-0.6,0.1-1.1c1,1,1.5,1.8,0.5,2.8C42.1,91,42,90.4,42,90.1z"/>
	<path class="st49" d="M40.7,90.2c0.1,0,0.3,0,0.4,0c0.2,0.4,0.4,0.8-0.1,1.1c-0.1,0.1-0.4-0.1-0.6-0.1
		C40.5,90.8,40.6,90.5,40.7,90.2z"/>
	<path class="st45" d="M38.9,80.4c-0.6,1.1-1.2,0.6-1.8,0c0,0,0,0,0,0C37.7,79.9,38.3,80,38.9,80.4L38.9,80.4z"/>
	<path class="st50" d="M22.1,26c0.7-0.8-0.7-1.8,0.2-2.7c0.2-0.1-0.4-0.4-0.6-0.3c-0.4,0.1-0.8,0.6-1.1,0.6c-0.9-0.1-2,1.7-2.7,0
		c-0.7-1.7,0.9-2.3,1.9-2.9c0.8-0.4,1.6-0.7,2-1.5c1-2,2.6-3.2,4.7-3.8c0,0,0,0,0,0c1.2,0.3,0.6,1.1,0.4,1.8c-1.1,1-1.2,2.5-2.2,3.5
		c-0.3,0.8,0.1,1.1,0.8,1.1c1.1,0,1.6,0.8,2.1,1.6c0.1,0.3,0.1,0.6,0.1,0.9c-0.2,1.3-0.3,2.6-2,3c-0.8,0.2-0.7,1-0.9,1.6
		c-0.3,1.2-0.4,2.5-1.9,2.9c-0.6-0.7-0.4-1.4-0.1-2.1c0.9-1.4-0.9-1.6-1.1-2.6C21.7,26.7,21.7,26.3,22.1,26z"/>
	<path class="st51" d="M50.8,2.1c0.1,0.5-0.1,1.1,0.6,1.3c0.7,0.2,1.5,0.4,1.1,1.2c-0.3,0.7-0.5,1.7-1.6,1.7c-1.5,0.1-2.8,0.8-4,1.5
		c-0.5,0.4-1.1,0.1-1.7,0.2c-2.1,0.3-2.3,1-1.8,3.1c0.3,1.1,0.4,2.6-1.1,3.4c-1.1,0.7-2.4,1-3.4,1.9c-1.4-0.2-2.8-0.3-4-1.1
		c0-0.1,0-0.3,0-0.4c0.3-0.3,0.7-0.5,1.1-0.5c2.2-0.7,3.6-2.3,4.2-4.5c0-0.1,0-0.2,0-0.3c0.4-2.3,2.4-2.9,4.2-3.5
		c1.2-0.3,3,0.3,2.3-2.1c-0.1-0.5,0.4-0.3,0.8-0.2c1,0.2,1.7-0.4,2-1.5C49.7,1.8,50.4,2.3,50.8,2.1z"/>
	<path class="st52" d="M34.9,15.4c1.4,0,2.8,0.1,4,0.9c0.2-0.2,0.4-0.2,0.5,0c0.1,0.2,0,0.4-0.1,0.6c-1.2,1.2-2.2,2.6-4.2,2.4
		c-0.8-0.1-1.2,0.6-0.8,1.4c0.2,0.5,0.2,1-0.2,1.4c-0.2,1.3,0.2,2.9-1.9,2.9c-0.2,0-0.4,0-0.6-0.1c-1.1-0.5-2.1,0.1-3.1,0.6
		c-1.4,0.7-1.7,0.1-1.3-1.2c0-0.3,0-0.6,0-0.9c0.2-1.2,1.4-1.5,2.2-2.2C31.7,19.5,32.7,16.9,34.9,15.4z"/>
	<path class="st53" d="M36.2,14.9c-0.4,0-0.9,0-1.3,0c-0.1-0.3,0-0.7-0.6-0.3c-1.1,0.6-1.5,1.9-2.5,2.5c0,0.7,0,1.3-0.9,1.7
		c-0.2-1.1-0.5-2-1.7-2.1c-0.6,0-1.3,0.1-1.2-1c0.1-0.9,0.5-1.4,1.2-1.6c0.5-0.1,1-0.1,1.5-0.1c1.4,0,2.2-0.8,2.7-2
		c0.4-1,0.3-0.8,1.2-0.3c0.9,0.6,2,0.2,2.9-0.4c0.3-0.4,0.8-0.4,1.2-0.3c0.9,0.4,0.6,0.9,0,1.2C37.7,13,36.9,13.9,36.2,14.9z"/>
	<path class="st54" d="M29.6,21.1c-0.3,1.2-1.4,1.5-2.2,2.2c-0.8-0.3-1.3-1.1-2.5-1.1c-0.9,0-0.8-1-0.2-1.6
		C26.4,20.2,28,20.6,29.6,21.1z"/>
	<path class="st51" d="M38.9,11.4c-0.4,0-0.9,0-1.3,0c-1.5,0.4-2.5-1.1-4.4-0.8c2.6-1.4,4.8-1.3,7.1-1v0
		C41,11.1,39.9,11.2,38.9,11.4z"/>
	<path class="st55" d="M29.1,13.6c-0.4-0.1-1.3,0.7-1.1-0.5c0.1-1.5,1.3-1.9,2.4-1.9c0.6,0,1.8,0,1.6,0.9
		C31.7,13.5,30.5,13.9,29.1,13.6z"/>
	<path class="st36" d="M26.9,17.2c-0.1-0.6,0.2-1.3-0.4-1.8C27.6,15.4,27.7,15.7,26.9,17.2z"/>
	<path class="st56" d="M63.2,60.1c0.5,0.3,0.4,0.8,0.4,1.3c-0.1,0.2-0.1,0.5-0.4,0.6c-0.2,0.1-0.3,0.1-0.5,0.2
		c-0.3,0.2-0.5,0.6-0.7,0.9c-0.2,0.1-0.3,0.2-0.5,0.1c-0.4-0.2-0.5-0.6-0.6-1c-0.1-0.6-0.1-1.2,0.3-1.6c0.6-0.8-0.4-0.2-0.4-0.5
		c-1.1-0.7-1.6-1.5-1.1-2.9c0.4-1.2-0.8-2.4-0.2-3.6c0.2-0.4,0.3-0.8,0-1.2c-0.1-0.1-0.3-0.2-0.4-0.3c-2.5,0.1-3.9-1.7-5.5-3
		c-0.7-0.5-0.6-1.3-0.2-2c0.8-0.4,1.5-0.1,2.2,0.2c2,0.9,3.9,2.1,5.9,3c1.1,1.3,0,3.3,1.6,4.4C63.8,56.5,62.9,58.3,63.2,60.1z"/>
	<path class="st57" d="M64.6,66.7c0.6,1.6-1.1,2.3-1.3,3.5c1,0.9,0.5,1.3-0.5,1.4c-1-0.6-0.8-1.7-1.1-2.6c-0.2-0.5-0.2-1.1-0.7-1.5
		c-1.3-1.2-0.7-3.8,1-4.4l0,0c2,0.1,2.2,1.3,1.9,2.9c0,0.2-0.3,0.2-0.4,0.4c0.2-0.1,0.3-0.3,0.4-0.4c0.3-0.4-0.2-1.1,0.6-1.2
		c0.6,0.4,0.5,0.9,0.2,1.4C64.6,66.4,64.6,66.6,64.6,66.7z"/>
	<path class="st58" d="M61,41.9c0.4,0.3,1.1,0.6,0.6,1.1c-0.8,0.8-0.1,1.3-0.1,2c0.7-0.2,1-1.3,1.7-0.8c0.8,0.5,0.7,1.6,0.9,2.4
		c0.3,1.1-0.9,0.6-1.3,1c-0.9-0.4-1.9-0.8-2.4,0.6c-1.1,0.3-1.5-0.6-1.9-1.3c-0.2-0.7-0.3-1.7,0.4-2c1.3-0.5,1-1.8,1.6-2.6
		C60.7,42.2,60.8,42,61,41.9z"/>
	<path class="st59" d="M63.2,60.1c0,0.1,0,0.1,0,0.2c-0.1,0.2-0.4,0.3-0.4,0.1c-0.1-1.9,0-3.7-0.1-5.6c-0.5-1.8-0.4-3.6,0.5-5.3
		c1.4,1.6,0.6,3.7,1.2,5.5c0.2,0.7,0,1.5,0.4,2.4C65.4,58.6,63.7,59.2,63.2,60.1z"/>
	<path class="st60" d="M63.2,49.5c0.1,1.8-0.1,3.6-0.5,5.3c-1-0.4-1.4-1.1-1.3-2.2c0-0.8,0.3-1.6-0.4-2.2c-0.1-0.1-0.1-0.1-0.2-0.2
		c-0.4-0.6,1-1.3-0.1-1.8c-0.1-0.1-0.1-0.1-0.2-0.2c0.1-0.5-0.4-1.2,0.4-1.5c0.9-0.3,1.3,0.5,1.9,1C62.8,48.3,62.6,49,63.2,49.5z"/>
	<path class="st61" d="M61,41.9c0,0.2,0,0.3,0,0.5c-0.6,0.4-1.2,0.6-1.9,0.3c-0.8-0.3-1.6-0.6-1.7-1.5c0-0.8,0.8-0.9,1.4-1.1
		c0.3-0.1,0.5-0.2,0.8-0.4c0.1,0,0.3,0,0.4,0C60.3,40.5,62,40.7,61,41.9z"/>
	<path class="st62" d="M64.6,66.3c0-0.5,0.1-1-0.4-1.4c-0.2-1.1-1.8-1.7-1.3-3.1c0.2,0,0.3,0,0.5,0c1.2,0,1.6,0.8,1.7,1.8
		C64.9,64.5,65.4,65.5,64.6,66.3z"/>
	<path class="st59" d="M65,63.6c-0.4-0.8-1-1.4-1.7-1.8c0.1-0.2,0.3-0.3,0.4-0.5C64.9,61.6,65.1,62.5,65,63.6z"/>
	<path class="st9" d="M65.4,50.3c0.9,1.1,0.3,2.4,0.4,3.5C65,52.8,65.6,51.5,65.4,50.3z"/>
	<path class="st63" d="M59.7,39.7c-0.4,1.1-0.4,1.1-1.9,1.2c0.7,1.4,2,1.5,3.3,1.4c0.3,2-2.2,2.6-2.2,4.4c-0.1,0-0.2,0-0.3,0.1
		c-0.7-1.2-1.4-1.2-2.3,0.1c-0.1,0.3-0.2,0.6-0.5,0.7c-0.7-0.1-1.5-0.3-2.2-0.4c-0.6,0-1-0.3-1.2-0.9c-0.1-0.3-0.1-0.6,0.1-0.9
		c0.7-1.2,1.7-2.4,1.1-4c0-0.1,0.3-0.3,0.4-0.4c0.5-0.3,0.8-0.8,1-1.3c0.6-1.3,1.4-2.5,1.4-4c0-0.7,0.4-1.3,1.2-0.7
		c0.6,0.7,0.2,1.8,0.9,2.5C58.2,38.6,58.6,39.4,59.7,39.7z"/>
	<path class="st64" d="M58.3,37.5c-1-0.4-1.2-1.2-0.9-2.2c-0.4-0.6-0.6-1.2-0.4-1.9c0.7-1.3,1.2-2.7,1.8-4.1
		c0.2-0.6,0.2-1.5,1.3-1.5c0.4,2.3,2.1,4.2,0.4,7C59.9,35.7,58.2,36,58.3,37.5z"/>
	<path class="st23" d="M58.4,6.5c0.7,0.4,0.9,1,0.9,1.8c1,1,0.3,2.3,0.4,3.4c0.2,2.4,1.6,4.8,0.6,7.3c-0.2,0.1-0.4,0.2-0.6,0.2
		c-1.3-0.3-1.4-1.4-1.6-2.3c-0.3-1.2-0.8-2.3-2.2-2.6c0-1.4-0.1-2.9,1.2-3.8c0.6-0.4,0.4-0.9,0.5-1.3C57.6,8.2,57.5,7.3,58.4,6.5
		L58.4,6.5z"/>
	<path class="st65" d="M60.1,18.9c-0.1-3.6-1.4-7-0.9-10.6c0.9,0,1.2,0.2,1,1.3c-0.5,2.5-0.1,4.9,1.8,7c0.7,0.7,0,1.1-0.6,1.5
		C60.9,18.1,61.2,19.7,60.1,18.9z"/>
	<path class="st66" d="M60.1,27.8c-1.2,1.6-0.9,4-2.6,5.3c-1.5-2.2-0.4-4.2,0.2-6.3c0.6-0.2,1.2-0.1,1.8,0c0.1,0,0.2,0,0.3,0
		C60,27.1,60.1,27.4,60.1,27.8z"/>
	<path class="st66" d="M61,24.2c0.8,1.5-1.4,1.5-1.3,2.6c0,0-0.1,0-0.1,0c-0.8-0.1-0.7-0.6-0.6-1.2c0.8-0.4,0.4-1,0.3-1.5
		c0-0.8,0.3-1.4,0.5-2.1c0.3-0.6,0.6-1.2,1.1-1.6c0.5-0.4,1-0.4,1.4,0.2c0.5,0.9-0.3,1-0.8,1.3c-0.1,0.3-0.3,0.6-0.4,0.8
		C60.7,23.3,61.1,23.8,61,24.2z"/>
	<path class="st65" d="M61.5,22.1c0.1-0.4,0.9-0.6,0.5-1.2c-0.3-0.5-0.6-0.2-0.9-0.1c-0.2-0.1-0.4-0.2-0.5-0.3c-1.1-2,0.9-1,1.4-1.5
		c0.4,0.1,0.9,0.3,1.3,0.4c0.3,0.3,0.3,0.6,0,0.9C62.8,21,62.9,22.2,61.5,22.1z"/>
	<path class="st66" d="M61.9,18.9c0.3,0.8-2.2-0.2-0.9,1.3c-0.6,0.4-0.8,1.8-1.7,1.2c-1-0.7-0.3-1.8,0.3-2.5c0.2,0,0.3,0,0.5,0
		c0.9,0,0.4-0.6,0.6-1c0.3-0.8,0.7-0.6,0.8,0.1C61.6,18.4,61.8,18.6,61.9,18.9z"/>
	<path class="st67" d="M63.2,20.2c0-0.3,0-0.6,0-0.9c0.5,0,0.9,0.2,0.8,0.7C64,20.7,63.5,20.3,63.2,20.2z"/>
	<path class="st68" d="M61,24.2c-0.6-0.5-0.6-0.9,0-1.3C61.2,23.3,61.7,23.8,61,24.2z"/>
	<path class="st69" d="M52.2,1.3c0.7,0,1.4,0,2.2,0c0.5,1,0.9,2,2.1,2.2C57.1,3.7,57,4.3,57,4.8c0,2.6-1.6,3.9-3.8,4.6
		c-0.2,0.1-0.3,0.2-0.5,0.3c-0.7,0.3-1.4,0.7-0.8,1.7c0.3,1.4-0.3,2.6-1.1,3.6c-0.5,0-0.7-0.6-1.1-0.7c-0.1,0.1-0.3-0.2-0.3,0.1
		c0.5,0.1,0.9,0.3,1.2,0.6c-0.8,1.4-2.2,1.4-3.4-0.1c0.1-0.7-0.1-1.7,1.1-1.8c0.4,0,0.9,0,1.3,0c0.5,0,0.9-0.2,0.8-0.8
		c-0.1-0.5-0.4-0.8-0.9-0.9c-0.6-0.2-1.1,0.2-1.7,0.3c-0.5,0.1-1.1,0.3-1.5-0.2c-0.4-0.5,0.1-0.9,0.4-1.3c1-1.3,1.8-3.2,4-1.7
		c0.3-1,1.5-0.8,2.1-1.5c1-1.1,1-1.1,2.3-0.1C54.8,4.5,53.3,3,52.2,1.3z"/>
	<path class="st70" d="M39.3,16.3c-0.2,0-0.3,0-0.5,0c0.8-1.7,2.8-1.6,4-2.6c-0.1-0.9-0.8,0.2-1.2-0.5c0.3-0.7,1.1-0.9,1.6-1.4
		c-0.4-0.8-1.6-1.2-1.2-2.4c0.4-1,1.4-1.4,2.5-1.5c0.7,0,1.5,0,2.2-0.1c-0.6,1-2.5-0.3-2.8,1.8c-0.2,1.4,1.8,1,1.4,2.2
		c-0.7,0.6,0.6,1.3,0,2c-0.6,0.7-1.5,0.9-2.1,1.9C42.7,16.7,40.8,16.4,39.3,16.3z"/>
	<path class="st71" d="M45.5,13.6c-0.1-0.7-1.2-0.7-1.1-1.4c0.1-0.5,0.7-0.3,1.1-0.4c0.6,1,2.4-0.4,2.7,1.3
		c-0.3,0.6-0.6,1.2-0.9,1.8C46.3,15,45.6,14.7,45.5,13.6z"/>
	<path class="st15" d="M34,7.4c0,0.9-0.7,0.9-1.3,0.9C33.1,6.6,33.2,6.6,34,7.4z"/>
	<path class="st72" d="M57.5,91.1c-0.1,0.2-0.2,0.3-0.4,0.5c-0.9,0.1-0.6-0.8-0.9-1.2c-0.2-0.4-0.4-0.8-0.8-1
		c-0.2-0.1-0.3-0.2-0.5-0.3c-0.2-0.1-0.3-0.3-0.4-0.4c-0.1-0.2-0.1-0.4-0.1-0.6c0.1-0.4,0.3-0.7,0.7-0.9c0.8-0.3,1.5-0.7,1.3-1.8
		c0.1-0.4,0.1-0.7-0.3-0.9c-0.1-0.1-0.2-0.3-0.3-0.5c0-1.1,0.6-2.1,0.6-3.2c0-1.1,0.8-2.3-0.2-3.4c-0.1-1.4,1.2-1.7,1.9-2.5
		c0.3-0.2,0.6-0.2,0.9-0.1c0.2,0.1,0.3,0.2,0.4,0.4c0.2,0.7-0.2,1.4,0.1,2c0.2,0.7,0,1.3-0.1,1.9c-0.1,0.5-0.2,1.1-0.1,1.6
		c0,0.9-0.6,1.8-0.5,2.7c0,0.6,0.1,1.2,0.1,1.8c-0.3,1.2,1,2.5-0.2,3.6C57.9,89.4,58.3,90.6,57.5,91.1z"/>
	<path class="st73" d="M58.7,88.9c0.3-0.3-1.5-0.8,0.1-1.1c0.5-0.1,0.4-0.7,0-0.8c-1.9-0.6-0.4-1.1,0-1.6c0-0.5,0-1,0.2-1.5
		c0.5-1.1,1.4-1.2,2.5-1.2c0,1,0.3,1.9,0.9,2.6c-0.1,0.5,0.3,1-0.2,1.3c-0.1,0.1-0.5-0.4-0.8-0.7c-0.3,1.3,0.4,3.2-2,3.1
		c-0.1,0-0.2,0.5-0.4,0.7C58.6,89.5,58.5,89.3,58.7,88.9z"/>
	<path class="st74" d="M56.5,90.2c0.8,0.2-0.1,1.1,0.6,1.4c0,0.3-0.1,0.5-0.1,0.8c0,0.4-0.3,0.9,0,1.3c0.1,0.4,0.3,0.9,0.4,1.3
		c-1.8,0.9-2.4,2.6-2.6,4.4c-0.1,0.1-0.3,0.3-0.5,0.4c-0.1-0.1-0.3-0.3-0.4-0.4c-0.5-1-2.1-1.6-1.2-3.1c0.3-0.6,0.9-1,1.2-1.6
		c0.1-0.1,0.2-0.3,0.4-0.4c0.3-0.4,0.2-0.8,0.4-1.2c0.6-0.7,0.3-1.4,0.1-2.1c-0.1-0.8-0.1-1.5,0.4-2.2c0.2,0,0.3,0,0.5,0
		C56,89.3,55.9,90,56.5,90.2z"/>
	<path class="st75" d="M54.8,99.4c-0.4-2.6,0.2-3.6,2.6-4.4c0,0.2,0,0.3,0.1,0.5c-2,0.6-0.4,1.2,0,1.8C57,98.5,55.4,98.3,54.8,99.4z
		"/>
	<path class="st76" d="M58,92.6c0.3-1.4,1.6-1.5,2-3C60.2,91.5,59.5,92.2,58,92.6z"/>
	<path class="st77" d="M58.7,88.9c0.1,0.3,0.1,0.6,0.2,0.8c-0.2,0.7-0.7,1.2-1.4,1.3C58,90.4,57,88.9,58.7,88.9z"/>
	<path class="st78" d="M57,93.7c-0.9-0.4-0.8-0.9,0-1.3C57.7,92.8,57.3,93.3,57,93.7z"/>
	<path class="st79" d="M58.4,83.6c-0.1-0.9,0.8-1.7,0.4-2.7c0-0.6,1.6-0.9,0.4-1.8c-0.4-0.6,0.2-1.2,0-1.8c-0.4-0.7,0.6-1.5,0-2.2
		l0,0c-0.4-0.4-1-0.8-1.2-1.4c-0.2-0.7,0-1.3,0.4-1.8c0.6-0.7,0.9-1.7,2.1-1.8c0.5,0.1,0.6,0.6,0.9,0.9c0-0.4-0.1-0.9,0-1.3
		c0.1-0.3,0.2-0.6,0.5-0.8c0.8,0.7,0.2,1.9,0.9,2.7c0,0.2-0.2,0.4-0.4,0.5c-0.4,0.5-1.4,0.8-1.1,1.6c0.3,1,1.1-0.5,1.6,0.2
		c0.1,0.1,0.2,0.2,0.2,0.4c0.1,0.3-0.5,1.5,0.6,0.5c0.1,0,0.3,0,0.4,0c-0.9,2-0.9,4.4-3.1,5.8c0.1,1.4-0.8,2.3-1.7,3.2
		C59,83.8,58.7,83.8,58.4,83.6z"/>
	<path class="st26" d="M59.2,83.5c0.6-1,1.2-2.1,1.8-3.1c0.2,0.4,0.3,0.9,0.5,1.3c0.3,0.3,0.2,0.6,0,0.9c0,0,0,0,0,0
		C61,83.5,59.7,83,59.4,84c-0.2-0.1-0.2-0.2-0.2-0.3C59.2,83.6,59.2,83.5,59.2,83.5z"/>
	<path class="st80" d="M61.5,82.6c0-0.3,0-0.6,0-0.9c0.9-0.3,0.9-1.3,1.6-1.9c0.3,1-0.5,1.6-0.7,2.4C62.1,82.3,61.8,82.5,61.5,82.6z
		"/>
	<path class="st81" d="M53,96.4c-0.8,1.3,1,1.9,0.9,3.1c-0.8-0.6-1.6-1.3-2.6-0.4c-0.5,0-1-0.1-1.4-0.4c-0.1-0.2-0.1-0.4,0-0.5
		c0.1-0.5,0.9-0.8,0.6-1.3c-0.9-1.8,0.5-1.9,1.6-2.2C53.9,94.5,53.4,95.5,53,96.4z"/>
	<path class="st82" d="M50,98.6c0.6-0.4,1.1-0.2,1.3,0.4c0.3,1.1-0.5,2-0.4,3.2c0.1,0.9-1.2-0.1-1.5,0.7c0-0.7-0.2-1-1.1-1
		c-1,0-0.4-0.6-0.3-1C49.1,100.4,49.5,99.4,50,98.6z"/>
	<path class="st83" d="M50,98.6c-0.1,1.2-0.2,2.4-1.8,2.3c-0.6-0.7-0.1-0.9,0.5-1c0.8-0.3-0.1-1.9,1.3-1.8C50,98.3,50,98.4,50,98.6z
		"/>
	<path class="st84" d="M58.3,6.6c-0.1,1.1-0.7,2.3-0.3,3.2c0.6,1.6-1.9,0.8-1.3,1.7c1.1,1.6-1.1,1.6-1,2.6c0.1,0.2,0,0.4-0.2,0.5
		c-0.2,0-0.4-0.1-0.5-0.3c-0.3-0.5-0.3-1.1-0.4-1.7c-0.1-0.5-0.1-0.6-0.8-0.8c-1.1-0.2-1.9-1.3-1.1-2.7l0,0c1.7-0.3,3.7,0,4.3-2.4
		c0.1-0.3,0.7-0.1,1-0.2C58,6.6,58.2,6.6,58.3,6.6z"/>
	<path class="st85" d="M57.9,6.6C57.6,6.7,57,6.9,57,7.1c-0.2,3.4-2.5,2.2-4.4,2.1C54.8,8.5,56,6.7,57,4.8c0,0,0.2,0,0.2,0
		c0.2,0.3,0.1,0.6-0.1,0.8C57.2,6.1,57.5,6.4,57.9,6.6z"/>
	<path class="st29" d="M57.1,5.6c0-0.3,0.1-0.6,0.1-0.8c0.3-0.1,0.7-0.7,0.8-0.1C58.2,5.2,57.8,5.6,57.1,5.6z"/>
	<path class="st32" d="M62.4,72c0.1-0.2,0.3-0.3,0.4-0.5c0.7-0.2,0.8-0.7,0.5-1.3c1.6-0.1,1.5,1.3,1.7,2.2
		C64.1,72.1,63.1,72.7,62.4,72z"/>
	<path class="st32" d="M63.7,74.7C63.4,75,63,75.4,62.5,76c0.1-0.9,0.2-1.5,0.3-2.2c0.3-0.1,0.6-0.4,0.9-0.1
		C64.1,74.1,63.8,74.4,63.7,74.7z"/>
	<path class="st86" d="M7.5,53.9c0.7-2.3,0.3-4.7,0.3-7c0-1.2,1.9-2.7,3.1-2.5c0.9,0.1,0.5-0.7,0.6-1.1c1-0.3,1.8-1.1,2.9-1.1
		c0.2,0.1,0.4,0.2,0.5,0.3c0.1,1.7,0.1,1.7,1.6,2.4c0.9,1.1,1.5,2.3,0.8,3.7c-3-0.5-3.6,0-3.7,3.1c0,0.8,0,1.6,0,2.4
		c0,0.5,0.1,0.9,0.7,0.9c2,0,1.4,0.9,0.7,1.9c-0.3,0.4-0.7,0.9-0.2,1.4c1.1,1.1,0.8,2.4,0.6,3.6c-1.3,0.6-2.6,0.4-3.6-0.7
		c-0.3-0.4-0.6-0.7-1-0.1c-0.6,1-1.2,1-1.7-0.1c-0.7-1.7-0.8-3.5-0.9-5.3c2-0.6,2.3,1.2,3.2,2.3c-1.3-2.2-2-4.4-0.5-6.9
		c0.5-0.9,0-2.2-1.2-3c0.9,1.1,1.4,2.2,0.3,3.5c-0.9,0.9,0.2,2.8-1.6,3.3C7.8,54.9,7.5,54.5,7.5,53.9z"/>
	<path class="st87" d="M17.2,48.6c0.1-1.3-0.5-2.4-0.9-3.5c-0.2-0.4-0.1-0.8,0-1.2c2.7-1.5,2.1-4.4,2.7-6.7c0.4,0.2,0.7,0.4,1.2,0.6
		c0.2-1.7-1-2.9-1.4-4.3c-0.7,0.1-1.2,1.9-2.2,0.3c-0.4-0.7-2.4-1-0.7-2.4c0.9,0.9,2.1,0.4,3.1,0.5c0.7,0,0.6-0.6,0.7-1.1
		c0.2-1.2-0.5-2-1.1-2.9c0.4-0.3,0.9-0.6,1.3-0.9c0.2,0.1,0.3,0,0.3-0.2c0-0.1-0.2-0.2-0.3-0.3c0.5-1.2,1.4-0.6,2.2-0.4
		c0,0.4,0,0.9,0,1.3c0.1,0.5-0.3,1.3,0.8,1.3c0.4,0,0.8,0.4,0.6,0.9C23,30.2,22.9,31,23,31.8c-0.1,0.3-0.2,0.5-0.5,0.7
		c-1.7,0.3-0.7,1.4-0.6,2.2c0.1,0.2,0.1,0.4,0.1,0.6c-0.3,1.7,1.6,2.8,1.2,4.5c0.1,0.5,0.2,1,0.4,1.5c0.2,1,0.6,2,0.5,3
		c-0.1,1.2,0.5,2.1,1.3,2.9c0.1,0.2,0.1,0.4,0.1,0.6c-1.2,0.6-2.5,0.5-3.7,1c-0.7-0.8,0-1.5,0.3-2.2c0.5-1,0.3-1.9-0.5-2.6
		c-0.5-0.4-1-0.7-1.6-0.2c-0.8,0.7-1,1.5-0.7,2.6c0.2,0.8,1,1.5,0.8,2.4c-0.4,0.4-0.7,0.9-1,1.4c-0.8,1.2-1.4,0.9-2-0.2
		C16.8,49.4,16.9,48.9,17.2,48.6z"/>
	<path class="st86" d="M19,37.1c0.6,1.5,0,3,0,4.5c0,0.6-0.2,0.8-0.8,1.1c-0.6,0.2-1.4,0.6-1.5,1.5c-0.2,0.1-0.5,0-0.5-0.1
		c0.1-1.3-0.7-1.5-1.7-1.6c-0.4-0.4-0.4-0.9-0.3-1.4c0.2-1.2,0.2-2.1-1-3c-1.2-0.9-2-0.4-2.9,0.1c-0.2,0.1-0.4,0-0.6-0.1
		c-0.3-0.7,0.7-1.8-0.8-2.1c-0.6-0.1-0.2-0.5,0-0.8c1.6-2.1,3.3-4.2,5-6.3c0.6-0.8,1.3-0.3,2.3-0.3c-1.2,1.1-2.7,1.7-1.7,3.6
		c0.3,0.6-2.5,1.6,0.1,2.5c1.1,0.4,2.2,0.9,3.4,0.7C19.2,35.2,19.8,35.7,19,37.1z"/>
	<path class="st88" d="M9.7,38c0.4-0.2,0.8-0.4,1.1-0.7c0.8-1,1-0.7,2.3-0.2c3.2,1.4,1.5,3.4,1.5,5.3c-1.1-0.1-1.8,1.6-3.1,0.9
		C9.8,41.9,9.4,40,9.7,38z"/>
	<path class="st89" d="M18.5,27.8c1.6,0.7,2.4,3.1,1.6,4.4c-0.1,0.2-0.4,0.4-0.5,0.3c-1.1-0.4-2.1-0.2-3.2,0
		c-0.7,0.1-0.5-0.7-0.6-1.2c0.1-0.1,0.3-0.3,0.4-0.4c0.3-0.4,0.3-1.1,0.9-1.3C18,29.2,18.2,28.4,18.5,27.8z"/>
	<path class="st90" d="M8.4,55.7c0.8,1.8,0.4,4,1.5,5.8c0.2-0.3,0.5-0.7,0.7-1c0.1,0.1,0.2,0.2,0.3,0.3c0.3,1,0.4,2-1,2.2
		C8.2,61.5,8,59.3,7,57.4c0.1-1.2-0.6-2.3,0-3.5c0.1,0,0.3,0,0.4,0c0.3,0.3,0.6,0.6,0.9,0.9C8.6,55.1,8.6,55.4,8.4,55.7z"/>
	<path class="st91" d="M15.4,22c-0.4,0.7-0.7,1.2-1.4,1.2c-0.1,0-0.3-0.3-0.2-0.5C14,21.9,14.5,21.7,15.4,22z"/>
	<path class="st89" d="M19.9,26.5c0.5,0,1.2-0.1,1.5,0.6c-0.6,0.4-1,0.3-1.5-0.2C19.9,26.7,19.9,26.6,19.9,26.5z"/>
	<path class="st92" d="M9,43.2c0.2,0.1,0.5,0.2,0.5,0.4C9.6,44,9.2,44.1,9,44.1c-0.1,0-0.4-0.2-0.4-0.4C8.6,43.6,8.8,43.4,9,43.2z"
		/>
	<path class="st87" d="M17.2,29.6c-0.3,0.4-0.6,0.9-0.9,1.3C16.2,30.1,15.9,29.3,17.2,29.6z"/>
	<path class="st93" d="M33.1,79.1c0,0.1,0,0.3,0,0.4c-1.4,0.9-1.5,2,0.1,2.6c1.5,0.6,1.8,2.1,2.6,3.1c0.3,0.3,0,0.7-0.2,1
		c-0.4,0.4-0.6,0.1-0.8-0.3c-0.4-0.8-0.9-0.2-1.2,0c-0.7,0.3-1.4,0.8-2.3,0.7c-0.3,0-0.6,0-0.9,0c-1,0.3-1.6-0.3-2.2-0.9
		c-2.2-0.4-1.7-2.1-1.8-3.5c0.5-0.5,1.2-0.5,1.5,0c0.8,1,0.7-0.2,1.1-0.3c0.4-0.2,0.8-0.2,1.2-0.2c1.9-0.9,0.3-2.2,0.2-3.3
		c0-0.7,0.1-1.3,1-1.3C32.4,77.5,32.9,78.2,33.1,79.1z"/>
	<path class="st94" d="M26.1,82.2c-0.7,2-2,0.5-3,0.4c-0.2,0-0.7-0.7-0.7-0.5c0.2,1.7-0.7,1.5-1.6,0.9c-1-0.7-2.2-1.5-1.6-3.1
		c1.2-0.3,1.7,2.6,3.3,0.3c-1.7,0-2.1-2.3-3.9-2c0,0,0,0,0,0c-0.5-0.6-0.4-1.4-0.6-2.1c0.1-0.6,0.4-1,1-1.1c0.8,0.3,0.9,1.1,1.3,1.7
		c1.1,1.5,2.5,0.6,3.4,0c1.8-1.1,2.1-1.2,3,1c0,0.5-0.2,1-0.4,1.5c-0.9,0.7-0.8,1.4-0.2,2.3c0,0.1,0.1,0.2,0.1,0.3
		C26.3,81.8,26.2,82,26.1,82.2z"/>
	<path class="st17" d="M28.3,85.7c0.9-0.2,1.5,0.5,2.2,0.9c0.1,1,0.3,2.1,0.4,3.1C28.5,89.3,27.6,88,28.3,85.7z"/>
	<path class="st95" d="M26.1,82.2c0-0.1,0-0.3,0-0.4c0.4-0.5,1-0.8,1.5-1.1c0.5-0.3,1-0.7,1.6-0.2c0.6,0.5,0.4,1.2,0,1.7
		c-0.3,0.2-0.3,1.3-1.1,0.5c-0.4-0.5-1-0.5-1.6-0.5C26.4,82.2,26.2,82.2,26.1,82.2z"/>
	<path class="st96" d="M7,57.4c1.6,1.4,1.3,3.8,2.6,5.3c1.2,0.2,2,0.8,1.9,2.1c-0.1,1.7,1,2.1,2.4,2.1c1.2,0,2.5-0.3,3.4,0.9
		c-2.1,2.8-0.5,5.4,0.4,8c0,0.2,0,0.4-0.1,0.6c-0.5,0.4-0.8,1.3-1.5-0.1c-1-1.9-2.1-3.8-3.8-5.2C8.5,67.3,8.7,62,7,57.4z"/>
	<path class="st37" d="M17.7,76.5c0-0.1,0-0.3,0-0.4c0.1-0.1,0.3-0.1,0.4,0c0.4,0.7,0.5,1.4,0.4,2.2C17.7,77.9,17.6,77.2,17.7,76.5z
		"/>
	<path class="st97" d="M48.6,76.9c-0.2-0.1-0.3-0.3-0.5-0.4c-0.4-0.8-1.9-1.3-1.1-2.6c0.1-0.4,0.2-0.8,0.4-1.1
		c0.3-0.5,0.6-1,0.7-1.6c0.1-0.8,0.1-1.6-0.2-2.4c0.1-1.2,0-2.2-1.2-3c-1.8-1.1-1.8-2-0.8-4c0.9-0.3,1.8,0.3,2.8,0
		c-0.3-1-1-1.9-1.5-2.8c-0.4-0.8-0.6-1.6,0.4-2.1c0.2-0.1,0.4-0.1,0.6-0.1c0.3,0.1,0.5,0.2,0.8,0.4c0.2,0.2,0.5,0.3,0.7,0.5
		c1.6,0.5,2.6,1.6,2.3,3.4c-0.1,1,1,2,0.1,3.1c-0.5,0.6-0.8,1.4-1.5,1.8c0.6,0.7,1.1,1.2,1.7,1.8c0.1,0.5,0.5,0.7,1,0.8
		c0.4,0.9,0,1.7,0.1,2.6c-0.6,1.3-0.8,3.2-3,1.6c-0.2-0.1-0.4,0-0.6,0.2c-0.4,0.4,0,0.4,0.2,0.5c0.8,0.5,0.7,1,0.2,1.6
		C49.3,75.3,49.8,76.9,48.6,76.9z"/>
	<path class="st98" d="M51.7,85.3c1-1.2-1.5-1.9-0.5-3.1c0-0.5,0-0.9-0.2-1.3c0-0.2,0-0.4,0.1-0.5c0.2-0.3,0.5-0.5,0.9-0.7
		c0.6-1.4,1.1-2.7,2.6-3.4c1.1-0.7,1.8-0.8,1.7,0.9c-0.3,0.6-0.3,1.3-0.3,1.9c0,0.5-0.2,1.2-0.5,1c-1.7-0.6-1.2,1.1-1.7,1.6
		c-0.3,0.2-0.8,0.3-0.3,0.8c0.2,1.5,1.4,3.3-0.8,4.4C51.8,86.6,51.6,86,51.7,85.3z"/>
	<path class="st99" d="M51.7,85.3c0.3,0.4,0.6,0.9,0.9,1.3c0.8,0.5,1.4,1,1.6,1.9c-0.7,1-1.3,2.2-2.9,2.1c0-0.3,0-0.6,0-0.9
		c-0.7-0.4-0.5-1.3-0.9-1.8c-1-1-0.8-2.5-0.3-3.4C50.9,83.3,51.1,85.2,51.7,85.3z"/>
	<path class="st100" d="M51.3,90.6c1.2-0.4,1.7-1.6,2.6-2.2c-0.1-0.2-0.1-0.4,0.1-0.5c0.4-0.1,0.6,0.2,0.7,0.5c0,0.1,0,0.3,0,0.4
		c0.6,1.8-0.3,2.6-1.8,3.1c-0.3,0-0.7-1-0.8-0.2c-0.2,1.5-1.3,2-2.3,2.8C50.2,93.2,50.4,91.8,51.3,90.6z"/>
	<path class="st101" d="M51.3,80.5c0,0.1,0,0.3,0,0.4c0,0.3-0.2,0.4-0.5,0.5c-0.2-0.4-0.7-0.8-0.7-1c0.4-1.6-0.8-2.3-1.5-3.4
		c0.5-0.3,0.4-0.7,0.3-1.2c-0.2-1.1,0.4-0.8,1-0.6c2-1.2,1.7,0.9,2.3,1.7c0.3,0.6,0.3,1.2-0.3,1.7C50.3,78.6,51.7,79.9,51.3,80.5z"
		/>
	<path class="st101" d="M47.3,73.8c-0.5,1.2,1.4,1.5,0.9,2.6c-0.7,1.3-1.2,2.9-3.1,1.3c-0.3-1.7,1.2-2.6,1.8-4
		C47,73.7,47.2,73.7,47.3,73.8z"/>
	<path class="st102" d="M50.4,87.9c0.4,0.1,0.9,1,0.9,1.8C50.5,89.4,49,89.4,50.4,87.9z"/>
	<path class="st103" d="M50.8,81.3c0.2-0.2,0.3-0.3,0.5-0.5c0.6,0.5,0.6,0.9,0,1.4C51.1,81.9,51,81.6,50.8,81.3z"/>
	<path class="st104" d="M46.4,93.7c0,0.1,0,0.3,0,0.4c-0.1,0-0.3,0-0.4-0.1c-0.5-0.4-1.1-0.7-1.2-1.4c0-0.1,0.3-0.4,0.4-0.4
		C46.1,92.3,46.3,93,46.4,93.7z"/>
	<path class="st105" d="M53,92c0.5-1.1,2.2-1.5,1.8-3.1c0.1,0,0.3,0,0.4,0c0,0.9,0,1.8,0.1,2.6c0.1,0.7,0,1.3-0.5,1.8
		c-0.6,0.3,1.3,1.4-0.4,1.4c-0.2-0.2,0.1,0.1-0.1-0.1c0,0,0,0,0.1,0.1c-0.3,0.7-0.5,1.5-1.4,1.8c-0.2-0.2-0.4-0.4-0.6-0.6
		c1.4-0.8-0.3-0.8-0.3-1.2C52.6,93.7,52.9,92.9,53,92z"/>
	<path class="st106" d="M46.8,97.2c0-0.7,0-1.5,0-2.2c1,0.3,0.8,1.3,1,2c0.1,0.3,0.4,0.7-0.1,0.9C47.3,98.1,47.1,97.6,46.8,97.2z"/>
	<path class="st107" d="M47.3,73.8c-0.2,0-0.3,0-0.5,0c-0.5-1.6-2.5-1.6-3.2-3c-0.3-0.6-1,0.6-1.7,0.4c-0.1-0.2-0.2-0.4-0.1-0.6
		c0.1-0.3,0.3-0.5,0.5-0.7c1.5-1,1.3-2.4,0.8-3.9c1.3-1.4,1.3-1.4,1.8,0c0,0.1-0.4,0.3,0.1,0.3c2.8,0,2.8,0,3.1,2.6
		c1.3,0.5,0.2,1.5,0.4,2.2c-1.1,0.2-1.2,0.8-0.9,1.7C47.7,73.3,47.7,73.6,47.3,73.8z"/>
	<path class="st108" d="M33.1,79.1c-0.7-0.4-1.3-0.9-1.3-1.7c-1.2-0.8-1.5-1.6,0-2.3c1.3,0,1.5,1.1,2,1.9c0.2,0.2,0.3,0.5,0.6,0.6
		c0.9,0.5,1.9-0.1,2.9,0.3c0.2,0.1,0.3,0.2,0.4,0.3c0.2,0.3,0.3,0.5,0.6,0c0.1-0.1,0.3-0.2,0.4-0.3c0.4-0.1,0.8-0.1,1.2,0
		c1,0.4,2-0.1,3,0.3c-0.2,1-0.8,1.2-1.8,1.1c-1-0.1-1.9-0.1-2.2,1.1c-0.6,0-1.2,0-1.8,0C36.4,78.3,34.5,79.4,33.1,79.1z"/>
	<path class="st109" d="M42.9,78.2c-1,0.5-2.1,0.8-3.1,0c0.2-0.9,1-0.9,1.6-1.3c-1.5-2.5-1.3-4.7,0.6-6.2c0,0.1,0,0.3,0,0.4
		c0.1,0.6-0.2,1.3,0.4,1.8c-0.4,1.5,1.4,1.6,1.8,2.7c0,0.1,0,0.3,0,0.4C43.6,76.6,43.3,77.5,42.9,78.2L42.9,78.2z"/>
	<path class="st110" d="M44.2,75.6c-0.9-0.5-1.8-0.9-2.8-1.1c-0.2-0.9,1.3-0.7,1.1-1.6c0.8,0.3,1.7,0.2,2.3,1.3
		C45.1,75.1,44.3,75.1,44.2,75.6z"/>
	<path class="st110" d="M42.9,78.2c-0.2-1.1,0.2-1.9,1.3-2.2C44.1,76.9,43.8,77.7,42.9,78.2z"/>
	<path class="st111" d="M22.5,32.2c0.1-0.1,0.3-0.3,0.4-0.4c0.8-1.2,1.5-2.4,1.4-4c0-0.4,0.2-1.1,0.5-1.1c2.3,0.6,1.9-1.5,2.5-2.5
		c0.1,0.7-0.2,1.6,1,0.7c1.3-1,2.7-1,3.4-0.2c0.3,1.4,0,2.3-1.6,2.5c-0.1,0-0.5-0.6-0.4,0.1c0,0.2,0.1,0.4,0.1,0.6
		c0.1,2.2-0.6,3-2.4,2.3c-0.8-0.7,0.3-1.2,0.2-1.9c-0.7,0.5-0.8,1.1-0.3,1.7c0.1,0.2,0.1,0.5-0.1,0.6c-1.7,1.2-1.5,2,0.4,2.7
		c0.3,0.1,0.5,0.3,0.6,0.6c0.2,0.8-1.1,1.1-0.7,2c0,0.3,0,0.6-0.1,0.9c-0.2,2.1-1.9,3.2-3.1,4.5c-0.5,0.5-1,0.5-1.4-0.2
		c-0.1-0.4-0.3-0.9-0.4-1.3c0.6-1.8,0.3-3.4-0.9-4.9C21.1,33.7,22.2,33.1,22.5,32.2z"/>
	<path class="st36" d="M23.4,29.6c-0.2-0.3-0.4-0.7-0.8-0.6c-0.6,0.1-1.3,0.4-1.5-0.3c-0.1-0.3,0.6-0.8,0.9-1.3
		C22.8,27.9,24.5,27.9,23.4,29.6z"/>
	<path class="st36" d="M21.8,22c0.1-0.5,0-0.7,0.1-0.7c0.5-0.6,1-1.1,1.6-1.7c0.1,0.1,0.4,0.3,0.3,0.4C23.6,21,22.9,21.6,21.8,22z"
		/>
	<path class="st112" d="M38.9,11.4c0.5-0.5,1.6-0.6,1.3-1.8c0.2,0.1,0.7,0.2,0.7,0.4c0.1,1.4-3.2,4.7-4.7,4.9
		c-0.1-1.9,1.3-2.5,2.7-3.2c0,0,0.1-0.1,0.1-0.2C39,11.5,38.9,11.5,38.9,11.4z"/>
	<path class="st113" d="M45.5,13.6c0.6,0.4,1.2,0.9,1.8,1.3c1.2,0.8,2.3,0.8,3.1,0c0.3-1.2,1.6-2.1,0.9-3.6c1.9-0.3,3.4,0.9,4,3.1
		l0,0c0.2,0.2,0.4,0.5,0.4,0.8c0.2,1.7-1.1,3.3-0.6,5.1c0.2,0.7-0.6,1-1.2,0.4c-0.4-0.3-0.6-0.8-0.8-1.3c-1.5-2.9-2.3-3-4.5-0.9
		c-0.6,0.1-1.2,0-1.5,0.9c-0.4,1.3-0.7,2.7-1.1,4c-0.5,1.8-1.5,2.8-3.7,2.5c1.7,0.3,2.9,0.8,2.1,2.9c-0.3,0.7,0.8,1.1,1.1,1.8
		c0,1,0.3,2,0,3.1c-0.8,0.1-1.8,0.4-1.3,1.3c0.8,1.3,0.6,3,1.7,4.2c-0.7,1.5-1.8,1.8-3.3,1c-0.2-0.3-0.1-1-0.3-1
		c-2.4,0.8-2.4-1.8-3.5-2.6c-0.9-0.7-0.7-2.3-0.5-3.4c-1.7,0.7-2.1,0.5-2.4-1.9c0-0.6,0.2-1.2,0.5-1.7c0.2-0.3,0.5-0.8,0.3-1
		c-2.2-1.6-0.7-4-1.5-5.9c-0.9-2.1-0.6-2.7,1.6-3.1c0.5-0.1,0.8-0.2,0.7-0.8c-0.1-1.2,0.8-1.6,1.5-2.2c0-0.1,0-0.3,0-0.4
		c1-0.4,1.9-0.9,3.1-0.6c0.9,0.2,1.5-0.2,0.4-1C43.6,14,44.6,13.9,45.5,13.6z"/>
	<path class="st114" d="M28.3,34c-0.9,0.1-1.4-1.1-2.4-0.6c-0.4,0.2-0.7-0.3-0.4-0.6c0.5-0.6-0.5-2,1-2c0.5,0,0.8-0.2,1-0.7h0
		c1.8,0.8,2.1-0.5,2.2-1.8c0-0.8-0.7-1.6,1-1.5c1,0.1,0.8-1.4,1.3-2.1c0.1,0,0.3,0,0.4,0c0.6,1.3,0.3,3.2,2.3,3.4
		c0.8,0.9,1.1,1.9,0.2,2.9c-0.5,0.6,0.4,0.6,0.4,1c0.2,1,0.1,2,0.6,3c0.3,0.5,0.3,1.2-0.3,1.5c-0.8,0.5-0.2,1.2-0.2,1.8
		c-0.3,1-1,1-1.8,0.8c-0.3-0.2-0.7-0.4-0.7-0.8c-0.1-1.5-0.9-2.1-2.3-2c-0.2,0-0.3-0.3-0.4-0.5c0.4-0.5,0.8-1.1-0.1-1.5
		C29.5,33.6,28.9,33.6,28.3,34z"/>
	<path class="st115" d="M34.9,32.2c0-0.5-2.9,0-0.5-1.4c1.2-0.7,0-1.7,0.1-2.6c-2-1.5-2-1.6-0.1-2.8c0.8-0.5,0.6-1.1,0.2-1.7
		c-0.3-0.5-1.2-0.9-0.5-1.7c1-1-1.6-1.5-0.3-2.7c1.1-1,2.1-0.3,3-0.6c1-0.4,1.2-1.9,2.5-1.9c-0.4,0.9-1.9,1.6-0.6,3
		c0.4,0.4-0.4,1.2-1.1,0.7c-0.8-0.5-1.6-0.4-2,0.1c-0.4,0.5-0.3,1.5,0.2,2c0.9,1,0.9,1.9,0.2,3c-0.3,0.5-0.4,1.2,0.3,1.5
		c1.9,0.8,1.8,1.9,0.6,3.2c-0.2,0.2-0.2,0.7-0.2,1C36.1,31.7,36,32.9,34.9,32.2z"/>
	<path class="st116" d="M34,22c0.1,1.3,2.4,1.8,1.3,3.5c-0.1,0.2,0,0.6-0.4,0.7c-1.5,0.6-1.5,0.7-0.5,2c-0.5,0.2-1,0.5-1.8,0.8
		c0.8-1.7-1.6-2.7-0.4-4.4c0.7-0.5,2.5-0.4,0.9-2.1C32.6,21.9,33.7,22.2,34,22z"/>
	<path class="st5" d="M31,16.3c0.1-0.1,0.3-0.3,0.4-0.2c0.4,0.1,0.4,0.5,0.4,0.9c0,0.5-0.3,0.1-0.4,0.1C31.1,17,31,16.7,31,16.3z"/>
	<path class="st117" d="M61.9,68.9c0,0.3,0,0.6,0,0.9c-0.4,0.4-0.8,0.5-1.3,0.4c-0.9,0.3-1.1,1.2-1.8,1.8c-0.3,0.2-0.6,0.3-0.9,0.1
		c-0.4-1-0.3-2.1-0.3-3.2c-0.1-1-1.6-1.5-0.9-2.5c0.7-0.9,0.5-1.8,0.2-2.7c-0.1-0.4,1.3-0.9-0.2-1.4c-0.8-0.3-0.5-1.4-0.4-2.1
		c1-2.7,1.5-5.5,2.4-8.2c0.3-0.1,0.6-0.1,0.9,0.1l0,0c0.3,0.4,0.4,0.9,0.5,1.4c0.2,2.2-0.6,4.6,0.9,6.6c0.2,0.7-0.4,1.6,0.4,2.2
		c0,0.4,0.1,0.7,0.4,0.9c-2,0.6-0.2,2.7-1.4,3.6C62.2,66.6,61.9,67.9,61.9,68.9z"/>
	<path class="st118" d="M59.7,52.1c-0.3,0-0.6,0-0.9,0c-0.5,0.7-1.5,0.9-1.5,2c0,0.4-0.4,0.8-0.9,0.7c-0.6,0-0.9-0.5-1-1
		c-0.2-1-0.2-2.2-1.1-3c-0.1-0.1-0.3-0.3-0.4-0.4c-1.5-1-2.9-2.1-2.5-4.2c0.4-0.2,0.9-0.2,1.2,0.2c0.3,0.3,0.6,0.6,0.9,0.9
		c0,0.9,0.8,1.4,1.1,1.8C55.7,51.4,58.1,50.9,59.7,52.1z"/>
	<path class="st119" d="M55.7,47.7c0-0.3,0-0.6,0-0.9c1,0.1,2.1,1.1,3.1,0c0,0,0,0,0,0c0.6,0.4,0.8,1.4,1.8,1.3c0,0,0,0,0,0
		c0.8,0.6-0.1,1.6,0.4,2.2c0,0,0,0,0,0c-0.1,0.1-0.3,0.3-0.3,0.3C59,49.6,57.2,49,55.7,47.7z"/>
	<path class="st59" d="M62.8,61.9c0.3,1.1,1.6,1.8,1.3,3.1c0,0.5,0.1,1-0.5,1.3l0,0c0.3-1.5-0.6-2.4-1.7-3.1
		C62,62.6,61.6,61.7,62.8,61.9z"/>
	<path class="st120" d="M61.5,62.3c-1.3-0.5-1.3-1.3-0.4-2.2c0.2-0.1,0.3-0.4,0.5-0.4c0.5-0.2,0.4,0.3,0.3,0.5
		C61.5,60.8,61.4,61.5,61.5,62.3z"/>
	<path class="st121" d="M60.1,53.5c-0.5-0.3-0.4-0.9-0.5-1.4C60.2,52.4,60.9,52.7,60.1,53.5z"/>
	<path class="st117" d="M63.7,66.3c0.1,0.3,0.5,0.7,0.2,0.9c-0.4,0.2-0.8-0.1-1.1-0.4c-0.3-0.3-0.4-0.7,0-1
		C63.2,65.4,63.3,66.2,63.7,66.3C63.7,66.3,63.7,66.3,63.7,66.3z"/>
	<path class="st56" d="M61,50.3c-0.7-0.6-0.3-1.5-0.4-2.2c0.5-0.3,1-0.3,1.4,0.1c0.6,0.7-0.4,0.7-0.6,1.1C61.2,49.7,61.1,50,61,50.3
		z"/>
	<path class="st122" d="M55.3,15.4c0-0.3,0-0.6,0-0.9c0.1-0.1,0.3-0.3,0.4-0.4c1.5-0.3,2.2,0.3,2.7,1.8c0.3,1,0,2.4,1.3,3.1
		c-0.1,0.8-0.2,1.5-0.4,2.3c0.8-0.1,0.9-1.2,1.7-1c0,0.1,0,0.3,0,0.4c-0.3,0.4-0.6,0.9-0.9,1.3c-0.7,0.7-0.9,1.8-1.8,2.4
		c-0.4,0.2-0.8,0-1.3,0.2c0.6,0.6,1.8,1.1,0.9,2.3c-1.3,0.8,0.9,1.2,0.2,1.9c-1.4,1.3-0.7,2.8-0.6,4.3c0,0.7,0,1.5,0,2.2
		c-0.4-0.1-1-0.3-0.8,0.4c0.3,1.8-0.7,3.1-1.4,4.5c-1.2,0-1.2-0.7-0.8-1.6c0.4-0.9,0.7-1.8,0.7-2.7c-0.1-0.7-0.8-1.2-0.5-1.9
		c0.2-0.6,1-0.9,0.5-1.7c-1.1-1.9-0.9-4.1-1.3-6.2c-0.1-0.8,0.1-1.7,0.7-2.3c1.1-1,2.1-1.8,2.2-3.5c0-0.7,0.7-0.3,1.1,0
		C56.9,18.7,57.1,16.5,55.3,15.4z"/>
	<path class="st123" d="M55.7,35.7c0.1,1.2-0.1,2.3-0.9,3.2c-0.7,0.8,0,1,0.4,1.3c0,0.6-0.3,1.1-0.9,1.3c-1.4-0.2-2.2,0.5-2.7,1.7
		c-0.4,1.1-0.4,2.2-0.8,3.3c-0.8,0.8-1.8,0.8-2.8,1.1c-0.3,0.1-0.7,0.1-1,0.1c-1.1-0.1-2.3-0.2-1.6-1.8c1-0.3,2.5,0.4,3.2-1.2
		c-1.2-0.4-1.4,1.3-2.4,0.6c-0.4-0.8-0.2-1.5,0.2-2.2c0.2-0.4,0.5-0.9,0.9-0.9c3.3-0.2,3.8-3.7,5.9-5.2c0.7-0.5-0.2-1.4,0.1-2.1
		C54.4,34.2,54.8,35.7,55.7,35.7z"/>
	<path class="st124" d="M50.8,46.4c-0.7-2.7,0.3-4.8,2.6-5.2c0.4-0.1,0.7,0,0.9,0.4c-0.1,0-0.3,0.1-0.4,0.1c1.4,2.1-1.3,3.1-1.3,4.8
		c-0.4,0-0.9,0-1.3,0C51.1,46.5,51,46.5,50.8,46.4z"/>
	<path class="st58" d="M58.8,46.8c-1,2.2-2.1,1.3-3.1,0c0-0.7-0.1-1.6,1-1.6C57.9,45.1,58.5,45.7,58.8,46.8z"/>
	<path class="st125" d="M57.9,43.3c0.7-0.5,1.2-0.6,1.6,0c0.1,0.1,0.1,0.5,0,0.6C58.8,44.3,58.6,43.3,57.9,43.3z"/>
	<path class="st126" d="M57.9,26.9c0.1-1.5-0.6-2-2.1-1.6c0.6-1.5,1.4-1.8,2.6-1.1c0.4,0.1,0.6,0.4,0.6,0.8
		c-0.6,0.6,0.4,0.2,0.3,0.6c0,0.5,0,1,0.4,1.4C59,27.7,58.5,27.1,57.9,26.9z"/>
	<path class="st127" d="M58.8,25.1c-0.2-0.3-0.3-0.6-0.5-0.9c0.3-1,0.7-1.9,1.8-2.2c0.2,0.8-0.4,1.4-0.5,2.2
		C59.3,24.4,59.7,25.4,58.8,25.1z"/>
	<path class="st122" d="M58.8,25.1c0.3-0.3,0.5-0.6,0.8-0.9c-0.1,0.5,0.8,1.2-0.4,1.4C59.1,25.5,58.4,25.8,58.8,25.1z"/>
	<path class="st85" d="M55.3,14.5c-0.9-1.5-2-2.9-4-3.1c-1.5-1.9,0.8-1.5,1.3-2.2c0.3,1.1,0.1,2.3,2,2.3
		C55.3,11.5,55.3,13.4,55.3,14.5z"/>
	<path class="st103" d="M48.2,14.5c0.2-1.2,1.1-0.8,1.8-0.9C50.1,15.4,49,14.6,48.2,14.5z"/>
	<path class="st113" d="M48.2,14.5c0.7,0,1.6,0.4,1.8-0.9c0.5,0.3,0.4,0.8,0.4,1.3C49.7,14.8,48.8,15.3,48.2,14.5z"/>
	<path class="st128" d="M54.8,88.4c-0.3,0-0.6-0.5-0.8,0c-0.5-0.6-1.2-0.9-1.3-1.8c1.7-1.3,0.3-2.9,0.5-4.4c0-0.3,0.2-0.4,0.4-0.5
		c0-0.6,0.6-1.2,0.2-1.9c-0.3-0.5-0.3-1.1,0.3-1.3c0.8-0.2,0.7,0.4,0.7,1c0,0.4,0.3,0.4,0.6,0.4c0.3-0.1,0.4-0.4,0.4-0.7
		c-0.1-0.7-1-1.6,0.5-1.8c0.2-0.2,0.3-0.2,0.5,0c1.6,1,0.2,2.4,0.4,3.5c-1.8,0.8-1.8,2.1-1.1,3.7c0,1,1.4,2.4-0.7,3
		C54.9,87.7,54.8,88,54.8,88.4z"/>
	<path class="st129" d="M56.6,77.3c-0.2,0-0.3,0-0.5,0c0-0.4,0.2-0.9-0.3-1.1c-0.5-0.2-0.6,0.5-1,0.6c-0.8-0.8-0.8-1.9-1.1-3
		c0-0.2,0-0.4,0.1-0.6c0.8-0.2,1.3-0.7,1.2-1.6c0.1-0.2,0.3-0.3,0.5-0.3c0.8,0,1.8-0.5,2.4,0.7c0.3,0,0.6,0,0.9,0
		c-0.3,0.6-0.5,1.1-0.4,1.8c0.3,0.4,0.4,0.9,0,1.3C57.8,75.9,57.2,76.6,56.6,77.3z"/>
	<path class="st130" d="M55.7,84.4C54,82,54.3,81.4,57,80.9c0.1,1.3-0.7,2.3-0.8,3.5C56,84.6,55.9,84.6,55.7,84.4z"/>
	<path class="st105" d="M55.7,84.4c0.1,0,0.3,0,0.4,0c0.1,0,0.3,0,0.4,0c0.3,0.3,0.3,0.5,0.1,0.8c1.3,1.8-0.1,2-1.4,2.3
		C56.8,86.7,55.2,85.4,55.7,84.4z"/>
	<path class="st131" d="M59.2,79.1c0.5-0.3,1.1-0.2,1.7-0.1c-0.4,1-1.5,1.2-2.2,1.9C58.7,80.2,58.9,79.7,59.2,79.1z"/>
	<path class="st132" d="M59.2,83.5c0,0.2,0.1,0.3,0.1,0.5c-0.2,0.5,0,1.1-0.5,1.4c-0.7-0.5-0.4-1.2-0.5-1.8
		C58.7,83.5,59,83.5,59.2,83.5z"/>
	<path class="st133" d="M59.3,75.1c0.9,0.7,0.3,1.5,0,2.2C58.3,76.6,59.4,75.9,59.3,75.1z"/>
	<path class="st133" d="M58.4,75.1c0-0.4,0-0.9,0-1.3c0.6,0.2,0.9,0.7,0.9,1.3C59,75.1,58.7,75.1,58.4,75.1z"/>
	<path class="st134" d="M56.6,85.2c0-0.3,0-0.5-0.1-0.8c0.4-0.4,0.7,0,0.7,0.3C57.4,85.2,57,85.3,56.6,85.2z"/>
	<path class="st135" d="M56.5,90.2c-1.7,0.5-0.5-0.9-0.8-1.3C56.3,89.1,56.3,89.7,56.5,90.2z"/>
	<path class="st72" d="M54.8,93.3c-0.1-0.6,0.2-1.2,0.5-1.8C55.9,92.3,56,92.9,54.8,93.3z"/>
	<path class="st57" d="M60.6,70.3c0.3-0.5,0.8-0.4,1.3-0.4c-0.1,0.6,0.2,1.3-0.6,2C61.1,71.3,60.8,70.8,60.6,70.3z"/>
	<path class="st136" d="M17.2,48.6c0,0.4,0,0.9,0,1.3c0.3,0.3,0.2,0.8,0.4,1.1c1,0.8,2.5,0.8,3.4,1.8c1.4,1.5,1.6,2.8,0.6,4.5
		c-0.6,0.4-1.3,0.7-2.1,0.5c-1.2-0.5-1.4-0.4-1.2,0.2c0.6,1.7,1,3.1-1.5,3.3c-0.3,0-0.6,0.8-1.2,0.7c-0.1-0.1-0.2-0.1-0.3-0.2
		c-0.3-1.4-0.3-2.8-1.7-3.9c-0.5-0.4,1.3-1.3,1.5-2.3c-0.8-0.6-1.3,0.5-2.1,0.3c-0.4-2.2,0.2-4.5-0.1-6.8
		C12.9,47.9,16,47.6,17.2,48.6z"/>
	<path class="st137" d="M8.4,55.7c0-0.3,0-0.6,0-0.9c0.6-0.3,0.9-0.6,0.7-1.4c-0.2-0.8,0.1-1.7,0.6-2.2c1.1-1.1,0.7-1.7-0.6-2.1
		c-0.5-0.2-0.8-0.5-0.6-1c0.2-0.6,0.6-0.7,1.2-0.6c1.2,0.3,2.7,2.8,2,3.6c-1.9,2.3-1.3,4.4,0.1,6.5c0.3,0.4,0.9,0.9,0.2,1.3
		c-0.6,0.3-1.4,0.1-1.5-0.7C10.5,56.7,9.3,56.3,8.4,55.7z"/>
	<path class="st90" d="M11.9,61c1,0.8,2.3,0.7,3.5,0.9c0.5,0.4,0.8,0.2,1.2-0.2c0.8-0.7,1.6-0.9,1.6,0.6c-0.7,2.6-3.6,4.7-5.9,4.3
		c-0.8-0.1-1.1-0.4-1.1-1.2c0-1.4-0.1-2.8,0.5-4.1C11.8,61.1,11.8,61,11.9,61z"/>
	<path class="st88" d="M14.6,42.4c0.2,0,0.4-0.1,0.6-0.1c0.6-0.1,1.2-1,1.7-0.5c0.7,0.7-0.6,1-0.5,1.6c0,0.3,0.2,0.5,0.4,0.7
		c-0.2,0.3-0.3,0.6-0.5,0.9c-0.4-0.1-0.7-0.2-1.1-0.2c-1.5-0.2-1.4-0.2-0.6-1.4C14.8,43.2,14.6,42.7,14.6,42.4z"/>
	<path class="st90" d="M10.6,60.5c0.2-0.4,0.4-0.8,1-0.7c0.5,0.2,0.3,0.7,0.4,1.1c0,0,0,0,0,0C11.3,61.3,11,60.9,10.6,60.5
		L10.6,60.5z"/>
	<path class="st138" d="M25.2,47.7c0-0.1,0-0.3,0-0.4c1-0.5,2-1,2.9,0.2c0.6-1.2-0.4-1.7-1-2.3c-1.6-1.8-1.7-4.3-0.2-6
		c0.6-0.7,1.4-0.7,2.2-0.6c2,0.6,2,0.6,2.1,2.9c0.3-1.5,0.6-2.7,2.2-1.1c0.3,0.3,0.6,0.4,0.9,0.5c2.6,1.1,2.8,1.8,1.2,4.1
		c-1,0.4-2.1-1-3,0.3c0.4,0.7,1.5,0.7,1.6,1.6c0,0.2-0.1,0.4-0.2,0.4c-2.5,0.3-1.4,1.8-1.1,3.1c0.1,0.2,0.1,0.4,0.2,0.6
		c0.1,1.1-0.4,1.9-1.3,2.5c-1.5-0.2-0.4-1.6-1.1-2.3c-1.3,1-2,0.7-2.8-0.8C27.4,49.3,25.3,49.5,25.2,47.7z"/>
	<path class="st139" d="M25.2,47.7c0.8,0.8,1.6,1.7,2.9,1.8c1.3,0.1,0.7,1.3,0.9,2c0.9-0.1,0.5-1.9,1.7-1.3c0.6,0.4,1.4,1.2,0.7,2.3
		c-0.2,0.3,0.1,0.7,0.4,0.9c0.1,0.1,0.1,0.2,0.2,0.2c0.2,0.4,0.1,0.8-0.3,1.2c-0.2,0.1-0.4,0.1-0.6,0.1c-1-0.1-1.5-1.1-2.4-1.6
		c-0.2,0.5,0.2,0.8,0.2,1.1c0.1,0.6,0.2,1.3-0.4,1.6c-0.7,0.3-1-0.4-1.4-0.8c-0.4-0.5-0.9-1-1.4-1.4c-0.2-0.2-0.5-0.4-0.7-0.6
		c-0.8-0.7-1.5-1.3-2.7-0.8c-0.8,0.4-1.9,0.4-2.5-0.3c-0.8-1-2.2,0.2-2.9-0.9c0-0.4,0-0.9,0-1.3c0.5,0.4,1.1,1.1,1.3-0.1
		c0.1-0.9,0.5-1.3,1.4-1.2c0.6,1,1.2-0.4,1.8,0C22.5,47.2,23.8,47.4,25.2,47.7z"/>
	<path class="st140" d="M29.2,38.8c-0.8,0.1-1.8-0.3-2,0.8c-0.4,1.6-1.4,3.3,0.1,4.8c0.5,0.5,0.8,1.1,1.3,1.4
		c1.9,1.2-0.6,1.5-0.4,2.4c0,0-0.2,0.1-0.4,0.1c0-2.5-1.9-0.2-2.6-1.1c-1.4-0.3-2.1-1.1-1.8-2.6c0.2-1.2-0.4-2.4-0.4-3.6
		c0.3,0.1,0.8,0.2,0.8,0.2c0.4-1.7,3.1-1.8,2.8-4c-0.1-0.4,0.4-0.5,0.8-0.6c0.1,0,0.2,0.1,0.3,0.1c0.4,0.3,0.6,0.7,0.9,1
		C28.9,38,29.4,38.3,29.2,38.8z"/>
	<path class="st141" d="M21.6,48.6c-1,0.2-0.5,1.3-1,1.8c-0.9-0.4,0.2-1.5-0.7-1.8c-0.9-1.1-1.8-2.2-1.5-3.8c0.2-1.1,1-1.9,1.8-2
		c1-0.3,1.8,0.8,2.3,1.6c0.6,0.8,0.3,1.9-0.2,2.5C21.9,47.4,21.6,47.9,21.6,48.6z"/>
	<path class="st50" d="M21.6,34.9c2.2,1.4,2.4,2.9,0.9,4.9c0-1.1,0.2-2.2-1-2.9C20.3,36.1,22,35.5,21.6,34.9z"/>
	<path class="st50" d="M22.5,32.2c0.8,1.3-0.9,1.7-0.9,2.7c-0.2-0.4-0.4-0.7-0.6-1.1C20.3,32.1,20.9,31.7,22.5,32.2z"/>
	<path class="st142" d="M18.1,31.7c-0.2,0-0.7,0-0.7-0.5c0-0.5,0.4-0.7,0.8-0.8c0.4,0,0.7,0.2,0.7,0.6
		C18.9,31.5,18.6,31.7,18.1,31.7z"/>
	<path class="st143" d="M10.6,60.5c0.4,0.1,0.9,0.3,1.3,0.4c0.9,1.2-0.6,2-0.4,3c0.1,0.7-0.6,1.8,0.6,1.9c1,0,2.4,1.2,2.9-0.7
		c0.1-0.3,0.3-0.7,0.4-0.7c1.9,0.4,2.2-0.8,2.2-2.3c0.1,0,0.3,0.1,0.4,0.1c1,0.4,1.1,1.4,1.6,2.1c0.1,0.3,0.1,0.6,0,0.9
		c-0.1,0.5-0.9,1-0.1,1.6c0.2,0.2,0.4,0.4,0.5,0.7c0.1,0.3,0.1,0.6-0.1,0.9c-0.3,0.4-0.6,0.6-1.1,0.6c-0.7-0.1-1.5-0.2-1.8-1.1
		c-1.3-1.3-2.9-0.2-4.3-0.6c-1.5-0.4-2-1-1.8-2.3c0.2-1.2-0.4-1.9-1.4-2.4C11.1,62.5,10.4,61.3,10.6,60.5z"/>
	<path class="st144" d="M31.8,75.1c-0.8,0.7-0.7,1.5,0,2.2c-0.9,0-0.9,0.7-0.9,1.3c-0.1,1.3-0.9,0.4-1.5,0.5c0.6,0.6,2,0,2.1,1.3
		c0.1,0.8-0.3,1.4-1.1,1.7c-0.4,0-0.9,0-1.3,0c-0.1-0.9,0.3-2.8-1.4-0.8c-0.5,0.5-1.1,0.3-1.7,0.4c0,0,0,0,0,0
		c-0.4-0.9-1.1-1.8,0-2.7c0-0.5-0.1-1,0.4-1.3c0.3-0.7,0.8-1.2,1.5-1.5c0.5,0,0.9,0.4,1.4,0.5c0.2-0.7-0.3-1.1-0.6-1.6
		c-0.2-0.4-0.5-0.9-0.7-1.3c-0.4,0.5,0.2,1-0.1,1.5c-1.1,0.8-2.1-0.6-3.2-0.2c-0.5-0.4-0.5-0.9-0.2-1.4c0.2-0.2,0.4-0.2,0.7-0.2
		c-2-1.3,0.2-2.2,0.4-3.2c0.1-0.6,1-0.3,1.4,0.2c1,1.4,0.9-0.2,1.3-0.4c0.9,0,1.9,0.1,2.8,0.2c0.2,0.1,0.3,0.2,0.4,0.4
		c0.1,0.3,0.1,0.6-0.1,0.8c-0.6,0-0.7,0.4-0.9,0.9c-0.6,0.2-0.4,0.5,0,0.7c0.7,0.4,1,1,1.1,1.7C31.7,75,31.8,75,31.8,75.1z"/>
	<path class="st145" d="M30.5,82.2c1.1-1.4,1.3-2.3-1-2.2c-0.6,0-1.1-0.3-1.5-0.7c0.8-1.5,2-0.1,2.9-0.6c0.9,0.7,0.9,1.7,0.9,2.8
		C31.7,82.3,31.3,82.6,30.5,82.2z"/>
	<path class="st146" d="M24.7,73.8c0,0.5-0.1,1,0.4,1.3c0.4-0.1,0.6,0.4,0.4,0.4c-1.9,0.4-3.5,2.2-5.7,1.4c-0.3-0.6-0.6-1.2-0.9-1.8
		c-0.9-0.7-0.6-2.2-1.7-2.8c-0.1-0.8,0.1-1.5,1-1.8c0.6,0,1,0.6,1.7,0.4c1.1-0.3,1.3,0.3,1.4,1.3c0.1,1.7,0.9,1.6,2,0.6
		C24.2,72.6,24.4,73.3,24.7,73.8z"/>
	<path class="st147" d="M19.9,76.9c0.6-0.1,0.9-1,1.7-0.4c0.5,0.4,1.5,0,1.5-0.3c0.1-1.9,1.2-0.7,1.9-0.7c0.1,0,0.2,0,0.2,0
		c0-0.1,0-0.2,0-0.4c1.2-1.5,1.7,0.5,2.6,0.5c0.2,0.3,0.3,0.6,0,0.9c0,0.9-0.8,1-1.3,1.3c-1-1.6-1-1.6-2.2-0.5
		C23.1,78.3,20.6,78.1,19.9,76.9z"/>
	<path class="st148" d="M17.7,72.5c1.6,0.3,0.9,1.8,1.3,2.7c-0.3,0.3-0.6,0.6-0.9,0.9c-0.1,0-0.3,0-0.4,0c-1.9-3.3-3.2-6.5-0.4-8
		c0.6,0.3,1.2,0.6,1.8,0.9C17.6,69.8,16.4,70.6,17.7,72.5z"/>
	<path class="st95" d="M26,79.1c-0.4,0.9,0.2,1.8,0,2.7C25.3,80.9,23.6,80,26,79.1z"/>
	<path class="st69" d="M53.5,34.9c1,1.6,0.9,3-1.1,3.8c-0.8,0.3-0.9,1.3-1.2,1.9c-0.9,2-2.9,1.8-4.4,2.7c-0.9,0.3-1.3-0.5-1.8-0.9
		c1,2.9-1.5,4.6-2.5,6.8c-0.1,0.2-0.2,0.3-0.3,0.5c-0.3,0.8-0.1,1.6,0.2,2.4c0.2,0.7,0.5,1.4-0.6,1.8c1.9-0.1,3.8-0.4,5.5,0.5
		c0.4,0.9,0.8,1.7,0.7,2.7c-0.1,0-0.3,0-0.4,0c-0.9,0.5-1.3-0.3-1.8-0.7c-0.9-0.7-1.7-1-2.8-0.4c-1.1,0.6-2.2,1.9-3.6,1
		c-1.7-1.1-3.6-2-4.2-4.2c-0.2-1.5-0.1-3,0.9-4.2c3.7,0.3,5.4-1.3,5.3-5.1c-0.1-1.7,1-2.6,2.9-2.8c1.8-0.1,3.4-1.2,4.3-3
		c0.5-0.7-0.7-1.4,0-2.2c0.8-0.8,1.6-1.6,2.8-1.6c0.5,0.4,0.3,1.1,0.7,1.5c0.1,0.2,0.1,0.5,0,0.7c-0.1,0-0.1,0-0.1,0
		c0.1,0.1,0.1,0.1,0.1-0.1c0.3-0.3,0.3-0.8,0.6-1.1C53.1,34.8,53.3,34.8,53.5,34.9z"/>
	<path class="st149" d="M48.2,68.9c-0.6-1.4-0.9-3.1-3.1-2.2c-0.5,0.2-0.3-0.3-0.4-0.5c-0.4-0.9-0.4-0.9-1.3,0.1
		c-0.8,1.2-1.9,0.6-1.9-0.2c0.1-2.5-1.8-4.2-2.1-6.4c0-0.3,0.1-0.6,0.3-0.9c1.3-0.4,1.8,1.1,2.9,1.3c0.5-0.8-0.6-1.5-0.1-2.3
		c0.3-0.3,0.8-0.4,1.1-0.6c2.1-1.6,2.2-1.5,3,1c0.1,0.5,0.3,0.8,0.7,1c0.7,1.4,0,2.2-1.3,2.7c-0.6,1.6-0.6,2.9,1.3,3.7
		C48.8,66.3,48.6,67.6,48.2,68.9z"/>
	<path class="st150" d="M56.6,60.5c0.4,0.5-0.4,1.9,1.4,1.4c0.4-0.1,0.1,1.4-0.9,1.7c-0.5,0.9-1.5,1.2-2.2,1.9
		c-0.8,0.1-1.3-0.4-1.9-0.7c-0.4-0.2-0.9-0.3-1.2-0.8c1.3-1.2-1.3-2.1-0.2-3.7c0.5-0.8-1.2-2-2.4-2.5c0.1-0.4,0.3-0.7,0.6-0.9
		c0.7-0.5,1.2-0.2,1.7,0.3c-0.2-0.4-0.5-0.7-0.4-1.2c0.1-0.7,0.9-1,0.8-1.7c0-0.2,0-0.4,0.1-0.6c0.7-1.1,1.5-0.6,2.2-0.2
		c0.9,0.6,1,1.5,1,2.5c0,0.6-1.2,0.7-0.6,1.8c0.5,0.7-0.3,1.8,0.2,2.6c0-0.5-0.4-1.1-0.1-1.7c0.3-0.7,0.8-1.4,1.7-1.1
		c0.7,0.2,0.6,0.9,0.3,1.5C56.6,59.7,56.3,60.1,56.6,60.5z"/>
	<path class="st151" d="M46.9,59.2c-0.7,0.6-1,0.1-0.8-0.5c0.2-1.1-0.3-1.7-1-2.7c-0.3,1.6-1.2,2-2.5,1.9c-0.8,0.5-1.9,0.3-2.6,0.9
		c0,0.3,0,0.6,0,0.9c-1.4,0.2-1.2,2.1-2.5,2.3c-0.2-0.1-0.3-0.2-0.4-0.4c-0.1-0.3-0.2-0.6-0.3-0.9c-0.1-0.5-0.3-1-0.2-1.5
		c0.4-0.9-0.2-1.5-0.7-2.1c0-1.4-0.8-2.8,0.2-4.1c1.1,1.4,2.4,2.4,3.8,3.5c1,0.7,1.7-0.1,2.3-0.6c2-1.5,3.6-1.1,5,0.8
		c0.2,0.2,0.5,0.2,0.8,0.4c-0.6,0.5-0.6,1.1-0.4,1.8C47.3,59,47,59.1,46.9,59.2z"/>
	<path class="st152" d="M54.8,65.4c0.2-1.3,1.5-1.2,2.2-1.8c0.3,0.9,1.8,1.7,0.1,2.7c-0.2,0.1-0.4,1,0.2,1.3
		c0.1,0.1,0.5-0.4,0.9-0.6c-0.9,1.7,0.9,3.4-0.3,5c-0.6-0.8-1.6,0.3-2.2-0.4c-0.4-0.7-1.2-1-1.5-1.8c0,0.4,0.3,1-0.3,1.4
		c-0.3,0.2-0.6,0.2-0.9-0.1c-0.7-0.9,0.2-1.8,0-2.6C53.3,67.3,54.2,66.4,54.8,65.4z"/>
	<path class="st153" d="M53.1,71.1c0.3,0,0.6,0,0.9,0c0.1,0,0.2,0.1,0.3,0.1c0.8,0.8,0.6,1.5-0.3,2.1c0,0.1,0,0.3,0,0.4
		c-0.2,1.4-1.2,2.3-2.2,3.1c-0.2-0.6-1-1.4-1.8-1.8c0-0.4,0.9-1-0.1-1.2c-0.6-0.1-1.5-0.3-1.2-0.7c0.5-0.7,1.4-1.3,2.2-1.4
		c0.8-0.1,0,1,0.5,1.4C52.4,72.9,52.6,71.9,53.1,71.1z"/>
	<path class="st154" d="M48.2,57c-1-0.7-0.9-1.7-0.9-2.7c0-0.3,0.1-0.6,0.1-0.9c1-1.8,3.5-1.3,4.7,0.9v0c-0.7,1.6-1.8,2.7-3.5,3.1
		C48.5,57.3,48.3,57.1,48.2,57z"/>
	<path class="st155" d="M51.7,64.1c0.5,0,1-0.1,1.3,0.4c1.9,1.7,1.6,2.5-0.9,3.5c-1.2-0.3-1.5-1.5-2.3-2.1
		C50.5,65.3,51.1,64.7,51.7,64.1z"/>
	<path class="st156" d="M46.9,59.2c0.1-0.1,0.3-0.3,0.4-0.4c1.1,1.2,2.2,2.4,2,4.3c-0.8-1.3-2.3-0.4-3.3-1.2
		C46.6,61.1,47.6,60.4,46.9,59.2z"/>
	<path class="st121" d="M48.6,57.4c0.6-0.8,2.6-0.5,1.9-2.4c-0.2-0.5,0.4-0.3,0.7-0.1c0.7,0.4,0.9,0,1-0.6c0.1,0.1,0.2,0.2,0.3,0.3
		c-1.5,1.2-0.3,2.5,0.2,4.2c-1.3-0.9-2.1-2.7-3.6-1C48.9,57.7,48.8,57.6,48.6,57.4z"/>
	<path class="st157" d="M52.2,68c1.3-0.9,2.5-1.9,0.9-3.5c0.8-0.1,1.2,0.6,1.8,0.9c0.1,1.5-0.8,2.3-1.8,3.1
		C52.5,68.8,52.1,68.8,52.2,68z"/>
	<path class="st45" d="M47.7,72.9c-1.1-0.5-1-1.3-0.4-2.1c0.7-0.9,0.9,0.3,1.3,0.4C48.8,72,48.2,72.4,47.7,72.9z"/>
	<path class="st158" d="M51.7,76.9c0.4-1.3,1.3-2.2,2.2-3.1c0.7,0.9,0.9,2,0.9,3.1c-1.2,0.6-2.3,1.2-1.9,2.9
		c0.1,0.5-0.4,0.7-0.8,0.2c-0.6-0.5-0.9-1-0.5-1.8C52.3,77.8,52.2,77.4,51.7,76.9z"/>
	<path class="st159" d="M51.7,78.2c0.2,0.6,0.3,1.2,0.5,1.8c-0.3,0.2-0.6,0.3-0.9,0.5C51.1,79.7,49.7,78.7,51.7,78.2z"/>
	<path class="st160" d="M53.5,81.8c-0.1,0.2-0.3,0.3-0.4,0.5c-0.4-0.3-1.1-0.6-0.6-1C53,80.6,53,81.7,53.5,81.8z"/>
	<path class="st161" d="M54.4,94.6c-0.4-0.1-0.9-0.1-0.7-0.7c0-0.1,0.3-0.2,0.5-0.3C54.3,93.9,54.3,94.3,54.4,94.6
		C54.4,94.6,54.4,94.6,54.4,94.6z"/>
	<path class="st162" d="M37.1,61.8c0.9-0.4,1.1-1.4,1.3-2.1c0.5-1.7,0.9-0.3,1.4-0.1c0.4,0.9,0.4,2,1.5,2.6c0.8,0.4,0.7,1.1,0.3,2
		c-0.6,1.2,0.3,2.1,1.7,2c1.5,1.4,1.2,2.6-0.9,4c-0.8-0.2-1.5-0.7-1.9-1.5c0.2-0.2,0.2,0.2,0.1-0.1c-0.1-0.2-0.2-0.1-0.2,0.1
		c-1.3,0.4-1.2-0.5-1.2-1.3c0-0.6,0.5-1.2,0.1-1.8c-0.5-1-1.8-1.1-2.3-2.1C36.8,63,36.6,62.4,37.1,61.8z"/>
	<path class="st163" d="M39.8,65.4c0.8,0.7,0.4,1.3,0,2.1c-0.4,0.8-0.2,1.4,0.9,1v0c0.5,0.6,1.5,0.9,1.8,1.8
		c-0.1,0.1-0.3,0.3-0.4,0.4c-0.8,2.2-2.4,4.5,0.6,6.6c-1.2-0.1-2,0.5-2.8,0.9c-0.4,0-0.9,0-1.3,0c-1.2-0.7-1.1-2-1.4-3.1
		c-0.1-0.4,0.1-0.7,0.4-0.9c2.5-2,2.6-2.2,1.3-4.7c-0.1-0.2-0.2-0.4-0.3-0.5c-0.3-0.5-0.5-1.1-0.5-1.8c0-0.3,0-0.6,0.1-0.9
		c0.2-0.7,0.7-0.9,1.4-0.9C39.6,65.4,39.7,65.4,39.8,65.4z"/>
	<path class="st164" d="M38.4,66.3c0,0.3,0,0.6,0,0.9c-0.6,0.8-0.3,1.3,0.4,1.8l0,0c0.6,1.1,0,1.6-1,1.8c-1.5,0.4-3.2,0.6-1.3,2.7
		c0.6,0.6,0,1.7-0.5,1.6c-2.1-0.4-1.6,1.6-2.5,2.3c-0.6-0.7-0.7-1.9-1.8-2.2c0,0,0,0,0,0c0.4-1.5,0.4-3-0.4-4.4l0,0
		c-1.2-0.3-1.5-1.2-1.4-2.4c0.5-2.2,0.8-2.3,2.7-1.4c0.3,0.1,0.5,0.6,0.9,0.3c0.2-0.1,0.3-0.4,0.2-0.6c-0.2-0.5-0.6-0.2-0.9-0.2
		c-0.8-0.1-1.6-0.2-2.4-0.3c-1-0.3-2-0.2-3-0.1c-2-0.5-1.6-2.1-1.5-3.5c0.1-0.2,0.1-0.4,0.2-0.5c0.7-0.4,0.6-1,0.5-1.6
		c0.1-0.3,0.2-0.5,0.5-0.8c0.9-0.7,1.6-1.2,1.6-2.6c0-1.3,0.8-2.7,2.7-2.3l0,0c0.5,0.4,0.5,1,0.5,1.5c0,0.2,0,0.4-0.1,0.6
		c-0.3,1.3-1,2.7,0.8,3.4c0.1,0.1,0.3,0.3,0.4,0.4c0.4,0.5,0.8,0.9,1.2,1.3c0.2,0.2,0.4,0.5,0.5,0.7c0.6,1.1,1,2.4,1.7,3.5
		c0.7-0.8,0.2-2,1-2.7c0.6,0.8,1.9,0.7,2.2,1.8C39.5,65.9,38.3,65.1,38.4,66.3z"/>
	<path class="st165" d="M33.6,77.3c0-1.1,0.5-2.1,0-3.1c0.9-0.5,0.9,0.4,1.3,0.6c0.6,0.4,1,0,1.3-0.4c0.4-0.5,0.1-0.8-0.3-1
		c-0.7-0.4-1.5-1-1-1.6c0.5-0.7,1.2-1.5,2.3-1.5c0.9,0,1.8,0,1.7-1.3c1.8,1.6,1.5,3.4,0.3,5.1c-0.2,0.3-0.1,0.8-0.7,0.6
		c-1.6-0.6-1.2,0.2-0.9,1.1c0.3,0.8,0.5,1.6,0.8,2.5c0,0,0,0,0,0c-0.3,0.2-0.6,0.2-0.9,0l0,0c-1.1-0.9-2.4,0.3-3.5-0.4
		C33.9,77.6,33.7,77.5,33.6,77.3z"/>
	<path class="st109" d="M34,77.8c1.2,0.3,2.5-1,3.5,0.4C36.4,77.7,35,79.2,34,77.8z"/>
	<path class="st109" d="M37.6,78.2c0.3,0,0.6,0,0.9,0c-0.1,0.5,0.3,1.2-0.5,1.5C37.3,79.4,37.7,78.7,37.6,78.2z"/>
	<path class="st166" d="M29.2,38.8c-0.3-0.3-0.6-0.6-0.9-0.9c0.4-0.9-0.4-1-0.9-1.3c0,0,0,0,0,0c0-0.3,0-0.6,0-0.9
		c0.9-0.4,1.7-0.9,2.7-1.3c0.5,0.1,1.1,0.1,1,0.8c-0.1,0.5-0.6,0.5-1,0.6c-0.3,0.6,0,1.1,0.5,1.1c1.6-0.1,1.9,1.2,2.6,2.2
		c2.3,0.3,4.7,0.4,6.8,1.4c0.2,0,0.4,0.1,0.6,0.2c0.8,2.3,0.6,2.7-1.4,4.6c-0.9,0.8-1.1,2.4-2.3,3c-1.9-0.3-2.7,1.5-4.1,2.1
		c-0.8-0.1-1.1-0.6-0.8-1.2c0.5-1-0.1-1.5-0.7-2c0.9-1,2,0.5,2.8-0.3c0.1-0.8,0.7-1.3,1.3-1.8c0-0.5,0.1-1,0.4-1.5
		c0.5-0.9,0.2-1.9-0.9-2c-1.2-0.1-2-0.7-2.5-1.7c-1.1,0.9,0.4,1.9-0.5,2.9c-0.5-1.1-1.9-1.3-1.9-2.6c0-0.8,0.9,0.4,1.1-0.4
		C30.6,39,29.6,39.6,29.2,38.8z"/>
	<path class="st167" d="M30,34.4c-0.6,1-1.3,1.8-2.7,1.3c-2.3-1.9,1.1-0.9,0.9-1.8c0.1-0.7,0.4-1.4,1.2-1.2
		C30.4,32.9,29.9,33.8,30,34.4z"/>
	<path class="st168" d="M27.4,30c-1.3-0.5-1.2-1.3-0.4-2.1c0.4-0.3,1.2-0.8,1.7-0.2c0.7,0.7-0.2,0.9-0.6,1.3
		C27.9,29.3,27.7,29.7,27.4,30C27.4,30,27.4,30,27.4,30z"/>
	<path class="st50" d="M24.2,34.5c-0.1,0.4-0.3,0.7-0.7,0.6C22.9,35,23,34.6,23,34.2c0-0.3,0.2-0.6,0.5-0.5
		C23.9,33.8,24.2,34.1,24.2,34.5z"/>
	<path class="st169" d="M51.7,34c-1,0.5-1.9,1-2.7,1.8c-1,0.6-2,0.9-2.8-0.3c0.1-1.2,1.1-0.6,1.7-0.8c1-0.4,1.7-0.8,0.6-1.8
		c-1.1-1-0.4-2.5-1-3.7c0-1.3,1.4-1.1,2.1-2c-1-0.2-2-0.3-2.1-1.8c-1.6,1.8-0.4,3.1,0.3,4.4c-0.4,1.2-1.2,1.5-2.3,1.2
		c-2.2-1.3-2.2-1.3-1-3.7c-1.3,0-2.9,0.5-2.6-1.7c1.6,0.5,3,0.5,3.5-1.7c0.4-1.9,1.3-3.7,1.4-5.8c0.6,0.2,1.2,0.4,1.8,0.6
		c0.7,0.7,0.1,1.4,0,2.1c1.4,0.1,2.7,0.9,3.9-0.2c0.4-0.4,0.9,0,1,0.4c0.2,1,1.4,1.9,0.6,3c-0.4,0.6-1.2,0.9-1.3,2
		c0.7-0.7,1.2-0.5,1.6,0.2c0.3,1.9,0,4.3,1.1,5.4c1.5,1.7,0.2,1.8-0.6,2.5c-0.2,0.2-0.3,0.2-0.5,0.1c-0.5-1.3-1.2-1.3-2.1-0.3
		C52.1,33.8,51.9,33.9,51.7,34z"/>
	<path class="st85" d="M54.4,26c-1.8-1.1-0.5,1.2-1.5,1.1c-0.7-1.3-1.1-2.6,0.8-3.5c0.5-0.2,0.6-0.7,0.1-1c-0.7-0.5-0.7-1.3-0.8-2.3
		c-0.9,2.1-2.3,1.3-3.6,1c-0.8-0.2-1.2-1.4-0.9-2.6c0-0.1,0-0.1,0-0.2c1-0.3-0.1-2.3,1.5-2.1c1.5,0.2,2.9,0.8,3.4,2.6
		c0.2,0.6,0.3,1.4,1.6,2.1c-1.4-2.3,0.2-3.9,0.2-5.7c0.4,0.2,1-0.5,1.3,0.3c0.9,2,1.7,3.9,2.2,6.2c-1.2-0.1-0.7-1.3-1.5-1.6
		c-0.4,0.6-0.2,1.2,0,1.8c0.2,0.6,0.1,1-0.6,1.1C54.7,23.2,54.5,24.6,54.4,26z"/>
	<path class="st116" d="M34.9,32.2c0.6-0.3,1.2-0.6,1.8-0.9c0.1,0.8-0.3,1.8,0.8,2c1.2,0.2,0.7-1.2,1.4-1.9c0.8,1.3-0.1,2.8,0.2,4.1
		c0.4,1.6,2.3,2,2.3,3.6c0.2,0,0.5,0,0.6-0.1c0.5-0.3,0.5-1.6,1.3-0.9c0.6,0.5-0.4,1.3-0.5,1.9c-0.8,0.9-1.7,0.7-2.7,0.4l0,0
		c-0.6-0.1-0.8-0.6-1.2-1.1c-0.4-0.5-0.9-1.8-1.9-0.3c-0.3,0.5-0.9,0.2-1.2-0.3c-0.3-0.4-0.4-1-1-1c-0.5-0.2-1.1-0.9-0.7-1.1
		c2.2-0.9,0.6-2.1,0.4-3.2C34.5,33.2,34.8,32.7,34.9,32.2z"/>
	<path class="st170" d="M40.2,40.6c0.8-0.5,1.8-0.1,2.7-0.4c1.2,0.4,2.2,0,3.1-0.9c1-0.6,1.7-1.8,3.1-1.8c0.4,2.1-1.8,2-2.6,3
		c-0.3,0.4-1.1,0.4-1.6,0.5c-2.4,0.4-3.3,1.9-2.7,4.4c0.4,1.7-2,3.8-3.9,3.4c-0.5-0.1-1-0.2-1.5-0.3c-0.2-0.1-0.2-0.2-0.2-0.3
		c0.1-0.1,0.1-0.1,0.2-0.1c0.6-1.2,1.5-2.2,1.9-3.6c0.3-1.5,0.9-0.1,1.6,0.1C40.3,43.3,40.8,42,40.2,40.6z"/>
	<path class="st171" d="M49.1,37.5c-1.1,0.5-1.6,2-3.1,1.8c-0.8-0.1-2.7,0.5-1.1-1.5c0.1-0.2,0.1-0.7-0.1-0.8
		c-2.1-1.1-0.7-2.7-0.8-4.1c0.8,0,0.8,1,1.5,1.1c0.7-0.1,1,0.2,0.9,0.9c0.5,1.6,1.8,0.6,2.7,0.9C48.5,36.3,49.6,36.9,49.1,37.5z"/>
	<path class="st172" d="M46.4,34.9c-0.3-0.3-0.6-0.6-0.9-0.9c-0.2-1-0.8-2.1,0-3.1c0.7-0.5,1.8-0.3,2.2-1.3
		c-0.1-0.1-0.2-0.2-0.1-0.3c0-0.1,0.1-0.1,0.1-0.1c0.8,1.3,0.3,3.4,2.3,4.1c0.5,0.2,0.1,0.8-0.3,1C48.7,35,47.7,35.8,46.4,34.9z"/>
	<path class="st173" d="M42.6,32.6c-0.7,0-1.3-0.2-1.4-0.9c-0.1-0.7,0.4-0.8,1-0.8c0.7,0,1.4,0.1,1.4,0.9
		C43.6,32.4,43,32.6,42.6,32.6z"/>
	<path class="st116" d="M39.6,30.1c-0.4,0-0.5-0.2-0.6-0.5c-0.1-0.5,0-0.9,0.5-1.1c0.3-0.1,0.6,0.2,0.6,0.5
		C40.1,29.4,39.9,29.8,39.6,30.1z"/>
	<path class="st115" d="M37,26.1c0.3-0.6,0.4-1.1,1-1c0.1,0,0.3,0.3,0.3,0.5C38.1,26.2,37.5,25.9,37,26.1z"/>
	<path class="st174" d="M34.9,38c2.1-1.9,0.9,1,1.9,1.1c0.6-0.1-0.5-2,0.7-1.4c0.8,0.4,2.2,0.6,2.1,2.1c0,0.3,0.4,0.6,0.6,0.8
		c-0.7,0.4-1.5,1.5-2-0.3c-0.1-0.2-0.7-0.6-0.8-0.5c-1.6,0.9-2.8-0.5-4.3-0.5C33,39.2,33,39.1,33,39c0-0.1,0.1-0.1,0.1-0.1
		C33.8,38.8,34.8,39.1,34.9,38z"/>
	<path class="st111" d="M33.1,38.8c0,0.1,0,0.3,0,0.4c-1-0.7-1.3-2.7-3.3-1.8c-0.1,0.1-0.4-1.2,0.2-1.8c0.1,0.1,0.2,0.3,0.3,0.3
		C33.3,34.9,32.9,37.2,33.1,38.8z"/>
	<path class="st121" d="M52.2,54.3c-0.8-1-2.1-1-3.3-1.5c-1.4-0.6-0.8,0.7-1.2,1c-1.8-1.3-2.3-3.2-1.2-5c0.9,0.2,0.7,1,1,1.6
		c0.3,0.6,0.7,1.1,1.2,0.1c0.1-0.2,0.1-0.4,0.2-0.5c0.8-1.3,0.1-2.1-0.8-2.9c0.8-0.6,1.8-0.5,2.7-0.9c0.1,0,0.3,0,0.4,0
		c0.9,1.4,1.6,3,3.1,4c-0.3,0.4-0.2,0.9-0.5,1.5c0.5-0.5,0.1-1.1,0.5-1.5c1.3,0.7,1.3,2,1.4,3.2c0,0.4,0.1,0.8,0.5,0.9
		c0.4,0.1,0.8-0.3,0.7-0.6c-0.6-1.9,0.9-1.4,1.8-1.7c0.3,1.4-0.8,2.7,0,4.1c-2.2,0.7-0.4,3.4-2.2,4.3c-1.5-0.7,0-1.5-0.2-2.4
		c-0.8,0.5-2.1,0.7-1.1,2.2c0.8,1.2-0.3,1.4-1,1.9c0-1.9,0.1-3.8-0.4-5.6c1.5-0.4,0.8-1.4,0.4-2C53.8,53.9,53.1,52.7,52.2,54.3z"/>
	<path class="st175" d="M61,68.8c-0.1,0.1-0.2,0.3-0.3,0.4c-0.2,0.1-0.4-0.1-0.4-0.3c0-0.2,0.2-0.4,0.3-0.5
		C60.9,68.2,60.9,68.5,61,68.8z"/>
	<path class="st176" d="M54.4,34c0.2,0,0.3,0,0.5,0c0.3,0.6,0.6,1.2,0.8,1.8c-1.1,0.7-1.4-0.8-2.2-0.9c-0.2,0-0.3,0-0.5,0
		c0-0.1-0.1-0.2-0.1-0.3C53.2,34,53.7,33.7,54.4,34z"/>
	<path class="st177" d="M46.9,49c-1.4,1.9,0.4,3.3,0.9,4.9c-0.1,0.1-0.3,0.3-0.4,0.4c-1.7,0-3.3,0-5-0.1c-0.3,0-1.6-0.1-0.3-0.9
		c0.6-0.4,0-0.9-0.2-1.4c-0.4-1-0.7-2,0.1-2.9c1,1.6,1,1.6,1.9,0.7c-0.6-0.4-1.5,0-1.9-0.7c0.6-1,1.3-2,2-3c1-1.4,1.5-2.8,0-4.3
		c1.7-0.7,1.8,1.3,2.9,1.5c-0.4,0.7-0.5,1.4-0.4,2.2c0.1,0.4,0,0.6-0.4,0.5c-0.9,1.8,0.6,1.2,1.3,1.3C47.6,48,47.4,48.5,46.9,49z"/>
	<path class="st178" d="M46.9,49c-0.1-0.6,0.1-1.2,0.5-1.8c0.3,0,0.6,0,0.9,0c2,0.6,2.3,1.7,0.9,3.1c-0.1-0.1-0.3-0.3-0.4-0.4
		c0,0.2,0.3,0.3,0.4,0.4c-0.3,0.5,1,1.4-0.2,1.6C48.2,52,47.1,52,47,50.7C47,50.2,46.9,49.6,46.9,49z"/>
	<path class="st179" d="M46,45.9c0.1-0.2,0.3-0.3,0.4-0.5c0.4-0.2,0.7-0.5,0.8-0.9c0.1-0.6,0.5-0.8,1.1-0.8c0.5,0,1,0.3,1,0.7
		c0,0.5-0.2,1.5-0.5,1.6C47.9,46.2,46.9,47.2,46,45.9z"/>
	<path class="st180" d="M53.9,71.1c0-0.8,0-1.6,0-2.3c0.1,1.3,2.4,1.2,1.8,2.8c-0.1,0-0.3,0-0.4,0C54.6,72,54.6,70.6,53.9,71.1
		L53.9,71.1z"/>
	<path class="st152" d="M53.9,71.1c0.7-0.5,0.9,0.2,1.3,0.5c0.4,1.2,0.6,2.3-1.3,1.8C54.4,72.6,54.5,71.9,53.9,71.1z"/>
	<path class="st181" d="M26.5,62.7C26,64,26.4,65,27.4,65.8c0.1,0.7-0.3,1-0.9,1.1c-1-0.9-2.2-1.6-2.9-2.9c-0.1-0.3-0.3-0.6-0.6-0.6
		c-2.1,0.1-1.8-1.4-1.8-2.7c0.4-1.5-1.1-1.9-1.7-2.7c-0.1-0.2-0.1-0.4,0-0.6c0.7-0.1,1.5-0.3,2.2-0.4c0.4,0.3,0.4,1,1,1.1
		c0.9-0.4,0.9-0.4,0.1-1.9c-0.1-0.7-0.3-1.4,0.1-2c1-0.6,2.1-0.6,3.1-0.7c1,0.5,1.8,1.4,2.4,2.6c0.7-1.7-0.6-2.5-1-3.7
		c1.9,0.1,2.6,1.8,3.9,2.4c-1.1,0.8-2.8,1-2,3.2c0.5,1.4-1.3,1.4-2,2.1c-0.7-0.5-1.1-2-2.2-1c-1.1,1-0.7,2.1,0.5,3
		C25.9,62.2,26.2,62.5,26.5,62.7z"/>
	<path class="st182" d="M22.5,58.3c-2.1,0.8-0.4-1-0.9-1.3c0.7-2.5-0.9-4.9-3.4-4.7c-1,0.1-0.9-0.5-1-1c1.2,0.2,2.4,0.1,3.5,0.8
		c0.4,0.2,1.2,0.3,1.5,0c1.7-1.4,2.5-0.1,3.4,1c-0.6,1-2,0.4-2.7,1.3c0,0.6,0.4,1.2,0,1.8C23.5,57,23.3,57.7,22.5,58.3z"/>
	<path class="st86" d="M19.4,57.4c0,0.1,0,0.3,0,0.4c0.9,0.9,0.1,2,0.3,3c-0.1,1.5,0.9,2.6,2,2.8c2.6,0.6,0.9,1.4,0.3,2.3
		c-1.3,0.3-2-0.6-2.7-1.4c-1-0.4-0.8-1.5-1.3-2.2c-0.3-1.1-0.7-1.2-1.3-0.2c-0.7,1.1-1,0.2-1.3-0.2c1.2,0,1-1.5,1.9-1.9
		c0.6,0.1-0.2,0.9,0.5,1c0.7,0.1,0.4-0.6,0.6-0.9c0.2-0.6-0.2-1.1-0.4-1.7c-0.1-0.4-0.7-0.6,0-1.2C18.7,56.6,19,57.1,19.4,57.4z"/>
	<path class="st182" d="M17.9,53.1c0.3,0.9,0.5,1.6-0.3,2c-0.1,0.1-0.5,0-0.5-0.2C16.5,54,17.3,53.7,17.9,53.1z"/>
	<path class="st181" d="M36.7,48.1c0,0.1,0,0.3,0,0.4c-0.8,1.4-0.9,2.9-0.9,4.4c-0.4,1.5,0.9,2.9,0,4.4c-1,0.5-1.9,0.5-2.8,0
		c-0.4-0.7-0.4-1.5-0.2-2.2c0.2-0.5,0.6-0.5,1.1-0.5c0.5,0,0.6-0.3,0.4-0.7c-0.2-0.4-0.3-0.8-0.6-1.2c-0.5-0.6-0.5-1.4-1-2
		c0-0.1,0-0.3,0-0.4C34.2,48.2,34.2,48.2,36.7,48.1z"/>
	<path class="st183" d="M35.3,45c0,0.9-0.6,1.4-1.3,1.8c-0.2-0.1-0.4-0.2-0.5-0.3c-0.5-0.6-1.9,0-2-1.2c-0.1-0.7,0.7-0.6,1.1-0.8
		C33.6,44.1,34.7,43.6,35.3,45z"/>
	<path class="st166" d="M34.5,53.9c0.9,0.1,0.9,0.6,0.5,1.2c-0.8,1.1-1.2-0.3-1.8-0.3c-0.4-0.1-0.6-0.4-0.8-0.7
		c-0.1-0.3-0.3-0.5-0.6-0.6c0,0,0,0,0,0c0-1,1.2-1.6,0.9-2.7c0.8,0.3,1,1.1,1.3,1.8C33.8,53.1,34.1,53.5,34.5,53.9z"/>
	<path class="st136" d="M23,54.3c0-2.3,2-0.4,2.7-1.3c0.1,0.1,0.3,0.3,0.4,0.4C25.3,54.6,24,54.2,23,54.3z"/>
	<path class="st184" d="M31.8,53.4c0.5-0.2,0.9-0.3,0.9,0.5c-0.3,0.9,0.7,2.5-1.3,2.6c0-0.6,0-1.2,0-1.7
		C31.9,54.5,31.8,53.9,31.8,53.4z"/>
	<path class="st174" d="M25.8,42.6c0.2,0.9-0.6,1.1-1.1,1.3c-0.8,0.3-0.8-0.4-0.8-0.9c0-0.9,0.4-1.7,1.2-1.7
		C25.9,41.2,25.4,42.2,25.8,42.6z"/>
	<path class="st111" d="M27.4,36.6c0.6,0.1,1.4-0.3,1.7,0.6c0.2,0.5-0.3,0.7-0.8,0.8C28,37.5,27.7,37.1,27.4,36.6z"/>
	<path class="st185" d="M19.4,64.5c0.9,0.4,1.8,0.9,2.7,1.3c0.4,0.4,0.4,1,0.8,1.4c0.1,0.2,0.2,0.3,0.2,0.5
		c-0.4,1.2-1.2,1.2-2.2,0.7c-0.1-0.1-0.3-0.3-0.4-0.5c-0.1-0.5-0.3-0.9-0.6-1.3c-0.2-0.3-0.5-0.5-0.7-0.8c-0.1-0.2,0-0.3,0.1-0.5
		C19.4,65.1,19.4,64.8,19.4,64.5z"/>
	<path class="st86" d="M17.7,72.5c-1.2-0.3-1.1-1.1-0.9-2.2c0.3-1.5,1.2-1.4,2.3-1.4c0.3-0.1,0.6-0.3,0.9-0.4
		c0.1,0.2,0.2,0.3,0.2,0.5c-0.3,0.8-1.2,1-1.5,1.7C17.7,71,17.6,71.7,17.7,72.5z"/>
	<path class="st146" d="M19.9,68.9c0-0.2,0-0.3,0-0.5c0-0.3,0-0.6,0-0.9c-0.2-0.6-0.6-1.2,0.4-1.3c0.2,0.6,1,1,0.5,1.8
		C20.7,68.5,20.6,69.1,19.9,68.9z"/>
	<path class="st90" d="M16.4,64.9c0.1,0.1,0.5,0.2,0.5,0.4c0.1,0.4-0.3,0.4-0.5,0.5c-0.3,0-0.6,0-0.7-0.3
		C15.6,65.1,16,65.1,16.4,64.9z"/>
	<path class="st90" d="M19.4,65.4c0,0.2,0,0.3,0,0.5c0.3,0.4,0.3,0.9,0,1.3c-0.4,0-1,0.1-1.1-0.3C18.3,66.2,19,65.8,19.4,65.4z"/>
	<path class="st86" d="M19.4,67.2c0-0.4,0-0.9,0-1.3c0.4,0,0.7,0.1,0.9,0.4c-0.5,0.3-0.4,0.9-0.4,1.3C19.7,67.5,19.6,67.3,19.4,67.2
		z"/>
	<path class="st147" d="M26.5,66.7c0.4-0.2,0.7-0.5,0.9-0.9c1-0.7,2.1-0.7,3.1,0c0.2,0.8-0.4,1.4-0.2,2.2c0,1.1-0.5,1.8-1.5,2.2
		c-0.3,0.2-0.4,0.5-0.4,0.9c0.1,1.4-0.8,0.8-1.4,0.7c-0.7-0.1,0.3-1.6-1-1.4c0.9,1.1-2.5,1.9-0.3,3.1c0,0-0.6,0.2-0.9,0.2
		c-0.4-0.3-0.9-0.6-1.3-0.9c-1.1-0.2-0.9-1.1-1-1.8c0-2.2,1.4-2.7,3.1-2.7c0.3,0.1,0.6,0.1,0.7,0.4c0.1-0.2,0-0.3-0.1-0.4
		C25.8,67.7,26,67.2,26.5,66.7z"/>
	<path class="st174" d="M27.8,76.4c0-0.3,0-0.6,0-0.9c-0.5-0.9-1.2-1.9,0.1-3c0.7,1.3,1.4,2.5,2,3.7c0.2,0.4,0.8,0.9,0.2,1.3
		c-0.5,0.4-1.1,0.2-1.5-0.4C28.4,76.9,28.1,76.7,27.8,76.4z"/>
	<path class="st108" d="M31.4,70.7c1.4,1.3,2.2,2.8,0.4,4.4c-0.9-0.9-2.3-1.4-2.1-2.9c0.1-0.7,0.5,0.3,0.8,0.2
		c0.6,0,0.6-0.6,0.9-0.9C31.4,71.3,31.4,71,31.4,70.7z"/>
	<path class="st186" d="M28.7,70.3c0.4-0.7,0.9-1.5,1.3-2.2c0.1-0.2,0.3-0.2,0.4,0c0,1-0.1,2,0.9,2.7C30.5,70.3,29.4,71.6,28.7,70.3
		z"/>
	<path class="st92" d="M31.4,71.6c0,0.6,0.2,1.4-0.9,0.9C30.5,71.9,30.3,71.1,31.4,71.6z"/>
	<path class="st187" d="M23,71.1c0.1,0.6-0.2,1.3,0.4,1.8c-0.1,0.4,0.7,1.4-0.4,1.2c-0.7-0.1-1.9,0.3-2.2-0.8
		c-0.2-1,0.6-2.6-1.6-1.8c-0.1,0-0.4-0.5-0.7-0.8c-1-1.7,1.1-1,1.3-1.8c0.3-0.3,0.6-0.6,0.9-0.9c0,0,0,0,0,0
		C21.6,69,22.2,70.2,23,71.1z"/>
	<path class="st188" d="M52.2,36.2c0,0.5-0.2,1-0.8,1.1C51.1,37.4,51,37.2,51,37C51.2,36.3,51.6,36.2,52.2,36.2L52.2,36.2z"/>
	<path class="st123" d="M51.7,34c0-0.2,0-0.3,0-0.5c1-0.1,0.8,0.7,1,1.3c0,0.4-0.1,0.6-0.6,0.5C51,35.2,51.9,34.4,51.7,34z"/>
	<path class="st189" d="M52.2,35.3c0.1-0.1,0.3-0.3,0.4-0.4c0.2-0.1,0.3-0.1,0.4,0c0,0,0,0,0,0c0.1,0.7,0,1.2-0.9,1.3c0,0,0,0,0,0
		C52.2,35.9,52.2,35.6,52.2,35.3z"/>
	<path class="st190" d="M39.8,58.7c0.6-1.3,1.5-1.4,2.6-0.9c0.7,0.9,1.3,1.9,0.5,3.3C41.9,60.3,40.8,59.5,39.8,58.7z"/>
	<path class="st140" d="M33.1,57.4c0.9-0.3,1.8-0.3,2.6,0c2.1-0.3,0.9,1,0.9,1.8c-0.2,0.2-0.6,0.2-0.6,0.5c0,0.6,0.6,0.7,1,0.9
		c0,0.3,0,0.6,0,0.9c-0.8,0.7-0.7,2.9-2.6,1.3c-0.1-0.1-0.3-0.3-0.4-0.4c-0.2-0.7-0.7-1.1-1.3-1.3l0,0c-0.1-1-0.2-2,0-3
		C32.8,57.7,33,57.6,33.1,57.4z"/>
	<path class="st184" d="M34.5,62.7c1.6,0.9,1.6-1.3,2.6-1.3c0,0.1,0,0.3,0,0.4c-0.1,0.6,0.2,1.2,0.5,1.8c-0.1,1.4,0.4,3-1.5,3.8
		C36.1,65.6,34.6,64.5,34.5,62.7z"/>
	<path class="st184" d="M37.1,60.5c-1,0.7-1.4-0.1-1.8-0.7c-0.2-0.3-0.4-0.7,0-0.9c0.5-0.3,0.9,0.1,1.4,0.3
		C36.8,59.6,37,60.1,37.1,60.5z"/>
	<path class="st191" d="M40.7,68.5c0.1-0.5,0-1.1,0.8-1c0.1,0,0.3,0.2,0.3,0.3C41.7,68.5,41.1,68.4,40.7,68.5
		C40.7,68.5,40.7,68.5,40.7,68.5z"/>
	<path class="st162" d="M38.9,68.9c-1.1-0.3-1.6-0.9-0.4-1.8C38.4,67.8,38.6,68.4,38.9,68.9z"/>
	<path class="st162" d="M38.4,66.3c-0.3-1.5,0.8-0.7,1.3-0.9C39.3,65.7,38.9,66,38.4,66.3z"/>
	<path class="st192" d="M26.5,62.7c-2.5-0.7-3.2-1.8-2.1-3.6c0.3-0.6,1.1-1.7,1.3-1.4c0.6,0.7,2.4,0.8,1.7,2.4
		c-0.1,0.2-0.3,0.3-0.4,0.5c-0.1,0.6-0.7,1.1-0.5,1.8C26.5,62.4,26.5,62.6,26.5,62.7z"/>
	<path class="st184" d="M33.1,57.9c0,1.1,0.2,2.1-0.4,3.1c-2.7-0.6-1.8-2.3-1.3-4C32.4,56.3,32.7,57.3,33.1,57.9z"/>
	<path class="st108" d="M30.5,68c-0.1,0-0.3,0-0.4,0c-0.1-0.8,0-1.5,0.4-2.2c1.1-0.3,2.2,0.5,3.4-0.2c0.5-0.3,1,0.2,0.7,0.8
		c-0.3,0.6-0.6,1.2-1,1.9C31,66.3,31,66.3,30.5,68z"/>
	<path class="st193" d="M33.1,57.9c-0.6-0.2-1-0.9-1.8-0.9c0-0.1,0-0.3,0-0.4c1.3-0.4,0.5-2,1.3-2.6c0.2,0.3,0.3,0.6,0.5,0.9
		c0,0.9,0,1.8,0,2.7C33.1,57.6,33.1,57.7,33.1,57.9z"/>
	<path class="st184" d="M32.7,61c1.1-0.2,2-0.2,1.3,1.3C33.4,62,33,61.6,32.7,61z"/>
	<path class="st181" d="M26.5,62.3c-0.7-0.8,0-1.3,0.5-1.8C27.3,61.2,27.8,62,26.5,62.3z"/>
	<path class="st186" d="M31.8,68.6c-0.1,0.2-0.2,0.5-0.4,0.5c-0.4,0.1-0.5-0.2-0.4-0.5c0-0.1,0.2-0.4,0.4-0.4
		C31.5,68.3,31.7,68.5,31.8,68.6z"/>
	<path class="st194" d="M47.8,29.1c0,0.1,0,0.3,0,0.4c-2.4-0.7-1.5-2.5-1.3-4.1c0.1-0.5,0.4-0.8,0.8-0.9c0.6-0.2,0.7,0.3,0.9,0.7
		c0.6,1.4,0.6,1.4,2.1,0.5c0.1,1.2,0.7,2.5-1.3,2.4C48.3,28.3,48,28.6,47.8,29.1z"/>
	<path class="st195" d="M53,34.9c-0.1,0-0.3,0-0.4,0c-0.3-0.4-0.6-0.9-0.9-1.3c0.7-0.5,1-1.7,2.3-1.1c0.9,0.4,0.8,0.9,0.4,1.5
		C53.9,34.3,53.5,34.6,53,34.9z"/>
	<path class="st196" d="M54.4,50.3c0.1,0.3,0.1,0.6,0.2,0.8c0.3,0.7-0.1,1.3-0.6,1.7c-0.1,0.1-0.6-0.1-0.7-0.2
		c-0.4-0.7,0-1.2,0.5-1.7C54,50.8,54.2,50.6,54.4,50.3C54.4,50.3,54.4,50.3,54.4,50.3z"/>
	<path class="st197" d="M42,49c0.4,0,0.8-0.1,1.1,0c0.6,0.2,1.5-1,1.9,0.1c0.3,0.8-0.6,1.2-1.1,1.7c-0.3,0.4-0.7,0.9-1.3,0.5
		C41.6,50.8,42.1,49.9,42,49C42,49,42,49,42,49z"/>
	<path class="st198" d="M49.1,50.3c-0.5-0.1-1.4,0.4-1.6-0.6c-0.1-0.4,0.4-0.9,0.8-0.9C49.3,48.9,49,49.8,49.1,50.3
		C49.1,50.3,49.1,50.3,49.1,50.3z"/>
	<path class="st199" d="M26.5,66.7c-0.8,0.6,0.8,1.7-0.5,2.2c-1-0.2-1.7-0.7-2.3-1.5c-0.4-0.1-0.9-0.2-1.2,0.2
		c-1.1-0.3-0.5-1.1-0.5-1.8c0.2-0.5,0.4-1,0.5-1.5c-0.7-0.7-1.6,0.8-1.6,0.3c0.2-1.7-3.1-1.6-1.6-3.6c0.5-1.5,1.4-0.9,2.2-0.4
		c0.3,1-0.9,3.2,1.8,2.1c0.1,0,0.3,0.1,0.3,0.2C23.6,64.9,26.2,65,26.5,66.7z"/>
	<path class="st136" d="M21.6,60.5c-0.7,0.1-1.6-0.3-2.2,0.4c-1-1,0.4-2.1,0-3.1C20.8,58.2,21.8,58.9,21.6,60.5z"/>
	<path class="st136" d="M22.5,58.3c0.1-0.7,0.3-1.5,0.4-2.2c0.7,0.3,1.1,0.9,1.1,1.5C24,58.8,23.5,59.3,22.5,58.3z"/>
	<path class="st200" d="M34.5,53.9c-0.5,0-1-0.2-1.1-0.8c-0.1-0.5,0.4-0.5,0.7-0.6C34.5,52.9,34.5,53.4,34.5,53.9z"/>
	<path class="st146" d="M23.8,66.7c1.3,0.2,0.9,2.1,2.2,2.2c-1.4,0.2-3.3-0.2-3.1,2.2c-1.7-0.3-1.7-1.9-2.2-3.1
		c0.9,0.5,1.7,0.7,2.2-0.4C23.3,67.4,23.7,67.2,23.8,66.7z"/>
	<path class="st192" d="M23.8,66.7c0.1,0.3,0.4,0.8,0.3,1c-0.3,0.5-0.7,0-1.1-0.1c-0.1,0-0.3,0-0.4,0C22.8,67,23.2,66.7,23.8,66.7z"
		/>
</g>
</svg>
