<?xml version="1.0" encoding="utf-8"?>
<!-- Generator: Adobe Illustrator 25.0.0, SVG Export Plug-In . SVG Version: 6.00 Build 0)  -->
<svg version="1.1" id="Layer_1" xmlns="http://www.w3.org/2000/svg" xmlns:xlink="http://www.w3.org/1999/xlink" x="0px" y="0px"
	 width="105.5px" height="129px" viewBox="0 0 105.5 129" style="enable-background:new 0 0 105.5 129;" xml:space="preserve">
<style type="text/css">
	.st0{fill:#48A6DD;}
	.st1{fill:#FFFFFF;}
	.st2{fill:#231F20;}
	.st3{fill:#FCFCEC;}
	.st4{fill:#B9B49D;}
	.st5{fill:#151511;}
	.st6{fill:#E9E7D3;}
	.st7{fill:#ADAA94;}
	.st8{fill:#605F53;}
	.st9{fill:#1C1D18;}
	.st10{fill:#DBDAC5;}
	.st11{fill:#BDBAA2;}
	.st12{fill:#201E1C;}
	.st13{fill:#070706;}
	.st14{fill:#161712;}
	.st15{fill:#E3DEC6;}
	.st16{fill:#0B0C09;}
	.st17{fill:#D1CCB6;}
	.st18{fill:#F1F0DA;}
	.st19{fill:#3C3933;}
	.st20{fill:#DDDBC5;}
	.st21{fill:#191815;}
	.st22{fill:#0C0C0B;}
	.st23{fill:#20201A;}
	.st24{fill:#CBC9B2;}
	.st25{fill:#2C2B26;}
	.st26{fill:#3C3932;}
	.st27{fill:#1C1918;}
	.st28{fill:#989684;}
	.st29{fill:#333430;}
	.st30{fill:#141414;}
	.st31{fill:#373733;}
	.st32{fill:#373836;}
	.st33{fill:#434441;}
	.st34{fill:#53524F;}
	.st35{fill:#5A5852;}
	.st36{fill:#E7E4CD;}
	.st37{fill:#F9F6E1;}
	.st38{fill:#E3E0C9;}
	.st39{fill:#EFEBD7;}
	.st40{fill:#C6C4B0;}
	.st41{fill:#AAA58E;}
	.st42{fill:#B4AF97;}
	.st43{fill:#C5C0A8;}
	.st44{fill:#C4C1A9;}
	.st45{fill:#989481;}
	.st46{fill:#ABA68F;}
	.st47{fill:#D3CDB7;}
	.st48{fill:#C7C2AA;}
	.st49{fill:#A39E87;}
	.st50{fill:#A5A28D;}
	.st51{fill:#C4BCA8;}
	.st52{fill:#3A382F;}
	.st53{fill:#2A2822;}
	.st54{fill:#403E35;}
	.st55{fill:#282822;}
	.st56{fill:#1F1E1A;}
	.st57{fill:#292A25;}
	.st58{fill:#DFDDC4;}
	.st59{fill:#BDBAA3;}
	.st60{fill:#B5B29A;}
	.st61{fill:#8D8B79;}
	.st62{fill:#999580;}
	.st63{fill:#9D9986;}
	.st64{fill:#7D7966;}
	.st65{fill:#7E7D71;}
	.st66{fill:#D0CDB6;}
	.st67{fill:#96937D;}
	.st68{fill:#939276;}
	.st69{fill:#4E4D44;}
	.st70{fill:#3F3F31;}
	.st71{fill:#100E0A;}
	.st72{fill:#32312B;}
	.st73{fill:#15130E;}
	.st74{fill:#0E0D09;}
	.st75{fill:#2E2E28;}
	.st76{fill:#4F4E45;}
	.st77{fill:#070602;}
	.st78{fill:#302D26;}
	.st79{fill:#2F2C26;}
	.st80{fill:#C5C2AB;}
	.st81{fill:#96937B;}
	.st82{fill:#403D35;}
	.st83{fill:#5B5B56;}
	.st84{fill:#D8D4BD;}
	.st85{fill:#E5E1CA;}
	.st86{fill:#47443B;}
	.st87{fill:#504D43;}
	.st88{fill:#68645E;}
	.st89{fill:#26231B;}
	.st90{fill:#55514A;}
	.st91{fill:#0D0C06;}
	.st92{fill:#838071;}
	.st93{fill:#625F53;}
	.st94{fill:#D1CEB7;}
	.st95{fill:#B7B49D;}
	.st96{fill:#E6E3CB;}
	.st97{fill:#CCC9B2;}
	.st98{fill:#CAC7AF;}
	.st99{fill:#96917C;}
	.st100{fill:#B8B49B;}
	.st101{fill:#908A78;}
	.st102{fill:#A5A089;}
	.st103{fill:#CFC8B3;}
	.st104{fill:#888474;}
	.st105{fill:#837D6E;}
	.st106{fill:#5A594C;}
	.st107{fill:#48463C;}
	.st108{fill:#46453B;}
	.st109{fill:#121109;}
	.st110{fill:#27261E;}
	.st111{fill:#A7A38F;}
	.st112{fill:#686959;}
	.st113{fill:#959481;}
	.st114{fill:#696553;}
	.st115{fill:#BBB8A2;}
	.st116{fill:#74715C;}
	.st117{fill:#5F5F51;}
	.st118{fill:#28281D;}
	.st119{fill:#4D4C41;}
	.st120{fill:#525149;}
	.st121{fill:#232219;}
	.st122{fill:#7B7A70;}
	.st123{fill:#787768;}
	.st124{fill:#515141;}
	.st125{fill:#0F0E0A;}
	.st126{fill:#A7A48C;}
	.st127{fill:#AEAA91;}
	.st128{fill:#D8D5BB;}
	.st129{fill:#8E8C77;}
	.st130{fill:#B8B59E;}
	.st131{fill:#9F9C86;}
	.st132{fill:#A29F89;}
	.st133{fill:#B6B39C;}
	.st134{fill:#B1AD96;}
	.st135{fill:#B1AE97;}
	.st136{fill:#524E45;}
	.st137{fill:#5D5A50;}
	.st138{fill:#6D695B;}
	.st139{fill:#CAC7B0;}
	.st140{fill:#5A574C;}
	.st141{fill:#6A685B;}
	.st142{fill:#47443A;}
	.st143{fill:#797564;}
	.st144{fill:#A9A68F;}
	.st145{fill:#B1AE96;}
	.st146{fill:#B7B39E;}
	.st147{fill:#A09D84;}
	.st148{fill:#CDCAB3;}
	.st149{fill:#9D9A82;}
	.st150{fill:#908A79;}
	.st151{fill:#878170;}
	.st152{fill:#A9A490;}
	.st153{fill:#C9C4AC;}
	.st154{fill:#C6C1A9;}
	.st155{fill:#817C6C;}
	.st156{fill:#69685B;}
	.st157{fill:#615E54;}
	.st158{fill:#767262;}
	.st159{fill:#737062;}
	.st160{fill:#6D6B5C;}
	.st161{fill:#676758;}
	.st162{fill:#686657;}
	.st163{fill:#4F4D42;}
	.st164{fill:#5B584C;}
	.st165{fill:#5F5C51;}
	.st166{fill:#8F8B78;}
	.st167{fill:#8D8A76;}
	.st168{fill:#838275;}
	.st169{fill:#616051;}
	.st170{fill:#787765;}
	.st171{fill:#757463;}
	.st172{fill:#9D9A84;}
	.st173{fill:#9B9881;}
	.st174{fill:#96937C;}
	.st175{fill:#99967E;}
	.st176{fill:#B5B29C;}
	.st177{fill:#6B6A5B;}
	.st178{fill:#84806D;}
	.st179{fill:#B6B29D;}
	.st180{fill:#908D78;}
	.st181{fill:#9C9883;}
	.st182{fill:#BAB7A2;}
	.st183{fill:#636154;}
	.st184{fill:#A9A690;}
	.st185{fill:#747164;}
	.st186{fill:#9E9B85;}
	.st187{fill:#B4B099;}
	.st188{fill:#BFBAA3;}
	.st189{fill:#97917C;}
	.st190{fill:#97927D;}
	.st191{fill:#8C8877;}
	.st192{fill:#C9C5AE;}
	.st193{fill:#95917E;}
	.st194{fill:#FDFBE4;}
	.st195{fill:#D7D3BB;}
	.st196{fill:#656354;}
	.st197{fill:#716C62;}
	.st198{fill:#807D6D;}
	.st199{fill:#807E6E;}
	.st200{fill:#5D5B4B;}
	.st201{fill:#84806E;}
	.st202{fill:#918C7B;}
	.st203{fill:#BCB8A3;}
	.st204{fill:#737163;}
	.st205{fill:#B3B09B;}
	.st206{fill:#B0AD98;}
	.st207{fill:#CDC9B4;}
	.st208{fill:#AFAC97;}
	.st209{fill:#B0A997;}
	.st210{fill:#98957D;}
	.st211{fill:#92907F;}
	.st212{fill:#B8B49F;}
	.st213{fill:#A6A390;}
</style>
<g>
	<path class="st0" d="M90.8,126.5H15c-2.2,0-4-1.8-4-4v-23c0-2.2,1.8-4,4-4h75.8c2.2,0,4,1.8,4,4v23C94.8,124.7,93,126.5,90.8,126.5
		z"/>
	<g>
		<path class="st1" d="M31.9,113c-0.1-2-0.1-4.4-0.1-6.8h-0.1c-0.5,2.1-1.2,4.4-1.8,6.4l-2,6.4H25l-1.8-6.4
			c-0.5-1.9-1.1-4.3-1.5-6.4l0,0c-0.1,2.2-0.2,4.8-0.3,6.8l-0.3,6.3h-3.4l1.1-16.5h5l1.6,5.5c0.5,1.9,1,4,1.4,5.9h0.1
			c0.5-1.9,1-4.1,1.6-5.9l1.8-5.5h4.9l0.9,16.5h-3.6L31.9,113z"/>
		<path class="st1" d="M53.7,110.9c0,5.4-3.3,8.7-8.1,8.7c-4.9,0-7.7-3.7-7.7-8.4c0-4.9,3.2-8.6,8-8.6
			C51,102.6,53.7,106.3,53.7,110.9z M41.8,111.1c0,3.2,1.5,5.5,4,5.5s4-2.4,4-5.6c0-3-1.4-5.5-4-5.5
			C43.3,105.5,41.8,107.9,41.8,111.1z"/>
		<path class="st1" d="M71.2,110.9c0,5.4-3.3,8.7-8.1,8.7c-4.9,0-7.7-3.7-7.7-8.4c0-4.9,3.2-8.6,8-8.6
			C68.5,102.6,71.2,106.3,71.2,110.9z M59.3,111.1c0,3.2,1.5,5.5,4,5.5c2.5,0,4-2.4,4-5.6c0-3-1.4-5.5-4-5.5
			C60.8,105.5,59.3,107.9,59.3,111.1z"/>
		<path class="st1" d="M73.7,119.3v-16.5H78l3.4,6c1,1.7,2,3.8,2.7,5.6h0.1c-0.2-2.2-0.3-4.4-0.3-6.9v-4.8h3.4v16.5h-3.9l-3.5-6.4
			c-1-1.8-2.1-3.9-2.9-5.8h-0.1c0.1,2.2,0.1,4.5,0.1,7.2v5h-3.3C73.7,119.2,73.7,119.3,73.7,119.3z"/>
	</g>
</g>
<circle class="st2" cx="53" cy="52.3" r="51.2"/>
<g>
	<path class="st3" d="M16.4,87.9c-8.2-8-12.6-18-14.2-29.2c-1.2-8.2-0.1-16.1,2.7-23.8c0.4-1,0.9-2,1.3-3c1.7,0.8,0.6,1.9,0.4,2.9
		c-0.8,1.2-0.6,2.6-0.9,3.9c-0.6,2.8,0.1,5.5,0.7,8.2c0.2,0.8,0.4,1.6,0.2,2.4c-0.4,2.2-0.7,4.5,0.2,6.7c0.9,2.5,1,5.2,2.6,7.4
		c0.3,0.4,0.5,0.8,0.4,1.2c-0.3,2.8,1.5,4.9,2.5,7.3c1,1.7,0.7,3.9,0.2,5.3c-0.5,1.5,0.7,2.2,0.4,3.1c-0.7,2.1,1.5,2.2,2.1,3.3
		c0.1,0.3,0.4,0.1,0.1,0.2c0,0,0,0-0.1-0.1c-0.3-0.6-0.5-1.3,0.3-1.7c1,0.2,1.4,0.9,1.8,1.6c0.1,0.2,0.1,0.4,0.2,0.6
		c0.1,0.4,0.2,0.8,0.3,1.2C17.4,86.3,18,87.7,16.4,87.9z"/>
	<path class="st4" d="M42.7,2.4C43.5,2,44.4,2.1,45.3,2c2.4-0.1,2.4-0.1,1.7,2.7c-0.1,0.5-0.5,0.8-0.9,0.7c-1-0.4-1,0.4-1.2,0.9
		c-1.4,0.8-3.2,1.1-4.3,2.4c-1.8,1.9-3.6,3.7-6.8,2.9c0.7,0.4,1.3,0.5,1.9,0.6c0.6,0.1,1.2,0,1.8,0c0.7,0,1.6-0.2,1.5,1
		c-0.7,1.7-1.8,2.9-3.6,3.4c-0.4-0.2-0.6-0.6-0.7-1c-0.1-0.7,0.4-1,0.8-1.5c-1.1,0.1-2.2,0.9-2.9-0.6c-0.7,0.8-0.6,1.7-1.1,2.3
		c-1.1,1-2.5,0.6-3.7,0.9c-0.7,0.4-1.9-0.5-2.1,0.9c-1.1,0.8-2.3,1.4-3.6,1.7c-2.4,0-2.2-1.8-2.4-3.4c-0.1-0.5,0.1-0.9,0.3-1.2
		c0.3-0.4,0.7-0.5,1.2-0.5c2.3,0.9,4.4,0.5,6.2-1.1c0.1,0.2,0.2,0.4,0.3,0.6c0.2,0.4,0,1.1,0.8,1c0.3,0,0.6-0.2,0.6-0.5
		c-0.1-0.7-0.9-0.4-1.2-0.7c-0.2-0.1-0.3-0.3-0.3-0.5c0.1-0.3,0.3-0.5,0.5-0.7c0.9-0.2,1.8-0.5,2.6-1.1c2.9-0.2,4.7-2.6,7.1-3.5
		C40.2,6.5,40.9,4.1,42.7,2.4z"/>
	<path class="st5" d="M56.9,33.2c0.1-0.2,0.2-0.4,0.4-0.5c0.2-0.1,0.4,0,0.4,0.3c-0.1,0.6-0.1,1.2-0.3,1.7c-0.9,1.7-0.2,3.1,0.9,4.3
		c-1.3,1.6-0.7,3.4-0.5,5.2c0.1,1.6-1.3,2.9-0.8,4.6l0,0c1.2,0.7,1.1,2.1,1.8,3.1c0.1,0.4-0.3,1.1,0.7,1.1c1,0,1,1.2,0.7,1.5
		c-1.2,1.3-0.8,3-1.5,4.4c-0.6,1.1,0.1,1.4,1,2.2c-1-0.1-1.7-0.1-2.2,0.6c-0.3,0-0.5-0.2-0.7-0.4c-0.2-0.8-0.9-0.2-1.3-0.5
		c-0.3-0.4-0.3-0.8-0.4-1.2c0-0.2,0-0.4,0-0.6c0.1-0.8,0.2-1.5,0.6-2.2c1.3-1.8,0.5-3.4-0.6-4.9c-0.2-0.2-0.4-0.4-0.5-0.8
		c-0.3-1-0.8-2-0.7-3.2c0.1-1.7,0.8-3.3,0.9-5c0-0.2,0.1-0.4,0.2-0.6c1-1.5,0.1-3,0.1-4.5c0-0.4,0-0.8-0.1-1.2
		c-0.9-1.4-0.2-2.3,0.9-3.1C56.2,33.3,56.8,34.1,56.9,33.2z"/>
	<path class="st6" d="M20.9,14.5c-0.4,0-0.7,0.1-0.9,0.4c-1.1,0.9-1.9,1.9-2.4,3.2c-0.3,0.5-0.6,1-1.1,1.5c-2.3,0.8-2.9,3.3-4.9,4.4
		c-0.2,0-0.4,0-0.6-0.1c-0.1-0.2-0.1-0.4,0-0.6c4.6-7.3,11-12.4,18.5-16.4C31.3,6,33,4.9,35,4.7c0.3-0.1,0.6-0.2,0.9-0.1
		c0.6,0.3-0.4,0.8,0.2,1.6c0.6,0.6-0.9,1.4-1.7,1.4c-1.3,0.1-2.2,0.6-2.9,1.7c-1.1,0.7-2,2.6-3.6,0.6c-0.3-0.3-1,0.1-1.4,0.4
		C24.6,11.8,23.1,13.7,20.9,14.5z"/>
	<path class="st7" d="M44.5,102.6c-1.2-0.1-2.5-0.2-3.6-0.8c0.2-0.3,1.2-0.2,0.3-0.9c-0.2-0.2,0-0.7,0.2-1c0.1-0.2,0.2-0.3,0.4-0.4
		c0.2-0.7,1,1.4,1-0.2c-0.3-0.6-0.8-0.8-1.3-1.2c-0.1-0.1-0.3-0.3-0.3-0.5c-0.2-0.8-1-0.2-1.4-0.6c-0.6-0.5-0.6-1.1-0.6-1.8
		c0.1-0.4,0.3-0.8,0.5-1.1c0.8-0.7,2-0.8,2.9-1.5c1-0.8,2-1.7,2.9,0.1c-0.9,0.8-1.1,1.7-0.6,2.8c-0.2,0.9-1.1,1.7,0,2.6
		c0.3-0.5,0-1.4,0.9-1.5c0.2,0,0.4,0,0.6,0.1c1,0.7,1.3,1.7,1,2.9c-0.1,0.1-0.2,0.2-0.3,0.3c0,0,0.1,0,0.1,0c0.3,0,0.5,0.2,0.6,0.4
		c0.2,0.4,0.3,0.7,0.2,1.1C47.3,103,45.8,102.6,44.5,102.6z"/>
	<path class="st8" d="M47.2,100c0.1-1.1,0-2.3-0.9-3.1c0.7-1.3,1.6-2.4,3.2-2.7c0.9,0.8,0.3,1.9,0.4,3c0.2-1,0.3-1.8,0.5-2.6
		c0.6-0.9,1.1-2.2,2.4-0.6c0.1,0.3,0.1,0.6,0.1,0.9c-0.1,1-0.2,1.9-0.1,2.9c0,0.3,0,0.6-0.1,0.9c-0.3,0.4-0.4,0.9-0.5,1.3
		c-0.1,0.3-0.4,0.5-0.5,0.8c0.3,0,0.5-0.1,0.7-0.2c0.2-0.1,0.4-0.1,0.6-0.1c0.6,0.1,1.2,0.3,0.6,1.1c-0.4,0.5-0.8,1-1.2,1.5
		c-2.7,0.6-5.4,0.5-8-0.5c0.1-0.2,0.3-0.5,0.4-0.7c1.3,0.9,2.2,0,3.1-0.7c0.4-0.3,0.9,0.1,1.4-0.1c-0.5-0.5-1.3-0.2-1.7-0.7
		C47.5,100.2,47.3,100.1,47.2,100L47.2,100z"/>
	<path class="st9" d="M57.8,71.5c0.3,1.2,0.4,2.3-0.6,3.2c-0.9,0.8-0.5,1.7,0.1,2.5c0.3,1-0.7,1.1-1.1,1.6c-0.4,0.5-0.7,0.9-0.2,1.4
		c0.3,0.6,0.2,1-0.3,1.3c-0.4,0.2-0.9,0.2-1.3,0c-0.3-0.1-0.6-0.3-0.7-0.6c-0.4-1.2-0.2-2.6-0.9-3.8c1.2-1.9,1.3-4.1,1.4-6.2
		c0-1.2-0.1-2.6,1.7-2.8C57.3,68.7,57,70.4,57.8,71.5z"/>
	<path class="st9" d="M58.7,25.2c-0.3,0.3-0.9,0.7-0.9,0.7c1.5,2.1-0.1,3.7-0.8,5.4c-0.1,0.3-0.3,0.6-0.5,1c-0.5,0.4-0.7,1.2-1.5,1
		c-0.8-0.3-0.9-0.9-0.9-1.6c0.2-1.6-0.3-3.1-0.5-4.6c0.3-1.2,0.4-2.4,0.9-3.5c0.7-1.6,1.3-1.2,2-0.2c0.3,0.4,0.7,0.7,1.3,0.7
		C58.3,24.4,58.4,24.9,58.7,25.2z"/>
	<path class="st10" d="M11.1,23.3c0,0.2,0,0.3,0,0.5c0.3,0.3,0.4,0.7,0.4,1.2c-0.4,1.4,1,2.9-0.1,4.2c-1,1.3-1.5,2.9-2.8,3.9
		c-0.9,0.7-0.9,2.3-2.4,2.3c-0.1-0.2-0.1-0.4,0-0.6c-0.2-1,1.1-2,0.1-3.1C7.4,28.8,9,25.9,11.1,23.3z"/>
	<path class="st11" d="M39.6,95c0.1,0.6-0.2,1.3,0.5,1.8c0.3,0.5,0.9,0.6,1.3,0.9l0,0c0.2,0.2,0.3,0.4,0.3,0.7
		c0,0.2-0.1,0.3-0.2,0.5c-0.2,0.4,0.1,0.7,0.4,1c-0.9,0.3,0.8,2-1,1.8l-0.2,0l-0.2-0.1c-0.7-0.5-1.5-1-2-1.7
		c-0.3-0.4-0.4-0.8-0.1-1.2c0.4-0.4,0.8-0.4,0.9-0.2c-1.5-0.2-3.9,0.5-4.3-2.3c-0.1-1.3-0.8-2.7,0.4-3.9c0.2-0.1,0.4-0.2,0.6-0.2
		c0.5,0.2,0.6,0.7,1,1c0.6,0.3,1.3-0.5,1.8,0.3C38.3,94.5,39.5,94.4,39.6,95z"/>
	<path class="st12" d="M55.1,5.6c0.4,0.8,1.7,1.5,0.3,2.5c1.9,0.6,0.8,2.2,1.1,3.3c-0.7,1.5,0,3.6-2,4.6c-0.4,0-0.6-0.2-0.8-0.4
		c-0.7-2-1.3-4.1-1.2-6.3C52.2,8.6,52,7.9,53,7.6c0.1-0.1,0.4,0.2,0.5-0.1c0.1-0.3,0,0.1-0.2-0.1C53,6.6,53.5,6.2,54,5.9
		C54.4,5.6,54.7,5.4,55.1,5.6z"/>
	<path class="st13" d="M56.9,48.8c-0.6-0.5-0.3-1.2-0.2-1.8c0.2-1.4,0.8-2.8,0.4-4.3c-0.7-2.6-0.6-2.6,1.2-3.7
		c0.2,0.2,0.5,0.4,0.5,0.7c0.1,1.1,2.3,0,1.7,1.6c-0.3,0.7-1.2,1.2-1.9,1.8c0.4,0.7,2.7,1.2,0.3,2.2C59.4,47,56.9,47.2,56.9,48.8z"
		/>
	<path class="st14" d="M55.6,81.3c0.5-0.3,0.5-0.6,0-0.9c-0.4-1.2,0-1.7,1.3-1.3c0.4,1.1,1.3,2.2,0,3.3c-0.3,0.3-0.1,0.6,0.1,0.8
		c1.9,2.2,0.8,4.4-0.1,6.6C56,90,55.7,89,55,88.8c-0.2-0.1-0.3-0.2-0.4-0.4c-0.3-0.5-0.1-0.9,0.1-1.4c0.1-0.2,0.2-0.3,0.3-0.5
		c0.6-1.2-0.6-2.2-0.2-3.4c0.1-0.4,0.2-0.8,0.3-1.1C55.2,81.7,55.4,81.5,55.6,81.3z"/>
	<path class="st6" d="M32.8,99.1c-3.9-1.2-7.3-3.5-10.6-5.9c-0.4-0.5-0.2-0.9,0.2-1.3c0.8-0.3,1.5,0.2,2.3,0.2
		c0.2,0.1,0.3,0.2,0.4,0.4c0.1,0.6,0.5,1,1.1,1c0.8,0.3,1.6,0.7,2.4,1.1c0.6,0.3,1.2,0.8,1.8,1c1,1,2.7,1.1,3.2,2.7
		C34,99.4,33.4,99.3,32.8,99.1z"/>
	<path class="st15" d="M31.1,9.2c0.4-2.8,3.4-1.4,4.8-2.9C35.7,5.6,35,6.3,34.7,6c0.4-0.4,0.5-1,0.3-1.3c0.2-0.3,0.6-0.4,1-0.4
		c0.3-0.2,0.5-0.2,0.8-0.1c0.3,0.1,0.9,0.7,0.6-0.3l0,0c0.8-0.3,1.7-0.2,2.6-0.2c0.2,0.1,0.3,0.2,0.5,0.4c0.4,1.2-0.2,2.2-1.2,2.5
		c-1.8,0.7-3.4,1.9-5,2.9c-0.8,0.5-1.5,0.4-2.3,0.2C31.6,9.6,31.4,9.5,31.1,9.2z"/>
	<path class="st16" d="M57.8,71.5c-1.4-0.6-1.2-2.1-1.8-3.1c-0.2-0.2-0.3-0.5-0.3-0.9c0.3-0.9-0.2-1.8,0.1-2.7
		c0.5-0.6,0.8-1.4,1.6-1.8c1.4,1.4,0.6,3.7,2.2,5.2C60.3,68.9,59.5,70.9,57.8,71.5z"/>
	<path class="st17" d="M32,9.2c1.9,0.5,3.3-0.7,4.4-1.7C36.9,7,37.3,7.1,37.6,7c1.5-0.5,2.6-1.3,2.4-3.1c0.4-1.1,1.5-0.9,2.2-1.3
		c0.1,0,0.3-0.1,0.4-0.1c-1.3,1.5-0.9,4.1-3.6,4.8c-1.2,0.3-2.6,1.3-3.7,2.5c-1.2,1.3-3.2,1.7-5.1,1.6c0-0.1-0.1-0.2-0.1-0.3
		C30.3,10.1,31.3,9.7,32,9.2z"/>
	<path class="st18" d="M22.7,91.9c-0.1,0.4-0.3,0.9-0.4,1.3c-2.1-1.6-4.1-3.2-5.8-5.3c1-0.7,0.6-1.8,0.9-2.7
		c0.6-0.2,0.8,0.3,1.1,0.6c0.3,0.4,0.6,0.9,0.9,1.4c0.3,0.4,0.6,0.7,1,1c0.5,0.5,0.8,1.1,1.4,1.4C22.8,90.1,22.9,91,22.7,91.9z"/>
	<path class="st19" d="M55.2,33.2c0.5-0.2,0.6-1,1.3-0.9c0,0.1,0,0.3,0,0.4c-0.2,0.3-0.1,0.7-0.4,0.9c-0.2,0.9-1.8,1.5-0.5,2.7
		c-0.3,1.7-1.4,0.5-2.2,0.6c-1-0.1-1.5,0.8-2.4,0.9c-1-0.5-0.4-1.3-0.3-1.9c-0.6-2.8,0.2-5.2,2.2-7.2c0.2-0.1,0.4,0,0.6,0.1
		c0.4,1,0.2,2.2,0.6,3.2c0.5,1.2-1.1,1.3-1.2,2.3C54,34.8,54.1,32.9,55.2,33.2z"/>
	<path class="st20" d="M32.8,99.1c1.4-0.6-0.8-1.2,0-1.8c-1.7,1.2-1.6-1.1-2.5-1.4c0.8-1.2,1.8-0.4,2.7-0.2c0.5,0.4,1.1,0.2,1.6,0.4
		c0.2,0.1,0.3,0.2,0.4,0.4c0.3,0.7,0.5,1.4,1.3,1.6c1,0.3,1.5,1.2,1.8,2.1c0.4,1-0.4,0.7-1,0.7C35.6,100.6,34.2,99.9,32.8,99.1z"/>
	<path class="st21" d="M52.5,98.6c0-0.3,0-0.6-0.1-0.9c0.6-0.7-0.1-2,1-2.6c0.4-0.3,0.7-0.9,1.3-0.4c0,1.7,1.7,3.4-0.3,5.1
		c-0.4,0.3-0.1,1,0,1.5c0.1,1.4-0.4,2.2-2,1.8c-0.5-0.9,0.2-1.2,0.8-1.7c0.7-0.5,0-0.4-0.3-0.5c-0.9-0.4,0.9-1.5-0.5-1.7
		C52.3,98.9,52.3,98.7,52.5,98.6z"/>
	<path class="st22" d="M54.3,15.9c0.8-1.1,1.5-2.2,1.3-3.7c-0.1-0.5,0.4-0.7,0.8-0.8c0.8,1.4,1,2.9,0,4.3c-0.6,0.8-0.1,1.2,0.5,1.6
		c1.3,0.8,0.7,1.5,0,2.2c-1,0.2-1.3-0.6-1.4-1.3c-0.2-0.9-0.9-0.8-1.5-1.1C53.9,16.6,53.9,16.2,54.3,15.9z"/>
	<path class="st23" d="M54.3,17.2c0.8-1,1.4-0.5,1.7,0.4c0.2,0.7,0.1,1.5,1,1.8c0,0.1,0,0.3,0,0.4c0.2,0.7-0.4,0.9-0.7,1.3
		c-1.1,1.4-2.1,1.6-2.8-0.3c-0.3-0.5-0.5-1-0.5-1.6c0-0.4,0.1-1,0.3-1C54.3,18.6,53.8,17.5,54.3,17.2z"/>
	<path class="st24" d="M37.2,100.9c0.4-0.5,0-1.7-0.9-2.3c-0.8-0.5-1.7-1-1.5-2.2c0.3-0.2,0.6-0.3,0.9,0c0.3,1.5,1.6,2.2,2.8,1.8
		c1.7-0.7,1.5,0.3,1.7,1.3c-0.7,0.3-0.8-1.1-1.4-0.4c-0.5,0.6,0.3,0.9,0.6,1.2c0.6,0.4,0.9,0.9,1.2,1.5
		C39.3,101.7,38.2,101.4,37.2,100.9z"/>
	<path class="st22" d="M56.1,20.8c0.3-0.3,0.6-0.6,0.9-0.9c1.2,0.5,0.8,2.1,1.8,2.7c0.4,1-0.1,1.5-0.9,1.8c-0.6,0.4-1.1,0.3-1.3-0.4
		C55.8,22.9,55,22,56.1,20.8z"/>
	<path class="st25" d="M54.8,88.4c0.1,0,0.3,0,0.4,0c-0.4,0.7,0.7,0.7,0.6,1.3c-0.6,1,0.1,2.1-0.1,3.2c-0.1,0.2-0.2,0.3-0.4,0.5
		c-0.3,0-0.5-0.1-0.7-0.4c-0.3-0.4-0.5-0.9-1-1.1c-1.9,0-2-0.3-1.2-2.2c0.5-0.5,0.9-1.1,1.6-1.5C54.2,88.1,54.5,88.1,54.8,88.4z"/>
	<path class="st26" d="M47.6,1.6c1.7-0.8,3.5-0.3,5.3-0.4c0.3,0.4,0.5,0.9,0.8,1.3c1.1,1.5,0.4,2-1.2,2c-1.4-0.2-1.2-2.3-2.7-2.3
		c-0.3,0-0.6,0-0.9,0.1C48.4,2.2,47.6,2.8,47.6,1.6z"/>
	<path class="st27" d="M52.6,4.3c2.3-0.8-0.2-2.1,0.4-3.1c1.7,0.3,2.6,1.7,2.2,3.5C55,5,54.7,5.1,54.4,5c-0.6-0.1-1,0.2-1.5,0.3
		c-0.3,0-0.5-0.2-0.6-0.5C52.3,4.6,52.4,4.5,52.6,4.3z"/>
	<path class="st28" d="M47.6,1.6c0.4,0.6,0.9,0,1.3,0.1c0.5,2.5,0.4,2.7-1.7,3.3c-0.2,0-0.4-0.1-0.5-0.2c-0.1-0.4-0.5-1-0.3-1.2
		c1.5-1.9-0.5-1.2-1.1-1.5C46,1.5,46.8,1.7,47.6,1.6z"/>
	<path class="st13" d="M58.7,51.9c-1.2-0.7-1.3-2-1.8-3.1C58.9,48.8,59.5,49.8,58.7,51.9z"/>
	<path class="st29" d="M56.9,79c-0.9,0-1.2,0.5-1.3,1.3c-1.4-0.3-0.7-1.1-0.2-1.5c0.6-0.6,1.3-1.1,2-1.6c0.7-0.5,1-0.3,0.6,0.4
		C57.7,78.2,57.3,78.6,56.9,79z"/>
	<path class="st30" d="M55.6,92.8c-0.5-1-1.4-2.1,0-3.1c1.1-0.1,0.8,0.8,0.9,1.4C56.4,91.8,56.8,92.7,55.6,92.8z"/>
	<path class="st31" d="M57.5,63c-0.3,0.7-0.4,1.7-1.4,1.8c-1-1.5,0-2.5,0.9-3.6c0.2,0.2,0.3,0.3,0.5,0.5
		C57.6,62.1,57.7,62.6,57.5,63z"/>
	<path class="st32" d="M57.8,24.3c0.3-0.6,1-1,0.9-1.8c1.2,0.9,0.3,1.8,0,2.6C58.1,25.2,57.9,24.9,57.8,24.3z"/>
	<path class="st33" d="M56.5,91.1c-0.3-0.5-0.6-0.9-0.9-1.4c-0.3-0.4-0.9-0.7-0.5-1.3c1-0.1,1,1.1,1.8,1.4
		C57,90.2,57,90.8,56.5,91.1z"/>
	<path class="st34" d="M54.8,92.9c0.2,0.2,0.4,0.3,0.5,0.5c-0.2,0.4-0.4,0.9-0.5,1.3c-0.3,0.3-0.6,0.5-1,0.8c-0.5,0.5-0.8,0.2-1-0.2
		C52.8,93.9,53.9,93.4,54.8,92.9z"/>
	<path class="st4" d="M42.3,2.5c-0.6,0.7-1.5,0.9-2.2,1.3c0,0,0,0,0,0c-0.3-0.5-1,0-1.4-0.5C39.8,2.9,41,2.6,42.3,2.5z"/>
	<path class="st17" d="M38.7,3.4c0.5,0.1,1-0.1,1.4,0.5c-0.9,0.3-1.8,0.1-2.7,0C37.7,3.5,38.2,3.4,38.7,3.4z"/>
	<path class="st35" d="M54.3,4.7c0.3,0,0.6,0,0.9,0c0,0.3,0,0.6,0,0.8c-0.3,0.2-0.6,0.3-0.8,0.5C54,5.9,53.9,5.6,54,5.2
		C54,5,54.1,4.9,54.3,4.7z"/>
	<path class="st17" d="M37.4,3.8c0.1,1.8-1-0.1-1.4,0.4C36.4,3.9,36.8,3.8,37.4,3.8z"/>
	<path class="st9" d="M56,33.6c0.2-0.3,0.3-0.6,0.5-0.9c0.2,0.2,0.3,0.3,0.5,0.5c0,0.3-0.1,0.6-0.1,1C56.5,34,56.3,33.8,56,33.6z"/>
	<path class="st36" d="M12,72.4C10.9,70,9.4,68,9.2,65.1c-0.2-2.3-1.8-4.5-2.5-6.9c-0.8-2.9-1.6-5.7-0.8-8.7c0.3-1-0.1-1.8-0.3-2.7
		c-0.4-2.7-1.4-5.4-0.4-8.2c0.1,0,0.2,0,0.3,0.1c1.7,1,0.7,2.9,1.2,4.3C7,43.5,6.9,44.3,7,45c0.6,3.8-0.3,7.8,1.1,11.6
		c0,3,1.3,5.5,3,7.9c2,0.9,1.2,2.9,1.6,4.4c-0.2,2.1,0.8,1.9,2.2,1.2c0.1-0.1,0.3-0.2,0.5-0.3c1.7,0,2.1,0.8,1.5,2.3
		c-0.2,0.4-0.3,0.8-0.1,1.3c0.2,0.4,0.4,0.7,0.5,1.1c0.4,1.3,0.2,2.2-1.3,1.1c-0.5-0.4-0.5,0.2-0.7,0.2C13.3,75.5,13.3,73.3,12,72.4
		z"/>
	<path class="st37" d="M12,72.4c1,0.4,1.7,1,2.1,2c0.2,0.7,0.7,1.1,1.4,1.1c1.3,0.6,1.3,2.4,2.6,3c0.2,0.2,0.3,0.5,0.5,0.7
		c0.5,0.5,1.1,1.1,0.6,1.9c-0.5,0.8-1.4,0.6-2.2,0.5c-0.6-0.1-1.6-1.1-1.5,0.6c-1.3,1,0.8,1.7,0.3,2.7c-3.5-1.3-3.5-5-5.2-7.6
		c0.8-0.4,1.1,0.9,1.5,0.5c0.5-0.5-0.4-1.2-0.4-1.2C12.1,75.1,12.5,73.8,12,72.4z"/>
	<path class="st38" d="M19.1,87.5c-0.3-0.4-0.6-0.9-0.9-1.3c-0.1-0.8-0.9-1.2-1.3-1.8c0-0.1,0-0.3,0-0.4c0.5-1,1.3-0.3,2.1-0.4
		c-0.6-0.7-1.8-0.7-1.7-1.9c0.9,0,1.8-0.6,2.8-0.4c0.6,0.5,0.8,1.3,0.8,2c0,1.2,0.7,1.5,1.6,1.6c0.3,0.1,0.6,0.2,0.8,0.4
		c0.4,0.3,0.8,0.6,1.2,0.9c1.1,0.9,1.1,1.6-0.4,1.7c-1.2,0.1-1.3,1.3-2,1.8c-0.3,0.2-0.6,0.2-0.8,0.4c-0.4-0.6-0.9-1.2-1.3-1.8
		C20.1,87.7,19.8,87.4,19.1,87.5z"/>
	<path class="st39" d="M20,81.3c-0.7,0.5-1.5,0.3-2.3,0.6c0,0.2,0,0.3,0.1,0.4c0.6,0.6,2.5,0.2,2,1.4c-0.5,1.5-2-0.4-3,0.2
		c-0.4-0.6-0.9-1.2-1.3-1.8c-0.1-0.6-1.6-0.2-1-1.3c0.4-0.7,1.1-0.6,1.8-0.3c0.4,0.2,0.7,0.5,1.2,0.6c0.5,0.1,1.1,0.2,1.4-0.2
		c0.4-0.6-0.1-0.9-0.6-1.2c-0.4-0.3-0.5-0.7-0.6-1.1c0.6-1,1.3-0.6,1.9-0.1c0.4,0.6,0.6,1.2,0.6,1.9C20.4,80.7,20.3,81,20,81.3z"/>
	<path class="st36" d="M6.2,35c0,0.2,0,0.3,0.1,0.5c1.2,1.8,1.1,2.3-0.9,3.1c0,0-0.1-0.1-0.1-0.1C5.4,37.3,5.1,36,6.2,35z"/>
	<path class="st40" d="M5.3,59c-1.2-1.4-1.2-2.4,0-2.7C5.7,57.2,5.7,58.1,5.3,59z"/>
	<path class="st36" d="M5.3,59c0-0.9,0-1.8,0-2.7C6,57.2,6.1,58.1,5.3,59z"/>
	<path class="st39" d="M16.9,84.4c0.8,0.3,1.5,0.7,1.3,1.8c-0.3-0.3-0.6-0.6-0.9-0.9C17,85.1,16.9,84.7,16.9,84.4z"/>
	<path class="st41" d="M21.8,19c1.2-0.6,2.4-1.2,3.6-1.8c1.7-0.3,1.4,0.9,1.1,1.7c-0.5,1.1-1.1,2.2-1.8,3.2
		c-0.5,0.7-0.5,1.3,0.5,1.6c0.7,0.2,1.4,0.2,1.9,0.8c-0.1,0.8-0.1,1.6-0.5,2.4c-0.4,0.6,0.4,1.6-0.5,2.1c-1.6,0.2-2.8,0.8-2.4,2.8
		c0.1,0.6,0,1.4-0.9,1.5c-0.8-1.2-1.1-2.6-1.6-4c-0.3-2.2-0.7-4.4,0.6-6.8c-0.7,0.7-0.7,1.4-0.8,2c-0.3,1.2-1.2,1.9-2.3,2.2
		c-0.8,0.2-1.5-0.1-1.8-0.9c-0.4-0.7-0.3-1.5,0.4-2c0.7-0.4,1.4-0.8,1.8-1.6c0.4-0.6,0.8-1.2,1.1-1.8C20.5,19.9,21,19.3,21.8,19z"/>
	<path class="st42" d="M21.8,19c-0.4,0.6-0.9,1.2-1.3,1.8c-1.3,1.7-3.7,1.8-4.9,3.6c-0.4,0.6-1.2-0.2-1.9-0.1
		c-0.5,0.2-0.8,0.5-1,0.9c-0.5,0.8-1,1.9-1.6,0c0-0.5,0-0.9,0-1.4c0.1,0,0.3,0,0.4,0c1.2-0.8,2.3-1.8,3.1-3c0.5-0.7,1.1-1.1,1.8-1.5
		c0-0.6,0.4-1,0.9-1.3c1-0.5,1-2,2.3-2.2c0.3,0.1,0.9,0.2,0.7,0.6C19.5,18.1,20.6,18.6,21.8,19z"/>
	<path class="st43" d="M24,22.1c0.9-0.9,0.9-2.4,2-3.3c0.5-0.4,0.5-1.4-0.6-1.6c-0.3-0.2-0.7-0.4-0.6-0.8c0.1-0.4,0.5-0.5,0.9-0.4
		c0.5,0.1,1,0.2,1.5,0.3c0.3,0.9,0.7,1.8,1.8,0.9c1.1-0.9,2-0.4,2.9,0.2c-0.3,1.9-0.5,3.8-2.8,4.4c-0.9-0.1-0.8-0.6-0.8-0.8
		c-0.1,1.7-1.9,1.6-3.5,1.8C24.4,22.9,23.8,22.8,24,22.1z"/>
	<path class="st44" d="M20.9,14.5c1.6-1.7,3.5-3,5.3-4.5c0.4-0.3,0.8-0.4,1.2-0.1c0.4,0.4,0.1,0.8-0.1,1.2c-0.6,0.7-0.1,1.1,0.3,1.6
		c0,0.1,0,0.3,0,0.4c-0.1,0.1-0.3,0.2-0.4,0C24.9,15.7,24.1,15.9,20.9,14.5z"/>
	<path class="st45" d="M46.7,4.8c0.1,0,0.3,0,0.4,0c0.6,0.8,2.3-0.3,2.3,1.1c0,1.2-1.4,1.1-2.2,1.4c-1.3,0.4-1.6,2.2-3.1,2.2
		c-1.3,0-2.3,1.1-3.6,1c-0.8-0.5-0.9-1.2-0.3-1.9c1.3-1.4,3.6-1,4.8-2.6c-0.2-0.5-1.2-0.6-0.5-1.4c0.5-0.5,1-0.5,1.4,0.1
		C46.1,5.2,46.4,5.1,46.7,4.8z"/>
	<path class="st46" d="M40.5,8.8c-0.8,0.6-0.2,1.2,0,1.8c0,0.1,0,0.2,0,0.3c-0.4,0.9,0,2.3-1.6,2.5c-0.1-0.1-0.2-0.1-0.2-0.2
		c-0.1-1-0.7-0.6-1.3-0.6c-1.3,0.1-2.7,0.6-3.8-1.3c3,0.2,4.8-1.7,6.9-3.1c0.1,0.1,0.2,0.2,0.1,0.3C40.6,8.7,40.5,8.8,40.5,8.8z"/>
	<path class="st47" d="M31.6,17.2c-1.3-0.3-2.2,0.7-3.4,0.9c-2.2,0.4-1.5-0.8-1-1.8c1.2-1,2.8,0.1,4-0.9c1.4-1.1,1.7-1,2.1,0.7
		c-0.1,0.2-0.2,0.5-0.3,0.7c-0.1,0.1-0.2,0.2-0.3,0.3C32.3,17.2,32,17.4,31.6,17.2z"/>
	<path class="st48" d="M32.9,16.3c0.1-1.6-0.8-1.4-1.8-0.9c-0.1-0.9,0.1-1.8,0.6-2.5c0.3-0.4,1-0.7,1.1-0.5c0.7,2.7,2.4,0.3,3.5,0.9
		c0.1,0,0.1,0.1,0.3,0.2c-0.5,0.8-1.7,1-2,1.9C34.5,16.5,33.7,16.3,32.9,16.3z"/>
	<path class="st46" d="M35.1,16.3c1.5-0.7,2.3-2.2,3.6-3.1c0,0,0,0,0,0c0.4,0.4,1,0.6,1.2,1.2c0.3,0.8,0.3,1.6-0.8,1.5
		c-1.1-0.1-1.3,0.3-1.2,1.2c-0.1,0.3-0.3,0.6-0.5,0.7c-0.2,0.1-0.4,0.1-0.6,0c-0.7-0.4-1.6-0.5-2.2-1C34.6,16.4,34.7,16.2,35.1,16.3
		z"/>
	<path class="st49" d="M27.2,13.2c0.1,0,0.3,0,0.4,0c0.8,0.1,1.6-0.2,2.5,0.3c-0.5,1-0.8,2.3-2.4,1.9C26.2,15,27.6,13.9,27.2,13.2z"
		/>
	<path class="st50" d="M40.5,8.8c0-0.1,0-0.3,0-0.4c1.1-1.6,2.7-2.1,4.4-2.2c-0.2,1-0.6,1.8-1.8,1.8C42.1,7.8,41.3,8.4,40.5,8.8z"/>
	<path class="st51" d="M19.6,15.9c-0.5,1-0.7,2.3-2.3,2.2c0.1-1.7,1.2-2.6,2.7-3.1C19.9,15.3,19.7,15.6,19.6,15.9z"/>
	<path class="st43" d="M35.1,16.3c-0.2,0.1-0.3,0.3-0.5,0.4c-0.7,0.7-1.5,0.6-2.2,0c0.1-0.2,0.3-0.3,0.4-0.5
		c0.4-0.7,1.2-0.7,1.8-0.9C35.1,15.6,35.1,15.9,35.1,16.3z"/>
	<path class="st17" d="M30.3,11.4c-0.3,1.3-1.2,1.2-2.2,0.9c0-0.1-0.1-0.2-0.1-0.3C28.6,11.2,29.1,10.3,30.3,11.4L30.3,11.4z"/>
	<path class="st17" d="M27.6,12.8c-1.4,0-1.8-0.6-0.9-1.8c0.5,0.4,0.9,0.8,1.3,1.3c0,0,0,0,0,0C27.9,12.5,27.7,12.6,27.6,12.8z"/>
	<path class="st52" d="M56,56.8c-0.1,0.7-0.3,1.5-0.4,2.2c-0.1,0.1-0.4,0.1-0.4,0c-1.1-2.7-2.8-1.5-4.4-0.6
		c-0.3,0.2-0.7,0.3-1.1,0.3c-0.3-0.1-0.5-0.3-0.7-0.6c-1.1-3-1.1-3,1.9-4.2c0.6-0.2,0.9-0.5,0.6-1.1c-0.1-0.2-0.2-0.4-0.3-0.6
		c-1-2.3-1-2.3,1.3-3.1c1,0.3,1.7,1,2.3,1.9c0.1,0.1,0.3,0.3,0.4,0.4C56.2,53.1,55.1,55.1,56,56.8z"/>
	<path class="st53" d="M54.7,51c-1-0.3-1.5-1.1-2.3-1.8c-0.7,0.1-0.5-0.4-0.5-0.7c-1.4-1.3-1.8-2.8-1.2-4.6c0-0.2,0-0.4,0-0.6
		c0.6-1.1,1.7-2,1.2-3.4c0.2-0.8,0.2-1.5,0.1-2.3c0.1-0.7,0.8-0.9,1.2-1.3c0.7-0.5,1.4,1.2,2.1,0c0,0.5,0,0.9,0,1.4
		c-0.6,1.6,0.3,3.3-0.4,4.9c-1.4,1.8-1.7,3.7-0.9,5.8c0.6,0.3-0.7,1.5,0.9,1.6C55.9,50,55.1,50.7,54.7,51z"/>
	<path class="st54" d="M49.8,58.6c0.2-0.1,0.3-0.3,0.5-0.4c3.4-1.9,3.4-1.9,5.3,0.9c0,0.1,0,0.3,0,0.4c-0.4,0.7-0.9,0.5-1.4,0
		c-0.3-0.3-0.3-1.2-1-0.8c-0.6,0.4-0.2,1-0.1,1.6c0.1,0.3,0.3,0.7,0.3,1c-0.1,1.4,1.1,2.6,0.2,4c-0.3,0.3-0.7,0.5-1.2,0.5
		c-1-0.3-1.7-1-1.6-1.9C51.2,62,50.6,60.3,49.8,58.6z"/>
	<path class="st55" d="M53.4,65.2c0.6-1.4-0.8-2.6-0.4-4c0.3-0.3,0.4-1.8,1.1-0.5c0.7,1.4,1-0.1,1.5,0c0.3-0.4,0.7-1.1,0.9-1.1
		c0.8,0.2,0.3,1,0.5,1.5c0.2,1.3-1.3,2.2-0.9,3.6c0,0.9,1,1.8,0,2.7c-0.8-0.6-0.9-1.6-1.2-2.4c-0.1,0.4,0.2,1-0.1,1.5
		c-0.2,0.2-0.5,0.3-0.8,0.3c-0.2,0-0.4-0.1-0.6-0.2C53,66.2,53.4,65.7,53.4,65.2z"/>
	<path class="st52" d="M55.6,60.8c-0.1,0.3-0.3,0.5-0.4,0.8c-0.2,0.5-0.1,1.2-0.8,1.1c-0.6,0-0.6-0.7-0.6-1.2
		c0.1-1.3-0.5-0.6-0.9-0.2c-0.1-0.7-0.9-1.3-0.5-2.2c0.2-0.3-0.9-1.1,0.1-0.9c0.4,0.1,1.5-1.1,1.6,0.5c0,0.4,0.4,1.4,1.4,0.8
		C55.6,59.9,55.6,60.4,55.6,60.8z"/>
	<path class="st56" d="M54.3,48.3c-0.9-1-1.9-1.9-0.6-3.4c0.2-0.2,0.2-0.9,0-1.3c-0.6-1.9,0.2-1.7,1.5-1.1
		C55.5,44.6,54.5,46.4,54.3,48.3z"/>
	<path class="st57" d="M56,56.8c-2.1-1.5-0.6-3.6-0.9-5.4c2.1,1,1.2,3.3,2,4.9C57.5,56.9,56.3,56.3,56,56.8z"/>
	<path class="st56" d="M55.2,42.6c-0.7-1.7-0.3-3.3,0.4-4.9c0.1,0.9,0.3,1.9,0.4,2.8C56.1,41.3,56.1,42.1,55.2,42.6z"/>
	<path class="st58" d="M28,12.3c-1,0.1-1.4-0.3-1.3-1.3c0.3-0.2,0.7-0.4,0.5-0.7c-0.1-0.2-0.6-0.1-1-0.2c1.3-1,1.3-1,2.2,0.2
		c0.3,0.4,0.6,0.2,0.9,0.1c0.6-0.3,1.2-0.7,1.8-1.1c0.3,0,0.6,0,0.9,0c-0.6,0.7-1.2,1.5-1.8,2.2C29.2,10.9,28.7,11.8,28,12.3z"/>
	<path class="st59" d="M16.4,19.4c-1.4,1.8-2.5,3.8-4.9,4.5c1-1.2,1.9-2.3,2.9-3.5C14.9,19.7,15.6,19.3,16.4,19.4z"/>
	<path class="st60" d="M38.7,93.7c-0.4-0.2-0.7-0.3-1,0.2c-0.5,0.8-0.9,0.3-1.2-0.3c0.3-0.6-0.1-0.9-0.4-1.3l0,0
		c-0.1-0.2-0.1-0.6,0.1-0.6c2.4-0.7,3.3-3.1,5.3-4.3c0.3-0.2,0.7-0.1,1,0.1c0.2,0.1,0.4,0.2,0.5,0.4c0.2,0.4,0.2,0.8,0.1,1.3
		c-1.1,1.3,0.6,2.8-0.3,4.1c-0.9,0.3-1.8,0.6-2.7,0.9C39.7,93.6,39.2,93.7,38.7,93.7z"/>
	<path class="st61" d="M49.4,94.3c-1.1,0.9-2.1,1.7-3.2,2.6c-0.2,0-0.3,0-0.5,0c-1.2-0.3-1.2-0.8-0.2-1.5c0.9-0.7-0.6-1.6,0.2-2.3
		c0.1-0.2,0.2-0.3,0.3-0.4c0.4-0.3,0.4-0.8,0.4-1.2c0-0.2,0.1-0.4,0.1-0.5c0.1-1.3,0.1-2.5-0.7-3.6c-0.2-0.5-0.2-1.1,0.2-1.6
		c0.9-0.5,1.4,0.1,2,0.6c0.4,0.5,1,0.8,1.5,1.3c0.7,0.6,0.8,1.2,0.1,2c-1.1,1.1-0.9,2.7,0.1,3.6c0.2,0.3,0.2,0.6,0.1,0.9
		C49.8,94.2,49.7,94.3,49.4,94.3z"/>
	<path class="st62" d="M46.7,91.1c0,0.1,0,0.3,0,0.4c0.3,0.6-0.1,1-0.4,1.3l0,0c-0.3,0.3-0.7,0.3-0.9-0.1c-1.2-1.5-1.8,0.1-2.6,0.5
		c0.3-1.3-1.8-2.7,0-4c0.1,0.1,0.1,0.1,0.2,0.2c0.3,0.6,0.4,1.3,1.3,1.2c0.5,0,0.7-0.3,0.9-0.7c0.2-0.3,0.4-0.7,0.8-0.8
		C46.8,89.6,47,90.2,46.7,91.1z"/>
	<path class="st63" d="M45.9,95.5c-0.5,0.4-0.8,0.9,0,1.3c-0.9,0.6,0.7,2-1,2.4c-0.7-1.1-1.8-2.2-0.4-3.7
		C45,94.8,45.4,94.4,45.9,95.5z"/>
	<path class="st64" d="M45.9,95.5c-0.4-0.7-0.9-0.2-1.3,0c-0.5-1.1-1.2-2.3,0.8-2.7c0.3,0,0.6,0.1,0.9,0.1c-0.3,0.6-0.5,1.1,0.2,1.7
		C47.4,95.3,46.4,95.4,45.9,95.5z"/>
	<path class="st65" d="M47.6,100.4c0.3,0,0.6,0,0.9-0.1c0.6-0.2,1.3-0.5,1.7,0.4c0.2,0.4,0.3,0.9-0.1,1.2c-0.7,0.6-1.2-0.2-1.7-0.5
		c-0.1-0.1-0.3-0.1-0.4-0.2C47.8,100.9,47.7,100.7,47.6,100.4z"/>
	<path class="st66" d="M38.7,93.7c0.4-0.3,0-1.4,0.9-1.1c0.7,0.2,0.3,1,0.4,1.6c-0.2,0.3-0.3,0.6-0.5,0.9
		C39.1,94.7,38.2,94.7,38.7,93.7z"/>
	<path class="st11" d="M43.1,99.1c0.6,0.5,0.6,0.9-0.1,1.3c-1,0.6-0.7-0.8-1.3-0.9c-0.4-0.2-0.7-0.4-0.4-0.9l0,0
		C42.1,98,42.6,98.7,43.1,99.1z"/>
	<path class="st67" d="M41.4,97.7c-1,0.5-1.3,0-1.3-0.9c0.6,0.2,0.9-1,1.5-0.5C41.7,96.5,41.4,97.3,41.4,97.7z"/>
	<path class="st67" d="M43.1,99.1c-0.6-0.1-1.2-0.3-1.8-0.4c0-0.3,0-0.6,0-0.9C42.2,97.9,43,98,43.1,99.1z"/>
	<path class="st68" d="M41.4,98.6c0.1,0.3,0.3,0.6,0.4,0.9c0,0.1,0,0.3,0,0.4c-0.5,0-1.1-0.2-1.2-0.8C40.6,98.7,41,98.7,41.4,98.6z"
		/>
	<path class="st8" d="M47.2,99.9c-0.2,0.4-0.3,1-0.9,1.1c-0.1,0-0.3-0.3-0.3-0.4C46.2,100.1,46.6,100,47.2,99.9
		C47.2,100,47.2,99.9,47.2,99.9z"/>
	<path class="st69" d="M49.8,94.2c0-0.3,0-0.6,0-0.8c-0.7-1.4,0.3-2,1.1-2.7c0.1-0.4,0.1-0.9,0.1-1.3c-0.1-0.7-0.1-1.3,0.4-1.9
		c0.2-0.1,0.3-0.2,0.5-0.2c0.4,0,0.8,0.2,1.1,0.3c0.3,0.2,0.4,0.4,0.4,0.7c-0.3,0.5-0.6,1-1,1.4c-0.3,1.3-0.3,1.3,1,1.1
		c0.1,0,0.2,0.5,0.4,0.7c0.5,1.3,0,2.2-1.3,2.7c-1-1.8-1.2,0.3-1.8,0.4C50.2,94.9,50,94.6,49.8,94.2z"/>
	<path class="st70" d="M49.8,94.2c0.3,0.1,0.6,0.3,0.9,0.4c0.1,0.9-0.6,1.8-0.1,2.8c0.2,0.3,0.2,1-0.5,1c-0.4,0-0.7-0.3-0.7-0.7
		c0-1.1,0-2.3,0-3.4C49.6,94.2,49.7,94.2,49.8,94.2z"/>
	<path class="st71" d="M52.5,94.2c0.7-0.7,1-1.7,1.3-2.7c0.6,0.2,0.8,0.7,0.9,1.3c0,1.2-1.4,1.3-1.8,2.2c-0.1,0.2-0.2,0.2-0.3,0
		C52.6,94.7,52.5,94.5,52.5,94.2z"/>
	<path class="st72" d="M52.5,99.1c0.5-0.2,1-0.5,1.5-0.7c0.3,1.2-1.1,1.5-1.1,2.4c0,0-0.2,0-0.2,0l-0.2,0c-0.6,0.3-1.2,0.4-1.8,0
		c0.1-0.6,0.8-0.6,1.2-1C52.4,99.8,52.1,99.2,52.5,99.1z"/>
	<path class="st72" d="M52.6,95c0.1,0,0.2,0,0.3,0c0.2,0.3,0.5,0.4,0.9,0.4c-0.4,0.6-1.1,1-0.6,2c0.3,0.8-0.4,0.3-0.7,0.3
		C52.2,96.8,52.2,95.9,52.6,95z"/>
	<path class="st73" d="M52.5,99.1c-0.2,0.3,0.4,1-0.5,0.8c-0.2-0.6-0.8-1.3,0.5-1.3C52.5,98.8,52.5,98.9,52.5,99.1z"/>
	<path class="st74" d="M50.8,100.9c0.6,0,1.2,0,1.8,0C51.3,101.9,51.3,101.9,50.8,100.9z"/>
	<path class="st54" d="M54.7,66.6c-0.5-0.9-0.3-1.8,0.2-3.2c0.3,1.7,1.2,2.7,1.2,4.1c0,0.3,0,0.6-0.1,0.8c-1,0.1-1.2,0.8-1.4,1.7
		c-0.2,1.3-0.2,2.6-0.2,3.9c-0.1,1.5-0.5,2.5-1.5,3.4c-1,0.2-1.3-0.5-1.6-1.2C51,75,50.4,74,50.4,72.9c0-0.4,0-0.8,0.4-0.9
		c0.6-0.2,0.7,0.3,1,0.6c0.3,0.4,0.7,0.5,1.1,0.1c0.2,0,0.3,0,0.3-0.2c-0.1,0-0.3,0-0.4,0.1c-0.3,0.2-0.6,0.4-0.9,0
		c-0.3-0.5-0.1-1.2-0.4-1.7c-1.2-1.8-0.1-2.3,1.4-2.6C53.9,68.2,54.4,67.4,54.7,66.6z"/>
	<path class="st75" d="M53.4,88.3c-0.1-0.1-0.3-0.3-0.4-0.4c-0.1-0.3,0.2-0.8-0.4-0.7c-0.2-0.5-0.4-0.9-0.7-1.4
		c-0.2-1.1,0.5-2,0.6-3.1c0.1-0.5,0.2-0.9,0.7-1.1c0.5,0.2,0.8,0,1.1-0.3c0.4,0,0.9,0,1.3,0c0,0.3,0,0.6,0,0.9
		c-0.3,0.2-0.4,0.6-0.4,0.9c0.2,0.8,0.3,1.6,0.6,2.3c0.3,0.8,0.2,1.3-0.6,1.6c-0.1-0.1-0.2-0.2-0.3-0.3c0.1,0.1,0.2,0.2,0.3,0.3
		c-0.1,0.4-0.3,0.9-0.4,1.3c-0.3,0-0.6,0-1,0C53.6,88.6,53.5,88.5,53.4,88.3z"/>
	<path class="st76" d="M53.4,81.7c-0.6,0.3-0.4,0.9-0.5,1.4c-0.2,0.2-0.5,0.3-0.8,0.2c-0.6-0.2-1.1-0.6-1.5-1
		c-0.1-0.2-0.1-0.4-0.1-0.6c0.3-0.7,0.5-1.4,0.3-2.2c1.1-1.2-0.7-2.4,0.1-3.6c0.3-0.2,0.7-0.8,0.7,0.2c0.3,0.6,0.7,1,1.3,1.3
		c1.8,0.8,0.7,2.3,0.9,3.6C54.1,81.3,54.2,81.8,53.4,81.7z"/>
	<path class="st77" d="M53.4,81.7c0.2-0.3,0.3-0.6,0.5-0.9c0.1,0.1,0.3,0.3,0.4,0.4c-0.2,0.5,0.4,1.4-0.5,1.5
		C53.3,82.8,53.4,82.1,53.4,81.7z"/>
	<path class="st78" d="M56.1,20.8c-0.5,1.1,0.3,2.1,0.4,3.1c-0.7,0.1-0.8-0.5-1.1-1c-0.5,1.4-1,2.7-1.5,4.1c0.2,0.2,0.2,0.4,0,0.6
		c-0.4,0.3-0.8,0.3-1.2,0c0.1-0.8-0.8-1-0.9-1.7c-0.1-0.8,0.8-1.5,0.5-2.4c-0.1-0.2-0.1-0.4-0.1-0.6c-0.1-0.6-0.3-1.1-0.5-1.6
		c-0.3-0.8,0-1.2,0.9-1.3c0.7-0.3,0.6,1.2,1.4,0.7C54.6,22.7,55.3,21.2,56.1,20.8z"/>
	<path class="st79" d="M53.8,27.4c0-0.2,0-0.3,0-0.5c0.9,1.4,1,3,0.8,4.5c-0.1,0.7-0.1,1.2,0.5,1.7c-0.3,0.5-0.6,1-1,1.4
		c-0.5,0.4-0.9,1.1-1.7,0.7c-0.2-0.1-0.3-0.5-0.3-0.7c0-0.8,0.4-1.9,0.9-1.8c1.1,0.1,1-0.3,0.6-0.8c-0.7-1-0.6-2.1-0.2-3.1
		C53.3,28.2,53.4,27.8,53.8,27.4z"/>
	<path class="st59" d="M11.1,25.2c0.9,1.1,0.9-0.3,1.4-0.4c0.5,0.2,0.9,0.5,1,1c-0.1,1.5-0.4,3-1.4,4.3c-0.3,0.4-0.7,0.8-0.2,1.3
		c0.8,0.9,0.1,1.6-0.5,2.3c-0.2,0.2-0.4,0.4-0.7,0.6c-0.2,0.1-0.4,0.1-0.6,0.1c-0.8-0.1-0.4,0.4-0.3,0.7c0.1,0.5-0.1,1-0.3,1.4
		c-0.3,0.7-0.8,1.2-1.3,1.7c-0.2,0.2-0.7,0.3-0.7,0.5c0,0.4,0.3,0.1,0.5,0.1c0.8,0.1,1.1,0.5,0.7,1.2c-0.9,1.6-1.1,3.4-2.2,4.9
		c-0.9-1.2-0.5-2.6-0.6-3.8C6,40,5.8,39.3,5.4,38.6c1.4-0.7,1.3-1.9,0.9-3.1c1.5-2.1,3.1-4.1,4.5-6.2c0.5-0.8,1.2-1.9,0-2.9
		C10.1,25.9,10.6,25.5,11.1,25.2z"/>
	<path class="st80" d="M42.3,87.9c-1.4,0.3-2.8,1.6-2.9,2.8c-0.1,1.1-0.8,1.4-1.5,1C36.8,91,36.6,92,36,92.4c-1.5,1.2-0.4,2.7-0.4,4
		c-0.3,0-0.6,0-0.9,0c0,0,0,0,0,0c-0.6-0.8-1.2,0.3-1.8,0c-0.8-0.6-1.7-0.8-2.7-0.4c-0.8,0-1.2-0.6-1.8-0.9
		c-0.9-0.9-1.7-1.8-2.7-2.6c-0.5-0.4-0.9-0.8-0.5-1.5c0.3-0.5,0.8-0.6,1.4-0.5c1.9,0.5,4,0.3,4.7,1.2c-1.2-0.6-1.1-3.3-3.2-4.7
		c-1-0.7,0.4-2.1,0.2-3.2c0.3-0.2,0.6-0.3,0.9-0.3c0.7,0.1,1.2,0.6,1.7,0.9c1.7,1,1.9,0.9,2.1-1.3c0-0.2,0-0.4,0.1-0.6
		c0.4-0.7-0.1-2,1.4-2c0.3,0.1,0.6,0.2,0.8,0.4c0.4,0.6,1.1,0.9,1.7,1c0.3,0.2,0.5,0.4,0.6,0.7c0.3,0.8,0.8,1.6,0.2,2.5
		c-0.9,0.9-1.6-0.6-2.4-0.3c-0.5,3-0.8,3.2-3.7,2.1c1.2,0.5,2.3,1,3.5,0.1c0.9-0.7,1.6,0.1,2.4,0.8c0-0.9-0.5-1.6,0-2.4
		c0.1-0.2,0.3-0.3,0.5-0.3c1,0.3,1.1,1.3,1.8,1.9c0.3-0.4,0.2-1,0.5-1.4c0.4-0.6,0.5-1.6,1.5-1.3c0.9,0.3,0.8,1.3,0.9,2
		C42.9,86.9,42.7,87.5,42.3,87.9z"/>
	<path class="st81" d="M36.1,92.4c1,0.2,1.2,0.6,0.4,1.3C36.3,93.3,36.2,92.8,36.1,92.4z"/>
	<path class="st82" d="M52.5,20.3c-0.5,0.1-1,0.3-0.5,0.8c0.7,0.7,0.4,1.5,0.5,2.3c-0.7,1.3-1.7,1.3-2.3,0.1
		c-0.8-1.8-2.1-3.8-0.6-5.9c0.5-0.6,1.7,0,1.8-1.2c0.3-0.3,0.7-0.7,0.4-1.2c-0.3-0.4-0.6-0.1-1,0c-0.4,0.2-0.7,0.3-1.1,0.1
		c-0.3-2.5-0.7-5,1.1-7.2c0-0.6,0.3-1.1,0.4-1.7c0.1-0.7-0.5-1.3-0.2-2c0.6-0.8,1.1-0.3,1.6,0.1c0.1,0.1,0.3,0.3,0.4,0.4
		c0.5-0.2,0.9-0.2,1.4,0c0,0.3,0,0.6,0,0.9c-0.1,0.5-1.3,0.5-0.4,1.3c0.1,0.4,0,0.6-0.5,0.5C52.2,8,52.7,8.6,53,9.2
		c0.2,0.3,0.3,0.7,0.1,0.8c-2.1,1-1.4,2.2-0.2,3.3c0.6,0.6,0.4,1.6,1,2.1c0.2,0.2,0.3,0.3,0.5,0.5c0,0.4,0,0.9,0,1.3
		c0.6,1.1-1.2,1.3-1,2.2c-1.2,0-0.2-1.2-0.7-1.5C52.6,18.8,53.1,19.5,52.5,20.3z"/>
	<path class="st26" d="M53.9,15.4c-1-0.6-1.5-1.7-2.2-2.6c-1.4-1.7-0.1-2.8,1.3-3.6C53.3,11.3,53.6,13.3,53.9,15.4z"/>
	<path class="st26" d="M53.4,7.9c0.2-0.2,0.3-0.3,0.5-0.5c0.4,0.2,0.9,0.4,0.6,0.9C53.9,8.9,53.6,8.2,53.4,7.9z"/>
	<path class="st83" d="M55.2,83.1c-0.4-0.2-0.6-0.6-0.3-1c0.1-0.1,0.5,0.1,0.7,0.1C55.5,82.5,55.3,82.8,55.2,83.1z"/>
	<path class="st84" d="M28.5,83.9c0.1,0.1,0.2,0.3,0.2,0.4c-0.8,2.6,1.8,3.8,2.6,5.9c0.4,1,2,1.6,1.7,3.2c-0.7,0.2-1.2-0.2-1.5-0.6
		c-1.3-1.9-3.6-0.8-5.2-1.9c-0.1,0-0.6,0.3-0.6,0.5c0,0.2,0.2,0.5,0.4,0.6c1.3,0.6,1.9,1.8,2.5,3c-0.8-0.4-1.7-0.6-2.2-1.3
		c-0.6-0.3-1-0.8-1.3-1.3c-1.5-0.4-1.6-2.3-3.1-2.7c0.8-1,0.7-3.3,3.2-2c-0.4-1.2-1.5-1.3-1.9-2c0.6-1.2,0.1-1.9-1.1-2.5
		c-0.1,0.8,1,1.2,0.6,2.1c-1.6,0.2-2.5-0.3-2.3-2.1c0.1-0.6-0.3-1.3-0.4-1.9c0-0.3,0-0.6,0-0.9c1.7-1.6,2.1,0.9,3.2,1
		c0.5,0.3,1.1,0.6,1.4,1.2c0.9,1.8,1.6,2.1,3.2,1.2C28.1,83.7,28.3,83.8,28.5,83.9z"/>
	<path class="st85" d="M21.8,89.7c2.2-0.5,2.1,1.7,3.1,2.7c-0.8,0.3-1.6,0.1-2.2-0.4c-0.4,0-0.8-0.1-0.5-0.6c0.6-1.1-0.2-1-0.9-1.2
		C21.5,90,21.7,89.9,21.8,89.7z"/>
	<path class="st85" d="M24.9,92.4c0.5,0.4,1.3,0.5,1.3,1.3C24.5,94.6,24.7,93.5,24.9,92.4z"/>
	<path class="st66" d="M19.1,87.5c0.1-0.9,0.5-1,1.1-0.4c0.5,0.5,1,1.1-0.2,1.3C19.7,88.1,19.4,87.8,19.1,87.5z"/>
	<path class="st86" d="M49.8,17.7c-0.6,1.6,0,3.1,0.4,4.7c0.4,1.7,1.1,1.7,2.3,1.1c0,0,0,0,0,0c0.8,0.9-0.9,1.4-0.5,2.2
		c-0.1,0.7,1,1,0.5,1.8c0.4,0.4,0.5,0.8,0.4,1.3c-1.1,2.3-2.6,4.4-1.8,7.1c-1.9,0.9-1.8-1.5-2.9-1.9c-0.4-0.8-0.4-1.7-0.6-2.5
		c0-0.1,0-0.4,0-0.4c-2.6-1.4-2.2-3.4-1.3-5.8c0.7-2,0.4-4.4,0.9-6.5C47.5,16.9,48.2,16.7,49.8,17.7z"/>
	<path class="st87" d="M48.5,34.1c1.5-0.3,1.2,2.1,2.7,1.8c0.2,0.6-0.8,1.2,0,1.8c0.3,0.5,0,1-0.2,1.4c-0.3,0.3-0.6,0.5-1.1,0.5
		c-0.4-0.2-0.6-0.6-0.8-0.9c-0.3-0.8-0.8-1.4-1.2-2.1C47.9,35.7,47.8,34.8,48.5,34.1z"/>
	<path class="st88" d="M50.7,39c0.1-0.4,0.3-0.9,0.4-1.3c0.5-0.8,1.2-1.5,2.3-1.3c0.1,0.7-0.7,0.9-0.9,1.3c-0.2,0.3-0.3,0.7-0.5,1
		c-0.2,0.2-0.4,0.4-0.7,0.5C51.1,39.2,50.9,39.1,50.7,39z"/>
	<path class="st89" d="M52.9,28.8c-0.5-0.3-0.5-0.8-0.4-1.3c0.4,0,0.9,0,1.3,0c0,0.5,0.1,1-0.4,1.3C53.2,28.8,53.1,28.8,52.9,28.8z"
		/>
	<path class="st24" d="M32.9,96.4c0.6-0.6,1.2-1.3,1.8,0C34.1,96.2,33.5,97.2,32.9,96.4z"/>
	<path class="st90" d="M52.5,20.3c0-0.9,0-1.7,0-2.8c0.7,0.6,0.2,1.6,0.8,1.9c0.2,0.4,0.3,0.9,0.5,1.3c-0.2,0.4,0.3,1.8-0.8,0.5
		C52.8,21,52.7,20.6,52.5,20.3z"/>
	<path class="st91" d="M53.4,88.3c0.1,0,0.3,0,0.4,0.1c-0.3,0.6-0.4,1.3-1.3,1.3C52.4,89,52.8,88.7,53.4,88.3z"/>
	<path class="st92" d="M44,9.2c1.5-1.4,2.9-2.9,5.2-2.9c-0.4-1.4-2.2,0.1-2.1-1.5c2.1-0.1,1.3-2,1.8-3c0.3,0,0.6,0,0.9,0
		c1,0.8,1.4,1.9,1.1,3.2c-0.3,1.8-1.4,2.9-2.9,3.6c-0.7,0.3-1.5,0.7-2.2,1.1c-0.5,0.2-1.1,0.2-1.6-0.1C44.2,9.3,44.1,9.3,44,9.2z"/>
	<path class="st93" d="M50.7,4.7c-0.3-1-0.6-2.1-0.9-3.1c2.2-0.4,1.6,2,2.7,2.7c0,0.1,0,0.3-0.1,0.4c-0.4,0.2-0.9-0.5-1.3,0
		C51,4.9,50.9,5,50.7,4.7z"/>
	<path class="st26" d="M54.2,5.2c-0.5,0.3-0.9,0.2-1.3,0c0.4-0.4,0.6-1.2,1.4-0.4C54.3,4.9,54.3,5,54.2,5.2z"/>
	<path class="st94" d="M12.5,69.3c-0.7-0.6-0.5-1.4-0.4-2.1c0.2-1.2-0.4-1.9-1.4-2.4c0-0.1,0-0.2,0-0.3c-0.1-1.2,0.4-2,1.5-2.5
		c1.2,0.3,1.3,1.3,1.5,2.3c0.1,0.9-0.5,1.6-0.6,2.6c0.4-0.9,1.2-1.2,2-1.3c1-0.1,1.7,0.4,2.4,1c0.9-0.5,0.6-2.3,2.2-1.9
		c0.8,0.6,1.2,1.5,1.6,2.4c-0.3,1.3,0.3,2.7-0.3,4c-0.9,0.7-1.7,0.4-2.6-0.1c-1-0.5-1.9-1.8-3.3-0.9C14,70.5,13.2,70,12.5,69.3z"/>
	<path class="st95" d="M6.7,44.8c0.1-2.1,1.1-3.8,1.9-5.6c-1.1-0.4-0.9,0.9-1.7,1c-0.3-1.2,0.2-2,1.1-2.5c1.6,0.5,1.9,1.6,1.8,3.1
		c-0.1,1.6-0.4,3.1-0.6,4.6c-0.1,0.7,0.2,1.3,0.5,1.9c-1.1,2-1.5,4-0.5,6.2c0.3,0.7-0.5,1.4-0.5,2.1c-0.1,0.3-0.1,0.6-0.3,0.9
		c-0.1,0.1-0.1,0.2-0.2,0.3c-0.2,0.1-0.4,0.1-0.5,0c-1.8-3.3-0.4-6.9-1.1-10.3C6.4,46,6.6,45.4,6.7,44.8z"/>
	<path class="st96" d="M19.6,78.6c-0.6,0-1.2-0.4-1.8,0c-1.2-0.7-1.6-2-2.2-3.1c0-0.7,0.3-0.6,0.7-0.2c0.2,0.2,0.6,0.6,0.9,0.2
		c0.1-0.2-0.1-0.6-0.2-0.9c0.2-0.1,0.3-0.2,0.5-0.2c1.5,0.8,1.1,2.7,2.2,3.7C19.7,78.2,19.7,78.4,19.6,78.6z"/>
	<path class="st97" d="M7.6,56.8c0.1,0,0.3,0,0.4,0c1.5,0.4,1.1,1.8,1.5,2.7c0.8,1.6,1.3,3.4,1.2,5.3c0,0,0,0.1,0,0.1
		C9,62.4,7.6,59.9,7.6,56.8z"/>
	<path class="st96" d="M12.5,69.3c1,0.1,1.8,0.4,2.7,0.9c-0.1,1.2-0.1,1.2-1.1,0.8c-0.1-0.1-0.3-0.2-0.4-0.1
		C12,70.9,12,70.9,12.5,69.3z"/>
	<path class="st96" d="M15.1,70.1c1.3-1.9,2.2-0.5,3.1,0.4c0,0.3-0.1,0.6-0.2,0.9c-0.4,0.8-0.8,1.7-1.6,2.2c-0.5-0.5-0.6-1-0.2-1.5
		C17.6,70.5,16.5,70.3,15.1,70.1z"/>
	<path class="st94" d="M16.4,73.7c-0.1-1.1,0.9-1.8,1.4-2.7c0.9,1.3,0.3,2.4-0.4,3.5c-0.2,0-0.3,0-0.5,0
		C16.8,74.3,16.6,74,16.4,73.7z"/>
	<path class="st98" d="M22.7,85.3c-0.2-0.2-0.3-0.5-0.5-0.7c-0.4-0.7-1.9-1.2-0.9-2.1c0.8-0.7,1.7,0.5,2.3,1c0.7,0.6,1,1.7-0.4,2.2
		C23,85.6,22.8,85.4,22.7,85.3z"/>
	<path class="st98" d="M19.6,78.6c0-0.1,0-0.3,0-0.4c-0.1-0.7,0.4-0.7,0.8-0.8c0.9,0.2,1.2,0.9,1.7,1.5c0.2,1,1.7,1.5,1.1,2.8
		c-1.3,0.2-1.5-2.1-3.1-1.4C19.7,79.8,19.6,79.2,19.6,78.6z"/>
	<path class="st99" d="M26.2,28.8c0.6-0.6-1.5-1.2,0-1.8c1-0.8,2.2-1.1,3.3-1.8c0.8-0.5,1.7-0.8,2.4,0c0.6,0.7-0.3,1.3-0.5,2
		c-0.1,0.3-0.4,0.6-0.6,0.9c-0.2,0.2,0.1,0-0.1,0.2c-1.2,0.9-1.2,0.9-0.7,2.3c-0.3,1.3,0.4,2.6,0.2,4c-0.8,0.9-1.4,1.8-2,2.8
		c1.8,0.4,1.3-1.1,1.6-1.9c0.8-0.2,1.1,0.4,1.5,0.8c0.3,1.1-0.1,2.3,0.4,3.3c-1.1,1.7-2.4,2.2-4,0.7c-0.2-0.1-0.5-0.4-0.6-0.2
		c-1.2,2.1-2.1,0-2.9-0.4c-1.9-1-1.9-1.3-0.4-3.1c-0.6-0.7-2.3-0.7-1.6-2.3c0.1-0.2,0.3-0.3,0.4-0.5c1.9-0.3,2.9-2.1,4.6-2.7
		c0.3-0.1,0.7-0.4,0.5-0.9c-0.1-0.4-0.4-0.7-1-0.6C26.1,29.8,25.9,29.4,26.2,28.8z"/>
	<path class="st100" d="M21.4,29.2c0.8,1.2,1.6,2.4,1.3,4c0.3,0.3,0.2,0.6,0,0.9l0,0c-1.3,0.8-1.5,1.7-0.9,3.1
		c0.7,1.7,1.6,3.4,1.5,5.4c0.1,0.2,0.2,0.4,0.2,0.6c0.1,0.4,0,0.8-0.2,1.2c-0.9,1.2-2.2,0.7-3.4,1c-0.2,0-0.4-0.1-0.6-0.2
		c-1-2.2-1.2-4.5-0.3-6.8c0-0.4-0.2-0.6-0.6-0.5C18.1,38,18,38,17.8,38.1c-2.5,0-3-2.4-4.5-3.7c-0.1-0.2-0.2-0.4-0.2-0.6
		c1.1-2.6,2.2-3.3,4.4-3c0.6,0.9-0.2,1.5-0.7,2.1c-0.4,0.5-0.8,1-0.6,1.6c0.2,0.5,0.7,0.5,1.1,0.3c0.7-0.3,1.7,0.3,2-0.9
		c0.2-0.7,0.2-1.5,0-2.2c-0.3-1.3,0.1-2.3,1.5-2.8C21,29,21.2,29.1,21.4,29.2z"/>
	<path class="st101" d="M30.3,27.9c0.5-0.8,0.9-1.6,1.5-2.6c-2.2-0.5-3.4,2.1-5.5,1.7c0.1-0.8,0.2-1.6,0.9-2.2c0-0.1,0-0.2,0-0.3
		c0.2-0.4,0.5-0.7,0.8-1.1c0.1-0.1,0.2-0.3,0.3-0.4c0.4-0.6,0.8-1.3,1.6-1.5c1.1-1.4,1.4-3.2,2.5-4.6c0,0,0,0,0,0c0.7,0,1.5,0,2.2,0
		c0.8,0.1,1.8-0.1,2.3,0.9c-0.7,0.8-0.3,2.2-1.4,2.9c-2.6,0.1-2.7,0.1-2.3,2.8c0.3,2.4-1,4.2-1.9,6.1C30.4,29.4,29.8,29,30.3,27.9z"
		/>
	<path class="st42" d="M21.4,29.2c-0.2,0-0.3,0-0.5,0c-0.7,0.6-1.3-0.3-2-0.1c-1.1,0.1-1.7,1.1-2.7,1.4c-1,0.3-2.1-0.3-1.5-1
		c1.2-1.5,0.3-3.1,0.6-4.6c0.7-0.3,0.9-1.1,1.4-1.6c0.8-0.9,1.6-1.7,2.9-0.9c-0.3,0.9-0.9,1.5-1.8,1.7c-0.8,0.2-0.9,0.7-0.6,1.3
		c0.3,0.7,0.7,1.1,1.5,0.7c1-0.5,1.7-1,1.9-2.2c0.2-1.2,0.9-2.1,2.3-2.2c-1.6,1-0.9,2.8-1.7,4.2C20.7,26.8,22.4,28,21.4,29.2z"/>
	<path class="st102" d="M22.7,34.1c0-0.3,0-0.6,0-0.9c0.6-0.4,0.4-1,0.4-1.6c0.1-2.9,0.1-2.9,3.1-2.9c0.1,0.2-0.1,0.7,0.4,0.4
		c0.3-0.2,0.5-0.5,0.8-0.7c0.2-0.1,0.5,0.2,0.4,0.3c-0.8,0.9,1.8,1,0.4,2.3c-1.2,1-3.4,0.9-3.5,3.1C24,34,23.4,33.5,22.7,34.1z"/>
	<path class="st4" d="M24,22.1c1.6,0.4,3.1-0.1,3.6-1.4c0.3-0.7,0.8-1.3,1.8-1.6c0.4,1-1.6,1.5-0.5,2.5c0,0.1,0.1,0.2,0.1,0.2
		c-0.2,0.5-0.3,1.1-0.6,1.5l0,0c-0.6,0.3-1.3,0.4-1.3,1.3c0,0,0,0,0,0c-0.7-0.2-1.4-0.4-2.1-0.4C23.2,24.3,23.3,23.3,24,22.1z"/>
	<path class="st59" d="M19.6,22.5c-1.4-0.3-2.2,0.6-2.8,1.6c-0.4,0.6-0.7,1.3-1.6,1.1c-0.2,0.3-0.5,0.3-0.8,0.2
		c-0.5-0.4-0.8-0.9-0.9-1.5c0.4-0.5,0.8-0.5,1.3-0.1c0.4,0.4,0.9,0.5,1.1,0.1c0.8-2.4,3.3-1.9,4.8-3.1
		C20.5,21.5,19.8,21.9,19.6,22.5z"/>
	<path class="st103" d="M13.3,23.9c0.9,0,0.9,0.7,0.9,1.3c-0.1,0.4-0.4,0.7-0.9,0.5c-0.6,0-0.9-0.3-0.9-0.9
		C12.8,24.5,13.1,24.2,13.3,23.9z"/>
	<path class="st4" d="M32.5,16.8c-0.8,1.7-1.1,3.7-2.7,4.9c-0.3,0.3-0.6,0.3-0.9,0c0,0,0,0,0,0c1.8-0.9,2-2.8,2.7-4.4
		C31.9,17.1,32.2,16.9,32.5,16.8z"/>
	<path class="st104" d="M40.5,10.5c1-0.9,2.1-1.6,3.5-1.3c0,0,0,0,0,0c0.2,0.6-0.1,1-0.4,1.4c-0.6,0.9-0.2,1.3,0.6,1.7
		c0.5,0.3,1.1,0.3,1.7,0.3c1.7-0.2,2.1,0.6,1.3,2c-0.1,0.2-0.2,0.4-0.3,0.6c-0.5,0.8-1.1,1.2-2.1,0.6c-0.9-0.7-1.8-0.1-2.7,0
		c-0.3,0-0.6-0.1-0.8-0.3C40.4,14,41.2,12.1,40.5,10.5L40.5,10.5z"/>
	<path class="st45" d="M40.5,10.5c0.2,0.2,0.5,0.3,0.6,0.6c0.8,1.4,0.2,2.9,0.3,4.3c-0.4,0.7-1,1-1.6,1.3c-0.6,0.2-1.2,0.8-1.9,0.5
		c-0.1-0.6-1.2-0.9-0.5-1.7c0.7-0.7,1.5-0.6,2.3,0.2c0.6-1.3-1-1.5-0.9-2.5C40.2,12.9,39.3,11.1,40.5,10.5z"/>
	<path class="st105" d="M35.6,20.3c0.8-0.7-0.8-2.6,1.4-2.7c0.1,0,0.3,0,0.4,0c0.2-0.2,0.3-0.2,0.5-0.1c0.5,0.9-0.2,1.5-0.6,2.2
		c-0.1,0.2-0.2,0.3-0.4,0.5c-0.2,0.2-0.5,0.3-0.8,0.4C35.9,20.5,35.7,20.5,35.6,20.3z"/>
	<path class="st101" d="M37.8,17.7c-0.2,0-0.3,0-0.5,0c0.1-0.1,0.3-0.3,0.4-0.4c0.6-0.2,1-1,1.8-0.9c0.3,0.7-0.3,1.1-0.7,1.4
		c-0.2,0.1-0.4,0.1-0.6,0.2C38.1,17.9,38,17.8,37.8,17.7z"/>
	<path class="st106" d="M49.8,58.6c1.6,1.2,2.2,2.7,1.5,4.7c-0.4,1.1,0.5,1.7,1.2,2.4c0,0.4-0.1,0.8-0.4,1c-1-0.2-1.4,1-2.4,1
		c-1.1,0-2.1-0.5-2.8-1.4c-0.5-0.8-0.7-1.9-0.2-2.5c1.7-2.1,0.2-3.7-0.5-5.5c-0.6-1.5-1.9-1-3.1-0.7c-1.4-0.3-2.2-0.9-1.5-2.5
		c0.2-0.4-0.4-0.2-0.5-0.4c0.1-1.4-0.4-3,1.1-4c0.6,0.5,0.5,1.3,0.9,1.9c0.6,0.9,1,1.5,2.4,1.8c1.6,0.4,3.2,1.9,3.9,3.8
		C49.5,58.3,49.7,58.4,49.8,58.6z"/>
	<path class="st107" d="M49.4,58.1c-0.5,0-1.1-0.2-1.1-0.6c0.1-2.1-2.2-1.6-3-2.9c-0.6-1-0.9,0.7-1.6,0.5c-0.1-0.9-0.5-1.6-1-2.3
		c-0.4-0.6-0.1-1.4-0.2-2c0-0.6,0.4-1.1,0.9-1.4c2.2-0.7,2.8-0.4,4.4,2.1c1.2,1.2,1.2-0.3,1.7-0.8c0.4-0.7,0.2-1.5,0.8-2.1
		c0.4-0.5,1-0.7,1.5-0.8c0.8-0.1,1.1,0.2,0.7,1c-0.3,0.2-0.3,0.3,0,0.5c0,0.5,0.2,1.2-0.2,1.5c-0.8,0.5-0.5-1-1.4-0.7
		c0.3,1.4,1.2,2.6,1.8,4C50.7,54.6,47.4,54.4,49.4,58.1z"/>
	<path class="st52" d="M52.5,48.8c-0.7-1.9-1.5,0.6-2.2,0c-0.7,0-1.4-0.3-2.2,0c-0.8,0.3-1.4,0.1-1.7-0.8c0.3-3.4,2.1-4.9,4.8-4.1
		c0.3,0.2,0.6,0.6,0.3,0.9c-0.9,1.3-0.7,2.2,0.8,2.7C53.1,47.8,53.1,48.3,52.5,48.8z"/>
	<path class="st108" d="M51.2,43.9c-3.1,0.2-3.9,1.1-4.4,4.4c-1.2,0.4-1.2-0.4-1.1-1.1c0.2-1.1,0.5-2.1,1.2-3c1-1.3,2.5-2.4,2.2-4.4
		c0.1-0.3,0.3-0.5,0.7-0.4c0.3-0.2,0.6-0.3,0.9-0.5c0.1,0,0.3,0,0.4,0c1.1,1.3,1.9,2.6,0,3.9c-0.2,0.1-0.1,0.4,0,0.6
		C51.2,43.6,51.2,43.8,51.2,43.9z"/>
	<path class="st52" d="M51.2,43.5c-0.4-0.3-0.6-1-0.4-1.1c2.2-1,0.3-2.3,0.3-3.4c0.2-0.1,0.3-0.3,0.5-0.4c1.1-0.1,0.5,0.9,0.9,1.3
		C53.2,41.5,52.3,42.5,51.2,43.5z"/>
	<path class="st108" d="M52.5,39.9c-0.3-0.4-0.6-0.9-0.9-1.3c0.3-0.3,0.6-0.6,0.9-0.9C53,38.4,53,39.1,52.5,39.9z"/>
	<path class="st109" d="M52,66.5c0.2-0.3,0.3-0.6,0.5-0.9c0.3-0.1,0.6-0.3,0.9-0.4c0.7,0.4,0.1,0.9,0,1.3c0.1,0.6,0,1.1-0.5,1.5
		c-0.2,0.1-0.5,0.1-0.7,0C51.7,67.6,51.6,67.1,52,66.5z"/>
	<path class="st110" d="M52.5,67.9c0.1,0,0.3,0,0.4,0c0.5-0.3,0.5-1,0.9-1.3c0.3,0,0.6,0,0.9,0c0.2,1.3-0.3,1.9-1.8,2.2
		C52.5,68.6,52.3,68.4,52.5,67.9z"/>
	<path class="st54" d="M53.8,66.6c0,0.7,0,1.3-0.9,1.3c0.1-0.5,0-1,0.5-1.4C53.5,66.6,53.7,66.6,53.8,66.6z"/>
	<path class="st111" d="M42.3,87.9c0-1.1,0-2.2,0-3.4c-1.2,0.3-0.6,1.8-1.8,1.6c-0.3-0.3-0.3-0.6-0.3-0.9c0.5-2.6,0.5-2.6,2.4-1.8
		c1.4-1.3,3.1-0.2,4.6-0.5c0.3,0.1,0.6,0.3,0.7,0.5c0.4,0.9-0.1,1.5-0.9,1.3c-1-0.2-0.3,0.8-0.8,1c0,0.6,0,1.2,0.1,1.8
		c0.2,0.7-0.1,1.2-0.5,1.7c0,0.4-0.1,0.7-0.5,0.9c-0.4,0.1-0.5-0.1-0.7-0.4c-0.3-1.1-1.2-1.4-2-1.8C42.5,88,42.4,87.9,42.3,87.9z"/>
	<path class="st62" d="M42.7,88c1.1-0.8,1.5,0.7,2.4,0.7c0.5,0-0.1,0.7-0.1,1c-0.1,0.2-0.3,0.5-0.6,0.6c-0.8,0-1.2-0.6-1.6-1.1
		c0,0,0,0,0,0C42.7,88.8,42.7,88.4,42.7,88z"/>
	<path class="st112" d="M51.1,90.6c0.2,0.5,0.7,1,0.3,1.4c-0.6,0.6-0.6-0.6-0.8-0.5c-0.7,0.4-0.6,1.1-0.8,1.8
		c-2.1,0.9-1.9-0.9-1.4-1.6c0.7-1.1,0.2-1.7-0.2-2.4c0.4-0.8,1.1,0.8,1.6-0.4c0.3-0.8-0.4-0.8-0.6-1.1c-0.3-0.4-1.1-0.4-1.1-1.2
		c0-0.1,0-0.2,0.1-0.3c0.3-0.5,0.7-0.8,1.3-0.7c0.9,0.5,1.6,1.1,2.2,1.9c0,0.6-0.4,1.2,0,1.8C51.3,89.7,51.2,90.1,51.1,90.6z"/>
	<path class="st113" d="M46.3,85.7c-0.1-0.6-0.5-1.5,0.8-1.3c0.8,0.1,0.8-0.4,0.6-0.9c0.4-0.8,0.5-2.1,1.9-1.1
		c0.1,0.4,0,0.8-0.2,1.1c-0.2,0.4-0.3,0.8-0.2,1.3c0,0.2,0,0.4-0.1,0.5c-0.4,0.4-0.7,0.8-1,1.3c0,0,0,0,0,0
		C47.4,86.4,47,85.6,46.3,85.7z"/>
	<path class="st114" d="M45.8,89.2c-0.1-0.6,0.1-1.2,0.5-1.7c0.2-0.1,0.5-0.3,0.6-0.2c0.6,0.4,0.4,3.2-0.2,3.7
		C46.4,90.5,46.1,89.9,45.8,89.2z"/>
	<path class="st114" d="M46.3,92.8c0.1-0.4,0.3-0.9,0.4-1.3C47.4,92.2,47.2,92.6,46.3,92.8z"/>
	<path class="st115" d="M42.7,89.3c0.8,0,1.2,0.6,1.7,0.9c0.3,0.3,0.3,0.5,0,0.8C42.3,92,42.8,90.3,42.7,89.3z"/>
	<path class="st116" d="M44.4,91c0-0.3,0-0.5,0-0.8c0.2-0.2,0.3-0.3,0.5-0.5c0.1,0.1,0.3,0.3,0.4,0.4C45.3,90.7,45.7,91.8,44.4,91z"
		/>
	<path class="st117" d="M48.9,84.8c-0.6-0.4-0.6-0.9,0-1.3c0.9-0.1,1-1.1,1.8-1.4c0.6,0,1.1,0.3,1.3,0.9c0.7,0.9-0.5,1.8,0,2.7
		c0.2,0.4,0.9,0.7,0.5,1.3c0.1,0.4,0,0.6-0.5,0.5c-0.2,0-0.3,0-0.5,0c-1.2-0.1-1.7-1-2.3-1.8c-0.1-0.1-0.1-0.2-0.1-0.3
		c0-0.1,0-0.2,0-0.2C49.6,84.8,49.2,84.9,48.9,84.8z"/>
	<path class="st25" d="M52.1,87.5c0.1-0.2,0.3-0.3,0.4-0.5c0.3,0.1,0.8-0.2,0.9,0.2c0,0.1-0.3,0.4-0.5,0.6
		C52.6,87.9,52.3,87.9,52.1,87.5z"/>
	<path class="st118" d="M51.1,90.6c-0.7-0.7-0.1-1.1,0.5-1.4C51.6,89.8,51.7,90.3,51.1,90.6z"/>
	<path class="st119" d="M52.5,67.9c0.1,0.3,0.3,0.6,0.4,0.9c-0.8,0.5-2.5,0.5-0.9,2.1c0.5,0.5,0.1,1.3,0,1.9l0,0
		c-0.4-0.2-0.8-0.3-1.2-0.5c-0.5,1.3,1.2,2.2,0.7,3.6c-0.2-0.3-0.3-0.3-0.5,0c-0.2,0.1-0.4,0.2-0.6,0.2c-0.9-0.2-1.5-0.8-1.5-1.8
		c0-0.3,0.2-0.6,0.3-0.9c0.3-0.7,0.3-1.3-0.2-1.9c-0.6-1.5,0-2.8,0.6-4.1c0.8-0.2,0.9-1.9,2.2-0.9C52.1,67,51.9,67.6,52.5,67.9z"/>
	<path class="st120" d="M52.9,72.4c0.1-0.3,0.1-0.8,0.6-0.5c0.4,0.3,0.6,0.9,0.3,1.3c-0.3,0.3-0.5-0.3-0.8-0.4
		c-0.1-0.1-0.2-0.1-0.2-0.2C52.8,72.5,52.9,72.4,52.9,72.4z"/>
	<path class="st121" d="M52.9,72.4c0,0.1,0,0.3,0.1,0.4c-0.1,0.3-0.1,0.8-0.5,0.7c-0.2,0-0.2-0.4-0.4-0.7c0,0,0,0,0,0
		C52.3,72.7,52.6,72.6,52.9,72.4z"/>
	<path class="st122" d="M52.1,85.7c-0.9-0.9,0.1-1.8,0-2.7c0.3,0,0.6,0,0.9,0C52.6,83.9,52.3,84.8,52.1,85.7z"/>
	<path class="st14" d="M55.2,87c-0.4-0.1-0.9-0.1-0.8-0.7c0-0.1,0.2-0.3,0.2-0.3C55.1,86.2,55.1,86.6,55.2,87
		C55.2,87.1,55.2,87,55.2,87z"/>
	<path class="st123" d="M49.4,82.6c-1.2-1-1,0.9-1.8,0.8c-0.2-0.1-0.3-0.3-0.5-0.4c-1.1-0.8-0.5-2.9-2.4-3.1
		c-0.1-0.2-0.2-0.4-0.3-0.6c-0.2-1.3,0.8-1.9,1.6-2.7c0.5-0.3,1-0.6,1.4,0.1c0.2,1.3,0.3,2.6,0.8,3.9c0.8-0.9,0.7-2.4,1.8-3.1
		c1.6-0.1,0.3,1.5,1.1,1.9c0.7,0.9,0.4,1.6-0.4,2.2C50.3,82.1,50.2,82.8,49.4,82.6z"/>
	<path class="st54" d="M51.2,79.5c-1.6,0.1,0.1-1.5-0.9-1.8c-1.4-1-0.3-1.3,0.4-1.8c0.1,0,0.3,0,0.4,0c0.1,0.5,0,1.2,0.2,1.5
		C52.6,78.3,52,78.9,51.2,79.5z"/>
	<path class="st124" d="M49.4,82.6c0.4-0.3,0.8-0.6,1.3-0.9c0,0.1,0,0.3,0,0.4c-0.2,1-0.4,1.9-1.8,1.4
		C49.1,83.2,49.3,82.9,49.4,82.6z"/>
	<path class="st125" d="M52.9,80.4c-0.1,0.3-0.1,0.7-0.5,0.6c-0.1,0-0.3-0.3-0.3-0.4c0-0.3,0.1-0.6,0.4-0.5
		C52.7,80.1,52.8,80.3,52.9,80.4z"/>
	<path class="st82" d="M52,25.7c-0.9-1,0.8-1.4,0.5-2.2C53.6,24.4,52.3,24.9,52,25.7z"/>
	<path class="st126" d="M19.6,38.1c-0.7,2.4-0.8,4.8,0,7.1c-0.8,0.8-0.6,2.8-2.6,2.3c-1.1-0.6-0.8-1.5-0.4-2.6
		c-1,0.4-1.5,0.9-1.7,1.7c0.5,0.8,1.6,0.2,2.1,0.9c1.4,0.7,1.7,1.9,1.7,3.4c0,0.8,0.2,1.7,0.3,2.6c0.1,0.3,0.1,0.6,0,1
		c-0.1,0.2-0.3,0.3-0.5,0.4c-1.6-0.2-1-1.6-1.2-2.5c-0.3-1.2-0.7-1.1-1.3-0.3c-0.2,0-0.4,0-0.5-0.2c-0.3-0.7,0.1-1.4,0-1.9
		c-0.1,0.6-0.1,1.5-0.8,2.1c-0.7,0.8-1,1.8-0.8,2.9c0.1,0.8,0.2,1.6-0.3,2.4c-1.1,0.3-1.3-0.8-2-1.2c-0.4-1.1-0.5-2.3-0.5-3.5
		c0-1.1,0.3-2.2-1.5-1.9c0,0-0.1,0.4,0.1,0.7c1,1.4,0.9,3.5,0,4.7C9,56.9,8.5,56.6,8,55.9c0.3-1.4,0.7-2.7,0.1-4.3
		C7.4,50,8.2,48.4,9.4,47c-0.1-0.5-0.1-1-0.5-1.4c-1.1-1.4,0.3-2.7,0.3-4.1c0-1.6-0.1-2.8-1.2-3.9c0.4-0.4,0.9-0.9,1.3-1.3
		c0.9-0.5,1.1-1.3,1.3-2.2c0.1-0.2,0.3-0.3,0.4-0.5c0.9-0.6,1.7-0.5,2.2,0.5l0,0c0.5,0.7,0,1.1-0.2,1.7c-0.6,1.4,0.1,2.2,1.5,1.8
		c1.2-0.3,2.4,0.9,3.6,0C18.9,37.2,19.2,37.7,19.6,38.1z"/>
	<path class="st127" d="M13.4,34.1c-0.7-0.4-1.5-0.5-2.2-0.5c-0.1-0.7,2-1.7-0.3-2.1c0,0-0.1-0.5,0-0.6c1.6-1.4,1.8-3.5,2.5-5.2
		c0.3-0.2,0.6-0.3,0.9-0.5c0.3,0,0.6,0,0.9,0c0.5,1.4,2.2,2.8-0.1,4.1c-0.3,0.2-0.3,0.5-0.1,0.8c0.4,0.5,0.8,0.1,1.2,0
		c1-0.3,1.5-2,2.9-1.3c0.8,1.8-0.6,1.9-1.8,2.2c-1.1,0.4-3-0.2-2.4,2.2c0.1,0.4-0.4,0.4-0.8,0.2C13,32.6,13.5,33.7,13.4,34.1z"/>
	<path class="st127" d="M10.7,34.1c0.8,1.5,0.4,2.2-1.3,2.2c0.1-0.5,0.3-0.9,0.4-1.4c-0.2-0.5-0.2-0.8,0.5-0.9
		C10.4,34.1,10.5,34.1,10.7,34.1z"/>
	<path class="st128" d="M10.2,34.1c-0.2,0.3-0.3,0.6-0.5,0.9c-1-0.1-1.1-0.8-0.6-1.4C9.6,33,9.9,33.7,10.2,34.1z"/>
	<path class="st129" d="M35.1,81.3c-0.2-0.1-0.3-0.3-0.5-0.4c-0.7-0.5-1.5-0.9-1.9-1.7c-0.5-1.1-1.1-2.2-1.6-3.3
		c-0.3-0.8-1-1.8,0.4-2.3c0.7,0,1.3,0.5,2,0.4c0.9,0.1,1,0.8,0.9,1.5c-0.2,1.2,0.3,2.1,0.8,3.1c0.1,0.1,0.1,0.1,0.2,0.2
		c0.1,0.1,0.3,0.3,0.4,0.4c0.6,0.7,1.4,0.4,2.1,0.2c0.3-0.1,0.6-0.1,0.9,0c0.2,0.1,0.3,0.2,0.4,0.4c0.1,0.7-0.5,1.1-1,1.4
		c-0.5,0.3-0.9,0.9-1.6,0.7C36.2,81.8,35.6,81.6,35.1,81.3z"/>
	<path class="st130" d="M37.8,85.3c0.2,1.2,0.5,2.4,0.7,3.7c-0.9,0.1-1-0.8-1.5-1.1c-0.5-0.4-0.9-0.9-1.7-0.4
		c-1.9,1.2-3.4,0.2-4.8-1.2c0.9,0.2,1.8,0.4,2.6,0.7c1.3,0.6,1.6-0.1,1.7-1.1c0.1-0.6-0.9-1.3,0-1.7c0.9-0.4,1.5,0.2,2.1,0.8
		C37.2,85.1,37.6,85.2,37.8,85.3L37.8,85.3z"/>
	<path class="st131" d="M36.9,81.7c0.4-0.3,0.6-0.9,1.3-0.9c1-0.2,1.8,0.9,2.8,0.5c1.6,0.2,2.2,1.1,1.6,2.6
		c-1.9-1.5-1.7,0.6-2.2,1.3c-0.3-0.1-0.5-0.2-0.7-0.5c-0.2-0.4-0.3-0.7-0.4-1.1c-0.4-0.9-1.4-0.5-2-1c-0.1-0.1-0.3-0.3-0.4-0.4
		C36.8,82,36.8,81.8,36.9,81.7z"/>
	<path class="st132" d="M33.4,82.6c0,0.1,0,0.3,0,0.4c-1,1.8-1.7,1.8-3,0c0.7-0.9-0.7-1-0.7-1.7c-0.1-0.6,1.4,0,0.8-1.1
		c0-0.2,0-0.4,0.1-0.6c0.7-0.7,1.4-0.5,2.1,0C33.6,80.5,33.5,81.6,33.4,82.6z"/>
	<path class="st130" d="M30.7,82.6c0.6,2.1,1.6,1.4,2.7,0.4c0.9,1,0.3,1.8-0.3,2.5c-0.7,0.8-1.3-0.2-1.9-0.4
		c-0.7-0.2-1.2-0.8-1.8-1.2c-0.2-0.2-0.3-0.4-0.3-0.7C29.3,82.3,29.9,82.1,30.7,82.6z"/>
	<path class="st133" d="M40,84.8c0.2,0.1,0.3,0.3,0.5,0.4c0,0.3,0,0.6,0,0.9c0.1,0.4,0.2,0.8,0.3,1.3c0.1,0.4-0.2,0.7-0.6,0.8
		c-0.3,0.1-0.5-0.2-0.6-0.5c-0.4-0.8-0.9-1.6-1.3-2.5c0.1-0.1,0.1-0.1,0.2-0.2C38.9,84.8,39.4,84.5,40,84.8z"/>
	<path class="st95" d="M36.9,89.4c-0.4,0.8-1.1,1.6-2,1.9c-0.5,0.2-0.9-0.3-1-0.9c1.2-0.2,1.4-1.5,2.4-1.9
		C36.7,88.4,36.9,88.9,36.9,89.4z"/>
	<path class="st134" d="M37.4,82.6c1.1-0.4,2.2-0.6,2.6,0.9c-0.1,1-1.1,1.2-1.7,1.7c0,0,0,0,0,0c-0.1,0-0.3,0-0.4,0c0,0,0,0,0,0
		C37.7,84.4,37.5,83.5,37.4,82.6z"/>
	<path class="st135" d="M33.4,82.6c-0.4-0.9-0.3-1.9-0.9-2.7c-0.1-0.1-0.2-0.2-0.2-0.3c0-0.1,0-0.2,0-0.2c0.3-0.3,0.6-0.6,1-0.4
		c0.4,0.6,0.9,1.2,1.3,1.8c-0.6,0-1,0.3-0.8,0.9C34,82.3,34,82.6,33.4,82.6z"/>
	<path class="st132" d="M29.4,83.5c0,0.1,0,0.3,0,0.4c-0.3,0-0.6,0-0.9,0c-0.1,0-0.3,0-0.4,0c-1.3-0.8-1.8-1.8-0.7-3.1
		c0.2-0.1,0.4-0.1,0.6-0.1C28.9,81.4,28.6,82.7,29.4,83.5z"/>
	<path class="st134" d="M36.9,81.7c0,0.2,0,0.3,0,0.5c-1.1,0.7-1.4-0.2-1.8-0.9C35.8,81.3,36.5,81.1,36.9,81.7z"/>
	<path class="st136" d="M49.8,17.7c-1.5-0.6-2,0-2.3,1.5c-0.5,2.7,0.2,5.6-1.5,8.1c-0.6,0.9,0.3,2.1,0.7,2.9
		c0.5,0.9,0.8-0.7,1.5-0.6c-0.1,0.6-0.2,1.3-0.3,1.9c-0.1,0.2-0.3,0.3-0.5,0.4c-0.8,0.4-1.6,0.8-2.5,0.8c-1.7-0.8-1.1-2.3-1-3.6
		c0.1-1,0.6-1.9,0.5-3c0-2.6,0.3-5.1,0.9-7.7c0.1-0.2,0.2-0.4,0.3-0.5c0.8-1,2-1.3,3-2.2c0.3-0.2,0.7-0.5,1.1-0.3
		c0.3-0.1,0.6-0.3,0.9-0.4c0.1,0.1,0.1,0.1,0.2,0.2c0.2,0.3,0.4,0.6,0.6,0.9c0,0.1,0.1,0.2,0.1,0.3c0.1,0.6,0.2,1.3,0.2,2
		C51.1,18.3,50.6,17.4,49.8,17.7z"/>
	<path class="st137" d="M49.8,15.4c-0.3,0.1-0.6,0.3-0.9,0.4c-0.1-0.1-0.1-0.1-0.2-0.2c-0.3-0.5-0.7-0.8-0.8-1.4
		c0.7-1.2-0.5-1.6-1-2.3c-0.1-0.2-0.1-0.4-0.1-0.6c0-0.3,0.1-0.6,0.2-0.9c0.5-0.5,0.2-1.3,0.6-1.9c0.7-0.3,1.5,0.4,2.2-0.2
		c0.5-0.2,0.9-0.3,1.4-0.2c0.5,0.4,0.2,0.7-0.2,1c-1,0.9-1.9,1.8-0.7,3.3C51,13.6,49.3,14.4,49.8,15.4z"/>
	<path class="st138" d="M49.8,8.8c-0.7,1.5-1.5,0.3-2.2,0c-0.5,0.5,0.1,1.3-0.4,1.8c0,0.3,0,0.6,0,0.9c-0.8,0.6-1.1-0.1-1.4-0.5
		c-0.1-0.2-0.2-0.4-0.2-0.6c-0.1-0.4,0-0.8,0.3-1.1c1.3-1.5,3.8-1.5,4.6-3.7c0.1-0.3,0.2-0.5,0.3-0.8c0.1,0,0.3,0,0.4,0
		c-0.4,0.7,1.5,0.9,0.5,1.8C51.2,7.4,50.2,7.8,49.8,8.8z"/>
	<path class="st93" d="M49.8,8.8c-0.4-0.3-1.1-0.5-0.2-1c0.7-0.4,1.3-0.8,2-1.2c-0.2,0.6-0.3,1.2-0.5,1.8
		C50.9,8.8,50.3,8.7,49.8,8.8z"/>
	<path class="st136" d="M50.7,15c0.4-0.4,0.9-0.9,1.4-0.6c0.6,0.3,0.3,1,0.3,1.6c0,0.8-0.5,0.5-0.9,0.4c0,0,0,0,0,0
		C51.2,16,51.1,15.4,50.7,15L50.7,15z"/>
	<path class="st139" d="M27.6,80.8c-0.9,1.2,0,2.1,0.5,3.1c-0.8,0.1,0.1,1.8-0.9,1.2c-1.1-0.5-3.3-0.1-2.7-2.5
		c-0.2-1.2,0.1-2.3,0.9-3.3C27.4,78.6,27.8,78.9,27.6,80.8z"/>
	<path class="st59" d="M25.4,79.5c-0.1,1.1-0.3,2.2-0.9,3.1c-0.4-0.3-0.9-0.6-1.3-0.9c0.1-1.2-1.7-1.4-1.3-2.6
		c0.4-0.6,0.7-1.3,1.6-0.7c0.4,0.6,1.2,0.6,1.8,0.9C25.2,79.3,25.3,79.4,25.4,79.5z"/>
	<path class="st140" d="M47.6,31.4c0.1,0,0.3,0,0.4,0c0.5,0.8,0.5,1.7,0.5,2.7c0,0.9,0.1,1.8-0.5,2.7c-0.3,0.4-0.7,0.4-1.2,0.3
		c-0.7-0.3-1.4-0.7-1.6-1.5c0.1-0.2,0.2-0.4,0.4-0.4c0.4-0.2,1.2,0.3,1.2-0.8C46.9,33.4,46.9,32.3,47.6,31.4z"/>
	<path class="st141" d="M49.8,39.4c-0.2,0.1-0.3,0.3-0.5,0.4c-0.3,0.4-0.2,1-0.6,1.3c-0.4,0.3-0.8,0.7-1.2,1
		c-1.5,0.8-3.1,1.3-4.8,1.5c-1.3-0.9-2.8-1.7-3.4-3.4c-1-1.4-1-2.9-0.6-4.5c0.8-1,1.6-0.1,1.6,0.4c0.1,1,1,1.6,1,2.4
		c0.1,1.6,0.8,1.1,1.6,0.7c0.4-0.2,0.8-0.2,1.1,0.2c0.1,0.2,0.1,0.4,0.1,0.6c0.3,1.8,1.2,0.3,1.8,0.3c1.3-0.3,1.8-1.9,3.3-1.8
		C49.7,38.8,49.8,39.1,49.8,39.4z"/>
	<path class="st142" d="M49.4,38.6c-1.1,0.7-1.8,1.8-3.1,2.2c-0.5-0.4-1.2,0.1-1.6-0.5c0.5-1.2-0.3-3.2,2-3.4c0.4,0,0.9,0,1.3,0
		C49.7,36.5,49,37.9,49.4,38.6z"/>
	<path class="st143" d="M45.8,9.2c0,0.4,0,0.9,0,1.3c-0.5,0.8-0.9,1.7-1.8,2.2c-2.4-1.2-0.8-2.4,0-3.6C44.6,9.2,45.2,9.2,45.8,9.2z"
		/>
	<path class="st67" d="M20.9,67c-0.8-0.5-0.9-1.5-1.4-2.2c-0.4-0.5-0.9-0.5-1.3-0.1c-0.5,0.4-1.1,0.5-1.6,0.1c-1.5-1-1.5-3-2.7-4.3
		c-0.6-0.6,0.8-1.3,1-2c1,0,1,0,1.3,1.7c0.6-1.1,1.9-1.4,2.1-2.8c0-0.5-0.1-1.1-0.1-1.6c0-0.5,0.2-0.9,0.5-1.2v0
		c0.3-0.3,0.8-0.4,1.2-0.3c3,1.6,3.7,3.4,2.7,6.8c-0.2,0.5-0.3,0.2,0.2,0.3c1.2,0.2,0.6,1,0.2,1.6c-0.8,1-0.7,1.9,0.4,2.6
		c1.6,1.1,1.2,2.2-0.1,3.3C22.5,68.2,21.5,67.9,20.9,67z"/>
	<path class="st59" d="M16.9,64.4c0.7,0.8,0.9-0.4,1.4-0.4c0.5,0,1.7-0.7,1.3,0.8c-0.5,0-0.8,0.3-0.9,0.8c-0.3,1.4-1,1.6-2.2,0.9
		c-1.7-0.9-2.6-0.5-3,1.4c-1-1.3-1-1.3,0-3.6c0.5-0.8,0.8-2.3,1.9-0.5C15.7,64.4,16.5,63.9,16.9,64.4z"/>
	<path class="st144" d="M16.9,64.4c-0.7-0.2-1.6,0.3-2.3-0.7c-0.3-0.5-0.5,1-1.2,0.6c-0.6-0.6-0.3-1.8-1.3-2.2
		c-0.4,0.1-0.5-0.1-0.6-0.4c0.1-0.7,1.6-0.2,1.2-1.4c0.1-0.5,0.2-1,0.4-1.4c0.6-0.6,1.1-1.5,2-0.4c-1,1.5-0.6,2.7,0.8,3.8
		C16.5,62.8,15.7,64.1,16.9,64.4z"/>
	<path class="st133" d="M20.5,77.7c-0.4,0-0.7,0.1-0.9,0.5c-1.8-0.5-1.1-2.6-2.2-3.6c0.1-1.2,0.3-2.4,0.4-3.5
		c0.1-0.1,0.3-0.3,0.4-0.4c0.9,0.1,1.7,0.6,2.6,0.4c0,0.1,0.1,0.2,0.1,0.3c-0.3,0.7-1.1,0.7-1.6,1.2c-1.2,1.8,0.6,1.8,1.4,2.4
		C20.7,75.8,21.5,76.9,20.5,77.7z"/>
	<path class="st145" d="M11.6,61.7c0.2,0.2,0.3,0.3,0.5,0.5c-0.5,0.9-0.9,1.7-1.4,2.6c-0.9-2.7-1.8-5.3-2.7-8c0,0,0,0,0,0
		c0.5-0.4,1.2-0.1,1.3,0.3C9.9,58.7,11.2,60,11.6,61.7z"/>
	<path class="st146" d="M20.9,67c0.7,0.6,2.4,0.1,2.3,1.8c0.6,0.6,1.4,1.2,0.7,2c-0.8,0.9-1.3,0-1.9-0.5c-0.3-0.3-0.2,1.1-1,0.7
		c0,0-0.1-0.1-0.1-0.1C20.8,69.7,20.1,68.3,20.9,67z"/>
	<path class="st147" d="M11.6,61.7c-1-1.2-2.3-2.3-2.4-4.1c0-0.6-0.6-0.8-1.2-0.8c0-0.3,0-0.6,0-0.9c0.4,0.1,1.1,0.7,1.2-0.1
		c0.1-0.9,0.4-1.7,0.9-2.5c0.1-0.3,0-1-0.1-1c-3.6-0.9,0.5-2.2-0.2-2.7c-0.5,1.1,2.4,0.3,1.7,2c-0.5,1.4,0.6,2.9,0,4.3
		c0.7,1.4,1.3,2.8,1.3,4.5C14.2,62.5,12,61.2,11.6,61.7z"/>
	<path class="st148" d="M8.9,45.7c1,0.2,1.1,0.6,0.5,1.4C8.2,46.9,8.6,46.3,8.9,45.7z"/>
	<path class="st149" d="M20.5,77.7c0.6-0.8-0.7-1.9,0.4-2.6c-0.1-0.2-0.1-0.4,0-0.5c1.4,0.1,1.7,1.7,3.1,2c0.6,0.1,0.1,1.4-0.3,2.1
		c-0.2,0.1-0.4,0.1-0.6,0c-0.6-0.3-0.8,0.7-1.3,0.5C21.4,78.6,20.9,78.2,20.5,77.7z"/>
	<path class="st102" d="M23.1,43c-0.2-0.1-0.7-0.4-0.7-0.4c1.1-2.1-0.6-3.8-1.3-5.4c-1-2.2-0.3-2.7,1.5-3.1
		c-0.5,0.8-0.2,1.3,0.6,1.7c0.3,0.1,1.5-0.5,0.9,0.9c-0.3,0.7-0.1,1.6-1.4,1.2c0.9,1.4,2.6,1.5,3.4,2.7c0.8-0.2-0.8-2.4,0.9-1.3
		c1.6,1,2.9,1.9,4.5,0.2c1,0.1,1.3,0.7,1.2,1.5c-0.2,0.7-0.1,1.4,0,2.1c0,0.9,1,2.1-0.1,2.6c-1.1,0.6-1.7-0.9-2.4-1.5
		c-0.6-0.5-0.8-1.4-1.3-2c-0.9-0.9-1.3,0.2-1.9,0.5c-1-0.5-0.9,0.7-1.5,0.9c-0.4,0.5-1.1,0.9-0.8,1.9c0.9-0.5,0.2-1.6,1.1-2
		c0.3-0.2,0.6-0.2,0.9,0c0.9,1.1,0.6,2.7,1.9,3.6c0.3,0.4,0.6,0.7,0.8,1.1c0.7,1.3,0.3,1.9-1.2,2c-4.4,0.4-5.5-0.7-5.2-5.4
		c0-0.1,0-0.2,0.1-0.3C23.1,43.9,23.1,43.5,23.1,43c0.8-0.5,1-1.4,1.8-2C23.4,41,24,42.6,23.1,43z"/>
	<path class="st150" d="M32.5,41.2c0.2-0.8-0.4-1.3-0.9-1.8c-1.9-0.8-0.3-2.1-0.4-3.1c0.6-2.3,0.1-4.2-1.8-5.8
		c-0.6-1.2-0.2-2,0.9-2.7c0,0.9,0.5,1.3,1.3,1.3c1.4,0.5,2.1,1.6,1.9,2.9c-0.2,1.2-0.1,2.2,0.5,3.2c0.4,0.7,0.3,1.2-0.1,1.8
		c-0.6,0.8,0.2,1.5,0.3,2.3c0.1,1.4,0.9,0.6,1.5,0.5c0.7-0.1,0.8,0.8,1.3,1.1c2.6,1.4,2.9,3.9,1.1,6.4c-0.2,0.3,0.6,1,0.1,1.5
		c-0.4,0.7-0.8,1.5-1.6,1.9c-0.7,0.2-1.3,0-1.9-0.3c-0.6-0.3-0.6-0.8-0.5-1.4c0.1-0.2,0.1-0.4,0.2-0.6c0.2-0.3,0.4-0.4,0.7-0.6
		c1.4-2,1.2-3.9-0.5-4.4c-0.2,0-0.4,0-0.5-0.1c-0.4-0.6-0.6-1.3-1.4-1.6C32.5,41.8,32.3,41.6,32.5,41.2z"/>
	<path class="st151" d="M29.4,30.6c1.4,0.4,3.4,4.6,2.7,6c-0.2,0.3-0.6-0.1-1-0.2c-0.7,0.1-0.9-0.6-1.3-0.9
		c-0.3-0.3-0.3-0.6-0.1-0.9C29.6,33.2,29,32,29.4,30.6z"/>
	<path class="st152" d="M29.8,34.6c0,0.3,0,0.6,0,0.9c0.8,1.5-0.2,2.1-1.2,2.7c-0.3,0.2-0.6,0.4-1,0.1c-0.4-0.3-0.6-1-0.3-1.1
		C28.4,36.5,28.2,34.7,29.8,34.6z"/>
	<path class="st153" d="M17.4,31c0.2-1,2.2-0.7,1.8-2.2c0.8-0.5,1.1,0.7,1.8,0.4c-0.9,0.7-1.4,1.3-1,2.7c0.7,2.5-0.9,4.1-3.3,3.7
		c-1.3-0.2-1.6-1.5-0.6-2.8C16.5,32.3,17.3,32,17.4,31z"/>
	<path class="st154" d="M18.7,53.7c-0.5-0.4-0.4-0.9-0.5-1.4c-0.2-1.7-0.2-3.4-1.3-4.9v0c1.6,0.1,1.2-2.2,2.7-2.2c0.1,0,0.3,0,0.4,0
		c0.1,0.1,0.1,0.2,0.2,0.2c0.1,0.3,0,0.6-0.1,0.9c-0.9,2.3-0.3,3.2,2.3,3.4c0.3,0.4,0.3,0.8,0.3,1.2c0,0.4-0.1,0.7-0.3,1
		c-0.3,0.7-0.5,1.4-1.4,1.5c-0.9,0-0.7-1-1.2-1.4c-0.1,0.7,0,1.4-0.8,1.6C18.9,53.7,18.8,53.7,18.7,53.7z"/>
	<path class="st127" d="M18.2,37.7c-1.6,0.8-3.4,0.2-5,0.8c-0.7,0.3-1-0.1-1-1.2c0.1-1.3,0.9-2.1,1.1-3.2c1.1,0.5,1.7,1.6,2.4,2.5
		C16.5,37.5,17.2,37.8,18.2,37.7z"/>
	<path class="st154" d="M20,45.2c0.1-0.4,0.3-1,0.6-0.7c1,1,1.7-0.2,2.6-0.2c0,0,0,0,0,0c0.1,0.9,0.3,1.9,0,2.8
		C21.3,47.8,21,46.1,20,45.2L20,45.2z"/>
	<path class="st127" d="M19.6,38.1c-0.4-0.1-0.9-0.3-1.3-0.4c0.2-0.3,0.4-0.7,0.8-0.6C19.5,37.2,19.5,37.7,19.6,38.1z"/>
	<path class="st155" d="M36.5,41.7c-0.5-0.1-0.3-2.2-1.6-0.6c-0.4,0.4-1.6,0.5-1.2-0.9c0.2-0.7-0.2-1.3-0.5-1.9
		c-0.1-0.3-0.5-0.7-0.4-0.7c2.2-1.8-1.3-4,0.5-5.8c0.1-0.1-0.1-0.6-0.2-0.6c-1.4,0-0.9-1.4-1.5-2c-0.4-0.7-0.7-1.4,0-2
		c1.6-1.4,1.2-3,0.7-4.6c-0.3-0.8,0-1.5,0.4-2c0.8-1.1,1.9-0.4,2.8-0.2c0.2,0,0.3,0,0.5,0c0.1,0.2,0,0.5-0.2,0.6
		c-2.5,0.5-1.6,2.4-1,3.6c0.7,1.3,0.5,2.3,0,3.3c-0.4,0.9-0.7,1.6-0.1,2.5c0.7,1-0.3,2.7,0.3,3c0.8,0.5,1.8,0.8,2.1,1.9
		c0.1,0.2,0.1,0.4,0.2,0.6C37,38,38.5,39.2,40,40.3c0.3,1.5,2.2,1.7,2.7,3.1c0.2,0.2,0.3,0.5,0.3,0.8c-0.1,0.9-1.1,1.6-0.2,2.6
		c0.1,0.2,0.1,0.4,0.1,0.6c-0.6,0.7-1,1.6-1.4,2.5c-0.4,1-1.5,0.2-2,1.1c-0.4,0.7-1.6,0.1-2.4,0c-0.2-0.1-0.4-0.2-0.5-0.4
		c0.4-0.6,0.9-1.2,1.3-1.8c2.4-0.4,1.8-2.8,2.7-4.2c0.5-0.4,0.8-0.8,0.1-1.3c-0.8-0.5-1.8-0.4-2.3-1.4C38,41.1,37.2,41.3,36.5,41.7z
		"/>
	<path class="st41" d="M27.1,24.8c-0.1-0.5-0.9-0.8-0.7-1.6c0.7,0.1,1.3,0.2,2,0.3C28.2,24,27.7,24.5,27.1,24.8z"/>
	<path class="st41" d="M28.9,21.7c0.3,0,0.6,0,0.9,0c-0.4,0.6-0.9,1.2-1.3,1.8C28.4,22.8,28.6,22.2,28.9,21.7z"/>
	<path class="st156" d="M38.3,17.7c0.1,0,0.3,0,0.4,0c1.1-0.9,2.7-1,3.6-2.2c0.9-0.2,1.8-1.4,2.7,0c-1.3,0.6-1.9,1.5-1.3,3
		c0.3,0.8,0.2,1.9-0.6,2.2c-2.1,0.9-2,2.7-2.2,4.5c0.1,0.5-0.5,0.8-0.1,1.4c0.8,1.1,1,2.3,0,3.5c-0.4,0.5,0,1.3-0.2,1.9
		c-0.3,1,0,2.3-1.3,2.7c-0.5-0.5-0.7-0.2-0.9,0.3c-0.3,0.5-0.6,1.1-1.3,0.5l0,0c-0.7-2-1.5-4,0.2-5.9c-0.9-0.5-2.8-0.5-1.1-2.3
		c0.3-0.3,0.3-0.7,0.1-1c-1-1.6-0.8-3.1,0.5-4.5c0.5-0.6,0-1.3,0.3-1.9l0,0C37.7,19.3,37.9,18.5,38.3,17.7z"/>
	<path class="st157" d="M40.5,25.2c0.2-1.8-0.7-4.1,2.2-4.8c0.6-0.1,0.8-1.1,0.5-1.9c-0.8-1.8-0.1-3,1.8-3.1
		c0.8,0.6,1.3,0.1,1.8-0.5c0.8,0.2,1.5,0.6,2.2,0.9c-0.6,1.3-2.2,1.4-3.1,2.2c-0.3-0.3-0.7-0.5-0.9-0.9c0.2,0.4,0.6,0.6,0.9,0.9
		c0.1,2.6-0.8,5-0.9,7.6c-0.7,0.8-1.2,1.9-2.6,1.5c-0.7-1.1,1-1.8,0.6-2.9c-0.3,0.2-0.1,0.6-0.2,0.9c-0.2,0.5-0.6,0.8-1.2,0.8
		C41,25.9,40.7,25.6,40.5,25.2z"/>
	<path class="st138" d="M44.1,12.8c0.4-0.9,0.6-1.9,1.8-2.2c0,0,0,0,0,0c0.3,0.6,0.3,1.5,1.3,1.3c1.3,0.5,2,1.3,0.9,2.6
		c-0.4,0.4-0.9,0.4-1.3,0c0.2-0.8,1.2-2-0.9-1.4C45.3,13.3,44.5,13.4,44.1,12.8z"/>
	<path class="st105" d="M42.3,15.4c0,2.7-2.4,1.5-3.6,2.2c0.3-0.4,0.6-0.9,0.9-1.3c0.6-0.3,1-1,1.8-0.9C41.7,15.4,42,15.4,42.3,15.4
		z"/>
	<path class="st136" d="M46.7,14.6c0.4,0,0.9,0,1.3,0c0.9,0.1,0.9,0.7,0.9,1.4c-1.2,0.8-1.7,0-2.2-0.9
		C46.7,14.8,46.7,14.7,46.7,14.6z"/>
	<path class="st158" d="M36.9,19.9c0.7,0.9,1.3,1.7-0.1,2.7c-1.1,0.7-1.1,2-0.3,3.1c1,1.2,1.4,2.2-0.7,2.5c0.1,0.3,0.2,0.5,0.3,0.5
		c1.7,0.5,2.4,1.2,1.3,2.2c-1.7,1.7,0.2,3.2-0.4,4.6c-0.7-1.2-0.7-1.2-3.5-1.6c1.5-1.3,1.7-2.7,0.4-4.2c-0.3-0.4-0.5-0.8-0.1-1.4
		c0.9-1.3,2.4-2.6,0-3.8c1.3-1.1-0.4-1.8-0.3-2.7c0.2-1.5,2-0.6,2.7-1.5C36.3,20.2,36.6,20,36.9,19.9z"/>
	<path class="st158" d="M38.3,17.7c0,1,0.1,2.1-1.3,2.2c0.3-0.7,0.6-1.5,0.9-2.2C38,17.7,38.1,17.7,38.3,17.7z"/>
	<path class="st159" d="M43.2,57.2c1.8-1.1,3.1-0.6,3.8,1.2c0.3,0.7,0.3,1.4,1.4,1.8c1.3,0.5-1.1,1.8-0.2,2.9c-1.8,0.5-1.1,1.8-1,3
		c0.8,1.3-0.5,2.4-0.2,3.7c-0.1,0.2-0.2,0.4-0.4,0.5c-0.2,0.1-0.4,0.1-0.6,0.1c-0.2-0.1-0.3-0.2-0.5-0.4c0.2-1.8-1.5-1.3-2.2-1.8
		c-0.5-0.7-1-1.3-1.2-2.1c0-0.3,0.3-0.5,0.6-0.7c1.7,0.6,0.2-0.9,0.7-1.1c0.2-0.8,0.8-1.4,1.2-2.1c1-1.8,0.8-2.2-1-2.6
		c-0.6-0.3-1.3-0.2-1.9-0.2c-0.7,0-1.4-0.1-1.2-1.1C41.1,57.6,42.3,57.7,43.2,57.2z"/>
	<path class="st160" d="M36.9,50.6c0.8,0.1,1.6,0.1,2.3,0.2c0.2-0.6-1.3-0.6-0.6-1.3c0.4-0.4,0.9-0.1,1.3,0.3
		c0.9,0.8,1.3-0.3,1.3-0.7c-0.1-1.1,0.7-1.5,1.4-2c0.8-0.4,1,0.1,1,0.7c0,1.1-0.6,1.9-1.2,2.7c-0.1,0.1-0.2,0.1-0.3,0.2
		c-1,1.2,0.1,2.8-0.9,4c-0.3,1.3-1.1,0.8-1.8,0.5C39,54.6,39,54,39.4,53.3c-1.5,0.4-2.8,0.6-2.8-1.5C36.5,51.3,36.6,50.9,36.9,50.6z
		"/>
	<path class="st161" d="M46.7,70.1c-1-1.5,0.5-2.6,0.5-4c0.9,0.4,1.8,0.9,2.6,1.3c0.6,1.4-1.1,2.7,0,4c-0.1,0.7-0.1,1.4,0,2.1
		c-0.1,0.2-0.3,0.3-0.4,0.5c-0.4,0.5-0.7,1-1.5,1c-0.8-0.2-1.3-0.9-1.8-1.5c-0.6-0.6-1-1.4,0.1-1.9C47.1,71.4,46.6,70.7,46.7,70.1z"
		/>
	<path class="st162" d="M39.6,54.6c0.6,0.6,1.2,0.6,1.8,0c0.3,0.1,1.2-0.1,0.8,0.4c-1.1,1.5,0.1,1.8,1,2.3c-0.8,0.5-1.4,1.7-2.7,0.9
		c-0.1-0.1-0.2-0.1-0.3-0.2c-0.6-0.7-1.1-1.4-1.8-1.9c-0.6-0.5-1.6-1-1-1.8C38.1,53.2,38.9,54.1,39.6,54.6z"/>
	<path class="st163" d="M42.7,50.6c0,0.7,0,1.5,0,2.2c-0.7-0.6-0.3-1.5-0.4-2.2c0,0,0,0,0,0C42.4,50.4,42.6,50.4,42.7,50.6z"/>
	<path class="st164" d="M42.7,50.6c-0.1,0-0.3,0-0.4,0c0.4-1.2,1.6-2.2,0.4-3.6v0c-0.5-0.9,0.4-1.8,0-2.7c0-0.3,0-0.6,0-0.9
		c1.6-0.6,3.3-1.2,4.9-1.8c0.6,0,0.6-0.6,0.9-0.9c0.3-0.3,0.6-0.6,0.9-0.9c1,2.1-1,3.1-1.8,4.4c-0.7,0.3-1.7,0.5-1.8,1.4
		c-0.2,1.6-1.4,2.7-2.2,4C43.3,50,43,50.3,42.7,50.6z"/>
	<path class="st163" d="M43.6,49.7c0-1.6,1.6-2.6,1.6-4.3c0-1,1.4-1.1,2.4-1c-1.1,0.9-1.1,2.3-1.6,3.4c-0.2,0.4,0.4,0.5,0.7,0.6
		c1.1,0.6,2.6-1.6,3.6,0.4c-0.1,0.8,0.3,1.6-0.4,2.2c-0.9-0.2-1.7,0-2.2,0.9c-0.5,0-0.8-0.3-0.9-0.8C46.3,49.4,45.1,49.1,43.6,49.7z
		"/>
	<path class="st165" d="M47.6,51.9c-0.3-1.2,0.8-1.3,1.5-1.7c0.5-0.2,0.7,0.3,0.7,0.8c-0.2,0.3-0.5,0.5-0.6,0.9
		C48.7,53.7,48.2,52.9,47.6,51.9z"/>
	<path class="st166" d="M42.7,83.9c-0.1-1.2-0.3-2.2-1.8-2.3c-0.4-1.6,0.9-1.5,1.7-1.5c0.8-0.1,1.6,0.1,2.3-0.2
		c1.3-0.1,2.7-0.2,1.9,1.9c-0.1,0.3,0.2,0.8,0.3,1.2c-0.8,0.3-1.6,1.6-2.3-0.1c-0.3,0.5-1.4-0.5-1.3,0.9
		C43.7,85.2,43.1,84.4,42.7,83.9z"/>
	<path class="st167" d="M43.9,84.7c1.4,0,1.8,0.5,1.8,1.2c0,0.2-0.5,0.6-0.5,0.6C44.5,86,44.9,85.2,43.9,84.7z"/>
	<path class="st61" d="M49.3,85.3c0,0.1,0,0.3,0,0.4c-0.4,0.3-0.9,0.6-1.3,0.9c0-0.7,0.3-1.1,0.9-1.3C49.1,85.1,49.2,85.1,49.3,85.3
		z"/>
	<path class="st124" d="M49.3,85.3c-0.1,0-0.2,0-0.4,0c0-0.1,0-0.3,0-0.4c0.6-0.7,1-0.1,1.5,0.2c0.1,0.1,0,0.4,0,0.5
		C50,85.5,49.7,85.4,49.3,85.3z"/>
	<path class="st117" d="M48,75c0.5-0.3,0.9-0.6,1.4-0.9c0,0.9,0.6,1.4,1.3,1.8c0.1,0.7-1.3,0.9-0.4,1.8c-0.5,1-1,1.9-1.4,2.9
		c-0.1,0.3,0.9,0.9-0.2,1c-0.6,0-0.9-0.4-1-1c-0.1-1.3-0.9-2.5-0.5-3.8C47.4,76.2,47.7,75.6,48,75z"/>
	<path class="st168" d="M49.8,73.6c-0.6-0.7-0.6-1.4,0-2.1C50.3,72.2,50.4,72.9,49.8,73.6z"/>
	<path class="st169" d="M42.7,65.7c-0.1,0.2-0.3,0.3-0.4,0.5c0.2,1.1,0.4,1.4,1.3,1.8c1.1,0,1.1,0,1.9-0.8c0.6,1,0.2,2,0.3,3
		c-0.3,1.9-2.2,3.2-1.8,5.3c0.7,0.3,1.7,0.3,2.2,1.3c-0.1,1.1-1.7,1.3-1.3,2.7c-1.9,0.9-3.9,0.7-5.8,0l0,0c-1-2.4-0.8-3.1,1.1-4.7
		c1.7-1.4,0.9-2.7-0.2-4c-0.1-0.1-0.2-0.3-0.3-0.5c-0.2-1.2-0.1-2.4,0.4-3.5c0.2-0.4,0.4-0.8-0.3-0.9c-0.2,0-0.4-0.1-0.5-0.2
		c-0.5-0.6-0.8-1.4-0.8-2.2c0.1-0.3,0.2-0.6,0.5-0.8c1.8-1.1,2.7,0.8,4,1.3c0.2,0.1,0.3,0.3,0.4,0.5C43.5,65,43.2,65.4,42.7,65.7z"
		/>
	<path class="st170" d="M46.3,76.8c-0.2,0-0.6,0-0.6-0.1c-0.6-1.4-2.7,0.6-2.8-1.1c-0.1-0.9,1.1-1.5,0.9-2.9
		c-0.2-1.1,1.9-1.3,2.1-2.6c0,0,0,0,0,0c0.3,0.3,0.6,0.4,0.9,0c0,0,0,0,0,0c1.2,1.3,1.4,2.2-1.1,2.2c0.9,1,1.7,1.8,2.4,2.7
		c0.6,1-0.2,1.4-0.9,1.8C46.9,76.3,46.6,76.8,46.3,76.8z"/>
	<path class="st171" d="M39.1,79.5c1.9,0,3.9,0,5.8,0c0,0.2,0,0.3,0,0.5c-0.3,0.7-0.5,1.3-1.6,0.8c-1-0.5-2-0.3-2.5,0.9
		c-1.3,1-1.8-0.5-2.6-0.9C38.5,80.4,39.2,80.2,39.1,79.5z"/>
	<path class="st172" d="M15.1,58.6c-0.8-0.6-1.2,0.2-1.8,0.5c-1.4-0.6-0.5-1.2,0-1.8c0.3-1.9-1.1-4.1,0.9-5.8c0.4,0.4,1,0.1,1.3,0.4
		l0,0c2.2,0.8,2.3,1,0.5,2.9c-0.4,0.5,0.5,2.1,1.5,2.4c0.4,0,0.8,0.1,1.1,0.4c-0.2,1-1.5,2.3-3,3.1c0-0.7-0.1-1.5-0.1-2.2
		c0,0-0.1-0.1-0.2-0.1C15.3,58.5,15.2,58.5,15.1,58.6z"/>
	<path class="st173" d="M12.2,46.1c0-0.9,0.1-1.6,0.7-2.1c0.4-0.2,0.9-0.3,0.5-0.9c-0.3-0.4-0.8-0.6-1.2-0.4
		c-1.2,0.7-1.9-0.1-2.3-0.9c-0.6-1,0.7-1.3,1.2-1.8c1-0.9,2,1.3,3.2,0.2c0.1-0.1,0.2,1,0.3,1.6C14.8,43.6,14.3,45.2,12.2,46.1z"/>
	<path class="st174" d="M17.4,57.7c-0.9,0.7-1.5,0.1-1.7-0.6c-0.2-0.9-0.4-2.1,0-2.8c0.8-1.3,1-1.2-0.1-2.4c0.2-0.3,0.4-0.6,0.4-0.9
		c0.1-0.4,0.2-0.7,0.6-0.8c0.6-0.1,0.4,0.5,0.6,0.7c0.5,0.7,0.7,1.4,0.6,2.2c0,0.7,0,1.3,0.9,1.4c0,0.4,0,0.9,0,1.3
		C18.2,56.5,17.9,57.1,17.4,57.7z"/>
	<path class="st175" d="M16.9,47.5c-0.2,0-0.5,0.1-0.7,0c-0.7-0.2-1.4,0.8-2-0.1c-0.6-0.8,0.3-1.2,0.4-1.8c0.2-1.1,1.3-1.2,2-1.4
		c0.6-0.2,0.9,0.8,0.3,1.3C16.3,46.2,16.6,46.8,16.9,47.5L16.9,47.5z"/>
	<path class="st176" d="M13.3,57.2c0.2,0.6-0.8,1.2,0,1.8c0,0.5,0.1,1-0.4,1.3c-0.7-1.4-1.7-2.7-1.3-4.5
		C12.7,55.6,12.8,56.7,13.3,57.2z"/>
	<path class="st174" d="M15.6,51.9c-0.6,0.2-1.2,0.7-1.3-0.4c1.2-0.3,0.6-1.7,1.6-2.3C15.5,50.1,15.6,51,15.6,51.9z"/>
	<path class="st172" d="M20,54.6c-0.4,0-0.9,0-1.3,0c0-0.3,0-0.6,0-0.9c0,0,0,0,0,0c0.7-0.4,1.2-0.1,1.4,0.6
		C20.1,54.4,20.1,54.5,20,54.6z"/>
	<path class="st171" d="M35.6,79c-0.1,0-0.3,0-0.4,0c-1.1-2.2-0.9-4.3,0.1-6.4c0.5-1.1-0.2-2.1-0.1-3.2c0.2-1,0.6-1.9,1.6-2.5
		c1.6,1.1,1.9-0.2,2.3-1.3c0.2-0.1,0.4-0.1,0.5,0.1v0c1.1,1.1,0,2.2,0.1,3.4c0,0.6-0.2,1.1,0.3,1.5v0c1.1,0.9,0.1,1.1-0.5,1.5
		c-1.2,0.7-2.7,1.2-1.2,3c0.5,0.6,0.2,1.3-0.4,1.7C37,77.4,36.5,78.4,35.6,79z"/>
	<path class="st177" d="M35.6,79c0.2-1.1,0.6-1.9,1.7-2.4c1.1-0.5,1.4-1.2,0.3-1.9c-1.6-1-0.5-1.3,0.2-2.2c0.7-0.9,2.4-0.4,2.4-1.9
		c2.1,0.8,2.7,3.3,0.7,4.4c-2.1,1.3-1.5,2.8-1.6,4.5c-0.3,0-0.6,0-0.9,0C37.3,79.7,36.4,80,35.6,79L35.6,79z"/>
	<path class="st178" d="M35.6,69.3c0.8,1.8,0.7,3.4-0.4,5.1c-1,1.5,0,3.1,0,4.7c-0.7-1.3-1.7-2.4-1-4.1c0.2-0.5-0.3-0.8-0.8-0.8
		c-0.4-0.2-0.6-0.6-0.8-1c-0.3-1,0.5-2.2-0.8-3c-0.5-0.3-0.3-1.2,0.1-1.8C33.4,67.8,34.3,69.5,35.6,69.3z"/>
	<path class="st132" d="M33.4,79c-0.3,0.2-0.6,0.3-0.9,0.5c-1-1.1-1.7-2.4-2.7-3.6c-0.1,0.6,0.7,1.4-0.3,1.9c-0.7,0-1.1-0.4-1.6-0.8
		c-0.3-1.1-2-1.6-1.4-3.1c0.1-0.4,0.1-0.8,0.3-1.2c0.3-0.5,0.8-0.8,1.2-0.3c0.9,1.1,1.4,0.1,2-0.2c0.9,0,1.9-0.7,2.6,0.4
		c-0.1,0.4-0.2,0.8-0.6,1.1c-1.6,0.5-0.4,1.6-0.2,2C32.5,76.8,32.9,77.9,33.4,79z"/>
	<path class="st171" d="M35.6,79c0.9,0.2,1.8,0.3,2.7,0.5C37.3,80.1,36.2,80.8,35.6,79z"/>
	<path class="st179" d="M32,73.7c0-0.4,0.1-0.7,0.4-0.9c0.2,0.1,0.3,0.2,0.5,0.4c0.2,0.3,0.3,0.6,0.5,1C32.7,75,32.4,74.2,32,73.7z"
		/>
	<path class="st80" d="M38.3,85.3c0.1-1.1,1.4-0.9,1.7-1.7c0,0.4,0,0.9,0,1.3C39.5,85.1,38.9,85.3,38.3,85.3z"/>
	<path class="st180" d="M29.4,77.7c0.9-0.8-0.4-1.2-0.4-1.9c0-0.4-0.1-0.9,0.4-1.1c0.3-0.1,0.7,0,0.7,0.3c0.3,1.8,2.4,2.6,2.4,4.5
		c0,0.1,0,0.3,0,0.4c-0.6-0.4-1.2-0.4-1.8,0c-0.3,0.2-0.5,0-0.6-0.3c-0.2-0.5-0.6-0.9-0.8-1.4C29.2,78,29.3,77.9,29.4,77.7z"/>
	<path class="st181" d="M30.3,79.5c0.1,0.1,0.3,0.3,0.4,0.4c0,0.1,0,0.3,0,0.4c-0.2,0.4-0.8,0.4-0.9,0.9c0.2,0.5,1.6,0.2,0.9,1.3
		c-0.6,0-1.3,0-1.3,0.9C28,83,28.2,81.8,28,80.8c-0.3-0.4-0.2-0.7,0.1-1.1C28.8,79.3,29.5,79.2,30.3,79.5z"/>
	<path class="st182" d="M29.8,81.3c-0.2-0.1-0.7-0.1-0.5-0.5c0.3-0.6,0.9-0.4,1.4-0.5c0.5,0.1,1.4-0.1,1.2,0.7
		c-0.1,0.8-0.8,0-1.3,0.2C30.4,81.4,30.1,81.3,29.8,81.3z"/>
	<path class="st59" d="M28.4,79.9c-0.1,0.3-0.3,0.6-0.4,0.9c-0.1,0-0.3,0-0.4,0c0.1-1.8-1.1-1.6-2.2-1.3c0,0,0,0,0,0
		c-0.3-1,0.2-1.6,1.1-1.9c0.7,0.1,1.3,0.5,1.9,0.8c0.2,0.1,0.3,0.3,0.4,0.5C28.8,79.2,28.8,79.6,28.4,79.9z"/>
	<path class="st140" d="M42.3,27c1.2,0.1,1.6-1.2,2.7-1.3c0.2,1,0.3,1.8-0.1,2.9c-0.5,1.1-1.1,2.8,0.6,3.8c-0.2,1,0.2,2.1,0,3.1l0,0
		c-0.7,0.6-1.2,1.4-2.2,1.4c-1.1-0.6-0.9-1.5-0.4-2.3c0.4-0.6,0.8-1.2,0.2-1.9c-0.1-0.1-0.3-0.3-0.4-0.5c-0.4-1.1-0.4-2.4-1-3.5
		C41.3,28,41.1,27.1,42.3,27z"/>
	<path class="st183" d="M45.4,35.4c-0.4-1-1.5-2.1,0-3.1c0.7-0.3,1.5-0.6,2.2-0.9c0.3,1.5-0.6,3-0.2,4.5
		C46.7,35.9,46.1,35.3,45.4,35.4z"/>
	<path class="st82" d="M50.7,15c0.6,0.2,0.9,0.7,0.9,1.3C50.7,16.3,50.7,15.6,50.7,15z"/>
	<path class="st93" d="M47.2,11.9c-2.4,1.5-0.9-0.8-1.3-1.3c0.5,0.3,0.6,1,1.3,0.9C47.2,11.6,47.2,11.7,47.2,11.9z"/>
	<path class="st93" d="M47.2,10.5c0.1-0.6-0.2-1.3,0.4-1.8C47.2,9.3,48.5,10.2,47.2,10.5z"/>
	<path class="st184" d="M26.7,77.7c-0.8,0.3-1,1.1-1.3,1.8c-0.8-0.2-1.9,0.5-2.2-0.9c0.2,0,0.3,0,0.5,0c0.5-0.6,0.5-1.5,1.4-1.7
		c0.7-0.1,1.3-0.2,1.8,0.5C26.7,77.5,26.7,77.6,26.7,77.7z"/>
	<path class="st87" d="M43.2,36.8c0.8-0.3,1-1.6,2.2-1.3c0.4,0.4,0.9,0.9,1.3,1.3c-1.6,0.7-1.1,2.4-1.8,3.6
		c-0.5,0.2-0.9,0.4-0.9-0.4l0,0c0.5-1.2-0.7-1.9-1-2.8C43.1,37,43.1,36.9,43.2,36.8z"/>
	<path class="st183" d="M43.1,32.3c1.1,0.6,1,1.4,0.3,2.1c-0.8,0.7-0.8,1.5-0.3,2.3h0c0,0.9,0.1,1.8,0,2.7c-0.3,0.3-0.3,1.4-1.1,0.8
		c-0.3-0.2-1.7,0.1-0.9-1.1c0-0.1,0-0.2,0-0.2c-1.6-0.6-0.8-2.7-2.1-3.5c-0.2-0.3-0.2-0.6,0-0.9c0.6-0.4,0.5-1.2,0.6-1.8
		c0.4-1.7,0.5-3.5,0.9-5.1c0.4-1.6-0.9-0.2-1.2-1c0.3-0.4,0.6-0.9,1-1.4c1,0.6,1.8,0.6,1.8-0.9c0-0.6-0.3-1.4,0.6-1.6
		c0.1,0,0.3,0.2,0.5,0.3c-0.6,0.8,0.9,1.6,0.1,2.3c-0.6,0.5-0.9,1.1-1.2,1.8c-0.4,0.3-0.6,0.9-0.4,1.1C43.2,29.3,42.6,31,43.1,32.3
		c-0.2,0.4-0.9,0.3-1.1,0.9C42.6,33.2,42.8,32.6,43.1,32.3z"/>
	<path class="st185" d="M39.2,34.6c0,0.3,0,0.6,0,0.9c0.1,1.7-0.5,3.5,0.9,4.9c-1.4,0.2-1.7-1.9-3.1-1.5c0-1.1,0-2.3,0-3.4
		c1.4-0.2,0.8-1.9,1.8-2.5C39.4,33.4,39,34,39.2,34.6z"/>
	<path class="st140" d="M43.2,39.5c-1.7-0.9,0.3-1.8,0-2.7c0.4,1,2.9,1.4,0.9,3.1C43.9,39.5,43.5,39.5,43.2,39.5z"/>
	<path class="st140" d="M44.1,39.9c0.2,0.4,0.5,0.4,0.9,0.4c0.4,0.2,1.2-0.7,1.4,0.4c-0.7,0.6-1.6,1.2-2.4,0.6
		C43.3,41,43.5,40.3,44.1,39.9z"/>
	<path class="st108" d="M48.5,40.8c-0.1,0.5,0.3,1.2-0.3,1.5c-0.5,0.2-0.5-0.3-0.6-0.6C47.8,41.3,48.1,40.9,48.5,40.8z"/>
	<path class="st180" d="M24.9,77.3c-0.5,0.3-0.6,1.1-1.3,1.3c0.1-0.6,0.1-1.3,0.2-2c-0.7,0.2-1.5,0.9-1.8-0.5
		c-0.1-0.6-0.5-1.2-1.2-1.5c-1.7-0.2-1.3-1.7-1.8-2.7c0.4-0.7,1.4-0.2,1.8-0.9c1-0.7,0-1.6,0.2-2.4c0.9,0,0.8,0.9,1.2,1.3
		c0.3,0.4,0.4,1.2,1,0.9c1-0.5,0-0.9-0.1-1.4c0-0.2,0-0.4,0-0.6c0.4-1.1,1.3-2.1-0.7-3c-1-0.4-1.5-2.2,0.2-3.2
		c0.7,0.6,1.2,1.7,2.4,1.1c0.2,0.1,0.4,0.2,0.5,0.4c0.4,0.9,0.4,1.9,0.8,2.7c0.2-0.7,0.1-1.4,0.7-2c0.2-0.1,0.4-0.1,0.6,0
		c0.5,0.6,0.6,1.4,0.6,2.2c-0.1,1-0.3,2,0.1,3c0.1,0.2,0.1,0.4,0.2,0.6c0,0.1,0,0.2,0,0.3c-0.4,0.6-1.1,0.6-1.7,0.7
		c-2.4,0-1.8,1.4-1.4,2.8c0.1,0.4,0.2,0.8,0.2,1.2C25.8,76.4,25.6,76.9,24.9,77.3z"/>
	<path class="st172" d="M25.4,63.9c-1.5,0.5-2,0.2-2.7-1.3c0.1-0.2,0.3-0.3,0.4-0.5c-1.7-0.9-0.7-2.2-0.6-3.3c0.2-2-1.3-3-2.5-4.2
		c0,0,0,0,0,0c0.5-0.5,1.2-0.5,1.8-0.6c0.7-0.1,1.7,1.1,1.9-0.6c0-0.3,0.8-0.4,1.2-0.1c0.8,0.7,0.6,1.4,0,2.1
		c-0.4,0.4-0.5,0.9-0.2,1.5c0.2,0.6,0.5,1.2,0.7,1.8c-0.2,0.9-1.8,1.6-0.4,2.7c0.3,0.3,0.5,0.7,0.5,1.1C25.6,63,25.7,63.5,25.4,63.9
		z"/>
	<path class="st126" d="M17.4,57.7c-0.1-1,0.4-1.6,1.3-1.8c0,0.6,0,1.2,0,1.8C18.2,57.7,17.8,57.7,17.4,57.7z"/>
	<path class="st186" d="M19.1,71.9c1.2,0.5,0.6,2.1,1.8,2.7c0,0.2,0,0.3,0,0.5c-1,0-1.9-0.1-2.5-1.1C17.9,73,18.6,72.5,19.1,71.9z"
		/>
	<path class="st187" d="M23.1,47c0.1-0.9-0.4-1.8,0-2.7c0.1,0.2,0.4,0.5,0.4,0.8c0.5,3.8,0.5,3.8,4.3,4.3c0.6,0.1,1.2,0.5,1.6-0.2
		c0.4-0.7-0.6-0.7-0.7-1.1c-0.1-0.3-0.1-0.7-0.2-1.1c1-1,1.6-1.9,0.2-3.2c-0.9-0.8-0.5-1.7,0.7-2.1c1,1.4,1.8,2.9,3.3,3.8
		c0.7-0.9-1-1.6-0.2-2.4c0.2-0.1,0.3-0.2,0.5-0.1c0.3,0.1,0.5,0.3,0.8,0.5c0.7,0.6,1.4,1.3,1,2.4c-0.6,0.6-1.5,0.6-2.1,1.1
		c-0.3-0.1,0.1,0.5,0,0.2c1.2-0.2,1.3,0.5,1.2,1.4c-0.2,0.3-0.5,0.6-0.8,0.6c-1.7,0.2-1.8,1-0.9,2.3c0.4,0.6,0.4,1.2,0,1.8
		c-0.4,0.4-0.9,0-1.3,0.2c-0.5,0.7-1.2,1.3-1.5,0.2c-0.5-1.5-1.7-1.3-2.7-1.7c-0.2-0.1-0.4-0.2-0.5-0.3c-1.1-1.4-2.4-0.6-3.7-0.5
		c0-0.4,0-0.9,0-1.3C22,48.6,22.6,47.8,23.1,47z"/>
	<path class="st188" d="M29.4,41.7c-0.4,0.7-1.1,1.3-0.1,2.2c1.8,1.6,1.6,2.1-0.8,3.1c-2.2-0.4-1.2-2.4-1.8-3.6
		c0-0.4,0.1-0.7,0.4-0.9C27.5,41.3,28,40.4,29.4,41.7z"/>
	<path class="st189" d="M23.1,43c0-0.4-0.1-0.9,0.2-1.1c0.6-0.6-0.6-1.7,0.4-1.9c0.9-0.2,1.6,0.5,2.5,1.5
		C24.4,40.9,24.9,43.7,23.1,43C23.1,43,23.1,43,23.1,43z"/>
	<path class="st190" d="M25.8,43.5c0,0.3,0,0.6,0.1,0.9c0.4,0.9,0.2,1.6-0.7,2c-0.5,0.3-0.9,0-1-0.5c-0.3-0.9-0.3-1.8,0.8-2.2
		C25.2,43.6,25.5,43.5,25.8,43.5L25.8,43.5z"/>
	<path class="st190" d="M27.1,42.6c0,0.4-0.1,0.7-0.4,0.9c-0.3,0-0.6,0-0.9,0c0,0,0,0,0,0C26.1,43,26.1,42,27.1,42.6z"/>
	<path class="st187" d="M32.9,43c-0.2,0-0.3,0-0.5,0c-0.2-0.6-0.8-1.2,0-1.8c0.1,0.2,0.3,0.3,0.4,0.5C33.3,42.1,33.3,42.6,32.9,43z"
		/>
	<path class="st191" d="M40.9,44.8c-1.1,0.5,0.4,2.1-1.1,2.5c0.6,2.2-1.2,1.3-2.1,1.5c-0.4-1,0-2.1,0.5-2.7c1.7-1.8-1.3-2.8-0.6-4.3
		c-0.4,0-0.9-0.1-1.3-0.1c0.7-0.6,1.7-0.8,2.1,0c0.5,1.2,2.1,0.2,2.4,1.4C41.4,43.6,41.4,44.2,40.9,44.8z"/>
	<path class="st126" d="M31.6,53.2c0.4-0.3,0.5-0.7,0.4-1.2c-1-2.8-1-2.8,1.8-3.7c0.4,0,0.6,0.1,0.9,0.4c0,0.2,0,0.3,0,0.5
		c-1.1,0.9-1.8,1.9-0.9,3.3c0.5,0.8,0.3,1.7-0.3,2.5c-0.6,0.6-0.9,2.2-2.2,1.1C30.2,55.3,30.5,54.1,31.6,53.2z"/>
	<path class="st191" d="M36.9,50.6c0,0.4,0,0.9,0,1.3c-0.6,0.8,0,1.7,0,2.5c0,0.5,0.1,1-0.3,1.5c-1,0.3-0.9-0.5-1.2-1
		c0.1-0.9-0.6-0.5-1-0.5c-0.2-0.1-0.3-0.2-0.4-0.4c-0.3-1.4-1.1-2.8,0.7-3.8c0.6,0.1,1.2,0.3,1.8,0.4C36.6,50.6,36.8,50.6,36.9,50.6
		z"/>
	<path class="st192" d="M34.7,48.8c-0.4,0-0.7-0.1-0.9-0.4c-0.2-0.3-0.4-1.1-0.7-0.9c-0.4,0.2-0.6,1.2-1.2,0.4
		c-0.5-0.8,0.3-1.2,0.8-1.5c0.6-0.4,1.3-0.7,2-0.6c0.6,0.1,0.9,0.5,1.1,1c0.1,0.7,0.1,1.3-0.6,1.6C35,48.5,34.8,48.6,34.7,48.8z"/>
	<path class="st132" d="M35.2,48.4c0.3-0.5,0.6-1.1,0.4-1.8c-0.5-1-1.3-1.9-0.9-3.1c0.1-0.3,0.1-0.6,0.3-0.8c0.4-0.5,0.5,0,0.7,0.3
		c0.8,1,2,1.8,0.5,3.2c-0.2,0.2-0.2,0.8,0,1C37.2,48.7,35.9,48.3,35.2,48.4z"/>
	<path class="st193" d="M34.7,50.1c-0.8,1.3-0.8,2.6-0.4,4c0.2,0.6-0.2,0.6-0.7,0.6c-0.1-0.1-0.2-0.1-0.2-0.2
		c0.6-0.8,0.3-1.6-0.1-2.2c-0.8-1.4-0.3-2.6,1.4-3.1C34.7,49.5,34.2,49.8,34.7,50.1z"/>
	<path class="st102" d="M32.9,43c0-0.4,0-0.9,0-1.3c1.4-0.2,1.4,0.8,1.4,1.7c-0.3,0.3-0.6,0.3-0.9,0C33.2,43.3,33.1,43.2,32.9,43z"
		/>
	<path class="st187" d="M33.4,43.5c0.3,0,0.6,0,0.9,0c0.1,0,0.3,0,0.4,0c0.3,1,0.6,2.1,0.9,3.1c-0.3-0.3-0.6-0.6-0.9-0.9
		C34.3,44.9,34.1,44,33.4,43.5z"/>
	<path class="st194" d="M16.5,34.3c0.6-1.1,1-1.7,1.8-1.2c0.1,0.1,0.3,0.4,0.2,0.5C18.1,34.5,17.4,33.9,16.5,34.3z"/>
	<path class="st126" d="M22.2,51c1.7-1.4,2.8-1.3,4,0.4c-0.3,0.7,0.2,1.1,0.6,1.6c0.2-0.8-1-0.8-0.6-1.6c1.7,0,3.4,0.2,3.5,2.7
		c0.6-0.7,0.1-1.6,1-1.8c0.5,0.7,0.6,1.6,0.1,2c-0.9,0.8-1,1.6-1.1,2.7c-0.1,1-1,0.8-1.4,0.2c-1-1.3-2.4-1.5-3.8-1.8
		c-0.1-0.7,1.2-1.3,0.2-1.9c-0.9-0.5-0.9,0.9-1.3,1c-1.1,0.2-2.3,0-3.4,0c-0.3-0.6-0.7-0.9-1.3-0.9c0.7-0.5,0.5-1.2,0.5-1.9
		c0-0.4-0.1-1,0.5-1c0.4,0,0.8,0.4,1,0.8c0.2,0.5-0.6,1.3,0.3,1.5c1,0.1,0.7-1.1,1.1-1.6C22.1,51.3,22.2,51.1,22.2,51z"/>
	<path class="st195" d="M23.1,47c0.2,1-0.3,1.9-0.9,2.7c-0.6,0.1-0.9,1.4-1,1.1c-0.2-1.6-3.3-1.1-2.3-3.4c0.3-0.7,1.1-1.2,1.1-2.1
		C21.5,45.1,21.6,47.3,23.1,47z"/>
	<path class="st160" d="M42.7,44.3c2.1,0.9,0,1.8,0,2.7C41.2,46.5,41.2,46.5,42.7,44.3z"/>
	<path class="st196" d="M40.9,44.8c0-0.6,0-1.2,0-1.7c0.5,0,0.8,0.2,0.8,0.8C41.8,44.4,41.6,44.7,40.9,44.8z"/>
	<path class="st197" d="M45.8,18.1c-1.2-0.1-1.2-0.1-1.7-1.8C45.3,16.9,45.3,16.9,45.8,18.1C45.8,18.1,45.8,18.1,45.8,18.1z"/>
	<path class="st198" d="M36.5,55.9c0-0.6,0-1.2,0-1.8c1.1,1.6,2.5,2.8,4,4c0,0,0,0,0,0c0.1,1.1,0.9,1,1.6,0.7
		c0.8-0.3,1.2-0.1,1.5,0.6c-0.1,0.1-0.1,0.1-0.2,0.2c-0.5,0.3-1.3,0.3-1.5,1c-0.1,0.3-0.3,0.5-0.5,0.7c-1.5-0.5-2.2,0.2-2.2,1.7
		c-0.1,0.1-0.3,0.3-0.4,0.4c-0.4,0.6,0.8,1.3-0.1,1.9c-1.1-0.1-1.3-0.9-1.2-1.8c0.2-2.2-0.5-4.2-1.3-6.2c-0.1-0.3-0.1-0.6,0-1
		C36.2,56.2,36.3,56.1,36.5,55.9z"/>
	<path class="st199" d="M41.4,61.3c0-0.3,0-0.6,0-0.9c0.8-0.3,1.1,1,1.9,0.7c0.5-0.4-0.1-1.1,0.3-1.6c0,0,0,0,0,0
		c0.7-0.7,1.2,0.4,1.8,0.1c0.4-0.2,0.9-0.9,1.2,0c0.2,0.5-0.3,0.7-0.8,0.8c-0.3,0-0.8,0.2-0.6,0.4c1.2,2-1.3,2.3-1.6,3.6
		c-0.1,0.2-0.3,0.2-0.4,0l0,0c-0.4-0.4-0.8-0.7-1.3-1C40.8,62.9,40.7,62.1,41.4,61.3z"/>
	<path class="st177" d="M43.6,67.9c-1.7,0.4-1.5-0.8-1.3-1.8C43.1,66.5,43.2,67.3,43.6,67.9z"/>
	<path class="st177" d="M43.2,64.4c0.1,0,0.3,0,0.4,0c0.2,0.6,0.4,1.2,0.6,2c-0.6-0.3-1-0.5-1.5-0.7C42.9,65.2,43,64.8,43.2,64.4z"
		/>
	<path class="st200" d="M46.7,70.2c0,0.4,0.1,1-0.3,1.1c-0.7,0.1-0.4-0.7-0.5-1.1C46.1,70.1,46.4,70.2,46.7,70.2z"/>
	<path class="st159" d="M40.5,58.1c-2.2-0.4-3.4-2-4-4c0-0.8-0.9-1.7,0.4-2.2c0.8,0-0.4,1.4,1,1.1c2.3-0.4,2.3-0.2,1.6,1.5
		c-0.3-0.1-0.6-0.1-0.9-0.2c-0.4-0.1-0.9-0.4-1.1,0.1c-0.2,0.5,0.3,0.7,0.7,0.9C39.5,55.9,40.4,56.7,40.5,58.1z"/>
	<path class="st177" d="M41.4,61.3c0,0.8-0.2,1.7,1,1.8c0.8,0.1,0.8,0.7,0.8,1.3c-0.9-0.1-1.7-0.5-2.3-1.2c-0.6-0.6-1.1-0.5-1.7-0.2
		c0.4-0.8-1.5-1.3-0.3-2.2C39.8,60.2,40.6,60.6,41.4,61.3z"/>
	<path class="st177" d="M40.6,69.4c0.4-0.8,1.1-0.8,1.6-0.9c1.1-0.2,1.7,0.7,2.4,1.3c0.1,0.1,0.1,0.5,0,0.6
		c-0.7,0.6-1.4-0.2-2.1-0.2C41.9,70,41.3,69.7,40.6,69.4z"/>
	<path class="st177" d="M40,70.6c-0.8-0.1-1.5-0.3-0.9-1.4c0.6-1.1,0.7-2.3,0.4-3.5c0.3,0.1,0.5-1,0.9-0.2c0.2,0.5,1.3,0.8,0.5,1.4
		C39.5,67.9,40.3,69.4,40,70.6z"/>
	<path class="st177" d="M38.7,65.3c0.2-0.6-0.8-1.2,0-1.8c0.3,0.7,0.6,1.5,0.9,2.2c-0.2,0-0.3,0-0.5,0
		C38.8,65.8,38.6,65.6,38.7,65.3z"/>
	<path class="st201" d="M28,67c-0.4-0.7-0.5-1.5-0.5-2.3c-0.2-0.3-0.3-0.6-0.2-0.9c0.7-1.8,2.3-3.2,2.2-5.5
		c-0.1-2.2,2.7-1.4,3.9-2.4c0.6-0.4,1,0.6,1.2,1.2c0.2,1.2,0.2,2.4-1.4,2.7c-0.8,0.2-0.8,1-0.9,1.6c-0.1,1.1,0.8,0.5,1.2,0.7
		c1.4,0.9,2.4,2.1,3.5,3.3c0.4,0.4,0.3,1.1-0.2,1.6c-0.4,0.7-0.9,1.5-1.3,2.2c-1.6,1.5-2.3-0.8-3.6-0.9c-0.1,0-0.2,0-0.3,0
		c-1-0.4-1.9-0.5-2.9,0C27.5,68.6,27.7,67.9,28,67z"/>
	<path class="st202" d="M36.9,67c-0.2-2-2.7-4.2-4.4-3.9c-0.5,0.1-0.7-0.1-0.8-0.5c-0.4-1,0.8-3,1.9-3.3c1.2-0.3,0.5-1.4,0.7-2
		c0.7-0.5,1.5-0.8,2.2,0c1.1,1.9,1.8,3.9,1.4,6.2c-0.1,0.8,0,1.5,0.8,1.8c0.1,0.1,0.3,0.3,0.4,0.4c0,0.3,0,0.6,0,0.9
		c0.1,0.9-0.2,1.8-1.1,2C36.9,68.8,37.7,67.3,36.9,67z"/>
	<path class="st201" d="M32.9,73.2c-0.2-0.1-0.3-0.2-0.5-0.4c-0.5-1.1-1.6,0.4-2.2-0.5c0.5-1.4,0.3-3.1,1.8-4c0,0,0,0,0,0
		c0.5,0.5-1.1,2.1,1.1,1.8C33.5,70.1,33,72.1,32.9,73.2z"/>
	<path class="st184" d="M32,68.4c-0.6,1.3-0.4,3-1.8,4c-0.8,1.4-1.5,3-2.6,0.2c-0.2,0.1-0.4,0.2-0.5,0.3c-1.3-0.3-1.4-0.9-0.4-1.8
		c0.6-0.1,1.3,0.2,1.8-0.4c0.3-0.4,1.2,1,1.3-0.4c0.2-0.2,0.5-0.3,0.7-0.6c0-0.1-0.1-0.1-0.1-0.1c-0.1,0.2-0.2,0.4-0.4,0.5
		c-0.4,0.6-1.1,0.2-1.5,0.5c-0.1-0.2-0.3-0.3-0.4-0.5c-0.7-1.1,0.8-1.4,0.8-2.3C30,67.3,31.2,67,32,68.4z"/>
	<path class="st203" d="M26.7,71c-0.4,0.7-0.2,1.3,0.4,1.8c0,0.4,0,0.9,0,1.3c-0.7,0.2-1.1,1.9-2.2,0.4c0-0.2,0-0.5-0.1-0.7
		C23.7,71.8,24.9,71.3,26.7,71z"/>
	<path class="st184" d="M24.9,74.6c0.9,0.7,1.4-0.6,2.2-0.4c-0.1,0.4-0.5,1.2-0.1,1.1c2-0.5,0.6,1.1,1,1.6c-0.1,0.3-0.3,0.5-0.6,0.6
		c-1-0.3-1.5-1.1-2.1-1.9C25,75.3,24.9,75,24.9,74.6z"/>
	<path class="st59" d="M27.6,77.3c0.2-0.2,0.3-0.3,0.5-0.5c0.6,0,1.1,0.4,1.3,0.9c0,0.1,0,0.3,0,0.4c0,0.7-0.4,0.8-0.9,0.4l0,0
		c-0.3-0.3-0.8-0.4-1-0.8C27.4,77.6,27.4,77.4,27.6,77.3z"/>
	<path class="st132" d="M28.5,78.6c0.4,0,0.7-0.1,0.9-0.4c0.4,0.4,1.3,0.4,0.9,1.3c-0.6,0.1-1.2,0.3-1.8,0.4
		C28.4,79.5,28.5,79,28.5,78.6z"/>
	<path class="st184" d="M27.6,77.7c0.3,0.3,0.6,0.6,0.9,0.9c-0.8,0-1.4-0.1-1.8-0.9c0,0,0,0,0,0C27,77.4,27.3,77.4,27.6,77.7z"/>
	<path class="st149" d="M27.6,77.7c-0.3,0-0.6,0-0.9,0c-0.5-0.6-1.2-0.4-1.8-0.4c0.3-0.5,0.5-1.1,0.4-1.8c1,0.2,1.4,1.3,2.2,1.8
		C27.6,77.4,27.6,77.6,27.6,77.7z"/>
	<path class="st204" d="M43.2,32.3c0,0.4,0,0.7-0.1,1.1c-0.2,0.8-0.8,0.7-1.4,0.6C41.2,34,41,33.6,41,33.1c0-0.7,0.5-0.8,1.1-0.8
		C42.4,32.3,42.8,32.3,43.2,32.3z"/>
	<path class="st205" d="M27.6,63.9c0,0.3,0,0.6,0,0.9c-0.1,0-0.3,0-0.4,0.1c-1.1,0.6-1.3-0.4-1.8-0.9c0,0,0,0,0,0
		c-0.1-0.4-0.7-0.9,0-1.3c1.1-0.6,0.2-0.9-0.2-1.3c-0.3-0.9,0.3-1.4,0.9-1.8C29.2,60.5,29.2,60.6,27.6,63.9z"/>
	<path class="st172" d="M25.4,63.9c0.6,0.2,1,1,1.8,0.9c0,0.8,0,1.6-0.7,2.4C25.2,66.4,25.4,65.1,25.4,63.9z"/>
	<path class="st172" d="M28.9,67.9c0.7,1.1-1.2,1.3-0.8,2.3c-0.7-1-0.7-2.1,0-3.1C28.1,67.5,27.8,68.5,28.9,67.9z"/>
	<path class="st206" d="M25.1,69.3c0.3,0,0.6,0.1,0.6,0.5c0,0.3,0,0.7-0.4,0.6c-0.2,0-0.5-0.3-0.6-0.5
		C24.5,69.6,24.7,69.3,25.1,69.3z"/>
	<path class="st193" d="M27.6,63.9c0.7-1.8,1-3.5-1.4-4.5c-0.3,0.6-1.4,0.8-1.1,1.8c0,0.2-0.1,0.4-0.2,0.5c-2.4-1.4-0.6-2.2,0.5-3.1
		c-0.2-0.3-0.1-0.7,0-1.1c0.1-0.3,0.1-0.6-0.4-0.5c-0.2,0-0.3-0.1-0.4-0.2c-0.7-0.4-1.4-0.9,0-1.3c2.2-1.1,3.3,0.7,4.6,2
		c0.5-0.6,0.4-1.2,0.1-1.7c-0.8-1.1-1.5-1.7,0.7-1.1c1.3,0.3,0.6-1.4,0.8-2.2c0.3,0.3,0.6,0.6,0.9,0.9c-0.1,0.3-0.2,0.7-0.3,1
		c-0.2,0.7-0.3,1.4,0.3,1.8c1,0.5,0.7-0.8,1.2-1.1c0.2-0.1,0.4-0.2,0.5-0.4c0,0,0,0,0,0c0.7,0.6,1.1,0.5,1.3-0.4
		c0.4,0,0.4-0.9,1-0.5c0.4,0.3,0,0.6-0.1,0.9c0.4,0.6,0,1.5,0.9,1.8c0,0.3,0,0.6,0,0.9c-0.7,0-1.5,0-2.2,0c-0.3-0.3-0.4-1.3-0.9-0.8
		c-1,1.1-3.9,0.2-3.4,2.3C30.6,61.4,28.5,62.3,27.6,63.9z"/>
	<path class="st207" d="M24.9,61.7c0-0.1,0-0.3,0.1-0.4c0.1-0.2,0.2-0.3,0.4-0.1c0.8,0,1.6,0.1,2,0.9c-0.6,0.7-1.4,0.3-2,0.4
		C25.2,62.3,25.1,62,24.9,61.7z"/>
	<path class="st208" d="M24.5,56.8c0.1,0,0.3,0,0.4,0c0.9-0.3,0.5,0.7,0.9,0.9c-0.1,0.3-0.3,0.6-0.4,0.9
		C24.2,58.4,24.6,57.5,24.5,56.8z"/>
	<path class="st209" d="M34.7,54.1c0.2,0.5,0.8,1.2,0.2,1.5c-0.8,0.4-1.1-0.5-1.5-1.1c0.4,0,0.7-0.1,0.9-0.4
		C34.4,54.1,34.5,54.1,34.7,54.1z"/>
	<path class="st202" d="M36.5,56.4c-1.2-0.1-0.8-1.1-0.9-1.8c0.3,0.4,0.6,0.9,0.9,1.3C36.5,56.1,36.5,56.2,36.5,56.4z"/>
	<path class="st210" d="M26.3,51.5c0.1,0.1,0.2,0.3,0.3,0.3c0.7,0.3,1.7,0.5,1.3,1.6c-0.2,0.5-0.6,0.9-1.2,0.5
		C25.9,53.2,25.3,52.5,26.3,51.5C26.3,51.5,26.3,51.5,26.3,51.5z"/>
	<path class="st211" d="M43.6,59.5c0.3,0.7,0.6,1.5,0.9,2.4C43,62,42,61.6,41.4,60.4C41.7,58.9,42.8,59.6,43.6,59.5z"/>
	<path class="st212" d="M29.8,70.1c0-0.8,0.1-1.5,1.3-2.4C30.7,69,32.5,70.7,29.8,70.1L29.8,70.1z"/>
	<path class="st212" d="M29.8,70.1c0,0.4,0,0.9,0,1.5c-0.5-0.4-0.9-0.7-1.3-1c0,0,0,0,0,0C28.6,69.4,29.4,70.3,29.8,70.1
		C29.8,70.1,29.8,70.1,29.8,70.1z"/>
	<path class="st172" d="M25.4,61.2c-0.1,0-0.3,0-0.4,0.1c-0.2-1.1,0.5-1.5,1.3-1.8C26,60.1,25.7,60.6,25.4,61.2z"/>
	<path class="st213" d="M27.8,58.9c-0.9-0.2-1.3-0.5-1.3-1.2c0-0.1,0.3-0.4,0.4-0.4C27.7,57.5,27.9,58,27.8,58.9z"/>
	<path class="st172" d="M25.8,57.7c-0.3-0.3-0.6-0.6-0.9-0.9c0.2-0.4,0.7-0.7,1-0.5C26.5,56.7,25.6,57.2,25.8,57.7z"/>
</g>
</svg>
