<?xml version="1.0" encoding="utf-8"?>
<!-- Generator: Adobe Illustrator 25.0.0, SVG Export Plug-In . SVG Version: 6.00 Build 0)  -->
<svg version="1.1" id="Layer_1" xmlns="http://www.w3.org/2000/svg" xmlns:xlink="http://www.w3.org/1999/xlink" x="0px" y="0px"
	 width="105.5px" height="129px" viewBox="0 0 105.5 129" style="enable-background:new 0 0 105.5 129;" xml:space="preserve">
<style type="text/css">
	.st0{fill:#48A6DD;}
	.st1{fill:#FFFFFF;}
	.st2{fill:#231F20;}
	.st3{fill:#14140F;}
	.st4{fill:#E2DFC9;}
	.st5{fill:#E8E7D3;}
	.st6{fill:#292B21;}
	.st7{fill:#C9C6B1;}
	.st8{fill:#A6A68E;}
	.st9{fill:#DCD9C3;}
	.st10{fill:#23231A;}
	.st11{fill:#DEDDCB;}
	.st12{fill:#BCBAA4;}
	.st13{fill:#CFCCB8;}
	.st14{fill:#A5A38F;}
	.st15{fill:#0E0E0A;}
	.st16{fill:#0A0B05;}
	.st17{fill:#BAB9A3;}
	.st18{fill:#767669;}
	.st19{fill:#2A2B1F;}
	.st20{fill:#8D8E79;}
	.st21{fill:#3A392F;}
	.st22{fill:#3D3E38;}
	.st23{fill:#696A60;}
	.st24{fill:#454538;}
	.st25{fill:#2E2F25;}
	.st26{fill:#616153;}
	.st27{fill:#0E0E09;}
	.st28{fill:#7C7E6F;}
	.st29{fill:#1A1A19;}
	.st30{fill:#535449;}
	.st31{fill:#B4B1A4;}
	.st32{fill:#323328;}
	.st33{fill:#24251D;}
	.st34{fill:#292A1F;}
	.st35{fill:#C0BDA3;}
	.st36{fill:#706F5B;}
	.st37{fill:#4E4E3D;}
	.st38{fill:#434636;}
	.st39{fill:#A29F87;}
	.st40{fill:#A09D85;}
	.st41{fill:#B9B69F;}
	.st42{fill:#8D8A75;}
	.st43{fill:#8A8873;}
	.st44{fill:#92937A;}
	.st45{fill:#CDCAB4;}
	.st46{fill:#5E5C4B;}
	.st47{fill:#47483B;}
	.st48{fill:#676658;}
	.st49{fill:#898670;}
	.st50{fill:#666352;}
	.st51{fill:#302F25;}
	.st52{fill:#484739;}
	.st53{fill:#63614E;}
	.st54{fill:#3D3D30;}
	.st55{fill:#5B5948;}
	.st56{fill:#706D58;}
	.st57{fill:#8B8872;}
	.st58{fill:#97947D;}
	.st59{fill:#75725F;}
	.st60{fill:#86856F;}
	.st61{fill:#A8A48F;}
	.st62{fill:#545342;}
	.st63{fill:#797661;}
	.st64{fill:#6F6B58;}
	.st65{fill:#62604D;}
</style>
<g>
	<path class="st0" d="M90.8,126.5H15c-2.2,0-4-1.8-4-4v-23c0-2.2,1.8-4,4-4h75.8c2.2,0,4,1.8,4,4v23C94.8,124.7,93,126.5,90.8,126.5
		z"/>
	<g>
		<path class="st1" d="M31.9,113c-0.1-2-0.1-4.4-0.1-6.8h-0.1c-0.5,2.1-1.2,4.4-1.8,6.4l-2,6.4H25l-1.8-6.4
			c-0.5-1.9-1.1-4.3-1.5-6.4l0,0c-0.1,2.2-0.2,4.8-0.3,6.8l-0.3,6.3h-3.4l1.1-16.5h5l1.6,5.5c0.5,1.9,1,4,1.4,5.9h0.1
			c0.5-1.9,1-4.1,1.6-5.9l1.8-5.5h4.9l0.9,16.5h-3.6L31.9,113z"/>
		<path class="st1" d="M53.7,110.9c0,5.4-3.3,8.7-8.1,8.7c-4.9,0-7.7-3.7-7.7-8.4c0-4.9,3.2-8.6,8-8.6
			C51,102.6,53.7,106.3,53.7,110.9z M41.8,111.1c0,3.2,1.5,5.5,4,5.5s4-2.4,4-5.6c0-3-1.4-5.5-4-5.5
			C43.3,105.5,41.8,107.9,41.8,111.1z"/>
		<path class="st1" d="M71.2,110.9c0,5.4-3.3,8.7-8.1,8.7c-4.9,0-7.7-3.7-7.7-8.4c0-4.9,3.2-8.6,8-8.6
			C68.5,102.6,71.2,106.3,71.2,110.9z M59.3,111.1c0,3.2,1.5,5.5,4,5.5c2.5,0,4-2.4,4-5.6c0-3-1.4-5.5-4-5.5
			C60.8,105.5,59.3,107.9,59.3,111.1z"/>
		<path class="st1" d="M73.7,119.3v-16.5H78l3.4,6c1,1.7,2,3.8,2.7,5.6h0.1c-0.2-2.2-0.3-4.4-0.3-6.9v-4.8h3.4v16.5h-3.9l-3.5-6.4
			c-1-1.8-2.1-3.9-2.9-5.8h-0.1c0.1,2.2,0.1,4.5,0.1,7.2v5h-3.3C73.7,119.2,73.7,119.3,73.7,119.3z"/>
	</g>
</g>
<circle class="st2" cx="53" cy="52.3" r="51.2"/>
<g>
	<path class="st3" d="M21.7,40.2c0.2,3.2-0.8,6.4-0.5,9.6c0.3,2.8,0.2,5.7,1.1,8.5c0,0.1,0.1,0.3,0.1,0.4c-2.2,3.9,0.6,7.5,1,11.2
		c0.1,1.2,0.8,2.8,1.8,3.9c0.5,0.5,0.8,0.9,0.1,1.5c-0.2,0.2-0.4,0.2-0.7,0.2c-0.6-0.2-0.9-0.8-1.2-1.3c-3.3-5.7-4.4-11.9-4.3-18.4
		c0.1-3-0.3-6-0.2-9.1c0.1-2,1.1-3.9,0.7-5.9c0.3-1.4,0.3-2.7,0.2-4.1c0.8-2.8,1.4-5.7,2.3-8.5c0.4-0.7,0.7-1.4,1.7-1
		c0.2,0.2,0.3,0.4,0.3,0.7c0.3,1.7-1.1,2.9-1.4,4.4C22.3,34.8,22.4,37.6,21.7,40.2z"/>
	<path class="st4" d="M1.9,49.7c0.1-8.8,3-16.9,7.7-24.3c1.4,0.2,0.9,1.1,0.6,1.8c-0.8,1.6-1.4,3.3-2.5,4.8
		c-0.6,0.8-0.9,1.7-1.1,2.7c-1.3,5.5-2.2,11-1.2,16.7c0.7,2.5-0.4,5.2,0.5,7.7c0.1,0.4-0.1,0.9,0.2,1.3c0.4,0.5,1.1,1,0.3,1.7
		c-0.7,0.6-1.5,0.7-2.3,0.1c-1-0.1-1.2-0.7-1.2-1.6c0.1-1.7-0.2-3.4,0.4-5.1c0.2-0.6,0.2-1.2,0.1-1.8c-0.4-1.6-0.8-3.2-0.4-4.6
		C3.1,49.5,3,50,1.9,49.7z"/>
	<path class="st5" d="M1.9,49.7c1,0.1,0.8-0.9,1.1-1.3c1.3,3.9,0.8,8,0.3,12c-0.1,0.7,0,1.2,0.9,1c1.2,2.5,2,5.1,2.5,7.8
		c0.1,0.8,0.3,1.5-0.2,2.2c-0.2,0.3-0.5,0.5-0.8,0.4C2.6,64.6,1.2,57.3,1.9,49.7z"/>
	<path class="st6" d="M30,86c1,1.8,1.4,4,3.7,4.9c0.3,1.5,1.2,2.6,2.3,3.6c1.2,2.1,3.4,3,5.3,4.3c0.8,0.5,0.8,0.9,0.7,1.5
		c-0.1,0.2-0.3,0.3-0.5,0.4c-1,0.2-1.8-0.6-2.7-0.8c-0.2-0.1-0.4-0.2-0.5-0.3c-1.2-1.2-2.8-2.1-3.7-3.6c-0.4-0.7-1.2-0.5-1.8-0.8
		c-0.2-0.1-0.3-0.3-0.4-0.5c-0.5-1.7-1.6-3-2.8-4.2c-1.1-1.1-2.1-2.4-1.5-4.1C28.7,85.9,29.2,85.5,30,86z"/>
	<path class="st7" d="M6,34.4c0.2-2.8,2.7-4.6,3.4-7.2c0.2-0.6,1.2-1.2,0.1-1.9c1.8-3.3,4.3-6.2,7-8.9c0.7-0.1,1.5-1.3,2.2,0.1
		c0,0.2-0.1,0.4-0.2,0.6c-1,0.9-2.8,1.2-2.5,3c-1.5,1.8-2.7,3.6-3.2,5.9c-2.2,2.1-3.7,4.7-5,7.5C7.3,34,6.9,34.6,6,34.4z"/>
	<path class="st8" d="M33.6,99.6c-1.9-0.7-3.8-1.5-5.5-2.7c-1.6-1.6-3.1-3.3-4.7-4.8c-1.3-1.1-2.4-2.3-3.6-3.5
		c-0.1-0.2-0.2-0.4-0.2-0.6c0.1-1.1-0.7-2.1-0.7-3.2c0-0.4,0.1-0.8,0.4-1.1c1.3,0.4,1.7,1.7,2.6,2.6c0.4,1.8,2.1,2.7,3.3,4
		c1.7,1.9,3.4,3.8,5.4,5.5c0.5,1,1.3,1.7,2.4,2c0.7,0.4,1.4,0.7,1.7,1.4C34.4,99.8,34.1,99.8,33.6,99.6z"/>
	<path class="st9" d="M14.7,86.1c-0.6-0.8-1.2-1.5-1.8-2.3c0.3-0.5,0-0.9-0.4-1.3c-1.6-1.6-2.3-3.7-3.4-5.5
		c-0.5-0.8-0.4-1.7-0.2-2.6c0.1-0.3,0.3-0.7,0.6-0.9c0.3-0.3,0.6-0.6,1-0.4c0.5,0.2,0.5,0.8,0.2,1.2c-0.6,0.8-0.4,1.1,0.5,1.5
		c1.3,0.5,1.3,2.6,2.5,2.8c1.9,0.3,2,1.9,3.1,2.8c0.2,0.1,0.3,0.4,0.4,0.6c0.1,0.2,0.1,0.4,0,0.6c-0.5,0.9-2.1,1.1-1.4,2.7
		C16,85.5,15.5,86.3,14.7,86.1z"/>
	<path class="st10" d="M30,86c-0.6,0.1-1.2,0.3-1.8,0.4c-1.7-0.7-2.4-2.5-3.9-3.4c-0.3-0.4-0.6-0.9-0.6-1.4c0.6-1.1-1-1.1-0.9-1.9
		c-0.1-0.4-0.1-0.8,0.1-1.2c0.5-0.6,0.9-1.3,1.2-2c0.2-0.4,0.4-0.9,0.8-1.2c0.2,0,0.3,0,0.5,0C25.6,79.4,27.9,82.6,30,86z"/>
	<path class="st11" d="M9.2,74.4c0.3,1.1-0.8,2.8,1.5,2.9c0.1,0,0.3,0.4,0.3,0.5c-0.9,2.4,1.1,3.3,2.4,4.6c0.4,0.4,0.5,0.3-0.5,1.4
		C9.7,80.2,7.4,76,5.6,71.7c0.1-0.1,0.3-0.3,0.4-0.4c0.7-0.5,1.3-0.2,1.4,0.4c0.2,1,1,0.5,1.5,0.8C9.6,73,9.7,73.6,9.2,74.4z"/>
	<path class="st12" d="M19.8,88.3c2,1.6,4,3.2,5.7,5.1c0.8,0.8,0.9,2.2,2.8,2.1c0.8-0.1,0.9,1-0.2,1.4c-2.9-1.4-5.5-3.2-7.9-5.4
		c-0.1-0.8-0.8-1.2-1.3-1.7c-0.4-0.3-0.7-0.7-0.4-1.1C18.8,88.1,19.2,87.8,19.8,88.3z"/>
	<path class="st13" d="M19.8,88.3c-0.9,0.2-1.8,0.4-0.4,1.3c0.6,0.4,1.6,0.8,0.8,1.8c-2.1-1.5-3.9-3.4-5.5-5.4
		c0.7-0.6,1.4-1.3,0.3-2.1c-0.4-0.3-0.8-0.6-0.6-1c0.4-0.8,0.9,0,1.3,0.1c0.6,0.2,0.9-0.5,1.4-0.6c0.5,0.3,0.6,0.8,0.8,1.3
		c0.2,0.7,0.2,1.5,0.8,2.1c0.5,0.6,0.7,1.4,1.2,2C19.8,88,19.8,88.1,19.8,88.3z"/>
	<path class="st14" d="M21.2,12.3c0.2-0.4,0.6-0.6,1-0.8c0.8,0.1,1.2-0.3,1.4-1c1-1,2.3-1.7,3.6-2.3c1.7-0.2,1.4,0.7,1,1.7
		c-0.3,0.5-0.7,0.8-1.1,1.3c-0.8,1.3-1.5,2.6-3.1,3.2c-1-0.1-1.9,0.9-2.9,0.2C20.5,13.9,21.3,13.1,21.2,12.3z"/>
	<path class="st15" d="M24,27.6c0-0.2,0-0.3,0-0.5c-0.2-0.2-0.4-0.5-0.5-0.8c-0.3-0.9,0.5-1.5,0.7-2.3c0.4-1.6,1.6-2.8,1.7-4.5
		c0-0.8,1-1.7,2-1.9c0.1,0,0.2,0.1,0.3,0.1c0.6,1.5-0.6,5.4-1.9,6.3c-1.2,0.9-1.3,2.2-1.4,3.6C24.6,27.9,24.3,27.9,24,27.6z"/>
	<path class="st16" d="M24,27.6c0.3,0,0.6,0,0.9,0c0.7,2.4-1.7,3.9-1.7,6.1c0,2.3-0.1,4.5-1.5,6.5c-0.1-3.4,0.1-6.7,1.3-9.9
		C23.2,29.4,24.5,28.8,24,27.6z"/>
	<path class="st17" d="M21.2,12.3c0.5,0.1,1.2,0.2,0.5,0.9c-0.4,0.4-0.5,0.9-0.5,1.4c-0.7,1-1.3,2.1-2.8,2.2c-0.3-1.4-1.4,0-1.9-0.5
		C17.9,14.9,19.4,13.5,21.2,12.3z"/>
	<path class="st18" d="M29.5,7c0.8-0.7,1.7-1.1,2.7-1.4C33,5.3,33.1,6,33.4,6.4c0.1,0.2,0.1,0.4,0,0.6c-0.4,0.6-1.4,0.8-1.1,1.8
		c-0.5,0.5-1.1,0.6-1.8,0.7c-0.2,0-0.4-0.1-0.6-0.1C29,8.7,29.6,7.8,29.5,7z"/>
	<path class="st19" d="M39.6,3.9c-1.3,1.5-2.6,2.9-4.6,3.6C34.5,7,34.8,6.4,35,5.9c0.3-0.6,0.7-1.2,1.4-1.5
		C37.5,4.4,38.4,3.2,39.6,3.9z"/>
	<path class="st20" d="M29.5,7c1.4,0.5-0.4,1.6,0.5,2.2c-0.4,1.9-0.7,2-2.3,0.9c0.4-0.7,1-1.5-0.5-1.8C27.8,7.6,28.6,7.2,29.5,7z"/>
	<path class="st21" d="M30.5,9.3c0.5-0.4,1.1-0.5,1.8-0.5c0.5-0.1,0.9-0.1,1.4,0.1c0,0.3,0,0.6,0,0.9c-0.4,0.7-1.1,1-1.8,1.3
		c-0.2,0.3-0.4,0.5-0.5,0.8c-0.2,0.3-0.5,0.4-0.8,0.4c-0.2,0-0.4-0.1-0.6-0.2c-0.2-0.6,0.4-1.1,0.4-1.7C30.3,10,30.2,9.6,30.5,9.3z"
		/>
	<path class="st22" d="M39.6,3.9c-1.1,0.1-2,1.3-3.3,0.9c-0.3-0.2-0.8,0-1-0.5c1.3-0.5,2.6-0.9,4-1.4c0.4-0.1,0.8-0.2,0.9,0.2
		C40.4,3.5,40,3.7,39.6,3.9z"/>
	<path class="st23" d="M40,101.8c-1.1-0.3-2.1-0.6-3.2-0.9c0.3-0.3,0.4-0.6,0.4-1c0.1-0.3,0.3-0.5,0.6-0.6c0.3-0.1,0.6,0,0.9,0.2
		l0,0c0.8,0.7,1.9,1,2.7,1.6c0.1,0.2,0.2,0.4,0.1,0.6C41.1,102.1,40.5,102,40,101.8z"/>
	<path class="st24" d="M35.4,6c-0.1,0.5-0.2,1-0.3,1.5c0,1-1.1,0.3-1.4,0.9c-0.6-0.3-0.2-1-0.5-1.4c0-0.1,0-0.3-0.1-0.4
		c-0.3-0.6-0.1-1,0.5-1.2C34.3,5.1,35,5.2,35.4,6z"/>
	<path class="st25" d="M41.5,100.4c0.2,0,0.4,0,0.5-0.1c1.3-0.9,1.9,1.3,3.2,0.5c-0.3,0.6-1.1,0.6-0.9,1.3c0,0-0.1,0.1-0.1,0.1
		c-1,0-2,0-2.8-0.9l0,0C41.2,101,41.2,100.7,41.5,100.4z"/>
	<path class="st26" d="M35.4,6c-0.9-0.3-1.9-1-2.3,0.5c-0.3-0.3-0.6-0.7-0.9-1c0.9-0.7,2.1-1,3.2-1.4c0.4,0.1,0.8,0.1,1,0.5
		C36,5.1,35.7,5.6,35.4,6z"/>
	<path class="st27" d="M30.4,13.3c-0.7,1.5-0.6,3.4-2.3,4.5c0,0,0,0,0,0c-1-1.4,0.2-2.3,0.8-3.4c0.1-0.2,0.2-0.3,0.4-0.5
		c0.3-0.3,0.5-0.6,0.9-0.7C30.3,13.2,30.3,13.3,30.4,13.3z"/>
	<path class="st28" d="M37.3,100c0.2,0.3,0.4,0.5,0.5,0.8c-0.3,0-0.7,0.1-1,0.1c-1.1-0.3-2.3-0.6-3.2-1.3c0.3-0.2,0.6-0.3,1-0.5
		C35.7,98.7,36.6,99.1,37.3,100z"/>
	<path class="st29" d="M35.9,94.6c-1.8-0.5-2.7-1.7-2.3-3.6C34.5,92.1,35.5,93.1,35.9,94.6z"/>
	<path class="st30" d="M41.4,101.3c0.9,0.3,1.8,0.6,2.8,0.9c-0.3,0.2-0.6,0.3-0.9,0.5c-1-0.5-2.3-0.2-3.3-0.9
		C40.5,101.7,41.1,101.9,41.4,101.3z"/>
	<path class="st26" d="M33.2,7c0.5,0.3,0.4,0.9,0.5,1.4c0,0.1,0,0.3,0,0.4c-0.5,0.3-1,0.3-1.4,0C31.7,7.7,32.6,7.4,33.2,7z"/>
	<path class="st31" d="M23.5,10.6c0.3,0.1,0.9,0.5,0.7,0.5c-0.7,0.2-1.1,1.7-2,0.5C22.6,11.2,23.1,10.9,23.5,10.6z"/>
	<path class="st27" d="M31.8,11c0.6-0.4,1.2-0.9,1.8-1.3C33.6,10.8,32.8,11.1,31.8,11z"/>
	<path class="st27" d="M30.5,12c0.3,0,0.6-0.1,0.8-0.1c0.1,0.7,0.1,1.3-0.9,1.4c0,0,0,0,0,0C30.3,12.8,30.2,12.4,30.5,12z"/>
	<path class="st32" d="M24.9,75.3c0,0.5,0.1,1-0.5,1.3c-1.2,0.7-1.8,0-2.3-1c-0.1-1.9-2-2.9-2.3-4.6c-0.7-2-1.1-4.1-2.1-6
		c-0.1-0.2-0.2-0.4-0.2-0.6c-0.2-1.9,0-3.8-0.5-5.6c-0.1-0.5-0.1-0.9-0.1-1.4c-0.7-5.2-0.5-10.3,0.9-15.4c-0.2-0.4,0.8-1.1-0.3-1.2
		c-0.6-0.4-0.9-0.9-0.5-1.6c0.2-0.2,0.3-0.3,0.5-0.4c1-0.4,0.7-1.2,0.7-1.9c-0.1-3.3,1.2-6.4,1.7-9.7c0.1-0.7,0.3-1.7,1.6-1.2
		c0.5,0.8,0.4,1.7,0.4,2.6c-0.5,2.7-1.1,5.3-1.5,8c0.5,1.3,0.5,2.7,0,4c-1.4,3.8-1.7,7.9-1.5,11.8c0.3,5.9,0.5,12,2.7,17.7
		c0.6,1.6,1.9,2.7,2.5,4.2C24.3,74.7,24.6,75,24.9,75.3z"/>
	<path class="st33" d="M24,74.4c-3.1-2.8-3.8-6.4-4.6-10.2c-0.7-3.5-1-7-1.2-10.4c-0.2-3.1-0.1-6.3,0.8-9.4c0.4-1.2,0.5-2.5,1.3-3.6
		c-0.3,2.8-0.5,5.6-0.8,8.4c0,0.4-0.1,0.7-0.1,1.1c0.7,6.6,0.2,13.4,2.5,19.8C22.4,71.6,24,72.6,24,74.4z"/>
	<path class="st34" d="M20.3,36.6c-0.2-2.8,0.5-5.4,0.9-8.1c0.3-0.3,0.6-0.6,1.1-0.6c0.1,0,0.2,0.1,0.3,0.1
		C22.1,31,21.4,33.9,20.3,36.6z"/>
	<path class="st34" d="M24,26.3c0,0.3,0,0.6,0,0.9c-0.7-0.1-0.9,0.6-1.4,0.9c0,0,0,0,0,0C22,26.7,22.2,26,24,26.3z"/>
	<path class="st35" d="M6,34.4c0.4-0.3,0.9-0.6,1.3-0.9c2.1,0.6,3.1,2.6,1.6,3.4c-1.9,1-0.6,2.6-1.5,3.7c-1.2,1.5-0.9,3.2-1.1,4.9
		c-0.2,1.7,0,3.2,0.6,4.8c0.8,2.1,0.6,4.4,1.6,6.5c0.3,0.7,0.1,1.5-0.7,2c-0.2,0.1-0.5,0.1-0.7,0c-1.6-1.1-1.4-2.9-1.7-4.4
		c-0.2-1-0.3-2-1-2.9c-1-3.8-0.3-7.6,0-11.3C4.8,38.3,4.7,36.1,6,34.4z"/>
	<path class="st9" d="M4.6,51.4c1.6,0.9,1.5,2.6,1.8,4.1c0.2,1.1,0.4,2.1,1,3.1c0,2.1,0.8,4.3-0.3,6.4c-0.3,0.5,0.1,1.2,0.4,1.7
		c0.1,0.2,0.2,0.4,0.3,0.5c0.5,1.8,1.4,3.4,0.9,5.3c-1.6,0.8-1.4-1.7-2.7-1.4c0.6-1.8-0.6-3.4-0.9-5.1c-0.3-1.6-1.1-3.1-1-4.8
		c0.6,1,1.4,0.2,2,0.1c-1.5-1.9-1.5-4.2-1.4-6.4C4.9,53.8,5,52.7,4.6,51.4z"/>
	<path class="st36" d="M37.3,100c-0.9-0.3-1.8-0.6-2.7-0.9c-0.8,0-1.2-0.6-1.8-0.9c-0.9-0.6-1.6-1.4-2.3-2.2
		c-2.4-1.2-3.9-3.4-5.5-5.4c-0.1-1.6-0.1-3.2-1.3-4.6c-0.5-0.6-0.8-1.5,0.4-2c1.7,0.4,2.4,1.9,3.5,3c0.6,0.6-0.2,1-0.3,1.6
		c1-0.2,1.4,0.6,1.6,1.3c0.6,2.2,2.4,3.4,3.8,4.9c0,0.1,0.1,0.3,0.1,0.4c1.6,1.6,3.6,2.8,5,4.6C37.6,99.7,37.4,99.8,37.3,100z"/>
	<path class="st37" d="M32.6,94.6c-1.8-0.6-3-1.7-3.8-3.4c-0.4-0.8,0.2-3-2.2-2c-0.5,0.2-0.4-0.7-0.3-0.7c1.7-1.2,0.3-2-0.5-2.4
		c-0.8-0.5-0.8-1.7-1.9-1.7c-1-0.4-1.7-1-1.7-2.2c0.2-0.7,0.2-1.5,0.6-2.1c0.1-0.1,0.2-0.1,0.3-0.2c0.3,0.6,1.4,0.9,0.8,1.8
		c-0.3,0.6,0.2,1,0.5,1.3c1.8,0.6,2.5,2.3,3.6,3.6c0.5,1.9,1.5,3.4,3,4.7C32,92.1,32.9,93.1,32.6,94.6z"/>
	<path class="st38" d="M37.8,99.6c-2.2-1-4-2.4-5-4.6c1.2-0.3,2-0.1,2.6,1c0.7,1.5,2.7,1.9,3.4,3.5C38.4,99.5,38.1,99.6,37.8,99.6z"
		/>
	<path class="st38" d="M41.5,100.4c0,0.3,0,0.6,0,0.9c-0.9-0.6-2.5-0.2-2.8-1.8C39.8,99.2,40.4,100.4,41.5,100.4z"/>
	<path class="st39" d="M7.9,58.6c0.3-0.6,0.7-1.3,0.3-1.9c-1.7-2.3-1.2-5.1-2-7.6c-0.9-2.8-1.1-6.1,0.9-8.9c0.4-0.6,0.4-1.3,0.3-1.9
		c-0.1-0.5-0.6-1-0.1-1.5c0.5-0.5,0.5,0.8,0.9,0.4c0.8-0.7,1.3-1.7,0.7-2.7c-0.3-0.5-0.9-0.8-1.4-1.2c0.9-3,2.5-5.6,5.1-7.6
		c0.2-0.2,0.4-0.2,0.6,0c0.2,0.8-0.3,1.4-0.6,2.1c-0.6,1.4-0.5,2.7,0,4c-0.6,1.5-1.1,3.1-1.7,4.6C10,38.3,9.3,40.1,10,42
		c-0.4,1.4-1.1,2.6-1.4,4c-0.3,2.9-0.5,5.9,0.2,8.7c0.5,2,1.3,3.9,1.3,6c0,0.9,0.4,1.7,0.9,2.5c0.2,1.8,1.8,3.5,0.8,5.5
		c-0.9,0.5-1.1-0.2-1.2-0.7c-0.2-0.8-0.7-1.5-1.2-2C8.2,63.7,7.1,61.3,7.9,58.6z"/>
	<path class="st40" d="M12.9,25.8c-0.2,0-0.3,0-0.5,0c0.2-2.4,1.3-4.4,3.3-5.8c0.2-1.6,1.8-2.2,2.7-3.2c0,0,0,0,0,0
		c1-0.6,1.4-2,2.8-2.2c1,0.4,1.7-1.3,2.8-0.4c0,1.2-1,1.2-1.7,1.5c-1.4,0.6-2.4,1.4-2.6,3.1c-0.2,1.2-1,2-2,2.6
		c-1.1,0.7-2,1.6-2.6,2.8C14.5,24.9,14.3,26.1,12.9,25.8z"/>
	<path class="st17" d="M18.4,16.9c-0.4,1.5-2,2-2.7,3.2c-1.1-0.9,0.1-1.4,0.5-2C16.7,17.3,17.5,17,18.4,16.9z"/>
	<path class="st41" d="M9.7,65.8c1.6,0.5,1,2.2,1.8,3.1c1.8,0.7,2.7,2.3,3.1,3.8c0.9,3,2.8,5.4,4.3,8c0.5,1,1.3,1.9,0.4,3
		c0,0.4,0,0.9,0,1.3c-0.3,0.3-0.5,0.7-0.9,0.9c-1.5-0.3-0.7-1.4-0.9-2.2C17,83.1,18,82,16.8,81.5c-1.1-1.3-2.4-2.5-3.3-3.9
		c-1.7-2.5-3.4-5.3-3.7-8.4C9.7,68.1,8.8,67,9.7,65.8z"/>
	<path class="st42" d="M19.4,83.8c0-0.8-0.1-1.6-0.6-2.4c-1.8-2.8-3.8-5.4-4.6-8.7c-0.4-1.4-1.7-2.6-2.6-3.8c0.4-2-1.2-3.8-1-5.8
		c0.1,0,0.2-0.1,0.3-0.1c1.8,2.4,2.8,5.2,4.1,7.9c0.3,0.6,0.5,1.3,0.9,1.8c1,1.1,0.7,2.8,1.8,3.8c1.2,1.1,0.7,3.2,2.6,3.8
		c0.1,0.2,0.2,0.3,0.3,0.5c-0.1,1.8,1.9,2.6,2,4.4c0,0.7,0.5,1.6-0.9,1.2C20.7,85.8,19.8,85,19.4,83.8z"/>
	<path class="st43" d="M21.7,86.5c1.1-1.3,0.1-2.5-0.7-3.1c-1-0.9-1-1.7-0.7-2.7c1,0,1.8,0.4,2.3,1.3c-0.1,1.1,1.1,1.4,1.4,2.2
		c-0.6,0.8,0,1.4,0.4,2c0.9,1.3,1.8,2.7,0.5,4.3C23.7,89.3,21.5,88.7,21.7,86.5z"/>
	<path class="st12" d="M18.4,86c0-0.6,0.3-0.9,0.9-0.9c0,0.9,1.3,1.6,0.5,2.7C18.7,87.7,18.6,86.9,18.4,86z"/>
	<path class="st44" d="M30.4,95.9c1.2,0.3,1.9,1.1,2.3,2.2C31.5,97.8,30.4,97.5,30.4,95.9z"/>
	<path class="st45" d="M9.7,65.8c0.5,2.8,0.8,5.7,2.3,8.2c1.3,2.1,2.3,4.4,4.3,6.1c0.4,0.3,0.5,0.9,0.8,1.4c0.1,0.1,0.2,0.2,0.1,0.3
		c0,0.1-0.1,0.1-0.1,0.1c-1.4-0.7-1.8-2.4-3-3.2c-0.1,0.4-0.2,0.7-0.4,1.1c-0.2-0.2-0.3-0.3-0.4-0.5c-0.8-1.4-1.3-2.9-3.1-3.7
		c-1.1-0.5,0.7-1.5,0.3-2.5c-0.4,0.4-0.8,0.8-1.1,1.2c0.1-0.7-0.1-1.2-0.5-1.8c-0.5-1.8-0.9-3.6-1.4-5.4c0.4-0.3,0.8-0.5,0.6-1.1
		c-0.3,0.3-0.2,0.8-0.6,1.1c-0.8-0.7-1.2-1.7-0.8-2.6c0.6-1.6,1.4-3-0.2-4.7c-0.9-0.9,1.5-0.2,1.1-1.3c0.2,0,0.3,0,0.5,0
		C8,58.8,8.3,59,8.2,59.2C7.4,61.7,9.3,63.6,9.7,65.8z"/>
	<path class="st12" d="M17.1,82c0-0.1,0-0.3,0-0.4c1.8,0.4,0.2,1.5,0.4,2.3c-0.5-0.3-0.4-0.9-0.4-1.4C17.1,82.3,17.1,82.1,17.1,82z"
		/>
	<path class="st46" d="M23.1,78.4c0,0.4,0,0.9,0,1.3c0,0-0.1,0-0.1,0c-1.7,1.3-2.2,1.2-2.6-1c-0.3-1.4-1.6-1.5-2.2-2.3
		c-0.3-1.1-1-2.3-0.2-3.5c1.5,0.1,1.4,1.9,2.7,2.2c0.2,0.1,0.3,0.3,0.5,0.4C21.6,76.6,23.3,76.9,23.1,78.4z"/>
	<path class="st47" d="M23.1,78.4c-0.5-1.1-2-1.4-2.3-2.7c0.2-0.6,0.4-1.2,1.1-1.3c0.6-0.1,0.4,0.6,0.8,0.9c0.1,1.1,0.8,1.4,1.8,1.4
		C23.9,77.2,24.2,78.3,23.1,78.4z"/>
	<path class="st48" d="M24.5,82.9c-0.9-0.1-1.3-0.5-0.5-1.3C24.1,82,24.3,82.4,24.5,82.9z"/>
	<path class="st49" d="M14.8,24.1c0-1.6,1.3-2.3,2.4-3c1.2-0.8,2-1.5,2-3.1c0-1.5,1.5-2.1,2.7-2.7c0.7-0.4,1.6-0.4,2.2-1.1
		c1.2-0.8,1.9-2,2.7-3.2c1.3,2.3-1.1,3.2-1.8,4.8c-0.1,0.2-0.4,0.4-0.6,0.6c-2.5,0.8-3.2,3.2-4.8,4.9c-2.5,2.8-3.8,5.9-4.8,9.5
		c-0.7,2.5-2.2,4.8-2.3,7.5c-0.4,1.4-0.6,2.9-1.1,4.4c-0.3,0.8-0.4,1.7-1.7,1.2c-0.2-0.6-0.2-1.2,0.1-1.8c-1-2.1-0.2-3.9,0.6-5.9
		c0.6-1.5,1.1-3,1.7-4.4C11.9,28.8,13.4,26.5,14.8,24.1z"/>
	<path class="st50" d="M24,16c1.2-1.5,2.9-2.7,2.7-5c0.3-0.3,0.6-0.6,0.9-0.9c1.1,0.6,1.9,0.2,2.3-0.9c0.2,0,0.3,0,0.5,0
		c0.1,0.3,0.3,0.6,0.4,0.9c-1.3,2.4-3.6,4-4.9,6.5c-0.4,0.7-1,1.3-2,0.7C23.6,16.8,23.7,16.4,24,16z"/>
	<path class="st51" d="M24,26.3c-1.2,0.1-1.4,0.8-1.4,1.8c-0.5,0.2-0.9,0.3-1.4,0.5c0-0.9,0-1.8,0-2.7c-0.6-0.7-0.4-1.4,0.2-1.8
		c1.4-1,1.5-2.4,1.9-3.9c0.8-2.6,3-4.5,5.2-6.2c0.3-0.2,0.7,0,1,0.3c-0.5,1.2-1.7,2.1-1.4,3.6c-2.4,1.2-1.9,4-3.1,5.8
		C24.6,24.3,23.5,25.1,24,26.3z"/>
	<path class="st52" d="M29.5,14.2c-1.2-0.3-1.5,0.8-2.1,1.3c-1.2,1-1.9,2.4-3.2,3.4c-1.3,1.1,0.4,3.2-0.5,4.1
		c-0.9,0.9-2.5,1.1-2.5,2.8c-1.5,3.8-2.6,7.7-2.2,11.7c0.1,1.7-0.6,1.4-1.4,1.7c-1.7-1.4-1.7-2.9-1.1-4.9c0.7-2.2,0.4-4.6,1.6-6.7
		c0.7-1.1,1.1-2.3,1.3-3.5c1.2-1.5,2.6-2.9,2.7-5c0.1-0.2,0.1-0.4,0.2-0.6c0.3-0.5,0.8-1,1.4-1.2c0.1,0,0.2,0,0.3,0
		c0.9-0.1,1.5-0.7,1.8-1.5c0.4-0.9,4.2-5.2,5.1-5.7c0.2,0.8-0.4,1.3-0.9,1.8C30.1,12.7,29.7,13.4,29.5,14.2L29.5,14.2z"/>
	<path class="st51" d="M29.5,14.2c-0.4-0.8-0.2-1.6,0.4-2.3c0.2,0,0.3,0,0.5,0c0.2,0.4,0.2,0.9-0.1,1.3
		C30.1,13.6,29.8,13.9,29.5,14.2z"/>
	<path class="st53" d="M17.1,39.3c0,0.7,0.3,1.1,0.9,1.3c0.3,0.3,0.2,0.6,0.1,0.9c-0.1,0.2-0.3,0.3-0.5,0.4c-1.9,0.7-2.9,2-2.7,4
		c0.2,1.6-1.4,2.3-1.4,3.9c0,1.3,0,2.4,0.5,3.7c0.9,2.4,1.2,4.8-0.7,6.9c-1,0-1.3-0.7-1.2-1.5c0.2-1.3-0.2-2.6-0.5-3.9
		c0-1.3-1.1-2.5-0.6-3.9c0.4-3.9,1.8-7.5,2.6-11.3c0.2-1,0.2-2.4,1.6-3c0.5,0.3,0.7,0.9,0.6,1.3C15.3,39.8,16.8,38.8,17.1,39.3z"/>
	<path class="st54" d="M17.5,41.6c0.1,0,0.3,0,0.4,0c0.2-0.2,0.3-0.2,0.5,0c0.2,1.6-0.8,2.9-0.9,4.3c-0.3,3.8-0.7,7.6,0,11.4
		c-0.8,1-1.6,0.4-1.6-0.3c0.1-2.9-2.2-5.2-1.6-8.1c0-0.2,0.1-0.4,0.2-0.6c0.4-2,2.4-3.3,2.3-5.4C16.7,42.2,17.1,41.9,17.5,41.6z"/>
	<path class="st55" d="M17.1,39.3c-0.8,0-1,0.4-0.6,1.7c-1.3-1.5-1.3-2.7-1.2-3.9c-0.5-2.8-0.1-5.5,1.3-8.1c0.8-1.3,1.1-2.8,2-4
		c0.3-0.5,0.5-1.1,1.3-1c0.2,2.5-1.8,4.2-2.3,6.4c-0.1,0.4-0.6,1-0.4,1.2c1.1,1.5,0.2,2.7-0.5,3.8c-0.9,1.6,1.2,2.4,0.9,3.8
		C17.4,39.3,17.2,39.3,17.1,39.3z"/>
	<path class="st52" d="M14.8,48.3c-0.1,1.8,0.1,3.5,1.1,5.1c0.5,0.7,0.5,1.7,0.3,2.6c-0.2,0.9-0.1,1.8,1.3,1.3c0,0.4,0,0.9,0,1.3
		c-0.7,2.2-0.1,4.2,0.5,6.3v0c0.4,0.6,0.2,1-0.3,1.4c-0.2,0.1-0.4,0.1-0.6,0c-0.7-0.7-0.8-1.8-1.5-2.5c-1.7-1.7-0.4-3.8-0.7-5.7
		c-0.3-1.7-0.5-3.3-0.9-5C13.6,51.4,13.1,49.7,14.8,48.3z"/>
	<path class="st52" d="M22.6,75.3c-1-1.3-1.1,0.9-1.8,0.5l0,0c-1.7-2.1-2.9-4.5-4.3-6.7c-1.4-2.2-1.4-2.2,1.1-2.7l0,0
		c0.9-0.1,0.7,0.7,1,1.2c0.5,1.2,0.9,2.4,1.8,3.3C20.5,72.5,22.7,73.3,22.6,75.3z"/>
	<path class="st54" d="M18,64.9c-1.7-1.5-1.1-3.5-1.4-5.3c-0.1-0.6,0.3-1,0.9-1C18.3,60.7,17.9,62.8,18,64.9z"/>
	<path class="st54" d="M20.3,70.8c-1.3-0.1-1.3-1.1-1.7-2.1c-0.3-0.8-0.3-1.8-1-2.4c0.2-0.4,0.3-0.9,0.5-1.3
		C19.9,66.4,19.3,68.9,20.3,70.8z"/>
	<path class="st52" d="M18.4,41.6c-0.2,0-0.3,0-0.5,0c0-0.3,0-0.6,0-0.9c0.2-0.2,0.4-0.4,0.6-0.6C19.1,40.6,18.3,41.1,18.4,41.6z"/>
	<path class="st56" d="M18.5,76.6c1.5,0.2,2.9,0.4,2.4,2.5c-0.1,0.6,0.4,1,1,1.3c0.5-0.5-0.6-1.4,0.4-1.6c0.2,0,0.5,0.6,0.7,1
		c0,0.8,0.4,1.6-0.4,2.3c-0.8-0.4-1.7-0.6-2.3-1.3c-1.4-0.9-2.2-2.1-2-3.8C18.3,76.7,18.4,76.7,18.5,76.6z"/>
	<path class="st57" d="M10.6,63.2c-1.6-0.8-1.2-2.4-1.2-3.5c0-1.2,0-2.3-0.6-3.2c-0.9-1.2-0.8-2.7-1-4c-0.2-1.7,0.6-3.5-0.3-5.3
		c-0.2-0.4,0.3-0.9,0.8-1.2c0.1,0,0.2,0,0.3,0c0.5,0.1,1,0.4,1.3,0.8c0.1,0.3,0.2,0.6,0.1,0.8c-0.1,0.5-0.2,1.1,0,1.6
		c0,0.3,0,0.6-0.1,0.8c-0.1,0.4-0.1,0.7-0.1,1.1c0,0.2-0.1,0.4-0.2,0.5c-0.3,1.5-0.4,3.1,0.6,4.5c0.6,1.6,0.7,3.4,1.2,5.1
		C11.6,62,11.5,62.8,10.6,63.2L10.6,63.2z"/>
	<path class="st58" d="M14.8,24.1c-0.9,2.5-1.8,5.1-2.8,7.6c-1.6-2.2-0.1-4,0.9-5.8C13.8,25.5,14.1,24.6,14.8,24.1z"/>
	<path class="st57" d="M9.7,42c0,0.6,0,1.2,0,1.8c0.2,0.2,0.2,0.4,0.1,0.6c-0.5,0.6-0.3,1.7-1.5,1.7c0,0,0,0,0,0
		C8.2,44.5,9,43.3,9.7,42z"/>
	<path class="st59" d="M9.7,44.3c0-0.1,0-0.3,0-0.4c1.4-0.3,1-1.7,1.3-2.5c0.3-1.1,0.4-2.3,1-3.3c0.2-0.1,0.4-0.2,0.6,0
		c1.2,1.4,1.2,2.6,0,4.2c-0.8,1.1-0.8,2.8-1,4.2c-0.2,1.7-0.4,3.4-0.1,5.1C11,52.7,12.6,53.8,12,55c0.4,0.6,0.3,1.3,0.2,1.9
		c-0.4,1.8-0.3,3.4,0.8,4.9c0,0.2,0,0.4,0,0.6c0,1-0.4,2,0.5,2.8c0.4,1.2,1.1,2.3,1.4,3.5c0.3,1.5,0.8,2.4,2.5,1.4
		c0.1,1,1.9,1.4,1,2.8c-0.9,1.2,0.4,2.4,0,3.6c0,0,0,0,0,0c-0.2,0.1-0.4,0.1-0.6,0c-0.7-1.2-0.8-2.8-2.2-3.6
		c-1.4-0.2-0.9-1.5-1.3-2.3c-1.3-2.5-2.5-5.1-3.7-7.6c0.6-2.5-0.7-4.8-0.9-7.2c-0.2-0.3,0-0.5,0.3-0.7c0.8-0.3,0.6-0.7,0.1-1.2
		c-0.6-0.8-1-1.7-0.4-2.7v0c0.4-0.4-0.2-0.9,0-1.4c0-0.3,0-0.6,0-0.9c0-0.5,0-0.9,0-1.4c0-0.3,0-0.6,0-0.9
		C9.1,46.1,9.1,45.2,9.7,44.3z"/>
	<path class="st60" d="M15.7,73c2,0.4,2.3,1.9,2.3,3.6c0,0.3-0.3,0.3-0.5,0.5C15.8,76.2,16.6,74.2,15.7,73z"/>
	<path class="st43" d="M17.5,77.1c0.2-0.2,0.3-0.3,0.5-0.5c0.1,0,0.3,0,0.4,0c-0.1,1.7,1.1,2.7,1.9,4C17.8,80.6,18.5,78.2,17.5,77.1
		z"/>
	<path class="st61" d="M7.4,67.2c0-0.8,0-1.6,0-2.4c1.5,0.5,1.5,1.4,1.3,2.4C8.5,67.9,7.8,67.3,7.4,67.2C7.4,67.2,7.4,67.2,7.4,67.2
		z"/>
	<path class="st62" d="M18.4,73c0.1-1.2-0.9-1.8-1.4-2.7c-2.6-1-3-3.3-1.2-6.1c0.1-0.1,0.2-0.1,0.3-0.2c1.2,0.3,0.6,1.7,1.4,2.3
		c0.3,1.9-1.3,0.2-1.7,0.8c1.1,1.9,2.5,3.7,3.3,5.8c0.3,0.9,2.1,1.3,1.6,2.8C19.2,75.4,18.6,74.4,18.4,73z"/>
	<path class="st63" d="M12.5,38c-0.2,0-0.3,0-0.5,0c-0.6-1.7,0.9-3.2,0.3-4.8c3.1-1.7,2-5.3,3.5-7.8c1.7-2.8,4.4-4.8,5.5-8
		c0.3-0.9,2.1-0.3,2.6-1.4c0,0.5,0,0.9,0,1.4c0,0,0,0,0,0c-0.6,0.3-1,0.8-1.4,1.3l0,0c-1.2,2.2-2.6,4.3-4,6.2
		c-0.9,1.1-0.9,2.4-1.4,3.7c-1.4,1.2-1.8,2.7-2,4.5C14.9,34.9,14.1,36.7,12.5,38z"/>
	<path class="st50" d="M17.1,28.5c-0.3-1.7,0.6-3,1.5-4.5c1-1.6,2.4-3,2.9-4.9c0.2-0.7,0.7-0.4,1.1-0.5c0.1,2.3-0.6,4.2-2.8,5.4
		c-1.4,1.4-1.6,3.4-2.8,4.9c-0.1-0.1-0.2-0.2-0.1-0.3C17,28.6,17,28.5,17.1,28.5z"/>
	<path class="st50" d="M22.6,18.7c0.1-0.9,0.5-1.3,1.4-1.3C23.7,17.9,23.2,18.4,22.6,18.7z"/>
	<path class="st64" d="M17.1,28.5c0,0.2,0,0.3,0,0.5c-1.5,2.5-1,5.4-1.8,8.1c-1.3,2.3-1.8,4.9-2.2,7.3c-0.4,2.4-1.9,4.5-1.5,7
		c-1.1-2.4-0.2-4.8-0.1-7.2c0.1-1.6,0.7-2.5,1.6-3.6c0.7-0.9-1-1.6-0.6-2.6c0.4-2.1,2.3-3.6,2.2-6C14.6,31,14.9,28.7,17.1,28.5z"/>
	<path class="st62" d="M14.8,48.3c-0.8,1.6-0.6,3.3-0.2,5c0.6,2.3,1.1,4.7,0.9,7c-0.1,1.4,0.1,2.6,0.6,3.8c0,0,0,0,0,0
		c-1.9,1.2-2.3,1-2.8-1.1c-0.2-0.8,0.4-1.5,0.1-2.2c0-0.1,0-0.2,0-0.3c0.7-2.7,1.1-5.3-0.4-8.1c-0.6-1.1-1.3-3.7,1.1-4.9
		c0.3-0.2,0.2-1.1,0.2-1.7c0-2.2,1-3.7,3.2-4.2c-0.2,0.4-0.3,0.9-0.5,1.3C16.3,44.7,15,46.3,14.8,48.3L14.8,48.3z"/>
	<path class="st64" d="M12.5,62.2c-2-2.3-0.6-4.8-0.5-7.2c0.5,1.2,1.1,2.4,0.6,3.8c-0.3,0.8,0.1,1.3,0.8,1.6l0,0
		C14,61.5,13.7,62.1,12.5,62.2z"/>
	<path class="st52" d="M14.8,48.3c-0.6-1.9,1.2-3.3,1.2-5.1c0-0.1,0.7-0.2,1.1-0.3c0.8,0.6,0.3,1.2,0,1.7
		C16.3,45.9,15.5,47.1,14.8,48.3z"/>
	<path class="st49" d="M10.2,55.5c-0.2,0.1-0.3,0.3-0.5,0.4c-1.6-1.2-0.3-3-0.9-4.4c0.3,0,0.6-0.1,0.9-0.1c-0.2,1.1,0.3,1.9,0.9,2.7
		C10.7,54.7,10.6,55.2,10.2,55.5z"/>
	<path class="st49" d="M9.7,44.3c0,0.9,0,1.8,0,2.7c-0.5-0.3-0.9-0.6-1.4-0.9C9,45.6,8.7,44.5,9.7,44.3z"/>
	<path class="st49" d="M9.7,50.1c0.6,0.5,0.6,0.9,0,1.4C9.6,51,7.9,50.5,9.7,50.1z"/>
	<path class="st49" d="M9.7,47.9c0.6,0.5,0.6,0.9,0,1.4C9.1,48.8,9.1,48.3,9.7,47.9z"/>
	<path class="st65" d="M12.5,62.2c0.8-0.3,1-1,0.9-1.8c0.6,0.1,0.9,0.3,0.8,1c-0.4,2.4-0.2,2.7,1.9,2.6c-1.1,2.3-1.5,4.5,0.9,6.3
		c-0.6,0.4-1.3,1.9-2,0.4c-0.8-1.7-1.6-3.4-1.7-5.3c-0.8-0.7-0.3-1.9-0.9-2.7C12.5,62.5,12.5,62.4,12.5,62.2z"/>
	<path class="st64" d="M12.5,62.7c0.9,0.7,1,1.7,0.9,2.7C11.2,65.1,12.9,63.5,12.5,62.7z"/>
	<path class="st57" d="M10.2,55.5c0-0.5-0.1-1,0.5-1.4c0.6,0.1,1,0.3,0.6,1C11,55.6,10.8,56.2,10.2,55.5z"/>
</g>
</svg>
