<?xml version="1.0" encoding="utf-8"?>
<!-- Generator: Adobe Illustrator 25.0.0, SVG Export Plug-In . SVG Version: 6.00 Build 0)  -->
<svg version="1.1" id="Layer_1" xmlns="http://www.w3.org/2000/svg" xmlns:xlink="http://www.w3.org/1999/xlink" x="0px" y="0px"
	 width="105.5px" height="129px" viewBox="0 0 105.5 129" style="enable-background:new 0 0 105.5 129;" xml:space="preserve">
<style type="text/css">
	.st0{fill:#48A6DD;}
	.st1{fill:#FFFFFF;}
	.st2{fill:#231F20;}
	.st3{fill:#0E0E0E;}
	.st4{fill:#D8D8D8;}
	.st5{fill:#404040;}
	.st6{fill:#5D5D5D;}
	.st7{fill:#CACACA;}
	.st8{fill:#141414;}
	.st9{fill:#F2F2F2;}
	.st10{fill:#E0E0E0;}
	.st11{fill:#6A6A6A;}
	.st12{fill:#2D2D2D;}
	.st13{fill:#A9A9A9;}
	.st14{fill:#9C9C9C;}
	.st15{fill:#B7B7B7;}
	.st16{fill:#8B8B8B;}
	.st17{fill:#333333;}
	.st18{fill:#959595;}
	.st19{fill:#D4D4D4;}
	.st20{fill:#C1C1C1;}
	.st21{fill:#434343;}
	.st22{fill:#777777;}
	.st23{fill:#242424;}
	.st24{fill:#272727;}
	.st25{fill:#AFAFAF;}
	.st26{fill:#444444;}
	.st27{fill:#6B6B6B;}
	.st28{fill:#868686;}
	.st29{fill:#989898;}
	.st30{fill:#B3B3B3;}
	.st31{fill:#717171;}
	.st32{fill:#5E5E5E;}
	.st33{fill:#494949;}
	.st34{fill:#7D7D7D;}
	.st35{fill:#858585;}
	.st36{fill:#A5A5A5;}
	.st37{fill:#616161;}
	.st38{fill:#7F7F7F;}
	.st39{fill:#757575;}
</style>
<g>
	<path class="st0" d="M90.8,126.5H15c-2.2,0-4-1.8-4-4v-23c0-2.2,1.8-4,4-4h75.8c2.2,0,4,1.8,4,4v23C94.8,124.7,93,126.5,90.8,126.5
		z"/>
	<g>
		<path class="st1" d="M31.9,113c-0.1-2-0.1-4.4-0.1-6.8h-0.1c-0.5,2.1-1.2,4.4-1.8,6.4l-2,6.4H25l-1.8-6.4
			c-0.5-1.9-1.1-4.3-1.5-6.4l0,0c-0.1,2.2-0.2,4.8-0.3,6.8l-0.3,6.3h-3.4l1.1-16.5h5l1.6,5.5c0.5,1.9,1,4,1.4,5.9h0.1
			c0.5-1.9,1-4.1,1.6-5.9l1.8-5.5h4.9l0.9,16.5h-3.6L31.9,113z"/>
		<path class="st1" d="M53.7,110.9c0,5.4-3.3,8.7-8.1,8.7c-4.9,0-7.7-3.7-7.7-8.4c0-4.9,3.2-8.6,8-8.6
			C51,102.6,53.7,106.3,53.7,110.9z M41.8,111.1c0,3.2,1.5,5.5,4,5.5s4-2.4,4-5.6c0-3-1.4-5.5-4-5.5
			C43.3,105.5,41.8,107.9,41.8,111.1z"/>
		<path class="st1" d="M71.2,110.9c0,5.4-3.3,8.7-8.1,8.7c-4.9,0-7.7-3.7-7.7-8.4c0-4.9,3.2-8.6,8-8.6
			C68.5,102.6,71.2,106.3,71.2,110.9z M59.3,111.1c0,3.2,1.5,5.5,4,5.5c2.5,0,4-2.4,4-5.6c0-3-1.4-5.5-4-5.5
			C60.8,105.5,59.3,107.9,59.3,111.1z"/>
		<path class="st1" d="M73.7,119.3v-16.5H78l3.4,6c1,1.7,2,3.8,2.7,5.6h0.1c-0.2-2.2-0.3-4.4-0.3-6.9v-4.8h3.4v16.5h-3.9l-3.5-6.4
			c-1-1.8-2.1-3.9-2.9-5.8h-0.1c0.1,2.2,0.1,4.5,0.1,7.2v5h-3.3C73.7,119.2,73.7,119.3,73.7,119.3z"/>
	</g>
</g>
<circle class="st2" cx="53" cy="52.3" r="51.2"/>
<g>
	<path class="st3" d="M20.4,18.5c-1.9,3.7-4.1,7.3-5.6,11.1c-1.6,4-2.9,8.1-3.4,12.4c-0.6,4.8-0.8,9.6-0.6,14.5
		c0.1,3.6,1.6,6.9,1.2,10.5c-0.2,0.1-0.5,0.1-0.7,0c-1.3-2-1.3-4.2-1.6-6.4C8.2,50,9.4,39.7,13.2,29.7c0.2-0.6,0.4-1.1,0.6-1.6
		c1.2-2.1,2.2-4.2,3.3-6.4c0.6-0.7,1.1-1.5,1.6-2.3C19.1,18.9,19.5,18,20.4,18.5z"/>
	<path class="st4" d="M7.3,75.2c-1.4-2.5-2.9-5.1-3.1-8.1C3.1,62.6,2.9,58.1,3,53.6c0-0.6-0.4-1.2-0.5-1.9c0-0.8,0.1-1.5,1.2-1.4
		c0.6,0.4,0.7,1,1,1.6c1.3,4.3,0.8,8.8,1.2,13.2c0.3,2.8,1.4,5.4,2.1,8.1C8.2,73.9,8.8,74.9,7.3,75.2z"/>
	<path class="st5" d="M20.5,87.1c2.3,0.4,3,2.6,4.3,4c3.1,3.2,6.7,5.9,10.5,8.2c-0.3,1.2-1.1,0.7-1.8,0.5c-2.2-1.2-4.7-2-6.7-3.6
		c-0.4-1.5-1.6-2.4-2.6-3.3c-0.8-0.7-1.5-1.3-2.1-2.2c-0.4-0.6-0.6-1.3-1.1-1.8c-0.1-0.1-0.3-0.3-0.4-0.5
		C20.2,88.1,20,87.6,20.5,87.1z"/>
	<path class="st6" d="M22.2,11.7c1.9-1.6,4-2.9,6.3-3.9c1.1,0.3,1.1,0.3,0.5,0.9c-1,0.9-2,1.7-2.9,2.8c-0.6,0.4-1,1-1.7,1.3l0,0
		c-0.2,0.2-0.3,0.5-0.5,0.8c-2,2.3-4.5,4.1-6,6.9c-0.7,0.8-1.4,1.5-1.6,2.5c-0.2,0.4-0.4,0.7-0.9,0.9c-0.3,0-0.6,0-0.9-0.3
		c-0.3-2.2,1.3-3.7,2.2-5.5c0.1-0.2,0.2-0.4,0.3-0.5C19.5,16.2,20.6,13.7,22.2,11.7z"/>
	<path class="st7" d="M7.3,75.2C8.7,74,7.3,72.9,7,72c-0.7-2.2-1.2-4.5-1.8-6.8c1.5-0.5,1.3,0.9,1.7,1.5c0.4,1,1.1,1.9,1.3,3
		c0,2,0.6,3.7,1.6,5.4c0.1,0.6,0.1,1.2,0.5,1.7c0.8,0.7,1.9,1.3,1.4,2.7c-0.3,0.5-0.3,1.3-1.1,1.3C9.3,79.1,8.3,77.2,7.3,75.2z"/>
	<path class="st8" d="M12.9,72.3c2.3,2.2,3.9,4.7,4.7,7.9c0.2,0.7,0.6,1.8,1.4,2.3c0.7,0.4,0.4,1,0.1,1.6c-0.8,0.5-0.7-1.3-1.6-0.6
		c-1.3-0.7-1.6-2.1-2.4-3.2c-0.8-1.9-0.9-4-2.3-5.6c-0.5-0.6-0.8-1.2-0.4-1.9C12.6,72.5,12.7,72.4,12.9,72.3z"/>
	<path class="st9" d="M2.9,51.8c0.9,2.4,1.3,4.7,0.6,7.2c-0.5,1.8,0.3,3.5,0.8,5.2c0.2,1,0.9,1.9,0,2.9c-1.3-2.7-1.6-5.5-1.8-8.4
		C2,57,2.6,55.2,2.1,53.6c0-0.6,0-1.2,0-1.8C2.4,51.5,2.7,51.5,2.9,51.8z"/>
	<path class="st10" d="M2.9,51.8c-0.3,0-0.6,0-0.9,0c0-0.6,0-1.2,0-1.8c0.5-1.4,0-2.9,0.4-4.3c-0.1-2.3,0.5-4.4,1.3-6.5
		c0.5-0.2,0.7,0.1,0.9,0.4c0.2,0.6,0.2,1.2,0.1,1.9c-0.4,1.3-0.2,2.7-0.3,4c-0.5,1.6,0.6,3.4-0.6,5C2.9,50.5,2.9,51.1,2.9,51.8z"/>
	<path class="st11" d="M22.2,90.4c1.6,1.5,3.1,3,4.7,4.6c0.5,0.5,1.1,1-0.2,1.3c-1.6-0.9-3.1-1.9-4.5-3.1c-0.2-0.8-1-1-1.4-1.5
		c-0.6-0.7-1.3-1.5,0.1-2.3C21.6,89.3,21.6,90.2,22.2,90.4z"/>
	<path class="st12" d="M25.8,11.4c0.8-1.1,1.6-2.2,2.8-2.9c0.5-0.3,0.6-0.6-0.1-0.7c2-1.6,4.5-2.1,6.7-3.1c0.2,0.3,0.3,0.6,0,0.9
		c-3.8,0.9-6.1,4-9,6.3C26.1,11.7,25.9,11.7,25.8,11.4z"/>
	<path class="st13" d="M10.1,24.9c1-2,2.4-3.8,4-5.4c1.3,0.2,0.6,1.1,0.6,1.8c-0.1,0.2-0.1,0.4-0.2,0.6c-1.1,1.5-1.9,3.1-2.8,4.7
		c-0.5,0.9-0.9,1.6-2.1,1.5C8.8,26.8,10.4,26,10.1,24.9z"/>
	<path class="st14" d="M16.9,88.5c-0.6-0.6-1.2-1.2-1.8-1.8c-0.1-1.5-1.3-2.6-2-3.8c-0.4-0.7-1.1-1.2-1-2.1c0.2-0.7,0.6-1.2,1.4-1
		c0.9,0.6,1.2,1.7,1.8,2.6c0.4,0.9,1,1.7,1.6,2.6c0.1,0.2,0.2,0.4,0.3,0.6c0.2,0.7,0.7,1.3,0.9,2C18,88.3,18,89.1,16.9,88.5z"/>
	<path class="st15" d="M12.4,80.9c1,1.6,2.1,3.2,3.1,4.8c0.4,0.6,0.4,0.9-0.4,1.1c-1.6-1.9-3.4-3.6-4.5-5.8c0.5-0.3,0.2-1.1,0.9-1.3
		C12.5,79.6,12.7,80.1,12.4,80.9z"/>
	<path class="st16" d="M16.9,88.5c0.9,0,0.8-0.7,0.8-1.3c0.1-0.2,0.3-0.3,0.5-0.3c0.3-0.1,0.6,0,0.9,0.1c0.7,0.4,1,1.2,1.7,1.6l0,0
		c0.3,0.3,0.4,0.6-0.1,0.8c-0.8,1.1,0.3,1.5,0.8,2.2c0.3,0.4,1.6,0.4,0.7,1.4C20.2,91.9,18.6,90.2,16.9,88.5z"/>
	<path class="st17" d="M17.8,20.4c1.1-3.3,4.1-4.9,6.2-7.2c0.7,1-0.3,1.3-0.8,1.8c-0.9,1.2-1.8,2.4-2.7,3.5
		c-1.6,0.5-1.4,2.8-3.1,3.2c0-0.1-0.1-0.1-0.1-0.2C17.2,21.1,17.5,20.7,17.8,20.4z"/>
	<path class="st18" d="M14.2,21.3C14,20.7,15,20,14.1,19.4c1.7-2.3,3.7-4.1,5.9-5.9c0.5,1.1,0.3,2-0.8,2.6c-0.7,0.4-1.2,1.1-1.8,1.5
		c0,0.1,0,0.3,0,0.4C16.1,19,16,21,14.2,21.3z"/>
	<path class="st19" d="M4.3,37.4c0.6-2.7,1.6-5.3,3.1-7.7C9,30.2,8.3,31.3,8,32.3c-0.2,0.4-0.4,0.7-0.7,1.1
		c-0.2,0.4-0.4,0.9-0.6,1.4c-0.3,0.6-0.6,1.2-0.7,1.9c-0.1,0.5-0.3,1-0.7,1.3c-0.2,0.1-0.4,0.2-0.6,0.1C4.5,38,4.3,37.7,4.3,37.4z"
		/>
	<path class="st20" d="M7.4,32.5c0.4-0.9,0.9-1.8-0.1-2.7c0.8-1.7,1.5-3.5,2.8-4.9c1.4,1.3-1,2-0.4,3.2C10,30.5,9.1,32.2,7.4,32.5z"
		/>
	<path class="st21" d="M20.9,88.6c-0.9,0-1.3-0.7-1.8-1.4c-1.2-1.1-2.1-2.3-1.4-4c1.1-0.7,0.8,0.8,1.4,0.9c0.8,0.9,1.6,1.7,1.4,3.1
		C20.6,87.6,20.7,88.1,20.9,88.6z"/>
	<path class="st22" d="M17.3,17.7c0.3-0.9,0.9-1.4,1.7-1.8c0.9-0.5,1-1.4,0.9-2.3c0.4-1,1.4-1.3,2.2-1.9
		C21.3,14.3,20.1,16.7,17.3,17.7z"/>
	<path class="st8" d="M11.5,67c0.2,0,0.3,0,0.5,0c1.1,1.6,1.2,3.4,1,5.3c0,0-0.1,0.1-0.1,0.1c-1.5-0.3-1.7-1.6-1.9-2.8
		C10.9,68.7,10.7,67.8,11.5,67z"/>
	<path class="st23" d="M33.5,99.8c0.6-0.1,1.3,0.2,1.8-0.5c1.6,0.6,3.2,1.3,4.9,1.9C37.8,101.4,35.6,100.7,33.5,99.8z"/>
	<path class="st3" d="M35.3,5.6c0-0.3,0-0.6,0-0.9c0.9-0.7,2.3-0.6,3.1-1.5C38.6,3,39,2.9,39.1,3.3c0.2,0.4,0,0.7-0.4,0.9
		C37.6,4.6,36.4,5.1,35.3,5.6z"/>
	<path class="st4" d="M2.1,53.6c0.8,1.6,0.3,3.4,0.4,5.1C1.8,57,2,55.3,2.1,53.6z"/>
	<path class="st8" d="M25.8,11.4c0.2,0.1,0.3,0.3,0.5,0.4c-0.4,0.6-0.5,1.9-1.8,0.9C24.7,12.1,25.3,11.8,25.8,11.4z"/>
	<path class="st4" d="M2.4,45.7c-0.1,1.4,0.5,2.9-0.4,4.3C2,48.5,1.9,47.1,2.4,45.7z"/>
	<path class="st4" d="M4.3,37.4c0.2,0.2,0.3,0.3,0.5,0.5c0.4,0.7,0.7,1.4-0.5,1.8c-0.2-0.2-0.4-0.3-0.6-0.5
		C3.9,38.6,3.8,37.9,4.3,37.4z"/>
	<path class="st8" d="M23.1,15c0.2-0.6,1-1,0.8-1.8c0.2-0.1,0.3-0.3,0.5-0.4C24.5,13.8,24.6,14.9,23.1,15z"/>
	<path class="st24" d="M11.5,67c0,0.9,0,1.8,0,2.7c-0.3,0.1-0.5,0-0.6-0.2c-0.1-0.2-0.3-0.4-0.3-0.7C9.1,64,8.3,59,7.9,53.9
		c-0.4-5.3,0.5-10.6,1.8-15.8c0.7-1.7,1.4-3.3,1.7-5.1c0-1,0.2-2.1,1-2.9c0.4-0.3,0.7-0.9,1.4-0.7c-0.9,3.4-2,6.8-2.7,10.3
		C9.8,45.4,9.3,51.1,10,57C10.4,60.4,10.7,63.7,11.5,67z"/>
	<path class="st17" d="M15.5,23.5c0.4-0.2,0.4-0.5,0.5-0.9c0.6-0.1,0.5-1.1,1.3-0.9c0,0,0,0,0,0c-0.5,2.4-1.7,4.4-3.1,6.3
		c-0.3-0.2-0.4-0.6-0.5-0.9C13.8,25.6,14.3,24.4,15.5,23.5z"/>
	<path class="st17" d="M14.2,27.1c0,0.3,0,0.6,0,0.9c0,0.5,0.1,1-0.4,1.3c-0.3,0.3-0.6,0.6-0.9,0.9C12.2,28.7,12.6,27.6,14.2,27.1z"
		/>
	<path class="st25" d="M6.5,67c-0.7-0.4-0.1-1.8-1.3-1.8c0.2-0.9,0.3-1.8,0.1-2.8c-0.4-2.2-1-4.5-0.2-6.8c0.4-1.3-1.1-2.4-0.8-3.8
		C4,51.3,4,51,4.6,50.8c0.8,0.3,1,1.1,1.3,1.7C6,52.7,6,52.9,6.1,53.1c0.2,1.1,0,2.2,0.5,3.2c0.4,1,0.6,2,0.5,3.1
		c-0.7,1.9,0.8,3.7,0.1,5.6C7,65.7,7.2,66.5,6.5,67z"/>
	<path class="st20" d="M4.7,50.9c-0.1,0.3-0.3,0.6-0.4,0.9c-0.5-0.3-0.4-0.9-0.4-1.4c0-1.6,0-3.3,0-4.9c0.2-0.2,0.4-0.1,0.6,0.1
		c0.7,1.5,0.2,3.1,0.5,4.6C5,50.5,4.9,50.7,4.7,50.9z"/>
	<path class="st21" d="M20.8,89.5c0-0.3,0.1-0.6,0.1-0.8c1.2,0,0.9,1.2,1.4,1.8C21.5,90.4,21.3,89.6,20.8,89.5z"/>
	<path class="st26" d="M14.2,27.1c-0.8,0.9-1.3,1.9-1.4,3.1c-0.8,0.7-0.9,1.7-0.9,2.7c-0.8,1.6-1.4,3.2-1.8,4.9
		c-0.5,2.8-1,5.6-1.4,8.5C8.2,50.4,8.2,54.5,9,58.6c0.7,3.6,1.3,7.1,2,10.7c-1.9,0.5-1.2-1.5-2-2.1c-0.7-2.2-1.4-4.5-1.8-6.8
		C7.1,60.2,7,60,7,59.8c-1-5-0.7-10.1-0.4-15.1c0.2-3.4,1.1-6.9,2.7-10.1c1.1-1.2,1.1-2.9,1.8-4.3c0.3-0.6,0.7-1.2,0.8-1.9
		c0.1-0.4,0.3-0.8,0.5-1.1c0.9-1.1,1.1-2.5,2-3.6c0.1-0.1,0.2-0.1,0.2-0.2c0.3,0,0.6,0,0.9,0C15.2,24.8,14.1,25.7,14.2,27.1z"/>
	<path class="st27" d="M14.2,21.3c1.4-0.8,1.7-2.5,3.1-3.2c-0.9,1.8-1.8,3.6-2.7,5.4c0,0,0,0,0,0c-0.1,0.1-0.3,0.2-0.5,0.1
		c-0.4-0.6-0.2-1.3,0-1.9C14.2,21.6,14.2,21.4,14.2,21.3z"/>
	<path class="st17" d="M17.3,21.7c-0.5,0.3-0.6,1-1.3,0.9c0.4-0.9,0.8-1.8,1.8-2.3C17.6,20.8,17.5,21.3,17.3,21.7z"/>
	<path class="st16" d="M7.4,59.9c0,0.1,0.1,0.3,0.1,0.4C8,62,7.7,63.8,8.8,65.5c0.5,0.8-0.6,2.5-0.5,3.8c-0.1,0.2-0.2,0.4-0.4,0.5
		C7.4,68.9,7,68,6.5,67c0.5-2.5-0.4-5.1,0-7.6C7,59.1,7.2,59.6,7.4,59.9z"/>
	<path class="st28" d="M12.4,80.9c-0.1-0.6-0.3-1.1-0.9-1.3c0.6-1.4-1.6-1.5-1.4-2.7c-0.1-0.2-0.2-0.3-0.2-0.5
		c0.2-0.5,0.1-0.8-0.2-1.3c-0.4-0.6-0.8-1.4,0.4-1.8c0.8,1.1,0.6-0.8,1.2-0.4c1,0.7,0.8,1.9,1,2.9c-0.3,1.7,1.9,2.6,1.4,4.4
		C13,80,12.9,80.7,12.4,80.9z"/>
	<path class="st29" d="M10.1,73.3c-0.4,0.5-0.9,1.1,0.1,1.6c1.3,0.6,0.4,1.1,0,1.6c-0.4-0.2-0.2-0.7-0.5-0.9
		c-1.5-1.6-2.1-3.6-1.8-5.8c0,0,0.1-0.2,0.1-0.2c0.6-0.2,1,0.1,1.4,0.4c0.2,0.2,0.3,0.5,0.4,0.8c0.2,0.7,0.6,1.2,0.6,2
		C10.3,73,10.2,73.2,10.1,73.3z"/>
	<path class="st30" d="M9.7,75.6c0.4,0.2,0.5,0.5,0.5,0.9c0,0.1,0,0.3,0,0.4C9,76.8,9.4,76.2,9.7,75.6z"/>
	<path class="st31" d="M13.7,80.1c-0.4-1.4-2.2-2.3-1.7-4.1c0.6-0.3,1,0,1.5,0.3c1.2,0.9,0.9,2.7,2.1,3.8c0.8,1,1.5,2.1,2.3,3.1
		c0,1.5,0.9,2.7,1.4,4c-0.3,0-0.6,0-0.9,0c-0.8-0.3-0.9-1.2-1.4-1.8l0,0c-0.3-1.1-0.2-2.4-1.8-2.7C14.6,81.9,14.1,81,13.7,80.1z"/>
	<path class="st32" d="M13.2,76.5c-0.4-0.2-0.9-0.3-1.3-0.5c-0.5-1-0.2-2.2-0.9-3.1c-0.1,0-0.2-0.1-0.3-0.1
		c-0.5-0.4-0.2-1.1-0.5-1.6c-0.1-0.7,0.1-1.2,0.8-1.5c0.1,0,0.3,0,0.4,0.1c-0.1,1.2,1,1.7,1.4,2.6c0,0.6-0.5,1.2,0,1.8
		C13.6,74.9,14,75.6,13.2,76.5z"/>
	<path class="st33" d="M13.2,76.5c0.1-0.8,0-1.6-0.4-2.3c2.2,1.4,2,3.8,2.7,5.8C13.5,79.7,14.1,77.6,13.2,76.5z"/>
	<path class="st20" d="M4.3,39.7c0.6-0.5,0.4-1.2,0.5-1.8c0.1,0,0.3,0,0.4,0c1.2,1.7,0.5,3.5,0.3,5.3c-0.3,0.5-0.5,1.2-1.4,0.9
		c-0.1-0.9-0.3-1.8,0.1-2.6C4.3,40.9,4.3,40.3,4.3,39.7z"/>
	<path class="st4" d="M4.3,41.5c0,0.9,0,1.8,0,2.7c0.4,0.4,0.4,0.9,0,1.3c-0.1,0-0.3,0-0.4,0.1C4,44.2,3.4,42.7,4.3,41.5z"/>
	<path class="st34" d="M7.4,59.9c-0.3-0.1-0.6-0.3-0.9-0.4c-0.1-1-0.3-2.1-0.4-3.1c-0.6-1.2,0.2-2.5-0.5-3.6l0,0
		c-0.4-1.3-0.3-2.8-1-4c-0.1-0.4,0-0.8,0.2-1.2c1.1-1.2,0.5-2.5,0.5-3.8c0.1-0.2,0.2-0.4,0.3-0.5c1.2,0-0.3-0.6,0.2-0.8
		c0-0.2,0-0.4,0.1-0.6c0.2-0.6,0.2-1.1,0-1.7c-0.1-2.3,1-4.4,1.1-6.7c0.1-0.3,0.3-0.6,0.4-0.9c1.6-1,1.7-2.9,2.3-4.4
		c1.5-1.1,1.9-2.9,2.8-4.3c0.4-0.7,0.8-1.6,1.6-2c0.5,0.6,0,1.2,0,1.8c0.1,1.1-0.9,1.8-1,2.8c-0.6,0.8-1.2,1.7-1.4,2.7
		c-1.4,1.7-1.4,3.8-2,5.7c-1.3,3.2-2.4,6.6-2.5,9.8c-0.1,4.8-1,9.8,0.4,14.6C7.6,59.4,7.5,59.6,7.4,59.9z"/>
	<path class="st35" d="M15.1,82.8c1.9-0.1,2.3,0.6,1.8,2.7C15.9,84.8,15.5,83.8,15.1,82.8z"/>
	<path class="st35" d="M16.9,85.4c0.8,0.3,1,1.1,1.4,1.8c-0.2,0-0.3,0-0.5,0C16.9,86.9,16.8,86.2,16.9,85.4z"/>
	<path class="st36" d="M7,33.4C7.2,35,7.4,36.5,6.6,38c-0.3,0.6-0.6,1.4-0.1,2.1c-0.6,0.5,0.1,1.3-0.4,1.8l0,0c-0.4,0.4,0,1-0.4,1.4
		c-0.1,0.1-0.2,0.1-0.2,0.2c-0.1-0.1-0.2-0.1-0.2-0.2c0-1.8,0-3.6,0-5.4c0.2-0.4,0.3-0.9,0.5-1.3c0.5-0.5,0.6-1.2,0.8-1.8
		C6.6,34.3,6.4,33.7,7,33.4z"/>
	<path class="st20" d="M6.5,34.7c0.1,0.8-0.1,1.4-0.8,1.8C5.7,35.8,6,35.2,6.5,34.7z"/>
	<path class="st37" d="M11.1,69.7c-0.3,0.6-0.6,1.2-0.5,1.8C10,71.8,9.6,71.3,9.3,71c0-0.3,0-0.6,0-0.8c-0.1-1.1-0.6-2.1,0-3.2
		c1.2,0.3,0.3,2.2,1.8,2.3C11,69.4,11.1,69.6,11.1,69.7z"/>
	<path class="st17" d="M10.1,37.9c-0.3-2,0.6-3.5,1.8-4.9C11.5,34.7,11.2,36.4,10.1,37.9z"/>
	<path class="st38" d="M4.8,48.6c1.5,1.1,0.9,2.6,0.8,4.1c-0.5-0.5-0.8-1.1-0.9-1.8c0-0.1,0.1-0.3,0-0.4C4.4,49.8,4.4,49.2,4.8,48.6
		z"/>
	<path class="st38" d="M5.6,52.7c0.9,1.1,0.3,2.4,0.5,3.6C5.3,55.2,5.8,53.9,5.6,52.7z"/>
	<path class="st25" d="M4.8,48.6c0,0.6,0,1.2,0,1.8c-1-1.6-0.2-3.3-0.5-5c0-0.4,0-0.9,0-1.3c0.3-0.3,0.6-0.6,0.8-0.9
		c0,0,0.1,0,0.1,0c0.3,1.5,0.5,3-0.1,4.4C4.8,47.9,4.7,48.3,4.8,48.6z"/>
	<path class="st39" d="M9.3,67c0,1.1,1.1,2.1,0,3.2c-0.4-0.2-0.9-0.3-1.3-0.5c0.1-1.2-1-2.6,0.5-3.6c0.3-0.2,0.2-0.6,0-0.8
		c-1.6-1.4-0.9-3.3-1-5C8.2,62.5,9.1,64.7,9.3,67z"/>
	<path class="st37" d="M9.7,34.7c-0.4-2.2,0.1-4.2,1.8-5.8c0.1,0.1,0.1,0.1,0.2,0.2c0,0.4,0.1,0.8-0.2,1.1
		C10.8,31.7,11.2,33.6,9.7,34.7z"/>
	<path class="st6" d="M12.8,26.2c0.2-1,0.6-1.9,1.3-2.7c0.2,0,0.3,0,0.5,0c-0.2,1.5-0.9,2.8-1.8,4C12.5,27.1,12.5,26.6,12.8,26.2z"
		/>
	<path class="st37" d="M12.8,26.2c0,0.4,0,0.9,0,1.3c-0.3,0.2-0.4,0.5-0.4,0.9c-0.2,0.2-0.4,0.7-0.9,0.5c0,0,0,0,0,0
		C11.7,27.9,12.1,27,12.8,26.2z"/>
	<path class="st6" d="M11.5,28.9c0.3-0.2,0.6-0.3,0.9-0.5c-0.1,0.7-0.3,1.3-0.9,1.8C11.5,29.8,11.5,29.4,11.5,28.9z"/>
	<path class="st32" d="M10.1,73.3c0-0.1,0.1-0.3,0.1-0.4c0.3-0.3,0.6-0.3,0.9,0c0,0,0,0,0,0c0,0.4-0.1,0.9-0.5,1
		C10.2,74,10.2,73.6,10.1,73.3z"/>
	<path class="st28" d="M11,72.9c-0.3,0-0.6,0-0.9,0c-0.3-0.6-0.6-1.3-0.9-1.9c0.4,0.2,0.9,0.3,1.3,0.5C10.7,72,10.9,72.4,11,72.9z"
		/>
	<path class="st38" d="M5.1,47.7c-0.3-1.5,0-3,0.1-4.4c0.1,0,0.3,0,0.4,0C5.7,44.8,6.9,46.4,5.1,47.7z"/>
	<path class="st38" d="M5.6,43.3c0-0.5-0.1-1,0.4-1.4c0.1,0.4,0.3,0.8,0.3,1.2c0.1,0.2,0.3,0.6-0.2,0.6C6.1,43.7,5.9,43.4,5.6,43.3z
		"/>
	<path class="st38" d="M6.1,41.9c0.4-0.6-0.8-1.5,0.4-1.8C6.5,40.7,6.8,41.4,6.1,41.9z"/>
</g>
</svg>
