<?xml version="1.0" encoding="utf-8"?>
<!-- Generator: Adobe Illustrator 25.0.0, SVG Export Plug-In . SVG Version: 6.00 Build 0)  -->
<svg version="1.1" id="Layer_1" xmlns="http://www.w3.org/2000/svg" xmlns:xlink="http://www.w3.org/1999/xlink" x="0px" y="0px"
	 width="105.5px" height="129px" viewBox="0 0 105.5 129" style="enable-background:new 0 0 105.5 129;" xml:space="preserve">
<style type="text/css">
	.st0{fill:#48A6DD;}
	.st1{fill:#FFFFFF;}
	.st2{fill:#231F20;}
	.st3{fill:#FAFAFA;}
	.st4{fill:#2F2F2F;}
	.st5{fill:#E7E7E7;}
	.st6{fill:#454545;}
	.st7{fill:#A4A4A4;}
	.st8{fill:#414141;}
	.st9{fill:#1F1F1F;}
	.st10{fill:#0C0C0C;}
	.st11{fill:#DEDEDE;}
	.st12{fill:#292929;}
	.st13{fill:#525252;}
	.st14{fill:#BDBDBD;}
	.st15{fill:#A3A3A3;}
	.st16{fill:#212121;}
	.st17{fill:#3A3A3A;}
	.st18{fill:#D9D9D9;}
	.st19{fill:#2C2C2C;}
	.st20{fill:#141414;}
	.st21{fill:#6E6E6E;}
	.st22{fill:#131313;}
	.st23{fill:#7A7A7A;}
	.st24{fill:#424242;}
	.st25{fill:#303030;}
	.st26{fill:#494949;}
	.st27{fill:#C3C3C3;}
	.st28{fill:#C1C1C1;}
	.st29{fill:#AEAEAE;}
	.st30{fill:#595959;}
	.st31{fill:#656565;}
	.st32{fill:#6C6C6C;}
	.st33{fill:#BABABA;}
	.st34{fill:#9B9B9B;}
	.st35{fill:#434343;}
	.st36{fill:#393939;}
	.st37{fill:#515151;}
	.st38{fill:#686868;}
	.st39{fill:#4F4F4F;}
	.st40{fill:#4A4A4A;}
	.st41{fill:#8C8C8C;}
	.st42{fill:#929292;}
	.st43{fill:#404040;}
	.st44{fill:#878787;}
	.st45{fill:#939393;}
	.st46{fill:#9A9A9A;}
	.st47{fill:#343434;}
	.st48{fill:#A8A8A8;}
	.st49{fill:#484848;}
	.st50{fill:#A0A0A0;}
</style>
<g>
	<path class="st0" d="M90.8,126.5H15c-2.2,0-4-1.8-4-4v-23c0-2.2,1.8-4,4-4h75.8c2.2,0,4,1.8,4,4v23C94.8,124.7,93,126.5,90.8,126.5
		z"/>
	<g>
		<path class="st1" d="M31.9,113c-0.1-2-0.1-4.4-0.1-6.8h-0.1c-0.5,2.1-1.2,4.4-1.8,6.4l-2,6.4H25l-1.8-6.4
			c-0.5-1.9-1.1-4.3-1.5-6.4l0,0c-0.1,2.2-0.2,4.8-0.3,6.8l-0.3,6.3h-3.4l1.1-16.5h5l1.6,5.5c0.5,1.9,1,4,1.4,5.9h0.1
			c0.5-1.9,1-4.1,1.6-5.9l1.8-5.5h4.9l0.9,16.5h-3.6L31.9,113z"/>
		<path class="st1" d="M53.7,110.9c0,5.4-3.3,8.7-8.1,8.7c-4.9,0-7.7-3.7-7.7-8.4c0-4.9,3.2-8.6,8-8.6
			C51,102.6,53.7,106.3,53.7,110.9z M41.8,111.1c0,3.2,1.5,5.5,4,5.5s4-2.4,4-5.6c0-3-1.4-5.5-4-5.5
			C43.3,105.5,41.8,107.9,41.8,111.1z"/>
		<path class="st1" d="M71.2,110.9c0,5.4-3.3,8.7-8.1,8.7c-4.9,0-7.7-3.7-7.7-8.4c0-4.9,3.2-8.6,8-8.6
			C68.5,102.6,71.2,106.3,71.2,110.9z M59.3,111.1c0,3.2,1.5,5.5,4,5.5c2.5,0,4-2.4,4-5.6c0-3-1.4-5.5-4-5.5
			C60.8,105.5,59.3,107.9,59.3,111.1z"/>
		<path class="st1" d="M73.7,119.3v-16.5H78l3.4,6c1,1.7,2,3.8,2.7,5.6h0.1c-0.2-2.2-0.3-4.4-0.3-6.9v-4.8h3.4v16.5h-3.9l-3.5-6.4
			c-1-1.8-2.1-3.9-2.9-5.8h-0.1c0.1,2.2,0.1,4.5,0.1,7.2v5h-3.3C73.7,119.2,73.7,119.3,73.7,119.3z"/>
	</g>
</g>
<circle class="st2" cx="53" cy="52.3" r="51.2"/>
<g>
	<path class="st3" d="M89.2,16.3C100.3,26.9,104.7,40,104.1,55c-0.3,6.9-2.1,13.4-5,19.5c-0.6,1.3-1.5,2.4-2.2,3.6
		c-1.4-0.1-1.6-0.4-1-2c1.2-2.8,2.7-5.5,3.1-8.7c0.2-1.8,1.2-3.5,1-5.4c0-0.4,0-0.7-0.3-1c-0.5-0.7-0.6-1.6,0.1-2
		c1.3-0.9,1-2.2,1.1-3.5c0.2-3.3-0.6-6.6-0.6-9.9c0-2.8-0.5-5.9-1.8-8.6c-0.5-1.2-1-2.4-1.5-3.6c-0.2-1.2-0.5-2.3-1.5-3.4
		c-1-1.1-1.9-2.4-2.3-4c-0.5-2-2-3.5-3.2-5.1c-0.5-0.7-1.3-1.3-1.3-2.3C89.2,18,87.7,16.8,89.2,16.3z"/>
	<path class="st4" d="M90.6,70c0.4,0.1,0.9,0.3,0.9-0.5c0.3-3.8,1.7-7.3,2-11.1c0.2-2.8,0.4-5.7,0.3-8.5c-0.1-1.8,0.1-3.6-1.4-5
		c-0.4-0.5,0.1-0.8,0.5-1c0.4-0.4,0.8-0.4,1.3-0.2c0.2,0.1,0.4,0.3,0.5,0.5c0.1,0.2,0.2,0.5,0.2,0.7c0,1.3,0.3,2.6,0.9,3.7
		c1.5,3.3,0.1,6.6-0.1,9.9c-0.2,2.5-0.3,5-1.8,7.2c-0.6,0.8-0.1,1.9-0.3,2.9c-0.2,1-0.3,2-0.9,2.8c-0.2,0.2-0.5,0.3-0.7,0.3
		C90.6,71.7,90,71.2,90.6,70z"/>
	<path class="st5" d="M100.2,60.8c0.2,0.1,0.6,0.2,0.6,0.2c-0.3,1.3,0.3,2.9-0.2,3.9c-1.5,2.9-1.1,6.4-3.2,9.1
		c-0.7,0.9,0.4,2.7-1.5,3.1c-0.1,0,0.8,0.5,1.1,1c-0.9,1.9-2.1,3.6-3.6,5c-0.5,0.2-0.8-0.1-1.1-0.5c-0.1-0.3-0.1-0.6,0-0.9
		c0.7-1,1.9-1.5,2.2-2.8c-0.2-0.8-0.5-1.6,0-2.4c1.3-2.3,1.8-4.8,2.6-7.3c0.9-2.1,1.2-4.4,1.8-6.6C99.1,62,99.4,61.2,100.2,60.8z"/>
	<path class="st6" d="M76.3,11.8c-2-2.1-4-4-6.5-5.5c-1.4-0.8-2.8-1.6-4.2-2.3c-0.3-0.2-0.7-0.3-0.6-0.8c0.1-0.5,0.5-0.6,0.9-0.4
		c1.9,0.8,4.2,0.8,5.9,2c-0.7,0.5-0.1,0.6,0.2,0.9c1.6,1.4,3.8,1.9,5.3,3.5c0.4,0.5,1.2,0.8,0.8,1.6C77.1,10.4,77.1,11.8,76.3,11.8z
		"/>
	<path class="st7" d="M78.2,10.9c-1.8-2.2-4.5-3.2-6.8-4.9c-0.3-0.2-0.9-0.4-0.5-1c0.1-0.2,0.6-0.1,0.9-0.1c2.8,1.2,5.7,2.2,8.1,4
		c0.8,0.5,1.9,0.8,2.1,1.9c-0.5,0.4-0.9,0.7-1.4,1.1c-0.7,0.2-1.1-0.3-1.7-0.5c-0.2-0.1-0.4-0.2-0.5-0.3
		C78.3,11,78.2,10.9,78.2,10.9z"/>
	<path class="st8" d="M94.2,43.9c-0.4,0-0.9,0-1.3,0c0-1-1.1-1.4-1.5-2.2c-0.1-0.1-0.2-0.4-0.1-0.4c2.7-1.4,0.3-3.2,0.4-4.8
		c-0.7,0.2-0.6,1.3-1.6,1c0-1.6-0.3-3.2,0.3-4.7c0.4-1-0.5-1.5-0.8-2.2c0.6-0.5,1.1-0.2,1.5,0.3c0.3,0.4,0.4,0.8,0.4,1.3
		c0.1,0.3,0.1,0.6,0.2,0.9c1.6,2.1,2.3,4.6,2.9,7.1C95,41.4,95,42.7,94.2,43.9z"/>
	<path class="st9" d="M76.3,11.8c0.5-0.6,0.7-1.5,1.8-1c0,0,0,0,0,0c1.4,2.4,3.2,4.4,5,6.5c0.4,0.4,0.7,1,1.1,1.4
		c0.1,0.2,0.2,0.3,0.3,0.5c0.7,0.9,0.7,2,1.5,2.9c0.1,0.2,0.1,0.4,0.1,0.6c0,0.2-0.1,0.4-0.3,0.5c-2.9-0.9-2.6-4.3-4.7-5.9
		C79.3,15.8,78.4,13.3,76.3,11.8z"/>
	<path class="st10" d="M79.1,91.9c0.3-1.8,0.8-3.4,2.6-4.4c1.4-0.8,2-2.7,3.4-3.8c0.2,0.3,0.3,0.6,0.2,0.9c-0.1,1.2-0.8,2.2-1.1,3.3
		c-0.1,0.4-0.2,0.8-0.5,1.2c-0.3,0.4-0.9-0.4-0.9,0c-0.2,2-1.8,2.3-3.2,2.9C79.5,92.1,79.3,92.1,79.1,91.9z"/>
	<path class="st11" d="M89.2,16.3c-0.5,0.3-0.4,0.7-0.1,1.1c0.3,0.4,0.7,0.8,0,1.2c-0.6-0.3-1.2,0-1.7-0.1c-0.2,0-0.4-0.1-0.6-0.2
		c-0.1-0.1-0.2-0.3-0.2-0.5c0-0.4,0.1-0.7,0.1-1.1c-1.2-1.1-2.1-2.5-3.4-3.6c-0.6-0.4-1.1-1.1-0.5-1.9
		C85.4,12.3,87.5,14.1,89.2,16.3z"/>
	<path class="st12" d="M90.1,37.4c0.9-0.6,0.7-1.8,1.4-2.7c0.9,1.6,1,3.5,2,5c-0.7,0.2,0.6,3-1.7,1.2c-0.2-0.2-0.3,0.4-0.4,0.6
		C91.8,40,89.9,39,90.1,37.4z"/>
	<path class="st13" d="M91,31c-0.5-0.1-0.9-0.3-1.4-0.4c-1.3-1.1-1.2-2.7-1.3-4.1c-0.5-0.5-0.9-1.1-0.9-1.8c0-0.5,0-0.9,0.3-1.3
		c0.4-0.4,0.8-0.1,1.2,0.1c0.6,0.5,0.1,1.4,0.7,1.9c0.2,0,0.3,0.1,0.5,0.3c0.4,0.6,0.3,1.5,0.8,2.1c-0.3,1.1,1.2,1.9,0.5,3.1
		C91.2,30.9,91.1,30.9,91,31z"/>
	<path class="st14" d="M82.8,11.2c0.8,2.1,2.6,3.4,4.3,4.7c0.4,0.3,0.7,0.5,0.3,1c-1.2,0.2-2.2-0.2-2.9-1.2c-1.1-1.5-3.2-2-4-3.8
		c0.2-0.7,0.5-1.3,1.5-1C82.4,10.7,82.7,10.7,82.8,11.2z"/>
	<path class="st15" d="M87.8,89.6c-1.8,1.7-3.6,3.5-5.9,4.6c-0.2,0.1-0.4,0.2-0.6,0c-0.3-1.2,0.7-1.7,1.3-2.4c0.6-0.7,1.6-0.9,2-1.8
		c0.2-0.3,0.4-0.5,0.6-0.7c0.6-0.4,1.1-0.9,1.9-0.8C87.6,88.7,87.6,89.2,87.8,89.6z"/>
	<path class="st16" d="M90.6,70C90.5,71,91,71.4,92,71.3c1,1.9-0.5,2.8-1.7,3.7c-0.2,0.1-0.5,0.1-0.7-0.1c-1.1-0.8-1.3-1.8-0.2-2.7
		C90.2,71.6,89.8,70.5,90.6,70z"/>
	<path class="st17" d="M69.5,99.7c2.1-1,3.5-3.1,5.9-3.7c0.1,0.1,0.1,0.1,0.2,0.2c0.3,0.6-0.3,1-0.5,1.4c-0.1,0.3,0.1,0.5,0.2,0.7
		c-1.3,1-3.1,1.1-4.5,1.9C70.3,100.4,69.7,100.8,69.5,99.7z"/>
	<path class="st14" d="M87.8,89.6c-0.8,0-0.6-0.5-0.4-0.9c-1.2-1.7,0.9-2.2,1.3-3.3c0.3-0.2,0.6-0.2,0.9-0.1
		c0.6,0.3,0.5,1.1,0.9,1.5C89.7,87.9,88.9,88.9,87.8,89.6z"/>
	<path class="st18" d="M90.5,86.9c-0.9-0.1-0.8-0.8-0.8-1.4c0-0.1,0-0.2,0-0.3c0.2-0.6,0.7-1,1.1-1.3c0.5-0.4,0.9-1,1.7-1.1
		c0.3,0.2,0.6,0.3,0.9,0.5C92.9,84.9,91.3,85.6,90.5,86.9z"/>
	<path class="st19" d="M87.8,24.5c0.2,0.6,0.3,1.3,0.5,1.9c-2.3,0-2.7-0.5-2.3-3.2c0-0.2,0-0.4,0.1-0.6
		C87.4,22.6,87.2,23.9,87.8,24.5z"/>
	<path class="st20" d="M69.5,99.7c0.3,0.6,0.9,0.4,1.3,0.4c-1.6,1-3.2,1.6-5.3,1.2C66.7,100,68.2,100.2,69.5,99.7z"/>
	<path class="st21" d="M75.4,98.3c-0.5-0.1-1.5,0.3-0.8-0.9c1.5-0.4,2.1-2.5,4-2.1c0.3,0.1,0.6,0.4,0.7,0.7
		C78.1,97.3,76.5,97.4,75.4,98.3z"/>
	<path class="st22" d="M79.1,91.9c0.2,0,0.3,0,0.5,0c0.2,1.8-1.3,2.4-2.3,3.4c-0.7,0.2-1.1,0-1.4-0.7C76.6,93.3,77.6,92.3,79.1,91.9
		z"/>
	<path class="st23" d="M79.1,96.1c-0.2-0.2-0.3-0.3-0.5-0.5c-0.4-1.7,0.6-2.1,2-2.1c0.4,0.1,0.6,0.4,0.8,0.7c0.2,0,0.3,0,0.5,0.1
		C81.1,95,80.2,95.7,79.1,96.1z"/>
	<path class="st24" d="M85,84.6c0-0.3,0.1-0.6,0.1-0.8c0.1,0,0.3-0.1,0.4-0.1c0.3-0.2,0.3-0.5,0.5-0.8c0.4-0.4,0.7-0.8,1.4-0.6
		c1,1.8-0.1,2.8-1.3,3.8C85,86.1,85.2,85.2,85,84.6z"/>
	<path class="st25" d="M89.7,75c0.2,0,0.3,0,0.5,0c1.6,0.3,1.7,0.7,0.4,2.5c-0.2,0.2-0.5,0.3-0.8,0.4c-0.2,0-0.4,0-0.6-0.1
		c-0.3-0.3-0.6-0.6-0.4-1C89,76.2,89.4,75.6,89.7,75z"/>
	<path class="st20" d="M86.4,80.9c-0.1-1.1,0.8-1.6,1.4-2.2c0.1,0.1,0.2,0.1,0.3,0.2c0.8,1.5,0.2,2.2-1.4,2.2
		C86.6,81,86.5,80.9,86.4,80.9z"/>
	<path class="st20" d="M86,83.2c-0.2,0.1-0.3,0.3-0.5,0.4c0.3-0.9-0.6-2.2,0.9-2.7c0,0,0,0,0,0C87.2,81.9,86.3,82.5,86,83.2z"/>
	<path class="st26" d="M88.7,76.8c0.2,0.3,0.3,0.6,0.5,0.9c-0.2,1.6-0.3,1.7-1.3,0.9c0,0-0.1,0-0.1,0C87.9,78,88,77.2,88.7,76.8z"/>
	<path class="st17" d="M75.9,94.7c0.5,0.1,0.9,0.3,1.4,0.4c-0.2,1-0.9,1.2-1.8,1c0,0-0.1-0.1-0.1-0.1C75.5,95.5,75.4,95,75.9,94.7z"
		/>
	<path class="st27" d="M100.2,60.8c-0.3,0.6-0.6,1.2-0.9,1.8c-1,0.5-1.6,0.4-1.5-0.9c0.3-0.8,0.5-1.7,0.3-2.6
		C98,58.4,98,57.7,98.5,57c0.4-2,1.9-4,0.2-6.1c-0.2-0.3-0.2-0.6-0.2-0.9c0.1-0.6,0-1.2-0.1-1.7c0-0.2-0.1-0.4-0.1-0.6
		c-0.3-1.5,0.5-3.1-0.2-4.6c-0.1-0.3-0.1-0.6-0.1-0.9c0.3-0.7,0.5-1.4,0.1-2.2c-0.1-0.2-0.2-0.4-0.2-0.6c-0.3-1.1,0.2-1.8,0.9-2.5
		c0.4,0.3,1.1,0.7,1,0.7c-1,1.9,1.5,3.6,0.3,5.5c2.3,1.8-0.1,4.2,0.7,6.3c0.8,2.1,0.5,4.4,0.6,6.7c0.1,1.1,0.5,2.4-1.2,2.9
		C99.7,59.3,99.4,60.2,100.2,60.8z"/>
	<path class="st28" d="M87.3,18.2c0.7-0.4,1.3-0.3,1.8,0.4c1.3,2.7,3.9,4.5,4.8,7.5c0.5,1.8,1.6,3.4,3,4.8c0.5,0.5,0.6,1.5,0.5,2.4
		c-0.8,0.2-1.1-0.7-1.8-0.8c-0.2-0.1-0.3-0.3-0.4-0.5c-0.2-1.9-2-2.7-2.9-4.1c-0.4-1.7-2.1-2.4-3-3.7c0.1-1.7-1.3-2.8-1.8-4.4
		C87.5,19.3,86.8,18.9,87.3,18.2z"/>
	<path class="st29" d="M95.6,32.4c1.3-1,1.3,0.5,1.8,0.9c0.8,1.1,1.3,2.3,1.4,3.7c0.2,1-1,1.7-0.4,2.7c-0.2,0.1-0.5,0.1-0.6,0
		C97.1,39.1,95.4,33.4,95.6,32.4z"/>
	<path class="st30" d="M94.2,43.9c-0.9-0.6,0.2-1,0.2-1.4c-0.3-3.3-1-6.6-3.3-9.2c1.7-1,2.1-0.7,2.8,1.2c1.2,3.1,1.5,6.3,2.9,9.3
		c0.1,0.2,0.1,0.5,0.1,0.7c-0.5,2.3-0.6,4.5,0.2,6.7c0.4,1.2,0.1,2.5,0,3.8c-0.1,2.2-0.4,4.4-0.8,6.6c-0.6,3.4-1.5,6.6-3.2,9.6
		c-0.2,0.2-0.4,0.2-0.7,0c0.2-1.8,0.9-3.5,0.5-5.3c-0.3-1.2,1.1-1.5,1.4-2.5c0.5-1.6,0.5-3.2,0.6-4.7c0.2-3.3,1.7-6.6,0.2-9.9
		c-0.6-1.5-1.1-2.9-0.8-4.6C95,44,94.4,44,94.2,43.9L94.2,43.9z"/>
	<path class="st31" d="M92.4,71.3c0.2,0,0.3,0,0.5,0c-0.3,1,1,0.7,1.1,1.3c0.4,0.9-0.3,1.5-0.6,2.2c-0.1,0.2-0.2,0.4-0.3,0.5
		c-0.6,0.7-0.3,2-1.4,2.5c-0.5-0.9-0.6,0.4-1,0.1c-0.2,0-0.4-0.1-0.6-0.2c-0.1-0.2-0.1-0.4,0-0.5c0.5-0.8,1.6-1.5,0-2.3
		c0.7-1.2,2.2-1.9,1.9-3.7C92.1,71.3,92.3,71.3,92.4,71.3z"/>
	<path class="st32" d="M94.3,43.8c0.3-0.1,0.7-0.4,0.9,0.2c0.1,0.3-0.1,0.5-0.1,0.8c-0.2-0.2-0.4-0.4-0.7-0.5
		C94.3,44.1,94.3,44,94.3,43.8z"/>
	<path class="st28" d="M97.4,69.5c-0.5,2.5-1,5.1-2.5,7.2c-0.8,1.1,0.5,1.6,0.2,2.4c-0.5,0.3-1,0.5-1.6,0.3
		c-0.2-0.1-0.4-0.2-0.6-0.3c-1-1.3-0.3-2.8-0.1-4.1l0,0c1.4,0.1,2.2-0.5,2.3-2c0.1-1.3,0.7-2.4,1.3-3.6c0.1-0.2,0.3-0.3,0.5-0.4
		C97.3,68.9,97.6,69,97.4,69.5z"/>
	<path class="st33" d="M97.4,69.5c-0.1-0.2-0.3-0.3-0.4-0.5c-0.4-0.5-0.3-1-0.1-1.5c0.7-1.9,0.5-3.7-0.3-5.5
		c-0.3-1.3-0.3-2.5,0.5-3.6c0.5-0.3,0.9,0,1.3,0.4c0.7,1-0.2,2,0,2.9c-0.5,1.2,0.4,0.8,1,0.9C98.9,65,98.8,67.4,97.4,69.5z"/>
	<path class="st28" d="M92.4,82.8c-0.3,0.6-0.8,1.1-1.4,1.4c-0.4,0.2-0.6-0.1-0.8-0.5c-0.1-1.4,0.9-2.5,1.1-3.8
		c0.1-0.8,1-1.3,1.9-0.8l0.1,0.1c0.2,1.1-0.5,1.8-0.9,2.7C92.4,82.2,92.4,82.5,92.4,82.8z"/>
	<path class="st18" d="M92.4,81.9c-0.2-1.1,0.2-1.9,0.9-2.7c0.6,0,1.2,0,1.8,0C94.4,80.2,93.8,81.4,92.4,81.9z"/>
	<path class="st34" d="M80.5,11.7c1.7,1.2,3.6,2.2,4.8,4c0.5,0.8,1.6,0.3,2.1,1.1c-0.2,0.3-0.4,0.6-0.6,0.9
		c-0.6,0.3-1.1,0.3-1.7,0.1c-1.2-1-1.8-2.7-3.5-3c-1.6-0.9-2.8-2.1-3-4C79.5,10.8,79.9,11.5,80.5,11.7z"/>
	<path class="st35" d="M78.6,10.9c0.8,1.5,2,2.6,3.2,3.7c0.8,0.7,1.4,1.6,1.7,2.6c0,0.2-0.1,0.4-0.3,0.6c-2.2-1.9-4.5-3.8-5-6.9
		C78.3,10.9,78.5,10.9,78.6,10.9z"/>
	<path class="st32" d="M96.5,44.3c-0.8-1.1-1.3-2.3-1.5-3.7c-0.4-2.3-1.2-4.4-1.8-6.7c-0.4-1.4-1.3-0.8-2.1-0.7c0-0.3,0-0.6,0.1-0.9
		c0.4-0.8,0.2-1.8,0.9-2.5c1.9,0.2,2.4,2.2,2.7,3.3c0.8,3.1,2,6,2.7,9.1C97.6,43.4,98,44.2,96.5,44.3z"/>
	<path class="st13" d="M91.9,30.1c0.1,0.9-0.2,1.7-0.8,2.3c0-0.5,0-0.9-0.1-1.4c0,0,0,0,0,0c0.5-0.4,0-1.1,0.5-1.4
		C91.9,29.6,92.1,29.7,91.9,30.1z"/>
	<path class="st32" d="M83.2,17.2c-0.5-0.9-1.3-1.6-1.4-2.7c2.2-0.1,2.5,2.1,3.7,3.2c1.3,1.6,3,3,2.3,5.4c0,0.5,0,0.9,0,1.4
		c-1-0.3-0.9-1.5-1.8-1.8c0-0.1,0-0.3-0.1-0.4c-0.5-1.1-0.9-2.3-1.8-3.2l0,0C83.7,18.6,83.8,17.7,83.2,17.2z"/>
	<path class="st36" d="M84.1,19.1c1.3,0.7,1.9,1.7,1.8,3.2C84.5,21.7,84.8,20.2,84.1,19.1z"/>
	<path class="st37" d="M83.2,17.2c1.2,0.2,0.8,1.1,0.9,1.8c-0.6-0.2-0.9-0.7-0.9-1.3C83.2,17.6,83.2,17.4,83.2,17.2z"/>
	<path class="st38" d="M86,86c0.3-1.2,2.2-2.1,1-3.7c0.2-1.4,1.3-2,2.8-1.4c0.4,1-0.2,1.7-0.6,2.5c-1.4,2-1.9,4.5-3.8,6.2
		c-0.1,0.2-0.3,0.3-0.4,0.5c-0.4,0.8-0.9,1.1-1.7,0.7c-0.4-0.7-0.1-1.1,0.4-1.5c0-0.4,0.1-0.9,0.1-1.3C84.3,87,84.9,86.2,86,86z"/>
	<path class="st39" d="M83.7,89.2c-0.1,0.5-0.3,0.9-0.4,1.4c-0.2,1.5-1.5,2.2-2.4,3.1c-1.2,0.1-2,0.6-2.2,1.9
		c-1.6,0-2.5,1.8-4.1,1.8c0.3-0.5,1-0.6,1-1.3c0.7-0.2,1.4-0.3,1.8-1c0.4-1.4,1.9-1.9,2.3-3.2c1-1,2.7-1.1,3-3
		C82.7,88,83.3,89.1,83.7,89.2z"/>
	<path class="st40" d="M86,86c-0.7,0.6-1.4,1.3-2.1,1.9c0.4-1.1,0.8-2.2,1.2-3.3C85.3,85,85.7,85.5,86,86z"/>
	<path class="st41" d="M87.8,23.1c-0.2-2-1.9-3.4-2.3-5.4c0.4-0.3,0.9-0.3,1.3,0c0.1,0.1,0.1,0.3,0.1,0.4c0,0.9,0.7,1.1,1.3,1.4
		c-0.2,1.7,2.3,2.6,1.5,4.6c-0.1,0.2-0.3,0.2-0.5,0.1c-0.3-0.1,0-0.7-0.5-0.7C88.4,23.5,88.1,23.3,87.8,23.1z"/>
	<path class="st34" d="M88.2,19.6c-0.9,0-1.7-0.2-1.3-1.4c0.1,0,0.3,0,0.4,0C87.3,18.9,88,19.1,88.2,19.6z"/>
	<path class="st42" d="M89.2,24.1c0.2,0,0.3,0,0.5,0c1.3,1,2.7,1.9,3.2,3.7c-0.8,1.1,0.6,1.1,0.9,1.7c0.5,1,1.2,1.9,1.8,2.9
		c0,0,0,0,0,0c0.3,1.2,0.4,2.5,1.6,3.4c0.6,0.4,0.1,1.1,0.1,1.6c0,0.8-0.1,1.9,1,2.3c0,0,0,0,0,0c0.3,0.8,0.4,1.5,0,2.3
		c0,0.3,0,0.6,0,0.9c0.2,1.7-0.8,3.5,0.4,5.1c0,0.1,0,0.3,0,0.4c-0.3,0.5,0.1,0.9,0,1.4c0,0.3,0,0.6,0,0.9c0.7,2.1,0.5,4.3,0,6.4
		c-0.4,0.6-0.4,1.2-0.1,1.8c-0.1,0.2-0.3,0.2-0.4,0c-0.3-0.2-0.6-0.4-1-0.5c-1-1.9,0-3.8-0.2-5.7c-0.3-2.8-1.1-5.6-0.6-8.4
		c0,0,0,0,0,0c0.4-0.2,1-0.6,0.7-1c-1.7-2.5-1.5-5.7-2.8-8.4c-0.6-1.2-1.5-2.5-1.6-4c-0.1-0.6-0.4-0.8-0.9-0.8
		c-0.1-0.2-0.3-0.3-0.4-0.5c-0.5-0.4-0.9-1-0.8-1.7c0.6-1.3-0.7-1.7-1.2-2.4c-0.1,0-0.3,0-0.4,0C88.9,25.1,88.8,24.6,89.2,24.1z"/>
	<path class="st43" d="M91,27.9c0.2,0.6,0.4,1.1,0.5,1.7c-0.1,0.5,0.1,1.1-0.5,1.4c0.1-0.9-0.3-1.7-0.8-2.4
		c-0.4-0.6-0.2-0.7,0.4-0.8C90.8,27.5,90.9,27.6,91,27.9z"/>
	<path class="st41" d="M91,27.9c-0.1-0.1-0.3-0.1-0.4-0.1c-0.8-0.5-0.6-1.5-1-2.2C90.6,26,91.6,26.5,91,27.9z"/>
	<path class="st32" d="M89.2,24.1c0,0.5,0,1-0.1,1.5c-0.9-0.5-0.2-1.3-0.4-2c0.1-0.2,0.2-0.3,0.3-0.5C89.1,23.5,89.2,23.8,89.2,24.1
		z"/>
	<path class="st44" d="M85.5,89.6c-0.1-0.4-0.3-0.8,0-1.1c1.9-1.3,1.8-3.8,3.3-5.3c0.9,0.8,1.1,1.5,0,2.3c0.5,1.5-1.9,1.7-1.4,3.2
		C86.7,89,86.1,89.3,85.5,89.6z"/>
	<path class="st45" d="M80.9,93.7c0.5-1.3,1.6-2.1,2.4-3.1c0.6,0,1.2-0.1,1.8-0.5c0.2,1.4-1.3,1.2-1.8,1.9c-0.5,0.8-1.6,1.2-1.8,2.2
		C81.3,94,81.1,93.9,80.9,93.7z"/>
	<path class="st46" d="M88.7,85.5c0.6-0.8,0.1-1.6,0-2.3c0.3-0.8,1-1.4,0.9-2.3c-0.4-0.5-0.5-1.1-0.4-1.7c0.1-0.6,0.5-1.1,0.9-1.4
		c0.2,0,0.3,0,0.5-0.1c0.3,0.3,0.6,0.1,1,0.1c0.6-0.9,0.3-2.2,1.3-2.9c0.8,1.3-0.5,2.8,0.5,4.1c-0.9,0.3-2,0.3-1.5,1.8
		c0.4,1.2-1.3,1.6-1.3,2.7c-0.4,0.6-0.6,1.2-0.9,1.9c0,0,0,0,0,0C89.3,85.5,89,85.5,88.7,85.5z"/>
	<path class="st14" d="M89.6,85.5c0-0.8,0.1-1.5,0.9-1.9c0.2,0.2,0.3,0.3,0.5,0.5C90.6,84.6,90.1,85.1,89.6,85.5z"/>
	<path class="st47" d="M89.7,79.1c0,0.6-0.1,1.2-0.1,1.8c-1.2-0.2-2,0.5-2.6,1.4c-0.2,0.4-0.5,0.8-1,1c0.2-0.8,0.3-1.5,0.5-2.3
		c1-0.4,2.1-0.8,1.4-2.3c1.1,0.7,0.7-0.8,1.3-0.9c0.1,0,0.3,0,0.4,0C90,78.2,89.2,78.7,89.7,79.1z"/>
	<path class="st26" d="M89.7,79.1c-0.8-0.4-0.2-0.9-0.1-1.4c0.2-0.2,0.3-0.3,0.5-0.5c0,0.2,0,0.3,0.1,0.5
		C90,78.2,89.8,78.7,89.7,79.1z"/>
	<path class="st29" d="M98.8,57.1c0-2.1,0-4.3,0-6.4c0.9,0.2,1.8,0.4,1.2,1.7C99.3,53.9,100.3,55.8,98.8,57.1z"/>
	<path class="st29" d="M98.8,48c-2-1.5-1.1-3.3-0.4-5.1c1.3,0.6,0.5,1.5,0.4,2.3C98.8,46.2,98.8,47.1,98.8,48z"/>
	<path class="st41" d="M98.4,58.9c0.1,0,0.3,0,0.4,0c0.2,1,0.1,1.9-0.4,2.7C97.6,60.8,98.7,59.9,98.4,58.9z"/>
	<path class="st29" d="M98.4,42c0-0.8,0-1.5,0-2.3C98.8,40.5,99.6,41.2,98.4,42z"/>
	<path class="st29" d="M98.8,49.8c-0.6-0.5-0.5-0.9,0-1.4C98.9,48.9,99.5,49.3,98.8,49.8z"/>
	<path class="st29" d="M100.2,45.7c0,0.4,0,1.2-0.1,1.2c-0.6,0.1-0.3-0.4-0.3-0.7c0-0.2,0.1-0.4,0.1-0.6
		C100,45.7,100.1,45.7,100.2,45.7z"/>
	<path class="st29" d="M95.6,32.4c-1.6-1.1-2.9-2.4-2.8-4.6C94,29.2,96,30.1,95.6,32.4z"/>
	<path class="st32" d="M96.5,44.3c0.4,3.2,1.3,6.3,1.2,9.5c-0.1,1.5,0.4,3.2-0.3,4.7c-0.9,1.2-0.4,2.5-0.4,3.7
		c-0.5,2.5-0.6,5.1-1.9,7.5c-0.1,0.2-0.1,0.4-0.2,0.6c-0.4,0.7-0.5,1.6-0.9,2.3c-0.1,0.1-0.2,0.1-0.3,0.2c-0.5-0.3-1.4-0.4-0.8-1.4
		c1.6-4.3,3.1-8.8,3.5-13.2c0.2-2.5,1.3-5.3-0.2-8C95.1,48.2,95.7,46.2,96.5,44.3z"/>
	<path class="st48" d="M97,69.5c-0.5,1.4-1.2,2.7-1.4,4.2c-0.2,1.8-1.2,2.3-2.7,1.3c-0.1-0.9,1.1-1.3,0.8-2.3c0,0,0.1,0,0.1,0
		c0.4-0.9,0.4-1.9,0.8-2.8l0,0C95.2,68.4,96,68.4,97,69.5z"/>
	<path class="st49" d="M91.6,77.8c-0.2,0.3-0.4,0.7-0.8,0.5c-0.1,0-0.1-0.4-0.1-0.6C90.9,77.6,91.4,76.5,91.6,77.8z"/>
	<path class="st50" d="M97,69.5c-0.8-0.2-1.7-0.6-2.3,0.5c1-2.5,0.9-5.4,2.3-7.8c1.8,2.3,0.7,4.6,0,6.9C97,69.2,97,69.3,97,69.5z"/>
	<path class="st50" d="M94.7,69.9c0.1,1,0,2-0.8,2.8C93.7,71.6,93.8,70.7,94.7,69.9z"/>
</g>
</svg>
