<?xml version="1.0" encoding="utf-8"?>
<!-- Generator: Adobe Illustrator 25.0.0, SVG Export Plug-In . SVG Version: 6.00 Build 0)  -->
<svg version="1.1" id="Layer_1" xmlns="http://www.w3.org/2000/svg" xmlns:xlink="http://www.w3.org/1999/xlink" x="0px" y="0px"
	 width="105.5px" height="129px" viewBox="0 0 105.5 129" style="enable-background:new 0 0 105.5 129;" xml:space="preserve">
<style type="text/css">
	.st0{fill:#48A6DD;}
	.st1{fill:#FFFFFF;}
	.st2{fill:#231F20;}
	.st3{fill:#7F7F7F;}
	.st4{fill:#424242;}
	.st5{fill:#666666;}
	.st6{fill:#BFBFBF;}
	.st7{fill:#2B2B2B;}
	.st8{fill:#6D6D6D;}
	.st9{fill:#AEAEAE;}
	.st10{fill:#535353;}
	.st11{fill:#262626;}
	.st12{fill:#848484;}
	.st13{fill:#A7A7A7;}
	.st14{fill:#303030;}
	.st15{fill:#343434;}
	.st16{fill:#BDBDBD;}
	.st17{fill:#747474;}
	.st18{fill:#474747;}
	.st19{fill:#A4A4A4;}
	.st20{fill:#808080;}
	.st21{fill:#949494;}
	.st22{fill:#909090;}
	.st23{fill:#AFAFAF;}
	.st24{fill:#797979;}
</style>
<g>
	<path class="st0" d="M90.8,126.5H15c-2.2,0-4-1.8-4-4v-23c0-2.2,1.8-4,4-4h75.8c2.2,0,4,1.8,4,4v23C94.8,124.7,93,126.5,90.8,126.5
		z"/>
	<g>
		<path class="st1" d="M31.9,113c-0.1-2-0.1-4.4-0.1-6.8h-0.1c-0.5,2.1-1.2,4.4-1.8,6.4l-2,6.4H25l-1.8-6.4
			c-0.5-1.9-1.1-4.3-1.5-6.4l0,0c-0.1,2.2-0.2,4.8-0.3,6.8l-0.3,6.3h-3.4l1.1-16.5h5l1.6,5.5c0.5,1.9,1,4,1.4,5.9h0.1
			c0.5-1.9,1-4.1,1.6-5.9l1.8-5.5h4.9l0.9,16.5h-3.6L31.9,113z"/>
		<path class="st1" d="M53.7,110.9c0,5.4-3.3,8.7-8.1,8.7c-4.9,0-7.7-3.7-7.7-8.4c0-4.9,3.2-8.6,8-8.6
			C51,102.6,53.7,106.3,53.7,110.9z M41.8,111.1c0,3.2,1.5,5.5,4,5.5s4-2.4,4-5.6c0-3-1.4-5.5-4-5.5
			C43.3,105.5,41.8,107.9,41.8,111.1z"/>
		<path class="st1" d="M71.2,110.9c0,5.4-3.3,8.7-8.1,8.7c-4.9,0-7.7-3.7-7.7-8.4c0-4.9,3.2-8.6,8-8.6
			C68.5,102.6,71.2,106.3,71.2,110.9z M59.3,111.1c0,3.2,1.5,5.5,4,5.5c2.5,0,4-2.4,4-5.6c0-3-1.4-5.5-4-5.5
			C60.8,105.5,59.3,107.9,59.3,111.1z"/>
		<path class="st1" d="M73.7,119.3v-16.5H78l3.4,6c1,1.7,2,3.8,2.7,5.6h0.1c-0.2-2.2-0.3-4.4-0.3-6.9v-4.8h3.4v16.5h-3.9l-3.5-6.4
			c-1-1.8-2.1-3.9-2.9-5.8h-0.1c0.1,2.2,0.1,4.5,0.1,7.2v5h-3.3C73.7,119.2,73.7,119.3,73.7,119.3z"/>
	</g>
</g>
<circle class="st2" cx="53" cy="52.3" r="51.2"/>
<g>
	<path class="st3" d="M5.5,41c-1.2,4.8-0.9,9.6-0.8,14.5c0,1.5,0.1,3.1,0.2,4.6c-0.1,0.4-0.3,0.6-0.7,0.6c-0.2,0-0.4-0.1-0.6-0.3
		c-1.6-2-0.7-4.4-1.1-6.6c-0.5-3,0.4-6,0.6-9c0.5-1.8,0.7-3.7,1.1-5.5c0.2-0.7,0.1-1.4,0.9-1.8C6.9,38.5,5.5,39.8,5.5,41z"/>
	<path class="st4" d="M5.5,41c-0.8-1.1,0.7-2.4-0.3-3.4c-0.7-0.7-0.2-1.3,0-1.9c0.8-0.7,1.1-1.6,1.2-2.7c0.1-0.2,0.2-0.3,0.3-0.5
		c0.6-0.4,0.7-1,0.9-1.7c0.1-0.2,0.1-0.4,0.2-0.5c0.6-0.7,0.8-1.5,0.8-2.3c0.2-0.4,0.4-0.8,0.5-1.3c0.2-0.5,0.6-0.9,0.9-1.4
		c0.7-0.6,1-1.8,2.2-1.5c0.2,1.2-1,1.8-1.4,2.7C9.1,30.6,7,34.7,6.4,39.4C6.3,40,6.1,40.6,5.5,41z"/>
	<path class="st5" d="M18.7,88.8c0,0.1,0,0.3,0.1,0.4c0.1,0.4-0.1,0.6-0.6,0.5c-2.5-2.5-4.9-5-6.8-8.1c0.1-0.5-0.4-1.1,0.2-1.5
		c0.3-0.1,0.6,0,0.8,0.2c0.9,2,2.6,3.5,3.7,5.3c0.4,0.6,0.9,1.2,1.2,1.8C17.8,87.9,18.3,88.3,18.7,88.8z"/>
	<path class="st6" d="M3.5,44.9c-0.3,2.1,0.1,4.2-0.8,6.2c-0.4,0.8,0.6,1.7,0.3,2.6c-0.3,0.2-0.4,0.7-0.9,0.4
		c-0.6-4,0.1-7.9,0.9-11.8C4.1,43,3.6,44,3.5,44.9z"/>
	<path class="st7" d="M5.6,63C7.3,64,7.5,66,7.8,67.6c0.4,1.7,0.9,3.4,1.1,5.2c-0.1,0.1-0.3,0.2-0.5,0.2c-1-0.5-0.9-1.6-1.4-2.4
		c-0.1-0.2-0.2-0.4-0.2-0.5c-0.4-1-1-2-1.3-3.1C5.5,65.5,4.5,64.2,5.6,63z"/>
	<path class="st8" d="M7.3,70.2c0.8,0.7,0.5,1.9,1.2,2.6c1.1,2.1,2.4,4.1,2.7,6.5c-0.2,0.5-0.5,0.6-1,0.6C10,79.6,9.7,79.3,9.5,79
		c0.5-0.6-0.1-1-0.4-1.4c-0.6-1.3-1.6-2.4-2.1-3.8c-0.3-0.7-0.6-1.3-0.7-2.1C6.4,71.1,6.5,70.5,7.3,70.2z"/>
	<path class="st9" d="M3.5,44.9c-0.2-0.8,0.3-1.8-0.4-2.6c0.8-3,0.9-6.1,2.5-8.9c0.2-0.1,0.4-0.1,0.6,0.1c0.4,0.9,0.1,1.5-0.6,2
		c-0.1,0.7-0.2,1.3-0.4,2c-0.6,1.9-1.1,3.8-1.2,5.8C4,44,3.9,44.4,3.5,44.9z"/>
	<path class="st10" d="M12.7,20.7c1.6-1.9,2.9-4.1,5.1-5.5c0.2,0.3,0.3,0.6,0.1,0.9c-1.6,1.9-3.2,3.8-4.3,6.1
		c-0.3,0.6-0.8,0.7-1.2,1.1C11.3,22.3,13.3,21.7,12.7,20.7z"/>
	<path class="st11" d="M17.4,87.5c-2-2.2-4.1-4.2-5.2-7c-0.8-1-0.8-1,0.1-1.4c0.3,1.9,2.4,2.5,3.1,4.1C16.1,84.6,16.8,86,17.4,87.5z
		"/>
	<path class="st12" d="M5.6,63c-0.3,1.4,0.6,2.7,0.4,4.2c0.1,0.7,0.3,1.3,0.1,2c-0.6,0.6-0.8,0-1-0.4c-0.5-1.5-0.9-3-1-4.6
		c0-0.2,0-0.4,0-0.6c0-0.7,0-1.4-0.2-2.1c0-0.3,0-0.6,0.2-0.9c0.2-0.1,0.4-0.3,0.6-0.4C6.2,60.8,5.2,62.1,5.6,63z"/>
	<path class="st13" d="M4.6,63.8c0.3,1.9,0.6,3.8,1.3,5.5c0.3,0.2,0.3,0.5,0.3,0.9c-0.1,0.3-0.3,0.6-0.7,0.4c-1.1-2-1.4-4.2-2.2-6.3
		C3.6,63.8,4,63.6,4.6,63.8z"/>
	<path class="st14" d="M17.9,16.1c0-0.3,0-0.6-0.1-0.9c0.7-2,3-2.4,4.2-3.8c0.4-0.1,0.5,0.1,0.4,0.5C21.3,13.6,19.5,14.8,17.9,16.1z
		"/>
	<path class="st15" d="M12.4,79.1c-0.7,0.4-0.1,0.9-0.1,1.4c-0.2-0.1-0.5-0.1-0.7-0.2c-0.3-0.1-0.5-0.4-0.5-0.8
		c-0.5-2.4-2-4.4-2.6-6.8c0.1,0,0.3,0,0.4,0C10.2,74.8,10.8,77.2,12.4,79.1z"/>
	<path class="st16" d="M2.1,54.1C2.4,54,2.7,53.8,3,53.7c0.1,2.3-0.3,4.6,0.8,6.8C3.7,60.9,3.5,61.1,3,61c-0.3-0.2-0.1-0.7-0.4-1
		C2.2,58.1,2,56.1,2.1,54.1z"/>
	<path class="st17" d="M12.7,20.7c0.9,0,0.6,0.5,0.4,1c-0.3,0.5-0.9,0.9-0.7,1.6c0,0.1,0,0.2-0.1,0.3c-0.7,0.6-1.4,1.2-2.1,1.8
		c-0.3-0.3-0.3-0.6-0.1-1C10.8,23,11.8,21.9,12.7,20.7z"/>
	<path class="st18" d="M18.2,89.7c0.2-0.2,0.4-0.4,0.6-0.5c1.3,1.1,2.6,2.3,3.8,3.4c0.3,0.3,0.2,0.6-0.1,0.9
		C20.8,92.5,19.4,91.1,18.2,89.7z"/>
	<path class="st16" d="M4.6,63.8c-0.5,0.2-0.9,0.4-1.4,0.5c-0.5-0.5-0.3-1.1-0.3-1.6c-0.2-0.4-0.2-0.9-0.1-1.3C3.2,61,3.6,61,4,61.4
		c0.4,0.6,0.3,1.4,0.7,2.1C4.7,63.6,4.7,63.7,4.6,63.8z"/>
	<path class="st19" d="M7.3,74c0.7,1.3,1.9,2.3,2.1,3.8c-0.1,0.2-0.3,0.2-0.4,0c-0.9-1.2-1.7-2.4-2.2-3.8C6.9,73.8,7.1,73.8,7.3,74z
		"/>
	<path class="st20" d="M11,79.5c0.2,0.3,0.3,0.5,0.5,0.8c0,0.5,0.6,1-0.1,1.4c-0.6-0.5-1-1.1-1.2-1.8C10.4,79.6,10.7,79.5,11,79.5z"
		/>
	<path class="st21" d="M6,33.4c-0.1,0-0.3,0-0.4,0c0.1-1,0.7-1.8,1.1-2.6c1.4,0.5,0.8,1.1,0.1,1.8l0,0C6.4,32.7,6.8,33.6,6,33.4z"/>
	<path class="st22" d="M8.1,30.5c0,0.1,0,0.2-0.1,0.3c-0.7,0.1-1-0.2-0.9-0.9c0-0.7,0.4-1.2,0.9-1.6C8.9,28.9,8.9,28.9,8.1,30.5z"/>
	<path class="st12" d="M5.5,70.7c0.2-0.2,0.4-0.3,0.5-0.5c0.4-0.3,0.8-0.3,1.2,0c0,0,0,0,0,0c-0.3,0.5-0.5,1.1-0.4,1.7
		c-0.6-0.3-0.7,0.2-0.9,0.5C5.5,71.9,5.4,71.3,5.5,70.7z"/>
	<path class="st23" d="M5.9,72.4c0.1-0.6,0.3-0.8,0.9-0.5C7,72.6,7.1,73.3,7.3,74c-0.2,0-0.4,0-0.5,0C6.3,73.6,6.1,73,5.9,72.4z"/>
	<path class="st3" d="M7.2,29.9c0.2,0.4,0.4,0.7,0.9,0.9c-0.3,0.6,0.2,1.9-1.2,1.7C7,32,7.6,31.3,6.7,30.8C6.9,30.5,7,30.2,7.2,29.9
		z"/>
	<path class="st3" d="M8.1,30.5c-0.3-0.7,0.9-1.5-0.1-2.2c0.1-0.3,0.3-0.6,0.4-0.9c0.3,0.1,0.4,0.2,0.5,0.5
		C9.3,29,9.1,29.9,8.1,30.5z"/>
	<path class="st24" d="M10.2,24.5c0,0.3,0,0.7,0.1,1c-0.1,0.5-0.3,1-0.8,1.2c-0.2,0.2-0.3,0.2-0.5,0C9.1,25.8,9.6,25.1,10.2,24.5z"
		/>
	<path class="st13" d="M3.1,61.4c0,0.5-0.1,0.9-0.1,1.4c-0.1-0.9-0.2-1.8-0.3-2.7c0.1,0.3,0.3,0.5,0.4,0.8c0.1,0.1,0.2,0.2,0.1,0.3
		C3.2,61.3,3.1,61.4,3.1,61.4z"/>
	<path class="st20" d="M8.9,77.8c0.1,0,0.3,0,0.4,0c0.5,0.4,1.4,0.7,0.1,1.2C9.3,78.6,9.1,78.2,8.9,77.8z"/>
	<path class="st22" d="M9,26.6c0.2,0,0.3,0,0.5,0c-0.1,0.5-0.1,1-0.5,1.3c-0.2-0.2-0.3-0.3-0.5-0.5C8.6,27.2,8.8,26.9,9,26.6z"/>
	<path class="st23" d="M3.1,61.4c0-0.2,0-0.3,0-0.5c0.3-0.1,0.5-0.3,0.8-0.4c0.1,0,0.3,0,0.4,0c0,0.3,0,0.5,0.1,0.8
		c0.2,0.4,0,0.5-0.4,0.4C3.7,61.4,3.4,61.3,3.1,61.4z"/>
	<path class="st3" d="M6,33.4c0.3-0.3,0.6-0.6,0.8-0.8c-0.2,1.1,0.5,2.6-1.2,3C5.8,34.9,6.1,34.2,6,33.4z"/>
	<path class="st8" d="M7.3,70.2c-0.4,0-0.8,0-1.2,0c0-0.3,0-0.5-0.1-0.8c0-0.7,0.1-1.5,0.1-2.2C6.4,68.2,7.3,69,7.3,70.2z"/>
	<path class="st13" d="M3.9,61.7c0.1-0.1,0.3-0.3,0.4-0.4c0.6,0.6,0.4,1.4,0.4,2.1C4.2,63,3.9,62.4,3.9,61.7z"/>
</g>
</svg>
