<?xml version="1.0" encoding="UTF-8"?>
<svg id="Layer_1" data-name="Layer 1" xmlns="http://www.w3.org/2000/svg" viewBox="0 0 262.5 275.5">
  <path d="m218.37,136.76c.5-2.26,1.92-4.38,3.75-5.08,4.56-1.75,3.98-4.15,2.51-7.88-1.93-4.89-1.89-5.16-5.87-1.69-1,.87-1.79,1.99-2.81,2.82-2.05,1.66-3.93,2.55-3.8-1.5.03-1.01.04-2.21-1.21-2.37-1.11-.14-1.69.89-2.11,1.83-.21.45-.4.92-.57,1.39-.44,1.21-1.58,2.3-.8,3.73,1.22,2.22,2.42-1.63,4.33.75-6.5,1.02-9.36,6.47-13.81,9.99-5.41,4.29-5.22,5.71-2.59,12.06,2.2,5.32,4.42,10.93,3.86,16.98-.31,3.43,3.42,5.43,3.01,9.03-.07.59,2.98,2.08,4.28-.55.79-1.6,2.18-2.85,4.03-1.83,2.16,1.2.11,2.39-.25,3.67-.71,2.58,1.28,4.3,3.12,4.92,1.98.67,1.76-1.78,2.3-3.05.57-1.33-.34-4.03,2.22-3.62,2.23.36,1.54,2.71,1.33,4.22-.44,3.13,1.17,5.47,3.39,6.78,7,4.13,12.2,11.09,21.23,12.2,4.52.56,5.12,6.09,6.57,9.79,1.07,2.74,1.75,5.57,3.1,8.3,1.75,3.54,2.65,7.54,1.15,11.58-.71,1.89-1.31,3.88-.91,5.86.72,3.56-.92,5.95-3.82,7.28-4.73,2.18-3.45,7.17-5.24,10.68-.91,1.79,1.76,1.69,3.17,1.75,5.37.21,9.84,6.7,8.19,11.95-.34,1.1-.74,2.77-2.06,2.4-3.21-.89-6.34.94-9.22.37-8.43-1.67-16.79-.47-25.19-.39-3.62.03-7.6,1.88-10.76-1.56-.52-.56-1.19-.46-1.78-.01-5.9,4.45-12.32,3.49-18.84,1.88-9.1-2.25-18.52-3.46-26.51-9.03-3.71-2.59-6.85-2.7-9.27,2.16-1.24,2.49-4.01,3.59-6.82,1.66-2.18-1.5-3.4-2.02-4.68,1.27-1.63,4.17-12.25,5.96-15.52,2.93-1.63-1.5-.8-3.64-.75-5.57-1.58-.1-2.38.93-3.33,1.86-5.35,5.17-11.29,4.97-16-.82-2.53-3.11-5.73-1.34-8.32-1.25-4.5.16-8.85,2.34-13.52,2.17-2.63-.1-2.22,4.36-5.37,3.54-9-2.34-17.62,1.59-26.51,1.78-8.11.17-15.69-2.4-23.6-3.01-3.29-.25-6.19-.37-9,1.57-2.42,1.68-5.4,2.66-8,1.39-1.88-.92-2.33-3.72-1.73-5.82.87-3.02,2.01-6.21,5.96-6.49,1.97-.14,3.47-.91,4.78-2.33,1.52-1.65,2.06-2.25-.73-3.72-6.9-3.63-12.19-8.84-11.34-17.67.16-1.68-.47-3.01-1.56-4.04-5.06-4.78-4.27-10.88-1.59-15.66,3.85-6.88,4.53-13.87,4.24-21.29-.08-2.01-.61-4.27,1.28-5.53,2.17-1.45,3.86.39,5.82,1.32,3.33,1.58,7.03,3.09,10.02-1.01,1.54-2.11,6.47-2.08,5.06-5.71-1.25-3.21-5.03-.96-7.67-1.22-6.07-.59-10.66-6.57-9.11-12.03.5-1.74-.45-9.58-1.3-10.82-4.96-7.23-1.58-14.97,7.05-16.1.38-1.25-.59-1.91-1.31-2.45-3.24-2.38-3.33-5.36-2.22-8.88,1.06-3.33,2.85-6.91-2.07-9.18-1.03-.48-2.13-2.81-1.81-3.89,1.86-6.41-2.37-11.69-2.89-17.63-.36-4.11,2.39-6.24,4.88-8.48.78-.71,2.63-1.32,3.64.03,1.49,1.97,4.01,3.08,4.78,5.58.19.62-.63,1.1-1.37,1-.29-.04-.52-.51-.81-.55-2.4-.32-4.53-4.57-7.12-.95-2.09,2.92-.04,9.63,3.25,11.38,2.61,1.39,5.95,1.99,3.55,6.26-.44.78.63,1.73,1.74,2.03,5.43,1.48,4.31,5.22,2.54,8.58-1.55,2.93-2.61,5.58-1.56,8.95.51,1.64,1.15,3.02,2.82,2.91,4.46-.29,3.59,2.21,1.97,4.13-2.96,3.5-.97,4.41,2.09,5.32,1.68.5,3.44.36,5.03,1.76,3.84,3.38,6.74,2.43,8.31-2.63.74-2.39,1.46-4.64,2.89-6.79,1.83-2.74-1.52-9.12-5.2-10.47-.61-.22-1.33-.16-1.96-.34-2.92-.8-6.28.89-7.4,3.54-.47,1.12-.89,2.94-2.63,2.37-1.7-.56-1.23-2.23-.73-3.42,1.77-4.19-.41-8.7,1.43-13.09.93-2.22-2.22-4.56-3.45-6.88-.52-.99-1.63-1.77-.58-3.32,2.03.56,2.93,2.2,3.86,3.92,2.88,5.34,6.5,5.92,9.01.5,3.81-8.22,10.8-13.06,17.04-18.71,6.26-5.67,11.98-12.35,20.99-14,1.01-.19,1.85-.85,1.82-2.05-.04-1.43-.65-2.16-2.23-1.76-.4.1-1.07-.06-1.33-.35-2.52-2.75-2.56-2.81-4.83.02-.71.88-1.5,1.3-2.51,1.33-8.11.21-15.18,4.21-22.79,6.21-1.05.28-1.93.6-2.39,1.53-.79,1.6-1.99,1.8-3.23.82-1.38-1.09-2.19-2.52-1.01-4.33,3.73-5.77,7-11.73,14.98-12.98,4.94-.77,5.72-3.54,2.02-6.51-5.6-4.5-5.61-9.95-4.11-15.95,1.03-4.13,1.27-8.37,2.78-12.49,1.97-5.36-1.47-10.02-6.72-11.06-2.46-.49-3.3.65-4.21,2.36-1.08,2.05-.35,3.6,1.38,4.7,1.93,1.23,4.09,2.13,5.54,4.24-2.3,2.2-5.29.23-7.66,1.41-.2.1-1.06-.46-1.04-.67.83-8.83-4.02-2.64-6.51-2.41-.74.07-1.53.97-2.15,0-.52-.82-.09-1.56.74-2.04,1.48-.85,3.44-2.16,1.51-3.62-1.53-1.16-4.49-1.22-5.5,1.32-1.43,3.56-3.14,7.25-1.9,11.26.44,1.45.21,2.6-.41,3.8-.59,1.14-.9,2.81-2.66,2.38-1.65-.4-1.99-1.69-2.14-3.42-.17-2.01,1.67-5.58-1.39-5.78-3.08-.2-2.77,3.94-3.07,6.02-.37,2.54.35,5.69,2.3,7.73,3.13,3.28,6.98,2.35,10.05-2.01.82-1.17,1.13-2.9,2.95-3.03.28-.02.87.66.86.99-.08,1.94.49,4.38-1.51,5.47-3.49,1.89-4.47,5.95-7.68,8.09-1.7,1.14-1.42,3.99-.44,5.09,5.59,6.26,6.1,14.38,8.62,21.77-1.77.69-2.59-3.11-4.09-1.25-1.2,1.48-.93,3.73.69,5.45.65.69.81,1.82,1.32,2.67.48.82.89,2.04,2.1,1.78,1.28-.28.99-1.51.98-2.48-.01-1.3-.36-3.15,1.29-3.3,1.85-.17,2.08,1.68,2.41,3.21.31,1.44,1.07,2.78,1.35,4.22.17.87.6,2.29-.59,2.6-.65.17-1.61-.79-2.45-1.26.04,5.35.32,5.51,5.59,2.75-.49,3.98-1.88,5.9-5.99,3.98-2.69-1.26-4.5-3.4-6.03-5.77-3.41-5.32-6.54-10.83-10.09-16.05-1.79-2.64-4.75-4.54-4.6-8.25.04-.99-.38-2.32.12-2.92,3.94-4.81,1.63-8.69-.99-13.23-4.97-8.6-2.35-17.05,2.01-25.14,2.39-4.42,1.91-7.62-2.94-10.27-3.96-2.17-6.51-6.05-8.58-10.11-.65-1.28-1.29-2.54.04-3.57,1.24-.96,2.11.12,2.91,1,1.85,2.04,5.88,2.68,3.89,7.05,5.89-2.44,8.53,2.86,12.59,4.31.96-5.25-3.26-10.24-10.33-12.23,3.97-2.27,7.13-1.83,9.88,1.75,1.71,2.23,3.14,4.69,4.47,7.17,1.32,2.46,4.28,2.6,5.21,1.51,2.15-2.51,4.85-1.9,7.23-2.12,1.78-.16,2.71-.77,2.61-2.11-.17-2.45-1.96-.73-3.04-.83-1.59-.15-2.63,1.08-4.49,2.34,6.94-9.42,7.31-12.17,26.85-10.66.3,1.58-.96,1.91-1.96,2.38-1.02.47-1.59,1.09-1.38,2.3.24,1.44,1.16,1.98,2.46,1.9,2.95-.2,4.91,1.55,6.99,3.23,1.09.88,2.35,1.67,1.25,3.18-.92,1.25-2.63,2.38-3.8.98-2.62-3.16-6.52.09-9.32-2.29-.87-.74-1.61,1.31-2.2,2.15-.77,1.09.14,1.94,1.16,2.2,2.88.75,4.24,2.43,3.79,5.46-.17,1.14.47,2.22,1.46,2.31,4.65.42,1.76,2.52.99,4.11-1.24,2.54-4.83,3.48-3.86,7.73.58,2.53-2.58-.37-4.08.94,1.05,1.12-1.37,4.11,2.85,3.84,1.53-.1,1,2.75.63,4.11-.51,1.91-.46,3.22,1.54,4.03,3.81,1.55,5.6,5.5,8.99,7.56,2.25,1.37,1.48,3.36.85,5.69,2.5-3.42,4.74-2.14,8.07-1.24,7.61,2.06,15.22,2.04,22.97-2.11,6.03-3.23,8.56-8.86,12.49-13.39,2.93-3.38,2.26-8.91.32-13.27-1.89-4.25-3.7-4.33-6.89-.87-3.28,3.55-6.22,7.09-5.4,12.64.61,4.13-3.33,5.96-6.01,7.91-1.98,1.44-4.05-.43-6.19-1.33-3.25-1.37-5.76-2.45-6.6-6.32-.32-1.44-2.91-2.24-4.29-.92-4.18,3.97-5.55,1.33-6.63-2.48l-.12.14c.83-.02,2.15.28,2.42-.12,2.27-3.37,4.06-.66,6.04.3,4.24,2.08,5.83,1.12,5.91-3.48.02-1.14-.12-2.36.24-3.4.46-1.32,2.62-2.05,1.84-3.77-1-2.17-2.71.2-3.7-.21-1.64-.67-1.49-2.63-.63-3.83.94-1.32,2.31-3.49,4.28-1.54,2.04,2.03,3.23,1.87,5.27-.13,3.16-3.08,10.08-2.92,13.69-.07.64.5,1.03,1.47,1.92.65.43-.4.88-1.31.7-1.75-1.09-2.75-2.74-6.75-5.63-5.74-3.89,1.36-6.79-1.2-10.18-.71-.59.09-1.69-.12-1.81-.46-1.81-5.21-7.28-3.73-10.61-5.98-2.34-1.58-4.26-3.97-5.89-6.32-.9-1.29,1.02-1.71,1.92-2.31,2.14-1.41.78.77,1.16,1.16.33.34.54,1.18.76,1.17,6.72-.44,9.1,6.75,15.12,8.3,7.65,1.97,11.45.19,11.77-8.03-.01,0-.13.07-.13.07,4.03-1.15,8.18-1.54,12.31-1.07,4.65.54,8.35-1.64,11.59-4.2,2.9-2.3,5.16-1.12,7.03.47,2.43,2.07.03,4.04-.93,6.09-2.21,4.71-6.07,7.47-10.41,9.85-3.1,1.71-6.06.41-8.83-.67-1.32-.52-2.32-2.43.61-2.8,2.78-.35,2.53-2.44,1.98-4.14-.61-1.88-2.1-1.6-3.67-.78-.8.42-1.91.36-2.88.33-1.38-.05-2.92-.18-3.14,1.56-.15,1.19-.81,3.31,2.09,2.7.28-.06,2.53,2.95.67,4.87-1.23,1.27-1.68,2.46-.41,3.88,6.66,7.45,8.18,15.4,4.19,24.98-2.32,5.58-6.17,9.46-10.07,13.52-1.56,1.62-3.17,3.03-2.55,5.49,1.55,6.15-2.07,10.81-4.35,15.9-2.17,4.83-.2,10.14-1.39,15.14-.2.84.48,2.05,1.56,2.3,1.48.35,1.91-1.03,2.58-1.93,3.8-5.12,5.13-11.38,7.62-17.09,1.44-3.3,2.81-6.8,3.67-10.26,2.31-9.3,7.75-17.39,9.84-26.69,1.29-5.71,4.31-9.98,9.46-12.51,3.83-1.89,6.54-5.03,9.77-7.58,3.6-2.85,2.32-7.42,3.74-11.08,2.86-7.36,7.15-8.7,12.71-3.23,2.9,2.86,4.46,2.49,6.1-1.54.29-.71.64-1.06,1.36-1.17,4.7-.72,9.39-1.47,14.09-2.16,2.3-.34,2.94.88,2.55,2.94v-.04c.71,3.28,3.76,4.87,5.5,7.44.93,1.37,2.67,1.81,4.21.03,3.05-3.51,6.95-3.8,11.31-3.08,2.23.37,3.25,1.34,3.62,3.35.2,1.09-.05,2.02-1.26,2.33-2.76.7-2.78-1.58-3.44-3.19-.18-.44-.49-.82-1.23-1.29.41,5.47-3.94,7.21-6.84,10.06-3.13,3.07-6.56,3-9.21.06-3.89-4.33-8.16-5.22-13.14-2.81-1.97.95-2.74.69-3.85-1.13-1.78-2.94-5.3-4.29-8.01-5.59-2.71-1.31-4.3-3.8-7.56-5.46.75,3.6.07,6.51,2.17,9.29,2.31,3.05.26,7.37,2.41,10.77.63,1,.21,2.62,2.08,2.76,1.76.13,1.98-1.31,2.77-2.34,1.65-2.17,3.59-4.13,5.49-6.27,1.91,2.18.75,3.77-.06,5.32-1.09,2.08-2.03,3.98-1.38,6.6.43,1.73.95,5.07-3.14,2.74-1.37-.78-1.21.82-1.3,1.78-.22,2.3,1.38,4.09,1.66,6.18.62,4.71,3.67,8.93,2.6,14.03-.23,1.07.05,3.02,2.07,3.52,1.45.36,2.08,1.83,2.18,3.1.46,5.74,4.16,10.61,4.96,15.94,1.33,8.82,6.64,16.07,8.14,24.86.8,4.65,2.5,9.8,4.98,14.29,1.21,2.19,2.16,4.46,1.36,7.14-.7,2.36.78,4.23,2.68,4.7,2.29.58,2.1-1.98,2.62-3.4,1.85-5.08,3.64-10.18,6.07-15.1-.44,3.59-.95,7.17-1.29,10.77-.09.9-.43,2.18.66,2.71,1.37.67,2.23-.61,2.86-1.41,1.96-2.52,3.52-5.4,3.22-8.67-.3-3.31.42-4.56,3.75-2.95,4.96,2.4,9.09,2.55,10.91-3.94.17-.62,1.25-1.04,1.97-1.45,11.83-6.67,15.93-18.81,20.97-30.15,1.1-2.47.82-5.81-.17-9.01-2.76,1.72-4.49,3.56-5.94,6.49-5.41,10.97-11.41,21.65-17.39,32.33-.77,1.38-2.74,2.1-4.64,2.7,4.45-5.21,5.86-11.93,9.66-17.35,1.25-1.78,2.44-4.08,1.38-6.07-1.1-2.06-3.52-.75-5.42-.88-3.44-.25-6.88-.95-8.85-4.47-1.88-3.37-5.88-3.94-8.82-4.89-3.61-1.18-1.22-3.58-2.22-5.15-1.12-1.76,1.69-.79,2.64-1.26,4.18-2.1,9.05-1.81,13.09-5.33,5.21-4.55,7.56-10.15,7.09-16.21-.59-7.48-5.38-13.24-11.28-17.97-3.44-2.76-6.73-3.46-10.84-1.47-1.91.92-2.05,1.38-.62,2.62,1.49,1.28,2.51,2.93,4.42,3.9,5.58,2.84,8.64,7.56,9.27,13.85.73,7.4-5.04,11.82-11.83,8.73-3.63-1.64-6.03-2.05-7.71,2.51-1.56,4.24-1.32,7.07,1.09,10.73.72,1.09,5.27,2.88.37,5.53-1.49.81,1.29,3.82,3.35,4.78,6.86,3.18,11.16,9.14,16,14.51.54.6,1.74,1.24.64,3.15-8.48-7.4-16.85-14.69-25.21-21.99-3.89.45-4.52-5.04-8.47-4.63-1.13,3.39,1.7,4.84,3.5,6.43,2.22,1.95,3.11-1.66,4.97-1.82-2.54,2.77-2.35,5.27.05,8.26,6.79,8.48,4.69,20.12-.26,25.15-.9.92-1.62,2.52-3.17,1.86-1.5-.65-2.06-2.28-1.74-3.83.86-4.14.09-8.08-.51-12.19-.74-5.1-2.55-9.63-5.14-13.82-2.8-4.53-3.91-9.73-6.49-14.3-.43-.77-.55-1.21.55-1.83,4.12-2.29,3.88-5.83,2.04-9.43-1.87-3.67-2.85-6.75,2.15-8.89,2.35-1,2.45-3.05.15-4.62-4.15-2.83-5.02-7.79-7.09-11.8-1.54-2.97,3.13-4.77,4.49-7.47,1.1-2.18,3.46-1.42,4.92-.71,3.41,1.65,7.19,2.67,10.03,5.39,1.84,1.77,3.59,1.98,5.58.04,5.53-5.4,13.38-5.27,19.66.09,7.66,6.54,11.35,14.64,10.22,24.83-.72,6.44-8.68,15.54-15.06,16.86-1.58.33-3.98.2-3.66,2.39.34,2.36,2.65,1.33,4.17,1.09,5.58-.89,10.4-.29,14.5,4.47,1.31,1.52,4.63.56,5.85-2.13.89-1.95,1.52-4.02,2.39-5.98.6-1.35,1.12-3.37,2.18-3.77,5.14-1.94,6.9-6.54,9.56-10.64,2.37-3.66,4.24-6.35,3.09-11.57-.94-4.3-.34-9.36-1.33-14.03-.19-.88.04-1.83.97-2.02,1.64-.34,2.51.94,2.86,2.17,1.4,4.79,2.1,9.69,2.29,14.7.22,5.67-.84,10.8-4.93,15.06-2.73,2.84.09,7.3-3.41,10.61,3.76-1.42,3.96.31,4.26,2.87.71,6.02-2.37,10.87-5.67,14.82-5.19,6.21-9.26,13.36-15.38,18.77-3.36,2.97-3.82,5.91-1.73,10.11,2.17,4.36,4.9,2.77,7.89,2.01.43-.11.93.04,1.46.08-.02,1.91-1.33,2.65-2.64,3.34-.98.51-1.8,1.21-1.45,2.31,1.86,5.72-.71,11.41-.02,17.15.32,2.62.95,5.33,2.93,6.57,2.74,1.72,2.43,3.11.75,5.01-1.9,2.15-1.57,5.02-2.54,7.47-.36.9-.05,2.07,1.1,2.48,1.18.43,1.85-.31,2.28-1.32,2.35-5.39,5.3-10.67,1.34-16.66-1.19-1.8.62-3.17,1.85-4.1,1.36-1.02,1.98.45,2.61,1.4.55.82,1.04,1.59,2.08,2.02,2.67,1.11,5.79,3.06,5.17,5.8-.68,2.98-1.88,6.67-5.93,7.77-2.72.74-4.31,2.56-3.26,5.65.57,1.65,2.06,2.54,3.53,2.21,2.62-.6,4.84-2.2,5.73-4.86.37-1.1-.71-2.94,1.55-2.76,1.9.14,1.62,1.96,1.64,3.14.04,2.38,1.27,5.87-1.31,6.8-3.99,1.43-7.56,4.78-12.29,3.65-.45-.11-.84-.93-1.04-1.5-.67-1.93-1.42-3.38-3.93-2.24-1.8.82-3.17,1.76-3.17,3.97,0,2.45,1.8,2.86,3.59,3.43,1.38.44,3.68-1.37,4.05,1.32.17,1.26-.85,2.63-2.38,2.73-2.26.15-4.59,2.84-6.8-.16-1.76-2.38-2.5-5.08-2.42-7.97.09-3.38-.92-5.55-4.6-6.6-3.56-1.01-5.75-3.91-5.99-7.71-.24-3.76-1.13-5.94-5.47-3.96-2.96,1.35-5.17-.31-6.93-2.47-.81-1-1.18-2.37-1.76-3.56-2.76-5.69-2.76-5.57,3.44-5.44,2.85.06,4.21-2.38,5.53-4.45,1.61-2.52,2.88-5.31,6.19-6.09-1.85,3.68-3.73,7.36-5.55,11.06-.57,1.16-1.5,2.47-.54,3.71,1.05,1.36,2.85,1.2,4.14.69,3.3-1.31,6.21-3.57,10.19-2.81,1.13.22,1.53-1.59,1.51-2.76-.03-1.48-.3-2.96-.43-4.44-.72-8.12-2.42-9.07-9.45-5.3Zm-92.02,63.49c-.05,2.82,1.46,4.7,4.13,4.48,2.31-.19,5.29.37,6.69-2.51,1.27-2.6,1.39-4.77-1.36-6.93-4.56-3.59-5.08-8.61-3.73-13.97.25-.97.35-2.06,1.72-1.97,1.22.08,1.71.93,1.73,2.03.03,1.99,0,3.99-.02,5.98-.01,1.11-.7,2.53.56,3.18,1.62.84,2.32-.85,3.16-1.74,2.61-2.77,5.05-5.68,8.28-7.82,1.93-1.27,3.97-3.5,6.04-1.22,2.32,2.55-1.35,3.39-2.24,5.06-.13.25-.02.62-.02,1.19,3.28.82,4.92-2.08,7.3-3.19,4.31-2.01,4.06-2.61.63-5.99-3.05-3.01-5.89-.35-8.74-.59-8.33-.7-16.66-2.22-25.09-1.24q-7.58.88-3.71,7.27c1.29,2.12,2.92,3.92,4.49,5.81,3.01,3.63,5.17,7.96,7.96,12.44-3.16-.4-5.58-1.72-7.95-.09.82-3.67.04-6.53-2.02-10.04-1.97-3.36-5.7-5.57-6.36-9.74-.71-4.52-4.31-6.09-8.02-3.6-.98.66-1.88,1.51-1.77,2.8.1,1.21,1.19,1.26,2.15,1.61,2.74,1.02,4.76,3,5.96,5.63,1.42,3.09,2.68,6.26,3.86,9.45,1.14,3.06,2.91,4.78,6.38,3.69Zm98.24,38.54c-7.49-5.17-11.14-12.24-16.47-17.84-5.26-5.52-12.08-10.01-12.76-18.72-.15-1.96-.71-3.9-1.25-5.8-3-10.49-6.91-20.8-8.87-31.48-2.29-12.47-6.31-24.42-9.81-36.48-2.79-9.6-5.16-19.38-8.4-28.92-2.09-6.13-4.13-12.44-6.1-18.67-4.58-14.53-12.02-28.02-15.99-42.83-1.6-5.97-2.1-5.87-7.04-2.22-1.09.8-2.27,1.23-3.51,1.72-3.9,1.55-7.45,5.18-7.84,8.4-.8,6.69-5.31,11.46-7.02,17.72-2.9,10.64-8.5,20.47-11.7,31.24-3.03,10.2-7.63,19.95-11.85,29.77-.94,2.19-.66,4.61-1.9,6.61-6.76,10.94-9.25,23.71-14.96,35.1-1.63,3.26-3.28,6.55-4.49,9.97-3.03,8.59-6.47,17.12-10.42,25.19-4.38,8.95-7.2,19.37-16.5,25.36-1.72,1.11-2.24,3.38-1.56,5.44.78,2.33,2.9,1.63,4.68,1.75,8.42.57,16.84,1.11,25.24,1.86,4.16.37,6.42-1.51,5.41-5.51-1.13-4.49-2.13-9.22-4.39-13.15-2.99-5.19-1.89-9.46.88-13.91.62-.99,1.22-1.9,1.46-3.11,1.46-7.34,5.37-13.79,7.84-20.78,1.22-3.45,1.35-7.14,2.96-10.41.67-1.36.74-2.84,3.23-2.97,10.72-.56,21.41-1.37,32.18-1.42,9.68-.04,19.35-1.44,29.03-2.21,4.79-.38,6.8,1.27,7.32,5.96.11.98-.06,2.01.18,2.95,3.05,12.02,6.01,24.07,9.27,36.04,2.4,8.8,4.76,17.38-3.63,24.6-1.69,1.46-1.12,2.68,1,4.16,4.45,3.11,9.03.97,13.52,1.31,9.99.77,20.02.16,30.03,1.1,3.54.33,7.33,1.44,12.23.18Zm-178.96-48.41c4.65-1.67,7.07-6.26,11.3-8.41,3.22-1.64,4.86-4.45,3.94-8.18-.29-1.19-.57-2.98-2.2-2.95-1.7.03-1.98,1.9-1.87,3.05.44,4.61-2.85,7.2-5.99,8.25-6.27,2.11-7.54,7.88-10.65,12.29-1.19,1.68.06,2.11,1.86,1.94,2.8-.26,5.64-.21,8.45-.16,1.04.02,2.14.58,2.08,1.73-.07,1.35-1.32,1.18-2.31,1.15-2.02-.08-4.21-.64-5.53,1.88,3.75,1.66,7.21,3.24,10.72,4.72,1.99.84,3.34.67,3.98-1.96.82-3.34,2.27-6.52,3.36-9.79,2.33-7.02,6.11-13.38,9.08-20.11,4.09-9.28,8.92-18.26,11.98-27.96,1.71-5.41,5.91-9.76,6.38-15.59.25-3.1,1.61-5.63,3.28-8.13,2.57-3.83,2.34-8.55,3.82-12.76,1-2.83-2.24-2.62-3.62-3.74-.22-.18-.45-.66-.36-.87,1.39-3.53-.58-6.81-.67-10.22-.03-1.12,1.59-2.87-.63-3.05-1.68-.13-1.26,2.03-1.62,3.19-.23.73.12,1.62.11,2.44-.04,5.65.16,11.21,2.85,16.43.58,1.12,1.24,3.2-.68,3.92-1.76.66-1.96-1.4-2.63-2.38-3.58-5.27-4.28-11.42-3.06-17.22,1.64-7.84,1.23-15.81,2.68-23.61.14-.75.32-1.7-.92-1.84-1.91,2.07-2.27,5.96-5.02,6.56-6.42,1.4-10.46,6.07-15.3,9.69-6.25,4.68-12.49,9.37-18.78,13.99-2.44,1.8-3.62,3.98-.68,5.88,1.61,1.04,2.87,1.81,3.56,3.67.5,1.34,2.08,1.64,3.39,1.77.98.09,1.3-.82,1.4-1.7.91-7.55,7.04-9.39,12.82-11.21,2.71-.86,5.36.93,6.83,3.18,1.38,2.11-.06,4-1.8,5.6-6.53,6.04-7.2,11.48-2.96,19.43,2.79,5.23,5.19,10.68,7.79,16.01.74,1.51.92,3.21-.51,4.05-1.92,1.11-2.38-.94-3.11-2.13-1.47-2.4-2.8-4.9-4.44-7.19-3.85-5.37-7.72-10.48-14.06-13.62-5.41-2.68-8.58-8.38-12.68-12.8-.7-.76-1.27-2.73-2.44-1.17-1.87,2.49-3.26,5.36-4.68,8.15-.35.69.13,2.01,1.08,1.84,5-.94,6,4.91,10.63,5.84,4.99,1,8.01,6.6,9.23,12.03.93,4.17,3.7,6.02,7.55,6.77,1.62.32,3.35.28,4.89.81,2.15.74,3.94,2.37,4.04,4.64.1,2.16-1.89,2.68-3.84,3.05-1.02.19-1.82,1.37-2.8,1.95-3.16,1.86-6.43,2.6-9.84.65-3.39-1.94-8.67.61-8.59,4.63.12,6.33-3.43,8.06-8.76,8.99-2.54.45-5.58,1.63-5.51,5.29.07,3.81-1.05,7.21-3.25,10.28-.47.66-1.23,1.38-.42,2.12.36.33,1.4.41,1.82.13,6.86-4.57,15.83-6.42,19.24-15.51.99-2.65,3.47-4.8,5.48-6.98.83-.9,2.09-1.59,3.51-.35,3.73,3.26,4.31,9.59,1.73,14.03-4.19,7.21-11.74,7.67-18.63,9.58Zm112.66,18.72c-3.77,4.06-6.9,1.57-10.09.29-.96-.38-1.92-1.81-3.07-.44-.88,1.05-.3,2.18.14,3.28,1.83,4.48,8.47,7.06,13.89,5.41,1.04-.32,2.22-1.56,3.15-.32,1,1.34-.2,2.55-1.06,3.49-3.34,3.62-7.74,4.82-12.15,3.31-2.12-.73-2.09-.13-2.63,1.17-1.61,3.89-2.35,7.61,1.14,11.02,1.17,1.14,2.6,2.96,1.71,4.42-3.21,5.27,1.27,6.46,4.24,7.92,4.46,2.19,9.13,3.84,12.3,8.03.92,1.21,2.56,2.15,3.8.49,3.38-4.5,7.89-2.9,12.16-2.45,1.33.14,5.74-1.17,1.76,2.79-.83.83.76,1.46,1.61,1.91,4.29,2.3,8.97,2.77,13.7,3.44,9.68,1.37,19.26.34,28.85-.64,1.62-.17,3.21-.84,4.76-1.44.99-.38,1.6-1.28,1.43-2.38-.18-1.22-1.18-1.44-2.24-1.49-4.75-.21-8.92-1.13-9.47-7.08-.11-1.17-1.17-2.14-2.51-2.01-6.38.62-12.77-.69-19.09-.26-14.86.99-29.66.94-44.44-.91-1.41-.18-2.68-.24-3.22-1.76-.53-1.5.2-2.53,1.37-3.41,3.8-2.88,6.62-6.78,10.02-10.08,3.63-3.51,6.93-8.28,3.74-14.21-.51-.95-.42-2.28-.43-3.44-.1-8.77-.87-17.35-4.08-25.71-1.19-3.11-1.7-3.3-4.25-1.55-3.7,2.53-6.08,7-11.23,7.48-1.47.14-1.83,1.75-1.97,3.15-.21,2.11,1.78,1.65,2.76,2.19,1.48.81,3.33.77,4.87.15,2.61-1.05,4.48.23,6.43,1.54.83.56,1.76,1.17,1.45,2.35-.35,1.31-1.71,1.26-2.48.98-2.25-.81-4.63.57-6.85-.65-1.15-.63-2.63-.05-3.03.95-.62,1.56.85,2.41,2.08,2.81,2.02.65,4.14,1.02,6.93,1.67Zm47.01-26.96c-1.09,1.36-.94,2.82-.46,3.93,2.41,5.59,4.49,11.18,6.15,17.13,3.91,14.06,12.73,25.56,22.29,36.4.67.76,1.27,1.52,2.44,1.46,5.88-.27,9.77-8.04,6.56-13.15-.75-1.19-2.79-2.31-1.65-3.72,1.46-1.81,2.91.21,4.28.95.81.44,1.58.94,2.36,1.41,1.17-1.66.61-2.92-.19-4.31-1.83-3.17-3.82-6.11-6.8-8.38-1.8-1.37-3.13-4.37-4.88-4.55-3.81-.38-.95,3.74-2.58,5.31-3.87,3.72-1.89,6.03,2.08,7.71,1.03.43,2.72.68,1.92,2.19-.81,1.51-2.53.76-3.53.06-2.41-1.7-4.39-4-7.58-4.52-.64-.1-1.65-1.7-1.49-2.34,1.24-4.72-1.91-6.89-5.07-8.89-3.77-2.39-4.61-6.67-6.89-10.01-.75-1.1-.37-2.78.7-3.63.82-.66,1.89.15,2.58.87.92.96,1.78,2.45,3.21,1.89,2.01-.8.46-2.64.6-3.99.24-2.37-.53-4.61-1.45-6.77-.36-.86-.62-2.04-2.05-1.54-4.34,1.52-7.31-1.34-10.53-3.53Zm-105,66.71c5.31-.99,8.24-3.82,10.5-7.03,2.54-3.61,6.26-5.86,9.25-8.91,2.02-2.05,5.24-3.12,3.21-6.43-2.14-3.49-4.2-8.49-9.24-7.6-5.1.9-9.99,1.54-15.16,1.02-3.9-.4-5.59,2-4.3,5.68,1,2.86,1.36,5.66,1.55,8.68.15,2.46,1.33,5.76,3.19,7,3.21,2.15,2.9,4.19,1.01,7.59Zm-87.5-24.1q-2.03-4.07.16-8.8c.51-1.11.83-2.46-.14-3.24-.8-.65-2.15-.98-3.18-.86-1.28.15-1.34,1.36-1.6,2.61-.84,4.06-.07,7.95.29,11.94.3,3.24,1.11,5.78,4.62,5.47,3.22-.28,3.81-3.32,3.92-6.01.29-7.26,3.35-10.79,10.45-12.06,3.56-.63,6.92-.17,10.29.96,1.04.35,2.34.85,3.1-.54.51-.93.49-2.06-.13-2.86-1.27-1.63-1.95-4.24-4.52-4.14-4.94.18-5.42-2.71-4.86-6.47.56-3.7-1.72-6.73-4.41-7.3-3.47-.74-3.94,3.18-4.57,5.89-1.08,4.67-1.77,9.46-5.72,12.92-1.27,1.11-1.72,3.1-1.41,4.64.6,2.93-.51,5.14-2.3,7.85Zm20.64-8.05c-1.47.16-2.54.04-3.42.4-8.09,3.23-11.52,18.88-5.49,24.95,1.14,1.15,3.19,2.09,3.78.46,1.52-4.17,5.44-4.98,8.38-7.22,4.11-3.12,7.22-7.18,9.56-11.85,1-2,.84-3.17-1.28-3.76-3.96-1.09-7.96-2.07-11.53-2.98Zm9.44,35.76c4.21-.71,8.98,3.15,10.62-3.24.16-.64,1.06-.58,1.74-.28,3.4,1.54,7.17,1.39,10.74,2.19,9.28,2.09,18.71,4.54,28.26.86,1.19-.46,2.33-.84,2.32-2.16,0-1.7-1.22-2.05-2.78-1.98-12.32.55-24.45-1.09-36.67-2.45-6.94-.78-14.14-1.64-21.29-.95-1.77.17-2.86.82-3.31,2.41-.44,1.51.29,2.52,1.72,3.13,3.03,1.29,5.86,3.36,8.65,2.47Zm49.96-39.88c4.28-5.71,8.24-10.97,14.64-13.63,2.16-.9,4.09-2.07,6.03-3.34,1.6-1.05,2.09-2.16.86-3.64-2.83-3.42-5.55-6.97-8.71-10.07-1.99-1.96-4.09-2.3-5.66,1.26-2.87,6.51-3.93,13.56-6.51,20.14-1.19,3.03-2.26,6.05-.66,9.28Zm-30.4,49.59c3.28-.49,7.2-1.05,11.11-1.68,1.44-.23,2.54-1.1,2.49-2.63-.05-1.47-1.4-1.68-2.56-1.86-4.52-.71-9.44.27-13.26-3.38-.67-.64-1.74-.15-1.74.9,0,4.77-3.1,3.6-6.13,3.71-4.42.15-8.37-1.71-12.63-2.1-2.24-.2-5.05-1.81-5.72,1.57-.73,3.7,2.75,3.32,5,3.87,7.5,1.82,15.23.1,23.43,1.58Zm67.17-24.82c-.46-2.1-.1-4.99-2.3-5.72-1.95-.65-2.22,2.38-3.55,3.51-.85.72-1.71,1.75-1.98,2.8-2.02,7.96-7.89,12.61-14.27,16.78-1.54,1.01-2.2,2.06-1.29,3.65.95,1.67,2.41,1.3,3.9.69,6.57-2.68,10.7-8.34,15.84-12.78,2.79-2.41,2.95-5.75,3.65-8.92Zm-8.92-24.34c.03,4.71,3.25,10.39,6.2,11.28,4.82,1.46,8.99-1.18,10.67-7.81.81-3.2,2.23-7.11-1.85-7.86-3.7-.68-3.68,3.59-4,6.45-.12,1.1.19,2.8-1.33,2.77-1.76-.03-1.55-1.86-1.56-3.11,0-.97.28-1.97.59-2.9,1.1-3.25-.67-4.23-3.43-4.42-4.12-.29-4.9,2.55-5.29,5.6Zm-71.08-80.39c-.1,3.81.46,6.62-.98,9.26-.67,1.23.12,2.55,1.11,3.57,2.18,2.26,4.26,4.6,6.5,6.8,4.97,4.87,7.17,4.93,13.25.55-1.16-1.7-2.9-2.11-4.78-2.07-3.99.1-6.42-1.98-6.68-5.73-.37-5.48-4.08-8.36-8.43-12.38Zm103.66,123.12c-.38-1.55-1.93-2.1-2.97-3.11-5.9-5.71-12.99-10.65-12.3-20.4.21-2.91-2.49-2.32-3.98-2.3-1.92.02-3.34,1.73-2.17,3.45,2.18,3.22,2.32,6.8,2.81,10.35.25,1.81,1.43,2.7,2.95,2.92,4.13.6,6.23,3.4,7.98,6.75,1.15,2.2,3.03,3.5,5.53,3.78,1.02.11,2.05.1,2.15-1.44Zm-14.98.03c.08-6.25-4.23-7.49-7.62-9.24-2.55-1.32-3.03,1.8-4.21,3.05-1.66,1.75-4.35,4.26-2.56,6.31,1.61,1.85,5.35,3.17,7.71,2.68,2.19-.46,5.74-.6,6.68-2.8ZM208.54,50.55c-.12-3.29-1.83-4.67-5.58-4.85-3.38-.17-5.15.79-5.36,4.65-.12,2.17,1.44,3.65,1.19,5.6-.13,1.02-2.92,1.81-.55,2.93,1.28.61,3.36.92,4.28-1.21.75-1.72,2.54-2.07,3.91-2.92,1.65-1.02,2.18-2.41,2.11-4.19ZM58,120.39c4.92-.02,4.79,3.34,5.79,5.9.51,1.31.76,3.39,2.78,2.71,1.82-.61.49-2.23.37-3.43-.59-5.82-4.04-11.99,2.28-16.97.96-.76.36-2.21-.45-3.14-1.05-1.21-1.97-.38-3.04.16-5.97,3.06-2.2,10.61-7.73,14.77Zm168.73,78.66c.1.5.08,1.85.42,1.95,5.86,1.68,9.5,7,15.09,9.1.77.29,1.43,1.02,2.12,0,.59-.87-.22-1.39-.48-2.11-2.14-6-8.27-7.68-12.32-11.57-.96-.93-2.07-2.08-3.45-1.32-1.29.71-.84,2.41-1.37,3.95Zm-120.31,18.36c.93-1.6,1.42-2.79,2.22-3.73,1.68-1.98,4.03-1.03,6.08-1,2.77.03,2.58-2.01,2.95-3.7.23-1.05-.13-2.57-1.25-1.89-3.98,2.43-7.93-.37-11.85.35-1.31.24-2.88.15-3.37,1.59-.5,1.5-.02,3.23,1.52,3.8,2.04.76,2.78,2.48,3.69,4.58Zm-63.53-47.75c1.58-2.28,1.85-4.23,3.09-5.88,1.99-2.64-.97-4.87-1.67-7.29-.41-1.39-2.14-1.47-3.46-1.09-2.53.73-4.88,2.19-4.87,4.96.01,2.45,1.53,5.63,3.96,5.54,3.13-.12,2.14,1.96,2.94,3.76Zm2.85,35.34c-1.42.2-3.89.23-2.26,2.96,1.5,2.53,2.17,5.07,2.58,7.88.3,2.07,1.76,3.82,3.65,1.69,2.09-2.36,5.1-4.98,3.99-8.51-1.01-3.21-4.67-3.17-7.97-4.01ZM182.03,58.32c-.17,3.02,1.35,5.16,4.16,5,2.26-.13,5.54-1.09,5.57-3.88.03-2.67-1.39-5.87-4.76-6.07-2.98-.18-4.82,1.83-4.96,4.95Zm5.98-18.8c-.68-2.87-1.37-6.18-4.7-6.71-2.17-.35-4.22,1.68-3.5,4.21.66,2.31-.51,6.35,4.08,6.02,2.09-.15,4.66-.06,4.12-3.52ZM28.96,162.27c-2.51,4.51-9.54,1.85-11.6,8.28,3.51-3.04,5.56,2.73,8.49.29,2.47-2.05,3.1-5.09,3.11-8.56ZM53.74,13.37c1.22-.15,3.18-.39,2.22-2.06-.96-1.67-2.02-4.22-4.21-4.31-2.24-.09-4.55,1.01-6.11,2.86-.96,1.14-.33,2.83.87,2.51,2.64-.72,4.76.61,7.23,1Zm38.3,21.94c-.29,3.48.42,6.87-2.56,9.6-1.03.95-.69,2.83.58,3.99.74.68,1.64,1.16,2.69.83,1.68-.53,2.72-2.39,2.2-3.41-1.78-3.52-.43-7.71-2.91-11.01Zm4.79-1.41c-.14,2.18.24,4.15,2.6,4.14,2.32-.02,4.11-1.5,4.35-3.97.26-2.67-1.5-3.96-3.89-4.17-3.09-.27-2.29,2.61-3.05,4Zm21.41,166.84c-1.08-2.25-3.66-1.64-5.47-1.98-2.86-.53-3.77,2.64-5.55,4.17-.55.47-.34,1.23.23,1.72,1.96,1.67,3.24-.66,4.9-.88,1.44-.19,2.81-.85,4.24-1.21.88-.23,1.49-.62,1.66-1.82Zm108.99-33.5c2.86-.36,4.16-2.07,4.5-4.62.34-2.56-1.44-3.06-3.38-3.19-2.56-.17-3.61,1.49-3.62,3.7,0,1.77.27,3.68,2.5,4.11Zm-204.75-17.96c-1.55.25-3.18.88-2.72,2.37.76,2.49.57,6.18,4.38,6.32,2.07.07,2.23-2.3,2.29-3.85.12-2.69-1.6-4.16-3.95-4.84Zm204.95,59.68c1.31-.37,3.18.63,3.02-1.67-.22-3.2-2.95-3.15-5.07-3.5-1.64-.27-3.22,1.14-2.89,2.53.58,2.43,3.12,2.32,4.93,2.64Zm-7.09-49.47c1.66-1.23,3.38-2.48,5.05-3.79,1-.78,1.51-1.93.89-3.05-.8-1.45-1.99-.56-2.97-.08-3.64,1.79-4.05,2.82-2.98,6.91Zm-30.01-56.24c.48-2.87,1.21-5.73-1.05-8.18-.17-.18-1.15-.03-1.22.17-1.14,3.05-.31,5.72,2.27,8.02Zm-137.92,52.38c1.24.26,2.23.07,1.92-1.34-.38-1.69-1.46-2.97-3.34-2.94-1.06.02-2.63.1-2.53,1.62.15,2.44,2.49,2.1,3.96,2.66Zm193.66,105.23c2.59-.29,4.32,2.68,6.38.55.89-.91-.34-1.63-1.09-2.25-2.18-1.8-3.78-1.23-5.3,1.7Zm-224.62-1.62c1.03,1.3,1.18,3.98,3.52,2.38,1.04-.71,2.58-2.13,1.73-3.22-1.72-2.2-3.36.7-5.24.84ZM220.36,82.81c-1.25-.22-3.01-.73-3.02,1.13,0,1.72,2,1.92,3.37,2.13,1.28.2,2.84-.02,2.87-1.76.04-2.54-2.01-1.27-3.22-1.5Z"/>
  <path d="m251.53,18.15c-3.51-1.55-3.55-3.21-1.49-5.13,1.19-1.12,1.48-2.23.08-3.33-1.27-1-2.66-.74-3.58.38-3.56,4.35-7.92,7.88-7.5,14.84.17,2.8-.18,4.85,1.52,7.52,2.59,4.07,2.79,9.04,2.43,14.31-2.37-.75-3.94-2.04-3.15-4.19,1.03-2.81-1.23-3.02-2.52-4.01-.84-.64-1.96-.83-2.72.06-1.29,1.51-.76,3.18.08,4.66,2.59,4.58.94,10.68,5.26,14.58.87.78.2,2.62,2.36,2.6,2.21-.01.53,1.6.35,2.34-.3,1.25-1.66,1.62-2.23.61-1.86-3.3-6.16-4.56-6.25-9.56-.19-10.84-6.05-18.59-15.37-23.8-2.33-1.3-4.49-2.45-2.2-5.61.69-.96.49-2.94-.68-2.97-5.07-.16-2.8-2.59-2.04-5.07.82-2.66-1.34-3.85-3.45-4.62-.68-.25-1.6.25-2.37.13-2.45-.39-4.42-1.84-6.35-3.28-.21-.15-.01-1.29.06-1.3,2.21-.22,4.65-.97,6.6-.32,2.01.68,3.28.69,5.38.03,3.31-1.05,5.94,2.22,8.87,3.45,4.9,2.07,7.13,7.37,10.45,11.34,2.83-3.32,5.18-6.71,6.47-11.14,1.5-5.13,6.31-8.02,11.38-8.3,3.48-.19,6.96,2.99,8.46,5.96,1.66,3.3-.63,7.26-3.61,8.97-4.2,2.43-5.15,5.78-5.01,9.96.11,3.15-.98,4.21-3.77,2.37-1.05-.7-1.95-1.04-3.21-.81-1.92.34-2.27-1.17-2.24-2.5.02-1.4,1.13-1.36,2.19-1.03,1.26.39,2.86.23,2.55-1.23-.83-3.85,1.95-4.54,5.22-5.9Zm-31.32,8.08c1.02.13,1.79.34,2.54.3,1.94-.1,3.38-1.09,4.26-2.81.35-.68-.07-1.36-.67-1.64-1.84-.86-2.18,1.64-3.69,1.74-.98.07-1.84.63-2.44,2.41Z"/>
  <path d="m255.65,114.78c-2.7-2.54-7.45-2.15-6.09-6.73.32-1.09.15-2.54,1.43-3,1.52-.54,2.56.57,3.27,1.69.79,1.24,1.7,2.6,1.88,4,1.37,10.6,3.22,21.17,1.27,31.95-.43,2.39-.52,5.24,1.23,7.65.73,1,1.03,2.48,1.06,3.75.05,1.74.55,3.84-1.53,4.89-1.4.7-3.06.82-4.2-.38-1.45-1.54-1.92-3.42-.92-5.52,2.34-4.87.14-9.79-.21-14.63-.2-2.75-3.5-3.13-5.93-3.6-.76-.15-1.74.45-2.4.17-1.26-.53-3.42-.3-3.38-2.32.04-2.32,2.02-1.51,3.41-1.69,1.52-.2,2.97-.13,4.38.45,4.18,1.71,5.43-.82,4.59-3.97-.85-3.2-.44-6.53-2.77-9.76-2.46-3.41,1.54-3.3,4.88-2.95Z"/>
  <path d="m70.48,45.37c-1.67,1.51-2.94,1.56-3.3-1.02-.4-2.86.67-5.59,2.77-7.1,2.55-1.83,5.48-2.95,5.96-6.58.08-.63.84-1.03,1.58-.74,2.86,1.11,1.64,4.05,2.58,6.04.94,2-1.09,2.84-2.45,2.69-5.25-.55-6.28,3.06-7.26,6.85,0,0,.12-.14.12-.14Z"/>
  <path d="m200.13,113.42c-1.26-.1-2.04-1.49-1.28-2.62,1.01-1.49-.94-4.91,2.64-4.53,1.56.17,3.96.1,3.74,2.89-.22,2.79-2.02,3.94-5.09,4.26Z"/>
  <path d="m181.69,10.45c2.38-2.16,5.13-3.57,8.38-3.46,1.25.04,2.82.59,2.91,2.17.1,1.73-1.53,2.09-2.78,2.15-2.86.12-5.81.58-8.52-.9,0,.01,0,.05,0,.05Z"/>
  <path d="m92.49,5.54c-3.33,2.16-6.75,1.95-10.34.52,3.73-3.58,7.87-3.69,10.24-.39l.1-.12Z"/>
  <path d="m36.7,137.33c-.09.47-.03,1.37-.42,2-.92,1.49-1.92,3.99-3.87,3.03-2.05-1.01-1.18-3.86-1.2-5.85-.01-1.18,1.91-1.12,2.03.01.6,5.43,1.95-.48,3.46.81Z"/>
  <path d="m92.39,5.66c4.73-.81,8.83.53,12.4,3.66.01,0,.13-.08.14-.08-3.79-.58-7.6-1.1-11.39-1.75-.93-.16-1-1.14-1.05-1.96,0,0-.1.13-.1.13Z"/>
  <path d="m70.53,19.86c3.84-2.62,5.84-.15,9.06,1.17-3.68,1.57-5.92.05-9.06-1.17Z"/>
  <path d="m65.81,5.29c1.21-.87,1.83.06,2.59.09,1.32.06,2.97-1.19,3.79.88.26.66,0,1.32-.67,1.62-1.63.72-3.15.61-4.38-.83-.42-.49-.77-1.03-1.32-1.75Z"/>
  <path d="m158.59,152.65c-9.48-1.46-18.37.9-27.33.78-1.31-.02-2.62-.22-3.91-.46-.88-.17-1.5-.88-1.51-1.75-.01-1.05.99-1.23,1.76-1.39,5.92-1.24,11.87-1.76,17.9-.81,2.04.32,4.34,1.42,5.9-.94,1.57-2.38,1.48-4.86-.69-6.77-1.77-1.56-.29-3.54-1.14-5.14-.46-.85-.71-2.15-1.92-1.88-1.41.32-.93,1.6-.57,2.46.79,1.89.76,3.41-1.69,3.52-1.95.08-4.92,1.32-5.08-2.11-.27-5.88-5.1-10.78-3.38-17.11.38-1.41-1.94-2.63-1.74-4.29-3.02,4.35-2.41,9.53-2.72,14.52-.45,7.44-3.62,9.85-10.68,7.87-.55-.15-1.36-.72-1.39-1.15-.08-1.05.84-1.13,1.72-1.23,5.47-.64,7.53-3,7.56-8.5.02-5.51.46-10.92,2.81-16.07,1-2.19,1.71-4.6,1.03-7.41.89.38,1.71.55,1.72.75.07,4.06,3.61,6.98,3.88,10.74.35,4.83,2.16,8.87,4.58,12.82.59.96,1.43,1.59,2.43,1.02.98-.57.1-1.42-.09-2.18-2.69-10.47-6.72-20.57-8.77-31.22-.55-2.87-3.94-4.57-3.04-8.12-2.22,3.49-8.28,5.19-4.5,10.92-3.65,2-1.55,6.44-3.41,8.66-2.2,2.63-3.04,5.69-3.71,8.5-2.34,9.82-5.06,19.53-7.74,29.25-.88,3.21-.22,4.31,3.26,3.91,2.06-.23,5.73-1.31,5.86,1.43.13,2.92-3.68,1.54-5.6,1.76-6.05.7-12.24-.3-18.25,1.42-3.38.96-3.9-1.05-2.9-3.57,3.05-7.71,6.96-15.15,9.25-23.07,2.29-7.89,6.64-14.94,8.28-23.09.77-3.86,2.95-7.57,5.07-10.98,2.41-3.88,4.56-7.59,3.46-12.38-.18-.76-.2-2.02.25-2.4,4.79-4.04,3.04-9.8,3.99-14.82.48-2.54,1.38-4.74,3.52-7.09,9.21,31.96,18.32,63.55,27.56,95.6Z"/>
  <path d="m218.15,253.68c-6.18,5.75-13.31,5.4-18.88,3.81-3.02-.86-5.23-3.61-8.89-1.52-.55.31-1.71-.38-1.87-1.27-.18-1,.71-1.49,1.54-1.56,6.37-.51,12.85-3.46,19.03.68,2.64,1.77,5.34.92,9.07-.14Z"/>
</svg>