<?xml version="1.0" encoding="utf-8"?>
<svg viewBox="275 0 2 124" width="2" height="124" xmlns="http://www.w3.org/2000/svg">
  <g>
    <rect eventname="Family moved" age="11" stdtime="15/06/1953" width="2" height="124" style="fill:#fff200;" x="275"/>
    <rect style="stroke-width: 0px; fill: rgb(255, 242, 0);" x="270.049" y="124" width="11.78" height="8.752" rx="1" ry="1"/>
    <path fill="currentColor" d="M 277.398 128.677 L 276.323 128.677 C 276.125 128.677 275.964 128.831 275.964 129.018 L 275.964 130.041 C 275.964 130.229 276.125 130.382 276.323 130.382 L 277.398 130.382 C 277.595 130.382 277.756 130.229 277.756 130.041 L 277.756 129.018 C 277.756 128.831 277.595 128.677 277.398 128.677 Z M 277.398 125.268 L 277.398 125.609 L 274.531 125.609 L 274.531 125.268 C 274.531 125.08 274.37 124.927 274.172 124.927 C 273.975 124.927 273.814 125.08 273.814 125.268 L 273.814 125.609 L 273.456 125.609 C 273.058 125.609 272.743 125.916 272.743 126.291 L 272.739 131.064 C 272.739 131.441 273.06 131.746 273.456 131.746 L 278.473 131.746 C 278.867 131.746 279.189 131.439 279.189 131.064 L 279.189 126.291 C 279.189 125.916 278.867 125.609 278.473 125.609 L 278.114 125.609 L 278.114 125.268 C 278.114 125.08 277.953 124.927 277.756 124.927 C 277.559 124.927 277.398 125.08 277.398 125.268 Z M 278.114 131.064 L 273.814 131.064 C 273.617 131.064 273.456 130.911 273.456 130.723 L 273.456 127.314 L 278.473 127.314 L 278.473 130.723 C 278.473 130.911 278.311 131.064 278.114 131.064 Z" style=""/>
  </g>
</svg>