<?xml version="1.0" encoding="utf-8"?>
<svg viewBox="275 0 2 124" width="2" height="124" xmlns="http://www.w3.org/2000/svg">
  <g>
    <rect eventname="Family moved" age="11" stdtime="15/06/1953" width="2" height="124" style="fill:#fff200;"/>
    <rect style="stroke-width: 0px; fill: rgb(255, 242, 0);" y="124" width="11.24" height="8.752" rx="1" ry="1" x="-4.588"/>
    <path d="M 2.729 128.66 L 1.507 128.66 C 1.283 128.66 1.1 128.837 1.1 129.052 L 1.1 130.227 C 1.1 130.443 1.283 130.619 1.507 130.619 L 2.729 130.619 C 2.952 130.619 3.135 130.443 3.135 130.227 L 3.135 129.052 C 3.135 128.837 2.952 128.66 2.729 128.66 Z M 2.729 124.745 L 2.729 125.137 L -0.528 125.137 L -0.528 124.745 C -0.528 124.529 -0.711 124.354 -0.936 124.354 C -1.16 124.354 -1.343 124.529 -1.343 124.745 L -1.343 125.137 L -1.749 125.137 C -2.202 125.137 -2.56 125.489 -2.56 125.92 L -2.564 131.402 C -2.564 131.835 -2.199 132.185 -1.749 132.185 L 3.95 132.185 C 4.398 132.185 4.763 131.833 4.763 131.402 L 4.763 125.92 C 4.763 125.489 4.398 125.137 3.95 125.137 L 3.542 125.137 L 3.542 124.745 C 3.542 124.529 3.359 124.354 3.135 124.354 C 2.912 124.354 2.729 124.529 2.729 124.745 Z M 3.542 131.402 L -1.343 131.402 C -1.566 131.402 -1.749 131.226 -1.749 131.01 L -1.749 127.095 L 3.95 127.095 L 3.95 131.01 C 3.95 131.226 3.766 131.402 3.542 131.402 Z" style=""/>
  </g>
</svg>