<?xml version="1.0" encoding="utf-8"?>
<svg viewBox="-22.645 -146.76 360.764 285.949" width="360.764" height="285.949" xmlns="http://www.w3.org/2000/svg">
	<g transform="matrix(1, 0, 0, 0.505312, 0, 61.41452)">
		<g transform="matrix(1, 0, 0, -1, -3.207726, 152.5)">
			<rect x="10" y="33.5" stroke="#000000" stroke-miterlimit="10" width="16" height="331.8" style="fill: rgb(255, 179, 0);"></rect>
			<!--!-->
			<!--!-->
			<text style="fill: rgb(51, 51, 51); font-family: Arial, sans-serif; font-size: 8px; white-space: pre;" transform="matrix(1, 0, 0, -1, 0, 0)" x="9.111" y="-23.461">SUN</text>
		</g>
		<!--!-->
		<g transform="matrix(1, 0, 0, -1, 29.522915, 152.536499)">
			<rect x="10" y="33.5" stroke="#000000" stroke-miterlimit="10" width="16" height="302.08" style="fill: rgb(176, 168, 168);"></rect>
			<!--!-->
			<!--!-->
			<text style="fill: rgb(51, 51, 51); font-family: Arial, sans-serif; font-size: 8px; white-space: pre;" transform="matrix(1, 0, 0, -1, 0, 0)" x="9.111" y="-23.461">MOON</text>
		</g>
		<!--!-->
		<g transform="matrix(1, 0, 0, -1, 65.53537, 152.390503)">
			<rect x="10" y="33.5" stroke="#000000" stroke-miterlimit="10" width="16" height="268.56" style="fill: rgb(255, 64, 64);"></rect>
			<!--!-->
			<!--!-->
			<text style="fill: rgb(51, 51, 51); font-family: Arial, sans-serif; font-size: 8px; white-space: pre;" transform="matrix(1, 0, 0, -1, 0, 0)" x="9.111" y="-23.461">MARS</text>
		</g>
		<!--!-->
		<g transform="matrix(1, 0, 0, -1, 104.208397, 152.390503)">
			<rect x="10" y="33.5" stroke="#000000" stroke-miterlimit="10" width="16" height="273.38" style="fill: rgb(14, 232, 61);"></rect>
			<!--!-->
			<!--!-->
			<text style="fill: rgb(51, 51, 51); font-family: Arial, sans-serif; font-size: 8px; white-space: pre;" transform="matrix(1, 0, 0, -1, 0, 0)" x="-1.97" y="-23.169">MERCURY</text>
		</g>
		<!--!-->
		<g transform="matrix(1, 0, 0, -1, 138.555817, 152.609512)">
			<rect x="10" y="33.5" stroke="#000000" stroke-miterlimit="10" width="16" height="137.58999999999997" style="fill: rgb(0, 255, 200);"></rect>
			<!--!-->
			<!--!-->
			<text style="fill: rgb(51, 51, 51); font-family: Arial, sans-serif; font-size: 8px; white-space: pre;" transform="matrix(1, 0, 0, -1, 0, 0)" x="9.111" y="-23.461">VENUS</text>
		</g>
		<!--!-->
		<g transform="matrix(1, 0, 0, -1, 172.17514, 152.646011)">
			<rect x="10" y="33.5" stroke="#000000" stroke-miterlimit="10" width="16" height="229.61" style="fill: rgb(255, 255, 0);"></rect>
			<!--!-->
			<!--!-->
			<text style="fill: rgb(51, 51, 51); font-family: Arial, sans-serif; font-size: 8px; white-space: pre;" transform="matrix(1, 0, 0, -1, 0, 0)" x="9.111" y="-23.461">JUPITER</text>
		</g>
		<!--!-->
		<g transform="matrix(1, 0, 0, -1, 209.461899, 152.68251)">
			<rect x="10" y="33.5" stroke="#000000" stroke-miterlimit="10" width="16" height="171.13" style="fill: rgb(0, 157, 255);"></rect>
			<!--!-->
			<!--!-->
			<text style="fill: rgb(51, 51, 51); font-family: Arial, sans-serif; font-size: 8px; white-space: pre;" transform="matrix(1, 0, 0, -1, 0, 0)" x="9.111" y="-23.461">SATURN</text>
		</g>
		<!--!-->
		<g transform="matrix(1, 0, 0, -1, 251.003174, 152.792023)">
			<rect x="10" y="33.5" stroke="#000000" stroke-miterlimit="10" width="16" height="137.58999999999997" style="fill: rgb(204, 0, 255);"></rect>
			<!--!-->
			<!--!-->
			<text style="fill: rgb(51, 51, 51); font-family: Arial, sans-serif; font-size: 8px; white-space: pre;" transform="matrix(1, 0, 0, -1, 0, 0)" x="9.111" y="-23.461">
				RAHU<tspan x="9.111000061035156" dy="1em">​</tspan>
			</text>
		</g>
		<!--!-->
		<g transform="matrix(1, 0, 0, -1, 288.397919, 152.719025)">
			<rect x="10" y="32.5" stroke="#000000" stroke-miterlimit="10" width="16" height="268.56" style="fill: rgb(21, 0, 255);"></rect>
			<!--!-->
			<!--!-->
			<text style="fill: rgb(51, 51, 51); font-family: Arial, sans-serif; font-size: 8px; white-space: pre;" transform="matrix(1, 0, 0, -1, 0, 0)" x="9.111" y="-23.461">KETU</text>
		</g>
	</g>
</svg>