<?xml version="1.0" encoding="utf-8"?>
<!-- Generator: Adobe Illustrator 27.1.0, SVG Export Plug-In . SVG Version: 6.00 Build 0)  -->
<svg version="1.1" id="Layer_1" xmlns="http://www.w3.org/2000/svg" xmlns:xlink="http://www.w3.org/1999/xlink" x="0px" y="0px"
	 viewBox="0 0 465.2 353.2" style="enable-background:new 0 0 465.2 353.2;" xml:space="preserve">
<style type="text/css">
	.st0{fill:#DFECFF;}
	.st1{fill:#E47373;}
	.st2{fill:#E5E6E5;}
	.st3{fill:#FCC12D;}
	.st4{fill:#0B52FC;}
	.st5{fill:#E27473;}
	.st6{fill:#F1F1F1;}
	.st7{fill:#EDE4E5;}
	.st8{fill:#EC544E;}
	.st9{fill:#EC544D;}
	.st10{fill:#ED564F;}
	.st11{fill:#EA5650;}
	.st12{fill:#ED534D;}
	.st13{fill:#ED554F;}
	.st14{fill:#EC5650;}
	.st15{fill:#EC544F;}
	.st16{fill:#ECE4E4;}
	.st17{fill:#E07477;}
	.st18{fill:#11194D;}
	.st19{fill:#DA7779;}
	.st20{fill:#F09CB4;}
	.st21{fill:#F1574F;}
	.st22{fill:#D67576;}
	.st23{fill:#1340CC;}
	.st24{fill:#EEB62E;}
	.st25{fill:#A4A7CB;}
	.st26{fill:#CA7D80;}
	.st27{fill:#D7B66F;}
	.st28{fill:#FFFBD6;}
	.st29{fill:#103DCC;}
	.st30{fill:#F1C346;}
	.st31{fill:#C64039;}
	.st32{fill:#D44D48;}
	.st33{fill:#F2AFAD;}
	.st34{fill:#C43F37;}
	.st35{fill:#BD3733;}
	.st36{fill:#FEC6C6;}
	.st37{fill:#FFE9E7;}
	.st38{fill:#D57875;}
	.st39{fill:#D0433D;}
	.st40{fill:#DD8D89;}
	.st41{fill:#FFA29D;}
	.st42{fill:#F9918D;}
	.st43{fill:#FFECEC;}
	.st44{fill:#FFF3F0;}
	.st45{fill:#E99EB5;}
	.st46{fill:#F1DDEA;}
	.st47{fill:#D44C4B;}
	.st48{fill:#C94A44;}
	.st49{fill:#C4514C;}
	.st50{fill:#DD888B;}
	.st51{fill:#FFCDCA;}
	.st52{fill:#FFECE9;}
	.st53{fill:#FFEFF2;}
	.st54{fill:#C24343;}
	.st55{fill:#FFBEC0;}
	.st56{fill:#FED0CF;}
	.st57{fill:#FFDCDF;}
	.st58{fill:#C74B48;}
	.st59{fill:#FFEBE9;}
	.st60{fill:#DA6965;}
	.st61{fill:#D47B77;}
	.st62{fill:#FFCECB;}
	.st63{fill:#7F9CFE;}
	.st64{fill:#FBBDBC;}
	.st65{fill:#D3C1C9;}
	.st66{fill:#253C98;}
	.st67{fill:#C6D3E6;}
	.st68{fill:#C5D4E7;}
	.st69{fill:#C6D4E7;}
	.st70{fill:#C7D4E7;}
	.st71{fill:#F1F2F3;}
	.st72{fill:#DADBDC;}
	.st73{fill:#C6D4E6;}
	.st74{fill:#C5D4E5;}
	.st75{fill:#CDCFD3;}
	.st76{fill:#D7DADC;}
	.st77{fill:#D77979;}
	.st78{fill:#C9808D;}
	.st79{fill:#A2A8D4;}
	.st80{fill:#EAB425;}
	.st81{fill:#FDFBF4;}
	.st82{fill:#E7A6B5;}
	.st83{fill:#D1B494;}
	.st84{fill:#EEC34D;}
	.st85{fill:#7A7BA9;}
	.st86{fill:#7B7CA4;}
	.st87{fill:#F9FEFD;}
	.st88{fill:#EBC697;}
	.st89{fill:#0E3ECD;}
	.st90{fill:#C4D9FF;}
	.st91{fill:#0C38CB;}
	.st92{fill:#EFC697;}
	.st93{fill:#6F7AC8;}
	.st94{fill:#FDFDFD;}
	.st95{fill:#FFC5C4;}
	.st96{fill:#C34643;}
	.st97{fill:#FEF8F9;}
	.st98{fill:#E0736B;}
	.st99{fill:#BF4943;}
	.st100{fill:#E57375;}
	.st101{fill:#E17374;}
	.st102{fill:#EEE2E0;}
	.st103{fill:#E1B642;}
	.st104{fill:#8991B5;}
	.st105{fill:#E0EAFD;}
	.st106{fill:#CD7F82;}
	.st107{fill:#C3D5D9;}
	.st108{fill:#CDD2D5;}
	.st109{fill:#CAD3DA;}
	.st110{fill:#A0A7D2;}
	.st111{fill:#9EB3B9;}
	.st112{fill:#DBE5E9;}
	.st113{fill:#C6E3F8;}
	.st114{fill:#C6E3F7;}
	.st115{fill:#B1CFE3;}
	.st116{fill:#C7E2F7;}
	.st117{fill:#B1CEE3;}
	.st118{fill:#B8CFDB;}
</style>
<g>
	<path class="st0" d="M323.8,131.5c5.2,2.1,10.8,0.8,16.2,1.9c20.5,4.2,38.5,13,54.7,26.4c9.1,7.5,15.3,17.2,23.5,25.4
		c0.5,0.5,0.4,1.6,0.5,2.3c1.3,3.4,2.8,6.7,4.9,9.7c1.7,2.5,1.3,4.6-1.5,6.2c-4.4,2.5-8.7,5.2-13.1,7.7
		c-18.7,10.9-37.1,22.4-55.7,33.5c-14.6,8.8-29.2,17.5-44,26c-15,8.6-29.1,18.7-44.5,26.6c-2.1,1.1-3.9,1.6-6.1,1.2
		c0.1-1.6-0.6-2.8-1.6-4c-5.1-7.1-10.1-14.3-15.8-21c-16.3-19.4-35.7-34.3-60.4-41c-6.6-1.8-13.6-3-20.6-2.5c-1.4,0.1-3.4,1.6-4-0.1
		c-0.8-2.1,1.8-2.3,3.1-3.1c13.5-8,26.9-16.3,40.5-24.1c15.6-9,30.8-18.9,46.3-28.2c20.9-12.6,41.8-25.1,62.9-37.4
		c3.4-2,0.8-2.2-0.3-3.2C313.7,132.1,319,133.6,323.8,131.5z M274,210.7c5.8,3.1,11.2,5.2,16.1,8.5c9.4,6.6,16.9,14.9,23.8,23.9
		c1.8,2.4,3.1,3.1,6.2,1.3c12.8-7.4,25.8-14.4,38.7-21.5c2.9-1.6,7.4-2.9,8.1-5.2c0.9-3-3.8-4.7-5.8-7.3c-0.2-0.3-0.5-0.5-0.7-0.7
		c-8.9-10.5-19.1-19.3-32.8-23.1c-2.6-0.7-4.7-0.8-7.1,0.5c-6.3,3.5-12.6,6.8-19,10C292.6,201.6,283.5,206,274,210.7z M226.6,193.4
		c14.6,0.1,26.4,5.2,37.2,13c2.6,1.9,4.4,2.1,7,0.7c14-7.6,28-15,42-22.6c1.4-0.7,3.5-1.4,3.4-3.2c0-1.8-2-2.4-3.5-3.2
		c-10.2-5.6-21.5-7.5-32.8-9.4c-4.4-0.7-9-0.7-12.9,2.3c-5.5,4.2-11.9,6.6-17.8,9.9C242,184.7,234.9,188.8,226.6,193.4z
		 M185.7,215.1c2.8,0.6,4.9,1.2,7,1.4c22.4,2.2,42,11.1,59.5,24.9c9.1,7.1,16.5,15.8,23.6,24.8c1.4,1.8,2.2,2.3,4.3,0.7
		c2.2-1.6,1.6-2.9,0.3-4.5c-1.9-2.3-3.9-4.5-5.6-7c-7.4-10.8-17.6-18.4-28.2-25.5c-14.5-9.7-30.5-15.5-47.9-17.8
		C194.1,211.5,190.2,211.5,185.7,215.1z M304.7,151.4c16.4,1,31.2,5.1,45.2,11.8c17.8,8.6,31.7,21.9,44,37.1
		c1.5,1.8,2.5,4.4,5.4,2.3c3.4-2.4,0-4.3-1-5.7c-20.2-28.1-47.5-44.4-81.7-49.4C312.5,147,308.6,147.5,304.7,151.4z M284.8,162.1
		c1.3,0.2,1.9,0.4,2.5,0.4c19,1,36.4,7,52.4,17.1c13.8,8.7,25.9,19.1,34.9,32.9c1.5,2.3,2.9,2.2,5,1.1c3.1-1.6,0.7-3.2-0.1-4.3
		c-5.5-7.9-11.6-15.2-18.9-21.6c-17.5-15.3-37.6-24.8-60.3-28.8C295.3,157.8,289.5,156.2,284.8,162.1z M206,204.5
		c1.6,1.5,3.2,0.8,4.6,1c11.1,1.1,21.9,3.2,32.2,7.7c17.6,7.7,33,18.2,45.4,33.1c2.4,3,4.5,6.1,6.9,9.1c1.5,1.9,3.1,2.2,5.1,0.8
		c2.2-1.6,0.7-2.8-0.2-4.1c-10.8-15.7-24.4-28.5-41.2-37.4c-12.9-6.9-26.5-11.9-41.4-13.5C212.8,200.7,209.4,200.9,206,204.5z"/>
	<path class="st0" d="M155.8,85.4c9.9-5.7,19.7-11.4,29.5-17.1c1.4-0.8,2.9-0.7,4.4-0.8c1.8,2,4.5,1.3,6.6,1.5
		c5.8,0.6,11.7,1.6,17.5-0.5l0.1,0c14.5,2.4,29,4.5,42.6,10.6c13.7,6.2,24.4,15.7,33.6,27.1c2.6,3.2,5.6,6.2,6.8,10.3
		c0.4,4.2,5.1,6.5,5,11c-1.2,0-2.2,0.1-3.3,0.8c-21.4,12.8-42.8,25.6-64.3,38.2c-8.1,4.7-15.8,10.2-24.4,14c0-1.7,0-3.3,0-5
		c0.1-2.2,0.4-4.6-1.2-6.2c-1.1-1.2,0.8-4.6-2.8-3.8c0.1-6.1-1.4-11.5-6.7-15.1c-7.3-5.1-15.6-6.9-24.4-6.9
		c-0.3-0.6-0.3-1.4-0.8-1.7c-17.9-12.2-37.8-18.8-59.2-21.2c-4.3-0.5-7.4,1.4-10.9,5c14.2-0.7,26.9,2.2,39.1,6.9
		c7.4,2.8,15.1,5.1,20.9,11c-6.6,1.3-12.9,3.4-19,6c0.7-3.1-2-3.4-3.6-4.2c-12.8-6.5-26.4-10.9-40.6-12.6c-5-0.6-10.9-2-15.4,3.5
		c9.6,1.6,18.9,1.3,27.8,4.2c9,2.9,18,5.5,25.8,11c-3.6,3.3-7.6,6.1-12.1,8c-15.4-8.4-31.8-13.8-49.3-15.7
		c-5.4-0.6-9.3,0.5-11.6,4.4c19.9,0.9,39,4.8,55.9,16.2c-1.4,2.4-2.7,4.9-4.1,7.2c-3.5,6-4.6,11.9,0.1,17.8
		c-0.8,0.5-1.1,1.3-0.7,2.1c2.1,5.5,3.5,11.2,7.6,15.7c-2,0.2-3-1.4-4-2.6c-5.9-7.5-12.7-14-20.1-19.9c-12.2-9.8-26.1-16-41.7-18.4
		c-11.7-1.8-23.5-0.5-35.3-1c0.7-0.7,1.4-1.3,2.1-2c20.7-12.6,41.9-24.4,62.1-37.8c0.8-0.2,1.7-0.1,2.4-0.5
		c8.9-5.5,17.8-11,26.6-16.5c8.5-3.8,16.3-8.8,23.9-14.1c2.2-0.3,3.6-1.8,5.2-3.1C149.8,90.3,153.2,88.5,155.8,85.4z M143.2,101.4
		c1,1.4,2.1,1.1,3,1.1c10.9-0.1,21.6,1.7,31.7,5.3c22.9,8.3,42.6,21.4,57.2,41.4c1.5,2.1,2.6,1.6,4.5,0.5c2.2-1.3,1.8-2.6,0.7-4
		c-10.7-13-22.5-24.8-37.4-33.2c-14.5-8.1-30.2-12.5-46.6-14.9C151.4,96.9,147,97.9,143.2,101.4z M192.1,74.7
		c-3.1-0.5-5.6,0.2-7.9,1.7c-0.8,0.5-2.1,0.8-1.7,2c0.3,1.1,1.5,1.1,2.5,1.1c4.5,0.2,8.9,0.1,13.4,0.8c30.5,5.2,55.2,20.1,74.3,44.3
		c1.7,2.2,3.1,3.9,6,1.5c3-2.5-0.2-3.9-1.2-5.1c-9.7-12.4-21.1-23-34.8-30.9C227,81.1,210,75.8,192.1,74.7z M163,90.1
		c4.2,0.5,7.7,1.1,11.3,1.4c18.5,1.4,35,8.4,50.3,18.4c11.6,7.6,22.2,16.2,30.1,27.9c1.2,1.7,2.4,1.6,4.2,0.4
		c1.9-1.3,1.9-2.5,0.7-4.1c-1.1-1.5-2.4-2.8-3.5-4.2c-13.3-16.3-29.6-28.3-49-36.3c-8.8-3.6-18.1-5.5-27.4-6.8
		C174.3,86.1,168.2,84.7,163,90.1z M123.1,113.3c10.1,0.7,19.2,1.6,28.2,4.1c26.1,7.3,47.6,21.3,64.2,42.8c1.4,1.9,2.4,2.4,4.4,1.2
		c2.5-1.4,1.5-3.1,0.4-4.6c-8.3-10.6-17.8-20.3-29-27.8c-13.1-8.8-27.5-15.1-43.3-17.9C139.9,109.7,131.5,107.1,123.1,113.3z"/>
	<path class="st1" d="M258.8,298.4c2.2,0.3,4-0.2,6.1-1.2c15.4-7.9,29.6-18,44.5-26.6c14.7-8.5,29.4-17.2,44-26
		c18.6-11.1,37-22.6,55.7-33.5c4.4-2.6,8.7-5.2,13.1-7.7c2.7-1.6,3.2-3.6,1.5-6.2c-2.1-3-3.6-6.3-4.9-9.7c8,1,13.7,6.7,20.5,10.2
		c1.5,0.8,1.9,3,0.7,4.8c-0.1,1.5-1.1,2.2-2.2,3c-4.3,3.3-9.4,4.9-14,7.6c-32.6,19.4-65.4,38.7-98.1,58c-18,10.7-36,21.5-53.9,32.2
		c-1.6,0.8-3.4,1.5-4.8,2.6c-4.2,3.4-8,2.7-12.2-0.1c-5-3.3-10.3-6.1-15.4-9c-20.3-11.5-40.8-22.7-60.9-34.7
		c-10.8-6.4-21.3-13.3-32.5-18.9c-5.7-2.9-10.3-8-17.1-8.7c-0.4-1-0.8-1.9-1.1-2.9c1.6-3.6,4.4-2.9,7.2-2.1
		c3.8,3.9,8.6,5.9,13.7,7.5c4.1,1.3,8.2,2.3,12.2,4.1c10.8,4.8,21.6,9.5,32.2,15c12.9,6.6,24.9,14.8,37.2,22.4
		C240.1,284.4,248.5,292.7,258.8,298.4z"/>
	<path class="st2" d="M271.7,303.3c18-10.7,35.9-21.5,53.9-32.2c32.7-19.4,65.4-38.6,98.1-58c4.6-2.7,9.7-4.3,14-7.6
		c1.1-0.9,2.1-1.5,2.2-3c3.1,0.1,5.1,1.8,5.7,4.6c0.5,2.7-1.7,4.2-3.8,5.3c-23.9,13-46.5,28.2-70.3,41.4
		c-19.4,10.7-38.1,22.8-57.2,34.1c-15.4,9.1-31,18-46.4,27.2c-3,1.8-4-1.4-6.1-1.6C265,310,268.9,307.2,271.7,303.3z"/>
	<path class="st3" d="M125,238.5c-4.4,6.3-10.5,9.9-18.1,11.2c-2-1.5-4.8-1.8-6.2-4.2c-0.4-2.3-1.4-4.3-3.9-5c-1-4.1-2.1-8.2-3.3-13
		c-1.6,5-1.8,9.2-1.8,13.5c0.1,9.4-0.4,18.9,1,28.3c-1.6-0.6-3.2-1.3-4.9-0.7c-3.2-0.4-5.2-3-8-4.3c-0.4-0.3-0.7-0.6-1.1-0.9
		c0,0,0,0,0,0c-0.1-0.6-0.4-1-1.1-0.9l0.1-0.2c0-4,0-8,0-12c0-1.6,0.5-3.5-1.9-4c-0.6-5.6,0.9-11.3-0.9-16.9
		c0.6-4.4-2.2-9.3,1.8-13.2c0,0-0.1,0.4-0.1,0.4c1.2,0.6,2.6,1,3.4,1.9c4.9,5.3,11,6.3,17.7,4.9c1.9,0.1,2.9,1.1,2.9,3
		c0,1.4,0.5,2.4,2,2.8c2.1,0.2,2,1.8,2.3,3.3c-2.4,2.4-2.6,4.4-0.6,7.6c2.3,3.7,5,3.5,8.3,3.3c2.3,0.3,3.4-1.7,5-2.6
		c2-1.2,3.2-3.8,6.1-3.3C124.3,237.8,124.6,238.1,125,238.5z"/>
	<path class="st4" d="M79.9,264.4c2.7,1.3,4.8,3.8,8,4.3c0,1.5,1.2,2,2.3,2.1c6.2,0.3,6.4,4.8,6.5,9.3c0.4,15.6,0,31.2-1,46.8
		c-0.1,1-0.1,2-1.1,2.6c-2.2-0.8-1.8-2.7-1.9-4.5c-0.1-3.2,0.5-6.4-0.8-9.5c1.6-5.9,0.7-11.9,0.4-17.9c0-0.3-1-0.7-1.5-1
		c-0.1-5.1-0.8-10.1-2.3-15c0-1.8,0.4-3.7-0.1-5.4c-0.6-1.9-1.7-1.9-2,0.3c-1.3,5.6-1.3,11.3,0,16.9c0.1,0.3,0.1,0.6,0.1,0.9
		c-1.8,6.2-2,12.7-2.6,19.1c-1.3,1.5-1.4,3.2-1,5.1c-0.1,1.4-0.2,2.8-1.4,3.8c-2.7-0.6-1.7-2.8-1.8-4.4c-0.4-5.5,0.9-11.1-0.8-16.5
		c2.3-9.1-0.6-17.9-1.7-26.7c-0.4-3.1,0-6.3-0.6-9.3c0.4-0.7,0.8-1.4,1.2-2.1c0.3,0,0.7,0,1,0l0,0C78.9,264.1,79.2,264.4,79.9,264.4
		z"/>
	<path class="st5" d="M87.8,125.7c-20.2,13.5-41.4,25.2-62.1,37.8c-1.7,0.1-4.4-0.4-4.5,1.7c-0.2,3.5-2.9,2.4-4.5,3.2l0,0.4
		c-2.7-1.1-4.9-2.5-5.1-5.9c-0.2-3.6,2.8-3.7,4.8-4.8c17.5-9.3,34.9-18.6,52.5-27.7c6.1-3.1,12.6-5.2,18.4-9
		C94.8,122.2,86.5,124.3,87.8,125.7z"/>
	<path class="st6" d="M92,315.4c1.3,3.1,0.7,6.3,0.8,9.5c0.1,1.7-0.4,3.6,1.9,4.5c0.6,1.4,1.4,1.2,2.3,0.2c3.4-0.2,6.3-2,5.7-5.4
		c-0.7-3.9-3.7-0.5-5.6-0.7c-0.9-3.2,1.2-6,0.9-9.1c3.4,0,6.1,1.9,8.6,3.5c5.9,3.8,5.8,10.6-0.1,14.6c-8.3,5.7-23.9,5.9-32.3-0.1
		c-4.4-3.2-4.5-9.1-0.3-12.4c1.4-1.1,1.9-3.1,3.8-3.7c0.8,2.3-0.9,5,1,7.1c0.8,1.2,2,1,3.2,0.9c2.3,0.1,4.2-0.8,5.9-2.3
		c0.9-0.9,2.4-1.4,1.4-3.1c-0.8-1.4-1.8-1.8-3.3-1.2c-0.9,0.4-1.9,0.5-2.9,0.7c-0.4-1.8-0.2-3.6,1-5.1c2.1,2.4,4.7,0.2,7,0.9
		C91.3,314.7,91.7,315.1,92,315.4z"/>
	<path class="st7" d="M271.7,303.3c-2.8,3.9-6.7,6.7-9.9,10.1c-11.9-6.4-23.4-13.5-35.1-20.3c-22.2-13-44.6-25.4-66.9-38.2
		c-8.9-5.1-17.8-10.3-26.6-15.6c-1.7-1-3.4-2-5.5-2c0.4-1,0.8-1.9,1.2-2.9c6.8,0.7,11.4,5.8,17.1,8.7c11.2,5.7,21.7,12.5,32.5,18.9
		c20.1,11.9,40.6,23.1,60.9,34.7c5.2,2.9,10.5,5.8,15.4,9c4.2,2.8,8.1,3.5,12.2,0.1C268.3,304.7,270.1,304.1,271.7,303.3z"/>
	<path class="st8" d="M338.6,121.6c-4-2.2-7.9-4.3-11.1-7.9c-6.8-7.7-4.7-16.6-4.7-25.3c0-2.2,1.6-3.5,3.8-3.9
		c6.9-1.2,12.2,2,16.8,6.6c1.1,1.1,2.6,2.9,0.5,4.7c-2.1,1.8-2.8-0.5-4-1.4c-0.7-0.5-1.2-1.2-1.9-1.6c-5.5-3.3-10.3-0.9-10.3,5.5
		c0,6,1.8,11.4,6.7,15.2c1.3,1.1,3.5,3,4.6,1.3c1.1-1.7,1.9-4.7-0.9-6.5c-0.4-0.3-0.7-0.8-1.1-1c-2.4-1.2-3.2-3.5-1.9-5.3
		c1.4-1.8,3.3,0.2,4.7,1c1.7,0.9,3.2,2.1,4.8,3.2c0,2.3,0,4.6,0,6.9C344.7,120.6,344.7,120.6,338.6,121.6z"/>
	<path class="st9" d="M398.8,122.5c8.3,4.4,16.7,8.6,20.6,18c2.1,5,2.8,10.1,2.2,15.4c-0.7,6.1-7.4,9.2-12.9,5.9
		c-3.4-2-7.2-3.4-10-6.2C398.7,144.6,398.7,133.6,398.8,122.5z M403.7,131.5c-2.2,5.6-0.5,11.4-0.9,17c-0.1,1.7-0.8,3.7,1.2,4.9
		c0.2,0,0.5,0,0.7,0c2.4,1.4,4.1,3.8,7.7,2.1c3.8-1.8,3.3-4.8,3.3-7.9c0-6.9-3.8-11.5-9.1-15.2C405.9,131.4,404.9,131.3,403.7,131.5
		z"/>
	<path class="st10" d="M293.7,94.4c-1.8,0.4-3.3,0.1-4-1.9c2.1-3.7,0.6-7.7,0.9-11.6c0.6-6.7-1.1-13.5,1-20.2
		c5.6,2.8,11.2,5.6,14.7,11c3.7,5.7,3.3,9.4-1.6,14.3c-1.4,1.4-0.5,2.3,0,3.5c1.8,4,3.7,8.1,5.5,12.1c0.4,0.8,0.7,1.6,0,2.3
		c-0.7,0.9-1.5,0-2.2,0c-2.7-0.1-3.3-2.2-4.3-4.1c-2.6-5-2.6-11.2-7-15.4c-2.6-1.3-2,0.8-2.1,2C294.5,89.1,295.5,91.9,293.7,94.4z
		 M295.1,72.7c-1.6,5.8,2.5,6.6,5.3,7.5c2.1,0.7,2.3-1.7,2.2-3.5c-0.1-3.3-3.7-7.4-6.4-7.1C293.5,70,295.3,72.3,295.1,72.7z"/>
	<path class="st11" d="M242.3,59.2c2.5,1.8,4.8,3.4,6.9,5.2c1.3,1.1,2.8,1.6,4,0.6c1.1-0.9,0.5-2.3,0-3.6c-1.7-4.6-6-7.4-8.5-11.4
		c-1.8-3-3.5-5.9-3-9.6c0.6-3.8,2.7-5.6,6.5-4.7c4.8,1.1,7.9,4.5,11.1,7.9c1.2,1.3-0.1,2.2-0.7,3c-1.1,1.7-1.9,0.1-2.7-0.5
		c-2.3-1.9-5.4-5.1-7.4-2.7c-2.4,2.7,1.4,5.5,3.4,7.7c4.6,4.9,8.8,9.8,8,17.3c-0.5,4.8-3.2,6.6-7.3,4.2c-3.1-1.8-6.1-3.9-8.8-6.2
		C241.3,64.2,241.3,62.2,242.3,59.2z"/>
	<path class="st12" d="M353.6,96.4c1.6,1.2,3.7,1.5,5,3.2c-1.8,8.3-0.6,16.6-0.7,24.9c0,1,0.9,1.7,1.9,2c1.4,2.3,3.3,4.1,5.8,5.1
		c3.2,1.1,3.5,1,5.1-3c1.8-2.9,0.5-6.2,0.9-9.2c0.5-3.9-1-7.9,0.9-11.7c1,0.6,2.1,1.2,3.1,1.8c0.4,8-0.9,16.1,0.7,24.2l0.4-0.1
		c-2.6,5.7-6.9,6.9-12.4,3.4c-5.7-3.7-10.2-8.5-11.9-15.4l0.3,0.1c1.3-1.4,0.8-3.1,0.8-4.7c0.1-6.7,0.1-13.5,0.1-20.2L353.6,96.4z"
		/>
	<path class="st13" d="M429.7,140.6c4.4,2.4,8.8,4.8,13.3,7.1c2.5,1.3,2.1,3.5,1.4,5.2c-1.2,3-2.3-1-3.8-0.5
		c-0.4,0.2-1.2-1.2-1.9-1.3c-1.6-0.2-3.5-3-4.6-0.6c-0.9,2-1.6,5.2,1.8,6.7c2.1,0.9,4,2.2,6.1,3.3c2.1,1.1,2.2,3.1,1.5,4.7
		c-1.1,2.5-2.8-0.2-4.2,0.1c-0.1,0-0.3-0.2-0.4-0.2c-1.6-0.8-3.4-4.1-4.6-1.8c-1.1,2.2-2.2,6.2,1.7,8.2c2.3,1.2,4.5,2.7,6.9,3.9
		c2.4,1.2,2.4,3.5,1.6,5.1c-1.2,2.2-2.7,0.2-4-0.6c-3.3-1.9-6.9-3.1-9.8-5.6c-0.6-2.1-1.1-4.1-1.1-6.3
		C429.8,158.9,429.7,149.7,429.7,140.6z"/>
	<path class="st14" d="M217.9,43.5c1.8,2,3.5,4.2,5.6,5.9c1.8,1.5,4,2.6,5.3-0.8c0.3-0.4,0.7-0.7,1-1.1c1.4-1.4,0.9-3.1,0.9-4.7
		c0.1-5.7,0.1-11.5,0.2-17.2c1.5,0.7,3,1.4,4.5,2.1c0,0.3,0.1,0.5,0.1,0.8c-1.8,8-0.3,16-0.8,24c0.1,0.4,0.2,0.7,0.3,1.1
		c-1.7,4.5-6.9,5.4-11.6,2.2c-4.7-3.2-8.3-7.1-10.5-12.3c1.2-1.2,0.8-2.8,0.8-4.2c0-7.9,0-15.8,0-23.6c1,0.6,2,1.2,3.1,1.8
		c0,7.2,0,14.3,0,21.5C216.8,40.5,216.2,42.4,217.9,43.5z"/>
	<path class="st15" d="M269.9,48.5c5.4,2.5,11.5,4.2,13.2,11.3c-4.9,0.9-7.1-3.2-10.9-4.1c-1.2,4.5-0.8,7.9,4.3,9.3
		c0.4,0.1,0.8,0.6,1.2,0.9c1.8,1.4,5.5,1.8,3.7,5.2c-1.7,3.1-4,0-6-0.5c-1.2-0.3-2.8-1.9-3.3-0.1c-0.5,2.3-1.7,5.3,1,7.2
		c2.3,1.6,4.8,3,7.3,4.2c2.5,1.2,2,3.3,1.2,4.9c-1,2-2.3,0.5-3.6-0.3c-3.4-2.1-6.8-4-10.2-6c0-9.3-0.1-18.5,0-27.8
		C267.8,51,267.1,48.9,269.9,48.5z"/>
	<path class="st16" d="M82.6,209.5c-8.5-3.3-16-8.6-24-12.9c-12.5-6.7-24.7-14.1-37-21.1c-2.7-1.5-5.4-2.8-4.7-6.6c0,0,0-0.4,0-0.4
		c6.7,3.8,13.3,7.5,20,11.3c13.5,7.9,27.1,15.8,40.6,23.7c1.3,0.7,2.6,1.6,4.2,1.2C81.9,206.2,82.3,207.8,82.6,209.5z"/>
	<path class="st17" d="M301.8,127.5c0.2-4.5-4.6-6.7-5-11c3-0.4,4.9,1.9,7.1,3.1c6.7,3.8,13.3,7.8,19.9,11.8
		c-4.8,2.1-10.1,0.6-15,2.2c-2.3,0.5-3.9-0.1-4.8-2.5C303.5,129.9,302.5,128.7,301.8,127.5z"/>
	<path class="st18" d="M82.6,209.5c-0.3-1.7-0.7-3.3-1-5c0.7-3,0.3-6.3,2.4-8.9c3.4-2.3,7-2.8,10.7-1.1c2.2,1,4.2,2.2,2,5
		c-2.1,1.2-3.8,2.5-5.6,4.4c-2.2,2.5-1.8,8.2-7.3,7.4C83.4,210.8,83,210.1,82.6,209.5z"/>
	<path class="st19" d="M87.8,125.7c-1.3-1.3,7-3.4-0.3-4.3c7.7-5,16-8.9,24.2-13c1.3-0.7,2.7-1.3,4-1.9c1.8,0,1.5,1.1,1.1,2.2
		c-8.9,5.5-17.7,11-26.6,16.5C89.6,125.6,88.6,125.5,87.8,125.7z"/>
	<path class="st20" d="M83.8,211.4c5.5,0.8,5.1-4.9,7.3-7.4c1.7-1.9,3.5-3.2,5.6-4.4c0.3,1.4,0.6,2.7,1,4.1
		c-0.4,3.6-4.6,5.1-4.8,8.8c-4.6,0.1-2.6,3.6-3,5.9c-2.8,0.8-4.6-1.8-7.2-2C83,214.7,82.1,212.8,83.8,211.4z"/>
	<path class="st21" d="M386.7,115.7c0.6-0.2,0.9,0.2,1,0.7c2.2,8.7,0.5,17.5,1,26.3c0.1,2.3,0.4,4.7-1.1,6.8c-0.6-0.3-1.2-0.7-1.8-1
		c0-8.4-0.1-16.7-0.1-25.1C385.7,120.8,385.1,118.1,386.7,115.7z"/>
	<path class="st22" d="M191,66.7c0.5-0.2,1-0.2,1.4-0.5c8.7-5.6,13.9-5.1,21.4,2.4c0,0-0.1,0-0.1,0C206.1,68.5,198.5,69,191,66.7z"
		/>
	<path class="st23" d="M96.9,329.6c-0.8,1-1.6,1.3-2.3-0.2c1-0.6,1-1.6,1.1-2.6c1-15.6,1.3-31.2,1-46.8c-0.1-4.4-0.3-9-6.5-9.3
		c-1.2-0.1-2.3-0.6-2.3-2.1c1.8-0.5,3.3,0.2,4.9,0.7c0.4,0,0.7,0,1.1,0c1,0.5,2,0.9,3,1.4c2,5.5,0.4,11.1,1.1,16.7
		c0,6,0,12.1,0,18.1c0,3,0,6,0,8.9c0.3,3.1-1.9,6-0.9,9.1C96.9,325.6,96.9,327.6,96.9,329.6z"/>
	<path class="st24" d="M82.7,216.3c2.5,0.2,4.4,2.8,7.2,2c0.6,0.1,1.2,0.2,1.9,0.3c2.1,1.6,4.1,3.2,6.2,4.8
		c-6.7,1.4-12.8,0.4-17.7-4.9c-0.8-0.9-2.3-1.2-3.4-1.9C78.7,216.5,80.7,216.4,82.7,216.3z"/>
	<path class="st25" d="M100.7,245.5c1.4,2.3,4.2,2.6,6.2,4.2c-0.4,4.3-3.3,6.4-7,7.8c-1.6-2.9-2.3-6-2.2-9.3
		C97.8,246,98.7,245.3,100.7,245.5z"/>
	<path class="st26" d="M116.8,108.7c0.4-1.1,0.7-2.2-1.1-2.2c6.4-4.7,14.1-7,20.7-11.3c1.4-0.9,2.8-0.7,4.3-0.6
		C133.2,99.9,125.3,104.8,116.8,108.7z"/>
	<path class="st27" d="M100.7,245.5c-2-0.2-2.9,0.5-3,2.7c-0.1,3.3,0.6,6.4,2.2,9.3c-3.8,3.7-0.8,9.1-3.1,13.2c-1-0.5-2-0.9-3-1.4
		c0.4-0.8,1.2-0.8,1.9-0.9c1.6-1.3,1-3,1-4.6c0-7.1,0-14.2,0-21.3c0-0.6,0.1-1.3,0.1-1.9C99.4,241.2,100.3,243.2,100.7,245.5z"/>
	<path class="st28" d="M76.8,216.3c-4,3.9-1.2,8.8-1.8,13.2c-0.5,6-0.4,11.9,0,17.9c0,4-0.1,8-0.1,12c-1.4-0.9-1.1-2.3-1.1-3.6
		c0-11.9,0-23.8,0-35.8C73.8,218.1,73.2,215.4,76.8,216.3z"/>
	<path class="st29" d="M78.7,323.5c-1.9-2.1-0.2-4.8-1-7.1c0.9-4.9-1.2-10.1,1.4-14.9c1.7,5.4,0.4,11,0.8,16.5
		c0.1,1.6-0.9,3.8,1.8,4.4c0.2,0.3,0.2,0.6,0,1C80.6,323.4,79.7,323.5,78.7,323.5z"/>
	<path class="st30" d="M74.9,259.4c0-4,0.1-8,0.1-12c0.3-0.3,0.5-0.7,0.8-1c2.4,0.5,1.9,2.4,1.9,4c0,4,0,8,0,12
		c-0.6-0.3-1.2-0.6-1.9-1C76,260.6,75.7,259.8,74.9,259.4z"/>
	<path class="st31" d="M387.6,149.5c1.5-2.1,1.2-4.5,1.1-6.8c-0.5-8.8,1.2-17.6-1-26.3c0.8,0.1,1.7,0.1,2.2,1c-0.1,11-0.2,22-0.3,33
		C388.8,150.5,387.9,150.7,387.6,149.5z"/>
	<path class="st32" d="M269.9,48.5c-2.8,0.3-2.2,2.5-2.2,4.2c0,9.3,0,18.5,0,27.8c-0.7,0.2-1-0.2-1.2-0.8c0.1-11,0.2-22.1,0.2-33.1
		C267.8,47.3,268.9,47.9,269.9,48.5z"/>
	<path class="st33" d="M384.4,147.6c-1.7-8.4-0.3-16.9-0.7-25.3c-0.1-2.3-0.1-4.7,0.1-7c0.1-1.2,0.6-2,1.8-0.7
		c-1.8,1.2-0.8,3.1-0.9,4.6C384.6,128.7,384.5,138.1,384.4,147.6z"/>
	<path class="st34" d="M384.4,147.6c0.1-9.5,0.1-19,0.3-28.4c0-1.5-0.9-3.3,0.9-4.6c0.4,0.4,0.7,0.7,1.1,1.1c-1.6,2.4-0.9,5.1-1,7.7
		c-0.1,8.4,0,16.7,0.1,25.1C385.1,148.6,384.7,148.2,384.4,147.6z"/>
	<path class="st35" d="M429.7,140.6c0,9.2,0,18.3-0.1,27.5c0,2.2,0.5,4.3,1.1,6.3c-0.6-0.3-1.2-0.7-1.8-1c-0.1-11-0.1-21.9-0.2-32.9
		C429,140.5,429.4,140.5,429.7,140.6z"/>
	<path class="st36" d="M428.7,140.5c0.1,11,0.1,21.9,0.2,32.9c-0.8-0.4-1.2-1.2-1.2-2c0-10.1,0-20.3,0-30.4c0-0.1,0.1-0.4,0.2-0.4
		C428.1,140.4,428.4,140.5,428.7,140.5z"/>
	<path class="st37" d="M397.8,155.5c-1.1-0.8-1-2-1-3.1c0-9.1,0-18.2,0-27.2c0-1.2-0.4-2.7,1.3-3.4
		C397.9,133,397.8,144.3,397.8,155.5z"/>
	<path class="st38" d="M397.8,155.5c0.1-11.2,0.2-22.5,0.3-33.7c0.3,0.2,0.5,0.5,0.8,0.7c-0.1,11.1-0.1,22.1-0.2,33.2
		C398.3,155.7,398,155.6,397.8,155.5z"/>
	<path class="st39" d="M291.7,60.8c-2.1,6.6-0.4,13.5-1,20.2c-0.3,3.9,1.1,7.9-0.9,11.6c0,0-0.2,0.1-0.2,0.1c0-11,0.1-21.9,0.1-32.9
		C290.4,60.1,291.1,60.4,291.7,60.8z"/>
	<path class="st40" d="M266.8,46.6c-0.1,11-0.2,22.1-0.2,33.1c-0.3-0.4-0.6-0.8-1-1.2c0.1-10.6,0.2-21.3,0.3-31.9
		C266.2,46.6,266.5,46.6,266.8,46.6z"/>
	<path class="st41" d="M389.7,150.4c0.1-11,0.2-22,0.3-33c1.8,7.6,0.6,15.4,0.7,23.1C390.7,143.8,391.9,147.3,389.7,150.4z"/>
	<path class="st42" d="M289.7,59.7c0,11-0.1,21.9-0.1,32.9c-1.7-2.4-0.8-5.1-0.8-7.6c-0.2-6.9-0.1-13.9,0-20.8
		C288.8,62.7,287.8,60.9,289.7,59.7z"/>
	<path class="st43" d="M370.8,128.5c-1.7,4-1.9,4.2-5.1,3c3.3-1.4,4.1-3.8,4.2-7.4c0.1-5.9-1.5-11.9,0.9-17.6
		C370.8,113.9,370.8,121.2,370.8,128.5z"/>
	<path class="st44" d="M265.9,46.6c-0.1,10.6-0.2,21.3-0.3,31.9c-1.9-7.3-0.6-14.6-0.7-22C264.8,53.3,263.5,49.7,265.9,46.6z"/>
	<path class="st45" d="M128.8,234.4c-0.4,1-0.8,1.9-1.2,2.9c-0.9,0.4-1.8,0.8-2.7,1.1c-0.4-0.4-0.7-0.7-1.1-1.1
		c1.7-1.8-0.9-1.9-1.1-2.9c0.3-2.3,2.5-2.8,3.9-4.1c0.3,0.4,0.7,0.7,1,1.1C128,232.5,128.4,233.5,128.8,234.4z"/>
	<path class="st46" d="M191,66.7c7.4,2.3,15.1,1.9,22.7,1.9c-5.8,2.1-11.7,1.1-17.5,0.5c-2.1-0.2-4.7,0.5-6.6-1.5
		C190.1,67.2,190.6,66.9,191,66.7z"/>
	<path class="st47" d="M213.7,15.7c0,7.9,0.1,15.8,0,23.6c0,1.4,0.4,3-0.8,4.2c-0.1-0.9-0.2-1.9-0.3-2.8c0-4.7-0.1-9.5,0.2-14.2
		c0.2-3.7-1.2-7.5,1-11C213.8,15.6,213.7,15.7,213.7,15.7z"/>
	<path class="st48" d="M359.9,126.5c-1-0.3-1.9-1-1.9-2c0.1-8.3-1.2-16.6,0.7-24.9c0,0,0.3-0.1,0.3-0.1c0.2,8.4-1.3,16.8,0.8,25.1
		C359.8,125.2,359.8,125.9,359.9,126.5z"/>
	<path class="st49" d="M338.6,121.6c6.1-1,6.1-1,6.1-8.4c0-2.3,0-4.6,0-6.9c0.3,0.1,0.7,0.1,1,0.2c0,4.5,0,9.1,0,13.6
		c0,1.5,0.6,3.5-2,3.5C341.9,123.4,340,123.2,338.6,121.6z"/>
	<path class="st50" d="M213.8,15.6c-2.2,3.5-0.7,7.3-1,11c-0.3,4.7-0.2,9.5-0.2,14.2c-0.2-0.1-0.5-0.2-0.7-0.2
		c0-8.6,0-17.3-0.1-25.9C212.7,14.6,213.3,14.8,213.8,15.6z"/>
	<path class="st51" d="M235.6,28.6c0-0.3-0.1-0.5-0.1-0.8c1.9,0.8,1.3,2.5,1.3,3.9c0.1,6,0.1,11.9,0,17.9c0,1.6,0.5,3.5-1.8,4.1
		c-0.1-0.4-0.2-0.7-0.3-1.1c0.9-0.4,1-1.2,1-2.1C235.7,43.2,235.6,35.9,235.6,28.6z"/>
	<path class="st52" d="M352.6,121.5c-1.8-8.1-0.5-16.4-0.7-24.6c0-1.1,0.9-1.2,1.8-0.5c0,0,0.2,0.3,0.2,0.3c-1.7,0.7-1,2.3-1,3.5
		c0,7.1,0.1,14.3,0.1,21.4C352.9,121.6,352.6,121.5,352.6,121.5z"/>
	<path class="st53" d="M211.8,14.6c0,8.6,0,17.3,0.1,25.9c-1.9-1.3-1.2-3.3-1.1-5C211.3,28.6,209.5,21.5,211.8,14.6z"/>
	<path class="st54" d="M217.9,43.5c-1.8-1.2-1.1-3-1.2-4.6c-0.1-7.2,0-14.3,0-21.5c0.3-0.1,0.6,0,0.9,0.1c0.1,8.3,0.2,16.7,0.3,25
		C217.8,42.9,217.8,43.2,217.9,43.5z"/>
	<path class="st55" d="M218,42.6c-0.1-8.3-0.2-16.7-0.3-25c2.2,2.4,1.1,5.4,1,8C218.5,31.3,219.8,37,218,42.6z"/>
	<path class="st56" d="M359.7,124.6c-2.1-8.3-0.6-16.7-0.8-25.1c1.8,5.5,0.5,11.1,0.8,16.6C359.9,118.9,359.7,121.8,359.7,124.6z"/>
	<path class="st57" d="M376.7,109.6c1.8,8,1.5,15.9,0.2,23.9c0,0-0.4,0.1-0.4,0.1C376.5,125.5,376.6,117.5,376.7,109.6z"/>
	<path class="st58" d="M376.7,109.6c-0.1,8-0.2,16-0.3,24c-1.5-8-0.3-16.1-0.7-24.2C376.1,109.4,376.4,109.5,376.7,109.6z"/>
	<path class="st59" d="M229.8,47.6c-0.3,0.4-0.7,0.7-1,1.1c0-6.3-0.1-12.7-0.1-19c0-1.4-0.5-3.1,1.1-4.1
		C229.9,33,229.9,40.3,229.8,47.6z"/>
	<path class="st60" d="M370.8,128.5c0-7.3,0-14.6-0.1-22c0.8-0.1,1.6,0,1.9,1c-1.9,3.8-0.4,7.8-0.9,11.7
		C371.3,122.4,372.6,125.6,370.8,128.5z"/>
	<path class="st61" d="M229.8,47.6c0-7.3,0-14.6,0-22c0.3,0,0.7,0,1,0.1c0,5.7-0.1,11.5-0.2,17.2C230.7,44.5,231.2,46.3,229.8,47.6z
		"/>
	<path class="st62" d="M343.7,123.7c2.6,0,2-2,2-3.5c0-4.5,0-9.1,0-13.6c2.2,5.4,0.7,10.9,0.8,16.4
		C346.6,124.7,345,124.8,343.7,123.7z"/>
	<path class="st63" d="M97.9,305.5c0-6,0-12.1,0-18.1C99.4,293.4,99.4,299.4,97.9,305.5z"/>
	<path class="st64" d="M293.7,94.4c1.7-2.5,0.8-5.4,1-8.1c0.1-1.2-0.5-3.3,2.1-2c-2.2,3.1-0.6,6.6-1.1,9.9c-0.1,0.8,0,1.8-1.1,1.7
		C293.8,95.9,293.9,95.1,293.7,94.4z"/>
	<path class="st65" d="M155.8,85.4c-2.6,3.1-6,4.9-9.9,6.1C148,87.4,152.4,87.1,155.8,85.4z"/>
	<path class="st66" d="M76,261.4c0.6,0.3,1.2,0.6,1.9,1c0,0-0.1,0.2-0.1,0.2c0,0.3,0.1,0.5,0.1,0.8c-0.4,0.7-0.8,1.4-1.2,2.1
		C75.1,264.3,75.9,262.8,76,261.4z"/>
	<path class="st67" d="M301.8,127.5c0.8,1.2,1.8,2.3,2.2,3.7c0.9,2.5,2.5,3,4.8,2.5c1.2,0.9,3.7,1.2,0.3,3.2
		c-21,12.3-42,24.8-62.9,37.4c-15.5,9.3-30.6,19.2-46.3,28.2c-13.6,7.9-27,16.1-40.5,24.1c-1.3,0.8-3.9,1-3.1,3.1
		c0.6,1.7,2.6,0.2,4,0.1c7-0.5,14,0.7,20.6,2.5c24.7,6.8,44,21.6,60.4,41c5.7,6.7,10.7,13.9,15.8,21c0.9,1.3,1.7,2.4,1.6,4
		c-10.2-5.7-18.7-13.9-28.6-20c-12.3-7.6-24.3-15.7-37.2-22.4c-10.6-5.4-21.4-10.1-32.2-15c-3.9-1.8-8.1-2.8-12.2-4.1
		c-5.1-1.6-9.9-3.6-13.7-7.5c-1-1.4-2.2-2.6-4-3.2c1-0.6,1.9-1.2,2.9-1.7c0.6-0.4,1.2-0.8,1.8-1.2c0.5,0.8,1.1,1.2,2.1,0.6
		c5.1-3,10.6-5.4,15.1-9.4c13.1-0.4,25.6-3.7,36.9-10.2c9.4-5.4,17.6-12.3,20.1-23.8c8.6-3.8,16.3-9.3,24.4-14
		c21.5-12.6,42.9-25.4,64.3-38.2C299.5,127.7,300.6,127.5,301.8,127.5z"/>
	<path class="st68" d="M274,210.7c9.5-4.7,18.6-9.2,27.5-13.7c6.4-3.2,12.7-6.5,19-10c2.4-1.3,4.5-1.2,7.1-0.5
		c13.7,3.8,23.9,12.6,32.8,23.1c0.2,0.3,0.5,0.5,0.7,0.7c1.9,2.6,6.7,4.4,5.8,7.3c-0.7,2.4-5.2,3.6-8.1,5.2
		c-12.9,7.2-25.9,14.1-38.7,21.5c-3.1,1.8-4.4,1.1-6.2-1.3c-6.8-9-14.4-17.3-23.8-23.9C285.3,215.9,279.9,213.8,274,210.7z"/>
	<path class="st69" d="M226.6,193.4c8.2-4.6,15.4-8.7,22.6-12.6c6-3.2,12.4-5.7,17.8-9.9c3.9-3,8.6-3,12.9-2.3
		c11.2,1.9,22.6,3.8,32.8,9.4c1.5,0.8,3.4,1.5,3.5,3.2c0,1.8-2.1,2.4-3.4,3.2c-14,7.6-28,15-42,22.6c-2.7,1.5-4.4,1.2-7-0.7
		C253.1,198.6,241.3,193.4,226.6,193.4z"/>
	<path class="st70" d="M185.7,215.1c4.5-3.5,8.3-3.6,12.9-3c17.4,2.3,33.4,8.2,47.9,17.8c10.6,7.1,20.8,14.7,28.2,25.5
		c1.7,2.5,3.7,4.7,5.6,7c1.3,1.6,1.9,2.8-0.3,4.5c-2,1.5-2.9,1-4.3-0.7c-7.1-9-14.5-17.7-23.6-24.8c-17.6-13.8-37.1-22.7-59.5-24.9
		C190.6,216.2,188.6,215.6,185.7,215.1z"/>
	<path class="st67" d="M304.7,151.4c3.9-3.8,7.8-4.4,11.8-3.8c34.2,4.9,61.6,21.2,81.7,49.4c1,1.4,4.4,3.3,1,5.7
		c-2.9,2.1-3.9-0.5-5.4-2.3c-12.3-15.2-26.2-28.5-44-37.1C335.9,156.4,321.1,152.4,304.7,151.4z"/>
	<path class="st67" d="M284.8,162.1c4.6-5.9,10.4-4.2,15.5-3.3c22.7,4.1,42.8,13.5,60.3,28.8c7.3,6.4,13.4,13.7,18.9,21.6
		c0.8,1.1,3.2,2.7,0.1,4.3c-2.1,1.1-3.5,1.1-5-1.1c-9-13.8-21.1-24.2-34.9-32.9c-16-10.1-33.4-16.1-52.4-17.1
		C286.7,162.4,286.1,162.3,284.8,162.1z"/>
	<path class="st70" d="M206,204.5c3.3-3.6,6.8-3.8,11.4-3.3c14.9,1.5,28.5,6.6,41.4,13.5c16.8,8.9,30.4,21.7,41.2,37.4
		c0.9,1.3,2.5,2.6,0.2,4.1c-2,1.4-3.6,1.2-5.1-0.8c-2.4-3-4.5-6.1-6.9-9.1c-12.4-14.9-27.8-25.4-45.4-33.1
		c-10.3-4.5-21.1-6.7-32.2-7.7C209.2,205.3,207.7,206,206,204.5z"/>
	<path class="st70" d="M97.7,203.6c-0.3-1.4-0.6-2.7-1-4.1c2.2-2.8,0.2-4-2-5c-3.8-1.7-7.3-1.3-10.7,1.1
		c-13.2-8.5-27.6-14.2-42-20.2c-3.2-2.3-7.4-3-10.5-5.2c-2.5-1.8-7.2-0.1-7.8-4.8c11.8,0.5,23.5-0.8,35.3,1
		c15.6,2.4,29.4,8.6,41.7,18.4c7.4,5.9,14.2,12.5,20.1,19.9c1,1.2,2,2.8,4,2.6c0,0,0.2,0.2,0.2,0.2c-1.6,2.5-5,4.1-4,7.9
		c-0.7,0.7-1.3,1.4-2,2.1c-1.3-0.8-2.7-1.5-4-2.3C109.1,211.4,103.4,207.5,97.7,203.6z"/>
	<path class="st71" d="M174.7,143.5c8.8,0.1,17.1,1.8,24.4,6.9c5.3,3.7,6.8,9.1,6.7,15.1c-0.6,10.4-7.8,16.6-15.3,22
		c-15.3,11-32.8,15.1-51.6,13.9c-1-1.2-2.5-0.6-3.7-1c-6.8-1.9-13.9-3.6-17.4-10.9c-4.7-5.9-3.6-11.8-0.1-17.8
		c1.4-2.4,2.7-4.8,4.1-7.2c2-1.3,3.7-2.9,4.9-5c4.5-2,8.5-4.7,12.1-8c2-0.7,4-1.3,6-2c6.1-2.7,12.5-4.7,19-6
		C167.4,143.5,171.1,143.5,174.7,143.5z M173.8,190.5c7.7-1.6,13.4-6.5,18.4-12.1c8.7-9.8,8.3-21.9-6.5-27.5
		c-9.8-3.7-19.7-3.1-29.3-0.3c-13.1,3.9-25.5,9.1-31.6,22.8c-1.7,5-2.1,9.9,1.9,14.1c4.5,6.2,11.3,7.7,18.3,8.4
		C155.1,197,164.8,195.4,173.8,190.5z"/>
	<path class="st72" d="M138.9,201.4c18.8,1.2,36.3-2.9,51.6-13.9c7.5-5.4,14.7-11.5,15.3-22c3.6-0.8,1.6,2.6,2.8,3.8
		c1.5,1.6,1.3,4,1.2,6.2c-2.2,6.7-5.6,12.8-11,17.2c-14.3,11.9-30.6,18.6-49.5,17.9c-2.7-0.1-4.3-0.8-5.4-3.1c-1-2.6-3-4.3-5.1-5.9
		L138.9,201.4z"/>
	<path class="st70" d="M143.2,101.4c3.8-3.5,8.3-4.5,13.1-3.8c16.3,2.4,32,6.8,46.6,14.9c14.9,8.3,26.7,20.2,37.4,33.2
		c1.2,1.4,1.5,2.7-0.7,4c-1.9,1.1-3,1.5-4.5-0.5c-14.6-20-34.3-33.1-57.2-41.4c-10.1-3.6-20.8-5.4-31.7-5.3
		C145.2,102.5,144.2,102.8,143.2,101.4z"/>
	<path class="st67" d="M192.1,74.7c17.9,1.1,34.9,6.5,50.6,15.5c13.7,7.9,25.1,18.5,34.8,30.9c0.9,1.2,4.2,2.6,1.2,5.1
		c-2.9,2.4-4.3,0.7-6-1.5c-19.1-24.2-43.8-39.1-74.3-44.3c-4.5-0.8-8.9-0.6-13.4-0.8c-1,0-2.2-0.1-2.5-1.1c-0.4-1.2,0.9-1.5,1.7-2
		C186.6,74.9,189.1,74.2,192.1,74.7z"/>
	<path class="st70" d="M163,90.1c5.2-5.4,11.3-4,16.6-3.2c9.3,1.3,18.6,3.2,27.4,6.8c19.4,7.9,35.8,20,49,36.3
		c1.2,1.4,2.4,2.7,3.5,4.2c1.1,1.5,1.2,2.8-0.7,4.1c-1.8,1.2-3,1.3-4.2-0.4c-7.8-11.7-18.5-20.3-30.1-27.9
		c-15.3-10-31.8-17-50.3-18.4C170.7,91.2,167.2,90.6,163,90.1z"/>
	<path class="st70" d="M123.1,113.3c8.5-6.1,16.8-3.5,25-2.1c15.7,2.8,30.1,9.1,43.3,17.9c11.2,7.5,20.7,17.1,29,27.8
		c1.1,1.4,2,3.2-0.4,4.6c-2,1.1-3,0.6-4.4-1.2c-16.6-21.5-38.1-35.5-64.2-42.8C142.3,114.9,133.1,114,123.1,113.3z"/>
	<path class="st73" d="M174.7,143.5c-3.6,0-7.3,0-10.9,0c-5.8-5.8-13.5-8.1-20.9-11c-12.3-4.7-24.9-7.6-39.1-6.9
		c3.5-3.6,6.6-5.5,10.9-5c21.4,2.4,41.3,9,59.2,21.2C174.4,142,174.5,142.9,174.7,143.5z"/>
	<path class="st74" d="M126.7,159.5c-1.2,2.1-2.9,3.7-4.9,5c-16.9-11.5-36-15.3-55.9-16.2c2.3-4,6.2-5,11.6-4.4
		C95,145.7,111.3,151.1,126.7,159.5z"/>
	<path class="st67" d="M144.8,149.5c-2,0.7-4,1.3-6,2c-7.8-5.5-16.9-8.1-25.8-11c-8.9-2.9-18.2-2.7-27.8-4.2
		c4.4-5.6,10.4-4.1,15.4-3.5c14.2,1.7,27.8,6,40.6,12.6C142.8,146.1,145.5,146.4,144.8,149.5z"/>
	<path class="st75" d="M143.9,207.5c1,2.4,2.7,3,5.4,3.1c19,0.7,35.3-6,49.5-17.9c5.3-4.4,8.8-10.5,11-17.2c0,1.7,0,3.3,0,5
		c-2.5,11.5-10.8,18.5-20.1,23.8c-11.3,6.5-23.8,9.8-36.9,10.2c-3.4,0-6.7,0.2-10-1.1C144,211.6,143.8,209.5,143.9,207.5z"/>
	<path class="st76" d="M117.8,189.5c3.5,7.2,10.6,8.9,17.4,10.9c1.2,0.3,2.7-0.2,3.7,1c0,0-0.1,0.1-0.1,0.1c-5.3-1.5-7.5,4.4-12,4.9
		c-0.6,0.4-1.3,0.8-1.9,1.2c0,0-0.2-0.2-0.2-0.2c-4.1-4.5-5.6-10.2-7.6-15.7C116.7,190.8,117,190.1,117.8,189.5z"/>
	<path class="st77" d="M23.6,165.5c0.6,4.7,5.3,3,7.8,4.8c3.1,2.2,7.2,2.8,10.5,5.2c-6.5-0.4-11.8-5.1-18.4-6c0,1.4,0.7,1.6,1.3,1.9
		c3.9,2.8,9,3.9,11.9,8.3c-6.7-3.8-13.3-7.5-20-11.3c1.6-0.9,4.3,0.3,4.5-3.2c0.1-2.1,2.8-1.6,4.5-1.7
		C25.1,164.2,24.4,164.8,23.6,165.5z"/>
	<path class="st78" d="M130.9,226.2c1.8,0.5,3,1.7,4,3.2c-2.9-0.8-5.7-1.5-7.2,2.1c-0.3-0.4-0.7-0.7-1-1.1
		C127.8,228.7,129.2,227.3,130.9,226.2z"/>
	<path class="st79" d="M130.9,226.2c-1.7,1.1-3.1,2.5-4.3,4.2c-1.4,1.3-3.6,1.8-3.9,4.1c-3.1,3.2-7.5,5-10,8.9
		c-3.3,0.2-6.1,0.4-8.3-3.3c-2-3.2-1.8-5.2,0.6-7.6c2.4-1,3.4-3.3,4.8-5.1c1.3-0.6,2.2-1.7,2.9-2.9c2.8-1.6,4.7-4.1,6.1-6.9
		c0.7-0.7,1.3-1.4,2-2.1c5.5-1.8,9.4,0.2,11.6,5.1c0.6,1.3-1.5,3.6,1.4,4C132.8,225.1,131.9,225.7,130.9,226.2z"/>
	<path class="st80" d="M96.8,240.5c0,0.6-0.1,1.3-0.1,1.9c-1.4,1.3-0.9,3.1-0.9,4.7c-0.1,7.1,0,14.2,0,21.3
		c-0.7,0.1-1.5,0.1-1.9,0.9c-0.4,0-0.7,0-1.1,0c-1.4-9.4-0.9-18.9-1-28.3c-0.1-4.3,0.2-8.5,1.8-13.5
		C94.8,232.4,95.8,236.5,96.8,240.5z"/>
	<path class="st81" d="M97.9,223.4c-2.1-1.6-4.1-3.2-6.2-4.8c-0.2-0.8-0.7-1.8-0.5-2.3c0.7-1.2,1.7-0.3,2.5,0.2
		c4.1,2.6,8.1,5.4,12.1,8c-0.8,1.7-3.1,2.5-3.1,4.7c-1.5-0.3-2-1.4-2-2.8C100.8,224.5,99.8,223.5,97.9,223.4z"/>
	<path class="st82" d="M102.7,229.2c0.1-2.2,2.4-2.9,3.1-4.7c2.1-0.2,3.7,0.4,4,2.8c-1.5,1.9-2.4,4.2-4.8,5.1
		C104.8,231,104.8,229.4,102.7,229.2z"/>
	<path class="st83" d="M112.8,243.4c2.5-3.9,6.9-5.7,10-8.9c0.2,1,2.8,1.1,1.1,2.9c-2.9-0.5-4.1,2.2-6.1,3.3
		C116.2,241.7,115,243.7,112.8,243.4z"/>
	<path class="st84" d="M75.9,246.4c-0.3,0.3-0.5,0.7-0.8,1c-0.5-6-0.5-11.9,0-17.9C76.7,235.1,75.3,240.8,75.9,246.4z"/>
	<path class="st85" d="M77.8,263.4c0-0.3,0-0.5-0.1-0.8c0.7-0.1,1,0.2,1.1,0.9C78.5,263.4,78.1,263.4,77.8,263.4z"/>
	<path class="st86" d="M79.9,264.4c-0.6,0-1-0.3-1.1-0.9C79.2,263.7,79.5,264,79.9,264.4z"/>
	<path class="st87" d="M91,314.4c-2.3-0.7-4.9,1.5-7-0.9c0.6-6.4,0.8-12.9,2.6-19.1c2-1.4,1-3.5,1.2-5.3c0.3-2.5-0.9-5.1,0.8-7.5
		c1.5,4.9,2.2,9.9,2.3,15C91,302.5,91,308.4,91,314.4z"/>
	<path class="st88" d="M81.6,323.3c0.1-0.3,0.1-0.6,0-1c1.2-1,1.2-2.5,1.4-3.8c1-0.2,2-0.3,2.9-0.7c1.5-0.6,2.5-0.2,3.3,1.2
		c1,1.8-0.4,2.3-1.4,3.1c-1.7,1.5-3.5,2.4-5.9,2.3C81.8,324.1,81.7,323.7,81.6,323.3z"/>
	<path class="st89" d="M91,314.4c0-6,0-11.9,0-17.9c0.5,0.3,1.5,0.6,1.5,1c0.2,6,1.2,12-0.4,17.9C91.7,315.1,91.3,314.7,91,314.4z"
		/>
	<path class="st90" d="M88.6,281.5c-1.7,2.3-0.5,5-0.8,7.5c-0.2,1.8,0.8,3.9-1.2,5.3c0.1-0.3,0-0.6-0.1-0.9c0.6-5.6,0.2-11.3,0-16.9
		c0.3-2.2,1.4-2.3,2-0.3C89.1,277.8,88.7,279.7,88.6,281.5z"/>
	<path class="st91" d="M86.6,276.5c0.2,5.6,0.6,11.3,0,16.9C85.3,287.8,85.3,282.1,86.6,276.5z"/>
	<path class="st92" d="M96.9,329.6c0-2,0-4,0-6c2,0.1,4.9-3.2,5.6,0.7C103.2,327.6,100.3,329.4,96.9,329.6z"/>
	<path class="st93" d="M81.6,323.3c0.1,0.4,0.2,0.8,0.2,1.1c-1.2,0-2.4,0.3-3.2-0.9C79.7,323.5,80.6,323.4,81.6,323.3z"/>
	<path class="st94" d="M406.6,132.6c5.3,3.7,9.1,8.3,9.1,15.2c0,3.1,0.5,6-3.3,7.9c-3.6,1.7-5.4-0.7-7.7-2.1c0-5.7,0-11.4,0.1-17.1
		C404.8,134.9,404.1,132.9,406.6,132.6z"/>
	<path class="st95" d="M406.6,132.6c-2.5,0.4-1.9,2.3-1.9,3.8c-0.1,5.7,0,11.4-0.1,17.1c-0.2,0-0.5,0-0.7,0
		c-0.1-7.3-0.2-14.6-0.3-21.9C404.9,131.3,405.9,131.4,406.6,132.6z"/>
	<path class="st96" d="M403.7,131.5c0.1,7.3,0.2,14.6,0.3,21.9c-2.1-1.2-1.4-3.3-1.2-4.9C403.2,142.9,401.5,137.1,403.7,131.5z"/>
	<path class="st97" d="M295.1,72.7c0.2-0.4-1.6-2.7,1.2-3c2.7-0.3,6.3,3.8,6.4,7.1c0.1,1.7-0.2,4.1-2.2,3.5
		C297.6,79.3,293.5,78.4,295.1,72.7z"/>
	<path class="st98" d="M352.9,121.6c-0.1-7.1-0.1-14.3-0.1-21.4c0-1.2-0.7-2.7,1-3.5c0,6.7,0,13.5-0.1,20.2
		C353.7,118.5,354.2,120.2,352.9,121.6z"/>
	<path class="st99" d="M235.6,28.6c0.1,7.3,0.1,14.6,0.2,21.9c0,0.8-0.1,1.7-1,2.1C235.2,44.6,233.8,36.5,235.6,28.6z"/>
	<path class="st100" d="M36.8,179.7c-2.9-4.3-8-5.5-11.9-8.3c-0.5-0.4-1.2-0.5-1.3-1.9c6.6,0.8,11.8,5.6,18.4,6
		c14.4,6,28.8,11.7,42,20.2c-2,2.6-1.6,5.9-2.4,8.9c-1.6,0.4-2.9-0.4-4.2-1.2C63.9,195.5,50.3,187.6,36.8,179.7z"/>
	<path class="st101" d="M97.7,203.6c5.7,3.9,11.5,7.7,17.2,11.6c1.2,1.9,1.4,3.4-0.4,5.4c-2,2.2-3.1,0.4-4.6-0.1
		c-1.4-0.5-2.7-1.2-4.2-1c-4.3-2.4-8.6-4.8-12.8-7.1C93,208.7,97.3,207.2,97.7,203.6z"/>
	<path class="st102" d="M92.9,212.4c4.3,2.4,8.6,4.8,12.8,7.1c2,2.1,5.4,2.3,7.1,4.9c-0.7,1.2-1.6,2.3-2.9,2.9c-0.3-2.4-1.9-3-4-2.8
		c-4-2.7-8.1-5.4-12.1-8c-0.7-0.5-1.8-1.4-2.5-0.2c-0.3,0.5,0.3,1.5,0.5,2.3c-0.6-0.1-1.2-0.2-1.9-0.3
		C90.3,216,88.2,212.5,92.9,212.4z"/>
	<path class="st103" d="M95.8,268.4c0-7.1,0-14.2,0-21.3c0-1.6-0.5-3.3,0.9-4.7c0,7.1,0.1,14.2,0,21.3
		C96.8,265.4,97.4,267.2,95.8,268.4z"/>
	<path class="st104" d="M133.8,224.5c-2.8-0.4-0.8-2.7-1.4-4c-2.1-4.9-6.1-6.9-11.6-5.1c-1-3.8,2.4-5.4,4-7.9
		c0.6-0.4,1.3-0.8,1.9-1.2c7-0.7,10.2,4,13.1,9.1c0.1,3.4-2.5,5.3-4.2,7.8C135,223.7,134.4,224.1,133.8,224.5z"/>
	<path class="st105" d="M135.6,223.3c1.7-2.4,4.4-4.4,4.2-7.8c1-0.7,2-1.4,3-2.1c3.2,1.3,6.6,1.1,10,1.1c-4.5,4.1-9.9,6.5-15.1,9.4
		C136.7,224.5,136.1,224,135.6,223.3z"/>
	<path class="st106" d="M112.8,224.4c-1.7-2.6-5.1-2.8-7.1-4.9c1.5-0.2,2.8,0.4,4.2,1c1.4,0.6,2.6,2.3,4.6,0.1
		c1.8-2,1.6-3.5,0.4-5.4c1.3,0.7,2.7,1.5,4,2.3C117.5,220.3,115.6,222.8,112.8,224.4z"/>
	<path class="st107" d="M126.7,187.6c-4-4.3-3.6-9.1-1.9-14.1c1.5,0.8,2.5,0.6,2.9-1.2c0.3-1.4,0.8-2.8,2-3.8c1,0,1.9-0.5,2.7-1.2
		c12.1-10.8,26.6-14.6,42.3-13.7c6.4,0.4,12.9,1.9,17,7.8c-19-6.3-36.7-3.3-52.9,8.1c-6,4.3-12,9.2-12.1,17.8L126.7,187.6z"/>
	<path class="st108" d="M129.8,168.5c-1.3,1-1.7,2.3-2,3.8c-0.4,1.8-1.5,2-2.9,1.2c6.1-13.7,18.5-18.9,31.6-22.8
		c9.7-2.9,19.5-3.4,29.3,0.3c14.8,5.6,15.2,17.8,6.5,27.5c-5,5.6-10.7,10.5-18.4,12.1c0-0.3,0-0.7,0-1c2.9-1.3,6.1-2.1,8-5
		c0.4-0.8,1.2-0.9,1.9-1c3.3-0.5,4.7-3.4,6.8-5.4c5.4-5.2,5.4-6.4,1.2-12.6c1-0.3,2.8,1.6,3-1c2.4-4.3-0.8-6.5-3.4-8.5
		c-7.1-5.7-15.7-6.1-24.2-5.3C152.6,151.9,139.5,156.8,129.8,168.5z"/>
	<path class="st109" d="M173.8,189.5c0,0.3,0,0.7,0,1c-9,4.9-18.7,6.4-28.8,5.5c-7-0.7-13.8-2.2-18.3-8.4c0,0,0.2-0.2,0.2-0.2
		c0.6-0.3,1.2-0.7,1.8-1c0.1,1.4,0.8,2.6,1.9,3.3c7.9,4.5,16.2,6.2,25.2,3.8c2.4,0,4.8,0.4,7-1C166.6,191.9,170.4,191.5,173.8,189.5
		z"/>
	<path class="st110" d="M142.8,213.4c-1,0.7-2,1.4-3,2.1c-2.9-5.1-6.1-9.9-13.1-9.1c4.5-0.4,6.8-6.3,12-4.9c2.1,1.6,4.1,3.4,5.1,5.9
		C143.8,209.5,144,211.6,142.8,213.4z"/>
	<path class="st111" d="M128.7,186.4c-0.6,0.3-1.2,0.7-1.8,1c0-8.6,6-13.5,12.1-17.8c16.1-11.4,33.9-14.4,52.9-8.1c1,1,2,2,3,3
		c-0.2,2.6-2,0.7-3,1c-2.3-2.1-5.1-2.8-8-3c-5.7-1.6-11.3-1.6-17,0l0,0c-3,0.7-6.2,0.5-9,2c-4.9,1.4-9.7,3.1-14,6
		c-2.3,1.7-4.7,3.3-7,5C133,178.3,130.2,181.8,128.7,186.4z"/>
	<path class="st112" d="M194.8,164.5c-1-1-2-2-3-3c-4.1-5.9-10.7-7.4-17-7.8c-15.8-0.9-30.2,2.9-42.3,13.7c-0.8,0.7-1.6,1.1-2.7,1.2
		c9.7-11.7,22.8-16.6,37.4-17.9c8.5-0.8,17-0.3,24.2,5.3C194,158,197.2,160.2,194.8,164.5z"/>
	<path class="st113" d="M143.8,170.5c4.3-2.9,9.1-4.6,14-6c1.7,0.8,3.2,1.7,4.5,3c4.9,5,10.1,9.6,14.2,15.3c1.5,2.2,3.1,2.5,5.3,1.6
		c-1.9,2.9-5.1,3.7-8,5c-3.4,2-7.2,2.4-11,3c-1.2-3.2-3.9-5.2-6.1-7.6C152.3,180.1,148.1,175.3,143.8,170.5z"/>
	<path class="st114" d="M183.8,162.5c2.9,0.3,5.8,0.9,8,3c4.2,6.2,4.1,7.4-1.2,12.6c-2.1,2-3.5,4.9-6.8,5.4c0.1-1.9-1.6-2.8-2.5-4.1
		c-4.2-6.1-9.6-11.4-14.5-16.9c0,0,0,0,0,0C172.4,162.5,178.1,162.5,183.8,162.5z"/>
	<path class="st115" d="M166.8,162.5c4.9,5.6,10.2,10.8,14.5,16.9c0.9,1.3,2.6,2.2,2.5,4.1c-0.8,0-1.5,0.2-1.9,1
		c-2.2,0.9-3.8,0.5-5.3-1.6c-4-5.7-9.3-10.4-14.2-15.3c-1.3-1.3-2.9-2.2-4.5-3C160.6,163,163.8,163.2,166.8,162.5z"/>
	<path class="st116" d="M128.7,186.4c1.5-4.6,4.3-8.1,8.1-10.9c8,4.3,14,10.6,19,18c-8.9,2.4-17.3,0.8-25.2-3.8
		C129.5,189,128.8,187.8,128.7,186.4z"/>
	<path class="st117" d="M155.8,193.5c-5-7.4-11.1-13.7-19-18c2.3-1.7,4.7-3.3,7-5c4.3,4.8,8.6,9.6,12.9,14.4
		c2.2,2.4,4.9,4.4,6.1,7.6C160.6,193.9,158.2,193.4,155.8,193.5z"/>
	<path class="st118" d="M183.8,162.5c-5.7,0-11.3,0-17,0C172.4,160.9,178.1,160.9,183.8,162.5z"/>
</g>
</svg>
