<?xml version="1.0" encoding="utf-8"?>
<!-- Generator: Adobe Illustrator 27.1.0, SVG Export Plug-In . SVG Version: 6.00 Build 0)  -->
<svg version="1.1" id="Layer_1" xmlns="http://www.w3.org/2000/svg" xmlns:xlink="http://www.w3.org/1999/xlink" x="0px" y="0px"
	 viewBox="0 0 828 410" style="enable-background:new 0 0 828 410;" xml:space="preserve">
<style type="text/css">
	.st0{fill:#44D5F4;}
	.st1{fill:#FD336B;}
	.st2{fill:#DCE5F7;}
	.st3{fill:#240348;}
	.st4{fill:#FFFFFE;}
	.st5{fill:#FEFEFD;}
	.st6{fill:#FBCB6C;}
	.st7{fill:#FCCC6C;}
	.st8{fill:#DBE4F7;}
	.st9{fill:#DCE4F7;}
	.st10{fill:#FCCB6C;}
	.st11{fill:#533667;}
	.st12{fill:#FC346C;}
	.st13{fill:#FC346B;}
	.st14{fill:#FD346B;}
	.st15{fill:#FC336B;}
	.st16{fill:#4F386F;}
	.st17{fill:#FEFDFD;}
	.st18{fill:#44D5F3;}
	.st19{fill:#FAC96C;}
	.st20{fill:#FB346C;}
	.st21{fill:#EBEEFA;}
	.st22{fill:#45D4F4;}
	.st23{fill:#45D5F4;}
	.st24{fill:#240649;}
	.st25{fill:#ED3F75;}
	.st26{fill:#FDFCFC;}
	.st27{fill:#FB336B;}
	.st28{fill:#503970;}
	.st29{fill:#240548;}
	.st30{fill:#FBCB6D;}
	.st31{fill:#FC366B;}
	.st32{fill:#FC366C;}
	.st33{fill:#220447;}
	.st34{fill:#FBCC6D;}
	.st35{fill:#FCFAFA;}
	.st36{fill:#240547;}
	.st37{fill:#220446;}
	.st38{fill:#20296D;}
	.st39{fill:#3E0D4C;}
	.st40{fill:#42D6F4;}
	.st41{fill:#DCE5F6;}
	.st42{fill:#240E4D;}
	.st43{fill:#FACB6C;}
	.st44{fill:#43D7F4;}
	.st45{fill:#4F376F;}
	.st46{fill:#FCECEE;}
	.st47{fill:#FC2362;}
	.st48{fill:#F94379;}
	.st49{fill:#300948;}
	.st50{fill:#BECC99;}
	.st51{fill:#FA3270;}
	.st52{fill:#F8C9D8;}
	.st53{fill:#FB346B;}
	.st54{fill:#FB3469;}
	.st55{fill:#FB4472;}
	.st56{fill:#FB3569;}
	.st57{fill:#46D5F2;}
	.st58{fill:#EEF2FE;}
	.st59{fill:#FBCB6E;}
	.st60{fill:#FACE72;}
	.st61{fill:#F9CB6D;}
	.st62{fill:#FBCD72;}
	.st63{fill:#45D6F2;}
	.st64{fill:#FCEFD1;}
	.st65{fill:#FACB6D;}
	.st66{fill:#2E1249;}
	.st67{fill:#FBCC6C;}
	.st68{fill:#F9477A;}
	.st69{fill:#4AD6F3;}
	.st70{fill:#FBCD70;}
	.st71{fill:#46D4F2;}
	.st72{fill:#F9CC6D;}
	.st73{fill:#2A154E;}
	.st74{fill:#FC96B4;}
	.st75{fill:#2E1348;}
	.st76{fill:#240948;}
	.st77{fill:#2A1A4C;}
	.st78{fill:#250848;}
	.st79{fill:#F9487C;}
	.st80{fill:#221043;}
	.st81{fill:#FB457A;}
	.st82{fill:#F2F8FA;}
	.st83{fill:#200644;}
	.st84{fill:#4C0A49;}
	.st85{fill:#1F0341;}
	.st86{fill:#2D1348;}
	.st87{fill:#2E1F50;}
	.st88{fill:#230B48;}
	.st89{fill:#2D1B4F;}
	.st90{fill:#29184F;}
	.st91{fill:#27184D;}
	.st92{fill:#200744;}
	.st93{fill:#2A174D;}
	.st94{fill:#2E1C4C;}
	.st95{fill:#FE5F8B;}
	.st96{fill:#FE7199;}
	.st97{fill:#FC2F6A;}
	.st98{fill:#29154A;}
	.st99{fill:#2C1247;}
	.st100{fill:#2D1F4D;}
	.st101{fill:#FB3C72;}
	.st102{fill:#F4EBF2;}
	.st103{fill:#F93874;}
	.st104{fill:#27134B;}
	.st105{fill:#2F194D;}
	.st106{fill:#FEF7E6;}
	.st107{fill:#745453;}
	.st108{fill:#8E7FA5;}
	.st109{fill:#564577;}
	.st110{fill:#281546;}
	.st111{fill:#F3CD72;}
	.st112{fill:#FEEAC6;}
	.st113{fill:#554673;}
	.st114{fill:#291B49;}
	.st115{fill:#2C1C4F;}
	.st116{fill:#705257;}
	.st117{fill:#FCA4B2;}
	.st118{fill:#325385;}
	.st119{fill:#B274A8;}
	.st120{fill:#B079AB;}
	.st121{fill:#FC7A9F;}
	.st122{fill:#FC8BAB;}
	.st123{fill:#AEEDFB;}
	.st124{fill:#BEEEFB;}
	.st125{fill:#2A1852;}
	.st126{fill:#67517E;}
	.st127{fill:#C5B3CF;}
	.st128{fill:#9E8CAD;}
	.st129{fill:#5A4474;}
	.st130{fill:#B8ABD1;}
	.st131{fill:#9F94A9;}
	.st132{fill:#9889BB;}
	.st133{fill:#A094B4;}
	.st134{fill:#C9C1D1;}
	.st135{fill:#9C86A0;}
	.st136{fill:#827395;}
	.st137{fill:#BDB1CD;}
	.st138{fill:#6A5A91;}
	.st139{fill:#AFA3C8;}
	.st140{fill:#A290A9;}
	.st141{fill:#8A7CA1;}
	.st142{fill:#C0AEDF;}
	.st143{fill:#A195B2;}
	.st144{fill:#635488;}
	.st145{fill:#9383AB;}
	.st146{fill:#FFFFFF;}
	.st147{fill:#240445;}
	.st148{fill:#FDFEFE;}
	.st149{fill:#51CBEE;}
	.st150{fill:#FFFEFE;}
	.st151{fill:#F04179;}
	.st152{fill:#3AD3F3;}
	.st153{fill:#55C3E5;}
	.st154{fill:#50CBEB;}
	.st155{fill:#3AD2F2;}
	.st156{fill:#8FE4FA;}
	.st157{fill:#FEFEFC;}
	.st158{fill:#F7FEFD;}
	.st159{fill:#FBFDFE;}
	.st160{fill:#241451;}
	.st161{fill:#3690BE;}
	.st162{fill:#21013B;}
	.st163{fill:#3FAFD6;}
	.st164{fill:#9FECF7;}
	.st165{fill:#79E0F6;}
	.st166{fill:#241753;}
	.st167{fill:#A09ABC;}
	.st168{fill:#BCBADD;}
	.st169{fill:#B9F0FA;}
	.st170{fill:#C4F1F9;}
	.st171{fill:#D2F2FD;}
	.st172{fill:#5FD9F4;}
	.st173{fill:#66DCF6;}
	.st174{fill:#EDFAFD;}
	.st175{fill:#EBF9FC;}
	.st176{fill:#FCFCFD;}
	.st177{fill:#30084A;}
	.st178{fill:#8EE5F6;}
	.st179{fill:#FBFDFD;}
	.st180{fill:#FBFCFE;}
	.st181{fill:#FAFCFB;}
	.st182{fill:#F8FEFC;}
	.st183{fill:#F8FDFD;}
	.st184{fill:#F7FCFB;}
	.st185{fill:#BFEEFC;}
	.st186{fill:#7C6F95;}
	.st187{fill:#CFF4FC;}
	.st188{fill:#A7ECFD;}
	.st189{fill:#305B8C;}
	.st190{fill:#CBF1FD;}
	.st191{fill:#A9ECFB;}
	.st192{fill:#C2EDFB;}
	.st193{fill:#96E8F9;}
	.st194{fill:#250449;}
	.st195{fill:#340948;}
	.st196{fill:#240347;}
	.st197{fill:#FAFBFB;}
	.st198{fill:#FACB6E;}
	.st199{fill:#F9FCF9;}
	.st200{fill:#F8FBFA;}
	.st201{fill:#FAFCFC;}
	.st202{fill:#FA316B;}
	.st203{fill:#E32F6B;}
	.st204{fill:#E8E3EA;}
	.st205{fill:#2E5084;}
	.st206{fill:#F8336C;}
	.st207{fill:#200E47;}
	.st208{fill:#231246;}
	.st209{fill:#221347;}
	.st210{fill:#8B7FA5;}
	.st211{fill:#FDFDFD;}
	.st212{fill:#6D658F;}
	.st213{fill:#39235D;}
	.st214{fill:#2C1A4E;}
	.st215{fill:#291D4C;}
	.st216{fill:#C3BAD0;}
	.st217{fill:#B6A6C3;}
	.st218{fill:#230347;}
	.st219{fill:#20296C;}
	.st220{fill:#3A1552;}
	.st221{fill:#39A5C9;}
	.st222{fill:#F5FBFA;}
	.st223{fill:#210949;}
	.st224{fill:#E9F6F2;}
	.st225{fill:#33CFF3;}
	.st226{fill:#232F71;}
	.st227{fill:#4E1954;}
	.st228{fill:#FBF4F6;}
	.st229{fill:#FBF6F9;}
	.st230{fill:#F5F2F5;}
	.st231{fill:#FBCA6C;}
	.st232{fill:#32528A;}
	.st233{fill:#776489;}
	.st234{fill:#FA346B;}
	.st235{fill:#150038;}
	.st236{fill:#44D6F4;}
	.st237{fill:#F7C3D5;}
	.st238{fill:#FDFEFD;}
	.st239{fill:#FAD171;}
	.st240{fill:#F9F6FA;}
	.st241{fill:#CF2C65;}
	.st242{fill:#31084A;}
	.st243{fill:#DDE5F7;}
	.st244{fill:#41B5D6;}
	.st245{fill:#B3235E;}
	.st246{fill:#170043;}
	.st247{fill:#FA336B;}
	.st248{fill:#49E0FE;}
	.st249{fill:#419AC6;}
	.st250{fill:#45D5F5;}
</style>
<g>
	<path class="st0" d="M486.5,139.9c4.3,0.1,8.6,0.1,12.9,0.2c0.1,5,0.2,9.9,0.2,14.9c0.1,2.4-1.1,5,0.9,7.2c-2,4.5-0.7,9.2-0.9,13.8
		c0,21,0.1,42.1,0.1,63.1c-1.1,7.3-1.8,14.7-4,21.8c-2.6,11-8.5,20.5-14.4,30c-6,7.3-12.9,13.7-19.9,20c-1.6,0.5-2.9,1.2-4.4,2.1
		c-13.3,8.4-27.6,14.2-43.5,15.1c-5.4,0-10.7,0-16.1,0c-8.6,0.2-16.7-2.5-24.7-5.3c-8.4-2.9-15.8-7.7-23.3-12.2
		c-6.6-6-13.3-12-19-18.9c-0.1-0.6,0-1.2-0.7-1.5c-1.5-1.8-2.9-3.7-4.4-5.5c-4.1-8.6-8.8-16.9-11-26.3c-1.6-6.4-3-12.8-3-19.4
		c0.1-20.3,0.2-40.6,0.2-60.9c0-0.8-0.1-1.7-1-2.1c0,0,0-0.1,0-0.1c0-3.4,0.1-6.7,0.1-10.1c1.1-0.8,0.7-1.9,0.5-2.9
		c0-0.3,0.1-0.7,0.1-1c0.1-7.3,0.3-14.6,0.4-21.9c4-0.1,7.9-0.1,11.9-0.2c0.4,0.1,0.7,0.2,1.1,0.3c1.6,1.4,3.5,0.8,5.3,0.8
		c50.5,0,100.9,0,151.4,0c1.7,0,3.7,0.7,5.2-0.9L486.5,139.9z M393.3,274c-0.7-1.2-2.2-1.1-2.4-0.3c-0.9,3.7-0.8,7.6-0.1,11.3
		c0.2,1.2,1.8,1.3,2.5-0.2C393.4,281.3,393.4,277.7,393.3,274z M445.4,285.8c2.2-3.6,0.9-7.5,0.9-11.2c0-1.5-1.4-2-2.7-0.5
		c-0.1,3.1-0.1,6.2-0.1,9.2C443.5,284.6,443.4,286,445.4,285.8z M402.6,274c-0.1,3.1-0.1,6.1-0.2,9.2c0,1.4,0,2.7,2,2.6
		c2.2-3.6,0.9-7.5,0.9-11.3C405.3,273,403.8,272.5,402.6,274z M381.4,274.1c-1.2-1.7-2.7-1.1-2.7,0.4c0,3.8-1.4,7.8,0.9,11.4
		c2,0.2,1.8-1.3,1.8-2.6C381.5,280.2,381.4,277.1,381.4,274.1z M373.7,285.8c2,0.1,1.8-1.4,1.8-2.7c0-3.1,0-6.1,0-9.2
		c-1.2-1.5-2.8-1.1-2.8,0.5C372.8,278.2,371.3,282.2,373.7,285.8z M369.4,285.8c2.4-3.5,0.6-7.3,1-11c0.1-1.1-0.7-1.8-1.9-1.8
		c-1.2,0-2,0.7-1.9,1.8c0.4,3.6-1.3,7.5,1,10.9C368.2,285.8,368.8,285.8,369.4,285.8z M410.4,285.8c2.3-3.6,1.1-7.6,0.8-11.4
		c-0.1-2-2.2-2.1-3.6-0.4c0,3.1,0,6.1-0.1,9.2C407.4,285.4,408.3,286.2,410.4,285.8z M387.3,300.9c1.3-0.6,1.2-1.8,1.2-3
		c0-11.9,0-23.9,0-35.8c0-1.2,0.1-2.4-1.2-3c-0.6,0-1.1,0.1-1.7,0.1c-0.3,0.3-0.9,0.7-0.9,1c-0.1,12.7-0.1,25.4-0.2,38.2
		C384.5,300.3,385.5,301,387.3,300.9z M428.3,300.9c1.5-0.8,1.1-2.3,1.1-3.5c0-11.6,0-23.2,0-34.7c0-1.3,0.3-2.7-1-3.6
		c-0.7,0-1.3,0-2,0c-0.3,0-0.7,0-1,0c-1.8-1.9-0.6-4.3-1-6.5c-0.2-1.1,0.1-3.1-2.1-1.5c-0.6,0-1.2,0.1-1.7,0.1
		c-1.9,0.8-0.9,2.6-1.3,3.8c-1.5,0.9-0.3,3.1-1.8,4c-0.4,0-0.7,0-1.1,0.1c-0.6,0-1.2,0-1.9,0c-0.3,0.4-0.9,0.7-0.9,1.1
		c-0.1,12.8-0.1,25.5-0.2,38.3c0,2.8,1.9,2.6,3.8,2.5c0.7,1,1.4,2,2.1,3c0.4,1.3-0.5,3,1.2,3.9c0.6,0,1.2,0,1.8,0c0.4,0,0.7,0,1.1,0
		c0.1,0.1,0.3,0.2,0.4,0.2c0.1,0,0.3-0.1,0.4-0.2c0.9-2.3-1-5.1,1.5-7.1C426.6,300.9,427.5,300.9,428.3,300.9z M427.5,163.1
		c-1.1-1.5-2.7-1-4.1-1c-21.7,0-43.4,0-65.1,0c-1.3,0-2.7-0.2-3.8,0.8c-0.3,0.1-0.6,0.2-1,0.3c-13.7,2.8-21.5,15.6-16.1,26.8
		c0.1,0.7,0.2,1.3,0.3,2c-0.1,0.3-0.2,0.6-0.2,1c-1.2,0.5-0.9,1.6-0.9,2.6c-0.2,8.2,7.2,16.3,17,18.3c1.3,0.1,2.7,0.2,4,0.4
		c1.2,1.2,2.8,0.8,4.3,0.8c29.1,0,58.3,0,87.4,0c1.5,0,3,0.4,4.3-0.8c1.6-0.7,3.7,0.7,5.1-1.1c10.4-2.1,15.3-9.2,14.7-21
		c0-0.9,0.1-1.9,0.1-2.8c2.3-2,1-4.7,1-7c-0.4-14.8-15-22.8-30-17.8c2.8,1.1,5.2,0.7,7.6,0.6c4.3-0.1,8.5,0,12.5,2.3
		c6.1,3.6,10.2,12.7,8,18.8c-3.4-7.2-9.3-10.8-16.9-12.2c-1.4-1.4-3.1-0.9-4.8-0.9c-30.2,0-60.3,0-90.5,0c-1.6,0-3.4-0.5-4.8,0.9
		c-8.2,0.7-13.9,5-17.8,12c-2.1-9.5,6.6-20.5,15.6-21.1c23.7,0,47.4,0.1,71,0.1c1.1,0,2.4,0.2,3.1-1
		C427.5,163.7,427.5,163.4,427.5,163.1z M432.5,259c-0.2,0.2-0.7,0.4-0.7,0.6c-0.1,13-0.2,26.1-0.2,39.1c0,1.9,0.8,3.1,2.7,1.2
		c0.1-12.8,0.2-25.5,0.3-38.3C434.5,260.2,434.5,258.8,432.5,259z M387.7,244.7c12.2,0,23.5,0,35.6,0c-5.7-6.8-11-13.1-16.3-19.4
		c-1.3-1.5-2.1-1-3.1,0.2C398.7,231.7,393.4,237.9,387.7,244.7z M440.6,280c-0.9-1.9,1.3-5.5-1.8-5.6c-2.6,0-1.2,3.6-1.2,5.4
		c0,2-1.5,5.6,1.5,5.7C441.7,285.5,439.8,281.9,440.6,280z M396.5,280.1c0.8,1.6-1.5,5.4,1.5,5.4c2.9,0,0.9-3.8,1.5-5.8
		c0.1-0.3,0.1-0.7,0-1c-0.4-1.6,1.1-4.4-1.5-4.4c-2.6,0-1.1,2.9-1.5,4.4C396.4,279,396.5,279.4,396.5,280.1z"/>
	<path class="st1" d="M409.6,62.2c8.1-3.6,16-3.9,23.8,0.9c1.4,0.9,3.2,1.8,3.7,3.2c2,5.2,6.1,4.9,10.5,4.8
		c9.5-0.1,18.1,8.5,17.9,18c-0.1,4,0.6,6.5,4.7,8.3c5.1,2.3,8.6,6.5,9.3,12.5c-7.8,0.5-12.3,4.1-13,10.3c-0.6,5.6,2.9,10.7,8.4,12.4
		c3.5,1.1,6.4-0.3,9.5-1.5c1.3,2.5,2.6,5,2,7.9c-54.2,0-108.5,0-162.7,0c-0.2-3.7,1.1-7.6,3.5-9.7c4.8-4.1,3.8-8.5,2.5-13.3
		c2.9-0.5,5.9,0.7,8.8-0.5c7.4-3.1,8.7-11.2,2.9-18.6c3-1.5,3.6-3.9,2.9-6.9c1.7-8.4,5.4-15.4,14.1-18.5c0.6-0.2,1.3-0.7,1.9-0.5
		c7.4,2,11.9-2.2,16.1-7.3c2.8-3.4,7.1-3.7,11-4.7c0,1.6-0.1,3.3,0.1,4.9c0.6,5.1,6.4,10.3,11.1,10.1c5.9-0.3,10.1-4.2,10.7-10
		C409.5,63.4,409.5,62.8,409.6,62.2z M433.3,83c-5.1,0-6.9,1.6-6.8,6.1c0.1,3.5,2,5.9,5.4,6c5.2,0.2,7.8-2,7.7-6.1
		C439.6,84.9,437.7,82.5,433.3,83z M389.3,99c-4.5,0-6.9,2.1-7,6.4c-0.1,4,3,7.6,6.8,7.7c4.6,0.1,7.4-2.5,7.4-7.2
		C396.6,100.6,394.9,99.1,389.3,99z"/>
	<path class="st2" d="M545.5,130c-0.1-9.4,3.3-17.5,9.2-24.6c5.4-6.4,13.2-6.7,19.7-1c2.7,2.4,5.2,5.1,7.8,7.8
		c4.5,4.6,9.7,8.3,16.2,5.5c6.5-2.7,7.6-9.2,8-15.4c0.6-8.4,1.9-16.6,5.1-24.6c5.4-13.6,22-13.5,30.3-2.7c5.9,7.7,9.6,16.2,9.8,26.1
		c0.1,3.2,0.8,6.6,1.9,9.7c1.5,4.3,4,4.5,6.7,0.8c2.7-3.6,5.4-7.1,10-8.6c5.9-1.8,10.6,0.6,12.2,6.6c0.8,3,1.4,6.1,2,9.2
		c0.6,3.1,2.4,5,5.6,5.3c3.2,0.3,5.3-0.8,6.8-3.7c3.2-6.3,2.6-13.2,3.5-19.9c0.5-3.5,1-6.9,2.4-10.1c0.9-1.9,1.9-3.5,4.4-3.3
		c2.4,0.2,3.6,1.6,4.4,3.5c2.4,5.5,3.2,11.5,3.8,17.4c0.5,4.3,0.7,8.8,2.9,12.5c3.8,6.5,5.9,7,10.8,3.4c3.9-2.9,5.6-2.2,7.2,2.5
		c0.5,1.2,0.7,2.5,1.1,3.8C673.4,130,609.5,130,545.5,130z"/>
	<path class="st0" d="M649.4,300.7c0.7-6.3,1.3-12.6,2.9-18.8c1.5-6-0.9-11.9-1-17.9c0.5-1.2-0.4-1.9-0.9-2.9
		c0.6-1.7-0.8-3.8,2.2-4.8c9.4-3.3,12.7-10.2,10.7-19.8c-0.1-0.5-0.1-1-0.1-1.5c1.4-1.5,2.9-2.7,5-3.1c0,0.7,0,1.4,0,2.2
		c-4.9,2.3-2.1,6.7-2.8,10.1c-0.7,3.7,1.1,4.6,4.7,4.9c5.3,0.4,7.1-1.4,6.2-6.5c-0.3-1.6-0.1-3.3-0.2-4.9c0.5-1.6,0.9-3.2,1.4-4.8
		c3.1-0.3,6.7-2.9,8.7,1.9c-0.8,0-1.7,0.2-2.5,0.1c-4.1-0.5-5.2,1-5.6,5.2c-0.5,6.4,1.1,10.7,7.6,12.7c2.5,0.7,4.3,2.1,2.7,5.4
		c-0.8,1.5-0.2,3.3,2.1,3.5c2.5,3,3.2,6.8,4.1,10.4c-0.6,4.4-0.4,8.7,0.8,13.1c1.4,5,2,10.3,2.9,15.4c-2.9,0-5.9,0-9,0
		c0.5,2.8,0.8,5.1,1.3,7.2c2.1,9,2.1,9,11.4,9c3.4,16.2,6.8,32.4,10.2,48.6c0.2,1.1,0.3,2.3,1.4,3.1c3.3,2.4,1.5,4.3-0.5,6.3
		c-2.6,0-5.2,0-7.7,0.1c-3.7-1.9-7.6-0.6-11.5-0.8c-3.7-0.4-6.4-0.8-3.2-5.7c1.1-1.7-0.3-5.4-0.9-8c-4.5-19-7.9-38.3-11.9-57.4
		c-0.9-4.3-2.6-8.5-2.7-12.9c0-1.2-0.5-2.7-1.7-2.7c-2.1-0.1-1.8,2.3-2.1,3.4c-1.3,6.8-2.1,13.7-3.2,20.5
		c-2.6,15.9-5.5,31.7-7.8,47.6c-0.5,3.8-1.8,7.7-0.4,11.8c0.8,2.1-0.3,3.5-2.7,3.6c-4.1,0.1-8.3-1.1-12.3,0.7
		c-2.6,0-5.2,0.1-7.8,0.1c-1.9-2.2-2.8-3.4-0.1-6.8c2.6-3.3,2.4-8.9,2.9-13.5c1.2-11.5,4.6-22.7,5.1-34.4c0-1.1,0.7-2.2,1-3.2
		c1.6-0.1,3.3-0.1,4.9-0.2c3.1-0.2,4.8-1.6,4-4.9c1-0.3,0.9-1.2,1.1-2C658.1,301.2,658.1,301.2,649.4,300.7z M668.7,266.8
		c1.8,1.8,3.5,1.5,5.1-0.3c3,2.4,6,1.5,8.4-0.8c2.1-2,1.9-5,0.4-7.3c-2.1-3.1-5.1-3.2-8.2-1.3c-1.7-2-3.7-2.2-5.9-1
		c-4-0.9-6.8,0.9-8.7,4.2c-1.2,2.1,0.2,3.7,1.6,5.3C663.6,268,665.9,268.9,668.7,266.8z"/>
	<path class="st2" d="M344.3,90c0.7,3,0.1,5.4-2.9,6.9c-11.7-3-16-0.8-18.1,9.2c-2.1-0.6-4.1-1.2-6.2-1.7
		c-10.6-2.4-23.5,2.8-29.1,11.9c-5.8,9.4-6.4,19.2-1.6,29c4.9,9.7,13.1,14.7,24.1,14.7c0,0.7,0,1.3,0,2c-15.9,0-31.9,0-47.8,0
		c-0.1-0.6-0.2-1.3-0.3-1.9c-3.4-2.5-7.3-0.2-10.9-1.2c-2.9-3.2-3.8-6,1-8.5c2.6-1.3,4.9-3.4,7.4-5c1.5-0.9,2.8-1.8,2.5-3.9
		c-0.3-2.1-1.9-2.4-3.7-2.7c-3.4-0.6-6.8-1.5-10.2-1.8c-3.7-0.3-4.3-1.9-3.5-5.3c1.7-8.2,3.2-16.5,4.5-24.9c0.4-2.4,1.2-3.1,3.5-2.7
		c3.7,0.7,7.5,1.1,11.2,1.9c1.9,0.4,3.8,1.5,5.2-1c1.3-2.3,1.3-4.4-0.2-6.5c-2-2.9-4-5.7-6.1-8.5c-1.5-2-1.4-3.4,0.8-4.9
		c7.3-4.9,14.6-9.8,21.8-14.8c2.1-1.4,3.4-1.2,4.8,1.1c1.8,3.1,4.1,6,6,9.1c1.2,2,2.8,2.7,5,2.4c2.3-0.4,2.6-2.2,3-4.1
		c0.6-2.9,1.8-5.8,1.8-8.7c0-4.5,1.6-5.3,5.8-4.2c7.9,1.9,15.8,3.5,23.8,4.8c3,0.5,4.1,1.2,3.1,4.4c-0.9,2.8-0.8,5.9-1.7,8.7
		c-0.8,2.7-0.8,4.6,1.3,6.7C341.1,93.2,342.4,89.8,344.3,90z"/>
	<path class="st3" d="M140.7,367.9c1.3-9.8,2.6-19.6,3.9-29.4c1.2-9,2.7-18,3.6-27c0.4-4.5,2.2-8.9,1.3-13.6
		c0.5-0.6,1.1-1.2,1.6-1.9c2.6-3.5,7.2-5.3,8.6-9.8c1.7-5.4-3.7-7.9-5-12c1-0.1,2-0.3,3.1-0.4c2,0.6,4-2.7,6,0c-0.5,0.6-2.9,1-0.6,2
		c4.2,1.9,8.7,1.1,13.1,0.8c1.1-0.1,1.7-1.4,1.4-2.7c2-2.6,2.7,1.5,4.3,0.8c4.1,0.8,4.2,6,7.8,7.3c1.3,9.9,2.6,19.7,3.9,29.6
		c1.1,9.1,2.1,18.1,3.2,27.2c1.2,9.7,2.5,19.4,3.8,29c-5.6,0.6-11.4-0.8-16.9,0.8c-0.6,0.1-1.2,0.2-1.8,0.2
		c-4.2-18.2-8.5-36.4-11.3-55c-1.6-6-0.7-12.7-4.8-17.9c2.4,5.4,1.2,11.4,2.9,16.8c-1.6,7.9-3.2,15.9-4.8,23.8
		c-2.1,10.4-4.1,20.8-6.2,31.2c-5.3,0.1-10.7,0.1-16,0.2C141.2,368,140.9,367.9,140.7,367.9z M177.8,287.1c-1.5,2.6-1.8,6.8-6.2,5.4
		c-3.2-1-4-3.9-4.2-7.2c-0.1-1.3,1.7-3,0.7-3.1c-2.8-0.3-1.2,2.3-1.6,3.7c-0.2,0.8-0.1,1.7,0,2.5c0.5,3.8,3,6.6,6.5,6.2
		C176.4,294.3,179.2,291.7,177.8,287.1z"/>
	<path class="st4" d="M569.5,212.9c-0.5-0.7-1-1.3-1.5-2c-3.9-5-3.9-5,1.4-8.9c1.7-1.2,4.8-1.2,3.9-4.5c-0.8-3-3-3.9-5.9-3.7
		c-2,0.2-3.9,0.1-5.9,0.2c0-0.4,0-0.7,0-1.1c1.1-0.6,1.6-1.3,0-1.9c0.7-5.4,1.4-10.8,2-16.2c3.1,0,5.9,1.6,9.1,1.2
		c1.7-0.2,2.6-0.6,3.4-2.1c0.9-1.7-0.5-2.4-1.3-3.3c-0.6-0.7-1.5-1.3-2.2-1.9c-2.3-2.9-1.8-5.4,0.9-7.7c2.6-2.1,5.1-4.1,7.7-6.2
		c2.6-2.1,4.6-2,6.4,1.1c0.9,1.5,2.4,2.7,3.6,4.1c0.8,0,1.6,0,2.4,0c2.5-0.4,1.7-2.3,1.9-3.9c0.3-5.8,4-6.9,8.9-6.2
		c3.4,0.8,7.1,0,10.2,2.3c0,1.3,0,2.6,0,3.8c-0.6,1.5,1.3,2.4,1,3.8c-0.3,1,0.1,1.6,0.9,2.1c0,0-0.1-0.1-0.1-0.1
		c0.7,0.9,1.3,1.5,2,0c1.5,0,2.5-0.7,3-2.1c3.9-1.3,6.7-0.3,8.2,3.7c0.2,0.5,1,2,2,0.3c1.9,2.7,3.8,5.4,5.8,8.1
		c-0.2,0.2-0.5,0.3-0.7,0.5c0.2,0.1,0.5,0.3,0.7,0.4c-1.1,2.4-3.4,3.5-5.4,5c-1,0.7-2.4,1.5-1.9,3.2c0.4,1.6,1.7,1.7,3.1,1.9
		c7.9,1.4,7.9,1.4,7.2,9.3c-0.1,1.3-0.6,2.6-0.8,3.9c-1.4,7.8-1.4,7.8-9.2,6.9c-1.2-0.1-2.4-0.2-3.2,0.9c-1,1.3,0.1,2.1,0.7,3
		c0.7,1,1.1,2.1,1.9,2.9c4.7,3.9,1.5,6.2-1.6,8.7c-1.9,1.5-3.9,3-5.8,4.6c-3.6-0.9-7.1-2-8.9-5.9c-1.6-3.4-3.9-3.2-6.1-0.4
		c-1.6-0.9-3.3-1.5-5-0.2c-2.1,1.5,0,2.4,0.5,3.6c0.2,0.4,0.2,1.3,0.1,1.3c-6.7,1.2-2,4.7-1.5,7.3c-4-0.5-7.9-1.2-12-0.8
		c-0.7,0-1.4,0-2,0c0-0.3,0-0.7-0.1-1c0.1-0.9,0.1-1.7-1-2c-0.1-1.7,0.2-3.2,0.7-4.8c0.5-1.5,0.9-3.5-0.5-4.6
		c-1.7-1.5-2.8,0.8-4.2,1.4c-4.8-5.4-8.4-6.3-12-3C570.1,213.6,569.8,213.2,569.5,212.9z M611.5,203c8.5-8.7,9.2-14.9,3.1-23.9
		c-1.6-2.3-4-3.3-5.9-5.1c-5.4-3-10.8-3.3-16.2,0c-3.2,3.7-7.1,6.9-8,12.1c-1.9,0.4-2.2,1.8-2,3.4c0.7,4.1,1.9,8,4.6,11.2
		c0.2-0.2,0.4-0.4,0.6-0.7c2.6,1.9,4.4,4.9,7.8,5.9C601.1,208.5,607.2,207.4,611.5,203z"/>
	<path class="st2" d="M481.3,290.9c6-9.4,11.8-18.9,14.4-30c10.5,0.2,10.5,0.2,8.8,10.3c-0.2,1.3-0.6,2.6-0.9,3.9
		c-0.4,1.9,0.4,3.2,1.9,4.3c1.3,0.9,2.4,0.4,3.6-0.5c2.7-1.9,5.6-3.6,8.3-5.4c2.1-1.4,3.5-1.4,5,1.2c3.8,6.4,8,12.5,12.3,18.6
		c1.8,2.6,1.5,3.8-1.2,5.3c-3,1.7-5.7,4-8.5,6c-1.3,0.9-1.8,1.9-1.3,3.4c0.4,1.3,1.4,1.7,2.6,1.9c3.1,0.6,6.1,1.7,9.2,1.8
		c3.9,0.1,4.4,2.3,3.9,5.2c-1.2,7.2-2.4,14.3-3.7,21.5c-0.2,1.1-0.3,2.4-1.9,2.5c-1.4,0.1-2.2-0.5-2.3-1.9c0.1-0.2,0.1-0.5,0.1-0.7
		c1.3-6.1,1.7-12.1-0.2-18.1c-2,0-3.9,0-5.9,0c-1.8,6-1.5,12-0.2,17.9c0.1,0.3,0.1,0.6,0.1,0.9c-9.8,0.9-9.8,0.9-5.1,9.9
		c4.1,7.9,4.1,7.9-3.1,13.4c-4.9-1.4-9.8-2.7-14.7-4.4c-9-3.1-18.6-4.5-27.2-9c-0.7-2.6-1.5-5.2-2.2-7.8c2.6-1.1,5.2,0,7.8,0
		c10.7-0.1,18.7-5.1,23.1-14.3c4.4-9.3,2.6-19.9-5.6-28.3C493.7,293.4,487.6,292.1,481.3,290.9z"/>
	<path class="st2" d="M118.3,156c-16,0-32,0-47.9,0c-1.5,0-4.1,0.9-4.3-1.1c-0.3-2.7,0.5-5.6,2.3-7.9c1.2-1.6,2.8-2.4,4.8-1.6
		c1.4,0.6,2.6,1.5,3.8,2.3c6.3,4.1,10.7,2.6,13.5-4.6c2.6-6.7,2.8-13.9,4.1-20.9c1-5.7,1.5-11.5,3.8-16.9c1.3-3.1,2.9-6,6.4-6.1
		c4.1-0.1,6,3.3,6.8,6.8c1.2,5,1.9,10,2.1,15.2c0.2,7,1.4,13.8,3.7,20.4c1.3,3.7,3.4,6.6,7.8,6.3c4.5-0.3,8-2.4,9.2-7
		c1-3.8,1.2-7.9,2.3-11.6c3-10,13.8-12.7,21.9-5.8c6.2,5.2,8.8,12.4,10.8,19.8c3.5,12.7,3.4,12.7-9.7,12.7
		C145.9,156,132.1,156,118.3,156z"/>
	<path class="st5" d="M204.5,223c-0.8-2.5-4-2.6-5-5.1c0.2-0.2,0.5-0.4,0.7-0.6c-0.2-0.1-0.5-0.2-0.7-0.2c2.4-3.6,4.4-7.5,8-10.1
		c0.3-0.3,0.7-0.7,1-1c1.7,0.7,3.3,1.3,5,2c0.6,1.7,1.3,0.8,1.9,0.1c0,0,0.1,0,0.1,0c0.8-0.5,1.2-1.2,0.9-2.2c0.3-0.9,0.7-1.8,1-2.8
		c0.3-1,0.7-1.9,1-2.9c2.5-1.6,5.4-1.7,8.1-2.1c0.1,1.3,1.1,0.9,1.8,0.8c0.7,0,1.3,0.1,2,0.1c1.3,0.9,1.8,2.2,2.1,3.7
		c0.2,1.2-0.4,2.9,1.4,3.2c1.6,0.3,2.1-1.1,2.9-2.2c0.8-1,1.8-1.8,2.8-2.6c0.3-0.3,0.6-0.7,0.9-1c1.8,1.2,3.5,2.4,5.3,3.5
		c6.5,4.1,6.5,4,3.7,10.4c-1.5,0.5-1.1,1.1-0.1,1.7c1.2,1.8,2.8,1.3,4.3,0.7c2.7-1,4.1,0.3,4.6,2.7c0.6,2.9,0.8,5.8,1.2,8.7
		c-1.2,2.5-2.6,4.5-5.9,4.2c-0.9-0.1-2.4-0.5-2.9,1c-0.5,1.7-0.3,3.3,1.7,3.9c2.2,0.2,3.5,1.8,5.1,2.9c-1,0.5-0.6,1,0,1.5
		c-0.3,0.5-0.7,1.1-1,1.6c-2.5-0.7-2.6,1.9-3.2,3c-2.4,4.4-5,7-9.8,2.9c-0.7-0.9-1.4-2.1-2.6-1.6c-1.4,0.7-1.6,2.2-1.5,3.7
		c0,3,2.3,7-3.1,8c-2.6,0.9-5.3,1.2-8,0.9c1.2-3.4-2.1-6.2-1.1-9.5c0.4-1.5,1-3.1-0.7-4c-1.8-1-3,0.7-4.3,1.6
		c-1.7,1.2-2.8,4.3-5,3.4c-4.1-1.7-4.6,1.3-5.8,3.5c-0.3,0-0.6,0-0.9,0c0-0.5,0.2-1.3,0-1.4c-4.9-2.7-4.1-5.8-0.8-9.3
		c1.7-1.8,0.2-3.9-1.3-4.1c-2.2-0.3-4.8-1.2-6.8,0.8c-4.6-3.3-3.2-8.6-3.6-13c-0.3-2.9,4.8-1.8,6.5-4.1c0.2-0.2,0.5-0.3,0.7-0.5
		C205.1,223.2,204.8,223.1,204.5,223z M214.7,233c0.9,1.8,1.6,3.9,2.9,5.5c1.2,1.4,2.3,4.1,5.2,2.5c1.1,0.8,2.4,1.1,3.8,1
		c1.7,0,3.4,0,5.1,0c5.2-1.5,8.8-4.5,9.9-10c0-2.1,0-4.1,0-6.2c-1.2-5.3-4.7-8.4-9.8-9.8c-0.4-0.9-1.2-1-2-1.1
		C221,214.4,212.9,220.5,214.7,233z"/>
	<path class="st0" d="M586.3,383c8.5,3.7,17.8,4.8,26.1,8.7c-27.6,0-55.3,0-82.9,0.1c0-8.6,0.1-17.2,0.1-25.8
		c16.6,5.1,33.2,10.3,49.8,15.3c3,0.9,5.1,0.5,5.1-3.9c0-7.5-0.9-15.2,1.8-22.6c0,4.3,0,8.7,0,13C585.1,372.9,584.8,378,586.3,383z"
		/>
	<path class="st6" d="M285.5,194.8c0.3-0.6,0.6-1.2,0.9-1.7c5.3-9.5,13.3-15.3,24.1-17.1c0,0,0,0.1,0,0.1c0,20.9-0.1,41.8-0.1,62.7
		c-9.5-1-16.5-6.1-22-13.6c-1.1-1.6-1.6-3.7-3.8-4.4c3.4-1.5,7.6-2.2,8.9-6.6C298.7,206.2,294.4,195.7,285.5,194.8z"/>
	<path class="st7" d="M525.3,220.8c-5.5,9.7-13.2,16.5-24.7,18c0-20.9,0-41.8,0-62.6c11.5,1.5,22.1,9.7,24,18.6
		c-10.2,4-12.7,11.3-7.1,20.3C519.1,218.3,522.4,219.3,525.3,220.8z"/>
	<path class="st1" d="M607.4,216.8c2.2-2.8,4.5-3,6.1,0.4c1.8,3.9,5.3,4.9,8.9,5.9c0,0.5,0.2,1.1,0,1.5c-3.1,5.1,0.7,8.4,3.1,12.1
		c3.6,5.3,7.1,10.5,10.6,15.9c0.8,1.3,1.2,2.8,3.2,2.3c3.7,2.1,7.4,4.2,11,6.3c0.4,0.9,1.3,1.7,0.9,2.9c-1.9,2.8-3.8,5.7-5.9,8.5
		c-4.3,6-10.2,5.8-14.2-0.3c-9-13.7-18.9-26.8-27.1-41.1c2.7-1.2,2.6-3.5,2.2-5.9C606.5,222.4,608,219.7,607.4,216.8z"/>
	<path class="st0" d="M211.5,387c23.3-7.1,46.7-14.2,70-21.3c0.3,0.1,0.5,0.2,0.8,0.2c-1,1.9-1,3.9-0.7,6c-0.8,1-1.5,2-2.3,3
		c-1.9,5.5-0.3,11.3-1,16.9c-2.3,0.1-4.6,0.2-6.9,0.2c-19.3,0.1-38.7,0.1-58,0.2c-0.3-0.1-0.7-0.2-1-0.4
		C212.6,390.1,212.9,388.4,211.5,387z"/>
	<path class="st2" d="M229.5,336.9c0.9-14.4,11.5-19.8,23.5-12c3.2,2.1,5.8,0.7,6.4-3.6c0.5-3.1,0.5-6.3,1.3-9.3
		c0.9-3.2,1.7-6.8,5.6-8.1c0.6,7,2.3,7.9,9.2,5c2.3,4.2,0.9,10.1,6,13c0,5,0,10,0,15C264.2,337,246.9,336.9,229.5,336.9z"/>
	<path class="st1" d="M694.8,272.2c-0.9-3.7-1.6-7.4-4.1-10.4c5-1.2,9.3-4.6,14.6-4.8c3.4,6,4.8,12.8,7.3,19.2
		c3.5,9.3,6.7,18.7,9.9,28.2c0.8,2.5,2.3,5.4-2.4,5.6c-1.9,0.1-0.6,1.2-0.8,1.9c-0.6,2.5-0.9,6.1-4.7,2.4c-0.5-0.5-0.7-1-1.5-0.6
		c-4.7,2.6-5.4-1-5.5-4c-0.2-3.7-2.7-1-3.9-1.8c-0.3-0.6-0.9-1-1.6-0.9c-0.9-0.5-0.7-1.3-0.5-2c1.5-1,0.6-2.5,0.9-3.8
		c1.8-1.8,2.1-3.7,1.1-6.2C700.5,287.4,697.7,279.8,694.8,272.2z"/>
	<path class="st0" d="M189.5,282c-3.6-1.3-3.7-6.5-7.8-7.3c0.6-1,1-1.6,0.3-3c-3-5.8-5.2-12-8.4-17.6c-3.1-5.2-2.9-8.8,4.1-12.2
		c3.3,1,6.5,2.1,7.9,5.7c1.1,3.4,2.7,6.5,4.7,9.5c3.6,8.8,3.5,8.7,11.8,4.6c2.8-1.4,5.2-3.6,8.4-3.9c0,0.5,0,0.9,0,1.4
		c-1.2,0.8-3.9,1.1-2.6,3.1c1.1,1.8,2,5.1,5.5,3.7c0.4,0.4,0.9,0.9,1.3,1.3C207,273.4,200,280.6,189.5,282z"/>
	<path class="st0" d="M154.5,274.3c1.4,4.1,6.7,6.6,5,12c-1.4,4.5-6,6.3-8.6,9.8c-0.5,0.7-1,1.2-1.6,1.9c-0.8,0.4-1.9,1.6-2.5,0.5
		c-1.4-2.7-2.8-6.7-1.4-8.6c3.3-4.5,1.2-6.8-1.9-9.4c-0.6-0.5-1.2-1.1-1.8-1.7c-1.6-1.8-3.2-3.7-4.8-5.5c-2.7-3-6.3-5.4-5.6-10.3
		c1.1-2,1.9-4.2,4.2-5.3c8.2-4,16.2-8.3,24.6-11.6c-1,2-1.9,4-2.9,6c-3.4,2.7-3.1,6.3-2.6,10c-0.8,2.9-6.1,2-5.4,5.2
		C150,269.8,152.8,271.9,154.5,274.3z"/>
	<path class="st8" d="M310.5,176c-10.8,1.7-18.8,7.5-24.1,17.1c-2.1,0-3-0.6-2.4-3c0.9-3.7,1.2-7.5,2.2-11.1
		c0.8-2.9-0.1-4.6-2.4-6.2c-2.4-1.7-4.1-0.7-6.2,0.8c-13.5,9.5-10.2,8.8-18.5-3.2c-0.7-1-1.5-1.8-1.6-3c1.5-0.8,3.7,1,4.9-1.2
		c0.1-0.3,0.2-0.6,0.3-0.9c14.8,0,29.5-0.1,44.3-0.1c1.3,0,2.7-0.4,3.7,0.9C310.6,169.3,310.6,172.6,310.5,176z"/>
	<path class="st1" d="M160.7,224c-0.7-1.5-2.4-0.6-3.5-1.5c-1.1-0.9-1.8,0.1-2.3,1c-0.6,0.9,0.1,1.7,0.8,2.1
		c3.7,1.9,4.8,4.9,3.3,8.7c-1.7,4.3-5.6,6-9.7,6.7c-2.6,0.4-4.5-1.6-5.4-4.2c-1-3-1.7-5.9-4.8-8.1c-2.4-1.7-2.8-5.6,0-8.4
		c2-1.9,3-3.3,0.7-6.1c-2.9-3.5-1.1-6.9,3.4-7.1c2.9-0.2,6-0.6,8.3,2c1,1.1,2.1,0.9,3.5,0.1c6.7-3.8,9.7-1.9,9.6,5.6
		c0,1.2-0.1,2.3-0.1,3.5C163.8,220.5,162.6,222.5,160.7,224z"/>
	<path class="st2" d="M108.6,276.3c0,7.5-7.2,15.8-13.8,15.1c-4.5-0.5-8.5-3.8-11.9-6.7c-3-2.5-0.9-6.9-1.1-10.4
		c-0.1-2-1.1-4.7,0.9-6.1c3.8-2.6,8-6.6,11.9-6.5c4.4,0.2,8.8,4,12.8,6.9C109.9,270.5,108,274,108.6,276.3z"/>
	<path class="st2" d="M570.6,255.9c-0.6,2.6,1.2,5.9-1,7.6c-3.6,2.7-7.9,6.4-12,6.4c-4.3,0-8.9-3.3-12.7-6.1c-3.2-2.3-1-6.5-1.3-9.8
		c-0.2-2.4-1-5.3,1.5-6.9c3.8-2.5,7.9-6.4,11.9-6.5c4.1-0.1,8.3,3.6,11.9,6.5C571.8,249.4,569.9,253,570.6,255.9z"/>
	<path class="st2" d="M219.6,96.3c-0.6,2.9,1.3,6.5-1.6,8.5c-3.6,2.5-7.4,5.7-11.8,5.9c-4.9,0.2-8.9-3.6-12.5-6.6
		c-2.9-2.4-0.9-6.9-1.1-10.5c-0.1-1.9-1-4.3,1-5.5c4.1-2.5,8.2-6.1,12.5-6.6c4.3-0.4,8.3,3.7,12,6.4
		C221.1,90.2,218.9,93.6,219.6,96.3z"/>
	<path class="st2" d="M603.5,255.7c-0.5,2.6,1.2,6-0.9,7.7c-3.7,2.9-7.9,6.3-12.3,6.9c-4.8,0.6-8.8-4.2-12.8-6.9
		c-2.8-1.9-0.9-6.5-1-9.9c-0.1-2.2-1.2-4.9,1.2-6.5c4-2.6,8.1-6.7,12.5-6.4c4.1,0.3,8.2,4,11.8,6.7
		C604.8,249.4,602.9,252.9,603.5,255.7z"/>
	<path class="st2" d="M236.7,68c-0.9,2.9,1.3,6.2-1.8,8.4c-3.8,2.7-8.1,6.2-12.2,6c-4.1-0.1-8.6-3.4-12-6.3c-2.7-2.4-0.9-6.6-1.1-10
		c-0.1-2.2-1.1-5,1.2-6.5c4-2.5,7.9-6,12.7-6.3c3.8-0.2,6.6,3.5,10,5.1C238.3,60.6,235.8,64.8,236.7,68z"/>
	<path class="st2" d="M125.6,248.1c-0.6,2.5,1.3,5.8-1.1,7.5c-4,2.8-8.5,6.6-12.9,6.7c-3.9,0.1-8.3-3.7-11.8-6.6
		c-2.9-2.5-1-6.6-1.2-9.9c-0.2-5.3,7.6-13.2,13-12.7c5.1,0.5,8.9,4.2,13,6.9C126.9,241.6,125.1,245.4,125.6,248.1z"/>
	<path class="st2" d="M176.5,67.9c0.7-2.8-1.5-6.4,1.6-8.4c3.7-2.4,7.4-6.5,11.6-6.1c4.7,0.4,9.1,3.9,12.9,7c2.4,2,0.9,5.7,0.9,8.6
		c0,2.3,1.3,5.3-1.2,7c-4,2.6-8,6.5-12.6,6.5c-4.4,0-8.5-3.6-12.1-6.4C175.2,74.2,177,70.7,176.5,67.9z"/>
	<path class="st2" d="M713.7,235.1c-3-0.6-6.5,1.2-8.3-1.2c-2.7-3.7-5.2-7.9-6.6-12.2c-1.1-3.4,8.1-13.9,11.3-13
		c4,1.1,8.4-3.2,11.8,1.2c2.9,3.7,6.2,7.5,6.4,12.1c0.1,4.3-3.4,7.8-5.8,11.3C720.2,236.5,716.4,234.3,713.7,235.1z"/>
	<path class="st2" d="M712.3,174c1.2,0.8,2,1.9,3.8,2.1c9.4,1,14.3,10.6,9.9,18.9c-4.4,8.2-10,10.4-18.6,7c-3.5-1.4-4.3-5.2-6.4-7.9
		c-2.4-3.1-3-5.8-0.2-9.2c2-2.5,3.1-5.7,4.6-8.6c2.9,0,0.9,4.3,4.4,4.3C706.6,176.6,711.7,176.4,712.3,174z"/>
	<path class="st9" d="M587.5,227c0,0.3,0,0.7,0.1,1c-0.4,2.4,0.9,5.3-1.7,7c-3.9,2.5-7.9,6.6-12.1,6.3c-4.2-0.3-8.2-3.9-12.1-6.4
		c-2.2-1.4-0.7-4-1.2-6c-1.9-8.1,2.5-12.6,9-15.9c0.3,0.3,0.7,0.7,1,1c7.3,10.1,5.1,8.5,12,3c1.4-0.6,2.5-2.8,4.2-1.4
		c1.4,1.1,1,3.1,0.5,4.6c-0.5,1.6-0.8,3.2-0.7,4.8C586.5,225.8,586.5,226.7,587.5,227z"/>
	<path class="st8" d="M131.4,262.9c-0.8,4.8,2.8,7.3,5.6,10.3c1.7,1.8,3.2,3.7,4.8,5.5c-1.2,2,0.8,5-2.1,6.5
		c-4.1,2.1-8.3,6.2-12.2,5.9c-4.2-0.3-9.8-2.9-12.1-6.9c-2.3-4-0.9-9.4-0.6-14.1C115,266.2,126.5,261.6,131.4,262.9z"/>
	<path class="st10" d="M157.4,252c1-2,1.9-4,2.9-6c2.4-2.3,4.6-4.7,5.4-8c1.7,0.2,3.4,0,4.9-0.9c0.9,1.3,1.9,1.3,3,0.1
		c0.7-0.1,1.3-0.2,2-0.3c0.7,1.7,1.4,3.4,2.2,5.1c-7,3.4-7.2,7-4.1,12.2c3.3,5.6,5.5,11.8,8.4,17.6c0.7,1.4,0.3,2.1-0.3,3
		c-1.6,0.6-2.3-3.4-4.3-0.8c-4.6,0-9.2,0-13.9-0.1c-2-2.7-4,0.6-6,0c0.3-1.7,0.9-3.5,0.9-5.2c0.1-2.9,2.9-5.7,0.3-8.7
		C158.4,257.3,157.1,254.8,157.4,252z M170.8,252.6c-1.6-1.9-2-5.6-4.6-5.2c-2.2,0.3-5.3,3.1-4.8,5.5c0.4,2.1,3.2,5,5.3,5.2
		C168.8,258.4,169.6,254.8,170.8,252.6z"/>
	<path class="st3" d="M705.3,257c-5.4,0.1-9.6,3.5-14.6,4.8c-2.3-0.2-2.9-2-2.1-3.5c1.7-3.3-0.2-4.7-2.7-5.4
		c-6.5-2-8.1-6.2-7.6-12.7c0.3-4.2,1.5-5.8,5.6-5.2c0.8,0.1,1.7-0.1,2.5-0.1c9.3-1.6,14.1,2.4,15.5,11.6c0.3,1.8,0.5,5,4.1,5.8
		C707.4,252.6,706.4,255.5,705.3,257z"/>
	<path class="st9" d="M671.5,209.8c0.1-2.1-2.7-3.7-1.4-6c2.2-3.8,3.8-8.9,7.2-11c3.8-2.4,9.3-0.8,14.1-0.7c2.9,0.1,2.9,3.3,4.3,5
		c4.6,5.7,3.7,10.7-0.3,17c-2.9,4.6-6.5,4.2-10.2,5.2c-1.2-0.7-2-1.6-1.9-3.1c3.3-0.7,5.8-2.4,4.7-6.1c-1.1-3.9-4.2-2.7-7.4-2.4
		C677.5,207.8,674.8,210,671.5,209.8z"/>
	<path class="st11" d="M616.4,392.1c3-0.1,6-0.2,9-0.3c10.6,1.9,21.3,1.4,31.9,0.3l0.1-0.4c0.3,0,0.7,0,1,0c3.9,0,7.9,0,12.4,0
		c-1.7,3.3-3.9,2.1-5.6,2.1c-47,0.1-94,0.1-140.9,0.1c-100.8,0-201.6,0-302.4,0c-1.5,0-3-0.1-4.5-0.2c0-0.3,0-0.5,0-0.8
		c20.7,0,41.3-0.1,62-0.1c2.6,0,5.2,0,7.9,0c80,0,160.1,0,240.1,0c0.6,0,1.3,0,1.9,0c27.6,0,55.1,0,82.7,0
		C613.6,392.9,615.2,393.3,616.4,392.1z"/>
	<path class="st12" d="M98.9,320c3-2.9,3.9-7.2,6.2-10.6c1.8-2.6,4.2-3.3,6.4-2.2c2.6,1.2,1,3.7,0.1,5.6c-2.2,4.3-4.5,8.5-6.8,12.6
		c-3,5.4-6.8,6.9-12.9,5.3c-5.9-1.5-8.3-4.7-8.3-11c0-4.8,0-9.6,0-14.5c0-2.1,0.3-4.2,3-4.2c2.5,0.1,4,1.7,4,4.2
		c0.2,4.3,0.1,8.6,0.1,13c0.4,2.2,0.8,4.5,3.6,4.8C96.6,323.2,98.6,322.8,98.9,320z"/>
	<path class="st13" d="M127.5,391.7c-0.1-2.6,0.8-4.7,3.3-6.1c1.5-0.9,3.2-1.8,3.8-3.7c2.8-1,4.5-2.8,4-6c0.7-0.7,1.4-1.3,2-2
		c5.2,0,10.3,0.1,15.5,0.1c0.6,5.9,0.2,11.8,1.6,17.7c-1.7,0-3.4,0-5.2,0c0-1.8-0.1-4.2-1.9-4.5c-1.8-0.3-1.7,2.4-2.7,3.6
		c-0.2,0.2-0.3,0.6-0.4,0.9c0,0-0.3,0.3-0.3,0.3c-6.5,0-13,0-19.6,0L127.5,391.7z"/>
	<path class="st14" d="M211.5,387c1.4,1.4,1.1,3.1,1,4.8c-6.2,0.1-12.5,0.2-18.7,0.4l-0.2-0.4c-0.4-0.7-0.6-1.6-1.1-2.1
		c-0.7-0.8-0.5-2.6-2-2.5c-1.6,0.1-1.9,1.5-2,2.9c-0.1,0.6-0.6,1.1-0.9,1.7c-1.4,0-2.8,0-4.2,0c0.3-5.9,0.7-11.8,1-17.7l0.2-0.1
		c5.3,0.1,10.6,0.1,15.9,0.2c0.4,0.6,0.7,1.2,1.1,1.9c0,0.7,0.4,1,1,1.2c-0.3,2.4,0.8,3.6,3,4c0.1,0.7-0.1,1.4,0.8,1.8
		C208.1,384.2,209.8,385.6,211.5,387z"/>
	<path class="st3" d="M650.4,261.1c-3.7-2.1-7.4-4.2-11-6.3c-1.1-1.4-1.8-3.7,0.1-4.2c3.6-0.9,4.7-3.9,6-6.4
		c3.8-7.6,9.5-10.9,17.9-9.3c0,0.5,0,1,0.1,1.5c2,9.6-1.3,16.5-10.7,19.8C649.6,257.4,651,259.5,650.4,261.1z"/>
	<path class="st0" d="M578.4,349.9c1.3,2.9,3.2,6.6,1,8.8c-2.8,2.9-7,2.7-11.2,1.2c-5.5-2-9.1-5.7-11.7-10.9
		c-1.8-3.6-0.7-4.7,2.8-5.2c7.1-1,12.9,1.6,18.2,6c0,0,0.4,0,0.4,0L578.4,349.9z"/>
	<path class="st15" d="M683.4,216.1c-0.2,1.5,0.7,2.4,1.9,3.1c1.7,3.3-0.3,7.9-4.3,9.5c-2.1,0.8-4.2,1.2-3.3,4.2
		c-0.5,1.6-0.9,3.2-1.4,4.8c-4.3,2.3-6.6,0.4-8-3.6c0-0.7,0-1.4,0-2.2c0.2-3.5,2.5-7.1-0.7-10.6c-0.6-0.7-0.4-2.6,0.9-3.5
		C673.7,219.1,678.1,214.2,683.4,216.1z"/>
	<path class="st16" d="M183.4,391.7c1.4,0,2.8,0,4.2,0c2,0,4,0,5.9,0c0,0,0.2,0.4,0.2,0.4c6.5,1.8,13.2,0.4,19.8,0.7
		c1.3,0,2.7,0.1,4,0.1c0,0.3,0,0.5,0,0.8c-31.3,0.1-62.6,0.1-94,0.2c-16.7,0-33.3,0-50,0c-1.7,0-3.5,0.4-5-0.5c0-0.5,0-1.1,0.1-1.6
		c19.6,0,39.2,0,58.9,0c0,0,0.3,0.4,0.3,0.4c6.5,1.3,13,1.3,19.6,0c0,0,0.3-0.3,0.3-0.3c1.7,0,3.3,0,5,0c1.7,0,3.4,0,5.2,0
		C166.3,391.7,174.9,391.7,183.4,391.7z"/>
	<path class="st17" d="M532.7,196c7.9,5.8,9.3,9.8,6.4,16.8c-1.3,3.2-4.2,4.5-6.7,6.2c-2-0.1-4.1-0.2-6.1-0.3c1.3-7.5,2-15,0-22.5
		C528.4,194.5,530.6,198.4,532.7,196z"/>
	<path class="st17" d="M276.5,217.8c-8.3-6.5-8-13.2,1-21.7c2.4,0.1,4.8,0.1,7.3,0.2c-2.5,7.5-3.2,15-0.1,22.5
		C281.8,219.7,279.2,218.2,276.5,217.8z"/>
	<path class="st18" d="M214.7,267.2c-0.4-0.4-0.9-0.9-1.3-1.3c1-3.1-2.2-4.4-2.9-6.8c0-0.5,0-0.9,0-1.4c0.6-0.8,1.4-1.6,1-2.8
		c1.2-2.3,1.7-5.3,5.8-3.5c2.2,0.9,3.3-2.2,5-3.4c1.3-0.9,2.5-2.6,4.3-1.6c1.6,0.9,1.1,2.5,0.7,4c-0.9,3.3,2.3,6.2,1.1,9.5
		C223.2,261.3,220.4,266.9,214.7,267.2z"/>
	<path class="st19" d="M694.1,374.1c3.8,0.2,7.8-1.1,11.5,0.8c0.4,2.3,0.7,4.6,1.1,6.9c4.4,2.1,9.1,0.6,13.7,0.8
		c2.7,0.8,5.4,1.5,4.9,5.2c-10.5,0-21.1,0-31.6-0.1c0-0.7,0-1.4,0-2.2c3.1-0.1,5.4-1.2,5.9-4.6c0.5-4-2.4-5.3-5.4-6.4
		C694.2,374.6,694.2,374.4,694.1,374.1z"/>
	<path class="st19" d="M645.4,374.9c4-1.9,8.2-0.6,12.3-0.7c0,0.2,0,0.4,0.1,0.6c-0.2,0.1-0.3,0.2-0.4,0.4c-3.2,0.5-5.7,2.5-5.6,5.6
		c0.1,2.8,2.4,4.8,5.7,4.9c0,0.8,0,1.6,0,2.4c-10.4-0.1-20.8-0.2-31.2-0.2c-0.3-3.8,2.5-4.4,5.1-5.1c3.7,0.1,7.4,0.2,11.1,0.2
		c1.3,0,3.2,0.4,2.7-2.1C645.3,378.8,645.3,376.9,645.4,374.9z"/>
	<path class="st18" d="M84.4,380.8c-0.7,2.8-3.5,3.5-5.2,2.8c-6.1-2.6-11-6.7-12.6-13.6c-0.6-2.6-0.1-4.4,3.4-4.2
		c4.5,0.2,8.1,2.3,11.5,5C83.7,373.8,82,377.9,84.4,380.8z"/>
	<path class="st12" d="M556.4,303c-1.5-1.8-2.1-3.3,0.4-4.9c4.3-2.8,8.8-2.9,13.1-0.7c3.6,1.8,7.1,4.4,6.5,9.4
		C568.8,310.7,562.2,309.1,556.4,303z"/>
	<path class="st20" d="M572.5,313.7c1,0.7,4-0.6,2.2,2.7c-2.2,4-9,7-13.8,5.4c-5.5-1.9-11-7.8-9.3-12.9c0.1-0.3,0.5-0.4,0.7-0.6
		C558.6,311.8,566.1,310.9,572.5,313.7z"/>
	<path class="st6" d="M596.6,319.1c8.6-1.7,8.3-1.7,6.3,6.6c-0.6,2.7-2,3.4-4,4c-2.8,0.9-5.7,1.7-8.5,2.5c-0.5-0.1-1-0.3-1.6-0.4
		c-1.3-2.8-3.8-4.3-6-6.2c-1.5-1.3-1.8-2.3,0.6-2.8C587.8,321.8,592.4,321.2,596.6,319.1z"/>
	<path class="st21" d="M545.5,130c64,0,128,0,191.9,0c-1.5,1.7-3.4,1-5.2,1c-60.5,0-121.1,0-181.6,0
		C548.9,131,546.9,131.7,545.5,130z"/>
	<path class="st22" d="M170.5,237.1c-1.5,0.9-3.2,1.1-4.9,0.9c0-2,0-4,0-6c3.2-0.4,1.2-1.6,0.5-2.9c-1.2-2.3,0.9-5.8,3-4.8
		c3.7,1.6,6.3-1,9.4-1.5c5.8,6.1,5.1,9.3-3,13.3c-1.7,0.9-3.2-2.2-5-0.2C170.6,236.3,170.6,236.7,170.5,237.1z"/>
	<path class="st23" d="M588.8,331.7c0.5,0.1,1,0.3,1.6,0.4c-0.6,2.7-1.1,5.4-1.9,8.9c2.9-1.4,5.2-2.6,7.7-3.5c3-1.1,5-1,4.4,3.3
		c-0.8,6.2-6.2,11.2-12.4,11.1c-1.8,0-3.3-0.4-2.7-2.4C587.3,343.7,586.5,337.4,588.8,331.7z"/>
	<path class="st24" d="M529.4,392.9c-0.6,0-1.3,0-1.9,0c0-0.3,0-0.6,0-0.9l-0.1-0.1c1.5-0.9,1-2.3,1-3.6c0-7.8,0-15.6-0.1-23.3
		c0-6.5,0.2-13,0-19.5c0-1.8,1-4-1.1-5.5c-0.6-0.4-1.2-0.7-1.8-1.1c0-0.3-0.1-0.6-0.1-0.9c0.1-6,0.1-12,0.2-17.9c2,0,3.9,0,5.9,0
		c0.1,6,0.1,12.1,0.2,18.1c0,0.2-0.1,0.5-0.1,0.7c-2.1,0.6-2.1,2.2-2,3.9c0.1,7.7,0.1,15.4,0.2,23.1c0,8.6-0.1,17.2-0.1,25.8
		C529.5,392.2,529.5,392.5,529.4,392.9z"/>
	<path class="st25" d="M323.6,139c54.2,0,108.5,0,162.7,0c0.1,0.3,0.2,0.5,0.2,0.8c0,0-0.1,0.2-0.1,0.2c-38.5,0-76.9-0.1-115.4,0
		c-15.5,0-31,0.1-46.5,0.2c-0.4-0.1-0.7-0.2-1-0.3C323.5,139.6,323.5,139.3,323.6,139z"/>
	<path class="st6" d="M683.4,216.1c-5.3-1.9-9.8,3-15,1.8c-1.9-3.8-1.5-6.7,3-8.1c3.3,0.1,6-2,9.4-2.3c3.1-0.3,6.2-1.4,7.4,2.4
		C689.3,213.6,686.7,215.3,683.4,216.1z"/>
	<path class="st26" d="M409.6,62.2c0,0.6-0.1,1.2-0.1,1.8c-0.3,0.1-0.7,0.2-1,0.3c-1.5-0.1-2.1,3.1-4.1,1.1c-4-4-9.3-5.3-14.6-6.2
		c0.2-2.7,2.8-3.8,3.9-5.9c5.2-0.7,10.2-0.7,14,3.8C409.2,58.4,409.5,60.2,409.6,62.2z"/>
	<path class="st27" d="M178.6,222.8c-3.1,0.4-5.6,3.1-9.4,1.5c-2.1-0.9-4.2,2.5-3,4.8c0.6,1.2,2.6,2.5-0.5,2.9c-2.2-2.3-4.5-4.6-5-8
		c1.9-1.5,3.2-3.5,3.8-5.8c4.5-3.1,9-3.1,13.7-0.3C180.6,219.3,180.5,221,178.6,222.8z"/>
	<path class="st28" d="M771.6,393.7c-29.4,0.1-58.7,0.2-88.1,0.2c-0.7,0-1.4-0.4-2-1c3.9-1.7,8-0.6,11.9-1.2c0,0,0.3,0.4,0.3,0.4
		c6.3,1.7,12.7,0.6,19,0.7c4.2,0.1,8.5,1,12.6-0.7l0.3-0.4c15.2,0,30.5,0.1,45.7,0.1C771.4,392.5,771.5,393.1,771.6,393.7z"/>
	<path class="st10" d="M747.1,345.8c-0.6,0.1-1.1,0.2-1.7,0.3c-0.4,0.2-0.8,0.5-1.2,0.7c-0.9-0.7-1.8-1.3-2.6-2
		c0-6.3-0.1-12.5-0.1-18.8c2.3,0,4.5,0,6.8,0C747.9,332.6,749.6,339.3,747.1,345.8z"/>
	<path class="st29" d="M430.7,27.1c3.3,0.1,6.6,3.4,6.6,6.5c0,3.3-3.5,6.5-7.2,6.5c-2.9,0-6.7-3.8-6.6-6.7
		C423.6,29.5,426.6,27,430.7,27.1z"/>
	<path class="st30" d="M197.3,148c-6.5-2.3-9.1-6.3-6.9-10.6c1.5-3,3.7-5.3,7.2-5.1c4.1,0.2,7.2,2.2,8,6.7c-7.8,0.3-7.8,0.3-8.1,8.1
		C197.4,147.4,197.4,147.7,197.3,148z"/>
	<path class="st31" d="M693.7,387.9c10.5,0,21.1,0,31.6,0.1c0.1,1.3,0.2,2.5,0.2,3.8c0,0-0.3,0.4-0.3,0.4c-10.5,0-21,0-31.6,0
		c0,0-0.3-0.4-0.3-0.4C693.5,390.5,693.6,389.2,693.7,387.9z"/>
	<path class="st32" d="M626.2,387.8c10.4,0.1,20.8,0.2,31.2,0.2c0,1.2,0.1,2.5,0.1,3.7c0,0-0.1,0.4-0.1,0.4
		c-7.8-0.1-15.6,0-23.5-0.2c-2.8-0.1-5.7,0.8-8.3-0.9C625.4,389.8,625.1,388.7,626.2,387.8z"/>
	<path class="st33" d="M262.7,165.1c-0.1,0.3-0.2,0.6-0.3,0.9c-5.9,0.7-12-1-17.9,0.9c-3.3-1.9-4.8-4-1.1-7c6.3,0.1,12.6,0.1,19,0.2
		c0.1,0.6,0.2,1.3,0.3,1.9c-0.1,0.3-0.2,0.6-0.1,0.9c0,0.4,0,0.8,0,1.1C262.6,164.4,262.6,164.7,262.7,165.1z"/>
	<path class="st34" d="M585.4,311c7.3-5.1,11.6-4.2,18.9,4.1c-2.6,2-5.9,1.8-8.7,3C590.5,318.1,589.3,312.7,585.4,311z"/>
	<path class="st35" d="M482.7,112c3.2,2.7,6.4,5.3,5.7,10.1c-1.8,2.2-1.7,5.7-4.9,6.9c-6.1-4.7-3.6-10.5-2.1-16.2
		C482.2,113.2,482.5,112.7,482.7,112z"/>
	<path class="st36" d="M367,54.1c-3.9,0.6-5.4-1.8-5.4-5.4c-0.1-3.5,2.1-5.4,5.4-5.5c3.6-0.1,5.5,1.9,5.7,5.7
		C372.7,52.7,370.9,54.3,367,54.1z"/>
	<path class="st36" d="M500.5,162.2c-2-2.2-0.8-4.8-0.9-7.2c0.3,0,0.6,0,0.9-0.2c2.5,0.1,5,0.3,7.5,0.2c2.6-0.2,4.4,0.8,5.7,3
		c-0.2,0.7,0.3,1,0.9,1.2c-1.8,3.6-5.1,2.8-8.1,2.8C504.4,162.1,502.5,162.1,500.5,162.2z"/>
	<path class="st37" d="M325.3,284.8c1.5,1.8,2.9,3.7,4.4,5.5c-5.4,1.6-10.9,0.1-16.3,0.8c-1.5,0.1-2.1-0.7-2-2.2
		c0.8-0.5,1.6-1,2.4-1.5c-0.6-1-1.8-0.2-2.5-0.7c0.1-2.3,1.8-1.8,3.2-1.9C318.1,284.9,321.7,284.8,325.3,284.8z"/>
	<path class="st2" d="M556.5,54.2c-0.2,3.2-1.8,5.6-5,5.6c-2.9,0.1-4.9-2.1-4.9-5.1c-0.1-3.2,1.9-5.5,5.1-5.5
		C554.5,49.2,556.7,50.7,556.5,54.2z"/>
	<path class="st16" d="M773.5,391.9c14.5,0,29.1,0,43.6,0c0,0.6,0,1.2,0,1.9c-14.7,0-29.3,0-44,0
		C773.3,393.1,773.4,392.5,773.5,391.9z"/>
	<path class="st38" d="M529.4,392.9c0-0.4,0-0.7,0.1-1.1c27.6,0,55.3,0,82.9-0.1c1.3,0.1,2.6,0.2,4,0.3c-1.3,1.2-2.8,0.8-4.3,0.8
		C584.6,392.9,557,392.9,529.4,392.9z"/>
	<path class="st2" d="M640.3,288.9c3.8-0.2,4.9,2.3,5.1,5.4c0.1,3-1.7,4.5-4.7,4.6c-3.5,0.1-5.3-1.5-5.3-5
		C635.4,290.6,637.1,289,640.3,288.9z"/>
	<path class="st39" d="M482.7,112c-0.2,0.7-0.5,1.1-1.3,0.9c-5.6-2-9.1-0.8-12.2,4c-2.5,3.9-1.9,7.7,1.8,11.5
		c3.5,3.5,7.5,3.7,12.4,0.7c3.2-1.2,3.1-4.7,4.9-6.9c0.9,4-1.9,6.3-4.1,8.9c-3,1.2-6,2.6-9.5,1.5c-5.5-1.8-9.1-6.8-8.4-12.4
		c0.7-6.1,5.3-9.8,13-10.3C480.3,111,482.2,110.5,482.7,112z"/>
	<path class="st2" d="M524.6,54.5c-0.4,3-2,5.3-4.9,5.4c-3,0.1-4.9-2-5.1-5c-0.2-3.3,1.8-5.6,5-5.6
		C522.5,49.2,524.1,51.6,524.6,54.5z"/>
	<path class="st2" d="M535.5,49c2.8,0.8,4.9,2.3,4.9,5.4c0,3.3-2,5.6-5.2,5.4c-2.9-0.1-4.8-2.3-4.7-5.4
		C530.6,51.3,532.7,49.8,535.5,49z"/>
	<path class="st9" d="M624.9,288.9c3.4,0.2,4.6,2.6,4.4,5.4c-0.2,2.9-1.7,4.9-5.2,4.7c-3.6-0.3-4.9-2.3-4.7-5.6
		C619.7,290,621.8,288.8,624.9,288.9z"/>
	<path class="st2" d="M156.5,186.3c0-4.1,1.2-6.3,4.6-6.2c3.3,0.1,5.2,2.1,5.4,5.4c0.1,2.6-1.3,4.8-3.9,4.8
		C159.5,190.3,156.5,189.4,156.5,186.3z"/>
	<path class="st2" d="M140.5,186c0.1-3.9,1.3-6,4.4-5.9c3.5,0.1,5.6,2.1,5.6,5.6c0,2.5-1.4,4.6-4.2,4.5
		C143.1,190.2,140.3,189,140.5,186z"/>
	<path class="st40" d="M181.7,368.9c0.6-0.1,1.2-0.2,1.8-0.2c5.7,0,11.5,0,17.2,0c2.8,1.6,2.7,3.1-0.1,4.6c-5.3-0.1-10.7-1.3-16,0.7
		c0,0-0.2,0.1-0.2,0.1C181.1,373.6,181.5,371.2,181.7,368.9z"/>
	<path class="st41" d="M172.5,185.5c0-3.5,1.3-5.6,4.7-5.4c3.2,0.2,5.2,2.2,5.3,5.5c0.1,3.3-2.4,4.2-5,4.4
		C174.2,190.3,172.6,188.4,172.5,185.5z"/>
	<path class="st42" d="M702.5,301.2c-0.3,1.2,0.6,2.8-0.9,3.7c0-1.5-0.5-2.3-2.2-1.8c-2.5,0-4.9,0-7.6,0c0.2,1.2,0.4,2.2,0.7,3.3
		c0.3,1.3,0.6,2.5,0.8,3.8c1.2,5.4,2.6,6,8.4,3.7c2.7-2.1-0.1-4.6,0.4-6.9c0.7-0.1,1.2,0.3,1.6,0.9c0.7,2,0.3,4.3,0.9,6.1
		c1.1,3-2.4,1.4-2.4,3c-9.3,0-9.3,0-11.4-9c-0.5-2.2-0.8-4.4-1.3-7.2c3.1,0,6,0,9,0C699.8,300.9,701.2,301,702.5,301.2z"/>
	<path class="st34" d="M752.3,371.7c0.1-3.3,1.2-4.8,4.5-4.9c3.6-0.2,5.5,1.5,5.5,4.6c0,3.1-2.3,5.4-5.3,5.3
		C754.1,376.7,752.6,374.3,752.3,371.7z"/>
	<path class="st43" d="M777.8,341.9c3-0.2,4.8,1,4.7,4.3c-0.1,3.9-2.5,4.9-6,4.9c-3.6,0-4.1-2.4-4.1-4.9
		C772.5,342.7,774.7,341.6,777.8,341.9z"/>
	<path class="st15" d="M275.5,308.9c-6.9,2.9-8.6,2-9.2-5c1.9-3.8,5.3-4,8.3-2.3C277.5,303.2,277.2,306.2,275.5,308.9z"/>
	<path class="st44" d="M140.7,367.9c0.3,0,0.5,0.1,0.8,0.1c5.3,1.8,10.8,0.4,16.1,0.8c1.8,2,1.7,3.6-1.1,4.4
		c-5.3-0.7-10.6-0.4-15.8-0.2C137,371.4,139.5,369.6,140.7,367.9z"/>
	<path class="st45" d="M15.7,392.4c12.9,0,25.8,0,38.7,0c0,0.3,0,0.7,0,1c-12.9,0-25.8,0-38.7,0C15.7,393.1,15.7,392.7,15.7,392.4z"
		/>
	<path class="st46" d="M572.5,313.7c-6.4-2.8-13.8-1.9-20.1-5.4c0-0.4,0-0.8,0-1.1c2.1,1,4.2,1,7.2,0.4c-2-1.4-3.5-2.1-4.1-3.7
		c0.3-0.3,0.6-0.6,0.9-0.9c5.7,6.1,12.3,7.7,19.9,3.8c0,0.5,0.1,0.9,0.1,1.4c-1.9,1.8-4.6,1.5-7,2.3c0.5,1.9,2.7,0.9,2.9,2.5
		C572.5,313.2,572.5,313.5,572.5,313.7z"/>
	<path class="st47" d="M281.7,371.9c-0.3-2.1-0.3-4.1,0.7-6c0-20.3,0-40.6,0-61c0.1-0.3,0.2-0.6,0.3-1c0.3,0,0.6,0,0.9,0
		c0,20.3,0.1,40.7,0.1,61c-0.1,2.3-0.2,4.6-0.3,6.9C282.8,371.9,282.3,371.9,281.7,371.9z"/>
	<path class="st48" d="M283.5,304c-0.3,0-0.6,0-0.9,0c0.4-8.8,9.5-16.9,19.2-17c3.1,0,6.3-0.1,9.4-0.2c0.8,0.5,1.9-0.3,2.5,0.7
		c-0.8,0.5-1.6,1-2.4,1.5c-3,0-6,0-9,0c-9.7-0.1-16,5-18.1,14.8C284.1,303.9,283.8,303.9,283.5,304z"/>
	<path class="st49" d="M393.6,53.3c-1.1,2.1-3.7,3.2-3.9,5.9c-1.3,1.5-1.4,3.1-0.6,5c1.8,4.5,4.6,7.9,9.8,7.8
		c4.9-0.2,8.5-2.5,9.6-7.7c0.3-0.1,0.7-0.2,1-0.3c-0.7,5.8-4.9,9.7-10.7,10c-4.7,0.2-10.5-5-11.1-10.1c-0.2-1.6-0.1-3.3-0.1-4.9
		c1.3-2.9,3.2-5.3,6-6.9C393.5,52.5,393.5,52.9,393.6,53.3z"/>
	<path class="st50" d="M500.5,176.2c0,20.9,0,41.8,0,62.6c-0.3,0.1-0.5,0.2-0.8,0.3c0-21-0.1-42.1-0.1-63.1
		C500,176,500.2,176.1,500.5,176.2z"/>
	<path class="st50" d="M310.4,238.8c0-20.9,0.1-41.8,0.1-62.7c0.9,0.4,1,1.3,1,2.1c-0.1,20.3-0.1,40.6-0.2,60.9
		C311,239.1,310.7,239,310.4,238.8z"/>
	<path class="st51" d="M525.3,105.9c0.5-4.2,2.3-7.8,5.1-10.9c0.3,0.3,0.7,0.6,1,1c-3.9,4.4-5.1,9.6-5,15.4
		c0.3,11.2,0.1,22.5,0,33.7c0,1.7,0.8,3.7-1,5.1C525.4,135.4,525.4,120.7,525.3,105.9z"/>
	<path class="st52" d="M282.4,304.9c0,20.3,0,40.6,0,61c-0.3,0-0.6,0-0.8-0.2c0-9.3-0.1-18.5-0.1-27.8c0-0.3,0-0.7,0-1
		c0-5,0-10,0-15C282,316.3,280.6,310.5,282.4,304.9z"/>
	<path class="st53" d="M645.4,374.9c-0.1,2-0.1,3.9-0.2,5.9c-3.5,1-7,1.5-10.6,1c0.7-2.4,3.3-3.9,3.1-6.8
		C640.2,375,642.8,374.9,645.4,374.9z"/>
	<path class="st54" d="M706.7,381.9c-0.4-2.3-0.7-4.6-1.1-6.9c2.6,0,5.2,0,7.7-0.1c1,1.9,2.1,3.9,3.1,5.8
		C713.2,381.5,710,382.3,706.7,381.9z"/>
	<path class="st55" d="M197.3,148c0-0.3,0.1-0.6,0.1-1c0.3-7.8,0.3-7.8,8.1-8.1c2.3,0.1,4.6,0.2,6.9,0.3c0,4.9,0,9.8,0.1,14.7
		c-0.3-0.4-0.7-0.7-1-1.1c0-2-0.2-4,0.1-5.9c0.8-5-1.1-6.9-6.1-5.9c-7.1-0.3-7.1-0.3-6.8,6.1c0.1,2-1,4.2,0.8,5.9
		c-0.6,0.3-1.2,0.5-1.7,0.8C197.6,152,197.5,150,197.3,148z"/>
	<path class="st56" d="M694.1,374.8c3,1.1,5.9,2.4,5.4,6.4c-0.5,3.4-2.8,4.5-5.9,4.6C693.5,382.1,692.7,378.4,694.1,374.8z"/>
	<path class="st57" d="M223.4,159.5c-0.2,2.5-1.9,4.2-4.3,4.4c-2.3,0.2-3.4-1.9-3.6-4c-0.2-2.3,0.8-3.8,3.4-4
		C221.3,155.8,223.1,156.5,223.4,159.5z"/>
	<path class="st58" d="M281.5,337c0,0.3,0,0.7,0,1c-15.6,0-31.2,0-46.8,0c-1.7,0-3.7,0.7-5.1-1C246.9,336.9,264.2,337,281.5,337z"/>
	<path class="st59" d="M582.3,321.8c-1.6-0.1-1.9-0.7-1.2-2.2c1-2.4,1.6-5,2.4-7.5c2.7,1.6,6.3,3.9,6.2,6.5c0,2.5-4.8,1.3-7,3
		C582.6,321.6,582.5,321.7,582.3,321.8z"/>
	<path class="st60" d="M63,338.5c-2.4,0.5-4.7,1-7.1,1.4c-1.6,0.2-2.9-0.1-3.7-1.7c-0.5-1.1-0.6-2.2,0.2-3.2
		c1.1-1.3,2.7-1.4,4.1-0.9c2.4,1,4.6,2.2,6.9,3.4C63.2,337.8,63.1,338.1,63,338.5z"/>
	<path class="st61" d="M70,342.9c3.3-0.1,5,1.9,7,3.2c1.5,0.9,2.1,2.6,1.3,4.3c-0.5,0.9-0.7,2.7-2.1,2.2c-1.5-0.5-3.5-0.6-3.9-3.1
		C71.9,347.4,70.8,345.4,70,342.9z"/>
	<path class="st62" d="M70.9,335.8c1.5-2.4,2.8-4.3,4-6.3c1.1-1.7,2.6-1.9,4.4-1.5c1.2,0.3,2.3,1.2,1.9,2.4
		c-0.4,1.5-0.6,3.3-2.8,3.7C76,334.5,73.9,336.2,70.9,335.8z"/>
	<path class="st63" d="M98.9,320c-0.3,2.9-2.4,3.2-4.6,3c-2.8-0.3-3.3-2.5-3.6-4.8c0.6-0.2,1.3-0.3,1.7-0.7c1.3-1.5,3-3.6,4.6-2.8
		C98.3,315.2,98.3,318.1,98.9,320z"/>
	<path class="st64" d="M582.3,321.8c0.1-0.1,0.2-0.2,0.4-0.3c2.2-1.7,7-0.4,7-3c0-2.6-3.5-4.9-6.2-6.5c0.4-0.8,1.1-1,1.9-1.1
		c3.9,1.7,5.1,7.2,10.2,7.2c0.3,0.3,0.7,0.7,1,1c-4.2,2.1-8.7,2.7-13.2,3.7C583,322.5,582.7,322.1,582.3,321.8z"/>
	<path class="st65" d="M64.7,335c-2.3-1.6-4.7-3-6.9-4.7c-1.5-1.3-2-3.2,0-4.5c1.6-1.1,3.6-1.5,4.6,0.8c1.1,2.5,2,5.1,3,7.7
		C65.2,334.5,64.9,334.8,64.7,335z"/>
	<path class="st66" d="M532.7,196c-2,2.4-4.3-1.5-6.4,0.2c-2.2,0.3-4.2,1-6,2.6c-5.1,4.4-4,9.6-2.7,15c0,0.4-0.1,0.9-0.1,1.3
		c-5.6-9-3-16.3,7.1-20.3C527.2,195.8,530.3,193.6,532.7,196z"/>
	<path class="st65" d="M56.6,349.7c-1.5-0.1-2.1-1.8-2-3.1c0.2-4.7,4.8-3.7,7.4-5.3c0.8-0.6,1.5,0.3,1.5,1.3
		C63.5,344.4,58.8,349.6,56.6,349.7z"/>
	<path class="st67" d="M68.1,334.4c-0.6-2.9-1.1-5.1-1.4-7.3c-0.2-1.5-0.2-3.1,1.5-3.8c1.3-0.5,2.6-0.6,3.7,0.5
		c1.3,1.2,1.1,2.7,0.3,4.1C71.1,329.8,70.5,332.1,68.1,334.4z"/>
	<path class="st43" d="M67,342.9c1.4,2.8,1.8,5.2,1.7,7.7c-0.1,1.3,0.2,2.9-1.6,3.2c-1.3,0.2-2.7,0.6-3.7-0.7c-1-1.3-1-2.8-0.2-4.2
		C64.3,347.1,65.4,345.3,67,342.9z"/>
	<path class="st68" d="M744.2,346.8c0.4-0.2,0.8-0.5,1.2-0.7c2.7,7.2,6.8,9.9,14.7,9.8c3.7-0.1,7.3-0.1,9.4,3.8
		c-0.1,0.5-0.1,1-0.2,1.5c-3-3.6-7-4.3-11.5-4.2C749.9,357,746.5,354.4,744.2,346.8z"/>
	<path class="st69" d="M136.7,82.3c2-1.6,3.2-3.3,4.8-5.4c1.5,2.9,6.5,4.7,1.4,8.5C138.8,88.5,139.6,81.9,136.7,82.3z"/>
	<path class="st70" d="M669.6,148.2c2.4,2.8,5.4,5.1,1.2,8.5c-1.2,1-2,1.5-2.4-0.1c-0.4-2-4.8-1.8-2.8-4.4
		C666.5,151,667.9,149.5,669.6,148.2z"/>
	<path class="st34" d="M72,339.5c3.1-1.8,5.9-1.7,8.7-1.6c1.2,0,2.4,0,2.8,1.4c0.4,1.2,0.1,2.3-0.8,3.2c-0.9,0.8-1.8,1.9-3.4,0.9
		C77.1,342,74.7,340.9,72,339.5z"/>
	<path class="st71" d="M747.9,285c-0.6-3.2-7.3-5.3-0.8-8.8c4.2-2.2,3.5,3.2,7.6,2.8C751.3,280.9,750,282.8,747.9,285z"/>
	<path class="st72" d="M60,282.8c1.5,1.7,2.8,3.1,4.1,4.6c-1.6,1.3-2.5,4.4-4.3,4.1c-1.7-0.3-3.1-2.8-4.6-4.4
		C56.7,285.7,58.3,284.3,60,282.8z"/>
	<path class="st73" d="M84.4,380.8c-2.5-2.9-0.7-7.1-2.9-10.1c-0.1-5.9-2.8-11.1-4.8-16.7C80.9,356.5,85,370.8,84.4,380.8z"/>
	<path class="st74" d="M525.3,105.9c0.1,14.7,0.1,29.5,0.2,44.2c0,0,0.1-0.1,0.1-0.1c-0.3,0-0.7,0-1,0.1c0-13.6-0.1-27.2-0.1-40.9
		C524.5,108.1,524.5,106.9,525.3,105.9z"/>
	<path class="st75" d="M284.8,196.2c-2.4-0.1-4.8-0.1-7.3-0.2c2.3-2.7,5.4-0.1,8-1.3c8.9,0.9,13.3,11.4,8.1,19.4
		c-0.1-0.5-0.1-0.9-0.2-1.4C296.1,204.1,293.7,199.5,284.8,196.2z"/>
	<path class="st76" d="M90.5,387c-0.4,0.8-0.8,1.6-1.3,2.5c-2.2-7.7-1.9-15.3-0.6-23c0.3-1.7,0.7-2,1.9-0.7
		C89.1,372.9,89,379.9,90.5,387z"/>
	<path class="st77" d="M201.7,240.9c2-2,4.6-1.1,6.8-0.8c1.4,0.2,3,2.2,1.3,4.1c-3.3,3.5-4.1,6.6,0.8,9.3c0.2,0.1,0,0.9,0,1.4
		c-0.8-0.6-1.5-1.3-2.3-1.6c-4.5-1.7-4.3-4.3-1.8-7.7c0.7-1,2.9-1.6,1.6-3.5c-1.2-1.6-2.7-1.2-4.3-0.4
		C203.3,242,202.4,241.3,201.7,240.9z"/>
	<path class="st78" d="M649.4,300.7c8.7,0.5,8.7,0.5,7.1,9.3c-0.1,0.8-0.1,1.7-1.1,2c-0.3-0.3-0.5-0.7-0.8-1
		c0.4-2.6,0.9-5.2,1.3-7.8c-2.4,0-4.7,0-6.9,0c-0.9,0-1.8,0.1-2.7,0.1C645.2,301.1,645.2,301.1,649.4,300.7z"/>
	<path class="st79" d="M769.4,361.1c0.1-0.5,0.1-1,0.2-1.5c2.2,1.5,3.2,3.5,3,6.1c0,6.1-0.2,12.3,0,18.4c0.1,2.5-1.1,5.3,1,7.6
		c0,0,0,0.1,0,0.1c-0.1,0.6-0.2,1.2-0.3,1.9c-0.5,0-1.1,0-1.6,0c-0.1-0.6-0.2-1.2-0.3-1.8c0-8.1,0.1-16.2,0.2-24.3
		C771.5,365.2,770.6,363.1,769.4,361.1z"/>
	<path class="st80" d="M712.3,174c-0.6,2.4-5.7,2.6-2.5,6.5c-3.5,0-1.5-4.4-4.4-4.3c-0.8-3.5,2.5-4.1,4.3-5
		C711.7,170.1,713,171.5,712.3,174z"/>
	<path class="st81" d="M531.4,96c-0.3-0.3-0.7-0.6-1-1c3.8-4.5,8.9-6.6,14.6-6.9c4.1-0.2,8.2,0,12.3,0.1c-1.5,1.7-3.4,0.7-5.2,0.9
		c-2.9,0.4-6-0.9-8.8,0.9C538.7,90.4,534.9,93,531.4,96z"/>
	<path class="st82" d="M646.4,303.3c0.9,0,1.8-0.1,2.7-0.1c-1.5,3.8-1.7,7.7-1.7,11.7c-2.5,0.7-3.2-0.5-2.9-2.7
		C645,309.1,645.1,306.1,646.4,303.3z"/>
	<path class="st83" d="M466.1,67c1.8-0.3,3.4,0.4,3.3,2.4c0,2-1.4,3.5-3.4,3.5c-2,0-3.4-1.5-3.4-3.5C462.5,67.3,464.1,66.9,466.1,67
		z"/>
	<path class="st84" d="M625.6,390.9c2.6,1.8,5.5,0.9,8.3,0.9c7.8,0.2,15.6,0.2,23.5,0.2c-10.7,1.2-21.3,1.7-31.9-0.3
		C625.5,391.5,625.5,391.2,625.6,390.9z"/>
	<path class="st85" d="M644.4,312.1c-0.3,2.3,0.4,3.5,2.9,2.7c3.1,0,7.1,1.8,7.3-3.8c0.3,0.3,0.5,0.7,0.8,1c0.8,3.4-1,4.7-4,4.9
		c-1.6,0.1-3.3,0.1-4.9,0.2C642.4,316.9,640.8,315.6,644.4,312.1z"/>
	<path class="st86" d="M293.4,212.8c0.1,0.5,0.1,0.9,0.2,1.4c-1.3,4.4-5.4,5-8.9,6.6c-3.4,0.9-6.3-0.2-8.8-2.4c0,0,0.1-0.3,0.2-0.4
		c0.1-0.1,0.3-0.2,0.4-0.2c2.7,0.4,5.3,1.9,8.2,0.9C288.8,218.5,291.2,215.8,293.4,212.8z"/>
	<path class="st87" d="M243.6,248.8c4.8,4.2,7.3,1.5,9.8-2.9c0.6-1,0.6-3.6,3.2-3c-0.9,3.7-3.4,6.5-5.8,9.2c-3.4,3.9-4.7-1.7-7.3-2
		C243.5,249.7,243.6,249.2,243.6,248.8z"/>
	<path class="st88" d="M606.4,225.2c0.4,2.4,0.4,4.7-2.2,5.9c-4.8-1.2-10-0.5-14.6-3.1c4-0.4,8,0.3,12,0.8
		C605,230.1,605.2,227,606.4,225.2z"/>
	<path class="st89" d="M572.6,168.8c0.7,0.6,1.6,1.2,2.2,1.9c0.8,0.9,2.2,1.6,1.3,3.3c-0.8,1.5-1.7,1.9-3.4,2.1
		c-3.2,0.4-6.1-1.2-9.1-1.2c2.2-1.7,4.7-0.7,7-0.9c1.2-0.1,2.9,0.8,3.6-0.6c0.6-1.4-1.3-2.1-1.7-3.2
		C572.5,169.7,572.5,169.2,572.6,168.8z"/>
	<path class="st90" d="M561.5,194.1c2-0.1,3.9,0,5.9-0.2c2.9-0.2,5.1,0.7,5.9,3.7c0.9,3.3-2.2,3.3-3.9,4.5c-0.1-0.8-0.1-1.6,0.6-2.2
		c0.8-0.7,1.9-1.4,1.4-2.8c-0.6-1.6-1.9-0.9-2.9-0.9C566,196.1,563.7,195.2,561.5,194.1z"/>
	<path class="st91" d="M393.6,53.3c0-0.4-0.1-0.7-0.1-1.1c6.6-2.8,12.9-0.6,14,4.9C403.8,52.6,398.8,52.6,393.6,53.3z"/>
	<path class="st92" d="M341.4,34.1c-2,0-3.2-1-2.9-3c0.4-2.1,2.2-1.9,3.9-2.1c2.9-0.2,2,1.9,2.1,3.3
		C344.8,34.9,342.7,33.8,341.4,34.1z"/>
	<path class="st93" d="M243.6,248.8c-0.1,0.5-0.1,0.9-0.2,1.4c-1.5-0.9-3.4-2.2-2.7,1.1c0.4,1.6,0.8,3.1,0.8,4.7c0,4-1.8,4.8-5.2,3
		c5.3-1,3.1-5,3.1-8c0-1.6,0.1-3.1,1.5-3.7C242.2,246.6,243,247.8,243.6,248.8z"/>
	<path class="st94" d="M102.5,202c-0.6,5.4,2.6,4.3,6.1,2.8c-4.2,4.5-9.2,4.4-11.9,0.2c0,0-0.1,0.1-0.1,0.1c2.1-0.4,5.4,1.2,5.2-3
		l0.4,0L102.5,202z"/>
	<path class="st95" d="M211.5,152.9c0.3,0.4,0.7,0.7,1,1.1c0,0.2,0,0.5,0,0.7c-4.9,0.1-9.9,1.4-14.7-0.7c0.6-0.3,1.2-0.5,1.7-0.8
		C203.5,153.1,207.5,153,211.5,152.9z"/>
	<path class="st96" d="M773.5,391.7c-2.1-2.3-0.9-5-1-7.6c-0.2-6.1,0-12.3,0-18.4c1.9,4.8,0.5,9.7,0.9,14.6
		C773.6,384.1,773.4,387.9,773.5,391.7z"/>
	<path class="st97" d="M555.5,303.9c0.6,1.6,2.1,2.3,4.1,3.7c-3,0.5-5.1,0.6-7.2-0.4c-2.5-2-0.4-3.8,0.7-4.8
		C554.3,301.2,554.3,304,555.5,303.9z"/>
	<path class="st98" d="M252.5,237c-2-0.7-2.2-2.2-1.7-3.9c0.4-1.5,2-1.1,2.9-1c3.3,0.4,4.7-1.7,5.9-4.2c2.6,3.7,0.7,4.9-2.9,5.2
		C254.2,233.2,251.3,232.9,252.5,237z"/>
	<path class="st99" d="M517.4,215.1c0-0.4,0.1-0.9,0.1-1.3c2.9,1.6,4.4,5.8,8.7,4.9c2,0.1,4.1,0.2,6.1,0.3c-2,1.9-4.4,2.3-7.1,1.8
		C522.4,219.3,519.1,218.3,517.4,215.1z"/>
	<path class="st100" d="M631.7,164c-0.9,1.7-1.8,0.2-2-0.3c-1.5-4.1-4.3-5.1-8.2-3.7C625.7,155.7,626.3,154.8,631.7,164z"/>
	<path class="st101" d="M572.5,313c-0.2-1.6-2.5-0.5-2.9-2.5c2.3-0.8,5.1-0.5,7-2.3C577.6,312,577.4,312.3,572.5,313z"/>
	<path class="st102" d="M138.7,376c0.4,3.2-1.2,5-4,6c-1.3-2.3-2-4.5,1.1-6c0.7,1,1.5,1.4,2.1-0.1
		C138.1,375.9,138.4,375.9,138.7,376z"/>
	<path class="st103" d="M524.6,150.1c0.3-0.1,0.7-0.1,1-0.1c-1,6.3-3.9,8.7-11.1,9.2c-0.5-0.3-1.1-0.5-0.9-1.2
		C518.9,157.6,523.1,155.8,524.6,150.1z"/>
	<path class="st104" d="M604.3,150c-4.9-0.7-8.5,0.4-8.9,6.2c-2-5.2-0.3-7.9,4.5-7.2C601.4,149.2,603.2,148,604.3,150z"/>
	<path class="st105" d="M578.4,349.9l-0.4,0c0,0-0.4,0-0.4,0c-1-4.9-2-9.7-3-14.6C577,339.9,579.1,344.6,578.4,349.9z"/>
	<path class="st106" d="M747.1,345.8c2.5-6.5,0.8-13.2,1.2-19.9c2.3,6.1,0.9,12.3,0.7,18.4C749,344.9,747.8,345.4,747.1,345.8z"/>
	<path class="st107" d="M706.7,381.9c3.3,0.4,6.5-0.4,9.8-1.2c1.3,0.7,3.9-1.2,3.9,2C715.8,382.5,711.1,384,706.7,381.9z"/>
	<path class="st108" d="M90.5,387c-1.5-7-1.4-14.1,0-21.1C90.4,372.9,90.5,379.9,90.5,387z"/>
	<path class="st109" d="M262.4,160.1c-6.3-0.1-12.6-0.1-19-0.2c2.5-1.8,5.5-0.4,8.1-1.1C255.1,159.9,259,157.6,262.4,160.1z"/>
	<path class="st110" d="M202.6,377.1c-0.6-0.2-1-0.5-1-1.2c2.3-0.3,4.9-2.7,6.6,0.5c1.4,2.5,0.2,4.7-1.9,6.5
		c-0.8-0.3-0.7-1.1-0.8-1.8c1.3-0.6,2.4-1.7,1.7-3.1C206.3,376,204.2,377.2,202.6,377.1z"/>
	<path class="st111" d="M190.3,257.1c-1.9-3-3.6-6.1-4.7-9.5C190,249.4,191.6,252.5,190.3,257.1z"/>
	<path class="st112" d="M741.5,326c0,6.3,0.1,12.5,0.1,18.8C739.7,338.6,739.8,332.3,741.5,326z"/>
	<path class="st113" d="M244.5,166.9c5.9-1.9,11.9-0.2,17.9-0.9c-1.2,2.2-3.3,0.4-4.9,1.2C253.2,167.1,248.8,167,244.5,166.9z"/>
	<path class="st114" d="M572.6,168.8c0,0.4-0.1,0.9-0.1,1.3c-2.2-0.8-3.1-3.1-3.6-4.8c-0.9-3.4,2.4-3.4,4.6-4.3
		C570.8,163.4,570.3,165.9,572.6,168.8z"/>
	<path class="st115" d="M102.5,202l-0.4,0l-0.4,0c-0.9-2.1-2.8-2.5-4.4-1.8c-2,1-0.2,3.2-0.8,4.8c0,0,0.1-0.1,0.1-0.1
		c-2.4-0.6-2.4-2.7-1.9-4.3c0.7-2,2.8-1.8,4.6-1.7C101.5,199,102.9,199.5,102.5,202z"/>
	<path class="st116" d="M634.6,381.8c3.6,0.6,7.2,0,10.6-1c0.5,2.5-1.4,2.1-2.7,2.1c-3.7,0-7.4-0.1-11.1-0.2
		C631.5,379.2,633.8,383.2,634.6,381.8z"/>
	<path class="st117" d="M657.5,391.7c0-1.2-0.1-2.5-0.1-3.7c0-0.8,0-1.6,0-2.4c0-3.5-0.1-7-0.1-10.5c0.1-0.2,0.3-0.3,0.4-0.4
		c1.7,5.6,0.2,11.3,0.8,17C658.1,391.7,657.8,391.7,657.5,391.7z"/>
	<path class="st118" d="M200.7,368.7c-5.7,0-11.5,0-17.2,0c5.6-1.6,11.3-0.3,16.9-0.8C200.6,368.1,200.7,368.4,200.7,368.7z"/>
	<path class="st119" d="M184.6,373.9c5.3-1.9,10.6-0.7,16-0.7c0,0.3,0,0.6-0.1,0.8C195.2,374,189.9,373.9,184.6,373.9z"/>
	<path class="st120" d="M140.6,373.1c5.3-0.2,10.6-0.5,15.8,0.2c0,0.3-0.1,0.6-0.3,0.8c-5.2,0-10.3-0.1-15.5-0.1
		C140.6,373.7,140.6,373.4,140.6,373.1z"/>
	<path class="st121" d="M212.5,154.7c0-0.2,0-0.5,0-0.7c0-4.9,0-9.8-0.1-14.7C214.3,144.4,214.2,149.6,212.5,154.7z"/>
	<path class="st122" d="M543.4,89.9c2.8-1.7,5.8-0.4,8.8-0.9c1.7-0.3,3.7,0.8,5.2-0.9c-0.4,1.8-0.4,1.9-1.5,1.9
		C551.7,90,547.6,90,543.4,89.9z"/>
	<path class="st123" d="M586.3,383c-1.5-5.1-1.2-10.1,0-15.2C586.3,372.9,586.3,378,586.3,383z"/>
	<path class="st124" d="M500.5,154.8c-0.3,0.1-0.6,0.2-0.9,0.2c-0.1-5-0.2-9.9-0.2-14.9C501.8,144.8,499.8,149.9,500.5,154.8z"/>
	<path class="st125" d="M170.6,235.9c1.8-2,3.3,1.1,5,0.2c0,0.3,0,0.5-0.1,0.8c-0.7,0.1-1.3,0.2-2,0.3
		C172.5,236.8,171.6,236.3,170.6,235.9z"/>
	<path class="st126" d="M615.6,159.9c0.3-1.4-1.6-2.3-1-3.8c0,0,0.4-0.1,0.4-0.1l0.4,0.1c1,1.1,1.3,2.4,0.9,3.8
		C616.1,159.9,615.8,159.9,615.6,159.9z"/>
	<path class="st127" d="M615.4,156.1L615,156c0,0-0.4,0.1-0.4,0.1c0-1.3,0-2.6,0-3.8C616,153.3,615.7,154.7,615.4,156.1z"/>
	<path class="st128" d="M218.5,200.2c-0.3,1-0.7,1.9-1,2.9c-0.4-0.1-0.7-0.2-1.1-0.3C216.7,201.6,216,199.6,218.5,200.2z"/>
	<path class="st129" d="M216.4,202.8c0.4,0.1,0.7,0.2,1.1,0.3c-0.3,0.9-0.7,1.8-1,2.8c-0.2,0-0.5-0.1-0.7,0
		C215.8,204.7,214.9,203.5,216.4,202.8z"/>
	<path class="st130" d="M615.6,159.9c0.2,0,0.5,0,0.7,0c0.1,0.7,0.1,1.4,0.2,2.2C615.7,161.6,615.2,160.9,615.6,159.9z"/>
	<path class="st131" d="M593.6,160c-0.8,0-1.6,0-2.4,0C591.9,159.5,592.7,158.1,593.6,160z"/>
	<path class="st132" d="M249.4,215.7c-1-0.6-1.4-1.3,0.1-1.7C249.5,214.6,249.5,215.1,249.4,215.7z"/>
	<path class="st133" d="M215.5,208.1c-0.7,0.7-1.4,1.6-1.9-0.1C214.2,208,214.8,208,215.5,208.1z"/>
	<path class="st134" d="M215.7,205.8c0.2,0,0.5,0,0.7,0c0.3,1-0.1,1.7-0.9,2.2C215.6,207.3,215.7,206.5,215.7,205.8z"/>
	<path class="st135" d="M137.8,375.9c-0.6,1.5-1.3,1.1-2.1,0.1C136.4,375.9,137.1,375.9,137.8,375.9z"/>
	<path class="st136" d="M561.5,191c1.6,0.7,1.1,1.3,0,1.9C561.5,192.3,561.5,191.7,561.5,191z"/>
	<path class="st137" d="M230.4,198.9c-0.7,0-1.3-0.1-2-0.1c0.1-0.3,0.1-0.5,0.1-0.8C229.4,197.8,230,198.1,230.4,198.9z"/>
	<path class="st138" d="M228.5,198.1c0,0.3,0,0.5-0.1,0.8c-0.8,0-1.7,0.5-1.8-0.8C227.2,198,227.8,198.1,228.5,198.1z"/>
	<path class="st139" d="M618.4,162c-0.7,1.4-1.4,0.9-2,0C617.1,162,617.8,162,618.4,162z"/>
	<path class="st140" d="M204.5,223c0.3,0.1,0.5,0.3,0.8,0.4c-0.2,0.2-0.5,0.3-0.7,0.5C204.6,223.6,204.6,223.3,204.5,223z"/>
	<path class="st141" d="M240.5,200c-0.3,0.3-0.6,0.7-0.9,1C239.6,200.4,239.9,200.1,240.5,200z"/>
	<path class="st142" d="M208.6,206c-0.3,0.3-0.7,0.7-1,1C207.9,206.7,208.2,206.3,208.6,206z"/>
	<path class="st143" d="M257.6,241.4c-0.6-0.5-1-1,0-1.5C257.6,240.4,257.6,240.9,257.6,241.4z"/>
	<path class="st144" d="M199.6,217.1c0.2,0.1,0.5,0.2,0.7,0.2c-0.2,0.2-0.5,0.4-0.7,0.6C199.5,217.6,199.5,217.4,199.6,217.1z"/>
	<path class="st145" d="M637.4,173c-0.2-0.1-0.5-0.3-0.7-0.4c0.2-0.2,0.5-0.3,0.7-0.5C637.4,172.4,637.4,172.7,637.4,173z"/>
	<path class="st1" d="M455.5,173.9c7.6,1.4,13.6,4.9,16.9,12.2c0.2,1.1-0.3,2.4,1,3.1c0,0.9-0.1,1.9-0.1,2.8c-0.3,0-0.6,0-0.9,0
		c-1.6,0.2-1.8,1.8-2.6,2.7c-3.2,3.9-6.9,7-12.2,7.4c-34.8,0-69.6,0-104.5,0c-5.2-0.4-8.9-3.4-12-7.2c-1-1.2-1.3-3.2-3.5-3
		c-0.1-0.7-0.2-1.3-0.3-2c0.1-1.3,0.3-2.7,0.4-4c3.9-7,9.6-11.4,17.7-12C388.8,173.9,422.2,173.9,455.5,173.9z"/>
	<path class="st146" d="M284.4,303.8c2.1-9.7,8.4-14.8,18.1-14.8c3,0,6,0,9,0c-0.2,1.5,0.5,2.2,2,2.2c5.6,1.8,11.4,0.6,17,0.6
		c5.8,6.9,12.4,12.9,19,18.9c-4.4,9.2-7.4,18.9-10.9,28.4c-1.2,3.3-3.2,6.3-3.1,10c-16.8,5.8-33.8,10.8-50.9,15.6
		c0-9.2,0.1-18.4,0.1-27.7c2.1,0.6,4.2,0,6.2-0.2c2.5,2.1,5,1.4,7.1-0.4c1.6-1.3,2.2-3.3,1.5-5.4c-1-3-3.5-3.2-6-3.3
		c-2.2-2.9-5.2-4.5-8.9-4.8C284.5,316.5,284.4,310.2,284.4,303.8z"/>
	<path class="st147" d="M335.5,349.1c-0.1-3.7,1.8-6.8,3.1-10c3.5-9.5,6.5-19.2,10.9-28.4c7.5,4.5,15,9.2,23.3,12.2
		c8,2.8,16.1,5.4,24.7,5.3c5.4,1.3,10.7,1.3,16.1,0c15.9-1,30.2-6.8,43.5-15.1c1.4-0.9,2.8-1.7,4.4-2.1c0.7,1.6,1.5,3.2,2.1,4.9
		c3.2,8.4,5.8,17.1,9.7,25.3c0.7,2.6,1.5,5.2,2.2,7.8c-1.3,0-2.6,0-3.9,0.1c-1.3-1.6-3.1-0.9-4.7-0.9c-41.1,0-82.2,0-123.4,0
		c-1.7,0-3.7-0.7-5.2,0.9C337.4,349,336.4,349,335.5,349.1z"/>
	<path class="st146" d="M323.6,139c-0.1,0.3-0.2,0.5-0.2,0.8c-4,0.1-7.9,0.1-11.9,0.2c-1.8,1.2-1,3-1.1,4.5
		c-0.1,5.1-0.1,10.2-0.1,15.4c-11-0.1-19.2-5-24.1-14.7c-4.9-9.8-4.2-19.6,1.6-29c5.6-9.1,18.5-14.3,29.1-11.9
		c2.1,0.5,4.2,1.1,6.2,1.7c0.9,4.1,3.8,7,6.4,10c1.2,4.8,2.3,9.2-2.5,13.3C324.8,131.4,323.5,135.3,323.6,139z"/>
	<path class="st146" d="M473.3,341c-3.9-8.2-6.5-16.8-9.7-25.3c-0.6-1.7-1.4-3.3-2.1-4.9c7-6.3,13.9-12.7,19.9-20
		c6.3,1.3,12.4,2.5,17.3,7.6c8.1,8.4,10,18.9,5.6,28.3c-4.4,9.3-12.4,14.2-23.1,14.3C478.5,341,475.9,339.9,473.3,341z"/>
	<path class="st15" d="M472.4,192c0.3,0,0.6,0,0.9,0c0.6,11.9-4.4,18.9-14.7,21c-33.6,0-67.2,0-100.8,0c-1.5,0-3-0.4-4.3,0.8
		c-9.8-2.1-17.2-10.1-17-18.3c0-0.9-0.3-2,0.9-2.6c4.3,5.4,8.8,10.3,16.1,11.3c1.3,1.2,2.8,0.8,4.3,0.8c31.8,0,63.5,0,95.3,0
		c1.5,0,3,0.4,4.3-0.8C464.3,202.4,470.4,199.7,472.4,192z"/>
	<path class="st148" d="M387.7,244.7c5.7-6.8,11-13,16.1-19.2c1-1.2,1.9-1.7,3.1-0.2c5.3,6.3,10.6,12.6,16.3,19.4
		C411.2,244.7,399.9,244.7,387.7,244.7z"/>
	<path class="st149" d="M324.5,140.2c15.5-0.1,31-0.2,46.5-0.2c38.5,0,76.9,0,115.4,0c-1.5,1.6-3.5,0.9-5.2,0.9
		c-50.5,0-100.9,0-151.4,0C328.1,141,326.1,141.6,324.5,140.2z"/>
	<path class="st150" d="M422.4,307.9c-0.6,0-1.2,0-1.8,0c0-18.9,0.1-37.8,0.1-56.7c0.6,0,1.2-0.1,1.7-0.1c0,0-0.1,0-0.1,0
		C422.4,270,422.4,289,422.4,307.9z"/>
	<path class="st151" d="M353.5,213.8c1.2-1.2,2.8-0.8,4.3-0.8c33.6,0,67.2,0,100.8,0c-1.4,1.8-3.5,0.4-5.1,1.1c-32,0-64,0-95.9,0
		C356.2,214,354.9,213.9,353.5,213.8z"/>
	<path class="st152" d="M425.7,300.9c-2.5,1.9-0.5,4.8-1.5,7.1c0,0.1-0.2,0.2-0.4,0.2c-0.1,0-0.3-0.1-0.4-0.2c0-17.3,0-34.6,0-51.8
		c0-1.7,0.8-3.7-1.1-5c0,0,0.1,0,0.1,0c2.2-1.6,1.9,0.3,2.1,1.5c0.4,2.1-0.8,4.5,1,6.5C425.6,272.9,425.7,286.9,425.7,300.9z"/>
	<path class="st153" d="M455.5,173.9c-33.3,0-66.6,0-100,0c1.4-1.4,3.1-0.9,4.8-0.9c30.2,0,60.3,0,90.5,0
		C452.3,173,454.1,172.5,455.5,173.9z"/>
	<path class="st154" d="M357.5,214.2c32,0,64,0,95.9,0c-1.2,1.2-2.8,0.8-4.3,0.8c-29.1,0-58.3,0-87.4,0
		C360.3,215,358.8,215.4,357.5,214.2z"/>
	<path class="st155" d="M419.4,303.9c-0.7-1-1.4-2-2.1-3c0.1-14,0.1-28,0.2-41.9c1.6-0.9,0.4-3,1.8-4
		C419.4,271.3,419.4,287.6,419.4,303.9z"/>
	<path class="st156" d="M417.5,259c-0.1,14-0.1,28-0.2,41.9c-1.9,0.1-3.8,0.4-3.8-2.5c0.1-12.8,0.1-25.5,0.2-38.3
		c0-0.4,0.6-0.7,0.9-1.1c0,13.5,0,26.9,0,41c1.2-0.8,1.6-1,1.6-1.2c0.1-13.3,0.2-26.6,0.2-39.9C416.8,259,417.2,259,417.5,259z"/>
	<path class="st148" d="M426.5,259c0.7,0,1.3,0,2,0c0,13.6-0.1,27.3-0.1,40.9c-2.9-0.5-1.8-2.8-1.8-4.3
		C426.5,283.3,426.5,271.1,426.5,259z"/>
	<path class="st157" d="M416.4,259c-0.1,13.3-0.1,26.6-0.2,39.9c0,0.2-0.4,0.3-1.6,1.2c0-14.1,0-27.6,0-41
		C415.2,259,415.8,259,416.4,259z"/>
	<path class="st158" d="M432.5,259c2-0.2,2,1.2,2,2.6c-0.1,12.8-0.2,25.5-0.3,38.3c-2.8-0.6-1.7-2.9-1.7-4.5
		C432.5,283.2,432.5,271.1,432.5,259z"/>
	<path class="st159" d="M385.6,259.2c0.6,0,1.1-0.1,1.7-0.1c0,13.6,0,27.2,0,40.8c-2.5-0.4-1.8-2.4-1.8-3.9
		C385.5,283.7,385.6,271.4,385.6,259.2z"/>
	<path class="st160" d="M473.4,189.2c-1.4-0.7-0.8-2-1-3.1c2.2-6-1.8-15.2-8-18.8c-3.9-2.3-8.1-2.4-12.5-2.3
		c-2.4,0.1-4.8,0.5-7.6-0.6c15.1-4.9,29.6,3,30,17.8C474.5,184.4,475.8,187.1,473.4,189.2z"/>
	<path class="st161" d="M427.4,163.9c-0.7,1.3-2,1-3.1,1c-23.7,0-47.4-0.1-71-0.1c0.1-0.2,0.2-0.5,0.2-0.8
		C378.2,164,402.8,164,427.4,163.9z"/>
	<path class="st162" d="M427.4,163.9c-24.6,0-49.3,0.1-73.9,0.1c0-0.3,0-0.6,0-0.9c0.3-0.1,0.6-0.2,1-0.3c24.3,0.1,48.6,0.2,73,0.2
		C427.5,163.4,427.5,163.7,427.4,163.9z"/>
	<path class="st163" d="M427.5,163.1c-24.3-0.1-48.6-0.2-73-0.2c1.1-1.1,2.5-0.8,3.8-0.8c21.7,0,43.4,0,65.1,0
		C424.8,162.1,426.4,161.5,427.5,163.1z"/>
	<path class="st164" d="M419.4,303.9c0-16.3,0-32.6,0-48.9c0.4-1.3-0.6-3,1.3-3.8c0,18.9-0.1,37.8-0.1,56.7
		C418.9,307,419.8,305.2,419.4,303.9z"/>
	<path class="st165" d="M422.3,251.1c2,1.3,1.1,3.3,1.1,5c0.1,17.3,0,34.6,0,51.8c-0.4,0-0.7,0-1.1,0
		C422.4,289,422.4,270,422.3,251.1z"/>
	<path class="st166" d="M353.5,163.2c0,0.3,0,0.6,0,0.9c0,0.3-0.1,0.5-0.2,0.8c-9,0.6-17.7,11.6-15.6,21.1c-0.1,1.3-0.3,2.7-0.4,4
		C332.1,178.8,339.8,165.9,353.5,163.2z"/>
	<path class="st167" d="M262.7,165.1c0-0.3-0.1-0.7-0.1-1c14.5,0,28.9,0,43.4-0.1c1.5,0,3.3,0.9,4.5-0.9l0.3-0.1l0.3,0
		c0.3,1,0.6,2.1-0.5,2.9c-1-1.3-2.4-0.9-3.7-0.9C292.2,165,277.4,165,262.7,165.1z"/>
	<path class="st168" d="M311.1,163l-0.3,0c0,0-0.3,0.1-0.3,0.1c-16-0.1-31.9-0.1-47.9-0.2c-0.1-0.3,0-0.6,0.1-0.9
		c15.9,0,31.9,0,47.8,0c0.2,0,0.5,0,0.7,0C311.1,162.3,311.1,162.7,311.1,163z"/>
	<path class="st169" d="M426.5,259c0,12.2,0,24.4,0.1,36.6c0,1.6-1,3.8,1.8,4.3c0,0.3,0,0.7,0,1c-0.9,0-1.7,0-2.6,0
		c-0.1-14-0.2-27.9-0.3-41.9C425.8,259,426.2,259,426.5,259z"/>
	<path class="st170" d="M385.6,259.2c0,12.3-0.1,24.5-0.1,36.8c0,1.5-0.7,3.5,1.8,3.9c0,0.3,0,0.7,0,1c-1.8,0.1-2.8-0.6-2.8-2.5
		c0.1-12.7,0.1-25.4,0.2-38.2C384.7,259.8,385.3,259.5,385.6,259.2z"/>
	<path class="st171" d="M432.5,259c0,12.1,0,24.3,0,36.4c0,1.6-1,3.9,1.7,4.5c-1.9,1.9-2.7,0.7-2.7-1.2c0-13,0.1-26.1,0.2-39.1
		C431.8,259.4,432.3,259.2,432.5,259z"/>
	<path class="st172" d="M387.3,300.9c0-0.3,0-0.7,0-1c0-13.6,0-27.2,0-40.8c1.3,0.6,1.2,1.9,1.2,3c0,11.9,0,23.9,0,35.8
		C388.5,299,388.6,300.2,387.3,300.9z"/>
	<path class="st173" d="M428.3,300.9c0-0.3,0-0.7,0-1c0-13.6,0.1-27.3,0.1-40.9c1.3,0.9,1,2.3,1,3.6c0,11.6,0,23.2,0,34.7
		C429.5,298.6,429.8,300.1,428.3,300.9z"/>
	<path class="st174" d="M440.6,280c-0.8,1.9,1.1,5.5-1.5,5.5c-3,0-1.5-3.7-1.5-5.7c0-1.9-1.4-5.4,1.2-5.4
		C442,274.4,439.7,278.1,440.6,280z"/>
	<path class="st175" d="M396.5,280.1c0-0.7-0.1-1.1,0-1.4c0.4-1.6-1.1-4.4,1.5-4.4c2.6,0,1.1,2.9,1.5,4.4c0.1,0.3,0.1,0.7,0,1
		c-0.6,2,1.4,5.8-1.5,5.8C395,285.5,397.3,281.7,396.5,280.1z"/>
	<path class="st176" d="M410.4,285.8c-2.1,0.4-3-0.4-2.9-2.6c0.1-3.1,0.1-6.1,0.1-9.2c2.2-0.4,3,0.7,2.9,2.8
		C410.4,279.8,410.4,282.8,410.4,285.8z"/>
	<path class="st177" d="M353.6,204.2c-7.3-1-11.9-5.9-16.1-11.3c0.1-0.3,0.2-0.6,0.2-1c2.2-0.3,2.5,1.8,3.5,3
		c3.2,3.8,6.8,6.8,12,7.2c0.1,0.3,0.2,0.5,0.3,0.8c0,0.3,0,0.5,0,0.8L353.6,204.2z"/>
	<path class="st178" d="M367.7,285.8c-2.4-3.5-0.6-7.3-1-10.9c-0.1-1.1,0.7-1.8,1.9-1.8c1.2,0,2,0.7,1.9,1.8c-0.4,3.6,1.4,7.5-1,11
		c0-3.8,0.7-7.7-0.9-11.4C367,278.2,367.7,282,367.7,285.8z"/>
	<path class="st179" d="M375.5,273.9c0,3.1,0,6.1,0,9.2c0,1.3,0.2,2.7-1.8,2.7c-0.1-2.8-0.2-5.5-0.1-8.3
		C373.6,276.1,373,274.1,375.5,273.9z"/>
	<path class="st180" d="M367.7,285.8c0-3.8-0.7-7.6,0.9-11.4c1.6,3.7,0.9,7.6,0.9,11.4C368.8,285.8,368.2,285.8,367.7,285.8z"/>
	<path class="st181" d="M381.4,274.1c0,3.1,0.1,6.1,0.1,9.2c0,1.3,0.2,2.7-1.8,2.6c0-2.5-0.2-5-0.1-7.4
		C379.7,276.8,378.4,274.5,381.4,274.1z"/>
	<path class="st182" d="M404.4,285.8c-1.9,0.1-2-1.2-2-2.6c0-3.1,0.1-6.1,0.2-9.2c1.9,0.1,1.9,1.5,1.9,2.9
		C404.5,279.9,404.5,282.8,404.4,285.8z"/>
	<path class="st183" d="M445.4,285.8c-2,0.3-2-1.1-1.9-2.5c0-3.1,0.1-6.2,0.1-9.2c1.8,0.2,1.9,1.5,1.9,2.9
		C445.5,279.8,445.4,282.8,445.4,285.8z"/>
	<path class="st184" d="M393.3,274c0,3.6,0,7.3,0.1,10.9C390.7,282.3,390.6,276.8,393.3,274z"/>
	<path class="st185" d="M311.2,162c-0.2,0-0.5,0-0.7,0c0-0.7,0-1.3,0-2c0-5.1,0-10.2,0.1-15.4c0-1.5-0.7-3.4,1.1-4.5
		C311.5,147.4,311.3,154.7,311.2,162z"/>
	<path class="st186" d="M330.4,291.8c-5.7-0.1-11.4,1.2-17-0.6c5.4-0.7,10.9,0.8,16.3-0.8C330.5,290.5,330.4,291.2,330.4,291.8z"/>
	<path class="st187" d="M393.3,274c-2.7,2.8-2.6,8.3,0.1,10.9c-0.8,1.5-2.3,1.4-2.5,0.2c-0.6-3.7-0.8-7.6,0.1-11.3
		C391.2,273,392.6,272.8,393.3,274z"/>
	<path class="st188" d="M410.4,285.8c0-3,0-6,0.1-9c0.1-2.1-0.7-3.2-2.9-2.8c1.4-1.8,3.4-1.6,3.6,0.4
		C411.5,278.2,412.6,282.2,410.4,285.8z"/>
	<path class="st189" d="M413.6,328.1c-5.4,1.3-10.7,1.3-16.1,0C402.8,328.1,408.2,328.1,413.6,328.1z"/>
	<path class="st190" d="M445.4,285.8c0-3,0-5.9,0.1-8.9c0-1.4-0.1-2.7-1.9-2.9c1.2-1.5,2.7-1,2.7,0.5
		C446.3,278.3,447.6,282.2,445.4,285.8z"/>
	<path class="st191" d="M381.4,274.1c-3,0.4-1.7,2.7-1.8,4.3c-0.2,2.5,0,5,0.1,7.4c-2.3-3.6-0.9-7.6-0.9-11.4
		C378.7,272.9,380.2,272.4,381.4,274.1z"/>
	<path class="st192" d="M404.4,285.8c0-3,0-6,0.1-8.9c0-1.4,0-2.7-1.9-2.9c1.2-1.6,2.7-1.1,2.7,0.5
		C405.3,278.3,406.6,282.2,404.4,285.8z"/>
	<path class="st193" d="M375.5,273.9c-2.6,0.2-2,2.1-2,3.6c0,2.8,0.1,5.5,0.1,8.3c-2.4-3.6-0.9-7.6-0.9-11.4
		C372.7,272.8,374.3,272.5,375.5,273.9z"/>
	<path class="st3" d="M329.7,116.1c-2.6-3.1-5.5-5.9-6.4-10c2.1-9.9,6.5-12.2,18.1-9.2c5.8,7.4,4.5,15.5-2.9,18.6
		C335.6,116.8,332.6,115.6,329.7,116.1z"/>
	<path class="st194" d="M433.3,83c4.4-0.6,6.3,1.8,6.4,6c0.1,4.1-2.5,6.3-7.7,6.1c-3.4-0.1-5.3-2.5-5.4-6
		C426.3,84.6,428.2,83,433.3,83z"/>
	<path class="st195" d="M389.3,99c5.6,0,7.3,1.6,7.2,6.8c-0.1,4.7-2.8,7.4-7.4,7.2c-3.7-0.1-6.9-3.7-6.8-7.7
		C382.4,101.2,384.8,99,389.3,99z M383.4,105.7c0.8,3.3,2.8,5.8,6.1,5.7c3.3-0.1,6.1-2,5.9-5.9c-0.1-3.5-2.2-5.4-5.7-5.4
		C386,100.1,384.1,102.1,383.4,105.7z"/>
	<path class="st196" d="M668.3,234.1c1.4,4,3.8,5.9,8,3.6c0,1.7-0.1,3.3,0.2,4.9c0.8,5-0.9,6.9-6.2,6.5c-3.6-0.3-5.4-1.2-4.7-4.9
		C666.1,240.8,663.4,236.4,668.3,234.1z"/>
	<path class="st197" d="M702.5,301.2c-1.3-0.2-2.6-0.3-4-0.5c-0.9-5.2-1.5-10.4-2.9-15.4c-1.3-4.4-1.4-8.7-0.8-13.1
		c2.9,7.6,5.7,15.3,8.8,22.8C704.6,297.5,704.2,299.4,702.5,301.2z"/>
	<path class="st198" d="M673.9,266.5c-1.6,1.8-3.3,2.1-5.1,0.3c-3.3-2.9-5.6-5.9-0.5-9.3c0.3-0.2,0.2-0.9,0.3-1.4
		c2.2-1.2,4.2-1,5.9,1C678.8,260.5,678.2,263.6,673.9,266.5z"/>
	<path class="st199" d="M673.9,266.5c4.3-2.9,4.9-6,0.5-9.4c3.1-1.8,6.1-1.8,8.2,1.3c1.5,2.3,1.7,5.2-0.4,7.3
		C679.9,268,676.9,268.9,673.9,266.5z"/>
	<path class="st200" d="M668.5,256.2c-0.1,0.5,0,1.2-0.3,1.4c-5,3.4-2.8,6.4,0.5,9.3c-2.9,2.1-5.2,1.2-7.4-1.2
		c-1.4-1.6-2.7-3.2-1.6-5.3C661.7,257,664.5,255.2,668.5,256.2z"/>
	<path class="st146" d="M156.2,374.1c0.2-0.2,0.3-0.5,0.3-0.8c2.8-0.9,2.9-2.4,1.1-4.4c0.1-0.3,0-0.7-0.1-1
		c2.1-10.4,4.1-20.8,6.2-31.2c1.6-7.9,3.2-15.9,4.8-23.8c0.7,0.4,1.3,0.7,2,1.1c2.8,18.5,7.1,36.7,11.3,55c-0.2,2.3-0.7,4.7,2.7,5.1
		c-0.3,5.9-0.7,11.8-1,17.7c-8.6,0-17.1,0-25.7,0C156.4,385.9,156.8,380,156.2,374.1z"/>
	<path class="st201" d="M158.8,260c2.6,3-0.2,5.8-0.3,8.7c-0.1,1.8-0.6,3.5-0.9,5.2c-1,0.1-2,0.3-3.1,0.4c-1.8-2.4-4.5-4.5-5.1-7.1
		c-0.7-3.2,4.6-2.2,5.4-5.2C156.6,262.2,158,261.6,158.8,260z"/>
	<path class="st202" d="M163.5,273.9c4.6,0,9.2,0,13.9,0.1c0.4,1.3-0.2,2.7-1.4,2.7c-4.4,0.3-8.9,1.1-13.1-0.8
		C160.7,274.9,163.1,274.5,163.5,273.9z"/>
	<path class="st203" d="M177.8,287.1c1.3,4.5-1.4,7.1-4.9,7.5c-3.5,0.3-5.9-2.5-6.5-6.2c-0.1-0.8-0.2-1.7,0-2.5
		c0.4-1.3-1.2-3.9,1.6-3.7c1.1,0.1-0.7,1.8-0.7,3.1c0.1,3.3,0.9,6.1,4.2,7.2C176.1,293.9,176.3,289.8,177.8,287.1z"/>
	<path class="st204" d="M170.4,314c-0.7-0.4-1.3-0.7-2-1.1c-1.7-5.4-0.5-11.5-2.9-16.8C169.7,301.2,168.8,308,170.4,314z"/>
	<path class="st205" d="M157.4,367.9c0.2,0.3,0.2,0.6,0.1,1c-5.4-0.4-10.8,1-16.1-0.8C146.8,368,152.1,367.9,157.4,367.9z"/>
	<path class="st146" d="M608.7,174c1.9,1.8,4.3,2.7,5.9,5.1c6.1,9,5.3,15.2-3.1,23.9c-5.1,2.2-10.4,3.7-16,2.9c-3.3-1-5.1-4-7.8-5.9
		c-1.9-4.4-3.9-8.9-3.2-13.9c0.9-5.2,4.9-8.4,8-12.1C597.9,173,603.3,174.2,608.7,174z"/>
	<path class="st206" d="M606.4,225.2c-1.2,1.7-1.3,4.9-4.8,3.6c-0.5-2.6-5.2-6.1,1.5-7.3c0,0,0-0.9-0.1-1.3
		c-0.5-1.2-2.6-2.1-0.5-3.6c1.7-1.3,3.4-0.7,5,0.2C608,219.7,606.5,222.4,606.4,225.2z"/>
	<path class="st41" d="M582.5,217c-6.9,5.4-4.7,7.1-12-3C574.1,210.7,577.7,211.6,582.5,217z"/>
	<path class="st207" d="M608.7,174c-5.4,0.2-10.8-1-16.2,0C597.9,170.7,603.3,171,608.7,174z"/>
	<path class="st208" d="M584.4,186.1c-0.6,5,1.3,9.5,3.2,13.9c-0.2,0.2-0.4,0.4-0.6,0.7c-2.7-3.2-3.9-7.1-4.6-11.2
		C582.2,187.9,582.6,186.5,584.4,186.1z"/>
	<path class="st209" d="M595.4,205.9c5.7,0.8,10.9-0.8,16-2.9C607.2,207.4,601.1,208.5,595.4,205.9z"/>
	<path class="st210" d="M587.5,227c-1-0.4-1-1.2-1-2C587.6,225.3,587.5,226.1,587.5,227z"/>
	<path class="st0" d="M335.5,349.1c1-0.1,2-0.2,3-0.2c44.4,0,88.8,0,133.2,0c1.3,0,2.6,0,3.9-0.1c8.6,4.4,18.2,5.8,27.2,9
		c4.8,1.7,9.8,2.9,14.7,4.4c3.4,0.9,6.5,2.7,10,3c0,8.9,0,17.8,0.1,26.8l0.1,0.1c-0.7-0.1-1.4-0.1-2.1-0.2c-1.8-1.5-3.8-0.8-5.8-0.8
		c-73.5,0-147,0-220.6,0c-10.6,0-10.5,0-10.6-10.3c0-1.9,0.8-4-1-5.6c-0.3,0-0.5,0-0.8-0.1c-0.5-1.7-2.5-1.7-3.3-3
		c0.1-2.3,0.2-4.6,0.3-6.9c0.3,0,0.6-0.1,0.8-0.3C301.6,359.9,318.7,354.9,335.5,349.1z"/>
	<path class="st211" d="M527.4,365.1c-3.6-0.3-6.7-2.1-10-3c7.2-5.5,7.2-5.5,3.1-13.4c-4.7-8.9-4.7-8.9,5.1-9.9
		c0.6,0.4,1.2,0.7,1.8,1.1c0.1,8.3,0.1,16.6,0.2,24.9L527.4,365.1z"/>
	<path class="st212" d="M525.6,320.1c-0.1,6-0.1,12-0.2,17.9C524,332,523.7,326,525.6,320.1z"/>
	<path class="st213" d="M531.6,338.2c-0.1-6-0.1-12.1-0.2-18.1C533.3,326.1,532.9,332.2,531.6,338.2z"/>
	<path class="st150" d="M226.6,242c-1.4,0.1-2.7-0.2-3.8-1c-2.8-2.7-5.3-5.6-7.2-9c0.1-9.9,4.2-14.2,14.2-14.9c0.8-0.1,1.6-0.1,2-1
		c5.1,1.4,8.6,4.5,9.8,9.8c-1.6,2.1-1.5,4.1,0,6.2c-1.1,5.5-4.7,8.5-9.9,10C229.9,240.3,228.3,240.6,226.6,242z"/>
	<path class="st214" d="M231.7,216c-0.4,0.9-1.2,1-2,1c-10,0.7-14.1,5-14.2,14.9c-0.3,0.3-0.6,0.7-0.9,1c-1.8-12.5,6.3-18.6,15-18
		C230.5,215,231.4,215.1,231.7,216z"/>
	<path class="st215" d="M214.7,233c0.3-0.3,0.6-0.7,0.9-1c1.9,3.4,4.4,6.3,7.2,9c-2.9,1.5-3.9-1.1-5.2-2.5
		C216.3,236.9,215.6,234.8,214.7,233z"/>
	<path class="st216" d="M241.5,232c-1.5-2.1-1.5-4.1,0-6.2C241.6,227.9,241.6,230,241.5,232z"/>
	<path class="st217" d="M226.6,242c1.7-1.3,3.4-1.6,5.1,0C229.9,242,228.3,242,226.6,242z"/>
	<path class="st218" d="M283.3,371.9c0.8,1.3,2.8,1.3,3.3,3c0.4,5.6-1.4,11.4,0.9,17l-0.1,0.2c0,0.3,0,0.5-0.1,0.8
		c-2.6,0-5.2,0-7.9,0c0-0.4-0.1-0.7-0.1-1.1c0-5.6,0-11.2,0-16.9c0.8-1,1.5-2,2.3-3C282.3,371.9,282.8,371.9,283.3,371.9z"/>
	<path class="st219" d="M279.4,391.8c0,0.4,0.1,0.7,0.1,1.1c-20.7,0-41.3,0.1-62,0.1c-1.3,0-2.7-0.1-4-0.1c0-0.2,0-0.5,0-0.7
		c19.3-0.1,38.7-0.1,58-0.2c2.3,0,4.6-0.1,6.9-0.2c0,0,0.5,0.1,0.5,0.1L279.4,391.8z"/>
	<path class="st220" d="M213.5,392.1c0,0.2,0,0.5,0,0.7c-6.6-0.4-13.2,1-19.8-0.7c6.2-0.1,12.5-0.2,18.7-0.4
		C212.8,391.9,213.2,392,213.5,392.1z"/>
	<path class="st221" d="M279.4,391.8l-0.5,0.1c0,0-0.5-0.1-0.5-0.1c0.6-5.6-1-11.3,1-16.9C279.4,380.5,279.4,386.2,279.4,391.8z"/>
	<path class="st82" d="M702.1,307c-0.5,2.3,2.3,4.8-0.4,6.9c-1.2-3.5-2-7.1-2.3-10.8c1.7-0.5,2.2,0.4,2.2,1.8
		C701.4,305.7,701.2,306.5,702.1,307z"/>
	<path class="st222" d="M210.5,259.1c0.8,2.4,3.9,3.7,2.9,6.8c-3.6,1.4-4.4-2-5.5-3.7C206.6,260.2,209.3,259.9,210.5,259.1z"/>
	<path class="st223" d="M158.8,260c-0.9,1.6-2.2,2.3-4,2c-0.6-3.7-0.9-7.3,2.6-10C157.1,254.8,158.4,257.3,158.8,260z"/>
	<path class="st224" d="M170.8,252.6c-1.2,2.3-2,5.8-4.2,5.5c-2-0.2-4.9-3.1-5.3-5.2c-0.4-2.4,2.6-5.1,4.8-5.5
		C168.8,247,169.2,250.6,170.8,252.6z M168.7,252.7c-0.4-1.3-1-3.1-2.4-3.3c-1.7-0.1-3.2,1.7-3.1,3.1c0.1,1.4,1.6,3.1,3.3,3.2
		C167.8,255.8,168.2,254.1,168.7,252.7z"/>
	<path class="st225" d="M170.6,235.9c1,0.4,1.9,0.9,2.9,1.3c-1,1.1-2,1.2-3-0.1C170.6,236.7,170.6,236.3,170.6,235.9z"/>
	<path class="st226" d="M287.4,392.8c0-0.3,0.1-0.5,0.1-0.8c1.8,0,3.7-0.1,5.5-0.1c71.8,0,143.7,0,215.5,0c5.7,0,11.3-0.1,17-0.2
		c0.7,0.1,1.4,0.1,2.1,0.2c0,0.3,0,0.6,0,0.9C447.5,392.9,367.4,392.8,287.4,392.8z"/>
	<path class="st227" d="M147.4,392.1c-6.5,1.3-13,1.3-19.6,0C134.3,392.1,140.8,392.1,147.4,392.1z"/>
	<path class="st228" d="M152.6,391.7c-1.7,0-3.3,0-5,0c0.1-0.3,0.2-0.6,0.4-0.9c1-1.2,0.9-3.9,2.7-3.6
		C152.5,387.6,152.6,389.9,152.6,391.7z"/>
	<path class="st229" d="M193.5,391.8c-2,0-4,0-5.9,0c0.3-0.6,0.8-1.1,0.9-1.7c0.2-1.4,0.5-2.8,2-2.9c1.4-0.1,1.2,1.7,2,2.5
		C192.9,390.2,193.2,391,193.5,391.8z"/>
	<path class="st230" d="M202.6,377.1c1.7,0,3.8-1.1,4.8,0.9c0.7,1.3-0.4,2.5-1.7,3.1C203.4,380.7,202.2,379.5,202.6,377.1z"/>
	<path class="st6" d="M526.3,218.7c-4.3,0.8-5.8-3.3-8.7-4.9c-1.3-5.4-2.4-10.7,2.7-15c1.8-1.6,3.8-2.2,6-2.6
		C528.3,203.7,527.6,211.2,526.3,218.7z"/>
	<path class="st231" d="M293.4,212.8c-2.2,3-4.7,5.7-8.8,5.9c-3.1-7.5-2.5-15,0.1-22.5C293.7,199.5,296.1,204.1,293.4,212.8z"/>
	<path class="st54" d="M657.3,375.2c0,3.5,0.1,7,0.1,10.5c-3.3,0-5.6-2-5.7-4.9C651.6,377.6,654,375.7,657.3,375.2z"/>
	<path class="st232" d="M527.4,391.9c0-8.9,0-17.8-0.1-26.8c0,0,0.2-0.2,0.2-0.2c0.3,0.1,0.5,0.1,0.8,0.1c0,7.8,0.1,15.6,0.1,23.3
		C528.5,389.6,528.9,391,527.4,391.9z"/>
	<path class="st233" d="M528.4,365c-0.3,0-0.5,0-0.8-0.1c-0.1-8.3-0.1-16.6-0.2-24.9c2.1,1.5,1,3.7,1.1,5.5
		C528.6,352,528.5,358.5,528.4,365z"/>
	<path class="st234" d="M408.4,64.3c-1.1,5.1-4.8,7.5-9.6,7.7c-5.2,0.2-8-3.3-9.8-7.8c-0.8-1.9-0.7-3.5,0.6-5
		c5.4,0.9,10.6,2.2,14.6,6.2C406.3,67.4,406.9,64.1,408.4,64.3z"/>
	<path class="st84" d="M693.7,392.1c10.5,0,21,0,31.6,0c-4.1,1.7-8.4,0.8-12.6,0.7C706.3,392.7,699.9,393.8,693.7,392.1z"/>
	<path class="st235" d="M262.6,162.9c16,0.1,31.9,0.1,47.9,0.2c-1.2,1.8-3,0.9-4.5,0.9c-14.5,0.1-28.9,0.1-43.4,0.1
		C262.6,163.7,262.6,163.3,262.6,162.9z"/>
	<path class="st53" d="M483.5,129.1c-5,3.1-8.9,2.8-12.4-0.7c-3.8-3.8-4.4-7.6-1.8-11.5c3.1-4.8,6.5-6,12.2-4
		C479.9,118.6,477.4,124.4,483.5,129.1z"/>
	<path class="st236" d="M699.4,303.1c0.3,3.7,1.1,7.3,2.3,10.8c-5.8,2.3-7.2,1.7-8.4-3.7c-0.3-1.3-0.6-2.5-0.8-3.8
		c-0.2-1.1-0.4-2.1-0.7-3.3C694.5,303.1,697,303.1,699.4,303.1z"/>
	<path class="st237" d="M284.5,364.7c-0.3,0.2-0.5,0.2-0.8,0.3c0-20.3-0.1-40.7-0.1-61c0.3,0,0.6-0.1,0.8-0.2
		c0.1,6.4,0.1,12.8,0.2,19.2c0,4.7,0,9.4,0,14.1C284.6,346.3,284.5,355.5,284.5,364.7z"/>
	<path class="st238" d="M211.5,152.9c-4,0.1-8,0.2-11.9,0.3c-1.7-1.8-0.7-3.9-0.8-5.9c4-0.2,5.8-2.7,6.8-6.1c5-1.1,6.9,0.9,6.1,5.9
		C211.3,148.9,211.5,150.9,211.5,152.9z"/>
	<path class="st239" d="M205.5,141.1c-1,3.5-2.9,6-6.8,6.1C198.4,140.8,198.4,140.8,205.5,141.1z"/>
	<path class="st236" d="M654.7,311c-0.2,5.6-4.2,3.8-7.3,3.8c0-4,0.3-7.9,1.7-11.7c2.2,0,4.5,0,6.9,0
		C655.5,305.8,655.1,308.4,654.7,311z"/>
	<path class="st240" d="M96.5,205c0.6-1.6-1.2-3.8,0.8-4.8c1.6-0.8,3.5-0.3,4.4,1.8C101.9,206.2,98.6,204.6,96.5,205z"/>
	<path class="st241" d="M353.5,203c-0.1-0.3-0.2-0.6-0.3-0.8c34.8,0,69.6,0,104.5,0c-0.1,0.3-0.2,0.5-0.2,0.8
		C422.8,203,388.2,203,353.5,203z"/>
	<path class="st242" d="M457.5,203c0.1-0.3,0.2-0.5,0.2-0.8c5.3-0.4,9-3.5,12.2-7.4c0.8-1,1-2.5,2.6-2.7c-2.1,7.7-8.2,10.4-15,12.2
		l0.1-0.4C457.5,203.5,457.5,203.2,457.5,203z"/>
	<path class="st53" d="M293.5,327.7c2.5,0.2,5,0.4,6,3.3c0.7,2.1,0.1,4.1-1.5,5.4c-2.1,1.7-4.6,2.5-7.1,0.4
		C288.3,332,288.9,330.2,293.5,327.7z"/>
	<path class="st243" d="M293.5,327.7c-4.6,2.5-5.1,4.3-2.7,9.1c-2.1,0.2-4.1,0.8-6.2,0.2c0-4.7,0-9.4,0-14.1
		C288.2,323.2,291.2,324.8,293.5,327.7z"/>
	<path class="st244" d="M471.6,348.9c-44.4,0-88.8,0-133.2,0c1.5-1.6,3.4-0.9,5.2-0.9c41.1,0,82.2,0,123.4,0
		C468.5,347.9,470.3,347.3,471.6,348.9z"/>
	<path class="st245" d="M457.4,204.2c-1.3,1.2-2.8,0.8-4.3,0.8c-31.8,0-63.5,0-95.3,0c-1.5,0-3,0.4-4.3-0.8c0,0-0.1-0.4-0.1-0.4
		c12.1,0.1,24.2,0.2,36.3,0.2c22.6,0,45.1-0.1,67.7-0.2L457.4,204.2z"/>
	<path class="st246" d="M457.5,203.8c-22.6,0.1-45.1,0.2-67.7,0.2c-12.1,0-24.2-0.1-36.3-0.2c0-0.3,0-0.5,0-0.8c34.7,0,69.3,0,104,0
		C457.5,203.2,457.5,203.5,457.5,203.8z"/>
	<path class="st247" d="M383.4,105.7c0.7-3.7,2.7-5.7,6.3-5.7c3.6,0,5.6,2,5.7,5.4c0.2,3.9-2.6,5.8-5.9,5.9
		C386.2,111.5,384.2,109,383.4,105.7z"/>
	<path class="st248" d="M525.4,391.7c-5.7,0.1-11.3,0.2-17,0.2c-71.8,0-143.7,0-215.5,0c-1.8,0-3.7,0.1-5.5,0.1c0,0,0.1-0.2,0.1-0.2
		c0-5.6-0.1-11.3-0.1-16.9c1.8,1.6,1,3.7,1,5.6c0.1,10.3,0.1,10.3,10.6,10.3c73.5,0,147,0,220.6,0
		C521.6,390.9,523.7,390.3,525.4,391.7z"/>
	<path class="st249" d="M287.5,374.9c0,5.6,0.1,11.3,0.1,16.9c-2.3-5.5-0.5-11.3-0.9-17C286.9,374.9,287.2,374.9,287.5,374.9z"/>
	<path class="st250" d="M168.7,252.7c-0.5,1.4-0.9,3.1-2.3,3c-1.7-0.1-3.2-1.7-3.3-3.2c-0.1-1.4,1.4-3.3,3.1-3.1
		C167.6,249.6,168.3,251.4,168.7,252.7z"/>
</g>
</svg>
