 <!--MADE BY MACHINES FOR HUMAN EYES-->
                    <svg viewBox="0 0 1000 1000" width="1000px" height="1000px" style="background:#f0f2f5;" class="SkyChartHolder" id="60b5e300deee44b4a98cd1282eea02fd" xmlns="http://www.w3.org/2000/svg" xmlns:xlink="http://www.w3.org/1999/xlink">
                        <g x="0" y="0"  width="1000" height="1000" ><style><![CDATA[.Bd{fill:#fff}.Be{fill:#fbfcfc}.Bf{fill:#fdfeff}.Bg{fill:#f5992b}.Bh{fill:#be792a}.Bi{fill:#9d6728}.Bj{fill:#f5992c}.Bk{fill:#f7992c}.Bl{fill:#f9a037}.Bm{fill:#f69a2d}.Bn{fill:#9e672c}.Bo{fill:#c4a884}.Bp{fill:#cbae8b}.Bq{fill:#ebddd0}]]></style><g class="Bd"><path d="M36.27 990.72l2.92 1.07c3.87 1.28 7.33.21 10.65-1.81 2.23-1.23 4.57-2.1 7.09-2.49 9.9-.37 19.79-.58 29.68-.44l-61.24-33.51c-.39 10.24-.67 20.57 2.92 30.44 1.31 3.82 4.58 5.37 7.98 6.75zm9.11-385.36c-1.43 12.35-4.26 24.15-8.17 36-6.81 20.65-12.74 40.98-16.04 62.42-2.41 19.61-3.78 39.37-3.72 59.13.05 19.1 1.16 38.17 2.02 57.25.24 5.28.36 10.56.47 15.85 11.34-11.16 16-27.45 26.19-39.52.88-1.04.03-3.19-.34-4.77l-.4-186.34zm-.06-19.4l-.01-5.24c-.03-6.53.87-13.19-1.72-19.52a42.43 42.43 0 0 1-1.75-1.47c.03 2.57.11 5.14.3 7.7 1.1 6.17 2.4 12.33 3.18 18.53zm2.79-266.39l.02-174.93c0-11.15-1.01-21.58-13.12-26.7-1.29-.63-2.6-1.12-4.01-1.42-7.91-.84-15.1-2.33-21.56-4.44 1.86 14.11 2.8 28.35 2.81 42.48.01 13.8-.81 27.57-2.28 41.29.96.75 1.86 1.54 2.68 2.36 6.65 6.65 9.04 14.7 9.85 23.79 2.09 23.28-6.68 45.94-10.79 68.6-3.23 31.72-1.37 64-1.62 95.81l.18 47.04c13.56.35 25.3 10.43 29.74 22.93 7.56-5.16 8-14.24 8.04-23.48l.06-113.34zM566.91 6.44l-1.78-.2c-3.48 2.81-5.82 6.51-4.54 12.9.55 1.21 1.23 2.33 2.11 3.34 4.87 11.89 14.35 14 26.02 13.41 13.94-.7 27.94-.16 41.91-.17l172.62.06c9.69.02 18.66-1.39 22.3-11.53.17-.47.35-.91.53-1.35-86.6.74-173.07-7.99-259.18-16.46zm414.74 165.19l-.04 43.14a291.06 291.06 0 0 1 1.02-9.26l-.78 5.79c2.29-17.06 2.76-34.32 4.88-51.41 1.67-13.5 3.42-28 7.7-41.43-.13.19-.28.37-.41.57-10.62 5.34-13.39 14.24-12.52 25.5.7 8.98.14 18.06.14 27.1z"/><path d="M9.97 195.84c.96.75 1.86 1.54 2.68 2.36 6.65 6.65 9.04 14.7 9.85 23.79 2.09 23.28-6.68 45.94-10.79 68.6-3.23 31.72-1.37 64-1.62 95.81l.18 47.04c12.64.33 23.71 9.12 28.74 20.44 3.19-1.85 4.21-5.88 4.95-10.03.71-4 .36-8.19.36-12.3l.23-287.34c.05-11.28-1.94-20.05-12.57-25.32-1.68-1.54.94-2.35.63-3.66-1.33.96-2.07 2.44-3.1 3.66-7.03.61-13.49.13-19.39-1.23a328.32 328.32 0 0 1 2.12 36.88c.01 13.8-.81 27.57-2.28 41.29zm31.9 365.03l.28 6.56.98 5.3c.17-3.98.9-8.07-1.25-11.85zm1.33 221.27l-.09-162.71c-1.52 7.38-3.5 14.64-5.9 21.92-6.81 20.65-12.74 40.98-16.04 62.42-2.41 19.61-3.78 39.37-3.72 59.13.05 19.1 1.16 38.17 2.02 57.25l.41 12.87c3.37-3.65 5.81-8.11 7.14-13.38 2.7-10.69 14.73-13.94 17.33-24.22-2.27-4.26-1.13-8.87-1.14-13.29zm299.19 177.82c-4.74-3.37-10.23-2.52-15.48-2.53l-198.06-.02c-4.49 0-9.04-.3-13.4 1.3-3.8 1.57-4.57 5.38-6.32 8.49-19.68 4.47-39.43 3.77-59.23.48-3.03-3.89-1.89-8.5-2.15-12.87-.57-9.66 1.19-19.43-1.33-29.01-.6-1.11-1.27-2.4-2.42-2.69-7.55-1.94-14.81-6.29-20.91-12.05-.02 8.38-.55 16.7-2 24.83l1.24 30c-1.41 7.55.57 15.3 4.73 22.13 3.26 1.71 7.15 2.15 9.88 4.94 4.12 1.84 8.23 1.86 12.35 0l4.94-2.47c17.28-2.11 34.57-2.11 51.85 0 9.67 5.96 13.53 5.11 22.22-4.94 2.17-3.91.57-9.32 4.94-12.35 1.43-1.78 1.77-4.18 3.3-5.9 3.14-1.17 6.45-.52 9.72-.52l179-.01c4.51 0 9.13.49 13.46-1.04 2.43-.86 6.18-1.51 3.69-5.78zM0 33.59c9.27-3.81 14.89-10.36 18.49-18.66L0 33.59z"/><path d="M28.24.55c-4.16 3.46-7.04 7.78-9.28 13.3-.15.37-.31.72-.46 1.08L32.4.9 28.24.55zm972.87 901.54c2.82-11.84-2.96-16.53-13.6-17.77-4.81-1.71-2.78-6.84-4.94-9.88-1.84-14.37 2.35-25.44 13.7-32.81.48-9.8 1.38-19.57 2.36-29.34-4.87 6.81-11 12.55-17.48 17.9-6.93 5.73-11.84 12.44-13.92 21.15-.07 17.24-2.15 34.55 1.33 51.71 1.84 3.31 5.66 3.72 8.41 5.71 4.16 19.32 2.37 38.76.99 58.24-1.63 2.15-3.96 2.65-6.47 2.68l-45.08.03c-3.36-.03-6.46-.65-8.72-3.42-4.42-10.36-13.71-8.87-22.23-8.88l-333.32-.02c-4.48.18-9.03-.25-13.23 1.87-3.18 1.9-3.61 5.58-5.39 8.39-18.98 4.55-38.19 1.64-57.35 1.63-1.1-.51-2.06-1.2-2.96-2.01-2.89-6.9-7.23-11.06-15.34-8.13-6.53 3.27 1.85 10.57-3.81 14.06-5.04 4.8-6.67 10.33-2.66 16.41 3.93 5.97 9.88 4.31 15.46 3.25 4.77-.9 9.32-3.13 14.37-2.38a174.61 174.61 0 0 1 46.91 0c17.29 4.57 21.45 3.17 24.45-8.25 3.8-14.48 6.21-16.43 20.78-16.43h256c13.17 1.95 26.34 1.95 39.5 0 8.96 1 19.06.72 15.09 14.96-.73 2.63 2.31 3.87 3.69 5.75 8.13 11.15 18.64 3.69 28.14 3.99a174.61 174.61 0 0 1 46.91 0c8.23 2.19 16.46 4.6 24.69 0 1.84-4.12 1.86-8.23 0-12.35-.37-4.3 3.55-6.45 4.94-9.88 1.98-18.93 1.98-37.86 0-56.79-.46-3.14-1.9-6.52-1.21-9.39zM568.9 6.64l-1.99-.2-5.84-.86-2.31 1.75c-1.65 1.21-2.97 2.83-3.91 4.69-1.39 2.74-1.83 5.62.4 8.01 2.29 2.44 5.02 2.43 7.58.12-.87-6.8 2.03-10.73 6.07-13.5zm412.5 273.59c-1.9-25.03-1.9-49.85 1.23-74.72l-.78 5.79c1.54-11.46 2.26-23.02 3.21-34.54l-.07-29.88c-.02-9.11-1.65-18.71 7.95-23.33.51-1.88 1.06-3.74 1.66-5.58-7.26-1.74-14.73 1.8-22.06-.04-2.64-.66-4.08 1.99-4.94 4.34-.24 1.18-.59 2.37-.6 3.61l-.15 194.19c0 4.06-.01 8.31 3.78 11.17 9.01.48 12.11-6.01 14.09-12.83.32-1.1.68-2.18 1.08-3.24-2.2-11.43-3.51-23.07-4.41-34.93zM41.86 625.03l.09 156.4c0 4.7-1.89 9.95 2.38 14.01l-.04-182.39c-.67 4.03-1.48 8.02-2.43 11.98zm.01-64.16v.52l.27 6.04 2.11 11.54v-4.09c0-4.7 1.89-9.95-2.38-14.01zm12.34 429.62c17.28-4 34.57-4 51.85 0H54.21z"/></g><path d="M29.52 118.9l.13-1.19c.77-4.17 3.09-6.56 7.47-5.68 1.25.25 3.18 2 3.13 2.97-.33 6-6.19 1-8.26 3.9h-2.47z" class="Bf"/><g class="Bd"><path d="M128.28 985.55c1.07-4.35-3-10.75 4.94-12.35-1.06 4.35-1.58 8.91-4.94 12.35zm-101.23 2.47c4.23-.23 8.01.44 9.88 4.94-3.92-.4-7.37-1.73-9.88-4.94z"/><path d="M36.93 992.96h12.35c-4.12 3.67-8.23 3.67-12.35 0zm948.11-288.88c-4.67.23-2.35-3.38-2.35-5l-.1-129.15c0-3.21-.65-6.66 2.45-9.06v143.21zm17.28-175.31v-59.26c4.09 19.75 4.09 39.51 0 59.26zm0 439.5v-56.79c4.03 18.93 4.03 37.86 0 56.79zm-511.09 22.22c15.64-3.97 31.27-3.97 46.91 0h-46.91zm434.55 0c15.64-3.97 31.27-3.97 46.91 0h-46.91zm-86.42-24.69h39.5c-13.17 4.03-26.34 4.03-39.5 0zm158.02 24.69v-12.35c3.67 4.12 3.67 8.23 0 12.35zm-9.87-106.17c-6.63-.8-4.47-6-4.94-9.88l4.94 9.88zm9.87-861.71l-2.47-2.48c-2.64-3.59-12.77-.86-9.57-8.06a47.11 47.11 0 0 0 .68-1.64c-10.86 1.3-21.77 2.14-32.64 3.38-2.42 3.01-4.34 6.35-5.93 9.89-2.31 5.12-3.4 10.4 3.15 13.65 5.59 1.6 11.37 1.26 17.02.92 8.23-.49 11.99 2.29 11.63 11.08-.64 15.88.42 31.81-.5 47.73-1.52 5.09-8.18 3.65-10.2 8.09-1.74 4.95-2.43 9.74 2.11 13.73 7.8 5.69 15.6 2.66 23.4.73 1.66-5.42 3.72-10.67 6.33-15.62 1.89-22.97 2.16-46 1.84-69.05-.07-4.74-2.19-8.65-4.86-12.35zM566.91 6.44l-1.2-.13-5.65 3.58c-6.88 4.17-5.61 7.48 2.77 10.25 4.1 15.45 15.83 15.09 28.64 15.01l204.85-.2c4.92 0 9.83-.48 14.73-.76 7.85-.44 12.33-4.24 14.19-11.29-86.31.67-172.5-8.03-258.33-16.47z"/><path d="M988.11 10.18l-6.04.71c-1.73 2.08-3.41 4.12-2.17 6.7 2.08 4.34 7.38 2.11 11.31 2.53 1.22.13 2.47.02 3.7.01-.82-4.29-8.9-4.93-6.81-9.96zM823.24 22.92c-3.52 7.93-10.53 9.83-20.27 9.78l-213.35-.14c-9.86.02-19.77 1.26-23.41-11.32-.19-.64-2.21-.75-3.38-1.11q4.67 17.27 21.98 17.28h206.12a138.43 138.43 0 0 0 23.19-1.94c6.76-1.14 10.95-3.73 12.31-9.86.21-.97.48-1.86.77-2.72l-3.96.02zm176.55 35.02l-2.01 51.59c1.74-4.02 3.8-7.89 6.22-11.54 1.88-22.22.31-44.53.45-66.79.03-3.91-1.88-8.07-7.07-8.58 3.16 11.62 2.74 23.51 2.4 35.33z"/></g><path d="M44.41 1.81c-1.6 2.41-2.99 4.99-4.03 7.82-2.88 2.82-9.33-.97-10.2 5.56-.8.81-1.74 1.38-2.79 1.79-6.33 1.37-5.99 7.42-8.17 11.69-3.55 6.61-9.28 11.44-14.01 17.09L48.85 2.09l-4.43-.28zM22.22 0c-2.28 2.16-4.06 4.92-4.94 8.79L25.64.31 22.22 0zm37.35 839.02c-1.95-5.19-3.44-10.37-.62-15.71.63-3.85.99-7.63-2.34-10.61-9.71 2.75-14.63 10.04-17.25 19.03-2.65 9.09-7.19 15.24-16.41 19.71l-2.69 1.26c.13 5.54.32 11.07.66 16.6.96 15.63 2.62 31.92 2.06 47.89a42.94 42.94 0 0 0 3.53 3.01c5.74 4.36 10.72 7.92 17.81 3.63 5.68-4.7.78-13.23 6.46-17.93 7.16-2.71 9.43-8.26 9.31-15.49-.26-17.12.57-34.25-.52-51.39z" class="Bf"/><path d="M113.88 961l-.59 9.3c-20.57 3.73-41.31.69-61.95 1.56-1.72-.19-2.64-1.16-2.75-2.88a6.76 6.76 0 0 1 3.12-2.86c16.87-3.1 34.05.17 51.06-2.94-8.81-1.71-17.77-1.13-26.68-1.43-6-.2-12.35 1.14-17.56-3.38-5.82-15.12-1.48-30.84-2.79-46.22a53.74 53.74 0 0 1 .13-4.4c.08-1.46.38-2.88.88-4.26 2.39-3.79-.35-8.74 2.77-12.37 1.6-.2 2.81.39 3.65 1.76 3.91 15.14.89 30.57 1.91 45.84.31 4.61-1.56 9.99 4.09 12.95 5.73 1.3 11.51.73 17.25.73l446.62.06c6.55 0 13.17-.74 19.62 1.11a6.59 6.59 0 0 1 3.36 3.14c-1.1 4.55-4.99 2.12-7.55 3-2.02.76-3.99 1.72-6.19 1.86-16.83.81-33.76-.64-50.59 1.64 17.17 3.44 34.77-.67 51.89 3.29 1.8 1.43 3.76 2.82 1.08 5.18-21.09-.29-42.22 1.73-63.26-1.08l.12.02c-1.19-7.3-3.15-12.08-12.88-11.31-36.26 2.89-72.6.33-108.91.29l-238.82-.02c-2.41 0-4.97-.47-7.03 1.4z" fill="#915c25"/><path d="M113.88 961c2.64-5.01 7.29-2.47 10.9-2.48l344.86-.36c10.2-.04 13.05 3.42 11.89 12.48-2.61-6.92-6.47-11.88-14.97-9.61a221.9 221.9 0 0 1-2.58-.02 169.79 169.79 0 0 1-41.78 0l-22.44.04c-4.88 1.54-9.76 1.65-14.62-.08l-5.16.13c-4.87 1.43-9.74 1.64-14.59-.12l-22.32.05c-76.4 0-152.79-.02-229.19-.03z" fill="#e9dbcb"/><path d="M59.59 891.77L59 903.72c-3.25 3.52-7.04 3.58-11.14 1.77l-1.47-1.41c9.38-1.94 10.87-8.09 10.51-16.79-.72-17.43-.25-34.92-.27-52.38-2.04-3.27-1.75-6.54-.01-9.81v-12.4l.19-269.15c1.67-.67 2.97-.23 3.89 1.32 1.2 2.12 1.61 4.44 1.76 6.83l.21 275.47-.08 50.47c-.03 4.89.44 9.94-2.99 14.13zM56.6 469.09l.03-352.64c-3.26-4.41-3.7-8.72.4-12.9 1.79-.16 3.09.56 3.91 2.16 2.26 5.08 1.65 10.48 1.65 15.77v330.97c0 5.28.68 10.71-1.93 15.7-1.06 1.6-2.42 1.91-4.07.94z" fill="#f0eadf"/><path d="M56.58 104.2l.05 12.25c-7.41.48-12.45-3.75-17.14-8.66-1.84-1.93-2.88-4.08-.71-6.37 1.81-1.91 3.72-.38 5.56.2.95-.64 1.99-.95 3.14-.95 3.3.5 6.77.54 9.1 3.54z" class="Bf"/><path d="M44.31 923.83c.98-6.55-2.05-13.53 2.08-19.75l.73.26c5.84 20.83 3.29 41.85 1.51 62.86a6.53 6.53 0 0 1-2.42 3.73c-4.11-15.56-.8-31.42-1.91-47.1z" fill="#f8f5ed"/><path d="M46.09 101.73l-1.75-.11-.02-14.81-.01-19.76c-1.08-1.06-1.88-2.29-2.43-3.7-.19-9.87-5.3-20.52 4.48-28.85 1.28.88 2.2 2.03 2.78 3.47 1.7 20.15 1.86 40.3-.05 60.46-.61 1.45-1.61 2.55-2.99 3.3z" fill="#f5f2ea"/><path d="M49.32 970.26l63.97.03c-1.64 3.17-4.64 3.06-7.47 2.87-19.84-1.32-39.89 2.87-59.6-2.23l.86-.41c.64-.98 1.39-1.07 2.24-.26z" fill="#eee7d8"/><path d="M46.18 536.37c-2.34-22.27-4.34-44.54.96-66.7a14.21 14.21 0 0 1 2.24 3.84c1.18 19.86 1.69 39.72-.28 59.57a6.58 6.58 0 0 1-2.91 3.29z" fill="#f8f6ed"/><path d="M47.23 472.06a4.55 4.55 0 0 1-.1-2.4l9.46-.58a3.73 3.73 0 0 0 2.38.1c1.62 2.54.06 4.14-1.66 5.71-1.49.91-3.1 1.17-4.81.86-2.3-.46-3.79-2.07-5.28-3.7z" fill="#a37f4c"/><path d="M58.77 543.6l-1.97-.05c-.33-7.13-8.09-3.29-10.62-7.18l.86-.36c1.12-.96 2.39-1.66 3.8-2.1 6.63-.03 12.54.53 7.93 9.69z" fill="#efe3d9"/><path d="M1000.03 798.14c1.77-18.45 2.01-36.76 2.01-55.28v-23.83l-.03-5.22c-3.86 2.28-7.59 4.83-11.04 7.9-6.52 5.8-11.12 14.3-20.34 16.93-3.78 2.88-3.75 7.13-3.78 11.21v86.24c.03 4.08 0 8.33 3.79 11.21 10.37-9.33 18.71-20.45 27.61-31.16l1.78-18z" class="Be"/><path d="M970.66 104.24l.01 14.66-.04 212.33v93.85l-.04 44.18-2.25.79c-1.38-.89-2.37-2.09-2.98-3.61-2.42-27.45-.52-54.96-1.05-82.44-.23-11.9-.03-23.82-.08-35.73l.25-239.91c.11-1.54.47-3.04 1.02-4.48.68-1.41 1.77-2.39 3.26-2.91 1.72.45 2.35 1.53 1.88 3.26z" fill="#a17747"/><path d="M915.75 971.42c-1.69-9.61-7.83-10.78-16.65-10.76l-338.74.09c-.66-1.79-.15-3.13 1.52-4.04 4.64-2.26 9.64-1.76 14.54-1.77l322.98.09c8.43.01 19.63-2.63 18.9 12.25-.45 1.62-1.31 3-2.55 4.14z" fill="#e9dbcb"/><path d="M970.63 738.63v108.66l-.04 56.58c-1.76.47-3.17-.04-4.23-1.52-2.78-4.95-2.05-10.39-2.05-15.68V567.56c0-4.9-.5-9.89 1.56-14.59.83-1.65 2.16-2.31 3.97-2l.41 171.72c.01 5.31.25 10.62.38 15.92z" fill="#a17747"/><path d="M970.6 469.26c9.69-1.45 12.64 2.6 12.19 12.31-.83 18.06-.32 36.18-.37 54.28-1.24 1.21-2.4 1.14-3.48-.21-.79-1.17-1.33-2.46-1.66-3.83-1.16-14.92-.37-29.87-.5-44.81-.05-5.52-.57-10.51-6-13.5-1.08-1.02-1.45-2.26-1.15-3.7l.97-.53zm9.36 435.25c4.33 1.74 2.5 5.55 2.52 8.44l-.06 57.41c-1.36 1.2-2.57 1.06-3.63-.41a12.18 12.18 0 0 1-1.63-4.13c-.52-19.19-1.27-38.38.38-57.56.54-1.42 1.35-2.66 2.42-3.74z" fill="#ab8457"/><path d="M979.94 970.35l2.48.02c-2.41 4.01-6.44 2.93-9.88 2.77-18.93-.88-37.97 2.25-56.8-1.72l.37-.95c3.32-3.03 7.49-3.39 11.58-3.09 17.4 1.31 35.15-3.48 52.25 2.96z" fill="#eee7d9"/><path d="M481.41 970.62l63.96-.26c.83-.88 1.64-.87 2.44.04-1.36 2.56-3.77 2.79-6.27 2.79h-53.71c-2.48 0-4.91-.16-6.43-2.57z" fill="#eee7d8"/><path d="M979.96 904.51l-.07 2.13c-2.2 2.38-6 3.49-6 7.63-1.23 14.38 2.17 28.98-2.3 43.17-.97 1.33-2.24 1.79-3.84 1.4a8.95 8.95 0 0 1-2.47-3.71c-.98-16.5-2.54-33.01.91-49.43l1.58-1.65 2.83-.18 9.37.63z" fill="#9d6928"/><path d="M547.82 970.4l-1.22.13-1.22-.17-2.34-2.26a7.49 7.49 0 0 1-1.77-2.5c-.4-1.54-.39-3.07 0-4.61a6.61 6.61 0 0 1 1.87-2.42l5.2.05c.65.51.88 1.03.7 1.58-.19.55-.39.83-.6.83l-.62 9.37z" fill="#a58251"/><path d="M969.84 550.99h-1.96c-1.05-.77-1.78-1.77-2.23-2.99-1.01-3.79-1.03-7.51.85-11.08.81-1.11 1.89-1.56 3.25-1.34 1.19.81 1.48 1.88.89 3.2l-.81 12.22z" fill="#9f7545"/><path d="m970.65,538.77c-.29-.79-.31-1.59-.06-2.4,2.98-3.11,6.14-2.74,9.4-.49.81.18,1.63.17,2.44-.03-2.99,4.74-7.83,2.04-11.78,2.93Z" fill="#ede3d3"/><path d="M548.43 961.03c-.27-.79-.31-1.59-.1-2.4l7.09-.62c1.86-1.1 3.51-.87 4.94.79v1.96l-11.93.27z" fill="#e7daca"/><path d="M422.2 961.01h41.78c-13.93 3.83-27.85 3.82-41.78 0zm-37.07-.04l14.63.08c-4.9 3.47-9.77 3.51-14.63-.08zm-19.74.01l14.59.12c-4.89 3.4-9.76 3.46-14.59-.12zM996 349.85a162.67 162.67 0 0 1-4.29-11.61c-3.89 3.57-6.61 9.02-6.67 14.72-.12 10.74 8.47 20.17 18.43 20.23a15.61 15.61 0 0 0 3.16-.31c-3.79-7.5-7.35-15.14-10.62-23.02z" class="Bd"/><path d="M906.7 19.06c1.61 1.48 3.1 3.1 4.47 4.83 3.91 4.9 7.92 10.3 15.16 7.83 7.67-2.62 13.01-8.12 14.23-16.32-11.27 1.4-22.56 2.63-33.86 3.66zm-41.79 2.85l-18.57.65c-6.56 4.91-10.94 11.83-14.38 19.8 5.51 4.59 10.78 1.78 16.07-.54 3.59-3.29 3.85-9.59 9.75-10.76 4.75-3.81 10.3-6.35 15.46-9.57l-8.33.42zm81.91-7.3l8.94-1.2-12.1 1.6c-.02.04-.05.07-.07.11-3.57 6.62-12.09 12.54-4.21 21.45 3.27 1 6.32 1.05 8.63-2.04-1.25-8.77 3.67-16.36 9.2-20.53.3-.23.58-.48.87-.71l-11.26 1.32z" class="Bf"/><path d="M946.82 14.61l1.29-.17-10.31 1.3-1.13 3.46c-4.61 12.37-13.94 12.73-22.82 3.09a115.22 115.22 0 0 0-3.44-3.55c-14.5 1.38-29.02 2.42-43.59 3.09-.01 0-.02.01-.04.02-3.81 2.41-7.99 3.85-10.14 8.18-2.17 3.58 2.53 5.57 2.09 9.06-3.14.65-6.54-1.17-9.5.82l-17.28 2.47c-5.68 0-11.36.08-17.04-.04-3.85-.08-3.84 1.85-2.73 4.57 2.16 3.01 5.44 3.67 8.75 3.65 29.97-.17 59.96 1.46 89.92-.87 5.32-1.53 4.61-8.02 8.68-10.56 6.02-2.2 13.47 1.41 18.58-4.58.7-8.44 4.23-14.92 9.98-20.08l-1.28.16z" class="Be"/><path d="M462.2 19.04c-4.45 5.92-6.38 13.68-16.82 13.65l-300.85-.02c-10.32.03-10.8-4.71-8.46-12.06 1.1-3.43 3.01-6.74 5.12-9.7 1.64-2.3 3.34-4.56 5.09-6.78l-3.39.02a163.1 163.1 0 0 1-4.99 4.45c-3.32 2.82-5.94 6.9-7.83 10.89-5.32 11.24-1.44 17.82 10.98 17.83l307.22.17c5.99 0 11.41-1.6 12.91-7.26 2.66-10.04 9.32-11.12 17.71-10.1-5.26-9.6-10.05-9.91-16.69-1.1z" class="Bd"/><path d="M113.64 46.94l284.95.33 80.16-.4c1.66-.49 2.75.1 3.24 1.77-.47 1.51-1.41 2.59-2.85 3.26-1.46.59-2.96.94-4.52 1.09l-348.03.2c-4.09 0-8.27.2-12-2.07-1.55-1.11-1.87-2.51-.96-4.19z" fill="#9c7541"/><path d="M812.19 46.89l101.08-.02c1.78-.47 2.85.2 3.23 2-.69 1.45-1.77 2.48-3.23 3.13-21.62 2.66-43.33.5-64.99 1.27-92.29-.07-184.58.04-276.86-.1-6.35-.01-13.28 1.78-18.7-3.6 3.57-4.33 8.44-2.16 12.64-2.17l233.28-.12c4.52 0 9.04-.25 13.55-.38z" fill="#9c7542"/><path d="M552.72 49.57l296.51.31c.79 1.37.56 2.55-.69 3.55-1.21.77-2.51 1.29-3.91 1.6-2.91.66-5.85.62-8.81.63l-268.5.03c-5.32 0-10.68.45-15.94-.94a8.07 8.07 0 0 1-3.83-2.83l.67-2.33 4.49-.02z" class="Bh"/><path d="M916.22 35.11l21.9-.58h9.89c8.54.14 17.1.69 25.62.28 6.96-.34 9.21 2.13 9.05 9.06-.43 19.12-.24 38.26-.3 57.39-1.39 1.14-2.6.97-3.63-.5-.79-1.25-1.31-2.61-1.61-4.06-1.02-15.18-.42-30.4-.41-45.6 0-7.33-2.88-10.33-10.26-10.32-15.2.02-30.42.61-45.62-.37-1.48-.26-2.84-.81-4.1-1.6-1.44-1.05-1.61-2.28-.53-3.69z" fill="#a98254"/><path d="M113.64 46.94l-.14 2.8c-.93 1.12-2.08 1.92-3.44 2.43-14.57 2.21-29.29.03-43.89 1.37a11.57 11.57 0 0 1-4.19 0c-2.07-.6-3.76-1.74-4.98-3.53.19-6.92 5.89-5.54 9.72-5.85 9.27-.73 18.6.02 27.89-.42 3.76-.18 8.37 1.4 10.71-3.48.61-1.17 1.42-2.18 2.42-3.04 1.83-1.06 3.62-1.31 5.29.31l.61 9.39z" class="Bi"/><path d="M481.29 49.72l-.13-2.79c-1.61-3.1-1.16-6.29-.36-9.48 1.12-.95 2.31-1.05 3.58-.31a10.34 10.34 0 0 1 2.54 2.97c2.69 5.4 7.81 3.48 11.96 3.62 13.85.47 27.72-.17 41.58.37 1.36.11 2.68.43 3.95.9 1.21.64 2.3 1.44 3.27 2.4a6.66 6.66 0 0 1 .55 2.19l-.37.26c-14.75 6.93-30.36 2.27-45.55 3.18-7.01.42-14.74 2.24-21.02-3.32z" fill="#9c6427"/><path d="M547.68 47.4l-2.11-.19c-4.74-6.47-11.66-5.98-18.64-6.5-14.35-1.08-29.16 3.61-43.07-3.21l-1.1-.04-1.1.07c-.86-.55-1.14-1.09-.84-1.63.29-.53.58-.8.87-.8 18.32-.05 36.68.53 54.96-.41 10.57-.54 12.86 3.68 11.02 12.7z" fill="#a88353"/><path d="M113.03 37.55l-4.49-.13c-4.35 3.97-9.78 3.5-14.99 3.39-14.16-.3-28.34 1.03-42.47-.81-1.49-.56-2.8-1.4-3.96-2.49v-2.48c.83-1.06 1.87-1.8 3.14-2.24 4.05-1.28 7.7-.01 11.27 1.8l51.82.64a4.2 4.2 0 0 1-.32 2.32z" fill="#a88355"/><path d="M481.7 35.11c-.21.81-.22 1.61-.03 2.42l-.51 9.39-1.21.19-1.2-.24c.9-3.94-1.83-8.79 2.94-11.77z" fill="#ede0cf"/><path d="M979.98 101.32c.81.16 1.61.14 2.41-.06-2.94 4.81-7.81 2.04-11.73 2.98a3.76 3.76 0 0 1-.03-2.39c2.95-3.14 6.1-2.77 9.36-.53z" fill="#eadcc9"/><path d="M5.43 88.53c.7-.44 1.38-1.06 1.87-1.72L2.56 76.15c1.04 4.1 1.99 8.23 2.87 12.38zM27.05 15.2c-3.36 4.06-4.8 9.66-9.88 12.35 3.49-3.95-1.47-14.68 9.88-12.35z" class="Be"/><path d="M56.62 825.1l.01 9.81c-6.28-3.26-3.39-6.54-.01-9.81z" class="Bd"/><path d="M555.43 956.19l-211.08-.27-280.22-.25c-.53-1.81.05-3.15 1.73-4 11.28-3.31 22.89-1.77 34.3-1.76l446.39-.1c3.69 0 7.42-.19 10.94 1.28 1.53.66 2.69 1.74 3.46 3.23-.82 3.6-3.18 2.72-5.53 1.88z" fill="#e08e27"/><path d="M555.43 956.19l4.94-.54c4.12-3.57 9.18-3.17 14.07-3.17l379.31-.01c3.28 0 6.58-.03 9.78.88a15.51 15.51 0 0 1 4.22 2.54l-.06 2.24c-7.85 6.53-17.18 2.62-25.81 3.63-5.1.6-10.38-.88-17.79 1.94 18.96 2.78 35.9-.6 52.48 2.25 1.23.63 2.35 1.41 3.38 2.33.05.69.05 1.38 0 2.06l-63.83.13c-.11-6.53.97-12.36-9.68-12.32l-343.63.32c-.81 0-1.63.21-2.44.32l-4.94-.79v-1.82z" fill="#915b24"/><path d="M64.13 953.4v2.26c-4.12-3.04-2.39-7.48-2.45-11.31l-.29-52.55c-2.14-21.47-.42-43-.97-64.5V550.71a11.02 11.02 0 0 1 .85-4.78c1.74-.67 3.14-.24 4.2 1.3 3.05 5.79 2.03 12.08 2.04 18.18l.06 262.92c-.3 6.88.57 13.77.02 20.66-.07 5.21.32 10.42.05 15.63.08 5.23-.21 10.46.16 15.7-.51 23.04 1.42 46.13-1.22 69.14a14.99 14.99 0 0 1-2.47 3.95z" fill="#d78728"/><path d="M542.85 965.75a18.59 18.59 0 0 1 .18 2.35l-50.28.1c-3.45-.01-8.15 1.09-8.53-4.35-.45-6.48 4.77-5.44 8.64-5.45l50.28.16a20.15 20.15 0 0 1-.23 2.34c-13.09 5.51-26.81.55-37.88 2.41 11.05 1.9 24.76-3.11 37.83 2.43z" fill="#dc8a27"/><path d="M59.4 958.31l43.18.08c3.61.02 8.07-.6 7.97 5.01-.1 5.57-4.57 4.85-8.15 4.85l-50.58-.24c-.76-1.33-.53-2.45.69-3.37 15.26-3.39 30.79.23 43.92-1.47-10.96-1.77-24.61 3.81-37.41-2.96.12-.63.26-1.26.39-1.89z" fill="#da8927"/><path d="M49.32 970.26l-1.1.3-1.14-.04.04-66.18 11.87-.62.06 2.98c-5.23 3.58-6.54 8.69-6.42 14.76.22 10.91.03 21.82.06 32.73.02 4.95-.61 9.67-3.35 13.92l-.03 2.15z" fill="#976830"/><path d="M49.35 968.11l-.2-51.81c-.19-7.53 2.28-10.86 9.91-9.6.02.81-.02 1.62-.12 2.43a20.13 20.13 0 0 0-2.57 3.17c-2.54 12.78-.67 25.69-1.23 38.52-.23 5.18.6 10.58-3.34 14.92a57.1 57.1 0 0 0 .02 2.27l-2.47.11z" fill="#cb7e29"/><path d="M61.47 827.51l-.07 64.29-1.81-.03-.02-64.26c.64-1.11 1.27-1.06 1.9 0z" fill="#9a672e"/><path d="M56.64 909.09a22.06 22.06 0 0 1 2.3.03l.46 49.19-.45.05c-1.78.02-3.64-.75-3.73-2.39-.86-15.66-3.21-31.38 1.43-46.87z" fill="#e99326"/><g fill="#945f25"><path d="M61.86 546.05l-.43 2.47c-.63 1.14-1.25 1.08-1.88 0l-.78-4.92c2.29-9.23-4.93-6.86-9.47-7.76-.86-1.19-.76-2.29.29-3.31.91-.89 1.92-1.63 3.01-2.26 4.46-3.28 3.04-8.15 3.19-12.47.48-13.89-.64-27.81.62-41.7l.36-1.89 2.21-5.01-.3-365.03c-2.76-2.98-7.08.11-9.93-2.55-.4-1.23-.23-2.37.51-3.44.86-.93 1.85-1.69 2.93-2.32 4.81-3.02 3.36-7.94 3.61-12.26.6-10.19-1.04-20.46 1.1-30.61.57-1.22 1.35-2.28 2.32-3.21l2.43 2.5c4.26 4.34 3.41 9.92 3.41 15.16l.01 463.32c0 5.28.66 10.79-3.2 15.3z"/><path d="M59.55 548.52h1.88l.03 278.98h-.95-.95l-.01-278.99z"/></g><path d="M49.31 101.24c2.95 1.51 7.41-1.81 9.37 2.92h-1.05l-1.05.04c-3.58-.44-7.54.69-10.48-2.47l1.01-.29c.64-1.05 1.38-1.07 2.2-.2z" fill="#e8d9c7"/><path d="M49.31 101.24l-1.08.27-1.11-.07.01-63.94 2.23-.04c1.02 1.21 1.82 2.54 2.43 4 .18 19.19 4.35 38.56-2.43 57.46a44.88 44.88 0 0 0-.04 2.32zm.05 432.24l-.06 2.37-1.12.28-1.15-.11.2-63.95c1.83-.02 3.52.25 4.47 2.09l.41 2.19c1.19 15.6.35 31.22.47 46.83.03 3.75-.46 7.41-3.24 10.31z" fill="#97672f"/><path d="M51.71 474.15l5.06.05-.14.41c2.81 17.41.57 34.93 1.18 52.39.14 4.13-1.8 6.15-6.16 4.6-1.77-19.05-1.93-38.1.08-57.14l-.02-.31z" fill="#f99c2e"/><path d="M967.63 104.1v244.42c-1.71.69-3.02.24-3.96-1.35-.79-1.41-1.32-2.91-1.64-4.49-1.5-38.94-.41-77.9-.64-116.85V123.71c.01-6.11-.65-12.35 2.21-18.14.92-1.65 2.26-2.14 4.02-1.46z" fill="#bc762a"/><path d="M965.49 348.51h2.15l.15 120.95c6.55 13.97 2.63 28.79 3.24 43.21.33 7.87 2.27 16.34-3.24 23.56l-.15 12.3c-1.72.67-3.04.2-3.96-1.4-3.68-12.87-1.38-26.04-1.77-39.07-.45-15.15.13-30.33-.29-45.49-.31-15.34-.1-30.68-.09-46.02.67-5.26-.19-10.56.26-15.84-.02-1.53 0-3.05.01-4.57-.3-11.76-.1-23.51.1-35.27.07-4.41-.35-9.04 3.59-12.37z" fill="#bd792a"/><path d="M979.98 101.32l-9.36.53-2.85-.13c-5.16-5.44-2.73-12.29-3.46-18.56-1.05-9.09 2.59-18.66-2.86-27.24-8.65-5.31-18.16-1.67-27.19-2.72-6.24-.73-13.04 1.67-18.45-3.45l-.14-2.88c-1.23-3.18-1.91-6.34.48-9.34a9.25 9.25 0 0 1 2.29-.07l2.71 3.09c8.51 6.11 18.19 2.79 27.27 2.99 25.06.55 25 .48 25.54 25.57.2 9.08-3.12 18.77 3 27.26 1.03.89 2.04 1.8 3.05 2.73.07.74.06 1.48-.04 2.21z" fill="#9d6527"/><path d="M967.79 536.23v-66.77a8.24 8.24 0 0 1 1.85.32c.38.66.59 1.37.65 2.13.86 1.09 1.6 2.25 2.24 3.49 2.54 14.42.47 28.97 1.3 43.44.24 4.22-1.4 9.08 3.22 12.19a124.85 124.85 0 0 1 2.99 2.63c.07.74.06 1.47-.05 2.21l-9.4.49-2.8-.14z" fill="#9d6627"/><path d="M965.44 52.05c5.27 16.35.85 33.15 2.33 49.67-.02.79-.07 1.58-.15 2.37h-1.09-1.09c-7.09-16.57-4.45-33.46-1.67-50.36l1.67-1.68z" fill="#bd782a"/><path d="M965.53 548.54h2.11l.24 2.45-.11 353.06-.13-.02c-1.66.72-2.95.29-3.87-1.26-4.65-17.41-1.21-35.17-2.22-52.74-.26-4.52.28-9.04.28-13.57-.1-4.45-.3-8.91.02-13.36l.02-6.64c-.33-11.88-.1-23.76-.2-35.65-.31-3.11-.26-6.21.06-9.32l.17-205.53c.02-5.96-1.55-12.47 3.65-17.44z" fill="#bc752a"/><path d="M970.31 474.58l-.03-2.66c7.07-.83 10.22 1.58 9.98 9.41-.54 17.43-.2 34.89-.22 52.34l-2.87-.27c-6.4-13.93-1.7-28.68-3.16-42.97-.56-5.45 1.59-11.51-3.71-15.85z" fill="#b16c29"/><path d="M979.94 968.28l-2.45-.15c-.93-1.09-1.68-2.3-2.27-3.61-2.39-13.89-.54-27.91-1.19-41.85-.22-4.83.91-10.05-3.79-13.64 2.5-3.69 6.3-2.15 9.65-2.39l.05 61.64z" fill="#b26d29"/><path d="M970.24 909.03c7.52-1.05 7.48 3.88 7.43 9.13l-.2 47.55c-17.35 2.93-34.82.51-52.23 1.26-2.65.11-5.28-.6-5.25-3.66.03-3.04 2.71-3.61 5.33-3.62l31.75-.1c4.35-.11 8.97 1.44 13.05-1.41l.11-49.15z" fill="#f99c2d"/><path d="M970.13 958.18c-5.15 5.06-11.57 2.26-17.37 2.54-10.05.48-20.13.13-30.33 2.01 8.62 4.45 17.97 2.69 26.98 2.99 9.35.31 18.71.02 28.07-.01.08.81.09 1.62.01 2.42l-50.19.1c-3.9-.01-9.06.92-8.56-5.52.42-5.45 5.12-4.25 8.55-4.3l40.39-.28a8.74 8.74 0 0 0 2.45.05z" fill="#db8a27"/><path d="M965.49 904.06l2.15-.02.11 51.85-2.6-.15c-1.04-1.18-1.84-2.51-2.42-3.97-.62-15.99-4.65-32.18 2.77-47.7z" fill="#bc782a"/><path d="M542.85 965.75h-54.96l.01-4.84h55.01l-.06 4.84z" fill="#f99c2d"/><path d="M996 349.85l-.6-1.5a14.68 14.68 0 0 0-.42 2.8c-.28 4.91 1.06 8.53 5.73 9.44l-4.72-10.74z" fill="#f7f8f8"/><path d="M856.65 30.01l8.55 10.85c-5.84 2.84-10.92 1.51-15.96-.97-2.23-6.82-.49-10.65 7.41-9.88z" class="Bd"/><path d="M916.16 37.54l-.48 9.34-1.2.2-1.2-.2c.95-3.93-1.78-8.78 2.95-11.76-.2.8-.23 1.61-.06 2.42z" fill="#e5d7c4"/><path d="M111 49.89l2.5-.15 365.37.17c.71 1.62.3 2.88-1.22 3.79-5.06 2.49-10.47 2.17-15.88 2.05-111.2-.12-222.39.03-333.58-.04-5.36-.31-10.89.6-15.98-1.97-1.52-.93-1.92-2.22-1.22-3.85z" class="Bh"/><path d="M478.87 52.08v-2.17l2.41-.19 66.57.14.18 2.15c-1.03 1.28-2.31 2.19-3.84 2.77-18.78 2.51-37.65 1.02-56.48.93-3.29-.02-6.54-.85-8.83-3.63z" fill="#bf792a"/><path d="M915.82 49.75l38.01.07c3.95.04 8.27-1.21 11.61 2.24l-.26.27c-4.72 4.2-10.57 3.76-16.22 3.77-23.18.04-46.36.27-69.54-.18-10.08-1.18-20.81 2.7-30.2-3.87v-2.16l66.59-.13z" fill="#bf7b2a"/><path d="M839.24 52.42l7.6-.01c7.11 6.54 4.05 11.85-2.03 16.82-35.9 2.08-71.81 2.21-107.71-.05-3.4-2.18-7.84-4.6-5.49-9.23 1.9-3.75 6.52-1.76 10.1-1.66 18.35.53 36.71.03 55.06.35 4.51.08 7.84-1.47 10.71-4.65 10.53-1.64 21.28 1.1 31.76-1.56z" class="Bj"/><path d="M839.24 52.42c-10.35 5.04-21.36.98-31.98 2.3-5.16 4.62-11.53 3.64-17.61 3.64l-206.71.06c-6.96 0-13.93.38-20.88.6-5.89.19-13.51 1.66-16.45-6.67a32.45 32.45 0 0 0 2.41-.33l275.17.25 16.04.16z" fill="#f89a32"/><path d="M846.79 66.69c-.83-4.77 3.97-9.51.06-14.28l2.38-.36 29.68.4c5.68 3.75 13.22 6.43 9.12 15.82-4.15 2.25-8.42 2.08-12.76.65-.74-.32-1.48-.7-2.05-1.27q-9.29-9.31-15.94 1.27c-3.89 1.12-7.6 1.38-10.48-2.23z" fill="#f8a038"/><path d="M980.02 99.11l-2.86-.28c-6.41-13.26-2.9-27.39-2.83-41.03.06-11.32-3.24-14.68-14.59-14.61-13.64.08-27.77 3.58-41.03-2.81l-.26-2.91 52.59-.16c6.91-.14 9.3 2.34 9.16 9.21-.36 17.52-.16 35.06-.18 52.59z" fill="#b16d29"/><path d="M61.86 546.05l-.22-482.66V52.28l2.49-.36 1.63 1.86c2.56 5.46 1.77 11.31 1.77 17.01l-.04 456.45c0 6.38 1.74 13.31-3.5 18.8h-2.13z" fill="#d78728"/><path d="M59.21 49.78l-.38 2.55c-2.07 12.41-.34 24.92-1 37.36-.21 4.03 1.12 10.1-6.72 6.77-.7-18.93-1.35-37.85.35-56.76 19.01-1.41 38.01-2.12 56.99.37 1 7.59-4.09 7.23-9.21 7.25l-39.96.56c-.2 0-.56.52-.55.79.01.37.31.73.48 1.1z" fill="#f79c2f"/><path d="M108.44 40.07l-56.51-.03c-.84 1.09-1.67 1.03-2.5-.02l-.08-2.56 59.19-.05-.1 2.66z" fill="#b57129"/><path d="M111 49.89l.01 2.13c-15.58 6.07-31.21 5.44-46.88.4v-.5c15.45-4.65 31.26-1.04 46.87-2.03z" class="Bh"/><path d="M542.91 47.18l-50.35.17c-5.03.05-9.21-.32-8.42-7 18.16-3.66 36.5-.94 54.75-1.51 6.13-.19 6.33 3.78 4.03 8.34z" fill="#f79c2b"/><path d="M542.91 47.18c.99-6.3-2.52-7.47-7.84-7.37l-50.94.54-.27-2.85 52.31-.23c7.79-.24 10.29 2.83 9.4 9.95l-2.66-.03z" fill="#b36e29"/><path d="M965.49 904.06l-.31 49.34c-3.4 2.17-7.21 1.2-10.82 1.2H571.23c-3.63 0-7.41.88-10.87-1.1l-496.23-.1a32.82 32.82 0 0 1-.02-2.43c7.02-5.49 14.74-.29 22.04-1.45-3.29.67-6.24-1.64-9.55-1.05-3.83.68-7.86.61-8.39-4.26-.56-5.11 3.2-6.9 7.67-7.36 1.62-.17 3.21.24 4.84.52l204.09.31c6.05.02 12.36-1.19 17.97 2.4-1.74 6.92-7.75 10.7-14.33 7.21-4.44-2.35-8.51-2.48-12.9-2.49-59.19-.05-118.38-.05-177.57 0l187.44.87c-6.45 4.6-129.71 6.15-141.32 4.1l182.24-.09c-5.5-.23-12.64.5-19.76-1.99 9.92-4.4 20.56-2.67 30.84-2.69 10.8-.02 21.79-1.84 28.52.5-14.35-2.11-32.8.05-51.12-.89-2.9-.15-8.85 3.22-8.12-4.41 5.59-3.77 11.94-2.51 17.99-2.52l193.56-.1 184.23.1c6.02.01 12.37-1.27 17.85 2.7-.08 8.39-6.5 4.16-9.68 4.18l-125.24.2c-19.64 0-39.29.02-58.9-.01-9.48 3.77-19.8 3.13-29.57 5.73 12.44-3.51 24.94-2.11 37.44-.4-3.45-1.05-7.68 1.14-10.33-1.67-2.12-2.25.6-3.17 2.65-3.61 64.15.2 128.28-.21 192.41 2.57-47.71 2.35-95.43 2.33-143.15 2.38l309.96-.37c-3.45-.55-10.46 2.03-16.72-3.02 19.63-1.56 39.26-1.48 58.91-1.58-58.41.21-116.83-.08-175.25.03l93.05.05c-.72 5.51-3.67 4.79-5.9 4.78-34.56-.18-69.12.66-103.67-.41-6.01-.19-12.92.62-12.9-8.69 5.43-4.18 11.82-2.84 17.85-2.85l188.55-.13c5.2 0 10.77 1.37 15.34-2.57 3.87-14.78 1.08-29.81 1.78-44.7.59-12.54-.71-25.14.76-37.67 5-6.64 5.3-17.92 17.33-17.71l.43 69.14z" class="Bj"/><path d="M560.36 953.51l404.82-.1c.04.78.03 1.56-.04 2.33l-404.78-.08v-2.15z" fill="#e28e25"/><path d="M64.13 52.42l46.88-.4 14.78.4c.23 2.99-1.94 3.93-4.13 4.86-12.65 2.39-25.44 1.12-38.15 1.09-9.47-.02-13.24 3.71-13.16 13.19L70.4 459l-.41 277.51.19 76.53c-.04 5.31.58 10.75-2.12 15.72-.95 1.53-2.25 1.94-3.91 1.24l-.16-283.96.13-493.63z" class="Bk"/><path d="M76.43 938.64c-3.48.3-7.26 1.44-6.49 5.44.97 5.04 4.93 2.91 7.64 1.36 5.85-3.34 6.25 5.74 11.02 5.55H64.1l.09-71.66c5.75-7.18 10.37-4.87 14.48 1.73.66 19.25 4.63 38.63-2.25 57.59z" class="Bg"/><path d="M64.16 830.01h2.39c4.43 3.15 8.59 6.58 11.73 11.11 1.65 5.05 1.88 10.06-.38 15.01-7.46 4.07-9.79-2.96-13.79-6.38l.05-19.74z" class="Bl"/><path d="M64.1 849.75c5.75-.25 7.79 5.68 12.34 7.42 2.96 3.16 2.82 6.55.75 10.09-5.26 3.51-9.64 2.72-13.07-2.68l-.01-14.83z" fill="#ef962a"/><path d="M64.12 864.59c3.81 2.33 8 2.73 12.33 2.42 3.56 4.14 3.57 8.26-.06 12.36-4.05-2.75-8.11-2.78-12.18-.04l-.08-14.73z" class="Bl"/><path d="M56.64 909.09l.09 37.76c.05 3.91-1.3 8.22 2.21 11.51 9.57 5.2 19.89 1.48 29.83 2.39 5.97.55 12.03.1 18.05.1l.15 4.89H51.8l-.01-47.38c.02-3.78-1.38-8.61 4.85-9.26z" fill="#f99c2e"/><path d="M51.86 531.18c6.79-1.17 4.69-6.59 4.73-10.59l.03-45.99c4.99 5.23 2.11 11.66 2.37 17.49.5 11.04.04 22.12.19 33.18.07 5.13-.54 9.22-7.25 8.07-.83-.45-1.12-.92-.86-1.41.26-.5.52-.75.79-.75z" fill="#e99323"/><path d="M51.86 531.18c-.04.72-.02 1.45.07 2.16l-2.58.14-.05-48.85c.02-3.5-1.18-7.45 2.42-10.17l.13 56.72z" fill="#ca7d29"/><path d="M49.43 40.02l2.5.02-.09 56.58c.78.46 1.05.94.81 1.43-.24.5-.49.75-.74.75l-2.55.12.08-58.9z" fill="#ca8029"/><path d="M51.9 98.8c-.08-.73-.1-1.45-.07-2.18 6.89-1.17 4.35-6.66 4.82-10.69 1.32-11.16-2.6-22.66 2.17-33.6L59.19 91c.1 5.2-.87 8.92-7.29 7.81z" fill="#e79225"/><path d="M888.73 66.7l-9.82-14.26 86.28-.12.26 51.78-.37 242.05c-1.34 2.49-4.19 5.15-3.11 7.7 3.45 8.19 1.31 15.83-.51 23.82-1.59 6.98 1.05 13.65 3.64 20.12l-.09 2.62c-8.4 4.1-13.27-.16-17-7.16-1.55-6.49-.97-13.09-.97-19.65L947 88.68q0-18.12-18.64-18.16c-9.04-.02-18.09.13-27.13-.08-4.46-.1-9.19.38-12.48-3.75z" class="Bm"/><path d="M965.08 397.8c-7.98-8.68-10.74-17.88-3.55-28.59 2.15-3.2 2.1-7.12-.71-10.27-6.09-6.83-1.64-10.02 4.25-12.79l.41 2.36-.4 49.28z" fill="#f9a139"/><g class="Bm"><path d="M965.06 817.55l-.03 5.05c-10.58 1.37-10.82-9.59-16.63-13.93-2.15-9.08-1.49-18.2-.49-27.34 2.71-7.8 1.72-15.53-.41-23.26l-.53-245.93c.56-31.27-.88-62.56.74-93.82 6.67-11.56 9.49-12.08 17.39-3.22l.06 47.08c-2.54 13.43-.9 26.98-1.01 40.47-.13 15.17-.84 30.35-.18 45.54.11 2.45 0 5.64-3.06 5.85-4.15.29-3.71-2.96-3.66-6.03.1-6.02-.96-12-.48-16.67l-.12 164.88.08-142.34c7.35 5.83 6.02 11.32 6.03 16.07l.06 176.36c0 9.01.51 17.97 2.32 26.82l-.02 7.59c-8.68 12.27-6.64 24.54-.03 36.82z"/><path d="M965.12 773.13c-3.9-8.28-4.79-17.08-4.79-26.09l-.04-176.49c0-3.99 1.09-8.18-2.15-14.19V705.9h-1.88V515.99c4.98 13.71-.92 25.62 6.56 36.36v-30.4l.06-48.13c.04-3.95-1.38-8.33 2.27-11.63l.38 86.35-.41 224.59z"/></g><path d="M965.09 415.1c-4.81-4.77-9.59-5.04-14.35.08-5.04-6.59-5.06-13.17.03-19.74 4.53 2.27 8.74 5.46 14.22 4.97l.09 14.69z" fill="#f8a138"/><path d="M918.71 40.37l50.46-.6c6.41-.17 8.74 2.23 8.58 8.61l-.57 50.46c-6.82.88-7.04-3.48-6.99-8.45l.11-34.51c.18-6.39-2.2-8.81-8.6-8.64-11.5.31-23.01 0-34.51.09-4.92.04-9.36-.09-8.47-6.95zm51.6 434.21c6.25-.95 7.51 2.48 7.4 7.84l-.54 50.98c-6.72.82-7.05-3.44-7.01-8.44l.14-50.38z" fill="#f89b2d"/><path d="M950.72 810.24c8.64-.37 6.6 11.66 14.32 12.36l.03 12.32c-7.99 1.83-6.82 12.5-14.3 14.82-5.96-13.16-5.87-26.32-.05-39.49z" fill="#f69f37"/><path d="M965.06 817.55c-13.69-17.99-13.68-22.4.04-36.83l-.04 36.83z" class="Bl"/><path d="M76.34 839.91c-5.8-.79-9.07-4.07-9.79-9.89l.01-250.25.19-445.09c.06-23.02 1.79-46.05-.27-69.05-.79-8.82 2.81-11.39 11.27-11.08 15.18.55 30.4.16 45.6.16 6.88-1.12 13.8-1.23 20.75-1.23l306.52-.02c4.44 0 9.03 1.03 13.33-1.06l14.91-.32 66.75.26c6.27 3.26 12.7 4.43 19.8 2.88 3.94-.86 8.18-.49 12.28-.5l229.56-.01c.76 4.14 1.81 7.86-5.08 7.51-23-1.15-46.12 1.83-69.15-1.99l2.62 6.5c-1.25 1.9-3.18 2.56-5.29 2.9-2.14.27-4.25.08-6.35-.44-1.43-.36-2.76-.93-4.04-1.64-5.38-2.82-11.23-1.95-16.9-1.96l-165.89-.06c-6.53 0-13.23.59-18.87-4.16 1.53 2.28 4.86 4.06 1.31 7.09-6.22 3.18-12.92 2.02-19.43 2.02l-399.96.1c-5.7 0-11.54-.96-17.03 1.46-5.05 4.65-3.2 10.79-3.22 16.31l-.1 183.66c0 6.15.38 12.33-.79 18.43-3.59 7.6-4.38 15.61-4.25 23.96.8 51.26-.25 102.52.04 153.78l-.01 219.22c.03 41.81 1.84 83.57 2.55 125.37.06 3.32.46 6.55 1.53 9.7.61 6.03 2.29 12.24-2.62 17.44z" class="Bk"/><path d="M463.96 52.4c-4.15 4.07-9.36 2.21-14.07 2.22-102.17.11-204.35.19-306.52-.15-6.68-.02-13.35 3.4-20.02.24l2.44-2.29 338.17-.02z" fill="#f89a32"/><path d="M730.81 67.41l4.85-.67 111.13-.05 12.24.15c4.95-4.13 9.94-3.38 14.95-.11l14.75-.03 45.54.34c16.16.06 16.18.02 16.19 15.69l.06 297.95c0 4.92.17 9.84.26 14.77l-.03 19.74-.59 96.3c-1.71 1.53-3.46 1.35-5.23.12-1.08-1.82-1.26-3.8-1.03-5.86.64-2.81.62-5.66.66-8.53l-.04-206.69v-7.13V91.28c0-5.25 1.02-10.79-3.16-15.18-4.47-4.15-10.03-3.07-15.27-3.08l-173.58-.06c-5.73 0-11.5.44-17.19-.75-2.31-.84-4.55-1.76-4.5-4.81z" fill="#9d6226"/><path d="M873.97 66.73l-14.95.11c-2.85-4.46-2.17-10.03 2.19-11.03 7.49-1.72 10.79 4.52 12.76 10.92z" fill="#ee9629"/><path d="M723.32 941.12c3.4 6.68 9.58 6.64 15.81 6.64l104.63-1.5H743.14l.03-2.05h191.85l.05 1.56h-63.53l-.03 2.47h24l-.03 1.91H565.54c0-.43-.01-.87-.02-1.3h152.1v-2.8H523.31c4.05-4.26 9.28-2.37 13.97-2.38l169.58-.18c4.69-.01 9.92 1.87 13.98-2.37.82-.59 1.65-.59 2.47 0z" class="Bg"/><path d="M76.34 839.91l.06-17.34c-.18-.37-.5-.74-.51-1.11-.31-36.02-3.28-72.02-.57-108.05.38-1.87 1.51-2.66 3.39-2.4a8.81 8.81 0 0 1 2.7 3.93c2.17 34.97.34 69.99.99 104.98v54.76L82.34 924c-.08 7.76 3.05 11.49 10.96 11.16 4.1-.17 8.22.01 12.33.01l387.18.02c6.57 0 13.15-.26 19.72.34 1.61.23 3.12.73 4.55 1.5 1.58.97 2.01 2.32 1.31 4.04l-212.33.07c-.83 1.03-1.65.98-2.47-.01-71.05 0-142.09.03-213.14-.1-4.7 0-9.94 1.89-14.01-2.37l-.05-59.28.06-12.36v-9.83l-.1-17.27z" fill="#e18c2a"/><path d="M303.58 941.11l2.47.01c8.38 5.24 17.6 1.88 26.39 2.29 13.55.64 27.15.03 40.72.28 2.98.06 8.61-2.5 7.76 4.16-.75 5.9-6.66 3.71-8.76 2.74-20.59-9.48-42.04-1.91-63.09-2.38h26.44l-.07 2.11H131.52l-.03-1.45h152.06v-2.45H87.99c4.08-4.3 7.65-2.75 10.63-2.75l177.72-.21c9.08-.03 18.81 5.62 27.24-2.36z" class="Bg"/><path d="M518.39 941.05v-2.12c3.34-4.03 8.05-3.69 12.51-3.69l410.18.04c1.65 0 3.27.27 4.88.62 1.58.53 3.01 1.33 4.3 2.4-3.76 4.93-9.14 2.69-13.74 2.7l-213.19.13h-2.47l-202.46-.07z" fill="#e28c2a"/><path d="M950.26 938.29l-1.17.07-1.17-.09c-1.14-1.19-1.98-2.56-2.52-4.11-1.61-8.94-.81-17.98-.83-26.97l-.08-184.37c-.03-1.59-.03-3.19-.01-4.78l-.12-202.19a5.97 5.97 0 0 1 1.57-4.37h4.23l.32 229.85.28 19.66c1.47 6.5 1.46 13 0 19.49l-.04 29.76.05 39.49-.51 88.56z" fill="#9e6226"/><path d="M501.02 946.05c-24.06 0-48.18 1-72.15-.45-10.87-.65-19.06 8.14-29.73 5.41-2.28-.58-5.42.13-5.81-3.13-.5-4.3 3-4.22 5.81-4.23l101.85-.03.01 2.43zm38.73 4.39h-45.19c14.01-9.93 28.64-4.76 45.19 0zm-104.52-1.4h26.1v1.23h-26.58l.48-1.23z" class="Bg"/><path d="M957.37 736.9v31.02h-1.23v-31.38l1.23.36zm-6.61 43.59v-19.5c3.47 6.5 3.47 13 0 19.5z" class="Bm"/><path d="M76.48 711.48l-.08 111.09c-2.67-2.05-2.65-5.03-2.39-7.88 2.58-27.86-3.02-55.45-1.96-83.43 1.64-43.37-.57-86.87-.43-130.32.11-33.56 1.94-67.28 1.08-100.64-1.21-47.22-.66-94.41-.78-141.6l-.47-51.19c.11-5.82-.11-11.6 4.97-15.78 4.36 4.31 3.43 9.9 3.44 15.13l.02 389.39c0 5.29.59 10.79-3.4 15.23z" class="Bk"/><path d="M79.23 67.16l429.23-.12c4.11 0 8.22-.18 12.32-.27 4-2.95 8.66-2.14 13.1-2.14l174.93-.03c4.91 0 9.9-.42 14.43 2.19l2.56.58c.55 1.76 0 3.05-1.63 3.89-5.89 2.57-12.13 1.65-18.24 1.68-60.37.35-120.75-.53-181.11.51-1.46.48-2.97.74-4.5.86-1.53.11-3.05.01-4.57-.23-2.24-.49-4.49-.99-6.81-1.02l-208.97-.03a152.27 152.27 0 0 1-4.78.01c-70.19-.39-140.38.5-210.57-.42a13.35 13.35 0 0 1-4.52-1.52c-1.61-1.02-1.9-2.34-.87-3.94z" fill="#9d6226"/><path d="M79.23 67.16a9.26 9.26 0 0 0-.01 2.41c3.79 4.55 3.14 10.05 3.14 15.34l-.03 610.36c0 5.59 1.27 11.68-3.71 16.22h-1.07-1.07l-.05-419.74.13-210.8c.01-4.62-2.19-9.98 2.68-13.77z" fill="#e18b2a"/><path d="M723.24 66.79c-67.49 0-134.97-.01-202.46-.02l-6.59-7.92c10.39 4.13 19.36 3.24 28.26 3.24l166.59.06c5.14 0 11-1.59 14.2 4.63z" class="Bj"/><path d="M725.73 69.18l.07-1.81 5.01.04 2.65 2.25c1.06 1.25 1.85 2.66 2.39 4.2 1.79 20.09.66 40.23.76 60.35l.01 124.52c-.01 5.68.94 11.57-2.23 16.86-1.12 1.42-2.52 1.76-4.18 1.05-4.15-5.41-2.87-11.78-2.88-17.81l-.11-179.61c-.08-1.37-.25-2.75-.57-4.1-.69-1.91-.97-3.9-.91-5.94z" class="Bn"/><path d="M736.66 572.88c3.79.27 4.13-3.71 4.18-6.32.2-9.7 5.95-15.27 12.73-19.75 1.77-4.02 4.25-7.73 7.08-10.55 6.61-6.61 14.73-9.1 23.79-9.85 8.51-.71 17.58.02 26.32 2.1-14.65-9.45-30.89-14.18-50.29-9.5-6.06 1.46-10.48-.22-13.01-6.13-7.78-4.52-13.88-3.62-14.53 6.34-1.01 15.58-.68 31.23-.06 46.84.11 2.72.25 6.58 3.79 6.84zm209.22-59.09a2.55 2.55 0 0 1 .04-2.3l-.16-5.09-1.86-1.6c-3.85-1.91-8.01-1.69-12.11-1.69-60.89-.06-121.78-.07-182.67.02-4.48 0-9.13-.44-13.03 2.65-1.26 2.51-.07 4.15 2.29 4.27 8.15.41 16.03 2.62 24.32 2.57l156.35-.03c4.62.01 9.97-2.15 13.87 2.64-.86 11.42-.86 22.92-.85 34.43l.02 135.71q0 22.57-23.17 22.57H774.44c-5.76 0-11.51.17-17.27-.23-4.86-.34-7.44-2.84-7.87-7.73-1.09-12.47.01-23.5 9.81-32.96l-.53-.46c-5.65-5.19-8.77-12.34-9.52-19.79-13.86 14.54-19.95 30.97-16.6 51.97 1.05 6.61-2.25 14.2 4.53 19.44 3.46 1.37 6.98 1.23 10.52.31 2.35-.8 4.81-.98 7.27-.98l167.33-.04c3.72 0 7.37.37 10.91 1.52 4.87.5 9.86 1.46 13.41-3.35l.18-139.15c-.04-20.89 1.15-41.81-.77-62.69z" class="Bd"/><path d="M731.09 276.95l1.69.12 1.99.77c1.23.78 2.48 1.5 3.8 2.12 14.72 2.05 29.48.69 44.21.87 53.68.67 107.37-1.04 161.06.88a13.58 13.58 0 0 1 4.02 2.37l.2 5.03c-1.4.75-2.9 1.15-4.49 1.22-69.3.24-138.61-.81-207.91.59-1.51.46-3.06.7-4.64.77-1.58.05-3.13-.14-4.67-.49-37.24-2.14-74.51-.37-111.77-.89-27.54-.1-55.08.03-82.62-.07-4.9-.02-9.9.51-14.57-1.7-1.58-.87-2.24-2.2-1.99-3.99a8.79 8.79 0 0 1 3.91-2.72c34.81-2.33 69.69-.4 104.54-1.28 32.81-.83 65.64.21 98.43.21 3.57.26 5.85-2.54 8.79-3.81z" class="Bi"/><path d="M947.88 501.37c.07 2-.15 3.88-2.11 5.03l-.55.39c-3.66-2.82-7.91-1.43-11.86-1.44l-196.5-.04-2.13.9c-1.33 1.05-2.76 1.22-4.31.52-1.2-2.35-1.08-4.5 1-6.35 1.35-.88 2.82-1.46 4.4-1.76l207.9.34a13.27 13.27 0 0 1 4.16 2.42z" fill="#955f26"/><path d="M947.88 501.37c-.86 0-1.73-.02-2.59-.03a12.87 12.87 0 0 1-2.45-4.12c-1.31-4.39-1.18-8.91-1.18-13.41V306.9c0-4.9-.24-9.85 1.51-14.59.67-1.53 1.74-2.69 3.2-3.49.56.14 1.12.23 1.69.28l-.19 212.27z" fill="#c0a582"/><path d="M733.49 72.27l-.03-2.61 202.09-.09c3.56 0 7.47-1.12 10.49 2.01l-1.58 1.74c-14.42 5.08-29.29.9-43.91 2.16-22.8.89-45.61.09-68.41.22-31.52-.34-63.06 1.5-94.56-1.02-1.53-.53-2.89-1.34-4.1-2.41z" fill="#c4a885"/><path d="M947.87 284.07h-2.6c-1.09-1.24-1.9-2.65-2.43-4.21-1.22-5.25-1.25-10.59-1.25-15.94l.06-172.63c.01-6.45-1.17-13.28 3.49-18.94l.89-.77c2.94 3.09 1.93 6.97 1.93 10.55l-.09 201.94z" fill="#c1a582"/><path d="M515.92 938.35l-323.97.29c-34.08.03-68.16-.16-102.24.13-7.52.06-11.29-1.41-10.97-10.08.66-18.04.37-36.12.47-54.19 1.72-.63 3.01-.13 3.87 1.48 3.62 14.97 1.22 30.2 1.67 45.3.22 7.45 2.32 11.45 10.57 11.44l187.12-.09c2.49 0 4.91-.33 6.91-2.01 4.25-3.89 3.35-9.04 3.35-13.88V741.77c0-4.87.78-9.97-3.15-13.95-4.12-3.8-9.22-2.97-14.08-2.98-58.28-.04-116.56-.04-174.84 0-4.83 0-9.99-.98-13.78 3.34-4.02 8.27-1.47 17.03-1.96 25.53-1.25 21.66 2.18 43.47-1.91 65.07-.92 1.56-2.21 2-3.89 1.31l.06-106.14c1.1-.81 2.25-.91 3.49-.33 2.35 1.33 4.89 1.82 7.59 1.78l185.82-.03c4.46 0 9.07.74 13.13-1.93 4.48-3.75 3.5-8.92 3.51-13.74l-.01-92.2.08-77.31c.03-5.25-.77-10.71 2.4-15.5 1.31-1.36 2.72-1.47 4.24-.35 3.67 5.06 2.64 10.94 2.66 16.55l.09 91.61-.25 77.65c-.35 12 3.94 15.5 15.63 15.45l253.92-.21c9.99.94 20.29-1.93 30.03 2.33 1.36 1.14 1.65 2.52.89 4.12-7.03 4.81-15.03 2.2-22.59 2.98-20.59-.06-41.19-.02-61.79 0-1.54.04-3.08.03-4.63.03a144.78 144.78 0 0 1-4.66 0c-63.26-.09-126.51-.02-189.77.01-5.21 0-10.85-1.24-14.89 3.63-2.17 3.32-1.91 7.06-1.91 10.73v179.29c0 3.68-.23 7.4 2.01 10.63 4.56 5.13 10.66 3.48 16.2 3.5l185.55.14c1.47 0 2.93.14 4.39.35 1.43.25 2.77.77 4.02 1.53 1.24.92 1.77 2.15 1.61 3.7z" fill="#925c24"/><path d="M298.24 513.96h-.83-.83c-3.09-1.34-4.46-5.02-7.99-5.77-32.83-1.51-65.65-.38-98.46-.61-29.54-.2-59.08-.09-88.63 0-4.85.02-9.89-.97-14.41 1.71-1.56 1.69-2.05 3.76-2.14 5.99l-.19 181.29c-.02 5.95 1.64 12.51-3.8 17.38h-.91-.91l-.53-2.47.27-227.14.03-401.21c0-4.52.19-9.04.3-13.56l2.53.12a13.13 13.13 0 0 1 2.33 4.2c1.69 20.05.64 40.14.71 60.22l.08 147.61.02 4.75v4.73l.04 190.48c0 5.13-1.56 10.8 3.13 15.02 2.67 1.39 5.55 1.41 8.42 1.4l190.55-.29c1.42-.4 2.71-1.05 3.81-2.03 3.02-4.95 1.82-10.43 1.83-15.67l.08-172.31c0-5.72-.53-11.5.95-17.16 1-2.33 2.19-4.41 5.26-4.01a10.08 10.08 0 0 1 2.41 4.22c1.7 37.76.46 75.54.72 113.32l-.03 93.65c-.03 5.57 1.34 11.69-3.8 16.14z" fill="#935e25"/><path d="M515.92 938.35l-.15-1.86 1.5-1.64c1.29-.78 2.68-1.3 4.17-1.59 1.51-.27 3.03-.4 4.56-.44l199.82-.14 4.74-.02h4.76l191.12.06c5.74 0 11.51-.45 17.21.74a13.13 13.13 0 0 1 4.2 2.37c.05.82.08 1.63.08 2.44l-225.87.36-203.66.29-2.47-.57z" fill="#905d25"/><path d="M79.09 820.1h1.88c6.17 18.13 6.2 36.26-.02 54.38-.58 0-1.17 0-1.75.03l-.11-54.41z" fill="#966527"/><path d="M947.87 718.59l-.05 3.18c-1.26 1.02-2.66 1.79-4.19 2.3-55.42 1.73-110.86.39-166.3.68-13.52.07-27.1 1.08-40.6-.84-1.56-.52-2.87-1.42-3.92-2.69.18-1.77 1.12-2.9 2.82-3.41 69.2-2.32 138.4-2.11 207.6-.11a9.13 9.13 0 0 1 4.63.89z" fill="#935b24"/><path d="M945.32 721.77h2.51l.02 214.06-2.55-.04c-1.06-1.15-1.85-2.45-2.39-3.91-2.54-18.92-.31-37.92-.97-56.87-.27-8.17 0-16.34-.08-24.51.52-5.09-.15-10.19.08-15.28.36-5.76-.14-11.53.16-17.3-.31-3.64.2-7.28-.2-10.92-.21-8.9.44-17.8.17-26.7.02-18.22-1.39-36.46.81-54.64a11.4 11.4 0 0 1 2.45-3.89z" fill="#c0a582"/><path d="M947.87 718.59c-.86 0-1.72-.02-2.57-.03-.7-.48-.95-.97-.74-1.48.21-.52.43-.78.65-.78l.35-185.34c.01-5.72.22-11.45.33-17.17 3.31 2.94 2.07 6.88 2.07 10.41l-.08 194.4z" fill="#c1a582"/><path d="M518.42 72.4l2.25-.73c4.38-1.64 8.94-.83 13.41-.83l180.91.01c4.45 0 9.03-1 13.34 1.02v.08c2.1 4.29 1.05 8.87 1.06 13.3l.07 189.17c-.01 1.97.43 4.34-1.73 5.43-2.52 1.27-4.95 2.75-7.92 3.21-23.31 3.62-25.65.77-18.54-23.59-4.81-1.06-9.67.86-14.57-.71.24 4.95 4.29 10.49-1.34 13.79-5.84 3.43-10.03-1.24-13.87-4.89-7.43-7.08-14.54-14.48-21.83-21.71-5.21-5.17-8.38-10.67-2-16.83 7.02-6.78 9.55 1.6 13.46 4.66 2.22 1.74 3.84 4.23 5.9 5.8 1.29-.12 1.99-.71 1.76-1.59-1.27-4.75 3.61-12.52-3.44-13.89-7.15-1.4-15.53-.99-20.04 7.91-2.2 4.35-5.65 8.39-6.76 13.02-4.06 16.81-17.92 25.57-28.94 36.69-1.65 1.67-3.73 1.35-5.72 1.35-25.86-.03-51.73.32-77.59-.29-3.69-.09-9.62 1.31-10.79-5.34-1.28-64.95-.38-129.87-.48-194.79 0-3.74.43-7.42 3.39-10.22z" class="Bd"/><path d="M516.07 283.99l-.17 2.5c-2.2 2.48-4.69 2.39-7.37.85-.83-1.25-1.04-2.6-.67-4.06l1.53-4.14c1.4-60.65.18-121.28.62-181.91.06-7.77-.58-15.57.66-23.32.49-1.52 1.24-2.9 2.24-4.14l3.1 2.44c1.14 1.84 1.1 3.9 1.1 5.96v199.84c0 2.06.08 4.12-1.05 5.97z" fill="#946226"/><path d="M81.79 72.26l-.05-2.57 214.02-.02c1.02 1.58.72 2.87-.89 3.85a13.89 13.89 0 0 1-4.45 1.56c-56.7 1.84-113.41.4-170.11.74-11.47.07-23.01 1.1-34.44-1.03-1.54-.56-2.89-1.41-4.08-2.53z" class="Bo"/><path d="M295.66 72.21l.1-2.54 3.22-.01a13.51 13.51 0 0 1 2.35 4.25c1.77 42.61.38 85.25.75 127.88l-.01 66.43c-.03 5.27.75 10.73-2.42 15.55-1.32 1.41-2.74 1.5-4.24.29-3.44-4.71-2.65-10.21-2.66-15.47v-181c0-5.26-.78-10.77 2.92-15.37z" fill="#925b25"/><path d="M299.01 72.25l-.02-2.59 213.93.12c.08.81.05 1.61-.09 2.41-1.15 1.17-2.5 2.01-4.04 2.55-10.99 2.01-22.07.61-33.09.63l-165.98.02c-2.3-.05-4.61-.1-6.84-.78-1.44-.53-2.73-1.32-3.86-2.36z" class="Bo"/><path d="M516.07 283.99l-.05-211.78a3.2 3.2 0 0 1 2.41.19l.01 209.42c.83.47 1.11.93.82 1.38-.28.45-.56.68-.85.68l-1.16.29-1.18-.18z" fill="#faf5ef"/><path d="M728.34 71.87l-207.67-.2c4.2-3.96 9.4-2.03 14.09-2.05l190.96-.44 2.61 2.69z" class="Bo"/><path d="M727.91 279.29l.42-207.35c4.31 4.05 2.27 9.3 2.29 13.96l.47 191.04c-.85 2.43.76 5.95-3.12 7.03-1.2-1.55-1.28-3.11-.05-4.68z" class="Bp"/><path d="M733.49 72.27a4.72 4.72 0 0 1 2.33.1c3.07 1.14 5.98 1.9 5.64 6.53-4.39 59.83-.69 119.77-2.12 179.64-.15 6.31 2.85 14.26-5.72 18.18l-.83.34.42-187.53.28-17.26z" fill="#fafbf9"/><path d="M940.24 509.9c-2.74-1.69-7.15-.85-10.81-.85-60.26-.04-120.51 0-180.77-.09-4.35 0-9.08 1.45-12.97-1.99-.61-1.33-1.33-1.33-2.15-.18l-.49-.31c-3.88 4.48-3.23 9.97-3.27 15.25l-.08 49.19.08 127.1c.01 5.7-.82 11.56 1.87 16.99.96 1.62 2.31 2.06 4.05 1.33v-41.96c0-3.66-.67-7.57 2.23-10.56l11.99-12.38c-2.53-10.39-.12-22.12 6.74-30.32 1.16-4.94 1.58-10.03 2.53-15.03 1.17-6.13 3.4-12.3 6.54-17.92-8.76-6.45-14.43-17.54-14.91-28.13-.29-6.39 2.21-13.47 5.99-19.06-11.64 4.97-20.09 13.37-20.28 29.94-.84-16.41-.21-32.44-1.1-48.37-.47-8.42 3.09-10.73 10.13-11.06l178.58.09c4.69.01 9.94-1.89 14 2.38 2.11-.74 6.09-1.6 2.11-4.06z" class="Be"/><path d="M733.62 716.35l2.06-.01h9.9c2.63-1.65 5.56-1.09 8.39-1.1h170.78c2.82 0 5.76-.55 8.39 1.09l12.06-.05c.21.75.24 1.51.09 2.27l-211.98.18-.67-1.3.98-1.09z" fill="#ede8db"/><path d="M735.68 506.96l-1.07-.21-1.09.03c1.75-4.31 5.59-2.62 8.51-2.63h194.73c2.89 0 6.77-1.83 8.44 2.62l-209.54.18z" fill="#d5c1a7"/><path d="M933.14 716.34H745.58c2.83-3.4 6.75-2.35 10.31-2.35h166.94c3.55 0 7.48-1.05 10.31 2.35zM733.61 276.72c3.54-3.86 1.97-8.6 1.98-12.93l.2-170.81c.02-5.48-3.09-12.16 3.83-16.18l-3.81-4.43 96.23.02c8.59 2.71 17.36 5.01 25.22 9.55 3.7 2.14 9.37 3.45 7.39 9.56-1.75 5.43-6.09 6.73-11.81 6.3-11.49-.87-14.33 3.55-11.19 14.71 1.41 5 3.66 4.66 7.02 2.66 3.93-2.33 7.23-5.52 10.12-8.96 9.64-11.5 23.51-17.84 34.02-28.3 5.14-5.11 11.72-1.49 17.43-2.01-2.23-2.53-8.21 3.28-9-3.54l43.88-.04.03 209.37c-5.66.97-11.33 1.39-17.09 1.38l-178.28-.08c-5.62 0-11.63 1.27-16.18-3.65v-2.65z" class="Bd"/><path d="M727.91 279.29l.05 4.68-209.55-.09.02-2.06c5.08-5.63 10.03.65 15.22.4 18.86-.92 37.8-.31 56.71-.4 5.63-.03 14.19 1.74 16.38-1.13 8-10.53 22.36-15.66 25.83-29.7 2.36-9.55 8.56-16.66 14-24.27 4.69-6.56 12.38-6.39 19.23-6.91 5.51-.42 9.95 1.69 6.56 8.93-.82 1.75-.38 4.05-.85 6.02-.95 3.98 6.08 9.35-.66 11.63-5 1.69-5.86-5.83-9.57-8.16-1.69-1.07-2.71-3.25-4.42-4.23-2.42-1.39-2.48-8.6-7.8-3.33-4.11 4.06-3.53 7.21.68 11.13 8.73 8.11 16.91 16.8 25.41 25.17 2.54 2.5 5.52 6.82 9.19 3.82 4.31-3.52.85-7.18-2.07-10.34-1-1.08-1.21-2.88-2.06-5.06 7.89-1.05 15.89 4.7 22.64-2.05.83-.83 2.81 1.04 2.99 2.93.28 2.89.38 5.74-1.37 8.31-3.41 4.99-9.06 14.03-5.29 15.63 6.49 2.76 16.09 5.71 23.28-1.84 1.86-1.95 3.66.43 5.46.93z" class="Be"/><path d="M508.54 286.37l7.36.12 98.79.64c.59 1.69.1 2.94-1.48 3.78-14.26 4.06-28.84 1.3-43.27 2.01-16.93-.47-33.85-.1-50.78-.17l-9.42.04-199.33.27c-2.46 0-4.91-.29-7.29-1.02-1.54-.58-2.91-1.44-4.11-2.57l.12-2.57c3.9-4.05 9.02-3.53 13.89-3.53h182.59c4.51 0 9.12-.16 12.92 3.01z" fill="#cfb095"/><path d="M731.01 501.65l.08 4.85c1.9 20.88.34 41.81.82 62.71a7.04 7.04 0 0 1-1.27 4.49c-1.77.31-3.1-.32-4-1.88-4.03-14.52-1.98-29.43-2.05-44.09l-.05-227.97c.31-2.35.47-4.73 1.14-7.02.54-1.52 1.44-2.78 2.69-3.8.7.18 1.42.32 2.14.42 4.07 3.84 3.65 8.93 3.66 13.8l.02 184.42c0 4.9.31 9.92-3.17 14.06z" class="Bp"/><path d="M733.61 279.38c5.89 1.95 11.89 2.58 18.13 2.56l173.94-.28c4.58-.02 10.2 3.43 14.3-3.09 1.68-2.67 3.04 2.56 5.18 3.14.26.77.3 1.55.1 2.35l-203.3.12c-3.19 0-9.15 2.89-8.36-4.81z" fill="#fafbf9"/><path d="M731.01 501.65l-.5-212.29c.67-.05 1.34-.06 2.01-.03l1.89 1.52c2.58 4.02 2.63 8.58 2.64 13.09l-.01 184.77c0 2.88-.18 5.75-1.03 8.53-.57 1.54-1.39 2.93-2.44 4.19l-2.55.21z" class="Bn"/><path d="M732.51 289.33c2.81-3.39 6.72-2.49 10.3-2.49h194.25c3.21 0 6.63-.64 9.32 1.98-.41.22-.82.45-1.22.68-4.76 4.33-10.73 3.67-16.4 3.68H749.99c-5.66-.01-11.65.67-16.31-3.87l-.58.27-.59-.25z" fill="#cfb095"/><path d="M728.37 288.95l-.2 2.99c-3.35 1.54-6.87.57-10.32.74-10.96-.05-21.9 0-32.87.08-18.08.59-36.15.53-54.22.33-5.62-.06-11.67.79-16.07-4.23v-1.73l108.25-.29c2.06 0 4.1.15 5.43 2.1z" fill="#cfb296"/><path d="M733.56 501.44a3.06 3.06 0 0 1 .13-2.34c5.06-4.78 11.47-3.78 17.49-3.8l181.86-.16c4.38-.02 9.22-1 12.11 3.87a4.76 4.76 0 0 1 .13 2.34l-211.73.1z" fill="#faf2ed"/><path d="M731.08 570.74v-64.25l1.95-.02-.23 64.27c-.57 1.12-1.15 1.12-1.72 0z" class="Bn"/><path d="M945.15 499l-211.47.1-.02-209.78 211.48.19v209.5z" class="Bd"/><path d="M901.26 72.39c3.17 4.16 8.85.06 13.17 4.47-22.12-3.31-31.38 15.6-46.07 24.58-6.82 4.17-11.4 11.93-18.08 16.46-4.28 2.9-14.1 10.65-11.27-5.45.87-4.97-7.02-10.35 1.11-15.61 3.92-2.54 6.67-6.08 11.65-2.63 4.17 2.89 8.11 2.16 10.34-2.23 3.57-7.05-4.32-5.24-6.7-7.29-6.72-5.81-17.21-4.95-23.36-12.29h69.21z" class="Be"/><path d="M80.95 874.48l.02-54.38.96-96.17c1.71-.39 2.96.21 3.74 1.78 3.71 15.18 1.29 30.61 1.79 45.92l-.1 144.02c-.06 13.65.92 14.53 14.85 14.55l180.98.07c3.09-.03 6.13.2 8.94 1.66 1.52.81 2.01 2.05 1.47 3.7l-183.4.41c-9.25 0-21.04 4.2-27.12-2.18-5.49-5.75-1.41-17.23-1.7-26.17-.35-11.06-.32-22.14-.45-33.21z" fill="#eadace"/><path d="M572.7 718.48l-265.02.53c-6.81.02-9.32-1.73-9.2-8.92l.57-87.5c1.64-.56 2.87-.07 3.69 1.45 4.29 18.12 1.35 36.52 1.92 54.79.25 8.13 0 16.31-.09 24.47-.07 5.68 1.56 9.66 8.17 9.53l182.37.08c10.79 0 21.59-.44 32.38.03l37.66.22c2.22.12 4.36.55 6.32 1.66 1.45.86 1.86 2.08 1.24 3.64z" fill="#eee8db"/><path d="M301.04 622.6c-.66 0-1.32 0-1.98-.01l-.82-108.63.44-191.2.33-33.29a8.08 8.08 0 0 1 2.25.16c3.46 3.6 3.55 8.1 3.52 12.69l-.15 218.49-.04 85.94c-.46 5.45 1.07 11.34-3.55 15.86z" fill="#f0ebde"/><path d="M512.96 935.96a8.51 8.51 0 0 1-2.13-.26c-1.15-1.17-2-2.53-2.57-4.07a3635.82 3635.82 0 0 1-.02-205.7c.57-1.54 1.46-2.89 2.64-4.03.64-.17 1.29-.26 1.95-.28 4.79 4 4.05 9.59 4.05 14.84v184.57c0 5.26.66 10.82-3.92 14.93z" fill="#d4bda4"/><path d="M512.96 935.96l-.14-214.34 3.42-.12a13.39 13.39 0 0 1 2.36 4.26c1.76 41.93.4 83.89.75 125.84v69.12c-.02 5.28.71 10.81-3.28 15.28l-.31.49-2.8-.53z" fill="#936226"/><path d="M510.71 933.46l.13 2.24-206.85.44c-2 0-4.17.13-4.87-2.49 1.17-1.18 2.54-2.05 4.09-2.64 4.39-1.37 8.94-1.21 13.45-1.21l176.38.02c6.07 0 12.46-.88 17.66 3.65z" fill="#e8dacd"/><path d="M510.88 721.89l-.14 2.27c-3.66 3.33-8.25 3.49-12.77 3.5-62.49.15-124.98.23-187.47-.03-2.47-.01-4.92-.3-7.31-1.05-1.56-.59-2.92-1.48-4.1-2.65.75-2.55 2.89-2.54 4.91-2.54l206.88.5z" fill="#dfd0bc"/><path d="M84.11 724.04l-2.18-.11c1.94-4.07 5.69-2.49 8.67-2.49l195.64-.04c2.73 0 5.85-.9 7.81 2.13l-1.61 1.69c-12.85 4.56-26.12 1.46-39.19 2.1l-107.44.05c-15.54-.2-31.06.76-46.6.31-5.27-.15-10.74.34-15.11-3.64z" fill="#decfbc"/><path d="M293.61 935.63l-.15-2.22c-4.28-4.78-3.66-10.73-3.67-16.4V740.84c0-5.67-.68-11.61 3.38-16.51l.88-.8c3.52 2.86 2.05 6.85 2.05 10.32l-.02 191.85c0 3.35 1.85 7.52-2.48 9.93z" fill="#deceba"/><path d="M299.09 723.93l2.18.12c4.29 4.74 3.76 10.65 3.77 16.32v176.87c0 5.68.43 11.58-3.8 16.33l-2.13.07-.03-209.71z" fill="#f0ebde"/><path d="M293.6 718.49l-209.72-.09c-.74-1.41-.43-2.54.92-3.4 1.22-.7 2.52-1.16 3.9-1.44 1.41-.26 2.83-.39 4.26-.43l46.39-.19 134.25-.39c6.12 0 12.36-.66 18.21 2 1.63.84 2.22 2.16 1.78 3.94z" fill="#ece7db"/><path d="M83.96 716.25l-.08 2.15c-2.85-.25-2.19-2.8-2.91-4.44l.42-182.87c.02-6.54.26-13.08.4-19.61 6.62 1.91 5.37 7.64 5.39 12.2l.08 181.03c0 4.13-.21 8.26-3.29 11.54z" class="Bq"/><path d="M572.7 718.48l.01-1.97c4.98-4.96 11.4-2.9 17.26-3.59 6.75-.28 13.51.3 20.26.04l36.55-.09c11.62.41 23.23-.21 34.84-.14 11.07.79 22.17-.99 33.2.15 4.24.44 10.54-1.09 10.66 6.58-3.8 3.26-8.45 2.84-12.92 2.85h-97.35c-4.51-.01-9.11.16-12.89-3.03l-29.63-.81z" fill="#ece7db"/><path d="M580.12 721.77l22.22-.79c41.49-1.8 83-.48 124.49-.68 1.68.76 2.25 2.02 1.71 3.78-12.51 6.84-26.01 1.56-38.94 3.2l-18.12-.01c-7.49-.3-14.97.49-22.46.1-12.69.35-25.38.23-38.06-.01-6.46.27-12.92-.06-19.38-.04-3.52-.24-7.09-.26-10.32-2.02-1.39-.85-1.77-2.02-1.14-3.53z" fill="#decfbb"/><path d="M728.07 721.86l-125.73-.87v-1.69l123.45-.88c.69-.68 1.51-1.12 2.45-1.36.95-.13 1.9-.08 2.83.11.85.42 1.65.93 2.38 1.54l-.13.03-.16 2.23a3.42 3.42 0 0 1-2.27 1.76 5.2 5.2 0 0 1-2.81-.87z" fill="#925b25"/><path d="M293.6 718.49a17.8 17.8 0 0 0-.06-2.19c-6.81-10.41-2.34-21.95-3.23-32.95-.35-4.39-.07-8.84-.16-13.25l-.17-38.33c.53-5.64.24-11.32.57-16.98.13-2.11.61-4.13 1.71-5.97.87-1.34 2.04-1.68 3.5-1.03l.34 104.56c0 2.28.68 5.07-2.51 6.14z" fill="#dccdb8"/><path d="M295.77 607.78h-.9-.9c-3.51-2.78-3.4-6.8-3.66-10.69l-.05-70.79c.07-4.28.06-8.57.33-12.86.14-2.13.66-4.15 1.8-5.98l1.57-1.38c3.11 1.89 1.72 5.27 2.62 7.89l-.81 93.82z" fill="#ddceb9"/><path d="M580.12 721.77v1.81a8.04 8.04 0 0 1-3.62 2.68c-18.77 1.36-37.55 2.17-56.34.15-1.44-.55-2.71-1.38-3.82-2.45l-.09-2.47 63.87.28z" fill="#dfd0bb"/><path d="M233.25 320.76c3.58 3.29 6.05 7.6 7.6 12.18 8.13-8.9 16.14-17.91 24.93-26.17 3.55-3.33 7.65-6.36 8.81-11.57-7.13-7.26-14.36-3.61-21.12.3-6.08 3.52-10.5 9.14-15.32 14.21l-8.13 8.55 3.23 2.49zm60.78 173.75l-.38-184.32c-.02-5.26.96-10.67-1.38-15.75-4.69-4.19-9.76-4.09-15.07-1.32.24 8.77 6.02 15.85 5.9 25.22l-.35 157.89c-.03 15.58-1.3 16.85-16.9 16.88H120.29c-30.48-.08-27.9 3.31-27.97-27.65l.13-48.77c11.25 11.26 20.49 16.55 30.04 16.39-13.17-4.66-21.22-16.91-22.23-31.36-.19-2.63-.27-5.25-.28-7.87l-2.97-6.12c-6.01-12.15-3.37-22.16 8.99-28.51 5.6-14.74 15.24-27.66 29.54-36.86 4.74-3.05 9.81-5.47 15.09-7.36 4.76-2.56 8.86-6.15 11.56-11.16 3.4-6.31 3.58-11.03-5.92-10.91l-45.87.04 48.39-.1c2.56 0 6.22 1.2 6.53-3.2.13-1.86-2.03-2.25-3.39-2.97-23.52-1.89-47.09-.68-70.65-.65-2.89 0-5.64.76-7.81 2.9-1.81 21.78-.39 43.6-.77 65.4 1.84 12.75 1.78 25.5-.03 38.24l.06 57.96c.3 16.36-1.57 32.78 1.14 49.08 4.41 1.34 8.95.67 13.42.67l179.26.08c4.87 0 9.82-.82 14.62.8l1.16.3 1.16-.31c1.99-2.07 1.04-4.38.54-6.65z" class="Bd"/><path d="M508.54 286.37l-182.31.44-27.1.1-3.07 2.6c-1.44.79-2.98 1.11-4.61.98-17.62-.47-35.24-.36-52.86-.17-52.35.55-104.62-3.1-156.96-3.03l-.11-3.31a13.4 13.4 0 0 1 4.21-2.34c32.69-1.97 65.42-.35 98.13-1.07 31.9-.7 63.83-.2 95.74-.12 4.09 0 8.2-.07 12.17 1.18a12.32 12.32 0 0 1 4.08 2.59h3.11c1.21-1.14 2.6-1.97 4.17-2.52 16.34-1.83 32.75-.73 49.12-.79l138.95.02c5.93.02 12.48-1.64 17.31 3.82l.01 1.61z" class="Bi"/><path d="M83.96 716.25l-.19-190.59c-.01-4.74 1.69-9.89-1.98-14.18l.02-4.65c1.89-2 3.77-1.53 5.64.04 2.37 3.03 3.49 6.57 4.31 10.25 2 38.47.74 76.97.8 115.45.04 25.36 1.4 50.76-.95 76.11-.67 3.31-2.96 5.5-5.31 7.65l-1.17.02-1.17-.1z" class="Bd"/><path d="M81.63 287.29l205.53-.45c2.41 0 5-.28 6.58 2.25 1.15 1.18 1.08 2.28-.21 3.3-2.73.03-5.39-.81-8.14-.65-8.58.13-17.16-.31-25.75.27-28.91 2.38-57.83 1.01-86.74.72-2.87-.03-5.64-.92-7.76-3.1H84.08c-.8.92-1.53.83-2.2-.15a6.51 6.51 0 0 1-.25-2.19z" fill="#cfb296"/><path d="M83.94 283.94l-1.2.24-1.21-.2.26-211.72c.76-.06 1.51-.02 2.26.12 2.85 2.83 3.49 6.52 3.5 10.23l-.49 194.8c-.37 2.49-1.29 4.72-3.11 6.52z" class="Bq"/><path d="M293.7 291.84l.05-2.74a23.03 23.03 0 0 1 2.32.42l-.03 200.67c0 3.66 2.36 8.3-2.54 10.99l-.05-4.63c-2.02-13.02-.82-26.12-.86-39.17l-.06-160.96c-.13-1.66.27-3.18 1.17-4.57z" fill="#deceba"/><path d="M81.88 289.48c.74-.03 1.47.02 2.2.14l-.12 66.36c1.77 11.49 1.77 22.98 0 34.47l.02 108.61c.79.5 1.04.98.76 1.45-.28.46-.55.68-.82.68-2.65-.68-2.49-2.9-2.49-4.87l.46-206.85z" class="Bq"/><path d="M86.29 506.87l-4.48-.04c1.84-4.12 5.59-2.7 8.6-2.7l195.65-.04c2.75 0 5.83-.87 7.91 1.99l-.59 1.04c-2.59 2.22-5.7 2.79-8.97 2.82l-181.67.07c-4.08 0-8.19.21-12.22-.78-1.53-.56-2.93-1.35-4.21-2.35z" fill="#d5c1a7"/><path d="M83.91 501.19c-.02-.71 0-1.42.07-2.13l194.24.14c4.35 0 9.08-1.5 12.96 1.97l-207.27.02z" fill="#faf2ed"/><path d="M681.26 739.18c1.71-2.74 2.94-5.8 3.3-9.42-2.66-4.61-7.08-3.08-11.05-3.15-1.32.25-2.54.71-3.67 1.44-1.86 1.43-3.67 2.94-5.41 4.5 6.11 1.26 11.91 3.33 16.84 6.64zm50.41-1.37c0-4.81.66-9.98-3.76-13.66l-39.04-.11c1.51 7.55 9.07 4.5 13.18 7.48 7.8 1.72 10.32 6.98 10.32 14.49l.02 167.8c0 7.6-2.89 11.39-10.84 11.39l-159.16.03c-7.13 0-10.61-2.83-10.57-10.22l.02-45.65c0-6.45 2.22-9.94 9.42-9.63a64.09 64.09 0 0 0 4.39.04c-6.26-5.81-10.47-13.94-11.23-22.44l-2.33-.75c-5.74-1.89-13.33-5.76-14.91 5.32l.07 32.98c.54 20.29-1.54 40.63 1.18 60.87h2.4c4.4-1.59 8.97-.81 13.45-.82l181.36-.1c4.44 0 9.06 1.12 13.32-1.18 3.1-3.84 2.73-8.46 2.73-12.92l-.02-182.92z" class="Bd"/><path d="M730.22 721.67l2.93-.7.26.69c1.1 1.22 1.93 2.59 2.5 4.12 1.75 6.43 1.16 13.01 1.16 19.53v168.18c0 6.12.52 12.29-1.1 18.32-.57 1.53-1.39 2.92-2.44 4.17l-3.24-.08c-1.77-25.42-.73-50.87-.67-76.3l.59-137.94z" fill="#9e672d"/><path d="M730.22 721.67l.08 214.24-1.13.04-1.11-.18c-.73-.47-.99-.97-.78-1.49.21-.53.43-.8.67-.8l-.04-209.34c.13-.76.19-1.53.16-2.3a5.58 5.58 0 0 1 2.15-.18z" class="Bp"/><path d="M733.54 936c-.24-.82-.21-1.63.08-2.43 3.9-3.83 8.94-3.68 13.79-3.68l80.76.2 25.14.06c3.03-.42 6.05.09 9.08.02 11.4-.6 22.8.14 34.2-.23 11.65-.21 23.3-.12 34.94 0 4.78.05 9.74-.16 13.62 3.54a7.41 7.41 0 0 1 .13 2.3l-211.75.2z" fill="#e8dace"/><path d="M518.41 837.41l.02 98.34-1.15.34-1.2-.09.26-212.03c.72 0 1.43.04 2.14.12 7.23 14.76 2.39 30.42 3.47 45.64.11 4.56.28 9.12-.06 13.68-.39 10.58.54 21.15.19 31.73-1.08 7.44 1.96 15.57-3.66 22.27z" fill="#f9f5ed"/><path d="M727.95 933.49c.15.76.19 1.52.11 2.29-69.08 0-138.16-.02-207.24-.03 4.29-3.66 9.44-1.97 14.18-1.98l192.95-.27z" fill="#e9dace"/><path d="M733.65 724.02c-.28-.77-.35-1.55-.23-2.36l211.9.11a9.01 9.01 0 0 1-.09 2.32c-4.79 4.28-10.74 3.65-16.42 3.66H750.02c-5.66-.01-11.64.68-16.37-3.72z" fill="#dfd0bc"/><path d="M733.65 724.02l-.02 209.55 95.85-.03c8.67-4.45 6.2-10.86 3.54-17.78 0-.01 0-.02-.01-.04a103.91 103.91 0 0 1-15.5-5.96c-10.42-5.05-16.66-17.92-16.66-29.05 0-9.49 4.69-20.8 12.78-26.74 6.04-15.32 24.59-22.48 40.01-18.97.94.21 1.88.5 2.81.84-.52-10.58-1.43-21.16-1.48-31.72-.09-18.86 15.48-32.82 33.64-33.64 17.38-.78 32.11 14.51 33.52 31.19a32.14 32.14 0 0 1 1.41-.33c12.12-2.46 19.84-8.22 21.59-20.83l.1-56.42-211.58-.07z" class="Bd"/><path d="M922.25 804.12c.02 4.26.18 8.51.39 12.76 9.38 2.85 13.34.47 22.49-8.99v-27.38c-1.5-.48-4.29-1.11-4.11.45 1.61 13.76-8.66 14.58-17.73 16.96-.54.14-1.08.3-1.62.45.36 1.89.56 3.82.57 5.75zm-93.1 110.39l1.05 2.57c2.65 6.15 3.62 11.14-.72 16.46h24.67c.22-5.16-.95-9.77-2.78-14.14-7.61-.8-15.13-2.49-22.21-4.89zm93.86-90.78c.49 8.3 1.03 16.6 1.05 24.92.05 19.23-2.02 39.22-16.21 53.58-12.94 13.09-30.83 18.09-48.92 17.65-2.64 4.88-1.33 9.45 2.64 13.7l34.55-.04c-1.03-9.1 5.72-13.24 11.04-18.88 8.71-9.23 15.59-22.49 26.96-26.11 9.42-3 10.27-6.99 11.02-13.96l.03-24.95c-4.44-10.5-13.74-17.15-22.16-25.93z" class="Be"/><path d="M896.12 933.55c-3.35-4.37-6.75-8.89-.13-13.2 11.86-7.7 18.25-20.85 29.33-29.2 4.48-3.37 6.18-12.08 15.76-7.42 3.37 1.64-.16-7.15 4.05-9.14l.01 58.89-49.03.06zm49.09-115.92l-.08-9.74c-3.69 2.54-8.82 2.17-11.92 6-3.41 4.21-6.78 3.59-10.22-.18l-.51-.54.81 15.32 21.88 21.16-.03-14.77c-3.27-5.77-6.57-11.54.08-17.26z" class="Bd"/><path d="M945.14 834.89c-11.93-10.17-11.93-11.37.08-17.26l-.08 17.26z" fill="#f7f7f6"/><path d="M510.58 72.28c.75-.08 1.5-.11 2.26-.09l.54 203.23c0 2.94 1.62 6.75-2.58 8.58-1.76-1.84-2.68-4.08-3.15-6.54-1.28-64.53-.41-129.07-.46-193.62 0-4.12.38-8.26 3.4-11.56z" fill="#d4bca5"/><path d="M510.62 279.45l.17 4.54-2.27.77-175.47-.45-31.88-.38c-.42-1.79.19-3.09 1.83-3.92 4.21-2.07 8.77-1.99 13.27-2l184.75-.1c3.28 0 6.59-.14 9.61 1.54z" fill="#fafbf8"/><path d="M83.97 279.34l.08-206.96 209.35-.07c1.96 1.53 1.47 3.37.69 5.26-2.74 4.52-1.98 9.56-1.99 14.44-.07 21.77-.88 43.59.26 65.3.78 14.84-4.53 24.25-17.75 30.18-9.07 4.06-16.57 10.44-24.03 16.98-8.43 7.39-14.12 15.87-15.31 27.14-.3 2.86-.27 6.34-2.53 8.07-14.25 10.87-25.23 25.26-41.89 33.82-32.62 16.75-66.93 6.8-100.4 9.2-2.41.17-4.45-1.94-6.48-3.34z" class="Bd"/><path d="M293.47 76.85l-.07-4.54a10.14 10.14 0 0 1 2.27-.1l.19 212.01h-1.18l-1.14-.29c-4.62-5.1-3.74-11.46-3.69-17.46.26-34.2-1.22-68.42 1.4-102.58l.3-82.78c.31-1.58.95-3 1.93-4.28z" fill="#ddcdb9"/><path d="M301.16 281.84l.01 2.08-1.08.3h-1.12l.04-211.97a6.89 6.89 0 0 1 2.22.12c1.74 1.77 2.7 3.91 3 6.36.94 29.05-.19 58.13.64 87.19l-.22 83.34c-1.45 10.83 3.06 22.31-3.49 32.59z" fill="#eee9de"/><path d="M510.58 72.28l-204.36.1c.08 3.81 2.97 3.24 5.28 3.24h.64c-7.15.45-8.7 4.13-8.6 11.05l.26 53.04c.2 6.47-4.02 17.06 3.94 18.56 7.65 1.45 9.96-6.16 11.89-12.73a36.82 36.82 0 0 1-.81-6.27c-.8-17.92 16.04-33.98 33.64-33.64 9.59.18 19.14 1.89 28.14 5.18 5.82 2.13 11.48 4.49 17.58 5.68 7.16 1.28 13.25 4 18.92 9.2 6.6 6.06 9.46 15.09 9.85 23.79.38 8.38-4.02 17.95-9.85 23.79-5.57 5.57-15.67 10.6-23.79 9.85-7.24-.66-13.82-1.76-20.46-3.79-15.47 16.2-32.41 31-47.49 47.62-7.64 8.42-18.6 14.48-21.31 25.21-.63-.83-1.54-1.62-2.85-2.34l-.03 32.02 195.2.02c4.89 0 9.87.53 14.27-2.41l-.05-207.17zm-20.77 3.59c-55.34-.19-110.68 0-166.01-.26l165.24-.28c.77 0 1.07-.25.91-.59-.69-1.5 1.51 1.18-.14 1.14z" class="Bd"/><path d="M492.87 74.46c-57.48 0-114.96.05-172.45-.08-4.74-.01-9.91 1.73-14.21-1.99-1.66 0-3.32-.01-4.99-.02l-.03 4.63c1.92 29.59 2.01 59.18-.03 88.77v84.05c5.25 4.87.06 12.04 3.77 17.44q2.69-19.89 19.74-34.88c3.36-2.95 7.86-5.11 10.15-8.71 11.01-17.34 27.85-28.99 42.17-43.18-3.01-.75-6-1.67-9.03-2.81-4.72-1.78-9.39-3.54-14.26-4.72l-1.27-.06c-18.86-.36-32.81-15.12-33.64-33.64-.03-.72-.03-1.43 0-2.14-.49 1.51-.92 3.1-1.27 4.8-1.14 5.59-4.1 11.29-9.33 16.2-3.04-4.49-2.08-8.65-2.1-12.52l-.03-50.55c.09-19.94-2.16-18.1 17.52-18.12l157.82-.02h11.69l-.23-2.47z" class="Be"/><path d="M733.45 718.72c-1.02 0-2.04-.01-3.06-.02-3.43-4.19-3.1-9.23-3.11-14.14V587.35c0-4.9-.44-9.96 3.07-14.13l.72-2.47h1.73l.42 129.59c.02 5.34.26 10.68.39 16.02-.34.77-.39 1.56-.17 2.36z" fill="#9e672d"/><path d="M720.69 289.62c-11.41 1.51-22.81 1.5-34.22 0l-71.78-.77-44.6.76c-17.17 1.51-34.34 1.5-51.51.01h-7.69c-4.43 2.49-3.09 4.89.31 6.86 3.56 2.07 7.67 1.35 11.56 1.66 9.01-1.03 18.06-.91 27.11-.81 2.83.03 6.39-.69 8.02 1.98.15.25.26.49.35.73l7.62-.39c23.08-1.27 46.03-1.8 68.85 2.61 10.68 2.06 21.59 4.16 31.13 8.66l3.7-4.21c6.12-7.01 13.79-9.39 23.03-9.6 11.78-.27 23.59 2 35.32-.44l.28-4.74c-2.34-1.27-4.48-3.15-7.47-2.31z" class="Be"/><g class="Bd"><path d="M521.43 706.06c-9.49-5.98-18.19 1.67-27.4 1.67-57.04 0-114.08-.09-171.12.04-9.41.02-13.73-3.84-13.18-13.21-.81-5.07.65-9.03 5.47-11.34 23.33-16.19 25.33-44.78 3.6-62.5-7.4-6.04-8.8-12.92-9.08-21.51-1.34-40.66 1.6-81.27.45-121.97-1.43-50.56-.37-101.19-.33-151.8.01-17.39.22-17.56 18.18-17.57l64.41-.04c19.04-7.89 40.63-9.92 61.14-10.47 22.8-.62 45.53 1.2 68.27 2.55.13-1.01-.22-2.09-.98-3.22-1.54-2.82-3.88-1.11-6.01-1.28-3.09-.25-6.43-1.26-3.97-5.76H301.26l-.08 231.77a622.11 622.11 0 0 1 0 86.35l-.14 14.86-.05 83.14c-.08 7.46 1.42 12.05 10.05 10.6 3.42-2.07 7.2-1.14 10.82-1.15h163.46c3.61 0 7.39-.92 10.81 1.15l32.14-.01c.19 0 .37-.36.53-1.08.17-.71-.05-1.41-.64-2.09-4.45-.29-4.23-5-6.73-7.1zm48.65-416.44c-17.17 3.51-34.34 3.49-51.51 0h51.51zm7.43 412.82c-1.75-1.05-3.39-2.19-4.92-3.39-1.32 4.31-1.3 8.87.12 13.4 8.42 2.77 15.93 2.55 22.01-4.55-6.07-.71-11.98-2.31-17.21-5.45zm151.12-129.23l-.36-18.42-.38-258.11c-14.9-4.63-30.18-1.97-45.3-2.15-4.07-.05-7.75 2.55-10.75 5.53l-9.51 9.35c6.02 2.42 11.6 5.64 16.37 10.19a75.22 75.22 0 0 0 2.71-3.83c5.15-7.8 15.39-11.08 24.41-7.31 8.09 3.38 3.93 12.43 4.26 18.96 2.94 58.11-5.61 116.53 4.82 174.44.29 1.61.02 3.34-.59 4.86-1.68 4.25-2.83 8.57-3.6 12.93l5.38 39.27c1.41 12.71 2.83 26.08.95 38.81 3.96-3.7 6.66-8.18 7.56-13.93.32 1.33 1.39 2.15 4.39 1.43.57-4.02 1.03-8.04-.36-12.01zm-4.02-34.42l.03 35.55c-.95-11.76-.25-23.7-.03-35.55z"/><path d="M527.65 300.23c12.36.68 24.49.18 36.84-.49.8-2.96-1.6-5.16-5.83-5.15-12.6 0-25.45-2.81-37.8 2.09v3.16l6.79.39z"/></g><path d="M727.88 585.38l.75-12.16h1.73l.03 145.48-2.44-.21c-7.2-14.36-1.22-29.74-3.49-44.49l-.09-72.21c0-5.68-.37-11.52 3.51-16.4z" fill="#cbaf8d"/><path d="M720.69 289.62c-11.41 3.37-22.82 3.36-34.22 0h34.22zM156.84 876.77l-1.8 3.12 1.05-1.36.74-1.76zm136.33-152.44l-38.86-.27c-16.96 3.02-27.75 14.37-37.45 27.22 3.42 2.18 6.44 4.9 8.8 7.95 8.57 11.1 8.95 25.14 2.63 37.36-10.15 19.61-27.63 34.19-41.17 51.3l5.26-6.81c-7.23 9.4-14.33 17.72-22.93 25.82-5.23 4.93-11.03 9.66-15.85 15.08-8.05 10.86-21.32 16.09-35.81 12.79-10.11-2.3-18.51-10.61-22.47-20.48-8.75 12.48-12.96 26.48-10.51 44.3 1.83 13.3.65 13.81 14.16 13.82l165.32.09c7.31.02 14.73-1.26 21.94 1.05l7.22-.15.23-63.96-.52-145.12z" class="Bd"/><path d="M273.37 931.3l-164.11-.07c-25.36 0-22.68 1.91-23.05-23.51-.17-11.77 1.53-21.41 10.22-30.96-3.59-7.32-4.72-15.78-2.13-23.37 1.45-4.25 3.48-8.08 5.9-11.63-1.3-3.51-2.01-7.25-2-11.09.07-17.98 2.06-36.01.43-53.94-.09-.48-.16-.97-.25-1.46-.13-.66-.23-1.31-.33-1.96-4.45.78-9.14.24-14.09-2.53l-.33 151.36c-.08 9.28 2.76 11.81 11.88 11.75l190.73-.34c-3.73-3.87-8.54-2.24-12.87-2.25zM136.06 731.26c3.49 1.13 8.65 0 9.55 4.89.76.36 1.49.74 2.19 1.15 6.06 3.55 12.54 10.63 14.85 17.79 9.13-2.83 18.48-4.69 27.66-7.9 9.88-3.46 21.14-.29 29.3 6.03l2.19-2.5c8.87-9.88 15.86-23.26 32.94-22.28 4.95.28-.63-2.76-.43-4.36-36.29 0-72.58 0-108.87-.01-4.45 3.06-10.47-1.34-14.72 2.8.37 3.51 3.09 3.68 5.33 4.4z" class="Be"/><g class="Bd"><path d="M98.49 775.85l-.1-.58c-1.77-9.31-1.03-17.55 3.39-25.92 4.11-7.78 11.96-12.82 20.1-15.46 8.08-2.62 18.71-.83 25.92 3.39a29.87 29.87 0 0 1 2.29 1.5c.28-1.42.25-2.99-.21-4.77-2.21-8.46-10.41-3.86-15.76-5.64-.33-.11-.59-.4-1.37-.96 4.06-2.51 9.5.74 12.69-3.37-20.45 0-40.89 0-61.34-.01l-.14 46.74c4.06 1.31 2.8 10.65 8.99 7.35 1.77-.94 3.63-1.65 5.53-2.27zm212.55-59.51c2.83-3.4 6.75-2.35 10.31-2.35h164.47c3.55 0 7.47-1.05 10.31 2.35H311.04zm217.23-.01v-2.37c12.53-5.92 25.38-3.86 38.25-1.53 1.54.94 1.95 2.25 1.25 3.91h-39.5z"/><path d="M567.77 716.33v-2.37c7.59-1.08 15.41-4.29 22.16 2.39l-17.22.17-4.94-.18zM301.18 521.4c3.4 2.8 2.36 6.7 2.37 10.23v65.88c-.01 3.53 1.03 7.43-2.37 10.23v-86.35zm.07 412.18l.02-209.53 209.47.11-.03 209.3-209.46.12z"/></g><path d="M292.44 595.68v-69.4c.46-4.88-1.02-9.89 1.01-14.65l-.07-4.52-7.23-.25c-4.37 1.82-8.95.91-13.42.92-48.14.07-96.28.16-144.42-.03-13.11-.05-26.27 1.18-39.35-.88H86.3c.09 2.62-.35 5.43 2.49 7.09 5.15 1.98 10.54 1.44 15.86 1.44h172.69c8.36-.92 8.01 4.97 8.05 10.38l.15 72.55c.06 5.52-1.06 8.66-4.4 10.57-.22 6.03-.34 12.05-.36 18.18l-.07 5.3c.8.38 1.66.62 2.62.54 4.03-2.52 5.63-6.57 6.57-10.25 1 2.15-2.64 6.75 3.57 7.22V612.6c-2.16-5.53-.54-11.29-1.04-16.91zm1.02 73.95c-9.93 3.05-.97 10.81-3.89 15.61-1.91-8.44-9.54-15.56-16.54-16.36-7.08 14.06-18.97 23.94-34.34 28.67-10.48 3.23-22.09 3.3-32.98 2.78-7.24-.35-14.05-.18-21.26.37-6.89.52-13.82.16-20.25-1.5-6.3 7.37-14.26 10.01-23.9 8.63-5.26-.23-10.57-.5-15.81-.06-11.92 1.01-24.41-3.23-35.7 3.72-1.97 1.03-2.42 2.84-2.48 4.85h2.55c16.42-1.89 32.84-1.93 49.26.03l155.44-.06-.08-46.67z" class="Bf"/><path d="M88.85 716.32c16.42-3.9 32.84-3.96 49.26.03l-49.26-.03z" class="Bd"/><path d="M690.91 705.68c-5.01 1.27-10.17 2.02-15.17 2.58-8.31.93-16.71.63-25.04.15l-20.03-1.29c-6.33-.27-12.61.57-18.92.98-6.86.45-14.16.5-21.08-.83-5.14 4.51-11.14 4.56-17.95 4.21-16.46-6.08-32.92-6.13-49.38 0-.41 4.94 3.44 1.34 4.94 2.47h39.5c7.36 1.09 15.21-2.44 22.16 2.39l19.83.05c3.67-2.68 8.72-.06 12.37-3.59 5.75-5.57 11.59-7.25 16.92.94 1.67 2.57 5.56.41 7.69 2.63l34.65-.02c4.39-3.33 10.51 1.16 15.72-3.72-4.26-2.22-6-4.56-6.21-6.94zm36.97-31.06v-89.24c-5.15-15.97.18-32.71-3.74-48.82-.82 12.26-1.71 24.59-.59 36.73.78 8.45-1.62 14.55-5.92 19.42-.73 8.71-2.77 17.22-7.15 25.1a39.57 39.57 0 0 1-6.18 8.36c2.25 4.52 3.51 9.5 3.48 14.55 0 .18 0 .36-.01.54 5.47 3.74 9.89 9.06 12.43 15.09 4.64 11 2.97 22.05-3.02 31.47 3.09.51 6.12 1.74 8.94 3.73 2.18-5.56-.53-11.55 1.76-16.93z" class="Be"/><path d="M727.88 674.62c-4.41 4.14-.17 10.23-4.49 16.62.68-7.03-.27-10.31-2.42-11.12-1.63 4.63-4.26 9.01-7.73 12.98-7.03 8.07-16.99 11.7-27.18 13.65l-.75 2.2c-1.34 3.99 6.39.61 8.49 4.03-3.78 2.53-9.2-1.06-12.41 3.36 14.77 1.35 29.77-2.46 44.39 2.07l1.07.29 1.09-.23-.06-43.87zM641 712.53c-.78-2.03-1.62-3.66-2.51-4.95l-7.82-.46c-2.21-.09-4.41-.05-6.61.06a38.55 38.55 0 0 0-3.13 2.91c-3.48 3.59-8.52 2.48-11.16 6.29l36.98-.02c-1.97-1.26-5.08-2.08-5.75-3.84z" class="Bd"/><path d="M533.27 778.59v-2.23c-1.88 1.43-3.2 3.44-3.27 6.09 1.41 1.94 3.02 3.57 4.76 4.99-.83-2.83-1.35-5.8-1.48-8.85zm131.11-46.06c2.2-1.45 4.59-2.67 7.09-3.76 1.45-1.56 1.47-3.13 0-4.7l-22.29-.04c-2.95 1.28-3.22 4.06-4.1 6.67 6.31.08 12.96.53 19.3 1.83zm-97.47 12.42a33.28 33.28 0 0 1 8.07.99c6.4-7.96 16.4-13.18 26.66-13.24 6.39-.04 12.76-.53 19.14-1.01-2.99-3.37-6.11-6.59-10.94-7.67l-19.96.04c-3.93 2.11-8.16.57-12.23 1.04-1.76.01-3.53-.12-5.17.73 1.4 4.29 6.75 8.44-2.04 11.98-3.6 1.45-4.55 4.15-4.17 7.15.22 0 .43-.02.65-.02z" class="Be"/><path d="M637.04 730.75c3.6-.08 7.44-.11 11.36.03.03-.3.06-.6.07-.9.08-1.95.46-3.9.71-5.85h-39.36c2.42 2.61 4.75 5.31 7.14 7.95 6.69-.49 13.37-1.07 20.07-1.22zm34.43-1.98v-4.7l17.39-.02c2.98 4.41 9.36.04 12.23 4.72-5.76 4.42-11.52 4.46-17.28 0h-12.35zm-81.6-4.71c-3.51 3.81-8.12 1.65-12.23 2.24-.8-.49-1.07-.98-.81-1.48s.53-.75.79-.75l2.48-.49 9.76.48z" class="Bf"/><path d="M293.47 629.88c-4.19-3.3-.72-8.6-3.53-12.95-1.62 6.19-5.36 10.71-8.58 15.54-1.86 10.5 3.82 20.96.01 32.1-1.82-1.04-3.49-2.21-5.08-3.47-.47 1.37-.97 2.72-1.54 4.06-.74 1.76-1.57 3.45-2.45 5.09.82-.06 1.61.26 2.25 1.12 4.77 6.37 14.73 7.8 15.53 18.82 2.79-7.77-1.39-14.81 3.37-20.57v-39.75z" class="Be"/><g class="Bd"><path d="M293.48 612.59c-4.13-4.38-1.47-9.79-2.24-14.69.74-1.13 1.47-1.08 2.21 0l.52 9.88-.49 4.81z"/><path d="M293.45 597.91h-2.21v-74.07c.74-1.08 1.47-1.13 2.21 0v74.07z"/><path d="M293.45 523.83h-2.21c.59-4.09-1.57-8.69 2.21-12.2v12.2zm258.78 224.71c1.94-3.46 4.3-6.67 7.82-9.16 3.17-2.26 7.84-4.83 5.53-9.65-1.9-3.94-6.69-1.53-10.14-2.24.33-.12.77-.21 1.37-.21 3.99-2.29 10.26 3.95 15.92-.98h4.94l-.01-2.22-59.16.01-.07 46.65c5.85 3.02 10.77 3.87 15.15 2.47 1.57-10.67 9.07-19.86 18.68-24.67z"/><path d="M554.63 728.11v.17c.18.96-.31.42 0-.17z"/></g><path d="M288.59 289.65c-8.93 1.45-17.86 1.47-26.79 0-32.22 0-64.44 0-96.66-.02-4.27 3.78-9.45 1.97-14.19 2.02l-61.83.09.02 2.47 57.68.13c4.99.08 13.02-2.95 14.35 2.49 1.62 6.57-5.2 11.33-10.99 14.75-2.82 1.66-5.75 3.39-8.87 4.26-6.55 1.83-10.55 5.7-13.03 11.84a74.18 74.18 0 0 1 7.25-5.3c21.43-13.78 49.44-14.73 73.93-11.47a33.54 33.54 0 0 1 16.98 4.59l6.81 5.26.04.04c4.64-5.07 9.16-10.26 13.54-15.59 7.14-8.69 16-12.47 27.13-11.01h17.28c.71 1.22 1.44 1.17 2.18.02a17.5 17.5 0 0 0 .28-2.39l-5.1-2.18zM100.25 401.74c-1.16-16.47 1.2-32.82 7.67-47.16a42.92 42.92 0 0 1-5.2 2.4c-11.36 4.35-14.89 20.43-8.97 31.35 1.94 3.59 3.34 7.48 5.01 11.21.5 1.11 1.03 2.17 1.59 3.19-.03-.33-.08-.66-.1-1z" class="Be"/><path d="M291.24 294.21l2.18.02.03 202.31c-3.73-3.78-2.13-8.56-2.13-12.88l-.07-189.45z" class="Bd"/><path d="M83.96 390.45v-34.47c3.79 11.49 3.79 22.98 0 34.47z" class="Be"/><path d="M293.47 76.85l.05 2.67c-1.82 27.9-1.75 55.8-.03 83.7l.05 120.72H83.94l.03-4.6c27.85 5.27 56.03.74 83.93 2.93 6.27.49 3.27-4.66 6.48-5.67 6.57-2.06 12.86-5.07 19.18-7.88 15.01-6.66 22.19-23.02 36.93-30.13.98-.47 1.42-2.95 1.39-4.48-.51-22.32 15.03-35.27 31.28-43.4 20.54-10.28 28.65-22.79 26.1-45.68-2.27-20.32-.58-41.09-.34-61.66.03-2.57-3.08-8.73 4.56-6.53z" fill="#fdfefd"/><path d="M284.67 524.26c-.01-4.51.1-9.11-3.31-12.77-59.53 0-119.06-.05-178.58.09-4.69.01-9.94-1.89-14 2.38v197.53h54.32c3.76-5.8 8.29-10.74 13.28-15.09-6.26-2.96-11.73-7.53-15.79-14.19-9.5-15.57-6.58-34.21 2.81-49.02 4.97-7.84 11.06-15.93 17.77-22.47 2.13-2.08 4.38-4.03 6.63-5.96-.96-1.34-1.87-2.75-2.7-4.26-9.09-16.51-3.57-35.94 12.07-46.02 10.36-6.68 24.31-5.73 34.75.57-1.19-16.13 8.25-30.42 24.35-35.62 16.74-5.42 37.48 6.32 41.38 23.49 3.77 16.6 5.27 33.77 4.23 50.76l-.3 5.42c2.28-2.57 2.93-6.51 3.03-13.25l.06-61.6zm3.92-234.61c-8.93 3.33-17.87 3.34-26.8-.01l26.8.01zm-2.45 217.21c-2.97 3.2-6.89 2.11-10.46 2.12H99.42c-3.57 0-7.49 1.09-10.46-2.11l197.19-.01z" class="Bd"/><path d="M667.27 733.19l4.2-4.42c-5.02-.87-9.17.04-12.38 2.88 2.77.37 5.51.87 8.17 1.55zm-65.64-.49l5.36-.14c-2.12-.8-4.26-1.18-6.27-.98-1.99.19-3.93.86-5.72 1.87 2.17-.48 4.4-.74 6.63-.75zm-67.34 102.06l-.03-10.49c-6.11-1.21-9.48-8.43-15.85-9.07v22.22c5.35-.14 11.04-.74 15.37 2.91a20.59 20.59 0 0 0 1.23.96c-.46-2.14-.71-4.33-.72-6.52z" class="Bf"/><path d="M861.9 919.91c-5.04.05-10.11-.34-15.12-1.1l7.36 14.73 7.42.05c-.91-6.19-.88-10.67.33-13.68z" class="Bd"/><path d="M564.64 732.65c-9.64 3.58-14.99 11.24-18.63 19.84 5.94-4.69 13.35-7.54 20.9-7.54a44.34 44.34 0 0 1 1.65.04c.27-7.94 14-7.15 15.37-14.31-3.29-3.5-8.68-.15-11.22-4.39h-21.23c5.17 4.11 10.52.08 13.16 6.36zm-31.37 45.94c-.14-3.08.24-6.09 1.04-8.95-4.35 2.15-9.68 2.33-15.9 1.1v12.35c1.98 2 5.76 2.21 5.96 5.97 4.34.38 7.07-.95 6.36-5.97.67-1 1.14-2.29 2.06-2.95.18-.13.37-.26.56-.39l-.08-1.16z" class="Bf"/><path d="M534.63 810.54c-3.31-7.69-8.21-14.74-11.3-22.52 2.76-6.03-1.81-4.76-4.92-4.94v32.11c2.68 7.31 10.35 8.96 15.56 13.37.1.09.2.15.29.22-.02-6.15.01-12.19.36-18.24z" class="Be"/><path d="M293.48 163.22c-2.59-2.13-2.24-5.11-2.24-7.96V87.45c0-2.85-.34-5.82 2.27-7.94l-.03 83.7zm7.72-86.23c3.04 2.41 2.36 5.84 2.36 9.02v70.75c0 3.18.66 6.61-2.39 9.01L301.2 77zm341.66 497.95l7.74-.45c-.59-9.08-2.03-18.2-3.18-26.9l1.2 8.94-3.05-20.8c-.12 13.19-.92 26.17-2.72 39.21zm-70.04 9.27l1.2-5.11c-3.34 2.3-6.78 4.46-10.3 6.46l9.1-1.35zm113.37-255.1c9.8 16.78 6.97 38.77 4.05 57.06l.74-5.49c-1.59 11.11-3.99 20.18-8.68 30.77-2.16 4.87-4.74 9.46-7.6 13.92 16.59 1.37 29.96 17.15 30.03 33.56.06 13.15 1.19 26.21 2.82 39.24l5.05 34.11c.27-9.3 1.79-18.57 5.83-27.49 1.23-2.72 1.39-5.35-.83-7.99-4.61-5.47-4.19-12.15-4.18-18.78l.03-157.94c0-15.52-9.96-21.73-24.27-14.44-5.35 2.73-10.33 6.15-14.22 10.76a42.99 42.99 0 0 1 11.24 12.71zm-375.2 352.74l-4.94 9.88c.47-3.88-1.69-9.07 4.94-9.88zM95.07 797.28l4.1 2.83c.12-4.73.16-9.47 0-14.19-2.06-.77-4.22.31-5.84 3.05-2.03 3.44-1.75 6.11 1.74 8.31zm58.07-102.61l-1.25.97c-5.74 4.52-9.72 8.38-8.79 15.85 10.6 2.04 18.37-2.66 24.23-10.83l.51-.67c-5.23-.94-10.21-2.65-14.69-5.31zM288.79 522c.01-5.39-.72-10-7.43-10.52l-.04 54.05c.93 9.35 1.13 18.78.56 28.15-.44 7.13-.74 14.14-.91 21.18 6.01.04 7.86-3.66 7.84-10.3v-82.57zm-4.7 131.3c9.36-3.84 4.07-7.52.16-10.75-3.53-2.92-2.62-6.54-2.89-10.08.15-2.19-.02-3.89-.59-5-.04 12.51-.98 25.25-5.7 36.9l1.62 1.66c2.76 2.79 5.87 4.87 9.59 1.72 3.75-3.18.58-5.62-1.07-8.35-1.11-1.84-3.93-4.95-1.14-6.09zm366.61 55.12l-2.81-.18c8.3 7.46 16.48 7.39 25.76.22-7.63.67-15.32.39-22.96-.04zm-51.25-.14c-.31.66-.47 1.43-.42 2.32.1 1.86 2 2.57 3.68 1.74 2.18-1.08 5.92-.14 6.12-4.08l-9.39.02zm-62.93 85.88l.29-1.35c-1.21-2.55-2.14-5.27-2.74-8.1l-3.33-1.63c-1.38 3.28-3.84 4.93-7.41 4.94-.04 11.15 6.08 19.84 11.03 28.99.2-7.58.74-15.12 2.16-22.86zm-432.1-430.37l-.82.68c-3.71 3.16-3.84 6.17-1.89 10.16.69-3.68 1.59-7.3 2.71-10.83z" class="Bd"/></g>
                        <g id="PlanetLayer"><text  transform="matrix(1 0 0 1 750 320)" font-size="35" fill="black">Sun</text><text  transform="matrix(1 0 0 1 530 100)" font-size="35" fill="black">Moon</text><text  transform="matrix(1 0 0 1 530 760)" font-size="35" fill="black">Mars</text><text  transform="matrix(1 0 0 1 750 540)" font-size="35" fill="black">Mercury</text><text  transform="matrix(1 0 0 1 90 760)" font-size="35" fill="black">Jupiter</text><text  transform="matrix(1 0 0 1 750 340)" font-size="35" fill="black">Venus</text><text  transform="matrix(1 0 0 1 530 780)" font-size="35" fill="black">Saturn</text><text  transform="matrix(1 0 0 1 530 120)" font-size="35" fill="black">Rahu</text><text  transform="matrix(1 0 0 1 310 760)" font-size="35" fill="black">Ketu</text></g>
                    </svg>
                
