<?xml version="1.0" encoding="utf-8"?>
<!-- Generator: Adobe Illustrator 25.0.0, SVG Export Plug-In . SVG Version: 6.00 Build 0)  -->
<svg version="1.1" id="Layer_1" xmlns="http://www.w3.org/2000/svg" xmlns:xlink="http://www.w3.org/1999/xlink" x="0px" y="0px"
	 width="105.5px" height="132.5px" viewBox="0 0 105.5 132.5" enable-background="new 0 0 105.5 132.5" xml:space="preserve">
<g>
	<g>
		<path fill="#D04246" d="M84.3,11.7c0.2,0.1,0.3,0.1,0.5,0.2c3.4,2.8,6.6,5.8,9.3,9.3c4,5.2,7,10.9,8.9,17.2
			c0.1,0.4,0.3,0.9,0.5,1.3c0.9,1.5,0.8,3.3,1.2,4.9c0.7,2.7,0.6,5.4,0.8,8.1l0,0c0.1,0.1,0.2,0.3,0.2,0.4c-0.4,2.2,0.3,4.5-0.3,6.7
			c-0.7,2.6-0.7,5.4-1.9,7.9c-1.2,3.8-2.6,7.6-4.5,11.1C92.8,90,83.8,98,72,102.8c-0.5,0.2-1.1,0.5-1.6,0.7
			c-6.5,2.1-13.1,3.3-19.9,3c-11.9-0.6-22.6-4.6-31.8-12.2C12,88.7,7,81.9,3.7,73.8c-0.1-0.2-0.2-0.4-0.3-0.5
			c-0.8-1.5-1.3-3.2-1.7-4.9c0.8-0.4,1,0.3,1.2,0.7c1.1,1.7,2.2,3.4,3.4,5.1c2.6,3.5,5.6,6.6,9.1,9.2c0.4,0.3,0.9,0.6,1.1,1.2
			c0.3,0.8,0.2,1.7,0.5,2.6c0.5,1.2,1.6,2.1,2.8,0.9c0.3-0.3,0.8-0.5,1.2-0.4c0.1,0,0.2,0.1,0.3,0.2c-0.3,0.8-0.3,0.8-1.4,1.5
			c0.9,0,1.7-0.1,2.4-0.4c0.5-0.2,1-0.2,1.5-0.1c3,1.2,5.9,2.5,9,3.3c0.7,0.2,1.4,0.4,2.1,0.5c0.8,0.1,1.1-0.1,1.3-0.9
			c0.9-4.1,4.3-6.8,8.3-6.8c3.9,0,7.4,2.9,8.2,7c0.3,1.6,0.5,1.4,1.8,1.2c5.4-1,10.5-2.7,15.3-5.3c1.5-0.8,1.7-0.8,2.8,0.5
			c3.1,3.6,9.2,4.2,12.9,0C88,85.6,88.4,81,86.3,78c-0.2-0.3-0.5-0.7-0.8-1c-0.9-1.1-0.9-1.4-0.1-2.5c1.9-2.5,3.5-5.2,5-8
			c1.3-2.4,2.1-5,3-7.5c0.3-0.8,0.1-1.1-0.8-1.1c-1.8,0-3.4-0.6-4.9-1.6c-3.5-2.3-5.1-6.7-3.9-10.8s4.9-6.9,9.1-6.9
			c0.5,0,0.9,0,1.4,0c0.3,0,0.7,0.1,0.8-0.4c0-0.5-0.2-0.8-0.7-0.9c-0.1,0-0.2,0-0.4,0c-1.4-0.1-2.3-0.8-2.6-2.1
			c-0.4-1.6,0-2.8,1.4-3.5c0.8-0.5,0.8-1,0.6-1.7c-1.9-6-4.7-11.6-8.7-16.5C84.5,12.7,84,12.4,84.3,11.7z"/>
		<path fill="#EA604D" d="M16.2,84.5C11,80.8,6.9,76.2,3.4,70.9c-0.6-0.9-1-1.9-1.8-2.7c-0.4-0.2-0.3-0.7-0.5-1l0,0
			c-0.5-0.6-0.2-1.4-0.5-2l0,0c-0.5-1.7-0.9-3.5-0.9-5.3c0-0.4,0.1-0.8-0.1-1.2c-0.2-4.6-0.2-9.1,0.5-13.6c0.2-1.6,0.4-3.2,1-4.8
			l0,0c0.2-0.5,0.1-1.1,0.5-1.5c0.1-0.1,0.1-0.1,0.1-0.2c0.1-0.4,0.1-0.9,0.4-1.3c0.2-0.5,0.3-1,0.5-1.5c0.2-0.4,0.2-0.9,0.5-1.3
			c0-0.1,0.1-0.1,0-0.2c0.1-0.4,0.1-0.8,0.5-1.1c2-4.5,4.4-8.7,7.5-12.5c0.3-0.4,0.6-0.7,0.9-1c0.3-0.1,0.4-0.5,0.6-0.7
			c0.5-0.6,1-1.2,1.5-1.8c0.2-0.4,0.5-0.8,1-1c0.3-0.3,0.7-0.7,1-1c0.1-0.2,0.3-0.3,0.5-0.5c3.7-3.2,7.7-6.1,12.1-8.2
			c2.2-1.1,4.5-2,6.9-2.9c0.3-0.3,0.7-0.3,1-0.4l0,0c0.5-0.4,1.2-0.3,1.8-0.5c1.7-0.4,3.5-0.7,5.2-1.1c1.4-1,3.1-0.9,4.7-0.9
			c1.3,0,2.6,0.2,3.8-0.2c0.7-0.2,1.5,0.1,2.2,0.2c1,0.2,2,0.1,3,0.3c1.9,0.3,3.9,0.4,5.7,1c-0.8,3.2-0.4,6.2,1.7,8.9
			c3.5,4.6,10.6,5,14.7,0.8c0.7-0.7,1.1-1.6,2-2.1c1,0.6,1.9,1.2,2.8,2c1,1.6,2.2,3,3.3,4.5c2.3,3.5,4.2,7.2,5.5,11.1
			c0.2,0.6,0.5,1.2,0.7,1.8c0.3,1,1.1,2-0.8,2.6c-1.2,0.4-1.5,1.9-1.1,3.2c0.3,1.1,1.2,1.7,2.6,1.7c0.8,0,1.6,1.2,1.2,2
			c-0.1,0.3-0.4,0.2-0.6,0.1c-3.2-0.6-6,0.2-8.3,2.4c-2.2,2.1-3.3,4.8-2.8,8c0.7,4.3,3.2,6.8,7.3,7.9c0.7,0.2,1.3,0.1,2,0.1
			c0.9,0,1,0.4,0.7,1.1C92,64,89.3,69.5,85.5,74.4c-0.5,0.7-0.4,1.1,0.2,1.8c2.4,2.7,3,5.8,1.8,9.2c-1.2,3.1-3.4,5-6.7,5.7
			c-3.6,0.7-6.5-0.5-8.8-3.2c-0.6-0.7-0.9-0.7-1.6-0.3c-5.3,3-10.9,4.8-16.9,5.9c-0.7,0.1-0.9,0-1-0.8c-0.4-4.6-3.6-7.4-7.9-7.6
			c-3.7-0.2-7.5,2.2-8.1,6.9c-0.1,0.7-0.2,1-1.1,0.8c-3.5-0.6-6.8-1.7-9.9-3.2c-0.6-0.3-1.3-0.3-1.8-0.9c-0.1-0.1-0.1-0.2-0.2-0.3
			c-0.1-0.6,0.3-0.9,0.6-1.3c1-1.3,1.2-2.5,0.6-4.1c-0.8,1.8-1.7,3.4-3.2,4.5c-0.1,0-0.2,0-0.3-0.1c-0.1,0-0.2,0-0.2,0
			c-0.2-0.2-0.7-0.1-0.5-0.6c1.4-1.2,2.5-2.5,3.1-4.3c0.4-1.1,0.2-1.5-0.9-1.9c-2.3-0.9-4.6,0-5.7,2.2c-0.2,0.4-0.3,0.9-0.6,1.2
			C16.3,84.5,16.2,84.5,16.2,84.5z"/>
		<path fill="#EA5F4C" d="M65.8,2.7c3.4,0.7,6.5,2.1,9.7,3.5c1.3,0.5,2.6,0.9,3.5,2.1c0,0.7-0.4,1.2-0.8,1.6
			c-2.3,2.6-5.5,3.3-8.6,1.9c-3-1.3-4.7-4.3-4.4-7.7C65.2,3.6,65.3,3,65.8,2.7z"/>
		<path fill="#F29E6D" d="M65.8,2.7c-0.6,2.5-0.4,4.8,1.3,6.8c2.8,3.4,8.3,3.8,11.4-0.5c0.2-0.2,0.2-0.5,0.3-0.8
			c0.3-0.2,0.4,0.1,0.5,0.2c0.7,0.5,1.5,0.9,2.2,1.4c-2.2,4.6-9.3,7.5-14.9,3.5c-3.1-2.2-4.9-6.8-3.9-10.3c0.1-0.3,0.1-0.7,0.5-0.8
			C64.1,2.1,65,2.4,65.8,2.7z"/>
		<path fill="#211215" d="M1.2,40.2c-0.2,1.6-0.6,3.2-1,4.8c-0.4-1.6,0.4-3,0.5-4.5C0.7,40.3,1,40.2,1.2,40.2z"/>
		<path fill="#241014" d="M15.1,16.1c-0.2,0.4-0.5,0.8-1,1C14.1,16.4,14.4,16,15.1,16.1z"/>
		<path fill="#211215" d="M1.7,38.7c0,0.6-0.1,1.1-0.5,1.5C1.3,39.7,0.8,39,1.7,38.7z"/>
		<path fill="#211215" d="M2.1,37.2c0,0.5-0.1,0.9-0.4,1.3C1.4,37.9,1.6,37.4,2.1,37.2z"/>
		<path fill="#2B1012" d="M36.8,3.1c-0.3,0.3-0.6,0.4-1,0.4"/>
		<path fill="#311414" d="M3.2,34.4c0,0.5-0.2,0.9-0.5,1.3C2.6,35.2,2.6,34.7,3.2,34.4z"/>
		<path fill="#311414" d="M3.7,33.2c0,0.4-0.2,0.8-0.5,1.1C3.2,33.8,3,33.3,3.7,33.2z"/>
		<path fill="#A7574F" d="M12.7,18.9c0,0.4-0.1,0.7-0.6,0.7C12.2,19.3,12.4,19.1,12.7,18.9z"/>
		<path fill="#241014" d="M16.7,14.6c-0.1,0.3-0.2,0.4-0.5,0.5C16.1,15,16,14.9,16,14.7C16.2,14.7,16.4,14.7,16.7,14.6z"/>
		<path fill="#EA604D" d="M93.2,53.4c-2.9,0.1-5.6-2.2-5.5-5.5c0-3.2,2.6-5.5,5.6-5.5c3.1,0,5.5,2.4,5.5,5.6
			C98.8,51.1,96.3,53.5,93.2,53.4z"/>
		<path fill="#E95F4C" d="M73,93.1c0,1.5-1,2.5-2.5,2.5c-1.6,0-2.5-1.1-2.5-2.8c0-1.2,1.3-2.4,2.4-2.4C72.1,90.3,73.1,91.3,73,93.1z
			"/>
		<path fill="#D55053" d="M20.4,87.3c0.2,0.2,0.3,0.3,0.5,0.5c-0.5-0.1-0.9,0.2-1.2,0.6c-1.1,1.2-2.3,0.6-3-0.6
			c-0.6-1-0.7-2.1-0.6-3.2l0,0c0.6-0.2,0.8,0.3,1.2,0.5c0.8,0.5,1.6,1,2.4,1.5C20.1,86.7,20.4,86.9,20.4,87.3z"/>
		<path fill="#E95E4F" d="M88.6,76.4c0-0.9,0.3-1.4,1.1-1.4c0.8,0,1.3,0.2,1.3,1.1c0,0.8-0.4,1.3-1.2,1.4
			C89,77.5,88.6,77.1,88.6,76.4z"/>
		<path fill="#D65053" d="M21.2,87.8c0.1,0,0.2,0,0.3,0c0.9,0.1,1.6,0.5,2.3,1c0,0.1,0,0.2,0,0.3c-1-0.3-1.7,0.5-2.6,0.6
			c-0.6,0-1.1,0-1.8-0.2C20,88.8,20.6,88.3,21.2,87.8z"/>
		<path fill="#D54E52" d="M15.3,85.3c0.2,0,0.4,0.2,0.4,0.4c0,0.9,0.9,1.6,0.6,2.6H16c-0.2-1.2-1.6-0.2-1.9-1c0-0.1,0.1-0.3,0.1-0.3
			c0.7-0.2,0.8-0.7,0.8-1.3C15,85.4,15.1,85.3,15.3,85.3z"/>
		<path fill="#F29E6D" d="M37,13.9c0.1,1.9-0.8,3.1-2.2,3.8c-4.4,2.3-8.2,5.3-11.5,8.8c-4.3,4.6-7.5,9.9-9.4,16
			c-0.8,2.6-2.4,3.8-4.7,3.4c-2.4-0.4-3.8-2.6-3.1-5c1.3-4.2,3.1-8.2,5.5-12c3.8-6,8.7-11,14.5-15.1c1.9-1.4,3.9-2.8,6.2-3.4
			C34.7,9.6,37,11.5,37,13.9z"/>
		<path fill="#F19E6D" d="M26.7,78.8c-3.2,1.2-6,0.3-8.6-1.5C15,75,13.6,71.7,14,67.9c0.6-4.4,3.1-7.4,7.3-8.6
			c6.4-1.8,12.6,2.7,12.9,9.6L34.1,69c-1.2,1.3-1.3,3-1.2,4.6c0,0.6-0.5,1-0.7,1.5c-0.1,0.1-0.2,0.1-0.3,0.1
			c-0.6-0.4-0.6-1.2-0.5-1.7c0.2-1-0.1-1.4-0.9-1.8c-0.1-0.4,0-0.7,0.1-1.1c0.9-3.8-1.4-7.5-5.1-8.3c-3.5-0.8-7.2,1.7-8,5.3
			c-0.8,3.4,2,8.8,7.7,8c0.2,0,0.4,0,0.5,0.1C26.1,76.8,25.9,77.9,26.7,78.8z"/>
		<path fill="#F29E6D" d="M45.3,13.6c-2.6,0-4-1.2-4.4-3.6c-0.3-1.6,0.9-3.4,2.8-4c2.4-0.7,4.8-1,7.2-1.2c2-0.1,3.8,1.7,3.9,3.8
			c0.1,1.9-1.3,3.6-3.3,4C49.3,13,47.1,13.4,45.3,13.6z"/>
		<path fill="#F29E6D" d="M54,56.2c-0.5-1.4-0.8-2.8-0.2-4.3c0.7-2,3.1-3.7,5.1-3.5c2.7,0.3,4.7,2.3,4.9,4.9
			c0.2,2.4-1.4,4.8-3.7,5.3c-2.1,0.5-4.1,0.1-5.6-1.7C54.2,56.8,54.2,56.4,54,56.2z"/>
		<path fill="#D04246" d="M56.9,80.7c2.9,0,4.7,1.8,4.7,4.6c0,2.7-2.1,4.9-4.7,4.9c-2.4,0-4.9-2.3-4.8-4.7
			C52.2,83,53.6,80.6,56.9,80.7z"/>
		<path fill="#D04246" d="M89.6,62.7c0,2.1-2,4.2-4.1,4.2c-2.2,0-4.4-2.1-4.4-4.3s2.2-4.3,4.4-4.2C87.6,58.5,89.6,60.6,89.6,62.7z"
			/>
		<path fill="#F19F6E" d="M79.3,31.9c0,2.1-1.6,3.7-3.7,3.7c-2.2,0-3.8-1.6-3.8-3.8c0-2,1.8-3.8,3.8-3.8
			C77.8,28.2,79.3,29.7,79.3,31.9z"/>
		<path fill="#F29E6D" d="M40,40.7c0-2.1,1.6-3.7,3.7-3.7c2,0,3.8,1.8,3.8,3.8s-1.8,3.9-3.7,3.8C41.6,44.5,39.9,43.1,40,40.7z"/>
		<path fill="#EB6C5B" d="M17.2,85.3c-0.3-0.3-0.7-0.5-1-0.8c0.5-2.3,1.9-3.8,4.3-4.2c1.3-0.2,2.4,0.3,3.4,0.9
			c0.3,0.2,0.3,0.5,0.3,0.8c-0.5,2.1-1.6,4-3.5,5.2c-0.1,0-0.2,0-0.2,0c-0.2-0.2-0.5-0.3-0.7-0.5c-0.3-0.3-0.1-0.5,0.1-0.8
			c0.3-0.5,0.2-0.9-0.2-1.2c-0.4-0.3-0.8-0.3-1.2,0C18,85.1,17.8,85.6,17.2,85.3z"/>
		<path fill="#F3A376" d="M30.7,72c1-0.1,1.5,0.3,1.2,1.1c-0.3,0.8-0.1,1.4,0.1,2.2c0.1,0.9-0.5,1.3-1.2,1.5c-0.5,0.4-1,0.8-1.5,1.2
			c-0.3,0.5-0.8,0.7-1.4,0.6c-0.4,0.1-0.8-0.2-1.1,0.1l0,0c-0.4,0-0.6-0.1-0.7-0.5c-0.3-0.7-0.5-1.5-0.3-2.3c0.4-0.6,1.3-0.5,1.8-1
			c0.9-0.6,1.7-1.4,2.3-2.3C30.1,72.4,30.2,71.9,30.7,72z"/>
		<path fill="#EB6C5B" d="M23.7,88.8c-0.9,0-1.6-0.4-2.3-1c0.6-0.8,1.3-1.6,1.9-2.5c0.5-0.8,0.9-1.7,1.4-2.6c1.1,1.5,1,3.9-0.4,5.1
			C24,88,23.8,88.3,23.7,88.8z"/>
		<path fill="#F29D6C" d="M46,18.7c0,1.1-0.8,1.9-1.8,1.9c-1.1,0-2-1-2-2c0-0.9,1.1-1.9,2-1.9C45.2,16.7,46,17.6,46,18.7z"/>
		<path fill="#D04245" d="M33.4,90c-1.1-0.1-1.7-0.7-1.7-1.7c0.1-1,0.8-1.6,1.8-1.5s1.7,0.7,1.6,1.7C35.2,89.4,34.4,90.1,33.4,90z"
			/>
		<path fill="#F49C6D" d="M11.3,56c0.8,0,1.6,0.9,1.6,1.7c0,0.9-0.9,1.8-1.7,1.8c-0.9,0-1.8-0.9-1.7-1.8C9.5,56.8,10.4,55.9,11.3,56
			z"/>
		<path fill="#CF4145" d="M84.6,71.6c0,1-0.7,1.6-1.6,1.6c-1-0.1-1.7-0.7-1.6-1.6c0.1-1.1,0.7-1.7,1.8-1.6
			C84.2,70,84.6,70.6,84.6,71.6z"/>
		<path fill="#EB6B5A" d="M27.7,78.5c0.5-0.2,1-0.4,1.5-0.5c0.5,0.5,1,1,1.5,1.4s0.5,0.8,0,1.2c-0.4,0.4-0.7,0.5-1.2,0
			c-0.5-0.7-1.2-1.2-1.9-1.8C27.6,78.7,27.6,78.6,27.7,78.5L27.7,78.5z"/>
		<path fill="#F4A379" d="M34.2,69c0.1,1.6-0.3,3.2-1.2,4.5c0,0.1,0,0.2,0,0.2C32.2,71.6,32.6,69.8,34.2,69z"/>
		<path fill="#EA6D5A" d="M30.7,76.7c0.5-0.4,1-0.9,1.2-1.5c0.1,0,0.2,0,0.3,0c0.1,0.5,0.6,0.8,0.9,1.1c0.6,0.5,0.8,1,0.3,1.6
			c-0.6,0.6-1,0.2-1.4-0.3C31.6,77.2,31.3,76.8,30.7,76.7z"/>
		<path fill="#ED6B59" d="M15.8,83.2c-0.1-0.4-0.3-0.7-0.2-0.8c0.3-0.5,0.5-0.8-0.3-1.1c-0.4-0.1-0.4-0.5-0.1-0.8
			c0.2-0.3,0.7-0.4,0.9-0.1c0.5,0.9,0.8,0.4,1.2,0c0.2-0.1,0.4-0.2,0.6,0s0,0.4-0.1,0.5C16.9,81.5,16.5,82.4,15.8,83.2z"/>
		<path fill="#EB6C5B" d="M44,55.7c0.7,0,0.9,0.3,0.9,0.9c0,0.7-0.5,0.9-1,0.9c-0.7,0-0.7-0.5-0.8-1C43.2,55.9,43.5,55.7,44,55.7z"
			/>
		<path fill="#F19E6D" d="M27.7,78.5c0,0.1,0,0.2,0,0.2c-0.3,0-0.6,0-1,0C26.9,78.2,27.4,78.5,27.7,78.5z"/>
		<path fill="#E95F4E" d="M17.2,85.3c0.3,0,0.5-0.3,0.7-0.5c0.7-0.8,1.4-0.8,2.1-0.2c0.7,0.7,0.6,1.4-0.2,1.9c-0.1,0,0,0.2-0.1,0.2
			C18.8,86.3,18,85.9,17.2,85.3z"/>
		<path fill="#EA604D" d="M30.7,72c-0.8,1.2-1.6,2.5-3,3.3c-0.1,0.1-0.2,0.1-0.3,0.1c-0.4,0.1-0.8,0.5-1.1,0.1
			c-0.3-0.4,0.1-0.8,0.2-1.1c0.1-0.2,0.2-0.4,0.2-0.8c-0.9,0.1-1.2,0.6-1.3,1.3c-0.1,0.4,0.1,0.7-0.1,1.1c-2.4,0.9-6.2-0.8-7.5-3.9
			c-1.3-3-0.8-6,1.3-8.1c2.3-2.2,5.5-2.8,8.4-1.3c2.8,1.5,4.5,4.8,3.6,8C30.9,71.2,30.8,71.6,30.7,72z"/>
		<path fill="#EB6D5B" d="M25.2,76c-0.4-1.3-0.2-2.2,0.8-2.8c0.4-0.2,0.8-0.3,1.1,0.1c0.3,0.3,0.1,0.6-0.1,0.9
			c-0.3,0.4-0.5,0.8-0.7,1.2c0.5,0.3,0.9-0.2,1.4-0.1c-0.6,0.5-1.3,0.6-2,0.8C25.5,76,25.4,76,25.2,76z"/>
		<path fill="#E9614F" d="M22.4,82.7c-0.1,0.6-0.3,1-1,1s-1-0.4-1-1s0.2-1,0.9-1C22.1,81.7,22.4,82.1,22.4,82.7z"/>
		<path fill="#E9604D" d="M44.2,64.5c-0.9,0-1.4-0.5-1.4-1.4c0-0.8,0.4-1.5,1.3-1.5c0.7,0,1.7,1,1.6,2"/>
	</g>
</g>
<g>
	<path fill="#47A5DC" d="M87.1,130.1H19.9c-2.2,0-4-1.8-4-4v-23c0-2.2,1.8-4,4-4H87c2.2,0,4,1.8,4,4v23
		C91.1,128.3,89.3,130.1,87.1,130.1z"/>
	<g enable-background="new    ">
		<path fill="#FFFFFF" d="M37,117c-0.1-1.9-0.1-4.3-0.1-6.6h-0.1c-0.5,2.1-1.2,4.4-1.8,6.3l-2,6.3h-2.9l-1.7-6.3
			c-0.5-1.9-1.1-4.2-1.5-6.3h0c-0.1,2.2-0.2,4.7-0.3,6.7l-0.3,6.1H23l1-16.2h4.9l1.6,5.4c0.5,1.9,1,3.9,1.4,5.8h0.1
			c0.5-1.9,1-4,1.5-5.8l1.7-5.4h4.8l0.9,16.2h-3.6L37,117z"/>
		<path fill="#FFFFFF" d="M47.3,119l-1.2,4.2h-3.8l4.9-16.2h4.8l5,16.2h-3.9L52,119H47.3z M51.4,116.3l-1-3.4
			c-0.3-1-0.6-2.2-0.8-3.1h0c-0.2,1-0.5,2.2-0.7,3.1l-1,3.4H51.4z"/>
		<path fill="#FFFFFF" d="M59.3,107.2c1.2-0.2,2.9-0.3,4.9-0.3c2.4,0,4.1,0.4,5.2,1.3c1,0.8,1.5,1.9,1.5,3.4c0,2.1-1.5,3.5-2.9,4
			v0.1c1.1,0.5,1.8,1.5,2.2,3c0.5,1.8,1,3.9,1.3,4.6h-3.7c-0.3-0.5-0.6-1.8-1.1-3.8c-0.4-2-1.1-2.6-2.6-2.6h-1.1v6.4h-3.6V107.2z
			 M62.9,114.1h1.4c1.8,0,2.9-0.9,2.9-2.3c0-1.5-1-2.2-2.7-2.3c-0.9,0-1.4,0.1-1.7,0.1V114.1z"/>
		<path fill="#FFFFFF" d="M73.6,119.4c1,0.5,2.5,1,4.1,1c1.7,0,2.6-0.7,2.6-1.8c0-1-0.8-1.6-2.7-2.3c-2.7-0.9-4.4-2.4-4.4-4.8
			c0-2.8,2.3-4.9,6.1-4.9c1.8,0,3.2,0.4,4.1,0.8l-0.8,3c-0.6-0.3-1.8-0.8-3.4-0.8s-2.4,0.7-2.4,1.6c0,1,0.9,1.5,3,2.3
			c2.9,1.1,4.2,2.5,4.2,4.8c0,2.7-2.1,5-6.5,5c-1.8,0-3.7-0.5-4.6-1L73.6,119.4z"/>
	</g>
</g>
</svg>
