<?xml version="1.0" encoding="utf-8"?>
<!-- Generator: Adobe Illustrator 25.0.0, SVG Export Plug-In . SVG Version: 6.00 Build 0)  -->
<svg version="1.1" id="Layer_1" xmlns="http://www.w3.org/2000/svg" xmlns:xlink="http://www.w3.org/1999/xlink" x="0px" y="0px"
	 width="105.5px" height="129px" viewBox="0 0 105.5 129" style="enable-background:new 0 0 105.5 129;" xml:space="preserve">
<style type="text/css">
	.st0{fill:#FCFCFC;}
	.st1{fill:#4B5D65;}
	.st2{fill:#2D3C44;}
	.st3{fill:#E5E8EA;}
	.st4{fill:#B7C0C4;}
	.st5{fill:#EEF1F2;}
	.st6{fill:#A5B0B2;}
	.st7{fill:#DDE2E3;}
	.st8{fill:#D0D7D8;}
	.st9{fill:#F7F4EC;}
	.st10{fill:#495C64;}
	.st11{fill:#E9E0DB;}
	.st12{fill:#F2F5F4;}
	.st13{fill:#F8F4EC;}
	.st14{fill:#48A6DD;}
	.st15{fill:#FFFFFF;}
</style>
<g>
	<path class="st0" d="M57.1,108.9c0-0.6-0.3-0.9-0.9-1.1c-1-0.3-2-0.9-2.9-0.7c-3.2,0.4-4-1.2-3.7-4c5.1-1.3,10.2-0.4,15.3-0.7
		c0.5,0,1.1,0,1.6,0c1.1-0.1,2.8,0.6,3-1.3c0.5-3.7,3.4-3.7,6.1-4.1c1.6,1.3,3.3,1,5.6,0.1c-1.9-1.1-3.4-0.7-4.8-0.8
		c0.5-1,1.7-1.7,2.5-1.5c3,0.8,1.4-1.3,1.5-2.2c1.2-0.3,2.5-0.6,3.7-0.9c0.1,0.1,0.2,0.1,0.3,0.2c-0.1-0.1-0.2-0.1-0.3-0.2
		c0.4-2.3,1.7-3.7,4-3.8c1.7-0.1,2.1-1,2.1-2.5c0.1-2.8,1.6-4.4,4.3-5.4c1.9-0.7,3.8-1.8,3.7-4.9c0-2.8-1.2-6.4,2.5-8.3
		c0.2-0.1,0.1-1,0.1-1.5c0.2-5.8,0.4-11.7,0.7-17.5c1.2,1,0.8,2.3,0.8,3.5c0,4.3,0,8.7,0,13c0,0.9-0.3,2.4,1.1,2.4
		c1.5,0.1,1.2-1.4,1.2-2.3c0-5,0.1-9.9,0-14.9c0-2.1-1-3.8-3-4.7c-0.1-1-0.1-2-0.2-3c1.6-2.7-0.6-3.5-2.3-4.6
		c-0.6-0.4-0.6-1-0.6-1.6c1.4-4,1.2-4.4-2.3-3.8c0-2.2-0.1-4.4-3-4.7c0.1-2.7-2.9-4.1-3-6.3c-0.2-4-2-3.9-4.8-2.8
		c-0.3-0.3-0.5-0.5-0.8-0.8c0.1-2.8-3-3.3-4-5.3c0.9-0.5,1.7-0.8,1.1-2.2c-1.2-2.5-3.3-2.6-5.6-2.4c-2.3,0-4.7,0.7-6.8-0.8
		c-1.9-2.7-5.1-1.3-7.5-2.1c-0.2-0.1-0.5-0.1-0.7-0.2c-0.1,0-0.1-0.2-0.2-0.3c2-0.9,4-1.3,6.1-1.2c1.1,0.1,2.2-0.1,2.2-1.5
		c0-1.2,0.6-3.1-0.7-3.5c-2.5-0.6-5.3-1-7.9-0.7c-2.3,0.3-0.3,2.6-0.8,3.8c-0.3,0.7-0.8,1.2-1.3,1.9c-3.3-0.8-6.6-0.6-9.9-0.9
		c0-1.7,1.5-1.3,2.4-1.8c-2.6-2.1-3.8-1.4-4,1.7c-1,0.1-2,0.1-3,0.2c-1.1-0.6,2.7-2.5-0.5-2.3c-4.3,0.2-5.5,1.7-5.6,6.1
		c-2.8,1-5.6,2-8.5,2.9c0-0.7-0.1-1.4-0.7-1.6c-2.9-0.9-5.7,0.1-8.5,0.7c-1.1,0.2-1.3,2.6-0.1,3.6c1.5,1.2,1.7,1,1.7,2.1
		c-0.6,0.3-1.1,0.7-1.3,1.4c-0.6,0.8-1.2,1.6-1.9,2.3C11.7,23.5,7.2,31.3,4.7,40.4c-0.1,1-0.3,2-0.5,3c-3,15.3,0.5,29,10.5,41
		c-2,4.1,1.5,3,3.3,3.5c1.4,1.3,2.8,2.7,4.2,4c-0.2,1.9-1.3,4.5,0.7,5.5c1.7,0.9,4.5,1.4,6-1.3c2-0.2,3,2.6,5.2,1.9
		c0.3,1.1,0.9,1.6,2,0.8c0.4,0.3,0.8,0.5,1.1,0.8c-0.3,3.9,2.6,2.6,4.6,2.9c2.1,0.2,4.3-0.5,6.3,0.5c-1,2.7-4.9,0.5-5.9,3.7
		c1.5,0.9,5.2,0.5,2.9,4.2"/>
	<path class="st0" d="M51.9-8c-2.9,0-3.7,2.9-4.2,4.3c-0.5,1.6,2.4,0.7,3.7,1c0.2,0.1,0.5,0,1.1,0c1.1-0.3,3.2,0.8,4-0.5
		c1.5-2.5,3.7-1.7,5.7-1.8"/>
	<path class="st0" d="M109.9,45.1c-1.6-1.3,1.1-4.6-1.8-5.1c-1.1-0.2-2.4,2.4-2.1,4.1c0.2,1.2-0.1,3.3,2.3,3.1
		C109.6,47.1,110.2,46.7,109.9,45.1z"/>
	<path class="st0" d="M70,108.4c-0.2-1-1.1-1.6-2-1.2c-2,0.9-3.3-0.3-4.9-1.8c-0.5,4.4,1.2,5.6,5.3,4.6"/>
	<path class="st0" d="M53.5,104.2c-0.4-0.1-0.8-0.2-1.1-0.2c-0.2,0-1,0-0.4,0.6c0.2,0.2,0.7,0.1,1.1,0.1
		C53.2,104.6,53.3,104.4,53.5,104.2z"/>
	<path class="st1" d="M4.7,40.4c2.5-9,7-16.9,14.1-23.1c0.7-0.7,1.3-1.5,1.9-2.3c2.2,1.9,4.4,2.2,6.6-0.2c1-1,2.4-1.4,3.9-1.3
		c0.3,2.1-1.1,2.9-2.6,3.7c-2.6,1.3-5.1,2.4-5.9,5.9c-0.8,3.3-0.7,4,3.2,4.2c-0.1,0.6,0,1.3-0.2,1.9c-2.1,7.7-4.3,15.3-3,23.5
		c0.7,4.6,0,9.3-1.4,13.8c-3.3,0.4-7.3,2.5-9.1-2C9.8,58.7,6,53.3,6.6,46.5C6.8,44.4,6.7,42,4.7,40.4z"/>
	<path class="st2" d="M4.7,40.4c2,1.6,2,4,1.9,6.2C6,53.3,9.8,58.7,12.1,64.4c1.8,4.5,5.8,2.5,9.1,2c2.7,1.4,3.6,3.1,0.8,5.4
		c-1.1,0.1-2.6-0.5-2.9,1c-0.3,1.8-0.9,3.8,1.3,5.1c0.3,1.7,0.8,3.3,3.1,3c1.7,0.2,2.5-0.6,2.3-2.3c1.2,0.3,2.4,0.5,3.6,0.8l0.1,0.2
		c0,0.2,0,0.4,0.2,0.5c0.2,0.6,0.4,1.1,0.5,1.7c-1.1,1.7,0.2,2,1.3,2.3c2.7,4.3,5.3,8.7,8,13c0.1,1,0.2,2,0.3,2.9
		c-0.8-0.6-1.7-0.6-2.6-0.4c-0.4-0.3-0.8-0.5-1.1-0.8c-0.6-0.5-1.1-1-2-0.8c-2.2,0.7-3.2-2.1-5.2-1.9c-2.2-1.5-3.9-3.6-6.6-4.2
		c-1.4-1.3-2.8-2.7-4.2-4c-0.8-1.4-1.9-2.6-3.3-3.5c-10.1-12-13.5-25.7-10.5-41C4.5,42.4,4.6,41.4,4.7,40.4z"/>
	<path class="st3" d="M58.7,2.8c0.4-0.6,1-1.2,1.3-1.9c0.5-1.3-1.5-3.5,0.8-3.8c2.6-0.3,5.3,0,7.9,0.7c1.4,0.3,0.8,2.2,0.7,3.5
		c0,1.4-1.1,1.6-2.2,1.5c-2.1-0.1-4.2,0.3-6.1,1.2c0.1,0.1,0.1,0.2,0.2,0.3c0.2,0.1,0.5,0.2,0.7,0.2c0.5,2.7,3.7,0.9,4.6,2.8
		c-4.4-0.2-8.8,0.9-13-1.2c-1.7-0.9-3.1-0.1-3.6,2c-0.5,1.7-1,3.7-2.8,0.6c-1.1-1.9-2.7-2.1-3.8,0.4c-3.5,1.7-4.3,5.4-6.1,8.4
		c-0.9,0.4-1.4,1.1-1.5,2.1c0,2.8-1.7,6-3,7.2c-3.6,3.4-3.1,7.2-3.2,11.2c0,0.7,0.3,1.5-0.6,2c-2.7,1.4-2.9,4.5-2.9,6.5
		c0.3,5.6,1.6,11.1,2.6,17.6c1.4-2.3,2.5-3.9,4.7-3.6c1.2,1.1,0.6,2.5,0.8,3.8c-3.1,1.6-5.3,3.8-4.6,7.7c-0.8-0.4-1.6-1-1.3-2
		c0.7-2.3-0.9-1.7-2.1-1.8c-2.1-7.8-2.6-15.6-1.6-23.7c0.8-6.3,2.6-12.4,4-18.6c2.2-3.1,3.8-6.5,5.2-10c1.9-2.4,3.7-5,5.9-7
		c1.2-1.1,0.8-1.9,0.5-2.7c-0.6-1.7-1.6,0.7-2.3-0.1c0.1-4.4,1.3-5.9,5.6-6.1c3.3-0.2-0.5,1.7,0.5,2.3c-0.6,0.9-2.5,0.4-2.1,2.2
		c0.1,0.2,0.6,0.5,0.8,0.5c5-0.4,9.9-0.4,14.9,0.2C59.8,5.1,59.5,3.9,58.7,2.8z"/>
	<path class="st4" d="M98.7,35.7c0,0.6,0.1,1.2,0.6,1.6c-0.2,2,0.3,3.7,2.3,4.6c0.1,1,0.1,2,0.2,3c0,1-0.1,2-0.1,3
		c-0.2,5.8-0.4,11.7-0.7,17.5c0,0.5,0.1,1.3-0.1,1.5c-3.7,1.9-2.6,5.5-2.5,8.3c0,3-1.9,4.2-3.7,4.9c-2.8,1-4.2,2.6-4.3,5.4
		c-0.1,1.5-0.4,2.3-2.1,2.5c-2.3,0.1-3.6,1.5-4,3.8l0,0c-1.2,0.3-2.5,0.6-3.7,0.9c-0.2-0.2-0.4-0.4-0.6-0.6c0.9-1,1.7-2.2,2.8-3
		c4-3,7.1-6.6,9.2-11.1c0.2-0.2,0.4-0.5,0.7-0.7c2.5-2.6,3.5-5.8,3.9-9.2c0.4-0.4,1.2-0.8,1.3-1.3c2.9-10.4,2.6-20.8-0.9-31
		c-0.7-2.1-1.3-4.7-3.5-6.2c0-0.7-0.1-1.4-0.1-2.2l0.1-0.1c3,0.3,3,2.5,3,4.7C97.2,33.2,97.9,34.4,98.7,35.7z"/>
	<path class="st2" d="M38.1,5.8c0.8,0.8,1.8-1.5,2.3,0.1c0.3,0.9,0.6,1.7-0.5,2.7c-2.2,2-4,4.6-5.9,7c-0.2-0.2-0.4-0.5-0.5-0.7
		c0-1.3,0.4-3-1.6-3.2c-1.1-0.1-0.6,1.1-0.7,1.7l0,0c-1.5-0.1-2.9,0.3-3.9,1.3c-2.2,2.4-4.3,2.1-6.6,0.2c0.1-0.7,0.7-1.1,1.3-1.4
		c2.7-1.3,5.3-2.8,7.6-4.7C32.5,7.8,35.3,6.8,38.1,5.8z"/>
	<path class="st3" d="M62.4-4.9c-2,0.1-4.2-0.7-5.7,1.8c-0.8,1.3-2.9,0.2-4,0.5c-0.6,0-0.9,0.1-1.1,0c-1.3-0.3-4.2,0.5-3.7-1
		C48.2-5.1,49-8,51.9-8"/>
	<path class="st5" d="M45.2,110.9c2.2-3.7-1.5-3.3-2.9-4.2c1-3.2,4.9-1,5.9-3.7c0.5,0,1,0.1,1.4,0.1c-0.3,2.8,0.5,4.4,3.7,4
		c0.9-0.1,1.9,0.5,2.9,0.7c0.5,0.2,0.9,0.5,0.9,1.1"/>
	<path class="st6" d="M49.6,103.1c-0.5,0-1-0.1-1.4-0.1c-2-1.1-4.2-0.3-6.3-0.5c0.3-0.8,0.6-1.6,0.8-2.4c1.5,0,3.1,0,4.6,0
		c3.8,0.9,7.7,2.1,11-1.3c0.4,0,0.7,0,1.1,0c2.4,1.8,4.7-1.2,7.1-0.1c0.3,0.4,0.5,0.8,0.8,1.2c-1.5,0.1-2.7,0.5-2.4,2.4
		C59.8,102.8,54.6,101.8,49.6,103.1z"/>
	<path class="st5" d="M101.7,47.9c0-1,0.1-2,0.1-3c2,0.9,3,2.6,3,4.7c0.1,5,0,9.9,0,14.9c0,0.9,0.3,2.4-1.2,2.3
		c-1.4-0.1-1.1-1.5-1.1-2.4c0-4.3,0-8.7,0-13C102.5,50.2,102.9,48.9,101.7,47.9z"/>
	<path class="st7" d="M29.6,8.8c-2.3,2-4.9,3.5-7.6,4.7c0-1.1-0.2-0.9-1.7-2.1c-1.2-1-0.9-3.3,0.1-3.6c2.7-0.6,5.6-1.6,8.5-0.7
		C29.5,7.3,29.7,8.1,29.6,8.8z"/>
	<path class="st6" d="M58.7,2.8c0.8,1.2,1.1,2.3-0.9,2.1c-5-0.6-9.9-0.6-14.9-0.2c-0.3,0-0.8-0.3-0.8-0.5c-0.4-1.8,1.5-1.3,2.1-2.2
		c1-0.1,2-0.1,3-0.2c0.5,0,1.1,0,1.6,0.1C52.2,2.2,55.5,2,58.7,2.8z"/>
	<path class="st4" d="M67.2,100c-0.3-0.4-0.5-0.8-0.8-1.2c0.2-0.3,0.5-0.5,0.7-0.8c1.3,1.2,1.4,0,1.7-0.8c1.5,0.2,2.6-0.7,3.8-1.3
		c2.5-1.1,4.3-3.3,7.2-3.8c0.2,0.2,0.4,0.4,0.6,0.6c-0.2,1,1.4,3-1.5,2.2c-0.8-0.2-2,0.5-2.5,1.5c-0.3,0.2-0.5,0.5-0.8,0.7
		c-2.7,0.4-5.6,0.3-6.1,4.1c-0.3,2-1.9,1.2-3,1.3C66.8,101.6,67,100.8,67.2,100z"/>
	<path class="st7" d="M22.3,91.9c2.8,0.5,4.5,2.7,6.6,4.2c-1.5,2.7-4.2,2.2-6,1.3C21,96.4,22.1,93.9,22.3,91.9z"/>
	<path class="st4" d="M85.6,18.1c2.8-1.1,4.6-1.2,4.8,2.8c0.1,2.2,3.1,3.6,3,6.3c0,0-0.1,0.1-0.1,0.1c-0.2,0-0.5,0-0.7,0
		c-0.9-1.1-1.2-2.8-3-3.1c0,0,0,0,0,0C89.8,21.1,85.7,20.9,85.6,18.1L85.6,18.1z"/>
	<path class="st3" d="M109.9,45.1c0.3,1.6-0.3,2-1.6,2.1c-2.4,0.2-2.1-1.9-2.3-3.1c-0.3-1.7,1-4.3,2.1-4.1
		C111,40.5,108.3,43.8,109.9,45.1z"/>
	<path class="st8" d="M68.4,110.1c-4.1,1-5.8-0.3-5.3-4.6c1.7,1.4,2.9,2.7,4.9,1.8c0.9-0.4,1.8,0.2,2,1.2"/>
	<path class="st5" d="M76.4,7.4c2.3-0.2,4.4-0.1,5.6,2.4c0.7,1.4-0.2,1.7-1.1,2.2c-1.3,0.3-2.4-0.7-3.6-1c-0.2-1.5-1.3-1.4-2.4-1.5
		C74.9,8.4,76,8.1,76.4,7.4z"/>
	<path class="st4" d="M77.4,11c1.2,0.3,2.2,1.2,3.5,1c0.9,2.1,4,2.5,4,5.3c0,0,0,0,0,0c-2.1-0.5-3.1-2.9-5.3-3.1c0,0,0,0,0,0
		c0.2-1.9-2.4-1.3-2.5-2.9C77.2,11.2,77.3,11.1,77.4,11z"/>
	<path class="st6" d="M66.6,7.2c-0.9-1.9-4.2-0.1-4.6-2.8c2.5,0.8,5.6-0.6,7.5,2.1c0,0.3,0,0.5,0,0.8C68.6,7.3,67.6,7.3,66.6,7.2z"
		/>
	<path class="st8" d="M42.7,100.1c-0.3,0.8-0.6,1.6-0.8,2.4c-2-0.2-4.9,1-4.6-2.9c0.9-0.2,1.8-0.2,2.6,0.4
		C40.8,100,41.8,100.1,42.7,100.1L42.7,100.1z"/>
	<path class="st4" d="M69.5,7.3c0-0.3,0-0.5,0-0.8c2.1,1.5,4.5,0.8,6.8,0.8C76,8.1,74.9,8.4,75,9.6l-0.2,0.3
		c-1.7-0.4-3.4-0.7-5.1-1.1C69.6,8.2,69.6,7.8,69.5,7.3z"/>
	<path class="st5" d="M101.6,41.9c-2-0.9-2.5-2.6-2.3-4.6C101,38.4,103.2,39.2,101.6,41.9z"/>
	<path class="st4" d="M14.8,84.4c1.4,0.9,2.4,2.1,3.3,3.5C16.3,87.4,12.8,88.5,14.8,84.4z"/>
	<path class="st9" d="M98.7,35.7c-0.8-1.3-1.5-2.6-2.3-3.8C99.9,31.3,100.1,31.7,98.7,35.7z"/>
	<path class="st9" d="M75.6,97c0.3-0.2,0.5-0.5,0.8-0.7c1.4,0.1,2.9-0.3,4.8,0.8C78.9,98,77.3,98.3,75.6,97z"/>
	<path class="st3" d="M48.8,1.9c-0.5,0-1.1,0-1.6-0.1c0.2-3.2,1.4-3.9,4-1.7C50.3,0.6,48.8,0.3,48.8,1.9z"/>
	<path class="st9" d="M67.2,100c-0.2,0.8-0.5,1.6-0.7,2.4c-0.5,0-1.1,0-1.6,0C64.5,100.5,65.7,100.1,67.2,100z"/>
	<path class="st5" d="M53.5,104.2c-0.2,0.2-0.3,0.5-0.4,0.5c-0.4,0-0.9,0.1-1.1-0.1c-0.6-0.5,0.1-0.5,0.4-0.6
		C52.8,104,53.1,104.1,53.5,104.2z"/>
	<path class="st6" d="M34.2,98c0.9-0.2,1.4,0.3,2,0.8C35,99.6,34.5,99.1,34.2,98z"/>
	<path class="st4" d="M84.1,91.7c0.1,0.1,0.2,0.1,0.3,0.2C84.3,91.8,84.2,91.7,84.1,91.7C84.1,91.7,84.1,91.7,84.1,91.7z"/>
	<path class="st4" d="M84.9,17.3c0.3,0.3,0.5,0.5,0.8,0.8c0,0,0,0,0,0C85.4,17.8,85.1,17.6,84.9,17.3L84.9,17.3z"/>
	<path class="st10" d="M28.8,25.7c-1.4,6.2-3.2,12.3-4,18.6c-1,8-0.6,15.9,1.6,23.7c0.2,3.5,1.3,6.7,3.2,9.6c-0.5,0.3-0.5,0.6-0.1,1
		c0,0.3,0,0.6,0,0.8c-1.2-0.3-2.4-0.5-3.6-0.8c-1.7-0.2-2.5,0.5-2.3,2.3c-2.3,0.3-2.8-1.3-3.1-3c3.1-1.4,0.9-4.1,1.6-6.1
		c2.8-2.3,1.9-3.9-0.8-5.4c1.5-4.5,2.2-9.2,1.4-13.8c-1.3-8.2,0.9-15.8,3-23.5c0.2-0.6,0.1-1.3,0.2-1.9C26.4,26,27.5,25.5,28.8,25.7
		z"/>
	<path class="st2" d="M28.8,25.7c-1.3-0.2-2.4,0.3-3,1.5c-3.9-0.3-4-0.9-3.2-4.2c0.8-3.5,3.3-4.6,5.9-5.9c1.5-0.8,3-1.6,2.6-3.7
		c0,0,0,0,0,0c0.8,0.5,1.1,1.7,2.3,1.5c0.2,0.2,0.4,0.5,0.5,0.7C32.6,19.2,31,22.6,28.8,25.7z"/>
	<path class="st9" d="M29.5,79.5c0-0.3,0-0.6,0-0.8c2-0.1,2.6,1.6,3.2,2.8c1.3,2.5,2.3,3.3,3.8,0.2c0.3-0.7,0.5-1.3,1.6-1
		c6,1.2,9.3-1.9,8.2-7.7c-0.1-0.8-0.2-1.4,0-2.2c0.4-2.8-2.6-8.6-5.1-9.9c-1.4-0.7-2.9-0.9-3,1.2c-0.1,3.1-1.8,2.7-3.9,2
		c-0.2-1.3,0.5-2.7-0.8-3.8c-0.9-3.9-4-6.9-4.2-11.2c-0.2-4.7,0.3-5.7,4.9-5.7c2.2,0,4.3,0,6.4,0.6c2.8,0.8,4.3-1.3,5.5-3.2
		c1-1.6,0.3-3-1.2-4.2c-2.3-1.8-1.2-3.3,1.1-4.1c2.7-0.8,5.1-2.1,7-4.2c2.5-2.7,2.2-4.3-1.2-5.7c-2.7-1.1-4.9-2.8-5.3-5.9
		c-0.1-0.8-1.2-1.7,0.1-2.3c1-0.4,1.6,0.4,2.1,1.2c1.7,2.5,5.1,1.6,7.1,3.6c2.4-3.6,6-1.3,9-1.9c1.3-0.3,3.2,0.4,3-1.8
		c-0.1-1.8-1.4-2.9-3.1-2.8c-6.9,0.4-13.7-0.8-20.5-1.6c-0.1-0.8,0.1-1.7-0.9-2.2c1-2.5,2.7-2.2,3.8-0.4C49,11.7,49.5,9.7,50,8
		c0.6-2.1,1.9-2.8,3.6-2c4.2,2.1,8.7,1.1,13,1.2c1,0,1.9,0.1,2.9,0.1c0,0.5,0,0.9,0.1,1.4c0.2,3.8,5.6,6.7,10,5.5c0,0,0,0,0,0
		c-1.3,1.8-1.7,3.6,0.3,5.1c1.5,1.1,1,2.7,1.1,4.2c-0.8,0.1-1.5,0.3-1.4,1.3c0,0.2,0.5,0.6,0.7,0.6c0.9-0.3,0.6-1.2,0.7-1.9
		c0.9-0.2,7.6,0.3,8.5,0.7c0,0,0,0,0,0c-0.2,2.2-0.6,4.6,3,3.1c0.2,0,0.5,0,0.7,0c0,0.7,0.1,1.4,0.1,2.2c-1.3,1-0.7,2.5-0.8,3.8
		c-1,2.3-1.6,1.3-2.2-0.2c-1.7,1.6-5.6,0.4-5.8,3.2c-0.2,2.4-0.8,5.9,2.2,7.4c1.5,0.8,2.9,1.4,3.4,3.5c1.4-1.7,0.8-3.3,0.9-4.7
		c0.1-1.6,0.5-2.7,2.3-2.9c0.2,0.7-0.3,2.2,1,1.9c1.1-0.3,1.8-0.7,2,0.7c0.2,1.2,0.4,2.6-1.5,2.8C94,44.6,94.3,43.2,93,43
		c-1.3,2.8,0.5,6.1-1.2,8.8c-2.7-1.3-5.2-3.7-8.3-0.3c-0.8,0.9-1.9-0.6-1.6-1.7c1-3.3-0.8-5.7-2-8.5c-0.7-1.6-0.8-2.5-3-2
		c-1.6,0.4-5,1-2.9-3c0.4-0.8-0.3-1.4-0.8-2c-2.8-3-3.7-8.7-9.8-7.2c-0.1,0-0.3,0-0.4-0.1c-3-3.6-4.3,0.1-5.4,1.6
		c-4.9,6.6-3.2,11.3,4.7,14.1c1.9,0.7,3,1.8,2.2,4c-1.1,3.2,0.4,6.3,0.7,9.4c0.2,2,2.6,0.7,4,1.2c0.9,0.3,1.1,1,1.1,1.8
		c0.1,1.6,0.6,3,2.5,2.5c1.7-0.5,3.5-1.3,2.5-3.8c-0.7-1.8,0.3-2.5,1.9-3c2.9-0.9,5,0.9,4.8,3.9c-0.2,2.7-1.2,6.3,3.9,5.5
		c0.9-0.1,1.3,0.6,1.6,1.3c0.6,1.3-0.4,1.5-1.3,1.7c-1.6,0.3-1.4,1.7-1.2,2.7c0.1,0.5,0.6,1.3,1.1,1.4c1.2,0.4,1.8-0.7,2.4-1.5
		c0.4-0.6,0.7-1.3,1.1-1.9c-0.1,2.3,1.2,4.6,0,6.9c1.2,5.1-2.7,7.5-5.5,10.5c-1.6,1.7-2.7,2-3.5-0.1c-3,1.9-3.2,7.7-8.6,5
		c-0.3,0.8,0.2,1.1,0.6,1.4c0.9,0.7,1.1,2.4,0,1.9c-4.1-1.8-3.2,2.8-5.2,3.5c-1.4,0-2.7,0-4.1,0c-1.5,0.1-3.4-0.5-3.8,1.8
		c-0.4,0-0.7,0-1.1,0c-4-2.7-7.4,0-11,1.3c-1.5,0-3.1,0-4.6,0c0,0,0,0,0,0c0-2-1.2-3-3.1-3c-2.7-4.3-5.3-8.7-8-13
		c0.2-1.1-0.6-1.7-1.3-2.3c-0.2-0.6-0.4-1.1-0.5-1.7c0,0,0.1-0.3,0.1-0.3l-0.3-0.2L29.5,79.5z M51.9,47.2L51.9,47.2
		c-0.1,1.9,0.7,3.2,2.5,3.7c1.5,0.4,2.8,0,3.8-1.2c0.5-0.6,1.6-1.3,0.8-2.2c-2-2.1-3.7-4.9-6.8-5.5c-1.2-0.2-2.2,1.1-2.4,2.5
		c-0.1,0.9-0.1,1.8-0.1,2.7c-0.5,0.1-1.1,0.1-1.1,0.7c0,0.1,0.3,0.4,0.4,0.4c0.7-0.1,0.6-0.7,0.7-1.1C50.4,47.2,51.1,47.2,51.9,47.2
		z M79.5,68.6c0-3.2-0.2-3.6-1.9-3.7c-1.3-0.1-5.2,3.4-4.9,4.5c0.5,1.9,2,2.3,3.8,2.4C79.4,72,79.7,70.4,79.5,68.6z M73.2,23.6
		c-0.8,0.9-2.9,1.1-2.6,2.6c0.2,1.2,0.9,3,2.6,3.3c1.5,0.2,2.3-0.7,2.4-2.2C75.8,25.5,75.1,24.3,73.2,23.6z M44.8,54.1
		c0.8-0.1,2.3,0,2.2-1.6c0-1.4-1.2-2.1-2.6-2.2c-1.3-0.1-2.3,0.5-2.3,1.9C42.1,53.7,43.2,54.1,44.8,54.1z"/>
	<path class="st1" d="M22,71.8c-0.7,2,1.6,4.8-1.6,6.1c-2.2-1.2-1.6-3.3-1.3-5.1C19.4,71.3,20.9,71.9,22,71.8z"/>
	<path class="st6" d="M39.6,97.1c2,0.1,3.1,1,3.1,3c-0.9,0-1.9-0.1-2.8-0.1C39.8,99,39.7,98.1,39.6,97.1z"/>
	<path class="st1" d="M23.5,80.9c-0.2-1.7,0.6-2.5,2.3-2.3C26,80.4,25.3,81.2,23.5,80.9z"/>
	<path class="st10" d="M30.3,81.8c0.7,0.6,1.5,1.2,1.3,2.3C30.5,83.7,29.2,83.4,30.3,81.8z"/>
	<path class="st10" d="M29.6,79.7l0.3,0.2c0,0-0.1,0.3-0.1,0.3C29.6,80,29.5,79.9,29.6,79.7z"/>
	<path class="st11" d="M44.3,11.1c6.8,0.9,13.6,2,20.5,1.6c1.7-0.1,3,1,3.1,2.8c0.1,2.3-1.7,1.6-3,1.8c-3,0.6-6.7-1.7-9,1.9
		c-1.9-2-5.4-1.1-7.1-3.6c-0.5-0.8-1.1-1.6-2.1-1.2c-1.3,0.6-0.2,1.5-0.1,2.3c0.4,3.1,2.6,4.8,5.3,5.9c3.4,1.4,3.7,2.9,1.2,5.7
		c-1.9,2.1-4.3,3.4-7,4.2c-2.3,0.7-3.4,2.2-1.1,4.1c1.6,1.3,2.3,2.6,1.2,4.2c-1.2,1.9-2.8,4-5.5,3.2c-2.1-0.6-4.3-0.6-6.4-0.6
		c-4.6,0-5.1,0.9-4.9,5.7c0.2,4.3,3.4,7.3,4.2,11.2c-2.2-0.3-3.4,1.3-4.7,3.6c-1.1-6.5-2.4-12-2.6-17.6c-0.1-2,0.1-5.1,2.9-6.5
		c1-0.5,0.6-1.3,0.6-2c0.1-4-0.4-7.7,3.2-11.2c1.3-1.3,3-4.4,3-7.2c0-1,0.6-1.6,1.5-2.1c3.1,0.3,5.6-0.1,5.5-4.1
		C42.7,12.1,43.9,11.9,44.3,11.1z"/>
	<path class="st11" d="M34.3,64c2,0.7,3.7,1.1,3.9-2c0.1-2.2,1.6-2,3-1.2c2.5,1.3,5.5,7.1,5.1,9.9c-0.1,0.8-0.1,1.4,0,2.2
		c1,5.8-2.3,8.9-8.2,7.7c-1.1-0.2-1.2,0.3-1.6,1c-1.4,3.1-2.5,2.2-3.8-0.2c-0.6-1.3-1.2-2.9-3.2-2.8c-0.4-0.4-0.4-0.7,0.1-1
		c0-2,0.1-3.9,0.1-5.9C29,67.8,31.2,65.7,34.3,64z"/>
	<path class="st8" d="M44.3,11.1c-0.4,0.8-1.6,1-1.6,2c0.2,4.1-2.4,4.5-5.5,4.1c1.9-2.9,2.7-6.6,6.1-8.4
		C44.4,9.4,44.2,10.3,44.3,11.1z"/>
	<path class="st12" d="M29.7,71.7c0,2-0.1,3.9-0.1,5.9c-1.9-2.9-3-6.1-3.2-9.6c1.1,0.1,2.8-0.5,2.1,1.8
		C28.1,70.8,28.8,71.3,29.7,71.7z"/>
	<path class="st0" d="M67.2,97.1c2-0.7,1.1-5.3,5.2-3.5c1.1,0.5,0.9-1.2,0-1.9c-0.4-0.3-0.8-0.6-0.6-1.4c5.4,2.7,5.6-3.1,8.6-5
		c0.8,2.1,2,1.8,3.5,0.1c2.7-3.1,6.7-5.4,5.5-10.5c2.1-1.1,4.9-1.5,4.7-4.9c-0.1-1.4,0.9-1.9,2.1-2.1l0.1,0.1
		c-0.3,3.5-1.4,6.7-3.9,9.2c-0.2-0.4-0.6-0.8-1-0.5c-0.7,0.6-0.1,0.9,0.4,1.3c-2.1,4.5-5.2,8.1-9.2,11.1c-1.1,0.8-1.9,2-2.8,3
		c-2.8,0.5-4.7,2.7-7.2,3.8c-1.2,0.5-2.3,1.5-3.8,1.3C68.3,97.1,67.8,97.1,67.2,97.1L67.2,97.1z"/>
	<path class="st0" d="M94.8,44.9c1.9-0.2,1.6-1.6,1.5-2.8c-0.2-1.5-0.9-1-2-0.7c-1.3,0.3-0.8-1.1-1-1.9c0-0.8,0-1.5,0-2.3
		c1.4,0.1,1.2-0.7,0.8-1.5c0-1.1,0-2.2-1.5-2.4c0.1-1.3-0.5-2.8,0.8-3.8c2.2,1.4,2.8,4.1,3.5,6.2c3.4,10.2,3.7,20.6,0.9,31
		c-0.1,0.5-0.9,0.9-1.3,1.3c0,0-0.1-0.1-0.1-0.1c0.4-3.3,0.9-6.5,1.1-9.8c0.2-4.2,2.6-8.9-2.5-12.1C94.8,45.9,94.9,45.3,94.8,44.9z"
		/>
	<path class="st9" d="M91.9,77.9c-0.5-0.3-1.1-0.7-0.4-1.3c0.4-0.3,0.8,0.1,1,0.5C92.3,77.5,92.1,77.7,91.9,77.9z"/>
	<path class="st1" d="M33.5,15c-1.2,0.2-1.5-1-2.3-1.5c0.1-0.6-0.4-1.8,0.7-1.7C33.9,12,33.5,13.7,33.5,15z"/>
	<path class="st0" d="M47.3,100.1c3.6-1.3,7-4,11-1.3C55,102.2,51.1,101,47.3,100.1z"/>
	<path class="st0" d="M59.4,98.9c0.4-2.4,2.3-1.8,3.8-1.8c1.3-0.1,2.7,0,4.1,0l0,0c0,0.3,0,0.6,0,0.9c-0.2,0.3-0.5,0.5-0.7,0.8
		C64.1,97.7,61.8,100.7,59.4,98.9z"/>
	<path class="st9" d="M67.2,98c0-0.3,0-0.6,0-0.9c0.6,0,1.1,0.1,1.7,0.1C68.6,98,68.5,99.1,67.2,98z"/>
	<path class="st12" d="M81,23.4c-0.1-1.5,0.4-3-1.1-4.2c-2-1.5-1.6-3.3-0.3-5.1c2.2,0.3,3.2,2.7,5.3,3.1c0.3,0.3,0.5,0.5,0.8,0.8
		c0.1,2.8,4.1,3.1,3.9,6.1C88.6,23.8,82,23.3,81,23.4L81,23.4z"/>
	<path class="st12" d="M92.6,27.3c-3.6,1.5-3.2-0.9-3-3.1C91.3,24.4,91.6,26.2,92.6,27.3z"/>
	<path class="st4" d="M75,9.6c1.1,0,2.2,0,2.4,1.5c-0.1,0.1-0.2,0.2-0.3,0.3c-1-0.1-2.1-0.2-2.3-1.5L75,9.6z"/>
	<path class="st12" d="M74.7,9.8c0.3,1.3,1.3,1.4,2.3,1.5c0.1,1.6,2.7,1,2.5,2.9c-4.3,1.3-9.7-1.7-10-5.5C71.3,9.1,73,9.4,74.7,9.8z
		"/>
	<path class="st11" d="M89.5,68c-0.4,0.7-0.7,1.3-1.1,1.9c-0.6,0.8-1.2,1.9-2.4,1.5c-0.5-0.1-1-0.9-1.1-1.4
		c-0.2-1.1-0.5-2.4,1.2-2.7c0.9-0.2,1.9-0.4,1.3-1.7c-0.3-0.7-0.7-1.5-1.6-1.3c-5.1,0.8-4-2.8-3.9-5.5c0.2-3-2-4.8-4.8-3.9
		c-1.6,0.5-2.6,1.2-1.9,3c1,2.5-0.7,3.3-2.5,3.8c-1.9,0.5-2.4-0.9-2.5-2.5c0-0.8-0.2-1.5-1.1-1.8c-1.3-0.5-3.7,0.8-4-1.2
		c-0.4-3.1-1.9-6.2-0.7-9.4c0.8-2.3-0.2-3.3-2.2-4c-7.9-2.8-9.6-7.5-4.7-14.1C58.7,27,60,23.3,63,27c0.1,0.1,0.2,0.2,0.4,0.1
		c6.1-1.4,7,4.2,9.8,7.2c0.5,0.6,1.2,1.2,0.8,2c-2.1,4,1.3,3.4,2.9,3c2.2-0.5,2.3,0.4,3,2c1.2,2.7,3,5.2,2,8.5
		c-0.3,1,0.8,2.6,1.6,1.7c3.1-3.4,5.6-1,8.3,0.3c1,2,0.6,4.4,2.6,6.9c-3.7-2-3.6,0.1-3.3,2.1C91.4,63.3,91.5,65.9,89.5,68z"/>
	<path class="st13" d="M89.5,68c2-2.1,1.9-4.6,1.6-7.2c-0.2-1.9-0.4-4,3.3-2.1c-2-2.4-1.5-4.9-2.6-6.9c1.7-2.7,0-6,1.2-8.8
		c1.3,0.2,1,1.6,1.8,1.9c0,0.4-0.1,1,0.1,1.1c5.1,3.1,2.7,7.9,2.5,12.1c-0.2,3.3-0.7,6.5-1.1,9.8c-1.2,0.2-2.2,0.7-2.1,2.1
		c0.2,3.4-2.6,3.7-4.7,4.9C90.7,72.5,89.4,70.2,89.5,68z"/>
	<path class="st11" d="M92.6,33.3c1.5,0.2,1.5,1.3,1.5,2.4c-0.9,0.2-1.9,0.3-0.8,1.5c0,0.8,0,1.5,0,2.3c-1.8,0.2-2.2,1.3-2.3,2.9
		c-0.1,1.4,0.5,3-0.9,4.7c-0.5-2.1-1.9-2.7-3.4-3.5c-3-1.5-2.4-5-2.2-7.4c0.3-2.8,4.1-1.6,5.8-3.2C90.9,34.6,91.6,35.6,92.6,33.3z"
		/>
	<path class="st11" d="M51.9,47.2c-0.8,0-1.5,0-2.3,0l0,0c0-0.9-0.1-1.8,0.1-2.7c0.2-1.4,1.2-2.7,2.4-2.5c3.1,0.5,4.8,3.3,6.8,5.5
		c0.9,0.9-0.2,1.6-0.8,2.2c-1,1.2-2.3,1.6-3.8,1.2C52.6,50.5,51.8,49.1,51.9,47.2c0.7-0.1,1.5,0.2,1.9-0.7c0.1-0.1-0.3-0.6-0.6-0.7
		C52.2,45.7,52,46.5,51.9,47.2z"/>
	<path class="st11" d="M79.5,68.6c0.2,1.8-0.1,3.4-2.9,3.2c-1.8-0.1-3.3-0.5-3.8-2.4c-0.3-1.1,3.6-4.6,4.9-4.5
		C79.3,65,79.5,65.4,79.5,68.6z"/>
	<path class="st7" d="M73.2,23.6c1.9,0.8,2.6,2,2.5,3.7c-0.1,1.5-0.9,2.5-2.4,2.2c-1.7-0.3-2.4-2.1-2.6-3.3
		C70.3,24.6,72.4,24.5,73.2,23.6z"/>
	<path class="st11" d="M44.8,54.1c-1.6,0-2.7-0.5-2.7-1.9c0-1.4,1-2,2.3-1.9c1.4,0.1,2.6,0.8,2.6,2.2C47,54.1,45.6,54,44.8,54.1z"/>
	<path class="st12" d="M81,23.5c-0.1,0.7,0.2,1.5-0.7,1.9c-0.1,0.1-0.6-0.3-0.7-0.6C79.5,23.7,80.3,23.6,81,23.5
		C81,23.4,81,23.5,81,23.5z"/>
	<path class="st11" d="M49.6,47.2c-0.1,0.5-0.1,1.1-0.7,1.1c-0.1,0-0.4-0.3-0.4-0.4C48.5,47.3,49.1,47.3,49.6,47.2
		C49.6,47.2,49.6,47.2,49.6,47.2z"/>
	<path class="st9" d="M93.3,37.2c-1.1-1.2-0.2-1.4,0.8-1.5C94.5,36.6,94.7,37.3,93.3,37.2z"/>
	<path class="st9" d="M51.9,47.2c0.1-0.8,0.3-1.5,1.3-1.4c0.2,0,0.6,0.5,0.6,0.7C53.4,47.4,52.6,47.1,51.9,47.2
		C51.9,47.2,51.9,47.2,51.9,47.2z"/>
</g>
<g>
	<path class="st14" d="M90.8,126.5H15c-2.2,0-4-1.8-4-4v-23c0-2.2,1.8-4,4-4h75.8c2.2,0,4,1.8,4,4v23
		C94.8,124.7,93,126.5,90.8,126.5z"/>
	<g>
		<path class="st15" d="M31.9,113c-0.1-2-0.1-4.4-0.1-6.8h-0.1c-0.5,2.1-1.2,4.4-1.8,6.4l-2,6.4H25l-1.8-6.4
			c-0.5-1.9-1.1-4.3-1.5-6.4l0,0c-0.1,2.2-0.2,4.8-0.3,6.8l-0.3,6.3h-3.4l1.1-16.5h5l1.6,5.5c0.5,1.9,1,4,1.4,5.9h0.1
			c0.5-1.9,1-4.1,1.6-5.9l1.8-5.5h4.9l0.9,16.5h-3.6L31.9,113z"/>
		<path class="st15" d="M53.7,110.9c0,5.4-3.3,8.7-8.1,8.7c-4.9,0-7.7-3.7-7.7-8.4c0-4.9,3.2-8.6,8-8.6
			C51,102.6,53.7,106.3,53.7,110.9z M41.8,111.1c0,3.2,1.5,5.5,4,5.5s4-2.4,4-5.6c0-3-1.4-5.5-4-5.5
			C43.3,105.5,41.8,107.9,41.8,111.1z"/>
		<path class="st15" d="M71.2,110.9c0,5.4-3.3,8.7-8.1,8.7c-4.9,0-7.7-3.7-7.7-8.4c0-4.9,3.2-8.6,8-8.6
			C68.5,102.6,71.2,106.3,71.2,110.9z M59.3,111.1c0,3.2,1.5,5.5,4,5.5c2.5,0,4-2.4,4-5.6c0-3-1.4-5.5-4-5.5
			C60.8,105.5,59.3,107.9,59.3,111.1z"/>
		<path class="st15" d="M73.7,119.3v-16.5H78l3.4,6c1,1.7,2,3.8,2.7,5.6h0.1c-0.2-2.2-0.3-4.4-0.3-6.9v-4.8h3.4v16.5h-3.9l-3.5-6.4
			c-1-1.8-2.1-3.9-2.9-5.8h-0.1c0.1,2.2,0.1,4.5,0.1,7.2v5h-3.3V119.3z"/>
	</g>
</g>
</svg>
