<?xml version="1.0" encoding="utf-8"?>
<!-- Generator: Adobe Illustrator 25.0.0, SVG Export Plug-In . SVG Version: 6.00 Build 0)  -->
<svg version="1.1" id="Layer_1" xmlns="http://www.w3.org/2000/svg" xmlns:xlink="http://www.w3.org/1999/xlink" x="0px" y="0px"
	 width="105.5px" height="129px" viewBox="0 0 105.5 129" style="enable-background:new 0 0 105.5 129;" xml:space="preserve">
<style type="text/css">
	.st0{fill:#FCFCFC;}
	.st1{fill:#F2F5F4;}
	.st2{fill:#B7C0C4;}
	.st3{fill:#EEF1F2;}
	.st4{fill:#DDE2E3;}
	.st5{fill:#EBEDEE;}
	.st6{fill:#F7F4EC;}
	.st7{fill:#A5B0B2;}
	.st8{fill:#E5E8EA;}
	.st9{fill:#D0D7D8;}
	.st10{fill:#E9E0DB;}
	.st11{fill:#F8F4EC;}
	.st12{fill:#48A6DD;}
	.st13{fill:#FFFFFF;}
</style>
<g>
	<path class="st0" d="M31.6-3.3c0.2,1.2-0.7,3.1,1,3.5c1.6,0.4,3.6,1.2,4.9-0.9c0.3-0.5,3.6-0.1,3.6,0.3c-0.4,4,2.5,3,4.7,3.2
		c-0.1,0.2-0.2,0.5-0.3,0.7c-2.5,0.5-5.5-1.4-7.3,1.9c-3,0.5-6.9-1.2-8.4,3.3c-1.1-0.1-1.3,1-2,1.5c-1.5,0-2.2,1.8-3.8,1.5
		c-0.1-0.7-0.6-1.7-1.3-0.9c-1,1-3.1,1.8-1.7,4c-4.4,4.1-10.3,7-10.5,14.2l0.1,0.3c-1.8,1-2.1-0.9-3-1.7c-2.1,2.9-0.4,6.2-1.1,8.9
		C4.5,44.2,4.9,52.1,5,59.9c0,3.9,2.4,7.5,2.9,11.5c0.2,1.7,1.9,2.5,3.6,2.7c0,1.1-0.2,2.3,0.1,3.3c0.6,1.6,1.1,0.8,1.4-0.3
		c1,0.4,0.9,1.3,1,2.1c-1.9,0.7-1.7,2.3-1.7,3.8c0,1.2,0,2.4,0,3.6c0,0.6,0.2,1.2,0.9,1.4c0.6,0.2,1.5,0.2,1.6-0.3
		c0.2-1.6,2.3-3.3-0.3-4.7c0-1,0-2.1,0-3.1c1,0.5,1.5,1.6,2.3,2.3c1.4,1.3,1.9,3.8,4.3,3.9c-0.4,0.8-1.6,1-1.4,2.2
		c-0.7,0.1-1.5,0.3-1.3,1.3c0,0.2,0.5,0.6,0.7,0.6c0.9-0.3,0.5-1.2,0.6-1.8c1.1,1.7,2.1,3.5,4.5,1.5c0.7,0,1.5,0,2.2,0l0,0
		c0.8,1.5,1.9,2.5,3.7,2.3c0,0,0,0,0,0c0,1,0.6,1.4,1.5,1.5c-0.2,3.9,3.2,1.2,4.5,2.6c0.1,1-1.8,0.3-1.3,1.9c4.1,0,8.3,0,12.4,0
		c1.4,0.3,2.9-0.4,4.2,1.5c1.3,1.8,4.3,1.3,5.8,0.5c2.5-1.4,2.3-1.8,5-1.9c2,0,3.9,0,5.9-0.1c0.7,0,1.9-0.2,2-0.5
		c1.6-5.1,7.4-3.4,10.4-6.5c0.9-1,3.2-1,3.4-2.9c1.7-0.3,1.1,2.2,1.7,1.5c1.2-1.2,3.5-1.3,3.5-3.8c0-2.7,1-5.1,3-7.2
		c1.2-1.3,3-2,4-3.1c4.3-4.7,4.8-10.9,5.1-17c0.2-4.4,0.1-8.9,0.1-13.3c1.2,0.9,0.8,2.2,0.8,3.4c0,4.1,0,8.1,0,12.2
		c0,1-0.5,2.6,1,2.7c1.7,0.1,1.2-1.6,1.2-2.6c0.1-4.6,0.4-9.1-0.1-13.7c-0.3-3.1-1.6-6.1-3.4-8.8c-0.1-0.5-0.2-0.9-0.2-1.4
		c0.3-2.5-1.7-4.2-2.3-6.4c-0.4-1.4-1.3-0.6-2.1-0.4l-0.2,0.1c-0.4-2.1,1.9-5.5-2.8-5.5c-0.7,0-0.6-1-0.9-1.4c-2-2-2.1-5-3.5-7.3
		c-0.2-0.3-0.5-0.5-0.7-0.8c-0.5,0-1-0.1-1.5-0.1c0.4-2.4-0.8-3-2.9-2.8c0-0.2,0-0.4-0.1-0.7c0-1.6-1.1-1.6-2.2-1.5l0,0
		c0.1-0.8-0.1-1.8,1-2.2c0.7-0.3,2.1,0.1,1.6-1.3c-0.4-1.1-1.8-1.3-2.5-0.9c-1.6,1-2.6,0.1-3.8-0.5c-1.1-0.5-2.4-0.7-3.5,0.1
		c-2.7,0.9-5.1-0.4-7.6-1.2c0.8-0.4,2.7,0.7,2.4-1.1c-0.1-0.7-0.6-2.8-2.2-2.4c-1.7,0.5-0.3,1.8-0.3,2.8c0,0.2,0.1,0.5,0.1,0.7
		c-1.2-0.1-2.4-0.1-3.7-0.2c-0.7-0.9-1.3-0.4-1.9,0.1c-0.6-1.8-2-1.5-3.4-1.5c-3.7,0-7.4,0-11.1,0c0.1-0.6,0.3-1.3,1.1-1.2
		c4.4,1,8.9,0.2,13.3,0.5c0.9,0.1,2.3,0.9,2.3-0.7c0-1.3-1.6-0.7-2.5-0.8c-1.5-0.1-3.7,0.5-4.3-0.3c-2-2.6-4.6-2.3-7-1.9
		c-5.6,0.9-8-5-12.9-5.8"/>
	<path class="st0" d="M50.9-6.8c0,0.8,0,2,1.2,1.8c1.2-0.1,1-1.3,1-2.1"/>
	<path class="st0" d="M110.6,34.9c-2.7,0.3-4.9,4.4-3.9,7.2c-0.3,2.2,1.2,2.3,2.8,2.3"/>
	<path class="st0" d="M-3.9,29.4c1.5,4.1,2.4,8.3,2.1,12.7c-0.2,2.6,1.7,2.2,3.3,2.2c1.9,0,1.6-1.1,1.5-2.5c-0.3-4.3-2.6-8.5-1-12.5
		c-0.2-2,0.5-3.8-1.6-4.6c-1.3-0.5-2.5-0.4-3.5,0.4C-4.8,26.2-4.4,28.1-3.9,29.4"/>
	<path class="st0" d="M110.4,63.8c-1.9-0.2-1.6,1.5-1.5,2.7c0.1,1.6-0.1,4.1,1.9,4.2"/>
	<path class="st0" d="M-3,35.9c0,0.2,0,0.4,0,0.5c0.1-0.1,0.2-0.2,0.2-0.3C-2.8,36.1-2.9,36-3,35.9z"/>
	<path class="st1" d="M13,77.1c-0.3,1.1-0.8,1.8-1.4,0.3c-0.4-1-0.1-2.2-0.1-3.3c1.2-1.6-0.1-2.8-0.7-4C7,62.2,5.4,53.9,6.5,45.4
		c0.4-3.6,0.8-7.7,3.4-10.9c0,0,0.1,0.2,0.1,0.2c1,3.5-1.5,6.5-1.2,10.1c0.5,5,1.8,9.5,3.3,14.2c1.4,4.4,4.6,6.6,9.1,5.6
		c1.7-0.4,3.4,0,4,1.8c0.4,1.3-0.8,2.3-1.8,2.3c-5.1,0.1-3.8,3.3-3.1,6.2c-1.6,0.1-1.5,1.3-1.4,2.4c0,1.3,0.8,0.8,1.5,0.6
		c0,0.5,0,1,0,1.5c0,0.2,0,0.4,0,0.7c-0.8,0.5-0.8,1.1,0,1.6c4.4,3.6,9.3,6.6,14.4,8.5c2.6,0.9,5.1,2.2,7.7,3.1
		c4.9,1.6,9.3,5,14-0.1c0.2-0.2,0.7-0.3,1-0.2c2.6,1,5.1-0.7,7.6-0.2c3.5,0.7,5-1.1,5-4.4c1.1,0,2.2,0,3.3,0c2.3,0,5,0.8,5.3-3.2
		c0.1-1.2,1.8-2.2,3.5-2.1c1,0.1,2.5,0.3,2.6-1.3c0.2-3.3,2.4-3.2,4.7-3.1c-1.4,1.8-2.8,3.7-4.4,5.3C74.8,94.4,61.7,97.9,47.2,97
		c-5.4-0.9-10.5-2.6-15.6-4.5c-0.3-0.7-0.9-0.8-1.5-0.6l0,0c-0.5-2-2-2.3-3.7-2.3c0,0,0,0,0,0c0-1.6-1-1.7-2.2-1.5l0,0
		c0.1-1.6-0.9-2.1-2.3-2.2l0,0c-2.3-4-6.2-6.6-8.8-11.3C13,76.1,13,76.6,13,77.1z M10.2,58.9c1-1.3,0.1-1.9-0.5-2.6
		C9.4,57.3,8.9,58.3,10.2,58.9z"/>
	<path class="st2" d="M47.2,97c14.5,0.8,27.5-2.7,38.1-13.2c1.6-1.6,2.9-3.5,4.4-5.3c2.6-2.5,4.4-5.6,5.8-8.8
		c4.7-10.5,5.2-21.4,2-32.5c-0.7-2.4-1.4-4.7-2-7l0.3,0l0.3,0c0,0,0.2-0.1,0.2-0.1c1.6,2.2,1.5,5.4,4.4,6.8c0.1,0.5,0.2,0.9,0.2,1.4
		c-2.4,2.4,1.5,4.3,0.5,6.6c0,4.4,0,8.9-0.1,13.3c-0.2,6.1-0.8,12.2-5.1,17c-0.9,1-2.8,1.8-4,3.1c-1.9,2-3,4.4-3,7.2
		c0,2.4-2.3,2.6-3.5,3.8c-0.7,0.7-0.1-1.8-1.7-1.5c-0.2,2-2.5,2-3.4,2.9c-3,3.1-8.9,1.3-10.4,6.5c-0.1,0.4-1.3,0.5-2,0.5
		c-2,0.1-3.9,0.1-5.9,0.1c-2.8,0-2.5,0.5-5,1.9c-1.5,0.8-4.6,1.3-5.8-0.5c-1.3-1.8-2.7-1.2-4.2-1.5C47.2,97.6,47.2,97.3,47.2,97z
		 M97.6,70.3c0.3-0.2,0.5-0.3,0.7-0.4c-0.2-0.2-0.3-0.5-0.5-0.7c0,0-0.5,0.2-0.5,0.3C97.4,69.7,97.5,70,97.6,70.3z"/>
	<path class="st3" d="M10.8,29.2c0,0-0.1-0.3-0.1-0.3c0.7,0,1.1-0.3,1.5-0.8c3-4,5.8-8,9.4-11.6c2.1-2.1,5.3-3.2,6.3-6.3
		c0.7-0.4,0.9-1.5,2-1.5c3.4,0.4,6-1.2,8.4-3.3c1.8-3.2,4.8-1.4,7.3-1.9c0.5,0.8,1.4,0.8,2.3,0.8c4.4,0,8.7-0.1,13.1-0.1
		c0.6-0.6,1.2-1,1.9-0.1C62,5.2,63.6,5,63.7,5.6c-4.8,0-9.6,0.2-14.4,0c-3-0.2-4,1-3.6,3.8c-0.5,0-1,0-1.5,0
		c-1.1-1.1-1.3-0.3-1.5,0.7c-1.6,0.2-2.8,2.2-2.6,2.6c2,3.5-1.8,2.3-2.6,3.4c-2-0.7-4.6,0.3-6-2.2c-3.5-1.3-10.9,4.6-10.2,8.3
		c0.2,1.2-0.3,1.1-1,1.3c-4.2,1.4-7.8,6-8.1,10.5c-0.2,2.8-1.1,1.7-2.2,0.7c0,0-0.1-0.2-0.1-0.2C9.9,32.7,11.2,31.1,10.8,29.2z"/>
	<path class="st3" d="M36.5-7.4c4.9,0.8,7.3,6.7,12.9,5.8c2.3-0.4,5-0.8,7,1.9c0.6,0.7,2.8,0.2,4.3,0.3c0.9,0.1,2.4-0.5,2.5,0.8
		c0,1.6-1.4,0.7-2.3,0.7c-4.4-0.3-8.9,0.5-13.3-0.5c-0.8-0.2-1,0.5-1.1,1.2c-0.2,0.1-0.4,0.1-0.6,0.1c-2.1-0.2-5.1,0.8-4.7-3.2
		c0-0.4-3.3-0.8-3.6-0.3c-1.3,2.2-3.4,1.3-4.9,0.9c-1.7-0.4-0.8-2.3-1-3.5"/>
	<path class="st2" d="M10.8,29.2c0.4,1.9-0.8,3.5-0.9,5.3c-2.6,3.1-3,7.3-3.4,10.9C5.4,53.9,7,62.2,10.8,70.1c0.6,1.2,1.9,2.4,0.7,4
		c-1.7-0.3-3.4-1.1-3.6-2.7C7.4,67.4,5,63.8,5,59.9c-0.1-7.8-0.5-15.7,1.6-23.5c0.7-2.7-1-6,1.1-8.9C8.7,28.2,9,30.2,10.8,29.2z"/>
	<path class="st4" d="M-3.9,29.4c-0.5-1.3-0.9-3.2,0.7-4.4c1-0.8,2.3-0.9,3.5-0.4c2.1,0.9,1.3,2.7,1.6,4.6c-1.6,4,0.8,8.2,1,12.5
		c0.1,1.4,0.4,2.5-1.5,2.5c-1.6,0-3.5,0.3-3.3-2.2C-1.5,37.7-2.4,33.6-3.9,29.4"/>
	<path class="st5" d="M53.1-7.1c0.1,0.8,0.2,2-1,2.1c-1.3,0.1-1.2-1-1.2-1.8"/>
	<path class="st6" d="M101.4,45c1-2.3-2.8-4.2-0.5-6.6c1.8,2.7,3.1,5.7,3.4,8.8c0.4,4.5,0.1,9.1,0.1,13.7c0,1,0.5,2.7-1.2,2.6
		c-1.5-0.1-1-1.7-1-2.7c-0.1-4.1,0-8.1,0-12.2C102.2,47.2,102.5,45.9,101.4,45z"/>
	<path class="st2" d="M27.9,10.1c-1,3.1-4.2,4.2-6.3,6.3C18.1,20,15.2,24,12.3,28c-0.4,0.5-0.9,0.8-1.5,0.8
		c0.1-7.2,6.1-10.2,10.5-14.2c1.2-0.8,2.3-1.7,3-3C25.7,11.9,26.5,10.1,27.9,10.1z"/>
	<path class="st2" d="M63.7,5.6c0-0.7-1.6-0.4-0.8-1.5c1.2,0.1,2.4,0.1,3.7,0.2c0,0,0,0,0,0C68.9,5,71.3,6.3,74,5.4
		c1.1,3.6,4.8,3.3,7.3,4.8c0,0,0,0,0,0c0,1.5,0.4,2.6,2.2,1.5c0,0.2,0,0.4,0.1,0.7c0,1,0,2,0,3c-1.3-0.9-2.5-1.9-3.9-2.7
		C74.7,9.5,69.8,6.1,63.7,5.6z"/>
	<path class="st7" d="M96.1,30.2l-0.3,0c0,0-0.3,0-0.3,0c-3-4-5.9-8-8.9-12c-0.1-0.9-0.8-1.9,0-2.8l-0.1-0.2c0.5,0,1,0.1,1.5,0.1
		c0.2,0.3,0.5,0.5,0.7,0.8c1.4,2.3,1.5,5.2,3.5,7.3c0.4,0.4,0.3,1.4,0.9,1.4C98,24.7,95.6,28.2,96.1,30.2z"/>
	<path class="st7" d="M47.2,97c0,0.3,0,0.5,0,0.8c-4.2,0-8.3,0-12.4,0c-0.5-1.6,1.5-0.9,1.3-1.9c-1.3-1.3-4.7,1.3-4.5-2.6
		c0-0.3,0-0.6,0-0.9C36.7,94.4,41.8,96.1,47.2,97z M37.7,96l0.2,0.1l0-0.2L37.7,96z"/>
	<path class="st8" d="M111.8,41.4c-1.7,0.2-3.4,0.5-5.1,0.7c-1-2.8,1.2-6.9,3.9-7.2"/>
	<path class="st8" d="M81.3,10.2C78.8,8.7,75.2,9,74,5.4c1.2-0.7,2.4-0.6,3.5-0.1c1.2,0.6,2.2,1.4,3.8,0.5c0.7-0.4,2.1-0.2,2.5,0.9
		c0.5,1.4-0.9,1.1-1.6,1.3C81.2,8.5,81.4,9.4,81.3,10.2z"/>
	<path class="st2" d="M13,77.1c0-0.5,0.1-1,0.1-2.4c2.6,4.7,6.5,7.3,8.8,11.3c-0.3,0-0.5,0-0.8,0.1c-2.5-0.1-2.9-2.5-4.3-3.9
		c-0.8-0.7-1.3-1.8-2.3-2.3c-0.2-0.2-0.4-0.5-0.5-0.7C13.8,78.4,14,77.5,13,77.1z"/>
	<path class="st2" d="M45.9,2.8c0.2,0,0.4,0,0.6-0.1c3.7,0,7.4,0,11.1,0c1.3,0,2.8-0.3,3.4,1.5c-4.4,0-8.7,0-13.1,0.1
		c-0.9,0-1.7,0-2.3-0.8C45.7,3.2,45.8,3,45.9,2.8z"/>
	<path class="st5" d="M110.8,70.7c-2-0.1-1.8-2.6-1.9-4.2c-0.1-1.1-0.4-2.9,1.5-2.7"/>
	<path class="st8" d="M14.5,83c2.6,1.4,0.5,3.1,0.3,4.7c-0.1,0.5-1,0.5-1.6,0.3c-0.7-0.2-0.9-0.8-0.9-1.4c0-1.2,0-2.4,0-3.6
		C13,83,13.7,83,14.5,83z"/>
	<path class="st7" d="M38.3,5.3c-2.4,2.1-5,3.7-8.4,3.3C31.4,4.1,35.3,5.8,38.3,5.3z"/>
	<path class="st8" d="M21.1,86c0.3,0,0.5,0,0.8-0.1c0,0,0,0,0,0c0,1.5,0.8,2.2,2.3,2.2c0,0,0,0,0,0c0,0.5,0,1,0,1.5
		c-2.3,2-3.4,0.2-4.5-1.5l0,0C19.5,87.1,20.7,86.8,21.1,86z"/>
	<path class="st9" d="M109.4,44.4c-1.6,0-3.1,0-2.8-2.3c1.7-0.2,3.4-0.5,5.1-0.7"/>
	<path class="st6" d="M100.7,36.9c-2.9-1.4-2.8-4.6-4.4-6.8c0.8-0.2,1.7-1,2.1,0.4C99,32.7,101,34.4,100.7,36.9z"/>
	<path class="st3" d="M66.5,4.2c0-0.2-0.1-0.5-0.1-0.7c-0.1-1-1.5-2.3,0.3-2.8c1.6-0.4,2.1,1.7,2.2,2.4C69.1,5,67.3,3.8,66.5,4.2
		C66.5,4.2,66.5,4.2,66.5,4.2z"/>
	<path class="st8" d="M83.6,15.4c0-1,0-2,0-3c2.1-0.2,3.3,0.4,2.9,2.8c0,0,0.1,0.2,0.1,0.2c-0.8,0-1.6,0-2.5-0.1
		C84,15.4,83.8,15.4,83.6,15.4z"/>
	<path class="st5" d="M24.1,11.6c-0.6,1.3-1.8,2.2-3,3c-1.4-2.1,0.7-2.9,1.7-4C23.6,9.9,24,10.8,24.1,11.6z"/>
	<path class="st1" d="M14.5,83c-0.7,0-1.5,0-2.2,0c0-1.5-0.2-3.1,1.7-3.8c0.2,0.2,0.4,0.5,0.5,0.7C14.5,80.9,14.5,81.9,14.5,83z"/>
	<path class="st2" d="M26.4,89.7c1.7,0,3.2,0.3,3.7,2.3C28.3,92.2,27.2,91.1,26.4,89.7z"/>
	<path class="st8" d="M83.6,11.7c-1.8,1.1-2.2,0-2.2-1.5C82.5,10.1,83.6,10.1,83.6,11.7z"/>
	<path class="st8" d="M19.7,88.2c-0.1,0.7,0.2,1.5-0.6,1.8c-0.1,0.1-0.6-0.3-0.7-0.6C18.2,88.5,18.9,88.3,19.7,88.2
		C19.7,88.2,19.7,88.2,19.7,88.2z"/>
	<path class="st2" d="M24.1,89.7c0-0.5,0-1,0-1.5c1.2-0.2,2.2,0,2.2,1.5C25.6,89.7,24.9,89.7,24.1,89.7z"/>
	<path class="st2" d="M31.6,92.5c0,0.3,0,0.6,0,0.9c-0.9-0.1-1.5-0.5-1.5-1.5C30.7,91.7,31.3,91.8,31.6,92.5z"/>
	<path class="st4" d="M-3,35.9c0.1,0.1,0.1,0.2,0.1,0.3c0,0.1-0.1,0.2-0.2,0.3C-3,36.2-3,36.1-3,35.9z"/>
	<path class="st2" d="M88.8,16.1c-0.2-0.3-0.5-0.5-0.7-0.8C88.3,15.6,88.6,15.8,88.8,16.1z"/>
	<path class="st6" d="M83.6,15.4c0.2,0,0.3,0,0.5,0c0.4,1.3,1.3,2.3,2.5,2.9c3,4,5.9,8,8.9,12c0.7,2.3,1.4,4.7,2,7
		c3.2,11.1,2.7,21.9-2,32.5c-1.4,3.2-3.2,6.3-5.8,8.8c-2.3-0.1-4.5-0.2-4.7,3.1c-0.1,1.6-1.6,1.3-2.6,1.3c-1.7-0.1-3.4,0.9-3.5,2.1
		c-0.3,3.9-3,3.1-5.3,3.2c-1.1,0-2.2,0-6.6-2.6c-3.3-2.6-3.3-2.5-3.3-2.5c-2,0-3.9,0-5.9,0c-0.6,0-1.2,0.4-1.3,1.1
		c-0.1,0.6,0.4,0.8,0.9,1c3.2,1.7,6.3,4,10.3,2.9c0.9-0.3,2.9,1.2,2.6-1.5c-0.2-1.8,0.5-3.9-2.5-3.7c-1.3,0.1-2.7,0-0.8,2.6
		c3.3,6,1.9,7.7-1.7,7c-2.6-0.5-5.1,1.2-7.6,0.2c-0.3-0.1-0.8,0-1,0.2c-4.7,5.1-9.1,1.7-14,0.1c-2.6-0.9-5.2-2.2-7.7-3.1
		c-5.2-1.8-10.1-4.9-14.4-8.5c0-0.5,0-1,0-1.6c0-0.2,0-0.4,0-0.7c2.1-0.8,4.1-2.2,6.6-1c1.4,0.6,1.9-1,2.1-2c0.3-1.3,0.2-2.7-0.3-4
		c-0.4-1-0.1-1.8,1-1.9c1.1-0.1,1.6,0.5,1.6,1.6c0,1.7-0.1,3.5,0.1,5.2c0.1,1.4-0.8,3.2,0.9,4c1.7,0.8,3.3,0.1,4.7-1.1
		c1-0.9,2.2-2.5,3.8-1.9c2.6,0.9,3.8-1.3,5.6-2c2.9-1.2,1.3-3.4,0.9-5.3c-0.2-0.8,0.3-1.7,0.4-2.5c0.1-1.2,0.3-2.5-0.8-3.5
		c-1-1-1.7-1.8-1.9-3.5c-0.2-2.1-2.7-3.7-4.9-3.7c-1.2,0-0.6,2.3-0.4,3.6c0.2,0.8,1.8,1.6,0.2,2.4c-1.4,0.7-1.9-0.6-2.3-1.7
		c-1-2.9-2.1-5.5-4.9-7.3c-1.7-1.1-2.4-10.6-1.1-12.2c0.8-1,1.8-1.5,3.2-1.3c2.3,0.3,4.5,0.2,6.8,1c2.7,0.9,5.2-0.2,6.1-2.9
		c0.7-2,0-4.1-2.8-4.6c-1.5-0.3-0.8-1.5-0.1-1.8c2.7-1.2,4.4-3.8,7.3-4.8c2.4-0.8,3.6-4.6,1.9-5.5c-3.8-1.9-5.4-5.9-9-8.1
		c1.9-0.3,3.7-1.1,5.5,0.3c4,3.1,8.5,3,13.1,2.1c1-0.2,1.9-0.6,2.9-0.6c1,0,2.3-0.5,3,0.7c0.7,1.3-0.3,2-1.2,2.7
		c-0.4,0.3-0.6,0.8-0.1,1.6c3-1.5,6.3-1.7,9.6-1.6c0.4,0,0.9-0.3,1.2-0.7c0.4-0.5,0-1.1-0.5-1.1c-2.1-0.1-2.4-3-4.6-2.8
		c0.2-1.6,2-0.6,2.2-2.1c-2.4-1.2-5-4.2-5.9,1.5c-0.2,1.5-1.1,0.7-2-0.2c-1.8-1.7-3.9-2.3-6.5-2.5c-5.5-0.4-11.4,1.3-16.5-2.4
		c-0.4-2.8,0.6-3.9,3.6-3.8c4.8,0.2,9.6,0,14.4,0c6.2,0.5,11.1,3.9,16.1,7C81.1,13.5,82.3,14.4,83.6,15.4z M92.5,54
		c0.1,1-0.3,2.2,1.1,4.1C93.8,55.9,94.9,54.5,92.5,54c1.4-4.7-4-3.9-5.2-6.5c-0.3-0.6-1.5,0.3-2,1c-0.7,0.9-0.8,3-2.4,2.1
		c-1.4-0.8-1.1-2.8-0.2-4c1.3-1.8,0.2-2.8-0.6-4.2c-1.6-2.8-2.3-6.4-7-5.2c-0.7,0.2-1.5-1.1-1.8-2.1c-0.2-1.1-0.5-2.2-0.8-3.2
		c-1.3-4.2-5.6-7.1-10-6.9c-1.7,0.1-5.8,5.1-6.2,7.8c-0.2,1.2-0.5,2.6,0.6,3.5c2.2,2,3.6,5.1,7.3,5.2c1.4,0,2.8,0.6,1.6,2.9
		c-1.8,3.4,0.9,6.8,0.7,10.4c-0.1,1.3,2.4,0.4,3.6,0.8c0.7,0.2,1,0.7,1,1.4c0.4,3.8,2.4,1.8,3.8,1c2.8-1.7,0.6-3.4-0.5-5
		c7.4-1.2,7.7-0.9,8,6.2c0.1,1.6,0.8,2.9,2.7,2.6c1-0.2,2.1-0.6,2.6,0.5c0.7,1.6-1.2,1.4-1.8,2.2c-0.8,1-2.3,1.8-1.7,3.4
		c0.3,0.9,1.2,1.8,2.3,1.6c1.4-0.3,2.6-1.2,3.3-2.7c1.3-2.9,1.4-6,1.5-9.2C91.1,56.3,90.2,54.5,92.5,54z M84.3,36.3
		c0.2,2.3,1.2,4,2.3,5.9c1.2,2.1,2.8,1,4.2,0.8c2.2-0.4,0.3-1.7,0.3-2.5c0.1-1-0.3-2.1,0.4-2.8c2-2.1-0.1-3.3-1.1-4.6
		c-0.8-1.1-1.8-1.7-3.2-1C85.6,33.1,84.6,34.5,84.3,36.3z M56.4,47.9c1.8,0.4,3.5-0.3,4.1-2.3c0.2-0.9-5.8-5.7-6.9-5.4
		c-1.7,0.4-2.8,1.4-2.6,3.4C51.2,47,54,47.4,56.4,47.9z M78.1,68.9c1.2,0.2,1.9-0.8,1.8-2.7c-0.1-1.6,0.2-3.7-1.9-3.7
		c-1.7,0-3.7,1-3.9,3.1C73.9,67.8,75.3,68.7,78.1,68.9z M72.2,22.7c-0.8,0.1-2.2,0.1-1.7,1.2c0.7,1.6,1.6,3.4,3.6,3.7
		c0.9,0.1,2-0.9,1.8-1.9C75.4,24,74.1,22.9,72.2,22.7z M46,52.5c1.5,0,2.8,0,2.6-1.8c-0.2-1.5-1.3-1.9-2.6-1.9
		c-1.4,0-2.4,0.6-2.4,2.1C43.6,52.8,45.1,52.4,46,52.5z"/>
	<path class="st10" d="M45.7,9.4c5.1,3.6,11,1.9,16.5,2.4c2.6,0.2,4.7,0.8,6.5,2.5c0.8,0.8,1.7,1.6,2,0.2c0.9-5.7,3.5-2.7,5.9-1.5
		c-0.2,1.5-2,0.4-2.2,2.1c2.2-0.3,2.4,2.6,4.6,2.8c0.5,0,0.9,0.6,0.5,1.1c-0.3,0.3-0.8,0.7-1.2,0.7c-3.3-0.1-6.6,0.1-9.6,1.6
		c-0.5-0.8-0.3-1.2,0.1-1.6c0.9-0.7,1.9-1.4,1.2-2.7c-0.7-1.2-2-0.8-3-0.7c-1,0-1.9,0.4-2.9,0.6c-4.6,0.9-9.1,1-13.1-2.1
		c-1.8-1.4-3.6-0.6-5.5-0.3c3.6,2.2,5.3,6.2,9,8.1c1.8,0.9,0.6,4.7-1.9,5.5c-2.9,0.9-4.6,3.6-7.3,4.8c-0.7,0.3-1.4,1.6,0.1,1.8
		c2.8,0.5,3.5,2.5,2.8,4.6c-0.9,2.6-3.4,3.7-6.1,2.9c-2.3-0.7-4.5-0.7-6.8-1c-1.4-0.2-2.5,0.3-3.2,1.3c-1.3,1.6-0.6,11.1,1.1,12.2
		c2.7,1.8,3.9,4.5,4.9,7.3c0.4,1.1,0.9,2.3,2.3,1.7c1.6-0.8-0.1-1.6-0.2-2.4c-0.3-1.3-0.8-3.6,0.4-3.6c2.1,0,4.6,1.6,4.9,3.7
		c0.2,1.8,0.9,2.5,1.9,3.5c1,1,0.8,2.3,0.8,3.5c-0.1,0.8-0.5,1.7-0.4,2.5c0.4,2,2,4.2-0.9,5.3c-1.8,0.7-3.1,3-5.6,2
		c-1.5-0.5-2.7,1-3.8,1.9c-1.5,1.3-3,1.9-4.7,1.1c-1.7-0.8-0.8-2.6-0.9-4c-0.1-1.7,0-3.5-0.1-5.2c0-1-0.6-1.7-1.6-1.6
		c-1.2,0.1-1.4,0.9-1,1.9c0.5,1.3,0.6,2.7,0.3,4c-0.3,1-0.8,2.6-2.1,2c-2.6-1.2-4.5,0.2-6.6,1c0-0.5,0-1,0-1.5c1.8-1,1.8-2-0.1-3
		c-0.7-2.9-2-6,3.1-6.2c1,0,2.3-1.1,1.8-2.3c-0.6-1.8-2.3-2.2-4-1.8c-4.5,1-7.7-1.2-9.1-5.6c-1.5-4.7-2.9-9.2-3.3-14.2
		C8.5,41.2,11,38.2,10,34.7c1.1,1.1,2.1,2.1,2.2-0.7c0.3-4.5,3.9-9.1,8.1-10.5c0.7-0.2,1.3-0.1,1-1.3c-0.7-3.6,6.7-9.6,10.2-8.3
		c-2.4-0.3,0.1,2.8-2.4,3.1c-3.8,0.3-2.8,4.7-4.6,6.9c-0.7,0.9,0.9,1.1,1.7,1.1c3.1-0.1,3.7-3,4.4-5c0.8-2.2,1.3-3.6,4-2.5
		c1.1,0.4,2.5,0.5,2.9-1.3c0.8-1.1,4.6,0.2,2.6-3.4c-0.3-0.5,1-2.4,2.6-2.6c0.6,0,1.1-0.1,1.5-0.7C44.7,9.4,45.2,9.4,45.7,9.4z"/>
	<path class="st6" d="M20.4,74.8c1.9,1,1.8,2,0.1,3c-0.6,0.2-1.5,0.6-1.5-0.6C18.9,76.1,18.8,74.9,20.4,74.8z"/>
	<path class="st10" d="M10.2,58.9c-1.3-0.7-0.8-1.7-0.5-2.6C10.3,57,11.2,57.7,10.2,58.9z"/>
	<path class="st2" d="M24.2,88.2c-1.5,0-2.2-0.8-2.3-2.2C23.3,86.1,24.2,86.6,24.2,88.2z"/>
	<path class="st10" d="M20.4,79.9c0,0.5,0,1,0,1.6C19.6,81,19.7,80.5,20.4,79.9z"/>
	<path class="st0" d="M97.6,70.3c-0.1-0.3-0.3-0.6-0.3-0.8c0-0.1,0.5-0.3,0.5-0.3c0.2,0.2,0.3,0.5,0.5,0.7
		C98.1,70,97.9,70.1,97.6,70.3z"/>
	<path class="st11" d="M37.6,16.1c-0.3,1.8-1.8,1.8-2.9,1.3c-2.7-1.1-3.2,0.3-4,2.5c-0.7,2.1-1.3,4.9-4.4,5c-0.8,0-2.4-0.2-1.7-1.1
		c1.7-2.2,0.8-6.6,4.6-6.9c2.5-0.2,0-3.4,2.4-3.1C32.9,16.4,35.6,15.4,37.6,16.1z"/>
	<path class="st6" d="M44.2,9.4c-0.3,0.6-0.9,0.7-1.5,0.7C42.9,9.1,43.1,8.3,44.2,9.4z"/>
	<path class="st2" d="M86.6,18.2c-1.2-0.6-2-1.6-2.5-2.9c0.8,0,1.6,0,2.5,0.1C85.8,16.3,86.6,17.3,86.6,18.2z"/>
	<polygon class="st0" points="37.7,96 38,95.9 37.9,96.1 	"/>
	<path class="st10" d="M92.5,54c-2.3,0.5-1.4,2.3-1.4,3.6c-0.1,3.1-0.2,6.2-1.5,9.2c-0.7,1.5-1.8,2.3-3.3,2.7
		c-1.1,0.2-2-0.6-2.3-1.6c-0.5-1.6,1-2.3,1.7-3.4c0.6-0.8,2.5-0.6,1.8-2.2c-0.5-1.1-1.6-0.7-2.6-0.5c-1.9,0.3-2.7-1-2.7-2.6
		c-0.3-7.1-0.7-7.4-8-6.2c1.1,1.6,3.3,3.3,0.5,5c-1.4,0.9-3.4,2.8-3.8-1c-0.1-0.7-0.3-1.1-1-1.4c-1.2-0.4-3.7,0.5-3.6-0.8
		c0.2-3.6-2.6-7-0.7-10.4c1.2-2.3-0.1-2.9-1.6-2.9c-3.7-0.1-5-3.2-7.3-5.2c-1-0.9-0.7-2.3-0.6-3.5c0.4-2.7,4.5-7.7,6.2-7.8
		c4.4-0.2,8.7,2.7,10,6.9c0.3,1.1,0.6,2.1,0.8,3.2c0.2,1.1,1.1,2.3,1.8,2.1c4.6-1.2,5.4,2.4,7,5.2c0.8,1.4,1.9,2.4,0.6,4.2
		c-0.8,1.2-1.2,3.2,0.2,4c1.6,0.9,1.7-1.2,2.4-2.1c0.6-0.7,1.8-1.6,2-1C88.5,50.1,93.9,49.3,92.5,54L92.5,54z"/>
	<path class="st10" d="M84.3,36.3c0.3-1.8,1.3-3.3,3-4.2c1.4-0.8,2.4-0.1,3.2,1c1,1.4,3.1,2.5,1.1,4.6c-0.7,0.8-0.4,1.9-0.4,2.8
		c0,0.8,1.9,2.1-0.3,2.5c-1.4,0.2-3,1.3-4.2-0.8C85.5,40.4,84.5,38.6,84.3,36.3z"/>
	<path class="st1" d="M63.6,83c1.4,0,2.7,0.1,4.1,0c3.1-0.2,2.4,2,2.5,3.7c0.3,2.6-1.7,1.2-2.6,1.5c-4,1.1-7.1-1.2-10.3-2.9
		c-0.4-0.2-1-0.3-0.9-1c0.1-0.7,0.7-1.1,1.3-1.1C59.7,83,61.7,83.1,63.6,83C63.6,83,63.6,83,63.6,83z"/>
	<path class="st10" d="M56.4,47.9c-2.4-0.5-5.2-0.9-5.4-4.4c-0.2-2,1-3,2.6-3.4c1-0.3,7.1,4.5,6.9,5.4
		C59.9,47.6,58.1,48.3,56.4,47.9z"/>
	<path class="st10" d="M78.1,68.9c-2.8-0.2-4.3-1.1-4.1-3.2c0.2-2.1,2.2-3.2,3.9-3.1c2.1,0,1.9,2.1,1.9,3.7
		C80,68.2,79.3,69.1,78.1,68.9z"/>
	<path class="st4" d="M72.2,22.7c1.9,0.2,3.3,1.3,3.7,3c0.2,1-0.9,2-1.8,1.9c-2-0.3-2.9-2.1-3.6-3.7C70,22.9,71.4,22.9,72.2,22.7z"
		/>
	<path class="st10" d="M46,52.5c-0.9-0.1-2.4,0.3-2.4-1.6c0-1.5,1-2.1,2.4-2.1c1.3,0,2.5,0.3,2.6,1.9C48.8,52.5,47.5,52.5,46,52.5z"
		/>
	<path class="st10" d="M92.5,54c2.3,0.6,1.2,1.9,1,4.1C92.2,56.2,92.6,55.1,92.5,54C92.5,54,92.5,54,92.5,54z"/>
</g>
<g>
	<path class="st12" d="M90.8,126.5H15c-2.2,0-4-1.8-4-4v-23c0-2.2,1.8-4,4-4h75.8c2.2,0,4,1.8,4,4v23
		C94.8,124.7,93,126.5,90.8,126.5z"/>
	<g>
		<path class="st13" d="M31.9,113c-0.1-2-0.1-4.4-0.1-6.8h-0.1c-0.5,2.1-1.2,4.4-1.8,6.4l-2,6.4H25l-1.8-6.4
			c-0.5-1.9-1.1-4.3-1.5-6.4l0,0c-0.1,2.2-0.2,4.8-0.3,6.8l-0.3,6.3h-3.4l1.1-16.5h5l1.6,5.5c0.5,1.9,1,4,1.4,5.9h0.1
			c0.5-1.9,1-4.1,1.6-5.9l1.8-5.5h4.9l0.9,16.5h-3.6L31.9,113z"/>
		<path class="st13" d="M53.7,110.9c0,5.4-3.3,8.7-8.1,8.7c-4.9,0-7.7-3.7-7.7-8.4c0-4.9,3.2-8.6,8-8.6
			C51,102.6,53.7,106.3,53.7,110.9z M41.8,111.1c0,3.2,1.5,5.5,4,5.5s4-2.4,4-5.6c0-3-1.4-5.5-4-5.5
			C43.3,105.5,41.8,107.9,41.8,111.1z"/>
		<path class="st13" d="M71.2,110.9c0,5.4-3.3,8.7-8.1,8.7c-4.9,0-7.7-3.7-7.7-8.4c0-4.9,3.2-8.6,8-8.6
			C68.5,102.6,71.2,106.3,71.2,110.9z M59.3,111.1c0,3.2,1.5,5.5,4,5.5c2.5,0,4-2.4,4-5.6c0-3-1.4-5.5-4-5.5
			C60.8,105.5,59.3,107.9,59.3,111.1z"/>
		<path class="st13" d="M73.7,119.3v-16.5H78l3.4,6c1,1.7,2,3.8,2.7,5.6h0.1c-0.2-2.2-0.3-4.4-0.3-6.9v-4.8h3.4v16.5h-3.9l-3.5-6.4
			c-1-1.8-2.1-3.9-2.9-5.8h-0.1c0.1,2.2,0.1,4.5,0.1,7.2v5h-3.3V119.3z"/>
	</g>
</g>
</svg>
