<?xml version="1.0" encoding="utf-8"?>
<!-- Generator: Adobe Illustrator 25.0.0, SVG Export Plug-In . SVG Version: 6.00 Build 0)  -->
<svg version="1.1" id="Layer_1" xmlns="http://www.w3.org/2000/svg" xmlns:xlink="http://www.w3.org/1999/xlink" x="0px" y="0px"
	 width="105.5px" height="129px" viewBox="0 0 105.5 129" style="enable-background:new 0 0 105.5 129;" xml:space="preserve">
<style type="text/css">
	.st0{fill:#48A6DD;}
	.st1{fill:#FFFFFF;}
	.st2{fill:#231F20;}
	.st3{fill:#232323;}
	.st4{fill:#F5F5F5;}
	.st5{fill:#0F0F0F;}
	.st6{fill:#292929;}
	.st7{fill:#E1E1E1;}
	.st8{fill:#151515;}
	.st9{fill:#9A9A9A;}
	.st10{fill:#8E8E8E;}
	.st11{fill:#CACACA;}
	.st12{fill:#D8D8D8;}
	.st13{fill:#090909;}
	.st14{fill:#ADADAD;}
	.st15{fill:#EDEDED;}
	.st16{fill:#E5E5E5;}
	.st17{fill:#303030;}
	.st18{fill:#141414;}
	.st19{fill:#686868;}
	.st20{fill:#BBBBBB;}
	.st21{fill:#4D4D4D;}
	.st22{fill:#636363;}
	.st23{fill:#868686;}
	.st24{fill:#BCBCBC;}
	.st25{fill:#333333;}
	.st26{fill:#0C0C0C;}
	.st27{fill:#343434;}
	.st28{fill:#2A2A2A;}
	.st29{fill:#474747;}
	.st30{fill:#2B2B2B;}
	.st31{fill:#E7E7E7;}
	.st32{fill:#3A3A3A;}
	.st33{fill:#545454;}
	.st34{fill:#5F5F5F;}
	.st35{fill:#4E4E4E;}
	.st36{fill:#393939;}
	.st37{fill:#1F1F1F;}
	.st38{fill:#9F9F9F;}
	.st39{fill:#C3C3C3;}
	.st40{fill:#AFAFAF;}
	.st41{fill:#BFBFBF;}
	.st42{fill:#8F8F8F;}
	.st43{fill:#7B7B7B;}
	.st44{fill:#858585;}
	.st45{fill:#777777;}
	.st46{fill:#808080;}
	.st47{fill:#6E6E6E;}
	.st48{fill:#9B9B9B;}
	.st49{fill:#919191;}
	.st50{fill:#CDCDCD;}
	.st51{fill:#F1F1F1;}
	.st52{fill:#DCDCDC;}
	.st53{fill:#363636;}
	.st54{fill:#484848;}
	.st55{fill:#4C4C4C;}
	.st56{fill:#5E5E5E;}
	.st57{fill:#494949;}
	.st58{fill:#3E3E3E;}
	.st59{fill:#525252;}
	.st60{fill:#5B5B5B;}
	.st61{fill:#B9B9B9;}
	.st62{fill:#D2D2D2;}
	.st63{fill:#606060;}
	.st64{fill:#666666;}
	.st65{fill:#717171;}
	.st66{fill:#6C6C6C;}
	.st67{fill:#9E9E9E;}
	.st68{fill:#B2B2B2;}
	.st69{fill:#7F7F7F;}
	.st70{fill:#A1A1A1;}
	.st71{fill:#ACACAC;}
	.st72{fill:#9C9C9C;}
	.st73{fill:#787878;}
	.st74{fill:#8D8D8D;}
	.st75{fill:#9D9D9D;}
	.st76{fill:#E2E2E2;}
	.st77{fill:#515151;}
	.st78{fill:#595959;}
	.st79{fill:#646464;}
	.st80{fill:#747474;}
	.st81{fill:#6D6D6D;}
	.st82{fill:#A6A6A6;}
</style>
<g>
	<path class="st0" d="M90.8,126.5H15c-2.2,0-4-1.8-4-4v-23c0-2.2,1.8-4,4-4h75.8c2.2,0,4,1.8,4,4v23C94.8,124.7,93,126.5,90.8,126.5
		z"/>
	<g>
		<path class="st1" d="M31.9,113c-0.1-2-0.1-4.4-0.1-6.8h-0.1c-0.5,2.1-1.2,4.4-1.8,6.4l-2,6.4H25l-1.8-6.4
			c-0.5-1.9-1.1-4.3-1.5-6.4l0,0c-0.1,2.2-0.2,4.8-0.3,6.8l-0.3,6.3h-3.4l1.1-16.5h5l1.6,5.5c0.5,1.9,1,4,1.4,5.9h0.1
			c0.5-1.9,1-4.1,1.6-5.9l1.8-5.5h4.9l0.9,16.5h-3.6L31.9,113z"/>
		<path class="st1" d="M53.7,110.9c0,5.4-3.3,8.7-8.1,8.7c-4.9,0-7.7-3.7-7.7-8.4c0-4.9,3.2-8.6,8-8.6
			C51,102.6,53.7,106.3,53.7,110.9z M41.8,111.1c0,3.2,1.5,5.5,4,5.5s4-2.4,4-5.6c0-3-1.4-5.5-4-5.5
			C43.3,105.5,41.8,107.9,41.8,111.1z"/>
		<path class="st1" d="M71.2,110.9c0,5.4-3.3,8.7-8.1,8.7c-4.9,0-7.7-3.7-7.7-8.4c0-4.9,3.2-8.6,8-8.6
			C68.5,102.6,71.2,106.3,71.2,110.9z M59.3,111.1c0,3.2,1.5,5.5,4,5.5c2.5,0,4-2.4,4-5.6c0-3-1.4-5.5-4-5.5
			C60.8,105.5,59.3,107.9,59.3,111.1z"/>
		<path class="st1" d="M73.7,119.3v-16.5H78l3.4,6c1,1.7,2,3.8,2.7,5.6h0.1c-0.2-2.2-0.3-4.4-0.3-6.9v-4.8h3.4v16.5h-3.9l-3.5-6.4
			c-1-1.8-2.1-3.9-2.9-5.8h-0.1c0.1,2.2,0.1,4.5,0.1,7.2v5h-3.3C73.7,119.2,73.7,119.3,73.7,119.3z"/>
	</g>
</g>
<circle class="st2" cx="53" cy="52.3" r="51.2"/>
<g>
	<path class="st3" d="M32.7,39.8c0,0.1,0,0.3,0,0.4c0.3,0.6,1,0,1.3,0.5c0,0.3,0,0.6,0,0.9c-0.2,0.6-0.7,1.1-0.9,1.8
		c-1.1,4.6-1.2,9.4-1.8,14.1c-0.1,0.8,0,1.4,0.7,1.9c0.2,0.4,0.3,0.8,0.2,1.3c-0.1,0.4-0.3,0.8-0.7,1.1c-2.6,0.3-3-0.1-2.3-2.5
		c0.5-1.7,0.2-3.5,0.3-5.2c0-2.1-0.1-4.2,0.3-6.3c0.1-0.6-0.5-0.4-0.7-0.5c-1-0.6-1.4-1.5-0.7-2.4c1.1-1.5,1-3.1,0.9-4.8
		c0.9-2.5,0.7-5.1,1.3-7.6c1.1-1.2,1.3-2.8,1.4-4.3c0.2-2.2,0.5-4.4,0.6-6.6c0.2-1.2-0.4-2.5,1-3.3c0.2-0.1,0.4-0.1,0.7,0
		c0.5,0.5,1,1.4,1.5,0c0.1-0.4,0.6-0.3,0.9-0.1c0.7,0.7,0.4,1.5,0.1,2.3c-1.7,5-3.1,10-3.2,15.3C33.5,37,33.2,38.4,32.7,39.8z"/>
	<path class="st4" d="M3.3,63.3c-1.9-6.5-1.8-13.1-0.7-19.7c0.6-3.5,1.4-6.9,3-10.1C7,33.7,7.1,35,6.7,35.8C6.1,37.2,6,38.7,5.4,40
		c-0.4,0.7-0.6,1.3,0,2c0.7,0.8,0.7,1.8,0.8,2.7c-0.1,1.3,0,2.7-1,3.7c-0.5,0.5-0.3,0.9,0,1.3c0.4,0.6,0.4,1.3,0.3,1.9
		c-0.3,1.3-0.9,1.5-1.7,0.5c-0.9,1.9-0.1,4,0.6,5.6c0.6,1.5-0.2,2.8,0.5,4.2c0.4,0.8-1,0.7-1.1,1.4C3.6,63.5,3.4,63.5,3.3,63.3z"/>
	<path class="st5" d="M32.7,39.8c-0.1-0.1-0.3-0.2-0.3-0.3c0.7-3.3,0.1-6.7,1.2-10c0.8-2.5,1.2-5.2,1.8-7.9c0.3-1.2,1.9-2.1,0.8-3.6
		c0.5-1.8,1.7-2.6,3.6-2.7c0,0.6,0.4,0.9,0.6,1.4c0.3,0.6,0.9,1.7-0.7,1c-0.4-0.1-0.5,0-0.6,0.4c-0.8,2-2.3,3.6-2.5,6
		c-0.3,3.2-1,6.5-2.1,9.6c-0.5,1.7-0.1,3.3-0.5,4.9C33.8,39.4,33.6,39.8,32.7,39.8z"/>
	<path class="st6" d="M35.8,82.9c-0.2,0.9,0.5,1.5,0.9,2.2c0.3,1-0.5,2.7,0.4,3.1c1.8,0.7,1,3.3,3.1,3.6c0.7,0.1-0.1,1.2,0.4,1.8
		c1,1.2,2.4,2.2,0.9,4c0,0.4-0.1,0.8-0.5,1c-0.2,0-0.4,0-0.6-0.1c-0.6-0.4-1.2-0.7-1.6-1.4c-0.1-0.2-0.2-0.4-0.2-0.6
		c-0.5-1.8-2.2-3.1-2.2-5.2c0-0.6-1.1,0.1-1.5-0.5c-0.8-1-1.2-2.7-3-2.5c-0.2-0.3-0.2-0.6-0.2-0.9c0.4-1,1.3-1.9,0.3-3.1
		c-0.5-0.7-1.1-1.3-0.4-2.2c0.5-0.5,1.1-1.2,1.7-0.1c0.4,0.7,0.9,0.6,1.4,0.5C35.2,82.6,35.5,82.7,35.8,82.9z"/>
	<path class="st7" d="M6,44.7c-0.7-0.8-0.3-2.2-1.5-2.8c-0.4-0.2-0.3-0.9,0-1.2c1.2-1.3,0.5-3.2,1.7-4.6c0.7-0.8,0.2-1.8-0.6-2.5
		c1.9-5.8,5.4-10.7,9.3-15.3c0.5,0.2,0.7,0.5,0.8,1c0,0.8-0.5,1.4-0.8,2c-0.8,1.6-2,3-3.1,4.3c-0.6,1.2-1.6,2-2.3,3.1
		c-0.6,0.7-0.7,1.6-0.8,2.4c0,0.2-0.1,0.4-0.2,0.6c-0.5,1.6-0.9,3.2-1.2,4.9c-0.9,2.6-0.7,5.3-0.7,8C6.3,44.8,6.2,44.8,6,44.7z"/>
	<path class="st8" d="M35.8,82.9c-0.3,0-0.6,0-0.9,0c-1.4-0.9-1.2-2.4-1.5-3.7c-0.6-1.6-1.2-3.3-1.5-5c-0.4-1.8-1.2-3.3-1.9-4.9
		c-0.6-1.3,0.2-2.6,0.7-3.8c0.6-1.4,0.7-2.6,0.6-4c0.1-0.3,0.3-0.6,0.4-0.9c0.7-0.8,1.3-1,1.5,0.3c0.1,0.6,0.2,1.3-0.2,1.9l0,0
		c-0.2,2.9,0.6,5.7,1.1,8.4c0.3,1.7,0.1,3.4,0.4,5.1c0.2,0.9,0.2,1.8,0.8,2.5C35.9,80.2,36.7,81.5,35.8,82.9z"/>
	<path class="st9" d="M35.8,100.4c-2.2-0.6-4.4-1.4-6.3-2.7c0-0.8-0.6-1-1.1-1.3c-1.5-0.9-2.7-2.2-3.3-3.8c-0.4-1-1.1-1.4-2-1.8
		c-0.6-0.7-1.6-1.2-1.3-2.4c1-0.4,2.1,0.4,3.1-0.2c0.6,0.1,1.1,0.5,1,0.9c-0.3,1.2,0.9,0.9,1.3,1.3c1.1,0.7,0.8,2.1,1.6,3
		c1.5,1.7,3.6,2.4,5.5,3.5c0.2,0.8,0.5,1.6,1.3,2C36,99.4,36.2,99.8,35.8,100.4z"/>
	<path class="st10" d="M33.6,5.1c1.6-1,3.5-1.5,5.3-1.9c1.8,1.5,1.8,2.3-0.2,3.2c-0.5,0.2-0.9,0.5-1.1,1c-1.3,1.1-2.2,2.8-4.2,2.8
		c-0.3,0-0.6,0.2-0.7,0.5c-0.7,2.2-2.9,2.5-4.6,3.3c-0.7,0.1-1.3,0.1-1.9-0.3c-0.3-0.3-0.2-0.6,0.1-0.8c2-0.6,3.8-1.4,4.6-3.5
		c1-1.2,1.7-2.5,3-3.4C35.1,5,33.1,5.5,33.6,5.1z"/>
	<path class="st11" d="M22.4,93.2c-2.4-1.9-4.9-3.7-6.8-6.2c-0.1-1.2-0.3-2.2-1.4-3c-0.6-0.4-1.1-1.1-0.4-1.9
		c0.6-0.6,0.2-1.3,0.3-1.9c0.1-0.3,0.3-0.5,0.7-0.5c0.8,0.4,1.6,1.1,1.7,1.9c0.5,3.1,3.4,4.7,4.5,7.5c0.5,1.2,2,2.1,2.4,3.5
		c0,0.2-0.1,0.4-0.2,0.6C23,93.4,22.7,93.4,22.4,93.2z"/>
	<path class="st12" d="M14.4,80.3c0,0.8,1.4,1.6-0.3,2.3c-0.4,0.2,0.3,0.8,0.6,1.3c0.5,0.9,2.3,1.6,0.9,3.1
		c-1.7-1.6-3.3-3.3-4.4-5.3c-0.6-1.4-0.5-3-0.9-4.4c-0.3-1.2,0.1-1.7,1.4-1.4c0.6,0.3,1.4,0.1,2,0.5C14.8,77.4,14,79,14.4,80.3z"/>
	<path class="st13" d="M33.1,62.9c-0.5-0.7,1.1-2.7-1.3-2.2c0-0.4,0-0.9,0-1.3c0.3-4-0.3-8,0.9-11.9c0.4-1.4,0.2-3,0-4.5
		c0.3-0.6,0.4-1.3,1.3-1.3c0.4,0.1,0.9,0.1,0.7,0.6c-1,2.3-0.3,4.6-0.6,6.9c-0.6,3.9,0.1,7.8-0.5,11.7
		C33.5,61.5,33.8,62.3,33.1,62.9z"/>
	<path class="st14" d="M33.6,5.1C34.7,5,35,5.6,34.2,6.3c-1.2,0.9-1.8,2.3-2.9,3.2c-1.5,1.8-3.3,2.2-5.4,1.5
		c-0.7-0.7-0.5-1.2,0.2-1.7c0.4-0.3,1.1-0.3,1.1-1.1C29.2,6.7,31.3,5.8,33.6,5.1z"/>
	<path class="st15" d="M3.3,63.3c0.2,0,0.3,0,0.5,0c1.7,0.5,1.9,2,2.4,3.4c0.1,0.2,0.1,0.4,0.1,0.6C6,68,6.6,68.1,7,68.3
		c0.2,0.3,0.3,0.7,0.3,1c-0.1,0.9,0.7,0.4,1,0.7c0.2,0.1,0.4,0.1,0.5,0.2c0.4,0.2,0.7,0.5,0.8,0.9c0,0.2-0.1,0.4-0.2,0.6
		c0,0.5-1.4-0.1-0.7,1.1C9.3,73.7,9,75,9.7,76.1c0.3,0.5,0.1,1.5-1,1.5C6,73.2,4.3,68.4,3.3,63.3z"/>
	<path class="st3" d="M39.8,15.3c-1.5,0.4-2.4,1.7-3.6,2.7c-0.4,0.8-0.8,1.6-1.2,2.5c-1.2-0.5-0.6-1.3-0.5-2
		c-0.1-0.8,0.6-1.3,0.7-2.1c0.4-0.7,0.9-1.3,1.4-1.8c0.6-0.5,1.3-0.9,1.2-1.9c-0.1-1.4,1.2-1.9,1.8-2.9c0.6-0.4,1-1.3,2-1.1
		c0.1,1.5,0,3.1-1.1,4.1C39.7,13.6,40.7,14.7,39.8,15.3z"/>
	<path class="st16" d="M8.7,77.6c0.5-0.6,1.3-1.2,0.2-1.9c-0.7-0.4-0.7-1-0.4-1.7c0.1-0.2,0.2-0.6,0.1-0.8c-0.4-1.3-0.3-1.4,1-1.7
		c0.7-0.1,1.4-0.2,2.1-0.2c0.2,0.1,0.3,0.2,0.4,0.4c0.1,0.4,0.1,0.8-0.2,1.2c-1.5,1.1,0.4,2.3-0.1,3.5c-0.8-0.3-1.6-0.1-1,0.7
		c1.1,1.4-0.1,3.1,0.8,4.4c0,0-0.2,0.2-0.3,0.3C10.3,80.3,9.5,78.9,8.7,77.6z"/>
	<path class="st17" d="M41.6,8.6C41,9.1,40.4,9.5,39.8,10c-0.2-0.1-0.3-0.3-0.4-0.5c-0.2-1.1-0.2-1.9,1-2.6c1.1-0.6,1.7-1.8,2.4-2.8
		c1.5-0.4,2.6-1.5,3.6-2.5c0.4,0,0.9,0,1.3-0.1c0.5-0.1,1.3-0.3,1.3,0.2c0.1,0.6-0.4,1.8-0.7,1.8c-3.3,0.4-4.2,3.7-6.6,5.2
		C41.8,8.6,41.7,8.6,41.6,8.6z"/>
	<path class="st13" d="M35.3,78.9c-1.6-0.3-0.9-1.8-1-2.6c-0.4-3.8-1.7-7.5-1.7-11.4c0-0.7-0.2-1.5,0.4-2.1c0.8,0.6,1.1,1.2,0.9,2.3
		c-0.2,1.6-0.2,3.2,1,4.6c0.7,0.7,0.3,1.8,0.1,2.5C34.7,74.6,35.1,76.7,35.3,78.9z"/>
	<path class="st18" d="M40.7,93.6c-0.8,0.3,0.1-2.9-1.5-0.8c-0.6-0.6-1.2-1.5-1-2c0.4-1.1,0.2-0.9-0.8-1.4c-1.4-0.7-1.8-2.6-0.6-4.3
		c0.8,1.3,1.9,2.5,2.7,3.8C40.3,90.1,41.4,91.8,40.7,93.6z"/>
	<path class="st14" d="M23.3,93.2c0-0.1,0-0.3,0-0.4c-0.2-0.4-0.3-0.9-0.5-1.3c-0.2-0.4-0.3-1,0.5-0.9c0.9,0.4,1.7,0.6,2.2,1.8
		c0.7,1.8,2,3.3,4,4c1.1,0.4,0.6,0.9-0.1,1.3C27.8,97,26.3,96.2,25,95C24.8,94.1,23.7,93.9,23.3,93.2z"/>
	<path class="st11" d="M15.3,19.3c-0.2-0.3-0.3-0.7-0.5-1c2.3-2.6,4.7-5,7.6-7c0.4-0.3,0.9-0.4,1.2-0.1c0.4,0.4,0,0.8-0.2,1.1
		c-0.6,0.7-1.4,1.2-1.9,2c-0.2,0.2-0.4,0.5-0.7,0.6c-0.8,0.4-1.6,0.7-2,1.5c-0.1,0.1-0.3,0.3-0.5,0.4C17.4,17.8,17.1,19.5,15.3,19.3
		z"/>
	<path class="st19" d="M37.1,7.3c0-0.7,0.1-1.4,1-1.4c2.9-0.1,1.5-1.5,0.8-2.7c1.1-0.7,2.3-0.8,3.6-0.9c0.6,0.7,0.2,1.3-0.1,1.9
		c-1.3,1.4-2,3.3-4.2,3.7C37.7,7.9,37.4,7.6,37.1,7.3z"/>
	<path class="st20" d="M21.1,14.4c0-1.3,1.2-1.6,1.9-2.3c1-1,0-0.7-0.5-0.8c1.4-1.3,3.1-2.3,4.8-3.1c0.7,0.2,1.3,0.3,0.2,0.9
		c-0.7,0.4-2.1,0.2-1.5,1.7c-0.1,0.8-0.8,1.2-1.3,1.7C23.6,13.4,22.8,14.8,21.1,14.4z"/>
	<path class="st21" d="M42,4.2c0.1-0.6,0.3-1.3,0.4-1.9c1.2-0.7,2.7-0.2,4-0.7c-0.6,1.6-1.4,3-3.5,2.6C42.2,4.8,42.2,4.8,42,4.2z"/>
	<path class="st17" d="M44.3,99.8c-0.5,0.7,0,1.7-0.9,2.3c-0.2-0.1-0.3-0.2-0.5-0.4c-0.7-1.2-2.4-1.5-2.7-3c0,0,0.1-0.1,0.1-0.2
		c0.1-0.1,0.2-0.1,0.4,0c0.2,0,0.3,0,0.5,0c0.3-0.2,0.9-0.3,0.9-0.9C43.8,97.3,43.7,98.9,44.3,99.8z"/>
	<path class="st22" d="M43.3,101.6c0,0.1,0,0.3,0.1,0.4c0,0.1-0.1,0.2,0,0.4c-1.7-0.4-3.3-0.8-5-1.2c0.1-0.6,1.2-0.1,1-0.9
		C40.9,99.9,42,101.2,43.3,101.6z"/>
	<path class="st23" d="M39.3,100.6c0,0.5,0,0.5-1,0.6c-0.9-0.1-1.8-0.3-2.6-0.9c-0.1-0.5-0.3-0.9-0.4-1.4c0.2-0.2,0.5-0.3,0.8-0.2
		c0.4,0.2,0.7,0.5,1.2,0.7c0.3,0.2,0.6,0.3,0.9,0.5C38.6,100.2,39,100.3,39.3,100.6z"/>
	<path class="st24" d="M23.3,93.2c0.7,0.3,1.5,0.5,2.1,1c0.8,0.7-0.1,0.7-0.5,0.8c-1.1-0.3-1.7-1.2-2.6-1.8
		C22.7,93.2,23,93.2,23.3,93.2z"/>
	<path class="st25" d="M47.3,101.6c-0.1,0.4-0.3,0.9-0.4,1.3c-0.4-0.1-0.9,0.4-1.3,0C45.9,102.2,46.3,101.4,47.3,101.6z"/>
	<path class="st26" d="M42,97.6c0.3,0.4,0.5,0.8,1,1.5c-0.8-0.3-1.3-0.5-1.8-0.6c0-0.4,0-0.7,0.4-0.9C41.7,97.6,41.9,97.6,42,97.6z"
		/>
	<path class="st5" d="M34,40.7c-0.4-0.2-1.3,0.8-1.3-0.5c0.5,0,1,0,1.5,0c0.2,0,0.4,0.1,0.2,0.3C34.3,40.6,34.1,40.6,34,40.7z"/>
	<path class="st6" d="M31.3,61.6c0.9,1.2,1,2.3,0,3.7c-1.9,2.7-1.3,4.8,1.4,6.5c-0.6,0.7-1.4,1.2-0.5,2.4c0.9,1.3,1.2,3.1,1.7,4.7
		c-0.3,0.3-0.7,0.4-0.9,0.1c-0.9-1-0.2,0.5-0.5,0.3c-0.3,0.7-0.7,0.7-1.2,0.1c-0.8-1.1-1.8-1.9-2.9-2.7c-0.7-0.6-0.8-1.3-0.7-2.2
		c0.2-1.3,0.1-2.5-0.1-3.7c-0.4-0.6-0.7-1.3-0.3-2c0.8-1.2-0.5-2.4,0-3.6c1.1-3,0-6.1,0.3-9.1c0.3-2.8,0.3-5.6,0.7-8.4
		c0.1-0.4,0.3-0.7,0.6-0.8c0.5-0.1,1-0.2,1.5-0.3c-0.5,2.3-0.6,4.5-0.7,6.7c-0.1,2.2,0.6,4.4-0.5,6.7C28.5,61.8,30.7,61,31.3,61.6z"
		/>
	<path class="st27" d="M29.1,46.9c-0.2,2-0.4,3.9-0.2,5.9c0.1,1.5-0.6,3.3-0.5,5c0.1,1.3,0,2.6,0.4,3.9c0.5,1.5-1,2.6-0.9,4.1
		c0.1,1.1,1.6,2.3,0,3.3c-0.3-0.2-0.5-0.4-0.6-0.7c-1.3-2.2-1.1-4.4-1.1-6.9c0-2.4-0.1-4.6,0.4-6.9c0.2-0.8-0.5-1.5-0.4-2.4
		c-0.1-1.4,1-2.4,1.2-3.7c0.3-1.8,0-3.6-0.7-5.4c-0.1-0.5-0.1-0.9,0-1.4c0.4-0.9,0.1-2.3,1.5-2.5c0.7-0.1,1.2,0.3,1.5,0.8
		c0.4,1.6,0.7,3.2-0.7,4.5C27.9,45.5,28.4,46.2,29.1,46.9z"/>
	<path class="st8" d="M32.7,42.9c1,1.9,0.5,3.7,0.3,5.7c-0.2,2.1-1.2,4.2-0.3,6.4c0.6,1.5-0.1,3-0.8,4.4c-0.9,0.5-1.6,0.2-1.3-0.8
		c0.9-2.3,0.1-4.7,1-7c0.4-1.1-0.8-2.4,0.1-3.7C32.6,46.4,32.1,44.5,32.7,42.9z"/>
	<path class="st28" d="M33.1,21.5c-0.5,3.4-0.3,6.8-1.3,10.1c-0.3,0.8-0.6,1-1.4,1c-0.1-0.1-0.1-0.2-0.2-0.3
		c-0.6-3.7,0.2-7.2,1.7-10.6C32.2,21.4,32.6,21.1,33.1,21.5z"/>
	<path class="st29" d="M33.1,21.5c-0.4,0-0.7,0.1-0.9,0.5c-0.6,1.1-0.8,2.6-2.6,2.4c-1.2-0.5-1.8-1.2-0.3-2c0.5-0.2,0.6-0.4,0.7-0.8
		c0.3-1.5,0.4-1.4,2.1-2c0.3-0.1-0.2-0.6-0.3-0.9c-0.2-0.4-0.4-0.7-0.2-1.2c0.9-0.1,1.8-0.9,2.8-0.4c0.1,0.6-0.2,1-0.6,1.3
		C32.3,19.1,33.4,20.5,33.1,21.5z"/>
	<path class="st30" d="M29.6,40.2c-0.4-0.1-0.9-0.3-1.3-0.4c-0.2-0.2-0.2-0.4-0.2-0.7c0.5-1.6,0.8-3.3,1-4.9c0.1-0.8,0-1.9,1.4-1.5
		c0,0,0,0,0,0C31.1,35.3,30.4,37.7,29.6,40.2z"/>
	<path class="st5" d="M33.9,18.4c0.2-0.4,0.3-0.9,0.5-1.3c0.1-0.3,0.2-0.4,0.4-0.6c0.2,0,0.3,0,0.4,0.1c0.3,0.9-0.5,1.3-0.9,1.8
		C34.3,18.4,34.1,18.4,33.9,18.4z"/>
	<path class="st31" d="M6,66.9c-0.7-1.2-1.5-2.4-2.2-3.6c0.8-2.5,0.6-5-0.5-7.2C2.4,54.3,3.7,52.6,3,51c0-0.1,0.3-0.3,0.4-0.4
		C3.7,50.5,4,50.7,4.1,51c0.1,0.5,0.2,1,0.3,1.6c0.9-1.7,1-1.8-0.2-2.7C3.7,49.5,3.7,49,4,48.8C5.8,48,5.3,46,6,44.7
		c0.2,0,0.3,0,0.5,0c1,0,0.9,0.8,1.1,1.4c0.8,2.4,1.6,4.9,0.6,7.5c-0.2,0.5,0,1,0.3,1.4c0.3,0.5,0.6,1,0.6,1.6
		c-0.1,0.8-0.3,1.6-1.3,1c-1.3-0.7-1,0.4-1.2,1c-0.8,1.3-1.1,3.1-0.1,4.1c0.9,0.9,0.9,1.8,1.2,2.7C8.1,67.2,8.1,67.2,6,66.9z"/>
	<path class="st32" d="M28.2,70.5c0.7,0.5,0.2,1.2,0.1,1.6c-0.8,3.5,1.9,5.2,3.6,7.3c0,0,0.2,0,0.2-0.1c0.1-0.1,0.1-0.3,0.1-0.4
		c1.2,0.2,0.9,1.1,0.7,1.8c-0.2,0.6-0.5,1.2-0.7,1.8c-1,0.9,0.4,1.2,0.4,1.8c-1.8,0.9-2.3-0.6-2.6-1.6c-0.3-0.9-0.8-1.5-1.4-2.1
		c-1.2-1.5-2.4-3-2.5-5c0-0.6-0.2-1.2-0.7-1.5c-1.1-0.7-0.9-1.7-0.6-2.7c0-0.3,0.1-0.6,0.1-0.9c0.1-0.7,0.2-1.6,1.1-1.7
		c0.7-0.1,0.9,0.6,1.1,1.2C27.3,70.4,27.8,70.5,28.2,70.5z"/>
	<path class="st33" d="M32.3,88.2c0.2-0.5,1.6,1.5,1.2-0.6c-0.1-0.4,0.7,0.1,0.8,0.4c0.2,0.9,0.5,1.7,1,2.4c0.3,2.7,2,4.6,4,6.3
		c0,0.1,0,0.3,0,0.4c-0.2,0.5-0.4,0.9-1,1.1c-0.9,0.1-1.9,0-2.7-0.6c-0.3-0.7-0.5-1.5-1.2-1.8c-3.2-1.4-3.7-4.1-3.4-7.2
		c0.1-0.3,0.3-0.6,0.7-0.7C31.9,88,32.1,88.1,32.3,88.2z"/>
	<path class="st34" d="M32.3,88.2c-0.2,0-0.3,0-0.5,0c-0.6-0.4-1.1,0.2-1.6,0.2c-0.2,0-0.4,0-0.6-0.1c-1.1-0.9-1.8-2.3-3.3-2.7
		c-0.3-0.3-0.7-0.7-0.5-0.9c1-1.2-0.1-2.5,0.1-3.7c0.2-0.3,0.4-0.6,0.6-0.9c1-1.4,1.6-0.8,2,0.4c0.1,1.3,1.1,2.3,1,3.7
		c2.2-0.1,1.8,2.2,2.8,3.2C32.2,87.7,32.3,88,32.3,88.2z"/>
	<path class="st35" d="M32.2,87.4c-0.3-0.4-1.3,0.1-1.1-1c0.1-0.6-0.5-1.5-1-1.8c-1-0.6-2.1-2.5-1.9-3.8c0-0.8,0.4-0.7,0.9-0.5
		l1.1,1.9c0.6,0.9,0.9,2.2,2.4,2.1C34,85.5,33.4,86.5,32.2,87.4z"/>
	<path class="st36" d="M39.3,96.8c-2.7-0.6-4.8-3.9-4-6.3c1.1,0.4,1.8,0.7,2.1,2.2C37.6,94.1,39.1,95.2,39.3,96.8z"/>
	<path class="st29" d="M38.4,98.1c0.3-0.3,0.6-0.6,0.9-0.9c0.3,0.6,1.5,0.3,1.4,1.3c0.1,1.2,1.2,1.5,2,2c0.5,0.3,0.7,0.7,0.7,1.2
		c-1.5,0.4-2.6-1.1-4-1c-0.5,0.1-1,0.1-1.3-0.4C38.9,99.7,37.7,98.7,38.4,98.1z"/>
	<path class="st37" d="M32.2,82.5c-0.5-1.2,1.1-2.4,0-3.6c0.6-1.5,1.2,0.6,1.8,0c0,1.4,0.4,2.7,0.9,4c-0.7,0.7-1.5,1.3-1.7-0.2
		C33,81.4,32.6,82.2,32.2,82.5z"/>
	<path class="st38" d="M11.3,25.5c1-1.5,2.1-2.9,3.1-4.4c0.7-0.7,1.3-1.6,2.3-0.5c-0.7,1.7-0.8,3.5-0.7,5.3c-0.2,0.5-0.6,0.8-1,1.2
		c-0.7,0.5-0.5,1.3-0.8,1.9c-0.4,0.9-0.7,2.1-2.2,1.6C12.4,28.8,10.6,27.3,11.3,25.5z"/>
	<path class="st39" d="M8.2,55.4c-0.8-0.4-1.1-1.1-0.8-1.9c1.4-3.2-0.1-6-1-8.9c-0.8-2.7-0.7-5.4,0.4-8c0.1,0,0.2,0.1,0.3,0.1
		c0.6,0.5,1.1,1,0.9,1.8c-1,2.2,0.7,4.1,0.7,6.2c0,3.4,1.1,6.8-0.3,10.1C8.5,55.1,8.3,55.2,8.2,55.4z"/>
	<path class="st40" d="M11.3,25.5c0,0.4-0.1,0.9,0.1,1c1.8,1.2,0.8,2.8,0.8,4.3c0,0.1-0.1,0.2-0.1,0.2c-0.6,0.3-0.8,1.4-1.8,1.1
		c-0.5-0.5-0.9-0.2-1.4,0c-0.8,0.2-1.1-0.1-0.7-0.9l0,0c0.6-0.8,0.3-1.9,0.9-2.7C9.3,27.2,10.7,26.6,11.3,25.5z"/>
	<path class="st41" d="M8.2,31.3c0.3,1.3,0.8,0.2,1.2,0.1c1-0.5,1.1,0.1,1.1,0.8c0.1,0.1,0.1,0.2,0.1,0.3c0,0.1,0,0.2,0,0.2
		c-0.3,0.4-0.8,0.7-1.1,1.2c-0.2,0.4-0.4,0.8-0.7,1.2c-0.6,0.6-0.9,1.6-1.9,1.6c0,0-0.1,0-0.1,0C6.9,34.8,7.2,32.9,8.2,31.3z"/>
	<path class="st20" d="M16.6,20.6c-0.9-0.4-1.5,0.4-2.2,0.5c-0.1-0.8,0.6-1.2,0.9-1.8c0.7-0.7,2-0.9,1.9-2.3c0-0.7,0.7-0.6,1.2-0.3
		c0,1.4-0.5,2.5-1.3,3.6C17,20.4,16.8,20.5,16.6,20.6z"/>
	<path class="st41" d="M9,28.6c0.1,1,0,2-0.9,2.7C8.2,30.3,7.9,29.2,9,28.6z"/>
	<path class="st42" d="M25.1,88.3c-1,1.4-2.1,0.7-3.2,0c-0.4,0-0.6-0.2-0.6-0.5c0.2-1.3,1.5-2.6,0-3.9c-0.2-0.1-0.2-0.5-0.1-0.6
		c2.2-2.4-0.7-3.3-1.3-4.9c-0.4-0.5-0.8-1-1-1.6c-0.2-0.6,0.7-1.7-0.9-1.7c-0.3,0-0.5-0.8-0.6-1.3c0.1-1.3,0-2.4-1.3-3.1
		c-0.3-0.2-0.3-0.6-0.2-1c0.6-1,1.5-1.6,2.5-0.6c1,0.9,3.4,1,2.6,3.2c-0.5,1.3-0.2,2.4,0.2,3.6c0.2,0.7,0.6,1.1,1.1,1.6
		c0.1,0.1,0.2,0.3,0.4,0.5c0.9,1.5,2.3,2.9,1.7,5c0.2,1.2,0.1,2.4,1.4,3.4C27,87.1,26.9,88.2,25.1,88.3z"/>
	<path class="st24" d="M21.5,87.8c0.1,0.2,0.3,0.3,0.4,0.5c0,1,1,1.4,1.4,2.2c-1,0.7,0.9,1.5,0,2.2c-1-1.8-2.6-3.1-3.8-4.9
		c-1.6-2.6-3.2-5.3-4.7-8c-0.2-0.7,0.2-0.9,0.8-1.1c0.5,0.1,0.9,0.3,1.2,0.8c0,0.5,0.3,0.9,0.8,1.1c0.7,1.5,1.8,2.7,2.6,4.2
		C20.8,85.7,21.3,86.7,21.5,87.8z"/>
	<path class="st43" d="M34.4,97.2c-3-1-6-2-6.8-5.6c-0.1-0.4-0.5-0.7-0.7-1.1c-0.4-0.6-0.2-1.1,0.4-1.4c2.1,0,2,1.9,2.8,3.1
		c1.6,1.4,2.8,3.1,4.5,4.4C34.6,96.8,34.6,97,34.4,97.2z"/>
	<path class="st44" d="M27.3,89.1c-0.2,0.4-0.3,0.9-0.5,1.3c-1.5,0-1.1-1.6-1.8-2.2c0.8-0.4,1.6-1.2,0.5-1.8c-1.8-1-1.4-2.5-1.4-4
		c1.7,0.3,1.1,2,1.8,2.9c0.2,0.3,0.6,0.5,0.9,0.6C28.8,87.1,28.8,87.6,27.3,89.1z"/>
	<path class="st45" d="M34.4,97.2c0-0.2,0-0.3,0-0.5c0.8-0.3,1.1,0.3,1.4,0.9c0.9,0.2,1.7,0.3,2.6,0.5c-0.1,0.7,1,1.7-0.4,2.2
		c-0.3-0.2-0.6-0.3-0.9-0.5c-0.2-0.4-0.3-0.8-0.9-0.9c-0.3,0-0.6,0-0.9,0C34.5,98.6,32.8,98.8,34.4,97.2z"/>
	<path class="st46" d="M14.9,26.9c0.3-0.3,0.6-0.6,0.9-0.9c1.8-0.7,3.1-1.4,2.8-3.9c-0.2-1.2,1.1-2.8,2.4-3.7
		c1.4-0.9,2.4-2.4,3.9-3.1c0.5-0.3,0.6-1,0.9-1.5c0.1-0.1,0.2-0.1,0.2-0.2c0.7,0,1.5,0,2.2,0c0.3,1.5,0.2,2.9-0.9,4
		c-0.2,0.1-0.3,0.3-0.5,0.4c-1.9,1-3.4,2.3-4.1,4.4c-0.3,1-0.7,2-1.3,2.8c-0.5,0.6-0.9,1.2,0.1,1.8c0.6,0.4,0.2,1.1-0.1,1.6
		c-0.5,0.7-1.1,1.4-1.7,2.4c1.1-0.7,2-0.8,2.7,0.2c0.7,1,0.1,1.7-0.5,2.4c-0.1,0.2-0.2,0.3-0.4,0.5c-0.5,0.3-1.1,0.5-0.3,1.2
		c-1.6,1.7-1.6,1.7-6.1,0.2c0.7,0.4,1.8,0.4,1.7,1.5c-0.1,1-1.2,1.1-2,1c-1.1-0.1-1.4,0.6-1.3,1.3c0.2,2.4-1.6,4.8,0.2,7.2
		c0.2,0.3-0.1,0.7-0.6,0.8c-2.6-0.4-2.7-0.7-2.2-3.1c0.3-1.6,0.8-3.2-0.2-4.9c-0.7-1.2,0.8-2.3,1.1-3.4c0.1-0.2,0.2-0.4,0.3-0.6
		c1.3-1.6,2.6-3.3,2.8-5.4c0-0.1,0.1-0.3,0.1-0.4c0.2-0.7,0.6-1.2,1-1.7C15.5,27.6,14.9,27.8,14.9,26.9z"/>
	<path class="st47" d="M26.9,17.5c1.2-1.1,0.6-2.8,1.3-4c1.4-1.1,3.8-1.1,4.1-3.6c0-0.2,0.5-0.6,0.6-0.6c2.2,1,2.8-1.5,4.3-2
		c0.4,0,0.7,0.1,0.9,0.4c-0.2,0.8-1.1,1-1.4,1.7c-0.3,0.5-0.5,1-1,1.5c-0.1,0.1-0.3,0.3-0.5,0.4c-1.5,0.9-2.8,2.3-4.7,2.8
		c-1,0.3-1.1,0.9-0.2,1.5c0.7,0.5,1.6,0.9,1,2c-0.2,0.2-0.5,0.3-0.7,0.5c-1.9,1.7-1.9,1.7-3.2-0.4C27.4,17.7,27,17.7,26.9,17.5z"/>
	<path class="st48" d="M16.7,20.2c0.6-1.2,1.2-2.4,1.8-3.6c0,0,0,0,0,0c0.5-0.9,1.4-1.2,2.2-1.8c0.1-0.2,0.3-0.3,0.4-0.5
		c1.4-0.4,2.4-1.5,3.6-2.2c0.6,0.3,1.6-0.3,1.8,0.9c-0.1,0.2-0.3,0.3-0.4,0.5c0,0,0,0,0,0c-2.5,1.7-4.8,3.5-6.9,5.7
		C18.4,19.8,17.9,20.8,16.7,20.2z"/>
	<path class="st49" d="M26.4,13.1c-0.3-0.9-1.8,0.6-1.8-0.9c0.3-0.6,0.7-1,1.4-1.3c1.9-0.1,3.7-0.1,5.3-1.3
		C30.5,11.7,28.9,13.1,26.4,13.1z"/>
	<path class="st50" d="M15.7,78.9c-0.3,0.3-0.6,0.6-0.9,0.9c-0.2,0.1-0.3,0.3-0.5,0.4c-1.2-1.1-0.3-2.7-0.9-4c0-0.1,0.1-0.2,0.1-0.2
		c0-0.4-0.3-0.6-0.5-0.9c-0.3-0.4-0.5-0.8-0.6-1.3c-0.4-0.8-0.5-1.6-0.8-2.4l0,0c-0.4-0.2-1.1-0.2-1.2-0.8c-0.1-0.9-0.4-1.3-1.5-1.2
		c-0.9,0-1.3-1.1-1.1-1.8c0.4-1-0.3-2-0.1-2.6c0.6-1.9-0.9-3-1.2-4.5C7,59.7,7.2,59,7.6,58.4c0.2-0.1,0.4-0.1,0.6,0
		c0.5-0.1,0,1.1,0.8,0.5c0.4-0.2,0.7,0,1,0.3c0.1,0.2,0.2,0.4,0.2,0.6c0.1,0.9-0.3,2,0.7,2.6c0.1,0.1,0.2,0.3,0.3,0.5
		c0.2,0.7,0.5,1.2,1,1.7c0.4,0.5,0.5,1.1,0.5,1.6c-0.3,3.1,1.2,5.4,3.4,7.4c0.1,0.2,0.2,0.4,0.3,0.6c0.1,0.3,0.1,0.6,0,0.9
		C15.7,76.2,16.3,77.7,15.7,78.9z"/>
	<path class="st51" d="M13.1,73.6c0,0.5-0.1,1,0.5,1.3c0.3,0.4,0.4,0.9,0,1.3c0,0,0,0,0,0c-0.6,0.2-1.2,0.8-1.8,0
		c-0.4-0.9-1.4-1.5-1.2-2.8c0.1-1,0.7-0.7,1.2-0.8C12.3,72.8,12.8,73,13.1,73.6z"/>
	<path class="st52" d="M6.8,60.3c0.7,1,1.4,2,2.1,3c-2.1,1.1,1.9,3.1-0.6,4.2c0,0,0.1,1.2,0.7,1.5c0.8,0.4,0.8-0.6,1.3-1
		c1,1,0.1,2.7,1.4,3.4c-0.7,0.3-1.5,0.8-2.2,0c0.5-1.1-0.7-0.4-0.9-0.9c-0.1,0-0.3,0-0.4,0C8,69.8,7.2,70,6.9,69.6
		c0-0.4,0-0.9,0-1.3c-0.1-0.4-1.3,0.1-0.9-0.9c0-0.1,0-0.3,0-0.4c0.5-0.1,1.1-0.3,1.9-0.5c-1.4-0.7-0.9-1.9-1-3
		c-0.7-0.1-0.3,1.2-1.3,0.8c1-1.8-1.3-3.9,0.4-5.8c0.2-0.1,0.4-0.1,0.6,0C6.9,59,6.9,59.6,6.8,60.3z"/>
	<path class="st16" d="M8.6,70.5c0.5-0.2,1-0.5,1.5-0.7c0.2,0.8-0.2,1.2-0.6,1.6C9.2,71.1,8.9,70.8,8.6,70.5z"/>
	<path class="st31" d="M6,67.3c0,0.6,1.1,0.1,0.9,0.9c-0.4,0-0.4,0.9-0.9,0.3C5.7,68.2,5.3,67.8,6,67.3z"/>
	<path class="st16" d="M6.9,69.6c0.6,0,1.3,0,1.3,0.9C8.2,69.6,6,71.8,6.9,69.6z"/>
	<path class="st53" d="M39.8,9.5c0,0.2,0,0.3,0,0.5c-0.1,1.2-2.3,1.7-1.3,3.5c0.2,0.5-1.1,1-1.8,1.4c-1-1.3-0.5-2.7-0.4-4.1
		c0.1-0.3,0,0.1,0.1-0.2C37.3,8.3,37.3,8.3,39.8,9.5z"/>
	<path class="st54" d="M36.2,10.9c1,1.2,0,2.7,0.4,4c-0.2,0.8-0.8,1.3-1.4,1.7c0,0-0.2,0-0.2,0l-0.2,0c-0.4-0.4-0.3-0.9-0.5-1.4
		c-0.8-1.4-0.1-3,1-4.3l0,0c0.2-0.2,0.5-0.3,0.7-0.2C36.1,10.7,36.2,10.8,36.2,10.9z"/>
	<path class="st52" d="M13.1,73.6c-0.4-0.3-0.9-0.6-1.3-0.9c0-0.4,0-0.9,0-1.3C12.2,72.1,12.6,72.8,13.1,73.6z"/>
	<path class="st55" d="M39.8,9.5c-0.8,0-1.7,0.2-2.4-0.5c-0.6,0.5,1.4,2.6-1.1,1.9c0,0,0,0,0,0c-0.7-0.6,0.5-1.2,0-1.8
		c0.3-0.8,1.2-0.9,1.8-1.3c2-0.4,2.5-2.6,4-3.6c0.3,0.5,0.6,0,0.9,0c0.1,1.6-1.2,2.7-2.1,3.1C39.6,7.9,39.8,8.6,39.8,9.5z"/>
	<path class="st20" d="M20.6,14.8c-0.4,1-1.3,1.4-2.2,1.8C18.6,15.3,19.4,14.8,20.6,14.8z"/>
	<path class="st56" d="M36.2,98.9c0.3-0.4,0.7-0.6,1-0.2c0.4,0.4-0.1,0.7-0.2,1.1C36.5,99.8,36.3,99.5,36.2,98.9z"/>
	<path class="st54" d="M28.2,70.5c-1.9,1.3-1-1.4-2.4-1.4c-0.5,0.2-0.3,0.8-0.3,1.4c-1.1,0-1.2-0.9-1.1-1.4c0.3-1-0.3-1.8-0.2-2.7
		c0-0.3,0.2-0.6,0.4-0.9c1.1-0.3,1.5,0.5,1.8,1.2c0.3,0.7,0.6,1.3,1.3,1.6c0,0.3,0,0.6,0,0.9C27.2,69.8,28,70.1,28.2,70.5z"/>
	<path class="st32" d="M29.7,72.2c-0.1,1.3,1.4,2.3,1.1,3.9C29.2,75,28.8,73.8,29.7,72.2z"/>
	<path class="st57" d="M26.9,43.3c1,2.3,1.8,4.6,0,6.9c-0.5,0.6,0.1,1.5-0.5,2c0.1,1.5-0.2,2.9-1.2,4.1c-0.7,0.9-0.8,2-0.3,3.1
		c0.7,1.6,0.7,3.3-0.3,4.9c-2.3,0.1-3.9-2.8-3-5.4c0.3-0.8,1-1.5,0.9-2.7c-0.3,0.7-0.7,1.2-1.2,1c-1-0.3-0.8-1.3-0.9-2.1
		c-0.1-1.2-0.3-2.4-0.2-3.5c0-0.4,0-1,0.5-1.2c0.6-0.2,0.8,0.4,1.1,0.9c0.4,0.6,0.4,1.4,1.3,2.1c-0.2-1.7,0.3-2.5,1.8-2.9
		c1.2-0.3,1.5-2.2,0.8-3.8c-0.3-0.7-0.6-1.5-0.8-2.2c-0.3-0.8-0.1-1.5,0.8-1.9C26.2,42.7,26.5,43,26.9,43.3z"/>
	<path class="st32" d="M24.7,64.2c0-1.9,0.5-3.9-0.7-5.7c-0.7-1,0.7-2.8,0.9-2.9c1.6-0.7,1-2.4,1.7-3.4c0.9,1.9,0.8,3.7-0.4,5.4
		c-0.4,0.5-0.2,0.9,0,1.2c1,1.6,1.1,3.2,0.4,4.9c-0.9,1.9,1.1,3,1.3,4.6c-1.1,0.1-1.9-0.1-1.8-1.5c0-0.8-0.5-1.1-1.3-1.2
		C24.3,65.1,24.3,64.7,24.7,64.2z"/>
	<path class="st58" d="M28.2,39.3c0,0.1,0,0.3,0,0.4c-1.5,0.1-0.4,1.8-1.3,2.2c-0.6-0.5-0.5-1.5-1-2c-0.1-0.2-0.1-0.4-0.1-0.6
		c0.1-2.3,0.1-4.4,1.2-6.6c0.7-1.5,0.3-3.5,0.9-5.1c0.3-1,0.2-2.4,1.8-2.5c0.2,2.7,1.3,5.3-0.3,8C28.3,35,28.2,37.2,28.2,39.3z"/>
	<path class="st29" d="M26,39.8c1.4,0.3,0.7,1.4,0.9,2.2c0,0.4,0,0.9,0,1.3c-0.4,0-0.7-0.1-0.9-0.4C25.9,41.8,25.2,40.8,26,39.8z"/>
	<path class="st27" d="M28.2,39.3c-0.6-0.1-1-0.4-0.8-1c0.8-1.8,0.1-3.9,1.7-5.5c1.6-1.6,0.2-3.5,0.4-5.3c0.1-0.8,0-1.6,0-2.4
		c0-0.2-0.1-0.4,0-0.7c0-0.1,0-0.1,0-0.2c1.4-0.1,1.6-1.8,2.7-2.2c0,0.7,0,1.5-0.4,2.1c-1.4,2.1-1.4,4.3-1,6.6
		c0.1,0.6-0.2,1.3-0.4,1.9c-1.1,0.2-0.8,1-0.9,1.7C29.3,36.1,29.5,37.9,28.2,39.3z"/>
	<path class="st22" d="M26.9,17.5c0.3,0.3,1.2-0.9,1.1,0.5c0,0.6,0.1,1.1,0.7,1.2c0.7,0.2,0.8-0.5,1-0.9c0.3-0.7,1-0.8,1.7-0.8
		c0.2-0.2,0.3-0.1,0.5,0c0.1,0.3,0.3,0.6,0.4,0.9c-1.9,1.1-2.4,3.4-4,4.9c-2.4,2.3-2.9,5.3-2.3,8.6c0.4,2.4-0.3,3.2-2.5,3.1
		c-0.5-1.6-0.8-3.2-0.4-4.8c0-0.2,0.3-0.5,0.2-0.6c-1.9-3.1,1.2-5.5,1.4-8.3C24.7,20,25.2,18.2,26.9,17.5L26.9,17.5z"/>
	<path class="st59" d="M23.3,34.9c2.1,0.1,2.5-1.2,2.2-2.9c-0.9-4.1,0.3-7.5,3.8-10c0.2-0.1,0.4-0.2,0.5-0.4
		c0.7-2.2,0.6-2.2,2.5-3.2c0.8,0.7,0.3,1.5,0.4,2.2c-1.3,0.5-0.3-1.6-1.3-1c-1.3,0.8-0.7,2.2-0.6,3.3c-0.7,0.7-1.3-0.8-1.8,0
		c-0.3,0.5,0.1,1,0.6,1.3c0,0,0,0,0,0c-2.2,2.5-2.5,5.5-2.8,8.6c-0.1,1.6-0.4,3.2-2,4.1c-0.3,0-0.6-0.1-0.9-0.3
		c-0.4-0.4-0.7-0.8-0.7-1.4C23.3,35.1,23.3,35,23.3,34.9z"/>
	<path class="st60" d="M31.8,17.5c-0.2,0-0.3,0-0.5,0c0-1.1-0.9-1.2-1.6-1.5c-1-0.5-1.5-1.7-0.2-2.1c2.2-0.6,3.7-2.4,5.8-3.1
		c-1,1,0.3,2.8-1.2,3.6c0.2,0.2,0.3,0.6,0.5,0.6c1.5,0.3,0,1,0.3,1.5c-0.2,0.2-0.3,0.3-0.5,0.5C33.5,17.2,32.8,18.1,31.8,17.5z"/>
	<path class="st61" d="M6.4,58.5c-0.1,0-0.3,0-0.4-0.1c0-0.1,0-0.3,0-0.4c0.1-0.7,0.3-1.6,0.9-1.8c1-0.4,0.6,1.2,1.4,1.2
		c0.6-0.7,0.1-1.3-0.2-2c0-0.2,0-0.3,0-0.5c0.9-0.2,1.4,0.3,1.9,0.9C10,57,10.3,58.2,10,59.4c-0.3-0.2-0.6-0.3-0.9-0.5
		c-0.4,0-0.6-0.2-0.9-0.4l-0.2,0l-0.2,0C7.3,58.9,6.8,57.4,6.4,58.5z"/>
	<path class="st62" d="M5.4,55.1c0,0.3-0.2,0.6-0.5,0.6c-0.4,0-0.7-0.2-0.6-0.7c0-0.4,0.3-0.5,0.6-0.5C5.2,54.5,5.4,54.8,5.4,55.1z"
		/>
	<path class="st63" d="M24.7,66.5c0.9,1.2-0.4,2.9,0.9,4c0,0.3,0,0.6,0,0.9c-1.4,1.2-2,2.3-0.5,4c1,1.1,0.6,2.6,0.6,4
		c-1.5,0.2-2.4-0.7-3.2-1.7l0,0c-0.2-0.3-0.3-0.5-0.1-0.8c0.4-0.5,0.4-0.5-0.3-0.8c-0.3-0.2-0.4-0.5-0.5-0.8
		c-0.2-0.8-0.1-1.6-0.1-2.4c0.1-0.7,0.2-1.3,0.5-1.9c0.5-1.4,0.6-2.7-0.7-3.9c-0.3-0.3-0.3-0.8-0.3-1.2c0.5-0.5-0.2-1.1,0.2-1.6
		C23.1,63.8,24,64.4,24.7,66.5z"/>
	<path class="st57" d="M25.5,79.4c-0.5-0.8-0.4-1.7-0.4-2.6c0-0.5,0-0.9-0.5-1.4c-1.8-1.6-1.4-3.2,0.9-4.1c-0.3,0.9-0.8,1.7,0.6,2.3
		c0.4,0.1,0.6,1,0.6,1.6c-0.1,2.1,1.1,3.6,2.4,5c-0.4,0-0.7,0.1-0.9,0.5c-0.5-0.1-0.8-2.2-1.4-0.1c-0.1,0.4-0.5,0.5-0.8,0.5
		C25.1,80.7,25,80.1,25.5,79.4z"/>
	<path class="st64" d="M35.8,97.6c-0.5-0.3-0.9-0.6-1.4-0.9c-1.3-1-3.3-1.3-3.5-3.4c0-0.3-0.9-0.4-1.4-0.6c0.2-1.5-0.4-3,0.4-4.5
		l0,0c0.6-0.2,1,0.1,1.3,0.4c0.1,0.6,0.5,1.2,0.4,1.7c-0.6,2.4,0.6,3.7,2.6,4.7C35.2,95.6,36.2,96.2,35.8,97.6z"/>
	<path class="st65" d="M31.3,88.7c-0.4-0.1-0.9-0.3-1.3-0.4c0.6-0.6,1.2-0.6,1.8,0C31.6,88.4,31.5,88.6,31.3,88.7z"/>
	<path class="st66" d="M25.5,79.4c0,0.6,0.1,1.2,0.5,1.8c0,1.1,0.7,1.7,2,2.3c-1.3,0.4-2.5,0.8-1.5,2.2c-0.1,0.2-0.3,0.2-0.5,0
		c-0.6-1-1.2-2.1-1.8-3.1c0.3-1.2-0.4-2.2-1-3.1c-0.4-0.6-0.8-1.1-0.8-1.7C23.5,78.2,24.5,78.8,25.5,79.4z"/>
	<path class="st65" d="M26,85.6c0.2,0,0.3,0,0.5,0c2.1-0.4,2.3,1.9,3.6,2.7c-0.1,1.5,0.8,3.1-0.4,4.5c-0.7-1.2-0.5-3-2.2-3.6
		c-0.1-0.2-0.3-0.6-0.2-0.6c1.5-1.1,0.6-1.6-0.4-2.2C26.4,86.2,26.2,85.9,26,85.6z"/>
	<path class="st49" d="M16.7,20.2c1.8-0.5,2.6-2.1,3.8-3.2c1.7-1.4,3.4-2.7,5.5-3.5c0.1,1.3-0.4,2.1-1.6,2.8c-2.3,1.3-4,3.4-5.5,5.6
		c-0.1,0.1-0.1,0.5,0,0.6c2.1,1.8-0.7,2.1-1,3.2c-0.3,1.2-1.3,0.3-2.1,0.3c-0.3-1.9-0.9-3.8,0.9-5.4C16.6,20.5,16.6,20.3,16.7,20.2z
		"/>
	<path class="st10" d="M14.9,26.9c0.3,0.6,1.1,0.2,1.4,0.7c-1.3,2.6-1.2,6-4.1,7.7c0.1-1.2-1.4-1.8-1-3.3c0.2-0.7,0.6-0.9,1-1.2
		c0,0,0,0,0,0c0.9-1,2.1-1.7,1.5-3.4C13.5,26.8,14.4,26.9,14.9,26.9z"/>
	<path class="st67" d="M12.2,30.9c-0.4,1-1.3,1.9,0.3,2.8c0.7,0.4-0.6,1-0.3,1.7l0,0c-0.3,1-1,1.8-1.3,2.7c-0.3,0.9-1.1,1.5-0.2,2.6
		c0.3,0.4,0.1,1-0.2,1.5c-1.1,2-0.9,4-0.2,6c0.5,1.3,0.1,2.5,0.1,3.7c-0.1,1-0.1,1.9,0.1,2.9c0,0.3,0,0.6-0.2,0.9
		c-0.1,0.1-0.2,0.1-0.2,0.2c-0.7,0-1.1-0.7-1.8-1c-0.3-0.4,0-0.8,0.1-1.2c1.2-3.5-0.2-7.1-0.3-10.6c0-1.5-1.4-3-0.3-4.7
		c0.4-1.2,0.3-2.4,0.9-3.6c0.2-0.4,0.3-0.9,0.5-1.3c0.4-0.4,1-0.5,1.3-0.9c0-0.1,0-0.3,0-0.4C10.9,31.7,11,30.6,12.2,30.9z"/>
	<path class="st14" d="M8.6,34.9c0.5,1.4-0.2,2.5-0.9,3.6c-0.3-0.6-0.6-1.2-0.9-1.8C7.5,36.1,7.8,35.2,8.6,34.9z"/>
	<path class="st41" d="M9.5,29.3c0.3-0.9,0.5-1.9,1.9-1.5c-0.1,1-1.1,1.1-1.6,1.6C9.8,29.5,9.7,29.4,9.5,29.3z"/>
	<path class="st40" d="M10.4,32.6c0,0.9-0.7,0.9-1.3,0.9C9.3,32.9,9.8,32.7,10.4,32.6z"/>
	<path class="st68" d="M15.7,78.9c-0.4-1.4-0.8-2.8,0.5-4c0.2,0.1,0.4,0.2,0.5,0.3c0.7,0.8,1.3,1.7,2.6,1.4c0.3,0.4,0.6,0.9,0.9,1.3
		c0.5,0.6,0.3,1.8,1.3,2.2c0.1,0.1,0.3,0.3,0.2,0.3c-1.6,1.1,0,3.7-2,4.6c-0.8-1.6-2.2-2.7-2.7-4.5c-0.3-0.2-0.4-0.5-0.5-0.9
		C16.3,79.5,16,79.2,15.7,78.9z"/>
	<path class="st69" d="M22.4,70.9c-0.3,0.5-0.5,1.1-0.5,1.8c-0.4,0.9-0.7,1.8,0,2.7c0.2,0.1,0.3,0.3,0.5,0.4
		c-0.1,1.1-0.7,0.8-1.3,0.5c-0.5-1.5-1.7-2.9-0.2-4.5c0.1-0.1,0-0.6-0.1-0.8c-0.5-1-3.6-1.9-4.6-1.4c-0.1-0.1-0.2-0.2-0.2-0.2
		c-0.4-1-0.5-2,0.3-2.9c1.2-0.3,2.5-0.3,3.5,0.5c0,0.4,0.1,0.4,0.4,0.2C21.5,68,22.1,69.4,22.4,70.9z"/>
	<path class="st70" d="M19.8,85.1c1.4-1.3,0.2-2.4-0.3-3.5c0.6-0.7,1.1,0.9,1.7-0.1c0.5-0.9,0-1.1-0.6-1.6c-0.6-0.5-0.4-1.2-0.4-1.9
		c1,0.7,1.3,1.9,2.3,2.6c0.8,0.6,1.5,1.5-0.3,1.9c-0.5,0.1-0.7,0.5-0.6,1c0.2,0.8,0.6,0.1,1,0c0.4-0.1,0.7,0,0.9,0.4
		c0.2,0.4,0,0.7-0.4,0.9c-1.7,0.7-1.1,1.5,0.2,2.1c-0.7,0.5-1.6,0-1.8,0.9C20.4,87.3,20.6,85.9,19.8,85.1z"/>
	<path class="st71" d="M19.3,76.7c-1.7,0.5-2.7-0.1-3.1-1.8c0-0.3,0-0.6,0-0.9c0.4-0.9,1-1,1.8-0.4c0.1,0.5,0.2,1,0.6,1.4
		c0.6-0.3-0.2-1.4,0.8-1.6C20.3,74.5,19.1,75.6,19.3,76.7z"/>
	<path class="st72" d="M18,73.6c-0.6-0.1-1.2,0.1-1.8,0.4c0,0,0,0,0,0c-0.8-1.6-1.8-3.1-0.7-5c0.4-0.1,0.5,0.3,0.7,0.5c0,0,0,0,0,0
		C17.3,70.7,18.7,71.6,18,73.6z"/>
	<path class="st66" d="M21.1,76.3c0.5,0,1,0.1,1.3-0.5c1,0.1,1.5,0.7,2.1,1.3c-0.6,1-1.7-1.1-2.1,0.5C21.9,77.3,21.1,77.1,21.1,76.3
		z"/>
	<path class="st11" d="M16.6,79.8c0.4,0.2,0.4,0.5,0.5,0.9c-0.2,0.3-0.5,0.2-0.7,0C16.2,80.3,16.3,80,16.6,79.8z"/>
	<path class="st73" d="M13.1,46.9c0.1-0.2,0.3-0.5,0.3-0.5c-2-1.7-1.1-3.5-0.4-5.4c0.1-0.2,0.1-0.5,0-0.6c-0.9-2.4,0.5-2.9,2.4-3.2
		c0.3-0.1,0.7-0.2,1.1-0.3c-0.6-1.4-1.7-1-2.7-0.8c0.7-2.3,2.1-1.3,3.2-0.7c1.5,0.8,2.8,0.8,4-0.5c-0.3-0.6,0.2-0.9,0.4-1.3l0,0
		c0.9,0,0.7,0.6,0.7,1.2c-0.9,2.4-3.4,3.3-5,5.1c-0.5,0.6-1.1,2-2.6,1.4c-0.4-0.2-0.5,0.7-0.5,1.2c0.1,0.7,0.5,1.2,0.5,1.9
		c0,0.4-0.1,0.8,0,1.2c1.6,1.9,1,4.4,1.7,6.5c0.2,0.6,0,1.3-0.7,1.5c-1.1,0.3-0.8-1.1-1.7-1.3c0,1.1,0.9,2.6-0.9,3
		c-0.2,0-0.4,0-0.6-0.1c-0.7-1.2-1.9-2.1-2.3-3.6c-0.2-0.7-0.4-1.4,0.1-2.1c0.7-0.6,2.3-0.4,1.8-2c0.1-0.2,0.1-0.4,0.3-0.6
		C12.7,46.7,12.9,46.7,13.1,46.9z"/>
	<path class="st47" d="M22,34.9c0-0.5,0.1-1-0.4-1.3c-0.1-0.3-0.4-0.7,0.1-0.9c1.2-0.4,0.4-1.1,0.1-1.5c-0.4-0.5-0.9-0.8-1.5,0
		c-0.3,0.4-0.5,1.3-1.2,0.7c-0.5-0.4-0.1-1.1,0.2-1.6c0.7-0.9,1.4-1.9,2.2-2.9c-2.2,0.1-1.7-1.2-1-2.1c1.1-1.3,1.3-2.9,2.1-4.2
		c1-1.5,2-3.4,4.3-3.5c-1.3,2.2-2,4.6-2.7,7.1c-0.2,0.8-0.3,1.7-0.8,2.2c-0.8,0.8-0.9,1.1,0.2,1.6c0.3,0.1,0.6,1,0.5,1.1
		c-1.4,1.6,0,3.6-0.7,5.3c0,0,0,0,0,0c-0.1,0.1-0.3,0.2-0.4,0.1c-0.2-0.2-0.4-0.1-0.7,0C22.1,34.9,22.1,34.9,22,34.9z"/>
	<path class="st74" d="M10.9,49.5c-0.6,0.6-0.6,1.2,0,1.8c0.4,0.8,0.4,1.8,0.6,2.7c0.2,1.1-0.2,2-1.5,0.9c-0.3-1.1-0.4-2.1-0.1-3.2
		c0.5-1.9-0.4-3.8-0.6-5.7C9.1,44.5,9,43.1,10,41.8c0.4-0.5,1-1.3-0.4-1.5c-0.7-0.1-0.1-0.7,0-1c0.8-1.4,1.8-2.7,2.6-4
		c-0.1,0.5,0.4,0.9-0.1,1.4c-0.9,0.9-1.5,1.6-0.2,3c0.9,0.9,0.2,2.9-0.3,3.9c-0.9,2-0.2,2.7,1.5,3.2c-0.2,0-0.3,0-0.5,0
		c-0.4,0.3-0.4,0.7-0.3,1.1C12,48.7,11.1,48.8,10.9,49.5z"/>
	<path class="st38" d="M21.5,33.5c-0.1,0.4-0.3,0.9-0.4,1.3c-0.5-0.1-1.4,0.3-1.4-0.4C19.7,33.3,21.1,34.2,21.5,33.5z"/>
	<path class="st60" d="M36.2,9.1c0.8,0.6-0.2,1.2,0,1.8c-0.3,0-0.6,0-0.9,0C35.6,10.2,35.9,9.6,36.2,9.1z"/>
	<path class="st71" d="M15.7,69.1c-0.7,1.7,0.6,3.2,0.5,4.9c-2.9-1.8-4.3-4.3-4-7.7c0-0.6,0.1-1.2-0.4-1.6c-0.5-0.5-0.6-1.2-0.9-1.8
		c0-0.1,0-0.3,0-0.4c-0.8-0.7-1.1-1.6-0.9-2.7c0-0.1,0-0.3,0-0.4c-0.3-1.2-1.1-2.4,0-3.5c0,0,0-0.1,0-0.1c1,0,0.8,0.9,1,1.5
		c0.3,1.1-0.7,2.6,1,3.2c0.2,0.1,0.3,0.2,0.4,0.4c0.5,2,0.7,4.1,3.1,5.2C16.5,66.5,16,68,15.7,69.1z"/>
	<path class="st75" d="M6.4,58.5c0.5-1.3,0.9-0.4,1.4,0c-0.1,0.7,0.2,1.6-0.9,1.8C6.2,59.8,6.5,59.1,6.4,58.5z"/>
	<path class="st76" d="M8.2,58.5c0.4,0,0.7,0.1,0.9,0.4c-0.1,0.7,0.3,1.4-0.5,2.1C7.9,60.2,8.3,59.3,8.2,58.5z"/>
	<path class="st61" d="M10,59.8c0.3,0.9,0.6,1.8,0.9,2.7c-0.3,0.2-0.6,0.7-0.8,0.7c-0.7-0.1-0.3-0.6-0.2-1C10.2,61.4,9,60.5,10,59.8
		z"/>
	<path class="st12" d="M13.5,76.2c0-0.4,0-0.9,0-1.3c0.6,0.3,1.1,0.7,0.8,1.4C14.2,76.6,13.8,76.3,13.5,76.2z"/>
	<path class="st61" d="M10.9,62.9c0.6,0.5,0.8,1.1,0.9,1.8C10.9,64.3,10.8,63.7,10.9,62.9z"/>
	<path class="st77" d="M24.7,66.5c-0.9-1.2-1.6-2.7-3.6-1.8c-1,0.1-0.9-0.7-1.2-1.3c-0.2-0.8-0.1-1.6,0.1-2.4c0.2-1,0.2-1.7-0.5-2.6
		c-1-1.5-0.1-3.4,1.5-3.5c0,1.6,0.1,1.6,1.4,1.3c0.4-0.1,0.6,0.1,0.7,0.4c0.2,0.6,0.2,1.2-0.3,1.6c-1.7,1.7-0.7,3.4,0,5.1
		c0.3,0.8,1,1,1.8,1c0,0.4,0,0.9,0,1.3C24.7,65.9,24.7,66.2,24.7,66.5z"/>
	<path class="st78" d="M21.1,54.9c-2,0.3-0.9,2.1-1.4,3.1c2.4,1.2,0.6,2.9,0.6,4.5c0,0.3,0,0.6-0.1,0.9c-0.1,0-0.2,0-0.3,0.1
		c-2.2-1.2-1.6-3.5-2-5.4c-0.1-0.6,0.2-1.2-0.4-1.8c-0.2-0.2-0.3-0.7-0.1-0.8c1.7-0.9,0.7-2.4,0.7-3.7c1.6-3.4,1.6-3.4,5.3-2.7
		c0.8,0.2,1.3,0,1.7-0.6c0.2-0.6-0.1-1.2,0.2-1.7c0.2-0.1,0.4-0.1,0.5,0c2.2,1.3,0,2.6,0,4c0,1.2-0.7,0.4-1.3,0.4
		c-1-0.1-1.4,0.6-1,1.6c0.2,0.6,0.6,1-0.4,1.3c-0.8,0.2-1.1-0.1-1.3-0.8c-0.3-0.8-0.6-1.6-1-2.7C20.6,52.2,21,53.6,21.1,54.9z"/>
	<path class="st59" d="M26,46.9c-0.1,0-0.3,0-0.4,0c-0.5-0.4-0.7-1.1-1.2-1.6c-0.1-0.2-0.2-0.3-0.3-0.5c-0.5-2.6,0.1-5,1.2-7.3
		c1.1,0.5,0.5,1.6,0.8,2.3c0,0,0,0,0,0c-0.3,1,1.1,2.1,0,3.1c-0.9,0.5-1.2,1.1-0.5,1.9C26,45.4,26,46.2,26,46.9z"/>
	<path class="st29" d="M26,39.8c-0.8-0.5,0-1.7-0.9-2.2c-0.7,0-0.7-0.4-0.4-0.9c0.9-1.3,2-2.3,1.5-4.2c-0.3-1.2-0.2-2.6,0.8-3.7
		c0.2-0.3,0.7-0.5,0.5-0.9c-1.1-2.3,0.9-2.7,2.1-3.6c0.5,0.3,0.4,0.6,0,0.9c-1.1,2.2-2.1,4.5-1.6,7.1c0,0.3,0,0.6-0.1,0.8
		c-0.8,1.2-2.4,2.3-0.7,4C25.9,37.6,27.1,39.1,26,39.8z"/>
	<path class="st79" d="M26,48.7c-0.8,1.1-1.7,1.6-3.2,0.8c-1.7-1-2.8-0.3-3.4,1.5c-0.1,0.4-0.6,0.6-1,0.9c-0.2,0.1-0.4,0.1-0.5,0
		c-0.2-1-0.6-2-0.8-2.9C16.7,47,15.7,46,14,45.5c0-0.4,0.1-0.7,0.4-0.9c0.6-0.7,1.2-1.4,1.4-2.4c0.4-1.8,1.5-2,3-0.8
		c0-1.8,0.5-3.4,2.2-4.3c0.5-0.3,0.9-0.7,1.1-1.3c0.2-0.4,0.4-0.7,0.8-0.9c0.1,0,0.3,0,0.4,0c0.3,0.4,0.6,0.9,0.9,1.3
		c0.3,1.2,0.3,2.1-1.4,2.4c-1.6,0.3-1.2,2.2-1.2,3.2c0,1.7-0.5,2.8-1.9,3.6c-0.2,0.1-0.4,0.4-0.5,0.7c-0.2,0.4-0.5,0.8,0,1.2
		c0.3,0.2,0.7,0,1-0.2c1.3-1.2,3-1.2,4.5-2l0,0c0.8,1.1,0.3,2.2-0.3,3.2C25.2,47.3,25.6,48.1,26,48.7z"/>
	<path class="st60" d="M24.7,45.1c-0.6,0.8-1.3,1.4-2.3,1.6c-0.8,0.1-1.5-0.1-1.9,1c-0.3,1-1.5,0.4-2.1,0.2c-0.8-0.2-0.1-1,0-1.5
		c0.1-0.6,0.4-1.1,0.9-1.5c1.2-0.8,2.7-1.5,1.3-3.4c1.5-0.8-0.5-4.3,2.9-3.7c1.2,0.2-0.2-1.4,0.7-1.7c0.2,0.1,0.3,0.3,0.5,0.4
		c0,0.4,0.1,0.7,0.4,0.9c-0.1,0.9-0.9,1.9,0.1,2.8c0.3,0.2,0,0.5-0.2,0.7C23.7,42.3,24.1,43.7,24.7,45.1z"/>
	<path class="st80" d="M12.6,54.9c0.1,0,0.3,0,0.4,0c1.1,1.1,3.3,0.7,3.9,2.6c0.3,0.6,0.8,1.3,0.5,1.9c-1,2.4,1,3.4,2,4.8
		c0.5,0.5,1.2,0.7,1.5,1.4c0.5,1.3,1.8,2.2,1.7,3.7c0,0.6,0.1,1.2-0.4,1.6c-1.7-0.6-1.2-2.9-2.7-3.6l0,0c-0.8-1-2.2-0.2-3.1-0.9
		c-0.4-1.2-0.3-2.8-2.4-1.8c-0.6,0.3-1.1-0.5-1.3-1.1c-0.3-0.9-0.4-1.8-0.5-2.8c0-1.1-0.8-1.8-1.1-2.7
		C10.9,56.5,11.3,55.6,12.6,54.9z"/>
	<path class="st78" d="M21.1,65.6c-0.6-0.3-1.2-0.6-1.8-0.9c-0.6-1.1,0.5-0.9,0.9-1.3c0,0,0,0,0,0c0.3,0.4,0.6,0.9,0.9,1.3
		c0.1,0.4,0.8,0,0.7,0.5C21.8,65.4,21.3,65.5,21.1,65.6z"/>
	<path class="st66" d="M22,75.4c-1.5-0.9-0.8-1.8,0-2.7C22,73.6,22,74.5,22,75.4z"/>
	<path class="st46" d="M12.6,54.9c-1,1.8-1.5,3.4,0.6,4.8c0.4,0.3-0.5,0.5-0.6,0.9c-0.2,0.2-0.3,0.2-0.5,0l0,0
		c-1.2-0.7-1-2.2-1.7-3.1c-0.1-0.6,0.2-1.3-0.5-1.8c0-0.3,0-0.6,0-0.9c1,0.4,1.3,0.1,1.1-1c-0.2-0.8-0.2-1.7-0.2-2.6
		C10.7,52.9,13.4,53,12.6,54.9z"/>
	<path class="st42" d="M12.2,60.7c0.2,0,0.3,0,0.5,0c0.4,0.7,0.4,1.4,0.5,2.1c0.1,1,0.3,2.3,1.7,0.9c0.4-0.4,1-0.4,1.4,0
		c0.7,0.8,1.2,1.7,0.4,2.8c-0.9,0.9-0.3,2.1-0.4,3.1c-0.2-0.2-0.3-0.3-0.5-0.5c-0.4-1,0.2-2.1-1.4-3C12.6,65.1,11.6,63,12.2,60.7z"
		/>
	<path class="st80" d="M19.8,67.3c-0.1,0.4,0.2,0.9-0.4,1.1c-0.1,0-0.3-0.1-0.3-0.2C19,67.7,19.4,67.6,19.8,67.3
		C19.8,67.4,19.8,67.3,19.8,67.3z"/>
	<path class="st47" d="M16.6,57.6c-0.6-0.6-1-1.5-2.2-1.3c-0.6,0.1-1.2-0.6-1.3-1.4c0.5-0.4,1.6-0.6,0.7-1.6c-0.4-0.5-1-0.8-0.4-1.4
		c0.3-0.3,0.6-1,1.2-0.8c0.7,0.2,0.6,0.9,0.7,1.5c0,0.2,0.1,0.4,0.5,0.5c-0.6-2.5,0.3-5.4-1.8-7.6c2.8,0.2,4.8,3.4,4,6.2
		c-0.7,1.5-1,3-0.8,4.7C17.2,56.9,17.6,57.6,16.6,57.6z"/>
	<path class="st81" d="M22.4,35.8c0.1,0.3,0.3,1,0.2,1c-3,1.1-3.6,3.5-3.4,6.3c-0.4-0.1-0.6-0.1-0.7-0.1c-0.5-0.6,0.3-2.1-1.1-1.9
		c-1.2,0.1-1.4,1.2-1.3,2.2c0.3,1.6-1.1,1.1-1.8,1.5c0-0.9-1-1.5-0.9-2.4c0.1-0.8,0.2-1.5,0.8-2c0.8-0.7,0.9,0.9,1.5,0.7
		c1.4-2.8,4.4-3.8,6.2-6h0C22.3,35.1,22.4,35.4,22.4,35.8z"/>
	<path class="st46" d="M10.9,49.5c-0.3-1.2,0.8-1.2,1.3-1.8c-0.1-0.4,0-0.6,0.4-0.4C13.2,49,12.6,49.7,10.9,49.5z"/>
	<path class="st82" d="M12.6,47.3c-0.1,0.1-0.3,0.3-0.4,0.4c-0.3-0.1-0.8,0-0.6-0.5c0.2-0.5,0.7-0.3,1.1-0.3
		C12.6,47,12.6,47.2,12.6,47.3z"/>
	<path class="st73" d="M22.4,35.8c-0.4-0.2-0.4-0.5-0.5-0.9c0.3,0.3,0.6-1.5,0.9,0C22.9,35.2,22.8,35.6,22.4,35.8z"/>
	<path class="st42" d="M10.4,57.6c1.4,0.6,1.2,2.1,1.7,3.1C9.3,60.9,10.9,58.7,10.4,57.6z"/>
	<path class="st79" d="M16.6,57.6c0-1,0.1-2,0-3c-0.2-1.3,0.2-2.2,1.4-2.8c0.1,0,0.3,0,0.4,0c0.6,1.4,2.3,3-1,3.9
		c1,0.6,2.6,0.9,1,2.2c-0.4,0.3-0.4,0.7,0.1,1.1c0.3,0.2,0.7,0.7,0.6,0.8c-1.4,1.7,0.6,2.5,1.1,3.6c0.2,0.8-1.1,0.5-0.9,1.3
		c-1.3-0.8-1.3-3.4-3.9-2.4C17.7,61,17.2,59.3,16.6,57.6z"/>
	<path class="st60" d="M26,48.7c-0.4-0.2-1-0.6-1.1-0.6c-0.5,0.7-0.9,0.8-0.6-0.2c0.2-0.9,0.4-1.8,0.4-2.8c0.8,0.3,0.9,1,0.9,1.8
		C25.7,47.5,25.8,48.1,26,48.7z"/>
</g>
</svg>
