<?xml version="1.0" encoding="utf-8"?>
<!-- Generator: Adobe Illustrator 25.0.0, SVG Export Plug-In . SVG Version: 6.00 Build 0)  -->
<svg version="1.1" id="Layer_1" xmlns="http://www.w3.org/2000/svg" xmlns:xlink="http://www.w3.org/1999/xlink" x="0px" y="0px"
	 width="105.5px" height="129px" viewBox="0 0 105.5 129" style="enable-background:new 0 0 105.5 129;" xml:space="preserve">
<style type="text/css">
	.st0{fill:#48A6DD;}
	.st1{fill:#FFFFFF;}
	.st2{fill:#231F20;}
	.st3{fill:#E6E6E6;}
	.st4{fill:#393939;}
	.st5{fill:#CECECE;}
	.st6{fill:#EBEBEB;}
	.st7{fill:#F3F3F3;}
	.st8{fill:#181818;}
	.st9{fill:#EEEEEE;}
	.st10{fill:#2B2B2B;}
	.st11{fill:#343434;}
	.st12{fill:#CACACA;}
	.st13{fill:#DEDEDE;}
	.st14{fill:#232323;}
	.st15{fill:#D8D8D8;}
	.st16{fill:#BDBDBD;}
	.st17{fill:#1C1C1C;}
	.st18{fill:#515151;}
	.st19{fill:#3C3C3C;}
	.st20{fill:#0F0F0F;}
	.st21{fill:#AFAFAF;}
	.st22{fill:#808080;}
	.st23{fill:#BBBBBB;}
	.st24{fill:#454545;}
	.st25{fill:#161616;}
	.st26{fill:#8F8F8F;}
	.st27{fill:#9D9D9D;}
	.st28{fill:#E1E1E1;}
	.st29{fill:#868686;}
	.st30{fill:#313131;}
	.st31{fill:#252525;}
	.st32{fill:#686868;}
	.st33{fill:#434343;}
	.st34{fill:#CFCFCF;}
	.st35{fill:#DCDCDC;}
	.st36{fill:#F5F5F5;}
	.st37{fill:#737373;}
	.st38{fill:#797979;}
	.st39{fill:#5C5C5C;}
	.st40{fill:#2D2D2D;}
	.st41{fill:#5F5F5F;}
	.st42{fill:#4F4F4F;}
	.st43{fill:#4A4A4A;}
	.st44{fill:#4C4C4C;}
	.st45{fill:#ACACAC;}
	.st46{fill:#626262;}
	.st47{fill:#3D3D3D;}
	.st48{fill:#484848;}
	.st49{fill:#606060;}
	.st50{fill:#464646;}
	.st51{fill:#666666;}
	.st52{fill:#BCBCBC;}
	.st53{fill:#C2C2C2;}
	.st54{fill:#5A5A5A;}
	.st55{fill:#070707;}
	.st56{fill:#505050;}
	.st57{fill:#7D7D7D;}
	.st58{fill:#646464;}
	.st59{fill:#4B4B4B;}
	.st60{fill:#9E9E9E;}
	.st61{fill:#595959;}
	.st62{fill:#888888;}
	.st63{fill:#C1C1C1;}
	.st64{fill:#BFBFBF;}
	.st65{fill:#8B8B8B;}
	.st66{fill:#545454;}
	.st67{fill:#A7A7A7;}
	.st68{fill:#7C7C7C;}
	.st69{fill:#848484;}
	.st70{fill:#8C8C8C;}
	.st71{fill:#959595;}
	.st72{fill:#CCCCCC;}
	.st73{fill:#CDCDCD;}
	.st74{fill:#919191;}
	.st75{fill:#757575;}
	.st76{fill:#2C2C2C;}
	.st77{fill:#363636;}
	.st78{fill:#414141;}
	.st79{fill:#353535;}
	.st80{fill:#8A8A8A;}
	.st81{fill:#4D4D4D;}
	.st82{fill:#5B5B5B;}
	.st83{fill:#ADADAD;}
	.st84{fill:#ABABAB;}
	.st85{fill:#D0D0D0;}
	.st86{fill:#696969;}
	.st87{fill:#A0A0A0;}
</style>
<g>
	<path class="st0" d="M90.8,126.5H15c-2.2,0-4-1.8-4-4v-23c0-2.2,1.8-4,4-4h75.8c2.2,0,4,1.8,4,4v23C94.8,124.7,93,126.5,90.8,126.5
		z"/>
	<g>
		<path class="st1" d="M31.9,113c-0.1-2-0.1-4.4-0.1-6.8h-0.1c-0.5,2.1-1.2,4.4-1.8,6.4l-2,6.4H25l-1.8-6.4
			c-0.5-1.9-1.1-4.3-1.5-6.4l0,0c-0.1,2.2-0.2,4.8-0.3,6.8l-0.3,6.3h-3.4l1.1-16.5h5l1.6,5.5c0.5,1.9,1,4,1.4,5.9h0.1
			c0.5-1.9,1-4.1,1.6-5.9l1.8-5.5h4.9l0.9,16.5h-3.6L31.9,113z"/>
		<path class="st1" d="M53.7,110.9c0,5.4-3.3,8.7-8.1,8.7c-4.9,0-7.7-3.7-7.7-8.4c0-4.9,3.2-8.6,8-8.6
			C51,102.6,53.7,106.3,53.7,110.9z M41.8,111.1c0,3.2,1.5,5.5,4,5.5s4-2.4,4-5.6c0-3-1.4-5.5-4-5.5
			C43.3,105.5,41.8,107.9,41.8,111.1z"/>
		<path class="st1" d="M71.2,110.9c0,5.4-3.3,8.7-8.1,8.7c-4.9,0-7.7-3.7-7.7-8.4c0-4.9,3.2-8.6,8-8.6
			C68.5,102.6,71.2,106.3,71.2,110.9z M59.3,111.1c0,3.2,1.5,5.5,4,5.5c2.5,0,4-2.4,4-5.6c0-3-1.4-5.5-4-5.5
			C60.8,105.5,59.3,107.9,59.3,111.1z"/>
		<path class="st1" d="M73.7,119.3v-16.5H78l3.4,6c1,1.7,2,3.8,2.7,5.6h0.1c-0.2-2.2-0.3-4.4-0.3-6.9v-4.8h3.4v16.5h-3.9l-3.5-6.4
			c-1-1.8-2.1-3.9-2.9-5.8h-0.1c0.1,2.2,0.1,4.5,0.1,7.2v5h-3.3C73.7,119.2,73.7,119.3,73.7,119.3z"/>
	</g>
</g>
<circle class="st2" cx="53" cy="52.3" r="51.2"/>
<g>
	<path class="st3" d="M101.9,36.9c2.4,7.5,3.2,15.2,1.8,23c-0.6-0.7-0.1-1.6-0.3-2.2c0,0.7,0.1,1.5,0,2.2c-0.1,0.5-0.4,0.8-0.9,0.7
		c-0.9-0.1-1.3,0.5-1.3,1.5c0,1.9-0.1,3.8-0.8,5.6c-0.4,1.2-1.5,1.6-2.7,0.9c-0.3-0.5-0.4-1-0.4-1.6c1-2.2,1.4-4.5,1.4-6.9
		c0.2-0.4,0.4-0.7,0.5-1.1c0.4-0.8,0.3-1.5,0.3-2.4c-0.1-0.7-0.1-1.8,0.4-2.1c2-0.9,0.7-2.1,0.6-3.3c-0.9-1.6-1.3-3.3-0.8-5.2
		c0.3-1-0.3-1.7-1.2-2.1c-1-1.5,0.8-2.9,0.1-4.4c-0.5-0.4,1.2-0.3,0.2-1c-0.6-0.4-0.1-1.2,0.3-1.8c0.9-1,1.7-1.2,2.2,0.3
		c0.1,0.2,0.1,0.5,0.3,0.5C101.6,37.3,101.6,37.1,101.9,36.9z"/>
	<path class="st4" d="M82.6,33.8c0-0.1,0-0.3,0-0.4c-0.5-0.8-0.9-1.7-0.9-2.7c-0.9-1-0.3-2.7-0.7-3.4c-1.3-2.3,0.2-5.6-2.6-7.2
		c-0.9-0.5-0.8-1.6-0.9-2.3c-0.3-1.6-1.2-2.8-2-4.1c0.3-1.1-1.3-2-0.4-3.2c1.3,0.1,1.6,1.4,2.4,2.1c1.3,2,2.2,4.4,4.3,5.9
		c0.1,0.2,0.2,0.3,0.3,0.5c0.1,0.6,0.1,1.2-0.1,1.8c-0.3,0.7-0.4,1.1,0.4,1.6c1.3,0.8,1.2,1.9,0.2,3c-0.5,1.4,0.9,1.8,1.4,2.7
		c1.1,1,1.6,2,0.2,3.2c-0.2,0.1-0.7-0.1-0.6,0.3c0.1,0.5,0,1.2,0.9,1.2c0.5,0.3,1.1,0.2,1.5,0.7c-0.6,1.7,1,3.1,0.7,4.8
		c-0.1,0.8-0.3,1.5-0.8,2.1c-0.7,0.4-1.2-0.1-1.8-0.4c-0.3-0.2-0.7-0.5-0.7-0.8C83.4,37.4,82.3,35.7,82.6,33.8z"/>
	<path class="st5" d="M89.7,87.8c-1.5,2-3.4,3.5-5.4,4.9c-0.6,0.4-1,0.2-0.9-0.5c0.1-0.5-0.2-0.9-0.2-1.4c0-0.4,0.3-0.8,0.6-1.1
		c1.6-1,2.5-2.5,2.5-4.4c0-2,1.7-3.5,1.4-5.7c-0.1-0.9,1-1.3,1.9-1.5c1,0.3,2.6-0.5,2.7,1.4c0,0.2-0.1,0.4-0.1,0.6
		c-0.7,0.9-1.6,1.7-2,2.8c0.4,0.5,0.8,0.1,1.2,0.1c0.4,0,0.8-0.1,1,0.3c0.2,0.3,0,0.7-0.3,1C91.2,85.5,90.2,86.4,89.7,87.8z"/>
	<path class="st6" d="M101.9,36.9c-0.1,0.3,0,0.9-0.2,1c-0.4,0.3-1-0.1-1-0.5c-0.1-1.6-1-0.4-1.5-0.5c-1.8-1-1.9-2.9-2.3-4.5
		c-0.4-1.5-1.2-2.8-2.1-4c0.4-2.3-0.4-4.1-1.9-5.8c-1.1-1.2-0.9-1.5,0.5-1.8C97.6,25.5,100.2,30.9,101.9,36.9z"/>
	<path class="st7" d="M97.8,68.6c1.5,0.1,2.2-0.6,2.4-2.2c0.1-1.2-0.5-2.5,0.6-3.5c0.3-0.3,0.1-1-0.6-1.1c-0.5-0.1-0.6-0.7-0.5-0.7
		c2.3,0.1,1.1-1.9,1.8-2.9c0.4,0.8,0.7,1.5,1,2.2c1.2-0.9,0.2-2.4,1-3.5c0.1,1.1,0.1,2.1,0.2,3c-0.5,3.8-1,7.6-3.1,11
		c-0.3,0.5-0.4,1.2-0.6,1.8c-1-0.4-2-1-2.9-1.7C97.3,70.1,97.5,69.4,97.8,68.6z"/>
	<path class="st8" d="M82.6,33.8c0.2,1.7,1.5,3.2,1.1,5.1c0,0.2,0.5,0.5,0.7,0.8c0.1,0.1,0.2,0.3,0.2,0.4c-0.5,2.5,0.3,5,0.1,7.5
		c-1.8,2.2-0.8,4.9-1.4,7.3c-0.3,1-0.2,2-1.6,1.3c-0.9-0.4-0.5-0.8-0.1-1.3c0.8-1.1,0.7-2.1-0.6-2.7c-0.4-0.2-1.2-0.1-0.6-0.9
		c0.3-0.4,0-1.1,0.8-1.2c0.9-0.1,0.3,1,0.8,1.1c0.7-3.9,0.8-7.8,0.6-11.7c-0.1-1.2-0.5-2.4-0.7-3.6C81.6,34.9,82,34.4,82.6,33.8z"/>
	<path class="st9" d="M97.4,70.8c1.4-0.1,2.2,0.6,2.7,1.8c-1.2,3.1-2.7,6-4.9,8.5c-1.5-0.3-1.1-1.5-1.3-2.4c0.1-0.7,0.5-1.4,0.8-2
		c0.9-1.6,1.9-3.1,1.9-5.1C96.6,71.2,96.7,70.7,97.4,70.8z"/>
	<path class="st10" d="M80.3,66.8c0.1-0.4,0.3-0.9,0.4-1.3c-0.5-1,0.4-1.3,0.9-1.8c0-0.1,0-0.3,0-0.4c0,0,0.2-0.1,0.2-0.1
		c0.2-0.5-0.4-0.4-0.5-0.6c-0.2-0.3-0.4-0.7,0-1c0.4-0.2,0.4-0.5,0.4-0.9c0.1,0,0.2-0.1,0.3-0.1c1,0.2,0.6-1.7,1.7-1.1
		c0.8,0.4,1.2,1.1,1.1,2c0,0.1,0,0.3-0.1,0.4c-0.7,2-0.7,2-0.1,3.3c0,0.4-0.2,0.8-0.4,1.1c-1,2.2-2.5,4.2-2.7,6.7
		c0,0.4-0.2,0.8-0.6,1.1c-0.2,0.1-0.4,0.1-0.6,0c-0.7-0.6-0.8-1.4-1-2.3c-0.1-0.9-0.2-1.9,0.5-2.5C80.6,68.5,80.3,67.6,80.3,66.8z"
		/>
	<path class="st11" d="M75,10.6c-0.2,1.1,1.3,2,0.4,3.1C73,8.8,69,5.3,64.3,2.5c2,0.3,4.1,0.1,5.7,1.5c0.3,1.1,1.8,0.9,2.2,1.8
		c0.5,0.8,1.1,1.7,1.8,2.4C74.3,9,75,9.6,75,10.6z"/>
	<path class="st12" d="M85.6,12.8c1.5,1.8,4,2.6,5.2,4.8c-0.7,0.6-0.6,1.2-0.1,1.9c0.7,1.1,1.3,2.3,2.1,3.4c0.5,0.6,1.1,1.3,0.7,2.2
		c-0.3,0.7-1-0.3-1.3,0.3C91,25,90.9,23.6,89.8,23c-0.1-0.1-0.2-0.3-0.3-0.5c-0.4-0.8-0.9-1.5-1.2-2.3c-0.8-1-1.5-2.1-1.7-3.3
		c-0.2-0.6-0.3-1.2-0.9-1.6c-0.2-0.1-0.3-0.2-0.5-0.3c-0.2-0.1-0.3-0.3-0.4-0.5C84.9,13.8,84,12.8,85.6,12.8z"/>
	<path class="st13" d="M93.3,25.3c-0.6-2.4-2.6-4-3.5-6.2c-0.2-0.5-0.8-1.1-0.2-1.6c0.2-0.2,0.8,0,1.2,0.1c1,0.9,2.1,1.8,2.5,3.2
		c-1.9,0.6-0.3,1.2,0.1,1.6c1.6,1.7,2.6,3.6,1.7,6C93.7,27.9,93.2,26.8,93.3,25.3z"/>
	<path class="st14" d="M81.7,56.1c0.4-0.1,0.7-0.2,1.1-0.2c-0.7-1.6,0.7-3.1,0.3-4.8c-0.3-1.3-0.3-2.8,1.4-3.5
		c1.4,2.1,0.4,4.3,0.4,6.4c0,1.2-0.6,2.4-0.9,3.6c-0.4,1.2-1.3,2-2.1,2.9c0,0-0.1,0-0.1,0C81.1,59.1,80.3,57.6,81.7,56.1z"/>
	<path class="st10" d="M69.6,91.8c0.1,0,0.3,0,0.4,0c0.4,0.4,0.4,0.9,0,1.3c-0.6,0.2-1.2,0.4-1.4,1.1c-0.2,0.5-0.3,1.1-0.5,1.7
		c-0.3,0.8-1.1,1.1-1.7,1.7c-0.6,0.6-1.7,1.1-1.2,2.3c-0.1,0.6-0.6,0.8-1.1,1c-0.3,0.1-0.6,0.1-0.9-0.1c-0.4-0.3-0.8-0.6-1-1.2
		c-0.4-0.8-0.4-1.5,0.7-1.6c2.1-0.3,3.1-1.9,3.5-3.5c0.4-1.5,1.3-2,2.3-2.8C69,91.6,69.3,91.7,69.6,91.8z"/>
	<path class="st15" d="M89.7,87.8c-1.2-1.4,0.8-1.7,1-2.6c0.1-0.6,1-1,1.5-1.5C91.6,83.2,91.4,84,91,84c-0.5,0-1.2,0.4-1.4-0.1
		c-0.2-0.4-0.2-1.2,0.4-1.5c0.8-0.6,0.8-2,2.1-2.1c1.2,0.5,2,1.3,1.8,2.7C92.9,84.9,91.4,86.4,89.7,87.8z"/>
	<path class="st16" d="M85.6,12.8c-1.1,0.4,0,1.2-0.3,1.8c-0.6,1.3-1.2,0.6-1.9,0c-1.1-1-1.8-2.6-3.3-3.2c-0.7-0.4-1.1-1.1-1.6-1.7
		c-0.3-0.6-0.7-1.4,0.5-1.5C81.4,9.7,83.7,10.9,85.6,12.8z"/>
	<path class="st17" d="M74.1,83.4c1-1,1-2.4,1.1-3.6c0.2-1.4,0.3-2.8,1.1-4.1c0.1,0,0.2-0.1,0.3-0.1c0.4,0.1,0.6,0.2,0.8,0.5
		c0.5,0.9,0,1.9,0.2,2.9c0.2,1.1-0.1,2.2-0.3,3.3c0,0.2-0.1,0.4-0.2,0.6c-0.5,0.8,0.1,2.4-1.1,2.5C74.9,85.7,74.7,84.2,74.1,83.4z"
		/>
	<path class="st18" d="M74.1,83.4c1.3-0.1,0.5,1.9,2.2,1.4c0.3-0.4-0.3-1.4,0.4-2c0.9,0.9,0.4,2.2,0.9,3.3c0.3,1,0.3,2-0.2,2.9
		c-0.9,0.5-2.1,0-2.9,0.8c-0.8-0.2-1.5-0.5-1.3-1.5c1.3-0.8,1.6-2,1-3.4C74,84.5,74.1,83.9,74.1,83.4z"/>
	<path class="st19" d="M69.6,93.2c0.5-0.3,0.4-0.9,0.4-1.4c0.5-1-0.4-3.3,2.2-2.2c0.8,0.3,0.5,1,0.6,1.5c-0.1,0.4-0.2,0.7-0.3,1.1
		c0,0.2-0.1,0.4-0.2,0.5c-0.2,0.4-0.6,0.8-0.8,1.2c-0.8,1.5-2.1,2.1-3.8,2c-0.1-0.7,0.1-1.3,0.4-1.8C68.6,93.7,69.1,93.4,69.6,93.2z
		"/>
	<path class="st20" d="M79.4,71.7c0.3,0.7,0.6,1.5,0.9,2.2c-0.5,1.1-1,2.2-2.3,2.5c-0.2,0-0.4-0.1-0.5-0.2c-0.3-0.3-0.6-0.8-1.2-0.5
		c0,0-0.1,0-0.1,0c-0.5-1.6,0.7-2.4,1.8-3.1c0.4-0.3,0.9-0.3,1-1C79.1,71.5,79.3,71.5,79.4,71.7z"/>
	<path class="st21" d="M76.4,97.7c-1.7,1.3-3.7,2.1-5.8,2.7c-0.5,0.1-1.1,0.4-1.4-0.2c-0.3-0.5,0.3-0.8,0.6-1
		c0.6-0.4,0.4-1.7,1.6-1.4c0.1,0,0.2,0.3,0.3-0.1c0-0.1,0.1-0.3,0.2-0.3c0.1-0.1,0.3-0.2,0.4-0.2c0.9-0.1,1.3-1.1,2.2-1.1
		C75.3,96.5,76,96.9,76.4,97.7z"/>
	<path class="st22" d="M64.2,100.7c0.3-0.3,0.6-0.6,0.9-0.9c0.2-0.6,0.7-1,1.3-1.1c0.5-0.1,0.9-0.1,1.1,0.5c0.1,0.6-0.3,0.7-0.7,0.9
		c0,0-0.1,0.1-0.1,0.1s0.1,0,0.1,0c0.3-0.1,0.6-0.1,0.8,0.3c0.1,0.3,0,0.6-0.2,0.8c-2.1,1-4.4,1.4-6.7,1.6c-0.9-1.9,0.7-1.5,1.6-1.7
		C62.9,101.1,63.7,101.4,64.2,100.7z"/>
	<path class="st23" d="M83.5,90.9c1.1,0.2-0.3,1.6,0.9,1.8c-1,1-2,2-3.5,2.3c-0.4,0.2-0.6,0-0.7-0.3c-0.1-1,0.4-1.8,0.8-2.6
		c0.1-0.2,0.3-0.3,0.5-0.4C82.2,91.7,82.5,90.4,83.5,90.9z"/>
	<path class="st24" d="M62.4,101.7c-0.4,0.8-2.2-0.6-1.8,1.3c-0.9,0.2-1.9,0.4-2.8,0.4c-1.1,0.1-1.7-0.2-0.8-1.3
		c0.8-0.7,2.2,0.8,2.7-0.9c1-0.2,1.5-1.4,2.6-1.4c0.6,0.1,1,0.3,1,1C63.2,101.3,62.7,101.3,62.4,101.7z"/>
	<path class="st23" d="M80.3,94.5c0.2,0.2,0.3,0.3,0.5,0.5c-1.1,1.5-2.8,2-4.4,2.7c-0.9-0.1-1.5-0.6-1.9-1.3c1.7-0.6,3.2-1.7,5-2.2
		C79.8,94.1,80.1,94.2,80.3,94.5z"/>
	<path class="st25" d="M79.4,71.7c-0.1,0-0.3,0-0.4,0c0.3-1.2-1.5-0.9-1.3-1.9c0.1-0.7,0.3-1.4,1-1.6c0.9-0.2,1.1-1,1.6-1.4
		c0.9,0.7,1.3,1.6,0.3,2.3C79.5,69.8,79.6,70.8,79.4,71.7z"/>
	<path class="st26" d="M67.4,101.3c0-0.3,0-0.7,0-1c0.2-1.3,0.8-2.4,2-3.1c0.8-0.4,1.7-0.6,2.4,0.1c0,0.1,0.1,0.2,0.1,0.3
		c0,0.1,0,0.3,0,0.4l0,0c-1.4-0.1-0.7,2.2-2.4,1.6c0.3,0.8,0.9,0.5,1.2,0.7C69.6,101,68.5,101.1,67.4,101.3z"/>
	<path class="st27" d="M79.1,8.3c-0.8,0.4-0.3,0.9-0.1,1.4c-0.4,0.6-1.1,0.7-1.8,0.7c-0.3-0.1-0.6-0.2-0.7-0.6c0.3-1.6-0.8-2-2-2.3
		C73.7,7.3,73.1,6.9,73,6c0.9-1.2,1.6,0.2,2.4,0.1C76.7,6.8,78.1,7.2,79.1,8.3z"/>
	<path class="st28" d="M93.8,82.9c0-1.3-1.6-1.6-1.8-2.7c0-0.1,0-0.3,0-0.4c0.6-0.5,1.2-1.1,1.9-1.4c0.1,0,0.2,0.1,0.3,0.1
		c0.3,0.9,0.2,1.9,0.9,2.7C95.1,82,94.1,82.2,93.8,82.9z"/>
	<path class="st29" d="M75.4,6.1c-0.7,0.3-1.5-0.8-2.2,0c-0.4,0.4-0.9,0.3-1.4,0c-0.7-0.5-1.4-1-2.1-1.5c-0.5-0.4-0.3-0.6,0.2-0.6
		C71.7,4.9,73.8,5,75.4,6.1z"/>
	<path class="st14" d="M59.7,101.2c0.5,0.9,0.4,1.5-0.8,1.3c-0.7-0.1-1.3-0.3-1.9-0.5c0.3-0.3,0.7-0.5,0.8-0.8
		c0.6-1.7,1-1.5,1.3,0.1C59.3,101.3,59.5,101.2,59.7,101.2z"/>
	<path class="st8" d="M81.7,30.7c0.9,0.7,1,1.7,0.9,2.7C82,32.6,79.7,32.3,81.7,30.7z"/>
	<path class="st30" d="M73.2,88.3c0.4,0.4,0.8,0.9,1.2,1.3c0.6,1.1-0.1,1.4-1,1.5c-0.8-0.4-0.4-1.5-1.1-1.9
		C72.4,88.7,72.7,88.4,73.2,88.3z"/>
	<path class="st31" d="M71.5,87.4c0.4-0.6,0.8-1.2,1.1-1.8c0.1,0.3,0.4,0.5,0.4,0.8C73.1,87.3,72.4,87.4,71.5,87.4z"/>
	<path class="st32" d="M72.3,89.2c1.3,0.1,0.7,1.1,0.8,1.7c-0.1,0-0.1,0.1-0.2,0.1c-0.1,0-0.2-0.1-0.2-0.1c-0.2-0.5-0.3-0.9-0.5-1.4
		C72.2,89.4,72.3,89.3,72.3,89.2z"/>
	<path class="st33" d="M53.6,102.5c0.4,0.1,0.7,0.2,0.6,0.5c0,0.1-0.3,0.3-0.4,0.3c-0.3,0-0.6-0.1-0.5-0.5
		C53.2,102.7,53.4,102.6,53.6,102.5z"/>
	<path class="st25" d="M81.6,63.7c-0.2,0.6-0.9,1-0.9,1.8C79.8,64.3,80.6,63.9,81.6,63.7z"/>
	<path class="st19" d="M69.6,91.8c-0.3,0.5-0.6,0.1-0.8,0c0.1-0.2,0.2-0.6,0.3-0.7C69.5,91,69.5,91.5,69.6,91.8z"/>
	<path class="st25" d="M81.3,61.5c0,0.4,0.1,0.7,0.5,0.9c0.2,0.3,0.2,0.6,0,0.9c0,0-0.1,0-0.1,0C81,62.8,80.3,62.3,81.3,61.5z"/>
	<path class="st34" d="M93.3,25.3c0.6,1,1.2,2.1,1.8,3.1c2.6,2.3,2.3,5.8,4,8.5c0.2,0.6-0.9,1.2,0.3,1.9c0.5,0.3-0.7,0.3-0.7,0.8
		c-0.2,0.1-0.4,0.2-0.6,0.2c-1.1-0.8-0.5-2.1-1.2-3c-0.4-3.1-2.4-5.5-4-8c-0.7-1.1-1.3-2.1-0.5-3.4C92.7,23.8,93,25.6,93.3,25.3z"/>
	<path class="st15" d="M99.2,60.1c-0.1,0.2-0.3,0.5-0.2,0.6c0.9,2.3-0.2,4.2-1.1,6.1c-0.1,0.1-0.2,0.1-0.3,0.2
		c-0.2-0.1-0.4-0.2-0.5-0.3c-0.4-0.8-0.9-1.6-1.5-2.3c-0.3-0.5-0.3-1,0.2-1.4c1.8-1.1-0.1-1.4-0.4-2.1c-0.1-0.3-0.1-0.6,0.2-0.9
		C96.8,59.3,98.1,58.1,99.2,60.1z"/>
	<path class="st34" d="M99.2,60.1c-1.2-1.1-2.4-0.1-3.5,0c-0.9-1-0.4-1.7,0.5-2.3c1-0.7,2.1-1.3,0.7-2.7c-0.5-0.5-0.1-1.1,0.2-1.6
		c0.6-0.7,1.2-1.2,2.1-0.6c0.8,2.1,0,4.2,0.3,6.3C99.6,59.6,99.5,59.9,99.2,60.1z"/>
	<path class="st35" d="M99.6,59.2c-0.7-2-0.3-4.2-0.5-6.3c-1.4-0.8-1.2-1.8-0.3-2.8c1-0.2,1.5,0.5,2.1,1.1c0.1,0.3,0.2,0.8,0.4,1
		c0.6,0.6,0.4,1.7,0.2,1.8C98.9,55.1,100.9,57.7,99.6,59.2z"/>
	<path class="st28" d="M97.4,66.8c0.1,0,0.3,0,0.4,0c0,0.6,0,1.2,0,1.8c0.3,0.8,0.1,1.6-0.4,2.2c-0.2,2.9-1.5,5.3-3.1,7.6
		c0,0,0,0,0,0c-1.5-2,0.2-3.9,0.6-5.6C95.4,70.8,96.5,68.8,97.4,66.8z"/>
	<path class="st5" d="M101,51.2c-1,0.3-1.4-0.9-2.2-0.9c-1.7-0.2-1.2-1.4-0.9-2.4c0.4-1.2,0.8-2.4,0.7-3.6c0.1-0.1,0.1-0.2,0.2-0.3
		c1.2-0.5,1.6,0.7,1.5,1.2C99.9,47.4,99.9,49.3,101,51.2z"/>
	<path class="st5" d="M98.3,39.6c0.2,0,0.3,0,0.5,0c0.7,1,0.7,2.1,0,3c-0.4,0.6-0.2,0.9,0,1.4c0,0,0,0,0,0c-0.2,0.2-0.3,0.5-0.4,0.8
		c-0.1,0.6-0.3,1.2-1,1.1c-0.7-0.1-0.9-0.7-1-1.3c-0.3-0.9,0.1-1.9,0-2.8c0.4-1.5,0.4-1.4,1.7-1.2c0.2,0,0-0.2,0-0.4
		C98,40.1,98,39.8,98.3,39.6z"/>
	<path class="st36" d="M102.7,52.4c-0.8-1.7-0.8-3.5-1.4-5.2c-0.1-0.2,0.3-0.7,0.6-0.8c0.4-0.2,0.6,0.1,0.9,0.5c0.7,1,1.3,2,0.5,3.2
		C102.9,50.8,102.9,51.6,102.7,52.4z"/>
	<path class="st37" d="M86.2,38.2c0.2-1.7-1.7-3.1-0.5-4.9c0.4-2,0.5-3.8-1.3-5.5c-1.1-1-0.2-2,0.9-2.6c0.9-0.7,1.7-0.8,1.8,0.6
		c0.1,0.5,0.2,1,0.5,1.4c0.5,0.5,0.7,0.4,0.8-0.3c0.2-1.5,0.9-0.9,1.6-0.4c0.1,0.2,0.2,0.3,0.3,0.5c0.5,1.6-1.4,2.6-1,4.1
		c-0.2,1,1.3,0.7,1.3,1.6c0.4,1.6-0.3,3.5,1.3,4.7c0.1,0.3,0.2,0.6,0.1,0.9c-0.5,0.6-0.2,1.8-1.2,2.2c-0.7,0-1.1-0.5-1.6-0.9
		c0-0.3,0.3-0.1,0-0.1c-0.1,0-0.1,0.1,0.1,0.2c0.6,0.7,1.2,1.4,0.1,2.1c-0.7,0.4-0.4,1.5-1.3,1.8c-0.2,0-0.4,0-0.6-0.1
		c-0.5-0.5-0.7-1-0.5-1.7c0-0.3,0.6-0.2,0.5-0.6c-0.1,0.1-0.2,0.1-0.4,0.2c-0.2,0-0.4-0.1-0.5-0.2C86.5,40.3,86.5,39.2,86.2,38.2z"
		/>
	<path class="st38" d="M77.2,10.2c0.6-0.4,1.2-0.5,1.8-0.5c0.4,0.5,0.9,0.9,1.3,1.4c3.1,3.1,4.9,6.9,6.2,11c-0.3,0.9-1.2,1-1.9,1.2
		c-1.7-0.9-2.3-2.5-2.8-4.2c0-0.1,0-0.3-0.1-0.4c-0.2-0.4,0.2-1-0.2-1.3c-2.2-1.7-2.9-4.4-4.4-6.6C77,10.5,77.1,10.4,77.2,10.2z"/>
	<path class="st39" d="M81.8,19c1,1.4,2,2.7,3.1,4.1c1,0.7,1.1,1.6,0.9,2.7c-1.6,0.5-1.7,1.3-0.5,2.4c1.8,1.6,1.9,3,0.5,5.2
		c-0.6,0.2-1.3,0.7-1.4-0.4c-0.7-0.5-1.1-1-0.4-1.8c0.8-1.1,0.9-2-0.5-2.7c0-1.2-1.1-2-1.3-3.1c0.7-1.4,0.7-1.4-1.1-2.6
		c-0.4-0.2-0.4-0.7-0.2-0.9C81.5,21,81.4,19.9,81.8,19z"/>
	<path class="st40" d="M83.5,57.9c0.2-2.6,1.1-5,1-7.7c-0.1-0.8-0.1-1.7-0.1-2.6c0-0.2,0.1-0.5,0-0.7c-0.7-2.5-0.8-4.9,0-7.4
		c0.4,0.3,0.9,0.6,1.3,0.9c0.1,0.1,0.2,0.3,0.3,0.5c0,0.5-0.1,0.9,0,1.4c0,0.2,0,0.4-0.1,0.6c-0.8,1.8-0.8,3.6,0.1,5.4
		c0.6,1.2,0.7,2.4,0.1,3.8c-0.6,1.6,0.2,3.5-0.7,5.2c-0.4,0.7-0.6,1.4-1.6,1.2C83.5,58.5,83.3,58.3,83.5,57.9z"/>
	<path class="st41" d="M77.2,10.6c0.4,0.2,0.9,0.4,1.1,0.7c0.9,2.1,1.7,4.1,3.6,5.6c0.5,0.4,1.2,1.3-0.2,1.7
		c-0.5,0.2-1.3,0.7-1.5-0.1c-0.4-2.2-2.7-3.4-3-5.7C77.1,12.1,76.1,11.4,77.2,10.6z"/>
	<path class="st42" d="M77.2,10.6c-0.5,0.7,0.9,1.5,0,2.2c-1.1-0.4-1.3-1.7-2.2-2.3c-0.8-0.5-1-1.4-1.3-2.2c0.4-0.5,1-0.5,1.6-0.3
		c0.8,0.3,1.3,0.9,1.5,1.7c0.2,0.1,0.3,0.3,0.5,0.4C77.2,10.3,77.2,10.5,77.2,10.6z"/>
	<path class="st43" d="M82.1,25.3c1.1,0.8,2.3,1.5,1.3,3.1c-0.6-0.7-1.2-1.3-1.8-2C81.2,25.8,81.6,25.6,82.1,25.3z"/>
	<path class="st44" d="M85.7,40.9c0-0.1,0-0.3,0-0.4c0.2-0.8,0.3-1.5,0.5-2.3c0.6,1,1.5,1.8,0.9,3.1c-0.1,0.1-0.1,0.1-0.2,0.2
		C86.4,41.6,86,41.3,85.7,40.9z"/>
	<path class="st10" d="M84,31.2c-0.2,0.7,0.2,1.2,0.4,1.8c-0.3,0-0.6,1-0.9,0.2c-0.3-0.8-0.9-1.6-0.6-2.5C83,30.4,83.7,30.8,84,31.2
		z"/>
	<path class="st16" d="M89.8,78.4c-1.3,0.6-1.6,1.3-1.6,3c-0.1,1.6-1.6,3.5-1.5,5.2c0.2,2.4-1.5,2.6-2.8,3.5
		c-1.3-0.3-1.4-0.8-0.7-2.8c1,0.1,1.5-0.3,1.5-1.3c0-1.6,0.7-3,1.7-4.3c-0.8-0.5-2,1.5-2.3-0.5c0.1-0.6,0.2-1.2,0.3-1.8
		c0.1-0.5,0.3-0.9,0.5-1.4c0.2-0.7-0.1-1.4,0.2-2.1c0.5-0.7,0.9-1.2,1.8-0.4c0,0.6,0,1.1-0.5,1.5c0.6-0.3,0.5-0.9,0.6-1.4
		c0-0.7,0.4-0.9,1-0.9c0.2,0.2-0.1-0.1,0.2,0c1,0.4,1.3,1.1,0.9,2.1c0.5-0.9,1.1-1,1.8-0.1C91.1,77.6,90.4,78,89.8,78.4z"/>
	<path class="st15" d="M89.8,78.4c-0.1-0.8,0.9-1,0.9-1.8c0-0.1,0-0.2,0-0.3c0.5-1,0.9-2.1,1.6-3C94,73,94,71.1,95,70.1
		c0.6-0.5,1-1.2,1.1-2c0.1-0.7,0.2-1.5,1.3-1.3c0,0,0,0,0,0c0.6,2.1-1,3.6-1.5,5.3c-0.6,2.1-1.6,4-1.6,6.3c-0.6,0.6-1.1,1.6-2.2,1.3
		C92.1,77.9,90.2,79.4,89.8,78.4z"/>
	<path class="st45" d="M83.5,87.4c-0.1,0.9-0.6,1.9,0.5,2.7c-0.2,0.3-0.3,0.6-0.5,0.9c-0.7,0.1-1,1-1.8,0.9
		c-0.7-0.6-1.4-0.2-2.1-0.1c-0.9,0.1-1.7,0.1-1.8-1.1c0.1-0.6,0.4-1,1-1.2c2,0.1,2.5-1.8,3.6-2.8c0.7-0.5,0.9,0,1.2,0.5
		C83.5,87.2,83.5,87.3,83.5,87.4z"/>
	<path class="st46" d="M83.9,65.9c0.2-0.3,0.3-0.6,0.5-0.9c0.8-2.5,1.6-5.1,3.6-7.1c0.4-0.3,0.7-0.7,0.6-1.1
		c-0.4-2.8,0.6-5.5,0.6-8.3c0-1.4-1.4-2.6-1.1-4.2c1.3-0.9,1.4,0.6,2.1,1c0.1,0.2,0.2,0.3,0.3,0.5c0.3,0.7,0.7,1.4,1.2,1.9
		c0.2,0.2,0.4,0.4,0.6,0.7c0.2,0.2,0.3,0.5,0.4,0.8c-1.3,4.8-1.9,9.8-4.7,14.1c-0.8,1.2-0.2,2.6-0.3,3.9c-0.1,2.5-0.2,2.6-2.7,2.1
		C84.8,68.3,84.1,67.2,83.9,65.9z"/>
	<path class="st47" d="M83.5,57.9c0.6,0.6,1.1,0.6,1.3-0.3c0.3-1.4,1.2-2.7,0.5-4.3c-0.3-0.7-0.5-1.3,0.5-2c1-0.7,0.1-2.1-0.3-2.8
		c-1.2-2.2-1.1-4.2,0.2-6.3c1.3,0.1,1.6,0.8,1.3,1.9c-0.2,0.8-0.4,1.6-0.1,2.4c0.1,0.2,0.1,0.4,0.2,0.6c0.2,4.3,0.4,8.5-0.8,12.7
		c-0.3,1-0.5,2.1-2,1.9c0,0-0.1-0.1-0.1-0.2c0-0.1,0-0.1,0-0.2c0.1-0.9-0.4-1.4-1.2-1.9c-0.1,0.7-0.2,1.4-0.3,2
		c-1,0.3-0.7-0.9-1.2-1C81.8,59.4,82.9,58.8,83.5,57.9z"/>
	<path class="st43" d="M84.4,61.5c1.3,0.2,1.3-0.9,1.5-1.6c0.5-1.8,0.9-3.5,0.8-5.4c-0.1-2.6,0-5.1,0-7.7c1.5-0.7,1.9,0,2,1.4
		c0.1,2.6,0.4,5.2-0.5,7.8c-0.3,0.8,0.5,1.5,0.3,2.4c-1.9,0.8-1.5,3-2.6,4.4c-0.5,0.6-0.8,1.6-1.4,2.3
		C82.7,63.9,83.4,62.7,84.4,61.5z"/>
	<path class="st48" d="M83.9,65.9c1.5,0.8,1.4,2.2,1.3,3.6c-0.3,1.4-1.3,2.5-2,3.8c-0.8,0.6-1.4,0.3-2.1-0.2
		c-0.3-0.5-1.3-0.9-0.8-1.4c1.7-1.4,1.8-3.5,2.8-5.3C83.3,66.2,83.7,66.1,83.9,65.9z"/>
	<path class="st19" d="M77.7,76.2c1.5,0,1.4-1.9,2.7-2.2c0.1,0,0.3,0,0.4,0c0.7,0.4,1,0.9,1.1,1.7c-0.2,0.7-0.9,1.3-1,2
		c-0.8,0.3-1.9,0.2-1.7,1.6c-0.1,1.6-0.5,2.9-2.3,3.2c0-1.2,0.7-2.3,0.4-3.6C77.6,78,77.5,77.1,77.7,76.2z"/>
	<path class="st49" d="M81.7,75.8c-0.3-0.6-1-1-0.9-1.8c0.2-0.3,0.3-0.6,0.5-0.9c0.6-0.2,1.2,0.5,1.8,0c1.5,0.6-0.5,1.6,0.3,2.2
		c-0.1,0.4-0.3,0.8-0.7,1c-0.3,0.1-0.6,0-0.9-0.2C81.8,75.9,81.7,75.8,81.7,75.8z"/>
	<path class="st50" d="M81.7,63.3c0-0.3,0-0.6,0-0.9c0.5,0.3,1.1,0.7,0.7,1.3C82.2,64,82,63.3,81.7,63.3z"/>
	<path class="st51" d="M75.4,8.4c-0.6,0-1.2,0-1.8,0c-1-0.4-1.4-1.3-1.8-2.2c0.5,0,0.9,0,1.4,0c0.5,0.5,0.9,1.1,1.7,1
		C75.2,7.5,75.6,7.8,75.4,8.4z"/>
	<path class="st45" d="M86.2,22.2c-1.2-2.6-2.4-5.2-3.6-7.8c-0.4-0.8-0.9-1.4-1.9-1.7c-0.9-0.2-0.7-1-0.3-1.6c2,0.3,2.4,2.3,3.6,3.4
		c0.6,0.5,0.8,0.7,1.4,0.1c0.1,0,0.3,0,0.4,0c0.5,0.4,0.4,1.1,0.9,1.4c0.1,0.1,0.3,0.3,0.4,0.4c0.4,1.3,1,2.5,1.8,3.5
		c-0.2,1,0.1,1.7,0.9,2.2c0,0.1,0,0.3,0,0.4c0.1,0.7-1.4,1.4,0.4,2c0.8,0.3,0.9,1.6,0.1,2.4c-0.3-0.2-0.6-0.4-1.1-0.7
		c-0.2,0.7,0.7,1.8-0.5,2.1c-0.9,0.2-0.9-0.4-1-1C87.1,25.8,86.7,24,86.2,22.2z"/>
	<path class="st52" d="M90.2,27.2c0.1-1.5,0.3-3-2.5-2.7c1-0.8,1.5-1.3,2.1-1.8c1.9-0.1,1.5,2.1,2.7,2.7c-0.3,2.7,1.8,4.4,3,6.3
		c1.2,1.7,1.5,3.5,1.9,5.3c-0.1,0-0.2,0.1-0.3,0.1c-1.9-1.8-3.1-4-4.5-6.2c-0.2-0.3-0.1-0.8-0.5-0.9C90.8,29.5,90.4,28.3,90.2,27.2
		L90.2,27.2z"/>
	<path class="st52" d="M89.8,22.2c-1.1-0.4-1.7-1-0.9-2.2C89.1,20.7,89.5,21.5,89.8,22.2z"/>
	<path class="st53" d="M87,16.4c-0.1,0-0.3,0-0.4,0c-0.7-0.5-0.9-1-0.5-1.8C86.8,15.1,87,15.7,87,16.4z"/>
	<path class="st16" d="M86.2,14.6c-0.1,0.6,0.1,1.2,0.5,1.8c-1.2-0.1-0.8-1.1-0.9-1.8C85.9,14.6,86,14.6,86.2,14.6z"/>
	<path class="st32" d="M69.6,97.2c-0.1,1.5-1.8,1.9-2.2,3.1c-0.3,0.1-0.6,0.3-0.9,0.4c-0.2-0.1-0.4-0.2-0.4-0.4
		c0.4-0.3,0.8-0.5,1.4-1c-1.1-0.4-1.6,0.3-2.3,0.5c-0.9-1.5,0.5-2,1.2-2.8c0.4-0.4,1.2-0.5,1.5-1.2c1.2-0.7,2.9-0.7,3.6-2.3
		c0.5-0.3,1-0.1,1.5,0.2c0.4,0.3,0.5,0.8,0.1,1.1C71.8,95.5,70.9,96.7,69.6,97.2z"/>
	<path class="st54" d="M62.4,101.7c0.1-0.5,0.5-0.8,0.9-1c0.3,0,0.6,0,0.9,0C64.1,101.9,63.1,101.5,62.4,101.7z"/>
	<path class="st55" d="M69.6,93.2c-0.3,0.6-0.7,0.9-1.4,0.9C68.4,93.3,68.6,92.7,69.6,93.2z"/>
	<path class="st49" d="M76.8,82.5c1.1-0.9,2.2-1.9,1.8-3.6c0.7-0.2,0.9,0.4,1.1,0.8c0.2,0.5,0,1-0.2,1.5c-0.2,0.5-0.4,0.9-0.6,1.4
		c-1.1,0.4-0.5,1.2-0.6,1.9c-0.2,0.7,0.1,1.8-1.1,2c-0.7-1.1-0.4-2.4-0.5-3.6C76.7,82.7,76.7,82.6,76.8,82.5z"/>
	<path class="st56" d="M77.7,76.2c0.2,1,1,2.1-0.5,2.7c-0.7-0.9,0.3-1.8,0-2.7C77.3,76,77.5,76,77.7,76.2L77.7,76.2z"/>
	<path class="st19" d="M77.7,76.2c-0.2,0-0.3,0-0.5,0c-0.3-0.1-0.6-0.3-0.8-0.4C77.2,74.5,77.3,75.9,77.7,76.2z"/>
	<path class="st57" d="M77.2,86.5c0.8-0.5,0-1.7,0.9-2.2c0.1,0,0.2,0.1,0.3,0.1c0.9,0.8-0.3,1.8,0.3,2.7c0.1,0.1,0.1,0.2,0.1,0.3
		c-0.1-0.2-0.2-0.4-0.3-0.5c-0.1-0.8,0.4-1.5,0.7-2.2c0.1-0.3,0.3-0.5,0.5-0.7c0.5-0.6,0.9-1.5,1.9-1c0.8,0.4,0.5,1.2,0.3,2
		c0,0.2-0.1,0.4-0.1,0.6c0,0.2,0,0.4-0.1,0.6c-1.3,0.9-1.4,2.7-2.8,3.6c-0.4,0.2-0.7,0.4-0.9,0.9c-0.2,0.1-0.3,0.1-0.5,0
		c-0.4-0.4-0.4-0.8-0.4-1.3C77,88.2,77.6,87.4,77.2,86.5z"/>
	<path class="st58" d="M77.2,89.1c0.5,0.3,0.5,0.9,0.5,1.4c-0.1,0.1-0.2,0.1-0.3,0.2c-1,0.1-1.7,0.7-2.3,1.5
		c-0.4,0.7-0.8,1.4-1.8,1.3c-0.6-0.2-0.8-0.6-1-1.1l0,0c-0.3-0.8,0.8-0.7,0.9-1.3c0,0,0,0,0,0c0.8-0.1,1.3-0.4,1.3-1.3
		c0.9-0.2,0.8-1.1,1.3-1.6C76.5,88.1,76.3,89.3,77.2,89.1z"/>
	<path class="st59" d="M72.3,92.3c0.4,0.2,0.7,0.5,0.9,0.9c0.3,0.5-0.1,0.7-0.5,0.9c-0.4-0.2-0.9-0.3-1.3-0.5
		C71.3,92.9,72,92.7,72.3,92.3z"/>
	<path class="st59" d="M73.2,90.9c0.1,0.7-0.6,0.9-0.9,1.3c-0.9-0.8,0.4-0.9,0.4-1.3C72.8,90.9,73,90.9,73.2,90.9z"/>
	<path class="st60" d="M77.7,90.5c0.1,0,0.3,0,0.4,0c0.1,1,0.7,0.9,1.5,0.6c0.8-0.2,1.8-0.7,2.1,0.7c-0.1,0-0.3,0-0.4,0
		c-1.2,0.4-1,1.9-1.8,2.6c-1.6,0.6-2.9,2.3-4.9,1.8c-0.7,0.6-1.1,1.6-2.3,1.3c0.3-0.5,0.2-1-0.2-1.5c1.2-1.2,2.2-2.8,3.9-3.3
		c0.7-0.2,0.7-0.5,0.5-1C76.3,90.9,77,90.7,77.7,90.5L77.7,90.5z"/>
	<path class="st26" d="M72.3,96.3c0.6,0.4,0.6,0.9,0,1.3c-0.1,0-0.3,0-0.4,0c0,0-0.1-0.1-0.1-0.1C71.5,97,71.2,96.4,72.3,96.3z"/>
	<path class="st26" d="M71.8,98.1c0.3,0.1,0.7,0.1,1,0.2c-0.1,0.2-0.1,0.4-0.3,0.5C71.9,99,71.9,98.5,71.8,98.1
		C71.8,98.1,71.8,98.1,71.8,98.1z"/>
	<path class="st61" d="M66,100.3c0.1,0.1,0.3,0.3,0.4,0.4c-0.3,0.4-0.7,0.6-1,0.2C65.2,100.7,65.7,100.5,66,100.3z"/>
	<path class="st45" d="M79.4,94.5c0-1.3-0.8-3.1,1.8-2.6c0.1,1-0.5,1.8-0.9,2.7C80,94.5,79.7,94.5,79.4,94.5z"/>
	<path class="st38" d="M72.3,96.3c-0.5,0.3-0.4,0.8-0.5,1.3c-0.7-0.6-1.5,0-2.2-0.4c0.9-1.2,1.9-2.2,3.4-2.8c0,0,0-0.1-0.1-0.2
		c0-0.1-0.1-0.1-0.2-0.1c0.2-0.3,0.3-0.6,0.5-0.9c0.9,0,1.1-0.8,1.5-1.4c0.7-0.9,1.4-2.3,3-1.3c-0.1,0.1-0.3,0.2-0.3,0.3
		C77.1,94,73.8,94.3,72.3,96.3z"/>
	<path class="st62" d="M75.4,8.4c-0.2-0.4-0.3-0.9-0.5-1.3c0.7,0.8,3.6,0.2,1.8,2.7C76.1,9.4,75.7,9,75.4,8.4z"/>
	<path class="st52" d="M98.3,39.6c0,0.6,0,1.2,0,1.8c-0.7-0.1-0.3-1-1.1-1c-0.2,0.5-0.4,1-0.7,1.5c-0.1-0.1-0.2-0.1-0.3-0.2
		c-0.5-1.8-1-3.5,1.1-4.7c0,0,0.1,0,0.1,0C98.4,37.6,97.6,38.8,98.3,39.6z"/>
	<path class="st63" d="M97.4,53.9c-0.1,0.4-0.6,0.8-0.1,1.2c0.4,0.3,1.7,0.1,1.2,1.1c-0.4,0.7-0.5,2-1.7,2.1c-1.3,0.2-1.3,1-1.2,1.9
		c0,0.3,0,0.6-0.1,0.9c0.3,0.7,1.1,1.3,0.4,2.2c-0.5,0.3-0.5,0.6,0,0.9c0.3,1.2,0.5,2.4-1.1,2.8c-1.5-1.5-1.3-3.4-1.5-5.3
		c0.5-1.2,1.4-2.4,0.7-3.9c0.8-1.3,2-2.4,2-4.1C96.5,53.5,97,52.9,97.4,53.9z"/>
	<path class="st34" d="M94.7,66.8c1.4-0.4,0.8-1.8,1.3-2.7c0.7,0.8,1.5,1.5,1.4,2.7c-0.8,0.3-0.6,0.9-0.7,1.6
		c-0.1,0.8-0.4,1.8-1.5,2c-1-0.1-1.1-0.7-1.1-1.5c0.3-0.6,0.2-1.3,0.4-1.9C94.6,67,94.6,66.9,94.7,66.8z"/>
	<path class="st34" d="M96,63.2c0.2-0.8-1-1.3-0.4-2.2c1.1-0.5,1.5,0.2,1.7,1C97.6,63.1,96.9,63.3,96,63.2z"/>
	<path class="st64" d="M97.4,53.9c-0.4-0.5-0.9,0.1-1.3,0c-0.2,0-0.4-0.2-0.6-0.3c-0.1-0.2-0.2-0.4-0.2-0.6c0.3-2.2,0.2-4.4-0.7-6.5
		c-0.8-1.9-0.1-3.3,1.2-4.6c0.2-0.1,0.4-0.1,0.6,0c0,0,0.1,0.1,0.1,0.1c0.9,1.1-0.5,2.7,0.8,3.7c0.9-0.1,0.3-1.7,1.4-1.5
		c0.3,1.1,0.6,2.1-0.2,3.3c-0.5,0.7-1.1,2,0.2,2.9c-0.1,0.9-0.2,1.9,0.4,2.7C98.3,52.8,97.9,53.4,97.4,53.9z"/>
	<path class="st65" d="M92,48.5c-0.2-0.1-0.3-0.3-0.5-0.4c-0.5-0.7-0.8-1.6-1.3-2.2c0.3-1.5-1.4-2.5-0.9-4c1.6-0.8-0.3-1.5,0-2.2
		l0,0c0.8-0.1,1.2,0.6,1.8,0.9c0.6,0.2,1.2,0.5,1.6,1c-0.1-1-0.7-1.8-0.7-2.8c0-0.3,0-0.6,0-0.9c0.3-1.2-0.1-2.1-0.7-3.1
		c-0.5-0.7-1.1-1.6,0.4-1.9c1.9,0.7,2.5,2.6,3.6,4c0.7,1,0,2.7-0.4,4.1c-0.1,0.5-0.5,1.1-0.5,1.6c0,0.4,0,0.9-0.3,1
		c-2.1,1-0.9,2.8-1.2,4.3C92.7,48.3,92.6,48.7,92,48.5z"/>
	<path class="st66" d="M88.4,58.3c-1.6-1.1-1.1-2.6-0.5-3.9c0.7-1.6,0.8-3,0-4.5c-0.3-0.5-0.4-0.9,0-1.4c1.1-1.6-0.1-1.7-1.2-1.8
		c0,0,0,0,0,0c-0.8-1.6,0.4-2.3,1.4-3.1c0.1,0,0.3,0,0.4,0c0.1,0.1,0.1,0.2,0.1,0.3c0,0.1-0.1,0.1-0.1,0.1c0.4,1.2,0.3,2.5,1.4,3.4
		c0.5,0.5,0.5,1,0.1,1.6c-0.2,0.2-0.5,0.6-0.4,0.7c1.4,2-1.2,3.9-0.2,6C89.6,56.6,89.6,57.8,88.4,58.3z"/>
	<path class="st67" d="M90.2,27.1c0.3,1.7,2.6,1.8,2.7,3.6c0.6,1.1-0.1,1-0.8,0.9c-0.9-0.3-1.9,0.7-2.8,0
		C88.3,29.8,90.5,28.7,90.2,27.1z"/>
	<path class="st68" d="M91.5,32.9c-0.9,0.9-0.1,1.5,0.5,2c1.2,0.9,0.5,2.1,0.6,3.1c-0.2,0-0.4-0.1-0.6-0.1c-2.5-1.1-1.4-3.1-1.3-4.9
		c-0.1-0.7,0.3-0.7,0.8-0.6c0.1,0.1,0.2,0.2,0.2,0.4C91.6,32.8,91.6,32.9,91.5,32.9z"/>
	<path class="st69" d="M86.2,22.2c1.5,1.5,1.4,3.5,1.3,5.4c-0.8-0.4-1-0.9-0.7-1.8c0.1-0.5-0.1-0.6-1.1,0c-0.3-0.9-0.6-1.8-0.9-2.7
		C84.9,22.3,85.8,22.6,86.2,22.2z"/>
	<path class="st44" d="M88,43.6c0.4,1.4-2.1,1.6-1.4,3.1c-0.7-0.7-0.6-1.5-0.2-2.2c0.7-1.1,0-1.7-0.7-2.3c-0.1-1.1,1-0.4,1.3-0.9
		c0,0,0.1,0,0.1,0c0.1,0,0.3,0,0.4,0.1c0.1,0.1,0.1,0.2,0.1,0.3c0,0.1-0.1,0.1-0.1,0.1C87.7,42.4,87.8,43,88,43.6z"/>
	<path class="st68" d="M92,38.7c1.2,0.9,1.3,2.2,1.3,3.7c-0.9-0.6-1.8-1-2.2-1.9C91.5,40,90.9,38.9,92,38.7z"/>
	<path class="st37" d="M88.4,44.1c0-0.1,0-0.3,0-0.4c0.6-0.5,0-1.5,0.9-1.8c-0.1,0.8,0.6,1.4,1,1.9c0.7,0.8,0.4,1.4-0.1,2.1
		C89.6,45.3,89,44.7,88.4,44.1z"/>
	<path class="st65" d="M91.5,32.5c-0.4,0-0.7,0.1-0.9,0.4c-0.7-0.2-1.3-0.5-1.4-1.3c0.9,0.1,1.7-0.9,2.7-0.4
		c0.2,0.4,0.8,0.8,0.3,1.4C92.1,32.8,91.8,32.7,91.5,32.5z"/>
	<path class="st37" d="M87.5,41.8c0-0.1,0-0.3,0-0.4c0.2-0.5,0.5-0.9,1.3-1.2C88.3,40.9,89.1,42.2,87.5,41.8z"/>
	<path class="st70" d="M88,33.8c0.5,0.8,0,1.3-0.1,1.8C87.3,35,87.5,34.5,88,33.8z"/>
	<path class="st65" d="M89.3,39.6c-0.5-0.1-0.9-0.2-0.8-0.8c0-0.1,0.2-0.3,0.2-0.3C89.3,38.7,89.3,39.2,89.3,39.6
		C89.3,39.6,89.3,39.6,89.3,39.6z"/>
	<path class="st47" d="M87,41.4c0.1,1.1-1.2,0.1-1.3,0.9c-0.7-0.5-0.1-0.9,0-1.3C86.2,41.1,86.6,41.3,87,41.4z"/>
	<path class="st71" d="M82.5,76.2c0.2-0.3,0.4-0.6,0.6-0.9c1-0.4,1.5-1.2,1.4-2.3c0-0.2,0.1-0.4,0.2-0.6c1-0.9,2.6-1.1,2.9-2.8
		c0.1-0.3,0.5-0.4,0.9-0.3c0.7,0.7,1.1,1.5,1.2,2.5c-0.1,1-0.8,1.7-1.3,2.5c-0.1,0.2-0.3,0.3-0.5,0.4c-0.6,0.1-0.9,0.4-0.9,0.9
		c-0.1,0.2-0.3,0.2-0.4,0c-0.8-0.8-1,0-1.4,0.4c-0.3,1.3-1.4,0.9-2.3,1.1c-0.2,0-0.4-0.1-0.5-0.2C82.3,76.8,82.3,76.5,82.5,76.2z"/>
	<path class="st45" d="M84.4,81.1c0.8,1.1,1.2-0.1,1.7-0.4c0.3-0.2,0.6-0.5,0.9-0.2c0.4,0.3,0.2,0.7,0,1c-1.3,1.6-1.7,3.6-2.1,5.6
		c-0.3,1.3-0.9,0.8-1.5,0.2c0,0,0,0,0,0c0.2-1.3,0.3-2.5-0.1-3.8c-0.3-1-0.2-1.9,0.7-2.5C84.2,81.1,84.3,81.1,84.4,81.1z"/>
	<path class="st45" d="M83,77.2c0.6-0.8,1.8-0.1,2.3-1c-0.2,0.6,0.5,1.2-0.1,1.8c-0.3,0.4-0.7,0.7-0.4,1.3c-0.1,0.6,0.2,1.3-0.4,1.8
		c0,0,0,0,0,0c-0.4-0.2-1-0.2-1.2-0.8c-0.4-0.8-0.3-1.7-0.3-2.6C82.8,77.5,82.8,77.3,83,77.2z"/>
	<path class="st72" d="M87.9,74.8c0-0.1,0-0.3,0.1-0.4c0.9-0.2,1.2-1,1.8-1.5c0.6-0.4,1.3-0.2,1,0.3c-0.5,1.2,0.3,2.3-0.2,3.4
		c0,0,0,0,0,0c-1.4-1.1-1.2,0.9-2.2,1.1C88.5,76.7,89.2,75.5,87.9,74.8z"/>
	<path class="st37" d="M84.8,79.3c-0.3,0-0.6,0-0.6-0.4c0-0.6,0.3-0.9,1-0.9C85.1,78.4,84.9,78.9,84.8,79.3z"/>
	<path class="st68" d="M86.6,75.7c0.1,0,0.3,0,0.4,0c0.1,0.6,0.1,1.1-0.6,1.5C85.8,76.7,86.5,76.2,86.6,75.7z"/>
	<path class="st16" d="M90.7,76.6c0-0.3,0-0.8-0.1-0.8c-1.7-0.5-0.8-1.2-0.2-1.9c0.2-0.2,0.2-0.5,0.3-0.9c-1.1,0.4-1.2,2.1-2.7,1.4
		c0.5-0.7,0.9-1.5,1.4-2.2c0.4-0.5,0.1-1,0.1-1.5c0.5-3.2,1.7-3.7,4.3-1.8c1,1.9-1.1,3-1.3,4.6C92.1,74.7,91.8,75.9,90.7,76.6z"/>
	<path class="st73" d="M92.5,73.5c-0.9-0.7-0.1-1.3,0.2-1.9c0.4-0.8,1.3-1.5,1.1-2.6c0.1,0,0.2-0.1,0.2-0.1c0.1,0.1,0.2,0.1,0.2,0.2
		c0.3,0.4,0.6,0.9,0.9,1.3C94.3,71.4,94.9,73.8,92.5,73.5z"/>
	<path class="st60" d="M83.4,80.2c0.3,0.3,0.6,0.6,0.9,0.9c-0.5,0.8-0.9,1.6-0.4,2.7c0.5,1.1,0.6,2.5-0.5,3.5
		c-0.3-0.3-0.6-0.6-0.9-0.9c-0.9,0.3-0.6-0.6-0.9-0.9l0,0c0.3-1.4,0.3-2.7-0.1-4.1C81.2,79.8,82,79.5,83.4,80.2z"/>
	<path class="st74" d="M81.7,85.6c0.3,0.3,0.6,0.6,0.9,0.9c-0.4,0.5,1,2.4-1.2,1.7c-0.1,0-0.5,0.4-0.5,0.6c0.2,2.1-0.9,1.2-1.9,0.8
		C79.5,88,80.1,86.4,81.7,85.6z"/>
	<path class="st68" d="M84.8,73.1c0.1,1.3,0.7,2.9-1.7,2.3c-0.8-0.8,0.7-1.5,0-2.3c0.3-1.4,1.1-2.6,2.2-3.5c0.5-0.6,1.1-2.5,1.6,0.2
		c1.1-2.2-0.5-4.5,0.7-6.5c0.9-0.9,1.8-1.8,2-3.1c0.1-0.4,0.3-0.6,0.8-0.5c1.3,1.5,1.3,4.2,0,6.3c-0.5,0.8-0.8,1.5-1,2.4
		c-0.2,0.4-0.4,0.8-0.8,1.1c-0.9,1.4-1.6,2.9-3.5,3.2c-0.7,0.1-0.7,0.6-0.7,1.1C84.2,73.4,84.2,72.9,84.8,73.1z"/>
	<path class="st26" d="M88.8,68.6c0-1,0.2-1.8,0.9-2.8c1.2-1.8,1.7-4,0.5-6.1c0-0.1,0-0.2,0-0.3c0.4-0.6,0.3-1.2,0.3-1.9
		c1.3-2.7,3-5.3,1.9-8.5c-0.1-0.2-0.3-0.3-0.4-0.5c0.4-0.2,0.5-0.5,0.5-0.9c1.9,0.2,2.8,1.2,2.8,3c0,1,0.1,1.9,0.4,2.8l0,0
		c0.1,0.8-1,1.4-0.3,2.5c0.6,1-1.2,1.1-1.2,2c0,0.5-0.2,0.8-0.5,1.1c-0.3,0.3-0.7,0.5-0.9,0.9c-0.9,1.9-0.1,3.9-0.6,5.8
		C91.7,67.4,90.7,68.5,88.8,68.6z"/>
	<path class="st75" d="M92.4,49c0.2,0.2,0.6,0.3,0.7,0.5c0.7,1.6-1,7.3-2.4,8.4c0.6,0.8-0.2,1.2-0.5,1.8c0,0,0,0,0,0
		c-0.7,1.3-0.9,3-2.7,3.6c1.9-3.1,3.1-6.4,3.5-10C91.1,51.8,92.4,50.6,92.4,49z"/>
	<path class="st37" d="M90.2,45.9c0.9,0.5,1.2,1.3,1.3,2.2C90.6,47.6,90.4,46.8,90.2,45.9z"/>
	<path class="st49" d="M83,77.2c0,0.1,0,0.2,0,0.4c-0.4,0.9-1.2,1.3-1.9,1.9c-0.5-0.1-0.6-0.5-0.7-1c0-0.3,0.2-0.6,0.4-0.9
		c-0.5-1,0.2-1.4,0.9-1.8c0,0,0,0,0,0c0.3,0.4,0.4,1,0.8,1.3C82.7,77.1,82.8,77.1,83,77.2z"/>
	<path class="st76" d="M80.8,77.5c0,0.3,0,0.6,0,0.9c-0.4,0.5-0.2,1.6-1.4,1.4c-0.3-0.3-0.6-0.6-0.9-0.9
		C78.6,77.3,79.7,77.4,80.8,77.5z"/>
	<path class="st77" d="M82.5,77.1c-1,0-0.8-0.7-0.8-1.3c0.3,0.2,0.5,0.3,0.8,0.5C82.5,76.5,82.5,76.8,82.5,77.1z"/>
	<path class="st71" d="M91.5,32.5c1.2-0.1,0.3-0.9,0.5-1.3c0.5,0.2,0.9,0.4,0.9-0.4c1.8,1.9,2.9,4.2,4.4,6.3
		c-1.3,1.4-0.8,3.2-0.9,4.8c-0.1,0-0.3,0-0.4,0.1c-0.6,0.7-1,1.7-2.2,0.9c0.1-0.8-0.3-1.6,0.7-2.3c1.4-1-1.6-0.8-0.6-1.6
		c0.8-0.6,1.8-1.4,1-1.9c-1.5-1-1.5-3.1-3.3-3.6c-0.1,0-0.1-0.3-0.1-0.4C91.5,32.8,91.5,32.6,91.5,32.5z"/>
	<path class="st42" d="M79.4,79.8c0.7-0.2,0.8-1,1.4-1.4c0,0.4,0.1,0.7,0.4,0.9c0.1,2.2-0.3,2.8-1.7,3c-0.4-0.3-0.3-0.8-0.5-1.2
		C79.1,80.7,79.3,80.2,79.4,79.8z"/>
	<path class="st78" d="M78.1,84.2c-0.4-0.8-0.7-1.5,0.5-1.8c0.2-0.1,0.4-0.1,0.6,0c0.3,0.5,0.1,1-0.2,1.5
		C78.7,84.2,78.5,84.4,78.1,84.2L78.1,84.2z"/>
	<path class="st79" d="M79.1,82.5c-0.2,0-0.3,0-0.5,0c0.1-0.4,0.3-0.9,0.4-1.3c0.4,0.2,0.4,0.6,0.5,1C79.4,82.3,79.3,82.5,79.1,82.5
		z"/>
	<path class="st80" d="M79.1,82.5c0.1-0.1,0.3-0.3,0.4-0.4c1.6-0.3,1.1-1.9,1.7-2.7c0.2-1,0.5-1.9,1.8-1.8c0.9,0.8-0.1,1.8,0.5,2.6
		c-0.9,0-1.9-0.2-1.3,1.5c0.5,1.2,0.3,2.7-0.5,3.9c-0.6-0.1-0.7-0.3-0.4-0.8c0.4-0.5,0.6-1.2,0.1-1.5c-0.9-0.5-0.9,0.6-1.3,1
		c-0.2,0.2-0.5,0.3-0.7,0.5c-0.9,0.2-0.6-0.6-0.8-1C78.7,83.3,78.9,82.9,79.1,82.5z"/>
	<path class="st81" d="M78.6,83.7c0.3,0.3,0.5,0.6,0.8,1c-0.3,0.7-0.6,1.5-0.9,2.2l0,0c-1.1-0.7,0.3-1.9-0.4-2.7
		C78.3,84.1,78.4,83.9,78.6,83.7z"/>
	<path class="st82" d="M78.5,86.9c0.8,0.8,0.4,1.2-0.4,1.7C77.6,87.8,78.8,87.5,78.5,86.9C78.5,86.9,78.5,86.9,78.5,86.9z"/>
	<path class="st83" d="M92.4,59.2c0.2-0.4,0.5-0.5,0.9-0.5c0.9,0.8,0.4,1.8,0.4,2.7c0.3,1.8,0.6,3.6,0.9,5.3c0,0,0,0,0,0
		c-0.5,0.7-0.3,1.6-0.9,2.2c0,0,0,0,0,0c-1.2,0.7-1.8-2-3-0.5c-0.6,0.9-0.8,2.1-1.1,3.1c-0.1,0.2-0.2,0.4-0.4,0.5
		c-0.3-0.9-0.6-1.8-1-2.7c0-0.4,0.1-0.7,0.4-0.9c0.8-1,2.4-1.1,2.7-2.7C92.6,63.8,91.9,61.4,92.4,59.2z"/>
	<path class="st84" d="M93.8,57.9c0.5-1,1.6-1.7,0.2-3.1c-0.6-0.6,1.2-0.7,1.6-1.4c0.2,0.1,0.3,0.3,0.5,0.4c1.1,2.1-0.6,2.9-1.8,4
		C94.1,58,94,58,93.8,57.9z"/>
	<path class="st85" d="M93.8,57.9c0.1,0,0.3,0,0.4,0c1.6,1.4,0.5,2.5-0.5,3.6c-0.8-0.8-0.3-1.8-0.4-2.7
		C93.5,58.5,93.7,58.2,93.8,57.9z"/>
	<path class="st63" d="M93.8,69.1c0-0.9,0.2-1.6,0.9-2.2c0,0.8,0.4,1.6-0.4,2.2C94.1,69.1,93.9,69.1,93.8,69.1z"/>
	<path class="st84" d="M93.8,42.8c0.9,0.1,1.5-0.5,2.2-0.9c-2.2,2.4-0.6,4.8-0.2,7.2c0.3,1.5,0.1,2.9-0.3,4.3
		c-0.5-0.9-1.1-1.6-0.8-2.9c0.4-1.5-1.4-2.1-2.3-2.9c-0.4-0.8,0.3-1.8-0.7-2.6c-0.4-0.3,0.5-1.1,0.7-1
		C93.8,44.4,93.6,43.4,93.8,42.8z"/>
	<path class="st84" d="M96.6,51.5c0.2-0.4,0.2-0.9,0.7-0.9c0.4,0,0.4,0.4,0.4,0.6c0,0.4-0.1,0.7-0.6,0.8
		C96.9,52.1,96.7,51.9,96.6,51.5z"/>
	<path class="st86" d="M84.8,73.1c-0.6,0.3-0.3,0.9-0.8,1.5c-0.1-0.9-0.4-1.7,0.2-2.3c0.4-0.5,0.5,0.1,0.6,0.4
		C84.8,72.8,84.8,72.9,84.8,73.1z"/>
	<path class="st87" d="M92.4,59.2c0.8,2.4,0.5,4.6-0.9,6.7c0-1.5,0-3.1,0-4.6C91.5,60.5,91.5,59.7,92.4,59.2z"/>
	<path class="st68" d="M90.2,59.7c0.2-0.6,0.3-1.2,0.5-1.8C91.7,58.5,91.7,58.6,90.2,59.7z"/>
</g>
</svg>
