<?xml version="1.0" encoding="utf-8"?>
<!-- Generator: Adobe Illustrator 25.0.0, SVG Export Plug-In . SVG Version: 6.00 Build 0)  -->
<svg version="1.1" id="Layer_1" xmlns="http://www.w3.org/2000/svg" xmlns:xlink="http://www.w3.org/1999/xlink" x="0px" y="0px"
	 width="105.5px" height="129px" viewBox="0 0 105.5 129" style="enable-background:new 0 0 105.5 129;" xml:space="preserve">
<style type="text/css">
	.st0{fill:#FCFCFC;}
	.st1{fill:#2D3C44;}
	.st2{fill:#495C64;}
	.st3{fill:#EEF1F2;}
	.st4{fill:#252D32;}
	.st5{fill:#DDE2E3;}
	.st6{fill:#D0D7D8;}
	.st7{fill:#A5B0B2;}
	.st8{fill:#E5E8EA;}
	.st9{fill:#B7C0C4;}
	.st10{fill:#EBEDEE;}
	.st11{fill:#4B5D65;}
	.st12{fill:#F8F4EC;}
	.st13{fill:#E9E0DB;}
	.st14{fill:#48A6DD;}
	.st15{fill:#FFFFFF;}
</style>
<g>
	<path class="st0" d="M83.5,13L83.5,13c-0.3-1.7-1.5-2.3-3.2-2.4l0,0c0.3-3.9-1.6-4.5-4.7-3c-0.8-0.4-1.4-1.1-2.4-0.9l0,0
		c0.2-1.8-2.5-1.4-2.4-3.2c0.2-5-3.2-4.9-6.8-4.7c-3.3,0.2-6.5,0-9.8,0.1c-1.4,0-3-0.6-4.5,0.8c1.9,1.2,3.8,0.5,5.5,0.7
		c1,0.1,2-0.1,1.4,1.4c-3.4,0-6.9,0-10.3,0c-1-1-1.4-0.4-1.6,0.6c-0.2,0.1-0.5,0.2-0.7,0.3c-2.1-0.5-4.5-2.4-5.6,1.3
		c-2.3,0.7-4.6,1.3-6.9,2c-1.1,0-2.2-0.2-2.6,1.3c-0.3,0.5-0.8,0.8-1.4,0.7c-1.7-2.3-4.1-0.9-6.2-1.1c-2.9-0.3-2.8,1.7-2.4,3.6
		c0.2,1,0.9,1.8,1.4,2.7c-0.3,0.5-0.5,1-0.8,1.5c-3.3,1.3-5.2,4.1-7.1,6.7c-3.5,4.9-7.2,9.8-8,16.1c-2.6,1-1.1,3.5-1.6,5.2
		c-2,6.1-1.7,12.6-0.6,18.6c2.2,11.3,7.6,21.3,16.5,29c0,0.4,0,0.8,0,1.2c-0.1,8.9,0,9.1,8.5,10.8c0.4,0.1,0.8,0.1,1.1,0.3
		c5,2.9,5,2.9,8.6-2c4.3-0.2,8.3,2.5,12.6,1.3L50,102l0.4-0.1c0.5,0,1.1,0,1.6,0c0.8,0.4,1.5,0.3,2.3,0c0.5,0,1.1-0.1,1.6-0.1
		c0.8,0.1,1.5,0.3,2.3,0.4c5.3,0.3,10.6,0.7,15.1-3.1c2.4,0.5,5.3,2.9,6.2-1.7c1.2-0.2,1.8-1.1,2.5-2c1.3-1.4,1.1-4.3,3.9-4.3
		c0.1,0.1,0.2,0.1,0.2,0.2c-0.1,0-0.2-0.1-0.3-0.1c0-0.5,0-1.1,0.1-1.6l0,0c1.7-0.7,4.9,1.3,5.1-1.8c0.2-3,1.9-4.9,3.4-7
		c1.1,0.3,2.5,1.8,3.2-0.2c0.5-1.6,3.5-3.2,0.5-5.2c-0.9-0.6-1.1-1.1,0-1.5c1.9-0.8,1-2.4,1.3-3.7c2.6-1.1,3.7-3,3.1-5.8
		c-0.2-1,0-2.1-0.1-3.1c0.1-1.1,0.1-2.1,0.2-3.2c0-2.4,0-4.9,0-7.3c0-1.2-0.3-2.7,1.5-3c2.2-0.4,1.2-1.7,0.9-3
		c-0.7-3.4-2.6-6.1-4.7-8.9c-2.8-4-0.1-8.9-0.3-13.4c0.5-4.2-3.7-3.8-5.7-5.3c-2.1-1.5-1.8,2-3,2.9c-0.5-3.8-1.2-5-3.2-5.5
		c-1.3-0.3-2.6-0.5-4-0.8l0,0C84.1,13.5,83.8,13.2,83.5,13z"/>
	<path class="st0" d="M60.8,112.3c3.3-3.7,7.5-1.6,11.2-2.2c0.8-0.1,1.6-0.1,2.3-0.3c0.6-0.2,1.1-0.8,0.9-1.5
		c-0.2-0.7-0.7-1-1.4-1.1C69.9,107.1,66,107,62,107c-0.9,0-2.1,0-2.1,1.2c0,1.8-1.8,1.7-2.5,2.7c-0.3-0.3-0.5-0.5-0.8-0.8
		c-0.1-1,0.1-2.2-1.4-2.3c-1.7-0.1-1.8,1.1-1.8,2.3c-0.8,0-1.7-0.1-2.9-0.2c1.1-1.5,2-2.6,2.9-3.8c0.3-0.3,1-0.4,0.3-1
		c-0.1,0.3-0.2,0.7-0.3,1c-1.1,0.1-3-0.4-3.2,0.8c-0.7,3.8-3.4,3.1-6,3.2c-1,0-2.5-0.3-2.4,1.2c0.1,1.5,1.6,1.1,2.5,1.1
		c4.1,0,8.1,0,12.2,0C58.1,112.4,60.2,113,60.8,112.3"/>
	<path class="st0" d="M21.2,108.6c1.9,1.1,3.5,1.6,5.3,1.5c1.2-0.1,2.5,0.1,2.5-1.7c-0.1-1.5-1.3-1.4-2.3-1.5
		C24.8,106.9,23,107.2,21.2,108.6z"/>
	<path class="st0" d="M89,9.8c1,0,2-0.3,2.2-1.6c0.2-1.6-1-1.5-2-1.5c-1,0-2.3-0.3-2.3,1.2C86.8,9.1,87.7,9.6,89,9.8z"/>
	<path class="st0" d="M86.5,93.7c0-0.1,0-0.3-0.1-0.3c0,0-0.2,0-0.3,0.1c0,0.1,0,0.3,0.1,0.3C86.2,93.8,86.4,93.7,86.5,93.7z"/>
	<path class="st1" d="M18.8,90.2c-8.9-7.7-14.3-17.7-16.5-29c-1.1-6-1.4-12.5,0.6-18.6c0.6-1.7-0.9-4.2,1.6-5.2
		c0.6,8.4,0.7,16.8,5.3,24.4c3.1,5.2,2.6,5.5,9.2,4.9c1.9-0.2,3.1,0.7,3.6,2.4c0.5,1.7-0.2,2.8-2.1,3.1c-1.6,0.2-3.2,1-3,2.5
		c0.2,2.3,1.4,4.4,3.6,5.6c1.5,0.8,3.2,1.1,4.4,0c1.1-1,3-2.5,1.3-4.3c-2.4-2.5-1.4-3.4,1.3-4.2c0.8-0.2,1.3-1.2,2-1.8
		c0.8-0.7,1.5-2.2,2.9-1.1c1.4,1.2-0.2,2.1-0.7,3c-0.4,0.7-0.9,1.4-1.5,1.7c-2,1.1-2.2,2.4-0.6,4.1c1.4,1.4,1.7,2.5-0.5,3.5
		c-0.9,0.4-0.8,1.6-0.5,2.5c0.5,1.4,1.5,0.5,2.3,0.4c1.6,0,2.7-0.8,3.7-1.9c0.7-0.8,1.5-1.3,2.7-1.3c6.1-0.1,7.7-1.8,7-7.5
		C44.7,72,45,70.8,46,69.8c0.9-0.9,1.7-2.2-0.5-2.3c-2.1-0.1-1.9-1.4-2.4-2.8c-0.6-1.9-1.7-4.7-3.9-4c-2.9,0.9,0.1,3,0.1,4.6
		c0,0.3,0.1,0.5,0.2,0.8c0.4,1,0.8,2.1-0.6,2.6c-1.1,0.4-1.4-0.7-1.9-1.5C35,64.6,34.8,61,32,59c-2.8-2-3.7-5.1-4.4-8.2
		c-1.6-7,2.8-10.9,9.7-8.8c1,0.3,2,0.7,3,0.9c2.7,0.6,4.2-1.3,5.5-3.1c1.6-2.1-0.9-2.6-1.8-3.6c-1.9-2-2.2-3.2,0.8-4.6
		c2.8-1.2,5.3-3.3,7.9-5c2-1.4,2.2-3.5,0-4.3c-3.9-1.5-6.2-5.2-10.6-6.3c-3.3-0.8-5.3,0.7-7.8,1.4c-2.3,0.7-5.6,0.3-5.8,4.4
		c-0.1,1.7-2.3,3.1-3.9,4.2c-0.8,0.5-1.8,0.4-2.6-0.2c-0.7-0.5-1-1.3-0.7-2.1c1.4-3.3,2-7.3,6.7-8.1c1.6-0.2,3.1-1.4,4.6-2
		c0.9-0.4,1.8-0.8,1.4-1.9c-0.3-1-1.3-1.2-2.3-1.2c-2.4,0-4.7,1.1-6,2.6c-2,2.2-4,1.8-6.3,1.4c0.3-0.5,0.5-1,0.8-1.5
		c2.3-1.8,5.2-2.9,7.2-5.2C28.2,8,28.6,7.7,29,7.2c0.9-0.4,2.2,0.1,2.6-1.3c2.3-0.7,4.6-1.3,6.9-2c1.7-1.2,3.8-0.6,5.6-1.3
		c0.2-0.1,0.5-0.2,0.7-0.3c0.6,0.1,1.2,0,1.6-0.6c3.4,0,6.9,0,10.3,0c0.8,1,1.5,2.3,2.9,2.6c1.4,2.5,2.8,5.1,4.2,7.6
		c0.4,0.9,0.8,1.8,1.1,2.7c-2.9-1.1-4.7-4.1-8.6-3.5c-3.8,0.6-7.8,0-11.4-2c-1.7-0.9-3.3,0.2-4.7,1.2c-0.8,0.5-1.8,1-1.4,2.1
		c0.4,1.2,1.7,1.6,2.6,1c4.7-2.7,8.2,0.4,12,2.3c0.8,0.4,1.7,1.4,2.5,0.8c2.8-2.2,6.2-0.8,9.1-1.7c1.9,3.9,4.2,7.7,3.7,12.4
		c-2.3-0.6-4.6-1.1-6.7-1.9c-1.5-0.6-2.4-0.1-3.4,1c-5.6,6.5-3.3,13.8,5,15.6c0.5,0.1,1,0.1,1.6,0.2c1.7,0.2,2.2,1.3,1.1,2.4
		c-2.6,2.3-1.2,5.1-0.6,7.2c0.6,1.8,0.6,5.4,4.4,4.7c-0.1,2.8,0,5.4,1.6,7.8c-0.1,1.3-0.3,2.6-0.4,3.9c-2.2-0.2-4.2,1-6.5,0.2
		c-1.4-0.5-3.1,0-3,2.8c0.1,2.3,0.1,4.9-1.1,7.1c-0.5,0.9,0.1,1.3,0.2,1.9c0.5,2.9,2.1,6.2-1.2,8.6c-2.3,1.6-2.7,3.7-1.9,6.2
		c0.5,1.6,1.1,3.3-1.2,4.2c-1,0.4-0.6,1.6-0.7,2.5c-0.5,0-1.1,0.1-1.6,0.1c-0.8-1.8-1.6-1.8-2.3,0c-0.5,0-1.1,0-1.6,0
		c-0.1-0.2-0.1-0.5-0.2-0.7c-0.2,0.2-0.3,0.5-0.5,0.7c-4.4,1.1-8.4-1.6-12.6-1.3C30.7,97.5,24.4,94.5,18.8,90.2z M58.3,46.5
		c-0.6-2.4-2.9-3.4-5.2-4.2c-1.4-0.5-2.8,0.4-2.6,2c0.3,2.7,2.1,4.4,4.8,4.9C56.8,49.5,58.1,48.9,58.3,46.5z M46.1,52.4
		c-0.3-1.3-1.3-1.5-2.4-1.4c-0.9,0.1-1.9,0.5-1.7,1.6c0.2,1.3,1.2,1.5,2.3,1.4C45.3,53.9,46.1,53.5,46.1,52.4z M51.8,56.3
		c-0.3-0.8-0.9-1.5-1.9-1.4c-1.1,0.1-2.1,0.8-2.2,1.9c-0.1,1.7,1.4,1,2.3,1.1C50.9,58,51.8,57.8,51.8,56.3z"/>
	<path class="st2" d="M19.6,14.6c2.3,0.4,4.2,0.8,6.3-1.4c1.3-1.5,3.7-2.5,6-2.6c1,0,2,0.2,2.3,1.2c0.4,1.1-0.5,1.6-1.4,1.9
		c-1.6,0.6-3,1.8-4.6,2c-4.8,0.7-5.3,4.7-6.7,8.1c-0.3,0.8,0,1.6,0.7,2.1c0.8,0.6,1.8,0.7,2.6,0.2c1.7-1.1,3.9-2.5,3.9-4.2
		c0.2-4.2,3.5-3.7,5.8-4.4c2.5-0.7,4.5-2.2,7.8-1.4c4.4,1.1,6.7,4.7,10.6,6.3c2.2,0.9,2,3,0,4.3c-2.6,1.8-5,3.8-7.9,5
		c-3,1.3-2.8,2.6-0.8,4.6c0.9,1,3.4,1.4,1.8,3.6c-1.3,1.7-2.8,3.7-5.5,3.1c-1-0.2-2-0.6-3-0.9c-6.9-2.1-11.3,1.8-9.7,8.8
		c0.7,3,1.6,6.1,4.4,8.2c2.8,2,3,5.7,4.9,8.2c0.6,0.7,0.8,1.9,1.9,1.5c1.4-0.5,1-1.6,0.6-2.6c-0.1-0.2-0.2-0.5-0.2-0.8
		c0-1.6-3-3.7-0.1-4.6c2.2-0.7,3.3,2.1,3.9,4c0.5,1.4,0.3,2.8,2.4,2.8c2.2,0.1,1.5,1.3,0.5,2.3c-1,1-1.3,2.2-1.2,3.6
		c0.7,5.7-0.9,7.4-7,7.5c-1.2,0-2,0.5-2.7,1.3c-1,1.1-2.2,1.9-3.7,1.9c-0.8,0-1.8,1-2.3-0.4c-0.3-0.9-0.4-2.1,0.5-2.5
		c2.2-1,2-2.1,0.5-3.5c-1.6-1.6-1.4-2.9,0.6-4.1c0.6-0.4,1.1-1.1,1.5-1.7c0.5-0.9,2.1-1.8,0.7-3c-1.4-1.2-2.1,0.4-2.9,1.1
		c-0.7,0.6-1.3,1.6-2,1.8c-2.7,0.8-3.7,1.7-1.3,4.2c1.8,1.8-0.1,3.3-1.3,4.3c-1.2,1.1-3,0.8-4.4,0c-2.2-1.2-3.4-3.3-3.6-5.6
		c-0.1-1.5,1.4-2.3,3-2.5c1.8-0.2,2.6-1.4,2.1-3.1c-0.5-1.7-1.7-2.5-3.6-2.4c-6.6,0.6-6.1,0.3-9.2-4.9c-4.6-7.7-4.7-16-5.3-24.4
		c0.8-6.3,4.5-11.2,8-16.1C14.4,18.6,16.4,15.9,19.6,14.6z"/>
	<path class="st3" d="M68.8,27.3c0.5-4.6-1.9-8.4-3.7-12.4c0,0-0.1-0.2-0.1-0.2c-0.4-0.9-0.8-1.8-1.1-2.7c-0.2-2.9-0.9-5.7-3.3-7.8
		c1.6-1.8,3.2,0.1,4.8,0.1c-0.9,1.4-2.2,2.8,0.8,3.2c-0.2,2,0.1,4,1.6,5.4c1.9,1.7,2.5,3.8,2.3,6.3c-0.1,1.1-0.3,2.4,0.8,3.3
		c0.2,3.5,2,3.9,4.7,2.3c5.3-2.7,6.6-6.5,2.6-8.7c-4.3-2.2-6.6-5.7-8.9-9.5c0.3,0,0.5,0,0.8,0c1,0,2.1,0,3.1,0l0,0
		c0,1.6,1.4,1.8,2.4,2.3c1.5,0.8,2.8,2,4.7,1.7c0,0,0,0,0,0c0.3,1.8,1.6,2.3,3.2,2.4c0,0,0,0,0,0c0.3,0.3,0.5,0.5,0.8,0.8
		c0,0,0,0,0,0c0.1,2.4,2.3,2.5,3.8,3.4c0,2.2,1.2,3.2,3.3,3c1.2-0.9,0.9-4.4,3-2.9c2,1.5,6.1,1.1,5.7,5.3c-3.2,0.5-0.3,4-2.5,4.9
		c-1.2-0.2,0.2-1.9-1.5-2.5c0.1,6.8,3.2,12.2,4.8,18.1c0,4.9,0.1,9.9,0.1,14.8c-0.1,1.1-0.2,2.1-0.2,3.2c-1.2,0.8-0.2,2.5-1.5,3.3
		c-2.1-4.2-0.1-8.4,0.3-12.5c0.5-4.5-1.3-4.4-4.3-4.1c-1.2-4.6-1.4-9.4-1.6-14.2c2-4.4-3-6.3-3.6-9.8c0-0.2-0.9-0.4-1-0.3
		c-2,2.5-4.9,2.4-7.6,3.1c-0.5,0.1-1,1.2-1.1,1.9c-0.4,2.6-3.2,5-1,8c0.2,0.3-0.4,1.2-0.7,1.8c-1.8,1.3-2.2,2.7-2,5.2
		C77,47,78,50.4,78,54c0,3.2-2,6.4,0,9.5c-0.1,2-3.2,3-1.7,5.5c-0.2,0-0.4,0-0.6,0c-2.3,0.1-1.5,1.9-1.7,3.2c0,0.2,0,0.5,0,0.7
		c-0.8,0.5-0.8,1.1,0,1.6c-0.1,1,0.1,2.1-0.3,3.1c-0.4,1.3-2.4,0.6-3,2.2c-1.2,3.6-0.5,7.3-0.6,10.9c0,0.5,0.4,0.9,1,1
		c3.4,0.6,5.4-1.1,7-4.4c1.5-3.2,1.5-5.7-1.1-8.1c-0.8-0.8-0.8-1.6,0.2-2.3c1.4-0.2,2.1-0.8,1.5-2.3c0.2-0.7,0.4-1.9,1.3-0.8
		c3.3,4,6.4,4.1,9.2,0c0.4-0.6,0.7-0.5,1.2-0.2c2.4,1.3,3.5-0.4,3.8-2.2c0.4-2.8,1.9-3.1,4.1-2.5c0.3,0.4,0.6,0.7,0.9,1.1
		c-0.2,1.3,0.6,2.9-1.3,3.7c-1.1,0.4-0.9,0.9,0,1.5c3,2,0,3.6-0.5,5.2c-0.7,2-2.1,0.5-3.2,0.2c0.1-0.8-0.3-2.1-0.9-1.2
		c-2.4,3.5-6.2,5.8-7.6,10l0,0c-0.4,0-0.9-0.1-1.1,0.1c-4.7,4-10.2,6.8-15.8,9.2c-3.1,1.3-6.5,3-10,0.8c0.4-0.3,1.1-0.4,1.3-0.8
		c5.5-9.6,9.4-19.7,11.1-30.7c0.1-1.3,0.3-2.6,0.4-3.9c0.5-2.9,1-5.7,0.5-8.7C73.2,46,72.7,36.5,68.8,27.3z M75.6,44.8
		c-0.3-0.3-0.6-0.6-0.8-0.6c-0.2,0-0.6,0.4-0.6,0.7c-0.1,0.5,0.2,1,0.8,0.9C75.2,45.7,75.4,45.2,75.6,44.8z M96.2,77.5
		c-0.2-0.3-0.4-0.9-0.5-0.9c-0.6,0-0.9,0.5-0.8,1c0,0.2,0.4,0.4,0.6,0.6C95.7,78.1,95.9,77.8,96.2,77.5z M82.5,22
		c-0.1,0.2-0.2,0.4-0.3,0.7c0.2,0.1,0.5,0.3,0.6,0.2c0.2-0.1,0.2-0.4,0.3-0.6C82.9,22.2,82.7,22.1,82.5,22z M74,34.7
		c-0.1-0.2-0.2-0.4-0.3-0.6c-0.1,0.2-0.3,0.4-0.3,0.6c0,0.2,0.2,0.4,0.3,0.6C73.7,35.1,73.9,34.9,74,34.7z M76,29.3
		c-0.1,0.2-0.3,0.4-0.3,0.6c0,0.2,0.2,0.4,0.3,0.6c0.1-0.2,0.3-0.4,0.3-0.6C76.3,29.8,76.2,29.5,76,29.3z"/>
	<path class="st4" d="M71.3,68.3c-1.7,11-5.6,21.1-11.1,30.7c-0.2,0.4-0.9,0.6-1.3,0.8c-1,0.5-0.6,1.6-0.8,2.4
		c-0.8-0.1-1.5-0.3-2.3-0.4c0.1-0.9-0.3-2,0.7-2.5c2.3-0.9,1.7-2.6,1.2-4.2c-0.8-2.5-0.5-4.5,1.9-6.2c3.3-2.4,1.7-5.7,1.2-8.6
		c-0.1-0.7-0.7-1.1-0.2-1.9c1.3-2.2,1.2-4.8,1.1-7.1c-0.1-2.8,1.6-3.2,3-2.8C67.2,69.2,69.2,68.1,71.3,68.3z"/>
	<path class="st5" d="M18.8,90.2c5.6,4.2,11.9,7.2,18.1,10.3c-3.6,4.9-3.6,4.9-8.6,2c-0.3-0.2-0.7-0.2-1.1-0.3
		c-8.4-1.7-8.6-1.9-8.5-10.8C18.8,91,18.8,90.6,18.8,90.2z"/>
	<path class="st6" d="M73.3,6.6c-1,0-2.1,0-3.1,0c-0.9-1.3-3-0.6-3.7-2.3c-0.3-0.8,2-0.6,0.6-1.4c-0.9-0.5-1.6,0.4-1.7,1.5
		c-1.6,0-3.2-1.8-4.8-0.1c-0.3,0-0.6,0.1-1,0.1c-1.4-0.4-2.1-1.6-2.9-2.6c0.6-1.5-0.4-1.3-1.4-1.4c-1.7-0.2-3.6,0.5-5.5-0.7
		c1.4-1.4,3.1-0.8,4.5-0.8c3.3-0.1,6.5,0.1,9.8-0.1c3.6-0.2,7-0.3,6.8,4.7C70.8,5.3,73.5,4.8,73.3,6.6z"/>
	<path class="st7" d="M58.2,102.1c0.1-0.8-0.2-1.8,0.8-2.4c3.5,2.2,6.9,0.5,10-0.8c5.6-2.5,11.1-5.3,15.8-9.2
		c0.2-0.2,0.8-0.1,1.1-0.1c0,0.5,0,1.1-0.1,1.6c0,0,0,0,0,0c-2.8,0-2.6,2.9-3.9,4.3c-0.8,0.9-1.3,1.8-2.5,2c-2.3-0.3-4.7-1-6.2,1.7
		C68.8,102.9,63.5,102.4,58.2,102.1z"/>
	<path class="st6" d="M100.9,43c-1.7-5.8-4.8-11.3-4.8-18.1c1.7,0.6,0.3,2.2,1.5,2.5c2.3-0.9-0.6-4.5,2.5-4.9
		c0.2,4.5-2.6,9.5,0.3,13.4c2,2.9,3.9,5.5,4.7,8.9c0.3,1.3,1.3,2.6-0.9,3C103.6,45.8,104.4,43,100.9,43z"/>
	<path class="st3" d="M60.8,112.3c-0.7,0.7-2.8,0.2-4.2,0.2c0.3-0.5,0.5-1,0.8-1.6c0.7-1,2.5-0.9,2.5-2.7c0-1.2,1.1-1.2,2.1-1.2
		c3.9,0.1,7.9,0.2,11.8,0.2c0.8,0,1.3,0.4,1.4,1.1c0.2,0.7-0.3,1.3-0.9,1.5c-0.7,0.2-1.5,0.2-2.3,0.3
		C68.3,110.7,64.2,108.6,60.8,112.3"/>
	<path class="st8" d="M57.5,110.9c-0.3,0.5-0.5,1-0.8,1.6c-4.1,0-8.1,0-12.2,0c-1,0-2.4,0.4-2.5-1.1c-0.1-1.5,1.4-1.2,2.4-1.2
		c2.5-0.1,5.2,0.6,6-3.2c0.2-1.1,2.1-0.7,3.2-0.8l0,0c-0.9,1.2-1.8,2.3-2.9,3.8c1.2,0.1,2.1,0.1,2.9,0.2c1.1,0,2.1,0,3.2,0
		C56.9,110.3,57.2,110.6,57.5,110.9z"/>
	<path class="st5" d="M27.6,7.9c-2,2.3-4.8,3.4-7.2,5.2c-0.5-0.9-1.2-1.7-1.4-2.7c-0.4-1.9-0.5-4,2.4-3.6C23.4,7,25.9,5.5,27.6,7.9z
		"/>
	<path class="st7" d="M85.9,89.6c1.4-4.2,5.2-6.5,7.6-10c0.6-0.9,1,0.5,0.9,1.2c-1.5,2.2-3.2,4-3.4,7C90.7,90.9,87.6,88.9,85.9,89.6
		z"/>
	<path class="st7" d="M100.9,43c3.5,0,2.6,2.8,3.2,4.8c-1.8,0.3-1.5,1.8-1.5,3c0,2.4,0,4.9,0,7.3c-0.5-0.1-1-0.2-1.5-0.2
		C101,52.9,101,47.9,100.9,43z"/>
	<path class="st7" d="M99.3,64.3c1.3-0.8,0.3-2.5,1.5-3.3c0.5,0.1,1,0.1,1.6,0.2c0,1-0.1,2.1,0.1,3.1c0.6,2.8-0.5,4.7-3.1,5.8
		c-0.3-0.4-0.6-0.7-0.9-1.1C99.5,67.6,99.2,65.9,99.3,64.3z"/>
	<path class="st8" d="M21.2,108.6c1.9-1.5,3.6-1.7,5.4-1.7c1,0,2.2,0,2.3,1.5c0.1,1.8-1.3,1.6-2.5,1.7
		C24.7,110.2,23.1,109.7,21.2,108.6z"/>
	<path class="st7" d="M91.4,20.1c-2.2,0.2-3.3-0.8-3.3-3c0-0.9,0.1-1.7,0.1-2.6C90.3,15.1,90.9,16.2,91.4,20.1z"/>
	<path class="st5" d="M73.3,99c1.5-2.7,3.9-2,6.2-1.7C78.5,101.9,75.6,99.6,73.3,99z"/>
	<path class="st9" d="M80.4,10.6c-1.9,0.3-3.2-0.9-4.7-1.7c0-0.5,0-0.9,0-1.4C78.8,6.1,80.7,6.7,80.4,10.6z"/>
	<path class="st6" d="M89,9.8c-1.3-0.1-2.2-0.6-2.2-1.9c0-1.6,1.4-1.2,2.3-1.2c1,0,2.3,0,2,1.5C91,9.5,90,9.7,89,9.8z"/>
	<path class="st5" d="M44,2.6c-1.8,0.7-3.9,0.2-5.6,1.3C39.5,0.2,41.9,2.1,44,2.6z"/>
	<path class="st9" d="M88.3,14.6c0,0.9-0.1,1.7-0.1,2.6c-1.5-0.8-3.7-1-3.8-3.4C85.6,14,86.9,14.3,88.3,14.6z"/>
	<path class="st3" d="M56.7,110.1c-1.1,0-2.1,0-3.2,0c0-1.2,0.1-2.4,1.8-2.3C56.8,107.9,56.6,109.1,56.7,110.1z"/>
	<path class="st6" d="M102.4,61.2c-0.5-0.1-1-0.1-1.6-0.2c0.1-1.1,0.2-2.1,0.2-3.2c0.5,0.1,1,0.2,1.5,0.2
		C102.5,59.1,102.4,60.2,102.4,61.2z"/>
	<path class="st9" d="M83.5,13c-1.6-0.1-2.9-0.6-3.2-2.4C82,10.6,83.2,11.2,83.5,13z"/>
	<path class="st6" d="M75.7,7.6c0,0.5,0,0.9,0,1.4c-1-0.5-2.4-0.7-2.4-2.3C74.2,6.5,74.9,7.1,75.7,7.6z"/>
	<path class="st4" d="M52,101.9c0.8-1.8,1.5-1.8,2.3,0C53.5,102.2,52.7,102.3,52,101.9z"/>
	<path class="st5" d="M31.6,5.9c-0.4,1.3-1.7,0.9-2.6,1.3C29.3,5.7,30.5,5.9,31.6,5.9z"/>
	<path class="st6" d="M46.4,1.8c-0.4,0.6-1,0.7-1.6,0.6C45,1.4,45.4,0.8,46.4,1.8z"/>
	<path class="st4" d="M49.6,101.9c0.2-0.2,0.3-0.5,0.5-0.7c0.1,0.2,0.1,0.5,0.2,0.7c0,0-0.4,0.1-0.4,0.1L49.6,101.9z"/>
	<path class="st10" d="M86.5,93.7c-0.1,0-0.3,0.1-0.3,0.1c-0.1-0.1-0.1-0.2-0.1-0.3c0.1,0,0.3-0.1,0.3-0.1
		C86.4,93.4,86.4,93.5,86.5,93.7z"/>
	<path class="st5" d="M53.5,106.1c0.1-0.3,0.2-0.7,0.3-1C54.6,105.7,53.8,105.9,53.5,106.1C53.5,106.1,53.5,106.1,53.5,106.1z"/>
	<path class="st7" d="M85.9,91.2c0.1,0,0.2,0.1,0.3,0.1C86,91.2,86,91.2,85.9,91.2C85.9,91.1,85.9,91.2,85.9,91.2z"/>
	<path class="st9" d="M84.3,13.8c-0.3-0.3-0.5-0.5-0.8-0.8C83.8,13.2,84.1,13.5,84.3,13.8z"/>
	<path class="st11" d="M68.8,27.3c3.8,9.1,4.4,18.6,3.5,28.3c-0.8,0.1-1.7-0.1-2.2,0.8c-3.8,0.7-3.8-2.9-4.4-4.7
		c-0.7-2.1-2-4.9,0.6-7.2c1.1-1,0.6-2.2-1.1-2.4c-0.5-0.1-1.1-0.1-1.6-0.2c-8.2-1.8-10.5-9.1-5-15.6c0.9-1.1,1.8-1.6,3.4-1
		C64.3,26.2,66.6,26.7,68.8,27.3z"/>
	<path class="st11" d="M65,14.7c0,0,0.1,0.2,0.1,0.2c-3,0.9-6.3-0.5-9.1,1.7c-0.8,0.6-1.6-0.4-2.5-0.8c-3.8-1.9-7.3-5-12-2.3
		c-0.9,0.5-2.2,0.1-2.6-1c-0.4-1.1,0.6-1.5,1.4-2.1c1.4-1,3-2.1,4.7-1.2c3.6,2,7.6,2.6,11.4,2C60.2,10.6,62.1,13.7,65,14.7z"/>
	<path class="st2" d="M58.3,46.5c-0.2,2.4-1.5,3-3,2.7c-2.7-0.5-4.5-2.1-4.8-4.9c-0.2-1.6,1.2-2.5,2.6-2
		C55.3,43.1,57.7,44.2,58.3,46.5z"/>
	<path class="st4" d="M70.1,56.5c0.5-1,1.4-0.7,2.2-0.8c0.4,2.9,0,5.8-0.5,8.7C70.2,61.9,70,59.2,70.1,56.5z"/>
	<path class="st2" d="M46.1,52.4c-0.1,1.1-0.8,1.5-1.8,1.6c-1.1,0.1-2.2-0.1-2.3-1.4c-0.1-1.1,0.8-1.5,1.7-1.6
		C44.8,50.8,45.8,51.1,46.1,52.4z"/>
	<path class="st2" d="M51.8,56.3c0.1,1.5-0.8,1.7-1.8,1.6c-0.9-0.1-2.4,0.6-2.3-1.1c0-1,1-1.8,2.2-1.9
		C50.9,54.9,51.5,55.5,51.8,56.3z"/>
	<path class="st10" d="M59.6,4.3c0.3,0,0.6-0.1,1-0.1c2.4,2.1,3,4.8,3.3,7.8C62.4,9.4,61,6.9,59.6,4.3z"/>
	<path class="st12" d="M99.3,64.3c-0.1,1.6,0.2,3.3-0.9,4.7c-2.2-0.6-3.7-0.4-4.1,2.5c-0.3,1.8-1.4,3.5-3.8,2.2
		c-0.5-0.3-0.8-0.4-1.2,0.2c-2.8,4.1-5.9,4-9.2,0c-1-1.2-1.1,0.1-1.3,0.8c-1.6,0-1.6,1.2-1.5,2.3c-0.9,0.7-1,1.5-0.2,2.3
		c2.6,2.4,2.6,4.9,1.1,8.1c-1.5,3.3-3.6,5-7,4.4c-0.6-0.1-1-0.5-1-1c0.1-3.6-0.6-7.3,0.6-10.9c0.6-1.6,2.5-0.9,3-2.2
		c0.3-1,0.2-2.1,0.3-3.1c0-0.5,0-1.1,0-1.6c0-0.2,0-0.5,0-0.7c2.1-0.2,1.4-1.9,1.7-3.2c0.2,0,0.4,0,0.6,0c0.3,1.2-0.5,2.6,0.9,3.6
		c1.3-0.6,0.4-2.1,1.2-2.9c0.7,0.8,0.5,2.1,1.8,1.9c0.3-0.1,0.9-1,0.8-1.1c-1.6-2.1-0.3-5.4-3-7c-2-3.2,0.1-6.4,0-9.5
		c3.2,0.9,6.1,1.9,4.9,6.3c-0.3,1.2,0.5,1.9,1.4,2.5c2.5,1.5,3.1,3.4,1.5,5.9c-0.6,1-1.1,1.8,0.1,2.7c1.2,0.9,2.4,0.9,3-0.4
		c1-1.9,2.7-1.8,4.5-1.6c-2-3.6-1.3-6.8-0.9-10.8c2.2,2.5,0.1,5.2,2.6,7.4c-0.3-2.3-1.1-4.2-0.5-5.5c1.9-4.3-0.7-6.9-2.9-9.8
		c-2.1-2.9-3.2-3-5.5,0c-0.6,0.8-1.2,2-2.5,1.3c-1.3-0.7-1.5-2.1-0.7-3c1.5-1.8,0.6-3-0.3-4.5c-0.8-1.3-1.7-2.7-1.6-4.4
		c0-1.7-1-1.9-2.4-1.9c0.2-0.6,0.9-1.5,0.7-1.8c-2.2-3,0.7-5.3,1-8c0.1-0.7,0.6-1.8,1.1-1.9c2.7-0.7,5.6-0.6,7.6-3.1
		c0.1-0.1,1,0.1,1,0.3c0.6,3.5,5.6,5.4,3.6,9.8c-1.2,0-2.2-0.7-3.3-1.1c-2.1-0.8-4.8-0.2-5.1,2c-0.3,2.5-0.3,5.3,1.4,7.8
		c2.8,3.9,3.4,4.1,6.3,0.5c1.8,1.2-0.9,4.5,2.2,5.1c3-0.2,4.7-0.4,4.3,4.1C99.2,55.9,97.2,60.1,99.3,64.3z"/>
	<path class="st13" d="M78.8,38.2c1.3,0,2.4,0.2,2.4,1.9c0,1.7,0.8,3.1,1.6,4.4c0.9,1.5,1.8,2.7,0.3,4.5c-0.8,0.9-0.6,2.4,0.7,3
		c1.3,0.6,1.9-0.5,2.5-1.3c2.3-3,3.4-3,5.5,0c2.2,3,4.8,5.6,2.9,9.8c-0.6,1.3,0.3,3.2,0.5,5.5c-2.5-2.2-0.4-5-2.6-7.4
		c-0.4,4-1.1,7.3,0.9,10.8C91.7,69.1,90,69,89,71c-0.6,1.3-1.9,1.2-3,0.4c-1.2-0.9-0.7-1.7-0.1-2.7c1.6-2.5,1-4.5-1.5-5.9
		c-1-0.6-1.8-1.3-1.4-2.5c1.2-4.4-1.7-5.4-4.9-6.3c0-3.6-1-7-1.3-10.5C76.5,40.9,77,39.6,78.8,38.2z"/>
	<path class="st12" d="M70.9,22.5c-1.1-0.9-0.9-2.1-0.8-3.3c0.2-2.5-0.4-4.6-2.3-6.3c-1.6-1.4-1.9-3.4-1.6-5.4
		c1.1-0.3,2.1-0.6,3.2-0.9c2.3,3.8,4.5,7.3,8.9,9.5c4.1,2.1,2.8,6-2.6,8.7C75.2,21.7,72.8,22.6,70.9,22.5z"/>
	<path class="st13" d="M95.4,47.7c-3.2-0.6-0.4-3.9-2.2-5.1c-2.8,3.6-3.5,3.4-6.3-0.5c-1.8-2.5-1.7-5.3-1.4-7.8
		c0.2-2.2,2.9-2.7,5.1-2c1.1,0.4,2,1.1,3.3,1.1C94,38.3,94.1,43.1,95.4,47.7z"/>
	<path class="st13" d="M78,63.5c2.7,1.6,1.4,4.9,3,7c0.1,0.1-0.5,1.1-0.8,1.1c-1.3,0.2-1.1-1.2-1.8-1.9c-0.8,0.8,0.2,2.4-1.2,2.9
		c-1.3-1-0.5-2.4-0.9-3.6C74.8,66.6,77.9,65.5,78,63.5z"/>
	<path class="st10" d="M69.3,6.7c-1.1,0.3-2.1,0.6-3.2,0.9c-3-0.4-1.7-1.9-0.8-3.2c0.1-1.1,0.8-2,1.7-1.5c1.5,0.8-0.9,0.6-0.6,1.4
		c0.7,1.8,2.8,1.1,3.7,2.3C69.9,6.6,69.6,6.6,69.3,6.7z"/>
	<path class="st5" d="M70.9,22.5c1.9,0.1,4.3-0.8,4.7,2.3C72.9,26.3,71.1,26,70.9,22.5z"/>
	<path class="st13" d="M75.7,69c-0.3,1.2,0.4,2.9-1.7,3.2C74.2,71,73.4,69.2,75.7,69z"/>
	<path class="st13" d="M77.3,76.9c-0.1-1.2-0.1-2.3,1.5-2.3C79.4,76.1,78.7,76.7,77.3,76.9z"/>
	<path class="st13" d="M75.6,44.8c-0.2,0.4-0.4,0.9-0.6,0.9c-0.6,0.2-0.9-0.4-0.8-0.9c0-0.3,0.4-0.7,0.6-0.7
		C75,44.2,75.3,44.5,75.6,44.8z"/>
	<path class="st7" d="M96.2,77.5c-0.3,0.3-0.5,0.5-0.7,0.8c-0.2-0.2-0.6-0.4-0.6-0.6c0-0.5,0.2-1,0.8-1C95.8,76.7,96,77.2,96.2,77.5
		z"/>
	<path class="st12" d="M82.5,22c0.2,0.1,0.4,0.2,0.7,0.3c-0.1,0.2-0.1,0.6-0.3,0.6c-0.2,0.1-0.4-0.2-0.6-0.2
		C82.3,22.4,82.4,22.2,82.5,22z"/>
	<path class="st5" d="M74,34.7c-0.1,0.2-0.2,0.4-0.4,0.6c-0.1-0.2-0.3-0.4-0.3-0.6c0-0.2,0.2-0.4,0.3-0.6
		C73.8,34.3,73.9,34.5,74,34.7z"/>
	<path class="st5" d="M76,29.3c0.1,0.2,0.3,0.4,0.3,0.6c0,0.2-0.2,0.4-0.3,0.6c-0.1-0.2-0.3-0.4-0.3-0.6
		C75.7,29.7,75.9,29.5,76,29.3z"/>
	<path class="st13" d="M74,72.9c0,0.5,0,1.1,0,1.6C73.2,74,73.3,73.5,74,72.9z"/>
</g>
<g>
	<path class="st14" d="M90.8,126.5H15c-2.2,0-4-1.8-4-4v-23c0-2.2,1.8-4,4-4h75.8c2.2,0,4,1.8,4,4v23
		C94.8,124.7,93,126.5,90.8,126.5z"/>
	<g>
		<path class="st15" d="M31.9,113c-0.1-2-0.1-4.4-0.1-6.8h-0.1c-0.5,2.1-1.2,4.4-1.8,6.4l-2,6.4H25l-1.8-6.4
			c-0.5-1.9-1.1-4.3-1.5-6.4l0,0c-0.1,2.2-0.2,4.8-0.3,6.8l-0.3,6.3h-3.4l1.1-16.5h5l1.6,5.5c0.5,1.9,1,4,1.4,5.9h0.1
			c0.5-1.9,1-4.1,1.6-5.9l1.8-5.5h4.9l0.9,16.5h-3.6L31.9,113z"/>
		<path class="st15" d="M53.7,110.9c0,5.4-3.3,8.7-8.1,8.7c-4.9,0-7.7-3.7-7.7-8.4c0-4.9,3.2-8.6,8-8.6
			C51,102.6,53.7,106.3,53.7,110.9z M41.8,111.1c0,3.2,1.5,5.5,4,5.5s4-2.4,4-5.6c0-3-1.4-5.5-4-5.5
			C43.3,105.5,41.8,107.9,41.8,111.1z"/>
		<path class="st15" d="M71.2,110.9c0,5.4-3.3,8.7-8.1,8.7c-4.9,0-7.7-3.7-7.7-8.4c0-4.9,3.2-8.6,8-8.6
			C68.5,102.6,71.2,106.3,71.2,110.9z M59.3,111.1c0,3.2,1.5,5.5,4,5.5c2.5,0,4-2.4,4-5.6c0-3-1.4-5.5-4-5.5
			C60.8,105.5,59.3,107.9,59.3,111.1z"/>
		<path class="st15" d="M73.7,119.3v-16.5H78l3.4,6c1,1.7,2,3.8,2.7,5.6h0.1c-0.2-2.2-0.3-4.4-0.3-6.9v-4.8h3.4v16.5h-3.9l-3.5-6.4
			c-1-1.8-2.1-3.9-2.9-5.8h-0.1c0.1,2.2,0.1,4.5,0.1,7.2v5h-3.3V119.3z"/>
	</g>
</g>
</svg>
