<?xml version="1.0" encoding="utf-8"?>
<!-- Generator: Adobe Illustrator 25.0.0, SVG Export Plug-In . SVG Version: 6.00 Build 0)  -->
<svg version="1.1" id="Layer_1" xmlns="http://www.w3.org/2000/svg" xmlns:xlink="http://www.w3.org/1999/xlink" x="0px" y="0px"
	 width="105.5px" height="129px" viewBox="0 0 105.5 129" style="enable-background:new 0 0 105.5 129;" xml:space="preserve">
<style type="text/css">
	.st0{fill:#FCFCFC;}
	.st1{fill:#2D3C44;}
	.st2{fill:#495C64;}
	.st3{fill:#F8F4EC;}
	.st4{fill:#F2F5F4;}
	.st5{fill:#EBEDEE;}
	.st6{fill:#E5E8EA;}
	.st7{fill:#D0D7D8;}
	.st8{fill:#B7C0C4;}
	.st9{fill:#A5B0B2;}
	.st10{fill:#DDE2E3;}
	.st11{fill:#EEF1F2;}
	.st12{fill:#4B5D65;}
	.st13{fill:#E9E0DB;}
	.st14{fill:#48A6DD;}
	.st15{fill:#FFFFFF;}
</style>
<g>
	<path class="st0" d="M61.1,116.3c2.3-2,4.4-2,6.9-2.1c1.3,0,2.7-0.2,2.4-1.9c-0.3-1.8-1.7-1.4-2.9-1c-2,0.8-3.4,0-5-1.5
		c2.7-1.2,5.5,0.3,7.7-1.2c-0.5-1.2-2.2-1-2.1-2.4c0.8-0.2,2.2,0.5,2.4-0.7c0.4-3,2.6-1.9,4.2-2.1c0.2,1.3-1.2,1.5-1.8,2.4
		c2.1,0.3,3.6,0.2,3.4-2.5l0.3,0c0,0,0.3,0,0.3,0c1.8,0.2,3.7,0.5,3.5-2.4c3.4-1.1,3.7-4.5,5.2-7c0.5-0.4,0.9-0.7,1.4-1.1
		c4.8,1,5.3-2,5.2-5.5c2.2-0.4,2.5-3,4.4-3.8c0.5,0.8,1,1.3,1.9,0.7c0.2-0.1,0.3-0.5,0.2-0.7c-0.5-0.9-1.4-0.6-2.1-0.5
		c0.5-1.2,2-0.7,2.7-1.7c3.3-2.8,3.5-3.3,1.5-5c0.1-1.3,0.1-2.7,0.2-4c3.9-1.4,2.3-4.7,2.6-7.4c0.7-3.7,0.6-7.4,0.6-11.1
		c0-1.1-0.2-2.8,0.3-3.1c3.1-1.7,1.3-4.2,1.3-6.4c1.9-3.3-0.3-3.3-2.6-3.2c-1.8-1.9-0.3-5.3-3.2-6.7c0,0,0,0,0,0
		c0-0.8,0.1-1.6,0.1-2.5c0.2-3,5-3,4.4-5.8c-0.6-2.9,0.1-5.7,0-9c-1.9,1.6-1.7,3.5-2.6,5.7c-0.2-6.6-2.7-0.3-4.2-1.5
		c-0.1-0.6-0.2-1.2-0.2-1.9c0-1.2-0.3-2.1-1.7-2.2c-1.5-0.1-2.2,0.5-2.4,2c-0.1,0.6-0.5,1.2-0.8,1.8c-0.3,0.1-0.5,0-0.8,0l0.1-0.3
		c0.1-2.2,1-4.4-0.8-6.3c-0.5-4.6-3.3-2.9-5.8-2.1c-0.8,0-1.6,0-2.5,0l0,0c-0.5-2.5-1.5-4.7-4.1-5.6C77,7.1,75.4,7,73.7,6.9
		c-1.2-2-2.2-0.4-3.3,0.2c-2.2,0-4.4,0-6.5,0c-2.2-0.5-4.3-1.1-6.5-1.6c0.1-0.6-1.8-1.7,0.3-1.8c1.2-0.1,2.4,0.1,3.6,0.2
		c1.4,1,2.9,1.2,4.3,0c0.2,0,0.5,0,0.7,0c0.1,0.8-0.2,2,1.3,1.7c1.1-0.2,2.8,0.4,2.8-1.7c0-0.3,0-0.6-0.1-0.8c0-0.3,0-0.5,0-0.8
		c0.3-2.1-0.2-3.1-2.7-3.4C64.1-1.7,59.9,1,56.8-3c0-0.1-0.7,0.2-0.9,0.5c-2.1,3.1-3.6,1-5.2-0.7c-1.7,2.6-1.5,4.1,1.9,3.7
		c1.2-0.1,2.6-0.4,3.6,0.1C57.3,1,55.7,1.4,55.8,2C47,1.3,38.7,3.7,30.5,6.3c-1.1,0-2.3-0.2-2.6,1.3c-0.3,0.6-0.8,0.9-1.5,0.7
		c-1.2-2.3-3.4-1.1-5.1-1.2C19.4,7,17.8,6.8,17,9.5c-0.9,3.2,2.4,1.9,2.8,3.4c0,0.2-0.1,0.4-0.1,0.7c-5.6,3.8-9.7,9-13,14.8
		c-2,0.4-5.2-1.2-5.8,1c-0.5,2-1.2,5.2,1.5,7.1c0.9,2-2.1,3-1.1,5c-0.1,1.1-0.1,2.2-0.4,3.2c-2.8,10.5-1,20.5,2.9,30.3
		c2.9,7.3,7.9,13.2,13.5,18.7c-1.3,3.1-0.6,6.4,0.5,9.1c1.2,3,4.4,3.9,7.8,3.3c0.6-0.1,1.4,0.1,1.9,0.5c4.7,3.3,5.7,3.1,8.6-2.2
		c4.5-0.2,8.6,2.1,13.1,1.7c0.5,1.8-2.7,1.1-2,2.9c0.5,1.1,1.5,0.7,2.5,0.6c1.9-0.2,4.8-1.5,5.6-0.2c1.3,2-2.3,2.9-2.8,4.8"/>
	<path class="st0" d="M104,73.4c0.2,1.4-0.3,3,1.8,3.2c1.8,0.2,2.5-0.8,2.3-2.4c-0.2-1.6,1.1-2.3,1.8-3.4c1-1.4,1.3-3.2,0-4.4
		c-1.4-1.3-2.3,3-4.1,0.7C106.3,69.6,103.9,71.2,104,73.4z"/>
	<path class="st0" d="M111.8,23.1c-1.3,0.1-1.3,1.5-1.3,2.6c0,1-0.3,2.5,1.3,2.4c1.5-0.1,1-1.6,1.2-2.9"/>
	<path class="st0" d="M90.8,10.1c1-0.1,1.5-0.6,1.6-1.5c0.1-1.3-0.9-1.5-1.9-1.5c-1,0-2.1,0.1-1.8,1.5C88.8,9.6,89.9,9.8,90.8,10.1z
		"/>
	<path class="st0" d="M101.9,82.9c0,0.1-0.1,0.2-0.1,0.3c0.1,0,0.3,0,0.4,0c0-0.1,0-0.2-0.1-0.3C102.1,82.9,101.9,82.9,101.9,82.9z"
		/>
	<path class="st1" d="M26.4,8.4c0.7,0.2,1.1-0.2,1.5-0.7c0.9-0.4,2.2,0.1,2.6-1.3C38.7,3.7,47,1.3,55.8,2c-0.1,1.7-0.3,3.4,1.3,4.6
		c0.5,2.6,1.1,5.2,1.6,7.8c-2.3-2.1-4.7-3.2-8-2.6c-1.5,0.3-3.5-0.5-4.9-1.4c-2-1.3-3.6-0.7-5.3,0.3c-1.1,0.6-3,0.9-2.1,2.7
		c0.7,1.5,2.3,1.2,3.6,0.6c4.5-2.3,7.9,0.7,11.3,2.7c0.9,0.5,1.6,1.4,2.3,0.6c1.8-2,2.8,0.4,4.2,0.5c0.1,0.2,0.2,0.5,0.1,0.7
		c0,0.1-0.1,0.2-0.1,0.3c0.1,0.2,0.1,0.4,0.2,0.5c0.9,2.4,1.3,4.9,1.3,7.5c-0.3,2.1-2.5,0.9-3.6,2.2C53.9,33.7,55.4,40,61,42.3
		c0.8,0.3,1.5,1.1,2.2,1.6c0.9,6.5,0.9,13,0,19.5c-1.4,0.9-0.9,2-0.4,3.1c0.3,5.3-0.6,10.5-1.4,15.7c-1.1,7.5-3.3,14.8-5.1,22.2
		c-0.3,1.1-0.7,1.8-2.2,1.6c-1.6-0.3-3.2,0.1-4.8,0.1c-4.5,0.4-8.6-1.9-13.1-1.7c-0.2-0.3-0.4-0.9-0.7-0.9
		c-6.8-1.8-12.3-6.1-18.1-9.8C11.8,88.3,6.8,82.3,3.9,75c-4-9.8-5.7-19.8-2.9-30.3c0.3-1,0.2-2.1,0.4-3.2c1.5,0.3,1.3,1.5,1.3,2.6
		c0.1,2.7-0.3,5.5,0.5,8c1.5,5,3.9,9.7,6,14.6c1.6,3.7,3.9,3.9,7.1,3.2c0.8-0.2,1.6-0.5,2.4-0.4c1.5,0.2,2.4,1.2,2.7,2.7
		c0.3,1.4-0.2,2.6-1.7,2.8c-2.4,0.3-4.2,1.7-3.4,3.9c1,2.6,2.1,5.7,6.2,5.3c3.5-0.4,4.8-2.6,2.9-5.5c-0.6-1-2.2-2.4-0.5-2.9
		c2.5-0.8,3.6-3.8,6.5-3.6c0.3,0,0.8,1.1,0.7,1.3c-2.6,3-3.8,6.1-2.5,10.2c0.1,0.5-2.5,2.7-1,3.9c1.4,1.1,3.6,0.2,5.1-1.1
		c1.3-1.2,2.6-2.2,4.6-2.2c5.2-0.1,7-2.4,6.3-7.7c-0.2-1.6,0.3-2.9,1.4-4c0.7-0.7,1.2-2-0.3-2c-2.5-0.1-2.5-1.6-3-3.4
		c-0.5-1.6-1.8-4.2-3.6-3.8c-2.5,0.6-0.3,2.9-0.3,4.5c0,0.5,0.2,1.1,0.4,1.6c0.3,0.9,0.3,1.7-0.6,2.1c-1.2,0.6-1.1-0.7-1.6-1.2
		c-2.8-2.6-3.3-6.6-6.5-9.2c-3.9-3.2-5.3-12.3-2.7-15.5c3.2-3.9,7.5-2.3,11.6-0.9c3.1,1,5.5-0.9,7-3.1c1.4-2.2-1.4-3-2.7-4.1
		c-1.9-1.6-1.9-2.7,0.3-4c3-1.7,6-3.6,8.9-5.5c1.3-0.9,2.5-2.8,0.8-3.6c-3.6-1.6-5.9-4.8-9.4-6.6C39,15.1,35.1,18,30.8,19
		c-1.7,0.4-2.8,0.8-3,3c-0.3,2.6-2.6,4-4.8,5.1c-1.3,0.6-3.2,0-2.8-1.1c0.9-2.7,0.3-6.5,3.2-7.8c2.7-1.2,5.2-2.8,8-3.8
		c1.1-0.4,2.4-0.6,1.9-2c-0.4-1.5-1.9-1.5-3.1-1.1c-2.6,0.8-5.2,1.7-7.2,3.6c-2,1.8-2.8,0.7-3.2-1.4c0-0.2,0-0.4,0.1-0.7
		C22.1,11.6,24.5,10.3,26.4,8.4z M55.1,51.3c1.9-0.1,3.2-0.6,2.9-2.4c-0.5-2.9-2.7-4.4-5.3-4.8c-1.5-0.2-2.9,1.3-2.5,2.9
		C50.8,49.7,52.9,50.9,55.1,51.3z M49,60.3c1-0.1,2.4,0.3,2.5-1.3c0.1-1.3-0.9-1.8-2.1-1.9c-1.3-0.1-2,0.8-2.2,1.9
		C46.9,60.4,48.1,60.1,49,60.3z M45.7,54.4c-0.3-1.3-1.3-1.6-2.5-1.5c-1,0.1-2,0.5-1.8,1.7c0.2,1.3,1.3,1.6,2.4,1.5
		C44.8,56,45.6,55.6,45.7,54.4z"/>
	<path class="st2" d="M19.7,13.6c0.4,2.1,1.2,3.2,3.2,1.4c2.1-1.9,4.7-2.7,7.2-3.6c1.2-0.4,2.7-0.4,3.1,1.1c0.4,1.4-0.8,1.7-1.9,2
		c-2.8,0.9-5.3,2.6-8,3.8c-3,1.3-2.4,5.1-3.2,7.8c-0.4,1.1,1.5,1.7,2.8,1.1c2.2-1.1,4.5-2.5,4.8-5.1c0.2-2.2,1.3-2.5,3-3
		c4.3-1.1,8.3-4,13.2-1.5c3.5,1.8,5.7,5,9.4,6.6c1.7,0.8,0.5,2.7-0.8,3.6c-2.9,1.9-5.8,3.8-8.9,5.5c-2.2,1.3-2.2,2.4-0.3,4
		c1.3,1.1,4.2,1.9,2.7,4.1c-1.4,2.2-3.9,4.1-7,3.1c-4.1-1.4-8.4-3-11.6,0.9c-2.6,3.2-1.2,12.3,2.7,15.5c3.2,2.6,3.7,6.6,6.5,9.2
		c0.5,0.5,0.5,1.7,1.6,1.2c0.9-0.4,0.9-1.2,0.6-2.1c-0.2-0.5-0.4-1-0.4-1.6c0-1.6-2.2-3.8,0.3-4.5c1.7-0.4,3.1,2.2,3.6,3.8
		c0.5,1.8,0.5,3.3,3,3.4c1.6,0,1.1,1.3,0.3,2c-1.1,1.1-1.7,2.4-1.4,4c0.7,5.3-1.1,7.6-6.3,7.7c-2,0-3.3,1-4.6,2.2
		c-1.4,1.4-3.7,2.2-5.1,1.1c-1.5-1.2,1.2-3.4,1-3.9c-1.3-4-0.1-7.2,2.5-10.2c0.1-0.1-0.4-1.2-0.7-1.3c-2.9-0.2-3.9,2.9-6.5,3.6
		c-1.7,0.5-0.1,1.9,0.5,2.9c1.9,2.9,0.6,5.1-2.9,5.5c-4.1,0.5-5.2-2.7-6.2-5.3c-0.8-2.2,1-3.6,3.4-3.9c1.5-0.2,2-1.4,1.7-2.8
		c-0.3-1.5-1.2-2.5-2.7-2.7c-0.8-0.1-1.6,0.2-2.4,0.4c-3.2,0.8-5.5,0.5-7.1-3.2c-2.1-4.8-4.4-9.6-6-14.6c-0.8-2.5-0.4-5.3-0.5-8
		c-0.1-1.1,0.1-2.3-1.3-2.6c-1-2,2.1-3,1.1-5c2.3-2.2,3.1-5.3,4.4-8.1C10,22.5,14.1,17.4,19.7,13.6z"/>
	<path class="st3" d="M63.9,7.1c2.2,0,4.4,0,6.5,0c1.8,3.6,3.6,6.7,5.2,7.5c1.8,0.9,3.8,1.4,4.8,3.3c0.8,1.6,1.9,2.1,3.7,2.4
		c2.8,0.4,4.3,3.8,7.4,4c-0.4,3.3,2.5,4.7,3.9,7c0.7,1.2,0.8,2.6-0.4,3.7c-0.8-0.2-1.6-0.2-2.3-0.5c-4.4-1.8-6.6-0.4-6.7,4.2
		c0,3.1,1.9,5.2,3.5,7.5c0.8,1.1,1.8,1.1,2.7,0.1c0.8-0.8,1.5-1.5,2.7-1.6c0.7,1.5,2.3,0.1,3.1,1c1.3,1.4-3,3.2,0,3.8
		c3.1,0.6,2.7,2.4,2.7,4.3c0,4.2,0.4,8.4-1,12.4c-0.4,1.2-0.6,2.1,1.1,2.3c0.1,1.2-0.1,2.3-1,3.3c-1.1,0.2-2.6-1.7-3.3,0.7
		c-0.9,3.4-2,5.9-6,7.7c-2.6,1.1-4.8,1.7-6.9,0.8c-2.3-1-2.2-0.2-2.6,1.6c-1.1,4-0.3,8.6-4.4,11.7c-1.6,1.2-5.4-0.3-4.9,3.6
		c-0.4,0-0.8,0-1.2,0.1c-2.3-1.9-4.4-4.1-8.5-3.5c3.2-3,5.8-1.8,8.4-1.2c0.2-2.2,0.7-4.3-0.2-6c-0.9-1.8-2,0.6-3,0.3
		c-0.2-0.1-0.5-0.3-0.5-0.5c-0.6-3.5-1.4-6.9-1.7-10.4c-0.1-1.8-0.4-4.2,2.6-4.6c0.5-0.1,0.3-0.9,0-1.4c-1.9-3.3-0.8-6.9-1.1-10.4
		c2.6,0.1,5.5-0.9,6.5,3c0.4,1.6,1.8,0.6,2.7,0.2c1.7-0.8,1.3-2.5,1.5-3.9c0.2-1.9,1.4-3.5,3.2-3.7c1.5-0.2,2.5,1.4,3.1,2.8
		c0.5,1.2,0.8,2.6,1,3.9c0.2,1.1,0,2.1,1.1,2.9c2.5,1.6,3,3.7,1.2,6.2c-1,1.5,0.1,2.3,1.1,3c1.2,0.8,1.9,0.2,2.6-0.9
		c1.8-2.9,3.6-5.7,3.1-9.4c-0.2-1.4-0.9-3.4,1.6-4c0,1.6,0,3.2,0,4.8c-0.4-1.6,3.3-3.5,0-4.8c1.2-3,2.4-6-2.3-7
		c-0.2,0-0.4-0.3-0.6-0.6c-1.4-3.1-2.9-3.2-4.8-0.4c-0.7,0.9-2.1,1.6-3.2,0.9c-0.9-0.6-0.9-2.2-0.1-2.9c1.6-1.5,0.5-2.7-0.1-4
		c-0.6-1.2-1.7-2.3-1.8-3.6c-0.4-3.6-1.5-4.6-4.4-1.9c-1.1,1-2.6,1-3.7,0.1c-1.6-1.2-0.1-1.6,0.8-2.2c0.9-0.7-0.3-1.4-0.3-2.1
		c-0.1-3.4-2.8-5.5-3.9-8.3c0.8,0,1.6,0,2.4,0c1.2-0.2,2.8,0.5,3.2-1.4c0.2-0.9,0.2-1.9-0.5-2.6c-1.2-1.4-2.3-0.6-3.5,0
		c-0.6-1.6-3.1,1-3.3-1.6c-0.2-1.9-0.5-3.9-0.8-5.8c2.1-3.7-1.1-4.5-3.3-5.8C64.3,9.8,63.1,8.6,63.9,7.1z M81.9,71.9
		c-0.2-1.7,0.1-4.3-2.9-4.2c-1.9,0.1-3.7,1-3.7,3.5c0,2.8,2.4,3.8,4.3,4.2C81.9,76,81.8,73.8,81.9,71.9z M67.1,78.6
		c0.9-1.4,3.9-0.7,3.2-3.4C70,74,68.9,74,68,74.3C65.3,74.9,66.6,76.9,67.1,78.6z"/>
	<path class="st4" d="M72.9,28.4c-0.8,0-1.6,0-2.4,0c-1.5-2.2-3.9-2.1-5.5-0.8c-1.5,1.2-2.1,3.6,0.5,5.1c1.1,0.6,0.9,1.6,0.9,2.5
		c0,8.4,0,16.7,0,25.1c0.3,3.5-0.8,7.1,1.1,10.4c0.3,0.5,0.5,1.4,0,1.4c-3,0.4-2.7,2.8-2.6,4.6c0.3,3.5,1.1,6.9,1.7,10.4
		c0,0.2,0.3,0.5,0.5,0.5c1.1,0.3,2.1-2.1,3-0.3c0.9,1.7,0.4,3.7,0.2,6c-2.6-0.6-5.2-1.8-8.4,1.2c4.1-0.6,6.2,1.6,8.5,3.5
		c0,1.2,0.1,2.4,0.1,3.5c-0.3,0.4-0.6,0.8-1,1.2c-0.3-0.3-0.7-0.9-1-0.9c-0.6,0-0.5,0.7-0.6,1.1c-3.1,0.8-6.1,1.6-9.2,2.4
		c-0.8-0.3-1.7-0.5-2.5-0.8c1.8-7.4,4-14.7,5.1-22.2c0.8-5.2,1.7-10.4,1.4-15.7c0.9-0.9,0.8-2,0.4-3.1c0.9-6.5,0.9-13,0-19.5
		c0.3-5.8-0.7-11.5-1.8-17.2c-0.1-2.6-0.4-5.1-1.3-7.5c0-0.1,0.1-0.2,0.1-0.3c-0.1-0.2-0.2-0.4-0.3-0.5c0.1-0.3,0-0.5-0.1-0.7
		c0.1-1.2-0.4-2.3-1.1-3.3c-0.5-2.6-1.1-5.2-1.6-7.8c0.1-0.4,0.2-0.8,0.3-1.2c2.2,0.5,4.3,1.1,6.5,1.6c-0.8,1.6,0.3,2.8,0.8,4.1
		c-0.8,0-1.6,0-2.5,0c-0.1-1.3-0.7-2.4-2.2-2.3c-1.3,0.1-1.1,1.3-1,2.2c0.1,2,1.6,0.6,2.4,0.8c0.2,1.7-0.4,3.4,0.5,5.4
		c1.9-2.1,4-0.9,6-0.5c0.3,1.9,0.7,3.9,0.8,5.8c0.2,2.5,2.7-0.1,3.3,1.6C72.4,25.6,72.6,27,72.9,28.4z M67.9,23.4
		c0-0.5,0-1.2-0.7-1.2c-0.7,0-0.7,0.6-0.7,1.2c0,0.5,0,1.2,0.7,1.2C67.9,24.6,67.9,23.9,67.9,23.4z M65,18.5
		c0.1,0.2,0.2,0.5,0.3,0.5c0.2,0,0.4-0.1,0.6-0.2c-0.2-0.2-0.3-0.5-0.5-0.7C65.4,18.2,65.2,18.3,65,18.5z"/>
	<path class="st4" d="M100.8,68.4c-1.7-0.1-1.5-1.1-1.1-2.3c1.4-4.1,1-8.3,1-12.4c0-2,0.4-3.7-2.7-4.3c-3-0.6,1.3-2.4,0-3.8
		c-0.8-0.8-2.4,0.6-3.1-1c-0.5-3.2,1.6-6.5,0-9.7c1.2-1.1,1.1-2.5,0.4-3.7c-1.4-2.3-4.3-3.7-3.9-7c-3.1-0.2-4.6-3.5-7.4-4
		c-1.8-0.3-2.9-0.8-3.7-2.4c-1-1.9-3-2.4-4.8-3.3c-1.6-0.8-3.4-3.9-5.2-7.5c1.1-0.6,2.1-2.2,3.3-0.2c0.3,2.3,2.6,2,3.9,2.9
		c1.4,1.5,3.3,2.2,5.1,3.1c0,0,0,0,0,0c0.4,1.3,1.5,1.8,2.5,2.5l0,0c2.8,1.3,3.3,5.2,6.6,6c0,0-0.1,0.3-0.1,0.3
		c0.2,1,0.7,1.6,1.7,1.9l0,0c-0.1,1.3,0,2.4,1.6,2.5c0,0,0,0,0,0c1.4,3.1,2.5,6.4,4.9,9l0,0c0,0.8-0.1,1.7,0.2,2.4
		c3.4,9.1,2.4,18.5,2.1,27.9C101.7,66.3,101.2,67.4,100.8,68.4z"/>
	<path class="st5" d="M52.5,114.2c0.5-1.9,4.1-2.8,2.8-4.8c-0.8-1.3-3.7,0-5.6,0.2c-1,0.1-2,0.6-2.5-0.6c-0.7-1.8,2.5-1.1,2-2.9
		c1.6-0.1,3.3-0.4,4.8-0.1c1.5,0.2,1.9-0.5,2.2-1.6c0.8,0.3,1.7,0.5,2.5,0.8c2.9,2,6.2,0,9.3,1c-0.1,1.5,1.6,1.2,2.1,2.4
		c-2.3,1.5-5,0-7.7,1.2c1.6,1.5,3,2.2,5,1.5c1.1-0.4,2.6-0.8,2.9,1c0.3,1.8-1.1,1.9-2.4,1.9c-2.5,0-4.6,0.1-6.9,2.1"/>
	<path class="st6" d="M17.3,93.7c5.8,3.7,11.3,8,18.1,9.8c0.3,0.1,0.4,0.6,0.7,0.9c-3,5.2-3.9,5.4-8.6,2.2c-0.5-0.4-1.3-0.6-1.9-0.5
		c-3.4,0.5-6.6-0.4-7.8-3.3C16.7,100.1,16,96.8,17.3,93.7z"/>
	<path class="st6" d="M92.5,21.6c0.3-0.6,0.8-1.2,0.8-1.8c0.1-1.5,0.9-2.1,2.4-2c1.5,0.1,1.7,1,1.7,2.2c0,0.7,0.1,1.3,0.2,1.9
		c1.4,1.2,4-5.1,4.2,1.5c0.9-2.2,0.8-4.1,2.6-5.7c0.2,3.3-0.6,6.1,0,9c0.6,2.8-4.3,2.7-4.4,5.8c-1.6-1.6-0.8-4.3-2.6-5.7
		c0.1,0,0.2,0,0.3-0.1c0,0,0.1-0.1,0.1-0.2c-0.1,0.1-0.2,0.2-0.3,0.3c-0.8-0.3-1.7-0.6-2.5-0.8l0,0c-0.1-1.1,0.2-2.5-1.6-2.5
		c0,0,0,0,0,0C93.4,22.7,93.1,22,92.5,21.6z"/>
	<path class="st7" d="M57.4,5.4c-0.1,0.4-0.2,0.8-0.3,1.2c-1.7-1.2-1.4-2.9-1.3-4.6c-0.1-0.6,1.5-1,0.5-1.4
		c-1.1-0.4-2.4-0.2-3.6-0.1c-3.5,0.3-3.7-1.1-1.9-3.7c1.6,1.6,3.1,3.8,5.2,0.7C56-2.8,56.8-3.1,56.8-3c3.1,4,7.3,1.3,10.9,1.8
		c2.5,0.3,3,1.3,2.7,3.4c-0.3,0.1-0.7,0.2-1,0.4c0.3,0.1,0.7,0.3,1,0.4c0,0.3,0,0.6,0.1,0.8c-1.1,0-2.2,0-3.3,0c0-0.3,0-0.6,0-0.8
		c0.1-0.1,0.1-0.2,0.2-0.3c-0.1,0.1-0.1,0.2-0.2,0.3c-0.5,0-1.1,0-1.6,0c-1.7-1.3-2.9,0-4.2,0.9c-1.2-0.1-2.4-0.3-3.6-0.2
		C55.7,3.8,57.5,4.8,57.4,5.4z"/>
	<path class="st8" d="M102.1,65.2c0.3-9.4,1.3-18.8-2.1-27.9c-0.3-0.7-0.1-1.6-0.2-2.4c2.9,1.4,1.4,4.8,3.2,6.7
		c0,1.7,0.1,3.5,2.6,3.2c0,2.2,1.8,4.6-1.3,6.4c-0.5,0.3-0.3,2-0.3,3.1c0,3.7,0.2,7.4-0.6,11.1C103,65.2,102.6,65.2,102.1,65.2z"/>
	<path class="st4" d="M104,73.4c-0.1-2.2,2.4-3.8,1.8-6.3c1.9,2.3,2.8-2,4.1-0.7c1.3,1.2,1,3.1,0,4.4c-0.8,1.1-2,1.7-1.8,3.4
		c0.2,1.6-0.5,2.6-2.3,2.4C103.7,76.4,104.1,74.8,104,73.4z"/>
	<path class="st9" d="M68,106.2c-3-1-6.3,1-9.3-1c3.1-0.8,6.1-1.6,9.2-2.4c0.5-0.1,1.1-0.2,1.6-0.2c0.3-0.4,0.6-0.8,1-1.2
		c2-0.5,3.9-0.3,5.6,0.8c0.2,0.2,0.4,0.4,0.6,0.6c0,0.2,0,0.4-0.1,0.6l-0.3,0c0,0-0.3,0-0.3,0c-0.5,0-1,0-1.6,0
		c-1.6,0.2-3.8-0.9-4.2,2.1C70.2,106.8,68.9,106,68,106.2z"/>
	<path class="st10" d="M26.4,8.4c-1.9,1.9-4.3,3.2-6.6,4.5c-0.4-1.5-3.7-0.1-2.8-3.4c0.8-2.8,2.4-2.5,4.2-2.4
		C23,7.3,25.1,6.1,26.4,8.4z"/>
	<path class="st7" d="M6.7,28.4c-1.3,2.8-2,5.9-4.4,8.1c-2.7-1.9-2-5.1-1.5-7.1C1.5,27.2,4.7,28.8,6.7,28.4z"/>
	<path class="st8" d="M76.8,102.8c-0.2-0.2-0.4-0.4-0.6-0.6c-0.4-1.2-1.3-2.4,0.6-3.4c2.8-1.6,5.5-3.4,8.3-5.2
		c0.1,0.2,0.3,0.3,0.4,0.5c-1.5,2.5-1.7,5.9-5.2,7C78.9,101.2,77.2,100.7,76.8,102.8z"/>
	<path class="st8" d="M96.5,83.7c-1.9,0.7-2.2,3.4-4.4,3.8c-0.2-0.1-0.3-0.2-0.5-0.4c3.2-4.6,5.9-9.6,8.3-14.6c0.3,0,0.6,0,0.9,0.1
		c-0.1,1.3-0.1,2.7-0.2,4c-2.9,0.9-1,3.3-1.5,5c-0.6,1-2.2,0.5-2.7,1.7C96.5,83.4,96.5,83.6,96.5,83.7z"/>
	<path class="st9" d="M91.8,21.2c-3.3-0.8-3.8-4.7-6.6-6c1.9-0.1,3.9-0.3,5.8-0.4C92.8,16.8,91.9,19.1,91.8,21.2z"/>
	<path class="st8" d="M92.1,87.5c0.1,3.5-0.4,6.6-5.2,5.5L86.8,93c-0.1-3.3,3.2-3.9,4.8-5.8C91.8,87.3,91.9,87.4,92.1,87.5z"/>
	<path class="st6" d="M91,14.9c-1.9,0.1-3.9,0.3-5.8,0.4c0,0,0,0,0,0c0-0.8,0-1.7,0-2.5C87.7,11.9,90.5,10.2,91,14.9z"/>
	<path class="st8" d="M97.4,26.7c1.8,1.5,1,4.1,2.6,5.7c0,0.8-0.1,1.6-0.1,2.5c-2.5-2.6-3.5-5.9-4.9-9
		C95.8,26.2,96.6,26.4,97.4,26.7L97.4,26.7z"/>
	<path class="st9" d="M100.8,72.6c-0.3,0-0.6,0-0.9-0.1c0-0.3-0.1-0.6-0.1-0.8c0.9-0.9,1.1-2,1-3.3c0.4-1.1,0.9-2.1,1.3-3.2
		c0.4,0,0.9,0,1.3,0C103.1,67.9,104.7,71.2,100.8,72.6z"/>
	<path class="st6" d="M113.1,25.2c-0.2,1.2,0.3,2.7-1.2,2.9c-1.6,0.1-1.3-1.4-1.3-2.4c0-1.1,0-2.5,1.3-2.6"/>
	<path class="st8" d="M82.8,12.8c-1.8-0.9-3.7-1.5-5.1-3.1c1-0.6,1-1.6,1-2.5C81.2,8.1,82.3,10.3,82.8,12.8z"/>
	<path class="st5" d="M99.2,81.5c0.4-1.7-1.5-4,1.5-5C102.7,78.2,102.5,78.7,99.2,81.5z"/>
	<path class="st6" d="M90.8,10.1c-0.9-0.3-1.9-0.5-2.1-1.6c-0.2-1.4,0.9-1.4,1.8-1.5c1,0,2,0.1,1.9,1.5C92.3,9.5,91.8,10,90.8,10.1z
		"/>
	<path class="st10" d="M105.7,44.7c-2.5,0.3-2.6-1.4-2.6-3.2C105.4,41.4,107.6,41.4,105.7,44.7z"/>
	<path class="st9" d="M78.6,7.2c0,1,0,1.9-1,2.5c-1.3-0.9-3.6-0.5-3.9-2.9C75.4,7,77,7.1,78.6,7.2z"/>
	<path class="st8" d="M61.4,3.9C62.7,3,63.9,1.8,65.6,3c0,0.3,0.1,0.5,0.1,0.8C64.3,5.1,62.8,4.9,61.4,3.9z"/>
	<path class="st11" d="M76.8,102.8c0.4-2.2,2.1-1.6,3.4-1.7c0.2,2.9-1.7,2.6-3.5,2.4C76.8,103.3,76.9,103.1,76.8,102.8z"/>
	<path class="st8" d="M67.2,3.8c1.1,0,2.2,0,3.3,0c0,2.1-1.7,1.5-2.8,1.7c-1.5,0.3-1.2-0.9-1.3-1.7C66.7,3.8,66.9,3.8,67.2,3.8z"/>
	<path class="st11" d="M74.6,103.5c0.5,0,1,0,1.6,0c0.3,2.7-1.3,2.8-3.4,2.5C73.4,105,74.8,104.8,74.6,103.5z"/>
	<path class="st5" d="M96.5,83.7c0-0.2,0-0.3,0-0.5c0.8,0,1.6-0.3,2.1,0.5c0.1,0.1-0.1,0.6-0.2,0.7C97.5,85,97,84.5,96.5,83.7z"/>
	<path class="st8" d="M85.2,12.7c0,0.8,0,1.7,0,2.5c-1-0.7-2.1-1.2-2.5-2.5C83.6,12.8,84.4,12.8,85.2,12.7z"/>
	<path class="st10" d="M30.5,6.3c-0.4,1.4-1.7,0.9-2.6,1.3C28.2,6.2,29.4,6.3,30.5,6.3z"/>
	<path class="st8" d="M92.5,21.6c0.6,0.5,0.9,1.1,0.9,1.9c-1-0.3-1.5-0.9-1.7-1.9C92,21.6,92.2,21.6,92.5,21.6z"/>
	<path class="st8" d="M86.9,93c-0.5,0.4-0.9,0.7-1.4,1.1c-0.1-0.2-0.3-0.3-0.4-0.5C85.5,93,86.1,92.8,86.9,93L86.9,93z"/>
	<path class="st5" d="M101.9,82.9c0.1,0,0.2,0,0.2,0c0.1,0.1,0,0.2,0.1,0.3c-0.1,0-0.3,0-0.4,0C101.8,83.1,101.8,83,101.9,82.9z"/>
	<path class="st8" d="M70.4,3c-0.3-0.1-0.7-0.3-1-0.4c0.3-0.1,0.7-0.3,1-0.4C70.5,2.4,70.5,2.7,70.4,3z"/>
	<path class="st4" d="M67.2,3.8c-0.3,0-0.5,0-0.8,0c-0.2,0-0.5,0-0.7,0c0-0.3-0.1-0.5-0.1-0.8c0.5,0,1.1,0,1.6,0l0,0
		C67.2,3.2,67.2,3.5,67.2,3.8z"/>
	<path class="st12" d="M61.4,26.7c1.1,5.7,2.1,11.4,1.8,17.2c-0.7-0.6-1.4-1.3-2.2-1.6c-5.6-2.4-7.1-8.6-3.2-13.4
		C58.8,27.6,61,28.8,61.4,26.7z"/>
	<path class="st12" d="M58.7,14.4c0.7,1,1.2,2.1,1.1,3.3c-1.4-0.1-2.5-2.5-4.2-0.5c-0.7,0.8-1.4-0.1-2.3-0.6c-3.4-2-6.8-5-11.3-2.7
		c-1.3,0.6-2.9,0.9-3.6-0.6c-0.9-1.9,1.1-2.1,2.1-2.7c1.7-1,3.3-1.6,5.3-0.3c1.4,0.9,3.4,1.7,4.9,1.4C54,11.2,56.4,12.3,58.7,14.4z"
		/>
	<path class="st12" d="M55.1,51.3c-2.2-0.4-4.3-1.6-4.9-4.2c-0.4-1.7,1.1-3.2,2.5-2.9c2.6,0.4,4.8,1.9,5.3,4.8
		C58.3,50.7,57,51.2,55.1,51.3z"/>
	<path class="st2" d="M49,60.3c-0.8-0.2-2.1,0.2-1.8-1.3c0.2-1.1,0.9-2,2.2-1.9c1.2,0.1,2.2,0.6,2.1,1.9C51.3,60.5,50,60.1,49,60.3z
		"/>
	<path class="st2" d="M45.7,54.4c-0.1,1.1-0.9,1.6-1.9,1.6c-1.1,0.1-2.2-0.1-2.4-1.5c-0.1-1.2,0.8-1.6,1.8-1.7
		C44.3,52.9,45.3,53.1,45.7,54.4z"/>
	<path class="st12" d="M63.2,63.4c0.4,1.1,0.4,2.2-0.4,3.1C62.3,65.4,61.8,64.3,63.2,63.4z"/>
	<path class="st12" d="M59.9,18.5c0.1,0.2,0.2,0.3,0.3,0.5c0,0.1-0.1,0.2-0.1,0.3c-0.1-0.2-0.2-0.3-0.2-0.5
		C59.8,18.7,59.8,18.5,59.9,18.5z"/>
	<path class="st13" d="M66.4,60.2c0-8.4,0-16.7,0-25.1c0-0.9,0.2-1.9-0.9-2.5c-2.6-1.4-1.9-3.8-0.5-5.1c1.5-1.3,3.9-1.4,5.5,0.8
		c1.2,2.8,3.8,4.9,3.9,8.3c0,0.7,1.2,1.4,0.3,2.1c-0.9,0.6-2.3,1-0.8,2.2c1.1,0.9,2.6,0.9,3.7-0.1c2.9-2.7,4-1.7,4.4,1.9
		c0.1,1.2,1.2,2.4,1.8,3.6c0.6,1.3,1.7,2.5,0.1,4c-0.8,0.7-0.8,2.3,0.1,2.9c1.1,0.7,2.5,0,3.2-0.9c2-2.8,3.5-2.7,4.8,0.4
		c0.1,0.2,0.3,0.5,0.6,0.6c4.8,1,3.5,4,2.3,7l0,0c-2.5,0.5-1.7,2.6-1.6,4c0.5,3.7-1.2,6.5-3.1,9.4c-0.7,1.1-1.5,1.7-2.6,0.9
		c-1-0.7-2.1-1.5-1.1-3c1.8-2.5,1.3-4.6-1.2-6.2c-1.1-0.7-1-1.8-1.1-2.9c-0.2-1.3-0.4-2.7-1-3.9c-0.6-1.4-1.6-3-3.1-2.8
		c-1.8,0.2-3,1.8-3.2,3.7c-0.1,1.5,0.2,3.1-1.5,3.9c-0.9,0.5-2.3,1.4-2.7-0.2C71.9,59.4,68.9,60.3,66.4,60.2z"/>
	<path class="st11" d="M86.8,93c-0.7-0.1-1.3,0.1-1.7,0.7c-2.7,1.7-5.4,3.6-8.3,5.2c-1.9,1-1,2.2-0.6,3.4c-1.8-1.1-3.7-1.3-5.6-0.8
		c0-1.2-0.1-2.3-0.1-3.5c0.4,0,0.8,0,1.2-0.1c-0.5-4,3.3-2.4,4.9-3.6c4.1-3.1,3.3-7.7,4.4-11.7c0.5-1.8,0.3-2.6,2.6-1.6
		c2.1,1,4.3,0.4,6.9-0.8c4-1.7,5.1-4.3,6-7.7c0.7-2.4,2.2-0.5,3.3-0.7c0,0.3,0.1,0.6,0.1,0.8c-2.4,5.1-5.1,10-8.3,14.6
		C90,89.1,86.7,89.6,86.8,93z"/>
	<path class="st13" d="M95,34.9c1.6,3.2-0.5,6.5,0,9.7c-1.2,0.1-2,0.8-2.7,1.6c-1,1-2,0.9-2.7-0.1c-1.6-2.3-3.6-4.3-3.5-7.5
		c0-4.6,2.3-6.1,6.7-4.2C93.4,34.7,94.2,34.8,95,34.9z"/>
	<path class="st13" d="M81.9,71.9c-0.1,1.8,0,4.1-2.3,3.6c-1.9-0.4-4.2-1.3-4.3-4.2c0-2.5,1.8-3.4,3.7-3.5
		C82.1,67.6,81.7,70.2,81.9,71.9z"/>
	<path class="st13" d="M62.3,11.2c0.8,0,1.6,0,2.5,0c2.2,1.3,5.3,2,3.3,5.8c-2-0.5-4.1-1.7-6,0.5c-0.9-2-0.3-3.7-0.5-5.4
		C61.7,11.7,62,11.4,62.3,11.2z"/>
	<path class="st10" d="M72.9,28.4c-0.3-1.4-0.5-2.7-0.8-4.1c1.2-0.6,2.4-1.4,3.5,0c0.6,0.8,0.6,1.7,0.5,2.6
		C75.7,28.9,74.1,28.2,72.9,28.4z"/>
	<path class="st4" d="M67.1,78.6c-0.4-1.8-1.7-3.7,0.9-4.4c0.9-0.2,2-0.2,2.3,1C71,77.9,67.9,77.2,67.1,78.6z"/>
	<path class="st13" d="M95,60.2c3.3,1.3-0.4,3.3,0,4.8C95,63.5,95,61.9,95,60.2C95,60.3,95,60.2,95,60.2z"/>
	<path class="st0" d="M62.3,11.2c-0.3,0.3-0.6,0.5-0.8,0.8c-0.8-0.2-2.3,1.2-2.4-0.8c-0.1-0.9-0.2-2.1,1-2.2
		C61.6,8.7,62.2,9.8,62.3,11.2z"/>
	<path class="st13" d="M67.9,23.4c-0.1,0.5,0,1.2-0.7,1.2c-0.7,0-0.7-0.6-0.7-1.2c0-0.5,0-1.2,0.7-1.2
		C67.9,22.2,67.9,22.9,67.9,23.4z"/>
	<path class="st13" d="M65,18.5c0.2-0.1,0.3-0.3,0.5-0.4c0.2,0.2,0.3,0.5,0.5,0.7c-0.2,0.1-0.4,0.3-0.6,0.2
		C65.2,19,65.2,18.7,65,18.5z"/>
	<path class="st11" d="M69.6,102.6c-0.5,0.1-1.1,0.2-1.6,0.2c0.1-0.4-0.1-1.1,0.6-1.1C68.9,101.7,69.3,102.3,69.6,102.6z"/>
	<path class="st8" d="M93.4,23.4c1.8,0,1.6,1.3,1.6,2.5C93.4,25.8,93.3,24.7,93.4,23.4z"/>
	<path class="st8" d="M97.5,26.7c0.1-0.1,0.2-0.2,0.3-0.3c0,0.1,0,0.2-0.1,0.2C97.7,26.6,97.5,26.7,97.5,26.7
		C97.4,26.7,97.5,26.7,97.5,26.7z"/>
	<path class="st8" d="M67.2,3c0.1-0.1,0.1-0.2,0.2-0.3C67.3,2.8,67.3,2.9,67.2,3C67.2,3,67.2,3,67.2,3z"/>
</g>
<g>
	<path class="st14" d="M90.8,126.5H15c-2.2,0-4-1.8-4-4v-23c0-2.2,1.8-4,4-4h75.8c2.2,0,4,1.8,4,4v23
		C94.8,124.7,93,126.5,90.8,126.5z"/>
	<g>
		<path class="st15" d="M31.9,113c-0.1-2-0.1-4.4-0.1-6.8h-0.1c-0.5,2.1-1.2,4.4-1.8,6.4l-2,6.4H25l-1.8-6.4
			c-0.5-1.9-1.1-4.3-1.5-6.4l0,0c-0.1,2.2-0.2,4.8-0.3,6.8l-0.3,6.3h-3.4l1.1-16.5h5l1.6,5.5c0.5,1.9,1,4,1.4,5.9h0.1
			c0.5-1.9,1-4.1,1.6-5.9l1.8-5.5h4.9l0.9,16.5h-3.6L31.9,113z"/>
		<path class="st15" d="M53.7,110.9c0,5.4-3.3,8.7-8.1,8.7c-4.9,0-7.7-3.7-7.7-8.4c0-4.9,3.2-8.6,8-8.6
			C51,102.6,53.7,106.3,53.7,110.9z M41.8,111.1c0,3.2,1.5,5.5,4,5.5s4-2.4,4-5.6c0-3-1.4-5.5-4-5.5
			C43.3,105.5,41.8,107.9,41.8,111.1z"/>
		<path class="st15" d="M71.2,110.9c0,5.4-3.3,8.7-8.1,8.7c-4.9,0-7.7-3.7-7.7-8.4c0-4.9,3.2-8.6,8-8.6
			C68.5,102.6,71.2,106.3,71.2,110.9z M59.3,111.1c0,3.2,1.5,5.5,4,5.5c2.5,0,4-2.4,4-5.6c0-3-1.4-5.5-4-5.5
			C60.8,105.5,59.3,107.9,59.3,111.1z"/>
		<path class="st15" d="M73.7,119.3v-16.5H78l3.4,6c1,1.7,2,3.8,2.7,5.6h0.1c-0.2-2.2-0.3-4.4-0.3-6.9v-4.8h3.4v16.5h-3.9l-3.5-6.4
			c-1-1.8-2.1-3.9-2.9-5.8h-0.1c0.1,2.2,0.1,4.5,0.1,7.2v5h-3.3V119.3z"/>
	</g>
</g>
</svg>
