<?xml version="1.0" encoding="utf-8"?>
<!-- Generator: Adobe Illustrator 25.0.0, SVG Export Plug-In . SVG Version: 6.00 Build 0)  -->
<svg version="1.1" id="Layer_1" xmlns="http://www.w3.org/2000/svg" xmlns:xlink="http://www.w3.org/1999/xlink" x="0px" y="0px"
	 width="105.5px" height="129px" viewBox="0 0 105.5 129" style="enable-background:new 0 0 105.5 129;" xml:space="preserve">
<style type="text/css">
	.st0{fill:#FCFCFC;}
	.st1{fill:#2D3C44;}
	.st2{fill:#495C64;}
	.st3{fill:#F8F4EC;}
	.st4{fill:#F2F5F4;}
	.st5{fill:#EBEDEE;}
	.st6{fill:#E5E8EA;}
	.st7{fill:#D0D7D8;}
	.st8{fill:#B7C0C4;}
	.st9{fill:#A5B0B2;}
	.st10{fill:#DDE2E3;}
	.st11{fill:#EEF1F2;}
	.st12{fill:#4B5D65;}
	.st13{fill:#E9E0DB;}
	.st14{fill:#48A6DD;}
	.st15{fill:#FFFFFF;}
</style>
<g>
	<path class="st0" d="M67.5,110.8c1.2,0,2.5-0.1,2.2-1.8c-0.3-1.7-1.6-1.4-2.7-0.9c-1.9,0.7-3.2,0-4.7-1.4c2.6-1.1,5.2,0.3,7.3-1.1
		c-0.5-1.1-2.1-0.9-2-2.3c0.8-0.2,2.1,0.5,2.2-0.7c0.4-2.8,2.4-1.8,4-2c0.2,1.3-1.2,1.4-1.7,2.3c2,0.3,3.4,0.2,3.2-2.3l0.3,0
		c0,0,0.3,0,0.3,0c1.7,0.2,3.5,0.5,3.3-2.2c3.2-1,3.5-4.3,4.9-6.6c0.4-0.3,0.9-0.7,1.3-1c4.5,1,5-1.9,4.9-5.2
		c2.1-0.4,2.4-2.9,4.2-3.6c0.4,0.7,1,1.2,1.8,0.7c0.1-0.1,0.3-0.5,0.2-0.6c-0.5-0.8-1.3-0.5-2-0.5c0.4-1.2,1.9-0.7,2.5-1.6
		c3.1-2.7,3.3-3.2,1.4-4.7c0.1-1.3,0.1-2.5,0.2-3.8c3.6-1.3,2.2-4.5,2.5-7c0.7-3.5,0.6-7,0.6-10.5c0-1-0.2-2.6,0.3-2.9
		c2.9-1.6,1.2-3.9,1.2-6c1.8-3.1-0.2-3.1-2.5-3c-1.7-1.8-0.3-5-3-6.3c0,0,0,0,0,0c0-0.8,0.1-1.5,0.1-2.3c0.1-2.9,4.7-2.8,4.2-5.5
		c-0.6-2.8,0.1-5.4,0-8.5c-1.8,1.5-1.6,3.3-2.5,5.4c-0.2-6.3-2.6-0.3-3.9-1.5c-0.1-0.5-0.1-1.2-0.2-1.8c0-1.1-0.3-2-1.7-2.1
		c-1.4-0.1-2.1,0.4-2.3,1.9c-0.1,0.6-0.5,1.1-0.8,1.7c-0.3,0.1-0.5,0-0.8,0l0.1-0.3c0.1-2,0.9-4.2-0.7-6c-0.5-4.4-3.2-2.8-5.5-2
		c-0.8,0-1.5,0-2.3,0l0,0c-0.5-2.4-1.4-4.4-3.9-5.3c-1.5-0.1-3.1-0.2-4.6-0.3c-1.1-1.9-2.1-0.4-3.1,0.2c-2.1,0-4.1,0-6.2,0
		c-2-0.5-4.1-1-6.1-1.6c0.1-0.6-1.7-1.6,0.3-1.7c1.1-0.1,2.3,0.1,3.4,0.2c1.4,1,2.7,1.2,4.1,0c0.2,0,0.4,0,0.7,0
		c0.1,0.8-0.2,1.9,1.2,1.6c1.1-0.2,2.7,0.4,2.6-1.6c0-0.3,0-0.5,0-0.8c0-0.2,0-0.5,0-0.7c0.2-1.9-0.2-2.9-2.5-3.2
		C63.9,1.2,59.9,3.8,57,0c0-0.1-0.7,0.2-0.9,0.4c-2,3-3.4,0.9-4.9-0.6c-1.6,2.5-1.5,3.9,1.8,3.5c1.1-0.1,2.4-0.3,3.4,0.1
		c1,0.4-0.5,0.8-0.4,1.3c-8.3-0.6-16.1,1.6-23.9,4.1c-1,0-2.1-0.1-2.5,1.3c-0.3,0.5-0.7,0.9-1.4,0.7c-1.2-2.1-3.2-1.1-4.9-1.2
		c-1.7-0.1-3.2-0.3-4,2.3c-0.9,3.1,2.2,1.8,2.6,3.2c0,0.2-0.1,0.4-0.1,0.6c-5.3,3.6-9.2,8.5-12.3,14c-1.9,0.4-4.9-1.1-5.5,1
		c-0.5,1.9-1.2,4.9,1.4,6.7c0.9,1.9-2,2.9-1.1,4.7c-0.1,1-0.1,2.1-0.3,3.1C1.6,55,3.2,64.5,7,73.8c2.8,6.9,7.5,12.5,12.7,17.7
		c-1.2,2.9-0.6,6,0.4,8.6c1.1,2.8,4.2,3.6,7.4,3.1c0.6-0.1,1.3,0.1,1.8,0.5c4.5,3.1,5.4,2.9,8.2-2.1c4.2-0.1,8.1,2,12.4,1.6
		c0.5,1.7-2.5,1.1-1.9,2.8c0.4,1.1,1.4,0.6,2.3,0.5c1.8-0.2,4.5-1.4,5.3-0.2c1.2,1.9-2.1,2.7-2.6,4.6c-3,0-5.9,0-8.9,0
		c-0.8,0-1.7,0.1-1.7,1.1c0,1,0.9,1.1,1.7,1.1c3,0,5.9,0,8.9,0c2.8-0.9,6.2,1.3,8.1-0.4C63.2,110.9,65.2,110.9,67.5,110.8"/>
	<path class="st0" d="M59.9,115.5c-1.8,0-3.7,0.3-5.4-0.1c-3.5-0.8-4.7,1.8-6.6,3.6"/>
	<path class="st0" d="M101.6,72.2c0.2,1.3-0.3,2.8,1.7,3c1.7,0.2,2.4-0.7,2.2-2.3c-0.2-1.5,1-2.2,1.7-3.2c0.9-1.3,1.2-3,0-4.2
		c-1.3-1.2-2.1,2.8-3.9,0.7C103.9,68.6,101.5,70.2,101.6,72.2z"/>
	<path class="st0" d="M22,109.3c2.1,1.5,4.1,1.7,6.1,1.5c0.9-0.1,1.4-0.6,1.4-1.5c0-0.9-0.5-1.4-1.4-1.5
		C26.2,107.6,24.2,107.8,22,109.3"/>
	<path class="st0" d="M109,24.6c-1.2,0.1-1.2,1.5-1.2,2.5c0,0.9-0.3,2.4,1.3,2.2c1.4-0.1,0.9-1.5,1.1-2.7"/>
	<path class="st0" d="M89.1,12.4c0.9-0.1,1.4-0.6,1.5-1.4c0.1-1.3-0.8-1.4-1.8-1.4c-0.9,0-2,0.1-1.7,1.4
		C87.3,11.9,88.3,12.1,89.1,12.4z"/>
	<path class="st0" d="M99.6,81.2c0,0.1-0.1,0.2-0.1,0.3c0.1,0,0.3,0,0.4,0c0-0.1,0-0.2-0.1-0.3C99.8,81.2,99.7,81.2,99.6,81.2z"/>
	<path class="st1" d="M28.3,10.7c0.7,0.2,1.1-0.2,1.4-0.7c0.8-0.4,2.1,0.1,2.5-1.3c7.8-2.5,15.6-4.7,23.9-4.1
		C56,6.3,55.8,8,57.3,9.1c0.5,2.5,1,4.9,1.5,7.4c-2.2-2-4.5-3-7.6-2.5c-1.5,0.3-3.3-0.5-4.7-1.3c-1.9-1.2-3.4-0.7-5,0.3
		c-1,0.6-2.9,0.8-2,2.6c0.7,1.4,2.2,1.1,3.4,0.5c4.3-2.1,7.4,0.7,10.7,2.6c0.8,0.5,1.5,1.3,2.2,0.5c1.7-1.9,2.7,0.4,4,0.5
		c0.1,0.2,0.1,0.5,0.1,0.7c0,0.1-0.1,0.2-0.1,0.3c0,0.2,0.1,0.3,0.2,0.5c0.9,2.3,1.2,4.6,1.3,7.1c-0.3,2-2.4,0.8-3.4,2
		c-3.6,4.5-2.3,10.5,3,12.7c0.8,0.3,1.4,1,2.1,1.6c0.9,6.1,0.9,12.3,0,18.4c-1.3,0.8-0.9,1.9-0.4,2.9c0.3,5-0.6,9.9-1.3,14.8
		c-1.1,7.1-3.2,14-4.9,21c-0.3,1.1-0.7,1.7-2.1,1.5c-1.5-0.2-3,0.1-4.6,0.1c-4.2,0.4-8.2-1.8-12.4-1.6c-0.2-0.3-0.4-0.8-0.6-0.9
		c-6.5-1.7-11.6-5.8-17.1-9.2C14.4,86.3,9.7,80.6,7,73.8C3.2,64.5,1.6,55,4.2,45.1c0.3-1,0.2-2,0.3-3.1c1.4,0.3,1.2,1.4,1.3,2.5
		C5.9,47,5.5,49.7,6.2,52c1.5,4.7,3.7,9.2,5.7,13.8c1.5,3.5,3.7,3.7,6.7,3c0.7-0.2,1.5-0.5,2.2-0.4c1.4,0.2,2.3,1.1,2.6,2.5
		c0.2,1.3-0.2,2.4-1.6,2.6c-2.3,0.3-4,1.6-3.2,3.7c0.9,2.5,2,5.4,5.8,5c3.3-0.4,4.6-2.4,2.8-5.2c-0.6-0.9-2.1-2.3-0.5-2.7
		c2.4-0.7,3.4-3.6,6.1-3.4c0.2,0,0.7,1.1,0.6,1.2c-2.5,2.8-3.6,5.8-2.4,9.6c0.1,0.4-2.3,2.6-1,3.7c1.3,1,3.4,0.2,4.8-1.1
		c1.3-1.2,2.4-2,4.3-2.1c4.9-0.1,6.6-2.3,5.9-7.3c-0.2-1.5,0.3-2.7,1.4-3.8c0.7-0.7,1.2-1.9-0.3-1.9c-2.4-0.1-2.3-1.5-2.8-3.2
		c-0.5-1.6-1.7-4-3.4-3.6c-2.3,0.6-0.3,2.8-0.3,4.2c0,0.5,0.2,1,0.4,1.5c0.3,0.8,0.3,1.6-0.5,2c-1.1,0.5-1-0.7-1.5-1.1
		c-2.7-2.4-3.1-6.2-6.2-8.7c-3.7-3-5-11.6-2.6-14.6c3-3.7,7.1-2.2,11-0.9c2.9,1,5.2-0.8,6.6-2.9c1.4-2.1-1.3-2.9-2.6-3.9
		c-1.8-1.5-1.8-2.5,0.3-3.7c2.9-1.6,5.7-3.4,8.4-5.2c1.2-0.8,2.4-2.7,0.8-3.4c-3.4-1.5-5.6-4.6-8.8-6.2c-4.6-2.4-8.4,0.4-12.4,1.4
		c-1.6,0.4-2.7,0.7-2.9,2.8c-0.3,2.5-2.4,3.8-4.6,4.8c-1.2,0.6-3,0-2.7-1c0.8-2.5,0.2-6.1,3.1-7.4c2.5-1.1,4.9-2.7,7.5-3.6
		c1-0.3,2.2-0.6,1.8-1.9c-0.4-1.4-1.8-1.4-2.9-1c-2.4,0.8-4.9,1.6-6.9,3.4c-1.9,1.7-2.7,0.7-3-1.3c0-0.2,0-0.4,0.1-0.6
		C24.2,13.8,26.5,12.6,28.3,10.7z M55.4,51.3c1.8-0.1,3-0.6,2.8-2.2c-0.5-2.7-2.6-4.1-5-4.6c-1.4-0.2-2.7,1.2-2.4,2.8
		C51.3,49.8,53.3,50.9,55.4,51.3z M49.6,59.8c0.9-0.1,2.2,0.2,2.3-1.2c0.1-1.2-0.8-1.7-2-1.8c-1.3-0.1-1.9,0.7-2.1,1.8
		C47.6,59.9,48.8,59.7,49.6,59.8z M46.5,54.3c-0.3-1.3-1.3-1.5-2.3-1.4c-0.9,0.1-1.8,0.5-1.7,1.6c0.1,1.3,1.2,1.5,2.3,1.4
		C45.6,55.8,46.4,55.4,46.5,54.3z"/>
	<path class="st2" d="M21.9,15.6c0.3,2,1.2,3,3,1.3c2-1.8,4.4-2.6,6.9-3.4c1.2-0.4,2.5-0.4,2.9,1c0.4,1.3-0.8,1.6-1.8,1.9
		c-2.6,0.9-5,2.4-7.5,3.6c-2.8,1.3-2.2,4.8-3.1,7.4c-0.3,1,1.4,1.6,2.7,1c2.1-1,4.3-2.4,4.6-4.8c0.2-2.1,1.3-2.4,2.9-2.8
		c4.1-1,7.8-3.8,12.4-1.4c3.3,1.7,5.4,4.7,8.8,6.2c1.7,0.7,0.5,2.6-0.8,3.4c-2.7,1.8-5.5,3.6-8.4,5.2c-2.1,1.2-2.1,2.3-0.3,3.7
		c1.3,1,3.9,1.8,2.6,3.9c-1.3,2.1-3.6,3.9-6.6,2.9c-3.9-1.3-8-2.8-11,0.9c-2.4,3-1.1,11.6,2.6,14.6c3,2.5,3.5,6.2,6.2,8.7
		c0.5,0.4,0.4,1.6,1.5,1.1c0.8-0.4,0.8-1.2,0.5-2c-0.2-0.5-0.3-1-0.4-1.5c0-1.5-2.1-3.6,0.3-4.2c1.6-0.4,2.9,2,3.4,3.6
		c0.5,1.7,0.5,3.1,2.8,3.2c1.5,0,1,1.2,0.3,1.9c-1.1,1.1-1.6,2.3-1.4,3.8c0.7,5-1,7.2-5.9,7.3c-1.9,0-3.1,0.9-4.3,2.1
		c-1.4,1.3-3.5,2.1-4.8,1.1c-1.4-1.1,1.1-3.2,1-3.7c-1.2-3.8-0.1-6.8,2.4-9.6c0.1-0.1-0.4-1.2-0.6-1.2c-2.7-0.2-3.7,2.7-6.1,3.4
		c-1.6,0.5-0.1,1.8,0.5,2.7c1.8,2.8,0.6,4.8-2.8,5.2c-3.8,0.4-4.9-2.5-5.8-5c-0.8-2.1,0.9-3.4,3.2-3.7c1.4-0.2,1.9-1.3,1.6-2.6
		c-0.3-1.4-1.2-2.3-2.6-2.5c-0.7-0.1-1.5,0.2-2.2,0.4c-3,0.7-5.2,0.5-6.7-3c-2-4.6-4.2-9-5.7-13.8c-0.7-2.3-0.4-5-0.5-7.5
		c0-1,0.1-2.1-1.3-2.5c-1-1.9,1.9-2.9,1.1-4.7c2.2-2.1,2.9-5,4.1-7.7C12.8,24.1,16.7,19.3,21.9,15.6z"/>
	<path class="st3" d="M63.8,9.5c2.1,0,4.1,0,6.2,0c1.7,3.4,3.4,6.3,4.9,7.1c1.7,0.9,3.6,1.3,4.5,3.2c0.8,1.5,1.8,2,3.5,2.3
		c2.6,0.4,4,3.5,7,3.7c-0.4,3.1,2.4,4.4,3.6,6.6c0.7,1.2,0.8,2.4-0.4,3.5c-0.7-0.1-1.5-0.2-2.2-0.5c-4.1-1.7-6.3-0.3-6.3,4
		c0,3,1.8,4.9,3.4,7.1c0.7,1,1.7,1.1,2.6,0.1c0.7-0.7,1.5-1.4,2.6-1.5c0.6,1.5,2.1,0.1,2.9,0.9c1.2,1.3-2.8,3,0,3.6
		c3,0.6,2.6,2.2,2.6,4.1c0,3.9,0.3,7.9-1,11.8c-0.4,1.1-0.6,2,1,2.1c0.1,1.1-0.1,2.2-0.9,3.1c-1,0.2-2.5-1.6-3.1,0.7
		c-0.9,3.2-1.9,5.6-5.7,7.3c-2.5,1.1-4.5,1.6-6.5,0.7c-2.2-1-2-0.2-2.5,1.5c-1,3.8-0.3,8.2-4.2,11c-1.5,1.1-5.1-0.3-4.6,3.4
		c-0.4,0-0.8,0-1.2,0.1c-2.2-1.8-4.2-3.9-8.1-3.3c3-2.9,5.5-1.7,7.9-1.2c0.1-2.1,0.6-4-0.2-5.6c-0.9-1.7-1.9,0.5-2.9,0.3
		c-0.2,0-0.5-0.3-0.5-0.5c-0.6-3.3-1.3-6.5-1.6-9.8c-0.1-1.7-0.4-4,2.5-4.3c0.4-0.1,0.3-0.9,0-1.4c-1.8-3.1-0.7-6.6-1-9.8
		c2.4,0.1,5.2-0.8,6.2,2.8c0.4,1.5,1.7,0.6,2.5,0.2c1.6-0.8,1.2-2.3,1.4-3.7c0.2-1.8,1.3-3.3,3-3.5c1.5-0.2,2.4,1.4,3,2.6
		c0.5,1.2,0.7,2.4,0.9,3.7c0.1,1,0,2,1.1,2.7c2.3,1.6,2.8,3.5,1.1,5.9c-1,1.4,0.1,2.2,1,2.8c1.1,0.8,1.8,0.2,2.5-0.8
		c1.7-2.7,3.4-5.4,2.9-8.9c-0.2-1.3-0.9-3.3,1.5-3.7c0,1.5,0,3,0,4.6c-0.4-1.5,3.1-3.3,0-4.6c1.1-2.8,2.3-5.7-2.2-6.6
		c-0.2,0-0.4-0.3-0.5-0.5c-1.3-3-2.7-3-4.6-0.4c-0.6,0.9-2,1.5-3,0.8c-0.9-0.6-0.8-2.1-0.1-2.8c1.5-1.4,0.5-2.5-0.1-3.7
		c-0.6-1.1-1.6-2.2-1.7-3.4c-0.4-3.4-1.4-4.3-4.2-1.8c-1.1,1-2.5,1-3.5,0.1c-1.5-1.2-0.1-1.5,0.7-2.1c0.9-0.7-0.2-1.3-0.3-2
		c-0.1-3.2-2.6-5.2-3.7-7.8c0.8,0,1.5,0,2.3,0c1.1-0.1,2.7,0.5,3-1.3c0.2-0.8,0.2-1.8-0.4-2.5c-1.1-1.3-2.2-0.6-3.3,0
		c-0.5-1.5-2.9,0.9-3.1-1.5c-0.2-1.8-0.5-3.7-0.8-5.5c2-3.5-1-4.2-3.1-5.4C64.1,12.1,63,11,63.8,9.5z M80.8,70.8
		c-0.2-1.7,0.1-4.1-2.7-3.9c-1.8,0.1-3.5,1-3.5,3.3c0,2.7,2.2,3.6,4,4C80.8,74.7,80.7,72.6,80.8,70.8z M66.7,77.2
		c0.8-1.4,3.7-0.7,3.1-3.2c-0.3-1.1-1.4-1.1-2.2-0.9C65.1,73.7,66.3,75.5,66.7,77.2z"/>
	<path class="st4" d="M72.2,29.6c-0.8,0-1.5,0-2.3,0c-1.5-2.1-3.7-2-5.2-0.7c-1.4,1.2-2,3.4,0.4,4.8c1,0.6,0.8,1.5,0.8,2.4
		c0,7.9,0,15.8,0,23.7c0.3,3.3-0.8,6.7,1,9.8c0.3,0.5,0.4,1.3,0,1.4c-2.8,0.4-2.6,2.7-2.5,4.3c0.3,3.3,1,6.6,1.6,9.8
		c0,0.2,0.3,0.4,0.5,0.5c1,0.2,2-2,2.9-0.3c0.8,1.6,0.3,3.5,0.2,5.6c-2.4-0.5-4.9-1.7-7.9,1.2c3.9-0.6,5.9,1.5,8.1,3.3
		c0,1.1,0.1,2.2,0.1,3.3c-0.3,0.4-0.6,0.8-0.9,1.1c-0.3-0.3-0.7-0.8-1-0.8c-0.6,0-0.5,0.6-0.5,1.1c-2.9,0.7-5.8,1.5-8.7,2.2
		c-0.8-0.3-1.6-0.5-2.4-0.8c1.7-7,3.8-13.9,4.9-21c0.7-4.9,1.6-9.8,1.3-14.8c0.8-0.9,0.7-1.9,0.4-2.9c0.9-6.1,0.9-12.3,0-18.4
		c0.2-5.5-0.7-10.9-1.7-16.3c-0.1-2.4-0.4-4.8-1.3-7.1c0-0.1,0.1-0.2,0.1-0.3c-0.1-0.2-0.2-0.3-0.3-0.5c0.1-0.2,0-0.5-0.1-0.7
		c0.1-1.2-0.3-2.2-1-3.1c-0.5-2.5-1-4.9-1.5-7.4c0.1-0.4,0.2-0.8,0.3-1.1c2,0.5,4.1,1,6.1,1.6c-0.7,1.5,0.3,2.6,0.8,3.9
		c-0.8,0-1.5,0-2.3,0c-0.1-1.3-0.6-2.3-2.1-2.1c-1.2,0.1-1,1.3-1,2.1c0.1,1.9,1.5,0.6,2.3,0.8c0.2,1.6-0.3,3.2,0.5,5.1
		c1.8-2,3.8-0.9,5.7-0.4c0.3,1.8,0.6,3.7,0.8,5.5c0.2,2.4,2.6-0.1,3.1,1.5C71.7,27.1,72,28.3,72.2,29.6z M67.5,24.9
		c0-0.5,0-1.1-0.7-1.1c-0.7,0-0.7,0.6-0.7,1.1c0,0.5,0,1.1,0.7,1.1C67.5,26,67.5,25.4,67.5,24.9z M64.8,20.3
		c0.1,0.2,0.2,0.5,0.3,0.5c0.2,0,0.4-0.1,0.6-0.2c-0.1-0.2-0.3-0.5-0.4-0.7C65.1,20,65,20.1,64.8,20.3z"/>
	<path class="st4" d="M98.6,67.5c-1.6-0.1-1.4-1-1-2.1c1.3-3.8,0.9-7.8,1-11.8c0-1.9,0.4-3.5-2.6-4.1c-2.8-0.6,1.2-2.3,0-3.6
		c-0.8-0.8-2.3,0.6-2.9-0.9c-0.4-3.1,1.5-6.1,0-9.2c1.2-1,1.1-2.3,0.4-3.5c-1.3-2.2-4.1-3.5-3.6-6.6c-2.9-0.2-4.3-3.4-7-3.7
		c-1.7-0.3-2.7-0.8-3.5-2.3c-0.9-1.8-2.9-2.3-4.5-3.2c-1.5-0.8-3.2-3.6-4.9-7.1c1-0.6,2-2.1,3.1-0.2c0.3,2.2,2.4,1.9,3.7,2.7
		c1.3,1.5,3.1,2.1,4.8,2.9c0,0,0,0,0,0c0.4,1.2,1.4,1.7,2.3,2.4l0,0c2.7,1.2,3.1,4.9,6.2,5.6c0,0-0.1,0.3-0.1,0.3
		c0.2,0.9,0.7,1.5,1.6,1.8l0,0c-0.1,1.2,0,2.2,1.6,2.3c0,0,0,0,0,0c1.3,3,2.4,6.1,4.7,8.5l0,0c0,0.8-0.1,1.6,0.1,2.3
		c3.2,8.6,2.3,17.5,2,26.4C99.5,65.5,99,66.5,98.6,67.5z"/>
	<path class="st5" d="M67.5,110.8c-2.3,0-4.3,0.1-6.5,2c-1.9,1.6-5.4-0.5-8.1,0.4c0-0.8,0-1.5,0-2.3c0.5-1.8,3.9-2.6,2.6-4.6
		c-0.8-1.2-3.5,0-5.3,0.2c-0.9,0.1-1.9,0.6-2.3-0.5c-0.7-1.7,2.3-1.1,1.9-2.8c1.5-0.1,3.1-0.3,4.6-0.1c1.4,0.2,1.8-0.4,2.1-1.5
		c0.8,0.3,1.6,0.5,2.4,0.8c2.7,1.9,5.9,0,8.7,1c-0.1,1.4,1.6,1.2,2,2.3c-2.2,1.4-4.7,0-7.3,1.1c1.5,1.4,2.8,2.1,4.7,1.4
		c1.1-0.4,2.4-0.7,2.7,0.9C70.1,110.7,68.8,110.8,67.5,110.8"/>
	<path class="st6" d="M19.7,91.4c5.5,3.5,10.7,7.5,17.1,9.2c0.3,0.1,0.4,0.6,0.6,0.9c-2.8,4.9-3.7,5.1-8.2,2.1
		c-0.5-0.3-1.2-0.6-1.8-0.5c-3.2,0.5-6.3-0.3-7.4-3.1C19.1,97.5,18.4,94.3,19.7,91.4z"/>
	<path class="st6" d="M48,119c1.8-1.8,3.1-4.5,6.6-3.6c1.7,0.4,3.6,0.1,5.4,0.1"/>
	<path class="st6" d="M90.8,23.2c0.3-0.6,0.7-1.1,0.8-1.7c0.1-1.5,0.8-2,2.3-1.9c1.4,0.1,1.6,1,1.7,2.1c0,0.6,0.1,1.2,0.2,1.8
		c1.4,1.1,3.8-4.8,3.9,1.5c0.9-2.1,0.7-3.9,2.5-5.4c0.1,3.1-0.6,5.8,0,8.5c0.6,2.6-4,2.6-4.2,5.5c-1.5-1.5-0.7-4-2.5-5.4
		c0.1,0,0.2,0,0.3-0.1c0,0,0-0.1,0.1-0.2c-0.1,0.1-0.2,0.2-0.3,0.3c-0.8-0.3-1.6-0.5-2.3-0.8l0,0c-0.1-1.1,0.2-2.4-1.6-2.3
		c0,0,0,0,0,0C91.7,24.2,91.3,23.7,90.8,23.2z"/>
	<path class="st7" d="M57.6,7.9c-0.1,0.4-0.2,0.8-0.3,1.1C55.8,8,56,6.3,56.1,4.7c-0.1-0.5,1.4-0.9,0.4-1.3c-1-0.4-2.3-0.2-3.4-0.1
		c-3.3,0.3-3.5-1-1.8-3.5c1.5,1.5,2.9,3.6,4.9,0.6C56.3,0.2,57-0.1,57,0c2.9,3.8,6.9,1.2,10.3,1.7c2.4,0.3,2.8,1.3,2.5,3.2
		c-0.3,0.1-0.6,0.2-1,0.4c0.3,0.1,0.7,0.2,1,0.4c0,0.3,0,0.5,0,0.8c-1,0-2.1,0-3.1,0c0-0.3,0-0.5,0-0.8C66.9,5.5,67,5.4,67,5.3
		c-0.1,0.1-0.1,0.2-0.2,0.3c-0.5,0-1,0-1.5,0c-1.6-1.2-2.7,0-4,0.8c-1.1-0.1-2.3-0.3-3.4-0.2C55.9,6.4,57.7,7.4,57.6,7.9z"/>
	<path class="st8" d="M99.9,64.5c0.3-8.9,1.2-17.8-2-26.4c-0.3-0.7-0.1-1.5-0.1-2.3c2.7,1.3,1.3,4.6,3,6.3c0,1.6,0.1,3.3,2.5,3
		c0,2.1,1.7,4.4-1.2,6c-0.5,0.3-0.3,1.9-0.3,2.9c0,3.5,0.1,7-0.6,10.5C100.7,64.5,100.3,64.5,99.9,64.5z"/>
	<path class="st4" d="M101.6,72.2c-0.1-2.1,2.3-3.6,1.7-5.9c1.8,2.1,2.6-1.9,3.9-0.7c1.2,1.1,1,2.9,0,4.2c-0.7,1-1.9,1.6-1.7,3.2
		c0.2,1.5-0.5,2.4-2.2,2.3C101.3,75,101.8,73.5,101.6,72.2z"/>
	<path class="st9" d="M67.6,103.3c-2.8-0.9-6,0.9-8.7-1c2.9-0.7,5.8-1.5,8.7-2.2c0.5-0.1,1-0.1,1.5-0.2c0.3-0.4,0.6-0.8,0.9-1.1
		c1.9-0.4,3.7-0.3,5.3,0.8c0.2,0.2,0.4,0.4,0.6,0.6c0,0.2,0,0.4,0,0.6l-0.3,0c0,0-0.3,0-0.3,0c-0.5,0-1,0-1.5,0
		c-1.5,0.2-3.6-0.8-4,2C69.7,103.8,68.4,103,67.6,103.3z"/>
	<path class="st10" d="M28.3,10.7c-1.8,1.8-4,3-6.2,4.3c-0.4-1.4-3.5-0.1-2.6-3.2c0.8-2.6,2.3-2.4,4-2.3
		C25.1,9.7,27.1,8.6,28.3,10.7z"/>
	<path class="st7" d="M9.7,29.7c-1.2,2.6-1.9,5.6-4.1,7.7c-2.6-1.8-1.9-4.8-1.4-6.7C4.7,28.6,7.8,30,9.7,29.7z"/>
	<path class="st8" d="M75.9,100c-0.2-0.2-0.4-0.4-0.6-0.6c-0.4-1.2-1.2-2.2,0.6-3.2c2.7-1.5,5.2-3.3,7.8-4.9
		c0.1,0.2,0.3,0.3,0.4,0.5c-1.4,2.4-1.7,5.6-4.9,6.6C77.9,98.5,76.3,98,75.9,100z"/>
	<path class="st8" d="M94.6,82c-1.8,0.7-2.1,3.2-4.2,3.6c-0.2-0.1-0.3-0.2-0.4-0.3c3-4.4,5.5-9,7.8-13.8c0.3,0,0.6,0,0.9,0
		c-0.1,1.3-0.1,2.5-0.2,3.8c-2.8,0.9-1,3.1-1.4,4.7c-0.6,0.9-2.1,0.4-2.5,1.6C94.6,81.7,94.6,81.8,94.6,82z"/>
	<path class="st6" d="M52.9,110.8c0,0.8,0,1.5,0,2.3c-3,0-5.9,0-8.9,0c-0.8,0-1.7-0.1-1.7-1.1c0-1,0.9-1.1,1.7-1.1
		C47,110.8,49.9,110.8,52.9,110.8z"/>
	<path class="st9" d="M90.1,22.9c-3.1-0.7-3.6-4.4-6.2-5.6c1.8-0.1,3.7-0.2,5.5-0.4C91,18.7,90.2,20.8,90.1,22.9z"/>
	<path class="st6" d="M22,109.3c2.1-1.5,4.1-1.7,6.2-1.5c0.9,0.1,1.4,0.6,1.4,1.5c0,0.9-0.5,1.4-1.4,1.5
		C26.1,110.9,24.1,110.8,22,109.3"/>
	<path class="st8" d="M90.4,85.5c0.1,3.3-0.4,6.2-4.9,5.2l-0.1-0.1c-0.1-3.2,3-3.6,4.5-5.5C90.1,85.3,90.2,85.4,90.4,85.5z"/>
	<path class="st6" d="M89.4,16.9c-1.8,0.1-3.7,0.2-5.5,0.4c0,0,0,0,0,0c0-0.8,0-1.6,0-2.4C86.2,14.1,88.9,12.5,89.4,16.9z"/>
	<path class="st8" d="M95.4,28.1c1.7,1.4,1,3.9,2.5,5.4c0,0.8-0.1,1.5-0.1,2.3c-2.3-2.4-3.3-5.6-4.7-8.5
		C93.9,27.6,94.7,27.8,95.4,28.1L95.4,28.1z"/>
	<path class="st9" d="M98.6,71.4c-0.3,0-0.6,0-0.9,0c0-0.3-0.1-0.5-0.1-0.8c0.8-0.9,1-1.9,0.9-3.1c0.4-1,0.8-2,1.3-3
		c0.4,0,0.8,0,1.3,0C100.8,67,102.3,70.1,98.6,71.4z"/>
	<path class="st6" d="M110.2,26.7c-0.2,1.2,0.3,2.6-1.1,2.7c-1.5,0.1-1.2-1.3-1.3-2.2c0-1,0-2.4,1.2-2.5"/>
	<path class="st8" d="M81.6,14.9c-1.7-0.8-3.5-1.5-4.8-2.9c0.9-0.6,0.9-1.5,0.9-2.4C80.1,10.5,81.1,12.5,81.6,14.9z"/>
	<path class="st5" d="M97.1,79.9c0.4-1.6-1.4-3.8,1.4-4.7C100.4,76.8,100.2,77.3,97.1,79.9z"/>
	<path class="st6" d="M89.1,12.4c-0.8-0.3-1.8-0.4-2-1.5c-0.2-1.3,0.8-1.4,1.7-1.4c0.9,0,1.9,0.1,1.8,1.4
		C90.6,11.8,90.1,12.3,89.1,12.4z"/>
	<path class="st10" d="M103.2,45.1c-2.4,0.3-2.4-1.3-2.5-3C103,41.9,105,41.9,103.2,45.1z"/>
	<path class="st9" d="M77.6,9.6c0,0.9,0,1.8-0.9,2.4c-1.3-0.8-3.4-0.5-3.7-2.7C74.6,9.4,76.1,9.5,77.6,9.6z"/>
	<path class="st8" d="M61.4,6.5c1.2-0.8,2.3-2,4-0.8c0,0.3,0.1,0.5,0.1,0.8C64.1,7.6,62.7,7.4,61.4,6.5z"/>
	<path class="st11" d="M75.9,100c0.3-2.1,2-1.5,3.3-1.6c0.2,2.7-1.6,2.4-3.3,2.2C76,100.5,76,100.3,75.9,100z"/>
	<path class="st8" d="M66.8,6.4c1,0,2.1,0,3.1,0c0,2-1.6,1.4-2.6,1.6c-1.4,0.3-1.2-0.8-1.2-1.6C66.3,6.4,66.6,6.4,66.8,6.4z"/>
	<path class="st11" d="M73.8,100.7c0.5,0,1,0,1.5,0c0.3,2.5-1.2,2.6-3.2,2.3C72.7,102.1,74,101.9,73.8,100.7z"/>
	<path class="st5" d="M94.6,82c0-0.2,0-0.3,0-0.5c0.7,0,1.5-0.3,2,0.5c0.1,0.1,0,0.5-0.2,0.6C95.5,83.2,95,82.7,94.6,82z"/>
	<path class="st8" d="M83.9,14.9c0,0.8,0,1.6,0,2.4c-0.9-0.6-2-1.2-2.3-2.4C82.3,14.9,83.1,14.9,83.9,14.9z"/>
	<path class="st10" d="M32.1,8.8c-0.3,1.4-1.6,0.9-2.5,1.3C30,8.6,31.1,8.8,32.1,8.8z"/>
	<path class="st8" d="M90.8,23.2c0.6,0.5,0.9,1,0.8,1.8c-0.9-0.3-1.4-0.9-1.6-1.8C90.3,23.2,90.5,23.3,90.8,23.2z"/>
	<path class="st8" d="M85.4,90.8c-0.4,0.3-0.9,0.7-1.3,1c-0.1-0.2-0.2-0.3-0.4-0.5C84.1,90.8,84.7,90.6,85.4,90.8L85.4,90.8z"/>
	<path class="st5" d="M99.6,81.2c0.1,0,0.2,0,0.2,0c0.1,0.1,0,0.2,0.1,0.3c-0.1,0-0.3,0-0.4,0C99.5,81.4,99.6,81.3,99.6,81.2z"/>
	<path class="st8" d="M69.9,5.6c-0.3-0.1-0.7-0.2-1-0.4c0.3-0.1,0.6-0.2,1-0.4C69.9,5.1,69.9,5.4,69.9,5.6z"/>
	<path class="st4" d="M66.8,6.4c-0.3,0-0.5,0-0.8,0c-0.2,0-0.4,0-0.7,0c0-0.3-0.1-0.5-0.1-0.8c0.5,0,1,0,1.5,0l0,0
		C66.9,5.9,66.9,6.2,66.8,6.4z"/>
	<path class="st12" d="M61.3,28.1c1,5.4,2,10.8,1.7,16.3c-0.7-0.5-1.3-1.2-2.1-1.6c-5.3-2.2-6.7-8.2-3-12.7
		C58.9,28.9,61,30.1,61.3,28.1z"/>
	<path class="st12" d="M58.8,16.4c0.7,0.9,1.1,1.9,1,3.1c-1.3-0.1-2.3-2.3-4-0.5c-0.7,0.7-1.4-0.1-2.2-0.5
		c-3.3-1.9-6.4-4.7-10.7-2.6c-1.2,0.6-2.7,0.9-3.4-0.5c-0.9-1.8,1-2,2-2.6c1.6-0.9,3.1-1.5,5-0.3c1.3,0.9,3.2,1.6,4.7,1.3
		C54.4,13.4,56.7,14.4,58.8,16.4z"/>
	<path class="st12" d="M55.4,51.3c-2.1-0.4-4.1-1.5-4.6-4c-0.3-1.6,1-3,2.4-2.8c2.4,0.4,4.5,1.8,5,4.6
		C58.4,50.7,57.2,51.2,55.4,51.3z"/>
	<path class="st2" d="M49.6,59.8c-0.8-0.1-2,0.1-1.7-1.3c0.2-1,0.8-1.8,2.1-1.8c1.1,0.1,2,0.6,2,1.8C51.9,60,50.6,59.7,49.6,59.8z"
		/>
	<path class="st2" d="M46.5,54.3c-0.1,1.1-0.8,1.5-1.8,1.6c-1.1,0.1-2.1-0.1-2.3-1.4c-0.1-1.1,0.8-1.5,1.7-1.6
		C45.2,52.8,46.2,53,46.5,54.3z"/>
	<path class="st12" d="M63.1,62.8c0.3,1,0.4,2-0.4,2.9C62.2,64.7,61.8,63.6,63.1,62.8z"/>
	<path class="st12" d="M59.9,20.3c0.1,0.2,0.2,0.3,0.3,0.5c0,0.1-0.1,0.2-0.1,0.3c-0.1-0.2-0.2-0.3-0.2-0.5
		C59.8,20.5,59.9,20.4,59.9,20.3z"/>
	<path class="st13" d="M66.1,59.8c0-7.9,0-15.8,0-23.7c0-0.9,0.1-1.8-0.8-2.4c-2.5-1.4-1.8-3.6-0.4-4.8c1.4-1.2,3.7-1.4,5.2,0.7
		c1.1,2.7,3.6,4.6,3.7,7.8c0,0.6,1.1,1.3,0.3,2c-0.8,0.6-2.2,0.9-0.7,2.1c1.1,0.8,2.5,0.9,3.5-0.1c2.8-2.6,3.8-1.6,4.2,1.8
		c0.1,1.2,1.2,2.2,1.7,3.4c0.6,1.2,1.6,2.3,0.1,3.7c-0.7,0.7-0.8,2.2,0.1,2.8c1,0.7,2.4,0,3-0.8c1.9-2.6,3.3-2.6,4.6,0.4
		c0.1,0.2,0.3,0.5,0.5,0.5c4.5,1,3.3,3.8,2.2,6.6l0,0c-2.3,0.5-1.7,2.5-1.5,3.7c0.5,3.5-1.2,6.2-2.9,8.9c-0.7,1-1.4,1.6-2.5,0.8
		c-0.9-0.7-2-1.4-1-2.8c1.7-2.4,1.2-4.3-1.1-5.9c-1-0.7-0.9-1.7-1.1-2.7c-0.2-1.3-0.4-2.5-0.9-3.7c-0.6-1.3-1.5-2.8-3-2.6
		c-1.7,0.2-2.8,1.7-3,3.5c-0.1,1.4,0.2,2.9-1.4,3.7c-0.9,0.4-2.1,1.4-2.5-0.2C71.3,58.9,68.5,59.9,66.1,59.8z"/>
	<path class="st11" d="M85.4,90.7c-0.7-0.1-1.2,0.1-1.7,0.6c-2.6,1.6-5.1,3.4-7.8,4.9c-1.8,1-0.9,2.1-0.6,3.2
		c-1.7-1-3.5-1.2-5.3-0.7c0-1.1-0.1-2.2-0.1-3.3c0.4,0,0.8,0,1.2-0.1c-0.5-3.8,3.1-2.3,4.6-3.4c3.9-2.9,3.1-7.3,4.2-11
		c0.5-1.7,0.3-2.5,2.5-1.5c2,0.9,4,0.4,6.5-0.7c3.7-1.6,4.8-4.1,5.7-7.3c0.6-2.3,2.1-0.5,3.1-0.7c0,0.3,0.1,0.5,0.1,0.8
		c-2.3,4.8-4.8,9.4-7.8,13.8C88.4,87,85.3,87.5,85.4,90.7z"/>
	<path class="st13" d="M93.1,35.8c1.5,3.1-0.4,6.1,0,9.2c-1.1,0.1-1.9,0.8-2.6,1.5c-0.9,0.9-1.9,0.9-2.6-0.1
		c-1.5-2.1-3.4-4.1-3.4-7.1c0-4.3,2.2-5.7,6.3-4C91.6,35.6,92.4,35.7,93.1,35.8z"/>
	<path class="st13" d="M80.8,70.8c-0.1,1.7,0,3.9-2.2,3.4c-1.8-0.4-4-1.3-4-4c0-2.4,1.7-3.3,3.5-3.3C80.9,66.7,80.5,69.2,80.8,70.8z
		"/>
	<path class="st13" d="M62.2,13.4c0.8,0,1.5,0,2.3,0c2.1,1.2,5.1,1.9,3.1,5.4c-1.9-0.4-3.9-1.6-5.7,0.4c-0.9-1.9-0.3-3.5-0.5-5.1
		C61.7,13.9,61.9,13.6,62.2,13.4z"/>
	<path class="st10" d="M72.2,29.6c-0.2-1.3-0.5-2.6-0.7-3.8c1.1-0.6,2.2-1.3,3.3,0c0.6,0.7,0.6,1.7,0.4,2.5
		C74.9,30.1,73.4,29.5,72.2,29.6z"/>
	<path class="st4" d="M66.7,77.2c-0.4-1.7-1.6-3.5,0.9-4.1c0.8-0.2,1.9-0.2,2.2,0.9C70.4,76.5,67.5,75.8,66.7,77.2z"/>
	<path class="st13" d="M93.1,59.8c3.1,1.3-0.4,3.1,0,4.6C93.1,62.8,93.1,61.3,93.1,59.8C93.1,59.8,93.1,59.8,93.1,59.8z"/>
	<path class="st0" d="M62.2,13.4c-0.3,0.3-0.5,0.5-0.8,0.8c-0.8-0.2-2.1,1.1-2.3-0.8c-0.1-0.8-0.2-2,1-2.1
		C61.6,11.1,62.1,12.1,62.2,13.4z"/>
	<path class="st13" d="M67.5,24.9c0,0.5,0,1.1-0.7,1.1c-0.7,0-0.7-0.6-0.7-1.1c0-0.5,0-1.1,0.7-1.1C67.5,23.8,67.5,24.4,67.5,24.9z"
		/>
	<path class="st13" d="M64.8,20.3c0.2-0.1,0.3-0.3,0.5-0.4c0.1,0.2,0.3,0.5,0.4,0.7c-0.2,0.1-0.4,0.3-0.6,0.2
		C65,20.8,64.9,20.5,64.8,20.3z"/>
	<path class="st11" d="M69.1,99.8c-0.5,0.1-1,0.1-1.5,0.2c0.1-0.4-0.1-1.1,0.5-1.1C68.5,99,68.8,99.5,69.1,99.8z"/>
	<path class="st8" d="M91.6,25c1.7,0,1.5,1.3,1.6,2.3C91.6,27.2,91.5,26.2,91.6,25z"/>
	<path class="st8" d="M95.5,28.1c0.1-0.1,0.2-0.2,0.3-0.3c0,0.1,0,0.2-0.1,0.2C95.6,28,95.5,28,95.5,28.1
		C95.4,28.1,95.5,28.1,95.5,28.1z"/>
	<path class="st8" d="M66.9,5.6C66.9,5.5,67,5.4,67,5.3C67,5.4,66.9,5.5,66.9,5.6C66.9,5.6,66.9,5.6,66.9,5.6z"/>
</g>
<g>
	<path class="st14" d="M90.8,126.5H15c-2.2,0-4-1.8-4-4v-23c0-2.2,1.8-4,4-4h75.8c2.2,0,4,1.8,4,4v23
		C94.8,124.7,93,126.5,90.8,126.5z"/>
	<g>
		<path class="st15" d="M31.9,113c-0.1-2-0.1-4.4-0.1-6.8h-0.1c-0.5,2.1-1.2,4.4-1.8,6.4l-2,6.4H25l-1.8-6.4
			c-0.5-1.9-1.1-4.3-1.5-6.4l0,0c-0.1,2.2-0.2,4.8-0.3,6.8l-0.3,6.3h-3.4l1.1-16.5h5l1.6,5.5c0.5,1.9,1,4,1.4,5.9h0.1
			c0.5-1.9,1-4.1,1.6-5.9l1.8-5.5h4.9l0.9,16.5h-3.6L31.9,113z"/>
		<path class="st15" d="M53.7,110.9c0,5.4-3.3,8.7-8.1,8.7c-4.9,0-7.7-3.7-7.7-8.4c0-4.9,3.2-8.6,8-8.6
			C51,102.6,53.7,106.3,53.7,110.9z M41.8,111.1c0,3.2,1.5,5.5,4,5.5s4-2.4,4-5.6c0-3-1.4-5.5-4-5.5
			C43.3,105.5,41.8,107.9,41.8,111.1z"/>
		<path class="st15" d="M71.2,110.9c0,5.4-3.3,8.7-8.1,8.7c-4.9,0-7.7-3.7-7.7-8.4c0-4.9,3.2-8.6,8-8.6
			C68.5,102.6,71.2,106.3,71.2,110.9z M59.3,111.1c0,3.2,1.5,5.5,4,5.5c2.5,0,4-2.4,4-5.6c0-3-1.4-5.5-4-5.5
			C60.8,105.5,59.3,107.9,59.3,111.1z"/>
		<path class="st15" d="M73.7,119.3v-16.5H78l3.4,6c1,1.7,2,3.8,2.7,5.6h0.1c-0.2-2.2-0.3-4.4-0.3-6.9v-4.8h3.4v16.5h-3.9l-3.5-6.4
			c-1-1.8-2.1-3.9-2.9-5.8h-0.1c0.1,2.2,0.1,4.5,0.1,7.2v5h-3.3V119.3z"/>
	</g>
</g>
</svg>
