<?xml version="1.0" encoding="utf-8"?>
<!-- Generator: Adobe Illustrator 25.0.0, SVG Export Plug-In . SVG Version: 6.00 Build 0)  -->
<svg version="1.1" id="Layer_1" xmlns="http://www.w3.org/2000/svg" xmlns:xlink="http://www.w3.org/1999/xlink" x="0px" y="0px"
	 width="105.5px" height="129px" viewBox="0 0 105.5 129" style="enable-background:new 0 0 105.5 129;" xml:space="preserve">
<style type="text/css">
	.st0{fill:#FCFCFC;}
	.st1{fill:#2D3C44;}
	.st2{fill:#495C64;}
	.st3{fill:#F2F5F4;}
	.st4{fill:#F8F4EC;}
	.st5{fill:#DDE2E3;}
	.st6{fill:#A5B0B2;}
	.st7{fill:#EBEDEE;}
	.st8{fill:#252D32;}
	.st9{fill:#B7C0C4;}
	.st10{fill:#D0D7D8;}
	.st11{fill:#E5E8EA;}
	.st12{fill:#4B5D65;}
	.st13{fill:#E9E0DB;}
	.st14{fill:#F7F4EC;}
	.st15{fill:none;stroke:#B7C0C4;stroke-width:2;stroke-miterlimit:10;}
	.st16{fill:#48A6DD;}
	.st17{fill:#FFFFFF;}
</style>
<g>
	<g>
		<path class="st0" d="M102.1,47c-1.7,0.4-1.6,2.2-3,2c0.3-1.5,0.6-3,0.9-4.5c2.2-0.6,1.7-2.7,1.1-3.5c-1-1.5-2.8-2.6-4.3-3.8
			c-0.7-2.7-2.5-5.2-2.3-8.2c0.8-0.3,1.2-0.7,1.5-1.1c-2.3-1.8-4.1-4.2-5.1-7c-0.5-0.5-0.9-1.1-1.3-1.6c-0.2,0.8-0.3,1.7-0.9,2.1
			c-0.4,0.3-0.7,0.7-1.1,1c-0.1-0.4-0.2-0.7-0.3-1.1c0.8-5.3,0.5-5.7-5.2-5.6l0,0c0.3-1.3,1.1-1.8,2-2c-0.4-0.4-0.7-0.7-1-1.1
			c-1.2,0.9-3,0.4-4.7,0.2c0-0.2,0-0.5,0.1-0.7c1.1-0.2,2.3-0.7,2.8-1.5c-1.5-0.5-2.9-1.3-4.1-2.2l-5.5,0c-0.4,0-0.7,0-1.1,0
			c-0.7-1-1.5-1.9-1.9-3.1c-2.4-0.4-4.7-1.3-6.5-2.7c-0.3-0.1-0.6-0.2-0.9-0.3c-0.9,0.2-1.8,0.3-2.6,0.3c-2.4,0-4.7-0.6-6.7-1.5
			c-1.1-0.1-2.2-0.3-3.2-0.5c0,0,0,0,0,0.1c-0.1,1.8,1,1.9,2.4,2c1.2,0.1,2.8-0.8,3.4,1.2c-4.4,0.1-8.9,0.2-13.3,1.1
			c-1-1.1-1.8-1-2.3,0.5C35.5,6.6,31.8,8,28.1,9.4c-0.4-0.6-0.8-1-1.3-1.1c-1.8,1.7-4.1,3-6.5,3.7c0.3,0.4,0.7,0.7,1.6,0.8
			c-2.6,4.1-6.4,7.2-9.4,11c-1.1,0.1-1.5,0.7-1.3,1.7c-0.3,0.6-0.7,1.3-1,1.9c-0.5,0.2-1,0.1-1.6,0.1c-0.8,2-1.9,3.8-3.5,5.4
			c0.2,1,0.6,1.9,1.5,2.7c-0.3,0.7-0.5,1.5-0.8,2.2c-2.1,8-2.1,15.9-0.4,24c2.1,9.9,7.1,17.9,14.6,24.6c0,1.7-0.1,3.4-0.1,5.2
			c0,4.3,1.8,6,6,6.1c1,0,2.1-0.1,2.9,0.3c5.2,2.5,5.2,2.6,8.8-1.6c1.5,0.1,3.1-0.4,4.5,0.6c0.2,1.1,0.5,1.8,1.5,0.6
			c1.7-0.1,3.5-0.1,5.2-0.2c1.5,0,2.9,0,4.4,0c1.5,0.3,3,0.3,4.4-0.1c1.2-0.1,0.8-1,0.9-1.7c2.6-1.9,3.8-4.7,5.1-7.6
			c1.1-2.4,0.9-5.3,2.7-7.4c1.6-3,3.2-6,3-9.5c0.1-0.2,0.1-0.5,0.2-0.7c0.6-0.5,0.4-1.1,0.3-1.8c0.3-0.2,0.6-0.4,1-0.6
			c2.9,0.3,1.8,3.3,3.2,4.6c-0.3,0.8,0.6,2-0.9,2.4c-3.9,1.3-3.7,5.6-5.4,8.4c-0.7,1.2-2.3,4.7,0.3,6.9c-0.2,1.7,0.8,2.3,2.3,2.3
			c-3,2.5-7.3,2-10.5,4.6c5.4,1.7,14.6-1.5,20.8-6.9c2.3,0.4,4.6,0.7,7.5,1.2c-2-2.7-5.1-1.6-6.8-3.4c1.9,0.2,2.3-2.4,4.2-2.3
			c1.9,0.2,2.6-0.8,2.4-2.6c-0.3-2.1,0.5-3.7,2.4-4.7c3.3,0.7,4.8-1.8,4.8-3.9c0-2.6,1.5-5.2,0.3-7.8c2.3,0.1,3.2-0.9,3.1-3.3
			c-0.1-3.4-0.5-6.8,0.6-10.2c0.2,0.3,0.5,0.5,0.7,0.8c0.3,0.8,0,2.3,1.5,1.9c1.1-0.3,0.8-1.4,0.8-2.2
			C102.1,51.7,102.1,49.4,102.1,47z"/>
		<path class="st0" d="M62.7,107.2c2-2.9,4.8-1.7,7.3-1.9c0.5-0.1,1,0,1.5,0c1,0,1.7-0.3,1.7-1.5c0-1.1-0.8-1.4-1.7-1.4
			c-3.8,0-7.5,0-11.3,0c-1.6,0-1.7,1.1-1.7,2.2c-0.8,0-1.5,0-2.3,0c0.1-1.5-0.4-2.2-2-2.3c-1.7,0-2.5,0.5-2.4,2.3
			c-2.6-0.1-5,1.1-7.6,0.7c-0.8-0.1-1.9-0.1-1.8,1.2"/>
		<path class="st0" d="M104.9,63.7c-0.2-1.3-1-2.2-2.8-2.1c-1.7-0.2-2.3,0.7-2.2,2.4c0,1.7,0.7,2.8,2.5,2.8c0.7,0,1.3-0.2,1.7-0.5
			C104.3,65.4,104.5,64.5,104.9,63.7z"/>
		<path class="st0" d="M84.1,95.5c0.7-0.2,1-0.7,0.8-1.3c-0.3-0.9-0.5-2-1.7-2c-0.8,0-1,0.6-0.7,1.3C82.9,94.2,82.7,95.4,84.1,95.5z
			"/>
		<path class="st1" d="M69.8,68.7c0.1,0.6,0.3,1.3-0.3,1.8c-0.6,0.1-0.8,0.3-0.2,0.7c0.3,3.6-1.4,6.5-3,9.5
			c-0.5-0.2-1.4-0.8-1.6-0.2c-1.8,5.2-8,8.6-6.2,15.2c0,0,0.1-0.1,0.1-0.1c-0.9,0.3-0.9,1-0.9,1.8c-1.5,0.4-2.9,0.4-4.4,0.1
			c-1.5-1.9-2.9-1.9-4.4,0c-1.7,0.1-3.5,0.1-5.2,0.2c-0.5-0.2-1-0.4-1.5-0.6c-1.4-1.1-2.9-0.6-4.5-0.6c-0.3-0.3-0.6-0.9-1-1
			c-6.4-1.5-11.4-5.4-16.6-9C12.6,79.9,7.6,71.8,5.5,61.9c-1.8-8.1-1.8-16.1,0.4-24c1.5,1.1,1.7,2.7,1.5,4.3
			c-0.9,6.4,1.9,12,3.9,17.8c1.7,4.9,3.2,5.5,8.7,4.7c1.4-0.2,2.4,0.3,3.3,1.3c0.7,0.7,1.4,1.5,1,2.6c-0.4,0.9-1.2,1.2-2.1,1.2
			c-1.7-0.1-3.2,0.6-3.3,2.3c-0.2,2,0.7,3.8,2.4,5.1c1.5,1.2,3.3,1.2,4.8,0.2c1.7-1.1,3.2-2.6,1-4.8c-1.3-1.4-1.6-2.7,0.9-2.8
			c1.2-0.1,1.6-0.9,2.3-1.6c0.9-0.8,1.6-2.8,3.2-1.4c1.5,1.4-0.8,2.2-1.1,3.4c-0.1,0.3-0.4,0.6-0.8,0.8c-2.4,1.2-2.2,2.6-0.5,4.3
			c0.9,0.9,1.3,1.9-0.3,2.6c-1.4,0.6-1.3,1.7-0.7,2.8c0.6,1.2,1.7,0.6,2.6,0.3c2.8-0.9,5.3-2.5,8.5-2.6c1.5-0.1,3.8-1.5,5-3.3
			c-4.6-2.6,3.2-8.6-2.9-10.8c-0.1,0-0.1-0.3-0.1-0.3c1.9-2.8-2.1-2.7-2.4-4.6c-0.1-0.7-1.2-0.8-1.9-0.4c-0.9,0.5-1.1,1.2-0.7,2.2
			c0.5,1.2,1,2.5,1.4,3.8c0.2,0.6,0,1.2-0.7,1.5c-0.8,0.4-1-0.3-1.3-0.8c-1.4-2.4-2.4-5.1-4.3-7c-2.5-2.6-3.7-5.7-4.9-8.9
			c-1.1-3,0.1-5.7,1.8-7.9c1.4-1.7,3.9-0.9,5.9-0.5c1.4,0.3,2.8,0.8,4.3,1.1c2.2,0.5,3.9-0.5,5-2.3c1.1-1.8,0-3-1.3-4.1
			c-1.6-1.5-1.7-2.8,0.5-4c1.8-1,3.5-2.2,5.2-3.3c4.3-2.8,4.3-3.7,0.1-6.4c-1.1-0.7-2-1.7-3-2.7c-2-2-5.6-3.3-7.2-2.6
			c-4.3,1.8-11.3,0.3-11.9,8c-0.2,2-2.7,1.8-3.9,1.8c-1.7,0-1-1.8-0.9-3c0.1-3.3,1.7-5.2,4.8-6.4c1.8-0.7,3.5-1.8,5.4-2.3
			c0.8-0.2,1.4-0.7,1.2-1.6c-0.2-1-1.1-1.4-2-1.1c-2.3,0.8-4.9,0.7-6.8,2.6c-0.7,0.7-1.4,2-2.7,1.1c-1.4-0.9,0.1-2,0-3
			c1.8-1.1,3.9-1.6,5.1-3.5c3.7-1.4,7.4-2.9,11.1-4.3c0.8-0.2,1.5-0.3,2.3-0.5c4.4-0.9,8.8-1,13.3-1.1c1.1,1.2,2.4,1,3.8,0.9
			c0.5,0.8,0.1,2,1.4,2.4c1.3,1.8,2.3,3.8,3,6c-0.1,0.3-0.3,0.6-0.4,0.9c-2.1-2.2-4.7-0.9-7-0.9c-3.1,0-6.3,0-9-1.2
			c-2-0.8-3.6-1-5.6-0.4c-1.2,0.4-2.6,0.2-2.2,2.1c0.4,1.9,1.7,1.5,3.2,1.3c3.1-0.5,6.3-0.9,9,1.6c1.5,1.4,3.7,1.3,5.6,0.8
			c1.7-0.5,3.4-0.6,5.1-0.4c-0.1,1.9-0.2,3.5,1.9,4.7c1.3,0.7,1.5,2-0.3,2.7c-1.1,0.4-0.9,1.3-0.9,2.2c-2.1,0.2-4.6-0.9-5.9,1.8
			c-3,6.4-2.3,10.5,4.2,13c1,0.4,2.1,0.5,3.2,0.7c1.1,0.2,1.9,1.1,1.1,1.7c-2.3,1.8-0.9,3.8-0.9,5.8c0,4.2,1.5,5.8,5.6,5.8
			c0.4,1.3-1,3.2,1.5,3.7c0,0.5,0,1,0.1,1.5c-1.1,1-1,2,0,3c0,1,0,2,0,2.9c-0.1,0.2-0.2,0.5-0.3,0.7C69.5,66.9,69.5,67.8,69.8,68.7z
			 M52.2,41.5c-1.2,0.6-2.6,0.7-2.6,2.4c0,1.2,3.3,5.2,4.3,4.9c1.6-0.4,3.1-1,3.1-3.1C57,42.4,53.7,43.1,52.2,41.5z M48.8,57
			c1.4,0.1,1.7-0.9,1.9-1.9c0.2-1-0.6-1.5-1.6-1.6c-1-0.1-1.7,0.2-1.8,1.3C47.3,55.9,47.8,56.7,48.8,57z M45.7,51.2
			c0.1-0.9-0.4-1.4-1.3-1.4c-1.1,0-2.4-0.1-2.6,1.3c-0.2,1.1,0.8,1.4,1.7,1.5C44.5,52.7,45.4,52.4,45.7,51.2z"/>
		<path class="st2" d="M22.9,12.9c0.1,1-1.4,2.1,0,3c1.3,0.9,2-0.4,2.7-1.1c1.9-1.9,4.5-1.8,6.8-2.6c0.9-0.3,1.8,0.1,2,1.1
			c0.2,0.9-0.5,1.4-1.2,1.6c-1.9,0.5-3.6,1.7-5.4,2.3c-3.1,1.2-4.7,3.1-4.8,6.4c0,1.2-0.8,2.9,0.9,3c1.3,0,3.8,0.2,3.9-1.8
			c0.6-7.7,7.6-6.1,11.9-8c1.5-0.7,5.2,0.6,7.2,2.6c1,0.9,1.9,2,3,2.7c4.2,2.7,4.2,3.6-0.1,6.4c-1.7,1.1-3.4,2.3-5.2,3.3
			c-2.2,1.2-2.1,2.5-0.5,4c1.2,1.1,2.4,2.4,1.3,4.1c-1.1,1.8-2.8,2.7-5,2.3c-1.4-0.3-2.8-0.8-4.3-1.1c-2-0.4-4.6-1.2-5.9,0.5
			c-1.7,2.1-2.9,4.9-1.8,7.9c1.2,3.2,2.4,6.3,4.9,8.9c1.9,1.9,2.9,4.7,4.3,7c0.3,0.6,0.5,1.2,1.3,0.8c0.6-0.3,0.9-0.9,0.7-1.5
			c-0.4-1.3-0.9-2.5-1.4-3.8c-0.4-0.9-0.3-1.7,0.7-2.2c0.8-0.4,1.8-0.2,1.9,0.4c0.3,1.8,4.2,1.8,2.4,4.6c0,0.1,0,0.3,0.1,0.3
			c6.1,2.2-1.7,8.2,2.9,10.8c-1.3,1.8-3.5,3.2-5,3.3c-3.2,0.1-5.7,1.7-8.5,2.6c-0.9,0.3-2,0.9-2.6-0.3c-0.6-1.1-0.7-2.1,0.7-2.8
			c1.6-0.7,1.2-1.7,0.3-2.6c-1.7-1.7-1.9-3.1,0.5-4.3c0.3-0.2,0.7-0.5,0.8-0.8c0.3-1.2,2.6-2.1,1.1-3.4c-1.5-1.4-2.3,0.6-3.2,1.4
			c-0.7,0.7-1.1,1.5-2.3,1.6c-2.5,0.1-2.3,1.5-0.9,2.8c2.1,2.2,0.7,3.6-1,4.8c-1.5,1-3.3,1-4.8-0.2c-1.7-1.3-2.6-3.1-2.4-5.1
			c0.2-1.6,1.6-2.3,3.3-2.3c0.9,0,1.7-0.3,2.1-1.2c0.4-1.1-0.3-1.9-1-2.6c-0.9-0.9-1.8-1.5-3.3-1.3c-5.6,0.8-7,0.2-8.7-4.7
			c-2-5.7-4.8-11.3-3.9-17.8c0.2-1.6,0-3.2-1.5-4.3c0.3-0.7,0.5-1.5,0.8-2.2c1.2-2.7,2.4-5.4,3.5-8.2c0.3-0.6,0.7-1.3,1-1.9
			c0.7-0.4,1.2-0.9,1.3-1.7c3-3.8,6.8-6.8,9.4-11C22.2,12.9,22.6,12.9,22.9,12.9z"/>
		<path class="st3" d="M70.7,8.3C70.7,8.3,70.6,8.3,70.7,8.3c0.3,0.5,0.4,1.1,1.2,1.2c1.9,1.1,3.9,2.2,5.8,3.3
			c1.1,1.5,2.1,3.2,4.4,2.8c0,0,0,0,0,0c1,2.5,2.9,4.3,5.2,5.6c0.1,0.4,0.2,0.7,0.3,1.1c1.2,1.7,1.4,4.2,4.1,4.4c0,0.2,0,0.4,0,0.7
			c0.5,3.6,2.5,6.6,3.7,9.9c0.2,0.7,1.1,1.7,1.4-0.1c1.5,1.3,3.2,2.3,4.3,3.8c0.6,0.9,1,2.9-1.1,3.5c-1.1-1.6-2.1-3.2-3.5-5.4
			c-0.1,1.1-0.2,1.6-0.1,2C98,47.4,98,53.6,96.5,60c-0.5,2.2-2.4,4.4-1,6.9c1.2,2.6-0.2,5.2-0.3,7.8c0,2.2-1.5,4.7-4.8,3.9
			c-0.1-0.8,0.2-1.7-0.6-2.5c-2.5,4.7-6.8,7.9-9.8,12.1c-1.7-0.2-2.8,1.4-4.4,1.5c-1,0.4-3.4-1.6-2.9,1.6l0,0
			c-1.1-0.1-2.2-0.1-2.2,1.5l0,0c-1.6,0-2.5-0.6-2.3-2.3c0.6-0.1,1.3,0,1.8-0.3c3-1.9,5.4-4.7,9.3-5.2c1-0.2,2.5-2,0.5-3.3
			c-1.1-0.7-1-1.2-0.3-2c2.5-2.8,5.2-5.6,7.1-8.9c0.6-1,1.3-0.6,2.2-0.6c3,0,2.6-3.2,4.1-4.7c0.6-0.6-0.7-1.8-2.4-2.1
			c0.8,1.8,1.3,3.5-1.4,3.3c-0.3,0-0.5,0-0.8,0c0,0,0,0,0,0c0.2-2.3,1.1-4.5,0.8-6.8c-0.1-1,0.2-1.9,1.4-2.1
			c-0.9,2.3,2.9,1.6,2.4,3.7c-0.1,0.6,0.6,1.2,1.2,1.1c1-0.1,0.8-1.1,0.8-1.8c0.3-3.5,0.2-7.2,0.9-10.6c0.7-3.1-0.5-3.8-3.1-3.5
			c0-1.1,0.1-2.5-1.2-2.6c-1.4-0.1-0.8,1.4-1,2.2c-0.3,1-0.8,1.1-1.5,0.4c0.1-2-0.3-4.1,0.3-5.9c1.3-4.3,1.5-4.3-0.5-6.8
			c-0.5-0.6-0.1-1.1,0.2-1.7c0.6-1.2,1.2-2.4,1.4-3.7c0.2-1.1-0.6-1.1-1.4-0.4c-0.5,0-1,0-1.4,0c0-1,0.1-2-0.1-2.9
			c-0.3-1.1-1-1.9-2.2-2.1c-0.3-0.1-0.9,0.2-0.9,0.4c-0.3,1.3,0.9,1.5,1.6,2.1c0.4,0.4,1,0.9,0.4,1.5c-0.5,0.6-1,0.1-1.6-0.2
			c-1.6-1-2.2-3.3-4.6-3.1c0,0,0,0,0,0c0-0.7-0.3-1.4-0.9-1.9c-2.2-1.7-0.8-2.2,0.9-2.6c0.1,1.2,0.6,2.1,1.9,2.1
			c0.2,0,0.7-0.5,0.7-0.6c-0.3-1.1-1.3-1.2-2.2-1.4c-0.1,0-0.2,0-0.4,0c-1.5-1.4-2-4.5-5.3-3c-0.5,0.2-1.4-0.4-0.8-1.1
			c1.4-1.7-0.4-1.6-1-2.3c-1.3-1.5-3.7-2.2-4-4.6C69.4,8.4,70,8.4,70.7,8.3z"/>
		<path class="st4" d="M88.8,66.8c2.7,0.2,2.2-1.5,1.4-3.3c1.7,0.3,3,1.5,2.4,2.1c-1.4,1.5-1.1,4.7-4.1,4.7c-0.9,0-1.6-0.4-2.2,0.6
			c-2,3.3-4.6,6-7.1,8.9c-0.7,0.8-0.8,1.3,0.3,2c2.1,1.3,0.6,3.2-0.5,3.3c-3.9,0.6-6.3,3.3-9.3,5.2c-0.5,0.3-1.2,0.2-1.8,0.3
			c-2.6-2.1-1-5.7-0.3-6.9c1.7-2.8,1.4-7.1,5.4-8.4c1.5-0.5,0.6-1.6,0.9-2.4c1.2-3.1-0.3-6.5,0.7-9.6c0.2,0,0.5,0,0.7,0
			c1.4,2.1-1.2,4.9,1.3,7.7c-0.2-3.9,2.2-7.3-1.4-10c-1.7-1.7,1.4-1.8,1-3.4c-2.3-0.4-3.7-1.2-1-3.3c0.1-0.1,0-0.5,0-0.7
			c3.8-0.8,4.9,1.4,5.1,4.6c0.1,1.2-0.1,2.6,1,3.4c2.1,1.4,2.7,3.1,1.1,5.2c-0.8,1.1-0.1,1.8,0.7,2.5c1.1,0.9,1.8,0.2,2.5-0.6
			c0.6-0.7,0.9-1.8,2.2-1.8c0,0,0,0,0,0C88.3,67.4,88.6,67.2,88.8,66.8z"/>
		<path class="st5" d="M20.1,86.5c5.2,3.6,10.2,7.5,16.6,9c0.4,0.1,0.7,0.7,1,1c-3.5,4.2-3.5,4.1-8.8,1.6c-0.8-0.4-1.9-0.3-2.9-0.3
			c-4.3-0.1-6-1.9-6-6.1C20,90,20,88.3,20.1,86.5z"/>
		<path class="st5" d="M62.2,2.5c-0.3-0.1-0.6-0.2-0.8-0.3c-0.9,0.2-1.8,0.3-2.6,0.3c-2.4,0-4.7-0.6-6.7-1.5
			c-1.1-0.1-2.2-0.3-3.2-0.5c0,0,0,0,0,0.1c-0.1,1.8,1,1.9,2.4,2c1.2,0.1,2.8-0.8,3.4,1.2c1.1,1.2,2.4,1,3.8,0.9
			c1.6-0.7,3.3-1,4.9-1.2C63,3,62.6,2.8,62.2,2.5z"/>
		<path class="st6" d="M75.5,89.7c1.6,0,2.7-1.7,4.4-1.5l0,0c0.3,0.7,0.5,1.5,0.8,2.2c-6.2,5.4-15.4,8.6-20.8,6.9
			c3.2-2.6,7.5-2.1,10.5-4.6c0,0,0,0,0,0c1.1,0,2-0.3,2.2-1.5c0,0,0,0,0,0C73.9,91.5,74.9,91,75.5,89.7z"/>
		<path class="st7" d="M58.4,107.5c0-1,0-1.9,0-2.9c0-1.2,0.1-2.3,1.7-2.2c3.8,0,7.5,0,11.3,0c0.9,0,1.7,0.3,1.7,1.4
			c0,1.1-0.7,1.4-1.7,1.5c-0.5,0-1,0-1.5,0c-2.5,0.3-5.3-0.9-7.3,1.9"/>
		<path class="st6" d="M95.4,66.8c-1.4-2.5,0.5-4.7,1-6.9c1.5-6.4,1.5-12.6-0.1-18.8c-0.1-0.4,0-0.9,0.1-2c1.4,2.1,2.4,3.8,3.5,5.4
			c-0.3,1.5-0.6,3-0.9,4.5c0,1.5,0,2.9,0,4.4c-1.1,3.3-0.7,6.8-0.6,10.2C98.6,66,97.7,66.9,95.4,66.8z"/>
		<path class="st7" d="M90.9,20.9c-0.5-0.5-0.9-1.1-1.3-1.6c-0.2,0.8-0.3,1.7-0.9,2.1c0.2,2.3,2.7,3.3,3,5.5c0,0.2,0,0.4,0,0.7
			c0.5-0.6,1-1.2,1.5-1.8c1.4,0.8,0.1,2.6,1.3,3.4c0.8-0.3,1.2-0.7,1.5-1.1C93.8,26.1,92,23.7,90.9,20.9z"/>
		<path class="st8" d="M58.5,95.8c-1.8-6.6,4.4-10,6.2-15.2c0.2-0.6,1.1,0,1.6,0.2c-1.7,2.2-1.6,5-2.7,7.4
			C62.4,91,61.2,93.9,58.5,95.8z"/>
		<path class="st5" d="M42.4,106.5c-0.1-1.3,1-1.3,1.8-1.2c2.6,0.3,5-0.9,7.6-0.7c1.5,1.2,2.9-0.6,4.4,0c0.8,0,1.5,0,2.3,0
			c0,1,0,1.9,0,2.9"/>
		<path class="st9" d="M63.4,3.3c-1.7,0.2-3.3,0.6-4.9,1.2c0.5,0.8,0.1,2,1.4,2.4c3.5-2.4,6,0.7,8.9,1.6c0.6,0,1.2-0.1,1.8-0.2
			c-0.7-1-1.5-1.9-1.9-3.1C66.8,4.9,65,4.2,63.4,3.3z"/>
		<path class="st6" d="M79.9,88.2c3-4.3,7.3-7.4,9.8-12.1c0.9,0.9,0.6,1.7,0.6,2.5c-1.9,1-2.7,2.6-2.4,4.7c0.2,1.8-0.4,2.8-2.4,2.6
			c-1.9-0.2-2.3,2.4-4.2,2.3C80.9,88.3,80.4,88.2,79.9,88.2L79.9,88.2z"/>
		<path class="st10" d="M26.8,8.3c-1.8,1.7-4.1,3-6.5,3.7c0.3,0.4,0.7,0.7,1.6,0.8c0.4,0,0.7,0,1.1,0c1.8-1.1,3.9-1.6,5.1-3.5
			C27.7,8.8,27.2,8.5,26.8,8.3z"/>
		<path class="st5" d="M8.6,27.6c-0.8,2-1.9,3.8-3.5,5.4c0.2,1,0.6,1.9,1.5,2.7c1.2-2.7,2.4-5.4,3.5-8.2C9.7,27.7,9.1,27.6,8.6,27.6
			z"/>
		<path class="st3" d="M104.9,63.7c-0.2-1.3-1-2.2-2.8-2.1c-1.7-0.2-2.3,0.7-2.2,2.4c0,1.7,0.7,2.8,2.5,2.8c0.7,0,1.3-0.2,1.7-0.5
			C104.3,65.4,104.5,64.5,104.9,63.7z"/>
		<path class="st9" d="M91.7,27.4c0.5-0.6,1-1.2,1.5-1.8c1.4,0.8,0.1,2.6,1.3,3.4c-0.2,3,1.6,5.4,2.3,8.2c-0.3,1.8-1.2,0.8-1.4,0.1
			C94.2,34,92.2,31,91.7,27.4z"/>
		<path class="st3" d="M99.1,53.4c0-1.5,0-2.9,0-4.4c1.4,0.2,1.3-1.6,3-2c0,2.4,0,4.7,0,6.9c0,0.8,0.3,1.9-0.8,2.2
			c-1.6,0.4-1.2-1.1-1.5-1.9C99.6,53.9,99.3,53.7,99.1,53.4z"/>
		<path class="st11" d="M83.1,12.5c-1.2,0.9-3,0.4-4.7,0.2c-0.3,0-0.5,0-0.8,0.1c1.1,1.5,2.1,3.2,4.4,2.8c0.3-1.3,1.1-1.8,2-2
			C83.8,13.3,83.4,12.9,83.1,12.5z"/>
		<path class="st6" d="M87.3,21.3c-2.3-1.3-4.2-3.1-5.2-5.6C87.8,15.6,88.1,15.9,87.3,21.3z"/>
		<path class="st5" d="M74.7,63.1c-1.1,3.1,0.5,6.5-0.7,9.6c-1.4-1.3-0.3-4.3-3.2-4.6c0-0.5,0-0.9-0.1-1.4c0.1-0.2,0.2-0.5,0.3-0.7
			C73.7,66.8,72.6,63,74.7,63.1z"/>
		<path class="st6" d="M77.7,8.7c-0.2-0.1-0.3-0.2-0.5-0.4c-1.8,0-3.7,0-5.5,0c0,0.4,0.1,0.8,0.1,1.3c1.9,1.1,3.9,2.2,5.8,3.3
			c0.3,0,0.5,0,0.8-0.1c0-0.2,0-0.5,0.1-0.7C77.8,11,77.8,9.8,77.7,8.7z"/>
		<path class="st11" d="M77.7,8.7c0.1,1.2,0.1,2.3,0.8,3.4c1.1-0.2,2.3-0.7,2.8-1.5C80,10.1,78.8,9.4,77.7,8.7z"/>
		<path class="st7" d="M79.9,88.2c0.5,0,1,0,1.5,0.1c1.7,1.8,4.8,0.7,6.8,3.4c-2.9-0.5-5.2-0.8-7.5-1.2C80.4,89.7,80.1,89,79.9,88.2
			z"/>
		<path class="st7" d="M56.2,104.5c-1.5-0.6-2.9,1.2-4.4,0c-0.2-1.8,0.7-2.3,2.4-2.3C55.8,102.3,56.3,103.1,56.2,104.5z"/>
		<path class="st7" d="M84.1,95.5c-1.4,0-1.2-1.3-1.6-2.1c-0.3-0.7-0.1-1.3,0.7-1.3c1.2,0,1.4,1.1,1.7,2
			C85.1,94.8,84.8,95.3,84.1,95.5z"/>
		<path class="st9" d="M88.8,21.3c0.2,2.3,2.7,3.3,3,5.5c-2.7-0.3-2.9-2.8-4.1-4.4C88,22,88.4,21.7,88.8,21.3z"/>
		<path class="st8" d="M48.8,97.6c1.5-1.9,2.9-1.9,4.4,0C51.8,97.6,50.3,97.6,48.8,97.6z"/>
		<path class="st5" d="M41.4,4.6c-0.8,0.2-1.5,0.3-2.3,0.5C39.6,3.6,40.4,3.6,41.4,4.6z"/>
		<path class="st5" d="M42.1,97.2c0.5,0.2,1,0.4,1.5,0.6C42.6,98.9,42.3,98.2,42.1,97.2z"/>
		<path class="st5" d="M12.5,23.8c-0.1,0.8-0.6,1.4-1.3,1.7C11,24.5,11.4,23.9,12.5,23.8z"/>
		<path class="st12" d="M70.7,66.7c0,0.5,0,0.9,0.1,1.4c-0.3,0.2-0.6,0.4-1,0.6C69.5,67.8,69.5,66.9,70.7,66.7z"/>
		<path class="st8" d="M57.7,97.4c0-0.7,0.1-1.5,0.9-1.8C58.5,96.4,58.9,97.3,57.7,97.4z"/>
		<path class="st9" d="M71.7,8.3c0,0.4,0.1,0.8,0.1,1.3c-0.7-0.1-0.9-0.7-1.2-1.2C71,8.3,71.4,8.3,71.7,8.3z"/>
		<path class="st12" d="M69.3,71.2c-0.6-0.4-0.4-0.6,0.2-0.7C69.4,70.7,69.4,71,69.3,71.2z"/>
		<path class="st7" d="M59.9,6.8c3.5-2.4,6,0.7,8.9,1.6c0.3,2.4,2.7,3,4,4.6c0.6,0.7,2.4,0.6,1,2.3c-0.6,0.7,0.4,1.3,0.8,1.1
			c3.3-1.5,3.7,1.7,5.3,3l0,0c-1.7,0.4-3.1,0.9-0.9,2.6c0.6,0.5,0.8,1.1,0.9,1.9c-0.7-0.3-1.4-0.4-1.9-0.8c-1.2-0.9-2.2-0.3-2.8,0.6
			c-0.7,0.9-0.6,2.2-0.2,3.1c0.6,1.2,1.7,1.1,2.7,0.1l0.1-0.1c1.1-0.1,2.1,1.4,3.5,0.1c-0.7-0.8-1.6-1.7-1.3-3
			c2.4-0.2,3,2.2,4.6,3.1c0.5,0.3,1.1,0.7,1.6,0.2c0.6-0.6,0-1.1-0.4-1.5c-0.7-0.6-1.9-0.7-1.6-2.1c0-0.2,0.6-0.4,0.9-0.4
			c1.2,0.2,2,1,2.2,2.1c0.2,0.9,0.1,1.9,0.1,2.9C86.8,29,86.1,29,85.4,29c-0.8,0-1.9-1.3-2.4,0.4c-0.3,1.2,0.3,2.1,1.4,2.7
			c-1,1.6,0.4,4.4,0,4.7c-2.5,1.6-0.5,3-0.2,4.3c0.6,2.6,3.6,3.3,4.6,5.7c0.7,0.7,1.2,0.6,1.5-0.4c0.2-0.8-0.4-2.3,1-2.2
			c1.3,0.1,1.2,1.5,1.2,2.6c0.1,1.6-0.3,2.9-2.2,3c-2.5-1.7-4.8-3.3-7.6,0c-1.1,1.4-2.5,0.4-2.7-1.4c-0.1-0.8-0.2-1.7,0-2.6
			c0.6-2.6-1.4-4.6-1.8-7c-0.3-1.5-2.7,0.6-3.8-0.7C74.2,38,74.1,38,74,37.9c0.7-1.8,2.7-3.2,1.9-5.5c-1.4-0.4-0.9,1.8-2.4,1.2
			c-0.1-0.7-0.1-1.6-0.2-2.4c-0.2-0.9,0.7-1.8-0.1-2.7c-1.2,0.4-2,1.5-3.3,1.3c-0.3-0.5-0.6-1.1-0.9-1.6c-1.3-4.1-2.3-8.2-4.3-12
			c-0.3-1.3-0.7-2.5-1.8-3.4C62.2,10.7,61.2,8.7,59.9,6.8z M76.1,18.6c-0.4-0.2-0.8-0.5-1-0.4c-0.3,0.1-0.4,0.4-0.7,0.7
			c0.2,0.1,0.5,0.4,0.7,0.4C75.5,19.2,75.7,18.9,76.1,18.6z"/>
		<path class="st12" d="M69.5,54.9c-4.2,0-5.6-1.6-5.6-5.8c0-2-1.4-4,0.9-5.8c0.7-0.6-0.1-1.5-1.1-1.7c-1.1-0.2-2.2-0.3-3.2-0.7
			c-6.5-2.5-7.2-6.7-4.2-13c1.3-2.7,3.8-1.6,5.9-1.8c0.5,0,1,0,1.5,0c0.4,0.6,0.9,0.7,1.5,0.6c0.7,0.5,1.5,1.1,2.2,1.6
			c0.2,1.3,0.7,2.6,0.7,3.9c0.1,1.7,1,2,2.4,1.9c0.2,0.2,0.3,0.4,0.1,0.6c-1.7,1.7-2.5,7.9-1.1,10.3c1.7,2.7,0.1,5.9,1.6,8.6
			C71.4,54.3,70.3,54.9,69.5,54.9z"/>
		<path class="st2" d="M62.9,12.8c1.1,0.9,1.5,2.1,1.8,3.4c-1.1,0.1-2.2,0.2-3.2,0.3c-1.7-0.2-3.4-0.1-5.1,0.4
			c-1.9,0.6-4.1,0.7-5.6-0.8c-2.7-2.6-5.8-2.2-9-1.6c-1.5,0.3-2.8,0.6-3.2-1.3c-0.4-1.8,1-1.7,2.2-2.1c2-0.6,3.6-0.4,5.6,0.4
			c2.8,1.1,5.9,1.2,9,1.2c2.3,0,4.9-1.3,7,0.9C62.6,13.4,62.7,13.1,62.9,12.8z"/>
		<path class="st0" d="M70.5,34.8c0.1-0.3,0.1-0.5-0.1-0.6c-0.2-1.4-0.4-2.9-0.6-4.3c1.3,0.2,2.2-1,3.3-1.3c0.7,0.9-0.1,1.8,0.1,2.7
			c0.2,0.8,0.2,1.6,0.2,2.4c1.5,0.6,1-1.7,2.4-1.2c0.8,2.3-1.2,3.7-1.9,5.5c-0.7,1.1-0.8,2.4-0.7,3.7c0.2,1.7-0.7,3.6,0.7,5.2
			c0,1.3,0.2,2.7-0.2,3.8c-0.7,1.9,0.6,2.2,1.7,2.8c0,0.2,0.1,0.6,0,0.7c-2.7,2.1-1.3,3,1,3.3c0.4,1.5-2.7,1.6-1,3.4
			c0,0.7,0,1.5,0,2.2c-0.2,0-0.5,0-0.7,0c-2.1-0.1-1,3.7-3.6,2.9c0-1,0-2,0-2.9c0.2-1,0.6-2,0-3c0-0.5,0-1-0.1-1.5
			c0.9-0.3,0.9-1.2,0.9-1.8C72.1,49.4,72.6,42.1,70.5,34.8z"/>
		<path class="st2" d="M70.5,34.8c2.1,7.2,1.6,14.6,1.4,22c0,0.7,0,1.5-0.9,1.8c-2.4-0.5-1.1-2.4-1.5-3.7c0.8-0.1,1.8-0.6,1.5-1.2
			c-1.5-2.7,0-5.9-1.6-8.6C68,42.8,68.9,36.5,70.5,34.8z"/>
		<path class="st8" d="M61.4,16.6c1.1-0.1,2.2-0.2,3.2-0.3c2,3.8,3,8,4.3,12c-0.5,0-1.1,0.1-1.6,0.1c-0.7-0.5-1.5-1.1-2.2-1.6
			c-0.2-1-0.4-1.8-1.5-0.6c-0.5,0-1,0-1.5,0c0.1-0.8-0.1-1.7,0.9-2.2c1.8-0.7,1.5-2,0.3-2.7C61.3,20.1,61.3,18.4,61.4,16.6z"/>
		<path class="st2" d="M52.2,41.5c1.5,1.6,4.7,0.9,4.8,4.3c0,2.1-1.5,2.7-3.1,3.1c-1,0.2-4.3-3.7-4.3-4.9
			C49.6,42.2,51,42.1,52.2,41.5z"/>
		<path class="st2" d="M48.8,57c-1.1-0.3-1.5-1.1-1.5-2.2c0.1-1.1,0.8-1.4,1.8-1.3c0.9,0.1,1.7,0.6,1.6,1.6
			C50.6,56.1,50.2,57.1,48.8,57z"/>
		<path class="st2" d="M45.7,51.2c-0.3,1.2-1.2,1.5-2.3,1.5c-0.9-0.1-1.9-0.4-1.7-1.5c0.2-1.4,1.5-1.4,2.6-1.3
			C45.3,49.8,45.8,50.2,45.7,51.2z"/>
		<path class="st2" d="M71.1,60.1c0.7,1,0.2,2,0,3C70,62.1,69.9,61.1,71.1,60.1z"/>
		<path class="st13" d="M75.5,53.4c-1.1-0.6-2.4-0.9-1.7-2.8c0.4-1.2,0.2-2.6,0.2-3.8c2.4-2.2,2.1-4.2-0.7-5.2
			c-0.1-1.3,0-2.5,0.7-3.7c0.1,0,0.3,0.1,0.3,0.1c1.1,1.4,3.6-0.8,3.8,0.7c0.4,2.4,2.4,4.4,1.8,7c-0.2,0.8-0.1,1.7,0,2.6
			c0.2,1.8,1.6,2.7,2.7,1.4c2.8-3.3,5.1-1.7,7.6,0c-1,2.6,2.7,4.7,0.8,7.4c-0.2,0.2-0.5,0.5-0.7,0.7c0,0,0,0,0,0
			c-1.3,0.2-1.6,1-1.4,2.1c0.3,2.3-0.5,4.5-0.8,6.8c-1.2,0-1.5,1.1-2.2,1.8c-0.7,0.7-1.4,1.5-2.5,0.6c-0.8-0.7-1.5-1.4-0.7-2.5
			c1.6-2.2,1-3.8-1.1-5.2c-1.1-0.8-1-2.1-1-3.4C80.4,54.9,79.3,52.6,75.5,53.4z"/>
		<path class="st13" d="M88.8,46.8c-1-2.4-4-3.1-4.6-5.7c-0.3-1.3-2.3-2.8,0.2-4.3c0.5-0.3-0.9-3.1,0-4.7c2.6,0.1,4.5-0.6,4.4-3.7
			c0.7-0.7,1.5-0.6,1.4,0.4c-0.2,1.3-0.9,2.5-1.4,3.7c-0.3,0.6-0.7,1.1-0.2,1.7c2,2.5,1.8,2.5,0.5,6.8
			C88.5,42.7,88.8,44.8,88.8,46.8z"/>
		<path class="st4" d="M91,57.1c1.9-2.7-1.8-4.8-0.8-7.4c1.9-0.1,2.3-1.4,2.2-3c2.6-0.2,3.8,0.4,3.1,3.5c-0.7,3.4-0.6,7.1-0.9,10.6
			c-0.1,0.7,0.1,1.6-0.8,1.8c-0.6,0.1-1.3-0.5-1.2-1.1c0.5-2.1-3.3-1.4-2.4-3.7c0,0,0,0,0,0C90.5,57.6,90.7,57.4,91,57.1z"/>
		<path class="st14" d="M88.7,28.3c0.1,3.1-1.8,3.8-4.4,3.7c-1.1-0.5-1.7-1.4-1.4-2.7c0.5-1.6,1.6-0.4,2.4-0.4c0.8,0,1.5,0,1.9-0.7
			C87.8,28.3,88.3,28.3,88.7,28.3z"/>
		<path class="st7" d="M79.9,19.4c0.1,0,0.2,0,0.4,0c0.9,0.3,1.9,0.4,2.2,1.4c0,0.1-0.4,0.6-0.7,0.6C80.4,21.5,80,20.6,79.9,19.4
			C79.9,19.4,79.9,19.4,79.9,19.4z"/>
		<path class="st0" d="M75.5,89.7c-0.6,1.3-1.5,1.7-2.9,1.6C72.1,88.1,74.5,90.2,75.5,89.7z"/>
		<path class="st0" d="M72.6,91.3c-0.3,1.2-1.1,1.5-2.2,1.5C70.3,91.1,71.4,91.2,72.6,91.3z"/>
		<path class="st13" d="M88.8,66.8c-0.3,0.5-0.5,0.6-0.8,0C88.3,66.8,88.6,66.8,88.8,66.8z"/>
		<path class="st13" d="M75.4,63.1c0-0.7,0-1.5,0-2.2c3.6,2.7,1.2,6,1.4,10C74.3,67.9,76.9,65.2,75.4,63.1z"/>
		<path class="st3" d="M77.6,26.8c-0.9,1-2.1,1.1-2.7-0.1c-0.5-0.9-0.6-2.2,0.2-3.1c0.7-0.9,1.6-1.4,2.8-0.6
			c0.6,0.4,1.3,0.6,1.9,0.8c0,0,0,0,0,0c-0.2,1.3,0.6,2.2,1.3,3c-1.4,1.3-2.4-0.2-3.5-0.1c-0.1-0.5-0.3-1-0.4-1.6
			c-0.1,0.1-0.2,0.1-0.3,0.2C76.9,26,77.1,26.5,77.6,26.8z"/>
		<path class="st2" d="M67.3,28.4c0.5,0,1.1-0.1,1.6-0.1c0.3,0.5,0.6,1.1,0.9,1.6c0.2,1.4,0.4,2.9,0.6,4.3c-1.4,0.1-2.3-0.3-2.4-1.9
			C68,31,67.6,29.7,67.3,28.4z"/>
		<path class="st3" d="M76.1,18.6c-0.4,0.3-0.6,0.6-0.9,0.6c-0.2,0-0.5-0.3-0.7-0.4c0.2-0.2,0.4-0.6,0.7-0.7
			C75.4,18.1,75.7,18.4,76.1,18.6z"/>
		<path class="st1" d="M63.6,26.1c1.1-1.2,1.3-0.4,1.5,0.6C64.5,26.8,64,26.7,63.6,26.1z"/>
		<path class="st4" d="M73.3,41.6c2.8,1,3.1,3,0.7,5.2C72.6,45.2,73.5,43.3,73.3,41.6z"/>
		<path class="st3" d="M91,57.1c-0.2,0.2-0.5,0.5-0.7,0.7C90.5,57.6,90.7,57.4,91,57.1z"/>
		<path class="st7" d="M77.6,26.8c-0.5-0.4-0.8-0.8-0.6-1.4c0-0.1,0.2-0.1,0.3-0.2c0.1,0.5,0.3,1,0.4,1.6
			C77.7,26.7,77.6,26.8,77.6,26.8z"/>
	</g>
	<ellipse class="st15" cx="51.6" cy="50.7" rx="47.4" ry="47.1"/>
</g>
<g>
	<path class="st16" d="M90.8,126.5H15c-2.2,0-4-1.8-4-4v-23c0-2.2,1.8-4,4-4h75.8c2.2,0,4,1.8,4,4v23
		C94.8,124.7,93,126.5,90.8,126.5z"/>
	<g>
		<path class="st17" d="M31.9,113c-0.1-2-0.1-4.4-0.1-6.8h-0.1c-0.5,2.1-1.2,4.4-1.8,6.4l-2,6.4H25l-1.8-6.4
			c-0.5-1.9-1.1-4.3-1.5-6.4l0,0c-0.1,2.2-0.2,4.8-0.3,6.8l-0.3,6.3h-3.4l1.1-16.5h5l1.6,5.5c0.5,1.9,1,4,1.4,5.9h0.1
			c0.5-1.9,1-4.1,1.6-5.9l1.8-5.5h4.9l0.9,16.5h-3.6L31.9,113z"/>
		<path class="st17" d="M53.7,110.9c0,5.4-3.3,8.7-8.1,8.7c-4.9,0-7.7-3.7-7.7-8.4c0-4.9,3.2-8.6,8-8.6
			C51,102.6,53.7,106.3,53.7,110.9z M41.8,111.1c0,3.2,1.5,5.5,4,5.5s4-2.4,4-5.6c0-3-1.4-5.5-4-5.5
			C43.3,105.5,41.8,107.9,41.8,111.1z"/>
		<path class="st17" d="M71.2,110.9c0,5.4-3.3,8.7-8.1,8.7c-4.9,0-7.7-3.7-7.7-8.4c0-4.9,3.2-8.6,8-8.6
			C68.5,102.6,71.2,106.3,71.2,110.9z M59.3,111.1c0,3.2,1.5,5.5,4,5.5c2.5,0,4-2.4,4-5.6c0-3-1.4-5.5-4-5.5
			C60.8,105.5,59.3,107.9,59.3,111.1z"/>
		<path class="st17" d="M73.7,119.3v-16.5H78l3.4,6c1,1.7,2,3.8,2.7,5.6h0.1c-0.2-2.2-0.3-4.4-0.3-6.9v-4.8h3.4v16.5h-3.9l-3.5-6.4
			c-1-1.8-2.1-3.9-2.9-5.8h-0.1c0.1,2.2,0.1,4.5,0.1,7.2v5h-3.3V119.3z"/>
	</g>
</g>
</svg>
