<?xml version="1.0" encoding="utf-8"?>
<!-- Generator: Adobe Illustrator 25.0.0, SVG Export Plug-In . SVG Version: 6.00 Build 0)  -->
<svg version="1.1" id="Layer_1" xmlns="http://www.w3.org/2000/svg" xmlns:xlink="http://www.w3.org/1999/xlink" x="0px" y="0px"
	 width="105.5px" height="129px" viewBox="0 0 105.5 129" style="enable-background:new 0 0 105.5 129;" xml:space="preserve">
<style type="text/css">
	.st0{fill:#48A6DD;}
	.st1{fill:#FFFFFF;}
	.st2{fill:#231F20;}
	.st3{fill:#E4DEBE;}
	.st4{fill:#C0B99B;}
	.st5{fill:#F9F9E0;}
	.st6{fill:#FAF8DA;}
	.st7{fill:#807A68;}
	.st8{fill:#E4DFC3;}
	.st9{fill:#0F0F0D;}
	.st10{fill:#F5F1D3;}
	.st11{fill:#FAF4D7;}
	.st12{fill:#0C0C0B;}
	.st13{fill:#23241F;}
	.st14{fill:#F8F6E1;}
	.st15{fill:#3E3B32;}
	.st16{fill:#F4F0D1;}
	.st17{fill:#ABA78A;}
	.st18{fill:#0A0A09;}
	.st19{fill:#161614;}
	.st20{fill:#161613;}
	.st21{fill:#292A24;}
	.st22{fill:#DBD7BA;}
	.st23{fill:#D8D2B2;}
	.st24{fill:#0B0C09;}
	.st25{fill:#252621;}
	.st26{fill:#0D0E0A;}
	.st27{fill:#131411;}
	.st28{fill:#20211A;}
	.st29{fill:#BCB79E;}
	.st30{fill:#8A8773;}
	.st31{fill:#D1C9AB;}
	.st32{fill:#656457;}
	.st33{fill:#33332C;}
	.st34{fill:#F0EACB;}
	.st35{fill:#4F4D42;}
	.st36{fill:#2E2F2C;}
	.st37{fill:#949282;}
	.st38{fill:#3C3C38;}
	.st39{fill:#3B3B39;}
	.st40{fill:#565447;}
	.st41{fill:#383934;}
	.st42{fill:#C4BDA8;}
	.st43{fill:#1A1A1A;}
	.st44{fill:#D0CAAB;}
	.st45{fill:#DBD5B3;}
	.st46{fill:#CEC8A9;}
	.st47{fill:#ADA78C;}
	.st48{fill:#ADA68B;}
	.st49{fill:#9F9880;}
	.st50{fill:#AEA88B;}
	.st51{fill:#ECE6C6;}
	.st52{fill:#F1ECCC;}
	.st53{fill:#C1BB9D;}
	.st54{fill:#FDFCE4;}
	.st55{fill:#C8C2A4;}
	.st56{fill:#EEE8C8;}
	.st57{fill:#EEE8C6;}
	.st58{fill:#EDE8C8;}
	.st59{fill:#E0DABB;}
	.st60{fill:#4C493E;}
	.st61{fill:#6D6959;}
	.st62{fill:#757160;}
	.st63{fill:#958F7A;}
	.st64{fill:#87816F;}
	.st65{fill:#686455;}
	.st66{fill:#D3CDAD;}
	.st67{fill:#3E3B33;}
	.st68{fill:#21211C;}
	.st69{fill:#1F1F1C;}
	.st70{fill:#EAE5C4;}
	.st71{fill:#DCD6B6;}
	.st72{fill:#37352E;}
	.st73{fill:#38352E;}
	.st74{fill:#4A473D;}
	.st75{fill:#181914;}
	.st76{fill:#11110C;}
	.st77{fill:#49473D;}
	.st78{fill:#35332C;}
	.st79{fill:#2F2D26;}
	.st80{fill:#2B2823;}
	.st81{fill:#E4DEBF;}
	.st82{fill:#BBB297;}
	.st83{fill:#2E2D26;}
	.st84{fill:#2A2A25;}
	.st85{fill:#393A33;}
	.st86{fill:#28271E;}
	.st87{fill:#15160E;}
	.st88{fill:#49483D;}
	.st89{fill:#1A1911;}
	.st90{fill:#6B6C64;}
	.st91{fill:#85816C;}
	.st92{fill:#2F2E23;}
	.st93{fill:#CAC4A4;}
	.st94{fill:#B8B395;}
	.st95{fill:#948E77;}
	.st96{fill:#A49E83;}
	.st97{fill:#98927A;}
	.st98{fill:#86836E;}
	.st99{fill:#938E76;}
	.st100{fill:#AFA88C;}
	.st101{fill:#B7B095;}
	.st102{fill:#CEC8AC;}
	.st103{fill:#B0A98F;}
	.st104{fill:#FAF6D8;}
	.st105{fill:#BFB89C;}
	.st106{fill:#C4BEA0;}
	.st107{fill:#A39C83;}
	.st108{fill:#DBD5B5;}
	.st109{fill:#E5DFC0;}
	.st110{fill:#DAD3B6;}
	.st111{fill:#E9E4C6;}
	.st112{fill:#DBD5B4;}
	.st113{fill:#5C594B;}
	.st114{fill:#555145;}
	.st115{fill:#504D40;}
	.st116{fill:#827B6F;}
	.st117{fill:#AFA88E;}
	.st118{fill:#958F77;}
	.st119{fill:#726D5E;}
	.st120{fill:#7B7565;}
	.st121{fill:#908974;}
	.st122{fill:#AAA38A;}
	.st123{fill:#E2DCBB;}
	.st124{fill:#BCB698;}
	.st125{fill:#BAB497;}
	.st126{fill:#E8E2C2;}
	.st127{fill:#434036;}
	.st128{fill:#4F4C44;}
	.st129{fill:#56524B;}
	.st130{fill:#50514A;}
	.st131{fill:#5D5A4C;}
	.st132{fill:#5E5A52;}
	.st133{fill:#5F5C4F;}
	.st134{fill:#3C3A2E;}
	.st135{fill:#656253;}
	.st136{fill:#676256;}
	.st137{fill:#302D22;}
	.st138{fill:#7F7C6F;}
	.st139{fill:#5F5C53;}
	.st140{fill:#242118;}
	.st141{fill:#0F100B;}
	.st142{fill:#615D4F;}
	.st143{fill:#676354;}
	.st144{fill:#3F3C30;}
	.st145{fill:#27261D;}
	.st146{fill:#747264;}
	.st147{fill:#7D7A6C;}
	.st148{fill:#2B2920;}
	.st149{fill:#1B180F;}
	.st150{fill:#757360;}
	.st151{fill:#63604C;}
	.st152{fill:#74715B;}
	.st153{fill:#5E5A48;}
	.st154{fill:#D2CCAD;}
	.st155{fill:#D7D0B4;}
	.st156{fill:#C3BC9F;}
	.st157{fill:#B0A98D;}
	.st158{fill:#C5C0A1;}
	.st159{fill:#8E8A73;}
	.st160{fill:#9F9980;}
	.st161{fill:#837F6B;}
	.st162{fill:#A7A38D;}
	.st163{fill:#767361;}
	.st164{fill:#B8B295;}
	.st165{fill:#989177;}
	.st166{fill:#E1DBBD;}
	.st167{fill:#D3CCB0;}
	.st168{fill:#898571;}
	.st169{fill:#A59E85;}
	.st170{fill:#BCB49A;}
	.st171{fill:#BEB79C;}
	.st172{fill:#968F76;}
	.st173{fill:#C8C2A5;}
	.st174{fill:#D1CBAD;}
	.st175{fill:#BFB89D;}
	.st176{fill:#C9C3A3;}
	.st177{fill:#C7C1A1;}
	.st178{fill:#BBB596;}
	.st179{fill:#F0EAC9;}
	.st180{fill:#6D6A5A;}
	.st181{fill:#787563;}
	.st182{fill:#6B6758;}
	.st183{fill:#939181;}
	.st184{fill:#555245;}
	.st185{fill:#8E8974;}
	.st186{fill:#7F7B68;}
	.st187{fill:#4F4D43;}
	.st188{fill:#797563;}
	.st189{fill:#797663;}
	.st190{fill:#76725F;}
	.st191{fill:#686454;}
	.st192{fill:#8F8B7C;}
	.st193{fill:#4F4C3C;}
	.st194{fill:#4C4A3B;}
	.st195{fill:#494737;}
	.st196{fill:#807D6F;}
	.st197{fill:#7B7569;}
	.st198{fill:#403D30;}
	.st199{fill:#898574;}
	.st200{fill:#8D8979;}
	.st201{fill:#E0DABA;}
	.st202{fill:#A0997F;}
	.st203{fill:#9E9A83;}
	.st204{fill:#B5AF98;}
	.st205{fill:#A09C86;}
	.st206{fill:#625E4D;}
	.st207{fill:#726E5E;}
	.st208{fill:#BDB699;}
	.st209{fill:#B2AB90;}
	.st210{fill:#8A8672;}
	.st211{fill:#626051;}
	.st212{fill:#7D7B6E;}
	.st213{fill:#736E60;}
	.st214{fill:#9F987F;}
	.st215{fill:#A29C83;}
	.st216{fill:#B1AC90;}
	.st217{fill:#D5CEB2;}
	.st218{fill:#E5DEC1;}
	.st219{fill:#716E5F;}
	.st220{fill:#9E9A82;}
</style>
<g>
	<path class="st0" d="M90.8,126.5H15c-2.2,0-4-1.8-4-4v-23c0-2.2,1.8-4,4-4h75.8c2.2,0,4,1.8,4,4v23C94.8,124.7,93,126.5,90.8,126.5
		z"/>
	<g>
		<path class="st1" d="M31.9,113c-0.1-2-0.1-4.4-0.1-6.8h-0.1c-0.5,2.1-1.2,4.4-1.8,6.4l-2,6.4H25l-1.8-6.4
			c-0.5-1.9-1.1-4.3-1.5-6.4l0,0c-0.1,2.2-0.2,4.8-0.3,6.8l-0.3,6.3h-3.4l1.1-16.5h5l1.6,5.5c0.5,1.9,1,4,1.4,5.9h0.1
			c0.5-1.9,1-4.1,1.6-5.9l1.8-5.5h4.9l0.9,16.5h-3.6L31.9,113z"/>
		<path class="st1" d="M53.7,110.9c0,5.4-3.3,8.7-8.1,8.7c-4.9,0-7.7-3.7-7.7-8.4c0-4.9,3.2-8.6,8-8.6
			C51,102.6,53.7,106.3,53.7,110.9z M41.8,111.1c0,3.2,1.5,5.5,4,5.5s4-2.4,4-5.6c0-3-1.4-5.5-4-5.5
			C43.3,105.5,41.8,107.9,41.8,111.1z"/>
		<path class="st1" d="M71.2,110.9c0,5.4-3.3,8.7-8.1,8.7c-4.9,0-7.7-3.7-7.7-8.4c0-4.9,3.2-8.6,8-8.6
			C68.5,102.6,71.2,106.3,71.2,110.9z M59.3,111.1c0,3.2,1.5,5.5,4,5.5c2.5,0,4-2.4,4-5.6c0-3-1.4-5.5-4-5.5
			C60.8,105.5,59.3,107.9,59.3,111.1z"/>
		<path class="st1" d="M73.7,119.3v-16.5H78l3.4,6c1,1.7,2,3.8,2.7,5.6h0.1c-0.2-2.2-0.3-4.4-0.3-6.9v-4.8h3.4v16.5h-3.9l-3.5-6.4
			c-1-1.8-2.1-3.9-2.9-5.8h-0.1c0.1,2.2,0.1,4.5,0.1,7.2v5h-3.3C73.7,119.2,73.7,119.3,73.7,119.3z"/>
	</g>
</g>
<circle class="st2" cx="53" cy="52.3" r="51.2"/>
<g>
	<path class="st3" d="M93.9,83c-1.3,1.9-2.7,3.8-4.5,5.3c-0.8,0.8-0.8-0.7-1.4-0.5c-1.2,0.4-2.1,1.3-3.2,1.8c-1,0.4-1.8,0.5-2.6-0.4
		c-0.1-1.7,1.2-2,2.4-2.5c1-0.4,1.7-1,1.7-2c-2.3,1.9-4.9,2.9-8,2.6c-0.3-0.1-0.5-0.4-0.6-0.7c-0.2-0.8,0.3-1.2,1-1.5
		c0.9-0.3,1.3-1,1.2-1.9c0.1-1,0.8-1.4,1.7-1.4c0.1,0,0.3,0.1,0.3,0.2c0.1-0.1,0.1-0.3,0-0.4c0.3-0.7,0.8-1.3,1.6-1
		c1.2,0.4,0.3-0.7,0.7-0.9c0.2-0.6,0.7-1.4,1.3-0.7c0.5,0.6,1-0.2,1.4,0.3c0.3,0.4,0.2,0.8,0.1,1.3c2.3-1.6,3.5-1.3,7.1,1.9
		C94.1,82.6,94,82.8,93.9,83z"/>
	<path class="st4" d="M77.8,86.5c0.2,0.1,0.3,0.3,0.5,0.4c0.3,0.2,0.7,0.7,0.4,0.8c-2.1,0.7-0.3,2-0.6,2.9c-0.4,1.2-0.1,2.6-0.8,3.7
		c-0.1,0.2-0.3,0.3-0.5,0.4c-0.4,0.2-1.2-0.3-1.4,0.5c-0.1,0.2-0.3,0.3-0.4,0.4c-1.6,0.3-1.8,0.9-1,3.3c-1.8,0.7-3.6,1.5-5.3,2.2
		c-0.3,0.2-0.6,0.2-0.9,0.1c-0.2-0.2-0.4-0.5-0.3-0.8c0.7-1.3,1.7-2.3,2.5-3.5c0.1-0.1,0.5,0,0.5-0.1c-0.2-1-0.2-1,0.4-1.3
		c2-0.9,1.9-3.2,2.9-4.8c0.5-0.7-1-0.9-1.2-1.6c-0.1-0.2-0.1-0.4,0-0.6c0.9-0.3,2-0.2,1.4-1.9c-0.4-1.1,0-2.4,1.4-2.9
		c0.9-0.3,1.1-1.1,1.2-2c-1,0-1.9,0.3-2.9,0.1c-0.9-0.2-1.4-0.6-0.6-1.5c1.6-0.7,3.1-1.5,4.8-1.8c0.3,0.1,0,0,0.1,0.2
		c0.8,0.8,2.4-0.9,2.8,0.7c0.2,1-0.7,1.9-0.9,2.9c-1,1-0.9,3.1-3,3.2C77.4,85.7,77.6,86.2,77.8,86.5z"/>
	<path class="st5" d="M91.8,18.8c6.3,6.9,9.8,15,11.5,24c0.4,1.1,0.1,2.2,0.2,3.2c0,0.2-0.1,0.4-0.3,0.5c-0.9-0.2-1.2-1.2-2-1.6
		c-0.6-0.6-0.7-1.3-0.4-2c0.5-1.6,0.4-2.8-1.6-3.4c-1.4-0.4-1.5-2.1-0.3-3c0.4-0.3,0.2-0.3,0.1-0.4c-0.4-0.9-0.5-2-1.1-2.9
		c-0.5-1.7-1.9-3-2.4-4.8C95,26.1,93,25.6,91.2,25c-0.2-0.3-0.4-0.7-0.2-1c0.9-1.3,0.4-2.5,0-3.7C91,19.7,90.6,18.8,91.8,18.8z"/>
	<path class="st6" d="M100.5,71.3c-0.9,2.9-2.4,5.6-4.3,8.1c-0.8,0.7-1.6,1.1-1.8-0.4c-0.1-0.9-1-1.4-1.1-2.3
		c0.1-0.4,0.7-0.7,0.7-0.8c-0.9-2.4,1.2-3.5,2.2-5.3c-1.7,0.1-3.8,2.6-4.8-0.7c-0.1-0.4-0.1-0.8,0.1-1.2c0.1,0,0.1-0.1,0.2-0.1
		c3.1,0.2,3.1,0.2,2.7-3.3c0-0.2,0.1-0.4,0.1-0.6c0.4-1.1,1.3-1.2,2.3-1.2c0.3,0,0.6,0.1,0.9,0.4c0.3,0.5,0.3,1,0.2,1.6
		c-0.3,0.9-0.5,1.9,0.6,2.6c-0.2-2,0.1-2.2,2.3-1.4C101.3,68.2,100.1,69.7,100.5,71.3z"/>
	<path class="st7" d="M58.7,1.4c0.9,0.1,1.9-0.2,2.7,0.4c-0.3,0.5-0.8,0.3-1,0.3C61.9,5,64.7,5.9,67.4,7c1,1.6,0.6,3.2-0.8,4
		c-1.7,1-1.5,2.2-1.2,3.7c0,1.3,1.3,2,1.6,3.2c0,0.3-0.2,0.6-0.6,0.7c-0.6,0.1-1.2-0.1-1.8-0.3c-0.9-0.4-1.8-0.9-2.7-0.2
		c-0.2,0-0.4,0-0.6-0.1c-1.4-1.3,1.3-1.6,0.7-2.7c-0.4-0.9-2-1.5-0.9-2.8c1.1-1.2,0.7-2.6,0.9-4c0-0.5-0.1-0.9-0.5-1.2
		c-1.3-0.7-2.6-1.3-3.2-2.9c-2.6,0.7-1.3-2-2.3-2.7c-0.2-0.2,0-0.5,0.4-0.6C57.2,1.3,58,1,58.7,1.4z"/>
	<path class="st8" d="M65.4,2.7c6.2,1.3,11.7,4,16.8,7.6c-0.1,0.7-0.4,1.2-1,1.5c-2.2-0.3-3.9-1.2-5.3-2.9c-0.3-0.4-0.2-0.1-0.3,0
		c-1.4,0.9-2.4-0.1-3.4-0.7c-1.6-1-3.3-1.9-5.2-2.4c-0.9-0.4-1.2-1.4-2-2C64.7,3.5,64.3,2.8,65.4,2.7z"/>
	<path class="st9" d="M51.1,31.7c-0.3-1.3-2.2-1.5-2.2-2.9c0-2-1.3-4.2,0.6-6.1c0.4-0.4,0.2-1-0.4-1.2c-1-0.4-0.9-1.4-0.6-1.9
		c1.4-2.4,0.5-5,1.3-7.5c0.1,0,0.2-0.1,0.2-0.1c0.7-0.1,1.4,0,1.9,0.5c0.5,0.6,0.9,1.2,0.7,2c-1.7,0.9-1.5,2.7-1.3,4
		c0.4,2.5,0.2,4.8-0.6,7.1c-0.2,0.7-0.2,1.3,0.2,1.9c0.6,1,1.1,2.1,2.4,0.8c0.4-0.4,0.9-0.6,1.4-0.2c0.4,1.2-0.6,1.9-1.1,2.8
		c-0.7,0.5-1.4,0.8-2.3,1C51.3,31.8,51.2,31.8,51.1,31.7z"/>
	<path class="st10" d="M81.4,11.7c0-0.6,0.3-1,0.8-1.3c0,0,0,0,0,0c0.7,0.7,1.5,1.3,2.4,1.7c2.8,1.8,5.1,4.1,7.1,6.7
		c-0.8,0.2,0,1.1-0.6,1.4c-1.3,0.3-1.1-1.1-1.9-1.6c0.6,1.2,0.7,2.5,0.9,3.7c0.2,1-0.3,1.9-1.3,2c-0.9,0.1-1.2-0.7-1.2-1.5
		c0-1.4-1.4-1.9-1.7-3c-0.3-0.8-0.9-1.4-1.6-1.9c-0.4-1.4,1.6-2.5,0.4-3.9c-0.5-0.3-1.1-0.1-1.5-0.6c-0.5-0.6-1.1-1-1.7-1.3
		C81.5,11.8,81.5,11.8,81.4,11.7z"/>
	<path class="st11" d="M102.8,46.4c0.1,0,0.3,0,0.4,0c0.1-0.2,0.3-0.2,0.4,0c0,0.2,0,0.5,0.1,0.7c0.4,1.9,0.1,3.9,0.2,5.8
		c-0.5,1.9-1.3,3.7-0.8,5.9c0.3,1.1-0.2,2.6-1.6,3.3c-0.4-1.5-2.1-2.1-2.4-3.7c-0.1-0.5-0.8-0.1-1.2-0.3c-1.4-1.9-1.4-2.7,0.2-4.7
		c2.2-0.5,2.7-0.3,3.5,1.4c0.1-1.5-0.3-2.9,0.1-4.2C102.2,49.3,102.1,47.7,102.8,46.4z"/>
	<path class="st12" d="M50.7,51.3c0.4-1.3-1.1-1.6-1.4-2.6c-0.6-1.8,0.9-3,0.8-4.6C50,43,51,42,49.7,40.9c-0.7-0.6,0.4-0.9,0.7-1.3
		c0.6-0.7,1.3-1.8,0.1-2.2c-3-1.1-1.3-2.7-0.7-4.3c0.2,0.2,0.4,0.5,0.5,0.8c0.1,0.5,0.1,1.1,0.3,1.5c1.6,1.5,2.3,3.3,1.3,5.5
		c-0.6,1.3,0.1,2.6,0.6,3.8c0.3,1.1,0.3,2.3,0.6,3.5c0.4,1.6-0.6,2.9-2.3,3.6c-0.1-0.1-0.2-0.2-0.1-0.3
		C50.6,51.4,50.7,51.3,50.7,51.3z"/>
	<path class="st13" d="M53,64.2c-0.3-1-0.6-1.9-1.4-2.7c-0.9-1,0.7-1.8,0.3-2.6c-0.6-1-0.7-2-0.7-3.1c0-1,0.3-1.8,1.5-1.4
		c1.4,0.4,3.1-0.5,4.1,1.2c0.6,0.6,1.1,1.3,0.7,2.2c-0.9,0.5-1.7,1.2-2.3,2.1c-0.8,0.3-0.3,1.8-1.5,1.9c-0.1-0.1-0.1-0.1-0.1-0.1
		c0,0,0,0,0,0c0,0.1,0.1,0.2,0.1,0.2c0.3,0.3,0.4,0.8,0.9,1c0.3,0.2,0.7,0.4,0.8,0.8c0,0.5-0.2,1-0.4,1.5c-0.2,0.3-0.4,0.5-0.7,0.5
		C53.3,65.6,53.6,64.5,53,64.2z"/>
	<path class="st14" d="M101.4,62c0.5-1.4,1.7-2.4,0.9-4.3c-0.5-1.2-0.1-3.1,1.3-4.2c0.5,1.8,0.3,3.7,0.1,5.5
		c-0.3,4.3-1.4,8.4-3.3,12.3c-1.3-1.7,0.2-3.3,0.1-4.9C99.3,64.7,100.2,63.3,101.4,62z"/>
	<path class="st15" d="M52.5,14.4c-0.3-0.6-0.6-1.2-0.9-1.8C51,11.7,51.9,11,52,10.1c1.5-1.7,1.6-3.1,0.4-5c-0.4-0.5-0.8-1-0.9-1.7
		c-0.1-0.3,0.2-0.9-0.5-0.5c-0.2-0.1-0.3-0.2-0.4-0.4c-0.2-1,0.4-1.3,1.2-1.5c0.6,0,1.2,0,1.8,0c0.1,0.1,0.2,0.3,0.2,0.5
		c0,0.4,0.1,0.7,0.1,1.1c0.1,0.9,0.7,1.4,1.4,1.8c0.7,0.4,1,1,0.8,1.8C56,7.9,56.1,9.4,55,11c-0.7,1,0.4,2.6,0.3,3.9
		c-0.4,0.4-1,0.4-1.5,0.3c-0.3-0.1-0.6-0.2-0.8-0.4C52.8,14.7,52.6,14.5,52.5,14.4z"/>
	<path class="st16" d="M93.4,76.7c0.8,0.5,1.6,1,1.5,2.2c-0.1,1.4,0.8,0.4,1.3,0.5c0,0.8-1.1,0.9-1.1,1.7c-0.6,0.3-0.6,1.2-1.3,1.3
		c-0.4,0-0.7,0.1-1.1,0.1c0-2.5-2.5-1.5-3.5-2.5c-0.4-0.4-0.8-0.1-1.1,0.3c-0.4,0.5-0.9,1.2-1.5,0.8c-0.6-0.4,0-1.2,0.2-1.8
		c-0.1-0.4,0.1-0.6,0.4-0.7c0.2,0,0.4-0.1,0.6,0c1.5-0.1,2.7-0.7,4-1.5C92.2,76.8,92.7,76.2,93.4,76.7z"/>
	<path class="st17" d="M65.4,2.7c-0.1,0.2-0.2,0.4-0.3,0.5c1.3,0.2,1.3,1.5,2,2.2c1.1,0.5,2.1,1.2,2.9,2.1c0.5,0.7,0.4,1.4-0.2,2
		c-1.3-0.3-1.6-1.8-2.7-2.3C64,6.5,61.3,5.1,59.7,2c0.5,0,1.1-0.1,1.7-0.1c0,0,0,0,0,0c0.8,0.7,1.9,0,2.7,0.4
		C64.6,2.3,65.1,2.3,65.4,2.7z"/>
	<path class="st18" d="M52.9,54.9c-2.3-0.6-0.3,1.7-1.3,1.9c1,1.6,0.4,3.2,0,4.7c-0.7-0.3-0.2-1.9-1.7-1.4c-0.5,0.1-0.4-0.5-0.1-0.8
		c0.6-0.7-0.2-1.3-0.1-1.8c0.3-1.9,0.1-3.8,0.1-5.6c0-0.4,0.5-0.5,0.9-0.5c0,0.2,0,0.3,0,0.5c0.2,0.1,0.4,0.3,0.6,0.2
		c1.8-1,2-0.1,1.7,1.5c-0.1,0.3,0,0.6,0.1,0.9C53.1,54.6,53.1,54.7,52.9,54.9z"/>
	<path class="st19" d="M49.8,34c0-0.3,0-0.6,0-0.9c0.4-0.4,0.9-0.9,1.3-1.3c0,0,0,0,0,0c0.8,0.4,1,1.1,1.2,1.9
		c0,0.2,0.1,0.5,0.1,0.7c0,0.4-0.1,0.8,0.1,1.1c2.4,2.9,0.7,5.9,0.4,8.9c-0.1,0.4-0.3,0.9-0.9,0.8c-1.1-1.8-1.1-3.7-0.3-5.6
		c0.8-1.9-0.9-2.7-1.9-3.7C50.1,35.1,50.3,34.5,49.8,34z"/>
	<path class="st20" d="M52.5,82.1c-0.5-0.7-1.1-1.4-1.5-2.1c-0.3-0.5-2.1-1,0-1.6c0.6-0.2,0.2-1.5,0.5-2.4c0.4-1.1,1.2-1.6,1.8-2.4
		c0.2-0.1,0.4-0.1,0.6-0.1c0.7,0.4,1.5,0.7,1.9,1.5c0.1,0.3,0.1,0.6,0.1,0.9c-0.1,0.4-0.4,0.8-0.8,0.9c-0.7,0-0.7-0.8-1.3-1
		c-0.1,1.9-0.3,3.8-0.2,5.7C53.3,81.9,53,82.2,52.5,82.1z"/>
	<path class="st9" d="M51.6,1c-0.5,0.5-1.1,0.9-0.9,1.8c0.2,0.3,0,0.6-0.1,0.9c-0.1,0.3-0.4,0.6-0.2,0.8c1.9,2.3-0.1,4.6,0.1,6.8
		c0,0.3-0.4,0.6-0.7,0.8c0,0,0,0,0,0c-0.6-1.1-1.7-0.9-2.7-1c0.1-0.6,1.7-0.2,0.8-1.3c-0.1-0.2-0.1-0.7,0-0.8
		c1.9-0.9,1.3-2.1,0.8-3.6C48.1,3.8,50.2,1,51.6,1z"/>
	<path class="st21" d="M53.8,73.6l-0.2,0c0,0-0.2,0-0.2,0c0,0,0,0,0,0c-0.4-0.4-0.4-1-0.2-1.5c1.3-0.7,0.2-1.7,0.2-2.5
		c0.7-1.2-0.1-2.4,0-3.5c0.2-0.4,0.7-0.2,0.9-0.5c0.2-0.1,0.3-0.3,0.5-0.4c0.4,0.2,0.1,1.3,1.1,0.9c0.9,0.7,0.2,1.8,0.7,2.7
		c0,0.3-0.1,0.6-0.2,0.9c-0.1,0.3-1,0.2-0.3,0.8c0.4,0.3,0.6,0.9,0.7,1.5c0,0.2-0.1,0.4-0.3,0.5c-0.2,0.5-0.9-0.7-1,0.4
		C55.3,73.5,54.5,73.7,53.8,73.6z"/>
	<path class="st22" d="M82.3,94.1c-1.6,1.6-3.7,2.5-5.7,3.5c-1.1,0.5-1.9-0.1-2.5-0.9c-0.7-0.9-0.1-1.1,0.7-1.1
		c0.9-0.3,1.8,0.1,2.7-0.3c0.6-0.3,1.2-0.6,1.1-1.5c0.2-0.9,1-1,1.7-0.9c1.3,0.2,0.3-0.8,0.6-1.1c0.3-0.4,0.7-0.5,1.2-0.5
		C83.9,92.2,82.8,93.2,82.3,94.1z"/>
	<path class="st23" d="M82.3,94.1c-0.3-0.7,1.3-1.9-0.5-2.3c0-0.9-0.8-2,0.5-2.7c1.6,0.7,2.7-0.3,4-1.1c0.6-0.3,0.9-1.2,1.8-0.7
		c0.6,1.3-0.5,1.8-1.3,2.4c-1,0.8-1.9,1.6-2.3,2.8C83.9,93.3,83.1,93.8,82.3,94.1z"/>
	<path class="st24" d="M52.9,93.2c-1-0.6-0.6-1.4-0.4-2.3c0.1-1-0.7-2.2,0.5-3c0.7-0.5,1.4-0.6,2.2-0.3c1.1,0.7,1.6,1.6,0.8,2.9
		C54.9,91.3,54.5,92.8,52.9,93.2z"/>
	<path class="st25" d="M52.9,93.2c1.4-0.4,1-2.6,2.7-2.7c1,0,1,0,1.3,1.8c0.1,0.6,0.2,1.3,0.4,1.9c0.1,0.7,0.2,1.3-0.6,1.7
		c-0.4-0.1-0.6-0.4-0.8-0.7c-0.2-0.3-0.3-0.7-0.6-0.9c-0.3,0.8-0.2,2-1.6,2C53.7,95.2,54.3,93.9,52.9,93.2z"/>
	<path class="st26" d="M55.1,87.8c-0.7,0-1.5,0-2.1,0.4c-0.3,0-0.4-0.3-0.5-0.5c0-0.1,0-0.3,0-0.4c-0.3-0.4-0.3-0.9,0-1.3
		c0.1-0.4,0.3-0.9,0.4-1.3c0.1-0.4,1.2,0.3,0.8-0.7c0-0.5,0-1,0.4-1.5c0.9-0.4,1,0.6,1.5,0.9C57.2,85.1,55.4,86.4,55.1,87.8z"/>
	<path class="st27" d="M54.3,99.9c-0.1-0.1-0.2-0.3-0.2-0.4c0-0.9-0.3-2.3-0.7-2.8c0.5-0.1,1.1,0,1.6-0.1c0.5-0.1,0.9-0.2,1.4-0.1
		c0.4,0.1,0.7,0.3,1,0.6c0.2,0.3,0.2,0.5,0.2,0.8c-0.1,0.7,0.1,1.5-0.6,2.1c-0.6,0.3,0.4,1.3-0.6,1.4
		C55.4,101.4,54.8,100.6,54.3,99.9z"/>
	<path class="st28" d="M56.5,101.2c1.2-0.1-1.8-1.6,0.4-1.3c0.7-0.2,0.7-1.2,1.4-1.5c0.3-0.1,0.6-0.1,0.8,0.1
		c0.3,0.8-0.1,1.4-0.4,2.1c-0.3,0.8-0.1,1.4,0.6,1.9c0.1,0.2,0.2,0.3,0.3,0.5c-2.9,0.9-3.7,0.6-4.1-1.4
		C55.8,101.4,56.2,101.5,56.5,101.2z"/>
	<path class="st29" d="M84.5,92.6c-0.3-0.9-0.3-1.5,0.6-2.2c1.1-0.8,2.7-1.3,2.9-3c0.2,0.2,1.4-1.4,0.8,0.4
		c-0.2,0.5,0.3,0.3,0.5,0.4C88,90,86.4,91.4,84.5,92.6z"/>
	<path class="st30" d="M64.1,102.1c-0.7,0.7-0.9-0.2-1.3-0.5c-0.6-0.3-1.1-0.6-1.1-1.4c0.1-0.4,0.2-0.8,0.4-1.2
		c1.1-0.2,2.2-0.2,3.2-0.4c0.5,0.3,0.7,0.8,0.9,1.3c0.1,0.3,0,0.6-0.1,0.9c-0.1,0.2-0.2,0.3-0.4,0.4
		C65.2,101.7,64.5,101.5,64.1,102.1z"/>
	<path class="st31" d="M75.2,95.8c-0.2,0.3-1.7-0.4-0.6,0.7c0.5,0.5,1.2,1.1,2.1,1.1c-0.7,0.8-1.8,1-2.7,1.3
		c-1.5-0.6-1.1-1.6-0.8-2.8c0.4-1.6,1.4-0.6,2.1-0.8c0.1,0.1,0.2,0.2,0.1,0.3C75.2,95.8,75.2,95.8,75.2,95.8z"/>
	<path class="st32" d="M59.6,103c-0.1-0.1-0.3-0.1-0.4-0.1c-0.2-1-1.9-2.1,0.3-3c0.4-0.1-0.1-1.3,0.4-1.8c0.2-0.1,0.4-0.2,0.6-0.1
		c0.7,0.6,0.9,1.4,1,2.2c0,0.8-0.2,1.7,0.4,2.4C61.2,103.2,60.4,102.9,59.6,103z"/>
	<path class="st33" d="M55.1,97.2c-0.6,0.1-1.2-0.1-1.7-0.5c0.1-0.1,0.3-0.3,0.4-0.4c0.3-0.4,0.6-0.8,0.9-1.2c0.4-0.5-1-1.4,0.3-1.5
		c0.9-0.1,1.2,0.9,1.4,1.6c0.1,0.2,0,0.4,0,0.7c-0.1,0.1-0.1,0.1-0.2,0.2C55.7,96.2,55.4,96.7,55.1,97.2z"/>
	<path class="st34" d="M103.7,59.1c0-1.8-0.1-3.7-0.1-5.5c0-2.1,0.1-4.3,0.1-6.4C104.3,51.1,104.4,55.1,103.7,59.1z"/>
	<path class="st35" d="M54.3,84.3c0.2,2.1-0.8,0.5-1.3,0.4c-0.1-0.9-0.3-1.8-0.4-2.6c0.3-0.2,0.5-0.4,0.8-0.5c0.1,0,0.2-0.1,0.3-0.1
		c0.2,0.1,0.3,0.2,0.4,0.4C54,82.6,53.7,83.5,54.3,84.3z"/>
	<path class="st36" d="M52.5,87.8c0.2,0.2,0.3,0.3,0.5,0.5c-0.3,0.5-0.7,0.9-0.1,1.5c0.5,0.6,0.1,0.9-0.4,1.1
		C51,89.9,50.5,88.9,52.5,87.8z"/>
	<path class="st37" d="M61.9,102.6c-2.5-0.2-0.7-1.5-0.6-2.4c0.2-0.1,0.3-0.1,0.5,0.1c0.3,0.4,0.6,0.9,0.9,1.3
		C62.4,101.9,62.5,102.5,61.9,102.6z"/>
	<path class="st38" d="M53.3,69.6c1.9,0.4-0.1,2,0.8,2.7c-0.5,0.2-0.5-0.4-0.8-0.4c-0.3,0-0.3-0.3-0.5-0.4
		C52.6,70.7,52.9,70.1,53.3,69.6z"/>
	<path class="st24" d="M52.5,86c0,0.4,0,0.9,0,1.3c-0.2-0.3-0.5-0.5-0.8-0.8c-0.5-0.4-1.2-0.7-0.9-1.5c0.1-0.2,0.4-0.3,0.7-0.4
		C52.7,84.6,51.8,85.9,52.5,86z"/>
	<path class="st39" d="M56.5,101.2c0.1,0.9-0.4,0.6-0.9,0.5c-1-0.2-1.4-0.8-1.3-1.8C55,100.3,55.7,100.8,56.5,101.2z"/>
	<path class="st30" d="M67.6,101.1c0.3,0,0.6,0.1,0.9,0.1c-1.3,0.5-2.6,0.9-4.1,0.8c-0.1-1.1,1.1-0.3,1.4-0.9l0,0
		c0.2-0.3,0.4-0.7,0.9-0.7C67.2,100.5,67.4,100.9,67.6,101.1z"/>
	<path class="st40" d="M53.3,1.4c0-0.1,0-0.2,0-0.4c1.8,0.1,3.6-0.4,5.3,0.4c-0.9,0-1.8,0-2.6,0.1C55.2,2.2,54.2,2.2,53.3,1.4z"/>
	<path class="st41" d="M54.3,65.5c-0.2,0.4-0.5,0.5-0.9,0.5c-0.6-0.5-0.4-1.2-0.4-1.8C55.1,63,53.1,65.8,54.3,65.5z"/>
	<path class="st20" d="M52.9,71.4c0.2,0.1,0.3,0.3,0.5,0.4c0,0.6,0,1.2,0,1.8C51.6,73.2,53.1,72.1,52.9,71.4z"/>
	<path class="st34" d="M103.7,46.4l-0.2,0c0,0-0.2,0-0.2,0c0-1.2,0-2.4,0-3.6C103.7,44,103.7,45.2,103.7,46.4z"/>
	<path class="st8" d="M84.7,12.1c-1.1-0.1-1.9-0.6-2.4-1.7C83.2,10.8,84,11.3,84.7,12.1z"/>
	<path class="st7" d="M64.1,2.3c-0.9,0-1.9,0.4-2.7-0.4C62.3,1.8,63.3,1.8,64.1,2.3z"/>
	<path class="st42" d="M93.8,82.4c0.4-0.5,0.5-1.3,1.3-1.3c-0.1,0.8-0.6,1.4-1.2,1.8C93.8,82.8,93.8,82.6,93.8,82.4z"/>
	<path class="st4" d="M65.8,101.2c-0.5,0.3-0.9,0.6-1.4,0.9c-0.1,0-0.3,0-0.4,0.1C64.2,100.9,65.1,101.3,65.8,101.2z"/>
	<path class="st43" d="M54.4,103.1c-0.2,0.1-0.4,0-0.4-0.3c0-0.3,0.2-0.5,0.6-0.5c0.1,0,0.3,0.1,0.3,0.2
		C55,103,54.6,102.9,54.4,103.1z"/>
	<path class="st31" d="M82.3,89.2C82,90,82.6,91,81.8,91.8c-0.4,0-0.7,0.1-0.9,0.4c-1.5,0.4-2.5,1.9-4,2.2c-0.1-1.8,1.6-3.5,0.1-5.3
		c-0.5-0.5,0.4-0.6,0.6-0.9c0.3-0.4,1.1-0.5,0.6-1.3c2.2,0.2,4-0.8,6-1.4c1.4-0.4,1.6-1.7,1.8-3.1c1.2,2.7,0.6,3.9-1.7,4.7
		C83.5,87.5,82.6,88.1,82.3,89.2z"/>
	<path class="st44" d="M79.6,82.5c-0.1-0.3-0.2-0.6-0.2-0.8c-0.1-0.8,1.2-1.5,0.6-2c-0.7-0.7-1.4,0.6-1.9,0.6
		c-1.1,0.1-0.5-0.8-0.3-1.3c0.1-0.1,0.1-0.2,0.2-0.3c0.8-0.6,1.8-0.7,2.6-1.4c0.5-0.2,1-0.2,1.6,0c0.9,0.7,1.8,1.5,2.3,2.6
		c-0.1,0.8,0.3,2.3-1.5,1.1c-0.3-0.2-0.9,0.6-1.2,1.1l0,0c-0.8,0.2-1.7,0.3-1.8,1.3C79.3,83.4,79.3,83,79.6,82.5z"/>
	<path class="st45" d="M84.5,79.8c-0.7-0.7-1.5-1.5-2.2-2.2c-0.1-0.1-0.2-0.3-0.2-0.4c0.1-0.4,0.4-0.7,0.4-1.2c0-0.5-0.1-1,0.4-1.3
		c0.4-0.2,0.8-0.1,1.2,0.1c1,0.9,1.7,2.2,2.9,3c0.4,0.3,0.6,0.7,0.2,1.1c-0.2,0.1-0.3,0.3-0.5,0.4c-0.5-0.1-1.2,1-1.7-0.2
		C84.9,78.9,84.6,79.5,84.5,79.8z"/>
	<path class="st46" d="M79.6,82.5c0,0.4,0.1,0.7,0.4,0.9c0.9,1.3-0.1,1.8-1,2.2c-0.5,0.2-1.2,0.2-1.2,1c-0.6-0.5-1.8-0.2-2.1-1.6
		c1.4,0.6,2.5,0.6,2.6-1.2C78.4,83.2,79.2,82.9,79.6,82.5z"/>
	<path class="st44" d="M81.8,82c0.6,0.1,1,0.3,0.8,0.9c0,0.1-0.3,0.3-0.5,0.2C81.4,83,81.7,82.5,81.8,82C81.9,82,81.8,82,81.8,82z"
		/>
	<path class="st47" d="M67.6,101.1c-0.3-0.1-0.6-0.3-0.9-0.4c-0.1-0.5-0.6-0.2-0.9-0.4c-0.2-0.4-0.3-0.9-0.5-1.3
		c-0.8-1.4-0.8-1.5,0.6-1.6c0.6,0,0.8-0.3,0.8-0.7c0.1-0.6,0-1.2,0.7-1.5c0.7-0.3,1.5,0.5,2.2-0.2c1-1.4,1.3-3.2,1.6-4.8
		c0.2-1,0.7-1,1.4-1c2.5,0.9,2.5,0.9,1,3.2c-0.3,0.5-0.4,1.1-0.6,1.6c-0.3,1.4-1.3,2.1-3,2.4c0.2,0.7,0.9,0,1.1,0.5
		C69.5,97.9,68.8,99.7,67.6,101.1z"/>
	<path class="st48" d="M73,80.7c-0.1,0.4-0.3,0.9,0.4,0.9c1.3,0.1,2.6,0,3.9-0.6c-0.7,1.4-0.2,3.3-2.5,3.7c-1.5,0.3,0.1,1.8-0.7,2.5
		c0.7,0.3,1.4,0.7,0.6,1.6c-0.8,0.8-1.5-0.1-2.3-0.1c-0.3-0.3-0.4-0.6-0.3-1c0.4-1.3,0.6-2.6-1.2-3.2c-0.4-0.1-0.4-0.8-0.4-1.2
		c0.4-1.9-1.8-2.1-2.3-3.4c0-0.3,0.1-0.6,0.4-0.8c0.8-0.4,1.5-0.6,2.1,0.3c0.4,0.5,0.9,0.7,1.5,0.8c0.2,0,0.4,0.1,0.5,0.2
		C72.8,80.6,72.9,80.6,73,80.7z"/>
	<path class="st49" d="M71.2,83.4c0,0.3,0,0.8,0.1,0.8c1.9,0.8,2.2,1.7,1.3,3.8c-0.1,0.2,0,0.4,0,0.7c0,0.1,0,0.3,0,0.4
		c-1.2,1.1-1.3,2.8-1.5,4.1c-0.2,1-0.7,1.4-1.1,2.1c-0.5,0-0.9-0.2-1-0.7c-0.2-0.9-0.8-1.9,0.5-2.6c-0.7-0.6-2-0.7-1.9-2
		c0.9-0.6,0.9-1.7,1.4-2.4c1.4-0.4,2.2-1.1,1.6-2.7c-0.2-0.6-0.2-1.1,0.2-1.7C70.8,83.2,71,83.2,71.2,83.4z"/>
	<path class="st50" d="M77.8,78.9c-1.5,0.8-3.1,1.7-4.9,1.8c0,0,0,0,0,0c1-1.2,0.5-2.9,1.3-4.2c0.7-0.6,1.4-0.8,2.2-0.4
		C77.1,77,78.4,77.5,77.8,78.9L77.8,78.9z"/>
	<path class="st23" d="M77,94.5c1.2-1,2.1-2.4,4-2.2c0.9,0.8,0.3,1.1-0.5,1.3c-0.6,0.1-1.4-0.5-1.8,0.5c0.3,0.9-0.7,1.1-0.9,1.8
		c-0.9,0.7-1.8,0.2-2.7,0c0-0.1,0-0.3,0-0.4c0,0,0,0,0,0c0.2-0.6,0.9-0.6,1.3-0.9C76.7,94.5,76.8,94.5,77,94.5z"/>
	<path class="st31" d="M76.5,94.5c-0.4,0.3-0.9,0.6-1.3,0.9c-0.1-0.5-0.2-0.9-0.3-1.4C75.6,93.6,75.9,94.7,76.5,94.5z"/>
	<path class="st51" d="M98.3,33.1c1,1.3,0.9,3,1.6,4.4c-0.9,0.4-0.6-0.8-1.2-0.6c-0.4,0.1-0.4,0.5-0.3,0.7c0.3,0.6,0.1,1.4,0.9,1.6
		c2.2,0.8,2.6,1.6,1.8,3.8c-0.2,0.6-0.3,1.1,0.3,1.6c0.2,0.7-0.4,0.9-0.7,1.2c-1.2,1.3-2.1,0.6-3.1-0.3c-1-0.5-2.1-0.8-2.9-1.6
		c-0.3-0.3-0.5-0.6-0.7-1c-1-1-1.7-2.3-3.1-3c-0.3-0.2-0.4-0.5-0.6-0.8c0-1.5-1.9-2.5-1.2-4.2c0.6-0.6,0.9,0,1.2,0.3
		c0.5,0.6,1,0.9,1.7,0.4c1.3,0,1.8,1.4,2.8,1.9c0.9,0.4,1.6,0.3,2.2-0.6C97.6,35.7,97.3,34.2,98.3,33.1z"/>
	<path class="st52" d="M86.3,19.3c0.6,1.3,2.3,2.1,1.9,3.9c-0.1,0.3,0.3,0.8,0.7,0.6c0.7-0.2,1.2-0.9,0.9-1.6
		C89.2,20.9,89.7,19,88,18c1.3-0.4,2.1-0.2,2.3,1c0.1,0.6,0.4,0.9,0.9,1.2c1.7,1.6,0.4,3.3,0,4.9c-0.1,0-0.2,0.1-0.3,0.1
		c-0.8-0.4-1.2,0-1.6,0.6c-0.9,0.5-1.7-0.2-2.6-0.2c-0.3,0-0.6,0-0.9-0.1c-0.3-0.1-0.6-0.2-0.8-0.4c-0.2-0.1-0.3-0.3-0.4-0.4
		c-0.5-0.6-0.8-1.4-0.9-2.2c0-0.5,0.2-1.4,0.5-1.3C86,21.7,85.3,19.5,86.3,19.3z"/>
	<path class="st34" d="M100.5,45.5c0.3-0.3,0.6-0.6,0.9-0.9c0.8,0.3,1.5,0.7,1.3,1.8c0,0.6,0.5,1.2,0.2,1.9c-1,2.2-0.6,4.7-1.2,7.1
		c-0.6-1.7-2-1.9-3.4-1.9c-0.1-0.2-0.1-0.4-0.1-0.6c1-1,0.6-2.3,0.9-3.6c0.6-0.8,1.8-1.4,1.1-2.7C100.1,46.3,100.2,45.9,100.5,45.5z
		"/>
	<path class="st53" d="M98.3,33.1c-0.2,1.5-0.2,3-0.9,4.5c-0.7-0.7-0.5-1.6-0.5-2.5c-0.1-1.5,0.2-3.4-1.4-4.1
		c-1.5-0.7-2.9,0.6-4.1,1.4c-0.1,0-0.2,0-0.3,0.1c-0.1,0-0.2-0.1-0.3-0.1c-0.1-0.1-0.2-0.2-0.2-0.3c-1.2-3.2-0.4-4.7,3-5.1
		c1,0.3,1.7,1.1,2.7,1.3C96.2,30.1,98.1,31.2,98.3,33.1z"/>
	<path class="st52" d="M96.1,28.2c-1.1,0.7-1.7,0-2.2-0.9c-0.8-0.8-2.8-0.2-2.7-2.2c0,0,0,0,0,0C93.9,24.5,95.2,25.9,96.1,28.2z"/>
	<path class="st54" d="M93.4,76.7c-1.4,1-2.9,1.7-4.4,2.4c-0.5,0.2-0.9,0.3-1.3-0.2c0-0.1,0.1-0.2,0.1-0.3c0.4-0.8,0.3-1.6,0.4-2.5
		c0-0.2,0.1-0.4,0.1-0.5c0.2-0.6,0.5-1.2,0.5-1.8c0-0.5-0.2-0.9-0.2-1.4c0.3-1.7,1.9-1.7,3-2.4c1.2,1.6,2.5,0.8,3.8,0.2
		c0.4-0.2,0.3-1.4,1.1-0.5c0.5,0.6,0.7,1.4-0.2,1.9c-0.8,0.5-1.3,1.2-1.6,2c-0.2,0.5-1.5,0.9,0.1,1.8C95.8,75.8,94.2,76.4,93.4,76.7
		z"/>
	<path class="st55" d="M100.5,45.5c0,0.4,0,0.9,0,1.3c-1,0.6-0.7,1.9-1.3,2.7c0.4,1.4,1,2.8-0.9,3.6c-2.1,2.1-0.9,4.6-0.9,7
		c0,0.3-0.1,0.6-0.2,0.9c-0.7,0.6-0.4,1.4-0.5,2.2c-0.1,0.2-0.2,0.3-0.4,0.4c-1-0.3-1.4,0.3-1.6,1.1c0,0.1,0,0.3,0,0.4
		c-0.2,0.2-0.3,0.5-0.4,0.8c-1,1.2-1.8,1-2.4-0.4c-0.1-0.3-0.3-0.7-0.4-1c-0.9-2.3-0.3-3,2.3-3.3c0.1-0.2,0.2-0.3,0.2-0.5
		c0.1-0.6,1.2-1.5-0.6-1.4c-0.4,0-0.7-0.4-0.6-1c1.9-2,3-4.3,3.6-7c0.5-2,0.6-4.2,1.3-6.2C98.7,45.5,99.4,46.7,100.5,45.5z"/>
	<path class="st56" d="M97,61.1c0-0.3,0-0.6,0-0.9c0.5-0.7,0.5-1.7,1.3-2.2c0.9-0.5,2.1-1.5,1.4,0.8c-0.1,0.2,0.2,0.7,0.2,0.7
		c2.4-0.3,1.1,1.6,1.5,2.5c-0.4,1.5-1.3,2.8-0.9,4.4c-0.6,0.5-1.2,0-2,0.1c0.4,0.7,1.3,1.3,0.6,2.1c-0.4,0.5-0.8,0.1-1.1-0.1
		c-1.1-0.8-1.5-1.7-0.6-2.9c0.9-1.3,1.3-2.8,1.2-4.5c-0.9,0.7-0.4,2-1.2,2.7c-0.3,0-0.6,0-0.9,0c-0.1-0.1-0.2-0.2-0.1-0.3
		c0-0.1,0.1-0.2,0.1-0.2v0C97.1,62.7,96.4,61.8,97,61.1z"/>
	<path class="st57" d="M91.6,70c0,0.5,0.2,1-0.8,0.8c-0.5-0.1-1.7,0.7-1.8,1.8c-0.2,0.2-0.4,0.2-0.6,0.1c-0.5-0.3-0.7-0.9-0.8-1.4
		c0-0.9-0.4-1.7-0.3-2.5c1.2-1,2.7-1.3,3.8-2.4c0.4-0.4,1-0.2,1.1,0.5c0,0.7-0.2,1.3-0.6,1.8C91.6,69.1,91.6,69.6,91.6,70z"/>
	<path class="st58" d="M91.6,68.7c0.1-0.6-0.2-1.3,0.4-1.8c1.3,0.5,1.6-0.7,2.2-1.3c0.1-0.2,0.3-0.3,0.4-0.5c0.2,1,0.7,2,0.5,2.9
		c-0.1,0.7-0.9,1.5-1.6,1.8C92.8,70.3,92.6,68.6,91.6,68.7z"/>
	<path class="st59" d="M97.4,63.8c-0.2-1.5,0.4-2.8,1.2-4.1c1,1.8,0.8,5.2-0.5,6.4c-0.5,0.4-0.5-0.1-0.6-0.4
		C97.4,65,97.4,64.4,97.4,63.8z"/>
	<path class="st59" d="M96.5,63.3c0,0.2,0,0.3,0,0.5c-0.5,0.5-1.4,0.1-1.8,0.9C94.7,63.3,94.6,62,96.5,63.3z"/>
	<path class="st60" d="M61.4,17.9c0.1,0,0.3,0,0.4,0c0.3-0.2,0.6-0.3,0.9-0.2c0.4,0.2,1.1,0.6,0.9,0.8c-1.4,1.4,0.2,2.2,0.4,3.3
		c0.5,1.7,1.3,3.2,1.3,5.2c0,1.5,1,3.4,2.1,4.9c0.4,0.8-0.1,1-0.8,1.1c-0.7,0.1-1.4-0.3-2.1-0.3c0.3,0.3,0.5,0.5,0.5,0.9
		c-0.4,1-1.4,0.9-2.2,1.1c-0.2,0-0.4-0.1-0.6-0.2c-1-1.7-0.7-3.3,0.3-4.8c0.9-1.3,0.8-2.2-0.5-2.9c-1.1-0.6-1.9-1.4-2.2-2.7
		c-0.1-0.7-0.6-1-1.2-1.1c-0.8-0.1-1.3-0.7-1.5-1.4c0-0.2-0.1-0.4,0-0.6c0.1-0.8,0.5-1.5,0.3-2.3c0-0.3,0-0.6,0.1-0.9
		c0.3-0.5,0.5-1,1.2-0.8c0.7,0.5,0.6,1.3,0.7,2.2C60.1,18.7,60.5,17.9,61.4,17.9z"/>
	<path class="st61" d="M61.4,17.9c-0.4,0.9-1.9,1.1-1.3,2.7c-2-0.9-0.8-2.5-1.4-3.5c-0.5-0.5-0.4-1-0.3-1.6c0.5-1.5,0.8-3.1,1.8-4.4
		c0.9-0.6,0-1-0.2-1.5C58,6.9,56,4.3,53.4,2.3c-0.5-0.3-0.5-0.6,0-0.9c0.9,0,1.8,0.1,2.7,0.1c1.1,0.6,1.2,1.7,1,2.8
		c1,0.4,0.6-0.7,1.2-0.9c0.7,1.5,1.5,2.8,3.3,3.3c1.2,0.4,1.5,4.5,0.5,5.5c-0.9,0.8-1.2,1.2,0,2.2c0.9,0.7,2.1,2-0.4,2.4
		C61,16.9,61.2,17.5,61.4,17.9z"/>
	<path class="st62" d="M66.3,18.4c0.1-0.1,0.3-0.3,0.4-0.4c0.5-0.5,0.9-0.1,1.3,0.2c0.5,0.5,0.9,0.2,1.3-0.1
		c0.3-0.2,0.5-0.4,0.9-0.5c2.6-0.2,2.6-0.1,3.7,3.4c1.2,1.4,3.2,2.1,3.4,4.3c-0.9,1,0.6,2.6-0.8,3.5c-0.2,0-0.4,0-0.6-0.2
		c-0.9-2.1-1.1-4.6-3.4-5.9c0,1.8-1.4,1-2.4,1.1c-0.2,0-0.4,0-0.6,0c-0.9-0.4-1.1-1.2-1-2c0.1-1.2-0.5-1.6-1.5-1.7
		c-0.2-0.1-0.4-0.2-0.6-0.3C66.1,19.4,65.8,18.9,66.3,18.4z"/>
	<path class="st63" d="M67.2,7.2c1.5,0.1,2.1,1.1,2.7,2.2c0.2,0.1,0.3,0.3,0.3,0.5c-0.1,1.7,0.7,3.4-0.1,5.1
		c-0.1,0.2-0.3,0.3-0.5,0.3C68,14.9,68,13.2,67,12.2c-0.8,0.8-0.7,2.2-2.1,2.6c-0.2-1.5-1.4-3.1,1.2-4C67.5,10.3,67.7,8.7,67.2,7.2z
		"/>
	<path class="st64" d="M64.9,14.8c0.1-1.1,1.6-1.5,1.1-2.9c-0.1-0.3,0.3-0.5,0.6-0.4c0.5,0.2,1.2,0.1,1.3,0.9
		c0.2,1.2,0.8,2.1,1.8,2.9c1.1,0.7,1.9,1.4,0.2,2.4c-1.4-0.2-1.6-1.9-3-2.3c0.5,1.4,1.8,2,2.4,3c-0.3,1.1-0.9,1.2-1.6,0.4
		c-0.3-0.3-0.4-0.9-1-0.9C65.9,17,64.8,16.2,64.9,14.8z"/>
	<path class="st65" d="M66.3,18.4c0.1,0.4,0.3,0.9,0.4,1.3c-1.2,0.9-1.7-0.3-2.4-0.9c-0.2-0.3-0.4-0.5-0.3-0.9
		c0.2-0.2,0.4-0.2,0.6,0C65.2,17.9,65.7,18.1,66.3,18.4z"/>
	<path class="st61" d="M64.5,17.9c-0.2,0-0.3,0-0.5,0c-0.4,0.5-0.9,0-1.3,0c-0.3,0-0.6,0-0.9,0C62.7,16.1,63.6,17.4,64.5,17.9z"/>
	<path class="st66" d="M69.8,7.7c-0.9-0.7-1.8-1.5-2.7-2.2c2.7,0.1,4.4,2.2,6.8,3c0.6,0.2,1.3,1.4,1.2-0.5c0-0.6,1.3,0,1.3,0.2
		c0.2,2.6,2.8,2.1,4.1,3.3c0.2,0.2,0.6,0.2,0.8,0.2c0,0,0,0,0,0c0.4,0.4,1.1,0.5,1.1,1.3c0,0.1,0,0.2,0,0.3
		c-0.1,0.2-0.2,0.3-0.3,0.4c-0.7,0.3-0.3,0.6,0.1,0.8c0.3,0.3,0.6,0.5,0.7,1c0.2,2.3-1.4,3-3.2,3.5c-0.8,0.1-1.5-0.3-2.2-0.7
		c-0.7-0.5-1-1.1-1.1-1.9c0-2.8-1.7-4-4.1-4.6C71.2,10.6,71.1,8.8,69.8,7.7z"/>
	<path class="st67" d="M57.4,21c0.4,0.8,0.6,1.8,2,1.4c0.5-0.2,1,0.4,1,0.9c0,1.6,0.9,2.4,2.3,3.1c1.2,0.6,2,1.8,0.5,3.2
		c-1.3,1.3-0.9,3-1,4.7c-0.4,0.4-0.8,0.9-0.5,1.5c0.1,0.3,0.3,0.5,0.4,0.8c0.1,0.4,0.2,0.9,0.7,1.1c0.2,0.1,0.3,0.2,0.5,0.3
		c0.1,1.2-0.4,1.7-1.6,1.7c-0.8-0.6-1.4-1.4-1.7-2.3c-0.9-2.6-2.8-3.6-5.4-4c-1.4-0.2-0.6-1.5-0.2-2.3c-0.1-0.1,0.3-0.2,0-0.3
		c-0.3-0.1,0.1-0.1,0,0.2c-0.2,0.5-0.6,0.5-1.1,0.3c-0.1-0.2-0.1-0.4,0-0.5c0.5-0.9,0.9-1.8,1.4-2.7c0.4-0.5,1-0.9,1.7-1
		c0.4,0.3,0.6,0.7,1,1c1.3,0,1.3-1.1,1.7-1.9c-0.4,0.5-0.3,1.4-1.1,1.7c-0.6,0.1-0.8-0.9-1.5-0.7c-0.3-0.8-1-1.3-1.6-1.8
		c-0.2-0.3-0.3-0.7-0.4-1C53.9,21.9,54.7,20.9,57.4,21z"/>
	<path class="st68" d="M55.2,25.5c1,0.2,1.6,0.6,1.3,1.8l0,0c-0.5,0.5-0.9,1.1-1.8,0.9c-0.2,0-0.4,0.1-0.6,0.1
		c-0.9,0.4-1.2,2.6-2.5,1.2c-0.9-1-2.2-2.2-1.3-4.3c0.7-1.6,1.5-3.5,0.6-5.5c-0.7-1.6,0.6-3.2,0.1-4.8c-0.1-0.5,1.3,0.3,1.6-0.6
		c0.1,0,0.3,0,0.4,0c0.2,0.2,0.4,0.7,0.3,0.8c-1.4,1.5,0,2.9-0.1,4.4c1.2,0.2,2,0.8,1.2,2C53.2,23.2,54,24.3,55.2,25.5z"/>
	<path class="st69" d="M49.8,12.1c1-1.7-0.6-3.9,1.1-5.6c0.4-0.4-0.4-0.9-0.8-1.2c-1-0.8-0.7-1.5,0.1-2.1C52.7,4.9,53,6,52,8.7
		c-0.2,0.6-0.3,1.1,0.1,1.6c0.6,0.9-0.6,1.4-0.5,2.2C51,12.4,50.4,12.3,49.8,12.1z"/>
	<path class="st13" d="M53.3,30.8c0,0.2,0,0.3,0,0.5c0,1-0.4,1.8-1.3,2.2c-0.3-0.6-0.6-1.2-0.9-1.8C51.8,31.3,52.4,30.7,53.3,30.8z"
		/>
	<path class="st70" d="M86.3,19.3c-0.1,0.4-0.4,0.7-0.3,1.2c0.2,0.5,0.9,1.1,0.2,1.6c-0.9,0.7-1.1-0.7-1.9-0.8
		c-0.8,1.3,0.1,2.3,0.6,3.4c-2,0.6-3-0.4-3.5-2.2c0-0.8,1.2-1.7-0.2-2.6c-0.3-0.2-0.2-0.7,0.1-1c0.5-0.6,1.2-0.6,1.8-0.2
		c0.7,0.4,1.2,0.6,1.2-0.5c0.1-0.1,0.1-0.2,0.2-0.2C86.2,17,85.8,18.7,86.3,19.3z"/>
	<path class="st70" d="M82.7,15.3c-0.3-0.2-0.6-0.3-0.9-0.5c-0.3-0.6,0.1-1,0.4-1.3l0,0c0.9-0.3,2,1.1,2.7-0.4
		c2.1,1.8-0.1,3.3-0.4,4.9c0,0,0,0,0,0c-0.9,0.2-1.4-0.1-1.4-1C83.1,16.3,83,15.8,82.7,15.3z"/>
	<path class="st71" d="M85,13c-0.4,3.1-1.7,0.8-2.7,0.4c0-0.1,0-0.3,0-0.4c0.4-0.4,0.9-0.3,1.3,0C84.1,13.5,84.5,12.9,85,13z"/>
	<path class="st8" d="M83.6,13c-0.4,0-0.9,0-1.3,0c-0.3-0.4-0.6-0.9-0.9-1.3C82.5,11.6,83.2,12.1,83.6,13z"/>
	<path class="st59" d="M98.3,58c-0.1,0.9-0.4,1.7-1.3,2.2c0-2.5-1.3-5.1,1.3-7.1c0,0.1,0,0.3,0,0.4C97.5,55,96.8,56.5,98.3,58z"/>
	<path class="st13" d="M52,45.1c0.4-2.1,0.9-4.1,1.3-6.2c0.2-0.9-0.2-1.7-1-2.4c-0.8-0.7-1-1.6-0.4-2.6c3.1-0.3,3.1-0.3,4.1,2.6
		c0.2,0.5,0.6,0.8,0.9,1.2c0.5,0.6,0.8,1.3-0.1,1.9c-0.3,0.1-0.6,0.2-0.9,0.2c-1.8,0.5-1.9,0.9-1,3.3c-0.3,1.6,1.1,2.6,1.3,3.7
		c0.4,1.9,0.4,4.2-0.6,6.2c-0.4,0.8-1.1,1-1.6,0c0.1,0.6,0.7,1.3-0.3,1.7c-0.4,0.2-0.7,0-1-0.2c-1.6-0.6,0.2-1.6-0.3-2.5
		c-0.6-0.2-1.6,2.2-1.9-0.2c2.8-1.5,1.6-3.9,1.4-6C52.1,45.5,52.1,45.3,52,45.1z"/>
	<path class="st13" d="M49.8,34c0.2,0,0.4-0.1,0.6-0.1c0.2,0.8-0.1,1.4-0.6,1.9C49.8,35.1,49.8,34.5,49.8,34z"/>
	<path class="st72" d="M56,39.3c0.3,0,0.6,0,0.9,0c0.5,0.2,1.1,0.3,1.1,1c0.1,1.4,0.3,2.8-0.3,4.2c-0.2,0.5-0.3,1.1,0,1.5
		c1.3,1.6,0.5,3.1-0.2,4.5c-0.8,1.6,0.6,3.4-0.6,4.8c-0.1,0.2-0.2,0.4-0.4,0.5c-0.9-1.6-2.4-0.3-3.6-0.9c0-0.1,0-0.3,0.1-0.4
		c2.9-0.3-0.4-2,0.8-2.7c0.8,0,0.7,1.1,1.4,1.6c1.4-2,0.3-4.4,1.1-6.5c0.1-0.4-1.7-1.4-2.5-2.1c-0.1-1,2.4,0.4,1-1.5
		C54.2,41.6,55.1,40.4,56,39.3z"/>
	<path class="st73" d="M56.1,68.7c-0.4-0.9,0.1-1.9-0.5-2.7c-0.3-0.7-0.2-1.5-0.4-2.3c-0.2-0.3-0.5-0.4-0.9-0.4
		C54,62,54.9,61,55.1,59.8c0.5-0.9,0.4-2.5,2.2-1.8c0.1,0.1,0.2,0.1,0.3,0.2c0.3,0.3,0.4,0.7,0.5,1.1c0.6,1.2,1.3,2.9,0.3,3.6
		c-0.9,0.6-0.4,0.7-0.2,1.2c0.1,0.3,0.2,0.7,0.5,0.7c0.7-0.1,1.4-0.3,1.6,0.6c0.2,1,0.7,2.1,0.1,3c-0.8,1-0.9-0.2-1.3-0.6
		c-1.2,0.1-0.2,0.9-0.4,1.3C57.8,70.7,57.5,70.7,56.1,68.7z"/>
	<path class="st74" d="M57.8,64.2c-0.7-0.7-0.4-1.5-0.3-2.4c0.2,0.4,0.4,0.7,0.5,1.1c0.6-1.4,0.2-2.5-0.6-3.6
		c0.3-0.3,0.2-0.6,0.4-0.9c0.1-0.2,0.3-0.3,0.2-0.5c-0.1,0.2-0.3,0.2-0.5,0.1c0,0-0.1,0-0.1,0c0.3-0.9-0.4-1.5-0.8-2.2
		c0-0.2,0-0.3,0-0.5c0.6-0.4,1.3,0,1.9-0.3c2.1-0.9,2.1-0.9,2.1,1.6c-0.1,1.1,0.7,1.8,0.8,2.8c-0.1,1-0.4,1.9-0.4,3
		C60.8,64.4,58.9,63.7,57.8,64.2z"/>
	<path class="st75" d="M55.1,59.8c0.3,1.3-0.2,2.5-0.8,3.6c-1.4,0-0.3-1.3-0.9-1.8l0,0c0.8-0.1,0.9-0.5,0.7-1.2
		C53.7,58.9,54.5,59.6,55.1,59.8z"/>
	<path class="st76" d="M55.2,63.7c1,0.6,1,1.4,0.4,2.3c-1.1,0.5-0.8-0.4-0.9-0.9C54.7,64.6,54.6,64.1,55.2,63.7z"/>
	<path class="st75" d="M53.4,61.6c-0.4-0.1-0.9-0.2-0.8-0.8c0-0.1,0.3-0.4,0.4-0.3C53.5,60.7,53.3,61.2,53.4,61.6
		C53.4,61.6,53.4,61.6,53.4,61.6z"/>
	<path class="st40" d="M53.4,2.3c3.2,0.6,4,3.8,6.1,5.6c0.2,0.2,1.9,0.5,0.6,1.5c0.1,0.5,0.5,0.9,0.4,1.4c-0.6,1.5-1.2,2.9-1.8,4.4
		c-0.3,1-0.9,1.5-1.9,0.8c-1.2-0.5-1.8-1.2-0.9-2.4c1.5-2,0.3-4-0.1-5.9c-0.1-0.4-0.3-0.8-0.3-1.3c0-0.7-0.2-1.1-0.9-1.4
		C53.7,4.5,53,3.6,53.4,2.3z"/>
	<path class="st77" d="M55.6,6.3c0.3,1.1,2.2,1.8,1,3.4c-0.1,0.1,0.2,0.7,0.4,0.7c1.7,0.6,0.7,1.3,0.1,2c-0.9,1.1-1.3,2.1-0.1,3.3
		c0.5,0.7,1,1.3,0.9,2.2c0,0.3,0,0.6,0,0.9c-0.7,1.1-1.4,0.5-2.2,0.2c-0.1-0.2-0.2-0.4-0.2-0.6c1.1-1.1,0-1.5-0.6-2.1
		c-0.2-0.6-0.1-1,0.3-1.5c-0.7-1.9-2.2-3.7,0.3-5.5c0.4-0.3,0.4-1.3-0.1-1.8C54.8,6.9,55,6.6,55.6,6.3z"/>
	<path class="st78" d="M55.2,14.8c0,0.6,0,1.2,0,1.8c0.9,0.4,0.8,1.1,0.4,1.8c0,0.1,0,0.3,0,0.4c0.8,0.6,2.1,0.8,1.8,2.2
		c0,0,0,0,0,0c-3,0.4-2.8,2.3-2.2,4.5c-1.2-0.3-2.1-1-2.2-2.4c-0.1-1.2,1.8-1.6,1.1-3.1c-0.9-0.3-0.4,1.4-1.2,1
		c-0.6-0.3-0.1-0.9,0.1-1.3c1-0.8,0-1.7,0.3-2.6c0.2-0.7-0.3-1.6,0.2-2.3C54,14.8,54.6,14.8,55.2,14.8z"/>
	<path class="st79" d="M52,10.4c-0.6-0.1-1.8-0.2-1.1-0.9c2.2-2.4,1-4.3-0.7-6.2c0.2-0.1,0.3-0.3,0.5-0.4c0.1,0,0.3,0,0.4,0
		c0.2,0.1,0.4,0.2,0.5,0.4c0.6,1.2,1.5,2.1,2,3.5C54.4,8.8,53.6,9.6,52,10.4z"/>
	<path class="st80" d="M53.4,14.8c0.7,1.1-0.4,2.6,1.1,3.7c0.4,0.3-1,0.8-1.5,1.2c-0.7-1-0.5-2.4-1.3-3.4c-0.1-0.1-0.2-0.7,0.3-0.6
		c1.8,0.6,0.7-0.9,1-1.3C53.1,14.5,53.2,14.7,53.4,14.8z"/>
	<path class="st40" d="M51.6,3.2c-0.2-0.1-0.3-0.3-0.5-0.4C51.2,2.5,51.2,2,51.7,2c0.2,0,0.3,0.2,0.5,0.3C52,2.7,51.8,2.9,51.6,3.2z
		"/>
	<path class="st81" d="M88.5,72.7c0.1,0,0.3,0,0.4,0c0.1,0.4,0.3,0.9,0.4,1.3c-1.1,0.2-0.4,1.3-0.9,1.8v0c-0.8,0.9,0,2.2-0.9,3.1
		c0,0,0,0,0,0c-0.2,0-0.3,0-0.5,0c-0.9-1.4-2.8-2.1-3.1-4c0.1-0.1,0.2-0.1,0.2-0.2c0.8-0.3,1.5,0.6,2.4,0.4
		c-0.4-0.9-0.7-1.8-0.1-2.6C87.2,71.7,87.9,72.8,88.5,72.7z"/>
	<path class="st82" d="M69.8,7.7c2.1,0.5,1.8,2.6,2.7,4c0.1,0.1,0.2,0.2,0.1,0.3c0,0.1-0.1,0.2-0.1,0.2c-2.3,0.6-2.3,0.6-2.7-2.3
		c0-0.1,0-0.3,0-0.4C69.9,8.9,70.3,8.3,69.8,7.7z"/>
	<path class="st83" d="M57.8,40.2c-0.3-0.3-0.6-0.6-0.9-0.9c0.7-0.5,0.2-0.9-0.2-1.3c-0.7-0.7-2.1-1.1-1.1-2.6
		c-0.6-0.3-0.7-1.8-1.8-1.1c-1,0.7-1.3-0.3-1.9-0.4c0-0.1,0-0.3,0-0.4c0.4-0.7,0.9-1.5,1.3-2.2c0.6,0,0.9-0.3,0.9-0.9
		c0.4-0.1,0.5,0.1,0.5,0.4c0,0.8-0.8,1.5-0.3,2.3c0.9,0.1,0.5-1,0.8-1c3.2,1.8,5.6,4.2,6.6,7.7c-0.8,0.8-2,0.7-2.9,1.4
		c-0.6,0.2-0.9-0.1-1.1-0.6C57.8,40.4,57.8,40.3,57.8,40.2z"/>
	<path class="st35" d="M56.1,68.7c0.5,0,0.7,0.3,1,0.6c1.1,1.2,1.2,0.2,1.2-0.7c0.1,0,0.2-0.1,0.3-0.1c0.3,0,0.6,0.1,0.8,0.3
		c0.3,0.2,0.7,0.4,0.9,0.7c0.1,0.3,0.1,0.6-0.1,0.8c-0.7,0.3-0.9,1-1,1.6c-0.7,1.2,0.5,2.1,0.7,3.1c0,0.2,0.1,0.4,0,0.6
		c-0.1,0.3-0.3,0.5-0.6,0.6c-0.6,0-1.2-0.5-1.8-0.1c-0.7,0.6-0.9,1.1,0,1.7c0.4,0.2,0.9,0.2,1.3,0.2c0.8,0.2,1.5-1.5,2.2-0.2
		c0.6,1.1-0.3,1.7-1,2.3c-0.4,0.4-0.9,0.8-1.4,1c-0.3,0.2-0.7,0.3-1.1,0.3c-0.5-0.1-0.7,0.3-0.9,0.7c-0.2,0.1-0.4,0.1-0.5,0
		c-0.3-0.3-0.4-0.7-0.4-1.1c0.2-1,0.2-2-0.4-2.9c-0.4-0.5-0.6-1.2-0.1-1.8c0.2-0.3,0.4-0.5,0.5-0.8c0.1-1.1,1.6-1.8,1.1-3.1
		c-0.1-0.2-0.2-0.3-0.2-0.5c0-0.2,0-0.3,0-0.5c-0.3-0.7-0.6-1.4-0.5-2.2C56,69.3,56.1,69,56.1,68.7z"/>
	<path class="st84" d="M55.1,76.6c0.1,0.5,0.1,1.1,0.4,1.4c1.3,1.1,0.9,2.3,0.5,3.6c-0.7,0.7-1.5,0-2.2-0.1c-0.2,0-0.3,0-0.5,0
		c-1-2-0.1-4,0-6.1c0-0.9,0.8-0.6,1.2-0.2C54.9,75.6,54.6,76.3,55.1,76.6z"/>
	<path class="st85" d="M56.5,72.2c0.1,0,0.3,0,0.4,0c1,1.6-0.8,1.8-1.3,2.7c-0.6-0.5-1.7-0.2-1.8-1.3c0.4-0.3,1.2-0.5,1.2-0.8
		C55.1,71.1,56,72.3,56.5,72.2z"/>
	<path class="st86" d="M55.6,74.9c-0.3-1.3,1.9-1.3,1.3-2.7c1.1,0.5,0.9,1.2,0.3,1.9c-0.5,0.6-1.1,1.2-1.6,1.7
		C55.6,75.5,55.6,75.2,55.6,74.9z"/>
	<path class="st87" d="M56,69.6c0.5,0.7,0.6,1.4,0.5,2.2C56.2,71.1,54.7,70.6,56,69.6z"/>
	<path class="st31" d="M77.9,95.8c-0.1-0.8,0.6-1.2,0.9-1.8C79.5,94.7,79.5,94.7,77.9,95.8z"/>
	<path class="st35" d="M55.1,87.8c0-0.9-0.3-1.9,0.6-2.7c0.6-0.5-0.1-1-0.6-1.3c-1-1.8,0.8-1,1.3-1.3l0.1-0.1c0.1-0.1,0.3-0.1,0.4,0
		c0.2,0.1,0.3,0.2,0.5,0.1c0.1-0.1,0.2-0.2,0.2-0.4c0.2-0.3,0.3-0.6,0.7-0.6c0.5,0.1,0.7,0.5,0.9,0.9c0.3,0.5,0.5,1,0.9,1.3
		c0.1,0.1,0.3,0.2,0.4,0.4c0.2,0.2,0.3,0.4,0.4,0.7c0,0.5-1.1,0.7-0.4,1.4c-0.1,0.3-0.2,0.5-0.4,0.7c-0.7,0.7-1.3,1.5-1.4,2.6
		c-0.1,0.2-0.2,0.3-0.4,0.4c-0.3,0.1-0.5,0.3-0.5,0.7c0,0.2,0,0.3-0.1,0.5c-0.3,0.3-0.5,0.7-0.8,1.1c-0.2,0.2-0.4,0.4-0.7,0.2
		c-0.7-0.4,0.3-1.6-0.9-1.8C56.5,89.4,55.9,88.6,55.1,87.8z"/>
	<path class="st88" d="M56.5,92.3c0.2-0.2,0.3-0.3,0.5-0.5c0.7-0.4,1,0,1.1,0.6c0.2,0.9,1,1,1.7,1.2c0.6,0.2,1.2,0.3,1.7,0.8
		c0.1,0.2,0.2,0.4,0.2,0.6c-0.1,1.1-0.3,2.1,0.1,3.2c0.2,0.4,0.4,0.9,0.5,1.3c0,0.4,0,0.7-0.4,0.9c-0.2,0-0.3-0.1-0.5-0.1
		c-0.6-0.6-0.7-1.4-0.9-2.2c-0.5-0.4-0.9-0.3-1.2,0.3c-0.1,0.1-0.1,0.1-0.2,0.2c-0.3,0-0.6,0-0.8,0.1c-0.1-0.1-0.2-0.1-0.2-0.2
		c-0.3-0.4-0.3-1-0.4-1.4c0.1-1.1,0.4-2.1-0.7-2.9C56.2,93.6,56.5,92.9,56.5,92.3z"/>
	<path class="st33" d="M56.9,94.1c2.4,0.4,1.6,1.7,0.9,3c-0.1,0.2-0.2,0.2-0.4,0.1c-0.4,0-0.7-0.1-0.9-0.4c-0.3-0.3-0.3-0.6,0-0.9
		c0,0,0,0,0,0C57.1,95.4,56.9,94.7,56.9,94.1z"/>
	<path class="st89" d="M56.5,82.5c-0.2,0.4,0.4,1.7-0.8,0.6c-0.1-0.1-0.3-0.4-0.4-0.1c-0.1,0.2,0,0.6,0,0.8
		c-0.3-0.4-0.6-0.9-0.9-1.3c-0.4-0.2-0.2-0.7-0.4-0.9c0,0,0,0,0,0c0.8-1.2,1.4,0.7,2.2,0.1C56.2,81.9,56.3,82.2,56.5,82.5z"/>
	<path class="st84" d="M53.9,81.6c0.1,0.3,0.3,0.6,0.4,0.9c0,0.6,0,1.2,0,1.8C53.2,83.5,53.6,82.5,53.9,81.6z"/>
	<path class="st25" d="M56.5,95.8c0,0.3,0,0.6,0,0.9c-0.4,0.1-0.9,0.3-1.3,0.4C55.1,96.2,55.1,95.3,56.5,95.8z"/>
	<path class="st88" d="M58.3,98.6c-0.4,0.5-0.5,1.3-1.4,1.3c0.6-0.5,0.1-1.3,0.5-1.8c0.5-0.3,0.6,0.1,0.8,0.4L58.3,98.6z"/>
	<path class="st90" d="M58.2,98.4c-0.3-0.1-0.5-0.3-0.8-0.4c0-0.3,0-0.6,0-0.9c0.1,0,0.3,0,0.4-0.1C58.4,97.4,58.3,97.9,58.2,98.4z"
		/>
	<path class="st88" d="M60.1,98.1c0,0.6,0,1.3,0.1,1.9c0,0.3,0.2,0.7,0.1,0.8c-1.1,1-1.2,1.1-1,2.1c-2.7-1.4-0.4-2.9-0.1-4.4
		c0,0,0,0,0,0C59.4,98.2,59.6,97.8,60.1,98.1z"/>
	<path class="st91" d="M62.2,99.5c-0.3-0.3-0.6-0.6-0.9-1c1.2-1.2,0.1-2.4,0.1-3.6c0-0.1,0-0.3-0.1-0.4c-0.4-1.1,0-1.2,0.9-0.7
		c0.5,0.3,0.5,1.2,1.4,1.1c0.4-0.5,0.2-1,0.2-1.5c0-0.2,0.1-0.4,0.2-0.6c1.7-1.4,1.9-3.2,1.4-5.2c0.5-0.4,0.6-1,0.5-1.6
		c0-0.2,0-0.4,0-0.6c0.3-0.8,0.6-1.6,1.6-1.8c0.4,0,0.8,0.2,1.1,0.5c0.2,0.5-0.4,1,0.1,1.4c0.1,0.1,0.3,0.1,0.4,0.1
		c0.6,0,1.4-0.3,1.5,0.4c0.2,0.7-0.6,1.1-1.2,1.4c-0.2,0.1-0.4,0.2-0.6,0.3c-0.3,0.8,0.9,2.5-1.3,2.2c-0.7,1.8,1,3.6,0,5.3
		c-0.3,0.2-0.5,0.6-0.3,0.9c0.2,0.7,0.4,1.2-0.3,1.7c-0.8,0.6-1.2-0.2-1.9-0.8c0.2,0.9,0.3,1.3,0.4,1.8
		C64.4,99.5,63.3,99.4,62.2,99.5z"/>
	<path class="st4" d="M65.8,100.3c0.4-0.1,0.4-0.9,1-0.6c0.1,0.1-0.1,0.7-0.1,1c-0.3,0.2-0.6,0.3-0.9,0.5
		C65.8,100.9,65.8,100.6,65.8,100.3z"/>
	<path class="st92" d="M60.1,98.1c-0.3,0.1-0.6,0.3-0.9,0.4c-0.1-0.5-0.2-1-0.3-1.5c0.8,0,1.3,0.3,1.6,1
		C60.4,98,60.2,98.1,60.1,98.1z"/>
	<path class="st23" d="M78.9,90.7c0.3,0.4,0.5,0.5,0.6,0.6c-0.1,0.1-0.3,0.3-0.4,0.3c-0.2,0-0.4-0.2-0.4-0.4
		C78.6,91.1,78.8,91,78.9,90.7z"/>
	<path class="st93" d="M82.3,77.1c0,0.1,0,0.3,0,0.4c-0.6,0-1.2,0-1.8,0c-0.6-1.4-0.7-2.9,0.2-4.1c0.7-0.9-0.4-0.6-0.4-0.9
		c-0.3-0.3-0.6-1-0.2-1.1c2.6-0.6,1.9-2.4,1.6-4.1c0.2-0.4,0.5-0.7,1-0.7c0.2,0,0.4,0,0.6,0.1c0.8,0.6,1.3,1.3,0.9,2.2
		c0.2-0.8,0.6-1.6,1.8-1.8c0.5,0.2,0.6,0.6,0.8,1c0.1,0.6,0,1.1-0.1,1.6c-0.4,1.6-2.7,1.8-2.7,3.7c-0.2,0.6-0.8,1-1.2,1.4
		c0.1,0.4,0.3,0.9,0.4,1.3C82.8,76.5,82.2,76.5,82.3,77.1z"/>
	<path class="st94" d="M80.5,72.2c0.4,0.2,1.1,0.5,0.9,0.7c-1.3,1.4-0.4,3.2-0.9,4.6c-0.4,1.4-1.8,0.8-2.7,1.3
		c-0.2-1-1.4-1.5-1.3-2.7c0.1-0.1,0.1-0.2,0.2-0.2c0.6-0.6,0.5-1.4,0.5-2.2c0-0.2,0.1-0.4,0.3-0.5c0.6-0.3,1.1,0,1.6,0.1
		C79.9,73.3,80,72.5,80.5,72.2z"/>
	<path class="st81" d="M82.7,74.9c0-0.6,0.3-1.1,0.9-1.3c1,0.2,0.8,0.7,0.4,1.3c0,0,0,0,0,0C83.6,74.9,83.2,74.9,82.7,74.9z"/>
	<path class="st44" d="M82.3,77.1c-0.2-0.4-0.4-0.7-0.7-1.3c0.7,0.1,1.1,0.3,1.6,0.4C83,76.7,82.7,77,82.3,77.1z"/>
	<path class="st95" d="M67.6,95.4c-0.3-1.7-0.7-3.4-0.4-5.1c0-0.1,0-0.2,0.1-0.2c0.1,0,0.3,0,0.4,0c-0.1,1,1.2,0.8,1.4,1.5
		c0.1,0.4,2.1,0.7,0.1,1.3c-0.1,0-0.1,1.9,0.8,2.6C69.1,96.6,68.4,95.4,67.6,95.4z"/>
	<path class="st96" d="M74.3,76.7c0.4,1.6-0.1,2.9-1.3,4c-0.2,0-0.3,0-0.5,0c-1.8-1-0.6-1.6,0.2-2.2c-0.1,0,0.2-0.2,0-0.1
		c-0.1,0-0.2,0.2-0.3,0.2c-1.4-1.5-1.6-3.6-2.3-5.4c0.2-0.4,0.5-0.7,0.9-0.8c0.2,0,0.4,0,0.6,0c0.7,0.4,1.4,0.6,2.3,0.4
		c1.4-0.3,1.6,0.4,1,1.5C74.5,75.1,74.3,75.9,74.3,76.7z"/>
	<path class="st97" d="M70.3,73.1c1.2,1.6,1.6,3.5,2.2,5.3c0.2-0.1,0.3-0.1,0.4,0c0.1,0.8-1.7,1.2-0.4,2.2c-0.9,0-1.9,0.2-2.2-0.9
		c-0.3-1-0.9-0.3-1.4-0.4c-0.6-0.7,0.2-1.3,0.2-2c0-0.7,1.4-1.3,0.1-2.1c-0.1-0.8,0-1.5,0.5-2.1C69.9,73,70.1,73,70.3,73.1z"/>
	<path class="st98" d="M69.4,77.6c0.9,0.9-0.8,1.1-0.4,1.8c-0.2,0.1-0.3,0.3-0.5,0.4c0.2,1,0.2,1.8-0.8,2.4c-0.2,0-0.4,0-0.6-0.1
		c-1.1-0.9-0.5-2.7-1.9-3.6c-0.4-0.3-0.3-1.3,0.3-1.8c0.5-0.4,1-0.1,1.4,0.2c0.4,0.4,0.9,0.5,1.4,0.3C68.7,77.2,69.1,77.2,69.4,77.6
		z"/>
	<path class="st97" d="M67.6,82.1c0.3-0.8,0.6-1.5,0.9-2.3c1.2,0.9,3.2,1.3,2.7,3.6c-0.1,0-0.3,0-0.4,0c-0.7-0.1-1.2-0.4-1.8-0.6
		c-0.3-0.1-0.6-0.3-1-0.1C67.6,82.5,67.4,82.4,67.6,82.1z"/>
	<path class="st99" d="M68.9,82.5c0.5,0.5,1.7-0.5,1.8,0.9c0,0.7,0.1,1.4,0.4,2.1c0.5,1.6-0.5,2.6-2.1,2.3c0.3-0.7,0.9-1.1,1.4-1.4
		c-0.2-1.5-1.8,1.4-1.8-0.8c0.1-0.6,0.6-1.3-0.2-1.8C68.3,83.2,68.5,82.8,68.9,82.5z"/>
	<path class="st94" d="M74.3,76.7c-2.1-1.5,0.9-2.2,0.4-3.5c-1.1,0.2-2.3,1.2-3.1-0.5c-0.2-1,0.6-1.3,1.2-1.8c0.6-0.4,1-0.9,1.1-1.7
		c0.1-0.6,0.5-0.9,1-1.1c0.1,0,0.2,0,0.3-0.1c0.2,0,0.4,0.1,0.5,0.3c0.4,0.8-0.3,1.8,0.5,2.5c0.7,0.8,2,1.3,1.2,2.8l0,0
		c-0.1,1,0,2-0.9,2.7l0,0C75.8,76.4,75,76.5,74.3,76.7z"/>
	<path class="st100" d="M91.2,32.1c0.8-1.9,2.6-2.1,4.1-1.9c2,0.2,2,2.2,2.1,3.8c0,1.2,0,2.3,0,3.5c-0.7,1.1-1.6,1.2-2.7,0.4
		c-0.7-0.8-1.4-1.7-2.2-2.5c-0.6-0.6-1-1.3-0.5-2C92.9,32.3,91.4,32.6,91.2,32.1z"/>
	<path class="st101" d="M97.9,45.1c0.1,1.1-0.3,2.4,0.5,3.4c0.3,0.3,0.3,0.8-0.1,0.9c-1.9,0.5-1.5,1.9-1.2,3.1
		c0.3,0.9-0.5,1.2-0.8,1.6c-1,1.5-1,3.9-3.3,4.4c-0.8,0.4-1.6,0.4-2.4,0.2c-1-0.4-1.7-1.1-1.5-2.3c0.6-0.7,1.8-0.5,2.2-1.6
		c1,0.3,1.9,0.6,2.8,1.1c0.8-2.5,1.1-5.2,2.4-7.6c0.5-0.9,0.8-1.8-0.4-2.4c-0.6-0.4-1.2-0.9-1.4-1.7c0-0.2,0.1-0.4,0.3-0.6
		C95.8,44.2,96.8,44.6,97.9,45.1z"/>
	<path class="st102" d="M89.4,34.8c-0.5,1.8,1.9,2.7,1.3,4.5c-0.2,0.1-0.3,0.1-0.5,0c-0.5-0.8-1-1.7-2-1.9c-1.9-0.7-3-2-3.5-3.9
		c-0.2-0.8,0-1.5,0.6-2.1c0.7-0.4,1.2,0.1,1.8,0.4C88,32.6,89.3,33.3,89.4,34.8z"/>
	<path class="st103" d="M90.3,39.3c0.1,0,0.3,0,0.4,0c0.2,0.2,0.3,0.3,0.5,0.5c0.7,0.4,1,1.1,0.2,1.5c-1.7,0.9-1.7,2.4-1.5,4
		c0.1,0.2,0.1,0.4,0.1,0.6c-0.3,0.9-0.2,2.1-1.5,2.4c-0.2-1.4-1.2-0.4-1.8-0.6c-0.2-0.1-0.4-0.2-0.5-0.3c-0.2-1.5,1.5-2.2,1.4-3.8
		c-0.1-0.8,0.7-1.6-0.5-2.3c-0.6-0.4-0.4-1.2,0.3-1.7C88.4,40.1,89.3,38.8,90.3,39.3z"/>
	<path class="st104" d="M89.4,34.8c-0.8-1-1.5-2-2.6-2.7c-0.5-0.7-0.4-1.3,0.4-1.5c0.8-0.3,1.6-0.6,2.5,0c0.5,0.4,0.8,1,1.2,1.5l0,0
		c0.6,1,0.1,2.5,1.3,3.3c0,0.1,0,0.2,0.1,0.3c-0.1,0.7,0.1,1.6-1.2,0.9C90.2,36.2,90,35.4,89.4,34.8z"/>
	<path class="st105" d="M89.8,45.5c-1-1-0.7-3.9,0.6-4.3c0.9-0.3,1.3-0.5,0.7-1.4c1.7,0.4,2.2,2,3.2,3.1C94.2,43,94,43,93.8,43
		c-0.6-0.1-1.3-0.6-1.5,0.6c-0.1,0.6-0.4,1.9-1.7,1.2c-0.3-0.1-0.3,0.2-0.4,0.4C90.1,45.3,90,45.4,89.8,45.5z"/>
	<path class="st53" d="M91.2,32.1c0.7,0,1.4,0,2.5,0c-2.4,1.7-1.3,2.9,0,4.2c0.4,0.5,0.7,1.1,1,1.7c-1.2-0.4-1.7-1.6-2.7-2.2
		c0,0,0,0,0,0C91.1,34.7,91.1,33.5,91.2,32.1L91.2,32.1z"/>
	<path class="st106" d="M100.3,43.5c-0.3-0.9-1.1-1.5-0.3-2.4c0.1-0.1,0.4,0,0.5,0.1C101.2,41.9,100.7,42.6,100.3,43.5z"/>
	<path class="st107" d="M93.9,42.8c0.2,0,0.3,0,0.5,0c0.2,0.3,0.3,0.6,0.5,0.9c0,0.2,0,0.3-0.1,0.5c-0.9,0.1-1.1-0.3-1.1-1.1
		C93.7,43,93.8,42.9,93.9,42.8z"/>
	<path class="st108" d="M81.8,22.4c0.4,1.7,1.7,2,3.1,2.2c0,0,0,0,0,0c0.2,0.4,0.3,0.8,0.9,0.5c0.3,0,0.6,0,0.9,0
		c0.6,0.5,1.3,0.7,1.9,0.9c0.4,0.6,0.3,1.2,0.2,1.9c-0.1,0.9,0.2,2.2-0.9,2.5c-1.3,0.4-1-1.3-1.8-1.7c-0.3-0.2-0.3-0.6-0.5-0.8
		c-0.1,0.7,0.6,0.7,0.8,1.1c0.3,1-0.4,1.4-1.1,1.8c-0.6,0.2-1.1,0.2-1.7,0.1c-1.1-0.3-1-1.6-1.7-2.2c-0.5-0.9-2-0.6-2.3-1.8
		c0-0.2,0-0.4,0.1-0.6c0.2-0.3,0.4-0.6,0.8-0.7c1.5-0.5,0.6-0.9,0-1.4c-0.6-0.9-0.8-1.8,0.1-2.6C81.7,21.2,81.5,22.1,81.8,22.4z"/>
	<path class="st109" d="M86.3,28.6c1.6-0.6,0.5,1.3,1.7,1.4c0.7-1.2,0.2-2.7,0.5-4.1c0.3-0.1,0.7-0.1,0.9-0.5
		c-0.4-0.6-0.2-1.1,0.4-1.4c0.9-0.4,0.8,0.8,1.4,1c0.2,1.5,2.4,0.8,2.7,2.2c-3.2,0.2-3.7,1-3.1,4.9c-1.1-0.7-1.8-2-3.5-1.2
		c-0.7,0.3-0.5,0.8-0.5,1.2c-0.5-0.3-0.9-0.6-1.4-0.9c-0.1-0.1-0.1-0.1-0.2-0.2c-0.1-0.3-0.1-0.5,0.2-0.7
		C85.9,29.9,86.5,29.4,86.3,28.6L86.3,28.6z"/>
	<path class="st70" d="M89.4,25.5c0,0.8-0.4,0.7-0.9,0.5c-0.7-0.1-1.6,0.3-1.8-0.9C87.7,24.5,88.4,26,89.4,25.5z"/>
	<path class="st70" d="M85.9,25.1c-0.2,0.4-0.5,0.9-1,0.7c-0.6-0.3,0-0.8,0.1-1.1C85.3,24.8,85.6,24.9,85.9,25.1z"/>
	<path class="st110" d="M99.2,49.6c0-1.1-0.4-2.5,1.3-2.7C102.2,48.8,100.2,48.9,99.2,49.6z"/>
	<path class="st111" d="M91.2,32.2c0.3,1.2,0.6,2.4,0.9,3.6c-2-0.6-1.6-2.1-1.3-3.6C90.9,32.2,91,32.2,91.2,32.2z"/>
	<path class="st16" d="M87.6,78.9c0.2-1.1-0.5-2.4,0.9-3.1C88.2,76.8,89.3,78.3,87.6,78.9z"/>
	<path class="st16" d="M88.5,75.8c0.9-0.3-1.9-2.4,0.9-1.8C89.1,74.6,88.8,75.2,88.5,75.8z"/>
	<path class="st112" d="M90.8,58.4c0.7-0.1,1.5-0.7,2.2,0c0.7,1,1.4,0.7,2.3-0.5c-0.4,1.4-0.3,2.4-1,3.2c-0.1-0.1-0.2-0.2-0.2-0.2
		c0.1,0,0.1,0.1,0.2,0.2c-0.2,0.5-0.5,1-0.7,1.5c-0.9,0.3-0.1-1.8-1.3-0.9c-1.7,1.3-0.2,2.6,0.2,3.9c0.5,1.5,1.2-0.1,1.8-0.1
		c-0.4,1-0.6,2.3-2.2,1.3c-0.8-0.8-1.3,0.1-1.5,0.5c-0.7,1.2-1.6,1.7-2.9,1.3c-0.5,0.2-0.8,0-1-0.4c0-0.8,0.3-1.6,0.7-2.3
		c0.5-0.6,0.5-1.4,0.6-2.2c0.2-1.3-1.2-2.4-0.5-3.8C89.4,60.1,89.4,60.1,90.8,58.4z"/>
	<path class="st59" d="M97,61.1c-0.1,0.8,0.3,1.6-0.4,2.2C96.8,62.6,95.7,61.6,97,61.1z"/>
	<path class="st112" d="M84.1,74.9c0-0.5,0.1-1-0.4-1.3c-0.5-2.2,1.6-2.5,2.7-3.6c0.9,0.1,1.3,0.7,1.8,1.3c0.2,0.4,0.3,0.9,0.5,1.3
		c-1.3,0.3-1.3,0.3-1.1,2.2c0,0.3-0.3,0.6-0.5,0.9c-0.3,0.4-0.7,0.4-1.1,0C85.4,75.2,84.8,75,84.1,74.9z"/>
	<path class="st81" d="M88.1,71.4c-0.6-0.4-1.5-0.5-1.8-1.3c0-0.6,0-1.2,0-1.8c0.1-0.2,0.3-0.2,0.4,0c0.3,0.2,0.6,0.3,0.9,0.5
		C87.8,69.6,88.2,70.4,88.1,71.4z"/>
	<path class="st113" d="M64.5,18.4c0.8,0.3,1,1.6,2.2,1.3c2.1,1.5,2.4,3.5,1.9,5.9c-0.2,0.9-0.4,1.9-0.4,2.9c0,1.1,0.1,2.2,1.1,2.7
		c1.4,0.8,1,1.6,0.3,2.5c-0.4,0.2-0.8,0.3-1.2,0.3c-0.4,0.1-1.2-0.3-0.7,0.7c0.3,0.4,0.7,1,0.2,1.3c-1.1,0.6-0.8,1.7-1.1,2.6
		c-0.1,0.3-0.2,0.6-0.5,0.8c-0.6,0.4-1.2,0.6-1.9,0.4c-0.4-0.5-0.4-1-0.3-1.6c0.1-0.2,0.2-0.4,0.3-0.6c1.4-1.3,1-2.7,0.5-4.2
		c-0.3-0.6-1.6-0.3-1.4-1.6c1.2,0.2,2.4,0.4,3.6,0.6c0,0,0.1-0.1,0.1-0.2c0-0.1-0.1-0.1-0.1-0.2c-0.2-2.9-2.2-5.4-2.1-8.4
		c0-1-0.7-1.8-1.2-2.5C62.8,19.9,63,19,64.5,18.4z"/>
	<path class="st114" d="M64.5,18.4c-1.4,1.3-0.6,2.5,0.4,3.4c0.9,0.8,1.1,1.5,0.7,2.5c-0.3,0.7-0.2,1.3,0.3,1.9
		c1.6,1.8,1.4,3.9,1.3,6c-1.3-2.1-2.7-3.9-2.5-6.8c0.1-1.3-0.6-3.5-2.1-4.6c-1.1-0.8-1.3-1.2,0-1.7c1-0.4,0.5-0.8,0.1-1.2
		c0.4-0.5,0.9,0.1,1.3,0C64.2,18.1,64.3,18.2,64.5,18.4z"/>
	<path class="st115" d="M64.9,33.5c1.6,1.7,1.4,3.4-0.4,4.5c-0.6-0.4-1.2-0.2-1.8,0l0,0c-1.2,0.2-0.3-1.1-0.9-1.3
		c-0.1-0.1-0.3-0.3-0.4-0.4c0.7-0.7,1.5-0.2,2.3-0.4c0.2-0.1,0.5-0.1,0.5-0.3c-0.1-0.2-0.5-0.2-0.7-0.2c-0.4-0.2-0.8-0.3-0.7-0.9
		C63.4,33.8,64.4,34.2,64.9,33.5z"/>
	<path class="st113" d="M63.6,36.2c-0.7,0.8-1.5-0.3-2.2,0c-0.7-1.1-0.9-1.9,0.9-1.8c0.2,0,0.3,0,0.5,0c0.2,0.4,0.5,0.4,0.9,0.4
		C64,35.3,64,35.7,63.6,36.2z"/>
	<path class="st67" d="M57.4,21c-0.7-0.6-1.4-1.3-1.8-2.2c0.7-0.1,1.5,0.5,2.2,0C58.5,19.7,57.8,20.3,57.4,21z"/>
	<path class="st67" d="M57.8,17.9c-0.6-0.6-0.7-1.4-0.9-2.2c0.8,0.6,1.3,0.1,1.8-0.4c0,0.6,0,1.2,0,1.8
		C58.4,17.3,58.1,17.6,57.8,17.9z"/>
	<path class="st116" d="M60.5,10.8c-0.5-0.4-1.2-0.6-0.4-1.4c0.6,0,1,0.3,1,0.9C61.1,10.8,60.7,10.8,60.5,10.8z"/>
	<path class="st65" d="M69.4,33.5c0.4-0.9,0.8-1.6-0.6-2.1c-1.5-0.6-1.3-2.2-1.2-3.5c0.1-1.1,0.2-2.2,0.5-3.3
		c0.4-1.7,0.9-3.2-1.5-3.8c-0.6-0.2,0-0.8,0-1.1c1.6-0.1,2.8,0,2.3,2.2c-0.2,0.7,0,1.5,0.9,1.8l0,0c0.1-0.4,0.2-0.9,0.6-0.7
		c2.2,1.4,1.4-0.6,1.7-1.5c2.4,1.8,3.8,4,3.9,7.1c-1,0.6-1.3-0.1-1.7-0.8c-0.3-0.7-0.6-1.4-1.5-2.1c0.7,1.6,1,2.8,0.8,4.1
		c0.4,0.3,0.7,0.1,0.9-0.1c0.7-0.6,1.4-1.1,2.4-0.7c0.5,0.2,0.4,0.7,0.3,1.2c-0.2,0.9-0.4,1.9-1.6,2.1c-0.4,0.1-0.7,0.1-1.1,0.1
		c-1-0.2-2,0.2-3,0.3c-0.2-0.2-0.2,0.4,0,0.1c0-0.1,0.1,0,0.2,0c0.4,0.1,0.6,0.4,0.5,0.8c-0.7,0.8-1.7,0.3-2.6,0.7
		C69.2,34.4,69.1,33.9,69.4,33.5z"/>
	<path class="st117" d="M82.3,28.2c1.2,0.3,0.5,1.7,1.3,2.3c0.1,0.1,0.2,0.2,0.1,0.3c0,0.1-0.1,0.2-0.1,0.2c-0.3,0.1-0.7,0.2-0.8,0
		c-0.5-1.3-1-0.4-1.6-0.1c-0.2,0-0.4,0-0.6,0c-0.7-0.2-1.1,0.4-1.7,0.6c-0.2,0-0.4-0.1-0.5-0.2c-0.5-0.8-0.3-1.9-1-2.7
		c-0.1-1-1.3-1.8-0.5-3c-0.4-2-2.2-2.8-3.6-4c-0.4-1.2-0.3-2.3,1.3-2.2c2,0.1,2-0.7,1.2-2c-0.2-0.3-0.3-0.7-0.4-1
		c0-0.2,0-0.4,0.1-0.6c0.7-0.4,1,0,1.4,0.5c0,0.8,0.1,1.4,0.9,1.8c0.5,1.5,0.4,2.9-1,4c-0.1,0.1-0.2,0.2-0.1,0.2
		c1.2,0.4,1,1.7,1.5,2.5c0.4,0.6,0.6,1.3,0.9,2c0.3,1.1,0.6,2.2,2.1,1.3C81.6,27.7,82,27.9,82.3,28.2z"/>
	<path class="st118" d="M75.6,16.1c1.1,0.4,1.2,1.5,1.4,2.3c0.3,0.9,0,2-1.5,1.4c-1.5-0.6-2.2,0-2.1,1.6c-0.1-0.3-0.4-0.6-0.4-1
		c0-2.1-1-3-3.1-2.6c-0.1-0.2-0.1-0.3,0-0.5c1.7-0.7-0.1-1.5,0-2.2c0,0,0,0,0,0c0.5-0.4,1.2-0.7,1.6-0.3
		C72.6,16.2,74.1,16.2,75.6,16.1z"/>
	<path class="st119" d="M74.3,32.2c0.9-0.4,2.3-0.4,2.3-2c0-0.3,0.5-0.6,0.1-0.9c-0.4-0.3-0.8,0.1-1.2,0.3c-0.8,0.4-1,2.1-2.1,1.5
		c-0.9-0.5-0.2-1.7-0.2-2.6c0-0.9-0.5-1.8-0.8-2.7c-0.1-0.3-0.3-0.8,0.1-1c0.4-0.2,0.7,0,0.9,0.4c0.4,0.9,1.7,1.1,1.5,2.5
		c-0.1,0.6,0.6,1,1.2,1c0.1,0,0.3,0,0.4,0c1.2-0.5,1.3,0.4,1.3,1.2c-0.1,0.9,0.2,1.5,0.7,2.1c0,0.2,0,0.4,0,0.6
		c-0.3,0.4-0.7,0.5-1,0.7c-1.8,1.3-2,1.2-3.2-0.8C74.2,32.4,74.2,32.3,74.3,32.2z"/>
	<path class="st120" d="M69.8,17.5c0,0.2,0,0.3,0,0.5c-0.1,0.1-0.3,0.3-0.4,0.4c-1.7-0.2-2.1-2-3.3-2.7c-0.2-0.1-0.2-0.6-0.2-0.8
		c0.2-0.5,0.6-0.2,0.9-0.2C68.7,14.7,68.8,16.6,69.8,17.5z"/>
	<path class="st121" d="M78.3,32.2c-0.7-0.5-1.8-0.8-1-2.1c0.3-0.6,0.2-1.3-0.8-1.4c0.9-0.9-1.3-2.3,0.4-3.1c-0.1,1.2,0.8,2,0.9,3.1
		c0.5,0.8,0.3,1.9,0.9,2.7v0c0.3,0.3,0.3,0.6,0.1,0.9C78.7,32.3,78.5,32.3,78.3,32.2z"/>
	<path class="st122" d="M75.6,16.1c-0.5,0-1,0-1.3,0.6c-0.8,1.4-1.9,0.6-2.1-0.2c-0.4-1.5-1.4-1.2-2.4-1.2c0-1.8,0-3.6,0-5.3
		c0.1,0.2,0.3,0.3,0.4,0.5c0.1,1-0.1,2.5,1.7,1.2c0,0,0.4,0.4,0.6,0.5c0.7,0.5,2.5,0.2,1.5,2c0,0.1,1.4,0.6,1.6,1.5
		C75.6,15.8,75.6,16,75.6,16.1z"/>
	<path class="st123" d="M81.8,22.4c-0.3-0.3-0.6-0.6-0.9-0.9c-0.8-0.2-1.1-0.8-1.4-1.5c-0.1-0.4-0.2-0.8,0-1.2
		c1.2-1,3.2-1.4,3.1-3.6c1.4,0.4,0.3,2.4,1.8,2.7c0,0.8,0.9,1.6,0.1,2.5c-0.8-0.3-1-1.5-2-1.5c-0.4,0-0.8-0.1-1,0.3
		c-0.1,0.1,0,0.6,0,0.6C85.1,20.3,81.9,21.5,81.8,22.4z"/>
	<path class="st124" d="M75.6,15.7c-0.6-0.3-1.1-0.6-1.7-0.9c-0.2-0.1-0.4-0.3-0.7-0.5c1.7-1.4-0.8-1.3-0.8-2.1c0-0.2,0-0.3,0-0.5
		c1.4-0.7,1.8,0.1,2.9,1c1.2,1.1,1.2,2.3,1.6,3.5C76.5,16,76.1,15.8,75.6,15.7z"/>
	<path class="st125" d="M79.6,18.8c0.1,0.3,0.3,0.6,0.4,0.9c-1.6,1.4-1.4,3.6-2.2,5.3c-0.9-0.8,0.1-2.8-2.4-2.7
		c2.6-1,1.9-2.9,2.4-4.4C78.4,18.2,79,18.5,79.6,18.8z"/>
	<path class="st71" d="M78.7,12.1c0.6,0,1.2,0,1.8,0c-1.1,1.4-1.1,1.8,0.1,2.7c0.6,0.4,1,1,0.1,1.6c-0.5,0.3-1.1,0.6-1.8,0.9
		c-0.5-1.3,0.1-2.7-0.7-3.8C78.3,13,78.3,12.5,78.7,12.1z"/>
	<path class="st126" d="M78.7,12.1c0,0.5,0.1,1-0.5,1.3c-1.2-0.6-1.1-2-2.3-2.9C77.7,10.3,78.3,11.1,78.7,12.1z"/>
	<path class="st71" d="M82.3,13.5c-0.1,0.4-0.3,0.9-0.4,1.3c-0.5-0.3-1.2-0.6-1-1.2C81.1,12.8,81.8,13.6,82.3,13.5z"/>
	<path class="st127" d="M62.7,38c0.3-0.7,0.9-1,1.6-0.9c0.6,0.1,0.3,0.5,0.2,0.9c0,0,0,0,0,0c-0.4,1.3-0.6,2.7-2.1,3.4
		c-0.8,0.3-0.1,1.1-0.5,1.5c-3,0.9-3,0.9-2.8,4.3c0,1.1,0.3,2,0.8,2.9c0.1,0.4,0.1,0.8-0.1,1.2c-1.5,0.8-1.4,2.1-1.3,3.5
		c0,0.2-0.1,0.4-0.3,0.5c-0.6,0.8-1.2,0.2-1.8,0c0.9-2.3-0.3-4.9,1.4-7c0.1-0.2,0.2-0.5,0.2-0.6c-2.5-2.1,0.3-4.6-0.6-6.8
		c-0.1-0.2,0.3-0.5,0.4-0.7c0,0,0,0,0,0c0.4,0.2,0,1.2,0.9,0.9c0.6-1.5,1.9-1.2,3.1-1.3C62.1,39.1,63.4,39.1,62.7,38z"/>
	<path class="st128" d="M57.8,27.7c0.6-0.6,0.7-1.2,0.6-2c-0.1-0.4,0.1-0.8,0.5-0.8c0.5,0,0.6,0.4,0.6,0.8c0.4,1.6-1,2.4-1.7,3.4
		c-0.3,0.5-0.7-0.1-0.9-0.5C57.2,28.2,57.5,28,57.8,27.7z"/>
	<path class="st129" d="M57.8,27.7c0,0.6-0.3,0.9-0.9,0.9c-0.2-0.4-0.3-0.9-0.5-1.3c0,0,0,0,0,0C57.1,26.8,57.4,27.4,57.8,27.7z"/>
	<path class="st130" d="M54.7,30.8c-0.2-0.1-0.3-0.3-0.5-0.4c0.1-0.3,0.1-0.8,0.6-0.7c0.2,0,0.5,0.3,0.6,0.5
		C55.5,30.7,55.1,30.8,54.7,30.8z"/>
	<path class="st127" d="M61.8,36.6c0.3,0.4,0.6,0.9,0.9,1.3C61.6,38.3,61.5,38.3,61.8,36.6z"/>
	<path class="st83" d="M56,39.3c0,1.5-1.4,2.5-1.3,4c-1.4-0.8-0.6-2.2-0.6-3.3C54,39.1,55.3,39.3,56,39.3z"/>
	<path class="st131" d="M60,69.6c-0.4,0-0.7-0.1-0.9-0.5c-0.3-0.5-0.5-1-0.2-1.5c0.1-0.1,0.1-0.2,0.2-0.2c0.3,0.3,0.5,0.6,0.8,1
		c0.3-1.1-0.7-2.1,0-3.5c-1.3,1-2.4,1.5-2.1-0.6c1,0.4,0.9-2.1,2.2-0.8c0.1,0.1,0.6-0.6,0.4-0.9c-0.7-1.2,0-2.2,0.5-3.2
		c-0.2-0.5,0-1,0.2-1.5c0.2-0.4,0.4-0.8,0.7-1.1c0.8-1.1,1.5-1.5,1.9,0.3c0.1,0.4,0.3,0.7,0.6,0.9c1.3,1,1.1,2.1,0.2,3.2
		c-0.5,0.6-0.6,1.3-0.2,2c0.1,0.2,0.1,0.4,0.1,0.6c0,0.2,0,0.4,0,0.6c0.3,1.8-1.3,3.3-0.9,5.1c0,0.2,0,0.4,0,0.6
		c0,0.2-0.1,0.4-0.2,0.6c-0.7,0.7-0.8,1.9-1.6,2.6c-1.3-0.2-1.2-1.2-1.3-2.2C60.4,70.6,60.9,69.9,60,69.6z"/>
	<path class="st132" d="M57.4,58c0.6-0.4,0.6-1.3,1.7-1.5c-0.3,1.2-1.1,2-1.7,2.8C57.4,58.9,57.4,58.4,57.4,58z"/>
	<path class="st131" d="M58.3,68.7c-1.2-0.5-0.5-1,0-1.5c0.4-0.4,0.8-0.7,0.9,0.2c0,0,0,0,0,0C58.8,67.7,58.8,68.4,58.3,68.7
		L58.3,68.7z"/>
	<path class="st133" d="M58.3,55.3c0-0.1,0-0.3,0-0.4c0.5-1.2,0.3-2.6,1.3-3.6c0-0.4,0-0.9,0-1.3c-0.4-0.8-0.1-1.7-0.2-2.6
		c-0.1-1,0.5-1.3,1.4-1.1c0.6,0.3,1.1,0.8,1,1.4c-0.4,2.2,0.6,4.1,1,6.1c0,0.2-0.1,0.4-0.2,0.6c-0.1,0.2-0.3,0.3-0.5,0.3
		c-0.7,0.1-1.3,0.3-0.7,1.1c0.5,0.6,0.2,1.1-0.4,1.5c-0.5,0.1-0.8-0.1-0.9-0.6c0-0.6,0-1.1-0.1-1.8C59.4,55,59,56,58.3,55.3z"/>
	<path class="st134" d="M60.1,56.6c0.3,0.2,0.6,0.3,0.9,0.5c0.4,0.2,0.6,0.4,0.5,0.9c-0.2,0.5-0.3,0.9-0.5,1.4
		C60.8,58.4,59.3,57.9,60.1,56.6z"/>
	<path class="st67" d="M55.6,18.4c-0.4-0.5,0.1-1.3-0.4-1.8c1-0.5,1.2,0.4,1.4,0.9C56.8,18.1,56,18.1,55.6,18.4z"/>
	<path class="st72" d="M58.7,41.1c0,0.3-0.1,0.7-0.4,0.6c-0.6-0.3-0.5-0.9-0.5-1.4C58.1,40.5,58.4,40.8,58.7,41.1z"/>
	<path class="st135" d="M59.1,82.5c-0.3-0.3-0.5-0.6-0.8-0.9c-0.1-0.1-0.2-0.1-0.2-0.2c0-0.1,0-0.2,0.1-0.2c0.9-1,2.7-1.3,2.5-3.1
		c-1-0.8-0.8,2.3-2,0.4c-0.3-0.8-0.2-1.6,0.5-2.2c0.1-0.2,0.3-0.3,0.4-0.5c0.4-0.2,0.2-1,0.8-1.1c0.5,0,1.1-0.1,1.5,0.4
		c1.6,0.3,1.6,0.3,1.3,2.3c-0.2,1.3,0.9,2.7-0.5,3.9c-0.4,0.6-0.3,1.3-0.6,2c-0.3,0.8-0.9,1.2-1.8,1c-0.2,0-0.3,0-0.5,0
		c-0.8-1-0.3-1.9,0.3-2.8c0,0,0-0.1,0-0.1C60.2,82.1,59.7,82.3,59.1,82.5z"/>
	<path class="st136" d="M61.8,74.9c-0.5,0.3-0.9,0.2-1.4,0c-0.6-0.4-0.5,0.4-0.9,0.5c-0.5-1.2-2-2.1-0.8-3.6c1.8,1,0.6-1.2,1.3-1.3
		c0-0.3,0-0.6,0-0.9c0.4-0.2,0.9-1.1,0.9,0.3c0,1.1-0.6,2.5,0.8,3.3c0.5,0.4,0.5,1,0.3,1.6C62,74.8,61.9,74.8,61.8,74.9z"/>
	<path class="st127" d="M57.4,78.5c-2.1-0.9-1.4-1.8,0-2.7C59.1,76.8,59.1,77.5,57.4,78.5z"/>
	<path class="st73" d="M60.1,70.5c0,1,0,2,0,3.2c-1-0.5-0.6-1.6-1.3-1.9C59.3,71.5,58.1,69.4,60.1,70.5z"/>
	<path class="st137" d="M57.4,78.5c1.4-0.9,1-1.8,0-2.7c0.8-0.8,1.3,0.1,1.8,0.5c0,0.8-0.1,1.5-0.5,2.2
		C58.3,78.6,57.8,79.2,57.4,78.5z"/>
	<path class="st138" d="M59.5,75.4c0.1-0.4-0.2-1.1,0.6-1.2c0.1,0,0.2,0.4,0.3,0.7c-0.4,0.2,0,1.1-0.8,0.9
		C59.6,75.7,59.6,75.5,59.5,75.4z"/>
	<path class="st139" d="M57,82.5c-0.1,0-0.3,0-0.4-0.1c-0.1-0.6-0.2-1.3,0.8-0.8c0.4,0.2,0.7,0.4,0.4,0.9l0,0
		C57.5,82.7,57.3,82.7,57,82.5z"/>
	<path class="st73" d="M58.3,68.7c0-0.6,0.3-1.1,0.9-1.3c0,0.6,0,1.2,0,1.8C58.8,69,58.6,68.8,58.3,68.7z"/>
	<path class="st140" d="M57.8,82.5c-0.1-0.3-0.3-0.6-0.4-0.9c0.2-0.4,0.5-0.4,0.8-0.4c0,0.1,0.1,0.3,0.1,0.4
		C58.3,81.9,58.2,82.3,57.8,82.5z"/>
	<path class="st141" d="M54.8,79.3c-0.2,0.2-0.3,0.5-0.5,0.6c-0.4,0.1-0.4-0.3-0.3-0.5c0.1-0.2,0.3-0.4,0.5-0.6
		C54.5,78.9,54.6,79.1,54.8,79.3z"/>
	<path class="st142" d="M64,95.4c-0.9,1.4-1.1,0.1-1.5-0.4c-0.3-0.3-0.2-1.7-1.2-0.5c-0.6-0.2-1.2-0.3-1.8-0.5
		c-0.1-0.2-0.2-0.4-0.2-0.6c0.1-1-0.2-2-0.8-2.8c-0.2-0.3-0.5-0.7-0.3-1.1c0.2,0,0.3,0,0.5,0c0.5,0.1,0.8-0.4,1.1-0.6
		c0.4-0.1,0.9-0.1,1.2-0.3c0.2-0.1,0.3-0.1,0.5-0.2c0.2,0,0.3,0.1,0.5,0.2c0.3,0.3,0.7,0.6,1,0.9c0.1,0.1,0.2,0.3,0.3,0.5
		c0.5,1,1.3,1.9,0.7,3.1l0,0c-0.3,0.3-0.6,0.3-0.9,0.2c0,0-0.1,0-0.1,0s0.1,0.1,0.1,0.1C63.8,94,63.8,94.7,64,95.4z"/>
	<path class="st143" d="M62.7,90c0-0.1,0-0.3,0-0.4c-0.5-0.5-0.4-1.2-0.7-1.7c-0.4,0.1-0.3,0.7-0.6,0.8l0,0
		c-0.3,0.4-0.8,0.3-1.2,0.2c-0.2-0.1-0.3-0.3-0.3-0.5c0.2-0.8,0.9-1.5,0.6-2.4c-0.5-0.6,0.1-0.9,0.4-1.3c0.6-0.3,1.2-0.6,1.6-1.1
		c0.7,0.1,1.2-0.4,1.9-0.3c0.5,0.4,0.6,0.9,0.6,1.4c0,0.8-0.1,1.6-0.3,2.4c-0.1,0.7-0.1,1.4-0.3,2.1C64,89.8,63.7,90.6,62.7,90z"/>
	<path class="st88" d="M58.7,90.5c1.1,0.8,1.6,1.8,0.8,3.1c-1.6-0.2-1.4-1.6-1.7-2.6c0-0.2,0-0.3,0-0.5
		C58.1,90.2,58.4,90.5,58.7,90.5z"/>
	<path class="st144" d="M60,88.3c0,0.2,0,0.3,0,0.5c0.2,0.1,0.2,0.2,0.2,0.3c-0.1,0.1-0.1,0.1-0.2,0.1c-0.4,0.2-0.6,1-1.3,0.5
		c-0.7-1.5,0.5-2.2,1.3-3.1C60.6,87.1,60.5,87.7,60,88.3z"/>
	<path class="st145" d="M57.8,91c0.6,0.9,0.7,2,1.7,2.6c0,0.1,0,0.3,0,0.4c-1.7,0.2-1.7-1.6-2.6-2.3C57,91.2,57.3,91,57.8,91z"/>
	<path class="st146" d="M62.8,83.8c-0.3,0.9-0.8,1.4-1.8,0.9c-0.1-0.2-0.3-0.3-0.4-0.5c0.6-0.3,1.3-0.5,1.3-1.3
		C62.8,82.5,63,82.9,62.8,83.8z"/>
	<path class="st146" d="M60.5,81.1c0.1,1.1-1,2-0.4,3.1c-0.6-0.4-0.8-1.1-0.9-1.8C59.6,82,60,81.6,60.5,81.1L60.5,81.1z"/>
	<path class="st147" d="M60,88.3c0-0.6,0-1.2,0-1.8c0.2-0.1,0.3-0.3,0.5-0.4C61.1,87,61.4,87.8,60,88.3z"/>
	<path class="st148" d="M58.7,90.5c-0.3,0.5-0.6,0.1-0.9,0c-0.3-0.2-0.5-0.6-0.3-0.9c0.2-0.4,0.5,0,0.7,0
		C58.4,89.9,58.6,90.2,58.7,90.5z"/>
	<path class="st149" d="M57,82.5c0.3,0,0.6,0,0.9,0c-0.1,0.4,0,1-0.5,1C56.7,83.5,57,82.8,57,82.5z"/>
	<path class="st142" d="M61.4,94.9c1.3,0.7,0.6,2.3,1.7,3c-0.5,0.8-1.4-0.3-1.7,0.5C60.7,97.3,60.7,96.1,61.4,94.9z"/>
	<path class="st150" d="M64.1,87c0.4-0.7,0.5-1.5,0.4-2.3c0.4-0.2,0.9-0.1,1.3-0.1c0.4,0.2,0.2,0.7,0.4,0.9c0,0.2,0,0.4,0,0.5
		c-0.2,0.6,0.1,1.2-0.4,1.7c-0.1,0.1-0.3,0.3-0.3,0.3c1.2,2.6,1.1,2.9-1.5,5.1C63.9,92,63.4,91,62.7,90c0.7,0.1,0.9-0.6,1.4-0.9
		c0.3-0.4,0-1.1,0.4-1.4C65.7,86.7,63.6,87.5,64.1,87z"/>
	<path class="st151" d="M66.2,85.5c-0.4-0.2-0.4-0.5-0.4-0.8c-0.3-1,0.7-1.5,0.9-2.3c0.1-0.2,0.2-0.3,0.4-0.4c0.1,0,0.3,0,0.4,0
		c0.1,0.2,0.3,0.3,0.4,0.5c0.5,0.7,0.2,1-0.4,1.3C66.9,84.2,66.6,84.9,66.2,85.5z"/>
	<path class="st150" d="M62.7,93.2c0.5,0,0.9,0,1.4,0c0.5,0.7,0.5,1.5,0,2.2C63,95,63.2,93.9,62.7,93.2L62.7,93.2z"/>
	<path class="st152" d="M68.5,83.8c1.1,0.6,1,1.2,0,1.8c-0.3,0-0.7,0.1-0.8,0c-0.4-0.8,0.6-0.9,0.7-1.4c-0.1-0.1-0.1-0.2-0.1-0.3
		C68.4,83.9,68.5,83.8,68.5,83.8z"/>
	<path class="st48" d="M68.5,83.8c0,0.1,0,0.3,0,0.4c-0.4,0-0.7,0-0.9-0.4c0.1-0.4,0.3-0.8,0.4-1.3c0.3-0.5,0.6-0.1,0.9,0
		C68.8,82.9,68.7,83.4,68.5,83.8z"/>
	<path class="st153" d="M65.8,87.8c0.1-0.6-0.2-1.3,0.4-1.7C66.8,86.8,66.8,87.4,65.8,87.8z"/>
	<path class="st154" d="M75.6,70.9c-0.7-0.9,0-1.8,0-2.7c0-1.1,1-1,1.6-1.4c1.5-1.1,1-1.7-0.5-2.2c-0.2-0.4-0.2-0.8-0.1-1.2
		c0.6-0.5,1.2-1,1.2-2c0-0.5,0.2-1.1,0.9-0.8c0.7,0.8,0.7,1.9,1.1,2.8c0,1,1.3,1.1,1.4,2.1c0,0.2,0,0.4-0.1,0.6
		c-0.3,0.6-0.8,1-1.2,1.5c-0.3,0.4-0.8,0.7-0.5,1.3c0.1,0.2,0.4,0.2,0.6,0.2c0.7,0,0.8-0.6,0.9-1.1c0-0.1,0.1-0.3,0.1-0.4
		c0.2-0.3,0.4-0.5,0.8-0.4c0.5,0.6,0.7,4.2,0.2,4.6c-0.6,0.5-1.1-0.6-1.8-0.2c0,0-0.1,0.2,0,0.2c0.1,0.1,0.2,0.2,0.3,0.3
		c-0.4,0.7,0.1,2-1.3,1.8c-0.1-0.2-0.3-0.4-0.3-0.6C78.8,71.3,77.6,70.6,75.6,70.9z"/>
	<path class="st155" d="M85.9,67.3c-1.2,0.8-1.3,2.3-2.5,3.7c-0.2-1.7,1.2-3-0.2-4.1c-0.5-1.1,0.3-1.2,1-1.5
		c0.6-0.2,1.3-0.4,1.9,0.2C86.7,66.3,86.4,66.8,85.9,67.3z"/>
	<path class="st156" d="M85.9,67.3c-0.1-0.5,0.6-1.4-0.2-1.5c-0.9-0.1-2.1-0.3-2.5,1.1c-0.2,0-0.3,0-0.5,0c-0.5-0.6-0.5-1.2-0.3-1.9
		c1.4-0.8,3.1-0.2,4.6-0.9c0.7,0.5,1.1,1,0.6,1.9c-0.3,0.7-0.6,1.5-0.9,2.2c-0.1,0-0.3,0-0.4,0C86.3,67.9,86.2,67.5,85.9,67.3z"/>
	<path class="st157" d="M82.7,64.7c0,0.7,0,1.5,0,2.2c-0.3,0.2-0.6,0.3-0.9,0.5c-0.1,0.1-0.3,0.3-0.4,0.4C80,67.5,81.1,66.6,81,66
		c0-0.1,0-0.3,0-0.4c0.4-0.6,0.6-1.3,1.3-1.4C82.7,64.2,82.9,64.3,82.7,64.7z"/>
	<path class="st158" d="M75.6,70.9c1,0.5,0.6-1.7,1.8-0.9c1.5,1,2,2.3,1.8,4c-0.6-0.3-1.1-0.5-1.8-0.5
		C77.6,72.1,76.4,71.7,75.6,70.9z"/>
	<path class="st50" d="M76.5,76.2c0.3-0.9,0.2-1.9,0.9-2.7C77.9,74.7,78.2,75.8,76.5,76.2z"/>
	<path class="st159" d="M70.3,73.1c-0.2,0-0.3,0-0.5,0c-0.3,0.2-0.1,0.9-0.7,0.9c-0.4,0-0.5-0.4-0.5-0.8c0-0.2,0-0.4,0.1-0.6
		c0.4-0.8,1.5-1.7-0.6-1.9c-1-0.1-1.4-0.9-1.5-1.9c0.1-1.1,0.2-2.2,1-3c0.7-0.1,1.4,0,1.4-1c0-1.2,0.4-2.4,0.5-3.7
		c0.3-0.6,0.2-1.2-0.1-1.8c-0.4-0.6-0.3-1.2,0.4-1.6c0.2,0,0.4,0,0.6,0c1.1,1.1,1.8,2.3,1.3,3.9c0,0.1-0.1,0.3-0.1,0.4
		c0.7,1.9,0.5,3.8-0.4,5.6c0.4-0.3,0.2-0.6,0.2-1c0.1-0.6,0.3-1,1-1c0.6,0,0.9,0.6,0.8,1.1c-0.2,1.6,0.2,3.3-1.4,4.4
		c-0.4,0.3-0.5,0.9-0.8,1.3C70.9,72.8,70.6,73,70.3,73.1z"/>
	<path class="st160" d="M71.2,72.7c0.1-0.7-0.2-1.5,0.6-2c1.6-1,0.5-2.8,1.1-4.1c0-0.1-0.2-0.4-0.4-0.4c-0.3,0-0.6,0.2-0.6,0.5
		c0.1,0.6,0.2,1.2-0.5,1.6c-1-1.7,1.2-3.3-0.1-5.3c-0.8-1.1,0.7-3.5-1-5c-0.1-1.2,1.4,0,1.5-0.9c0.6-0.1,1,0.3,1.2,0.8
		c0.7,1.6,1,3.4,1.7,5.1c-0.4,1.2,0.1,2.1,0.7,3.1c0.5,0.8,0.9,1.6-0.2,2.2l0,0c-0.1,0.5-1.5-0.3-0.9,0.9c0.3,0.9,0.4,1.7-0.9,2.1
		c-0.7,0.2-1.2,1-1.8,1.5C71.5,72.7,71.3,72.7,71.2,72.7z"/>
	<path class="st50" d="M72.9,78.5c-0.1,0-0.3,0-0.4,0c0.1-0.5-0.2-1,0.2-1.4c0,0,0.3,0.1,0.4,0.1C73.5,77.7,73.5,78.1,72.9,78.5z"/>
	<path class="st161" d="M68.9,73.1c0.3,1.5,0.6-0.2,0.9,0c0.1,0.8,0,1.5-0.5,2.2c-0.1,0.9-0.5,1.3-1.4,1
		C67,74.4,67.1,73.9,68.9,73.1z"/>
	<path class="st162" d="M68.1,76.3c0.7,0,0.8-0.7,1.3-1c0.4,0.4,0.9-0.1,1.4,0.1c-0.5,0.8-0.9,1.4-1.4,2.1c-0.4,0-0.9,0-1.3,0
		C67.7,77.1,67.7,76.7,68.1,76.3z"/>
	<path class="st163" d="M68.1,76.3c0,0.4,0,0.8,0,1.2c-0.4,0.7-0.9,1.4-1.4,0.1c-0.2-0.5-0.5-1.1-1.1-0.6c-0.5,0.4-0.4,1.5-0.1,1.6
		c2,0.5,1.3,2.2,1.6,3.4c0,0.2,0,0.3,0,0.5c-0.3,0.2-2.9,0.7-3.3,0.7c-1.2-0.1-1.4-1-1.6-2c0.7-0.6,1.1-1.2,0.7-2.3
		c-0.3-0.8-1.5-2.1,0.5-2.6c0.1,0,0.1-0.4,0-0.6c-0.1-0.1-0.4-0.2-0.5-0.1c-0.5,0.3-0.9,0.6-1.4,1c-0.6-0.8,0.6-1,0.3-1.6
		c0,0,0,0,0,0c0.2-0.2,0.3-0.5,0.4-0.7c0.5-0.6,0.7-1.4,1.1-2c0.2-0.3,0.5-0.6,0.8-0.9c0.2-0.1,0.3-0.2,0.5-0.3
		c1.4-0.6,2.5,1.1,4,0.5c0.6-0.2,0.6,0.7,0.2,1.3c0,0.1,0,0.3,0,0.4C67.6,73.9,67.7,75,68.1,76.3z"/>
	<path class="st164" d="M75.2,68.2c0.8-1.1-0.2-1.7-0.6-2.5c-0.6-1-1.2-1.8-0.3-2.9c0.7-0.5,1-1.9,2.4-1.3c0.4,0.5,0.6,1.1,0.3,1.8
		c0,0.4,0,0.9,0,1.3c0,0.9,0.7,1.7,0.4,2.7c-0.4,0.6-1.4,0.1-1.8,0.9C75.5,68.2,75.3,68.2,75.2,68.2z"/>
	<path class="st164" d="M74.3,69.1c-0.5-0.3-0.9-0.6-0.7-1.4c0.5,0.2,1,0.7,1.7,0.5C74.9,68.5,74.6,68.8,74.3,69.1z"/>
	<path class="st107" d="M90.7,43.7c0.2,0.2-0.4,1.3,0.6,0.6c0.7-0.5,0.9-1.5,0.7-2.6c0.8,0.5,1.3,0.8,1.8,1.1c0,0,0,0,0,0
		c-0.6,1.2-0.1,2.1,0.8,2.9c0.7,0.7,0.5,1.5,0.1,2.2c-0.3,0.6-0.7,0.9-1.1,0.6c1.1,0.2,2-0.9,2.4-3.1c1.6-0.1,1.6,1.1,1.2,1.9
		c-1.2,2.4-1.8,5-2.5,7.6c-0.2,0.6-0.5,1.1-0.8,1.6c-0.2-1.4-1.9,0.1-2.3-1.1c-0.1-0.3-0.4-0.4-0.6-0.7c-0.3,0.2-0.6,0.4-0.9,0.4
		c-1.5-0.2-1.6-1.7-2.4-2.5c0.2-0.5,0.1-2.6,0-3.4c-0.1-0.4,0.1-0.7,0.4-0.9c1.4,0.5,1-2.5,2.7-1.4c-0.5-0.5-0.9-1-1.2-1.6
		c0,0,0,0,0,0c0-0.1,0-0.3,0-0.4C90.4,44.8,89.6,43.6,90.7,43.7z"/>
	<path class="st165" d="M96.1,45.5c0.1,0.6,1.4,1,0.3,1.8c-1.1,0.7-1.6,2.5-3,2.3c-0.7-0.1-1-1.4-0.8-2.4c0.9-0.1,0.7,0.9,1.4,1.1
		c0.5-1,1.2-1.8-0.3-2.7c-1.4-0.8-0.6-1.8,0.2-2.7c0,0.6,0.3,1.1,0.9,1.3C95.2,44.6,95.6,45.1,96.1,45.5z"/>
	<path class="st166" d="M90.8,58.4c-0.1,0.3-0.1,0.6-0.2,0.8c-0.8,2.3-1.2,2.4-2.9,0.5c-0.1-0.1-0.1-0.1-0.2-0.2
		c-0.3-0.4-0.4-0.9-0.5-1.3c0-0.7,0.9-0.9,0.8-1.7c0.1-0.4,0.3-0.7,0.7-0.9c0.5-0.1,0.8,0.2,1,0.5C89.2,57.3,90.1,57.8,90.8,58.4z"
		/>
	<path class="st167" d="M89.4,56.2c-0.3-0.1-0.6-0.3-0.9-0.4c-0.5,0.1-0.6-0.1-0.4-0.6c0.6-0.7,1.5,0.2,2.2-0.3c0.3,0,0.6,0,0.9,0
		C91.2,56.1,90.5,56.3,89.4,56.2z"/>
	<path class="st168" d="M87.6,39.7c-0.4,0.6-1.2,1.2,0.4,1.3c0.7,0.1,0.6,1.3,0.4,1.9c-0.6,1.5-0.7,3.2-2.2,4.3
		c-0.1,0.1-0.3,0.2-0.5,0.1c-0.2-0.1-0.3-0.2-0.5-0.3c-0.5-0.4-1.3-0.7-0.7-1.6c0.5-0.3,1.2,0.1,1.4-0.7c0-0.2-0.1-0.4-0.2-0.4
		c-1,0.1-2.2,0.8-2.7-0.5c-0.5-1.2,0.8-1.7,1.6-2.3c0.3-0.2,0.7-0.3,0.8-0.7c-0.4-1.2-1-2.2-0.2-3.5c0.5-0.9-0.6-1.7-0.7-2.7
		c-0.1-0.4-0.2-0.8,0-1.2c0.2-0.1,0.4-0.1,0.6,0c0.7,1.7,1.7,3,3.5,3.6C90.2,38.7,88.2,38.9,87.6,39.7z"/>
	<path class="st169" d="M85,33.5c-0.2,0-0.3,0-0.5,0c-0.5-0.3-0.7-0.9-1.2-1.1c-1.4,0-2.5-0.2-2.4-2c1.3,0,0.4-1.1,0.7-1.6
		c1.6-0.1,0.6,2.1,2,2c0.7-0.4,1.3-0.2,1.8,0.5c0,0,0,0,0,0C85.3,32,85.1,32.7,85,33.5z"/>
	<path class="st170" d="M87.6,39.7c0.1-0.5,0-1.1,0.6-1.3c1-0.3,0.5-0.8,0.2-1.3c1.4,0.1,1.8,0.9,1.8,2.2
		C89.4,39.5,88.8,41.5,87.6,39.7z"/>
	<path class="st171" d="M88.5,48.6c-0.9,1.1,0.6,1.4,0.7,2.2c0.1,0.4,0.8,0.8,0.5,1.3C89.3,53,89,51.8,88.5,52
		c-0.3,0.1-0.4,0.4-0.4,0.7c-0.9,0.6-1.4,0.3-1.9-0.5c0-0.1,0.1-0.3,0.1-0.4c0.1-0.2,0.4-0.4,0.4-0.7c-0.1,0.2-0.2,0.5-0.4,0.7
		c-0.4,0.7-1.8,0.4-1.6,1.6c0,0.2-0.1,0.4-0.1,0.6c-0.3,0.3-0.6,0.3-0.9,0.2c-0.8-1.2-1.7-2.4-1.2-4c0.5-0.7,1.2-0.9,2-0.6
		c1.9,0.4,1.3-1.6,2.2-2.2c0.6,0.2,1.9-0.9,1.8,0.9C88.7,48.4,88.7,48.5,88.5,48.6z"/>
	<path class="st172" d="M88.5,48.6c0-0.1,0-0.3,0-0.4c0.4-0.9,0.9-1.8,1.3-2.7c1.4,0.4,1.3,1.7,1.9,2.7c-1.2,0.2-0.8-0.9-1.4-1
		c-0.7,0.3-0.5,1.1-0.9,1.7C89,49.7,88.8,49.1,88.5,48.6z"/>
	<path class="st173" d="M86.7,47.3c-0.2,2.7-0.5,3.1-2.2,2.7c-0.1-0.7-0.8-1.2-0.8-2c0.2-1.6,1.5-0.4,2.1-0.8c0.1,0,0.3,0,0.4,0
		C86.4,47.3,86.6,47.3,86.7,47.3z"/>
	<path class="st103" d="M90.7,43.7c-0.3,0.4-0.6,0.9-0.9,1.3C90.1,44.6,89.2,43.4,90.7,43.7z"/>
	<path class="st174" d="M77.9,25c0.1-2-0.5-4.4,2.2-5.3c0,0.8,0.6,1.2,0.9,1.8c-0.7,0.9-0.2,1.8,0,2.7c-0.9,0.5-1,1.3-0.9,2.2l0,0
		c-0.3,0.5-0.7,0.9-1.3,0.4C78.4,26.2,78.2,25.6,77.9,25z"/>
	<path class="st123" d="M80.1,26.4c-0.4-0.5-1.1-0.8-0.8-1.6c0.3-0.9,1.1-0.5,1.7-0.6c1.8-0.2,0.5,1.4,1.6,1.9
		C81.4,26.3,80.6,25.4,80.1,26.4z"/>
	<path class="st175" d="M78.7,26.8c0.4-0.1,0.9-0.3,1.3-0.4c0.1,1.4,2,0.5,2.3,1.8c-0.2,0-0.5-0.1-0.7,0.1
		C79.5,29.5,79.5,29.5,78.7,26.8z"/>
	<path class="st176" d="M86.3,28.6C85,29.2,85,28.2,85,27.4c0-0.5,0.2-1,0.7-0.9C86.8,26.9,86.1,27.9,86.3,28.6
		C86.3,28.6,86.3,28.6,86.3,28.6z"/>
	<path class="st102" d="M85.4,31.3c-0.5-0.3-1.1-0.5-1.8-0.5c0-0.1,0-0.3,0-0.4c0.6,0,1.2,0,1.8,0C85.4,30.7,85.4,31,85.4,31.3z"/>
	<path class="st166" d="M87.6,59.8c-0.3,1.6,1.4,2.8,0.9,4.4c-2.4-0.6-2.9-1.7-1.9-4.5C87,59.5,87.3,59.5,87.6,59.8L87.6,59.8z"/>
	<path class="st93" d="M86.8,59.8c0,1.7-0.6,3.6,1.8,4.4c-0.6,0.4,0.5,1.7-0.9,1.8c-0.1-0.7-0.3-1.3-0.9-1.8c-1.1-0.6-1-1.7-1-2.6
		c0.1-0.9-0.1-1.8,0.8-2.3C86.8,59.3,86.9,59.5,86.8,59.8z"/>
	<path class="st177" d="M89.4,64.2c0.6-0.1,1.3-0.5,1.5,0.6c0.1,0.5,0.4,1.1-0.3,1.3c-0.8,0.3-0.7-0.5-0.9-0.9
		C89.6,65,89.5,64.6,89.4,64.2L89.4,64.2z"/>
	<path class="st178" d="M89.4,64.2c-0.7-0.8-0.6-1.6-0.1-2.6C90.4,62.6,89.3,63.4,89.4,64.2C89.4,64.2,89.4,64.2,89.4,64.2z"/>
	<path class="st179" d="M94.3,61.1c-0.4-0.1-1,0.2-1-0.4c0-0.3,0.2-0.8,0.6-0.7C94.5,60.2,94.3,60.7,94.3,61.1
		C94.3,61.1,94.3,61.1,94.3,61.1z"/>
	<path class="st180" d="M69.4,33.5c0.9,0.9,1.8-0.3,2.7,0c0.6,1.5-0.6,2.3-1.4,2.8c-1.3,0.8-1.3,1.6-0.8,2.8
		c0.3,0.6,0.3,1.3,0.3,1.9c-0.1,0.7-0.1,1.3,0.6,1.8c0.9,0.7,0.3,1.3-0.2,1.8c-0.2,0.2-0.5,0.3-0.7,0.5c-0.4,0.3-0.6,0.8-1.1,1
		c-0.2,0-0.4,0-0.6,0c-1.1-0.5-1.8-1-0.3-1.8c0.5-0.3,1-0.5,0.4-1.1c-1.3-1.3-1.3-3.2-2-4.7c0.4-0.9-0.5-2.6,1.5-2.7
		c-0.2-0.3-0.4-0.6-0.6-0.8c-0.1-0.7,1.3-0.4,0.9-1.3C68.5,33.5,68.9,33.5,69.4,33.5z"/>
	<path class="st181" d="M66.3,38.4c0.3,1.2,1.9,1.6,1.6,3.3c-0.2,0.9,1.2,1.3,1.9,2.1c-0.8,0.5-1.4,1.1-2.5,1.3
		c0.5,0.4,0.9,0.6,1.3,0.9c-0.2,0.6-0.3,1.3-0.4,1.9c-0.2,0.8-0.6,1.2-1.4,1c-0.7-0.1-1.4-0.4-1.3-1.2c0.2-1.3-0.9-1.9-1.4-2.9
		c0-2.2,1.7-3.6,2.3-5.6C66.3,39,66.3,38.7,66.3,38.4z"/>
	<path class="st182" d="M66.3,39.3c0.2,0.8,0.4,1.5-0.5,2.3c-0.8,0.7-1.2,2-1.7,3.1c-0.4,0.6-0.1,1.7-1.2,1.9c-0.2,0-0.4,0-0.6-0.1
		c-1-1.1-1.1-2.3-0.3-3.6c0.6-1.2,1.5-2.2,2.5-3.1C65,39.4,65.6,39.2,66.3,39.3z"/>
	<path class="st115" d="M64.5,39.7c-0.2,1.4-1.3,2.2-2.2,3.1C62.2,42.9,62.1,43,62,43c-0.1-0.1-0.1-0.1-0.2-0.2
		c-0.3-0.9-0.8-1.6,0.7-2.2c0.9-0.3,1.4-1.8,2-2.7C64.5,38.6,64.5,39.1,64.5,39.7z"/>
	<path class="st183" d="M68,33.5c0.6,1-0.4,1-0.9,1.3c-0.5-0.3-0.6-0.8-0.2-1.3C67.2,33.1,67.7,33.4,68,33.5z"/>
	<path class="st60" d="M63.6,36.2c0-0.4,0-0.9,0-1.3c0.6,0.2,1.7-0.4,1.6,0.8C65.2,36.5,64.2,36.1,63.6,36.2z"/>
	<path class="st184" d="M69.8,41.1c-0.7-1-0.2-2.4-1.3-3.4c-0.7-0.7,0.3-1,0.7-1.2c1.4-0.6,2.3-1.6,2.8-3c-0.3-0.6-1.1-0.2-1.6-0.9
		c1.3-0.3,2.4-1.4,3.8-0.4c0,0,0,0,0,0c-0.2,0.5-0.3,1.1-0.7,1.5c-0.1,0.4,0.2,0.5,0.5,0.5c0.6,0,1.3,0,1.2,0.9
		c-0.2,1.8,0.7,3.1,1.8,4.3c-2,0.9-3.6,2.4-5.6,3.4C70.1,43.4,70.3,41.8,69.8,41.1z"/>
	<path class="st62" d="M69.8,23.7c0.4,0.1,0.9,0.2,0.8,0.8c0,0.1-0.3,0.4-0.4,0.3C69.7,24.6,69.9,24.1,69.8,23.7
		C69.8,23.7,69.8,23.7,69.8,23.7z"/>
	<path class="st185" d="M81,30.4c0.4,1.4,1.6,1.3,2.7,1.3c0.1,1.4-0.4,2.5-1.9,2.7c-1.5,0.2-2.4-0.7-2.8-2.1c0.3-0.8,1.3-1,1.6-1.9
		C80.7,30.4,80.8,30.4,81,30.4z"/>
	<path class="st169" d="M80.5,30.4c0.3,1.2-0.6,1.4-1.4,1.8c-0.1,0.1-0.3,0.1-0.4,0c0-0.3,0-0.6,0-0.9
		C79.3,30.9,79.4,29.7,80.5,30.4z"/>
	<path class="st169" d="M78.7,31.3c-0.9-0.7-0.9-1.7-0.9-2.7C79.3,29.1,78.3,30.4,78.7,31.3z"/>
	<path class="st65" d="M77,39.3c-2-0.7-2.4-2.2-2.2-4c0.2-1.6-0.6-0.3-0.9-0.4c-0.4-0.3-0.5-0.9-0.9-1.3c0.4-0.4,0.9-0.9,1.3-1.3
		c0.8,1,1.6,2.8,2.9,0.3c0.3-0.5,0.8,0,1.2,0.1c0.9,0.1,1.3,0.6,1.7,1.3c0.6,1.4,2.2,1.2,3.2,2.2c0.9,0.9,1.4,1.6-0.3,2
		c-2.3,0.5-2.7,2.7-3.6,4.3C77.6,42,77.9,40.2,77,39.3z"/>
	<path class="st186" d="M79.6,34c-0.4-0.4-0.9-0.9-1.3-1.3c0-0.2,0-0.3,0-0.5c0.2,0,0.3,0,0.5,0c0.1,0,0.3,0,0.4,0
		c2.1,2.7,3.1,2.6,4.4-0.4c0.5,0.5,1,0.9,0.9,1.8c0.1,0.3,0.3,0.6,0.4,0.9c-0.1,0.1-0.2,0.2-0.2,0.4c-0.2,0.6,0.5,1.5-0.3,1.8
		c-0.8,0.3-1.3-0.4-1.9-0.9C81.7,35,80.2,35.2,79.6,34z"/>
	<path class="st115" d="M60.5,46.4c-0.1,0.4-1.2,0.1-0.7,0.9c0.6,1-0.2,1.8-0.2,2.7c-1.6-1.3-0.8-3.2-1.1-4.8
		c-0.4-1.7,0.3-2.7,1.8-2.6c0.5,0,1,0.2,1.5,0.3c0,0,0,0,0,0c-0.1,1.1-0.6,2.1-0.9,3.1C60.8,46.1,60.7,46.3,60.5,46.4z"/>
	<path class="st187" d="M59.6,51.3c-0.3,1.3,0,2.7-1.3,3.6C58.2,53.5,56.7,51.6,59.6,51.3z"/>
	<path class="st188" d="M61.4,58c-0.2-0.3-0.3-0.6-0.5-0.9c0.1-0.4,0.7-0.9,0-1.3c0-0.6-0.1-1.3,0.9-1.4c0.1,0,0.3,0,0.4,0
		c0.9-0.2,0.2-0.9,0.4-1.2c0.8-0.7,1.1-1.5,0.6-2.5c-0.6-1.2-0.6-2.4,0.4-3.4c1.2,0.4,1.8,1.6,3.1,1.9c0.8,0.2,0.5,0.9,0.5,1.5
		c-0.1,0.7-0.6,1.3-0.1,2.1c0,0.2,0.4-0.2,0.1,0c-0.1,0.1-0.2,0-0.2-0.1c-0.1-1,0-1.9,0.7-2.7c0.2-0.2,0.6-0.2,0.8,0
		c0.8,0.9,0.2,1.8,0,2.7c-0.3,1.4-1.2,2.5-1.7,3.8c-0.7,0.8,0.6,0.8,0.5,1.3c0.1,0.2,0,0.4,0,0.6c-0.2,0.4-0.8,0.6-0.7,1.1
		c0.4,2.2-0.8,3.2-2.5,3.9c-1.5-0.9-0.8-1.8,0-2.7c0.9-0.9,1.2-1.7-0.2-2.4c-1.1-0.5-0.7-1.4-0.8-2.4C62.4,56.7,61.9,57.3,61.4,58z"
		/>
	<path class="st189" d="M64,63.3c0-0.5,0.2-1,0.8-1.2c0.8-0.4,1.1-1.4,0.8-2.2c-0.5-1.4,1.3-1.1,1.6-2c0.3-0.2,0.6-0.3,0.9-0.1
		c0.9,0.9,1.7,1.9,1.8,3.3c0.6,1.6-0.2,3.1-0.5,4.6c-0.1,0.6-0.7,1.2-1.3,0.3c-0.2-0.6-0.4-1.1-1.3-1.1c-1,0-2-0.4-2.7-1.1
		C64.1,63.6,64,63.5,64,63.3z"/>
	<path class="st190" d="M64.1,63.8c1.2,0.2,2.5,0.4,3.7,0.7c1.4,0.3,0.4,1,0.3,1.5c-0.6,1-0.8,2-0.9,3.1c-1.7-0.2-1.6,1.7-2.7,2.2v0
		c-1.1,0.2-0.9-0.8-1.3-1.3c0-0.2,0-0.3,0-0.5c0.7-1.7,1.7-3.4,0.9-5.3C64.1,64.1,64.1,63.9,64.1,63.8z"/>
	<path class="st191" d="M64.1,64.2c1.4,1.3,1,4-0.9,5.3c-0.4-0.3-0.5-0.7-0.4-1.2C63.2,67,63.6,65.6,64.1,64.2z"/>
	<path class="st190" d="M62.3,74.5c-0.1,0.1-0.3,0.3-0.4,0.4c0-0.6,0-1.2-0.1-1.8C61.7,72,62,71,63.2,70.5c0.4,0.2,0.7,0.5,0.6,1
		C63,72.3,63.1,73.6,62.3,74.5z"/>
	<path class="st161" d="M63.6,71.4c-0.1-0.3-0.3-0.6-0.4-0.9c0-0.1,0-0.3,0-0.4c0.4,0.4,0.9,0.9,1.3,1.3c-0.2,0.4-0.4,0.7-0.9,0.9
		C63.3,71.9,63.4,71.7,63.6,71.4z"/>
	<path class="st182" d="M63.6,47.3c-0.1,1.2-0.5,2.4,0.3,3.7c0.9,1.3,0.1,2.1-1.2,2.6c0.1,0.4-0.1,0.5-0.5,0.4
		c-1.5-2.3-0.6-5.2-1.8-7.6c0-0.1,0-0.3,0-0.4c0.4-0.7,0.8-0.7,1.3-0.1c0.2,0.3,0.4,0.8,0.9,0.5l0,0C63.4,46.3,63.8,46.6,63.6,47.3z
		"/>
	<path class="st74" d="M61.8,54.4c-0.3,0.5-0.6,0.9-0.9,1.4c-0.9-0.9,0-1.4,0.5-1.9C61.7,53.6,61.8,54.1,61.8,54.4z"/>
	<path class="st192" d="M62.3,54c0.2-0.1,0.3-0.3,0.5-0.4c0.4,0.4,1,1,0.6,1.4c-0.5,0.6-0.8-0.2-1.1-0.6
		C62.3,54.3,62.3,54.1,62.3,54z"/>
	<path class="st193" d="M62.3,81.2c0.6,0.6,0.8,1.6,1.8,1.8c0.1,0.1,0.2,0.2,0.1,0.2c0,0.1,0,0.1-0.1,0.1c-0.3,0.7-0.7,0.8-1.3,0.5
		c0-0.6-0.3-0.9-0.9-0.9C62.4,82.5,61.5,81.6,62.3,81.2z"/>
	<path class="st194" d="M60.5,81.1c0.1-0.3,0.1-0.7,0.2-1c0.2,0.1,0.4,0.1,0.5,0.3C61.4,81,60.9,81.1,60.5,81.1
		C60.5,81.1,60.5,81.1,60.5,81.1z"/>
	<path class="st195" d="M61.4,88.7c0-0.5,0-1,0-1.5c0-0.4-0.1-1,0.5-0.9c0.5,0.1,0.3,0.7,0.4,1.1c0.3,0.6,0.1,1-0.5,1.2
		C61.6,88.7,61.5,88.7,61.4,88.7z"/>
	<path class="st196" d="M61.8,88.7c0.2-0.4,0.4-0.8,0.5-1.2c0.7,0.6,0.3,1.4,0.4,2.2C62.1,89.6,61.8,89.3,61.8,88.7z"/>
	<path class="st197" d="M62.7,93.2c-0.4-0.1-0.9,0-1-0.6c0-0.1,0.2-0.2,0.3-0.2C62.6,92.3,62.7,92.7,62.7,93.2
		C62.7,93.2,62.7,93.2,62.7,93.2z"/>
	<path class="st198" d="M60,89.1c0-0.1,0-0.3,0-0.4c0.4,0,0.9,0,1.3,0C61.3,89.8,60.7,89.5,60,89.1z"/>
	<path class="st199" d="M64.1,83.3c0-0.1,0-0.3-0.1-0.4c0.9-1.2,1.3-0.4,1.7,0.7c0.2-1-0.1-2.5,1.4-1.2c0.1,1-1,1.4-1.3,2.2
		c-0.4,0.3-0.9,0.3-1.3,0C64.5,84.2,64.6,83.7,64.1,83.3z"/>
	<path class="st200" d="M64.1,87c1,0.2,1,0.2,0,2.2C64.1,88.4,64.1,87.7,64.1,87z"/>
	<path class="st156" d="M76.5,61.6c-1,0-1.1,1.5-2.2,1.3c0-0.3,0.1-0.7-0.1-0.8c-0.6-0.4-0.2-0.8-0.7-1.3c-1-1.1-0.3-3-1.9-3.6
		c0-0.1-0.1-0.2-0.1-0.3c0-0.2,0.1-0.4,0.2-0.6c0.7-0.9,0.5-1.5-0.4-2.1c-0.8-0.5-1.2-1.3-0.5-2.2c0.2-0.1,0.4-0.2,0.6-0.4
		c2.3-1.8,2.3-1.8,3.2,1.1c0.1,0.2,0.1,0.4,0.2,0.6c0.1,0.4,0.1,0.8,0.2,1.2c0.1,1.3,1.2,1.2,2.1,1.6c0.5,0.5-0.7,2.2,1.2,1.6
		c1-0.2,1.4-1.4,2.5-1.4c0.3,0,0.7,0,1,0.1c0.8,0.6,2,1,0.9,2.3c-2.5,0.8-2.1,3.1-2.6,4.9c-0.1,0.1-0.2,0.1-0.2,0.2
		c-0.6-1-0.8-2-0.9-3.1C77.6,60,77.4,61.7,76.5,61.6z"/>
	<path class="st156" d="M81,66c0.6,0.5-0.3,1.3,0.4,1.8c-0.1,0.7,0.4,1.8-0.8,1.9c-0.6,0-1.4,0.7-2-0.1c-0.5-0.8,0.3-1.2,0.6-1.7
		C79.7,67.2,80.4,66.6,81,66z"/>
	<path class="st201" d="M76.5,61.6c1.1,0.3,0.3-3.6,2.4-1.1c0,0-0.1,0.1-0.1,0.2c-0.6,0.4-0.4,1-0.3,1.6c0.1,1.1-0.3,1.5-1.4,1.1
		C76.7,62.8,76.4,62.2,76.5,61.6z"/>
	<path class="st156" d="M77.4,67.3c-0.4-0.8-1.6-1.6-0.4-2.7c0.7,0,1.6-0.9,1.9,0.4C79.3,66.4,78.1,66.7,77.4,67.3z"/>
	<path class="st156" d="M82.3,64.2c-0.3,0.6-0.7,1-1.3,1.3c0-1-1.4-0.8-1.4-1.8c0,0,0,0,0,0c0.9-0.6,1.6-0.1,2.4,0.2
		C82.1,64.1,82.2,64.1,82.3,64.2z"/>
	<path class="st202" d="M82.3,58.4c1-1.2-0.7-1.1-0.9-1.8c-0.5-0.8,0-1,0.7-1.2c1.2,0.1,2.3,0.4,3,1.4c0.4,0.7,0.2,1.5,0.1,2.2
		c-0.2,1.1,0.2,1.9,1,2.5c0,0.9,0,1.8,0.5,2.7c-1.2,1.4-2.5,1.5-4,0.4c-0.2-0.1-0.3-0.3-0.5-0.4c0,0,0,0,0,0
		C79.5,62.1,79.5,60.8,82.3,58.4z"/>
	<path class="st161" d="M64.5,71.3c0.6-1.3,1.1-2.6,1.7-3.8c1.1,0.2-0.3,1.6,1,1.6c0.1,0.7,0.4,1.3,1.2,1.3c0.7,0,1.5-0.6,1.8,0.5
		c0.3,1-0.5,1.4-1.2,1.8c-0.3-1-0.5-1.1-0.8-0.5c-0.3,0.7-0.6,0.6-1.1,0.5c-0.8-0.2-0.3-0.6-0.2-0.9c0.1-0.5-0.5-0.7-0.5-0.7
		C65.9,72.6,65.1,71.2,64.5,71.3z"/>
	<path class="st203" d="M69.8,61.1c-0.9-0.9-1.4-1.9-1.8-3.1c-0.5-0.8,0-1.2,0.7-1.5c0.7,0.3,0.8,0.9,1.1,1.5c-0.5,0.6,0,1,0.3,1.5
		C70.6,60.1,70.8,60.8,69.8,61.1z"/>
	<path class="st204" d="M69.9,58C69,58,68.9,57.3,69,56.7c1-0.3,2-0.8,2.7,0.4c0,0,0,0,0,0c0.4,1.7-1.2,0.2-1.4,0.9
		C70.1,58,70,58,69.9,58z"/>
	<path class="st205" d="M68.9,69.2c-0.4,0-0.4-0.3-0.4-0.6c0-0.4,0.1-0.7,0.5-0.8c0.3,0,0.6,0,0.6,0.4C69.7,68.7,69.3,69,68.9,69.2z
		"/>
	<path class="st160" d="M70.3,65.5c0.1-0.3,0-0.9,0.2-0.9c0.7-0.3,0.3,0.3,0.3,0.5c0,0.2-0.1,0.4-0.2,0.5
		C70.5,65.6,70.4,65.5,70.3,65.5z"/>
	<path class="st136" d="M63.6,71.4c0,0.3,0,0.6,0,0.9c-0.3,0.8-0.1,2-1.3,2.2C62.8,73.5,62.3,72,63.6,71.4z"/>
	<path class="st135" d="M64.8,80.8c-0.2,0.5-0.6,0.7-1,0.7c-0.2,0-0.4-0.2-0.2-0.4c0.2-0.3,0.5-0.7,1-0.6
		C64.6,80.5,64.7,80.7,64.8,80.8z"/>
	<path class="st206" d="M65.2,74.4c-0.1,0.6-0.3,1.2-0.4,1.8C64.6,75.5,64.3,74.9,65.2,74.4z"/>
	<path class="st173" d="M86.3,51.8c0.3,0.8,1,0.9,1.8,0.9c1.2,0.3,1,2,2.2,2.2c-0.6,0.7-1.5,0.3-2.2,0.4c-1-1-1.7-2.5-3.6-1.8
		C83.9,51.8,83.9,51.8,86.3,51.8z"/>
	<path class="st59" d="M84.5,53.5c0.1-0.6,0.1-1.6,0.8-1.2c1.1,0.7,2.9,1,2.8,2.9c0.1,0.2,0.3,0.3,0.4,0.5c-0.2,0.3-0.3,0.6-0.5,0.9
		c-1.1,0.5-1.7-1.3-2.8-0.6C83.4,55.6,85,54.3,84.5,53.5L84.5,53.5z"/>
	<path class="st167" d="M85.4,55.8c0.4-0.5,0.7-1.4,1.3-0.2c0.3,0.6,0.8,0.8,1.3,1.1c0.4,0.9-0.9,1-0.9,1.8c-0.1,0-0.2,0.1-0.3,0.1
		c-0.7,0-1.2-0.3-1.3-1.1C85.6,56.9,85.5,56.3,85.4,55.8z"/>
	<path class="st167" d="M86.8,59.8c0-0.2,0-0.3,0-0.5c-0.2-0.5,0.1-0.7,0.4-0.9c0,0,0,0,0,0c0.5,0.3,0.4,0.9,0.4,1.3
		C87.3,59.8,87.1,59.8,86.8,59.8z"/>
	<path class="st207" d="M79.6,34c1.5,0.7,3.2,1.2,4.6,2.7c0.3-0.9-0.4-1.9,0.8-2.2c0.2,1.5,2,2.7,0.2,4.5c-0.5,0.5,1.1,1.2,1.1,2.2
		c-0.3,0.5-0.7,0.6-1.3,0.7c-1.6,0.1-2.5,1.1-2.7,2.6c-0.3,1.9-1.4,3.5-2.7,4.9c-0.4,0.4-0.8,1-1.5,0.6c-0.6-0.3-0.7-0.9-0.5-1.5
		c0.5-0.7,0.5-1.6,0.6-2.4c0.4-0.5,0.6-1.3,1.4-1.4c0.4,0.6,0.8,0.4,1.2,0c0.1-0.1,0.2-0.1,0.1,0c-0.4,0.1-0.6,0.6-1.1,0.3
		c-0.8-0.9-2.2,0.4-2.9-0.9c-0.1-0.2-0.1-0.4,0-0.6c0.5-0.5,1.2-0.5,1.8-0.5c0.2-0.1,0.5,0,0.5-0.4c0.4-3.6,1.8-4.6,4.5-5.1
		c-0.8-0.9-1.7-1.6-2.9-1.8C80,35.3,79.5,34.9,79.6,34z"/>
	<path class="st161" d="M77.8,48.2c0,0.5-0.1,1,0.4,1.4c0.5-0.8,1.8-0.8,2-1.9c0.3-1.5,2.2-2.6,1.5-4.5c-0.1-0.2,1.5-1.7,2.9-1.7
		c0.6,0,1.2-0.2,1.7-0.4c-0.1,1.4-2.3,0.4-2.2,2.1c0,0.1-1.2-0.2-0.7,0.7c0.3,0.5,0.9,0.2,1.4,0.3c0.6,0.1,0.6-1.8,1.5-0.5
		c0.5,0.6,0.6,1.3,0.3,1.9c-0.6,1-1.4,0.3-2.1,0.1c-0.5,0.6-1.2,0.2-1.7,0.7c-0.2,0.3-0.4,0.6-0.5,0.9c-0.1,0.2-0.2,0.3-0.2,0.5
		c-0.3,0.6-0.6,1.2-0.8,1.9c-0.4,1.3-1.3,2.3-2.2,3.2c-1.8,1.8-2.4,1.6-3.6-0.7c0-0.8,1.1-1.4,0.5-2.4c-0.5-0.6-1.3-0.3-1.9-0.7
		c-0.2-0.1-0.3-0.3-0.3-0.5c0.1-0.2,0.2-0.4,0.4-0.5C75.4,47.1,76.6,47.4,77.8,48.2z"/>
	<path class="st171" d="M85.9,47.3c-0.1,0.8,0.1,1.9-1.1,0.5c-0.5-0.6-0.6,0.1-0.7,0.5c-0.2,0.1-0.5,0.1-0.6-0.1
		c-0.2-0.7-0.1-1.2,0.6-1.5c0.6,0.1,1.2-0.1,1.8,0.3C85.9,47,85.9,47.1,85.9,47.3z"/>
	<path class="st103" d="M85.8,46.9c-0.6,0-1.2,0-1.8,0c-0.2-0.3-0.6-0.3-0.9-0.4c-0.3-0.1-0.7-0.2-0.9-0.5c0.5-1.4,1.5,0,2.2-0.4
		C84.4,46.5,85.5,46.3,85.8,46.9z"/>
	<path class="st208" d="M80.9,49.1c0.1-0.7,0.4-1.3,0.9-1.8c1.1,0.5,0.9,1.5,0.9,2.4c0,0.1,0,0.2,0,0.3c-0.1,1.5,0.8,2.7,1.3,4
		c0.5,1.6-1.3,1.1-1.8,1.8c-0.6,0-0.9,0.3-0.9,0.9c-0.3,0-0.6,0-0.9,0C79.7,54.1,80.7,51.6,80.9,49.1z"/>
	<path class="st173" d="M82.3,55.8c0.1-0.6-0.2-1.5,1-1.1c0.6,0.2,0.7-0.2,0.8-0.7c0.1-0.1,0.3-0.3,0.4-0.4c1.1,0.4-0.5,1.9,0.9,2.2
		c1.5,0.3,0.7,1.1,0.4,1.8c-0.5,0.3-0.6-0.2-0.9-0.5C84.2,56.3,83.1,56.4,82.3,55.8z"/>
	<path class="st208" d="M83.6,48.2c0.1,0,0.3,0,0.4,0c0,0.6,1.4,0.9,0.4,1.8c-0.6-0.4-1.2,0-1.8,0l0,0
		C82.4,49.1,82.3,48.3,83.6,48.2z"/>
	<path class="st173" d="M86.3,51.8c0.1-0.9,0.1-1.6,0.8-1.9c0.1,0,0.4,0.2,0.4,0.4C87.8,51.3,86.8,51.4,86.3,51.8z"/>
	<path class="st209" d="M85,57.1c0.3,0.2,0.6,0.3,0.9,0.5c0.4,0.3,0.9,0.6,1.3,0.9c-0.1,0.3-0.3,0.6-0.4,0.9
		c-0.8,0.6-0.3,1.5-0.5,2.2c-1.3,0-2-0.4-1.6-1.9C84.9,58.9,84.9,58,85,57.1z"/>
	<path class="st210" d="M71.6,57.1c-0.8-0.5-1.8-0.4-2.7-0.4c-0.6,0.2-0.9,0.7-0.9,1.3c-0.3,0-0.6,0-0.9,0c0,0,0,0,0,0
		c-0.2-0.5-0.3-1.1-0.9-1.3c0.1-2.3,2.4-4,2-6.7c-1.1,0.9-1,2-1.2,3.1c-0.1,0-0.3-0.1-0.3-0.1c0.9-3-1.7-4-3.2-5.6
		c-0.3-0.3-0.6-0.6-0.9-0.9c0.6-0.5,0.7-1,0.6-1.8c-0.1-0.7,0.5-0.9,0.7,0.1c0.8,0.9,2.7,1.2,1.7,3.1c-0.3,0.5,0.5,0.6,0.9,0.8
		c0.5,0.2,0.8-0.1,1-0.6c0.2-0.7-0.4-1.8,0.9-1.9c0,0,0,0,0,0c1.4,0.3,0.3-1.1,0.9-1.3c0.3,0,0.6,0,0.9,0c0.2-0.1,0.4-0.1,0.6,0
		c0.7,0.7,0.1,2.3,1.7,2.5c0.2,0,0.4,0,0.6,0.1c0.4,0.2,0.9,0.3,0.8,1l0,0c-1.1,0.7-1.9,1.9-3.3,1.9c-0.7,0-0.4,0.5-0.4,0.7
		c0,1.4-0.5,2.9,1.1,3.9c0.6,0.4,0.8,1.2,0.5,2C71.7,56.8,71.6,57,71.6,57.1z"/>
	<path class="st211" d="M70.7,44.7c-0.1,0-0.3,0-0.4-0.1c0-0.6,1.1-1.3-0.3-1.7c-1-0.3-0.4-1.2-0.1-1.8c0.8,0.2,0.8,1,1.2,1.5
		c2-1.2,3.3-3.4,6-3.3c1.7,0.4,1.5,2.1,2.2,3.1c0.3,0.2,0.3,0.3,0,0.4c-0.6,0.7-1.6-0.4-2.2,0.4c0,0.1,0,0.3,0,0.4
		c0.3,0.8-0.7,1-0.8,1.7c-0.4,2.3-0.6,2.3-3.2,1.9l0,0C72.8,45.9,71.5,45.5,70.7,44.7z"/>
	<path class="st181" d="M69.4,44.6c0.1,0.8,0.2,1.5,0.4,2.3c-0.8,0.1-1-0.5-1.3-0.9C68.8,45.5,69.1,45.1,69.4,44.6z"/>
	<path class="st133" d="M62.7,46.4c-0.1,1.1-0.5,0.5-0.9,0.2c-0.4-0.3-0.5-1.1-1.3-0.6c0.1-1.2,0.6-2.2,1.3-3.1c0.1,0,0.3,0,0.4,0
		C61.8,44.1,61.8,45.3,62.7,46.4z"/>
	<path class="st212" d="M73,33.5c0.9,0,0.9,0.7,0.9,1.3C72.9,34.8,72.5,34.4,73,33.5z"/>
	<path class="st213" d="M78.9,35.7c0.6,0.1,1.2-0.1,1.3,0.5c0.1,0.4-0.2,0.8-0.5,0.8c-1,0.2-1.1,1.8-2.4,1.7c-0.7-0.1-1.7-0.6-1.1-1
		C77.1,37,77.9,35.9,78.9,35.7z"/>
	<path class="st189" d="M66.3,56.7c0.9,0,0.9,0.7,0.9,1.3c-0.4-0.2-0.7-0.5-1.2-0.7C65.2,56.9,65.9,56.7,66.3,56.7z"/>
	<path class="st214" d="M80.9,49.1c0.4,2.6-0.1,5-0.5,7.6c-1,0.1-0.8,2-2.2,1.4C78,57.7,78,57.5,78,57.1c0.2-0.8,0.5-1.7-1-1.5
		c-1,0.1-1.9-0.4-2.7-0.8c0-0.4,0-0.9,0-1.3c0.1-0.8-0.5-2.2,1.3-1.8c0.9,1.9,2,2,3.2,0.3C79.6,51.1,80.2,50.1,80.9,49.1z"/>
	<path class="st215" d="M71.7,56.7c0.1-1.5-1.9-1.7-2-3.2c-0.3-3.6,0.4-4.5,4.1-5.3c0,0.1,0,0.3,0,0.4C74,48.7,74,48.9,74,49
		c0,0.1,0,0.2,0,0.2c-1.4,0.6-1.9,2.2-3.2,3c0,0.7-0.1,1.2,0.9,1.6C73.3,54.5,73.2,55.6,71.7,56.7z"/>
	<path class="st216" d="M70.7,52.2c0.5-1.5,1.4-2.8,3.1-3.1c0.9,0.7,1.8-0.6,2.7,0c0.1,1,0.7,2.2-0.9,2.7c-1.1,0.1-0.8,1.2-1.3,1.8
		c-0.4-1-0.7-2-1.1-3.2C72.7,51.4,72.1,52.4,70.7,52.2z"/>
	<path class="st157" d="M82.3,58.4c0,0.1,0,0.2-0.1,0.2c-2.2,1.9-1.4,3.7,0.1,5.6c-0.9,0.1-1.8-0.3-2.7-0.5c0-1.5-0.2-3,0.7-4.2
		C80.8,58.9,81.3,58.3,82.3,58.4z"/>
	<path class="st117" d="M74.3,54.9c1.2-0.3,2.3,0.3,3.5,0.2c1.1-0.1,1.7,1,0.5,2c-0.8,0.2-0.9-0.5-1.3-0.9
		C75.6,56.7,74.7,56.2,74.3,54.9z"/>
	<path class="st217" d="M77,56.2c0.7-0.1,0.9,0.7,1.3,0.9c0,0.3,0,0.6,0,0.9c-0.6,0.1-0.9,1.2-1.6,0.5C76,57.8,76.4,56.9,77,56.2z"
		/>
	<path class="st218" d="M75.1,58.5c0.7,0.6,1.1,1.1,0.8,1.8c-0.1,0.3-0.5,0.4-0.8,0.2C74.5,60,74.6,59.3,75.1,58.5z"/>
	<path class="st219" d="M72.9,47.3c1.4-0.1,3,0,2.7-2.2c1.2-0.7,1.9,0.1,2.7,0.9c0.3,0.8,1.1,1.8-0.5,2.2c-1.3,0.2-2.6-0.6-4,0
		C73.6,47.9,73.3,47.6,72.9,47.3z"/>
	<path class="st65" d="M78.3,46c-1.1,0.3-1.6-1.2-2.7-0.9c0.4-0.4,0.9-0.9,1.3-1.3c0.7,0.4,1.3,0.5,2.1,0.1c0.8-0.4,0.8,0.2,0.6,0.8
		v0C79,44.9,79.3,46.1,78.3,46z"/>
	<path class="st65" d="M77,43.3c-0.2-0.6-0.5-1.3,0.6-0.9c0.6,0.2,1,0.5,1.7,0.5C78.6,43.6,77.7,43.2,77,43.3z"/>
	<path class="st161" d="M79.6,44.6c0.7,0.1,0.7-0.7,1.2-0.9c0.2,0.7,0.1,1.4-0.6,1.6C79.7,45.5,79.7,45,79.6,44.6
		C79.6,44.6,79.6,44.6,79.6,44.6z"/>
	<path class="st173" d="M83.6,48.2c-0.8,0.3-0.9,1-0.9,1.8c-0.8-0.7-0.2-1.9-0.9-2.7c0-0.1,0-0.3,0.1-0.4c0.5-0.5,1.2-0.4,1.7-0.9
		c0.4,0.2,0.4,0.5,0.4,0.9C83.6,47.2,83.7,47.7,83.6,48.2z"/>
	<path class="st220" d="M76.5,49.1c-0.9-0.1-1.8,2.1-2.7,0c0-0.2,0-0.3,0-0.5C74.7,48.8,75.7,48.2,76.5,49.1z"/>
	<path class="st171" d="M83.6,46c-0.3,0.8-1,0.9-1.7,0.9c0.1-0.3,0.2-0.6,0.3-0.9C82.7,46,83.2,46,83.6,46z"/>
	<path class="st219" d="M70.7,44.7c1.6,0.1,2.4,1,2.3,2.6c-0.9,0.7-1.6,1-1.9-0.6C71,46.1,70.8,45.4,70.7,44.7z"/>
</g>
</svg>
