<?xml version="1.0" encoding="utf-8"?>
<!-- Generator: Adobe Illustrator 25.0.0, SVG Export Plug-In . SVG Version: 6.00 Build 0)  -->
<svg version="1.1" id="Layer_1" xmlns="http://www.w3.org/2000/svg" xmlns:xlink="http://www.w3.org/1999/xlink" x="0px" y="0px"
	 width="105.5px" height="129px" viewBox="0 0 105.5 129" style="enable-background:new 0 0 105.5 129;" xml:space="preserve">
<style type="text/css">
	.st0{display:none;}
	.st1{display:inline;fill:#27316D;}
	.st2{display:inline;fill:#283779;}
	.st3{display:inline;fill:#E6E9F6;}
	.st4{display:inline;fill:#E4E9F6;}
	.st5{display:inline;fill:#28377A;}
	.st6{display:inline;fill:#EBF0F9;}
	.st7{display:inline;fill:#E8ECF7;}
	.st8{display:inline;fill:#28387A;}
	.st9{display:inline;fill:#283678;}
	.st10{display:inline;fill:#232963;}
	.st11{display:inline;fill:#263A7D;}
	.st12{display:inline;fill:#27326E;}
	.st13{display:inline;fill:#28316E;}
	.st14{display:inline;fill:#E4E8F5;}
	.st15{display:inline;fill:#283270;}
	.st16{display:inline;fill:#ADBAC9;}
	.st17{display:inline;fill:#7E8EAF;}
	.st18{display:inline;fill:#EAEDEF;}
	.st19{display:inline;fill:#5E709B;}
	.st20{display:inline;fill:#E6E8EB;}
	.st21{display:inline;fill:#8695B4;}
	.st22{display:inline;fill:#7D8DAD;}
	.st23{display:inline;fill:#27306B;}
	.st24{display:inline;fill:#DFE6F4;}
	.st25{display:inline;fill:#7F8EAF;}
	.st26{display:inline;fill:#ABB8C8;}
	.st27{display:inline;fill:#5D6F9B;}
	.st28{display:inline;fill:#A9B6C6;}
	.st29{display:inline;fill:#28306E;}
	.st30{display:inline;fill:#28316F;}
	.st31{display:inline;fill:#5D6F9A;}
	.st32{display:inline;fill:#ABB6C7;}
	.st33{display:inline;fill:#B1BDCD;}
	.st34{display:inline;fill:#7E8FAF;}
	.st35{display:inline;fill:#66779F;}
	.st36{display:inline;fill:#B1BCCD;}
	.st37{display:inline;fill:#7C8AAA;}
	.st38{display:inline;fill:#7F8FAF;}
	.st39{display:inline;fill:#65759D;}
	.st40{display:inline;fill:#65769C;}
	.st41{display:inline;fill:#66769E;}
	.st42{display:inline;fill:#242A64;}
	.st43{display:inline;fill:#68789C;}
	.st44{display:inline;fill:#6E7EA4;}
	.st45{display:inline;fill:#6F81A5;}
	.st46{display:inline;fill:#273776;}
	.st47{display:inline;fill:#344882;}
	.st48{display:inline;fill:#E2E6E9;}
	.st49{display:inline;fill:#5D6E99;}
	.st50{display:inline;fill:#273879;}
	.st51{display:inline;fill:#B1BCCC;}
	.st52{display:inline;fill:#A8B5C5;}
	.st53{display:inline;fill:#7E8EAC;}
	.st54{display:inline;fill:#A8B5C4;}
	.st55{display:inline;fill:#65779F;}
	.st56{display:inline;fill:#6879A3;}
	.st57{display:inline;fill:#A8B4C4;}
	.st58{display:inline;fill:#7C8CAB;}
	.st59{display:inline;fill:#7B8BAA;}
	.st60{display:inline;fill:#7C8BAB;}
	.st61{display:inline;fill:#7B8CAA;}
	.st62{fill:#FCFCFC;}
	.st63{fill:#2D3C44;}
	.st64{fill:#495C64;}
	.st65{fill:#E5E8EA;}
	.st66{fill:#D3D9DB;}
	.st67{fill:#EBEDEE;}
	.st68{fill:#A5AFB3;}
	.st69{fill:#B5BFC4;}
	.st70{fill:#C0C8CC;}
	.st71{fill:#919B9D;}
	.st72{fill:#495B62;}
	.st73{fill:#262E32;}
	.st74{fill:#4B5960;}
	.st75{fill:#546469;}
	.st76{fill:#48A6DD;}
	.st77{fill:#FFFFFF;}
</style>
<g class="st0">
	<path class="st1" d="M16.9,18.6c0.1-0.1,0.2-0.2,0.2-0.2c0.4-0.2,0.6,0.1,0.9,0.3c0.7,0.6,1.4,0.3,2.1-0.1c0.6-0.4,0.5-0.9,0.2-1.4
		c-0.2-0.4-0.8-0.5-0.7-1.1c0.1-0.1,0.2-0.2,0.3-0.2c0.4-0.1,0.7,0.1,1,0.3c0.6,0.3,1.2,0.4,1.7-0.1s0.6-1.2,0.3-1.8
		c-0.1-0.2-0.3-0.4-0.2-0.8c0-0.2,0.2-0.2,0.4-0.3c0.2-0.1,0.3,0,0.4,0.1c1.2,0.8,1.9,0.5,2.1-0.9c0.1-0.4,0-0.7,0.1-1.1
		c0.2-0.2,0.5-0.3,0.7-0.5c0.6,0,1.3,0.1,1.8-0.5c0.4-0.3,0-0.5,0-0.8c0.5-0.7,1.2-1.1,2.1-1.1c0.5-0.3,1.1-0.5,1.6-0.8
		c0.9-1,2.2-1.2,3.4-1.4c4.3-1.4,8.6-2.6,13.2-2.9c6.5-0.6,12.8,0.1,18.9,2c0.3,0.1,0.6,0.2,0.9,0.2c0.2,0.1,0.4,0,0.7,0
		c0.2,0.1,0.4,0.2,0.5,0.5c0,0.4-0.3,0.8-0.2,1.3c0.1,0.6,0.5,1.1,1.1,1.3C71,8.7,71.6,8.5,72,8c0.2-0.3,0.3-0.7,0.8-0.8
		c0.4-0.1,0.7,0.1,0.9,0.4c4.4,2.2,8.7,4.8,12.3,8.2c14.2,13.7,19.5,30.3,14.4,49.4C95.3,84.3,82.3,96,63.1,100.7
		c-2.3,0.6-4.7,0.9-7.1,0.9c-0.9-0.3-1.9,0-2.8,0c-1.2,0-2.4-0.3-3.7,0c-6.1-0.3-11.9-1.9-17.5-4.4c-1.9-0.9-3.8-1.8-5.5-3.1
		c0.9-0.7,1.3-1.8,2.3-2.5c0.5,0,0.9,0.3,1.3,0.5c7,4,14.5,6,22.6,6c7.1,0,13.8-1.6,20.2-4.7c0.4-0.2,0.8-0.4,1.2-0.5
		c0.4-0.1,0.7-0.3,1-0.5c10.4-6,17.7-14.7,21.4-26.2c1.4-4.2,2.2-8.4,2-12.8c-0.1-2.1,0.2-4.2-0.2-6.2c-0.1-0.5,0-1-0.2-1.4
		c-1.4-8.8-4.9-16.6-10.7-23.4c-4-4.6-8.8-8.1-14.1-11c-0.8-0.4-1.7-0.7-2.5-1.1c-0.2-0.1-0.4-0.2-0.6-0.3c-0.5-0.3-1.1-0.3-1.4-0.8
		c-0.3-0.9-0.9-1.5-1.7-2c-0.4,0.5,0.8,1.1-0.2,1.4c-0.5,0.1-1,0-1.4-0.2c-4.4-1.3-8.8-2-13.3-1.8C41.4,7,31.6,10.4,23.3,17.5
		c-4.9,4.1-8.7,9.1-11.6,14.8c-0.1,0.2-0.2,0.4-0.3,0.7s-0.2,0.6-0.4,0.8c-2.1,4.6-3.2,9.4-3.8,14.4c0,0.2,0,0.4,0,0.6
		c0.1,1.6-0.4,3.1,0,4.7c-0.2,3.6,0.5,7.3,1.5,11c0.1,0.7,0.4,1.3,0.5,2c0,0.2,0,0.4-0.1,0.5c-1.4,0.8-1.5,1-0.9,2.9
		c0,0.1-0.1,0.2-0.1,0.3c-0.5,0.1-0.9-0.1-1.4-0.2c-0.4-0.2-0.4-0.6-0.6-1s0-0.9-0.2-1.3c-1.1-4-2.1-8.1-2.3-12.3
		c-0.7-12.8,3-24.2,11-34.2c0.7-0.1,0.8,0.6,1.2,0.9c0-1.6,0.6-2.1,2.3-2C17.7,19.6,16.7,19.5,16.9,18.6z"/>
	<path class="st1" d="M22.9,91.8C19,88.6,15.4,85.1,12.5,81c-1.8-2.7-3.5-5.4-4.7-8.4C8,71.8,8,71,8,70.2l0,0c0.7-0.4,1.4,0,2.1-0.2
		c0.5,0.1,0.6,0.6,0.8,0.9c2.2,4.9,5.1,9.2,8.7,13.1c1.6,1.7,3.4,3.2,5.2,4.6c0.4,0.3,0.9,0.6,1.1,1.1c-0.6,1.4-0.6,1.4-2.2,0.7
		c0.4,0.8,1,1.2,1.5,1.7c0.3,0.3,0.8,0.7,0.5,1.3h-0.1h-0.1c-0.5-0.3-1.1-0.7-1.6-1C23.4,92.4,23,92.3,22.9,91.8z"/>
	<path class="st2" d="M25.5,93.5c0.3-0.7-0.4-0.8-0.7-1.2c-0.4-0.5-0.9-0.9-1.3-1.3c-0.3-0.3-0.1-0.6,0.1-0.8c0.2-0.2,0.5-0.2,0.6,0
		c0.7,1.1,1.1,0.4,1.6-0.3c1.2,0.3,2.2,0.8,2.9,1.9c-0.5,1-0.9,2-2.1,2.3C26.1,94,25.7,93.8,25.5,93.5z"/>
	<path class="st3" d="M30.1,7.7C30,7.7,30,7.7,30.1,7.7c-0.5,0.1-0.9,0.2-1.3,0.3c-0.3,0.4-0.6,0.7-1,0.9c-0.1,0.1-0.2,0.2-0.3,0.4
		c-0.3,0.2-0.7,0.4-0.5,1c0.7,0.1,1.1-0.2,1.4-0.7c0.7-0.4,1.3-0.8,2-1.2C30.1,8.1,30,7.9,30.1,7.7z"/>
	<path class="st4" d="M34.6,5.8c-0.6,0.5-0.7,0-0.9-0.4c-0.2,0.1-0.4,0.1-0.6,0.2c-0.2,0.4-0.5,0.7-0.8,1c-0.1,0.1-0.2,0.3-0.4,0.4
		C31.4,7.3,32,7.4,32,7.5c1.1-0.5,2.3-0.9,3.4-1.4C35,6.3,35,5.4,34.6,5.8z"/>
	<path class="st5" d="M16.9,18.6c0.3,0.5,0.8,0.9,1.3,1.1c0.3,0.1,0.6,0.3,0.4,0.7c-0.2,0.4-0.5,0.2-0.7,0.2
		c-1.5-0.2-1.8,0.1-1.6,1.6c0,0.3,0,0.5-0.3,0.6s-0.5,0-0.6-0.4c-0.2-0.5-0.4-0.9-0.9-1.2C15.2,20.3,16,19.4,16.9,18.6z"/>
	<path class="st2" d="M19.5,16c0.1,0.3,0.4,0.4,0.6,0.6c0.8,0.6,1.1,1.3,0.4,2.1c-0.6,0.7-2,0.9-2.6,0.4c-0.3-0.2-0.5-0.5-0.8-0.7
		c0.2-0.2,0.5-0.5,0.7-0.7c0.4-0.1,0.8,0.4,1.3,0.2c0.2-0.5-0.4-0.7-0.3-1.2C19,16.4,19.3,16.2,19.5,16z"/>
	<path class="st6" d="M7.5,72.1c-1.4-0.4-1.4-0.4-0.6-1.5c0-0.1,0-0.2,0-0.2C7,70.2,6.9,70,6.7,70c-0.2-0.3-0.3-0.7-0.5-1
		c-0.5,0-0.7,0.4-0.9,0.7c0.3,0.6-0.2,0.5-0.5,0.5c-0.1,0.1-0.2,0.2-0.2,0.3c0.5,0.9,0.9,1.8,1.2,2.8c0.3,0.1,0.6,0,1-0.2
		c0.3-0.2,0.5-0.4,0.8-0.5C7.6,72.4,7.6,72.2,7.5,72.1z"/>
	<path class="st2" d="M22.6,13.3c0.7,0.6,0.9,1.4,0.6,2.2c-0.3,0.7-0.9,1.1-1.7,1.1c-0.7,0-1.2-0.6-1.8-0.9c0.2-0.2,0.4-0.3,0.6-0.5
		c0.1,0,0.2-0.1,0.3-0.1c1,0.3,1.3-0.3,1.2-1.2C22.1,13.7,22.4,13.5,22.6,13.3z"/>
	<path class="st7" d="M72.4,5.8c-1.1-0.2-2.2-0.4-3.2-0.7v0.1c-0.1,0.2-0.4,0.2-0.2,0.5c0.2,0.1,0.3,0.2,0.5,0.3
		c0.1,0.2,0.3,0.3,0.5,0.4c0.6,0.3,1.2,0.5,1.8,0.7c0.3,0.1,0.5,0.2,0.8,0c0-0.1,0-0.1,0-0.2C72.8,6.4,72.7,6.1,72.4,5.8z"/>
	<path class="st8" d="M25.7,11.1c0.2,0.3,0.3,0.7,0.2,1c-0.1,0.9-0.5,1.7-1.3,2c-0.9,0.3-1-0.8-1.6-1.1c0.3-0.2,0.5-0.4,0.8-0.6
		c0.5,0.1,1,0.2,0.9-0.6C25,11.6,25.4,11.4,25.7,11.1z"/>
	<path class="st9" d="M6.8,70.4c0-0.1,0-0.3-0.1-0.4c0.5-0.4,0.9,0,1.3,0.2c0.5,0.8,0.6,1.6-0.2,2.3c-0.1,0-0.1,0-0.2,0
		c0-0.1-0.1-0.3-0.1-0.4C6.8,71.7,6.9,71,6.8,70.4z"/>
	<path class="st10" d="M49.5,101.6c1.8-0.5,3.6-0.1,5.4-0.2c0.4,0,0.8-0.1,1.1,0.2C53.8,101.9,51.7,101.9,49.5,101.6z"/>
	<path class="st11" d="M26.9,10.2c0.5-0.2,1-0.5,1.4-0.7c0,0.3,0.7,0.1,0.4,0.5c-0.4,0.6-0.8,1.2-1.7,1c-0.2,0-0.4-0.2-0.6-0.4
		C26.6,10.5,26.8,10.4,26.9,10.2z"/>
	<path class="st12" d="M18.8,16.7c0.4,0.4,1.3,0.8,0.7,1.4c-0.6,0.7-1.2-0.1-1.7-0.5C18.1,17.2,18.4,16.9,18.8,16.7z"/>
	<path class="st13" d="M21.9,14c0.1,0.2,0.3,0.4,0.4,0.6c0.2,0.3,0.2,0.7-0.1,1c-0.3,0.3-0.6,0.1-0.9-0.1c-0.3-0.2-0.6-0.2-0.9-0.2
		C20.8,14.7,21.3,14.3,21.9,14z"/>
	<path class="st14" d="M6.3,69c-0.3,0.3-0.5,0.6-0.9,0.7c-0.3-0.8,0.5-1.3,0.5-2C6.1,68.1,6.2,68.6,6.3,69z"/>
	<path class="st15" d="M24.7,11.8c0.6,0.3,0.5,0.7,0.1,1c-0.5,0.5-0.7-0.1-1-0.4C24.1,12.2,24.4,12,24.7,11.8z"/>
	<path class="st14" d="M72.7,7.1c0.5-0.2,1-0.2,1.5,0c-0.2,0.2-0.3,0.3-0.5,0.5c-0.3-0.1-0.6-0.2-0.9-0.3
		C72.7,7.3,72.7,7.3,72.7,7.1L72.7,7.1z"/>
	<path class="st14" d="M69.2,5.2C69.4,5.5,69,5.5,69,5.7c-0.2,0-0.4,0-0.5-0.2C68.6,5.2,68.8,4.8,69.2,5.2z"/>
	<path class="st16" d="M11.1,32.8c0-0.2,0-0.4,0.2-0.5c1.3-2,2.6-4,4.2-5.8c5.9-6.8,13.2-11.7,21.8-14.4c5.1-1.6,10.3-2.4,15.6-2.3
		c2.9,0.1,5.9,0.3,8.8,1c0.3,0.1,0.7,0.2,1.1,0.2c1,0.3,2.1,0.2,2.9,1.1c-0.1,1.1-0.8,0.8-1.5,0.6c0.3,0.6,0.4,1.2,0.9,1.9
		c0.2-1.1,0.4-2.1,1.6-2.4c0.5,0,0.9,0.2,1.4,0.3c0.4,0.1,0.7,0.3,1.1,0.4c14,5.6,23.7,15.6,28.6,30.1c0.3,0.9,0.2,1.8,0.7,2.6
		c0.3,0.5,0.2,1,0.2,1.5c-0.4,3.4-1.7,6.5-3,9.6c-1.7,3.8-3.9,7.3-6.5,10.5c-0.3,0.4-0.7,0.7-1,1.1c-0.1,0.2-0.3,0.3-0.4,0.5
		c-1.3,1.3-2.6,2.6-3.8,3.8c-0.4,0.4-0.7,0.7-1.2,0.9c-0.2,0-0.5,0-0.7-0.1c-0.2-0.2-0.4-0.4-0.6-0.6c-0.1-0.1-0.1-0.2-0.2-0.3
		c-1.2-1.2-3-1.5-4.3-0.7c-1.5,0.8-2,2.2-1.4,4.1c0.2,0.7,1.1,1,1.2,1.8c0,0.1-0.1,0.2-0.2,0.3c-3,2.1-6.4,3.4-9.8,4.6
		c-0.9,0.3-1.7,0.6-2.6,0.8c-1.3,0.3-1.6,0.1-1.8-1.3c0.1-4.9-3.7-9.3-8.7-10c-4.3-0.6-7.8,0.8-10.8,3.8c-0.2,0.1-0.4,0.3-0.6,0.3
		c-0.5-0.4-0.5-0.4-0.7-1.1c0.1,0.2,0.1,0.5,0,0.7c-0.1,0.9-0.5,1-1.2,0.5c-0.5-0.4-0.8-1.1-1.7-0.9c-0.2,0.1-0.4,0.2-0.4,0.4
		c-0.7,1.8-2,3.1-3.4,4.4c-0.3,0.3-0.5,0.4-0.9,0.3c-0.5-0.1-1-0.2-1.5,0.1c-0.5,0.2-0.9-0.1-1.4-0.3c-6.3-3.1-11.7-7.3-16.3-12.7
		c-0.8-1,0-1.5,0.4-2.2c0.5-1.6,0-2.3-2-2.6c-0.4,0-0.7,0.3-1.1,0.3c-0.7-0.1-0.9-0.6-1.2-1.1c-1.6-2.8-3.2-5.6-4-8.7
		c-0.3-1.6,0-3.2,0-4.8C7,47.9,7.5,47.7,8,47.7c1.1-0.1,2.2-0.5,3.1-1c0.6-0.4,1.2-0.7,1.6-1.3c1.2-1.5,2.1-3.2,2.2-5.2
		c0.2-2.9-0.9-5.1-3.1-6.9C11.5,33.1,11.2,33,11.1,32.8z"/>
	<path class="st17" d="M15.4,65.6c-1.3,1.1-0.4,1.8,0.4,2.7c4.3,5,9.5,8.8,15.4,11.8c0.4,0.2,0.8,0.5,1.3,0.5c1,0.1,1.8,0.6,2.7,1
		c0.1,0.1,0.3,0.2,0.4,0.3c0.8,1.2,1,1.3,2.7,0.8c0.9,0.2,1.2-0.3,1.5-1c1-2.2,2.7-4,4.8-5.2c5.3-3.1,12.5-2,16.6,2.6
		c0.8,0.9,1.4,2,1.7,3.2c-0.1,1,0.1,1.3,1.3,1c4.5-1.2,8.7-3,12.7-5.3c0.6,0.3,0.4,0.7,0.1,1.1c-1,1.1-1.7,2.5-3.6,2.5
		c-0.8,0-1.1,0.9-1.3,1.5c-0.4,1.2-1.2,2-2.3,2.4c-0.9,0.4-1.5,1-1.7,2c-0.2,0.9-0.7,1.4-1.5,1.7c-1.6,0.7-2.1,1.8-1.5,3.4
		c0.2,0.7,0.7,1.3,0.9,2c0.2,0.6,0.8,0.2,1.1,0.4c0.1,0,0.2,0.1,0.3,0.1c0.8,0.3,1.5,0.2,2.1-0.4c0.4-0.4,0.9-0.7,1.5-0.8
		c0.1,0,0.2,0.2,0.3-0.1c1.1-2.4,3-4.1,4.9-5.7c1.7-1.5,3-3.4,4.7-4.9c0.2-0.1,0.3-0.3,0.3-0.5c-0.3-1.2,0.5-1.1,1.3-1.4
		c1-0.3,1.7-1.2,2.5-2c1.9-1.8,3.6-3.8,5.5-5.6c1.3-1.2,2.8-2.2,3.5-3.9c0.2-0.5,0.2-1-0.2-1.3c-0.7-0.6-0.9-2-2.3-1.4
		c-0.6,0.1-0.5,0.6-0.5,1c0,0.3,0,0.7-0.4,0.8c-0.4,0.2-0.7-0.1-0.9-0.3c-0.3-0.3-0.8-0.6-0.6-1.2c1.4-2.1,3-4,4.2-6.2
		c2.3-4.1,4.1-8.3,5.2-12.8c0.1-0.4,0.2-0.8,0.4-1.1c0.5,3.2,0.5,6.4,0.2,9.6c-0.8,8.3-3.6,15.9-8.5,22.7c-4,5.6-9,10.1-15.1,13.3
		c-0.6-0.5-0.6,0.1-0.7,0.4c-3.5,1.7-7,3.2-10.8,4.1c-12,2.7-23.4,1.2-34.1-5c-0.3-0.2-0.6-0.3-0.9-0.5c-1-0.6-1.9-1.3-2.9-1.9
		c-4.7-3.6-8.8-7.8-12-12.8c-1.4-2.2-2.5-4.6-3.6-6.9c-0.4-0.3-0.5-0.7-0.7-1.1s-0.4-0.9-0.5-1.4c-0.1-0.2,0-0.4,0-0.6s0-0.3,0-0.5
		c0.5-0.2,0.8,0.2,1.1,0.5c0.4,0.4,0.7,0.9,1.3,1c0.2-0.4-0.6-1,0.2-1.3c0.5-0.1,1,0.1,1.5-0.2c-0.9-0.3-1.9-0.2-2.1-1.4
		c-0.2,0.3-0.1,0.9-0.5,1s-0.7-0.2-1.1-0.4c-0.5-0.3-0.6-0.9-1.1-1.2C7.3,61,6.7,57.3,6.8,53.4C7.5,54.9,8.2,56.5,9,58
		c0.8,1.6,1.6,3.1,2.6,4.6c0.1,0.2,0.3,0.4,0.5,0.4c0.4-0.2,0.9-0.2,1.4-0.2C15,63.2,15.3,63.7,15.4,65.6z"/>
	<path class="st18" d="M61.7,10.9C58.2,10.4,54.6,9.8,51,10c-10.6,0.4-20.1,3.7-28.5,10.2c-4.2,3.3-7.8,7.2-10.7,11.8
		c-0.1,0.2-0.2,0.5-0.5,0.2c5.7-11.6,14.8-19.5,27-23.7C47,5.6,55.9,5.4,64.8,7.8c0.3,0,0.5,0.2,0.8,0.2c0.1,0.6-0.3,1-0.9,1.2
		c-1,0.3-1.8,0.7-2.3,1.6C62.3,11.2,62,11.1,61.7,10.9z"/>
	<path class="st18" d="M98.5,45.7c-0.4,0.7-0.3-0.1-0.3-0.1c-1.4-5.4-3.7-10.4-6.9-14.9c-5.6-8-12.9-13.8-21.9-17.3
		c-0.1-0.1-0.3-0.1-0.4-0.2c0.5-1.1,0.9-2.2,2.2-2.6c0.2,0,0-0.2,0,0c0,0.1,0,0.1-0.1,0.1c-0.3-0.1-0.6-0.2-0.4-0.6h0.1h0.1
		c5.4,2.1,10.1,5.3,14.2,9.3c7.2,7,11.6,15.6,13.4,25.5C98.5,45.1,98.5,45.4,98.5,45.7z"/>
	<path class="st17" d="M11.3,46.9c-1,0.7-2.2,1.1-3.4,1.2c-0.5,0-0.9,0.1-1.1,0.5c0.5-5.3,1.6-10.4,4-15.2c1,0.1,1.5,0.9,2,1.6
		c2.2,3,2.5,7.2,0,10.4C12.4,46,11.7,46.3,11.3,46.9z"/>
	<path class="st19" d="M12.5,45.5c2.4-3.5,2.5-8.6-1.7-12.1c0-0.2,0-0.5,0.3-0.6c1.3,0.2,1.9,1.2,2.6,2.1c2.4,3.3,1.9,7.9-0.9,10.8
		C12.6,45.8,12.5,45.7,12.5,45.5z"/>
	<path class="st20" d="M70.9,9.9c0.6,0.6-0.1,0.8-0.4,1.1c-0.6,0.6-0.7,1.6-1.6,2c-0.4,0-0.7-0.2-1-0.4c-1.1-0.7-2.3-1.1-3.4-1.7
		c-0.8-0.4-1.3,0.1-1.9,0.3c-0.3,0-0.7,0.1-1-0.2c0.7,0.1,0.1-0.5,0.2-0.5c0.9-0.1,1.2-1.3,2.1-1.3c0.8,0,1.1-0.5,1.5-1
		c0.5,0.1,0.9,0.2,1.4,0.3c0.1,0,0.2,0.1,0.2,0.2c-0.6,1.2-0.5,1.9,0.5,2.4c0.8,0.4,1.4,0.2,2.2-0.8c0.2-0.3,0.4-0.4,0.7-0.4
		C70.5,9.8,70.7,9.9,70.9,9.9z"/>
	<path class="st21" d="M8.4,64.7c0.6-0.1,0.7,0.5,1,0.8s0.7,0.6,1.1,0.7c0-0.1,0.1-0.2,0.1-0.3c0.1-0.4-0.3-1.2,0.3-1.2
		c0.7-0.1,0.3,0.6,0.4,1c0.2,0.5,0.6,0.6,1,0.7s0.9,0.1,1.4,0.2c-0.5,1.2-1.4,0.9-2.3,0.6c-0.1,0.4,0.1,0.5,0.2,0.6
		c0.2,0.2,0.6,0.4,0.2,0.8c-0.3,0.4-0.6,0.3-0.9,0.1c-0.4-0.3-0.9-0.7-1.2-1.1c-0.1-0.6-0.4-0.9-0.7-1C8.7,66,8.4,65.4,8.4,64.7z"/>
	<path class="st18" d="M70.4,9.7c-0.4,0.2-0.3,0.6-0.5,0.9c-0.4,0.7-1.1,1-1.8,0.9c-0.9-0.1-1.6-0.7-1.8-1.5
		c-0.1-0.6-0.1-1.3,0.7-1.5c0.8-0.4,1.4-0.1,1.9,0.5C69.4,9.3,69.9,9.5,70.4,9.7z"/>
	<path class="st5" d="M72.7,7.1c0,0.1,0.1,0.1,0.1,0.2c-0.1,0.1-0.2,0.2-0.3,0.4c-0.5,1.1-1.5,1.5-2.4,1c-1.3-0.7-1.5-1.6-0.7-2.8
		c0.2,0,0.4,0,0.5,0.2C70,6.2,70,6.4,70.1,6.5c0.6,1.2,0.7,1.2,1.7,0.3C72,6.9,72.3,6.9,72.5,7C72.6,7.1,72.7,7.1,72.7,7.1z"/>
	<path class="st9" d="M9.7,68.9c0.2,0.4,0.3,0.8,0.5,1.2c-0.7,0.4-1.4,0.2-2.2,0c-0.4-0.9-0.9-1.8-0.2-2.8C8.1,67,8.4,66.7,9,67.1
		c0.1,0.2,0.1,0.3,0.2,0.5C9,68.1,8.2,69,9.7,68.9z"/>
	<path class="st8" d="M68.9,9c-0.6-0.2-1.3-0.3-1.9-0.5c0-0.1-0.1-0.1-0.1-0.2c0.2-0.5-0.3-0.6-0.4-0.9c-0.1-0.2-0.2-0.4,0-0.5
		c0.1-0.2,0.3-0.2,0.5-0.2C67.6,6.7,68.9,8.3,68.9,9z"/>
	<path class="st22" d="M74.4,93.2c0-0.1-0.1-0.2-0.1-0.2c0.2-0.4-0.3-0.9,0.3-1.1c0.1,0,0.3,0.5,0.5,0.8
		C74.9,92.9,74.7,93,74.4,93.2z"/>
	<path class="st23" d="M27.4,92c0,0.4-0.2,0.7-0.5,0.6c-0.5-0.2-0.9-0.5-1-1c-0.1-0.3,0.2-0.5,0.5-0.5C26.9,91.2,27.4,91.4,27.4,92z
		"/>
	<path class="st24" d="M6.8,70.4C7,71,7.3,71.5,7.5,72.1c-0.4,0.3-0.9,0.1-1.2-0.1c-0.3-0.2-0.7-0.5-0.6-0.9s0.5-0.4,0.9-0.3
		C6.7,70.8,6.8,70.6,6.8,70.4z"/>
	<path class="st13" d="M71.8,6.9c0,0.6-0.2,1.2-0.9,1c-0.9-0.2-1.2-0.9-1-1.8C70.6,6.2,71.2,6.5,71.8,6.9z"/>
	<path class="st25" d="M46.4,55.4c-0.6,1.9-1.9,3.3-3.3,4.5c-4,3.4-9.8,4.1-14.2,0.9c-2.6-1.9-4.2-4.4-4.6-7.7
		c0.2-0.2,0.1-0.4,0.1-0.6c0-0.2,0-0.3,0.3-0.4c0.7,0.5,0.5,1.4,0.7,2.1c0,0.2,0.2,0,0,0c0,0-0.1,0,0-0.1c0-0.4,0.1-0.9,0.6-0.3
		c0.5,0.7,0.9,0.4,1.4,0c1.3-1.4,2.9-2.3,4.2-3.6c0.4-0.4,0.8-0.8,1.2-1.3c0.8-1,1.5-2.1,2.6-2.7c0.7-0.4,1.4-0.8,1.6-1.7
		c0-0.2,0.2-0.3,0.3-0.4c0.8-1,2.1-1.4,2.6-2.7c2.2,0.5,3.7,2,4.9,3.8c2.1,3,2.6,6.4,1.7,9.9C46.4,55.2,46.4,55.3,46.4,55.4z"/>
	<path class="st25" d="M89.8,48.3c2.5,3.7,1.8,8.5-1.6,10.6c-2.4,1.5-4.8,1.2-7.2-0.1c-1-0.6-2.1-1.1-2.5-2.3
		c-2.1-3.3-0.6-7.4,1.6-9.1c2.7-2.1,6.9-1.8,9.3,0.6C89.6,48.2,89.7,48.3,89.8,48.3z"/>
	<path class="st26" d="M83.1,38c0.3,1,0.4,1.8-0.8,2.3c-0.5,0.2-0.7,0.8-1,1.2c-0.7,0.8-1.6,1.4-2.6,2c0.6,0.2,1.3-0.3,1.8,0.2
		c-0.4,0.3-0.4,0.3-0.2,0.6c0,0.2,0,0.3-0.2,0.4c-1.3,0.7-2.2,1.8-3.1,2.9c-0.1,0.1-0.2,0.1-0.3,0.1c-0.1-0.3-1,0.7-0.7-0.4
		c0.1-0.4-0.4-0.2-0.6,0c-1,1.4-2.3,2.3-3.9,2.9c-0.3,0.1-0.5,0.4-0.5,0.7c-0.1,1-0.8,1.6-1.4,2.2c-2.1,2-4.1,4-6,6.1
		c-1.6,1.8-3.5,3.3-5.5,4.6c-0.2,0.2-0.6,0.7-0.9,0c-0.2-0.3-0.1-0.5,0-0.8c0.4-0.7,1.3-0.8,1.7-1.5c0.3-0.3,0.5-0.7,0.9-0.9
		c0.6,0.4,0.7-0.3,1.1-0.4c0,0-0.1,0.1-0.2,0.1c-0.1,0-0.2,0-0.3-0.1c0.3-0.7,0.7-1.2,1.5-1.5c0.2,0.2,0.2,0.3,0.1,0.4
		c0.1-0.6,0.4-1.2,0.9-1.7c0.6-0.5,1-1.3,1.3-2c0.4-0.1,1,0.5,1.1-0.3c0.3-0.4,0.6-0.8,0.9-1.3c0.4-0.7,0.3-1.3-0.2-1.8
		c-0.6-0.5-1.2-0.7-1.8-0.2c-0.5,0.4-0.9,0.4-1.4,0s-0.6,0-0.6,0.4c-0.3,0.6-0.5,1.1,0.5,1.2c0.2,0,0.6,0.2,0.4,0.5
		c-0.8,0.3-1.6,0.6-2.3,1.1c-0.5,0.2-1,0.3-1.5,0.4c-0.6,0-1.1,0.1-0.9,0.8c-0.5,1.3-1,2.6-2.7,2.6c-0.8,0.3-0.8,0.9-0.5,1.5
		c0.4,0.7,0.7,1.4,1,2.1c0.1,0.3,0.5,0.7,0.1,1.1c0,0.2,0.6,0.6-0.1,0.4c-1.8-0.4-2.2-2.1-2.7-3.5c-0.3-0.9,0-2,1-2.6
		c0.4-0.2,0.8-0.4,1.2-0.6c0.4-0.2,0.9-0.5,0.7-1.1c-0.2-0.8,0.3-1.2,0.9-1.6c0.6-0.4,1.3-0.8,1.9-1.2c0.5-0.4,1.2-0.8,1.3-1.4
		c0.3-1.7,1.6-2.1,2.9-2.3c0.8-0.2,1.4-0.5,1.5-1.3s0.9-0.8,1.4-1.1c0.9-0.5,1.5-1,1.5-2.2c0-0.9,0.7-1.8,1.5-2.3
		c0.2-0.1,0.4-0.4,0.2-0.6c-0.1-0.2-0.4,0-0.5,0.1c-0.4,0.3-0.7,0.8-1.3,0.4c0.2-0.7,0.7-1.2,1.5-1.4c0.2,0.4,0.5,0.5,1,0.4
		c2.5-0.4,5.1-2.9,5.5-5.4c0-0.1,0-0.2,0.1-0.3c0.6-1.2,3.7-1.6,4.7-0.7c-0.5,0.3-0.7,0.7-0.7,1.3c0,0.3,0,0.7-0.3,0.8
		c-0.4,0.2-0.7-0.2-0.9-0.4c-0.3-0.3-0.6-0.7-1.1-0.7c0.8,1.1,1.8,2,2.9,2.9c-0.3-1,0-1.4,1-1.3C82.1,38.5,82.5,37.9,83.1,38z"/>
	<path class="st22" d="M91.2,66.8c0.3-0.8,1-0.7,1.3-0.2c0.3,0.4,0.7,0.8,1.1,1.2c1,1.2,0.3,3.5-1.2,4c-0.4,0.1-0.5,0.3-0.7,0.6
		c-0.7,1.3-2.2,2-3.1,3.1c-1.2,1.4-2.4,2.8-3.8,4c-1,0.9-1.9,2.4-3.8,2c0.8,0.8,0.3,1.4-0.3,1.9c-2.1,2-4,4.3-6.2,6.2
		c-1.2,1-2.1,2.3-3.1,3.5l-2.5,2.1c-0.6,0.2-1.3,0.4-1.8-0.2c0.7-0.6,0.3-1.5,0.6-2.1c0.4-0.8,1.1-0.8,1.9-0.8
		c-1.1-0.6-2.1-1.3-3.2-1.6c-0.7-0.2-1,0.1-0.8,0.8c0.2,0.6,0.6,1.1,0.9,1.7c0.4,0.7,0.7,1.4,0.5,2.1c-1.3,0-1.2,0-2-1.4
		c-0.7-1.1-0.9-2.2-0.6-3.6c0.2-0.8,0.6-0.9,1.1-1.1c1-0.3,1.9-0.6,2-2c0-0.8,0.8-1.5,1.7-1.9c1.1-0.4,2-1,2.3-2.3
		c0.3-1.2,1-1.9,2.4-1.8c1.1,0,2.8-2.1,2.7-3.1l0,0c0.2-0.3,0.1-0.9,0.8-0.6c0.4,0.2,0.4-0.3,0.5-0.5c0.2-0.8,0.7-1.5,1.1-2.3
		c0.5-1.2,1.5-1.7,2.7-1.7c0.1,0.2,0.3,0.4,0.4,0.5c0.4,0.5,0,0.9-0.3,1.3c-0.2,0.2-0.4,0.5-0.7,0.8c-1.4,0.7-1.6,1.2-1,2.5
		c0.4,0.3,0.8,0.2,1.2,0c0.2-0.1,0.4-0.2,0.7-0.2c0.4,0,0.7,0,0.9,0.4c0.1,0.3-0.1,0.6-0.3,0.8c-0.2,0.2-0.4,0.3-0.6,0.8
		c0.8,0,1-0.8,1.5-1.2c0.1-0.1,0.3-0.2,0.4-0.3c0.4-0.3,0.8-0.5,1-0.9s0.5-0.7,0.8-1c0.3-0.4,0.8-0.5,1.1-0.9c0.2-0.4,0.5-0.7,0.7-1
		s0.2-0.7,0.4-1c0.2-0.2,0.4-0.3,0.6-0.5c0.8-0.3,1.5-0.7,1.9-1.5c0.1-0.1,0.2-0.2,0.3-0.4c0.1-0.1,0.2-0.1,0.1-0.2
		c-0.3-1.4,0.4-1.6,1.6-1.5c0.1,0,0.2-0.1,0.3-0.2c-0.2-0.4-0.6-0.1-0.9-0.2C90.8,68.4,90.7,68,91.2,66.8z"/>
	<path class="st25" d="M62.9,21.5c0.3,2.9-1.9,5-4.1,5.5c-2.9,0.7-5.2-0.4-6.4-3.1c0-2.7,1.6-4.7,4.4-5.3
		C58.9,18.2,61.9,18.7,62.9,21.5z"/>
	<path class="st22" d="M39.7,41.6c-0.3,0.6,0.5,0.4,0.5,0.7c-1.2,0.8-2.6,1.3-3,3c-0.2,0.6-1,1-1.5,1.2c-1,0.4-1.6,1.3-2.1,2
		c-1.1,1.6-2.7,2.7-4.1,4.1c-0.7,0.7-1.6,1-2.1,1.9c-0.4,0.7-1.3,0.3-1.6-0.5c-0.2,0.1-0.1,0.3-0.1,0.5s0,0.4-0.1,0.6
		c-0.2-0.8-0.5-1.7-0.7-2.6c-0.2,0.3-0.3,0.5-0.4,0.8c0-0.2,0-0.3,0-0.5c-0.2-0.8-0.1-1.6-0.1-2.3c0.6-0.2,0.6,0.3,0.8,0.6
		c0.4,0.8,0.7,1.6,1.3,2.4c0.1-1.7,0.1-1.8,2.5-2.3c-1.3-0.6-2.5-1.2-3.7-1.7c-0.3-0.1-0.9-0.1-0.6-0.8c0.1-1.2,0.6-2.3,1.2-3.3
		c0.2-0.3,0.3-0.7,0.7-0.9c1.2-1.4,2.7-2.2,4.3-2.9c0.3-0.2,0.7-0.2,1-0.1c0.6,1.3,1.8,2.1,2.7,3.1c0.5,0.5,1,0.4,1.4-0.2
		c0.4-0.6,0.4-1.3,0.4-2.1c0-0.2,0.1-0.3,0.3-0.4c0.2-0.1,0.4,0,0.6,0.1c0.3,0.2,0.7,0.2,1,0c0.2-0.1,0.4-0.2,0.5-0.3
		c0.2-0.1,0.4-0.3,0.7-0.4C39.5,41.3,39.7,41.3,39.7,41.6z"/>
	<path class="st27" d="M62.7,82.2c-0.9-1.6-1.8-3.2-3.3-4.3c-4.7-3.4-9.7-4-14.9-1.2c-0.4,0-0.9,0.2-1.3,0.1
		c-0.4-0.1-0.9-0.2-0.7-0.8c5-5.9,14.6-5.5,18.6,0.7C62.2,78.3,62.8,80.1,62.7,82.2z"/>
	<path class="st28" d="M52.6,28c-0.1,1.8-1.2,3.1-2.8,3.7c-0.6,0.2-1,0.9-1.4,1.4c-1.4,1.7-2.9,3.4-4.5,4.9
		c-0.6,0.5-0.4,1.1-0.5,1.8c-0.6,0.2-0.9-0.2-1.1-0.6c-0.2-0.5,0.3-0.9,0.1-1.4c-0.1-1.5-0.5-1.9-1.8-1.6c-0.5,0.1-1,0.5-1.4-0.1
		c-0.3-0.5,0.1-0.9,0.4-1.3c0.1-0.1,0.1-0.2,0-0.2c-0.9,0.3-1.1,1.1-1.1,1.9c0,0.2-0.3,0.3-0.5,0.4c0.3-0.1,0.6-0.2,0.9-0.1
		c0.5,0.2,1,0.2,1.5,0c0.5-0.1,1.1-0.3,1.4,0.3c0.2,0.6-0.3,1-0.9,1.2c-0.6,0-1.2-0.4-1.9-0.1c-0.4,0-0.7,0.1-0.9-0.4
		c0.1-0.2,0.2-0.2,0.4-0.2c-0.1-0.1-0.2,0-0.3,0c-0.3,0.1-0.5,0.3-0.9,0.3s-0.8,0.1-1.1-0.3c0.9-0.5,1.3-1.3,1.6-2.2
		c0.5-1.5,1.5-2.6,3-3.2c1.3-0.5,2.2-1.6,3.3-2.3c0.3-0.2,0.5-0.7,1.1-0.5c0.2,0.1,0.4-0.1,0.3-0.3c-0.5-0.7,0.2-1.1,0.3-1.6
		c0.1-1,0.5-0.8,1-0.3c0.6-0.2,0.8,0.3,1.2,0.6c0.7,0.6,1.2,1.3,2,1.9c0.1-0.6-0.6-1.4,0.6-1.3c0.4,0.1,0.9,0.2,1.3-0.2
		C52.1,27.9,52.3,27.7,52.6,28z"/>
	<path class="st29" d="M42.5,39c0.3,0.2,0.7,0.4,1,0.7c2.5,2.1,4.3,4.6,4.5,8c0,1.1,0,2.2,0,3.3c0,1.2-0.4,2.3-1,3.4
		c-0.4,0-0.4-0.2-0.4-0.5c-0.1-0.9,0.1-1.7,0.1-2.6c0-5.6-2.5-9.3-7.7-11.3c-0.1,0-0.2-0.1-0.3-0.2c-0.8-0.9-1.7-1.1-2.7-0.3
		c-3.8,0.5-6.9,2.2-9.5,4.9c-0.1,0-0.2,0-0.3-0.1c1.8-3.7,4.8-5.8,8.8-6.5c0.4-0.1,0.9-0.1,1.3-0.2c0.4,0,0.8,0,1.2,0
		c0.2-0.1,0.5-0.2,0.7,0c0.3,0.2,0.7,0.2,1,0.2c0.6-0.2,1.1,0.2,1.6,0.4c0.5,0,0.9,0.2,1.3,0.4C42.3,38.7,42.4,38.9,42.5,39z"/>
	<path class="st30" d="M76.7,47.7c0.8-1.5,2-2.7,3.6-3.4c3.7-1,6.7-0.1,8.9,2.9c-0.5,0.4-0.9,0-1.3-0.2c-1-0.6-2.2-1-3.3-1.2
		c-3.9-0.7-7.1,2.3-7,6.5c0,0.8,0.1,1.6,0.3,2.4c0.1,0.3,0.4,0.7,0,1.1C75.8,53.2,75.7,50.6,76.7,47.7z"/>
	<path class="st31" d="M77.8,55.7c-0.2-1.6-0.8-3.1-0.6-4.8c0.7-5,5.6-7.2,10.3-4.4c0.5,0.3,0.9,0.8,1.6,0.7
		c0.4,0.3,0.5,0.8,0.7,1.2c-0.9-0.1-1.5-0.9-2.3-1.3c-3.6-1.8-8.8-0.2-9.6,4.9c-0.2,1.6,0.3,3,0.6,4.5
		C78.2,56.3,77.8,56.1,77.8,55.7z"/>
	<path class="st17" d="M81.7,72.8c-0.1,0.1-0.2,0.2-0.3,0.2c-2.1,0.3-2.4,2.1-3.1,3.6c-0.2,0.4-0.2,0.8-0.6,1.1
		c-0.2,0.1-0.3,0.5-0.5-0.2c-0.1-0.5-0.3,0.4-0.6,0.3c-0.3-0.7-1.1-1-1.4-1.7c0-2.9,1.5-4.4,4.3-4.5c0.9,0,1.5,0.4,2.2,0.9
		C81.7,72.7,81.7,72.7,81.7,72.8z"/>
	<path class="st1" d="M51.9,22.6c-0.4-2.6,0.5-4.6,2.8-5.8c2.2-1.2,4.9-0.8,6.7,0.8c0.9,0.8,1.4,1.9,1.5,3.1
		c-0.5,0.1-0.6-0.3-0.8-0.6c-3.1-3.8-8.4-2.1-9.4,1.5C52.6,22.1,52.5,22.6,51.9,22.6z"/>
	<path class="st32" d="M39.9,81.7c-0.1,1.1-0.5,1.5-1.6,1.2c-0.1-0.1-0.1-0.2-0.1-0.3c0.1-0.3,0.2-0.5,0.2-0.8
		c0-0.9-0.4-1.5-1.2-1.7c-0.8-0.3-1.4,0.2-1.7,0.9c-0.1,0.3-0.2,0.5-0.4,0.7c-0.9-0.3-1.9-0.5-2.6-1.2c0-0.2-0.1-0.6,0.1-0.4
		c0.5,0.5,1.3-0.6,1.6,0.3c0.1-0.1,0.2-0.1,0.3-0.2c1.3-1.6,3-2.9,3.7-5c0-0.1,0.2-0.1,0.3,0c0.6,0.6,1.5,1,1.8,1.9
		c-0.1,0.3-0.2,0.5-0.6,0.5c-0.5-0.2-0.9-0.4-1.2,0.3c-0.2,0.6-0.3,1.2,0.2,1.8c0.4,0.4,0.9,0.5,1.2,0.9C40.2,81,40,81.4,39.9,81.7z
		"/>
	<path class="st31" d="M51.9,22.6c0.1-0.3,0.3-0.6,0.4-1c0.7-2.3,2.3-3.6,4.5-3.9c2.3-0.4,4.2,0.4,5.6,2.5c0.1,0.2,0.3,0.4,0.5,0.5
		c0,0.3,0,0.5,0,0.8c-0.6-0.6-1.1-1.3-1.7-1.8c-3.1-2.1-8.3-0.3-8.6,3.8c0,0.1-0.1,0.3-0.2,0.4C52.2,23.5,52.1,23,51.9,22.6z"/>
	<path class="st33" d="M59.8,60.8c0,0.5-0.3,0.7-0.7,1c-0.8,0.2-2,0-1.7,1.4c-0.1,0.2-0.2,0.5-0.2,0.7c-0.2,0-0.5,0-0.7,0
		c-0.5-1.1-0.9-2.2-1.5-3.2s-0.2-1.5,0.8-1.8C57.2,59.3,58.6,60,59.8,60.8z"/>
	<path class="st34" d="M69.4,41.6c-0.4,0.6-0.9,1-1.5,1.4c-0.6,0-1.2,0-1.8-0.5c-1-0.8-1.1-1.6-0.1-2.6c1.6-0.9,2.4-0.7,3.4,0.9
		C69.4,41.1,69.4,41.4,69.4,41.6z"/>
	<path class="st21" d="M24.5,48.6c1,0.7,2.3,1.1,3.4,1.7c0.2,0.1,0.5,0.1,0.7,0.3c0.3,0.1,0.7,0.2,0.6,0.6c-0.1,0.4-0.5,0.7-0.9,0.5
		c-0.3-0.1-0.7-0.3-1,0c-0.4,0.3-1,0.6-0.5,1.3c0.2,0.3,0.2,0.6-0.1,0.8c-0.3,0.2-0.6,0.1-0.7-0.2c-0.5-1.1-1.3-2-1.4-3.3
		c-0.2-0.1-0.1-0.3-0.2-0.5C24.3,49.4,24.2,48.9,24.5,48.6z"/>
	<path class="st33" d="M83.1,38c-0.7,0.6-1.3,1.1-2.2,0.5c-0.2,0.4,0,0.6,0.2,0.7c0.3,0.3,0.2,0.5-0.1,0.7c-0.3,0.2-0.5,0.2-0.7-0.1
		c-1-1-2-1.9-3-2.9c-0.3-0.3-0.1-0.6,0.1-0.8c0.3-0.3,0.5-0.1,0.7,0.1c0.4,0.5,0.8,1,1.3,1.6c0.6-0.9-0.3-2.3,1.3-2.3
		c-0.4,1.6-0.1,2,1.5,2.2C82.5,37.8,82.9,37.7,83.1,38z"/>
	<path class="st33" d="M52.6,28c-0.3,0-0.5,0.2-0.5,0.5c-0.5,0.2-1,0.2-1.4,0c-0.4,0-0.8,0-0.3,0.5c0.3,0.3,0.4,0.6,0.1,0.9
		c-0.4,0.4-0.6-0.1-0.9-0.3c-0.9-0.9-1.8-1.7-2.7-2.6c0-1,0.4-1.2,1.1-0.4c0.4,0.5,0.8,0.9,1.3,1.4c0.5-0.7,0-1.1,0.1-1.5
		c0-0.3,0.1-0.6,0.4-0.6c0.3,0,0.5,0.2,0.5,0.4c-0.3,1.5,0.9,1.2,1.7,1.4C52.1,27.8,52.4,27.7,52.6,28z"/>
	<path class="st21" d="M93.4,69.2c-0.7,0.6-1.4,0.6-2.3,0.1c0.2,0.8,1.3,1.5-0.1,1.8c-1.3-0.7-2.1-1.9-3.1-2.9
		c0.3-0.3,0.6-0.7,0.9-1c0.2,0.2,0.3,0.5,0.5,0.6c0.3,0.3,0.5,0.9,1,0.6c0.4-0.2,0.1-0.7,0.1-1.1c0-0.6,0.2-0.9,0.8-0.7
		c0,0.8-0.3,1.9,1.2,1.7C92.7,68.9,93.7,68.2,93.4,69.2z"/>
	<path class="st17" d="M82.6,73.6c1.7-1.6,3.4-3.2,5-4.8c0.2,0,0.5,0.1,0.6,0.3v0.1c-0.7,1.1-0.8,2.2-0.3,3.4
		c-0.1,0.1-0.2,0.1-0.3,0.2c-0.2,0-0.5-0.1-0.7-0.2c-1.3-0.5-2-0.1-2.2,1.3c0,0.2,0,0.3-0.1,0.5s-0.3,0.3-0.6,0.3
		c-0.4-0.1-0.7-0.1-1-0.2C82.7,74.3,82.3,74.1,82.6,73.6z"/>
	<path class="st19" d="M81.6,72.6c-1.8-0.8-3.5-0.8-5.1,0.5c-1,0.8-0.9,2-1.4,3.1c-0.7-2.1-0.1-3.8,1.7-4.7
		C78.6,70.6,80.5,71.1,81.6,72.6z"/>
	<path class="st34" d="M37.3,27.7c0.1,1-0.5,1.4-1.2,1.8c-0.7,0.3-1.3,0-1.8-0.5c-0.5-0.6-0.6-1.3-0.1-1.9
		C35.7,26.1,36.6,26.3,37.3,27.7z"/>
	<path class="st35" d="M39.9,81.7c0-0.3,0-0.7,0-1c-0.1-0.3,0-0.7,0.1-1c0.2-0.6,0.4-1.1,0.7-1.7c0.4-0.7,0.7-1.4,1.4-1.8
		c0.1-0.1,0.3-0.2,0.4-0.3c0.3,1,1.4,0.2,1.9,0.8C42.5,78,41,79.7,39.9,81.7z"/>
	<path class="st21" d="M82.6,73.6c0.1,0.4,0.2,0.8,0.7,0.6c0.4-0.1,0.6,0.1,0.7,0.4c0.3,0.6,0.6,1.1,1.3,1.2
		c0.3,0.1,0.7,0.2,0.6,0.7c-0.2,0.3-0.5,0.6-0.7,1c-0.1,0.1-0.1,0.1-0.2,0.1c-1.1,0-3.3-1.8-3.4-3c0.2-0.4,0.3-0.8,0.5-1.2
		C82.3,73.4,82.4,73.5,82.6,73.6z"/>
	<path class="st36" d="M42.1,76.2c-0.4,0.6-0.8,1.3-1.2,1.9c-0.6,0-0.8-0.4-0.7-1c-0.5-0.7-1.5-0.9-1.7-1.9c0.4-0.4,0.8-0.4,1.2,0.1
		s0.7,0.9,1.1,1.3c1-0.7-0.2-1.8,0.8-2.3C41.9,74.9,41.6,75.7,42.1,76.2z"/>
	<path class="st37" d="M88.1,69c-0.2,0-0.4-0.1-0.5-0.3c0.1-0.2,0.2-0.3,0.3-0.5c1.3,0.6,2.1,1.8,3.1,2.9c-0.1,0.1-0.2,0.2-0.2,0.2
		c-0.4,0.2-0.8,0.4-1.2,0.6c-0.5,0.2-0.9,0.2-1.3-0.2c-0.3-0.4-0.5-0.8-0.3-1.3C88.3,69.9,88.4,69.5,88.1,69z"/>
	<path class="st18" d="M62.7,11.1c0.5-1,1.2-1.1,2.1-0.5c1,0.7,2.5,0.7,3.1,2c-0.5-0.1-1-0.2-1.4-0.3c-0.3-0.3-0.7,0.1-1-0.2
		C64.7,11.5,63.6,11.6,62.7,11.1z"/>
	<path class="st38" d="M29.3,29.4c0.5,0.7,0.2,1.2-0.4,1.6c-0.5,0.3-1,0.5-1.5,0.1c-0.5-0.5-0.7-1-0.3-1.7
		C27.9,28.9,28.6,28.9,29.3,29.4z"/>
	<path class="st33" d="M65.6,12.1c0.3,0,0.7-0.1,1,0.2c-0.7,0.5-1.4,0.9-1.1,2c0.1,0.3,0.1,0.6-0.3,0.6c-0.3,0.1-0.5-0.1-0.7-0.4
		c-0.3-0.8-0.7-1.7-1-2.6C64.3,11.8,64.8,13.2,65.6,12.1z"/>
	<path class="st39" d="M15.4,65.6c-0.5-1-0.3-2.4-1.9-2.6c-0.1-0.2-0.6,0-0.5-0.4C15.2,62.8,15.9,63.7,15.4,65.6z"/>
	<path class="st40" d="M69.4,40.9c-0.9-1.3-2-1.4-3.4-0.9C67.3,38.6,68.8,39.1,69.4,40.9z"/>
	<path class="st41" d="M37.3,27.7c-0.8-1.4-1.9-1.1-3.1-0.7c0.5-0.7,1.2-0.9,2-0.7C36.8,26.5,37.3,26.9,37.3,27.7z"/>
	<path class="st42" d="M48,51c-0.3-1.1-0.4-2.2,0-3.3C48.3,48.8,48.3,49.9,48,51z"/>
	<path class="st43" d="M29.3,29.4c-0.7-0.2-1.4-0.2-2.2,0C27.9,28.6,28.6,28.6,29.3,29.4z"/>
	<path class="st25" d="M24.3,49.8c0.2,0.1,0.2,0.3,0.2,0.5c-0.5,0.8-0.1,1.6-0.2,2.4C23.9,51.7,24,50.8,24.3,49.8z"/>
	<path class="st44" d="M12.5,45.5c0.1,0.1,0.2,0.2,0.2,0.2c-0.3,0.6-0.9,0.8-1.4,1.2C11.4,46.1,12.2,46,12.5,45.5z"/>
	<path class="st45" d="M13,62.5c0.2,0.1,0.3,0.3,0.5,0.4c-0.5,0-1,0-1.5,0C12.3,62.7,12.6,62.5,13,62.5z"/>
	<path class="st46" d="M46.8,53.8c0.1,0.2,0.2,0.3,0.2,0.5c-0.1,0.4-0.2,0.8-0.7,1v-0.1C46.3,54.7,46.3,54.2,46.8,53.8z"/>
	<path class="st47" d="M26.2,44.3c0.1,0,0.2,0,0.3,0c0.1,0.1,0.1,0.1,0.1,0.2c0,0.1-0.1,0.1-0.1,0.1c-0.2,0.2-0.5,0.5-0.7,0.7
		C25.8,44.9,25.8,44.5,26.2,44.3z"/>
	<path class="st21" d="M30.3,84.5c-0.1-0.6,0.4-1,0.8-1.3c0.2-0.2,0.5-0.4,0.8-0.1c0.4,0.4,0,0.5-0.2,0.7s-0.6,0.4-0.4,0.8
		s0.6,0.2,1,0.1c0.7-0.1,1.4-0.5,2,0.2c0.3,0.4,0.5,1,0.2,1.5s-0.7,1-1.4,1.3c-0.3,0.1-0.6-0.1-0.7-0.3c-0.2-0.4,0.2-0.3,0.4-0.4
		c0.1-0.1,0.3-0.2,0.4-0.4c0.2-0.2,0.4-0.4,0.3-0.7c-0.2-0.3-0.5-0.2-0.7-0.2c-0.3,0.1-0.5,0.2-0.8,0.3C31,86.2,30.3,85.6,30.3,84.5
		z"/>
	<path class="st21" d="M30.3,88.3c-0.1,0.5-0.5,0.7-0.8,1c-0.2,0.2-0.5,0.3-0.2,0.7c0.2,0.3,0.5,0,0.7-0.1c0.4-0.2,0.7-1,1.1-0.5
		c0.3,0.5-0.3,1-0.8,1.3c-0.8,0.7-1.6,0.2-2.3-0.3c-0.5-0.4-0.8-1-0.5-1.8c0.4-0.7,0.9-1.2,1.8-1.1C29.9,87.5,30.2,87.8,30.3,88.3z"
		/>
	<path class="st33" d="M35.1,81.7c0.1-1.4,0.9-2.3,2-2.1c0.9,0.1,1.8,1.6,1.6,2.7c-0.1,0.3-0.2,0.4-0.5,0.4c-0.4,0.2-0.7,0.2-1-0.1
		c0-0.1-0.1-0.2,0-0.3c0.1-0.4,0.2-0.9-0.3-0.9c-0.6,0,0,0.5-0.1,0.8c-0.1,0.2-0.2,0.2-0.3,0.3c-0.5,0.1-0.8-0.1-1.1-0.4
		C35.3,81.9,35.2,81.8,35.1,81.7z"/>
	<path class="st21" d="M35.7,85c-0.4,0-0.6-0.3-0.8-0.5c-0.3-0.3-0.7-0.8-1-0.8c-0.9,0-0.9-0.6-1.1-1.2c-0.1-0.3-0.2-0.6,0.1-0.8
		c0.3-0.3,0.5,0,0.6,0.2c0.2,0.3,0.4,0,0.6,0c0.3,0,0.7,0,0.5,0.5c-0.4,1,0.4,1.3,1.1,1.4c0.3,0.1,0.8-0.2,0.7,0.4
		C36.5,84.7,36.2,85,35.7,85z"/>
	<path class="st21" d="M35.3,81.9c0.4,0.1,0.8,0.2,1.2,0.3c0.2,0.2,0.6-0.1,0.7,0.2c0.3,0.1,0.6,0.2,0.9,0.3c0,0.1,0,0.1,0,0.2
		C36.6,83.5,35.9,83.3,35.3,81.9z"/>
	<path class="st13" d="M9.7,68.9c-0.1,0.6-0.4,0.6-0.8,0.3c-0.3-0.3-0.7-0.6-0.4-1.1c0.2-0.2,0.5-0.4,0.7-0.6
		C9.3,68,9.5,68.5,9.7,68.9z"/>
	<path class="st48" d="M69.1,10.1c-0.6,0.4-1.1,0.7-1.6,0c-0.2-0.3-0.3-0.8,0.1-0.9C68.3,8.9,68.5,9.8,69.1,10.1z"/>
	<path class="st31" d="M46.8,53.8c-0.3,0.4-0.3,1-0.4,1.5c-0.4-0.3-0.2-0.7-0.1-1.1C47,49,44.8,44,40.2,41.8
		c-0.2-0.1-0.4-0.1-0.6-0.2c-0.2-0.1-0.3-0.2-0.5-0.2C39,41.3,39,41.2,39,41.2c-0.4-0.4-0.8,0.2-1.2,0c-0.1,0-0.2-0.1-0.3-0.2
		c-0.5-0.9,0.6-1,0.8-1.5c0.1-0.1,0.2,0,0.3,0c6.3,1.7,8.7,7.2,8.4,12.2C47,52.4,46.9,53.1,46.8,53.8z"/>
	<path class="st33" d="M62.2,52.4c-0.3-0.3-0.6-0.5-0.1-0.9c0.4-0.3,0.7-0.3,1,0.2s0.6,0.5,1.1,0c0.6-0.7,1.4-0.5,2,0
		c0.7,0.6,1.2,1.2,0.6,2.2c-0.3,0.5-0.6,1.1-1.2,1.4c-0.1,0.2-0.4,0.4-0.6,0.2C64.1,54.5,62.9,53.7,62.2,52.4z"/>
	<path class="st33" d="M58.4,56.5c-0.1-0.3-0.6-0.5-0.3-0.9c0.4-0.6,0.9,0,1.3,0c1.1,0.7,1.8,1.8,2.7,2.7c0.2,0.2,0.2,0.4,0,0.7
		c-0.4,0.5-0.9,1-1.4,1.4c-0.8,0.6-1.5,0.1-2-0.4c-0.7-0.5-0.8-1.3-0.6-2.2C58.1,57.4,58.4,57,58.4,56.5z"/>
	<path class="st33" d="M68.9,46.2c0.1-1.2,0.8-1.6,1.3-2c0.2-0.2,0.4,0.1,0.6,0.2c0.3,0.3,0,0.5-0.2,0.7c-0.3,0.2-0.9,0.4-0.6,0.9
		c0.3,0.6,0.8,0.2,1.2,0c0.9-0.4,1.7-0.2,2.1,0.8c0.3,0.7-0.6,2.1-1.3,2.3c-0.3,0.1-0.7,0-0.8-0.3c-0.2-0.4,0.3-0.4,0.4-0.6
		c0.1-0.1,0.2-0.1,0.2-0.1c0.3-0.3,0.8-0.4,0.6-0.9c-0.2-0.4-0.7-0.2-1.1-0.1c-0.5,0.2-1,0.5-1.6,0.1C69.2,46.8,68.9,46.5,68.9,46.2
		z"/>
	<path class="st33" d="M67.8,51.1c0.8,0.3,1.1-0.2,1.4-0.5c0.2-0.1,0.3-0.3,0.5-0.1c0.2,0.1,0.2,0.4,0.1,0.5c-0.4,0.7-1,1.3-1.8,1.3
		c-0.8-0.1-1.5-0.6-1.8-1.5c-0.2-0.7-0.1-1.3,0.6-1.8c0.8-0.6,1.5-0.3,2,0.2c0.7,0.6-0.3,0.9-0.5,1.3C68.2,50.7,68,50.9,67.8,51.1z"
		/>
	<path class="st33" d="M75.7,44.5c-1.1,0-1.9-0.8-1.9-1.8c0-0.7,1-1.8,1.7-1.8c1,0,2.1,1,2.1,2C77.6,43.8,76.7,44.5,75.7,44.5z"/>
	<path class="st33" d="M60.8,55.1c0.7-0.6,1.4-1.2,2.4-1c0.8,0.1,1.4,0.5,1.2,1.4c0.2,1-0.4,1.7-1.2,2.2c-0.9,0.6-1.6,0-2.2-0.6
		C60.4,56.5,60.2,55.8,60.8,55.1z"/>
	<path class="st33" d="M75.4,45.4c-0.1,0.4-0.4,0.6-0.7,0.8c-0.3,0.2-0.6,0.1-0.8-0.2c-0.5-0.5-1-1-1.8-1.3c-0.5-0.2-0.5-1-0.6-1.6
		c0-0.2,0.4-0.5,0.5-0.3c0.3,0.7,1.6-0.5,1.5,1c-0.1,0.6,0.4,1.3,1.3,1.2C75,45.1,75.2,45.1,75.4,45.4z"/>
	<path class="st33" d="M78.3,41.9c-1,0-1.4-0.8-1.6-1.6s0.2-1.5,0.8-2c0.3-0.2,0.4,0,0.6,0.2s0.2,0.4-0.1,0.6
		c-0.6,0.5-0.6,1-0.1,1.5s1,0.4,1.4-0.1c0.2-0.2,0.5-0.4,0.7-0.1c0.2,0.3,0,0.5-0.2,0.7C79.4,41.6,78.9,41.9,78.3,41.9z"/>
	<path class="st28" d="M58.4,56.5c0.3,0.1,0.4,0.3,0.2,0.6c-0.9,2.1-0.3,3.1,1.9,3.2c0.2,0,0.4-0.1,0.5,0.1c-0.4,0.1-0.4,0.9-1,0.5
		c-0.1,0-0.1-0.1-0.2-0.1c-1.5-0.4-2.8-1.1-4.1-1.9c1.1-0.1,1.8-0.7,2.1-1.8C58,56.9,58.1,56.6,58.4,56.5z"/>
	<path class="st28" d="M60.8,55.1c0,1.8,0.7,2.5,2.4,2.6c-0.3,0.5-0.6,1-0.9,1.5c-0.1,0.1-0.2,0.3-0.3,0c0-0.1,0-0.2,0-0.4
		c-0.3-1-1.2-1.4-1.8-2.1c-0.3-0.4-0.6-0.8-0.9-1.2C59.7,55.2,60.2,55.1,60.8,55.1z"/>
	<path class="st28" d="M64.4,55.5c-0.1-0.7-0.7-1.1-1.2-1.4c-0.2-0.1-0.3-0.2-0.5-0.2c-0.4-0.1-0.9,0.2-1-0.3
		c-0.1-0.4,0.1-1,0.6-1.2c0.9,0.9,1.8,1.7,2.7,2.6c0.2,0.2,0.3,0.5,0.7,0.3c0.1,0.5-0.3,0.9-0.7,1C64.4,56.4,64.8,55.6,64.4,55.5z"
		/>
	<path class="st28" d="M57.4,63.2c-0.5-0.3-0.6-0.7-0.2-1.1c0.4-0.3,0.6-1.1,1.3-0.5c0.1,0.1,0.4,0.1,0.5,0.2
		C58.9,62.6,57.9,62.7,57.4,63.2z"/>
	<path class="st21" d="M67,95.1c-0.3-1.2-0.9-2.3-1.5-3.4c-0.3-0.5-0.7-1-0.1-1.6c0.5-0.5,1-0.1,1.4,0.1c0.9,0.4,1.9,0.8,2.8,1.3
		c0.3,0.1,0.7,0.3,0.5,0.8c-0.2,0.4-0.5,0.4-0.9,0.3c-1-0.3-1.6,0.3-1.4,1.3C68,94.7,67.7,95,67,95.1z"/>
	<path class="st21" d="M77.6,83.4c0,1,0,1.9-0.9,2.5c-0.5,0.3-0.8,0.4-1.2,0c-0.9-0.9-1.8-1.8-2.7-2.7c-0.3-0.2-0.3-0.4-0.1-0.7
		c0.2-0.3,0.6-0.4,0.8-0.1c0.5,0.7,0.9,0.5,1.5,0c0.7-0.7,1.5,0,2.2,0.2C77.4,82.8,77.4,83.1,77.6,83.4z"/>
	<path class="st21" d="M70.6,91.3c-1.4,0-2.3-1.4-1.7-2.6c0.3-0.6,0.7-1.1-0.1-1.5c-0.3-0.2-0.4-0.5-0.1-0.8s0.6-0.3,0.9,0
		c0.9,0.9,1.7,1.7,2.6,2.6c0.3,0.3,0.4,0.7,0.1,1.1C71.9,90.7,71.3,91.3,70.6,91.3z"/>
	<path class="st21" d="M83.8,78.6c-0.5,0.5-0.6,1.2-1.4,1.4c-0.3,0.1-0.6,0.2-0.8-0.2c-0.3-0.4-0.1-0.6,0.2-0.8c0,0,0.1,0,0.1-0.1
		c0.3-0.3,0.9-0.5,0.7-0.9c-0.3-0.5-0.8-0.2-1.3,0s-1,0.2-1.4,0c-1-1.5-0.4-2.7,1.2-2.9c0.6,0.4,0.6,0.4-0.1,1.4
		c1.2-0.2,2.4-0.8,3,0.9C84.2,77.9,84,78.3,83.8,78.6z"/>
	<path class="st21" d="M77.1,82.4c-0.1-0.2-0.2-0.5-0.2-0.7c-0.2-0.4-0.2-0.8,0-1.2c0.2-0.3,0.4-0.6,0.7-0.7c0.5-0.2,1-0.2,1.4,0
		c0.7,0.4,0.9,0.9,0.1,1.4c-0.3,0.2-0.5,0.5-0.7,0.9c0.6,0.2,0.9-0.2,1.2-0.5c0.2-0.2,0.3-0.4,0.6-0.2c0.2,0.2,0.2,0.5,0.1,0.7
		c-0.6,1-1.5,1.1-2.5,1C77.4,83,77.3,82.7,77.1,82.4z"/>
	<path class="st21" d="M73.5,85.1c1.2,0.6,1.7,1.4,1.3,2.4c-0.3,0.7-0.7,1.2-1.6,1.2s-1.5-0.7-1.8-1.4c-0.4-0.9-0.1-1.7,0.9-2.2
		C72.7,84.9,73.1,84.9,73.5,85.1z"/>
	<path class="st21" d="M84.5,74.3c-0.2-0.9,0-1.6,0.8-2.1c0.9-0.6,1.6-0.1,2.4,0.4c0.2,0.2,0.4,0.3,0.4,0.6
		c-0.1,0.4,0.1,0.9-0.1,1.3c-0.2,0.3-0.5,0.6-0.7,1c-0.1,0.1-0.2,0.2-0.3,0.2c-0.4,0.1-0.8,0.2-1.2,0.1
		C84.9,75.5,84.3,75.3,84.5,74.3z"/>
	<path class="st21" d="M88.1,69c0.6,0.3,1.1,0.6,0.3,1.3c-0.5,0.4-0.3,0.9,0,1.3c0.3,0.5,0.8,0.3,1.1,0.1c0.4-0.2,0.7-0.6,1.2-0.2
		c-0.2,1.1-1.1,1.3-1.9,1.7c-0.5,0.2-0.8-0.1-1-0.5C86.8,71,86.9,70.8,88.1,69z"/>
	<path class="st37" d="M83.8,77.4c-0.4-0.8-1.2-0.8-1.9-0.6c-0.4,0.1-1,0.6-1.3,0.1s0.3-0.8,0.7-1c0.4-0.3,0.3-0.5-0.1-0.7
		c0-0.3,0-0.7,0.5-0.7c0.8,1.5,2.2,2.2,3.6,2.9c-0.2,0.6-0.7,0.7-1.2,1C83.8,78.1,84.1,77.7,83.8,77.4z"/>
	<path class="st37" d="M84.5,74.3c0.1,0.7,0.5,1.1,1.2,1.2c0.4,0.2,0.8,0.2,1.2,0c0.1,0,0.2,0,0.2,0c-0.1,0.6-0.9,0.6-1.2,1
		c-0.2-0.4-0.6-0.4-1-0.5c-0.7-0.2-1.4-0.4-1-1.4C84.2,74.4,84.4,74.3,84.5,74.3z"/>
	<path class="st37" d="M87.9,72.6c0.3,0.1,0.5,0.5,1,0.5c-0.2,0.3-0.5,0.2-0.7,0.2c-0.1,0-0.2-0.2-0.2-0.2
		C87.8,73,87.8,72.8,87.9,72.6C87.7,72.6,87.8,72.6,87.9,72.6z"/>
	<path class="st17" d="M93.4,69.2c0-0.7-0.7-0.3-1-0.7C92.8,68.7,93.8,68,93.4,69.2z"/>
	<path class="st17" d="M77.1,82.4c0.3,0.2,0.6,0.4,0.7,0.7c-0.1,0.1-0.2,0.2-0.2,0.2c-0.3-0.1-0.5-0.4-0.5-0.7
		C77.1,82.6,77.1,82.5,77.1,82.4z"/>
	<path class="st17" d="M87.9,73.1c0.1,0.1,0.2,0.2,0.2,0.2c-0.1,0.4,0.1,0.9-0.2,1.2C87.9,74,87.9,73.5,87.9,73.1z"/>
	<path class="st17" d="M80,78.1c0.5,0,1,0,1.4,0C80.9,78.5,80.4,78.5,80,78.1z"/>
	<path class="st17" d="M79,79.8c-0.5,0-1,0-1.4,0C78.1,79.4,78.5,79.4,79,79.8z"/>
	<path class="st17" d="M73.5,85.1c-0.4,0-0.8,0-1.2,0C72.7,84.7,73.1,84.7,73.5,85.1z"/>
	<path class="st17" d="M83.8,77.4c0.3,0.3,0.2,0.6,0.2,1c-0.1,0.1-0.2,0.2-0.2,0.2C83.8,78.2,83.8,77.8,83.8,77.4z"/>
	<path class="st17" d="M76.8,80.5c0,0.4,0,0.8,0,1.2C76.5,81.3,76.5,80.9,76.8,80.5z"/>
	<path class="st21" d="M29.6,50.3c-1.5,0-2.3-1.6-1.6-2.9c0.2-0.4,0.5-0.8-0.1-1.2c-0.3-0.2-0.2-0.5,0-0.7c0.3-0.3,0.6-0.3,0.8,0
		c0.9,0.9,1.7,1.7,2.6,2.6c0.3,0.3,0.3,0.7,0.1,1C30.9,49.7,30.3,50.3,29.6,50.3z"/>
	<path class="st21" d="M36.3,42.1c0.3,0.5,0.3,1,0.1,1.6c-0.6,1.6-1.3,1.8-2.5,0.6c-0.6-0.6-1.2-1.2-1.9-1.8
		c-0.3-0.3-0.6-0.7-0.3-1.1c0-0.3,0.2-0.4,0.5-0.4c0.6,0.3,1,0.5,1.7,0.1C35,40.5,35.9,41,36.3,42.1z"/>
	<path class="st49" d="M32.2,41.2c-0.2,0.1-0.3,0.1-0.5,0.2c-1.7,0.4-3.1,1.4-4.5,2.4c-0.3,0.2-0.5,0.5-0.8,0.7c0-0.1,0-0.2,0-0.2
		c2.5-3.1,5.7-4.8,9.6-5c0.5-0.2,1.1-0.4,1.7,0c-0.2,1-0.4,1.2-1.3,0.8c-0.3-0.1-0.3,0-0.4,0.2c-0.2,0.3-0.2,0.6-0.5,0.7
		C34.3,40.7,33.3,41.6,32.2,41.2z"/>
	<path class="st21" d="M33.9,45.8c0,1-0.7,1.8-1.6,1.9c-0.9,0-1.9-0.9-2-1.8c0-0.9,0.8-1.9,1.7-2C32.9,43.8,33.9,44.8,33.9,45.8z"/>
	<path class="st25" d="M32.2,41.2c1.1-0.4,2.2-0.5,3.4-0.5c0.1-0.1,0.2-0.1,0.3,0c0.3,0.4,0.8,0.6,0.7,1.3c-0.1,0.1-0.2,0.2-0.2,0.2
		c-1-1.2-1.5-1.2-2.9-0.3C32.7,42.3,32.6,41.5,32.2,41.2z"/>
	<path class="st21" d="M36.5,41.9c-0.2-0.4-0.7-0.6-0.7-1.2c0.1-0.1,0.2-0.1,0.3-0.1c0.4,0,0.8,0,1.2,0.1c0.2,0.1,0.3,0.1,0.4,0.2
		l0,0c0.2,0.2,0.5,0.1,0.8,0.2c0.4,0.2,0.7,0.4,0.2,0.8c-0.2,0.1-0.3,0.2-0.5,0.2c-0.4,0.2-0.8,0.2-1.2,0C36.9,42,36.7,42,36.5,41.9
		z"/>
	<path class="st25" d="M38.7,41.9c0.3-0.4-0.1-0.5-0.2-0.7c0.2-0.2,0.5-0.2,0.7,0c0,0.1,0,0.2,0,0.2C39.2,41.7,39,41.9,38.7,41.9z"
		/>
	<path class="st25" d="M37,42.1c0.4,0,0.8,0,1.2,0C37.8,42.5,37.4,42.5,37,42.1z"/>
	<path class="st33" d="M42,38.8c-0.4-0.1-0.8-0.3-1.2-0.5c-0.1,0-0.1-0.1-0.1-0.1s0-0.1,0.1-0.1c0.1-0.1,0.3-0.2,0.4-0.3
		c0.2-0.2,0.6-0.4,0.4-0.7c-0.2-0.4-0.6-0.2-0.9-0.1c-0.6,0.3-1.2,0.6-1.8-0.1c-0.2-0.1-0.4-0.3-0.5-0.5c-0.3-0.9,0.3-2.1,1.1-2.3
		c0.3-0.1,0.5,0,0.7,0.2c0.3,0.4-0.1,0.4-0.2,0.6c-0.3,0.3-0.9,0.6-0.5,1.1c0.3,0.4,0.7,0,1.1-0.1c1.7-0.5,2.3,0.1,2.1,2
		C42.5,38.1,42.6,38.7,42,38.8z"/>
	<path class="st33" d="M45.3,34.4c-1.1,0-2-0.9-2.1-1.9c0-0.9,0.9-1.7,1.9-1.7c0.8,0,1.9,1.1,1.9,1.9C47.1,33.6,46.2,34.4,45.3,34.4
		z"/>
	<path class="st33" d="M44.9,35.5c-0.3,0.5-0.9,1.1-1.2,0.7c-0.9-0.9-2.2-1.3-2.8-2.6c-0.1-0.2-0.2-0.4,0-0.6
		c0.2-0.2,0.4-0.2,0.7-0.1c0.5,0.4,1.7,0,1.5,1.3c0,0.2,0.5,1,1.2,0.8C44.6,34.9,44.8,35.1,44.9,35.5z"/>
	<path class="st33" d="M46.1,29.6c0-0.2,0-0.6,0.3-0.9s0.6-0.7,1-0.4c0.6,0.4,0.1,0.7-0.1,1c-0.4,0.4-0.3,0.9,0.1,1.3
		c0.4,0.4,0.8,0.2,1.2,0c0.3-0.2,0.6-0.7,1-0.2c0.3,0.5-0.3,0.7-0.5,0.9c-0.5,0.6-1.2,0.5-1.8,0.2C46.5,31.3,46.1,30.6,46.1,29.6z"
		/>
	<path class="st16" d="M40.9,38c0,0.1,0,0.1,0,0.2c-0.6-0.2-1.1-0.3-1.7-0.5C39.8,37.3,40.3,37.8,40.9,38z"/>
	<path class="st16" d="M42,38.8c0.2-0.4,0.3-0.8,0.7-1c0.3,0.5-0.3,0.8-0.3,1.2C42.4,38.9,42.2,38.8,42,38.8z"/>
	<path class="st16" d="M50.7,28.4c0.5,0,1,0,1.4,0C51.7,28.8,51.2,28.8,50.7,28.4z"/>
	<path class="st16" d="M38.5,36.4c0.2,0.2,0.3,0.3,0.5,0.5c-0.3,0-0.6,0-1.1,0C38.1,36.6,38.3,36.5,38.5,36.4z"/>
	<path class="st16" d="M38.2,37.6c-0.2,0-0.4,0-0.7,0c0.4-0.4,0.8-0.2,1.2,0C38.5,37.5,38.3,37.6,38.2,37.6z"/>
	<path class="st50" d="M37.8,39.4c-0.5-0.4-1.2-0.1-1.7-0.2c1.1-0.9,1.4-0.9,2.6,0.3c-0.1,0-0.2,0-0.2,0
		C38.2,39.7,38,39.7,37.8,39.4z"/>
	<path class="st51" d="M40.2,79.8c0,0.3-0.1,0.6-0.3,0.9c-2.3-0.8-2.2-2-1.6-3.1c0.4-0.8,1-1,1.4,0C38.9,78.6,39.9,79.1,40.2,79.8z"
		/>
	<path class="st52" d="M40.2,79.8c-1.5-0.9-1.6-1.2-0.5-2.2c0.2-0.2,0.3-0.3,0.5-0.5c0.2,0.3,0.5,0.6,0.7,1
		C40.6,78.7,40.4,79.2,40.2,79.8z"/>
	<path class="st53" d="M25.4,50.2c0.6,0,1,0.1,1.1,0.7c0,0.1-0.2,0.3-0.3,0.3C25.6,51.3,25.6,50.6,25.4,50.2z"/>
	<path class="st54" d="M37.3,82.4c-0.3,0-0.5,0-0.7-0.2c-0.1-0.4-0.9-0.8-0.2-1.3c0.4-0.3,0.7-0.1,1.1,0.2
		C38,81.6,37.7,82,37.3,82.4z"/>
	<path class="st55" d="M37.8,39.4c0.2,0,0.5,0,0.7,0c0.3,0.4-0.2,0.5-0.4,0.7s-0.6,0.3-0.4,0.7c-0.2,0-0.3,0-0.5,0
		c-0.4-0.3-0.8,0-1.2-0.2h-0.1h-0.1c-0.1,0-0.2,0-0.2,0c0.1-0.6,0.3-1.7,0.9-1.1C37.2,40.4,37.4,39.3,37.8,39.4z"/>
	<path class="st56" d="M39.2,41.2c-0.2,0-0.5,0-0.7,0c-0.3,0-0.5,0-0.7-0.2c0.3,0,0.7,0.1,1-0.3c0.1-0.2,0.3-0.4,0.5-0.2
		S39.4,41,39.2,41.2z"/>
	<path class="st57" d="M65.1,52.3c0.5,0.2,0.9,0.5,0.9,1.1c0,0.3-0.2,0.8-0.5,0.6c-0.5-0.2-1-0.6-1.1-1.2
		C64.4,52.4,64.8,52.3,65.1,52.3z"/>
	<path class="st57" d="M60.7,58.8c0,0.4-0.2,0.5-0.5,0.6c-0.6,0-1-0.3-1.1-0.9c0-0.3,0.1-0.7,0.5-0.7C60.1,57.9,60.4,58.4,60.7,58.8
		z"/>
	<path class="st57" d="M76.5,43c0,0.4-0.3,0.5-0.6,0.6c-0.6,0.1-1-0.3-1.1-0.8C74.7,42.3,75,42,75.4,42C76,41.9,76.2,42.5,76.5,43z"
		/>
	<path class="st57" d="M63.4,56c0,0.4-0.2,0.8-0.6,0.7c-0.5-0.1-1-0.3-1-1c0-0.4,0.2-0.7,0.6-0.6C63,55.1,63.3,55.4,63.4,56z"/>
	<path class="st58" d="M66.5,91.2c0.3,0.3,1,0.2,1.1,0.7c0,0.1-0.2,0.3-0.3,0.3C66.6,92.2,66.6,91.6,66.5,91.2z"/>
	<path class="st59" d="M76.6,84.2c0,0.4-0.1,0.9-0.5,0.8c-0.5-0.1-0.9-0.5-1.1-1c-0.1-0.4,0.3-0.6,0.7-0.6
		C76.3,83.3,76.6,83.6,76.6,84.2z"/>
	<path class="st60" d="M71.4,89.7c-0.2,0.4-0.4,0.7-0.8,0.6c-0.5-0.1-1-0.3-1-1c0-0.3,0.1-0.7,0.5-0.7
		C70.8,88.7,71.1,89.2,71.4,89.7z"/>
	<path class="st59" d="M73.3,87.7c-0.5-0.2-0.9-0.5-1-1c0-0.5,0.3-0.7,0.7-0.7c0.5,0,0.9,0.4,0.9,0.9C74,87.4,73.8,87.6,73.3,87.7z"
		/>
	<path class="st59" d="M87.1,74c0,0.4-0.3,0.5-0.6,0.5c-0.6,0-1-0.4-1.1-0.9c-0.1-0.4,0.3-0.7,0.7-0.7C86.6,73,86.9,73.4,87.1,74z"
		/>
	<path class="st17" d="M86.9,75.5c-0.4,0.3-0.8,0.3-1.2,0C86.1,75.5,86.5,75.5,86.9,75.5z"/>
	<path class="st59" d="M30.3,48.6c-0.2,0.5-0.5,0.6-0.8,0.6c-0.5-0.1-0.8-0.5-0.9-1c0-0.4,0.3-0.7,0.6-0.5
		C29.7,47.9,30,48.3,30.3,48.6z"/>
	<path class="st61" d="M35.6,43.2c0,0.4-0.1,0.8-0.5,0.8c-0.5-0.1-0.9-0.5-1.1-1c-0.2-0.4,0.3-0.6,0.7-0.6
		C35.3,42.2,35.4,42.8,35.6,43.2z"/>
	<path class="st59" d="M32.3,46.6c-0.5-0.2-0.9-0.5-0.9-1c0-0.4,0.3-0.6,0.7-0.6c0.5,0.1,0.9,0.4,0.9,0.9
		C32.9,46.3,32.7,46.6,32.3,46.6z"/>
	<path class="st25" d="M36.1,40.7c0.4,0,0.9-0.1,1.2,0.2C36.9,40.9,36.4,41.1,36.1,40.7z"/>
	<path class="st57" d="M45.3,33.5c-0.5-0.1-1-0.4-1-1c0-0.4,0.4-0.7,0.8-0.7C45.7,32,46,32.4,46,33C46.1,33.4,45.7,33.4,45.3,33.5z"
		/>
</g>
<g>
	<path class="st62" d="M103,48c0.1-0.5,0.1-1.1,0.2-1.6c1.2-1.5-0.9-1.5-1-2.4c-0.1-1.4,0.5-2.9-0.8-4.1c0-0.2,0-0.5-0.1-0.7
		c-0.4-2.9-1.6-5.7-1.6-8.7c-0.9-1.4-1.7-2.9-2.2-4.5c-1-1.2-1.8-2.5-2.4-3.9c-0.9-0.8-1.8-1.8-2.5-2.8c-0.3,0-0.7,0-1,0.1
		c-0.1-0.7-0.2-1.3-0.2-2c-1.5-0.9-2.7-2-3.8-3.2c-0.3,0.1-0.6,0.1-1,0c-0.6-0.9-1.2-1.7-1.4-1.9c-4.2-1.1-7.1-4-11-3.4l-0.1,0
		c-0.2-1.2-0.9-1.6-2-1.3c-0.7-0.4-1.3-0.8-2-1.2c0.2-0.6,0.3-1.2,0.4-1.8c-0.3,0-0.6,0-0.9,0c-2.4,0-4.5-0.5-6.5-1.4
		c-1.7-0.3-3.3-1-4.7-1.8c-3.7,0.4-7.4,0.7-11.1,0c-1,0.2-1.9,0.3-2.9,0.3c-1.1,0-2.2-0.1-3.3-0.3c-0.1,0.2-0.3,0.4-0.4,0.6
		c0.9,1.4,3.2-0.2,3.6,2c-2.4,0.3-4.8,0.5-7.1,1.3c-1.1-0.7-2.2-1.1-3.3-1.4c-1.7,1.2-3.7,2-5.8,2.4c-0.6,1.3-1.6,2.3-2.2,3.5
		c-0.3,0.7-0.9,0.9-1.6,0.8c-0.1-0.1-0.2-0.2-0.3-0.2c-1.1,1.1-2.3,2-3.6,2.7c0.1,0.1,0.2,0.3,0.2,0.4c-0.1,0.3-0.3,0.6-0.4,0.9
		C11.8,20.8,6.3,29.6,3,39.9c-2.2,5.6-1.6,11.4-1.7,17.3c0,6.7,2.1,12.7,4.8,18.8c3,6.8,8.1,11.6,12.9,16.8c-1.1,3-0.8,6.2-0.7,9.8
		c1.6,0.2,2.2,1.6,3.2,2.9H32c0.6-1.5,1-2.7,1.5-3.8c7,1.6,14,3.1,21.4,2.7c8.8-0.5,16.9-2.3,23.4-8.6c-0.1,0.7-0.2,1.4,0.6,2
		c1.4-2.2,3.2-4,5.4-5.3c1.3-1.8,2.9-3.3,4.8-4.4c0.5-0.7,1.1-1.3,1.8-1.9c1.1-3.5,3.6-6.5,6.8-8.5c0.1-0.5,0.3-1.1,0.5-1.6
		c0-0.1-0.1-0.2-0.1-0.4c-1.2-0.4-1.3,1.1-2.2,1.3c0.4-1.6,0.2-3.6,2.4-4c0.1,0.5,0,1.2,0.7,1.2c0.3-0.6,0.6-1.1,1-1.6
		c0-0.3,0-0.5,0-0.8l0,0c0.2,0,0.4,0,0.6,0c0.5-0.7,1.1-1.3,1.8-1.9c0-0.1,0-0.3,0-0.4c-0.1-1.7-0.1-3.4-0.2-5.2
		c0.1-0.5,0.1-1.1,0.2-1.6c0.5-1,1-2,0.9-3.1c0.1-3.2,0.3-6.5,0.4-9.7c0.5-0.2,0.9-0.4,0.8-1.2c-0.3-0.1-0.7-0.3-1.1-0.5L103,48z"/>
	<path class="st63" d="M70.3,6.2c0.7,0.4,1.3,0.8,2,1.2c0.5,0.7,1,1.3,2,1.3l0.1,0c0,0.2,0,0.4,0,0.6c0,4.2,2.6,6.3,6,7.3
		c0.6,1.7-1.2,2.3-0.9,3.7c2-0.2,3.7,0.3,4.3,2.6c-2.8,2.2-2.8,2.2-8.4-1.2c-1.3,0.3-1,1.3-1.1,2.2c-1.5,0.2-2.5,0.9-2.4,2.6
		c0.1,1.6,1,2.4,2.5,2.1c1.5-0.6,1.4-1.9,1.5-3.1c1.4,0.6,2.9,0.5,4.5,0.4c0,1.3,0,2.3,0,3.3c3,1.1,6.5,1,10.4-0.3
		c0.3,1.3,1.2,1.6,2.4,1.5c0.2,1.4,1.5,2,2.1,3.1c-1.1,1.1-0.6,1.8,0.5,2.4c0.2,0.2,0.3,0.4,0.2,0.7c-1.2,0.4-1.4,1.6-1.9,2.5
		c-0.8-0.5-1.3-1.2-1.6-2.1c-1.2-3.1-3.3-3.3-5.9-1.9c-1.2,6,0,8.7,4.4,10.2c2.6-0.9,0.4-4.6,3.1-5.4c1.1,0.5,1.5,1.3,1.6,2.5
		c0.8,4.4,1.5,8.8,1.6,13.2c0,1.3-0.7,3.1,1.5,3.5c0.3,0.9,0.3,1.8-0.5,2.5c-3.5,2.6-3.6,6.3-3.2,10.2c0.8,1.9-0.8,3.3-1.1,4.9
		c-0.2,0.2-0.3,0.4-0.1,0.6c-0.7,1.4-2.8,2-2.2,4.1c-1,0.5-2.2,0.9-1.6,2.4c-0.2,0.5-0.9,0.9-0.2,1.5l0.1-0.1
		c-1.2-0.8-1.4,0.1-1.6,0.9l0,0c-0.4,0.2-0.8,0.5-1.2,0.7c-2.3,3.7-6.5,5.5-9.2,8.8c-6.6,6.3-14.6,8-23.4,8.6
		c-7.4,0.4-14.3-1-21.4-2.7c-2.5-2-5.1-3.5-8.4-3.4c-1.1-2.8-3.9-3.7-5.9-5.4c-4.8-5.2-10-10-12.9-16.8c-2.7-6.1-4.8-12.1-4.8-18.8
		c0-5.8-0.5-11.7,1.7-17.3c1.5,1.2,1,3,0.9,4.5c-0.4,4.4,0.5,8.5,2.6,12.3C7.5,58.6,8,60.6,8,63c1.7,1,2.1,2.9,2.8,4.2
		c3.3,3,7.3,0.7,10.8,2.1c0.5,1.1,1.6,2,1.3,3.5c-1.4,2.2-5.6,0.7-6.1,4.5c0.7,1.4,1.6,3.1,2.3,4.5c2.9,1.9,5.4,1.7,7.5-0.3
		c1.5-2.7-1.1-3.8-1.8-6c2.3-1.8,4.5-4,7.8-5.2c2.2,4.7-3.7,4.8-3.8,7.8c0.6,1.4,2.9,1.9,1.8,4.8c-0.2,0.4-3.2,0.7-1.2,3.2
		c3.5,0.7,5.4-2.9,8.9-3.5c0.5,0.3,1.2,0.7,2,1.1c2.6-1.2,4.3-3.2,6.1-5.4c-0.8-1.1-1.6-2.2-2.4-3.2c0.8-1.5,1.5-2.9,2.3-4.4
		c-3.6-2.1-2.9-7.1-6.7-8.9c-1,0.4-1.6,1.1-2,2.4c1.7,1.8,2,4,0.4,6.7c0.1-2.6-1.3-4-3.4-4.7c-0.2-1.3-0.4-2.5-0.5-3.5
		c-1.8-1.6-3.4-3.2-4.7-4.4c-2.2-5.3-3.6-10.2,0-14.8c3.8-1.2,7.3-1.3,10.3,0.9c3.5-0.4,5.9-1.6,7.2-4.4c-0.5-2.6-3.6-2.4-4.7-4.8
		c3.6-3.5,8.9-5.2,12.6-9.4c-4.2-3.2-8-6.1-11.7-8.9c-1.7,0-3.3,0-4.8,0c-1.1,0.8-2.2,1.5-3,2.1c-2.3,0.5-4.4-0.3-6.2,0.8
		c-0.7,3.9-2.4,6.9-6.3,8.2c-2.5-3.2,0.2-5.9-0.1-8.4c3.3-3,8.3-2.9,11.4-7.1c-4.3-0.9-6.9,0.8-9.5,2.6c-1.6,1.1-3.1,1.8-3.9-0.9
		c0.1-0.3,0.3-0.6,0.4-0.9c1.5-0.6,2.6-1.8,3.7-2.9c0.7,0.1,1.3-0.1,1.6-0.8C30,8,33.7,6.5,37.5,5c2.3-0.8,4.7-1.1,7.1-1.3
		c4.3-0.4,8.6-0.1,12.9,0.1C61.9,3.9,65.9,5.9,70.3,6.2z M95,59.2c0-1.2,0-2.4,0-3.2c-1.9-2.6-4-4.3-6.7-5.5
		c-4.1,4.2-6.4,8.7-4,14.1c1.6,1.7,4.3,0,4.9,2.8c-0.9,1.9-3.4,3.1-2.7,5.7c1.4,0.8,2,0,2.8-0.8c3-3.2,4.2-6.9,2.6-11.2
		c1.4-0.1,2.2-0.2,3-0.2c1,0,1.9-0.2,1.6-1.6C95.9,58.7,95.5,59.1,95,59.2z M61.4,26c-3.6,2.3-5.4,5.4-5.5,9.3
		c-0.2,7.9,7,7.2,11.6,9.3c-0.1,2-2.2,2.2-2.7,3.8c2.5,2.7,0.1,7.1,3.2,9.7c1.4,0.7,3.1-0.2,4.2,1.5c0.8,1-1.2,1.7-0.3,3.1
		c5.7,0.5,2.9-4.7,4.3-6.9c1.9-1.1,3.7-0.1,5.5,0c1.7-2.6,1.4-5.4,1.3-8.4c-2.4-1.2-2.3-3.7-2.6-5.9c-1.8-1-3.2-0.5-4.6,0.5
		c-1.5,1-3,0.6-4.3-0.8c1.6-1.2,2.6-2.7,2.5-4.7c-1.4-3.2-3.1-6.2-6.3-8.3C65.6,28.4,63.6,27.6,61.4,26z M67.7,16.5
		c0-0.7,0-1.5,0-2.2c-7.9-3.2-17,0.2-24.4-4.1c-2.5,0.9-4.9,1.4-3.9,4.9c5.5-2.9,10.1-1.2,14.4,2.8C58.2,16.5,62.9,16.2,67.7,16.5z
		 M57,51.2c1.7-1.9,1.7-3.5,0.5-5c-1.8-2.1-4.1-2.7-6.7-1.8c-1.3,2.5,0.3,4.1,1.7,5.8C53.8,50.5,55.3,50.8,57,51.2z M80.4,68.6
		c-1.2-1-2.2-1.7-3.6-1c-2.6,3.2-2.4,4.2,1.3,5.9C80.3,72.6,80.9,71,80.4,68.6z M68.9,18c2.3-1.2,3.3,1.1,4.8,1.7
		c1.9-3.4-3.1-4-1.9-7.1C69.7,14,70.7,16.5,68.9,18z M44.8,55.8c1.3-0.7,1.7-1.6,0.7-3.3c-1.7-0.5-3.5-1.1-4,1.9
		C42.5,55.5,43.5,56,44.8,55.8z M46.8,58.6c2,1.6,3.4,2,5.1-0.4C50.2,56.5,48.8,56.2,46.8,58.6z"/>
	<path class="st64" d="M20.5,14.2c0.8,2.7,2.3,2,3.9,0.9c2.6-1.8,5.3-3.5,9.5-2.6c-3.1,4.2-8.1,4.1-11.4,7.1
		c0.3,2.5-2.4,5.2,0.1,8.4c3.9-1.3,5.6-4.3,6.3-8.2c1.8-1.1,3.9-0.3,6.2-0.8c0.7-0.5,1.8-1.3,3-2.1c1.5,0,3.1,0,4.8,0
		c3.7,2.8,7.6,5.7,11.7,8.9c-3.7,4.3-9,5.9-12.6,9.4c1.1,2.5,4.2,2.2,4.7,4.8c-1.3,2.8-3.8,4.1-7.2,4.4c-2.9-2.2-6.5-2.1-10.3-0.9
		c-3.7,4.7-2.3,9.6,0,14.8c1.3,1.2,3,2.8,4.7,4.4c0.2,1,0.3,2.2,0.5,3.5C36.7,67,38,68.4,38,71c1.7-2.7,1.3-5-0.4-6.7
		c0.4-1.3,1-2,2-2.4c3.8,1.8,3.1,6.8,6.7,8.9c-0.8,1.5-1.5,2.9-2.3,4.4c0.8,1.1,1.5,2.1,2.4,3.2c-1.8,2.2-3.5,4.2-6.1,5.4
		c-0.8-0.4-1.5-0.8-2-1.1c-3.5,0.6-5.3,4.2-8.9,3.5c-2-2.5,1-2.8,1.2-3.2c1-3-1.2-3.5-1.8-4.8c0.1-3,6-3.1,3.8-7.8
		c-3.3,1.2-5.5,3.4-7.8,5.2c0.7,2.2,3.3,3.3,1.8,6c-2.1,2-4.6,2.3-7.5,0.3c-0.7-1.4-1.5-3-2.3-4.5c0.5-3.8,4.7-2.3,6.1-4.5
		c0.3-1.6-0.8-2.4-1.3-3.5c-3.5-1.4-7.5,0.8-10.8-2.1C10.1,65.8,9.7,63.9,8,63c0-2.4-0.5-4.3-1.6-6.3c-2.1-3.8-2.9-7.9-2.6-12.3
		C4,42.9,4.5,41.2,3,39.9C6.3,29.6,11.8,20.8,20.5,14.2z"/>
	<path class="st65" d="M94.1,76.8c0.3-1.7,1.9-3,1.1-4.9c2.9-2.8,2.7-6.6,3.2-10.2c0.8-0.7,0.8-1.6,0.5-2.5
		c0.4-4.2,0.6-8.5-0.1-12.7c0.3-0.9,0.1-1.8-0.6-2.4c-0.2-2.6-0.8-5-2.1-7.3c0.1-0.3,0-0.5-0.2-0.7c0.2-0.9,0.1-1.7-0.5-2.4
		c-0.6-1.1-1.9-1.7-2.1-3.1c-0.5-1.5-0.9-3-1.4-4.5c0.5-0.1,1.1-0.2,1.6-0.3c0.7,1.2,2,1.3,2.8,1.5c0,4.7,2.2,8.3,4.3,12
		c0.1,0.1,0.5,0.1,0.8,0.1c0,0.2,0.1,0.5,0.1,0.7c-1.6,1.7-1.1,3,0.8,4.1c0.2,0.9,2.3,0.9,1,2.4c-0.5,0-1.1-0.6-1.8,0.2
		c0.1,0.5,0.2,1.1,0.3,1.6c0.9,3.7-0.8,7.6,1.3,11.2c0.1,1.2-0.4,2.1-0.9,3.1c-0.6,0.4-0.7,0.9-0.7,1.6c-1.1,2.4-2,4.8-1.7,7.6l0,0
		c-0.6,0.4-1.2,0.8-1.7,1.2c-2.3,0.5-2,2.4-2.4,4C95.1,76.8,94.6,76.8,94.1,76.8z"/>
	<path class="st65" d="M95.2,22c-0.9-0.8-1.8-1.8-2.5-2.8c-0.3,0-0.7,0-1,0.1c-0.6,1.8,1.6,2.4,1.6,3.9c1,0.1,1.6,0.5,1.7,1.6
		c3.5-0.3,2.5,2.5,3.1,4.4c0.4,0.1,0.7,0,0.8-0.2c-0.5-1-0.9-2-1.3-3.1C96.6,24.8,95.8,23.4,95.2,22z"/>
	<path class="st66" d="M69.8,4.4c-2.4,0-4.5-0.5-6.5-1.4c-1.7-0.3-3.3-1-4.7-1.8c-3.7,0.4-7.4,0.7-11.1,0c-1,0.2-1.9,0.3-2.9,0.3
		c-1.1,0-2.2-0.1-3.3-0.3c-0.1,0.2-0.3,0.4-0.4,0.6c0.9,1.4,3.2-0.2,3.6,2c4.3-0.4,8.6-0.1,12.9,0.1c4.5,0.1,8.5,2.2,12.9,2.5
		c0.2-0.6,0.3-1.2,0.4-1.8C70.3,4.4,70,4.4,69.8,4.4z"/>
	<path class="st66" d="M87.6,14.1c-0.3,0.1-0.6,0.1-1,0c-0.6-0.9-1.2-1.7-1.4-1.9c-4.2-1.1-7.1-4-11-3.4c0,0.2,0,0.4,0,0.6
		c4.8,3.3,9.4,6.6,13.3,11c0.3-0.8,1-1.1,1.8-1.1c1.1-0.2,0-2.4,1.3-2.4C89.6,16.1,88.6,15.1,87.6,14.1z"/>
	<path class="st67" d="M21.5,105.5c-0.9-1.3-1.6-2.7-3.2-2.9c-0.1-3.6-0.4-6.7,0.7-9.8c2.1,1.7,4.8,2.6,5.9,5.4
		c-3.2,0.9-2,2.7-1,4.6c1.5,0.2,2.9,0.4,4.4,0.6c0.1,0.8,0.2,1.4,0.3,2.1C26.3,105.5,24,105.5,21.5,105.5"/>
	<path class="st68" d="M78.8,97.7c1.4-2.2,3.2-4,5.4-5.3c1.3-1.7,2.9-3.3,4.7-4.4c0.5-0.7,1.2-1.4,1.8-2c0-0.1,0.1-0.3,0.1-0.4
		c-0.2,0-0.5-0.1-0.7-0.1c-0.2,0.9-0.7,1.1-1.6,0.8c0.2,0.5,0.2,0.9-0.4,1.3c-0.3-0.2-0.5-0.4-0.8-0.6c-2.3,3.7-6.5,5.5-9.2,8.8
		C78.1,96.4,78,97.1,78.8,97.7z"/>
	<path class="st66" d="M28.7,105.5c-0.1-0.6-0.2-1.3-0.3-2.1c-1.5-0.2-2.9-0.4-4.4-0.6c-0.9-1.9-2.1-3.7,1-4.6
		c3.3-0.1,6,1.5,8.4,3.4c-0.4,1.2-0.9,2.3-1.5,3.8C30.9,105.5,29.8,105.5,28.7,105.5z"/>
	<path class="st69" d="M98.9,29c-0.1,0.2-0.4,0.3-0.8,0.2c-0.6-1.8,0.4-4.7-3.1-4.4c-0.6,0.1-1.3,0.1-1.6,0.8c0.7,1.2,2,1.3,2.8,1.5
		c0,4.7,2.2,8.3,4.3,12c0.1,0.1,0.5,0.1,0.8,0.1c-0.4-2.9-1.6-5.7-1.6-8.7C99.4,30,99.1,29.5,98.9,29z"/>
	<path class="st66" d="M28.4,6c-0.6,1.3-1.6,2.3-2.2,3.5C30,8,33.7,6.5,37.5,5c-1.1-0.7-2.2-1.1-3.3-1.4C32.4,4.8,30.5,5.6,28.4,6z"
		/>
	<path class="st70" d="M91.1,85.1c0.5-1.3,1.2-2.5,2.1-3.6c-0.4,0.1-0.8,0.1-1.3,0c-1,0.5-2.2,0.9-1.6,2.4
		C90.8,84.2,91,84.6,91.1,85.1z"/>
	<path class="st70" d="M94.3,80c0,0.1,0,0.1,0,0.2c1-1,2.1-1.9,3.3-2.7c0.1-0.5,0.3-1.1,0.5-1.6c0-0.1-0.1-0.2-0.1-0.4
		c-1.2-0.4-1.3,1.1-2.2,1.3c-0.5,0-1-0.1-1.5-0.1c-0.2,0.2-0.3,0.4-0.1,0.6c0.9,0.3,1.1,1,1,1.8C94.8,79.5,94.5,79.8,94.3,80z"/>
	<path class="st66" d="M20.7,12.9c0.1,0.1,0.2,0.3,0.2,0.4c1.5-0.6,2.6-1.8,3.7-2.9c-0.1-0.1-0.2-0.2-0.3-0.2
		C23.3,11.2,22.1,12.1,20.7,12.9z"/>
	<path class="st71" d="M100.4,71.6c0.5-0.7,1.1-1.3,1.8-1.9c0-0.1,0-0.3,0-0.4c-0.1-1.7-0.1-3.4-0.2-5.2c-0.2,0-0.3,0-0.5,0
		c-1.1,2.4-2,4.8-1.7,7.6C100,71.6,100.2,71.6,100.4,71.6z"/>
	<path class="st69" d="M91.7,19.3c-0.1-0.7-0.2-1.3-0.2-2c-0.3-0.2-0.5-0.3-0.8-0.5c-1.3,0-0.2,2.2-1.3,2.4c0,0.3,0,0.5,0,0.8
		l0.7,0.9c0.5,0.9,1.2,1.8,1,3c0.5,0,1,0,1.4,0c0.2-0.2,0.5-0.4,0.7-0.7C93.3,21.7,91.1,21,91.7,19.3z"/>
	<path class="st71" d="M103,59.4c-2-3.5-0.4-7.5-1.3-11.2c0.4-0.1,0.8-0.1,1.2-0.2l0.2-0.1c0.1,0.6,0.2,1.2,0.3,1.8
		C103.3,52.9,103.2,56.1,103,59.4z"/>
	<path class="st69" d="M102.2,44c-1.8-1.1-2.4-2.4-0.8-4.1C102.6,41.1,102.1,42.6,102.2,44z"/>
	<path class="st69" d="M103,48c-0.4,0.1-0.8,0.1-1.2,0.2c-0.1-0.6-0.2-1.2-0.3-1.6c0.7-0.8,1.2-0.1,1.8-0.2
		C103.1,46.9,103.1,47.5,103,48z"/>
	<path class="st66" d="M74.2,8.8c-1,0-1.5-0.6-2-1.3C73.4,7.2,74.1,7.6,74.2,8.8z"/>
	<path class="st65" d="M103.4,49.7c-0.1-0.6-0.2-1.2-0.3-1.8c0.4,0.2,0.8,0.4,1.1,0.5C104.3,49.3,103.9,49.5,103.4,49.7z"/>
	<path class="st69" d="M101.9,64.1c-0.2,0-0.3,0-0.5,0c0-0.6,0-1.2,0.7-1.6C102.1,63,102,63.6,101.9,64.1z"/>
	<path class="st72" d="M61.4,26c2.3,1.6,4.2,2.4,6.2,2.1c3.2,2.1,4.9,5.1,6.3,8.3c0.1,2-0.9,3.5-2.5,4.7c1.3,1.4,2.8,1.8,4.3,0.8
		c1.4-0.9,2.8-1.5,4.6-0.5c0.2,2.2,0.2,4.7,2.6,5.9c0.1,3,0.4,5.8-1.3,8.4c-1.8-0.1-3.6-1.1-5.5,0c-1.3,2.2,1.5,7.4-4.3,6.9
		c-0.9-1.4,1.1-2.1,0.3-3.1c-1.1-1.6-2.8-0.8-4.2-1.5c-3.1-2.6-0.7-7-3.2-9.7c0.5-1.7,2.6-1.8,2.7-3.8c-4.5-2.1-11.7-1.4-11.6-9.3
		C55.9,31.3,57.7,28.2,61.4,26z"/>
	<path class="st72" d="M94.8,60.8c-0.8,0.1-1.6,0.1-3,0.2c1.6,4.4,0.4,8.1-2.6,11.2c-0.8,0.8-1.4,1.6-2.8,0.8
		c-0.7-2.6,1.8-3.8,2.7-5.7c-0.5-2.8-3.3-1.1-4.9-2.8c-2.4-5.4,0-9.9,4-14.1c2.7,1.1,4.8,2.8,6.7,5.5c0,0.9,0,2.1,0,3.2
		C94.9,59.7,94.9,60.2,94.8,60.8z"/>
	<path class="st73" d="M74.3,9.3c4.8,3.3,9.4,6.6,13.3,11c-0.5,1.3,1.2,1.7,1.3,2.8c-1.1,0.8-3,0.8-3.1,2.8c2.1,1.4,3.2-0.5,4.6-1.1
		c0.2,0,0.5,0.1,0.7,0.1c0.3,0.3,0.6,0.7,0.9,1c0,0,0,0,0,0c0.5,1.5,0.9,3,1.4,4.5c-1.1,0.1-2.1-0.2-2.4-1.5
		c-3.9,1.4-7.5,1.5-10.4,0.3c0-1,0-2,0-3.3c-1.6,0.1-3.1,0.3-4.5-0.4c-0.6-0.5-1.1-1.1-1.7-1.6c0.1-0.9-0.2-1.9,1.1-2.2
		c5.6,3.4,5.6,3.4,8.4,1.2c-0.6-2.3-2.3-2.8-4.3-2.6c-0.3-1.5,1.5-2,0.9-3.7C76.9,15.6,74.3,13.6,74.3,9.3z"/>
	<path class="st74" d="M67.7,16.5c-4.8-0.3-9.4,0-13.8,1.4c-4.4-4-8.9-5.6-14.4-2.8c-1-3.6,1.4-4,3.9-4.9c7.3,4.3,16.5,0.9,24.4,4.1
		C67.7,15,67.7,15.8,67.7,16.5z"/>
	<path class="st72" d="M94.2,40c-2.7,0.9-0.4,4.5-3.1,5.4c-4.4-1.5-5.6-4.2-4.4-10.2c2.6-1.4,4.7-1.2,5.9,1.9
		c0.4,0.9,0.8,1.7,1.6,2.1C94.2,39.5,94.2,39.8,94.2,40z"/>
	<path class="st72" d="M57,51.2c-1.6-0.4-3.1-0.7-4.6-1c-1.4-1.8-3-3.3-1.7-5.8c2.6-0.8,4.9-0.2,6.7,1.8
		C58.7,47.6,58.6,49.3,57,51.2z"/>
	<path class="st73" d="M94.2,40c0-0.3,0-0.5,0-0.8c0.5-0.9,0.8-2.1,1.9-2.5c1.3,2.3,1.9,4.7,2.1,7.3c-1,1.1-0.9,1.9,0.6,2.4
		c0.7,4.2,0.5,8.5,0.1,12.7c-2.2-0.4-1.5-2.2-1.5-3.5c-0.1-4.5-0.8-8.8-1.6-13.2C95.6,41.4,95.2,40.5,94.2,40z"/>
	<path class="st74" d="M80.4,68.6c0.5,2.4-0.1,4.1-2.3,4.9c-3.8-1.8-4-2.8-1.3-5.9C78.2,66.8,79.2,67.6,80.4,68.6z"/>
	<path class="st73" d="M68.9,18c1.8-1.5,0.8-4,2.9-5.4c-1.2,3.1,3.9,3.7,1.9,7.1C72.2,19.1,71.3,16.8,68.9,18z"/>
	<path class="st73" d="M98.4,61.7c-0.4,3.6-0.3,7.4-3.2,10.2C94.8,68,94.9,64.3,98.4,61.7z"/>
	<path class="st74" d="M74.2,24c0.6,0.5,1.1,1.1,1.7,1.6c-0.1,1.2-0.1,2.4-1.5,3.1c-1.6,0.3-2.4-0.5-2.5-2.1
		C71.7,24.9,72.7,24.2,74.2,24z"/>
	<path class="st74" d="M44.8,55.8c-1.3,0.2-2.3-0.3-3.3-1.4c0.4-3,2.2-2.4,4-1.9C46.5,54.2,46.1,55.1,44.8,55.8z"/>
	<path class="st74" d="M46.8,58.6c2-2.3,3.4-2.1,5.1-0.4C50.2,60.6,48.8,60.2,46.8,58.6z"/>
	<path class="st62" d="M93.1,81.5c0.3-0.4,0.7-0.9,1.1-1.3c0-0.1,0-0.1,0-0.2c0.3-0.3,0.5-0.6,0.8-0.8c0.1-0.8-0.1-1.5-1-1.8
		c-0.7,1.4-2.8,2-2.2,4.1C92.3,81.6,92.7,81.6,93.1,81.5z"/>
	<path class="st73" d="M94.8,60.8c0.1-0.5,0.1-1,0.2-1.6c0.5-0.1,0.9-0.5,1.4,0C96.7,60.5,95.9,60.7,94.8,60.8z"/>
	<path class="st75" d="M95.3,33.6c0.7,0.7,0.7,1.5,0.5,2.4C94.7,35.4,94.2,34.7,95.3,33.6z"/>
	<path class="st62" d="M90.1,85.4c-0.1,1-0.7,1.2-1.6,0.9C88.8,85.5,89,84.6,90.1,85.4z"/>
	<path class="st62" d="M88.5,86.3c0.2,0.5,0.2,1-0.4,1.3c-0.3-0.2-0.5-0.4-0.8-0.6C87.7,86.8,88.1,86.5,88.5,86.3z"/>
	<path class="st66" d="M92.6,23.9c0.2-0.2,0.5-0.4,0.7-0.7c1,0.1,1.6,0.5,1.7,1.6c-0.6,0.1-1.3,0.1-1.6,0.8
		c-0.5,0.1-1.1,0.2-1.6,0.3l0,0C92.5,25.4,92.6,24.7,92.6,23.9z"/>
	<path class="st75" d="M98.8,46.5c-1.4-0.5-1.6-1.4-0.6-2.4C98.9,44.7,99.1,45.5,98.8,46.5z"/>
	<path class="st65" d="M88.8,23.1c-0.1-1.1-1.7-1.5-1.3-2.8c0.3-0.8,1-1.1,1.8-1.1c0,0.3,0,0.5,0,0.8c0.2,0.3,0.5,0.6,0.7,0.9
		c0.5,0.9,1.2,1.8,1,3c0,0-0.2,0.2-0.2,0.2c-0.2,0-0.5,0-0.7,0C89.8,23.7,89.3,23.4,88.8,23.1z"/>
	<path class="st65" d="M92.6,23.9c0,0.8-0.1,1.5-0.7,2.1c-0.3-0.3-0.6-0.7-0.9-1.1c0-0.3,0-0.6,0-0.8l0.2-0.2
		C91.6,23.9,92.1,23.9,92.6,23.9z"/>
	<path class="st66" d="M90.1,20.9c-0.2-0.3-0.5-0.6-0.7-0.9C89.6,20.3,89.9,20.6,90.1,20.9z"/>
	<path class="st63" d="M88.8,23.1c0.5,0.3,0.9,0.6,1.4,0.9c0,0.3,0,0.5,0,0.8c-1.4,0.6-2.5,2.5-4.6,1.1
		C85.8,23.9,87.7,23.9,88.8,23.1z"/>
	<path class="st69" d="M90.3,24.8c0-0.3,0-0.5,0-0.8c0.2,0,0.5,0,0.7,0c0,0.3,0,0.6,0,0.8C90.7,24.9,90.5,24.8,90.3,24.8z"/>
</g>
<g>
	<path class="st76" d="M90.8,126.5H15c-2.2,0-4-1.8-4-4v-23c0-2.2,1.8-4,4-4h75.8c2.2,0,4,1.8,4,4v23
		C94.8,124.7,93,126.5,90.8,126.5z"/>
	<g>
		<path class="st77" d="M31.9,113c-0.1-2-0.1-4.4-0.1-6.8h-0.1c-0.5,2.1-1.2,4.4-1.8,6.4l-2,6.4H25l-1.8-6.4
			c-0.5-1.9-1.1-4.3-1.5-6.4l0,0c-0.1,2.2-0.2,4.8-0.3,6.8l-0.3,6.3h-3.4l1.1-16.5h5l1.6,5.5c0.5,1.9,1,4,1.4,5.9h0.1
			c0.5-1.9,1-4.1,1.6-5.9l1.8-5.5h4.9l0.9,16.5h-3.6L31.9,113z"/>
		<path class="st77" d="M53.7,110.9c0,5.4-3.3,8.7-8.1,8.7c-4.9,0-7.7-3.7-7.7-8.4c0-4.9,3.2-8.6,8-8.6
			C51,102.6,53.7,106.3,53.7,110.9z M41.8,111.1c0,3.2,1.5,5.5,4,5.5s4-2.4,4-5.6c0-3-1.4-5.5-4-5.5
			C43.3,105.5,41.8,107.9,41.8,111.1z"/>
		<path class="st77" d="M71.2,110.9c0,5.4-3.3,8.7-8.1,8.7c-4.9,0-7.7-3.7-7.7-8.4c0-4.9,3.2-8.6,8-8.6
			C68.5,102.6,71.2,106.3,71.2,110.9z M59.3,111.1c0,3.2,1.5,5.5,4,5.5c2.5,0,4-2.4,4-5.6c0-3-1.4-5.5-4-5.5
			C60.8,105.5,59.3,107.9,59.3,111.1z"/>
		<path class="st77" d="M73.7,119.3v-16.5H78l3.4,6c1,1.7,2,3.8,2.7,5.6h0.1c-0.2-2.2-0.3-4.4-0.3-6.9v-4.8h3.4v16.5h-3.9l-3.5-6.4
			c-1-1.8-2.1-3.9-2.9-5.8h-0.1c0.1,2.2,0.1,4.5,0.1,7.2v5h-3.3C73.7,119.2,73.7,119.3,73.7,119.3z"/>
	</g>
</g>
</svg>
