<?xml version="1.0" encoding="utf-8"?>
<!-- Generator: Adobe Illustrator 25.0.0, SVG Export Plug-In . SVG Version: 6.00 Build 0)  -->
<svg version="1.1" id="Layer_1" xmlns="http://www.w3.org/2000/svg" xmlns:xlink="http://www.w3.org/1999/xlink" x="0px" y="0px"
	 width="105.5px" height="129px" viewBox="0 0 105.5 129" style="enable-background:new 0 0 105.5 129;" xml:space="preserve">
<style type="text/css">
	.st0{fill:#48A6DD;}
	.st1{fill:#FFFFFF;}
	.st2{fill:#231F20;}
	.st3{fill:#F7F7DF;}
	.st4{fill:#D4D1BA;}
	.st5{fill:#1A1914;}
	.st6{fill:#1F1E18;}
	.st7{fill:#0E0C09;}
	.st8{fill:#F6F6E1;}
	.st9{fill:#27261F;}
	.st10{fill:#13140E;}
	.st11{fill:#E3E1C7;}
	.st12{fill:#0A0B06;}
	.st13{fill:#0F0F0C;}
	.st14{fill:#BDBAA7;}
	.st15{fill:#CECBBA;}
	.st16{fill:#14140F;}
	.st17{fill:#646457;}
	.st18{fill:#9D9A87;}
	.st19{fill:#4C4D42;}
	.st20{fill:#7B7768;}
	.st21{fill:#393A32;}
	.st22{fill:#B0AD9F;}
	.st23{fill:#8A8A7B;}
	.st24{fill:#3D3E33;}
	.st25{fill:#AFAD99;}
	.st26{fill:#1B1A13;}
	.st27{fill:#5B5B4D;}
	.st28{fill:#C5C2B1;}
	.st29{fill:#202119;}
	.st30{fill:#CBC8BA;}
	.st31{fill:#292820;}
	.st32{fill:#A5A493;}
	.st33{fill:#111111;}
	.st34{fill:#54534D;}
	.st35{fill:#F3F2D4;}
	.st36{fill:#E8E6CB;}
	.st37{fill:#BAB6A1;}
	.st38{fill:#ACA994;}
	.st39{fill:#C7C3AE;}
	.st40{fill:#C1BEA9;}
	.st41{fill:#A9A691;}
	.st42{fill:#B8B49E;}
	.st43{fill:#98957F;}
	.st44{fill:#2B2A21;}
	.st45{fill:#46443C;}
	.st46{fill:#2F2D26;}
	.st47{fill:#2B2B23;}
	.st48{fill:#36352C;}
	.st49{fill:#2E2D25;}
	.st50{fill:#0B0905;}
	.st51{fill:#C5C3AA;}
	.st52{fill:#A29F89;}
	.st53{fill:#B0AC98;}
	.st54{fill:#999682;}
	.st55{fill:#B1AD98;}
	.st56{fill:#3F3F34;}
	.st57{fill:#32332A;}
	.st58{fill:#4E4D40;}
	.st59{fill:#75725F;}
	.st60{fill:#84806D;}
	.st61{fill:#8F8C79;}
	.st62{fill:#84826B;}
	.st63{fill:#5A574A;}
	.st64{fill:#6F6B5A;}
	.st65{fill:#1F211A;}
	.st66{fill:#A29F8B;}
	.st67{fill:#97937E;}
	.st68{fill:#C2BEA7;}
	.st69{fill:#AEAB92;}
	.st70{fill:#EAE7CE;}
	.st71{fill:#E0DFBF;}
	.st72{fill:#A8A491;}
	.st73{fill:#B5B29C;}
	.st74{fill:#93907B;}
	.st75{fill:#908C7A;}
	.st76{fill:#706C5C;}
	.st77{fill:#8A8574;}
	.st78{fill:#38382F;}
	.st79{fill:#4F4E41;}
	.st80{fill:#3F3E35;}
	.st81{fill:#454539;}
	.st82{fill:#96937E;}
	.st83{fill:#A6A38E;}
	.st84{fill:#898672;}
	.st85{fill:#BCB8A1;}
	.st86{fill:#5A5A4B;}
	.st87{fill:#111009;}
	.st88{fill:#666551;}
	.st89{fill:#757160;}
	.st90{fill:#7D7967;}
	.st91{fill:#777261;}
	.st92{fill:#817C6B;}
	.st93{fill:#777463;}
	.st94{fill:#827E6B;}
	.st95{fill:#797562;}
	.st96{fill:#8A8674;}
	.st97{fill:#8C8874;}
	.st98{fill:#989582;}
	.st99{fill:#585748;}
	.st100{fill:#6B6758;}
	.st101{fill:#5D5D4F;}
	.st102{fill:#6C6A59;}
	.st103{fill:#525244;}
	.st104{fill:#454639;}
	.st105{fill:#505042;}
	.st106{fill:#A7A48F;}
	.st107{fill:#8E8A77;}
	.st108{fill:#636050;}
	.st109{fill:#726E5F;}
	.st110{fill:#8F8975;}
	.st111{fill:#585749;}
	.st112{fill:#676352;}
	.st113{fill:#6E6A59;}
	.st114{fill:#868270;}
	.st115{fill:#5C5A4B;}
	.st116{fill:#464738;}
	.st117{fill:#BBB8A2;}
	.st118{fill:#797564;}
	.st119{fill:#868272;}
</style>
<g>
	<path class="st0" d="M90.8,126.5H15c-2.2,0-4-1.8-4-4v-23c0-2.2,1.8-4,4-4h75.8c2.2,0,4,1.8,4,4v23C94.8,124.7,93,126.5,90.8,126.5
		z"/>
	<g>
		<path class="st1" d="M31.9,113c-0.1-2-0.1-4.4-0.1-6.8h-0.1c-0.5,2.1-1.2,4.4-1.8,6.4l-2,6.4H25l-1.8-6.4
			c-0.5-1.9-1.1-4.3-1.5-6.4l0,0c-0.1,2.2-0.2,4.8-0.3,6.8l-0.3,6.3h-3.4l1.1-16.5h5l1.6,5.5c0.5,1.9,1,4,1.4,5.9h0.1
			c0.5-1.9,1-4.1,1.6-5.9l1.8-5.5h4.9l0.9,16.5h-3.6L31.9,113z"/>
		<path class="st1" d="M53.7,110.9c0,5.4-3.3,8.7-8.1,8.7c-4.9,0-7.7-3.7-7.7-8.4c0-4.9,3.2-8.6,8-8.6
			C51,102.6,53.7,106.3,53.7,110.9z M41.8,111.1c0,3.2,1.5,5.5,4,5.5s4-2.4,4-5.6c0-3-1.4-5.5-4-5.5
			C43.3,105.5,41.8,107.9,41.8,111.1z"/>
		<path class="st1" d="M71.2,110.9c0,5.4-3.3,8.7-8.1,8.7c-4.9,0-7.7-3.7-7.7-8.4c0-4.9,3.2-8.6,8-8.6
			C68.5,102.6,71.2,106.3,71.2,110.9z M59.3,111.1c0,3.2,1.5,5.5,4,5.5c2.5,0,4-2.4,4-5.6c0-3-1.4-5.5-4-5.5
			C60.8,105.5,59.3,107.9,59.3,111.1z"/>
		<path class="st1" d="M73.7,119.3v-16.5H78l3.4,6c1,1.7,2,3.8,2.7,5.6h0.1c-0.2-2.2-0.3-4.4-0.3-6.9v-4.8h3.4v16.5h-3.9l-3.5-6.4
			c-1-1.8-2.1-3.9-2.9-5.8h-0.1c0.1,2.2,0.1,4.5,0.1,7.2v5h-3.3C73.7,119.2,73.7,119.3,73.7,119.3z"/>
	</g>
</g>
<circle class="st2" cx="53" cy="52.3" r="51.2"/>
<g>
	<path class="st3" d="M12.7,83.7c-5.2-6.3-8.3-13.6-9.9-21.6c-0.3-0.6-0.1-1.3-0.2-2c0-0.2,0.1-0.4,0.4-0.5c1.4,1.2,1.2,3.3,2.7,4.4
		c0.2,3.4,2.2,6.3,3,9.6c0.3,1.2,1.6,2.1,2.9,2.4c1.3,0.4,2.2,1.1,3,2.1c0.3,0.4,0.5,0.9,0.8,1.4c0.5,0.8,1,1.6,0.3,2.4
		c-0.9,1.1-1.5-0.1-2.2-0.2C14.3,82.7,14.4,83.5,12.7,83.7z"/>
	<path class="st4" d="M30.3,97.9c-3.8-1.7-7.2-3.8-10.2-6.6c0.3-0.8-0.1-1.3-0.6-1.7c-2.8-1.9-3.3-5-3.4-7.9
		c-0.1-1.5-1.7-2.3-1.1-3.8c0.4-0.3,0.8-0.3,1.2-0.2c1,0.6,2,1.1,2.3,2.4c0.2,1,1.2,0.5,1.8,0.8c0.4,0.2,0.6,0.5,0.8,0.9
		c0.5,1,0.9,2,1.8,2.7c0.8,0.6,0.5,1.2-0.1,1.8c-0.3,0.2-0.5,0.3-0.9,0.2c-1.2-0.7-1.2-2.5-2.4-2.9c0.6,1.6,0.9,3.7,2.7,4.8
		c0.8,1,1.5,2,2.3,2.9c0.5,0.4,0.9,0.7,1.3,1.2c1.1,1.1,2,2.3,3.3,3.2c0.3,0.8,1.2,1,1.8,1.5c0.3,0.2,0.6,0.5,0.2,0.9
		C30.9,98.2,30.6,98.1,30.3,97.9z"/>
	<path class="st5" d="M35.2,40.7c0,0.3,0,0.6,0,0.9c-0.5,0.3-0.4,0.8-0.4,1.3c0,0.9-0.4,1.5-1.4,1.4c-1.3-0.7-1-2.1-1.1-3.2
		c-0.2-3.9-1.1-7.8-0.1-11.7c0.2-0.7-0.1-1.3-0.2-1.9c-0.4-1.4-0.2-2.7,0.5-4c0.4-0.9,1-1.8,1.2-2.8c0-0.3,0-0.6,0-0.9
		c0-0.3,0-0.6,0.2-0.8c1.5-1.6,2.3-3.4,2.4-5.7c0-0.8,0.4-1.6,1-2.1c0.5-0.4,1-0.6,1.5-0.1c-0.1,1.4-0.8,2.7-0.6,4.1
		c0,0.4-0.3,0.8-0.3,1.3c-0.1,1.4,0,2.8-1.6,3.6c-0.5,0.2-0.9,1.1-0.9,1.9c-0.2,2.8-1.3,5.6-1,8.5C34.8,33.9,34.3,37.4,35.2,40.7z"
		/>
	<path class="st6" d="M36.1,52.3c0,0.1,0,0.3,0,0.4c-0.2,0.6-0.1,1.2,0.1,1.7c1.1,2.7,0.8,5.6,0.5,8.4c0.6,1.3,0.2,2.6-0.1,3.9
		c-0.3,1.5-0.4,2.8,0.6,4.2c1.1,1.5,0.8,4-0.3,5.2c-1.1,0-1.3-0.8-1.4-1.6c-0.1-0.7,0-1.5-0.3-2.2c-0.2-0.4-0.5-0.7-0.9-0.9
		c-1.9-1.2-2.8-3.1-2-5c0.6-1.4,0.4-2.5,0.2-3.8c0.1-0.7,0.5-1.2,0.9-1.7c1.5-1.5,1.3-3.1,0.5-4.8c-0.5-0.4-0.9-0.8-0.5-1.5
		c0.4-0.7,0.6-1.4,0.8-2.2c0.3-0.8,0.2-1.6,0.7-2.4c0.2-0.2,0.4-0.2,0.6-0.2c0.2,0.1,0.3,0.3,0.4,0.5C36.2,51,36.1,51.6,36.1,52.3z"
		/>
	<path class="st7" d="M35.2,40.7c-1.5-0.9-1.4-2.9-1.3-3.9c0.4-3-0.3-6,0-9c0.2-2.3,1-4.5,1-6.8c0-0.1,0.1-0.3,0.2-0.4
		c2.3-1,2.6-3.1,2.9-5.2c0.7-0.4-0.4-1.7,0.9-1.8c0.6,2.5-0.7,4.6-1.6,6.8c-0.6,1.5-0.5,3.4-0.9,4.8c-0.9,2.7-0.2,5.3-0.5,7.9
		c-0.2,2-0.3,4,0.5,5.9C36.9,40.5,35.8,40.3,35.2,40.7z"/>
	<path class="st8" d="M2.5,59.8c-1.3-7.7-0.8-15.2,1.7-22.6c1.5,0.4,0.9,1.6,1,2.6c-0.5,3.1-0.8,6.3-0.4,9.4c0,0.7,0.1,1.3,0.2,2
		c-0.2,1.9-0.7,3.7-0.3,5.6c0.5,2.5,0.4,2.6-1.8,3h0C2.7,60,2.6,60,2.5,59.8z"/>
	<path class="st9" d="M35.7,50c-0.1,0-0.3,0-0.4,0c-0.3,0-0.6,0-0.8,0c-1.1,0.3-1.6-0.3-1.9-1.3c-0.6-1.7-1-3.5-0.8-5.3
		c0.1-1.2-0.3-2.1-1-2.9c-0.1-0.2-0.2-0.3-0.3-0.5c-0.4-1-0.8-1.9,0.4-2.7c0.7-0.4,0.7-1.2,0.3-1.8c-0.8-1.4-0.6-2.8-0.3-4.3
		c0.4-1.8-0.1-3.7,0.3-5.5c0.2-1.1,0.3-2.4,2-2.4c-0.7,1.6-0.9,3.2-0.2,4.8c0.2,0.4,0.2,0.8,0.1,1.3c-1.1,4.7,0.2,9.3,0.3,14
		c0,0.3,0.5,0.5,0.7,0.8c1.1,0,1.8,0.5,1.8,1.7c0,1.1,0.5,2.1,0.4,3.2c0,0.2,0,0.3-0.1,0.5C36,49.8,35.9,50,35.7,50z"/>
	<path class="st10" d="M37,75.7c0.4-1.8,0.9-3.6-0.8-5.1c-0.9-0.8-0.5-2-0.4-3.1c0.2-1.5,1.2-3,0.3-4.6c1.1-0.6,1.8-0.7,1.9,1
		c0.1,1.6,0.1,3.2-0.2,4.7h0c0.7,1.8,1.2,3.6,2.2,5.3c0,0.1,0,0.3,0,0.4c-0.4,2.6-0.2,5.1,0.9,7.5c0.5,1-0.2,1.2-0.9,1.6
		c-2.3-0.6-1.9-2.8-2.5-4.4C37.2,78.1,37.2,76.9,37,75.7z"/>
	<path class="st11" d="M14.9,77.9c1.2,2.1,1.8,4.3,2.1,6.7c0.2,1.9,1.3,4.1,3.4,5c2.2,1,0.3,1.1-0.2,1.6c-2.9-2.1-5.3-4.6-7.3-7.6
		c1.9-1,0-1.6-0.3-2.3c0.2-0.1,0.3-0.1,0.5-0.1c0.9,0,1.7,1.4,2.4,0.5c1-1.2-1.1-2-0.9-3.3c-0.1-0.1-0.2-0.2-0.2-0.3
		c0-0.1,0-0.2,0.1-0.2c0.1,0,0.2-0.1,0.3-0.1C14.7,77.9,14.8,77.9,14.9,77.9z"/>
	<path class="st12" d="M37.9,68.6c-1.3-1.4,0.1-3-0.1-4.5c-0.2-1.5-0.9-1.1-1.6-1.2c-0.5-1.1-0.8-2.2,0.4-3.1
		c1.1-0.8,0.3-1.8-0.2-2.5c-0.9-1.5-0.9-3-0.2-4.5c1.1,1.8,1.6,3.8,1.9,5.9c0.3,1.8,0.6,3.4,0.4,5.2c-0.1,0.6-0.3,1.9,1.3,1.6
		c0.6-0.1,0.4,0.6,0.4,1c0,0.7-0.1,1.3-0.8,1.6C38.8,68.3,38.2,68.1,37.9,68.6z"/>
	<path class="st13" d="M38.8,13.7c-0.7,0.4-0.2,1.4-0.9,1.8c0-1.5-0.2-3.1,0.9-4.4c-0.9-1.2,0.1-2.1,0.4-3.1
		c0.1-0.2,0.2-0.4,0.3-0.5c0.2-0.3,0.3-0.5,0.5-0.7c0.6-1.7,2.4-2.6,2.8-4.5C43.8,2,44.8,1.4,46,1.9c-1.6,1.9-1,5.2-4.1,6
		c-0.3,0.2-0.5,0.5-0.4,0.9c-0.6,0.6-0.2,1.6-0.9,2.2c-0.1-0.1-0.1-0.3-0.3-0.3c-0.1,0-0.1,0.2-0.2,0.3C39.1,11.6,39.5,13,38.8,13.7
		z"/>
	<path class="st14" d="M20,13.2c2.3-2.2,4.8-3.9,7.6-5.3c0.4-0.2,0.9-0.4,1.2,0c0.5,0.4,0,0.8-0.3,1.1c-0.3,0.4-0.5,0.9-0.7,1.3
		c-0.7,1.3-1,2.8-2.5,3.4c-1.1,0.8-2.5,0.2-3.6,0.8c-0.6,0.4-1.1,1.2-2,1.1C18.3,14.6,20.4,14.1,20,13.2z"/>
	<path class="st15" d="M4.6,39.8c-0.2-0.9,0.4-1.9-0.5-2.7c1.4-5.6,4.1-10.5,7.5-15.1c1.7,0,1.2,1,0.9,1.9c-0.3,0.8-1.3,1-1.4,1.9
		c-0.7,2-1.6,3.8-3,5.4c-1.2,1.6-2.1,3.4-2.1,5.5c0,0.2-0.1,0.4-0.1,0.6c-0.2,0.6-0.2,1.2-0.2,1.9C5.6,39.8,5.4,40.3,4.6,39.8z"/>
	<path class="st16" d="M44.1,87.2c0.7,0.3,0.9,0.1,0.9-0.6c0-0.5-0.1-1.2,0.8-0.9c0.5,0.2,0.6,0.6,0.2,1.1c-0.4,0.5-1.2,1.3,0.4,0.7
		c0.4-0.1,0.3,0.4,0.2,0.6c-0.6,1.6-0.2,3.2-0.3,4.8c-0.3,0.3-0.5,0.3-0.9,0.2c-0.7-0.9-1.3-1.8-2.4-2.3c-0.3-0.3-0.5-0.7-0.6-1.1
		C42.3,88.5,42.6,87.5,44.1,87.2z"/>
	<path class="st17" d="M47.7,102.8c-1.5,0-3.1,0.1-4.5-0.5c-1.3-0.8-1.7-2.7-3.5-2.6c-0.2-0.2-0.4-0.5-0.5-0.8
		c-0.2-0.7,0-1.3,0.7-1.5c0.9-0.3,1.9-1.5,2.4,0.6c0.1,0.6,1.2,1,1.8,1.5c1,0.7,1.7,1.8,3,2.2C47.5,101.8,47.9,102.2,47.7,102.8z"/>
	<path class="st18" d="M29.3,7c0.9-0.4,1.8-0.9,2.7-1.3c1.2-0.5,2.1,0,2.7,0.9c0.7,1.1-0.6,1.5-0.9,2.2c-2,0-2.2,2.1-3.5,3
		c-0.3,0.1-0.6,0.2-0.9,0.2c-0.4-0.1-0.8-0.2-1-0.7c0-0.5,0.3-1,0.7-1.3C30,9,30.1,8,29.3,7z"/>
	<path class="st19" d="M47.7,102.8c-0.9-1.1-2.5-1.2-3.5-2.3c-0.4-0.4-0.2-0.6-0.1-0.9c0.4-0.5,0.9-0.6,1.4-0.8
		c1.4-0.3,1.7,0.7,2.1,1.7c0.7,0.4,1.2,1.1,2.3,0.4c0.8-0.5,0.4,1.6,1.6,1.2c0,0.2,0.1,0.5,0,0.6c-0.4,0.5-0.9,0.3-1.4,0
		C49.3,102.2,48.5,103.4,47.7,102.8z"/>
	<path class="st7" d="M36.1,49.1c-0.6-0.6-0.9-1.4-0.8-2.1c0.2-1.4-0.6-2-1.4-2.8c0.2-0.6,0.9-0.8,0.4-1.7c-0.7-1.1,0.4-0.8,0.9-1
		c2,0.8,0.5,2.8,1.3,4.1c0.3,0.5,0,1.3,0.5,1.9C38.1,48.8,36.9,48.9,36.1,49.1z"/>
	<path class="st20" d="M33.5,8.8c-0.2-1,0.6-1.3,1.3-1.9c-1-0.4-1.6-1.4-2.7-1.3c1.8-1.1,3.8-1.7,5.8-2.2c1.2-0.4,1.3,0.2,0.6,0.9
		c-0.5,0.5-1.1,0.9-1.2,1.7c-0.4,0.9-1.2,1.3-1.8,2c-0.6,0.4-1,1.3-2,1.3c-0.1-0.1-0.2-0.2-0.1-0.3C33.4,8.9,33.4,8.8,33.5,8.8z"/>
	<path class="st21" d="M47.6,100.5c-0.6-0.7-1.1-1.6-2.2-1.3c-0.5-0.2-0.7-0.6-0.4-1.1c0,0,0-0.1,0-0.1s-0.2,0-0.2,0
		c-0.7-0.2-1.1-0.6-1-1.3c0.2-2.3,0.6-2.7,2.9-2.3C47.4,96.4,47.8,98.4,47.6,100.5z"/>
	<path class="st22" d="M30.3,97.9c0.5-0.1,0.8-0.1,0.2-0.7c-0.5-0.4-2-0.1-1.5-1.6c0.1-0.1,0.3-0.2,0.5-0.3c2-0.2,2.9,1.3,4.2,2.3
		c0.3,0.2,0.6,0.3,1,0.3c0.3,0,0.6,0,0.8,0.1c0.2,0.1,0.3,0.2,0.4,0.4c0.9,1.3,0.9,1.3-0.3,1.7C33.6,99.9,32,98.9,30.3,97.9z"/>
	<path class="st23" d="M39.7,99.6c1.2-0.5,2.3-0.4,2.6,1c0.3,1.1,0.9,1.4,1.9,1.6c-0.3,0.1-0.7,0.1-1,0.2c-1.6-0.2-3-0.7-4.5-1.3
		c0.1,0.3-0.1-0.3,0.1-0.2c0.2,0.1,0.2-0.1,0.1-0.1c-1.3,0.1-1.5-0.6-1-1.6C38.7,98.6,39.2,99,39.7,99.6z"/>
	<path class="st24" d="M42.8,2.2c-0.2,1.2,0.4,2.7-1.5,3c-0.8,0.2,0.1,1.7-1.1,1.8c-0.5-0.2-1-0.1-1.4-0.3c-0.1-0.1-0.3-0.3-0.3-0.5
		c-0.2-0.6,0-0.8,0.6-1.2c0.6-0.4,1.6-0.9,0.7-1.9C40.6,2.4,41.7,2.6,42.8,2.2z"/>
	<path class="st12" d="M41,81.9c-1.7-1.6-2.1-5-0.9-7.5c1.7,1,0.2,2.6,0.7,4C41.1,79.3,41,80.7,41,81.9z"/>
	<path class="st25" d="M29.3,7c2.2,0.4,1.2,1.7,0.7,2.7c-0.3,0.5-0.9,0.9-1.4,1.3c-0.8,0.2-0.8-0.4-0.9-0.9c-1-1.3,0.6-1.4,1.1-2.1
		C28.3,8,28,8,27.6,7.9C28.1,7.5,28.7,7.1,29.3,7z"/>
	<path class="st26" d="M42.8,84.2c-0.1,0.6,0.2,1.2,0.4,1.8c-0.3,2.6-0.6,2.9-2.6,2.6c-0.8-1-0.8-2.1-0.4-3.3c0.4-0.6,1-0.9,1.6-1.3
		C42.2,83.9,42.5,83.9,42.8,84.2z"/>
	<path class="st27" d="M39.6,3c0.3,0.1,0.7,0.2,1,0.3c-0.9,0.5-0.1,2.2-1.4,2.1c-1,0-0.5,0.4-0.4,0.7c-0.2,0.2-0.3,0.6-0.6,0.7
		c-0.6,0.1-1-0.1-1.2-0.7c-0.1-1-0.3-1.8,1.2-2c0.7-0.1,0.1-0.5-0.3-0.7C38.3,3,39,3.1,39.6,3z"/>
	<path class="st28" d="M20,13.2c0.8,0.5,0.5,0.9-0.1,1.2c-0.5,0.3-0.4,0.6-0.2,1c-0.6,1.7-1.5,3.1-3.5,3.6c-0.7-0.8-0.3-1.4,0.2-2
		c0.4-0.5,1-0.8,1-1.6C18.2,14.6,19,13.8,20,13.2z"/>
	<path class="st28" d="M10.9,25.6c0.1-0.5,0-0.8,0.6-1.2c0.6-0.4,1.9-1.5,0.2-2.4c0.6-0.7,1.2-1.5,1.8-2.2c0.6,0.1,0.9,0.6,1,1.1
		c-0.6,1.5-0.9,3.1-1.8,4.4C12.1,25.7,11.5,26,10.9,25.6z"/>
	<path class="st29" d="M46.7,94.4c-1.7-0.2-1.9,1.3-2.7,2.2c-1.9-0.2-1.8-1.3-1.3-2.7c0.6-1.2,1.9-0.3,2.6-0.9c0.3,0,0.6,0,0.9,0
		C46.4,93.5,46.6,93.9,46.7,94.4z"/>
	<path class="st30" d="M14.4,20.8c-0.5-0.2-0.8-0.5-0.9-1c1.1-1.6,2.4-3.2,3.9-4.4c0.8,0.5,0.2,1-0.2,1.4C16.6,17.4,16,18,16.2,19
		c-0.1,0.1-0.1,0.2-0.2,0.2c-0.6,0.3-1,0.8-1.4,1.4C14.6,20.7,14.5,20.7,14.4,20.8z"/>
	<path class="st31" d="M41,88.6c1.9,0.1,1.1-2,2.2-2.6c0.3,0.4,0.6,0.9,0.9,1.3c-0.8,0.7-1.5,1.5-1.3,2.6c-0.1,1-0.8,0.9-1.4,0.5
		C40.6,90,40.4,89.3,41,88.6z"/>
	<path class="st12" d="M40.1,74c-0.5,0.1-0.7,0.9-1.3,0.5c-0.6-0.4-0.3-0.9,0.1-1.3c0.5-0.6,0.4-1.3-0.1-1.7
		c-0.9-0.8-0.8-1.8-0.8-2.8C39.1,70.2,39.9,72,40.1,74z"/>
	<path class="st32" d="M37.9,99.2c-0.2,1.5,1,1.2,2.1,1.6c-0.6,0.1-1,0.2-1.3,0.3c-1.1-0.2-2.1-0.4-3-1c1.6-0.6-0.8-1.2,0-1.7
		c0.1-0.2,0.3-0.2,0.5-0.2C36.9,98.3,37.6,98.4,37.9,99.2z"/>
	<path class="st12" d="M42.8,84.2c-0.3,0-0.6,0-0.9,0c-1,0.4-1.6,0.3-1.8-0.9c0.3-0.5,1-0.6,0.9-1.3C41.3,82.9,43.5,82.4,42.8,84.2z
		"/>
	<path class="st33" d="M54,99.4c-0.5-0.8-1.4-1-2.2-1.7C53.6,97.1,54.1,97.9,54,99.4z"/>
	<path class="st34" d="M35.7,50c0.1-0.1,0.3-0.3,0.4-0.4c0.7,0.6,0.9,1.3,0.5,2.1c-1.2,0.2-0.2-1.1-0.8-1.3
		C35.7,50.3,35.7,50.2,35.7,50z"/>
	<path class="st5" d="M41.4,8.8c-0.4-0.3-0.8-0.6-0.5-1.1c0-0.1,0.6,0.2,0.9,0.3C41.9,8.3,41.8,8.6,41.4,8.8z"/>
	<path class="st35" d="M2.5,59.8c0.1,0,0.3,0,0.4,0c0,0.8,0,1.6,0,2.3C2.4,61.4,2.4,60.6,2.5,59.8z"/>
	<path class="st5" d="M40.1,11c-0.3-0.5-0.3-1,0.4-1.6c0,0.7,0,1.2,0,1.6C40.4,11,40.2,11,40.1,11z"/>
	<path class="st9" d="M35.7,50.4c0.3,0.4,0.6,0.9,0.8,1.3c-0.1,0.2-0.3,0.3-0.4,0.5C35.5,51.8,35.7,51.1,35.7,50.4z"/>
	<path class="st36" d="M14.4,77.9c0,0.1,0,0.3,0,0.4c-1.6-1.5-4-1.7-5.5-3.4c-0.6-0.6-1.1-1.1-1-2c0.1-1.2-0.6-2-1.2-3
		c-0.9-1.7-1.4-3.7-1.1-5.8c-0.8-0.8-0.3-1.8-0.2-2.7c0.3-2.5,0.8-5-0.6-7.2c-0.6-1,0.1-1.9-0.1-2.9c-0.3-0.6-0.5-1.1-0.4-1.8
		c1.3-0.1,1.6,0.8,1.8,1.8c0.2,0.9,0.4,1.9,0.8,2.7c1.1,2.7,0.2,5.6,1.4,8.3c0.4,0.8,0.7,1.6,1,2.4c0.1,2,1.6,3.6,2.1,5.5
		c-0.1,0.7,0.5,1.1,0.9,1.6c-1,0.8-0.3,1.4,0.3,2C12.9,75.3,14.3,76.3,14.4,77.9z"/>
	<path class="st35" d="M4.7,51.4c0,1.6,0.9,3,1.3,4.5c0.6,1.8,0.3,3.7-0.1,5.5c-0.2,0.9-0.4,1.9-0.4,2.8c-1.5,0-1.2-1.5-1.8-2.2
		c-0.5-0.7-0.2-1.6-0.9-2.2c0-0.5,0.1-1.2,0.6-1.3c0.6-0.1,0.1,1,1,0.9C4.4,56.8,3.4,54,4.7,51.4z"/>
	<path class="st37" d="M20.1,81.1c-1,0-2.8,1.4-2.4-1.4c0.2-1-1.7-0.6-1.6-1.8c-1.1-0.3-1.6-1-1.3-2.2c0.2-0.5,0.5-0.8,1-0.8
		c1,0.1,1.6,1.2,2.7,1.1c0.2,0,0.3,0.8,0.5-0.1c0.2-0.7,0.9-0.7,1.5-0.3c0.6,0.3,0.8,0.9,0.5,1.5c-0.3,0.6-0.5,1.3,0.1,1.8
		c0.2,0.2,0.4,0.5,0.5,0.8C22.1,81.3,21.1,81.1,20.1,81.1z"/>
	<path class="st38" d="M29.5,95.7c-0.2,0-0.3,0-0.5,0c-1.5,0.4-1.4-1.5-2.5-1.7c-0.4-0.1-0.7-0.9-1-1.3c0.4-1.1-0.8-1-1.2-1.5
		c-1.2-0.8-0.3-1.6,0-2.5c-0.5,0.8-0.7,2-1.7,0.6c0-0.2,0-0.4,0-0.6c0.2-0.8,0.3-1.6,0.9-2.2c0.5-0.4,0.7-1,1.2-1.4
		c0.2,0,0.4,0,0.6,0c0.9,0.7,1,1.7,1.1,2.7c0.1,2.7,1.5,4.6,3.4,6.3C31,94.9,30.5,95.3,29.5,95.7z"/>
	<path class="st39" d="M15.3,75.7c-0.1,0.9,0.1,1.7,0.9,2.2c-0.4,0-0.9,0-1.3,0c0,0,0,0,0,0c-0.8-1.4-1.8-2.7-2.7-4
		c-0.6-0.4-1.1-0.8-1.7-1.2c0.6-0.7,1.4-0.3,1.6-1c-0.6-0.3-0.9-0.9-1.3-1.3c-0.1-0.8-0.1-1.4-1.2-2c-0.9-0.5-0.5-2.1-0.6-3.3
		c0.2-0.1,0.4-0.1,0.6,0C11.8,68.5,14.1,71.8,15.3,75.7z"/>
	<path class="st40" d="M21.9,88.6c-2.8-2.2-2.8-2.2-2.5-4.5c-0.4,0-0.9,0-1.3,0c-0.4,0-0.7-0.3-0.6-0.7c0.1-0.5,0.5-0.3,0.9-0.3
		c2.3,0,2.8,1.7,3.5,3.3c0.9,0.5,1.2,1.2,0.9,2.2l0,0C22.5,88.8,22.2,88.8,21.9,88.6z"/>
	<path class="st41" d="M25,85c-0.2,0-0.3,0-0.5,0c-2.2,0-2.8-1.9-4-3.1c-0.2-0.3-0.3-0.6-0.5-0.9c0.1-0.3,0-0.8,0.6-0.5
		c1.2,0.6,0.6-0.5,0.8-0.8c0.1,0,0.2-0.1,0.2-0.1c0.2,0,0.3,0.1,0.5,0.3c0.2,0.4,0.3,0.9,0.6,1.2c0.3,0.3,0.5,0.7,0.9,1
		c0.3,0.2,0.6,0.4,0.9,0.7C25,83.5,25.4,84.2,25,85z"/>
	<path class="st40" d="M20.6,81.9c1.4,0.9,2.3,2.6,4,3.1c0,0.7,0,1.3-0.9,1.3c-0.6,0.4-1,0.1-1.3-0.4c0-0.4,1.2-0.7,0.2-1.1
		C21.3,84.2,21,83,20.6,81.9z"/>
	<path class="st42" d="M21.9,88.6c0.3,0,0.6,0,0.9,0c0.2,0.9,0.6,1.1,0.9,0.1c0.2-0.7,0.6-1.4,1.3-1c0.9,0.6,0.1,1-0.4,1.4
		c-0.8,0.6-0.6,1.2,0,1.7c0,0.4-0.1,0.6-0.4,0.9C23.2,90.8,22.5,89.8,21.9,88.6z"/>
	<path class="st43" d="M24.2,91.6c0-0.4,0.1-0.7,0.4-0.9c0.4,0.2,0.7,0.6,1.1,0.6c0.5,0.1,1.1,0,0.9,0.8c-0.1,0.5-0.7,0.3-1.1,0.4
		C25,92.3,24.6,92,24.2,91.6z"/>
	<path class="st42" d="M22.4,85.9c0.4,0.1,0.9,0.3,1.3,0.4c-0.6,0.6-0.2,1.6-0.9,2.2c-0.3-0.7-0.6-1.5-0.9-2.2
		C22.1,86.2,22.2,86.1,22.4,85.9z"/>
	<path class="st44" d="M33,23.4c-1.9,0.9-1.8,2.8-1.5,4.2c0.4,2.1-1,3.9-0.3,6c0.2,0.5-0.2,1,0.5,1.6c0.8,0.6-0.1,2.3-0.3,2.3
		c-2.2,0.5-0.6,1.8-0.7,2.7c-1.5,0.5-1.3-0.9-1.6-1.5c-0.2-0.9-0.2-1.9-0.5-2.8c-0.1-0.3-0.2-0.6-0.1-0.8c2.2-2.8,1.2-5.9,1.1-8.9
		c0-0.8-0.1-1.8,0.5-2.3c1.3-0.9,1.5-2.3,1.9-3.7c0.8-0.2,1.6,0,2.2,0.5C33.9,21.7,33.5,22.6,33,23.4z"/>
	<path class="st45" d="M34.3,20.8c-0.8,0.1-1.5,0-2.2-0.4c-0.5,1.5-1.2,0.7-1.9,0.2c0.2-1.1,1-1.9,1.4-2.9c0.1-0.3,0.6-0.6,0.5-0.9
		c-0.6-4,2.9-6,4.3-9.1c0.3-0.8,1.4-0.5,1.9-1c0.2-0.1,0.3-0.3,0.5-0.4c0,0.1,0,0.3,0,0.4c0.3,0.3,1.2,0,0.9,0.9l0,0
		c-0.8,1-1.6,2-2.5,3c-0.4,0.5-1,0.9-1,1.6c-0.3,2.4-1.1,4.6-2.3,6.7c-0.3,0.5,0.2,0.8,0.5,1C34.3,20.2,34.3,20.5,34.3,20.8z"/>
	<path class="st46" d="M34.3,19.9c-0.9-0.2-1.3-0.3-0.8-1.6c0.9-2,1.6-4.1,2.1-6.3c0.4-1.9,2.1-3.5,4-4.5c0.2,1.3-1.3,2.2-0.9,3.5
		c-2,0.3-2.1,2.1-2.1,3.4c0.1,2.2-1.1,3.4-2.4,4.7C34.2,19.3,34.3,19.6,34.3,19.9z"/>
	<path class="st47" d="M40.1,83.3c0.4,0.6,1.1,0.8,1.8,0.9c0,0.9-0.7,0.9-1.3,0.9c-0.4,0.4-0.6,1-0.8,1.5c-0.2,0.6-0.6,1.3-1.4,1.1
		c-0.7-0.2-1.7-0.9-1.5-1.7c0.4-1.3,0-1.9-1.2-2.4c-0.5-0.2-0.6-1.3-1.2-1.7c-0.2-0.2-0.4-0.5-0.5-0.8c-0.3-1.2-1.1-2.6,0.5-3.6
		c0.2-0.1,0.3-0.4,0.1-0.6c-1-1.6,0.4-2.9,0.6-4.4c0.1-0.3,0.2-0.6,0.5-0.8c0.7,0.7,0.4,1.5,0.4,2.3c0.1,0.7-0.2,1.6,0.9,1.7
		c0.9,0.7,1.2,1.3,1.1,2.7C38,80.1,38.7,81.9,40.1,83.3z"/>
	<path class="st48" d="M29.5,38.5c0.7,0.4,0.1,1.8,1.3,1.8c0,0,0,0,0,0c0.6,1,0.4,2.3,1.3,3.1c0.2,1.5,0.1,3,0.6,4.4
		c0.4,1.2,0.9,1.8,2.1,1.8c0,0.8,0.1,1.7-0.2,2.5c-0.8,0.8-0.4,1.9-0.7,2.8c-0.6,0.6,0.2,0.7,0.4,0.9c0.4,0.4,0.2,0.8,0.2,1.2
		c-1,0.5-1.3-0.5-1.8-0.9c-0.6-0.8-1.1-1.4-1-2.6c0.1-1.1-0.1-2.4-0.6-3.5c-0.5-1.9-1.4-3.7-2.6-5.3c-0.6-0.8-0.9-1.5-0.1-2.3
		c1-1,0.2-2.3,0.6-3.4C29.2,38.8,29.3,38.6,29.5,38.5z"/>
	<path class="st49" d="M33,55.8c0.4,0.4,0.9,0.9,1.3,1.3c0.8,1.2,1.2,2.3-0.3,3.3c-0.5,0.3-1.2,1-1,2c1.4,1.7-0.4,3.4-0.2,5.1
		c0.2,1.7,0.4,3.1,2.4,3.5c0.2,0,0.3,0.5,0.4,0.7c0,0.3,0,0.6,0,0.9c-1.1,0.1-2.1-0.5-3.2-0.5c-1.1,0-1.4-0.9-1.6-1.8
		c-0.3-1.2-0.3-2.4-0.1-3.7c0-0.3,0.3-0.6,0.2-0.9c-1.2-3.2,0.5-6.1,1-9.2C32,56,32.3,55.6,33,55.8z"/>
	<path class="st9" d="M33,62.4c-1-0.8-0.1-1.4,0.4-1.8c1.1-1,1.4-2.2,0.9-3.6c0-0.4,0-0.9,0-1.3c0.3-0.1,0.7-0.3,0.7,0
		C35.4,58.3,35.3,60.7,33,62.4z"/>
	<path class="st50" d="M34.4,52.3c0-0.9-0.2-1.8,0.4-2.6c0.1,0.1,0.3,0.3,0.4,0.4c0,0.9,0.1,1.8-0.5,2.6
		C34.4,52.8,34.2,52.7,34.4,52.3z"/>
	<path class="st9" d="M34.4,52.3c0.1,0.1,0.3,0.3,0.4,0.4c-0.2,0.8-0.3,1.6-0.9,2.2C34,54,32.5,52.8,34.4,52.3z"/>
	<path class="st51" d="M6.4,54c-0.6-0.6-0.9-1.3-0.9-2.1c0.1-1.1-0.4-1.8-1.3-2.3c-0.6-3.3-0.2-6.5,0.4-9.7c0.6,0,0.7-0.3,0.5-0.9
		c-0.1-0.6-0.3-1.3,0.4-1.8c0.6-0.6,1.1-1.6,2-0.4c0.3,0.6,0.3,1.2-0.1,1.7c-2.9,3.8-2,7.8-0.8,11.9c0,1,1,1.9,0.3,3
		C6.9,53.6,6.7,53.9,6.4,54z"/>
	<path class="st44" d="M32.1,43.4c-1.9-0.4-1.6-1.8-1.3-3.1C32.2,40.9,32.4,42,32.1,43.4z"/>
	<path class="st4" d="M12.2,74c1.3,1.1,2.6,2.1,2.7,4c-0.1,0-0.3,0-0.4,0C13.5,76.7,12.4,75.6,12.2,74z"/>
	<path class="st46" d="M39.7,7.5c-0.3-0.3-0.6-0.6-0.9-0.9C39.3,6.4,40,5.8,40.1,7C40,7.2,39.8,7.3,39.7,7.5z"/>
	<path class="st52" d="M16.2,19c1.5-0.8,2.2-2.5,3.5-3.5c0.6-0.4,1.2-0.9,1.8-1.3c0.8-0.5,1.1,0,1.2,0.6c0.1,0.5,0.3,1,0.6,1.4
		c0.1,0.2,0.1,0.4,0.1,0.6c-0.4,1.2-1.7,0.8-2.5,1.5c-0.6,0.5-1.1,1.9-1.5,1.7c-1.8-1-2.9,2-4.6,0.6C14.6,19.3,15.8,19.5,16.2,19
		L16.2,19z"/>
	<path class="st52" d="M27.7,10.1c0.3,0.3,0.6,0.6,0.9,0.9c0.2,0.4,0.5,0.4,0.9,0.4c-1.6,1.7-3.2,3.4-5,4.9c-0.3,0.3-0.8,0.4-1.2,0
		l0,0c-0.2-1.5,1.4-2,1.8-3.1C26.8,13,26.4,10.9,27.7,10.1z"/>
	<path class="st53" d="M25,13.3c0.2,1.5-1.3,2-1.8,3.1c-0.5-0.3-1.3-0.3-1-1.3c0.2-0.6-0.2-0.9-0.8-0.9C22.4,12.8,24.1,14.4,25,13.3
		z"/>
	<path class="st54" d="M10.9,25.6c0.6-0.2,1.2-0.3,1.8-0.5c0.6,1.3-0.9,2.2-0.7,3.4c0.3,0.1,0.4,0.1,0.6,0c0.6-0.4,0-2.1,1.2-1.7
		c1.3,0.5,0.8,2,0.6,3.1c-0.1,0.3-0.3,0.8-0.6,0.9c-2.2,0.7-1.7,2.5-2,4.2c-0.3,2.3-0.6,4.7-2.9,6.1C8.2,41.1,8.4,40,7.6,40
		c-1-1.2,0.5-2.2,0.3-3.4c0-0.4,0.1-0.8,0.2-1.2c0.2-0.9,0.3-1.7-0.3-2.5c-0.5-0.6-0.4-1.3,0-2C9,29.3,9.9,27.5,10.9,25.6z"/>
	<path class="st51" d="M7.8,31c0,0.4-0.1,1.1,0.1,1.3c1.6,1,1,2.3,0.8,3.6c-1.3-0.6-2.1,0.3-3.1,0.9C5.4,34.5,6.2,32.6,7.8,31z"/>
	<path class="st55" d="M5.5,36.7c0.1-0.2,0.4-0.3,0.4-0.5c0.6-1.9,1.5-1.8,2.7-0.4c-0.2,0.3-0.3,0.6-0.5,0.9c-0.3,0.3-0.6,0-0.9,0
		c-0.8-0.6-1.1,0.6-1.8,0.4C5.5,37,5.5,36.9,5.5,36.7z"/>
	<path class="st56" d="M34.8,81.5c1.2,0.2,0.9,2.5,2.8,2c0.3-0.1,0.5,1.2,0.2,1.5c-1.2,1.2,0.2,2,0.7,2.1c0.9,0.3,0.6-0.8,0.9-1.3
		c0.2-0.4,0.6-0.9,1.2-0.8c0.2,1.2-0.3,2.4,0.5,3.5c0.1,1.1,0,2.4,1.7,1.3c0.4,0.2,0.4,0.5,0.5,0.9c-0.1,0.3-0.4,0.6-0.6,0.8
		c-0.1,0.1-0.3,0.2-0.5,0.3c-0.2,0-0.4,0-0.6,0c-1-0.3-2.1-0.4-3.1-0.3c-1.2-0.4-1.1-1.5-1.3-2.3c-0.2-0.9-0.6-1.6-1.3-2.2
		c-1.1-0.4-2.6-0.2-2.8-1.7C33,83.8,33.1,82.3,34.8,81.5z"/>
	<path class="st57" d="M41.9,91.7c0.1,0,0.3,0,0.4,0c0.2,0,0.3,0,0.2-0.2c0-0.1-0.1-0.1-0.2-0.1c0.2-0.4,0.5-0.5,0.9-0.5
		c1.5,0,2.2,0.8,2.2,2.2c-0.1,1.9-1.6,0.2-2.2,0.9c-0.6,0.3-1.3,0.6-1.7-0.1C41,93.1,41.3,92.3,41.9,91.7z"/>
	<path class="st58" d="M41.9,91.7c0.1,1-0.6,2.4,1.3,2.2c-0.5,1.1-0.4,2.1,0.9,2.7c0.1,0.8,0.8,1,1.4,1.3h0c-0.3,0.4-0.3,0.9,0,1.3
		c-0.3,0.5-0.8,0.4-1.3,0.4c-1.2,0.4-1.5-1.2-2.5-1.3c0.3-2.8-1.2,0.2-1.5-0.5c-0.1-0.2-0.2-0.3-0.3-0.5c0.5-1.7-0.7-3.1-1-4.7
		c-0.1-0.5-0.2-0.9,0-1.4C39.9,90.7,40.9,91,41.9,91.7z"/>
	<path class="st59" d="M40.1,97.5c0,0.1,0,0.3,0,0.4c-0.8,0-0.6,0.5-0.4,0.9c-1.1,0.5-1.8,0.3-2-0.9c-0.2-0.1-0.3-0.3-0.5,0
		c-0.2,0.6-0.5,0.8-1,0.4c-0.2,0-0.3,0-0.5,0c0,0,0-0.1,0-0.1c-1.8-1.8-2.4-4.9-1.5-6.9c1.5,0.4,0.3-1,0.8-1.2
		c0.8-0.4,1.5,0,1.8,0.7C37.9,93.1,39.3,95.1,40.1,97.5z"/>
	<path class="st60" d="M36.1,98.3c0.8,0,0.7-0.4,0.5-0.9c0.4-0.4,0.9-0.3,1.3,0c0.5,0.6,0.5,1.7,1.8,1.3c0,0.3,0,0.6,0.1,0.9
		c-0.6-0.2-1.2-0.5-1.8-0.4C37.3,98.9,36.7,98.6,36.1,98.3z"/>
	<path class="st61" d="M23.3,16.4c1.1,0,2-0.9,2.2-1.5c0.8-1.8,2.5-2.4,4-3.4c0.3,0,0.6,0,0.9,0c0.1,0.1,0.1,0.2,0.2,0.2
		c0.1,0.3,0,0.6-0.1,0.9c-1.3,2-3.2,3.4-5.2,4.4c-1.7,0.9-2.5,1.9-2.4,3.7c-0.1,0.4-0.3,0.8-0.6,1.1c-0.6,0.6-1.4,0.8-2.2,1.2
		c-0.5,0.2-0.9,0.6-1.4,0.6c-1.7-0.6-0.2-1.7-0.5-2.6c0.1-0.7,0.7-0.8,1.2-1.1c0.8-0.5,1.4-1.1,1.2-2.2
		C21.3,16.8,22.8,17.7,23.3,16.4z"/>
	<path class="st62" d="M33.5,8.8c0,0.1,0,0.3,0,0.4c-0.5,1.4-1.2,2.6-3.1,2.2c0,0-0.1,0-0.1,0c0.2-0.4,0.7-0.7,0.7-1
		C30.7,8.1,32.1,8.4,33.5,8.8z"/>
	<path class="st63" d="M38.3,6.6c-2,1.7-3.5,3.9-4.4,6.4c-0.2,0.6-0.5,1-1.1,1.2c-0.8,0.3-0.9,1.2-0.3,1.5c1.3,0.7,0.7,1,0,1.7
		c-1.1,0.9-1,2.5-2.1,3.4c-0.1,0.1-0.2,0.1-0.3,0.2c-0.6,0.1-1-0.2-1.2-0.7c0-0.2,0-0.4,0.2-0.6c1.6-2,1.6-2-0.2-4.6
		c0-0.6,0.4-0.9,0.9-1.2c1.5-2.3,4.1-3.5,5.5-5.9c0.2-1,1.1-1.2,1.8-1.8C37.4,6.3,37.9,6.5,38.3,6.6z"/>
	<path class="st64" d="M35.2,7.9c0,1.9-2.4,2.5-2.5,4.4c0,0.3-0.5,0.2-0.7,0.1c-1.2-0.7-1.2,0-0.9,0.9c0.3,1-0.6,0.8-1.1,0.8
		c-0.2-0.7,0-1.3,0.4-1.8c0-0.3,0-0.6,0-0.9c1.4-0.2,2-1.5,3.1-2.2C34.2,9.1,34.3,7.9,35.2,7.9z"/>
	<path class="st65" d="M45.4,97.9c0.1-0.4-0.1-0.9,0.4-1.1c0.1,0,0.4,0.2,0.4,0.3C46.3,97.7,45.9,97.8,45.4,97.9
		C45.4,97.9,45.4,97.9,45.4,97.9z"/>
	<path class="st60" d="M34.3,91.7c-0.2,1-0.7,2.1,0.7,2.7c0.2,0.1,0.3,0.3,0.4,0.4c-1.9,1.3,0.4,2.3,0.2,3.5c-0.3,0-0.6,0-0.9,0
		c-0.4,0-0.8-0.1-1.1-0.4c-1-1.3-2.6-1.9-3.4-3.6c-0.5-1-1-1.6-0.8-2.8c0.4-1.4-1.5-1.1-1.9-2.1c0-0.2,0-0.4,0.2-0.6
		c2.6-1.7,4.7-0.4,6.7,1.2C34.3,90.6,34.9,91.2,34.3,91.7z"/>
	<path class="st66" d="M27.7,89c0.4,0.5,1,0.8,1.7,0.9c0.9,0.1,1.2,0.7,0.9,1.4c-1.2,2.7,0.8,3.9,2.4,5.2c0.5,0.4,0.9,0.9,1.3,1.4
		c0,0.3-0.3,0.3-0.5,0.4c-1.1-1.2-2.2-2.4-4-2.6c0-0.4,1.3-0.6,0.3-1.3c-2.2-1.7-3.7-3.8-3.8-6.7C26.6,88,27.1,88.6,27.7,89z"/>
	<path class="st32" d="M33.5,98.3c0.2-0.1,0.3-0.3,0.5-0.4c0.4,0,0.7,0.1,0.9,0.4C34.4,99,33.9,98.5,33.5,98.3z"/>
	<path class="st67" d="M20.6,17.7c0,0.7,0.6,0.9,1.2,1.2c-1.3,0.8-2.7,1.1-3.4,2.3c-0.2,2.1-2.1,3.2-2.7,5.1
		c-0.2,0.6-0.4,1.2-0.1,1.9c0,0.8-0.4,1.4-1,1.9c-0.2,0.1-0.4,0.1-0.6,0c-0.1-1,0.3-2-0.3-3c-0.7,0.5,0,1-0.1,1.5
		c-0.1,0.5-0.3,0.9-0.8,0.9c-0.5-0.1-1.2,0.2-1.6-0.4c-0.3-0.4-0.1-0.8,0.2-1.2c0.5-0.9,0.9-1.8,1.4-2.7c0.4-1.5,0.7-3.1,1.8-4.4h0
		c0.2-0.1,0.2-0.4,0.5-0.4C16.8,19.4,19.4,20.2,20.6,17.7z"/>
	<path class="st28" d="M14.9,20.4c-0.2,0.1-0.3,0.3-0.5,0.4c-0.1-1.3,0.5-1.9,1.8-1.8C15.7,19.5,15.3,19.9,14.9,20.4z"/>
	<path class="st68" d="M6.4,54c0-0.3,0-0.6,0-0.9c1.7,1,2.2,2.5,1.7,4.8c-0.1,0.6-0.8,1,0.3,1.8c1.1,0.8,1.3,2.5,1.6,4
		c0,0.5,0,1-0.5,1.3c-0.1,0-0.3,0-0.4,0c-1.4-1.9-2.3-4-2.2-6.3C7,57.1,6.4,55.6,6.4,54z"/>
	<path class="st69" d="M6.3,62.3c1.1,1.2,1.4,2.2,0.6,3.6C5.9,64.8,5.9,63.8,6.3,62.3z"/>
	<path class="st70" d="M10.9,70.4c0.9,0,1,0.8,1.3,1.3C11.2,71.8,10.8,71.4,10.9,70.4z"/>
	<path class="st71" d="M5,60.9c0,0.4-0.3,0.5-0.6,0.4C4.2,61.2,4,61,4,60.7c-0.1-0.4,0.3-0.4,0.6-0.4C4.9,60.3,5,60.6,5,60.9z"/>
	<path class="st72" d="M21,79.3c-1.3-0.3-1-1.3-0.6-2c0.4-0.6,0.6-1.1-0.1-1.4c-0.8-0.4-1,0.1-0.9,0.9c0.1,0.4-0.4,0.9-0.8,0.9
		c-0.7,0-0.5-0.5-0.3-0.9c0.2-0.3,0-0.7-0.3-0.5c-1.4,1.2-1.2-0.8-2-1c-0.2-0.2-0.5-0.3-0.7-0.6c-0.1-0.3-0.2-0.6-0.3-0.9
		c0.3-1.5-1.4-1.9-1.9-2.9c0.3-0.6,0.6-1.2,1.3-1.5c0.6,0.1,1,0.8,1.7,0.8c0.2,0,0.4,0.1,0.5,0.3c0.4,0.5,0.2,0.9,0,1.4
		c-0.3,0.7-0.3,1.3,0.5,1.6c1.5,0.7,3.3,0.8,4.8,1.5c0.2,0.1,0.3,0.3,0.4,0.5c0,0.2,0,0.4-0.1,0.6C21.8,77,21.4,78.1,21,79.3z"/>
	<path class="st73" d="M13.5,70.9c1.3,0.7,2.4,1.4,2.2,3.1c-0.4,0.3-0.3,0.6,0,0.9c0.1,0.1,0.3,0.3,0.4,0.4c-0.4,0-0.7,0.1-0.9,0.4
		c-1.6-0.5-1.1-2.1-1.7-3.1c-1-1.8-2.1-3.6-3.3-5.2c-0.5-0.6-0.8-1.4-0.8-2.3c0-0.4,0-0.9,0-1.3c0.1,0,0.2-0.1,0.2-0.1
		c0.2,0,0.3,0.1,0.5,0.3c0.3,0.6,0.6,1.2,1.1,1.7C12.3,67.3,13.3,68.9,13.5,70.9z"/>
	<path class="st74" d="M21,79.3c-0.7-1.6,0.2-2.6,1.3-3.5c0.6,1.4,0.4,2.7-0.5,4c-0.2,0-0.3,0-0.5,0C21.3,79.6,21.2,79.4,21,79.3z"
		/>
	<path class="st75" d="M27.7,89c-1.2,0.4-1.3-0.7-1.7-1.3c0-1-0.3-1.9-0.9-2.7c-0.3-0.7-0.6-1.5-0.9-2.2c0.4-1,1.1-0.8,1.8-0.4
		c0.3,0.2,0.5,0.4,0.7,0.6c0.5,0.6,0.7,1.3,1,1.9c0.3,0.4,0.5,0.7,0.9,0.9c0.6,0.2,1.5,0.2,1.4,1.1c0,0.8-0.7,1-1.4,1.2
		C28.2,88.3,28,88.7,27.7,89L27.7,89z"/>
	<path class="st76" d="M25.9,82.8c-0.6-0.4-1.2-0.4-1.8,0c-0.3-0.1-0.6-0.3-0.9-0.4c-0.3-0.5-0.4-0.9,0.1-1.3
		c0.7-0.7-0.3-0.2-0.3-0.4c-0.6-0.1-0.8-0.5-1.1-0.9c0,0,0,0,0,0c0.2-1.3,0.3-2.7,0.5-4c0,0,0,0,0,0c0.6-1.1,2.1-0.4,2.7-1.4
		c1.4,0.6,1.1,1.3,0.2,2.1c-1.1,0.7-0.7,1.5-0.1,2.2c0.5,0.6,0.8,1.3,1.3,2C27.3,81.7,27.1,82.4,25.9,82.8z"/>
	<path class="st77" d="M23.3,80.2c0.6,0.4,1.4,0.4,1.7,1.4c-0.6,0.3-1.9-0.9-1.7,0.9c-0.3-0.3-0.6-0.6-0.9-0.9
		C22.1,80.6,22.9,80.5,23.3,80.2z"/>
	<path class="st74" d="M23.3,80.2c-0.3,0.4-0.6,0.9-0.9,1.3c-0.7-0.5-0.4-1.2-0.5-1.8C22.4,79.9,22.8,80,23.3,80.2z"/>
	<path class="st78" d="M29.5,38.5c0,0.2,0,0.3,0,0.5c-0.7,0.5-1.3,1.7-2.1,1.2c-1.1-0.7-1.4-2-1.1-3.3c0.8-0.2,1.5-0.4,1.3-1.6
		c-0.3-1.4,0.4-2.5,0.7-3.8c0.5-1.8-0.4-3.7,0.1-5.7c0.4-1.8,0.6-3.6,2-5c0,0,0,0,0,0c0.5-0.5,1.4,0.5,1.8-0.4
		c0.2,1.4,1,2.9-1.3,3.4c-0.6,0.2-1,1.4-0.7,1.9c1.2,2.7-0.3,5.5,0.2,8.2c0,0.2,0,0.6-0.1,0.6C27.7,35.4,30.3,37.3,29.5,38.5z"/>
	<path class="st79" d="M25,76.2c1.1-0.6,0.6-1.2,0-1.8c-0.1-0.1-0.1-0.2-0.2-0.2c-0.2-1,0.1-1.5,1.1-0.8c0.7,0.4,1,1.3,1.7,1.6
		c0,0,0,0.2,0,0.2s0.1-0.1,0.1-0.1c-0.3-0.2-0.3-0.5-0.3-0.8c0.9-1.7,1.8-1.9,2.8-0.5c0.3,0.5,0.9,0.8,0.9,1.5
		c-1.7,1.9-1.7,1.9-0.8,3.9c-0.1,0.3,0.5-0.1,0.2,0c-0.2-1,0.4-1.6,1.2-2.1c0.8,0.1,1.1,0.7,1.2,1.3c0.1,1.1,0.7,1.9,1.3,2.7
		c0.1,0.2,0.3,0.3,0.4,0.5c0,0.1-0.1,0.1-0.1,0.2c-2,3.3-1.6,4.2,1.9,4.7c0,1.3,0,2.6-2,1.8c-0.5-0.1-1-0.3-1.4-0.6
		c-0.8-0.5-1.2-1.4-0.8-2.2c0.6-1.4,0-2.1-1-2.8c-0.5-0.5-1.1-0.2-1.6-0.1c-1.4,0.2-2.1-0.7-2.9-1.7c-0.9-1.1-1-2.7-2.2-3.7
		C24.3,76.7,24.7,76.4,25,76.2z"/>
	<path class="st80" d="M31.2,75.3c-0.4-0.3-1-0.5-1.2-0.8c-0.8-2.5-1.6-1.1-2.4,0c-0.1-0.1-0.1-0.1-0.2-0.2c-0.6-1.2,0-2.6-0.3-3.9
		C27,69.7,27.5,69,28,69c1.8-0.1,2.2-1.5,2.9-2.6c0.1,0,0.2,0,0.3,0.1c0,1-0.1,2.1,0,3.1c0.2,1.1,0.1,2.6,2.2,2
		c0.8-0.2,1.6,0.4,2.2,1.1c-0.1,0.6,0.2,1.4-0.5,1.8c-0.8,0.5-0.4,1.1-0.3,1.7c0.1,0.8,2.2,1.8-0.6,2.2c-1,0.1,0.4,1.8,0.1,2.7
		c-1.2-0.4-2-1.2-1.8-2.6c0.1-0.6-0.3-1.1-0.9-1.4c-0.1-0.1-0.1-0.2-0.2-0.2c-0.2-0.4,0.6-1-0.1-1.3C31.3,75.4,31.3,75.4,31.2,75.3z
		"/>
	<path class="st80" d="M33,55.8c-1.5,0.5-0.2,1.8-0.7,2.7c-1,1.9-1.7,4.1-0.7,6.3c0.2,0.5,0.2,1.2-0.4,1.6c0,0,0,0,0,0
		c-1-0.3-1.7-1.8-3.2-0.5c-0.9,0.8-1.3-0.6-1.1-1.4c0.3-1.3,1.2-2.6-0.6-3.5c-0.2-0.1-0.2-0.7,0-0.8c1.4-0.7,1-1.8,0.9-3
		c-0.1-0.9,0.2-1.8,1.3-1.9c0.8-0.1,0.7-0.7,0.7-1.3c0-0.2,0-0.4,0.1-0.5c0.2-0.7-0.9-0.4-0.9-1c0.1-0.5,0.5-0.6,0.8-0.7
		c0.4-0.2,1.5,0.2,0.9-0.9c0-0.6,0.3-0.9,0.9-1.1c0.2,0,0.4,0.1,0.6,0.2c0.2,1.5,1.2,2.8,0.4,4.4C31.9,54.7,32.7,55.3,33,55.8z"/>
	<path class="st81" d="M31.7,50c-0.1,0-0.3,0-0.4,0c-2.3-1.2-2.3-3.8-3.8-5.5c0,0,0,0,0,0c0.4,0.7,0.8,1.3-0.1,1.8
		c-1,0.5-2,0.5-2.9-0.1c-0.8-0.5-0.5-0.9,0.2-1.5c0.3-0.3-0.5-0.5-0.6-0.9c0.2-1.1,0.5-2.1,1.9-2.3c-2-3.4-2-4,0.2-4.9
		c0.1,0,0.2,0.1,0.3,0.1c0.3,1,0.6,2.1,1,3.2c0.7-0.6,1.2-1.2,2.1-1c-0.1,1.4,1.1,3.1-1,4.2c-0.6,0.3,0.3,0.7,0.6,1.1
		C30.2,46.1,31.5,47.8,31.7,50z"/>
	<path class="st82" d="M10,63.7c-0.1,0-0.3,0-0.4,0c-0.8-1.3-0.4-3.1-2.1-4.1c-0.2-0.1,0-1.1,0.1-1.7c0.5-1.9,0.2-3.5-1.1-4.9
		c1-0.9-0.5-1.8,0-2.6c-0.1-2.1-0.9-4.3,0.5-6.2c2.8,0.7,3.2,1.6,2.3,5.5C9.1,50.6,9,51.3,9.6,52c0.2,0.5,0.3,1.1,0.5,1.7
		c-0.9,1.3-1.1,2.6-0.4,4c0.1,0.2,0.1,0.4,0.1,0.6c0,1.6,0.7,3.1,0.4,4.7C10.3,63.2,10.2,63.5,10,63.7z"/>
	<path class="st83" d="M7.3,44.3c-1.1,2-0.2,4.2-0.9,6.2c-1-2.1-1.3-4.3-1.3-6.7c0-2.4,0.9-3.8,2-5.5c0.2-0.4,0.2-1,0.2-1.5
		c0.3-0.5,0.6-0.1,0.9,0c0.9,1.2-1.3,1.9-0.4,3.1c0.6,0.4,0.4,1.1,0.6,1.7c0,1-0.2,1.8-0.8,2.6C7.5,44.2,7.4,44.2,7.3,44.3z"/>
	<path class="st84" d="M14,30.1c0.1,0,0.3,0,0.4,0c2.2,1.3,2.3,5.1,0.2,6.2c-0.4,0.2-0.8,0.2-1.2,0c-0.8-0.6-0.3-1.3-0.2-2.1
		c-0.9,1.9-0.8,2.1,1,2.4c0.6,0.1,1.2,0,1.6,0.5c-0.1,1.2-0.8,1.9-1.8,2.4c-2-1.6-2.1-1.5-3,0.7c-0.3,0.7-0.5,1.5-0.7,2.3
		c-0.3,1.7-1,1.8-2,0.5c-0.3-0.5,0-1.1,0-1.6c0.1-0.1,0.1-0.2,0.2-0.3c2-2.5,3.4-5.2,2.4-8.6c-0.2-0.6,0.1-1.7,1.1-1.4
		C13.3,31.6,13.3,30.5,14,30.1z"/>
	<path class="st85" d="M8.2,41.6c-0.7-0.5-0.4-1.1-0.4-1.8c1.7-0.5,0.6,0.9,0.9,1.3c0,0,0,0,0,0C8.5,41.3,8.5,41.6,8.2,41.6z"/>
	<path class="st86" d="M34.8,87.7c1.8,1.2,0.9-1.2,1.7-1.3c1.6,1.2,0.5,3.7,2.2,4.8c0,1,0.5,1.5,1.9,0.9c-1,1.3-2.1,2.1-0.1,3.1
		c1.1,0.6-0.7,1.4-0.5,2.3c-0.5,0.4,0.1-1.9-1.1-0.5c-0.5,0.5-0.5-0.7-0.4-1.2c0.1-1.2-2.6-5.1-3.7-5.4c-0.1-0.1-0.1-0.2-0.2-0.3
		C34.2,89.2,34.1,88.4,34.8,87.7z"/>
	<path class="st87" d="M42.3,91.3c0.5,0,0.9,0.2,0.8,0.8c0,0.1-0.1,0.3-0.2,0.3c-0.5,0.1-0.5-0.4-0.6-0.7
		C42.3,91.5,42.3,91.4,42.3,91.3z"/>
	<path class="st86" d="M34.3,91.7c0.1-0.5-0.5-0.9,0-1.4c0.2-0.2,0.3-0.2,0.5,0c0,0,0,0,0,0C35,90.9,36.1,91.8,34.3,91.7z"/>
	<path class="st88" d="M37.9,97.4c-0.4,0-0.9,0-1.3,0C37,96,37.4,96.8,37.9,97.4z"/>
	<path class="st89" d="M19.7,22.6c0.7-0.3,1.5-0.6,2.2-0.9c2,0.3,1.2,1.5,1,2.6c-0.2,1.2-1.6,2.2-0.7,3.7c0.1,0.3,0.2,0.6,0.2,0.9
		c-0.1,2-1.9,3.7-1.1,5.9c0.2,0.6,0.4,1.2,0.6,1.9c0.5,2.2,0.1,2.9-2.1,3.8c-0.5,0-0.8-0.2-1.1-0.6c-0.1-0.3-0.1-0.6,0.1-0.9
		c-0.6-0.7,1.5,0.7,0.5-0.7c-0.4-0.5-1.2-1.7-0.7-2.8c0.5-0.6,0.6-1.5,0.3-2.1c-1.2-2.7,0.1-5.3,0.6-7.8
		C19.6,24.5,18.9,23.5,19.7,22.6z"/>
	<path class="st90" d="M19.7,22.6c0.7,2.2,0.6,4.2-0.6,6.2c-1,1.7,0.4,3.6,0.4,5.4c0,0.7,0,1.1-0.7,1.2c-0.5-1.1-2.3-1.6-1.6-3.2
		c0.1-0.2,0.1-0.3,0-0.3c-0.7,0.2-1.6,0.6-1.6-0.6c-0.1-1.2-0.2-2.5,0.7-3.5c0.6-0.9,0.4-2.7,1.2-2.8c1.1-0.2,0.8-1.1,1.4-1.5
		C19,23,19.3,22.7,19.7,22.6z"/>
	<path class="st91" d="M30.4,12.4c0.1,0.6-0.1,1.2-0.4,1.8c-0.3,0.3-0.6,0.6-0.9,0.9c0.1,1.1,0.9,2.3-0.7,3
		c-0.9,1.3-1.8,2.6-3.6,2.7c-0.6,0.1-1.2,0.3-1.8,0.3c-0.2,0-0.4-0.1-0.5-0.2c-0.2-2.1,0.3-3.4,2.6-4.2C27,15.9,28.6,13.8,30.4,12.4
		z"/>
	<path class="st84" d="M18.8,23.4c-0.7,1.6-1.5,3.2-2.2,4.9c-0.4,0.3-0.9,0.3-1.3,0c-0.2-0.5-1.2-0.8-0.8-1.1
		c1.3-0.9,0.5-3.2,1.8-3.4c1.1-0.2,1-0.5,1-1.2c0.1-0.6,0.4-1.1,1-1.3c0.5,0.4,0.5,0.8,0.1,1.3C18,23,18.5,23.2,18.8,23.4z"/>
	<path class="st92" d="M22.4,20.8c0.1,0,0.3,0,0.4,0c0.6,0.3,0.7,1.3,1.7,0.9c0.8-0.3,1.5,0.3,1.9,0.9c-0.7,1.4-2.3,2.1-2.5,3.9
		c-0.1,0.6-1,1.5-2,1.4c-1.4,0.4-1-0.7-0.7-1c0.7-0.9,0.6-2.1,1.3-3c0.6-0.8,0.4-1.7-0.6-2.2C22.1,21.4,22.2,21.1,22.4,20.8z"/>
	<path class="st81" d="M30.4,20.8c-1.3,2.4-1.2,5.2-2,7.7c-0.2,0.7,0.6,0.8,0.7,1.5c0.3,2.1-1.6,3.6-0.9,5.6
		c0.2,0.6-0.1,1.4-0.1,2.2c-0.9,0.2-0.7-1.4-1.6-1.1c0,0,0,0,0,0c-0.3-0.9,0.9-2.2-0.8-2.7c-0.2-0.1,0,0.1-0.1-0.2
		c-0.3-0.8,0.3-1.2,0.7-1.7c-0.4-0.2-1.1,0.1-1.2-0.7c-0.1-0.7,0.1-1.3,0.2-2c0.3-2.2,2.2-3.8,2.1-6.1c-0.1-0.6-0.1-1.3,0.3-1.8
		c0.4-0.6,0.7-1.4,1.6-1.2C29.4,20.5,29.9,20.6,30.4,20.8z"/>
	<path class="st92" d="M29,20.3c-0.4,0.5-0.8,0.9-1.3,1.4c-0.6,0.5-1.3,0.2-1.9,0.2c-0.7-0.3-0.9-0.9-1.2-1.5
		c0.9-0.8,3.3-0.2,2.5-2.7c-0.1-0.4,0.7,0,1.1,0.1c0.7,0.6,1.5,1.1,0.9,2.2C29,20,29,20.2,29,20.3z"/>
	<path class="st64" d="M29,19.9c-0.3-0.7-0.6-1.5-0.9-2.2c0.7-0.4,1.2-0.9,0.5-1.7c-0.5-0.5,0-0.7,0.4-1
		C31.5,16.7,31.5,18.4,29,19.9z"/>
	<path class="st93" d="M34.8,90.3c-0.2,0-0.3,0-0.5,0c-1.3,0.3-1.5-1.7-2.3-1.5c-1.3,0.4-2.5-0.8-3.7,0.1c-0.1,0.1-0.4,0-0.6,0
		c-0.1-0.8-1-2.1,1-1.4c0.4,0.2,0.9-0.2,1-0.7c0-0.6-0.6-0.6-1-0.5c-1.4,0.4-1-0.9-1.5-1.4c0.1-0.9,0.1-2,1.5-1
		c0.2,0.2,0.5,0.5,0.8,0.3c2.5-1.9,2.4,0.3,2.6,1.7c0.1,0.8,0.7,1,1.3,1.2c0.4,0.1,0.9,0.3,1.3,0.4C34.8,88.6,34.8,89.5,34.8,90.3z"
		/>
	<path class="st94" d="M15.3,28.3c0.4,0,0.9,0,1.3,0c-0.9,0.7-0.1,1.9-0.8,2.8c-0.3,0.4,0.3,0.7,0.8,0.5c0.5-0.2,1-0.5,1.8-0.8
		c-2.6,2,0.7,3,0.4,4.6c0.1,0.4,0.1,1,0.2,1c2,0.1-0.1,2,1.1,2.4c-0.4,0-0.9,0.1-1.3,0.1c-0.9-0.7-0.9-3.2-3.1-1.8
		c-1,0.2-2-0.6-3-0.1c-0.4,0.2-0.9-0.1-0.6-0.5c0.5-0.9-0.9-2.1,0.4-2.8c0.4-0.3,0.9-0.6,1.5-0.5c0.4,0.6,0.1,1.1-0.3,1.5
		c-0.4,0.5-0.6,0.9,0,1.2c0.6,0.3,0.9-0.2,1.2-0.6c1.3-1.9,0.9-3.6-0.4-5.3C14.3,29.3,15,28.9,15.3,28.3z"/>
	<path class="st95" d="M10,63.7c0-0.3,0-0.6,0-0.9c-0.1-0.1-0.1-0.3,0-0.4c1.8-2.3,1.7-2.8-0.4-4.5l0,0c-0.8-1.4,0.6-2,1.2-2.4
		c1.1-0.7,1.3,1,2.1,1.3C13,57,13,57.1,13,57.1c-0.1-0.1-0.1-0.1-0.2-0.2c-0.3-0.9-0.8-1.8-1.6-2.3c-0.4-0.2-0.6-0.7-0.5-1.1
		c0.2-0.5,0.7-0.4,1.1-0.3c0.6,0.1,1.2,0,1.7-0.3c0.5-0.2,1.1-0.2,1.6,0.1c0.2,0.1,0.3,0.3,0.4,0.5c0.1,0.8-0.7,1.2-0.9,1.9
		c0.4,0.2,0.8-0.3,1.3,0c0.8,0.6,0.6,1.2,0.3,2.1c-0.5,1.5-0.8,3.2-0.4,4.8c0.2,0.9,0.6,1.6,1.7,1.8c0.5,0.2,1.1,0.8,0.9,1.1
		c-1,1.7,1.4,2.4,1.1,4c-0.1,0.6,0.9,0.3,1.4,0c1.1-0.6,1.8-0.4,2.1,0.9c-0.6,2.4-0.9,2.5-2.9,1.5c-1.1-0.6-2.2-1.4-3.5-1
		c-0.1,0-0.3,0-0.4,0c-0.2-0.1-0.3-0.3-0.4-0.5c-1.5-1.8-3.4-3.3-5-5C10.4,64.6,10.4,64.1,10,63.7C10,63.8,10,63.7,10,63.7z"/>
	<path class="st96" d="M16.6,70.4c1.1-0.1,0.8-0.8,0.6-1.6c0.9,1.7,2.8,1.8,4.1,2.6c1.3,0.8,0.7-1.3,1.5-1.6c0.2-0.1,0.4-0.1,0.6,0
		c0.4,0.4,0.6,0.8,0.8,1.3c0.7,1,0,2.3,0.8,3.2c0,0,0,0,0,0c0.1,2.4-1.9,0.6-2.6,1.3c0-0.1,0-0.3,0-0.4c-0.9-1.1-2.7-1.1-3.2-2.8
		c-0.1-0.5-0.9-0.3-1.4,0c-0.1,0.2-0.2,0.5-0.3,0.8c-0.1,0.3-0.2,0.5-0.5,0.7c-1.4-0.5-1.3-1.6-0.7-2.5
		C16.6,71.1,16.8,70.9,16.6,70.4z"/>
	<path class="st97" d="M10.9,64.6c2.2,0.7,2.6,3.6,5.1,3.9c0.1,0,0.1,0.9,0.2,1.4c-0.7,0.6-0.9-0.3-1.3-0.5
		c-0.6,0.3-0.3,1.4-1.3,1.3c-1.3-1.6-1.6-3.6-2.7-5.3C10.6,65.2,10.6,64.9,10.9,64.6z"/>
	<path class="st98" d="M17.1,74c0-0.3,0-0.6,0-0.9c0.3-0.3,0.4-0.6,0-0.9c1.6-0.7,3.2-1.3,3.2,1.4c0,0.3,0.2,0.5,0.6,0.4
		c1.2-0.2,1.2-0.1,1.5,1.3C20.6,74.9,18.8,74.4,17.1,74z"/>
	<path class="st73" d="M14.8,69.5c0.6-0.3,0.7,0.7,1.3,0.5c0,0.1,0,0.3,0,0.4C15,71.2,15,70.2,14.8,69.5z"/>
	<path class="st39" d="M15.7,74.8c-0.5,0-0.9-0.2-0.8-0.7c0.1-0.6,0.5-0.2,0.8-0.1C15.7,74.3,15.7,74.5,15.7,74.8z"/>
	<path class="st82" d="M10.9,64.6c0,0.3,0,0.6,0,0.9c-0.8-0.4-0.9-1-0.9-1.8C10.6,63.8,10.9,64.1,10.9,64.6z"/>
	<path class="st99" d="M25,76.2c1,1.5,1.6,3.2,2.3,4.9c1.1-0.5,1.7,1.7,3,0.5c0.3-0.3,1-0.1,1.4,0.4c-0.6,1.5-1.4,2.7-3.3,1.4
		c-0.7-0.4-1.4,0.7-2-0.1c-0.1-0.1-0.3-0.3-0.4-0.4c1.2-1.6,0-2.6-0.9-3.5C23.8,77.9,23.7,76.9,25,76.2z"/>
	<path class="st100" d="M26.4,83.3c1.1-0.4,2-0.8,3.2,0.1c1.2,0.9,1-1.6,2.1-1.4c1.1,1,1.9,2.1,1,3.7c-0.4,0.8,0.4,1.1,0.7,1.6
		c-1.9-0.3-2.3-1.6-2.1-3.3c-0.9-0.3-0.9,0.9-1.7,1c-0.4,0-0.7,0.7-1.1-0.2c-0.8-2-0.8,0.4-1.3,0.3C26.9,84.5,26.7,83.9,26.4,83.3z"
		/>
	<path class="st101" d="M31.7,77.1c0.1,0.9-1.4,1.5-0.2,2.6c-2-0.1-2.3-1.7-2.5-2.8c-0.2-0.9,1.3-1.3,2.2-1.6c0,0,0,0,0,0
		C31.7,75.8,31.2,76.6,31.7,77.1L31.7,77.1z"/>
	<path class="st102" d="M25,74.4c-1.7-0.5-0.3-2.3-1.3-3.1c0.5-0.5,0.9-0.2,1.4,0.1c0.3,0.2,0.7,0.4,1,0.6c0.5,0.3,1,0.5,1.3,1.1
		c0.2,0.4-0.1,1,0.3,1.4c0,0,0,0,0,0c0.1,0.3,0.3,0.6,0.4,0.9c0,0,0,0,0,0c-1.1,0.1-1.7-0.5-2.2-1.4c-0.1-0.3-0.3-0.8-0.8-0.3
		C25,73.7,25.1,74.1,25,74.4z"/>
	<path class="st80" d="M28.1,75.3c0.4,0,0.7-0.6,1.1-0.1c0.1,0.1,0,0.3-0.1,0.3C28.7,75.8,28.4,75.6,28.1,75.3
		C28.1,75.3,28.1,75.3,28.1,75.3z"/>
	<path class="st103" d="M27.7,74.4c-0.5-0.3-0.4-0.8-0.4-1.3c-0.3-0.5-0.7-0.8-1.3-0.9c-0.4,0-0.7-0.1-0.9-0.4
		c-0.4-2.2-1.9-4-2.2-6.1c-0.4-0.3-0.8-0.3-1.2-0.2c-1.3,0.4-1.5-0.3-1-1.3c0.8-1.6,0.7-3.8,2.7-4.8c0.4-0.2,0.2-0.8,0-1.2
		c-0.3-0.6-0.4-1.2,0-1.8c0.6-1.3,2.3-2.4,1-4.2C24.1,52,24,51.7,24,51.4c0.2-1-0.1-2-0.5-2.9c-0.1-0.2-0.2-0.4-0.3-0.6
		c-0.4-1.4-0.9-2.9,0.4-4.1c0.2-0.1,0.4-0.1,0.6,0c0.7,0.4,1.5,0.6,1.9,1.4c-0.5,0.7-1.2-0.6-1.6,0.3c0,0,0,0.2,0,0.3
		c0.9,0.4,1.8,0.6,2.7,0.2c0.9-0.5-0.1-1.1,0.1-1.7h0c1.2,0.5,2.3,1,2,2.7c-0.1,0.6,0,1.2,0.8,1.3c1,0.2,1.2,0.9,1.2,1.8
		c-0.3,0.3-0.6,0.6-0.9,0.9c0.1,0.4-0.1,0.6-0.4,0.7c-0.1,0.1-0.3,0.1-0.4,0.1c-0.9,0.1-2.2,0.1-2.2,1c0,1.3,1.5,0.2,2.1,0.8
		c0.3,1.1,1.7,2.6-1.2,2.4c-0.8-0.1-0.9,1.6-0.4,2.3c0.8,1,0.9,1-0.2,1.7c-0.2,0.2-0.6,0.2-0.8,0.3c-0.2,0.1-0.3,0.3-0.6,0.6
		c2.4,0.4,2.7,1.4,1.1,3.1c-0.4,0.4-0.2,1.1,0.1,2c1.8-2.9,2.8-1.2,3.7,0.4c-0.6,0.4-0.4,1.1-0.4,1.6c0,0.9-0.3,1.3-1.4,1.1
		c-1.4-0.2-2.3,0.1-1.5,2C28.3,72.1,27.8,73.3,27.7,74.4z"/>
	<path class="st79" d="M31.7,77.1c-0.6-0.5-0.8-1-0.4-1.8c0.5,0.2,1.6-0.6,1.3,0.8C32.5,76.3,31.7,76.4,31.7,77.1z"/>
	<path class="st104" d="M29.5,53.6c-0.9,0.4-1.9,0.8-2.9,0.1c-0.2-0.1-0.2-0.7-0.1-1c0.5-1,1.5-1.3,2.6-1.3c0.3,0,0.6,0,0.9,0
		c0.3,0.5-0.2,0.6-0.4,0.9c-0.4,0-0.7,0.1-0.9,0.4C28.8,53.1,29.7,52.7,29.5,53.6L29.5,53.6z"/>
	<path class="st81" d="M29.5,52.2c0.1-0.3,0.3-0.6,0.4-0.9c0.1-0.1,0.3-0.3,0.4-0.4c0.6,0,1.1,0.4,1,0.9
		C31,52.7,30.1,52.1,29.5,52.2z"/>
	<path class="st48" d="M29.5,53.6c-0.3-0.3-0.6-0.6-0.9-0.9c0.3,0,0.6,0,0.9,0c0.3,0,0.9-0.2,0.9,0.2C30.5,53.5,29.9,53.5,29.5,53.6
		z"/>
	<path class="st105" d="M24.2,43.8c-0.1,0-0.3,0-0.4,0c-0.1,0.1-0.3,0.1-0.4,0.1c-0.5-0.1-1-0.7-0.9-0.8c1.3-1.5-2-2.9,0-4.4
		c1.3-0.4,1.5-1.8,2.4-2.5c0.2-0.1,0.3-0.6,0.2-0.6C23,35,24.6,33,23.7,32c-0.4-1.3-0.3-2.3,1.2-2.7c0.2,0,0.4,0.1,0.6,0.3
		c-0.1,0.6-0.2,1.3-0.2,1.9c0.7,0.7,0.6-1.4,1.4-0.3c1,1.3-0.9,1.4-1,2.4c2.3,0.5,1.7,1.8,0.7,3.2c-1.5,0.4-1.7,1.4-1.2,2.7
		c0.3,0.9,0.3,2.9-0.2,3.6C24.7,43.3,24.4,43.6,24.2,43.8z"/>
	<path class="st103" d="M27.3,44.3c-0.4-0.1-0.9,0-1-0.6c0-0.3,0.4-0.3,0.6-0.3C27.6,43.4,27.4,43.9,27.3,44.3
		C27.3,44.3,27.3,44.3,27.3,44.3z"/>
	<path class="st94" d="M13.5,53.1c-0.6,1.5-1.6,0.3-2.8,0.3c1.3,1.1,3,1.8,2.3,3.7h0c-0.4,0-0.8,0-1.1-0.2c-1-0.6-2-0.3-2.5,1.1
		c-1-1.6-1.6-3.1,0.5-4.4c-0.1-0.5-0.1-1-0.5-1.4c-0.9-0.6-1.4-0.8-0.9-2.3c0.6-1.8,1.1-4.2-1.3-5.6c0,0,0,0,0,0
		c0.5-0.4,0.3-1.4,1.3-1.3c0.3-0.2,1,1.5,1.2-0.2c0.1-1.2,0.8-2.2,1-3.4c0.2-0.8,0.2-1.7,1.3-1.6c0.9,0.1,2,0.3,1.8,1.7
		c0.8,1.5,1.7,2,3.3,0.9c0.4-0.3,1-0.5,1.6-0.5c0.3,0.1,0.6,0.3,0.9,0.4c0,0.1,0.1,0.2,0.2,0.3c0,0.8,0.6,1.8-0.7,2.2
		c-0.2,0-0.4,0-0.6-0.1c-1.9,0.5-3.6,1.4-5,3c-0.4,0.4-0.5,0.9-1.2,1.1c-2,0.5-2.4,2.1-1,3.6C12.2,51.3,13.2,51.9,13.5,53.1z"/>
	<path class="st94" d="M9.5,58c1,0.3,2.6,0.2,2.4,1.5c-0.3,1.1,0.4,3.3-1.9,3.4C9.8,61.3,9.1,59.7,9.5,58z"/>
	<path class="st106" d="M9.5,52.2c1,0.2,1.1,0.6,0.5,1.4C8.8,53.5,9.2,52.8,9.5,52.2z"/>
	<path class="st54" d="M8.6,42.9c-0.5,0.3-0.6,1.1-1.3,1.3c0.3-0.9,0.6-1.8,0.9-2.7c0.1-0.1,0.3-0.3,0.4-0.4
		C8.6,41.8,8.6,42.3,8.6,42.9z"/>
	<path class="st107" d="M18.9,39.8c-1.3,0.6-2,2.6-4.2,1.4c-1.1-0.6-0.9-1.1-0.7-1.9c0.6-0.7,1.2-1.5,1.8-2.2
		c0.5-1.9,1.4-1.6,2.4-0.4c0.5,0.6,0.8,1.4,0.7,2.2C18.8,39.2,18.8,39.5,18.9,39.8z"/>
	<path class="st108" d="M25,29.6c-1.1,0.4-1.3,1.2-0.9,2.2c0.2,0.2,0.2,0.5,0.4,0.8c0.6,1.4-2.4,1.1-1.3,2.9
		c0.9,1.3-0.4,2.3-0.8,3.4c-0.1,0.4-0.6,0.9,0,1.3c0.8,0.6,1.6,1.2,0.4,2.4c-0.4,0.4,0.5,0.9,0.9,1.2c-0.8,1.5-0.4,3,0,4.4
		c-0.4,0.5-0.8,1.3-1.5,1c-0.8-0.4-0.4-1.2-0.2-1.7c0.3-0.8,0-1.4-0.3-2.1c-0.9-1.6-1.6-3.3-1.9-5.1c0,0,0,0,0,0
		c1.8-1.3,2.4-2.5,0.9-4.8c-0.6-0.9-0.6-3.4,0.7-4.9c0.4-0.5,0.7-1.1,0.6-1.8c0.8-0.3,1.7-0.3,2.5-0.6C25.1,28.5,25.6,28.9,25,29.6z
		"/>
	<path class="st109" d="M24.2,28.3c-0.5,1.6-1.4,0.7-2.2,0.4c0-0.3,0-0.6,0-0.9c1.5-0.9,1.8-2.6,2.6-3.9c0.5-0.8,1.4-0.8,1.8-1.4
		c-0.2-0.2-0.7-0.4-0.4-0.9c0.6-0.8,1.2,0.2,1.8,0c-0.3,0.4-0.3,0.9,0,1.3C27.2,25.2,26.7,27.5,24.2,28.3z"/>
	<path class="st110" d="M25.9,21.7c0.1,0.3,0.3,0.6,0.4,0.9c-0.8,0.1-1.4-1-2.5-0.1c-0.7,0.5-0.7-1-1-1.6c0.5-0.7,1.2-0.4,1.8-0.4
		C25.6,20.3,25.3,21.4,25.9,21.7z"/>
	<path class="st111" d="M24.2,28.3c0-0.2,0-0.6,0-0.6c2.5-0.6,2.6-3,3.5-4.7c0.3,2.6-1.7,4.4-2.2,6.6c-0.1,0-0.3,0-0.4,0
		C25,29,24.7,28.6,24.2,28.3z"/>
	<path class="st112" d="M23.7,58c0.4,0.7,1.4,1.4-0.3,2.1c-1.1,0.4-2.2,1.4-1.6,3.1c0.3,0.9-1.3,0.9-1,2.1c0.8-0.5,1.7-1.2,2.5-0.2
		c0.6,1.4,0,2.2-1.5,2.1c0.3,1.2,2.7,1,1.5,2.8c-0.1,0-0.3,0-0.4,0c-0.4-0.6-1-1.4-1.6-0.4c-0.7,1.1-1.5,0.4-2,0.3
		c-1-0.3-0.7-0.8,0-1.3c0,0-0.2-0.4-0.3-0.5c-0.9-0.9-2.3-1.6-0.9-3.1c0.1-0.1-0.3-0.5-0.4-0.7C17,63.7,17,63,17.3,62.4
		c0.2-0.5,0.9-0.9-0.2-1.3c-0.3-0.1-0.3-0.7-0.2-0.8c1.7-0.9,0.3-2.1,0.3-3.1c-0.1-0.8-0.1-1.5,0.8-1.8c1.5-0.1,1.6,1.2,2.3,2.1
		c0.1-1.5,0.7-2.3,2.2-1.4C23,56.7,22.4,58,23.7,58z"/>
	<path class="st89" d="M13.5,53.1c-1.4-1.5-3.8-2.4-3.4-5c0.1-0.9,0.1-2.6,2-2c0.4,0.1,0.8,0.2,0.9-0.2c0.2-2.9,4-2,4.7-4.4
		c0.1-0.4,0.8,0.5,1.2,0.9c0,1.1-0.8,1.3-1.7,1.5c1,0.5,1.7,1,1.4,2.2c-0.8,2.5-1.8,4.8-3.2,7C14.7,53.1,14.1,53.1,13.5,53.1z"/>
	<path class="st113" d="M15.3,53.1c-0.6-1.4,0.7-2.1,1.1-3.1c0.4-0.9,1.5-1.5,0.5-2.7c-0.2-0.2-0.2-0.5,0-0.8
		c1.3-1.6,1.2-1.6-0.5-2.6c0.7-0.7,1.8-0.6,2.3-1.5c0.1,0,0.3,0,0.4,0c0.4,0.4,0.6,0.9,0.5,1.4c-0.3,1.2,0.2,1.9,1.4,2.3
		c0.6,0.2,0.8,1,0.3,1.2c-2.7,1-2.3,3.5-2.9,5.5c0,0.3,0,0.6,0.1,0.9c0.3,0.7,0.6,1.4-0.2,2.1c-1,0.1-0.9,0.7-0.6,1.4
		c0.3,0.7,0.9,2,0.7,2.1c-1.8,1.4-0.1,3.4-1,4.9c-1.6,0.3-2.7-1.7-2.5-4c0.1-1.7,1.5-3.1,0.7-4.9c-0.7-0.5-0.2-1.2-0.4-1.8
		C15.3,53.4,15.3,53.3,15.3,53.1z"/>
	<path class="st114" d="M16.3,65.9c-2.2-0.3-1.9-2.2-3-3c-0.2-0.2,0.2-0.7,0.5-0.8c0.5-0.2,0.8,0,1,0.5
		C15.2,63.6,15.3,64.7,16.3,65.9z"/>
	<path class="st89" d="M15.3,53.6c0.6,0.5,0.4,1.2,0.4,1.8c-0.7,0.2-1,1.2-2,1.2C13.7,55.2,14.5,54.4,15.3,53.6z"/>
	<path class="st94" d="M13.1,57.1c0.6,0.3,1.1,0.7,0.6,1.6C12.8,58.4,13.2,57.6,13.1,57.1C13.1,57.1,13.1,57.1,13.1,57.1z"/>
	<path class="st115" d="M23.2,70c0.2-1.1-0.5-1.3-1.4-1.5c-0.6-0.1-1.2-0.6-1-1.2c0.1-0.4,0.9-1,1.1-0.9c1.7,0.8,1-0.8,1.4-1.3
		c0.5,2,1.2,3.9,2.3,5.6c0.4,0.5-0.4,0.6-0.5,1c-0.4-0.2-0.9-0.3-1.3-0.5C23.6,70.9,23.4,70.4,23.2,70z"/>
	<path class="st72" d="M17.1,72.2c0.3,0,0.9-0.1,1,0.2c0.1,0.6-0.5,0.6-1,0.6C17.1,72.8,17.1,72.5,17.1,72.2z"/>
	<path class="st115" d="M25.9,72.2c0.9-0.4,1.2,0.1,1.3,0.9C26.8,72.8,26.4,72.5,25.9,72.2z"/>
	<path class="st89" d="M18,53.1c0.2-1.3,0.2-2.6,0.6-3.8c0.4-1.2,1-2.5,3.1-2.4c-3.9-0.2-2.2-2.8-2.4-4.5c0.8-0.6-0.4-1.6,0.4-2.2
		c1.7,2.2,3,6.7,2.4,8.5c0.8,0.6,0.7-1.5,1.6-0.5c0,0,0,0,0,0c0.1,1,1,2,0.5,3.1c0.1,0.1,0.3,0.3,0.4,0.4c1.1,1.9-0.6,3.2-0.9,4.9
		c-0.7,0.4-0.1,0.9,0,1.3c-2,0.6-1.2-1-1.3-1.8c0-0.1,0-0.2,0.1-0.3c0.4-1.1,1-2.2,0.4-3.4c-0.3-0.6-0.7-1.5-1.5-1.5
		c-0.7,0-1.5,0.7-1.6,1.3C19.6,53.9,18.9,53.6,18,53.1z"/>
	<path class="st116" d="M27.8,46.9c-0.4,0.9-1.6,1.5-0.5,2.6c0.5,0.5-0.2,0.9-0.5,1.2c-0.3,0.4-0.7,0.5-1.2,0.2
		c-0.5-0.3-0.8-0.7-0.7-1.3C25.3,48.2,26.2,47.3,27.8,46.9z"/>
	<path class="st112" d="M23.7,56.7c-0.2-1.7,1.3-3.1,0.9-4.9C26.5,53.8,24.5,55.1,23.7,56.7z"/>
	<path class="st108" d="M24.2,51.4c-0.2-1-0.3-2.1-0.5-3.1C24.2,49.2,25.1,50.2,24.2,51.4z"/>
	<path class="st111" d="M22.4,39c-0.2-0.5-0.6-1-0.1-1.4c1.1-0.9,1-1.6-0.2-2.4c-0.9-0.6,0-0.9,0.5-1c1.2-0.3,1.7-1,1.5-2.2
		c1.4,0.8,0.9,1.6-0.1,2.4c0.5,0.6,1.9-0.1,1.8,1.3C25.8,36.3,23.2,38.9,22.4,39z"/>
	<path class="st117" d="M15.6,40.3c0.1-1.2,0.7-1.6,1.4-1.6c0.4,0,0.5,0.3,0.4,0.6C17.1,40.1,16.3,39.9,15.6,40.3z"/>
	<path class="st118" d="M18.4,55.8c0.2-0.7,0.2-1.3-0.4-1.8c1.8-1,3,0.6,4.5,1.1c0.4,0.1,0.2,0.8-0.1,1.1c0,0,0,0,0,0
		c-0.9,0-2.1-0.3-1.3,1.4c0.2,0.4,0.3,0.9-0.3,1.1c-0.5,0.2-0.8-0.2-1-0.6C19.2,57.4,19.4,56.2,18.4,55.8z"/>
	<path class="st119" d="M22.4,56.2c-1.1-1.5-2.7-2-4.4-2.2c0-0.3,0-0.6,0-0.9c1.4,0.4,0.8-1.2,1.1-1.3c1.2-0.3,1.5-1.3,2-2.1
		C24.2,52.9,24.4,54.4,22.4,56.2z"/>
</g>
</svg>
