<?xml version="1.0" encoding="utf-8"?>
<!-- Generator: Adobe Illustrator 25.0.0, SVG Export Plug-In . SVG Version: 6.00 Build 0)  -->
<svg version="1.1" id="Layer_1" xmlns="http://www.w3.org/2000/svg" xmlns:xlink="http://www.w3.org/1999/xlink" x="0px" y="0px"
	 width="105.5px" height="129px" viewBox="0 0 105.5 129" enable-background="new 0 0 105.5 129" xml:space="preserve">
<g>
	<path fill="#27316D" d="M16.9,18.6c0.1-0.1,0.2-0.2,0.2-0.2c0.4-0.2,0.6,0.1,0.9,0.3c0.7,0.6,1.4,0.3,2.1-0.1
		c0.6-0.4,0.5-0.9,0.2-1.4c-0.2-0.4-0.8-0.5-0.7-1.1c0.1-0.1,0.2-0.2,0.3-0.2c0.4-0.1,0.7,0.1,1,0.3c0.6,0.3,1.2,0.4,1.7-0.1
		c0.5-0.5,0.6-1.2,0.3-1.8c-0.1-0.2-0.3-0.4-0.2-0.8c0-0.2,0.2-0.2,0.4-0.3c0.2-0.1,0.3,0,0.4,0.1c1.2,0.8,1.9,0.5,2.1-0.9
		c0.1-0.4,0-0.7,0.1-1.1c0.2-0.2,0.5-0.3,0.7-0.5c0.6,0,1.3,0.1,1.8-0.5c0.4-0.3,0-0.5,0-0.8c0.5-0.7,1.2-1.1,2.1-1.1
		c0.5-0.3,1.1-0.5,1.6-0.8c0.9-1,2.2-1.2,3.4-1.4c4.3-1.4,8.6-2.6,13.2-2.9c6.5-0.6,12.8,0.1,18.9,2c0.3,0.1,0.6,0.2,0.9,0.2
		c0.2,0.1,0.4,0,0.7,0c0.2,0.1,0.4,0.2,0.5,0.5c0,0.4-0.3,0.8-0.2,1.3c0.1,0.6,0.5,1.1,1.1,1.3C71,8.7,71.6,8.5,72,8
		c0.2-0.3,0.3-0.7,0.8-0.8c0.4-0.1,0.7,0.1,0.9,0.4c4.4,2.2,8.7,4.8,12.3,8.2c14.2,13.7,19.5,30.3,14.4,49.4
		C95.3,84.3,82.3,96,63.1,100.7c-2.3,0.6-4.7,0.9-7.1,0.9c-0.9-0.3-1.9,0-2.8,0c-1.2,0-2.4-0.3-3.7,0c-6.1-0.3-11.9-1.9-17.5-4.4
		c-1.9-0.9-3.8-1.8-5.5-3.1c0.9-0.7,1.3-1.8,2.3-2.5c0.5,0,0.9,0.3,1.3,0.5c7,4,14.5,6,22.6,6c7.1,0,13.8-1.6,20.2-4.7
		c0.4-0.2,0.8-0.4,1.2-0.5c0.4-0.1,0.7-0.3,1-0.5c10.4-6,17.7-14.7,21.4-26.2c1.4-4.2,2.2-8.4,2-12.8c-0.1-2.1,0.2-4.2-0.2-6.2
		c-0.1-0.5,0-1-0.2-1.4c-1.4-8.8-4.9-16.6-10.7-23.4c-4-4.6-8.8-8.1-14.1-11c-0.8-0.4-1.7-0.7-2.5-1.1c-0.2-0.1-0.4-0.2-0.6-0.3
		c-0.5-0.3-1.1-0.3-1.4-0.8c-0.3-0.9-0.9-1.5-1.7-2c-0.4,0.5,0.8,1.1-0.2,1.4c-0.5,0.1-1,0-1.4-0.2c-4.4-1.3-8.8-2-13.3-1.8
		c-10.8,0.4-20.6,3.8-28.9,10.9c-4.9,4.1-8.7,9.1-11.6,14.8c-0.1,0.2-0.2,0.4-0.3,0.7c-0.1,0.3-0.2,0.6-0.4,0.8
		c-2.1,4.6-3.2,9.4-3.8,14.4c0,0.2,0,0.4,0,0.6c0.1,1.6-0.4,3.1,0,4.7C7,57.1,7.7,60.8,8.7,64.5c0.1,0.7,0.4,1.3,0.5,2
		c0,0.2,0,0.4-0.1,0.5c-1.4,0.8-1.5,1-0.9,2.9c0,0.1-0.1,0.2-0.1,0.3c-0.5,0.1-0.9-0.1-1.4-0.2c-0.4-0.2-0.4-0.6-0.6-1
		c-0.2-0.4,0-0.9-0.2-1.3c-1.1-4-2.1-8.1-2.3-12.3c-0.7-12.8,3-24.2,11-34.2c0.7-0.1,0.8,0.6,1.2,0.9c0-1.6,0.6-2.1,2.3-2
		C17.7,19.6,16.7,19.5,16.9,18.6z"/>
	<path fill="#27316D" d="M22.9,91.8c-3.9-3.2-7.5-6.7-10.4-10.8c-1.8-2.7-3.5-5.4-4.7-8.4C8,71.8,8,71,8,70.2l0,0
		c0.7-0.4,1.4,0,2.1-0.2c0.5,0.1,0.6,0.6,0.8,0.9c2.2,4.9,5.1,9.2,8.7,13.1c1.6,1.7,3.4,3.2,5.2,4.6c0.4,0.3,0.9,0.6,1.1,1.1
		c-0.6,1.4-0.6,1.4-2.2,0.7c0.4,0.8,1,1.2,1.5,1.7c0.3,0.3,0.8,0.7,0.5,1.3c0,0-0.1,0-0.1,0c0,0-0.1,0-0.1,0c-0.5-0.3-1.1-0.7-1.6-1
		C23.4,92.4,23,92.3,22.9,91.8z"/>
	<path fill="#283779" d="M25.5,93.5c0.3-0.7-0.4-0.8-0.7-1.2c-0.4-0.5-0.9-0.9-1.3-1.3c-0.3-0.3-0.1-0.6,0.1-0.8
		c0.2-0.2,0.5-0.2,0.6,0c0.7,1.1,1.1,0.4,1.6-0.3c1.2,0.3,2.2,0.8,2.9,1.9c-0.5,1-0.9,2-2.1,2.3C26.1,94,25.7,93.8,25.5,93.5z"/>
	<path fill="#E6E9F6" d="M30.1,7.7C30,7.7,30,7.7,30.1,7.7c-0.5,0.1-0.9,0.2-1.3,0.3c-0.3,0.4-0.6,0.7-1,0.9
		c-0.1,0.1-0.2,0.2-0.3,0.4c-0.3,0.2-0.7,0.4-0.5,1c0.7,0.1,1.1-0.2,1.4-0.7c0.7-0.4,1.3-0.8,2-1.2C30.1,8.1,30,7.9,30.1,7.7z"/>
	<path fill="#E4E9F6" d="M34.6,5.8c-0.6,0.5-0.7,0-0.9-0.4c-0.2,0.1-0.4,0.1-0.6,0.2c-0.2,0.4-0.5,0.7-0.8,1
		c-0.1,0.1-0.2,0.3-0.4,0.4C31.4,7.3,32,7.4,32,7.5c1.1-0.5,2.3-0.9,3.4-1.4C35,6.3,35,5.4,34.6,5.8z"/>
	<path fill="#28377A" d="M16.9,18.6c0.3,0.5,0.8,0.9,1.3,1.1c0.3,0.1,0.6,0.3,0.4,0.7c-0.2,0.4-0.5,0.2-0.7,0.2
		c-1.5-0.2-1.8,0.1-1.6,1.6c0,0.3,0,0.5-0.3,0.6c-0.3,0.1-0.5,0-0.6-0.4c-0.2-0.5-0.4-0.9-0.9-1.2C15.2,20.3,16,19.4,16.9,18.6z"/>
	<path fill="#283779" d="M19.5,16c0.1,0.3,0.4,0.4,0.6,0.6c0.8,0.6,1.1,1.3,0.4,2.1c-0.6,0.7-2,0.9-2.6,0.4
		c-0.3-0.2-0.5-0.5-0.8-0.7c0.2-0.2,0.5-0.5,0.7-0.7c0.4-0.1,0.8,0.4,1.3,0.2c0.2-0.5-0.4-0.7-0.3-1.2C19,16.4,19.3,16.2,19.5,16z"
		/>
	<path fill="#EBF0F9" d="M7.5,72.1c-1.4-0.4-1.4-0.4-0.6-1.5c0-0.1,0-0.2,0-0.2C7,70.2,6.9,70,6.7,70c-0.2-0.3-0.3-0.7-0.5-1
		c-0.5,0-0.7,0.4-0.9,0.7c0.3,0.6-0.2,0.5-0.5,0.5c-0.1,0.1-0.2,0.2-0.2,0.3c0.5,0.9,0.9,1.8,1.2,2.8c0.3,0.1,0.6,0,1-0.2
		c0.3-0.2,0.5-0.4,0.8-0.5C7.6,72.4,7.6,72.2,7.5,72.1z"/>
	<path fill="#283779" d="M22.6,13.3c0.7,0.6,0.9,1.4,0.6,2.2c-0.3,0.7-0.9,1.1-1.7,1.1c-0.7,0-1.2-0.6-1.8-0.9
		c0.2-0.2,0.4-0.3,0.6-0.5c0.1,0,0.2-0.1,0.3-0.1c1,0.3,1.3-0.3,1.2-1.2C22.1,13.7,22.4,13.5,22.6,13.3z"/>
	<path fill="#E8ECF7" d="M72.4,5.8c-1.1-0.2-2.2-0.4-3.2-0.7c0,0,0,0.1,0,0.1c-0.1,0.2-0.4,0.2-0.2,0.5c0.2,0.1,0.3,0.2,0.5,0.3
		c0.1,0.2,0.3,0.3,0.5,0.4c0.6,0.3,1.2,0.5,1.8,0.7c0.3,0.1,0.5,0.2,0.8,0c0-0.1,0-0.1,0-0.2C72.8,6.4,72.7,6.1,72.4,5.8z"/>
	<path fill="#28387A" d="M25.7,11.1c0.2,0.3,0.3,0.7,0.2,1c-0.1,0.9-0.5,1.7-1.3,2c-0.9,0.3-1-0.8-1.6-1.1c0.3-0.2,0.5-0.4,0.8-0.6
		c0.5,0.1,1,0.2,0.9-0.6C25,11.6,25.4,11.4,25.7,11.1z"/>
	<path fill="#283678" d="M6.8,70.4c0-0.1,0-0.3-0.1-0.4c0.5-0.4,0.9,0,1.3,0.2c0.5,0.8,0.6,1.6-0.2,2.3c-0.1,0-0.1,0-0.2,0
		c0-0.1-0.1-0.3-0.1-0.4C6.8,71.7,6.9,71,6.8,70.4z"/>
	<path fill="#232963" d="M49.5,101.6c1.8-0.5,3.6-0.1,5.4-0.2c0.4,0,0.8-0.1,1.1,0.2C53.8,101.9,51.7,101.9,49.5,101.6z"/>
	<path fill="#263A7D" d="M26.9,10.2c0.5-0.2,1-0.5,1.4-0.7c0,0.3,0.7,0.1,0.4,0.5c-0.4,0.6-0.8,1.2-1.7,1c-0.2,0-0.4-0.2-0.6-0.4
		C26.6,10.5,26.8,10.4,26.9,10.2z"/>
	<path fill="#27326E" d="M18.8,16.7c0.4,0.4,1.3,0.8,0.7,1.4c-0.6,0.7-1.2-0.1-1.7-0.5C18.1,17.2,18.4,16.9,18.8,16.7z"/>
	<path fill="#28316E" d="M21.9,14c0.1,0.2,0.3,0.4,0.4,0.6c0.2,0.3,0.2,0.7-0.1,1c-0.3,0.3-0.6,0.1-0.9-0.1
		c-0.3-0.2-0.6-0.2-0.9-0.2C20.8,14.7,21.3,14.3,21.9,14z"/>
	<path fill="#E4E8F5" d="M6.3,69c-0.3,0.3-0.5,0.6-0.9,0.7c-0.3-0.8,0.5-1.3,0.5-2C6.1,68.1,6.2,68.6,6.3,69z"/>
	<path fill="#283270" d="M24.7,11.8c0.6,0.3,0.5,0.7,0.1,1c-0.5,0.5-0.7-0.1-1-0.4C24.1,12.2,24.4,12,24.7,11.8z"/>
	<path fill="#E4E8F5" d="M72.7,7.1c0.5-0.2,1-0.2,1.5,0c-0.2,0.2-0.3,0.3-0.5,0.5c-0.3-0.1-0.6-0.2-0.9-0.3c-0.1,0-0.1,0-0.1-0.1
		C72.7,7.1,72.7,7.1,72.7,7.1z"/>
	<path fill="#E4E8F5" d="M69.2,5.2c0.2,0.3-0.2,0.3-0.2,0.5c-0.2,0-0.4,0-0.5-0.2C68.6,5.2,68.8,4.8,69.2,5.2z"/>
	<path fill="#ADBAC9" d="M11.1,32.8c0-0.2,0-0.4,0.2-0.5c1.3-2,2.6-4,4.2-5.8c5.9-6.8,13.2-11.7,21.8-14.4
		c5.1-1.6,10.3-2.4,15.6-2.3c2.9,0.1,5.9,0.3,8.8,1c0.3,0.1,0.7,0.2,1.1,0.2c1,0.3,2.1,0.2,2.9,1.1c-0.1,1.1-0.8,0.8-1.5,0.6
		c0.3,0.6,0.4,1.2,0.9,1.9c0.2-1.1,0.4-2.1,1.6-2.4c0.5,0,0.9,0.2,1.4,0.3c0.4,0.1,0.7,0.3,1.1,0.4C83.2,18.5,92.9,28.5,97.8,43
		c0.3,0.9,0.2,1.8,0.7,2.6c0.3,0.5,0.2,1,0.2,1.5c-0.4,3.4-1.7,6.5-3,9.6c-1.7,3.8-3.9,7.3-6.5,10.5c-0.3,0.4-0.7,0.7-1,1.1
		c-0.1,0.2-0.3,0.3-0.4,0.5c-1.3,1.3-2.6,2.6-3.8,3.8c-0.4,0.4-0.7,0.7-1.2,0.9c-0.2,0-0.5,0-0.7-0.1c-0.2-0.2-0.4-0.4-0.6-0.6
		c-0.1-0.1-0.1-0.2-0.2-0.3c-1.2-1.2-3-1.5-4.3-0.7c-1.5,0.8-2,2.2-1.4,4.1c0.2,0.7,1.1,1,1.2,1.8c0,0.1-0.1,0.2-0.2,0.3
		c-3,2.1-6.4,3.4-9.8,4.6c-0.9,0.3-1.7,0.6-2.6,0.8c-1.3,0.3-1.6,0.1-1.8-1.3c0.1-4.9-3.7-9.3-8.7-10c-4.3-0.6-7.8,0.8-10.8,3.8
		c-0.2,0.1-0.4,0.3-0.6,0.3c-0.5-0.4-0.5-0.4-0.7-1.1c0.1,0.2,0.1,0.5,0,0.7c-0.1,0.9-0.5,1-1.2,0.5c-0.5-0.4-0.8-1.1-1.7-0.9
		c-0.2,0.1-0.4,0.2-0.4,0.4c-0.7,1.8-2,3.1-3.4,4.4c-0.3,0.3-0.5,0.4-0.9,0.3c-0.5-0.1-1-0.2-1.5,0.1c-0.5,0.2-0.9-0.1-1.4-0.3
		c-6.3-3.1-11.7-7.3-16.3-12.7c-0.8-1,0-1.5,0.4-2.2c0.5-1.6,0-2.3-2-2.6c-0.4,0-0.7,0.3-1.1,0.3c-0.7-0.1-0.9-0.6-1.2-1.1
		c-1.6-2.8-3.2-5.6-4-8.7c-0.3-1.6,0-3.2,0-4.8c0.1-0.6,0.6-0.8,1.1-0.8c1.1-0.1,2.2-0.5,3.1-1c0.6-0.4,1.2-0.7,1.6-1.3
		c1.2-1.5,2.1-3.2,2.2-5.2c0.2-2.9-0.9-5.1-3.1-6.9C11.5,33.1,11.2,33,11.1,32.8z"/>
	<path fill="#7E8EAF" d="M15.4,65.6c-1.3,1.1-0.4,1.8,0.4,2.7c4.3,5,9.5,8.8,15.4,11.8c0.4,0.2,0.8,0.5,1.3,0.5c1,0.1,1.8,0.6,2.7,1
		c0.1,0.1,0.3,0.2,0.4,0.3c0.8,1.2,1,1.3,2.7,0.8c0.9,0.2,1.2-0.3,1.5-1c1-2.2,2.7-4,4.8-5.2c5.3-3.1,12.5-2,16.6,2.6
		c0.8,0.9,1.4,2,1.7,3.2c-0.1,1,0.1,1.3,1.3,1c4.5-1.2,8.7-3,12.7-5.3c0.6,0.3,0.4,0.7,0.1,1.1c-1,1.1-1.7,2.5-3.6,2.5
		c-0.8,0-1.1,0.9-1.3,1.5c-0.4,1.2-1.2,2-2.3,2.4c-0.9,0.4-1.5,1-1.7,2c-0.2,0.9-0.7,1.4-1.5,1.7c-1.6,0.7-2.1,1.8-1.5,3.4
		c0.2,0.7,0.7,1.3,0.9,2c0.2,0.6,0.8,0.2,1.1,0.4c0.1,0,0.2,0.1,0.3,0.1c0.8,0.3,1.5,0.2,2.1-0.4c0.4-0.4,0.9-0.7,1.5-0.8
		c0.1,0,0.2,0.2,0.3-0.1c1.1-2.4,3-4.1,4.9-5.7c1.7-1.5,3-3.4,4.7-4.9c0.2-0.1,0.3-0.3,0.3-0.5c-0.3-1.2,0.5-1.1,1.3-1.4
		c1-0.3,1.7-1.2,2.5-2c1.9-1.8,3.6-3.8,5.5-5.6c1.3-1.2,2.8-2.2,3.5-3.9c0.2-0.5,0.2-1-0.2-1.3c-0.7-0.6-0.9-2-2.3-1.4
		c-0.6,0.1-0.5,0.6-0.5,1c0,0.3,0,0.7-0.4,0.8c-0.4,0.2-0.7-0.1-0.9-0.3c-0.3-0.3-0.8-0.6-0.6-1.2c1.4-2.1,3-4,4.2-6.2
		c2.3-4.1,4.1-8.3,5.2-12.8c0.1-0.4,0.2-0.8,0.4-1.1c0.5,3.2,0.5,6.4,0.2,9.6c-0.8,8.3-3.6,15.9-8.5,22.7c-4,5.6-9,10.1-15.1,13.3
		c-0.6-0.5-0.6,0.1-0.7,0.4c-3.5,1.7-7,3.2-10.8,4.1c-12,2.7-23.4,1.2-34.1-5c-0.3-0.2-0.6-0.3-0.9-0.5c-1-0.6-1.9-1.3-2.9-1.9
		c-4.7-3.6-8.8-7.8-12-12.8c-1.4-2.2-2.5-4.6-3.6-6.9c-0.4-0.3-0.5-0.7-0.7-1.1c-0.2-0.4-0.4-0.9-0.5-1.4c-0.1-0.2,0-0.4,0-0.6
		c0-0.2,0-0.3,0-0.5c0.5-0.2,0.8,0.2,1.1,0.5c0.4,0.4,0.7,0.9,1.3,1c0.2-0.4-0.6-1,0.2-1.3c0.5-0.1,1,0.1,1.5-0.2
		c-0.9-0.3-1.9-0.2-2.1-1.4c-0.2,0.3-0.1,0.9-0.5,1c-0.4,0.1-0.7-0.2-1.1-0.4c-0.5-0.3-0.6-0.9-1.1-1.2C7.3,61,6.7,57.3,6.8,53.4
		c0.7,1.5,1.4,3.1,2.2,4.6c0.8,1.6,1.6,3.1,2.6,4.6c0.1,0.2,0.3,0.4,0.5,0.4c0.4-0.2,0.9-0.2,1.4-0.2C15,63.2,15.3,63.7,15.4,65.6z"
		/>
	<path fill="#EAEDEF" d="M61.7,10.9C58.2,10.4,54.6,9.8,51,10c-10.6,0.4-20.1,3.7-28.5,10.2c-4.2,3.3-7.8,7.2-10.7,11.8
		c-0.1,0.2-0.2,0.5-0.5,0.2c5.7-11.6,14.8-19.5,27-23.7C47,5.6,55.9,5.4,64.8,7.8C65.1,7.8,65.3,8,65.6,8c0.1,0.6-0.3,1-0.9,1.2
		c-1,0.3-1.8,0.7-2.3,1.6C62.3,11.2,62,11.1,61.7,10.9z"/>
	<path fill="#EAEDEF" d="M98.5,45.7c-0.4,0.7-0.3-0.1-0.3-0.1c-1.4-5.4-3.7-10.4-6.9-14.9c-5.6-8-12.9-13.8-21.9-17.3
		c-0.1-0.1-0.3-0.1-0.4-0.2c0.5-1.1,0.9-2.2,2.2-2.6c0.2,0,0-0.2,0,0c0,0.1,0,0.1-0.1,0.1c-0.3-0.1-0.6-0.2-0.4-0.6c0,0,0.1,0,0.1,0
		c0,0,0.1,0,0.1,0c5.4,2.1,10.1,5.3,14.2,9.3c7.2,7,11.6,15.6,13.4,25.5C98.5,45.1,98.5,45.4,98.5,45.7z"/>
	<path fill="#7E8EAF" d="M11.3,46.9c-1,0.7-2.2,1.1-3.4,1.2c-0.5,0-0.9,0.1-1.1,0.5c0.5-5.3,1.6-10.4,4-15.2c1,0.1,1.5,0.9,2,1.6
		c2.2,3,2.5,7.2,0,10.4C12.4,46,11.7,46.3,11.3,46.9z"/>
	<path fill="#5E709B" d="M12.5,45.5c2.4-3.5,2.5-8.6-1.7-12.1c0-0.2,0-0.5,0.3-0.6c1.3,0.2,1.9,1.2,2.6,2.1
		c2.4,3.3,1.9,7.9-0.9,10.8C12.6,45.8,12.5,45.7,12.5,45.5z"/>
	<path fill="#E6E8EB" d="M70.9,9.9c0.6,0.6-0.1,0.8-0.4,1.1c-0.6,0.6-0.7,1.6-1.6,2c-0.4,0-0.7-0.2-1-0.4c-1.1-0.7-2.3-1.1-3.4-1.7
		c-0.8-0.4-1.3,0.1-1.9,0.3c-0.3,0-0.7,0.1-1-0.2c0.7,0.1,0.1-0.5,0.2-0.5c0.9-0.1,1.2-1.3,2.1-1.3c0.8,0,1.1-0.5,1.5-1
		c0.5,0.1,0.9,0.2,1.4,0.3c0.1,0,0.2,0.1,0.2,0.2c-0.6,1.2-0.5,1.9,0.5,2.4c0.8,0.4,1.4,0.2,2.2-0.8c0.2-0.3,0.4-0.4,0.7-0.4
		C70.5,9.8,70.7,9.9,70.9,9.9z"/>
	<path fill="#8695B4" d="M8.4,64.7c0.6-0.1,0.7,0.5,1,0.8c0.3,0.3,0.7,0.6,1.1,0.7c0-0.1,0.1-0.2,0.1-0.3c0.1-0.4-0.3-1.2,0.3-1.2
		c0.7-0.1,0.3,0.6,0.4,1c0.2,0.5,0.6,0.6,1,0.7c0.4,0.1,0.9,0.1,1.4,0.2c-0.5,1.2-1.4,0.9-2.3,0.6c-0.1,0.4,0.1,0.5,0.2,0.6
		c0.2,0.2,0.6,0.4,0.2,0.8c-0.3,0.4-0.6,0.3-0.9,0.1c-0.4-0.3-0.9-0.7-1.2-1.1C9.6,67,9.3,66.7,9,66.6C8.7,66,8.4,65.4,8.4,64.7z"/>
	<path fill="#EAEDEF" d="M70.4,9.7c-0.4,0.2-0.3,0.6-0.5,0.9c-0.4,0.7-1.1,1-1.8,0.9c-0.9-0.1-1.6-0.7-1.8-1.5
		c-0.1-0.6-0.1-1.3,0.7-1.5c0.8-0.4,1.4-0.1,1.9,0.5C69.4,9.3,69.9,9.5,70.4,9.7z"/>
	<path fill="#28377A" d="M72.7,7.1c0,0.1,0.1,0.1,0.1,0.2c-0.1,0.1-0.2,0.2-0.3,0.4C72,8.8,71,9.2,70.1,8.7
		c-1.3-0.7-1.5-1.6-0.7-2.8c0.2,0,0.4,0,0.5,0.2c0.1,0.1,0.1,0.3,0.2,0.4c0.6,1.2,0.7,1.2,1.7,0.3c0.2,0.1,0.5,0.1,0.7,0.2
		C72.6,7.1,72.7,7.1,72.7,7.1z"/>
	<path fill="#283678" d="M9.7,68.9c0.2,0.4,0.3,0.8,0.5,1.2c-0.7,0.4-1.4,0.2-2.2,0c-0.4-0.9-0.9-1.8-0.2-2.8
		C8.1,67,8.4,66.7,9,67.1c0.1,0.2,0.1,0.3,0.2,0.5C9,68.1,8.2,69,9.7,68.9z"/>
	<path fill="#28387A" d="M68.9,9c-0.6-0.2-1.3-0.3-1.9-0.5c0-0.1-0.1-0.1-0.1-0.2c0.2-0.5-0.3-0.6-0.4-0.9c-0.1-0.2-0.2-0.4,0-0.5
		c0.1-0.2,0.3-0.2,0.5-0.2C67.6,6.7,68.9,8.3,68.9,9z"/>
	<path fill="#7D8DAD" d="M74.4,93.2c0-0.1-0.1-0.2-0.1-0.2c0.2-0.4-0.3-0.9,0.3-1.1c0.1,0,0.3,0.5,0.5,0.8
		C74.9,92.9,74.7,93,74.4,93.2z"/>
	<path fill="#27306B" d="M27.4,92c0,0.4-0.2,0.7-0.5,0.6c-0.5-0.2-0.9-0.5-1-1c-0.1-0.3,0.2-0.5,0.5-0.5
		C26.9,91.2,27.4,91.4,27.4,92z"/>
	<path fill="#DFE6F4" d="M6.8,70.4C7,71,7.3,71.5,7.5,72.1c-0.4,0.3-0.9,0.1-1.2-0.1c-0.3-0.2-0.7-0.5-0.6-0.9
		c0.1-0.4,0.5-0.4,0.9-0.3C6.7,70.8,6.8,70.6,6.8,70.4z"/>
	<path fill="#28316E" d="M71.8,6.9c0,0.6-0.2,1.2-0.9,1c-0.9-0.2-1.2-0.9-1-1.8C70.6,6.2,71.2,6.5,71.8,6.9z"/>
	<path fill="#7F8EAF" d="M46.4,55.4c-0.6,1.9-1.9,3.3-3.3,4.5c-4,3.4-9.8,4.1-14.2,0.9c-2.6-1.9-4.2-4.4-4.6-7.7
		c0.2-0.2,0.1-0.4,0.1-0.6c0-0.2,0-0.3,0.3-0.4c0.7,0.5,0.5,1.4,0.7,2.1c0,0.2,0.2,0,0,0c0,0-0.1,0,0-0.1c0-0.4,0.1-0.9,0.6-0.3
		c0.5,0.7,0.9,0.4,1.4,0c1.3-1.4,2.9-2.3,4.2-3.6c0.4-0.4,0.8-0.8,1.2-1.3c0.8-1,1.5-2.1,2.6-2.7c0.7-0.4,1.4-0.8,1.6-1.7
		c0-0.2,0.2-0.3,0.3-0.4c0.8-1,2.1-1.4,2.6-2.7c2.2,0.5,3.7,2,4.9,3.8c2.1,3,2.6,6.4,1.7,9.9C46.4,55.2,46.4,55.3,46.4,55.4z"/>
	<path fill="#7F8EAF" d="M89.8,48.3c2.5,3.7,1.8,8.5-1.6,10.6c-2.4,1.5-4.8,1.2-7.2-0.1c-1-0.6-2.1-1.1-2.5-2.3
		c-2.1-3.3-0.6-7.4,1.6-9.1c2.7-2.1,6.9-1.8,9.3,0.6C89.6,48.2,89.7,48.3,89.8,48.3z"/>
	<path fill="#ABB8C8" d="M83.1,38c0.3,1,0.4,1.8-0.8,2.3c-0.5,0.2-0.7,0.8-1,1.2c-0.7,0.8-1.6,1.4-2.6,2c0.6,0.2,1.3-0.3,1.8,0.2
		c-0.4,0.3-0.4,0.3-0.2,0.6c0,0.2,0,0.3-0.2,0.4c-1.3,0.7-2.2,1.8-3.1,2.9c-0.1,0.1-0.2,0.1-0.3,0.1c-0.1-0.3-1,0.7-0.7-0.4
		c0.1-0.4-0.4-0.2-0.6,0c-1,1.4-2.3,2.3-3.9,2.9c-0.3,0.1-0.5,0.4-0.5,0.7c-0.1,1-0.8,1.6-1.4,2.2c-2.1,2-4.1,4-6,6.1
		c-1.6,1.8-3.5,3.3-5.5,4.6c-0.2,0.2-0.6,0.7-0.9,0c-0.2-0.3-0.1-0.5,0-0.8c0.4-0.7,1.3-0.8,1.7-1.5c0.3-0.3,0.5-0.7,0.9-0.9
		c0.6,0.4,0.7-0.3,1.1-0.4c0,0-0.1,0.1-0.2,0.1c-0.1,0-0.2,0-0.3-0.1c0.3-0.7,0.7-1.2,1.5-1.5c0.2,0.2,0.2,0.3,0.1,0.4
		c0.1-0.6,0.4-1.2,0.9-1.7c0.6-0.5,1-1.3,1.3-2c0.4-0.1,1,0.5,1.1-0.3c0.3-0.4,0.6-0.8,0.9-1.3c0.4-0.7,0.3-1.3-0.2-1.8
		c-0.6-0.5-1.2-0.7-1.8-0.2c-0.5,0.4-0.9,0.4-1.4,0c-0.5-0.4-0.6,0-0.6,0.4c-0.3,0.6-0.5,1.1,0.5,1.2c0.2,0,0.6,0.2,0.4,0.5
		c-0.8,0.3-1.6,0.6-2.3,1.1c-0.5,0.2-1,0.3-1.5,0.4c-0.6,0-1.1,0.1-0.9,0.8c-0.5,1.3-1,2.6-2.7,2.6c-0.8,0.3-0.8,0.9-0.5,1.5
		c0.4,0.7,0.7,1.4,1,2.1c0.1,0.3,0.5,0.7,0.1,1.1c0,0.2,0.6,0.6-0.1,0.4c-1.8-0.4-2.2-2.1-2.7-3.5c-0.3-0.9,0-2,1-2.6
		c0.4-0.2,0.8-0.4,1.2-0.6c0.4-0.2,0.9-0.5,0.7-1.1c-0.2-0.8,0.3-1.2,0.9-1.6c0.6-0.4,1.3-0.8,1.9-1.2c0.5-0.4,1.2-0.8,1.3-1.4
		c0.3-1.7,1.6-2.1,2.9-2.3c0.8-0.2,1.4-0.5,1.5-1.3c0.1-0.8,0.9-0.8,1.4-1.1c0.9-0.5,1.5-1,1.5-2.2c0-0.9,0.7-1.8,1.5-2.3
		c0.2-0.1,0.4-0.4,0.2-0.6c-0.1-0.2-0.4,0-0.5,0.1c-0.4,0.3-0.7,0.8-1.3,0.4c0.2-0.7,0.7-1.2,1.5-1.4c0.2,0.4,0.5,0.5,1,0.4
		c2.5-0.4,5.1-2.9,5.5-5.4c0-0.1,0-0.2,0.1-0.3c0.6-1.2,3.7-1.6,4.7-0.7c-0.5,0.3-0.7,0.7-0.7,1.3c0,0.3,0,0.7-0.3,0.8
		c-0.4,0.2-0.7-0.2-0.9-0.4c-0.3-0.3-0.6-0.7-1.1-0.7c0.8,1.1,1.8,2,2.9,2.9c-0.3-1,0-1.4,1-1.3C82.1,38.5,82.5,37.9,83.1,38z"/>
	<path fill="#7D8DAD" d="M91.2,66.8c0.3-0.8,1-0.7,1.3-0.2c0.3,0.4,0.7,0.8,1.1,1.2c1,1.2,0.3,3.5-1.2,4c-0.4,0.1-0.5,0.3-0.7,0.6
		c-0.7,1.3-2.2,2-3.1,3.1c-1.2,1.4-2.4,2.8-3.8,4c-1,0.9-1.9,2.4-3.8,2c0.8,0.8,0.3,1.4-0.3,1.9c-2.1,2-4,4.3-6.2,6.2
		c-1.2,1-2.1,2.3-3.1,3.5l-2.5,2.1c-0.6,0.2-1.3,0.4-1.8-0.2c0.7-0.6,0.3-1.5,0.6-2.1c0.4-0.8,1.1-0.8,1.9-0.8
		c-1.1-0.6-2.1-1.3-3.2-1.6c-0.7-0.2-1,0.1-0.8,0.8c0.2,0.6,0.6,1.1,0.9,1.7c0.4,0.7,0.7,1.4,0.5,2.1c-1.3,0-1.2,0-2-1.4
		c-0.7-1.1-0.9-2.2-0.6-3.6c0.2-0.8,0.6-0.9,1.1-1.1c1-0.3,1.9-0.6,2-2c0-0.8,0.8-1.5,1.7-1.9c1.1-0.4,2-1,2.3-2.3
		c0.3-1.2,1-1.9,2.4-1.8c1.1,0,2.8-2.1,2.7-3.1c0,0,0,0,0,0c0.2-0.3,0.1-0.9,0.8-0.6c0.4,0.2,0.4-0.3,0.5-0.5
		c0.2-0.8,0.7-1.5,1.1-2.3c0.5-1.2,1.5-1.7,2.7-1.7c0.1,0.2,0.3,0.4,0.4,0.5c0.4,0.5,0,0.9-0.3,1.3c-0.2,0.2-0.4,0.5-0.7,0.8
		c-1.4,0.7-1.6,1.2-1,2.5c0.4,0.3,0.8,0.2,1.2,0c0.2-0.1,0.4-0.2,0.7-0.2c0.4,0,0.7,0,0.9,0.4c0.1,0.3-0.1,0.6-0.3,0.8
		c-0.2,0.2-0.4,0.3-0.6,0.8c0.8,0,1-0.8,1.5-1.2c0.1-0.1,0.3-0.2,0.4-0.3c0.4-0.3,0.8-0.5,1-0.9c0.2-0.4,0.5-0.7,0.8-1
		c0.3-0.4,0.8-0.5,1.1-0.9c0.2-0.4,0.5-0.7,0.7-1c0.2-0.3,0.2-0.7,0.4-1c0.2-0.2,0.4-0.3,0.6-0.5c0.8-0.3,1.5-0.7,1.9-1.5
		c0.1-0.1,0.2-0.2,0.3-0.4c0.1-0.1,0.2-0.1,0.1-0.2c-0.3-1.4,0.4-1.6,1.6-1.5c0.1,0,0.2-0.1,0.3-0.2c-0.2-0.4-0.6-0.1-0.9-0.2
		C90.8,68.4,90.7,68,91.2,66.8z"/>
	<path fill="#7F8EAF" d="M62.9,21.5c0.3,2.9-1.9,5-4.1,5.5c-2.9,0.7-5.2-0.4-6.4-3.1c0-2.7,1.6-4.7,4.4-5.3
		C58.9,18.2,61.9,18.7,62.9,21.5z"/>
	<path fill="#7D8DAD" d="M39.7,41.6c-0.3,0.6,0.5,0.4,0.5,0.7c-1.2,0.8-2.6,1.3-3,3c-0.2,0.6-1,1-1.5,1.2c-1,0.4-1.6,1.3-2.1,2
		c-1.1,1.6-2.7,2.7-4.1,4.1c-0.7,0.7-1.6,1-2.1,1.9c-0.4,0.7-1.3,0.3-1.6-0.5c-0.2,0.1-0.1,0.3-0.1,0.5c0,0.2,0,0.4-0.1,0.6
		c-0.2-0.8-0.5-1.7-0.7-2.6c-0.2,0.3-0.3,0.5-0.4,0.8c0-0.2,0-0.3,0-0.5c-0.2-0.8-0.1-1.6-0.1-2.3c0.6-0.2,0.6,0.3,0.8,0.6
		c0.4,0.8,0.7,1.6,1.3,2.4c0.1-1.7,0.1-1.8,2.5-2.3c-1.3-0.6-2.5-1.2-3.7-1.7c-0.3-0.1-0.9-0.1-0.6-0.8c0.1-1.2,0.6-2.3,1.2-3.3
		c0.2-0.3,0.3-0.7,0.7-0.9c1.2-1.4,2.7-2.2,4.3-2.9c0.3-0.2,0.7-0.2,1-0.1c0.6,1.3,1.8,2.1,2.7,3.1c0.5,0.5,1,0.4,1.4-0.2
		c0.4-0.6,0.4-1.3,0.4-2.1c0-0.2,0.1-0.3,0.3-0.4c0.2-0.1,0.4,0,0.6,0.1c0.3,0.2,0.7,0.2,1,0c0.2-0.1,0.4-0.2,0.5-0.3
		c0.2-0.1,0.4-0.3,0.7-0.4C39.5,41.3,39.7,41.3,39.7,41.6z"/>
	<path fill="#5D6F9B" d="M62.7,82.2c-0.9-1.6-1.8-3.2-3.3-4.3c-4.7-3.4-9.7-4-14.9-1.2c-0.4,0-0.9,0.2-1.3,0.1
		c-0.4-0.1-0.9-0.2-0.7-0.8c5-5.9,14.6-5.5,18.6,0.7C62.2,78.3,62.8,80.1,62.7,82.2z"/>
	<path fill="#A9B6C6" d="M52.6,28c-0.1,1.8-1.2,3.1-2.8,3.7c-0.6,0.2-1,0.9-1.4,1.4c-1.4,1.7-2.9,3.4-4.5,4.9
		c-0.6,0.5-0.4,1.1-0.5,1.8c-0.6,0.2-0.9-0.2-1.1-0.6c-0.2-0.5,0.3-0.9,0.1-1.4c-0.1-1.5-0.5-1.9-1.8-1.6c-0.5,0.1-1,0.5-1.4-0.1
		c-0.3-0.5,0.1-0.9,0.4-1.3c0.1-0.1,0.1-0.2,0-0.2c-0.9,0.3-1.1,1.1-1.1,1.9c0,0.2-0.3,0.3-0.5,0.4c0.3-0.1,0.6-0.2,0.9-0.1
		c0.5,0.2,1,0.2,1.5,0c0.5-0.1,1.1-0.3,1.4,0.3c0.2,0.6-0.3,1-0.9,1.2c-0.6,0-1.2-0.4-1.9-0.1c-0.4,0-0.7,0.1-0.9-0.4
		c0.1-0.2,0.2-0.2,0.4-0.2c-0.1-0.1-0.2,0-0.3,0c-0.3,0.1-0.5,0.3-0.9,0.3c-0.4,0-0.8,0.1-1.1-0.3c0.9-0.5,1.3-1.3,1.6-2.2
		c0.5-1.5,1.5-2.6,3-3.2c1.3-0.5,2.2-1.6,3.3-2.3c0.3-0.2,0.5-0.7,1.1-0.5c0.2,0.1,0.4-0.1,0.3-0.3c-0.5-0.7,0.2-1.1,0.3-1.6
		c0.1-1,0.5-0.8,1-0.3c0.6-0.2,0.8,0.3,1.2,0.6c0.7,0.6,1.2,1.3,2,1.9c0.1-0.6-0.6-1.4,0.6-1.3c0.4,0.1,0.9,0.2,1.3-0.2
		C52.1,27.9,52.3,27.7,52.6,28z"/>
	<path fill="#28306E" d="M42.5,39c0.3,0.2,0.7,0.4,1,0.7c2.5,2.1,4.3,4.6,4.5,8c0,1.1,0,2.2,0,3.3c0,1.2-0.4,2.3-1,3.4
		c-0.4,0-0.4-0.2-0.4-0.5c-0.1-0.9,0.1-1.7,0.1-2.6c0-5.6-2.5-9.3-7.7-11.3c-0.1,0-0.2-0.1-0.3-0.2c-0.8-0.9-1.7-1.1-2.7-0.3
		c-3.8,0.5-6.9,2.2-9.5,4.9c-0.1,0-0.2,0-0.3-0.1c1.8-3.7,4.8-5.8,8.8-6.5c0.4-0.1,0.9-0.1,1.3-0.2c0.4,0,0.8,0,1.2,0
		c0.2-0.1,0.5-0.2,0.7,0c0.3,0.2,0.7,0.2,1,0.2c0.6-0.2,1.1,0.2,1.6,0.4c0.5,0,0.9,0.2,1.3,0.4C42.3,38.7,42.4,38.9,42.5,39z"/>
	<path fill="#28316F" d="M76.7,47.7c0.8-1.5,2-2.7,3.6-3.4c3.7-1,6.7-0.1,8.9,2.9c-0.5,0.4-0.9,0-1.3-0.2c-1-0.6-2.2-1-3.3-1.2
		c-3.9-0.7-7.1,2.3-7,6.5c0,0.8,0.1,1.6,0.3,2.4c0.1,0.3,0.4,0.7,0,1.1C75.8,53.2,75.7,50.6,76.7,47.7z"/>
	<path fill="#5D6F9A" d="M77.8,55.7c-0.2-1.6-0.8-3.1-0.6-4.8c0.7-5,5.6-7.2,10.3-4.4c0.5,0.3,0.9,0.8,1.6,0.7
		c0.4,0.3,0.5,0.8,0.7,1.2c-0.9-0.1-1.5-0.9-2.3-1.3c-3.6-1.8-8.8-0.2-9.6,4.9c-0.2,1.6,0.3,3,0.6,4.5
		C78.2,56.3,77.8,56.1,77.8,55.7z"/>
	<path fill="#7E8EAF" d="M81.7,72.8c-0.1,0.1-0.2,0.2-0.3,0.2c-2.1,0.3-2.4,2.1-3.1,3.6c-0.2,0.4-0.2,0.8-0.6,1.1
		c-0.2,0.1-0.3,0.5-0.5-0.2c-0.1-0.5-0.3,0.4-0.6,0.3c-0.3-0.7-1.1-1-1.4-1.7c0-2.9,1.5-4.4,4.3-4.5c0.9,0,1.5,0.4,2.2,0.9
		C81.7,72.7,81.7,72.7,81.7,72.8z"/>
	<path fill="#27316D" d="M51.9,22.6c-0.4-2.6,0.5-4.6,2.8-5.8c2.2-1.2,4.9-0.8,6.7,0.8c0.9,0.8,1.4,1.9,1.5,3.1
		c-0.5,0.1-0.6-0.3-0.8-0.6c-3.1-3.8-8.4-2.1-9.4,1.5C52.6,22.1,52.5,22.6,51.9,22.6z"/>
	<path fill="#ABB6C7" d="M39.9,81.7c-0.1,1.1-0.5,1.5-1.6,1.2c-0.1-0.1-0.1-0.2-0.1-0.3c0.1-0.3,0.2-0.5,0.2-0.8
		c0-0.9-0.4-1.5-1.2-1.7c-0.8-0.3-1.4,0.2-1.7,0.9c-0.1,0.3-0.2,0.5-0.4,0.7c-0.9-0.3-1.9-0.5-2.6-1.2c0-0.2-0.1-0.6,0.1-0.4
		c0.5,0.5,1.3-0.6,1.6,0.3c0.1-0.1,0.2-0.1,0.3-0.2c1.3-1.6,3-2.9,3.7-5c0-0.1,0.2-0.1,0.3,0c0.6,0.6,1.5,1,1.8,1.9
		c-0.1,0.3-0.2,0.5-0.6,0.5c-0.5-0.2-0.9-0.4-1.2,0.3c-0.2,0.6-0.3,1.2,0.2,1.8c0.4,0.4,0.9,0.5,1.2,0.9C40.2,81,40,81.4,39.9,81.7z
		"/>
	<path fill="#5D6F9A" d="M51.9,22.6c0.1-0.3,0.3-0.6,0.4-1c0.7-2.3,2.3-3.6,4.5-3.9c2.3-0.4,4.2,0.4,5.6,2.5
		c0.1,0.2,0.3,0.4,0.5,0.5c0,0.3,0,0.5,0,0.8c-0.6-0.6-1.1-1.3-1.7-1.8c-3.1-2.1-8.3-0.3-8.6,3.8c0,0.1-0.1,0.3-0.2,0.4
		C52.2,23.5,52.1,23,51.9,22.6z"/>
	<path fill="#B1BDCD" d="M59.8,60.8c0,0.5-0.3,0.7-0.7,1c-0.8,0.2-2,0-1.7,1.4c-0.1,0.2-0.2,0.5-0.2,0.7c-0.2,0-0.5,0-0.7,0
		c-0.5-1.1-0.9-2.2-1.5-3.2c-0.6-1-0.2-1.5,0.8-1.8C57.2,59.3,58.6,60,59.8,60.8z"/>
	<path fill="#7E8FAF" d="M69.4,41.6c-0.4,0.6-0.9,1-1.5,1.4c-0.6,0-1.2,0-1.8-0.5c-1-0.8-1.1-1.6-0.1-2.6c1.6-0.9,2.4-0.7,3.4,0.9
		C69.4,41.1,69.4,41.4,69.4,41.6z"/>
	<path fill="#8695B4" d="M24.5,48.6c1,0.7,2.3,1.1,3.4,1.7c0.2,0.1,0.5,0.1,0.7,0.3c0.3,0.1,0.7,0.2,0.6,0.6
		c-0.1,0.4-0.5,0.7-0.9,0.5c-0.3-0.1-0.7-0.3-1,0c-0.4,0.3-1,0.6-0.5,1.3c0.2,0.3,0.2,0.6-0.1,0.8c-0.3,0.2-0.6,0.1-0.7-0.2
		c-0.5-1.1-1.3-2-1.4-3.3c-0.2-0.1-0.1-0.3-0.2-0.5C24.3,49.4,24.2,48.9,24.5,48.6z"/>
	<path fill="#B1BDCD" d="M83.1,38c-0.7,0.6-1.3,1.1-2.2,0.5c-0.2,0.4,0,0.6,0.2,0.7c0.3,0.3,0.2,0.5-0.1,0.7
		c-0.3,0.2-0.5,0.2-0.7-0.1c-1-1-2-1.9-3-2.9c-0.3-0.3-0.1-0.6,0.1-0.8c0.3-0.3,0.5-0.1,0.7,0.1c0.4,0.5,0.8,1,1.3,1.6
		c0.6-0.9-0.3-2.3,1.3-2.3c-0.4,1.6-0.1,2,1.5,2.2C82.5,37.8,82.9,37.7,83.1,38z"/>
	<path fill="#B1BDCD" d="M52.6,28c-0.3,0-0.5,0.2-0.5,0.5c-0.5,0.2-1,0.2-1.4,0c-0.4,0-0.8,0-0.3,0.5c0.3,0.3,0.4,0.6,0.1,0.9
		c-0.4,0.4-0.6-0.1-0.9-0.3c-0.9-0.9-1.8-1.7-2.7-2.6c0-1,0.4-1.2,1.1-0.4c0.4,0.5,0.8,0.9,1.3,1.4c0.5-0.7,0-1.1,0.1-1.5
		c0-0.3,0.1-0.6,0.4-0.6c0.3,0,0.5,0.2,0.5,0.4c-0.3,1.5,0.9,1.2,1.7,1.4C52.1,27.8,52.4,27.7,52.6,28z"/>
	<path fill="#8695B4" d="M93.4,69.2c-0.7,0.6-1.4,0.6-2.3,0.1c0.2,0.8,1.3,1.5-0.1,1.8c-1.3-0.7-2.1-1.9-3.1-2.9
		c0.3-0.3,0.6-0.7,0.9-1c0.2,0.2,0.3,0.5,0.5,0.6c0.3,0.3,0.5,0.9,1,0.6c0.4-0.2,0.1-0.7,0.1-1.1c0-0.6,0.2-0.9,0.8-0.7
		c0,0.8-0.3,1.9,1.2,1.7C92.7,68.9,93.7,68.2,93.4,69.2z"/>
	<path fill="#7E8EAF" d="M82.6,73.6c1.7-1.6,3.4-3.2,5-4.8c0.2,0,0.5,0.1,0.6,0.3c0,0,0,0.1,0,0.1c-0.7,1.1-0.8,2.2-0.3,3.4
		c-0.1,0.1-0.2,0.1-0.3,0.2c-0.2,0-0.5-0.1-0.7-0.2c-1.3-0.5-2-0.1-2.2,1.3c0,0.2,0,0.3-0.1,0.5c-0.1,0.2-0.3,0.3-0.6,0.3
		c-0.4-0.1-0.7-0.1-1-0.2C82.7,74.3,82.3,74.1,82.6,73.6z"/>
	<path fill="#5E709B" d="M81.6,72.6c-1.8-0.8-3.5-0.8-5.1,0.5c-1,0.8-0.9,2-1.4,3.1c-0.7-2.1-0.1-3.8,1.7-4.7
		C78.6,70.6,80.5,71.1,81.6,72.6z"/>
	<path fill="#7E8FAF" d="M37.3,27.7c0.1,1-0.5,1.4-1.2,1.8c-0.7,0.3-1.3,0-1.8-0.5c-0.5-0.6-0.6-1.3-0.1-1.9
		C35.7,26.1,36.6,26.3,37.3,27.7z"/>
	<path fill="#66779F" d="M39.9,81.7c0-0.3,0-0.7,0-1c-0.1-0.3,0-0.7,0.1-1c0.2-0.6,0.4-1.1,0.7-1.7c0.4-0.7,0.7-1.4,1.4-1.8
		c0.1-0.1,0.3-0.2,0.4-0.3c0.3,1,1.4,0.2,1.9,0.8C42.5,78,41,79.7,39.9,81.7z"/>
	<path fill="#8695B4" d="M82.6,73.6c0.1,0.4,0.2,0.8,0.7,0.6c0.4-0.1,0.6,0.1,0.7,0.4c0.3,0.6,0.6,1.1,1.3,1.2
		c0.3,0.1,0.7,0.2,0.6,0.7c-0.2,0.3-0.5,0.6-0.7,1c-0.1,0.1-0.1,0.1-0.2,0.1c-1.1,0-3.3-1.8-3.4-3c0.2-0.4,0.3-0.8,0.5-1.2
		C82.3,73.4,82.4,73.5,82.6,73.6z"/>
	<path fill="#B1BCCD" d="M42.1,76.2c-0.4,0.6-0.8,1.3-1.2,1.9c-0.6,0-0.8-0.4-0.7-1c-0.5-0.7-1.5-0.9-1.7-1.9
		c0.4-0.4,0.8-0.4,1.2,0.1c0.4,0.5,0.7,0.9,1.1,1.3c1-0.7-0.2-1.8,0.8-2.3C41.9,74.9,41.6,75.7,42.1,76.2z"/>
	<path fill="#7C8AAA" d="M88.1,69c-0.2,0-0.4-0.1-0.5-0.3c0.1-0.2,0.2-0.3,0.3-0.5c1.3,0.6,2.1,1.8,3.1,2.9
		c-0.1,0.1-0.2,0.2-0.2,0.2c-0.4,0.2-0.8,0.4-1.2,0.6c-0.5,0.2-0.9,0.2-1.3-0.2c-0.3-0.4-0.5-0.8-0.3-1.3
		C88.3,69.9,88.4,69.5,88.1,69z"/>
	<path fill="#EAEDEF" d="M62.7,11.1c0.5-1,1.2-1.1,2.1-0.5c1,0.7,2.5,0.7,3.1,2c-0.5-0.1-1-0.2-1.4-0.3c-0.3-0.3-0.7,0.1-1-0.2
		C64.7,11.5,63.6,11.6,62.7,11.1z"/>
	<path fill="#7F8FAF" d="M29.3,29.4c0.5,0.7,0.2,1.2-0.4,1.6c-0.5,0.3-1,0.5-1.5,0.1c-0.5-0.5-0.7-1-0.3-1.7
		C27.9,28.9,28.6,28.9,29.3,29.4z"/>
	<path fill="#B1BDCD" d="M65.6,12.1c0.3,0,0.7-0.1,1,0.2c-0.7,0.5-1.4,0.9-1.1,2c0.1,0.3,0.1,0.6-0.3,0.6c-0.3,0.1-0.5-0.1-0.7-0.4
		c-0.3-0.8-0.7-1.7-1-2.6C64.3,11.8,64.8,13.2,65.6,12.1z"/>
	<path fill="#65759D" d="M15.4,65.6c-0.5-1-0.3-2.4-1.9-2.6c-0.1-0.2-0.6,0-0.5-0.4C15.2,62.8,15.9,63.7,15.4,65.6z"/>
	<path fill="#65769C" d="M69.4,40.9c-0.9-1.3-2-1.4-3.4-0.9C67.3,38.6,68.8,39.1,69.4,40.9z"/>
	<path fill="#66769E" d="M37.3,27.7c-0.8-1.4-1.9-1.1-3.1-0.7c0.5-0.7,1.2-0.9,2-0.7C36.8,26.5,37.3,26.9,37.3,27.7z"/>
	<path fill="#242A64" d="M48,51c-0.3-1.1-0.4-2.2,0-3.3C48.3,48.8,48.3,49.9,48,51z"/>
	<path fill="#68789C" d="M29.3,29.4c-0.7-0.2-1.4-0.2-2.2,0C27.9,28.6,28.6,28.6,29.3,29.4z"/>
	<path fill="#7F8EAF" d="M24.3,49.8c0.2,0.1,0.2,0.3,0.2,0.5c-0.5,0.8-0.1,1.6-0.2,2.4C23.9,51.7,24,50.8,24.3,49.8z"/>
	<path fill="#6E7EA4" d="M12.5,45.5c0.1,0.1,0.2,0.2,0.2,0.2c-0.3,0.6-0.9,0.8-1.4,1.2C11.4,46.1,12.2,46,12.5,45.5z"/>
	<path fill="#6F81A5" d="M13,62.5c0.2,0.1,0.3,0.3,0.5,0.4c-0.5,0-1,0-1.5,0C12.3,62.7,12.6,62.5,13,62.5z"/>
	<path fill="#273776" d="M46.8,53.8c0.1,0.2,0.2,0.3,0.2,0.5c-0.1,0.4-0.2,0.8-0.7,1c0,0,0-0.1,0-0.1C46.3,54.7,46.3,54.2,46.8,53.8
		z"/>
	<path fill="#344882" d="M26.2,44.3c0.1,0,0.2,0,0.3,0c0.1,0.1,0.1,0.1,0.1,0.2c0,0.1-0.1,0.1-0.1,0.1c-0.2,0.2-0.5,0.5-0.7,0.7
		C25.8,44.9,25.8,44.5,26.2,44.3z"/>
	<path fill="#8695B4" d="M30.3,84.5c-0.1-0.6,0.4-1,0.8-1.3c0.2-0.2,0.5-0.4,0.8-0.1c0.4,0.4,0,0.5-0.2,0.7
		c-0.2,0.2-0.6,0.4-0.4,0.8c0.2,0.4,0.6,0.2,1,0.1c0.7-0.1,1.4-0.5,2,0.2c0.3,0.4,0.5,1,0.2,1.5c-0.3,0.5-0.7,1-1.4,1.3
		c-0.3,0.1-0.6-0.1-0.7-0.3c-0.2-0.4,0.2-0.3,0.4-0.4c0.1-0.1,0.3-0.2,0.4-0.4c0.2-0.2,0.4-0.4,0.3-0.7c-0.2-0.3-0.5-0.2-0.7-0.2
		c-0.3,0.1-0.5,0.2-0.8,0.3C31,86.2,30.3,85.6,30.3,84.5z"/>
	<path fill="#8695B4" d="M30.3,88.3c-0.1,0.5-0.5,0.7-0.8,1c-0.2,0.2-0.5,0.3-0.2,0.7c0.2,0.3,0.5,0,0.7-0.1c0.4-0.2,0.7-1,1.1-0.5
		c0.3,0.5-0.3,1-0.8,1.3c-0.8,0.7-1.6,0.2-2.3-0.3c-0.5-0.4-0.8-1-0.5-1.8c0.4-0.7,0.9-1.2,1.8-1.1C29.9,87.5,30.2,87.8,30.3,88.3z"
		/>
	<path fill="#B1BDCD" d="M35.1,81.7c0.1-1.4,0.9-2.3,2-2.1c0.9,0.1,1.8,1.6,1.6,2.7c-0.1,0.3-0.2,0.4-0.5,0.4
		c-0.4,0.2-0.7,0.2-1-0.1c0-0.1-0.1-0.2,0-0.3c0.1-0.4,0.2-0.9-0.3-0.9c-0.6,0,0,0.5-0.1,0.8c-0.1,0.2-0.2,0.2-0.3,0.3
		c-0.5,0.1-0.8-0.1-1.1-0.4C35.3,81.9,35.2,81.8,35.1,81.7z"/>
	<path fill="#8695B4" d="M35.7,85c-0.4,0-0.6-0.3-0.8-0.5c-0.3-0.3-0.7-0.8-1-0.8c-0.9,0-0.9-0.6-1.1-1.2c-0.1-0.3-0.2-0.6,0.1-0.8
		c0.3-0.3,0.5,0,0.6,0.2c0.2,0.3,0.4,0,0.6,0c0.3,0,0.7,0,0.5,0.5c-0.4,1,0.4,1.3,1.1,1.4c0.3,0.1,0.8-0.2,0.7,0.4
		C36.5,84.7,36.2,85,35.7,85z"/>
	<path fill="#8695B4" d="M35.3,81.9c0.4,0.1,0.8,0.2,1.2,0.3c0.2,0.2,0.6-0.1,0.7,0.2c0.3,0.1,0.6,0.2,0.9,0.3c0,0.1,0,0.1,0,0.2
		C36.6,83.5,35.9,83.3,35.3,81.9z"/>
	<path fill="#28316E" d="M9.7,68.9c-0.1,0.6-0.4,0.6-0.8,0.3c-0.3-0.3-0.7-0.6-0.4-1.1c0.2-0.2,0.5-0.4,0.7-0.6
		C9.3,68,9.5,68.5,9.7,68.9z"/>
	<path fill="#E2E6E9" d="M69.1,10.1c-0.6,0.4-1.1,0.7-1.6,0c-0.2-0.3-0.3-0.8,0.1-0.9C68.3,8.9,68.5,9.8,69.1,10.1z"/>
	<path fill="#5D6F9A" d="M46.8,53.8c-0.3,0.4-0.3,1-0.4,1.5c-0.4-0.3-0.2-0.7-0.1-1.1c0.7-5.2-1.5-10.2-6.1-12.4
		c-0.2-0.1-0.4-0.1-0.6-0.2c-0.2-0.1-0.3-0.2-0.5-0.2c-0.1-0.1-0.1-0.2-0.1-0.2c-0.4-0.4-0.8,0.2-1.2,0c-0.1,0-0.2-0.1-0.3-0.2
		c-0.5-0.9,0.6-1,0.8-1.5c0.1-0.1,0.2,0,0.3,0c6.3,1.7,8.7,7.2,8.4,12.2C47,52.4,46.9,53.1,46.8,53.8z"/>
	<path fill="#B1BDCD" d="M62.2,52.4c-0.3-0.3-0.6-0.5-0.1-0.9c0.4-0.3,0.7-0.3,1,0.2c0.3,0.5,0.6,0.5,1.1,0c0.6-0.7,1.4-0.5,2,0
		c0.7,0.6,1.2,1.2,0.6,2.2c-0.3,0.5-0.6,1.1-1.2,1.4c-0.1,0.2-0.4,0.4-0.6,0.2C64.1,54.5,62.9,53.7,62.2,52.4z"/>
	<path fill="#B1BDCD" d="M58.4,56.5c-0.1-0.3-0.6-0.5-0.3-0.9c0.4-0.6,0.9,0,1.3,0c1.1,0.7,1.8,1.8,2.7,2.7c0.2,0.2,0.2,0.4,0,0.7
		c-0.4,0.5-0.9,1-1.4,1.4c-0.8,0.6-1.5,0.1-2-0.4c-0.7-0.5-0.8-1.3-0.6-2.2C58.1,57.4,58.4,57,58.4,56.5z"/>
	<path fill="#B1BDCD" d="M68.9,46.2c0.1-1.2,0.8-1.6,1.3-2c0.2-0.2,0.4,0.1,0.6,0.2c0.3,0.3,0,0.5-0.2,0.7c-0.3,0.2-0.9,0.4-0.6,0.9
		c0.3,0.6,0.8,0.2,1.2,0c0.9-0.4,1.7-0.2,2.1,0.8c0.3,0.7-0.6,2.1-1.3,2.3c-0.3,0.1-0.7,0-0.8-0.3c-0.2-0.4,0.3-0.4,0.4-0.6
		c0.1-0.1,0.2-0.1,0.2-0.1c0.3-0.3,0.8-0.4,0.6-0.9c-0.2-0.4-0.7-0.2-1.1-0.1c-0.5,0.2-1,0.5-1.6,0.1C69.2,46.8,68.9,46.5,68.9,46.2
		z"/>
	<path fill="#B1BDCD" d="M67.8,51.1c0.8,0.3,1.1-0.2,1.4-0.5c0.2-0.1,0.3-0.3,0.5-0.1c0.2,0.1,0.2,0.4,0.1,0.5
		c-0.4,0.7-1,1.3-1.8,1.3c-0.8-0.1-1.5-0.6-1.8-1.5c-0.2-0.7-0.1-1.3,0.6-1.8c0.8-0.6,1.5-0.3,2,0.2c0.7,0.6-0.3,0.9-0.5,1.3
		C68.2,50.7,68,50.9,67.8,51.1z"/>
	<path fill="#B1BDCD" d="M75.7,44.5c-1.1,0-1.9-0.8-1.9-1.8c0-0.7,1-1.8,1.7-1.8c1,0,2.1,1,2.1,2C77.6,43.8,76.7,44.5,75.7,44.5z"/>
	<path fill="#B1BDCD" d="M60.8,55.1c0.7-0.6,1.4-1.2,2.4-1c0.8,0.1,1.4,0.5,1.2,1.4c0.2,1-0.4,1.7-1.2,2.2c-0.9,0.6-1.6,0-2.2-0.6
		C60.4,56.5,60.2,55.8,60.8,55.1z"/>
	<path fill="#B1BDCD" d="M75.4,45.4c-0.1,0.4-0.4,0.6-0.7,0.8c-0.3,0.2-0.6,0.1-0.8-0.2c-0.5-0.5-1-1-1.8-1.3
		c-0.5-0.2-0.5-1-0.6-1.6c0-0.2,0.4-0.5,0.5-0.3c0.3,0.7,1.6-0.5,1.5,1c-0.1,0.6,0.4,1.3,1.3,1.2C75,45.1,75.2,45.1,75.4,45.4z"/>
	<path fill="#B1BDCD" d="M78.3,41.9c-1,0-1.4-0.8-1.6-1.6c-0.2-0.8,0.2-1.5,0.8-2c0.3-0.2,0.4,0,0.6,0.2c0.2,0.2,0.2,0.4-0.1,0.6
		c-0.6,0.5-0.6,1-0.1,1.5c0.5,0.5,1,0.4,1.4-0.1c0.2-0.2,0.5-0.4,0.7-0.1c0.2,0.3,0,0.5-0.2,0.7C79.4,41.6,78.9,41.9,78.3,41.9z"/>
	<path fill="#A9B6C6" d="M58.4,56.5c0.3,0.1,0.4,0.3,0.2,0.6c-0.9,2.1-0.3,3.1,1.9,3.2c0.2,0,0.4-0.1,0.5,0.1
		c-0.4,0.1-0.4,0.9-1,0.5c-0.1,0-0.1-0.1-0.2-0.1c-1.5-0.4-2.8-1.1-4.1-1.9c1.1-0.1,1.8-0.7,2.1-1.8C58,56.9,58.1,56.6,58.4,56.5z"
		/>
	<path fill="#A9B6C6" d="M60.8,55.1c0,1.8,0.7,2.5,2.4,2.6c-0.3,0.5-0.6,1-0.9,1.5c-0.1,0.1-0.2,0.3-0.3,0c0-0.1,0-0.2,0-0.4
		c-0.3-1-1.2-1.4-1.8-2.1c-0.3-0.4-0.6-0.8-0.9-1.2C59.7,55.2,60.2,55.1,60.8,55.1z"/>
	<path fill="#A9B6C6" d="M64.4,55.5c-0.1-0.7-0.7-1.1-1.2-1.4c-0.2-0.1-0.3-0.2-0.5-0.2c-0.4-0.1-0.9,0.2-1-0.3
		c-0.1-0.4,0.1-1,0.6-1.2c0.9,0.9,1.8,1.7,2.7,2.6c0.2,0.2,0.3,0.5,0.7,0.3c0.1,0.5-0.3,0.9-0.7,1C64.4,56.4,64.8,55.6,64.4,55.5z"
		/>
	<path fill="#A9B6C6" d="M57.4,63.2c-0.5-0.3-0.6-0.7-0.2-1.1c0.4-0.3,0.6-1.1,1.3-0.5c0.1,0.1,0.4,0.1,0.5,0.2
		C58.9,62.6,57.9,62.7,57.4,63.2z"/>
	<path fill="#8695B4" d="M67,95.1c-0.3-1.2-0.9-2.3-1.5-3.4c-0.3-0.5-0.7-1-0.1-1.6c0.5-0.5,1-0.1,1.4,0.1c0.9,0.4,1.9,0.8,2.8,1.3
		c0.3,0.1,0.7,0.3,0.5,0.8c-0.2,0.4-0.5,0.4-0.9,0.3c-1-0.3-1.6,0.3-1.4,1.3C68,94.7,67.7,95,67,95.1z"/>
	<path fill="#8695B4" d="M77.6,83.4c0,1,0,1.9-0.9,2.5c-0.5,0.3-0.8,0.4-1.2,0c-0.9-0.9-1.8-1.8-2.7-2.7c-0.3-0.2-0.3-0.4-0.1-0.7
		c0.2-0.3,0.6-0.4,0.8-0.1c0.5,0.7,0.9,0.5,1.5,0c0.7-0.7,1.5,0,2.2,0.2C77.4,82.8,77.4,83.1,77.6,83.4z"/>
	<path fill="#8695B4" d="M70.6,91.3c-1.4,0-2.3-1.4-1.7-2.6c0.3-0.6,0.7-1.1-0.1-1.5c-0.3-0.2-0.4-0.5-0.1-0.8
		c0.3-0.3,0.6-0.3,0.9,0c0.9,0.9,1.7,1.7,2.6,2.6c0.3,0.3,0.4,0.7,0.1,1.1C71.9,90.7,71.3,91.3,70.6,91.3z"/>
	<path fill="#8695B4" d="M83.8,78.6c-0.5,0.5-0.6,1.2-1.4,1.4c-0.3,0.1-0.6,0.2-0.8-0.2c-0.3-0.4-0.1-0.6,0.2-0.8c0,0,0.1,0,0.1-0.1
		c0.3-0.3,0.9-0.5,0.7-0.9c-0.3-0.5-0.8-0.2-1.3,0c-0.5,0.2-1,0.2-1.4,0c-1-1.5-0.4-2.7,1.2-2.9c0.6,0.4,0.6,0.4-0.1,1.4
		c1.2-0.2,2.4-0.8,3,0.9C84.2,77.9,84,78.3,83.8,78.6z"/>
	<path fill="#8695B4" d="M77.1,82.4c-0.1-0.2-0.2-0.5-0.2-0.7c-0.2-0.4-0.2-0.8,0-1.2c0.2-0.3,0.4-0.6,0.7-0.7c0.5-0.2,1-0.2,1.4,0
		c0.7,0.4,0.9,0.9,0.1,1.4c-0.3,0.2-0.5,0.5-0.7,0.9c0.6,0.2,0.9-0.2,1.2-0.5c0.2-0.2,0.3-0.4,0.6-0.2c0.2,0.2,0.2,0.5,0.1,0.7
		c-0.6,1-1.5,1.1-2.5,1C77.4,83,77.3,82.7,77.1,82.4z"/>
	<path fill="#8695B4" d="M73.5,85.1c1.2,0.6,1.7,1.4,1.3,2.4c-0.3,0.7-0.7,1.2-1.6,1.2c-0.9,0-1.5-0.7-1.8-1.4
		c-0.4-0.9-0.1-1.7,0.9-2.2C72.7,84.9,73.1,84.9,73.5,85.1z"/>
	<path fill="#8695B4" d="M84.5,74.3c-0.2-0.9,0-1.6,0.8-2.1c0.9-0.6,1.6-0.1,2.4,0.4c0.2,0.2,0.4,0.3,0.4,0.6
		c-0.1,0.4,0.1,0.9-0.1,1.3c-0.2,0.3-0.5,0.6-0.7,1c-0.1,0.1-0.2,0.2-0.3,0.2c-0.4,0.1-0.8,0.2-1.2,0.1
		C84.9,75.5,84.3,75.3,84.5,74.3z"/>
	<path fill="#8695B4" d="M88.1,69c0.6,0.3,1.1,0.6,0.3,1.3c-0.5,0.4-0.3,0.9,0,1.3c0.3,0.5,0.8,0.3,1.1,0.1c0.4-0.2,0.7-0.6,1.2-0.2
		c-0.2,1.1-1.1,1.3-1.9,1.7c-0.5,0.2-0.8-0.1-1-0.5C86.8,71,86.9,70.8,88.1,69z"/>
	<path fill="#7C8AAA" d="M83.8,77.4c-0.4-0.8-1.2-0.8-1.9-0.6c-0.4,0.1-1,0.6-1.3,0.1c-0.3-0.5,0.3-0.8,0.7-1
		c0.4-0.3,0.3-0.5-0.1-0.7c0-0.3,0-0.7,0.5-0.7c0.8,1.5,2.2,2.2,3.6,2.9c-0.2,0.6-0.7,0.7-1.2,1C83.8,78.1,84.1,77.7,83.8,77.4z"/>
	<path fill="#7C8AAA" d="M84.5,74.3c0.1,0.7,0.5,1.1,1.2,1.2c0.4,0.2,0.8,0.2,1.2,0c0.1,0,0.2,0,0.2,0c-0.1,0.6-0.9,0.6-1.2,1
		c-0.2-0.4-0.6-0.4-1-0.5c-0.7-0.2-1.4-0.4-1-1.4C84.2,74.4,84.4,74.3,84.5,74.3z"/>
	<path fill="#7C8AAA" d="M87.9,72.6c0.3,0.1,0.5,0.5,1,0.5c-0.2,0.3-0.5,0.2-0.7,0.2c-0.1,0-0.2-0.2-0.2-0.2
		c-0.2-0.1-0.2-0.3-0.2-0.5C87.7,72.6,87.8,72.6,87.9,72.6z"/>
	<path fill="#7E8EAF" d="M93.4,69.2c0-0.7-0.7-0.3-1-0.7C92.8,68.7,93.8,68,93.4,69.2z"/>
	<path fill="#7E8EAF" d="M77.1,82.4c0.3,0.2,0.6,0.4,0.7,0.7c-0.1,0.1-0.2,0.2-0.2,0.2c-0.3-0.1-0.5-0.4-0.5-0.7
		C77.1,82.6,77.1,82.5,77.1,82.4z"/>
	<path fill="#7E8EAF" d="M87.9,73.1c0.1,0.1,0.2,0.2,0.2,0.2c-0.1,0.4,0.1,0.9-0.2,1.2C87.9,74,87.9,73.5,87.9,73.1z"/>
	<path fill="#7E8EAF" d="M80,78.1c0.5,0,1,0,1.4,0C80.9,78.5,80.4,78.5,80,78.1z"/>
	<path fill="#7E8EAF" d="M79,79.8c-0.5,0-1,0-1.4,0C78.1,79.4,78.5,79.4,79,79.8z"/>
	<path fill="#7E8EAF" d="M73.5,85.1c-0.4,0-0.8,0-1.2,0C72.7,84.7,73.1,84.7,73.5,85.1z"/>
	<path fill="#7E8EAF" d="M83.8,77.4c0.3,0.3,0.2,0.6,0.2,1c-0.1,0.1-0.2,0.2-0.2,0.2C83.8,78.2,83.8,77.8,83.8,77.4z"/>
	<path fill="#7E8EAF" d="M76.8,80.5c0,0.4,0,0.8,0,1.2C76.5,81.3,76.5,80.9,76.8,80.5z"/>
	<path fill="#8695B4" d="M29.6,50.3c-1.5,0-2.3-1.6-1.6-2.9c0.2-0.4,0.5-0.8-0.1-1.2c-0.3-0.2-0.2-0.5,0-0.7c0.3-0.3,0.6-0.3,0.8,0
		c0.9,0.9,1.7,1.7,2.6,2.6c0.3,0.3,0.3,0.7,0.1,1C30.9,49.7,30.3,50.3,29.6,50.3z"/>
	<path fill="#8695B4" d="M36.3,42.1c0.3,0.5,0.3,1,0.1,1.6c-0.6,1.6-1.3,1.8-2.5,0.6c-0.6-0.6-1.2-1.2-1.9-1.8
		c-0.3-0.3-0.6-0.7-0.3-1.1c0-0.3,0.2-0.4,0.5-0.4c0.6,0.3,1,0.5,1.7,0.1C35,40.5,35.9,41,36.3,42.1z"/>
	<path fill="#5D6E99" d="M32.2,41.2c-0.2,0.1-0.3,0.1-0.5,0.2c-1.7,0.4-3.1,1.4-4.5,2.4c-0.3,0.2-0.5,0.5-0.8,0.7c0-0.1,0-0.2,0-0.2
		c2.5-3.1,5.7-4.8,9.6-5c0.5-0.2,1.1-0.4,1.7,0c-0.2,1-0.4,1.2-1.3,0.8c-0.3-0.1-0.3,0-0.4,0.2c-0.2,0.3-0.2,0.6-0.5,0.7
		C34.3,40.7,33.3,41.6,32.2,41.2z"/>
	<path fill="#8695B4" d="M33.9,45.8c0,1-0.7,1.8-1.6,1.9c-0.9,0-1.9-0.9-2-1.8c0-0.9,0.8-1.9,1.7-2C32.9,43.8,33.9,44.8,33.9,45.8z"
		/>
	<path fill="#7F8EAF" d="M32.2,41.2c1.1-0.4,2.2-0.5,3.4-0.5c0.1-0.1,0.2-0.1,0.3,0c0.3,0.4,0.8,0.6,0.7,1.3
		c-0.1,0.1-0.2,0.2-0.2,0.2c-1-1.2-1.5-1.2-2.9-0.3C32.7,42.3,32.6,41.5,32.2,41.2z"/>
	<path fill="#8695B4" d="M36.5,41.9c-0.2-0.4-0.7-0.6-0.7-1.2c0.1-0.1,0.2-0.1,0.3-0.1c0.4,0,0.8,0,1.2,0.1c0.2,0.1,0.3,0.1,0.4,0.2
		l0,0c0.2,0.2,0.5,0.1,0.8,0.2c0.4,0.2,0.7,0.4,0.2,0.8c-0.2,0.1-0.3,0.2-0.5,0.2c-0.4,0.2-0.8,0.2-1.2,0C36.9,42,36.7,42,36.5,41.9
		z"/>
	<path fill="#7F8EAF" d="M38.7,41.9c0.3-0.4-0.1-0.5-0.2-0.7c0.2-0.2,0.5-0.2,0.7,0c0,0.1,0,0.2,0,0.2C39.2,41.7,39,41.9,38.7,41.9z
		"/>
	<path fill="#7F8EAF" d="M37,42.1c0.4,0,0.8,0,1.2,0C37.8,42.5,37.4,42.5,37,42.1z"/>
	<path fill="#B1BDCD" d="M42,38.8c-0.4-0.1-0.8-0.3-1.2-0.5c-0.1,0-0.1-0.1-0.1-0.1c0,0,0-0.1,0.1-0.1c0.1-0.1,0.3-0.2,0.4-0.3
		c0.2-0.2,0.6-0.4,0.4-0.7c-0.2-0.4-0.6-0.2-0.9-0.1c-0.6,0.3-1.2,0.6-1.8-0.1c-0.2-0.1-0.4-0.3-0.5-0.5c-0.3-0.9,0.3-2.1,1.1-2.3
		c0.3-0.1,0.5,0,0.7,0.2c0.3,0.4-0.1,0.4-0.2,0.6c-0.3,0.3-0.9,0.6-0.5,1.1c0.3,0.4,0.7,0,1.1-0.1c1.7-0.5,2.3,0.1,2.1,2
		C42.5,38.1,42.6,38.7,42,38.8z"/>
	<path fill="#B1BDCD" d="M45.3,34.4c-1.1,0-2-0.9-2.1-1.9c0-0.9,0.9-1.7,1.9-1.7c0.8,0,1.9,1.1,1.9,1.9
		C47.1,33.6,46.2,34.4,45.3,34.4z"/>
	<path fill="#B1BDCD" d="M44.9,35.5c-0.3,0.5-0.9,1.1-1.2,0.7c-0.9-0.9-2.2-1.3-2.8-2.6c-0.1-0.2-0.2-0.4,0-0.6
		c0.2-0.2,0.4-0.2,0.7-0.1c0.5,0.4,1.7,0,1.5,1.3c0,0.2,0.5,1,1.2,0.8C44.6,34.9,44.8,35.1,44.9,35.5z"/>
	<path fill="#B1BDCD" d="M46.1,29.6c0-0.2,0-0.6,0.3-0.9c0.3-0.3,0.6-0.7,1-0.4c0.6,0.4,0.1,0.7-0.1,1c-0.4,0.4-0.3,0.9,0.1,1.3
		c0.4,0.4,0.8,0.2,1.2,0c0.3-0.2,0.6-0.7,1-0.2c0.3,0.5-0.3,0.7-0.5,0.9c-0.5,0.6-1.2,0.5-1.8,0.2C46.5,31.3,46.1,30.6,46.1,29.6z"
		/>
	<path fill="#ADBAC9" d="M40.9,38c0,0.1,0,0.1,0,0.2c-0.6-0.2-1.1-0.3-1.7-0.5C39.8,37.3,40.3,37.8,40.9,38z"/>
	<path fill="#ADBAC9" d="M42,38.8c0.2-0.4,0.3-0.8,0.7-1c0.3,0.5-0.3,0.8-0.3,1.2C42.4,38.9,42.2,38.8,42,38.8z"/>
	<path fill="#ADBAC9" d="M50.7,28.4c0.5,0,1,0,1.4,0C51.7,28.8,51.2,28.8,50.7,28.4z"/>
	<path fill="#ADBAC9" d="M38.5,36.4c0.2,0.2,0.3,0.3,0.5,0.5c-0.3,0-0.6,0-1.1,0C38.1,36.6,38.3,36.5,38.5,36.4z"/>
	<path fill="#ADBAC9" d="M38.2,37.6c-0.2,0-0.4,0-0.7,0c0.4-0.4,0.8-0.2,1.2,0C38.5,37.5,38.3,37.6,38.2,37.6z"/>
	<path fill="#273879" d="M37.8,39.4c-0.5-0.4-1.2-0.1-1.7-0.2c1.1-0.9,1.4-0.9,2.6,0.3c-0.1,0-0.2,0-0.2,0
		C38.2,39.7,38,39.7,37.8,39.4z"/>
	<path fill="#B1BCCC" d="M40.2,79.8c0,0.3-0.1,0.6-0.3,0.9c-2.3-0.8-2.2-2-1.6-3.1c0.4-0.8,1-1,1.4,0C38.9,78.6,39.9,79.1,40.2,79.8
		z"/>
	<path fill="#A8B5C5" d="M40.2,79.8c-1.5-0.9-1.6-1.2-0.5-2.2c0.2-0.2,0.3-0.3,0.5-0.5c0.2,0.3,0.5,0.6,0.7,1
		C40.6,78.7,40.4,79.2,40.2,79.8z"/>
	<path fill="#7E8EAC" d="M25.4,50.2c0.6,0,1,0.1,1.1,0.7c0,0.1-0.2,0.3-0.3,0.3C25.6,51.3,25.6,50.6,25.4,50.2z"/>
	<path fill="#A8B5C4" d="M37.3,82.4c-0.3,0-0.5,0-0.7-0.2c-0.1-0.4-0.9-0.8-0.2-1.3c0.4-0.3,0.7-0.1,1.1,0.2
		C38,81.6,37.7,82,37.3,82.4z"/>
	<path fill="#65779F" d="M37.8,39.4c0.2,0,0.5,0,0.7,0c0.3,0.4-0.2,0.5-0.4,0.7c-0.2,0.2-0.6,0.3-0.4,0.7c-0.2,0-0.3,0-0.5,0
		c-0.4-0.3-0.8,0-1.2-0.2l-0.1,0c0,0-0.1,0-0.1,0c-0.1,0-0.2,0-0.2,0c0.1-0.6,0.3-1.7,0.9-1.1C37.2,40.4,37.4,39.3,37.8,39.4z"/>
	<path fill="#6879A3" d="M39.2,41.2c-0.2,0-0.5,0-0.7,0c-0.3,0-0.5,0-0.7-0.2c0.3,0,0.7,0.1,1-0.3c0.1-0.2,0.3-0.4,0.5-0.2
		C39.5,40.7,39.4,41,39.2,41.2z"/>
	<path fill="#A8B4C4" d="M65.1,52.3c0.5,0.2,0.9,0.5,0.9,1.1c0,0.3-0.2,0.8-0.5,0.6c-0.5-0.2-1-0.6-1.1-1.2
		C64.4,52.4,64.8,52.3,65.1,52.3z"/>
	<path fill="#A8B4C4" d="M60.7,58.8c0,0.4-0.2,0.5-0.5,0.6c-0.6,0-1-0.3-1.1-0.9c0-0.3,0.1-0.7,0.5-0.7
		C60.1,57.9,60.4,58.4,60.7,58.8z"/>
	<path fill="#A8B4C4" d="M76.5,43c0,0.4-0.3,0.5-0.6,0.6c-0.6,0.1-1-0.3-1.1-0.8C74.7,42.3,75,42,75.4,42C76,41.9,76.2,42.5,76.5,43
		z"/>
	<path fill="#A8B4C4" d="M63.4,56c0,0.4-0.2,0.8-0.6,0.7c-0.5-0.1-1-0.3-1-1c0-0.4,0.2-0.7,0.6-0.6C63,55.1,63.3,55.4,63.4,56z"/>
	<path fill="#7C8CAB" d="M66.5,91.2c0.3,0.3,1,0.2,1.1,0.7c0,0.1-0.2,0.3-0.3,0.3C66.6,92.2,66.6,91.6,66.5,91.2z"/>
	<path fill="#7B8BAA" d="M76.6,84.2c0,0.4-0.1,0.9-0.5,0.8c-0.5-0.1-0.9-0.5-1.1-1c-0.1-0.4,0.3-0.6,0.7-0.6
		C76.3,83.3,76.6,83.6,76.6,84.2z"/>
	<path fill="#7C8BAB" d="M71.4,89.7c-0.2,0.4-0.4,0.7-0.8,0.6c-0.5-0.1-1-0.3-1-1c0-0.3,0.1-0.7,0.5-0.7
		C70.8,88.7,71.1,89.2,71.4,89.7z"/>
	<path fill="#7B8BAA" d="M73.3,87.7c-0.5-0.2-0.9-0.5-1-1C72.3,86.2,72.6,86,73,86c0.5,0,0.9,0.4,0.9,0.9
		C74,87.4,73.8,87.6,73.3,87.7z"/>
	<path fill="#7B8BAA" d="M87.1,74c0,0.4-0.3,0.5-0.6,0.5c-0.6,0-1-0.4-1.1-0.9c-0.1-0.4,0.3-0.7,0.7-0.7C86.6,73,86.9,73.4,87.1,74z
		"/>
	<path fill="#7E8EAF" d="M86.9,75.5c-0.4,0.3-0.8,0.3-1.2,0C86.1,75.5,86.5,75.5,86.9,75.5z"/>
	<path fill="#7B8BAA" d="M30.3,48.6c-0.2,0.5-0.5,0.6-0.8,0.6c-0.5-0.1-0.8-0.5-0.9-1c0-0.4,0.3-0.7,0.6-0.5
		C29.7,47.9,30,48.3,30.3,48.6z"/>
	<path fill="#7B8CAA" d="M35.6,43.2c0,0.4-0.1,0.8-0.5,0.8c-0.5-0.1-0.9-0.5-1.1-1c-0.2-0.4,0.3-0.6,0.7-0.6
		C35.3,42.2,35.4,42.8,35.6,43.2z"/>
	<path fill="#7B8BAA" d="M32.3,46.6c-0.5-0.2-0.9-0.5-0.9-1c0-0.4,0.3-0.6,0.7-0.6c0.5,0.1,0.9,0.4,0.9,0.9
		C32.9,46.3,32.7,46.6,32.3,46.6z"/>
	<path fill="#7F8EAF" d="M36.1,40.7c0.4,0,0.9-0.1,1.2,0.2C36.9,40.9,36.4,41.1,36.1,40.7z"/>
	<path fill="#A8B4C4" d="M45.3,33.5c-0.5-0.1-1-0.4-1-1c0-0.4,0.4-0.7,0.8-0.7C45.7,32,46,32.4,46,33C46.1,33.4,45.7,33.4,45.3,33.5
		z"/>
</g>
<g>
	<path fill="#48A6DD" d="M90.8,126.5H15c-2.2,0-4-1.8-4-4v-23c0-2.2,1.8-4,4-4h75.8c2.2,0,4,1.8,4,4v23
		C94.8,124.7,93,126.5,90.8,126.5z"/>
	<g>
		<path fill="#FFFFFF" d="M31.9,113c-0.1-2-0.1-4.4-0.1-6.8h-0.1c-0.5,2.1-1.2,4.4-1.8,6.4l-2,6.4h-2.9l-1.8-6.4
			c-0.5-1.9-1.1-4.3-1.5-6.4h0c-0.1,2.2-0.2,4.8-0.3,6.8l-0.3,6.3h-3.4l1.1-16.5h5l1.6,5.5c0.5,1.9,1,4,1.4,5.9h0.1
			c0.5-1.9,1-4.1,1.6-5.9l1.8-5.5h4.9l0.9,16.5h-3.6L31.9,113z"/>
		<path fill="#FFFFFF" d="M53.7,110.9c0,5.4-3.3,8.7-8.1,8.7c-4.9,0-7.7-3.7-7.7-8.4c0-4.9,3.2-8.6,8-8.6
			C51,102.6,53.7,106.3,53.7,110.9z M41.8,111.1c0,3.2,1.5,5.5,4,5.5c2.5,0,4-2.4,4-5.6c0-3-1.4-5.5-4-5.5
			C43.3,105.5,41.8,107.9,41.8,111.1z"/>
		<path fill="#FFFFFF" d="M71.2,110.9c0,5.4-3.3,8.7-8.1,8.7c-4.9,0-7.7-3.7-7.7-8.4c0-4.9,3.2-8.6,8-8.6
			C68.5,102.6,71.2,106.3,71.2,110.9z M59.3,111.1c0,3.2,1.5,5.5,4,5.5c2.5,0,4-2.4,4-5.6c0-3-1.4-5.5-4-5.5
			C60.8,105.5,59.3,107.9,59.3,111.1z"/>
		<path fill="#FFFFFF" d="M73.7,119.3v-16.5H78l3.4,6c1,1.7,2,3.8,2.7,5.6h0.1c-0.2-2.2-0.3-4.4-0.3-6.9v-4.8h3.4v16.5h-3.9
			l-3.5-6.4c-1-1.8-2.1-3.9-2.9-5.8l-0.1,0c0.1,2.2,0.1,4.5,0.1,7.2v5H73.7z"/>
	</g>
</g>
<g>
</g>
<g>
</g>
<g>
</g>
<g>
</g>
<g>
</g>
<g>
</g>
</svg>
