<?xml version="1.0" encoding="utf-8"?>
<!-- Generator: Adobe Illustrator 25.0.0, SVG Export Plug-In . SVG Version: 6.00 Build 0)  -->
<svg version="1.1" id="Layer_1" xmlns="http://www.w3.org/2000/svg" xmlns:xlink="http://www.w3.org/1999/xlink" x="0px" y="0px"
	 width="105.5px" height="129px" viewBox="0 0 105.5 129" style="enable-background:new 0 0 105.5 129;" xml:space="preserve">
<style type="text/css">
	.st0{fill:#FCFCFC;}
	.st1{fill:#F7F4EC;}
	.st2{fill:#4B5D65;}
	.st3{fill:#2D3C44;}
	.st4{fill:#F2F5F4;}
	.st5{fill:#B7C0C4;}
	.st6{fill:#EBEDEE;}
	.st7{fill:#252D32;}
	.st8{fill:#EEF1F2;}
	.st9{fill:#A5B0B2;}
	.st10{fill:#DDE2E3;}
	.st11{fill:#D0D7D8;}
	.st12{fill:#E5E8EA;}
	.st13{fill:#E9E0DB;}
	.st14{fill:#F8F4EC;}
	.st15{fill:#48A6DD;}
	.st16{fill:#FFFFFF;}
</style>
<g>
	<path class="st0" d="M52.5,117c-0.3-3,0.1-5.3,4.1-4.7c0.7,0.1,1.3-0.3,1.3-1.1c0-0.8-0.7-1-1.3-1.3c-1.2-0.5-2.5-0.8-3.9-0.7
		c-0.7,0-2.2,0.1-2-0.6c1.3-4.6-2.1-1.1-2.9-1.8c-1.3-1.1-5.9,1.8-4-3.2c7.3,1.8,14.8,0.7,22.2,0.8c1.8-0.7,4.9,2.3,5.3-0.8
		c0.4-2.8,2-3.7,3.6-5.1c1-0.1,2.1-0.3,3.1-0.4c0.1,0.7,0.2,1.4,1.1,1.3c0.3,0,0.5-0.5,0.7-0.8c-0.6-0.1-1.2-0.3-1.8-0.4
		c0.7-1.1,1.8-1.6,3-1.6c2.4,0,0.9-1.5,1.1-2.4l0,0c3.8-3,10-3.3,10.9-9.7c0.1-1,1.3-2.3,2.3-2.6c5.3-1.3,5.4-5.6,5.8-9.7
		c0.1-1.4-0.2-2.9,1.6-3.7c1.3-0.5,0.9-1.7,1-2.8c0.2-5.9,0.5-11.8,0.7-17.8c1.2,1,0.8,2.4,0.8,3.7c0,4.6,0,9.2,0,13.8
		c0,0.9-0.6,2.5,0.8,2.7c1.7,0.2,1.5-1.5,1.5-2.6c0-5.3,0.1-10.5,0-15.8c0-2.2-1-3.9-3.1-4.9c-0.1-1-0.1-2.1-0.2-3.1
		c1-0.6,0.5-1.3,0.5-2.3c-0.1-1.9-2.8-2.3-2.2-4.4c1-3.7-1-3.8-3.7-2.9c0.3-3.3,0-6.3-4-7.2c0.1-1.2-0.3-2.2-1.1-3.1
		c-1.3-1.7-2.7-3.4-2.8-5.7c0-1.3-0.1-2.6-0.1-3.9c0.2-1.4-1.4-3.1,1.1-4.2c1-0.4,0.6-2-0.5-2.6c-1.2-0.7-1.9-0.2-2.2,1.1
		c-0.6,2.4-2.7,2.1-3.5,0.9c-2.7-3.7-3.9-1-5.3,0.9l0-0.1c0.4-3.6-2.3-2.2-3.9-2.4c-1.1,0.3-2.6,0.3-2.8,1.7C73.5,8.6,75,8.6,75.9,9
		c1.5,0.7,3,1.5,4.5,2.2l0.3,0l0.3,0c0,1.4,2,1.6,1.9,3.1c-1,0.1-1.7,0.6-1.7,1.7c-2.2-0.1-1.7-2.8-4-3.7C73.7,11,70,9.1,67.7,5.6
		c0.5,0,1,0,1.5,0c0.5,0.7,1.4,1.3,1.8,0.4c0.3-0.8-0.9-1-1.7-1.1c-2-3.3-5.2-2.2-8.1-2.2c0-0.3-0.1-0.7-0.1-1
		c0.5-0.2,1-0.6,0.6-1.1c-0.7-0.8-1.3,0.3-2,0.4C54.9-0.2,50,0,45.2,0.5c-1.3-0.3-2.8-0.8-3.7,0c-1,0.8,1.1,1.5,0.8,2.6
		c-0.3,0.1-0.5,0.1-0.8,0.2C37.7,4.4,34,5.6,30.3,6.7C28.9,5.2,23,5,21.8,6.3c-2.9,3.2-2.9,3.2,0.9,4.6c0.3,1.6-1.8,1.4-1.9,2.7
		C13.3,19.5,8.2,27.2,4.7,36c-0.5,1.3-1.7,2.3-0.9,3.9c-0.2,1-0.4,2-0.6,2.9C1.6,44,2.3,45.6,2.4,47c0,4,0,8,0,11.9
		c-0.2,1.3-0.6,2.6,0.6,3.6c0.3,0.9,0.6,1.8,0.8,2.7c-0.1,0.8-0.2,1.6-0.4,2.3c-5.4,3.3-5.5,4-1,8.3c0.3,0.3,0.5,0.6,0.7,0.9
		c1.6,2,3,1.7,4.3-0.3c0.2,0.2,0.4,0.3,0.6,0.5c0.2,2.8,0.6,5.7,0,8.5C7.8,87,7.9,88.9,9.8,89c2,0.1,4.7,1.6,5.5-1.9
		c3.3,2.4,5.2,6.2,8.7,8.2c-1.3,0.3-2.7,0.3-2.5,2.2c0.1,0.6,0,1.7,0.7,1.6c2.4-0.4,5.2,1.6,7.2-1.2c2.9,1.1,5.8,2.1,8.8,3.2
		c0.8,0.3,1.6,0.6,2.4,0.9c-0.6,1.2-1.3,2.4,0.1,3.5c0.5,0.4,1.2,0.6,1.1,1.5c-0.4,2.4-0.4,2.5,2,2.9c0.9,0.1,1.9-0.2,2.6,0.6
		c-1.3,3.3-1.4,3.4,2,4.2"/>
	<path class="st0" d="M64.4,106.9c-1.3,5.3-0.5,6.1,5,5.5c0.9-0.1,2,0,2-1.3c0.1-1.3-0.9-2-2-1.9C67.4,109.4,65.7,108.7,64.4,106.9z
		"/>
	<path class="st0" d="M105,27.6c-0.1-0.7-0.4-1.2-1.4-1.2c-0.8,0-1.6,0.2-1.5,1.2c0,0.8,0.5,1.5,1.3,1.6
		C104.3,29.3,104.7,28.6,105,27.6z"/>
	<path class="st0" d="M54.1,106.5c0.1-0.1,0.2-0.1,0.3-0.2c-0.1-0.1-0.2-0.2-0.3-0.2c-0.1,0-0.2,0.1-0.3,0.2
		C53.9,106.4,54,106.5,54.1,106.5z"/>
	<path class="st1" d="M67.7,5.6c2.3,3.5,6,5.4,9.5,6.7c2.3,0.8,1.8,3.5,4,3.7c0,0,0,0,0,0c0,1.2,0,2.3,1.6,2.4l0,0
		c0,1.1,0,2.1,0,3.2c-2.8-1-3.6,3.4-6.4,2.4c-1-1.9-2.2-1.7-3.3-0.2c-1.3,1.8-0.3,3.7,0.8,4.6c1.6,1.1,3,0.1,3.3-2
		c3.2-0.2,7.1,1,8-4c0-0.3,0-0.5,0-0.8c0.7,0,1.3-0.2,1.6-0.8c1.1,0,2.1,0,3.2,0l0,0c-0.2,1.7,0.5,2.6,2.3,2.4c0,0,0.1,0.1,0.1,0.1
		c-0.1,2.9-1.3,5.7-0.8,8.7c-0.1,1.2-0.9,1.3-1.8,1.7c-2.8,1-4.2,3-3.6,6.1c0.6,3.5,4.4,3.9,6.3,6.2c2.5-3.2,2.3-0.7,2.3,1.1
		c0,1.6,0,3.2,0,4.8c-1.6,0.3-2.5-0.8-3.4-1.7c-2.1-2-3.8-3-4.5,1c-0.2,0.8-0.6,1.5-1.6,1.3c-1.1-0.2-1.8-1.1-1.5-2
		c0.8-3.6-0.9-6.3-2.2-9.5c-0.9-2.3-1.2-2.3-3.3-1.7c-1.9,0.5-4.6,0.4-2.8-3.1c0.5-1,0-1.8-0.7-2.5c-3-2.8-3.4-9-9.8-7.5
		c-2.1-3-3-1.3-5.2,0.5c-3.4,2.7-3.9,6.2-3.6,9.5c0.3,3.2,3.4,5.3,6.7,5.9c2.9,0.5,3.9,1.7,2.9,4.6c-1.3,3.4,1.1,6.4,1.5,9.6
		c0.2,2,2.5,0.8,3.7,1.3c1,0.4,1.4,1.1,1.7,2c0.4,1.2,0.7,3,2.5,2.3c1.6-0.5,2.7-1.8,1.8-3.7c-0.7-1.5,0.1-2.2,1.3-2.8
		c1.2-0.5,2.1-1.3,3.6-0.4c2.2,1.3,1.8,3.3,1.9,5.2c0.1,2.5-0.3,5.4,3.9,4.6c1-0.2,1.7,0.7,2,1.6c0.4,1.2-0.6,1.2-1.4,1.4
		c-1.5,0.3-1.4,1.4-1.3,2.5c0.1,0.7,0.5,1.2,1.2,1.3c1.2,0.2,2.1-0.2,2.6-1.4c0.3-0.6,0.6-1.1,1-1.7c0,2.4,0,4.8,0,7.1
		c-1.4,2.1,0.5,5-1.7,6.8c-1.5,1.3-3.1,2.4-4.2,4.1c-0.4,0.7-1.1,1.8-2.2,1.4c-1.3-0.4-0.6-1.8-0.8-2.8c1.5-0.1,2.3-0.9,2.4-2.4
		c0.5-0.1,1.1-0.2,1.5-0.4c0.9-0.5,2.1-0.6,2.1-2c0-0.2-0.5-0.6-0.8-0.7c-1.3-0.3-1.9,0.5-2.4,1.6c-0.2,0.5-0.3,1-0.4,1.5
		c-1.8-0.2-2.6,0.6-2.4,2.4c-0.9,0.1-1.5,0.5-1.6,1.5c-0.3,2.7-3.7,2.9-4.2,5.4c-3.7-1.5-2.2,1.6-2.4,2.9c-1.4,0.5-2.7-2-3.2-0.4
		c-0.6,1.9-2.7,2.4-2.9,4.3c0,0,0,0,0,0c-7.1-0.9-13.9,1.5-20.8,1.7c-1.7,0-3-1.7-4.7-1c-3.5-3.8-4.6-8.9-7.2-13.1
		c-3-7-3.9-14.6-5.4-22c0.2-3,0-5.9-0.8-8.7c0.1-4,0.1-7.9,0.2-11.9c1.4-8.7,3.7-17.1,6.2-25.5c0.8-2.7,2.5-4.9,3.9-7.2
		c0.5,0,1,0,1.6,0c-2.9,5.6-3.1,11.9-4.4,18c-1.5-0.5-0.6-2.1-2.1-3.2c1.4,4.5-2.5,8-0.3,12.3c1.2,2.3,3.9,6.1,6.6,6
		c2.4,0,5.8-3.4,6.3-5.9c0.3-1.4-0.6-1.4-1.4-1.9c-2.6-1.7-2.6-4,0.3-4.8c3.2-0.8,5.1-2.4,7-5c2.1-2.8,2.5-3.4-1-5.1
		c-4.3-2.1-5.1-4.6-2.5-9.4c0,3.1,2,3.3,3.8,4.3c2.1,1.1,3.5,2.8,5.3-0.3c0.3-0.4,1.7-0.2,2.7-0.2c1.9,0,3.7,0,5.6-0.1
		c2.2-0.1,2.3-1.5,1.4-3c-0.9-1.6-2.5-1.7-4.2-1.7c-5.1,0-10.4,0.5-15.3-1.6c0.2-1.4-0.3-2.3-1.7-2.8c-1.2-0.4-1.3,0.4-1.5,1.2
		c-0.3,0-0.6,0-0.9,0c-0.2,0-0.5,0-0.7,0c0-1.1,0-2.3-0.1-3.4c0-0.2,0-0.4,0.1-0.6C52.3,4.6,60,5.8,67.7,5.6L67.7,5.6z M52.6,47
		L52.6,47c-0.1,2.1,0.8,3.7,3,3.9c1.8,0.2,3.6-0.7,4.3-2.3c0.8-1.9-1.3-2.9-2.5-3.9c-0.9-0.7-1.4-1.5-2.1-2.3
		c-0.9-1.2-2-0.9-3.2-0.3c-1.4,0.6-2,1.6-1.9,3.1C50.2,46.9,51.3,47.1,52.6,47z M36.6,78.1c-2.7,0.4-0.7,2-0.7,2.9
		c0,0.8,0.6,1.6,1.5,1.4c1-0.2,0.6-1.3,0.7-2c2.7,1.9,4.2,2.3,7.1-0.9c2.5-2.8,0.6-4.6,1-6.7c1.1-5.6-1.9-8.6-5.7-11.7
		c-1.9-1.6-1.8-1.1-2.6,0.9c-1.2,3.3-0.4,6.7-1,10c-0.4,0-0.7,0-1.1-0.1c0-4.3,0-8.7,0-14.1c-2.8,4.6-2.2-1-4.2,0.4
		C33.8,64.6,33.3,71.8,36.6,78.1z M81,67.8c0-0.2,1-2.6-1.5-2.3c-2.2,0.3-4.7,1.8-5.1,4.1c-0.4,2.1,1.7,2.7,3.8,2.9
		C80.9,72.8,81.6,71.4,81,67.8z M47.6,52.4c-0.6-1.1-1.4-2.1-2.9-2.1c-1.3,0-2.4,0.6-2.3,2c0.1,1.5,1.2,1.9,2.5,1.9
		C46.1,54.2,47.2,54.1,47.6,52.4z M49.6,58c0.8-1,3.1,0.2,3.3-1.8c0.1-1-1.3-1.4-2.2-0.9c-1.1,0.6-3-0.2-3.3,1.5
		C47.3,57.8,48.4,58.2,49.6,58z"/>
	<path class="st2" d="M35.8,18.3c-2.5,8.4-4.7,16.9-6.2,25.5c-2,0.1-1.8,1.5-1.8,2.8c0,3,0.1,6,0.1,9c-0.1,4.1-0.5,8.2,1.1,12.1
		c0.8,2.1,1.1,4.3-2.3,5c-1.7,0.4-3.2,2.2-0.3,3.5c1.3,0.6,1.6,1.4,1.2,2.5c-0.8,2-2.6,3.3-4.6,3.1c-3-0.4-4.3-2.8-4.7-5.6
		c-0.3-2.1,0.8-3.2,3-3.2c1.3,0,2.5-0.5,2.3-2c-0.2-1.6-0.8-3.2-2.8-3.4c-1.3-0.1-2.7-0.2-4,0c-2.8,0.5-4.9-0.7-5.8-3
		c-2.7-6.6-7.5-12.7-6.4-20.6c0.2-1.3,0.9-3.2-1-4.3C3,38.4,4.1,37.3,4.7,36c3.6-8.8,8.6-16.5,16.2-22.4c2.1,2.9,4.1,1.1,6-0.3
		c4.9-3.5,6-3.6,8.3-0.5c-0.1,1-0.6,1.5-1.7,1.5c-0.3-0.4-0.5-0.8-0.8-1.2c-3,3-8.2,3.5-9.6,8.4c-0.4,1.6-1.9,3.6,0.2,4.5
		c2.3,1.1,4.9-1.6,4.9-2.8c0-4.7,2.9-4.9,6.2-5C34.8,18.3,35.3,18.3,35.8,18.3z"/>
	<path class="st3" d="M3.7,39.9c1.9,1,1.2,2.9,1,4.3c-1.2,7.9,3.6,14,6.4,20.6c0.9,2.3,3.1,3.5,5.8,3c1.3-0.2,2.7-0.1,4,0
		c2,0.2,2.6,1.8,2.8,3.4c0.2,1.5-1,2.1-2.3,2c-2.2,0-3.3,1-3,3.2c0.4,2.8,1.7,5.2,4.7,5.6c2,0.2,3.8-1,4.6-3.1
		c0.4-1.1,0-1.9-1.2-2.5c-2.9-1.3-1.4-3.1,0.3-3.5c3.4-0.8,3.1-2.9,2.3-5c-1.6-4-1.2-8.1-1.1-12.1c0.2,0,0.4,0,0.6,0
		c0.3,3-0.7,6.2,1.7,8.8c1.5,7.4,2.4,15,5.4,22c-1.9,0.3-0.6,4.1-3.5,3.4c-0.2,0-0.3,1,0.2,1.4c3.1,2.6,3.1,7.1,5.9,9.8
		c-2.9-1.1-5.8-2.1-8.8-3.2c-1.1-0.9-2.3-1.8-3.7-2c-0.6-0.2-1.1-0.4-1.7-0.6c0,0,0,0,0,0c-3.6-2.1-5.5-5.9-8.7-8.2
		c-2.3-3.4-5.5-6.2-7.3-10c-0.2-0.2-0.4-0.3-0.6-0.5c-0.7-3-2.8-5.5-2.8-8.7c0.1-1,0.2-2-0.9-2.6c-0.3-0.9-0.6-1.8-0.8-2.7
		C3.2,61.3,3.5,60,2.4,59c0-4,0-8,0-11.9c1.3-1.2,0.7-2.7,0.7-4.2C3.3,41.9,3.5,40.9,3.7,39.9z M31.7,87.8c0-0.1,0-0.3-0.1-0.3
		c0,0-0.2,0-0.3,0.1c0,0.1,0,0.3,0.1,0.3C31.4,87.9,31.6,87.8,31.7,87.8z"/>
	<path class="st4" d="M82.8,85.2c0.2,1-0.6,2.3,0.8,2.8c1,0.3,1.7-0.7,2.2-1.4c1.1-1.7,2.6-2.9,4.2-4.1c2.2-1.8,0.2-4.7,1.7-6.8
		c1.4-0.3,3.2,0.8,4-1.5c2.5-7.3,5.6-14.4,5-22.6c-0.3-3.8-1.3-5.2-5-4.6c-0.1-4,0.5-8-0.8-11.9c0-0.3,0-0.6,0-0.8
		c3.3,1.6,2-1.3,2.5-2.5c0.9,0.5,1.1,2.1,2.8,1.8c-0.5-0.6-0.9-1.1-1.3-1.7c2.7-0.8,4.7-0.7,3.7,2.9c-0.6,2.1,2.1,2.5,2.2,4.4
		c0.1,0.9,0.5,1.7-0.5,2.3c-2.3,0.1-1-3.6-4.1-3.4c2.3,5.8,2,11.7,2,17.6c0,11.5-5.1,20.7-12,29.4c-2.5,3.1-6.6,4.8-8,8.9l0,0
		c-3.1-0.5-4.8,2-7.1,3.3c-2.2,0.4-4,2.2-6.4,1.5c0.2-1.9,2.3-2.4,2.9-4.3c0.5-1.5,1.8,0.9,3.2,0.4c0.2-1.3-1.3-4.4,2.4-2.9
		c0.5-2.5,4-2.7,4.2-5.4C81.3,85.7,81.9,85.3,82.8,85.2L82.8,85.2z"/>
	<path class="st5" d="M82,94c1.3-4.1,5.5-5.8,8-8.9c6.9-8.7,12.1-17.9,12-29.4c0-5.9,0.3-11.8-2-17.6c3.2-0.2,1.8,3.5,4.1,3.4
		c0.1,1,0.1,2.1,0.2,3.1c0,1.1-0.1,2.1-0.1,3.2c-0.2,5.9-0.5,11.8-0.7,17.8c0,1,0.3,2.2-1,2.8c-1.8,0.7-1.5,2.3-1.6,3.7
		c-0.4,4.1-0.5,8.4-5.8,9.7c-0.9,0.2-2.1,1.6-2.3,2.6C92,90.7,85.9,91,82,94z"/>
	<path class="st6" d="M48.4,114.7c-3.3-0.8-3.3-0.9-2-4.2c-0.7-0.8-1.7-0.4-2.6-0.6c-2.4-0.4-2.5-0.5-2-2.9c0.2-0.9-0.6-1.1-1.1-1.5
		c-1.4-1.1-0.8-2.3-0.1-3.5c0.8,0.4,1.6,0.4,2.4,0l0.1,0c0.2,0.5,0.4,1,0.7,1.5c-1.9,5,2.7,2.1,4,3.2c0.9,0.7,4.2-2.8,2.9,1.8
		c-0.2,0.8,1.3,0.6,2,0.6c1.4,0,2.6,0.2,3.9,0.7c0.6,0.3,1.3,0.4,1.3,1.3c0,0.8-0.6,1.2-1.3,1.1c-3.9-0.6-4.4,1.7-4.1,4.7"/>
	<path class="st3" d="M35.1,12.8c-2.3-3.1-3.4-3-8.3,0.5c-1.9,1.4-3.9,3.2-6,0.3c0-1.3,2.2-1.1,1.9-2.7c0,0,0-0.1,0-0.1
		c0.8,0.4,1.2-0.2,1.6-0.8c2.2-0.7,4.4-1.6,6-3.4c3.7-1.2,7.4-2.3,11.1-3.5c0.1,0.6,0.2,1.1,0.3,1.7l0.2,0.2l-0.1,0.2
		c-5.5-0.1-5.8,0.2-5.2,5.6C36.6,12.1,36.2,12.7,35.1,12.8z"/>
	<path class="st7" d="M43,102c-0.8,0.5-1.6,0.4-2.4,0c-0.8-0.3-1.6-0.6-2.4-0.9c-2.8-2.8-2.8-7.2-5.9-9.8c-0.4-0.4-0.3-1.4-0.2-1.4
		c3,0.7,1.6-3.1,3.5-3.4c2.6,4.2,3.8,9.3,7.2,13.1C43,100.4,43,101.2,43,102z M36.4,93.4c0-0.1,0-0.2,0.1-0.3
		c-0.1,0-0.3,0.1-0.4,0.1c0,0.1,0.1,0.2,0.1,0.3C36.2,93.5,36.3,93.4,36.4,93.4z"/>
	<path class="st8" d="M80.3,8.2c1.5-1.9,2.7-4.6,5.3-0.9c0.9,1.2,2.9,1.5,3.5-0.9c0.3-1.3,1-1.9,2.2-1.1c1,0.6,1.5,2.2,0.5,2.6
		c-2.5,1-0.9,2.8-1.1,4.2c-0.5,0-1,0-1.5,0c-1.6,0-3.2,0-4.8,0c-0.9-1.1-2.3-0.7-3.5-0.8l-0.3,0l-0.3,0C80.4,10.2,80.3,9.2,80.3,8.2
		z"/>
	<path class="st4" d="M104.3,47.8c0-1.1,0.1-2.1,0.1-3.2c2.1,1,3.1,2.8,3.1,4.9c0.1,5.3,0.1,10.5,0,15.8c0,1.1,0.1,2.8-1.5,2.6
		c-1.4-0.1-0.8-1.7-0.8-2.7c-0.1-4.6,0-9.2,0-13.8C105.1,50.2,105.5,48.8,104.3,47.8z"/>
	<path class="st6" d="M4.7,67.9c0,3.2,2.1,5.7,2.8,8.7c-1.3,2-2.8,2.2-4.3,0.3c-0.2-0.3-0.4-0.6-0.7-0.9c-4.5-4.2-4.4-5,1-8.3
		C3.9,67.7,4.3,67.8,4.7,67.9z"/>
	<path class="st9" d="M43.8,103.5c-0.2-0.5-0.4-1-0.6-1.5c1.8,0.5,3.6,0.7,5.4,0.8c6.8,0.5,13.3-1.3,19.9-2.3
		c-0.6,1.4-3.1,1.6-2.5,3.8C58.6,104.2,51.2,105.2,43.8,103.5z"/>
	<path class="st10" d="M8,77.1c1.8,3.8,4.9,6.6,7.3,10c-0.8,3.5-3.5,2-5.5,1.9c-1.9-0.1-2.1-2-1.8-3.4C8.6,82.7,8.2,79.9,8,77.1z"/>
	<path class="st9" d="M61.1,1.6c0,0.3,0.1,0.7,0.1,1c0,0,0,0.3,0,0.3c-5.3,0-10.6,0-15.8,0c-0.1-0.8-0.2-1.6-0.3-2.4
		C50,0,54.9-0.2,59.7,0.9C60,1.5,60.5,1.6,61.1,1.6z"/>
	<path class="st11" d="M30.3,6.7c-1.6,1.8-3.8,2.7-6,3.4c-0.3-0.5-0.7-1.2-1.4-0.9c-0.7,0.3-0.5,1.1-0.2,1.7c0,0,0,0.1,0,0.1
		c-3.9-1.4-3.9-1.4-0.9-4.6C23,5,28.9,5.2,30.3,6.7z"/>
	<path class="st11" d="M66,104.2c-0.6-2.2,1.9-2.4,2.5-3.8c0-0.5,0-1.1,0-1.6c0,0,0,0,0,0c2.4,0.6,4.2-1.2,6.4-1.5
		c0,0.4,0,0.7,0,1.1c-1.6,1.4-3.2,2.3-3.6,5.1C70.9,106.5,67.8,103.5,66,104.2z"/>
	<path class="st11" d="M64.4,106.9c1.3,1.8,2.9,2.6,5,2.3c1.1-0.1,2.1,0.6,2,1.9c-0.1,1.3-1.1,1.2-2,1.3
		C63.9,112.9,63.1,112.1,64.4,106.9z"/>
	<path class="st5" d="M45.2,0.5c0.1,0.8,0.2,1.6,0.3,2.4c-0.3,0.4-0.5,0.8-0.8,1.1c-0.1,0.2-0.1,0.4-0.1,0.6
		c-2.2,1.1-1.7,4.6-4.5,5.1c-0.5-1.8,2-2.5,1.7-4.3l0.1-0.2c0,0-0.2-0.2-0.2-0.2c1.1-0.4,0.6-1.2,0.5-1.9c0.3-1.1-1.8-1.7-0.8-2.6
		C42.4-0.4,43.9,0.1,45.2,0.5z"/>
	<path class="st5" d="M90.8,15.9c0.1,2.3,1.5,4,2.8,5.7c0.8,1,1.2,1.9,1.1,3.1l0,0c-1.3,0.2-1.5-1.1-2.4-1.5c0,0-0.1-0.1-0.1-0.1
		C91.9,22,91,21.3,90,20.7c0,0,0,0,0,0c-0.2-1.6-4.4-2.6-0.9-4.9C89.7,15.9,90.3,15.9,90.8,15.9z"/>
	<path class="st10" d="M25.8,95.9c1.5,0.2,2.6,1.1,3.7,2c-2,2.8-4.8,0.8-7.2,1.2c-0.7,0.1-0.7-0.9-0.7-1.6c-0.2-1.9,1.3-2,2.5-2.2
		c0,0,0,0,0,0c0,0.6-0.2,1.4,0.6,1.4C25,96.8,25.4,96.2,25.8,95.9z"/>
	<path class="st5" d="M98.8,31.9c0.4,0.5,0.8,1.1,1.3,1.7c-1.7,0.3-1.9-1.3-2.8-1.8c0,0-0.1,0-0.1,0c0.1-2.2-1.4-3.8-2.4-5.5l0,0
		c0-0.5,0-1.1,0-1.6l0,0C98.8,25.6,99,28.6,98.8,31.9z"/>
	<path class="st5" d="M80.3,8.2c0.1,1,0.1,2,0.2,3c-1.5-0.7-3-1.6-4.5-2.2c-0.9-0.4-2.4-0.3-2.3-1.6c0.1-1.4,1.6-1.4,2.8-1.7
		c0,3,2.3,2.2,3.9,2.4L80.3,8.2z"/>
	<path class="st5" d="M74.9,98.4c0-0.4,0-0.7,0-1.1c2.3-1.3,4-3.8,7.1-3.3c-0.2,0.9,1.3,2.4-1.1,2.4c-1.1,0-2.3,0.5-3,1.6l0,0
		C77,98.1,75.9,98.2,74.9,98.4z"/>
	<path class="st5" d="M61.3,2.9c0,0,0-0.3,0-0.3c2.9,0,6.1-1.1,8.1,2.2c-0.1,0.2-0.1,0.5-0.1,0.7c-0.5,0-1,0-1.5,0c0,0,0,0,0,0
		C65.8,4.1,62.9,5,61.3,2.9z"/>
	<path class="st5" d="M81,11.2c1.2,0.1,2.5-0.3,3.5,0.8c0.2,0.8,0.8,1.2,1.5,1.6c0.3,0.2,0.7,0.5,1,0.7c0,1.8-1.3,1.6-2.4,1.5
		l-0.1,0c0-1.1-0.4-1.7-1.6-1.6l0.1-0.1C83,12.8,81,12.6,81,11.2z"/>
	<path class="st8" d="M80.3,8.1c-1.7-0.3-4,0.5-3.9-2.4C78,5.9,80.7,4.5,80.3,8.1z"/>
	<path class="st4" d="M105,27.6c-0.3,1-0.7,1.7-1.6,1.6c-0.9-0.1-1.3-0.7-1.3-1.6c0-1,0.7-1.2,1.5-1.2
		C104.6,26.4,104.9,26.9,105,27.6z"/>
	<path class="st2" d="M3.1,42.9c0,1.4,0.5,3-0.7,4.2C2.3,45.6,1.6,44,3.1,42.9z"/>
	<path class="st12" d="M90.8,15.9c-0.6,0-1.1,0-1.7,0c0-1.3,0.1-2.6,0.1-3.9c0.5,0,1,0,1.5,0C90.8,13.3,90.8,14.6,90.8,15.9z"/>
	<path class="st2" d="M2.4,59c1.1,1,0.8,2.3,0.6,3.6C1.8,61.5,2.2,60.2,2.4,59z"/>
	<path class="st2" d="M4.7,67.9c-0.4-0.1-0.8-0.2-1.3-0.2c0.1-0.8,0.2-1.6,0.4-2.3C4.9,65.9,4.8,66.9,4.7,67.9z"/>
	<path class="st5" d="M61.1,1.6c-0.6,0-1.1-0.1-1.4-0.7c0.7,0,1.3-1.2,2-0.4C62.2,1,61.7,1.4,61.1,1.6z"/>
	<path class="st1" d="M69.2,5.5c0-0.2,0-0.5,0.1-0.7c0.8,0.1,2,0.3,1.7,1.1C70.7,6.8,69.7,6.3,69.2,5.5z"/>
	<path class="st11" d="M78,98c0.6,0.1,1.2,0.3,1.8,0.4c-0.2,0.3-0.4,0.8-0.7,0.8C78.2,99.3,78.1,98.6,78,98C78,97.9,78,98,78,98z"/>
	<path class="st12" d="M81.2,16c0-1.1,0.7-1.6,1.7-1.7c0,0-0.1,0.1-0.1,0.1c0,0.5,0,1.1,0,1.6L82.8,16C82.3,16,81.7,16,81.2,16
		L81.2,16z"/>
	<path class="st7" d="M42.2,3c0.1,0.7,0.6,1.5-0.5,1.9c-0.1-0.6-0.2-1.1-0.3-1.7C41.7,3.2,42,3.1,42.2,3z"/>
	<path class="st6" d="M54.1,106.5c-0.1-0.1-0.2-0.1-0.3-0.2c0.1-0.1,0.2-0.2,0.3-0.2c0.1,0,0.2,0.1,0.3,0.2
		C54.3,106.4,54.2,106.5,54.1,106.5z"/>
	<path class="st13" d="M91.6,68.5c-0.3,0.6-0.7,1.1-1,1.7c-0.5,1.1-1.4,1.5-2.6,1.4c-0.8-0.1-1.2-0.6-1.2-1.3
		c-0.1-1.1-0.2-2.2,1.3-2.5c0.7-0.2,1.8-0.2,1.4-1.4c-0.3-0.9-1-1.8-2-1.6c-4.2,0.8-3.8-2.1-3.9-4.6c-0.1-1.9,0.3-3.9-1.9-5.2
		c-1.5-0.9-2.5-0.2-3.6,0.4c-1.2,0.5-2,1.3-1.3,2.8c0.9,1.9-0.2,3.2-1.8,3.7c-1.8,0.6-2.1-1.2-2.5-2.3c-0.3-0.9-0.7-1.7-1.7-2
		c-1.3-0.5-3.5,0.7-3.7-1.3c-0.4-3.2-2.8-6.2-1.5-9.6c1.1-2.9,0.1-4-2.9-4.6c-3.3-0.6-6.4-2.6-6.7-5.9c-0.3-3.3,0.2-6.7,3.6-9.5
		c2.3-1.8,3.1-3.5,5.2-0.5c6.3-1.5,6.8,4.6,9.8,7.5c0.7,0.7,1.3,1.4,0.7,2.5c-1.8,3.5,1,3.6,2.8,3.1c2.1-0.6,2.4-0.6,3.3,1.7
		c1.3,3.1,3,5.9,2.2,9.5c-0.2,0.9,0.5,1.8,1.5,2c1,0.2,1.5-0.5,1.6-1.3c0.7-4,2.5-3,4.5-1c0.9,0.9,1.8,2,3.4,1.7c0,1.8,0,3.7,0,5.5
		l0,0c-2.2,0.4-1.6,2.1-1.5,3.4C93.3,63.5,93.2,66.2,91.6,68.5z"/>
	<path class="st13" d="M44.6,8c0.2,0,0.5,0,0.7,0c0.4,0.5-0.6,1.7,0.9,1.6c0.5,0,1.1,0,1.6,0l0,0c0.5,0.8,1.1,0.8,1.6,0l0,0
		c4.9,2.2,10.1,1.6,15.3,1.6c1.7,0,3.3,0.1,4.2,1.7c0.8,1.5,0.8,2.9-1.4,3c-1.9,0.1-3.7,0-5.6,0.1c-0.9,0-2.4-0.2-2.7,0.2
		c-1.8,3.1-3.2,1.4-5.3,0.3c-1.8-1-3.9-1.2-3.8-4.3c-2.6,4.8-1.9,7.3,2.5,9.4c3.4,1.7,3.1,2.3,1,5.1c-2,2.6-3.8,4.1-7,5
		c-2.9,0.8-2.9,3.1-0.3,4.8c0.8,0.5,1.6,0.5,1.4,1.9c-0.5,2.5-3.9,5.9-6.3,5.9c-2.8,0-5.5-3.8-6.6-6c-2.2-4.3,1.7-7.7,0.3-12.3
		c1.5,1,0.6,2.6,2.1,3.2c1.3-6.1,1.5-12.4,4.4-18c0.6,0,1.1,0,1.7,0c0.1,0.7-0.3,1.7,0.8,2c0.2,0.1,0.5-0.2,0.6-0.3
		c0.3-0.7,0-1.3-0.6-1.7C43.8,10.1,43.4,8.8,44.6,8z"/>
	<path class="st13" d="M36.6,78.1c-3.4-6.3-2.8-13.5-4.9-19.8c2-1.4,1.4,4.2,4.2-0.4c0,5.4,0,9.8,0,14.1c0.4,0,0.7,0,1.1,0.1
		c0.6-3.3-0.3-6.8,1-10c0.8-2,0.6-2.5,2.6-0.9c3.8,3.1,6.9,6.1,5.7,11.7c-0.4,2.1,1.5,3.9-1,6.7c-2.9,3.2-4.4,2.8-7.1,0.9
		c0,0,0,0,0,0c0-0.7-0.1-1.3-0.9-1.6C37.1,78.6,36.9,78.4,36.6,78.1z"/>
	<path class="st14" d="M94.8,57.3c0-1.8,0-3.7,0-5.5c0-1.6,0-3.2,0-4.8c0,0,0.4,0,0.4,0l0.4,0c3.6-0.6,4.7,0.8,5,4.6
		c0.6,8.2-2.5,15.3-5,22.6c-0.8,2.3-2.6,1.1-4,1.5c0-2.4,0-4.8,0-7.1c1.6-2.4,1.7-5,1.6-7.8C93.2,59.5,92.6,57.8,94.8,57.3
		c0.1,0.8-0.3,1.7,0.7,2c0.2,0.1,0.7-0.4,0.7-0.6C96.4,57.7,95.6,57.5,94.8,57.3z"/>
	<path class="st13" d="M95.5,47l-0.4,0c0,0-0.4,0-0.4,0c-0.1-1.8,0.2-4.3-2.3-1.1c-1.9-2.3-5.7-2.6-6.3-6.2
		c-0.6-3.1,0.9-5.1,3.6-6.1c0.9-0.3,1.8-0.5,1.8-1.7c2.3-0.1,1,3.3,3.2,3.2C96,39,95.4,43,95.5,47z"/>
	<path class="st4" d="M68.5,98.8c0,0.5,0,1.1,0,1.6c-6.6,1.1-13.1,2.8-19.9,2.3c-1.9-0.1-3.6-0.3-5.4-0.8c0,0-0.1,0-0.1,0
		c0-0.8-0.1-1.6-0.1-2.4c1.8-0.8,3,1,4.7,1C54.7,100.4,61.5,97.9,68.5,98.8z"/>
	<path class="st13" d="M52.6,47c-1.3,0-2.4-0.2-2.4-1.9c0-1.5,0.6-2.5,1.9-3.1c1.2-0.5,2.3-0.9,3.2,0.3c0.6,0.8,1.2,1.6,2.1,2.3
		c1.2,1,3.3,1.9,2.5,3.9c-0.7,1.6-2.5,2.5-4.3,2.3C53.3,50.7,52.5,49.1,52.6,47c0.7-0.1,1.6,0.2,2-0.7c0.1-0.1-0.4-0.7-0.6-0.7
		C52.9,45.4,52.7,46.2,52.6,47z"/>
	<path class="st7" d="M41.7,5.4C42,7.2,39.5,7.8,40,9.7c-0.1,0.5-0.2,1-0.3,1.5c-1.5,2.3-3.1,4.5-3.9,7.2c-0.5,0-1-0.1-1.5-0.1
		c-0.3-1.3-0.6-2.6-0.8-3.9c1,0,1.6-0.5,1.7-1.5c1.1-0.2,1.5-0.7,1.4-1.9C35.9,5.6,36.3,5.2,41.7,5.4z"/>
	<path class="st0" d="M61.3,2.9c1.7,2,4.5,1.2,6.4,2.7c-7.7,0.2-15.4-1-23-1.6c0.3-0.4,0.5-0.8,0.8-1.1C50.7,2.9,56,2.9,61.3,2.9z"
		/>
	<path class="st13" d="M81,67.8c0.6,3.5-0.1,4.9-2.9,4.7c-2-0.2-4.2-0.8-3.8-2.9c0.4-2.3,2.9-3.8,5.1-4.1C82,65.2,81,67.6,81,67.8z"
		/>
	<path class="st12" d="M76.4,23.9c2.8,1,3.6-3.4,6.4-2.4c0.6,0.9,1.5,0.8,2.4,0.8c-0.8,5-4.7,3.8-8,4C76.3,25.7,76.5,24.8,76.4,23.9
		z"/>
	<path class="st0" d="M89.3,12c0,1.3-0.1,2.6-0.1,3.9c-3.6,2.3,0.6,3.2,0.9,4.9c-1.1,0-2.1,0-3.2,0c0.1-2-2.7-2.7-2.3-4.9
		c1.1,0,2.4,0.3,2.4-1.5c0.4-0.1,1.2,0,0.9-0.7c-0.5-1-1.2-0.2-1.9,0c-0.7-0.4-1.3-0.8-1.5-1.6C86.1,12,87.7,12,89.3,12z"/>
	<path class="st13" d="M76.4,23.9c0,0.9-0.1,1.8,0.8,2.4c-0.2,2.1-1.7,3.1-3.3,2c-1.2-0.8-2.2-2.8-0.8-4.6
		C74.3,22.2,75.4,22,76.4,23.9z"/>
	<path class="st0" d="M94.7,35.1c-2.2,0.1-0.9-3.4-3.2-3.2c-0.5-3,0.8-5.8,0.8-8.7c0.8,0.4,1.1,1.8,2.4,1.5c0,0.5,0,1.1,0,1.6
		c-2.4,0.6-1.9,2.4-1,3.6c1.1,1.4,0.9,2.9,1,4.4C94.8,34.5,94.8,34.8,94.7,35.1z"/>
	<path class="st7" d="M28.6,55.8c-0.2,0-0.4,0-0.6,0c0-3-0.1-6-0.1-9c0-1.3-0.2-2.8,1.8-2.8c-0.1,4-0.1,7.9-0.2,11.9
		C29.2,55.8,28.9,55.8,28.6,55.8z"/>
	<path class="st13" d="M47.6,52.4c-0.3,1.7-1.5,1.8-2.7,1.8c-1.3,0-2.4-0.4-2.5-1.9c-0.1-1.5,1-2,2.3-2C46.2,50.3,47,51.3,47.6,52.4
		z"/>
	<path class="st0" d="M39.8,11.2c0.1-0.5,0.2-1,0.3-1.5c2.8-0.5,2.3-4,4.5-5.1c0,1.1,0,2.3,0.1,3.4c-1.2,0.8-0.8,2.1-0.8,3.2
		c-0.3,0-0.5,0-0.8,0c-0.6,0-1.1,0-1.7,0C40.8,11.2,40.3,11.2,39.8,11.2z"/>
	<path class="st13" d="M49.6,58c-1.2,0.2-2.3-0.2-2.2-1.2c0.2-1.7,2.2-0.9,3.3-1.5c0.8-0.5,2.2-0.1,2.2,0.9
		C52.8,58.2,50.4,57,49.6,58z"/>
	<path class="st2" d="M28.6,55.8c0.3,0,0.6,0,0.9,0c0.8,2.9,1,5.8,0.8,8.7C27.9,61.9,28.9,58.7,28.6,55.8z"/>
	<path class="st12" d="M84.5,15.9c-0.3,2.2,2.4,2.8,2.3,4.9c-0.4,0.6-0.9,0.8-1.6,0.8c-0.1-1.6-1.1-2.5-2.4-3.2c0,0,0,0,0,0
		c0-0.8,0-1.6,0-2.4c0,0,0.1-0.1,0.1-0.1C83.4,15.9,83.9,15.9,84.5,15.9L84.5,15.9z"/>
	<path class="st11" d="M36.6,78.1c0.2,0.3,0.5,0.5,0.7,0.8c0.1,0.6,0.2,1.3,0.9,1.6c0,0,0,0,0,0c-0.1,0.7,0.3,1.8-0.7,2
		c-0.9,0.2-1.5-0.6-1.5-1.4C35.9,80.1,34,78.5,36.6,78.1z"/>
	<path class="st4" d="M85.2,82.8c0.1-0.5,0.2-1,0.4-1.5c0.4-1,1.1-1.9,2.4-1.6c0.3,0.1,0.8,0.4,0.8,0.7c0.1,1.4-1.2,1.5-2.1,2
		C86.3,82.7,85.7,82.7,85.2,82.8C85.2,82.8,85.2,82.8,85.2,82.8z"/>
	<path class="st0" d="M82.8,18.4c1.3,0.7,2.3,1.6,2.4,3.2c0,0.3,0,0.5,0,0.8c-0.9,0-1.8,0.2-2.4-0.8C82.8,20.5,82.8,19.4,82.8,18.4z
		"/>
	<path class="st0" d="M46.2,8c0.1-0.8,0.3-1.6,1.5-1.2c1.3,0.5,1.8,1.4,1.7,2.8c0,0,0,0,0,0c-0.5,0-1,0-1.6,0l0,0
		C47.8,8.6,47.2,8,46.2,8L46.2,8z"/>
	<path class="st4" d="M82.8,85.2c-0.2-1.8,0.6-2.6,2.4-2.4c0,0,0,0,0,0C85.1,84.4,84.3,85.2,82.8,85.2
		C82.8,85.2,82.8,85.2,82.8,85.2z"/>
	<path class="st0" d="M90,20.7c1,0.6,1.9,1.3,2.3,2.4C90.5,23.3,89.8,22.5,90,20.7z"/>
	<path class="st0" d="M82.8,16c0,0.8,0,1.6,0,2.4c-1.6-0.1-1.6-1.2-1.6-2.4C81.7,16,82.3,16,82.8,16z"/>
	<path class="st0" d="M46.2,9.6c-1.5,0.1-0.5-1.1-0.9-1.6c0.3,0,0.6,0,0.9,0c0,0,0,0,0,0C46.2,8.5,46.2,9.1,46.2,9.6z"/>
	<path class="st3" d="M33.5,14.3c0.3,1.3,0.6,2.6,0.8,3.9c-3.3,0.2-6.2,0.3-6.2,5c0,1.2-2.5,3.8-4.9,2.8c-2-0.9-0.6-2.9-0.2-4.5
		c1.4-4.9,6.6-5.4,9.6-8.4C32.9,13.5,33.2,13.9,33.5,14.3z"/>
	<path class="st0" d="M25.8,95.9c-0.4,0.3-0.7,0.8-1.1,0.8c-0.8-0.1-0.7-0.8-0.6-1.4C24.6,95.5,25.2,95.7,25.8,95.9z"/>
	<path class="st7" d="M31.7,87.8c-0.1,0-0.3,0.1-0.3,0.1c-0.1-0.1-0.1-0.2-0.1-0.3c0.1,0,0.3-0.1,0.3-0.1
		C31.6,87.5,31.6,87.7,31.7,87.8z"/>
	<path class="st12" d="M94.8,34.3c-0.1-1.5,0.1-3-1-4.4c-0.9-1.1-1.4-3,1-3.6c0,0,0,0,0,0c0.2,2.1-0.4,4.6,2.4,5.5c0,0,0.1,0,0.1,0
		C96.8,33,98,35.9,94.8,34.3z"/>
	<path class="st0" d="M22.7,10.9c-0.3-0.6-0.5-1.3,0.2-1.7c0.7-0.4,1.1,0.4,1.4,0.9C23.9,10.7,23.6,11.3,22.7,10.9z"/>
	<path class="st3" d="M36.4,93.4c-0.1,0-0.2,0.1-0.3,0c-0.1-0.1-0.1-0.2-0.1-0.3c0.1,0,0.3-0.1,0.4-0.1
		C36.4,93.2,36.4,93.3,36.4,93.4z"/>
	<path class="st4" d="M97.2,31.8c-2.8-1-2.3-3.4-2.4-5.5C95.8,28.1,97.2,29.6,97.2,31.8z"/>
	<path class="st0" d="M84.4,15.9c-0.5,0-1.1,0-1.6,0c0-0.5,0-1.1,0-1.6C84,14.2,84.5,14.8,84.4,15.9z"/>
	<path class="st12" d="M85.9,13.6c0.6-0.2,1.4-1,1.9,0c0.3,0.7-0.4,0.6-0.9,0.7C86.6,14.1,86.3,13.9,85.9,13.6z"/>
	<path class="st1" d="M43,11.2c0.3,0,0.5,0,0.8,0c0.6,0.4,0.9,1,0.6,1.7c-0.1,0.2-0.4,0.4-0.6,0.3C42.7,12.8,43.1,11.9,43,11.2z"/>
	<path class="st1" d="M46.2,9.6c0-0.5,0-1.1,0-1.6c1,0,1.6,0.6,1.6,1.6C47.2,9.6,46.7,9.6,46.2,9.6z"/>
	<path class="st1" d="M47.8,9.6c0.5,0,1,0,1.6,0C48.8,10.4,48.3,10.4,47.8,9.6z"/>
	<path class="st1" d="M38.2,80.5c-0.6-0.3-0.8-1-0.9-1.6C38.1,79.1,38.2,79.8,38.2,80.5z"/>
	<path class="st13" d="M94.8,57.3c0.8,0.1,1.6,0.3,1.4,1.4c0,0.3-0.6,0.7-0.7,0.6C94.5,59,94.8,58.1,94.8,57.3
		C94.7,57.4,94.8,57.3,94.8,57.3z"/>
	<path class="st1" d="M52.6,47c0.1-0.8,0.3-1.6,1.4-1.4c0.2,0,0.7,0.6,0.6,0.7C54.1,47.2,53.3,46.9,52.6,47C52.6,47,52.6,47,52.6,47
		z"/>
</g>
<g>
	<path class="st15" d="M90.8,126.5H15c-2.2,0-4-1.8-4-4v-23c0-2.2,1.8-4,4-4h75.8c2.2,0,4,1.8,4,4v23
		C94.8,124.7,93,126.5,90.8,126.5z"/>
	<g>
		<path class="st16" d="M31.9,113c-0.1-2-0.1-4.4-0.1-6.8h-0.1c-0.5,2.1-1.2,4.4-1.8,6.4l-2,6.4H25l-1.8-6.4
			c-0.5-1.9-1.1-4.3-1.5-6.4l0,0c-0.1,2.2-0.2,4.8-0.3,6.8l-0.3,6.3h-3.4l1.1-16.5h5l1.6,5.5c0.5,1.9,1,4,1.4,5.9h0.1
			c0.5-1.9,1-4.1,1.6-5.9l1.8-5.5h4.9l0.9,16.5h-3.6L31.9,113z"/>
		<path class="st16" d="M53.7,110.9c0,5.4-3.3,8.7-8.1,8.7c-4.9,0-7.7-3.7-7.7-8.4c0-4.9,3.2-8.6,8-8.6
			C51,102.6,53.7,106.3,53.7,110.9z M41.8,111.1c0,3.2,1.5,5.5,4,5.5s4-2.4,4-5.6c0-3-1.4-5.5-4-5.5
			C43.3,105.5,41.8,107.9,41.8,111.1z"/>
		<path class="st16" d="M71.2,110.9c0,5.4-3.3,8.7-8.1,8.7c-4.9,0-7.7-3.7-7.7-8.4c0-4.9,3.2-8.6,8-8.6
			C68.5,102.6,71.2,106.3,71.2,110.9z M59.3,111.1c0,3.2,1.5,5.5,4,5.5c2.5,0,4-2.4,4-5.6c0-3-1.4-5.5-4-5.5
			C60.8,105.5,59.3,107.9,59.3,111.1z"/>
		<path class="st16" d="M73.7,119.3v-16.5H78l3.4,6c1,1.7,2,3.8,2.7,5.6h0.1c-0.2-2.2-0.3-4.4-0.3-6.9v-4.8h3.4v16.5h-3.9l-3.5-6.4
			c-1-1.8-2.1-3.9-2.9-5.8h-0.1c0.1,2.2,0.1,4.5,0.1,7.2v5h-3.3V119.3z"/>
	</g>
</g>
</svg>
