<?xml version="1.0" encoding="utf-8"?>
<!-- Generator: Adobe Illustrator 25.0.0, SVG Export Plug-In . SVG Version: 6.00 Build 0)  -->
<svg version="1.1" id="Layer_1" xmlns="http://www.w3.org/2000/svg" xmlns:xlink="http://www.w3.org/1999/xlink" x="0px" y="0px"
	 width="105.5px" height="129px" viewBox="0 0 105.5 129" style="enable-background:new 0 0 105.5 129;" xml:space="preserve">
<style type="text/css">
	.st0{fill:#FCFCFC;}
	.st1{fill:#2D3C44;}
	.st2{fill:#495C64;}
	.st3{fill:#EEF1F2;}
	.st4{fill:#E5E8EA;}
	.st5{fill:#A5B0B2;}
	.st6{fill:#DDE2E3;}
	.st7{fill:#EBEDEE;}
	.st8{fill:#B7C0C4;}
	.st9{fill:#252D32;}
	.st10{fill:#4B5D65;}
	.st11{fill:#F8F4EC;}
	.st12{fill:#E9E0DB;}
	.st13{fill:#F7F4EC;}
	.st14{fill:#48A6DD;}
	.st15{fill:#FFFFFF;}
</style>
<g>
	<path class="st0" d="M60.8,115.3c0-0.6,0.4-0.9,1-1c3.6-0.5,6.6-3.6,10.6-2.5c1.6,0.4,3,0,3-2.3c0-2-0.3-3.1-2.7-3.2
		c-1.7,0-3.6-0.4-5.1-1.4c2.4-0.3,2.9-2,3.2-4c0.2,0,0.5,0,0.7-0.1c1.8,0.9,3.6,1.6,5.1-0.4c0.7-1,1.4-1.3,2.5-1.2
		c1,0.1,1.9,0.1,2.6,1.3c0.8,1.6,1.3,0.6,1.5-0.4c1.8,0.1,1.9,1.9,2.7,2.9c1.1,1.3,2.6,1.2,3.9,0.8c1.7-0.4,1.1-2.1,1.2-3.3
		c0.1-1.2-0.4-2.2-1.7-2c-3.7,0.5-4.3-2.2-5.3-4.7c0.8-0.8,1.6-1.6,2.3-2.5c3.8,0.6,4.5-1.5,4.2-4.6c0.2-0.5,0.4-1.1,0.5-1.6l0,0
		c4.6-3.2,7.8-7.3,7.8-13.3c0-0.4,0-0.8,0-1.2c2.9,0.3,4-0.9,3.7-3.8c-0.3-2.6-0.5-5.1-0.4-7.7c0.1-2.7-0.7-6.5,0.4-7.8
		c3.2-3.7,0.7-5.4-1.3-7.6c1.1-1.2-0.1-1.4-0.8-1.8c0-0.2,0-0.4,0-0.5c0.8-3.2-1.1-5.2-3.1-7.1c0,0,0,0.1,0,0.1
		c0-0.3-0.1-0.5-0.1-0.8c0.6-1.3,1.3-2.6,0.1-3.9c0-7.7-0.4-8.2-6.9-7c0.4-5.2,0.3-5.3-4.5-5.6c-0.4,0-0.7-0.2-1.1-0.3
		c0.8-1.6,2.5-1.6,3.9-1.9c1.5-0.3,2.3-1,2.2-2.5c0.1-1.5,0.2-2.9-1.8-3c-1.8-0.1-2.2,0.9-2,2.4c-2.3-0.3-3.6-3.4-6.4-2.2
		c-2.3-0.1-4.5-0.2-6.8-0.3c-0.5-0.2-1-0.4-1.4-0.7c-2-0.9-1.7-2.8-1.9-4.5c0.3-4.8,0.3-4.9-4.6-4.8c-7.1,0.1-14.3-0.7-21.1,2.3
		C43.4,2.4,43,3,44.4,4.1c0,0.3,0,0.5-0.1,0.8c-3.1,0.3-6.1-0.6-9.2-0.8c-6-0.3-6-0.2-5.4,5.9c-0.3,0.2-0.6,0.5-0.9,0.7
		c-1.5-2.1-3.8-1-5.7-1.1c-1.2-0.1-3.1-0.8-3.6,1.2c-0.4,1.7-0.3,3.4,1.5,4.4c-0.8,2.3-3.2,3.2-4.7,4.8C11,26.2,6.5,32.8,4.4,40.8
		c-0.1,0.8-0.2,1.6-0.3,2.5c-1.3,1-1.2,2.4-0.9,3.8c-0.5,4.4-0.5,8.8,0,13.2c-0.1,1.4-0.8,3,0.8,4.1c0.2,1.3,0.4,2.5,0.6,3.8
		c-0.3,1.1,0.6,1.5,1.1,2.2c-0.1,1.8-0.2,3.5,1.4,4.8C6.8,76,6.8,76.8,8,77l0,0c-0.2,0.2-0.2,0.3-0.3,0.5c-1,5.2,1,9.2,5,12.7
		c0.5-1.4-0.1-2.9,1.3-3.6c0.2,0.5,0.5,0.9,0.7,1.4c-1,2.4-0.9,3.9,2.3,2.6c0.8,0.4,2,0.2,2.3,1.3c0,1.5-0.1,3.1-0.1,4.6
		c-0.1,2.4,0.3,4,2.6,5.9c2.4,2,5.1,0.2,6.6,1.7c4.2,4.2,6.8,1.7,9.5-1.7c6.2,1.1,12.4,1.7,18.7,1.2c1.5,1.5,3.1,1.4,4.8,0.1
		c0.8,0.1,1.5,0.1,2.3,0.2c-0.5,2.1-2.2,1.4-3.5,1.4c-4.1,0.1-8.3,0-12.4,0c0,0.5,0,1,0,1.4c3.1-0.2,6.1-0.9,9.2-0.7
		c1.6,0.1,2.8,0.3,2.8,2.3c0,1.9-0.9,2.5-2.6,2.4c-3.4-0.2-6.7,0.1-10,0.8c-0.9,0.2-2-0.1-2,1.3"/>
	<path class="st0" d="M109.2,20.6c-0.6,3.6-5,5.2-4.9,9.2c-2.7,0.2-2.6,2.5-2.9,4.2c-0.2,1.4,1.3,1.2,2.3,1.2
		c2.4,0.1,2.1-1.6,2.2-3.1c-0.2-1.9,0.9-2.4,2.6-2.4c1.1,0,2.6,0.3,2.7-1.4c0.2-2.4,0.1-4.9,0-7.4"/>
	<path class="st0" d="M60.6-6c-2.7,0-5.5,0-8.2,0c-1.1,0-2.3,0.1-2.4,1.5C50-3.2,51.2-3,52.3-3c5.3,0,10.7,0,16,0"/>
	<path class="st0" d="M100.3,25.7c-0.7,1.2-1.1,2.5,0.1,4.1C101.5,28.2,101.3,26.9,100.3,25.7z"/>
	<path class="st0" d="M90.4,97.1c0.1-0.3,0.4-0.7,0.5-1.2c0.1-0.5-0.3-1.1-0.9-0.8c-0.3,0.2-0.4,0.9-0.5,1.3
		C89.5,96.8,89.7,97.1,90.4,97.1z"/>
	<path class="st1" d="M3.9,64.3c-1.7-1.1-0.9-2.6-0.8-4.1c2.8-2.2,0.6-5.3,1.4-7.9c2.6,2.9,3.6,6.6,4.6,10.2c1.4,5.3,4.3,7.7,9,7
		c0.8-0.1,1.5-0.6,2.2-0.5c2,0.1,2.8,1.7,3.3,3.4c0.4,1.3-0.8,1.9-1.9,1.9c-1.8,0-3.3,0.5-3.7,2.2c-0.5,2,1,3.8,2.2,5.1
		c1.7,1.8,4.2,2.2,6.4,0.6c2.2-1.6,0.9-3.1-0.4-4.5c-0.8-0.9-0.9-2.4,0.2-2.6c2.3-0.6,3.6-2.3,5.1-3.8c0.6-0.6,1.4-0.9,2.1-0.3
		c0.7,0.6,0.3,1.4-0.1,2.1c-0.4,0.6-0.7,1.6-1.3,1.9c-2.6,1.5-3.1,3.1-1,5.5c0.6,0.7,0.9,1.7-0.1,2.4c-1.3,0.9-2.4,2-1,3.4
		c1.5,1.5,2.9,0.1,4.1-0.8c1.3-0.9,2.3-3,4.2-2.4c2.6,0.9,3.8-1.1,5.7-1.8c4-1.6,1-3.7,0.9-5.6c0-1,0.2-1.8,0.8-2.5
		c0.6-0.7,1.1-2.2,0.6-2.4c-3.1-1.4-2.4-5.2-4.8-7c-0.6-0.5-1.2-1.1-2-0.7c-0.9,0.4-0.9,1.3-0.8,2c0.4,1.4,1,2.7,1.4,4
		c0.2,0.7,0.3,1.6-0.6,2c-1,0.4-1.1-0.5-1.7-1c-2.3-2.2-2.5-5.7-4.8-7.8c-2.7-2.5-4-5.8-5.1-9c-1.8-5.3,2.4-10.1,7.9-9.2
		c1.1,0.2,2.2,0.7,3.4,1c2.8,0.8,5.4-0.1,6.9-2.3c1.5-2.1-0.7-3.3-2.3-4.5c-1.8-1.3-1.2-2.6,0.5-3.6c2.8-1.6,5.7-3.1,8.3-5
		c2.5-1.9,2.3-3.7-0.5-5c-2-1-3.5-2.5-5.3-3.7c-2.2-1.5-5-3.6-8.1-2.1c-2,1-4.1,1.6-6.2,2.1c-2.3,0.5-4.1,1-4.1,4.1
		c0,1.9-2,2.9-3.6,3.7c-0.9,0.4-1.7,0.6-2.5-0.2c-0.7-0.7-0.9-1.7-0.5-2.5c1.3-2.8,1.9-6.1,5.7-6.8c2-0.4,3.4-2.2,5.6-2.6
		c0.9-0.2,1.8-0.8,1.4-1.9c-0.4-1-1.3-1.2-2.3-0.9c-2.5,0.7-5.1,1.1-7.1,3c-2.3,2.1-3.3,1.6-3.5-1.4c0.7-0.6,1.4-1.1,2-1.7
		c1.7-0.9,3.4-1.9,5.1-2.8c0.3-0.2,0.6-0.5,0.9-0.7C34.6,8.7,39,6,44.3,5.7c0.9,0.1,1.7-0.3,2.3-1c4.5,0,8.9,0,13.3,0.7
		c0.6,1.2,0.2,3.1,2.2,3.4c1,2.1,1.9,4.2,2.9,6.3c-2.2-0.3-4.2-2.1-6.6-0.3c-0.3,0.3-1.2-0.3-1.8-0.3c-4.9-0.1-9.6-2.1-14.5-1.9
		c-1.4,0-2.7,0.2-2.4,2.1c0.2,1.5,1.2,1.7,2.6,1.4c3.6-0.7,7.2-0.7,10.2,2c0.8,0.8,1.9,1.1,2.9,0.7c3.7-1.3,7.5-0.3,11.2-0.9
		c2.5,5.8,4.8,11.8,5.7,18.1c-1.1,0-1.8-0.2-2.2-1.6c-1.3-4.9-3.6-6.3-8.8-6.3c-1.8,0-2.9,0.7-3.7,2.2C53.9,36.4,56,42,62.6,44.1
		c1,0.3,2,0.4,3,0.6c0.9,0.2,1.6,1.1,1,1.6c-2.1,1.9-1.3,3.9-1,6.1c0.5,2.9,0.1,6.2,4.5,6.3c1.2,0,1.3,1,1.4,2
		c0.1,1.3,0.4,2.5,1.6,3.4c0.2,7.7-1.8,14.9-4.9,21.8c-1.5-0.9-1.9-0.2-2.4,1.2c-0.8,2-1.3,4.4-4.6,3.3c-1.7-0.6-1.3,1.1-1.4,2
		c0,3.1,0,6.2,0.1,9.4l0.1-0.1c-0.8,0.2-0.9,0.7-0.9,1.4c-0.8,0.3-1.8-0.3-2.4,0.7c-6.3,0.5-12.5-0.2-18.7-1.2c-0.4-0.4-0.7-1-1.1-1
		c-6.9-1.2-11.9-5.8-17.4-9.6c-0.4-1.2-1.5-0.9-2.3-1.3c-0.2-1.4-1.2-2.1-2.3-2.6c-0.2-0.5-0.5-0.9-0.7-1.4c-2.1-3-4.2-6-6.3-9
		c0-0.2,0.1-0.4,0.3-0.5c0.4-0.1,0.7-0.2,1.1-0.3c0.3,0.3,0.6,0.7,1,1c0.1-0.2,0.2-0.3,0.3-0.5C10,77,9.5,76.9,9.1,76.7
		c0.3-4.2-3-7.4-3.3-11.5C5.8,64.2,4.7,64.3,3.9,64.3z M58.3,49.3c0-1.6-3.9-4.6-5.4-4.6c-1.6,0-2.6,0.9-2.3,2.4
		c0.5,2.4,2.1,4.2,4.6,4.5C56.8,51.8,58.2,51,58.3,49.3z M44.7,53.3c-0.7,0.1-1.6,0.3-1.8,1.4c-0.1,1.1,0.7,1.6,1.7,1.6
		c1,0,1.7-0.6,1.7-1.7C46.5,53.6,45.8,53.3,44.7,53.3z M50.3,60.3c0.7,0,1.5-0.2,1.4-0.9c-0.2-1.2-1.1-2.1-2.5-2c-0.7,0-1,0.7-1,1.4
		C48.2,60.2,49.2,60.3,50.3,60.3z"/>
	<path class="st2" d="M21.6,15.2c0.1,3,1.2,3.6,3.5,1.4c2-1.8,4.6-2.2,7.1-3c1-0.3,1.9-0.1,2.3,0.9c0.4,1.1-0.4,1.7-1.4,1.9
		c-2.1,0.3-3.6,2.2-5.6,2.6c-3.9,0.7-4.5,4-5.7,6.8c-0.4,0.8-0.2,1.8,0.5,2.5c0.8,0.8,1.6,0.6,2.5,0.2c1.7-0.8,3.6-1.8,3.6-3.7
		c0-3,1.8-3.6,4.1-4.1c2.1-0.5,4.2-1.1,6.2-2.1c3.1-1.5,5.9,0.6,8.1,2.1c1.7,1.2,3.2,2.8,5.3,3.7c2.8,1.3,3,3.1,0.5,5
		c-2.6,1.9-5.5,3.3-8.3,5c-1.7,1-2.3,2.3-0.5,3.6c1.6,1.2,3.8,2.4,2.3,4.5c-1.5,2.2-4.1,3.1-6.9,2.3c-1.1-0.3-2.2-0.8-3.4-1
		c-5.5-0.9-9.7,3.8-7.9,9.2c1.1,3.2,2.3,6.5,5.1,9c2.3,2.1,2.5,5.5,4.8,7.8c0.5,0.5,0.7,1.5,1.7,1c0.9-0.4,0.8-1.3,0.6-2
		c-0.4-1.4-1-2.7-1.4-4c-0.2-0.7-0.1-1.6,0.8-2c0.9-0.3,1.4,0.3,2,0.7c2.4,1.8,1.7,5.6,4.8,7c0.6,0.3,0.1,1.7-0.6,2.4
		c-0.6,0.7-0.8,1.6-0.8,2.5c0.1,1.9,3.1,4-0.9,5.6c-1.9,0.7-3.1,2.7-5.7,1.8c-1.9-0.6-2.8,1.4-4.2,2.4c-1.2,0.9-2.7,2.2-4.1,0.8
		c-1.5-1.4-0.3-2.5,1-3.4c0.9-0.7,0.7-1.7,0.1-2.4c-2.1-2.3-1.6-4,1-5.5c0.6-0.3,0.9-1.3,1.3-1.9c0.4-0.7,0.8-1.4,0.1-2.1
		c-0.7-0.6-1.5-0.2-2.1,0.3c-1.5,1.5-2.8,3.2-5.1,3.8c-1.1,0.3-1,1.8-0.2,2.6c1.3,1.4,2.6,2.9,0.4,4.5c-2.2,1.6-4.7,1.2-6.4-0.6
		c-1.2-1.3-2.7-3-2.2-5.1c0.4-1.7,2-2.2,3.7-2.2c1.1,0,2.2-0.5,1.9-1.9c-0.4-1.6-1.3-3.2-3.3-3.4c-0.7-0.1-1.5,0.4-2.2,0.5
		c-4.7,0.7-7.5-1.7-9-7c-1-3.6-1.9-7.3-4.6-10.2c0-1.5,0-3,0-4.5c1.5-0.5,1.8-1.3,0.6-2.5c-0.3-1.6,0.7-3.3-0.8-4.7
		c2.1-8,6.5-14.6,11.8-20.7c1.4-1.7,3.9-2.5,4.7-4.8c0,0,0,0,0,0l0.4-0.1L21.6,15.2z"/>
	<path class="st3" d="M56.6,103.8c0.6-1,1.6-0.4,2.4-0.7c1.1,0.1,0.8-0.8,0.9-1.4c0,0-0.1,0.1-0.1,0.1c4.6-4.3,6.4-10.1,8.3-15.8
		c3.1-6.9,5.1-14.1,4.9-21.8c1.4-9.4,1.9-18.8-1-28.1c-0.9-6.3-3.2-12.3-5.7-18.1c0.1-1.2-0.8-1.9-1.5-2.7c-1-2.1-1.9-4.2-2.9-6.3
		c0-0.7,0-1.5,0-2.2c1.3,0.7,2.6-0.8,4,0.4c1.7,1.5,3.8,2.8,6.4,1.6c0.5,0.2,1,0.4,1.4,0.7c0.1,1.3,5.2,4.9,6.3,4.5
		c0.6-0.2,0.7-0.7,0.7-1.2c0-1-0.1-2-0.2-3c2.8-1.1,4.1,2,6.4,2.2c1.3,0.2,2.5,0.4,3.8,0.6c0.1,1.6-0.8,2.2-2.2,2.5
		c-1.4,0.3-3.1,0.2-3.9,1.9c1.4,2.4,2.5,5.1,5.6,5.9c6.5-1.2,6.9-0.7,6.9,7c-4.4,0.5-1.7,2.4-0.8,3.9c0.3,0.3,0.5,0.5,0.8,0.8
		c0,0,0-0.1,0-0.1c0,2.8,0.5,5.4,3.1,7.1c0,0.2,0,0.4,0,0.5c-0.1,0.5-0.2,0.9-0.3,1.4c0,0.6-0.2,1.3,0,1.9
		c2.2,7.7,1.3,15.2-1.2,22.6c-1-1.8-1.1-3.7-0.3-5.6c1.3-3,1.1-6.1,1.1-9.2c0-1.6-0.3-3.1-2.1-3.1c-2.5,0-2.7-1.4-2.6-3.3
		c0.1-1.5-0.4-2.8-1.5-3.8c0.7-3.8-2.5-7.2-1.2-11.3c-1.1,3.1-3.1,3.9-5.9,3.5c-2-3.9,0.2-4.8,3.9-4.7c-1.8-0.6-2.8-2.5-4.3-1.9
		c-1.5,0.6-2.8,1.1-4.4,1.1c-5.5,0-7.3,2.9-4.9,8.9c0.4-2.8,0.5-5.2,3.2-6.3c0.4,3.2-2.2,5.5-2.1,8.3c-1.9-0.1-2.7,0.7-2.1,2.5
		c0.5,1.5,0.6,3,0.6,4.5c-1.2,0.8-0.2,1.6,0,2.4c-0.3,2.1-0.5,4.2-0.8,6.2c0.3,1.4-0.9,3.4,1.5,3.9c-0.8,2.6,2.1,5.2,0,7.8
		c-2.1,0.2-1.4,1.9-1.6,3.1c-0.2,0.3-0.4,0.6-0.6,0.8c0,0,0.2,0.1,0.3,0.2c0.1-0.3,0.2-0.7,0.3-1c2.3,0.4,0.9,1.4,0.5,2.4
		c-0.8,1.8-0.7,1.9,1.1,2.3c1.2,0.1,1.4,0.7,1.1,1.9c-0.5,2-0.8,4-1.1,6C76.9,85.1,77.4,86,79,86c1.3,0,1.6-0.4,1.6-1.9
		c-0.1-1.9,1.2-2.9,3.1-3.7c2.5-1.1,5.8-2.1,5.1-6.1c0.3-0.3,0.5-0.5,0.8-0.8c0.8-0.3,1.6-0.5,2.3-0.8c0.3,1.1-0.6,3.1,1.3,2.8
		c1.8-0.3-0.1-1.9,0.3-2.8c0.1-0.2,0-0.5,0-0.7c2.2-0.3,2.7-3.2,5.1-3.1c0.1,0.7,0.2,1.3,0.3,2c0,0.4,0,0.8,0,1.2
		c-1.7,0-2,1.1-2.5,2.5c-0.8,2.4-1.8,4.7-3.7,6.6c-1.1,1.1-2,2.4-1.6,4.2c0,0,0,0,0,0c-1-0.1-1.5,0.5-1.9,1.3
		c-1.2,1.2-2.5,2.3-3.2,3.9c-3.3,0.9-5.2,4-8.2,5.4c-2.3,1.1-4.2,3.2-6.2,4.9c-0.2,0-0.5,0-0.7,0.1c-2.5-0.7-4.4,1-6.5,1.5
		c-1.1,0.2-2.8-0.5-2.9,1.6C59.8,105.2,58.2,105.3,56.6,103.8z M79.9,21.1c-0.1-1.9-1.7-2.5-3-2.8c-1.7-0.4-3.2-1.1-4.2-2.4
		c-0.6-0.8-0.8-2.2-2.2-1.2c-0.9,0.7-1.6,2-0.8,3.1c1,1.5,1.2,3,1.2,4.7c0,1.8,1.3,3.2,2.8,3.1c1.9-0.1,0.5-1.8,0.6-2.7
		c0.1-1,0.7-1.6,1.6-2c0.8-0.3,1.1,0.3,1.2,1c0.2,0.9-0.3,2.4,1.4,2.2C79.9,23.9,79,22.1,79.9,21.1z M81,23.8c-0.1,0-0.2,0-0.3,0.1
		c0,0,0,0.2,0.1,0.3c0.1,0,0.2,0,0.3-0.1C81.1,24.1,81.1,23.9,81,23.8z M76.5,15.5c-0.2-0.1-0.4-0.1-0.5-0.2c0,0.1,0.1,0.2,0.1,0.3
		C76.2,15.6,76.3,15.5,76.5,15.5z"/>
	<path class="st3" d="M45.2,113c0-1.3,1.1-1.1,2-1.3c3.3-0.6,6.6-1,10-0.8c1.7,0.1,2.6-0.5,2.6-2.4c0-2-1.1-2.2-2.8-2.3
		c-3.1-0.2-6.2,0.5-9.2,0.7c0-0.5,0-1,0-1.4c4.1,0,8.3,0,12.4,0c1.3,0,3,0.7,3.5-1.4c1.4-0.3,2.8-0.2,3.9,0.8c1.6,1,3.4,1.4,5.1,1.4
		c2.4,0,2.7,1.2,2.7,3.2c0,2.3-1.4,2.7-3,2.3c-4.1-1.1-7,2-10.6,2.5c-0.6,0.1-1,0.5-1,1"/>
	<path class="st4" d="M59.9,5.5C55.5,4.8,51,4.8,46.5,4.8c-0.6-0.8-1.4-0.5-2.2-0.6c-1.3-1.1-1-1.7,0.5-2.4c6.8-3,14-2.2,21.1-2.3
		c4.9,0,4.9,0,4.6,4.8C66.9,3.9,63.3,4.2,59.9,5.5z"/>
	<path class="st4" d="M19.4,92c5.5,3.7,10.5,8.3,17.4,9.6c0.4,0.1,0.7,0.7,1.1,1c-2.6,3.4-5.2,5.9-9.5,1.7c-1.5-1.5-4.2,0.3-6.6-1.7
		c-2.3-1.9-2.7-3.5-2.6-5.9C19.3,95,19.4,93.5,19.4,92z"/>
	<path class="st4" d="M68.2-3c-5.3,0-10.7,0-16,0c-1.1,0-2.3-0.2-2.2-1.6C50.1-5.9,51.4-6,52.4-6c2.7,0,5.5,0,8.2,0"/>
	<path class="st5" d="M98.8,70.8c-0.1-0.7-0.2-1.3-0.3-2c0.1-0.3,0.2-0.5,0.3-0.8c2.5-7.4,3.5-14.9,1.2-22.6c-0.2-0.6,0-1.2,0-1.9
		c0.4,0.1,0.8,0.2,1.2,0.3c2.1,2.2,4.5,3.9,1.3,7.6c-1.1,1.3-0.3,5.1-0.4,7.8c-0.1,2.6,0.1,5.1,0.4,7.7
		C102.9,69.9,101.7,71.2,98.8,70.8z"/>
	<path class="st6" d="M44.3,5.7C39,6,34.6,8.7,29.7,10c-0.6-6.1-0.6-6.2,5.4-5.9c3.1,0.1,6.1,1.1,9.2,0.8
		C44.3,5.2,44.3,5.5,44.3,5.7z"/>
	<path class="st7" d="M111.2,21.1c0.1,2.5,0.2,4.9,0,7.4c-0.1,1.7-1.6,1.4-2.7,1.4c-1.7-0.1-2.8,0.4-2.6,2.4
		c-1.6-0.1-1.6-1.2-1.6-2.3c-0.1-4,4.3-5.6,4.9-9.2"/>
	<path class="st3" d="M84,93.9c0.9,2.5,1.6,5.2,5.3,4.7c1.3-0.2,1.8,0.8,1.7,2c-0.1,1.2,0.6,2.8-1.2,3.3c-1.3,0.3-2.8,0.5-3.9-0.8
		c-0.8-1-0.9-2.8-2.7-2.9c0-0.5,0-1,0-1.5c1.7-1.7-1.4-2.5-0.8-4C82.8,93.9,83.4,93.9,84,93.9z"/>
	<path class="st8" d="M59.9,5.5c3.5-1.3,7.1-1.6,10.7-1.2c0.1,1.7-0.1,3.6,1.9,4.5c-2.6,1.2-4.6-0.2-6.4-1.6c-1.4-1.2-2.8,0.3-4-0.4
		c0,0.7,0,1.5,0,2.2C60.1,8.6,60.5,6.7,59.9,5.5z"/>
	<path class="st6" d="M7.8,77.6c2.1,3,4.2,6,6.3,9c-1.4,0.7-0.9,2.3-1.3,3.6C8.8,86.8,6.7,82.8,7.8,77.6z"/>
	<path class="st8" d="M84,93.9c-0.6,0-1.2,0-1.6,0.6c-0.3,0.3-0.5,0.6-0.8,0.9c-1.6,0.8-2.4,2-2.5,3.8c-1.1-0.1-1.8,0.3-2.5,1.2
		c-1.4,2-3.3,1.3-5.1,0.4c2.1-1.7,3.9-3.7,6.2-4.9c3-1.5,4.9-4.5,8.2-5.4c0.1,0.3,0.2,0.6,0.4,1C85.6,92.3,84.8,93.1,84,93.9z"/>
	<path class="st6" d="M28.7,10.7c-1.7,0.9-3.4,1.9-5.1,2.8c-1.3,0-2.8-0.4-2.8,1.7c0,0,0,0,0,0c-1.8-1-2-2.7-1.5-4.4
		c0.5-2,2.3-1.3,3.6-1.2C24.9,9.7,27.2,8.6,28.7,10.7z"/>
	<path class="st8" d="M91,85.3c-0.3-1.7,0.6-3.1,1.6-4.2c1.9-1.9,2.9-4.2,3.7-6.6c0.5-1.3,0.8-2.5,2.5-2.5
		C98.8,78,95.7,82.1,91,85.3z"/>
	<path class="st5" d="M67.7,104.8c-1.2-1-2.5-1.1-3.9-0.8c-0.8-0.1-1.5-0.1-2.3-0.2c0.2-2,1.9-1.3,2.9-1.6c2.2-0.5,4.1-2.2,6.5-1.5
		C70.6,102.8,70,104.6,67.7,104.8z"/>
	<path class="st5" d="M80.7,9.7c0.1,1,0.2,2,0.2,3c0,0.5-0.1,1-0.7,1.2c-1.1,0.4-6.2-3.2-6.3-4.5C76.2,9.5,78.4,9.6,80.7,9.7z"/>
	<path class="st9" d="M9.1,76.7C8.8,76.8,8.4,76.9,8,77c0,0,0,0,0,0c0.4-1,0.2-1.7-0.9-1.9c-1.6-1.3-1.5-3-1.4-4.8
		c0.4-1.1,0.2-1.9-1.1-2.2c-0.2-1.3-0.4-2.5-0.6-3.8c0.8,0,1.8-0.1,1.9,0.9C6.1,69.2,9.4,72.4,9.1,76.7C9.1,76.7,9.1,76.7,9.1,76.7z
		"/>
	<path class="st9" d="M4.6,47.9c0,1.5,0,3,0,4.5c-0.9,2.6,1.3,5.7-1.4,7.9c-0.5-4.4-0.5-8.8,0-13.2C3.8,47.1,4.3,47.3,4.6,47.9z"/>
	<path class="st3" d="M104.3,29.9c0,1.1,0,2.3,1.6,2.3c0,1.5,0.2,3.2-2.2,3.1c-1-0.1-2.5,0.2-2.3-1.2
		C101.7,32.4,101.6,30.1,104.3,29.9z"/>
	<path class="st5" d="M90.4,22.8c-3.1-0.8-4.2-3.5-5.6-5.9c0.4,0.1,0.7,0.2,1.1,0.3C90.7,17.6,90.8,17.7,90.4,22.8z"/>
	<path class="st8" d="M100.4,41.6c-2.6-1.7-3.1-4.3-3.1-7.1C99.3,36.4,101.2,38.4,100.4,41.6z"/>
	<path class="st5" d="M86.4,91.4c-0.1-0.3-0.2-0.6-0.4-1c0.7-1.6,2-2.7,3.2-3.9c0.4,0.1,0.9,0.2,1.3,0.3
		C90.9,89.9,90.2,92.1,86.4,91.4z"/>
	<path class="st7" d="M79.2,99.2c0.1-1.8,0.9-3.1,2.5-3.8c-0.1,1.3,0.2,2.5,1.6,3.2c0,0.5,0,1,0,1.5c-0.2,1.1-0.7,2-1.5,0.4
		C81.2,99.3,80.2,99.4,79.2,99.2z"/>
	<path class="st5" d="M96.5,33.7c-0.9-1.5-3.6-3.4,0.8-3.9c1.2,1.3,0.5,2.6-0.1,3.9C97,33.7,96.8,33.7,96.5,33.7z"/>
	<path class="st8" d="M91,12.5c-1.3-0.2-2.5-0.4-3.8-0.6c-0.2-1.5,0.2-2.5,2-2.4C91.2,9.6,91.1,11.1,91,12.5z"/>
	<path class="st1" d="M4.6,47.9c-0.3-0.6-0.8-0.8-1.4-0.9c-0.2-1.4-0.4-2.8,0.9-3.8c0.4,0.7,0.7,1.5,1.1,2.2
		C6.4,46.6,6,47.4,4.6,47.9z"/>
	<path class="st3" d="M100.3,25.7c1,1.3,1.1,2.5,0.1,4.1C99.3,28.2,99.7,26.9,100.3,25.7z"/>
	<path class="st6" d="M14.8,88c1.2,0.5,2.1,1.2,2.3,2.6C13.9,91.9,13.8,90.5,14.8,88z"/>
	<path class="st3" d="M90.4,97.1c-0.8,0.1-0.9-0.3-0.9-0.6c0.1-0.5,0.2-1.2,0.5-1.3c0.6-0.3,0.9,0.3,0.9,0.8
		C90.9,96.3,90.6,96.7,90.4,97.1z"/>
	<path class="st9" d="M5.2,45.4c-0.4-0.7-0.7-1.5-1.1-2.2c0.1-0.8,0.2-1.6,0.3-2.5C5.9,42.1,4.9,43.9,5.2,45.4z"/>
	<path class="st8" d="M44.3,5.7c0-0.3,0-0.5,0-0.8c0-0.3,0-0.5,0.1-0.8c0.8,0.1,1.6-0.2,2.2,0.6C45.9,5.4,45.2,5.8,44.3,5.7z"/>
	<path class="st8" d="M90.5,86.8c-0.4-0.1-0.9-0.2-1.3-0.3c0.4-0.8,0.9-1.4,1.9-1.3C90.9,85.8,90.7,86.3,90.5,86.8z"/>
	<path class="st8" d="M101.2,43.9c-0.4-0.1-0.8-0.2-1.2-0.3c0.1-0.5,0.2-0.9,0.3-1.4C101.1,42.5,102.3,42.7,101.2,43.9z"/>
	<path class="st1" d="M7.1,75.1C8.2,75.3,8.4,76,8,77C6.8,76.8,6.8,76,7.1,75.1z"/>
	<path class="st1" d="M4.5,68.1c1.3,0.2,1.5,1.1,1.1,2.2C5.1,69.6,4.2,69.1,4.5,68.1z"/>
	<path class="st8" d="M96.5,33.7c0.2,0,0.5,0,0.7,0c0,0.3,0.1,0.5,0.1,0.8C97.1,34.3,96.8,34,96.5,33.7z"/>
	<path class="st10" d="M72.2,36.1c2.9,9.3,2.3,18.7,1,28.1c-1.1-0.8-1.5-2.1-1.6-3.4c-0.1-0.9-0.2-2-1.4-2c-4.4-0.1-4-3.4-4.5-6.3
		c-0.4-2.2-1.2-4.2,1-6.1c0.6-0.5-0.1-1.4-1-1.6c-1-0.2-2-0.3-3-0.6c-6.6-2.1-8.7-7.7-5.2-13.7c0.8-1.4,1.9-2.2,3.7-2.2
		c5.2,0,7.5,1.4,8.8,6.3C70.3,35.9,71.1,36,72.2,36.1z"/>
	<path class="st10" d="M65,15.2c0.6,0.8,1.6,1.5,1.5,2.7c-3.7,0.6-7.5-0.3-11.2,0.9c-1,0.3-2.1,0-2.9-0.7c-3-2.7-6.6-2.8-10.2-2
		c-1.4,0.3-2.3,0.1-2.6-1.4c-0.3-1.9,1-2,2.4-2.1c4.9-0.1,9.6,1.9,14.5,1.9c0.6,0,1.5,0.6,1.8,0.3C60.8,13.1,62.8,15,65,15.2z"/>
	<path class="st9" d="M68.2,86c-1.8,5.8-3.7,11.5-8.3,15.8c0-3.1-0.1-6.2-0.1-9.4c0-0.9-0.3-2.6,1.4-2c3.3,1.1,3.8-1.3,4.6-3.3
		C66.4,85.8,66.8,85,68.2,86z"/>
	<path class="st2" d="M58.3,49.3c0,1.6-1.5,2.4-3.1,2.3c-2.5-0.3-4.1-2.1-4.6-4.5c-0.3-1.5,0.8-2.4,2.3-2.4
		C54.4,44.7,58.3,47.8,58.3,49.3z"/>
	<path class="st2" d="M44.7,53.3c1.1,0,1.8,0.3,1.7,1.3c-0.1,1-0.8,1.6-1.7,1.7c-1,0-1.8-0.4-1.7-1.6C43.1,53.6,44,53.4,44.7,53.3z"
		/>
	<path class="st2" d="M50.3,60.3c-1.1,0-2.1-0.1-2.1-1.6c0-0.7,0.3-1.4,1-1.4c1.3,0,2.2,0.8,2.5,2C51.8,60.1,51,60.3,50.3,60.3z"/>
	<path class="st0" d="M20.9,15.2c0-2.1,1.5-1.7,2.8-1.7c-0.7,0.6-1.4,1.1-2,1.7c0,0-0.4-0.1-0.4-0.1L20.9,15.2z"/>
	<path class="st9" d="M9.1,76.7c0.4,0.2,0.8,0.4,1.2,0.6c-0.1,0.2-0.2,0.3-0.3,0.5C9.8,77.4,9.4,77,9.1,76.7
		C9.1,76.7,9.1,76.7,9.1,76.7z"/>
	<path class="st9" d="M60,101.7c-0.2,0.6,0.1,1.4-0.9,1.4C59.1,102.4,59.3,101.9,60,101.7z"/>
	<path class="st11" d="M98.8,68.1c-0.1,0.3-0.2,0.5-0.3,0.8c-2.4,0-3,2.8-5.1,3.1c-0.7,0-1.2,0.1-1.6,0.8c-0.8,0.3-1.6,0.5-2.3,0.8
		c-0.1-1.5,1-2.4,1.6-3.5c1.8-3.4-0.3-8.2,3.6-11.1c-1.2-3.3-3.2-5.9-6.3-7.5c-2.6-1.4-1.7,2.2-3.3,2.8c-1.2,0.4-2.6,1.6-3.6,0.9
		c-1.4-0.9,0.4-1.9,0.6-3c0.5-2,0.9-4.1-0.8-5.8c-0.5-0.6-1.3-1.2-0.9-2c1.6-3.1-0.8-3.1-2.7-3.5c-0.1-2.9,2.5-5.1,2.1-8.3
		c-2.7,1.1-2.8,3.5-3.2,6.3c-2.4-6-0.6-8.9,4.9-8.9c1.6,0,2.9-0.5,4.4-1.1c1.5-0.7,2.6,1.3,4.3,1.9c-3.7-0.1-5.8,0.8-3.9,4.7
		c-0.5,0.9-1,1.9,0.1,2.7c0.7,0.6,1.3,0.9,0.6,2.1c-1.7,2.7-0.7,5.4,1.7,6.5c3,1.5,3.5-1.8,4.7-3.6c1.2,1,1.6,2.3,1.5,3.8
		c-0.1,1.9,0.1,3.3,2.6,3.3c1.9,0,2.1,1.5,2.1,3.1c0,3.1,0.2,6.2-1.1,9.2C97.7,64.3,97.9,66.2,98.8,68.1z M91.3,49.1
		c0,0.1-0.1,0.2-0.1,0.3c0.1,0,0.3,0,0.4,0c0-0.1,0-0.2-0.1-0.3C91.5,49.1,91.4,49.1,91.3,49.1z"/>
	<path class="st12" d="M77.8,40.8c1.8,0.4,4.3,0.3,2.7,3.5c-0.4,0.8,0.4,1.4,0.9,2c1.7,1.8,1.3,3.8,0.8,5.8c-0.3,1-2,2-0.6,3
		c1,0.7,2.4-0.5,3.6-0.9c1.5-0.5,0.7-4.1,3.3-2.8c3,1.6,5.1,4.3,6.3,7.5c-3.8,2.9-1.7,7.7-3.6,11.1c-0.6,1.2-1.6,2.1-1.6,3.5
		c-0.3,0.3-0.5,0.5-0.8,0.8c-2.7,0.1-3.9-1.2-3.9-3.9c0,0,0,0,0,0c1.6-0.2,1.6-1.4,1.5-2.5c-0.1-1.4-1.3-1.3-2.3-1.4
		c-0.2,0-0.5,0-0.7,0c-0.2-1.5-1-3.1-0.6-4.5c0.8-3.2-0.7-3.9-3.3-4.1c0-0.5,0-1-0.1-1.5c0.7-2.6,0.1-4.8-2.3-6.2
		c1.3-1.3,0.9-2-0.8-2.4c0-1.5,0-3-0.6-4.5C75.1,41.5,75.9,40.7,77.8,40.8z"/>
	<path class="st11" d="M84.8,70.4c0,2.6,1.2,4,3.9,3.9c0.7,4-2.5,5.1-5.1,6.1c-1.9,0.8-3.2,1.8-3.1,3.7c0.1,1.4-0.2,1.9-1.6,1.9
		c-1.6,0-2.1-0.9-1.9-2.2c0.3-2,0.6-4.1,1.1-6c0.3-1.2,0.1-1.7-1.1-1.9c-0.1-2.8,3-3.4,3.9-5.5C82.2,70.4,83.5,70.4,84.8,70.4z"/>
	<path class="st12" d="M93.4,43.1c-1.2,1.7-1.7,5-4.7,3.6c-2.4-1.2-3.4-3.9-1.7-6.5c0.8-1.2,0.2-1.6-0.6-2.1
		c-1.1-0.9-0.6-1.8-0.1-2.7c2.7,0.4,4.8-0.4,5.9-3.5C90.9,36,94.1,39.3,93.4,43.1z"/>
	<path class="st11" d="M79.9,21.1c-0.8,1,0,2.8-1.5,3c-1.6,0.2-1.2-1.3-1.4-2.2c-0.1-0.7-0.4-1.3-1.2-1c-0.9,0.3-1.5,1-1.6,2
		c-0.1,1,1.3,2.7-0.6,2.7c-1.5,0.1-2.7-1.4-2.8-3.1c0-1.7-0.2-3.3-1.2-4.7c-0.8-1.1-0.1-2.4,0.8-3.1c1.3-1,1.5,0.4,2.2,1.2
		c1.1,1.3,2.5,2,4.2,2.4C78.1,18.6,79.8,19.3,79.9,21.1z"/>
	<path class="st12" d="M80.9,70.4c-0.9,2.1-4,2.7-3.9,5.5c-1.8-0.4-1.9-0.5-1.1-2.3c0.4-1,1.8-2-0.5-2.4l0,0
		c0.2-1.2-0.5-2.9,1.6-3.1c0.1,0.7-0.3,1.7,0.7,1.9c0.9,0.1,0.6-0.9,0.8-1.4c0.2-0.4,0.5-0.8,0.8-1.2C79.8,68.4,81,69.1,80.9,70.4z"
		/>
	<path class="st7" d="M77,50.1c2.4,1.5,3,3.6,2.3,6.2c-0.8,0-1.7-0.1-2.3,0.8c-0.5-0.3-1-0.5-1.5-0.8c0.3-2.1,0.5-4.2,0.8-6.2
		c0,0,0.4,0,0.4,0L77,50.1z"/>
	<path class="st13" d="M79.3,67.3c-0.3,0.4-0.6,0.8-0.8,1.2c-0.2,0.5,0,1.5-0.8,1.4c-1-0.1-0.6-1.2-0.7-1.9c2.1-2.6-0.8-5.2,0-7.8
		c0,0,0,0,0,0C79.4,62.1,78.6,64.9,79.3,67.3z"/>
	<path class="st12" d="M91.8,72.8c0.3-0.6,0.9-0.8,1.6-0.8c0,0.3,0.1,0.5,0,0.7c-0.3,1,1.5,2.6-0.3,2.8
		C91.2,75.9,92.1,73.8,91.8,72.8z"/>
	<path class="st13" d="M75.5,56.4c0.5,0.3,1,0.5,1.5,0.8c0,1,0,2.1,0,3.1c0,0,0,0,0,0C74.5,59.8,75.8,57.8,75.5,56.4z"/>
	<path class="st11" d="M77,50.1l-0.4,0c0,0-0.4,0-0.4,0c-0.2-0.8-1.2-1.6,0-2.4C77.9,48.1,78.3,48.8,77,50.1z"/>
	<path class="st12" d="M75.5,71.2c-0.1,0.3-0.2,0.7-0.3,1C75,72.2,74.9,72,74.9,72C75,71.8,75.2,71.5,75.5,71.2
		C75.4,71.2,75.5,71.2,75.5,71.2z"/>
	<path class="st11" d="M81,23.8c0,0.1,0.1,0.3,0.1,0.3c-0.1,0.1-0.2,0.1-0.3,0.1c0-0.1-0.1-0.3-0.1-0.3C80.8,23.9,80.9,23.8,81,23.8
		z"/>
	<path class="st11" d="M76.5,15.5c-0.2,0.1-0.3,0.1-0.4,0.1c0-0.1-0.1-0.2-0.1-0.3C76.2,15.4,76.3,15.4,76.5,15.5z"/>
	<path class="st0" d="M83.2,98.6c-1.4-0.6-1.6-1.8-1.6-3.2c0.3-0.3,0.5-0.6,0.8-0.9C81.9,96,84.9,96.8,83.2,98.6z"/>
	<path class="st12" d="M91.3,49.1c0.1,0,0.2,0,0.2,0c0.1,0.1,0,0.2,0.1,0.3c-0.1,0-0.3,0-0.4,0C91.3,49.3,91.3,49.2,91.3,49.1z"/>
	<path class="st3" d="M77,60.3c0-1,0-2.1,0-3.1c0.6-0.9,1.5-0.8,2.3-0.8c0,0.5,0,1,0.1,1.5c0,0.5-0.2,1.2,0,1.5
		c1.4,2.3,0.1,6.1,3.9,7.1c0.2,0,0.5,0,0.7,0c0.7,1.2,0.9,2.5,0.8,3.9c0,0,0,0,0,0c-1.3,0-2.6,0-3.9,0c0.1-1.3-1.1-2-1.6-3.1
		C78.6,64.9,79.4,62.1,77,60.3z"/>
	<path class="st13" d="M83.3,66.5c-3.8-1-2.5-4.8-3.9-7.1c-0.2-0.4,0-1,0-1.5c2.6,0.2,4.1,1,3.3,4.1C82.3,63.4,83,65,83.3,66.5z"/>
	<path class="st13" d="M84.8,70.4c0.1-1.4,0-2.7-0.8-3.9c1,0.1,2.1,0,2.3,1.4C86.4,69.1,86.4,70.3,84.8,70.4z"/>
</g>
<g>
	<path class="st14" d="M90.8,126.5H15c-2.2,0-4-1.8-4-4v-23c0-2.2,1.8-4,4-4h75.8c2.2,0,4,1.8,4,4v23
		C94.8,124.7,93,126.5,90.8,126.5z"/>
	<g>
		<path class="st15" d="M31.9,113c-0.1-2-0.1-4.4-0.1-6.8h-0.1c-0.5,2.1-1.2,4.4-1.8,6.4l-2,6.4H25l-1.8-6.4
			c-0.5-1.9-1.1-4.3-1.5-6.4l0,0c-0.1,2.2-0.2,4.8-0.3,6.8l-0.3,6.3h-3.4l1.1-16.5h5l1.6,5.5c0.5,1.9,1,4,1.4,5.9h0.1
			c0.5-1.9,1-4.1,1.6-5.9l1.8-5.5h4.9l0.9,16.5h-3.6L31.9,113z"/>
		<path class="st15" d="M53.7,110.9c0,5.4-3.3,8.7-8.1,8.7c-4.9,0-7.7-3.7-7.7-8.4c0-4.9,3.2-8.6,8-8.6
			C51,102.6,53.7,106.3,53.7,110.9z M41.8,111.1c0,3.2,1.5,5.5,4,5.5s4-2.4,4-5.6c0-3-1.4-5.5-4-5.5
			C43.3,105.5,41.8,107.9,41.8,111.1z"/>
		<path class="st15" d="M71.2,110.9c0,5.4-3.3,8.7-8.1,8.7c-4.9,0-7.7-3.7-7.7-8.4c0-4.9,3.2-8.6,8-8.6
			C68.5,102.6,71.2,106.3,71.2,110.9z M59.3,111.1c0,3.2,1.5,5.5,4,5.5c2.5,0,4-2.4,4-5.6c0-3-1.4-5.5-4-5.5
			C60.8,105.5,59.3,107.9,59.3,111.1z"/>
		<path class="st15" d="M73.7,119.3v-16.5H78l3.4,6c1,1.7,2,3.8,2.7,5.6h0.1c-0.2-2.2-0.3-4.4-0.3-6.9v-4.8h3.4v16.5h-3.9l-3.5-6.4
			c-1-1.8-2.1-3.9-2.9-5.8h-0.1c0.1,2.2,0.1,4.5,0.1,7.2v5h-3.3V119.3z"/>
	</g>
</g>
</svg>
