<?xml version="1.0" encoding="utf-8"?>
<!-- Generator: Adobe Illustrator 25.0.0, SVG Export Plug-In . SVG Version: 6.00 Build 0)  -->
<svg version="1.1" id="Layer_1" xmlns="http://www.w3.org/2000/svg" xmlns:xlink="http://www.w3.org/1999/xlink" x="0px" y="0px"
	 width="105.5px" height="129px" viewBox="0 0 105.5 129" style="enable-background:new 0 0 105.5 129;" xml:space="preserve">
<style type="text/css">
	.st0{fill:#FCFCFC;}
	.st1{fill:#2D3C44;}
	.st2{fill:#495C64;}
	.st3{fill:#F2F5F4;}
	.st4{fill:#F8F4EC;}
	.st5{fill:#DDE2E3;}
	.st6{fill:#A5B0B2;}
	.st7{fill:#EBEDEE;}
	.st8{fill:#252D32;}
	.st9{fill:#B7C0C4;}
	.st10{fill:#D0D7D8;}
	.st11{fill:#E5E8EA;}
	.st12{fill:#4B5D65;}
	.st13{fill:#E9E0DB;}
	.st14{fill:#F7F4EC;}
	.st15{fill:#48A6DD;}
	.st16{fill:#FFFFFF;}
</style>
<g>
	<path class="st0" d="M88.5,6.5c-1.8-0.1-2.3,0.8-2,2.4c-1,3.6-3.8,2.8-6.3,2.4c-0.1-0.3,0-0.5,0.1-0.8c1.6-0.3,3.4-1.2,3.3-2.6
		c-0.2-2.1-2.4-1.2-3.8-1.4c-0.1,0-0.3,0-0.4,0c-2.1,0-4.2,0-6.3,0c-0.4,0-0.8,0-1.2,0c0,0,0,0,0,0c-1.2-1.6-2.5-3.1-2.2-5.4
		c-0.1-2.1,0.4-4.8-2.9-4.8c-5.2-0.1-10.5,0-15.7,0c-1.3,0-2.3,0.2-2.4,1.9c-0.1,1.9,1.1,2,2.5,2.1c1.3,0.1,3-0.8,3.7,1.2
		c-4.7,0.1-9.5,0.2-14.1,1.1c-1.1-1.2-1.9-1.1-2.4,0.5c-3.9,1.5-7.9,3.1-11.8,4.6C25.2,5.3,22.9,7,21,6.7c-1-0.2-2.6-0.4-2.8,1.2
		c-0.3,1.5-0.4,3.2,1.8,3.5c-2.7,4.4-6.8,7.7-10,11.7c-1.1,0.1-1.6,0.7-1.4,1.8c-0.4,0.7-0.7,1.4-1.1,2.1c-1.7,0.7-4.7-1.5-5.2,1.7
		c-0.4,2.3-0.8,5,1.4,7c-0.3,0.8-0.5,1.6-0.8,2.3c-2.3,8.5-2.3,17-0.4,25.6c2.3,10.5,7.6,19.1,15.5,26.2c0,1.8-0.1,3.7-0.1,5.5
		c0,4.5,1.9,6.4,6.4,6.5c1,0,2.2-0.1,3.1,0.3c5.6,2.7,5.6,2.7,9.3-1.7c1.6,0.1,3.3-0.5,4.7,0.7c0.2,1.1,0.5,1.9,1.6,0.6
		c1.8-0.1,3.7-0.1,5.5-0.2c1.6,0,3.1,0,4.7,0c1.6,0.3,3.2,0.3,4.7-0.1c1.3-0.1,0.8-1.2,1-1.9L59,99.6c2.8-2,4.1-5.1,5.5-8.1
		c1.2-2.6,1-5.6,2.8-7.9c1.7-3.2,3.4-6.3,3.1-10.1c0.1-0.3,0.1-0.5,0.2-0.8c0.6-0.5,0.4-1.2,0.3-1.9c0.3-0.2,0.7-0.4,1-0.6
		c3.1,0.3,1.9,3.5,3.4,4.9c-0.3,0.9,0.6,2.1-0.9,2.6c-4.2,1.4-3.9,6-5.7,8.9c-0.8,1.3-2.5,5,0.3,7.3c-0.2,1.8,0.8,2.5,2.5,2.5
		c-3.2,2.6-7.8,2.1-11.2,4.9c5.7,1.8,15.6-1.6,22.1-7.4c2.5,0.4,4.9,0.8,8,1.3c-2.1-2.9-5.4-1.7-7.2-3.6c2,0.2,2.4-2.6,4.4-2.4
		c2.1,0.2,2.8-0.9,2.5-2.8c-0.3-2.3,0.5-4,2.6-5.1c3.5,0.8,5.1-1.9,5.1-4.2c0-2.8,1.5-5.5,0.3-8.3c2.4,0.1,3.4-0.9,3.3-3.5
		c-0.1-3.6-0.6-7.3,0.6-10.8c0.2,0.3,0.6,0.6,0.7,0.9c0.4,0.8,0,2.4,1.6,2c1.1-0.3,0.8-1.5,0.9-2.3c0-2.4,0-4.8,0-7.4
		c-1.8,0.4-1.7,2.4-3.2,2.1c0.3-1.6,0.6-3.2,1-4.8c2.3-0.6,1.8-2.8,1.2-3.7c-1.1-1.6-3-2.8-4.6-4.1c-0.8-2.9-2.7-5.5-2.4-8.7
		c3.5-1.3,1.4-4.3,1.7-6.4c0.5-3.6-3.4-3.8-5.2-5.1c-2.1-1.4-1.3,2.4-2.6,3.3c-0.4,0.4-0.8,0.7-1.2,1.1c-0.1-0.4-0.2-0.8-0.4-1.2
		c0.9-5.7,0.5-6-5.5-5.9l0,0c0.8-3.3,4.1-1.6,6.2-2.9c-0.6-1.1-2.3-1-2.2-2.5c0.8-0.1,1.9,0.9,2.2-0.5"/>
	<path class="st0" d="M113.4,42.2c1-2.5-1.4-1.5-2.5-1.9c-1.1-1.2-2.3-0.8-2.8,0.4c-0.9,2.1-2,4.4-0.6,6.6c0.8,1.2,2.2,1.2,3.4,0.2
		C116.3,48.1,112.7,44,113.4,42.2"/>
	<path class="st0" d="M63.4,111.8c2.2-3.1,5.1-1.8,7.8-2.1c0.5-0.1,1,0,1.6,0c1,0,1.8-0.4,1.8-1.6c0-1.2-0.8-1.5-1.8-1.5
		c-4,0-8,0-12,0c-1.7,0-1.8,1.1-1.8,2.4c-0.8,0-1.6,0-2.4,0c0.2-1.6-0.4-2.4-2.1-2.4c-1.8,0-2.7,0.5-2.5,2.4
		c-2.7-0.1-5.3,1.2-8.1,0.8c-0.8-0.1-2-0.1-1.9,1.3"/>
	<path class="st0" d="M113.7,67.9c-4.1-0.2-3.9,2.9-4.3,5.2c-0.5,3,2,2.7,4.3,2.8"/>
	<path class="st0" d="M105.4,63.3c-1.8-0.2-2.4,0.7-2.4,2.5c0,1.8,0.7,2.9,2.7,3c1.8,0,2.6-1.2,2.7-2.7
		C108.4,64.4,107.5,63.1,105.4,63.3z"/>
	<path class="st0" d="M86.2,99.3c0.8-0.2,1.1-0.7,0.9-1.4c-0.3-1-0.5-2.1-1.8-2.2c-0.8,0-1.1,0.7-0.7,1.3
		C84.9,97.9,84.7,99.3,86.2,99.3z"/>
	<path class="st1" d="M71,70.8c0.1,0.7,0.3,1.3-0.3,1.9c-0.6,0.1-0.9,0.3-0.2,0.8c0.3,3.8-1.5,7-3.1,10.1c-0.6-0.2-1.5-0.9-1.7-0.2
		c-1.9,5.5-8.5,9.2-6.6,16.2c0,0,0.1-0.1,0.1-0.1c-0.9,0.3-0.9,1.1-1,1.9c-1.6,0.4-3.1,0.4-4.7,0.1c-1.6-2-3.1-2-4.7,0
		c-1.8,0.1-3.7,0.1-5.5,0.2c-0.5-0.2-1.1-0.4-1.6-0.6c-1.4-1.2-3.1-0.6-4.7-0.7c-0.4-0.4-0.7-1-1.1-1.1c-6.8-1.6-12.1-5.7-17.7-9.5
		c-8-7.1-13.3-15.6-15.5-26.2C0.7,55,0.7,46.5,2.9,38c1.6,1.2,1.8,2.9,1.5,4.6c-0.9,6.8,2,12.8,4.1,18.9c1.8,5.2,3.4,5.8,9.3,5
		c1.5-0.2,2.5,0.4,3.5,1.4c0.7,0.8,1.5,1.6,1,2.7c-0.4,1-1.3,1.3-2.2,1.3c-1.8-0.1-3.4,0.7-3.5,2.4c-0.2,2.1,0.8,4.1,2.5,5.5
		c1.6,1.2,3.5,1.3,5.1,0.2c1.8-1.2,3.4-2.7,1.1-5.1c-1.4-1.4-1.7-2.9,1-3c1.3-0.1,1.7-1,2.5-1.7c0.9-0.9,1.7-3,3.4-1.5
		c1.6,1.4-0.9,2.4-1.2,3.6c-0.1,0.3-0.5,0.6-0.8,0.8c-2.5,1.3-2.3,2.8-0.5,4.6c0.9,0.9,1.4,2-0.3,2.8c-1.5,0.7-1.4,1.8-0.8,2.9
		c0.7,1.3,1.8,0.7,2.8,0.4c3-0.9,5.6-2.7,9-2.8c1.6-0.1,4-1.6,5.4-3.5c-4.9-2.8,3.4-9.1-3.1-11.5c-0.1,0-0.1-0.3-0.1-0.4
		c2-3-2.2-2.9-2.5-4.9c-0.1-0.7-1.2-0.9-2-0.5c-1,0.5-1.1,1.3-0.7,2.3c0.6,1.3,1.1,2.7,1.5,4c0.2,0.7,0,1.3-0.7,1.6
		c-0.9,0.4-1-0.3-1.4-0.9c-1.5-2.5-2.6-5.4-4.6-7.5c-2.7-2.8-4-6.1-5.3-9.5c-1.2-3.2,0.1-6.1,1.9-8.4c1.5-1.8,4.1-1,6.3-0.5
		c1.5,0.3,3,0.8,4.6,1.2c2.3,0.5,4.1-0.5,5.3-2.4c1.2-1.9,0-3.2-1.3-4.4c-1.7-1.6-1.8-3,0.5-4.3c1.9-1.1,3.7-2.3,5.6-3.5
		c4.6-3,4.6-3.9,0.1-6.8c-1.2-0.8-2.2-1.9-3.2-2.9c-2.2-2.1-6-3.5-7.7-2.8c-4.6,1.9-12,0.3-12.6,8.5c-0.2,2.1-2.8,1.9-4.2,1.9
		c-1.8,0-1-1.9-1-3.2c0.1-3.5,1.8-5.5,5.1-6.8c1.9-0.7,3.7-1.9,5.7-2.5c0.8-0.2,1.5-0.7,1.3-1.7c-0.2-1-1.2-1.5-2.1-1.2
		c-2.4,0.9-5.2,0.8-7.2,2.8c-0.8,0.8-1.5,2.2-2.9,1.2c-1.4-1,0.1-2.1,0-3.2c1.9-1.1,4.2-1.7,5.5-3.7c3.9-1.5,7.9-3.1,11.8-4.6
		C39.2,3,40,2.8,40.8,2.7c4.7-0.9,9.4-1.1,14.1-1.1c1.1,1.2,2.6,1.1,4,1c0.5,0.8,0.2,2.2,1.5,2.5c1.4,2,2.4,4.1,3.2,6.3
		c-0.2,0.3-0.3,0.7-0.5,1c-2.2-2.4-5-1-7.4-1c-3.3,0-6.7,0-9.6-1.3C44,9.2,42.3,9,40.2,9.6c-1.3,0.4-2.8,0.2-2.4,2.2
		c0.4,2,1.8,1.6,3.4,1.4c3.3-0.6,6.7-1,9.5,1.8c1.6,1.5,4,1.4,6,0.8c1.8-0.5,3.6-0.6,5.4-0.4c-0.1,2-0.2,3.8,2,5
		c1.3,0.7,1.6,2.1-0.3,2.8c-1.1,0.4-0.9,1.4-1,2.3c-2.2,0.2-4.9-1-6.2,1.9c-3.2,6.8-2.4,11.2,4.5,13.8c1.1,0.4,2.3,0.6,3.4,0.8
		c1.1,0.2,2,1.2,1.2,1.8c-2.4,1.9-0.9,4.1-0.9,6.2c0,4.5,1.6,6.2,6,6.2c0.4,1.4-1,3.4,1.6,3.9c0,0.5,0,1,0.1,1.6
		c-1.2,1.1-1.1,2.1,0,3.2c0,1,0,2.1,0,3.1c-0.1,0.2-0.2,0.5-0.4,0.7C70.6,69,70.7,69.8,71,70.8z M52.3,41.9
		c-1.3,0.6-2.8,0.8-2.8,2.5c0,1.3,3.5,5.5,4.6,5.3c1.7-0.4,3.3-1.1,3.3-3.3C57.3,42.9,53.8,43.6,52.3,41.9z M48.7,58.4
		c1.5,0.1,1.8-1,2-2c0.2-1.1-0.7-1.6-1.7-1.7c-1-0.1-1.8,0.2-1.9,1.4C47.1,57.2,47.6,58.1,48.7,58.4z M45.3,52.2
		c0.1-1-0.5-1.4-1.4-1.5c-1.2-0.1-2.6-0.1-2.8,1.4c-0.2,1.2,0.8,1.5,1.8,1.6C44.1,53.8,45,53.4,45.3,52.2z"/>
	<path class="st2" d="M21.1,11.5c0.1,1.1-1.5,2.2,0,3.2c1.4,1,2.1-0.4,2.9-1.2c2-2,4.8-1.9,7.2-2.8c1-0.3,1.9,0.1,2.1,1.2
		c0.2,0.9-0.5,1.4-1.3,1.7c-2,0.6-3.8,1.8-5.7,2.5c-3.3,1.2-5,3.3-5.1,6.8c0,1.2-0.8,3.1,1,3.2c1.4,0,4,0.3,4.2-1.9
		c0.6-8.2,8-6.5,12.6-8.5c1.6-0.7,5.5,0.6,7.7,2.8c1,1,2,2.1,3.2,2.9c4.5,2.9,4.5,3.8-0.1,6.8c-1.8,1.2-3.7,2.5-5.6,3.5
		c-2.3,1.3-2.2,2.7-0.5,4.3c1.3,1.2,2.5,2.5,1.3,4.4c-1.2,1.9-3,2.9-5.3,2.4c-1.5-0.3-3-0.8-4.6-1.2c-2.2-0.5-4.8-1.3-6.3,0.5
		c-1.8,2.3-3.1,5.2-1.9,8.4c1.3,3.4,2.6,6.7,5.3,9.5c2,2.1,3.1,4.9,4.6,7.5c0.3,0.6,0.5,1.3,1.4,0.9c0.7-0.3,1-0.9,0.7-1.6
		c-0.5-1.4-1-2.7-1.5-4c-0.4-1-0.3-1.8,0.7-2.3c0.8-0.4,1.9-0.2,2,0.5c0.3,2,4.5,1.9,2.5,4.9c-0.1,0.1,0,0.3,0.1,0.4
		c6.5,2.4-1.8,8.7,3.1,11.5c-1.3,1.9-3.8,3.4-5.4,3.5c-3.4,0.1-6,1.9-9,2.8c-1,0.3-2.1,0.9-2.8-0.4c-0.6-1.1-0.7-2.3,0.8-2.9
		c1.7-0.7,1.2-1.8,0.3-2.8c-1.8-1.8-2-3.3,0.5-4.6c0.3-0.2,0.7-0.5,0.8-0.8c0.3-1.3,2.7-2.2,1.2-3.6c-1.6-1.5-2.4,0.6-3.4,1.5
		c-0.8,0.7-1.2,1.6-2.5,1.7c-2.7,0.1-2.4,1.6-1,3c2.3,2.3,0.8,3.8-1.1,5.1c-1.6,1.1-3.5,1-5.1-0.2c-1.8-1.4-2.8-3.3-2.5-5.5
		c0.2-1.7,1.7-2.5,3.5-2.4c1,0,1.9-0.3,2.2-1.3c0.5-1.2-0.3-2-1-2.7c-1-1-2-1.6-3.5-1.4c-5.9,0.8-7.5,0.2-9.3-5
		c-2.1-6.1-5.1-12.1-4.1-18.9c0.2-1.7,0-3.4-1.5-4.6c0.3-0.8,0.5-1.6,0.8-2.3C5,32.8,6.3,29.9,7.5,27c0.4-0.7,0.7-1.4,1.1-2.1
		c0.8-0.4,1.3-1,1.4-1.8c3.2-4,7.2-7.3,10-11.7C20.4,11.4,20.8,11.4,21.1,11.5z"/>
	<path class="st3" d="M71.9,6.6C71.9,6.6,71.9,6.5,71.9,6.6c0.3,0.5,0.5,1.2,1.2,1.3c2.1,1.2,4.1,2.3,6.2,3.5c1.2,1.6,2.3,3.4,4.7,3
		c0,0,0,0,0,0c1.1,2.7,3.1,4.5,5.5,5.9c0.1,0.4,0.2,0.8,0.4,1.2c1.2,1.8,1.5,4.4,4.3,4.7c0,0.2,0,0.5,0,0.7c0.5,3.8,2.6,7,3.9,10.5
		c0.3,0.7,1.2,1.8,1.5-0.2c1.6,1.3,3.5,2.4,4.6,4.1c0.6,0.9,1.1,3.1-1.2,3.7c-1.1-1.7-2.2-3.5-3.7-5.7c-0.1,1.2-0.2,1.7-0.1,2.1
		c1.7,6.7,1.7,13.3,0.1,20c-0.5,2.3-2.6,4.6-1.1,7.3c1.2,2.8-0.3,5.6-0.3,8.3c0,2.3-1.6,5-5.1,4.2c-0.1-0.8,0.3-1.8-0.7-2.7
		c-2.7,5-7.3,8.4-10.5,12.9c-1.8-0.2-3,1.5-4.7,1.6c-1.1,0.5-3.6-1.7-3.1,1.7l0,0c-1.2-0.1-2.4-0.1-2.4,1.6l0,0
		c-1.7,0-2.7-0.6-2.5-2.5c0.6-0.1,1.4,0,1.9-0.3c3.2-2,5.8-5,9.9-5.6c1.1-0.2,2.7-2.1,0.5-3.5c-1.2-0.7-1.1-1.3-0.4-2.1
		c2.7-3,5.5-5.9,7.6-9.4c0.6-1.1,1.4-0.7,2.3-0.7c3.2,0,2.8-3.4,4.3-5c0.6-0.7-0.7-1.9-2.5-2.2c0.8,1.9,1.3,3.7-1.5,3.5
		c-0.3,0-0.6,0-0.8,0c0,0,0,0,0,0c0.2-2.4,1.1-4.7,0.8-7.2c-0.1-1.1,0.2-2.1,1.5-2.2c-0.9,2.5,3.1,1.7,2.6,3.9
		c-0.1,0.6,0.6,1.3,1.3,1.2c1-0.2,0.8-1.1,0.9-1.9c0.3-3.8,0.2-7.6,0.9-11.3c0.7-3.3-0.5-4-3.3-3.8c0-1.1,0.1-2.6-1.3-2.7
		c-1.5-0.1-0.8,1.5-1.1,2.3c-0.3,1.1-0.8,1.2-1.5,0.4c0.1-2.1-0.3-4.3,0.3-6.3c1.4-4.6,1.5-4.6-0.5-7.2c-0.5-0.6-0.1-1.2,0.2-1.8
		c0.6-1.3,1.3-2.6,1.5-4c0.2-1.1-0.7-1.2-1.5-0.5c-0.5,0-1,0-1.5,0c0-1,0.1-2.1-0.2-3.1c-0.3-1.2-1.1-2-2.4-2.3
		c-0.3-0.1-0.9,0.2-1,0.4c-0.3,1.4,1,1.6,1.7,2.2c0.5,0.4,1.1,0.9,0.4,1.6c-0.6,0.6-1.1,0.2-1.7-0.2c-1.7-1-2.3-3.6-4.8-3.3
		c0,0,0,0,0,0c0-0.8-0.3-1.5-0.9-2c-2.3-1.8-0.9-2.3,0.9-2.7c0.1,1.2,0.6,2.2,2.1,2.2c0.3,0,0.7-0.5,0.7-0.6
		c-0.3-1.2-1.4-1.3-2.3-1.5c-0.1,0-0.3,0-0.4,0c-1.6-1.5-2.1-4.8-5.6-3.2c-0.5,0.2-1.5-0.4-0.9-1.1c1.5-1.8-0.4-1.7-1-2.4
		c-1.4-1.6-3.9-2.3-4.3-4.9C70.6,6.7,71.3,6.6,71.9,6.6z"/>
	<path class="st4" d="M91.2,68.8c2.9,0.2,2.3-1.6,1.5-3.5c1.8,0.3,3.1,1.6,2.5,2.2c-1.5,1.6-1.1,5-4.3,5c-0.9,0-1.7-0.4-2.3,0.7
		c-2.1,3.5-4.9,6.4-7.6,9.4c-0.7,0.8-0.8,1.4,0.4,2.1c2.2,1.4,0.6,3.4-0.5,3.5c-4.1,0.6-6.7,3.5-9.9,5.6c-0.5,0.3-1.3,0.2-1.9,0.3
		c-2.8-2.3-1.1-6.1-0.3-7.3c1.8-3,1.5-7.6,5.7-8.9c1.6-0.5,0.6-1.7,0.9-2.6c1.3-3.3-0.4-6.9,0.8-10.2c0.3,0,0.5,0,0.8,0
		c1.5,2.3-1.2,5.2,1.4,8.2c-0.2-4.2,2.4-7.7-1.4-10.6c-1.8-1.8,1.5-2,1.1-3.6c-2.4-0.4-4-1.3-1.1-3.5c0.1-0.1,0-0.5,0-0.7
		c4.1-0.9,5.2,1.5,5.5,4.9c0.1,1.3-0.1,2.7,1.1,3.6c2.2,1.5,2.9,3.2,1.1,5.5c-0.9,1.2-0.1,1.9,0.8,2.6c1.1,1,1.9,0.2,2.6-0.6
		c0.7-0.7,1-1.9,2.3-1.9c0,0,0,0,0,0C90.7,69.4,91,69.3,91.2,68.8z"/>
	<path class="st5" d="M18.1,89.8c5.5,3.8,10.9,8,17.7,9.5c0.4,0.1,0.7,0.7,1.1,1.1c-3.8,4.5-3.7,4.4-9.3,1.7c-0.9-0.4-2-0.3-3.1-0.3
		c-4.5-0.1-6.4-2-6.4-6.5C18,93.5,18,91.6,18.1,89.8z"/>
	<path class="st5" d="M58.9,2.5c-1.4,0.1-2.9,0.3-4-1c-0.7-2-2.4-1.1-3.7-1.2c-1.4-0.1-2.6-0.2-2.5-2.1c0.1-1.6,1.1-1.9,2.4-1.9
		c5.2,0,10.5-0.1,15.7,0c3.4,0.1,2.8,2.7,2.9,4.8C66,0.9,62.4,1.1,58.9,2.5z"/>
	<path class="st6" d="M77,93.2c1.7,0,2.9-1.8,4.7-1.6l0,0c0.3,0.8,0.5,1.6,0.8,2.4c-6.6,5.8-16.4,9.1-22.1,7.4
		c3.4-2.8,8-2.3,11.2-4.9c0,0,0,0,0,0c1.2,0,2.1-0.3,2.4-1.6c0,0,0,0,0,0C75.4,95,76.4,94.5,77,93.2z"/>
	<path class="st7" d="M58.9,112.1c0-1,0-2.1,0-3.1c0-1.3,0.1-2.4,1.8-2.4c4,0,8,0,12,0c1,0,1.8,0.3,1.8,1.5c0,1.2-0.8,1.5-1.8,1.6
		c-0.5,0-1,0-1.6,0c-2.7,0.3-5.6-1-7.8,2.1"/>
	<path class="st6" d="M98.3,68.9c-1.4-2.7,0.6-5,1.1-7.3c1.6-6.8,1.6-13.4-0.1-20c-0.1-0.4,0-1,0.1-2.1c1.5,2.3,2.6,4,3.7,5.7
		c-0.3,1.6-0.6,3.2-1,4.8c0,1.6,0,3.1,0,4.7c-1.2,3.5-0.7,7.2-0.6,10.8C101.6,67.9,100.7,68.9,98.3,68.9z"/>
	<path class="st3" d="M113.8,75.9c-2.3,0-4.8,0.2-4.3-2.8c0.4-2.3,0.1-5.4,4.3-5.2"/>
	<path class="st7" d="M94.3,26.9c0-0.2,0-0.5,0-0.7c-0.3-2.3-3-3.4-3.1-5.8c1.3-0.9,0.5-4.7,2.6-3.3c1.8,1.2,5.7,1.5,5.2,5.1
		c-0.3,2.1,1.8,5.1-1.7,6.4c-1.3-0.9,0.1-2.8-1.4-3.6C95.3,25.7,94.8,26.3,94.3,26.9z"/>
	<path class="st8" d="M59,99.6c-1.9-7.1,4.7-10.7,6.6-16.2c0.2-0.6,1.2,0,1.7,0.2c-1.8,2.3-1.7,5.3-2.8,7.9
		C63.1,94.6,61.9,97.6,59,99.6z"/>
	<path class="st5" d="M41.9,111c-0.1-1.4,1.1-1.4,1.9-1.3c2.8,0.4,5.4-0.9,8.1-0.8c1.6,1.2,3.1-0.6,4.7,0c0.8,0,1.6,0,2.4,0
		c0,1,0,2.1,0,3.1"/>
	<path class="st9" d="M58.9,2.5c3.5-1.4,7.1-1.6,10.8-1.3c-0.3,2.2,1,3.8,2.2,5.4c-0.7,0.1-1.3,0.1-2,0.2c-3.1-1-5.8-4.2-9.5-1.7
		C59.1,4.7,59.4,3.3,58.9,2.5z"/>
	<path class="st6" d="M81.7,91.6c3.2-4.5,7.8-7.9,10.5-12.9c0.9,0.9,0.6,1.8,0.7,2.7c-2,1.1-2.9,2.8-2.6,5.1c0.3,1.9-0.5,3-2.5,2.8
		c-2-0.2-2.4,2.6-4.4,2.4C82.8,91.6,82.3,91.6,81.7,91.6L81.7,91.6z"/>
	<path class="st10" d="M21.1,11.5c-0.4,0-0.8,0-1.2,0c-2.3-0.3-2.1-2-1.8-3.5C18.4,6.2,20,6.5,21,6.7c1.9,0.3,4.2-1.3,5.6,1.1
		C25.3,9.8,23,10.3,21.1,11.5z"/>
	<path class="st5" d="M7.5,27c-1.3,2.9-2.5,5.8-3.8,8.7c-2.2-2-1.8-4.6-1.4-7C2.9,25.5,5.8,27.7,7.5,27z"/>
	<path class="st3" d="M105.4,63.3c2.1-0.1,3,1.1,3,2.8c0,1.5-0.8,2.7-2.7,2.7c-2,0-2.7-1.1-2.7-3C102.9,64,103.6,63.1,105.4,63.3z"
		/>
	<path class="st3" d="M110.9,47.6c-1.2,1.1-2.6,1.1-3.4-0.2c-1.5-2.2-0.4-4.5,0.6-6.6c0.5-1.2,1.7-1.6,2.8-0.4c-0.7,2-2.3,4-0.1,6.1
		C111,46.7,110.9,47.2,110.9,47.6z"/>
	<path class="st9" d="M94.3,26.9c0.5-0.6,1-1.3,1.6-1.9c1.5,0.8,0.1,2.8,1.4,3.6c-0.2,3.2,1.7,5.8,2.4,8.7c-0.3,1.9-1.3,0.8-1.5,0.2
		C96.9,33.9,94.8,30.7,94.3,26.9z"/>
	<path class="st3" d="M102.1,54.5c0-1.6,0-3.1,0-4.7c1.5,0.3,1.4-1.7,3.2-2.1c0,2.6,0,5,0,7.4c0,0.9,0.3,2.1-0.9,2.3
		c-1.7,0.4-1.3-1.2-1.6-2C102.7,55.1,102.4,54.8,102.1,54.5z"/>
	<path class="st11" d="M113.4,42.2c-0.7,1.8,2.9,5.8-2.5,5.3c0-0.4,0.1-0.9-0.1-1.1c-2.3-2.1-0.6-4.1,0.1-6.1
		C112,40.7,114.4,39.7,113.4,42.2"/>
	<path class="st11" d="M84.1,14.4c-2.4,0.3-3.5-1.5-4.7-3c0.3,0,0.5-0.1,0.8-0.1c2.5,0.4,5.3,1.3,6.3-2.4C87,8.9,87.5,9,88.1,9
		c-0.2,1.4,1.6,1.4,2.2,2.5C88.2,12.7,84.9,11.1,84.1,14.4z"/>
	<path class="st6" d="M89.6,20.3c-2.5-1.4-4.5-3.2-5.5-5.9C90.2,14.3,90.5,14.7,89.6,20.3z"/>
	<path class="st5" d="M76.2,64.9c-1.1,3.4,0.5,6.9-0.8,10.2c-1.5-1.4-0.3-4.6-3.4-4.9c0-0.5-0.1-1-0.1-1.5c0.1-0.2,0.2-0.5,0.4-0.7
		C75.1,68.8,74,64.8,76.2,64.9z"/>
	<path class="st6" d="M80.2,11.3c-0.3,0-0.5,0-0.8,0.1c-2.1-1.2-4.1-2.3-6.2-3.5c0-0.4-0.1-0.9-0.1-1.3c2.1,0,4.2,0,6.3,0
		c0.1,1.4,0,2.8,0.9,4C80.1,10.8,80.1,11,80.2,11.3z"/>
	<path class="st11" d="M80.2,10.5c-0.8-1.2-0.8-2.6-0.9-4c0.1,0,0.3,0,0.4,0c1.4,0.2,3.7-0.7,3.8,1.4C83.7,9.3,81.8,10.2,80.2,10.5z
		"/>
	<path class="st7" d="M81.7,91.6c0.5,0,1.1,0,1.6,0.1c1.8,2,5.1,0.7,7.2,3.6c-3.1-0.5-5.5-0.9-8-1.3C82.3,93.2,82,92.4,81.7,91.6z"
		/>
	<path class="st7" d="M56.5,109c-1.6-0.6-3.1,1.2-4.7,0c-0.2-1.9,0.8-2.5,2.5-2.4C56.1,106.6,56.7,107.4,56.5,109z"/>
	<path class="st9" d="M90.3,8.4C90,9.9,88.8,8.9,88.1,9c-0.5,0-1.1-0.1-1.6-0.1c-0.3-1.6,0.2-2.5,2-2.4"/>
	<path class="st7" d="M86.2,99.3c-1.5,0-1.3-1.4-1.7-2.2c-0.3-0.7-0.1-1.4,0.7-1.3c1.3,0,1.5,1.2,1.8,2.2
		C87.3,98.6,87,99.1,86.2,99.3z"/>
	<path class="st9" d="M91.2,20.4c0.2,2.4,2.8,3.5,3.1,5.8c-2.9-0.3-3.1-3-4.3-4.7C90.4,21.1,90.8,20.8,91.2,20.4z"/>
	<path class="st8" d="M48.7,101.5c1.5-2,3.1-2,4.7,0C51.8,101.5,50.2,101.5,48.7,101.5z"/>
	<path class="st5" d="M40.8,2.7C40,2.8,39.2,3,38.4,3.2C38.9,1.6,39.7,1.5,40.8,2.7z"/>
	<path class="st5" d="M41.6,101.1c0.5,0.2,1.1,0.4,1.6,0.6C42.1,103,41.7,102.2,41.6,101.1z"/>
	<path class="st5" d="M10,23.1c-0.1,0.9-0.6,1.5-1.4,1.8C8.4,23.8,8.9,23.2,10,23.1z"/>
	<path class="st12" d="M72,68.7c0,0.5,0.1,1,0.1,1.5c-0.3,0.2-0.7,0.4-1,0.6C70.7,69.8,70.6,69,72,68.7z"/>
	<path class="st8" d="M58.1,101.4c0-0.8,0.1-1.6,1-1.9C58.9,100.3,59.4,101.3,58.1,101.4z"/>
	<path class="st9" d="M73.1,6.5c0,0.5,0.1,0.9,0.1,1.3c-0.8-0.1-1-0.8-1.3-1.3C72.3,6.5,72.7,6.5,73.1,6.5z"/>
	<path class="st12" d="M70.5,73.5c-0.7-0.5-0.4-0.7,0.2-0.8C70.6,73,70.5,73.2,70.5,73.5z"/>
	<path class="st7" d="M60.4,5c3.7-2.5,6.4,0.7,9.5,1.7c0.3,2.6,2.8,3.2,4.3,4.9c0.6,0.7,2.6,0.6,1,2.4c-0.6,0.7,0.4,1.4,0.9,1.1
		c3.5-1.6,4,1.8,5.6,3.2l0,0c-1.8,0.4-3.3,0.9-0.9,2.7c0.7,0.5,0.9,1.2,0.9,2c-0.7-0.3-1.5-0.5-2.1-0.9c-1.3-0.9-2.3-0.3-3,0.6
		c-0.8,1-0.7,2.4-0.2,3.3c0.7,1.3,1.9,1.1,2.9,0.1l0.1-0.1c1.2-0.1,2.2,1.4,3.7,0.1c-0.8-0.9-1.7-1.8-1.4-3.2
		c2.5-0.2,3.2,2.3,4.8,3.3c0.6,0.4,1.1,0.8,1.7,0.2c0.6-0.7,0-1.2-0.4-1.6c-0.7-0.6-2.1-0.8-1.7-2.2c0-0.2,0.7-0.4,1-0.4
		c1.3,0.2,2.1,1.1,2.4,2.3c0.2,1,0.1,2,0.2,3.1c-0.5,0.8-1.3,0.8-2.1,0.7c-0.9,0-2-1.3-2.5,0.4c-0.4,1.3,0.3,2.2,1.5,2.8
		c-1.1,1.8,0.4,4.7,0,5c-2.6,1.7-0.5,3.2-0.2,4.6c0.6,2.8,3.9,3.6,4.9,6.1c0.7,0.8,1.2,0.7,1.5-0.4c0.2-0.9-0.4-2.5,1.1-2.3
		c1.4,0.1,1.3,1.6,1.3,2.7c0.1,1.7-0.4,3-2.4,3.2c-2.7-1.8-5.2-3.6-8.1,0c-1.2,1.4-2.6,0.4-2.9-1.5c-0.1-0.9-0.2-1.9,0-2.7
		c0.6-2.8-1.5-4.9-1.9-7.4c-0.3-1.6-2.9,0.7-4.1-0.8c-0.1-0.1-0.2-0.1-0.4-0.1c0.7-1.9,2.9-3.4,2-5.8c-1.5-0.5-1,1.9-2.6,1.3
		c-0.1-0.8-0.1-1.7-0.2-2.5c-0.2-1,0.7-1.9-0.1-2.9c-1.2,0.4-2.1,1.6-3.5,1.4c-0.3-0.6-0.6-1.1-0.9-1.7c-1.3-4.3-2.4-8.8-4.5-12.8
		c-0.3-1.4-0.8-2.7-1.9-3.6C62.9,9.1,61.8,7,60.4,5z M77.7,17.5c-0.5-0.2-0.8-0.5-1-0.4c-0.3,0.1-0.5,0.5-0.7,0.7
		c0.3,0.2,0.5,0.4,0.8,0.4C77.1,18.2,77.3,17.9,77.7,17.5z"/>
	<path class="st12" d="M70.7,56.2c-4.4,0-6-1.7-6-6.2c0-2.1-1.5-4.3,0.9-6.2c0.8-0.6-0.1-1.6-1.2-1.8c-1.2-0.2-2.3-0.4-3.4-0.8
		c-6.9-2.7-7.7-7.1-4.5-13.8c1.4-2.9,4-1.7,6.2-1.9c0.5,0,1,0,1.6,0.1c0.4,0.6,1,0.7,1.6,0.7c0.8,0.6,1.6,1.2,2.3,1.7
		c0.3,1.4,0.7,2.7,0.8,4.1c0.1,1.8,1.1,2.1,2.5,2.1c0.3,0.2,0.3,0.4,0.2,0.7c-1.8,1.8-2.7,8.4-1.2,10.9c1.8,2.9,0.1,6.3,1.7,9.2
		C72.7,55.5,71.6,56.1,70.7,56.2z"/>
	<path class="st2" d="M63.6,11.3c1.2,0.9,1.6,2.3,1.9,3.6c-1.1,0.1-2.3,0.2-3.4,0.4c-1.8-0.2-3.6-0.1-5.4,0.4c-2,0.6-4.4,0.7-6-0.8
		c-2.9-2.7-6.2-2.3-9.5-1.8c-1.6,0.3-2.9,0.6-3.4-1.4c-0.4-2,1.1-1.8,2.4-2.2c2.1-0.6,3.8-0.4,5.9,0.5c2.9,1.2,6.3,1.3,9.6,1.3
		c2.5,0,5.2-1.4,7.4,1C63.3,12,63.5,11.7,63.6,11.3z"/>
	<path class="st0" d="M71.8,34.8c0.1-0.3,0.1-0.5-0.2-0.7c-0.2-1.5-0.4-3.1-0.6-4.6c1.4,0.2,2.3-1,3.5-1.4c0.8,1-0.1,2,0.1,2.9
		c0.2,0.9,0.2,1.7,0.2,2.5c1.6,0.6,1.1-1.8,2.6-1.3c0.9,2.4-1.3,3.9-2,5.8c-0.7,1.2-0.8,2.5-0.7,3.9c0.3,1.8-0.7,3.9,0.8,5.5
		c-0.1,1.4,0.2,2.9-0.2,4.1c-0.7,2,0.6,2.4,1.8,3c0,0.3,0.1,0.6,0,0.7c-2.9,2.2-1.4,3.2,1.1,3.5c0.4,1.6-2.9,1.7-1.1,3.6
		c0,0.8,0,1.6,0,2.4c-0.3,0-0.5,0-0.8,0c-2.2-0.1-1.1,3.9-3.9,3.1c0-1,0-2.1,0-3.1c0.2-1.1,0.7-2.1,0-3.2c0-0.5,0-1-0.1-1.6
		c1-0.3,1-1.2,1-1.9C73.5,50.3,74,42.5,71.8,34.8z"/>
	<path class="st2" d="M71.8,34.8c2.2,7.7,1.7,15.5,1.5,23.4c0,0.7,0,1.6-1,1.9c-2.6-0.5-1.2-2.6-1.6-3.9c0.8-0.1,1.9-0.7,1.6-1.3
		c-1.6-2.9,0-6.3-1.7-9.2C69.1,43.2,70,36.6,71.8,34.8z"/>
	<path class="st8" d="M62.1,15.4c1.1-0.1,2.3-0.2,3.4-0.4c2.1,4.1,3.2,8.5,4.5,12.8c-0.6,0-1.1,0.1-1.7,0.1
		c-0.8-0.6-1.6-1.2-2.3-1.7c-0.2-1.1-0.4-1.9-1.6-0.7c-0.5,0-1,0-1.6-0.1c0.1-0.9-0.1-1.9,1-2.3c1.9-0.8,1.6-2.1,0.3-2.8
		C61.9,19.1,62,17.3,62.1,15.4z"/>
	<path class="st2" d="M52.3,41.9c1.5,1.7,5.1,1,5.1,4.5c0,2.2-1.6,2.9-3.3,3.3c-1.1,0.2-4.6-3.9-4.6-5.3
		C49.5,42.7,51,42.5,52.3,41.9z"/>
	<path class="st2" d="M48.7,58.4c-1.1-0.3-1.6-1.1-1.5-2.3c0.1-1.2,0.9-1.5,1.9-1.4c1,0.1,1.9,0.7,1.7,1.7
		C50.5,57.4,50.2,58.5,48.7,58.4z"/>
	<path class="st2" d="M45.3,52.2c-0.3,1.2-1.3,1.6-2.4,1.5c-1-0.1-2-0.5-1.8-1.6c0.3-1.5,1.6-1.5,2.8-1.4
		C44.9,50.7,45.4,51.2,45.3,52.2z"/>
	<path class="st2" d="M72.3,61.7c0.7,1.1,0.3,2.1,0,3.2C71.2,63.8,71.1,62.7,72.3,61.7z"/>
	<path class="st13" d="M77,54.6c-1.2-0.6-2.5-1-1.8-3c0.5-1.2,0.2-2.7,0.2-4.1c2.5-2.3,2.2-4.4-0.8-5.5c-0.1-1.4,0-2.7,0.7-3.9
		c0.1,0,0.3,0.1,0.4,0.1c1.2,1.5,3.8-0.9,4.1,0.8c0.4,2.6,2.5,4.6,1.9,7.4c-0.2,0.9-0.1,1.8,0,2.7c0.2,1.9,1.7,2.9,2.9,1.5
		c2.9-3.5,5.4-1.8,8.1,0c-1.1,2.8,2.9,5,0.8,7.9c-0.3,0.3-0.5,0.5-0.8,0.8c0,0,0,0,0,0c-1.3,0.2-1.7,1.1-1.5,2.2
		c0.3,2.5-0.6,4.8-0.8,7.2c-1.3,0-1.6,1.1-2.3,1.9c-0.7,0.8-1.5,1.6-2.6,0.6c-0.8-0.7-1.6-1.5-0.8-2.6c1.7-2.3,1.1-4-1.1-5.5
		c-1.2-0.9-1-2.3-1.1-3.6C82.3,56.1,81.1,53.7,77,54.6z"/>
	<path class="st13" d="M91.2,47.5c-1.1-2.5-4.3-3.3-4.9-6.1c-0.3-1.4-2.4-2.9,0.2-4.6c0.5-0.3-1-3.3,0-5c2.8,0.1,4.8-0.7,4.7-4
		c0.8-0.8,1.6-0.7,1.5,0.5c-0.2,1.4-0.9,2.7-1.5,4c-0.3,0.6-0.7,1.1-0.2,1.8c2.1,2.7,1.9,2.7,0.5,7.2C90.8,43.2,91.2,45.4,91.2,47.5
		z"/>
	<path class="st4" d="M93.5,58.5c2.1-2.9-1.9-5.1-0.8-7.9c2-0.1,2.5-1.4,2.4-3.2c2.8-0.2,4,0.4,3.3,3.8c-0.8,3.7-0.7,7.5-0.9,11.3
		c-0.1,0.8,0.1,1.7-0.9,1.9c-0.7,0.1-1.4-0.6-1.3-1.2c0.5-2.3-3.5-1.5-2.6-3.9c0,0,0,0,0,0C93,59,93.3,58.8,93.5,58.5z"/>
	<path class="st14" d="M91.1,27.8c0.1,3.3-1.9,4.1-4.7,4c-1.2-0.6-1.8-1.5-1.5-2.8c0.5-1.8,1.7-0.4,2.5-0.4c0.8,0,1.6,0,2.1-0.7
		C90.1,27.8,90.6,27.8,91.1,27.8z"/>
	<path class="st7" d="M81.8,18.4c0.1,0,0.3,0,0.4,0c0.9,0.3,2,0.4,2.3,1.5c0,0.1-0.4,0.6-0.7,0.6C82.3,20.6,81.9,19.6,81.8,18.4
		C81.7,18.4,81.8,18.4,81.8,18.4z"/>
	<path class="st0" d="M77,93.2c-0.6,1.3-1.6,1.8-3.1,1.7C73.4,91.5,76,93.7,77,93.2z"/>
	<path class="st0" d="M73.9,94.8c-0.3,1.3-1.2,1.6-2.4,1.6C71.6,94.7,72.7,94.7,73.9,94.8z"/>
	<path class="st13" d="M91.2,68.8c-0.3,0.5-0.6,0.6-0.8,0C90.7,68.8,91,68.8,91.2,68.8z"/>
	<path class="st13" d="M77,64.8c0-0.8,0-1.6,0-2.4c3.8,2.9,1.2,6.4,1.4,10.6C75.8,70,78.5,67.1,77,64.8z"/>
	<path class="st3" d="M79.3,26.3c-1,1-2.2,1.2-2.9-0.1c-0.5-1-0.6-2.4,0.2-3.3c0.7-0.9,1.7-1.5,3-0.6c0.6,0.4,1.4,0.6,2.1,0.9
		c0,0,0,0,0,0c-0.3,1.3,0.6,2.3,1.4,3.2c-1.5,1.3-2.5-0.2-3.7-0.1c-0.1-0.6-0.3-1.1-0.4-1.7c-0.1,0.1-0.3,0.1-0.3,0.2
		C78.5,25.4,78.8,25.9,79.3,26.3z"/>
	<path class="st2" d="M68.4,27.9c0.6,0,1.1-0.1,1.7-0.1c0.3,0.6,0.6,1.1,0.9,1.7c0.2,1.5,0.4,3.1,0.6,4.6c-1.5,0.1-2.5-0.3-2.5-2.1
		C69.1,30.7,68.6,29.3,68.4,27.9z"/>
	<path class="st3" d="M77.7,17.5c-0.4,0.3-0.7,0.7-0.9,0.7c-0.2,0-0.5-0.3-0.8-0.4c0.2-0.2,0.4-0.6,0.7-0.7
		C76.9,17,77.3,17.3,77.7,17.5z"/>
	<path class="st1" d="M64.4,25.5c1.2-1.3,1.4-0.4,1.6,0.7C65.4,26.3,64.8,26.1,64.4,25.5z"/>
	<path class="st4" d="M74.7,42c3,1.1,3.3,3.2,0.8,5.5C73.9,45.8,74.9,43.8,74.7,42z"/>
	<path class="st3" d="M93.5,58.5c-0.3,0.3-0.5,0.5-0.8,0.8C93,59,93.3,58.8,93.5,58.5z"/>
	<path class="st7" d="M79.3,26.3c-0.5-0.4-0.8-0.9-0.6-1.5c0-0.1,0.2-0.1,0.3-0.2c0.1,0.6,0.3,1.1,0.4,1.7
		C79.4,26.2,79.3,26.3,79.3,26.3z"/>
</g>
<g>
	<path class="st15" d="M90.8,126.5H15c-2.2,0-4-1.8-4-4v-23c0-2.2,1.8-4,4-4h75.8c2.2,0,4,1.8,4,4v23
		C94.8,124.7,93,126.5,90.8,126.5z"/>
	<g>
		<path class="st16" d="M31.9,113c-0.1-2-0.1-4.4-0.1-6.8h-0.1c-0.5,2.1-1.2,4.4-1.8,6.4l-2,6.4H25l-1.8-6.4
			c-0.5-1.9-1.1-4.3-1.5-6.4l0,0c-0.1,2.2-0.2,4.8-0.3,6.8l-0.3,6.3h-3.4l1.1-16.5h5l1.6,5.5c0.5,1.9,1,4,1.4,5.9h0.1
			c0.5-1.9,1-4.1,1.6-5.9l1.8-5.5h4.9l0.9,16.5h-3.6L31.9,113z"/>
		<path class="st16" d="M53.7,110.9c0,5.4-3.3,8.7-8.1,8.7c-4.9,0-7.7-3.7-7.7-8.4c0-4.9,3.2-8.6,8-8.6
			C51,102.6,53.7,106.3,53.7,110.9z M41.8,111.1c0,3.2,1.5,5.5,4,5.5s4-2.4,4-5.6c0-3-1.4-5.5-4-5.5
			C43.3,105.5,41.8,107.9,41.8,111.1z"/>
		<path class="st16" d="M71.2,110.9c0,5.4-3.3,8.7-8.1,8.7c-4.9,0-7.7-3.7-7.7-8.4c0-4.9,3.2-8.6,8-8.6
			C68.5,102.6,71.2,106.3,71.2,110.9z M59.3,111.1c0,3.2,1.5,5.5,4,5.5c2.5,0,4-2.4,4-5.6c0-3-1.4-5.5-4-5.5
			C60.8,105.5,59.3,107.9,59.3,111.1z"/>
		<path class="st16" d="M73.7,119.3v-16.5H78l3.4,6c1,1.7,2,3.8,2.7,5.6h0.1c-0.2-2.2-0.3-4.4-0.3-6.9v-4.8h3.4v16.5h-3.9l-3.5-6.4
			c-1-1.8-2.1-3.9-2.9-5.8h-0.1c0.1,2.2,0.1,4.5,0.1,7.2v5h-3.3V119.3z"/>
	</g>
</g>
</svg>
