<?xml version="1.0" encoding="utf-8"?>
<!-- Generator: Adobe Illustrator 25.0.0, SVG Export Plug-In . SVG Version: 6.00 Build 0)  -->
<svg version="1.1" id="Layer_1" xmlns="http://www.w3.org/2000/svg" xmlns:xlink="http://www.w3.org/1999/xlink" x="0px" y="0px"
	 width="105.5px" height="129px" viewBox="0 0 105.5 129" style="enable-background:new 0 0 105.5 129;" xml:space="preserve">
<style type="text/css">
	.st0{fill:#FCFCFC;}
	.st1{fill:#2D3C44;}
	.st2{fill:#495C64;}
	.st3{fill:#EEF1F2;}
	.st4{fill:#252D32;}
	.st5{fill:#D0D7D8;}
	.st6{fill:#DDE2E3;}
	.st7{fill:#EBEDEE;}
	.st8{fill:#E5E8EA;}
	.st9{fill:#A5B0B2;}
	.st10{fill:#B7C0C4;}
	.st11{fill:#4B5D65;}
	.st12{fill:#48A6DD;}
	.st13{fill:#FFFFFF;}
</style>
<g>
	<path class="st0" d="M101.4,41.8c0-1.8-0.1-3.6-1.4-5.1c0,0,0,0,0,0c0-0.6,0-1.3-0.1-1.9c1.1-0.9,0.8-1.9,0.5-3
		c-0.6-2,0.9-1.5,1.9-1.7c-0.1,2,1.1,3.8,0.4,6c-0.4,1.2,0.9,3.1,2.6,3.2c2.2,0.1,1.6-1.9,1.7-3.1c0.1-1.3-0.1-2.6,0-3.8
		c0.3-2.4-0.8-3.3-3.1-3c-1-3-3.6-4.7-6.3-3.9c0.1-1.6-0.3-3-2.2-3.2l0,0c1.5-2,0.9-4-0.8-5.1c-1.7-1.1-1.3,1.8-2.5,2.1
		c-0.4-2.1-1.7-2.9-3.8-2.7c-0.2-1.1,1.8-1.6,0.9-2.6c-0.7-0.7-1.9-0.4-2.9-0.1c-0.6,0.2-1.2,0.3-1.8,0.5c-0.3,0-0.6,0-0.8,0l0,0
		c0.2-4.3-1.7-6.2-6.1-5.5c-0.4,0.1-0.8,0-1.1,0c0,0-0.2,0.1-0.2,0.1c-0.6-0.4-1.3-0.7-1.9-1.1c-0.9-0.7,0.1-2.5-0.5-2.4
		c-4.9,1-2.8-2.7-3-5c-1,0.5-1.7,1.2-2.2,1.1C63.7,0.7,58.8,1.5,54,2c-1.3,0.1-2.9,0.5-4.1-0.7c0.3-1.9-0.7-2.4-2.5-2.5
		c-2.8,0-5.7-0.4-6.3,3.9c1.2,0,2.4,0,3.5,0C45.2,3,45.2,3.5,45.2,4c-2.3,0.3-4.7,0.3-6.9,1.3C32.1,1.9,30,2.7,28.9,9
		c-0.6,0.3-1.2,0.5-1.8,0.8c-2.4-0.3-4.7-0.9-7.2-0.7c-2.2,0.2-2,1.6-1.9,3c0.2,2.2,1.3,1.3,2.3,0.6c0.9-0.6,1.4,0,1.8,0.7
		c-0.1,0.4-0.2,0.7-0.3,1.1c-5.8,3.8-9.6,9.3-13.3,14.9c-4.9,0.2-5.3,0.6-4.4,5.3c0.3,1.4-0.2,2.7,0.2,4c0.1,0.3,0.1,0.5,0.2,0.8
		C0.4,57.8,3.5,74.3,17.1,88c-0.4,1-1.2,2.2,0.1,3.1c2.4,1.7,0.7,6,4.6,6.6c-0.4,5.1,3.4,3.4,5.8,3.3c2,0,4.8,1.4,6-1.8
		c3.1,0.7,6.2,1.5,9.3,2.2c1.2,1.1,2.6,0.7,4,0.5c3.7,0.1,7.3,0.1,11,0.2c3.3,0.9,6.7,1.4,10.2,1.3c0.8,0,1.7,0.1,2-0.8
		c1-3.4,3.3-4.6,6.7-4.2c0.1,0,0.3-0.9,0.4-1.3c0.3-0.3,0.6-0.5,1-0.8c0.2,0.7-0.4,2.1,0.8,2c1.2-0.2,0.5-1.6,0.8-2.5
		c0.8,0,1.5,0,2.3-0.1c3.2,1.7,2.6-0.6,2.4-2.3c3.3,2.7,3.3,2.7,6.5-0.6c0.7-0.7,0.8-1.8,2.2-1.8c1.2,0,2.9,0.4,2.8-1.7
		c-0.2-2-1.9-1.3-3-1.4c-0.8-0.1-1.5,0-2.3,0c0-2.3,0.3-4.4,3.2-4.7c2.5,0.4,4.4-0.4,4.5-3.1c0.1-2.1,1.5-3,3.1-3.7
		c-0.8-1.4-2-0.8-2.9-1c0-1.3,0-2.7,0.1-4c0-0.2,0-0.4,0-0.7c1.3-0.1,2.6-0.1,2.5-2.1c-0.1-1.6,0.2-3.3,0.3-4.9
		c1.1-1.1,1.2-2.5,1.2-3.9c0.4-4.4,1.4-8.9-0.1-13.3C102.4,44.9,102.6,43.2,101.4,41.8z"/>
	<path class="st0" d="M37.4,111.1c-2-1-2.6-4-5.1-5c-1.2-0.5-2.7-0.2-2.7,1.8"/>
	<path class="st0" d="M111.8,66.8c-0.4-1.3,0.8-3.7-1.6-3.6c-2.6,0.1-1.5,2.5-1.5,4c-0.1,1.3-0.9,3.6,1.6,3.4
		C112.6,70.4,111.3,68.1,111.8,66.8"/>
	<path class="st0" d="M108.6,25.8c0.1,2.1-0.4,4.2,0.5,6.8c1.7-2.4,3.1-4.3,2.5-7"/>
	<path class="st0" d="M91.7,14.9c-0.2,0-0.4,0-0.6-0.1c0.1,0.1,0.2,0.2,0.3,0.2C91.5,15.1,91.6,15,91.7,14.9z"/>
	<path class="st1" d="M27.1,9.8c0.6-0.3,1.2-0.5,1.8-0.8c3.1-1.2,6.3-2.5,9.4-3.7c2.2-1,4.6-1,6.9-1.3C51,3.1,56.8,4.2,62.6,4.5
		c1.1,0,2.5-0.3,2.6,1.5c-0.6,1.7,0.4,2.5,1.7,2.9c3.1,0.7,3.4,2.9,3.5,5.6c0.1,3.4-0.8,7,0.7,10.3c0.1,0.7,0.1,1.5,0.4,2.2
		c0.5,1.2,1,2.6,2.7,2.2c1.8-0.5,1.7-2.1,1.5-3.5c-0.1-0.6-0.5-1.2-0.7-1.8c0.4-0.2,1.1-0.3,1.3-0.7c0.6-1.5,1.2-2.9,3.3-2.1
		c1.8,0.7,2.6,1.9,2.5,3.9c-0.1,1.9,0.1,3.8-1.9,5.8c3.5-0.5,5.1,1.2,6.5,3.2c-1.1,3.6-1.5,7.1,1.3,10.1c0.5,0.6,1,1.4,1.8,1.2
		c1-0.2,0.7-1.2,0.8-1.9c0.2-1.1-0.6-2.7,1.4-3.1c0.1,0.8,0.3,1.5,0.4,2.3c-1.3,0.9-0.9,1.3,0.4,1.6c0.3,0.8,0.5,1.6,0.8,2.5
		c-1.7,1.1-1.4,2.1,0.2,3c-0.1,3.4,0.2,6.9-0.7,10.2c-1.4-1.1-0.9-2.6-0.8-4c0.2-2-0.7-3.5-1.8-5c-1-1.5-2.3-1.7-3.4-0.2
		c-2.7,3.4-3.8,7.1-3.5,11.5c0.2,3.2,5.1,1.3,4.5,4.3c-0.4,2-3.2,3.5-1.3,6c-1.3,3-4.2,4.9-5.3,8c-0.1,0.2-0.5,0.2-0.7,0.3
		c-3.6,0.3-4.4,3.3-4.4,5.8c-0.1,4-2.6,4.6-5.2,4.3c-3-0.3-5.8,0.2-8.7,0.6c-0.8,0.1-1.8-0.6-2.1,0.8c-0.5,2,1.2,3,2,4.4
		c0.4,0.8,1.4,0.5,2-0.1c0.5-0.5,1.6-0.5,1.3-1.5c-0.2-0.6-2.3-0.8-0.3-1.6c1-0.4,2.4-0.7,3.2,0.5c0.6,0.9-0.1,1.7-0.8,2.4
		c-1,1.1-2.2,2.2-3.5,2.2c-4.8,0-9.3,2.7-14.2,1.8c-1.2-0.2-2.7-0.4-3,1.5c-1.4,0.2-2.8,0.6-4-0.5c-0.1-0.7,1.7-1.2,0.6-1.7
		c-4.3-1.9-8.7-3.5-13-5.2c-1.1-0.4-2-0.4-2.8,0.6L27.3,95c1.1-3-1.9-3.4-3.2-4.3c-1.3-0.9-1.3,1-1.4,1.9c-2.3-0.9-3.4-3.4-5.5-4.5
		C3.5,74.3,0.4,57.8,4.5,39.4c0.8,0.4,1,1.1,1,2c0.1,4.3-0.1,8.5,1.4,12.7c0.7,2,2.8,3.1,2.5,5.5c-0.3,2.7,1.8,4.5,3,6.6
		c1.5,3,4.2,1.6,6.5,1.4c0.8-0.1,1.6-0.1,2.3,0c1.7,0.2,1.7,1.8,2,3c0.4,1.2-0.4,2-1.5,2.3c-1.9,0.5-4.2,0.7-3.2,3.6
		c1,2.8,1.8,5.9,6,5.2c3.1-0.5,4.4-2.6,2.7-5.1c-0.7-1.1-2.3-2.2-1-3.3c1.9-1.6,4.2-2.7,6.5-3.7c0.6-0.3,0.7,0.9,0.8,1.5
		c0.1,1.5-0.8,2.3-2,3c-1.7,1.1-2.9,2.4-0.4,4.1c1,0.7,1.1,1.8,0.2,2.7c-1,1-2.7,2-1,3.4c1.3,1.1,2.9,0.4,4.2-0.8
		c1.2-1.2,3.2-2.8,4.3-2.2c3.9,1.9,7-1.8,7.1-3c0.3-3.1-1-6.3,0.5-9.5c-2.9-0.7-2.4-3.1-3-5.2c-0.4-1.3-1.8-3-3.4-2.5
		c-2,0.6-1.6,2.1-0.6,3.7c0.8,1.4,0.7,3.1-0.1,4.9c-3.2-4-5.1-8.4-8.2-12.2c-3-3.6-4-8.1-2-12.8c0.5-1.1,1-2.2,2.5-2.1
		c2.7,0.2,5.3-0.5,8,0.7c2.6,1.3,5.3,0,6.8-2.1c1.5-2.1-0.1-3.8-2.1-5c-2-1.2-1.2-2.3,0.4-3.1c2.6-1.2,4.8-3.1,7.4-4.3
		c1.6-0.8,4.1-2.4,1.3-4.7c-2.4-2-4.9-3.8-7.5-5.5c-2.6-1.7-5.3-1.3-8.4-0.7c-5.2,1-8.7,3.4-11,8c-0.2,0.3-0.5,0.6-0.8,0.8
		c-1.8,1.7-3.6,0.1-3.4-1.1c0.4-2.4,0.2-5.8,2.9-7c2.7-1.2,4.7-3.9,8-3.7c0.7,0,2-0.5,1.6-1.7c-0.3-1-1.3-1.3-2.3-1.1
		c-2.3,0.5-4.4,1.4-6.4,2.8c-1.3,0.9-3.3,2.4-4.3-0.6c0.1-0.4,0.2-0.7,0.3-1.1C23.8,12.1,25.9,11.6,27.1,9.8z M71.6,40.7
		c0.6-1.7,2.6-2.7,2.3-4.7c-0.7-4.3-8.1-10.1-12.4-9.7c-0.7,0.1-1.4,0.5-2,1c-2.9,2.4-3.5,5.7-3.1,9.1c0.4,3.2,2.3,5.4,5.8,5.8
		c1.3,0.1,2.5,0.8,3.7,1.2c0.7,0.2,1.4,0.9,0.8,1.3c-3.9,3.1-0.1,6.1,0,9.2c0,1.9,0.9,3.8,3.6,3.6c1.5-0.1,2.4,0.7,1.9,2.5
		c-0.3,1.1,0.3,1.8,1.3,1.9c1.2,0.2,1.6-0.7,1.9-1.6c0.3-1,0.4-2,0.4-3.1c-0.3-3.2,1.9-3.8,3.9-2.7c3.2,1.8,3-0.6,3.1-2.2
		c0.2-3.3-0.3-6.2-1.8-9.5c-1.6-3.3-2.6-3.3-5-1.8C74.3,42.2,73,41.8,71.6,40.7z M67.8,15.1c-0.7-1.3-2.1-2-3.7-2.1
		c-6.7-0.2-13.5,0.4-20-2.3c-1.3-0.6-2.8,0.5-3.8,1.5c-0.5,0.5-0.6,1.3-0.1,1.8c1.1,1,2.6,0.8,3.7,0.3c3.3-1.3,5.9-0.1,8.2,2
		c1.3,1.2,2.8,2,4.2,1.1c3-1.7,5.9-1.6,9-0.8C66.4,16.9,67.3,16.7,67.8,15.1z M55.1,50.1c2.5,0.5,3.4-0.3,3.5-2
		c0.1-3.4-2.7-4.1-5.1-5c-1.3-0.5-2.7,0.3-2.7,2C51,48,52.4,50.1,55.1,50.1z M80.5,69.1c-0.1-1.4,0.3-2.8-1.7-3
		c-2.4-0.2-3.3,1.4-3.6,3.2c-0.2,1.6,1,2.8,2.5,2.8C79.5,72.2,80.3,70.7,80.5,69.1z M44.7,55.1c1.3-0.2,2.2-0.8,2-2.2
		c-0.1-1-0.9-1.6-1.9-1.5c-1.2,0.1-2.2,0.9-2.3,2.1C42.5,54.9,43.6,55,44.7,55.1z M49.8,55.9c-0.8,0.2-1.9,0.4-1.8,1.7
		c0.1,0.8,0.8,1.4,1.6,1.3c1-0.1,2.2-0.3,2.3-1.5C52,56.3,51,56.1,49.8,55.9z"/>
	<path class="st2" d="M21.8,14.4c1,3,2.9,1.5,4.3,0.6c2-1.4,4.1-2.3,6.4-2.8c0.9-0.2,2,0,2.3,1.1c0.4,1.3-0.9,1.8-1.6,1.7
		c-3.3-0.2-5.3,2.5-8,3.7c-2.7,1.2-2.4,4.6-2.9,7c-0.2,1.2,1.5,2.8,3.4,1.1c0.3-0.3,0.7-0.5,0.8-0.8c2.3-4.6,5.8-7.1,11-8
		c3.1-0.6,5.8-1,8.4,0.7c2.6,1.7,5.1,3.5,7.5,5.5c2.8,2.3,0.2,4-1.3,4.7c-2.6,1.3-4.8,3.1-7.4,4.3c-1.6,0.8-2.4,1.9-0.4,3.1
		c2,1.2,3.6,2.9,2.1,5c-1.5,2.1-4.2,3.4-6.8,2.1c-2.7-1.3-5.4-0.6-8-0.7c-1.5-0.1-2,1-2.5,2.1c-2,4.7-1,9.2,2,12.8
		c3.1,3.8,5,8.2,8.2,12.2c0.9-1.7,1-3.5,0.1-4.9c-1-1.7-1.3-3.2,0.6-3.7c1.6-0.5,3,1.1,3.4,2.5c0.6,2.1,0.1,4.5,3,5.2
		c-1.5,3.2-0.2,6.4-0.5,9.5c-0.1,1.3-3.2,5-7.1,3c-1.2-0.6-3.1,1-4.3,2.2c-1.3,1.2-2.9,1.9-4.2,0.8c-1.6-1.4,0-2.4,1-3.4
		c0.9-0.9,0.8-2-0.2-2.7c-2.5-1.7-1.3-3,0.4-4.1c1.2-0.8,2.1-1.5,2-3c-0.1-0.6-0.1-1.8-0.8-1.5c-2.3,1-4.6,2.1-6.5,3.7
		c-1.3,1.1,0.3,2.2,1,3.3c1.7,2.5,0.4,4.6-2.7,5.1c-4.2,0.7-5-2.4-6-5.2c-1-2.9,1.2-3.1,3.2-3.6c1.2-0.3,1.9-1.1,1.5-2.3
		c-0.4-1.1-0.3-2.7-2-3c-0.8-0.1-1.6-0.1-2.3,0c-2.3,0.2-5,1.6-6.5-1.4c-1.1-2.2-3.2-3.9-3-6.6c0.2-2.4-1.9-3.6-2.5-5.5
		c-1.5-4.2-1.3-8.4-1.4-12.7c0-0.8-0.2-1.5-1-2c-0.1-0.3-0.1-0.5-0.2-0.8C7,36.2,7,32.4,8.5,29.3C12.2,23.7,16,18.2,21.8,14.4z"/>
	<path class="st3" d="M92.4,42.6c-0.1-0.8-0.3-1.5-0.4-2.3c-0.1-2.4-0.8-4.6-2.6-6.4c0.2-0.5,0.4-1,0.6-1.5c2.3,1.1,4.1,0.9,4.9-1.9
		c0.1-0.2,0.6-0.3,1-0.4c1,2.5,0.9,5.6,4.1,6.6c0,0,0,0,0,0c-0.6,1.7,0.1,3.4,0,5.1c0.3,1.6,0.7,3.2,1,4.7c0.6,4.4,0.2,8.8,0,13.2
		c-0.3,1.3-0.5,2.7-0.8,4c0.3,2.6-1.7,4.5-1.7,7c0,0.2,0,0.4,0,0.7c-2,3-4.3,5.8-4.7,9.5l0,0c-3.8,2.8-6.8,6.3-9.4,10.2c0,0,0,0,0,0
		c-1.5,0.2-2.9,0.5-3.1,2.4l0,0c-1.6-0.2-2.5,1.2-3.8,1.7c-0.3,0.2-0.6,0.5-0.8,0.7c-0.5,0.5-1,1-1.6,1.5c-1.3-0.7-2.6,1.5-3.9-0.1
		c1.4-1.2,2.7-2.4,4.1-3.5c7.8-6.5,13.5-14.5,15.9-24.5c1.8-2.9,1.3-6.2,2-9.4c0.9-3.4,0.6-6.8,0.7-10.2c0.2-1,0.3-2-0.2-3
		c-0.3-0.8-0.5-1.6-0.8-2.5C93,43.6,93,43,92.4,42.6z M94.8,39c0.2,0.1,0.4,0.2,0.7,0.3c0.1-0.2,0.3-0.5,0.3-0.6
		c-0.1-0.2-0.4-0.2-0.6-0.3C95,38.5,94.9,38.7,94.8,39z"/>
	<path class="st4" d="M91.1,69.2c-2.5,10-8.1,18-15.9,24.5c-1.4,1.1-2.7,2.3-4.1,3.5c-2.1-0.3-3.2,1.4-4.5,2.4
		c-2.6,2-6.1,0.7-8.7,2.5c-3.7-0.1-7.3-0.1-11-0.2c0.3-1.9,1.8-1.7,3-1.5c5,0.9,9.4-1.8,14.2-1.8c1.4,0,2.6-1.1,3.5-2.2
		c0.6-0.7,1.4-1.4,0.8-2.4c-0.8-1.2-2.3-0.9-3.2-0.5c-2,0.8,0.1,1.1,0.3,1.6c0.3,1-0.9,1-1.3,1.5c-0.6,0.6-1.6,0.9-2,0.1
		c-0.7-1.4-2.4-2.4-2-4.4c0.4-1.4,1.3-0.7,2.1-0.8c2.9-0.4,5.7-0.9,8.7-0.6c2.6,0.2,5.2-0.3,5.2-4.3c0-2.4,0.8-5.5,4.4-5.8
		c0.2,0,0.6-0.1,0.7-0.3c1.2-3.1,4.1-5,5.3-8C88.9,72.4,88.4,68.8,91.1,69.2z"/>
	<path class="st5" d="M65.2,6c-0.1-1.8-1.5-1.5-2.6-1.5C56.8,4.2,51,3.1,45.2,4c-0.1-0.5,0-1-0.6-1.3c1.3-2.2,3.6-0.7,5.3-1.4
		C51.1,2.5,52.6,2.2,54,2c4.9-0.5,9.7-1.3,14.6-0.3c0.6,0.1,1.3-0.6,2.2-1.1c0.2,2.3-1.9,5.9,3,5c0.5-0.1-0.5,1.7,0.5,2.4
		c0,0.3,0,0.7,0.1,1c-1.1-0.3-2.1-1.2-3.2,0C69.1,7.9,67.1,6.9,65.2,6z"/>
	<path class="st6" d="M17.1,88c2.1,1.1,3.2,3.6,5.5,4.5c1.7,0.5,2.4,2.9,4.6,2.4c0,0,0.3,0.2,0.3,0.2c1.2,2.6,4.6,2,6,4.2
		c-1.2,3.2-3.9,1.8-6,1.8c-2.3,0-6.2,1.8-5.8-3.3c-3.9-0.6-2.2-5-4.6-6.6C15.9,90.2,16.7,89.1,17.1,88z"/>
	<path class="st7" d="M71.1,8.9c1.1-1.2,2.1-0.3,3.2,0c0.6,0,1.2,0.1,1.9,0.1c0,0,0.2-0.1,0.2-0.1c1.6,2.9,4.4,4.2,7.2,5.5
		c0,0,0,0,0,0c0.3,0.9,0.6,0.6,0.8,0c0.6-0.2,1.2-0.3,1.8-0.5c1-0.3,2.2-0.6,2.9,0.1c0.9,1-1.1,1.5-0.9,2.6
		c-0.4,0.6-2.5-0.5-1.5,1.6c-0.9,0.6-0.9,1.6-0.9,2.5l0,0c-0.9,0.6-0.7,1.5-0.8,2.4c-2.4-2.6-4.4-5.5-7-8
		C75.9,13,72.6,11.9,71.1,8.9z"/>
	<path class="st7" d="M29.7,107.8c0-1.9,1.4-2.3,2.7-1.8c2.4,1.1,3,4,5.1,5"/>
	<path class="st5" d="M57.8,102.2c2.6-1.8,6-0.5,8.7-2.5c1.3-1,2.4-2.8,4.5-2.4c1.3,1.6,2.6-0.6,3.9,0.1c0.7,0,1.4-0.1,2.1-0.1
		c-0.1,0.5-0.3,1.3-0.4,1.3c-3.4-0.4-5.7,0.8-6.7,4.2c-0.3,0.9-1.2,0.8-2,0.8C64.6,103.6,61.2,103.1,57.8,102.2z"/>
	<path class="st8" d="M90.6,88c0.8,0,1.6-0.1,2.3,0c1.2,0.1,2.9-0.5,3,1.4c0.2,2-1.6,1.7-2.8,1.7c-1.3,0-1.5,1.2-2.2,1.8
		c-3.2,3.3-3.2,3.2-6.5,0.6c0,0-0.2-0.2-0.2-0.2c0-0.7,0.1-1.5,0.1-2.2l0,0C87.1,91.4,88,87.9,90.6,88z"/>
	<path class="st6" d="M103.9,29.3c2.3-0.3,3.4,0.6,3.1,3c-0.1,1.3,0.1,2.6,0,3.8c-0.1,1.3,0.6,3.3-1.7,3.1c-1.7-0.1-3-2-2.6-3.2
		c0.7-2.2-0.5-4-0.4-6C102.9,29.9,103.4,29.6,103.9,29.3z"/>
	<path class="st4" d="M33.6,99.3c-1.5-2.2-4.8-1.6-6-4.2c0.8-0.9,1.7-1,2.8-0.5c4.4,1.7,8.8,3.3,13,5.2c1.1,0.5-0.7,1-0.6,1.7
		C39.8,100.8,36.7,100.1,33.6,99.3z"/>
	<path class="st9" d="M86.8,18.2c-1-2,1.1-1,1.5-1.6c2.1-0.3,3.4,0.5,3.8,2.7c-0.2,2.4,1.9,2.2,3.3,2.9c0,0,0,0,0,0
		c0,1.6,0,3.2-0.1,4.8c-2.4,0.2-2.2-2.6-3.8-3.3c-0.4-0.5-0.8-0.9-1.5-0.6l0,0c0.6-1.8-1.5-2.4-1.7-3.8c-0.3-0.6-0.8-0.8-1.4-0.9
		L86.8,18.2z"/>
	<path class="st5" d="M38.3,5.3C35.2,6.5,32,7.8,28.9,9C30,2.7,32.1,1.9,38.3,5.3z"/>
	<path class="st6" d="M27.1,9.8c-1.3,1.8-3.4,2.4-5,3.6c-0.4-0.7-0.9-1.3-1.8-0.7c-1,0.6-2.1,1.6-2.3-0.6c-0.1-1.4-0.2-2.8,1.9-3
		C22.4,8.9,24.7,9.5,27.1,9.8z"/>
	<path class="st5" d="M8.5,29.3C7,32.4,7,36.2,4.3,38.6c-0.4-1.3,0.1-2.6-0.2-4C3.2,29.9,3.6,29.5,8.5,29.3z"/>
	<path class="st7" d="M103.9,29.3c-0.5,0.3-1,0.5-1.6,0.8c-1,0.1-2.5-0.3-1.9,1.7c0.3,1.1,0.7,2.2-0.5,3c-1.2-1.7-1.5-3.5-1.4-5.5
		c1.1-0.1,1.5-0.7,1.4-1.8c-0.2-1.4-1.3-1.3-2.3-1.3c0-0.3,0-0.5,0-0.8C100.3,24.7,102.9,26.3,103.9,29.3z"/>
	<path class="st9" d="M90.6,88c-2.6,0-3.5,3.4-6.2,3.1c2.6-3.9,5.6-7.4,9.4-10.2c0,0.8,0,1.6,0,2.4C90.8,83.6,90.6,85.7,90.6,88z"/>
	<path class="st3" d="M49.9,1.3c-1.7,0.7-4-0.8-5.3,1.4c-1.1,0-2.3,0-3.5,0c0.6-4.3,3.5-3.9,6.3-3.9C49.2-1.1,50.2-0.6,49.9,1.3z"/>
	<path class="st6" d="M111.8,66.8c-0.4,1.3,0.9,3.6-1.5,3.8c-2.5,0.2-1.7-2.1-1.6-3.4c0.1-1.4-1.1-3.9,1.5-4
		C112.6,63.1,111.3,65.5,111.8,66.8"/>
	<path class="st3" d="M93.7,83.3c0-0.8,0-1.6,0-2.4c0,0,0,0,0,0c3.5-0.1,2.8-4,4.7-5.5c0.9,0.2,2-0.4,2.9,1
		c-1.6,0.7-2.9,1.6-3.1,3.7C98.1,82.9,96.3,83.7,93.7,83.3z"/>
	<path class="st9" d="M83.6,14.5c-2.8-1.4-5.6-2.6-7.2-5.5c0.4,0,0.8,0.1,1.1,0C81.9,8.3,83.8,10.3,83.6,14.5z"/>
	<path class="st8" d="M111.6,25.6c0.6,2.6-0.7,4.5-2.5,7c-0.9-2.5-0.4-4.7-0.5-6.8"/>
	<path class="st9" d="M101,59.8c0.2-4.4,0.6-8.8,0-13.2c0.5,0,0.9,0,1.4-0.1c1.5,4.4,0.4,8.9,0.1,13.3
		C101.9,59.8,101.5,59.8,101,59.8z"/>
	<path class="st9" d="M98.4,75.5c-1.9,1.5-1.1,5.4-4.7,5.5c0.5-3.7,2.8-6.5,4.7-9.5C98.4,72.8,98.4,74.1,98.4,75.5z"/>
	<path class="st6" d="M95.4,22.3c-1.4-0.7-3.5-0.5-3.3-2.9c1.2-0.4,0.8-3.2,2.5-2.1C96.3,18.3,96.8,20.3,95.4,22.3z"/>
	<path class="st9" d="M98.6,29.3c-0.1,2,0.2,3.9,1.4,5.5c0,0.6,0,1.3,0.1,1.9c-3.2-1-3.2-4.1-4.1-6.6c0.3-0.3,0.7-0.7,1-1
		C97.5,29.2,98,29.2,98.6,29.3z"/>
	<path class="st9" d="M98.4,70.8c0-2.5,2.1-4.4,1.7-7c0.4,0,0.7,0,1.1,0c-0.1,1.6-0.4,3.3-0.3,4.9C101,70.7,99.8,70.7,98.4,70.8z"/>
	<path class="st9" d="M77.1,97.2c-0.7,0-1.4,0.1-2.1,0.1c0.5-0.5,1-1,1.6-1.5c0.3-0.2,0.6-0.5,0.8-0.7c1.3-0.5,2.2-1.8,3.8-1.7
		c0.3,0.8,0.5,1.6,0.8,2.4c-0.8,0-1.5,0-2.3,0.1c-0.5,0.2-1.1,0.4-1.6,0.5C77.8,96.7,77.5,96.9,77.1,97.2z"/>
	<path class="st6" d="M97.6,25.5c0,0.3,0,0.5,0,0.8c-0.3,0.3-0.5,0.5-0.8,0.8c-0.5,0-1.1,0-1.6,0l0,0c0-1.6,0-3.2,0.1-4.8
		C97.3,22.5,97.7,23.8,97.6,25.5z"/>
	<path class="st8" d="M82,95.8c-0.3-0.8-0.5-1.6-0.8-2.4c0,0,0,0,0,0c1,0,2-0.1,3-0.1c0,0,0.2,0.2,0.2,0.2
		C84.6,95.3,85.3,97.6,82,95.8z"/>
	<path class="st10" d="M102.3,46.5c-0.5,0-0.9,0-1.4,0.1c-0.3-1.6-0.7-3.2-1-4.7c0.5,0,1,0,1.5-0.1
		C102.6,43.2,102.4,44.9,102.3,46.5z"/>
	<path class="st10" d="M101.2,63.8c-0.4,0-0.7,0-1.1,0c0.3-1.3,0.5-2.7,0.8-4c0.5,0,0.9,0.1,1.4,0.1
		C102.4,61.3,102.3,62.7,101.2,63.8z"/>
	<path class="st9" d="M101.4,41.8c-0.5,0-1,0-1.5,0.1c0.1-1.7-0.6-3.4,0-5.1C101.3,38.2,101.4,40,101.4,41.8z"/>
	<path class="st8" d="M78.1,96.4c0.5-0.2,1.1-0.4,1.6-0.5c-0.3,0.9,0.5,2.3-0.8,2.5C77.7,98.6,78.3,97.2,78.1,96.4z"/>
	<path class="st9" d="M76.2,9.1C75.5,9,74.9,9,74.3,9c0-0.3,0-0.7-0.1-1C74.9,8.3,75.5,8.7,76.2,9.1z"/>
	<path class="st7" d="M91.7,14.9c-0.1,0.1-0.2,0.2-0.3,0.2c-0.1,0-0.2-0.1-0.3-0.2C91.3,14.9,91.5,14.9,91.7,14.9z"/>
	<path class="st9" d="M84.4,14.5c-0.3,0.6-0.6,0.9-0.8,0C83.9,14.5,84.1,14.5,84.4,14.5z"/>
	<path class="st2" d="M71.6,40.7c1.4,1.1,2.7,1.5,4.3,0.5c2.4-1.5,3.4-1.5,5,1.8c1.5,3.2,2.1,6.2,1.8,9.5c-0.1,1.6,0.1,4-3.1,2.2
		c-2-1.1-4.1-0.5-3.9,2.7c0.1,1-0.1,2.1-0.4,3.1c-0.2,0.8-0.7,1.8-1.9,1.6c-1-0.2-1.7-0.8-1.3-1.9c0.5-1.8-0.3-2.6-1.9-2.5
		c-2.7,0.2-3.6-1.8-3.6-3.6c-0.1-3-3.9-6.1,0-9.2c0.6-0.5-0.1-1.1-0.8-1.3c-1.2-0.4-2.4-1.1-3.7-1.2c-3.5-0.4-5.4-2.6-5.8-5.8
		c-0.5-3.4,0.2-6.7,3.1-9.1c0.6-0.5,1.3-0.9,2-1c4.3-0.4,11.7,5.4,12.4,9.7C74.2,38.1,72.2,39.1,71.6,40.7z"/>
	<path class="st4" d="M71.1,8.9c1.5,3,4.8,4,7.1,6.2c2.6,2.5,4.5,5.5,7,8c1,1.8,2.1,3.6,3.1,5.4c-0.4,1.7,1,2.7,1.8,3.9
		c-0.2,0.5-0.4,1-0.6,1.5c-0.9,0-1.8,0.1-2.7,0.1c-1.4-2-3-3.7-6.5-3.2c2-2,1.8-4,1.9-5.8c0.1-2-0.7-3.2-2.5-3.9
		c-2.1-0.8-2.7,0.6-3.3,2.1c-0.1,0.3-0.8,0.5-1.3,0.7c-1.4-0.3-2.6,0.6-3.9,0.8c-1.5-3.3-0.7-6.9-0.7-10.3c-0.1-2.7-0.3-4.9-3.5-5.6
		c-1.3-0.3-2.4-1.2-1.7-2.9C67.1,6.9,69.1,7.9,71.1,8.9z"/>
	<path class="st11" d="M91.1,69.2c-2.7-0.5-2.2,3.2-4.3,3.3c-1.9-2.6,0.9-4,1.3-6c0.6-3-4.2-1.1-4.5-4.3c-0.3-4.4,0.8-8.2,3.5-11.5
		c1.2-1.5,2.4-1.3,3.4,0.2c1,1.5,1.9,3,1.8,5c-0.1,1.3-0.6,2.9,0.8,4C92.3,63,92.8,66.4,91.1,69.2z"/>
	<path class="st2" d="M67.8,15.1c-0.5,1.6-1.4,1.9-2.5,1.6c-3.1-0.8-6-1-9,0.8c-1.4,0.8-2.9,0-4.2-1.1c-2.3-2.1-4.9-3.3-8.2-2
		c-1.1,0.5-2.6,0.7-3.7-0.3c-0.5-0.4-0.4-1.3,0.1-1.8c1.1-1,2.5-2,3.8-1.5c6.5,2.7,13.2,2.1,20,2.3C65.7,13.1,67.1,13.8,67.8,15.1z"
		/>
	<path class="st11" d="M86.7,34c0.9,0,1.8-0.1,2.7-0.1c1.7,1.8,2.5,3.9,2.6,6.4c-2,0.3-1.2,1.9-1.4,3.1c-0.1,0.7,0.2,1.7-0.8,1.9
		c-0.9,0.2-1.3-0.6-1.8-1.2C85.2,41.1,85.6,37.6,86.7,34z"/>
	<path class="st2" d="M55.1,50.1c-2.7,0.1-4.1-2-4.2-5.1c-0.1-1.6,1.4-2.4,2.7-2c2.3,0.8,5.2,1.6,5.1,5
		C58.5,49.8,57.6,50.6,55.1,50.1z"/>
	<path class="st2" d="M80.5,69.1c-0.2,1.6-1,3-2.8,3.1c-1.5,0-2.8-1.2-2.5-2.8c0.3-1.9,1.2-3.5,3.6-3.2
		C80.7,66.3,80.4,67.7,80.5,69.1z"/>
	<path class="st2" d="M71.1,24.7c1.3-0.2,2.5-1.1,3.9-0.8c0.2,0.6,0.6,1.2,0.7,1.8c0.2,1.4,0.3,3-1.5,3.5c-1.7,0.4-2.2-1-2.7-2.2
		C71.2,26.3,71.2,25.5,71.1,24.7z"/>
	<path class="st2" d="M44.7,55.1c-1.1,0-2.2-0.2-2.2-1.5c0.1-1.3,1-2,2.3-2.1c1-0.1,1.8,0.5,1.9,1.5C46.9,54.3,46,54.9,44.7,55.1z"
		/>
	<path class="st4" d="M27.3,95c-2.2,0.5-2.9-1.9-4.6-2.4c0.1-1,0.1-2.8,1.4-1.9C25.4,91.6,28.4,92,27.3,95z"/>
	<path class="st2" d="M49.8,55.9c1.2,0.1,2.2,0.3,2.1,1.4c-0.1,1.3-1.3,1.4-2.3,1.5C48.8,59,48,58.5,48,57.7
		C47.9,56.3,49,56.1,49.8,55.9z"/>
	<path class="st10" d="M93.5,46.7c0.5,1,0.4,2,0.2,3C92.1,48.8,91.8,47.8,93.5,46.7z"/>
	<path class="st11" d="M92.4,42.6c0.6,0.4,0.6,1,0.4,1.6C91.5,43.9,91.1,43.5,92.4,42.6z"/>
	<path class="st7" d="M90,32.5c-0.8-1.2-2.1-2.2-1.8-3.9c1.2,0.3,2.6,1.8,3.2-0.7c0.1-0.1,0.2-0.2,0.3-0.4c-0.1,0.1-0.2,0.2-0.4,0.3
		c-1.6-1.4,0.3-2.7,0.1-4.1c1.6,0.7,1.4,3.6,3.8,3.3c0,0,0,0,0,0c-0.2,1.7,0.8,1.1,1.6,0.8c0,0.4,0,0.9,0,1.3c-0.3,0.3-0.7,0.7-1,1
		c-0.3,0.1-0.9,0.2-1,0.4C94.1,33.4,92.3,33.6,90,32.5z"/>
	<path class="st9" d="M84.2,93.3c-1,0-2,0.1-3,0.1c0.2-1.9,1.6-2.2,3.1-2.4C84.3,91.8,84.3,92.5,84.2,93.3z"/>
	<path class="st8" d="M94.8,39c0.1-0.2,0.2-0.4,0.3-0.7c0.2,0.1,0.6,0.1,0.6,0.3c0.1,0.2-0.2,0.4-0.3,0.6C95.3,39.1,95,39.1,94.8,39
		z"/>
	<path class="st5" d="M77.4,95.1c-0.3,0.2-0.6,0.5-0.8,0.7C76.8,95.6,77.1,95.3,77.4,95.1z"/>
	<path class="st3" d="M91.4,27.9c-0.5,2.5-2,1.1-3.2,0.7c-1-1.8-2.1-3.6-3.1-5.4c0-0.9-0.2-1.8,0.8-2.4c0.1,0.5,0.1,1.1,0.7,1.2
		c0.1,0,0.5-0.3,0.4-0.4c-0.1-0.7-0.7-0.7-1.2-0.7c0-1,0-1.9,0.9-2.5c0,0,0,0.1,0,0.1c0.2,0.7,0.8,0.8,1.4,0.9
		c0.2,1.4,2.3,2,1.7,3.8c-0.7,0.2-1.6-0.2-2,0.8c-0.2,0.4,0.2,0.7,0.6,0.7c1.1,0.1,1.2-0.7,1.4-1.5c0.7-0.3,1.1,0.1,1.5,0.6
		C91.6,25.1,89.7,26.4,91.4,27.9L91.4,27.9z"/>
	<path class="st7" d="M88.2,19.2c-0.6,0-1.2-0.2-1.4-0.9C87.4,18.4,87.9,18.6,88.2,19.2z"/>
	<path class="st0" d="M96.9,29.1c0-0.4,0-0.9,0-1.3c0-0.3,0-0.5,0-0.8c0.3-0.3,0.5-0.5,0.8-0.8c1,0,2.1-0.1,2.3,1.3
		c0.1,1-0.3,1.7-1.4,1.8C98,29.2,97.5,29.2,96.9,29.1z"/>
	<path class="st9" d="M96.9,27c0,0.3,0,0.5,0,0.8c-0.8,0.3-1.8,0.9-1.6-0.8C95.8,27,96.3,27,96.9,27z"/>
	<path class="st6" d="M91.3,27.8c0.1-0.1,0.2-0.2,0.4-0.3C91.6,27.6,91.5,27.7,91.3,27.8C91.4,27.9,91.3,27.8,91.3,27.8z"/>
	<path class="st7" d="M90,23.1c-0.2,0.7-0.4,1.6-1.4,1.5c-0.4,0-0.8-0.3-0.6-0.7C88.3,22.9,89.2,23.2,90,23.1
		C89.9,23,90,23.1,90,23.1z"/>
	<path class="st7" d="M85.9,20.8c0.5,0.1,1.1,0.1,1.2,0.7c0,0.1-0.3,0.5-0.4,0.4C86,21.8,86,21.3,85.9,20.8
		C85.9,20.8,85.9,20.8,85.9,20.8z"/>
</g>
<g>
	<path class="st12" d="M90.8,126.5H15c-2.2,0-4-1.8-4-4v-23c0-2.2,1.8-4,4-4h75.8c2.2,0,4,1.8,4,4v23
		C94.8,124.7,93,126.5,90.8,126.5z"/>
	<g>
		<path class="st13" d="M31.9,113c-0.1-2-0.1-4.4-0.1-6.8h-0.1c-0.5,2.1-1.2,4.4-1.8,6.4l-2,6.4H25l-1.8-6.4
			c-0.5-1.9-1.1-4.3-1.5-6.4l0,0c-0.1,2.2-0.2,4.8-0.3,6.8l-0.3,6.3h-3.4l1.1-16.5h5l1.6,5.5c0.5,1.9,1,4,1.4,5.9h0.1
			c0.5-1.9,1-4.1,1.6-5.9l1.8-5.5h4.9l0.9,16.5h-3.6L31.9,113z"/>
		<path class="st13" d="M53.7,110.9c0,5.4-3.3,8.7-8.1,8.7c-4.9,0-7.7-3.7-7.7-8.4c0-4.9,3.2-8.6,8-8.6
			C51,102.6,53.7,106.3,53.7,110.9z M41.8,111.1c0,3.2,1.5,5.5,4,5.5s4-2.4,4-5.6c0-3-1.4-5.5-4-5.5
			C43.3,105.5,41.8,107.9,41.8,111.1z"/>
		<path class="st13" d="M71.2,110.9c0,5.4-3.3,8.7-8.1,8.7c-4.9,0-7.7-3.7-7.7-8.4c0-4.9,3.2-8.6,8-8.6
			C68.5,102.6,71.2,106.3,71.2,110.9z M59.3,111.1c0,3.2,1.5,5.5,4,5.5c2.5,0,4-2.4,4-5.6c0-3-1.4-5.5-4-5.5
			C60.8,105.5,59.3,107.9,59.3,111.1z"/>
		<path class="st13" d="M73.7,119.3v-16.5H78l3.4,6c1,1.7,2,3.8,2.7,5.6h0.1c-0.2-2.2-0.3-4.4-0.3-6.9v-4.8h3.4v16.5h-3.9l-3.5-6.4
			c-1-1.8-2.1-3.9-2.9-5.8h-0.1c0.1,2.2,0.1,4.5,0.1,7.2v5h-3.3V119.3z"/>
	</g>
</g>
</svg>
