<?xml version="1.0" encoding="utf-8"?>
<!-- Generator: Adobe Illustrator 25.0.0, SVG Export Plug-In . SVG Version: 6.00 Build 0)  -->
<svg version="1.1" id="Layer_1" xmlns="http://www.w3.org/2000/svg" xmlns:xlink="http://www.w3.org/1999/xlink" x="0px" y="0px"
	 width="105.5px" height="129px" viewBox="0 0 105.5 129" style="enable-background:new 0 0 105.5 129;" xml:space="preserve">
<style type="text/css">
	.st0{fill:#FCFCFC;}
	.st1{fill:#4B5D65;}
	.st2{fill:#2D3C44;}
	.st3{fill:#EEF1F2;}
	.st4{fill:#EBEDEE;}
	.st5{fill:#F2F5F4;}
	.st6{fill:#E5E8EA;}
	.st7{fill:#B7C0C4;}
	.st8{fill:#A5B0B2;}
	.st9{fill:#D0D7D8;}
	.st10{fill:#252D32;}
	.st11{fill:#DDE2E3;}
	.st12{fill:#F8F4EC;}
	.st13{fill:#E9E0DB;}
	.st14{fill:#48A6DD;}
	.st15{fill:#FFFFFF;}
</style>
<g>
	<path class="st0" d="M50.7-9.6c-0.4,4.2-4.6,4.3-7.1,6.6c-0.8,0.7-2.9-0.2-2.5,1.6c0.3,1.6,1.8,2,3.4,2c-0.5,3.2-4.1,0.2-5.1,2.6
		c0.8,0.7,2.5,0.1,2.7,1.7c-1,0.2-1.9,0.3-2.9,0.5c-1-0.2-2-0.2-2.6,0.9C35,6.7,33.8,8,32,7.6c-2.2-1.8-4.4,0.3-6.7,0.1
		c-4.1-0.3-4.1,0-5,4.4c1.5,0.3,2.2-1.1,3.4-1.6c1-0.4,1.7-0.6,1.9,0.8c-1.9,1.3-4,2.3-5.4,4.2c-1.5,1.3-3.2,2.5-4.6,3.8
		c-4,3.8-6.9,8.6-9.2,13.6c-1.7,3.7-4,7.4-4,11.7C2,50,1.9,55.5,2.4,60.9c-0.2,1.4-0.1,2.7,0.4,4.1c1.9,6.2,4.1,12.2,7.3,17.8
		c-2.5-0.1-1,2.9-2.6,3.7c-0.9-1.1-0.5-2.2-0.7-3.1c-0.5-1.6-2.1-1.8-2.5-0.6c-0.7,1.8-1.1,4.1-0.7,6c0.3,1.7,2.4,1,3.7,1.2
		c2.4,0.3,5.4-1.1,7,0.8c1.4,1.6,2.4,0.8,3.6,0.8c1.3,1,2.6,2.1,3.9,3.1c-1.4,5.5-0.6,6.3,5.1,5c0.4-0.1,0.7-0.1,1.1-0.2
		c0.3-0.1,0.6-0.2,1-0.3l0.2,0c-0.8,5.8-0.3,6.3,4.6,5.1c0.6-0.9-3.6,0-0.7-1.8c0.8-0.5,1.6-0.8,2.4-1.2c3.8,0.8,7.5,1.7,11.3,2.5
		c-0.3,0.9,1.2,1.8,0.1,2.7c-1.2-0.1-2.3-0.1-2.4,1.5c-4.5-0.4-9.1-2.4-13.1,2.1"/>
	<path class="st0" d="M52.3,116.2c-0.1-2,0.1-3.7,2.8-3.5c0.8,0.1,1.7-0.1,1.7-1.1c0-1-0.9-1.1-1.6-1.4c-2.4-1-4.9-0.4-7.3-0.6
		c-1.3-0.1-3,0.6-3.4-1.6c0.9,0,1.9,0.1,2.4-0.9c1.4,0.2,2.8,0.5,4.3,0.7c1,0.2,2.4,0.7,2.9-0.2c0.8-1.5-1.8-1-1.8-2.3
		c3.4,0.4,6.7-2,10.1-0.5c1.9,0.1,3.9,0.1,5.8,0.2c1.8,0.1,2.2-0.9,2-2.5c0.1-0.8,0.2-1.5,0.3-2.3l0.3,0l0.3,0
		c1.1-0.1,2.4,0.2,2.4-1.6l0,0c2.8-0.6,5.7-1.2,8.5-1.7c-1.1-0.4-1.5-1.2-1.4-2.2l0,0c1.3,0,2.4,0.1,3.2-1.4
		c0.7-1.3,2.2-2.9,3.4-2.9c4-0.1,3.9-2.5,3.6-5.2l-0.1-0.3c3.3-0.1,3.9-2.4,4-5.1l0,0c1.8-0.5,0.6,1.7,1.8,1.9
		c1.2-2.4,1.6-4.8,0.6-7.4c0,0,0,0,0,0c2.5-0.4,1.3-2.4,1.6-3.7c0.7-0.4,1.2-0.8,0.8-1.7l0.1,0c0.7,0,1.5,0.1,2.2,0.1
		c0.2,0.6,0.7,1.2,0.6,1.8c-0.2,1.6-1,3.3,1.6,3.4c2.3,0,1.7-1.9,1.7-3.2c0.1-6.4,0-12.8,0-19.2c0-2.5-0.9-4.4-3-5.8
		c0-0.8,0-1.6-0.1-2.3c2.5-0.7,1-1.9,0.4-3.2c-0.8-1.8-2.7-3.3-2.1-5.6c0.5-2-3.9-1.5-2-4.2c-0.6-0.1-1.2-0.3-1.9-0.4
		c0-0.5,0-1.1,0-1.6c-0.1-1.5-1.2-1.6-2.3-1.6c-1.6-1.4-1.4-4.2-3.9-4.8c0-0.7-0.1-1.5-0.1-2.2c-0.1-1.4,0.4-3.3-0.4-4.2
		c-1.5-1.7-1.2-2.6,0-4.3C91.9,9.6,90.5,8,88,7.6c-3.3-0.5-3.7,1.9-4.5,4.2c-1.1-1.2-0.2-3.8-1.1-3.5c-2.7,0.9-5-1.9-7.6-0.4
		c-1.6-0.1-3.1-0.2-4.7-0.3c-0.4,0-0.9,0-1.3,0.1c-0.3-3.8-3.7-2.1-5.5-3.1c-0.2-0.7-0.2-1.5-0.5-2.1c-0.2-0.5-1.1-0.9-0.4-1.4
		c0.3-0.2,1.1,0.2,1.7,0.4c1.1,2.1,3.2,1.9,4.8,1.3c2.4-0.9,1.2-3.3,1.4-5.1c0.1-5.6,0.1-5.6-5.5-5.6"/>
	<path class="st0" d="M70.3,111c-0.8-2.5-3.1-1-4.6-1.4c-0.2-0.1-0.5,0-0.8,0c0.7-1.5,2.8-0.1,3.7-2c-3.9-1-7.8,0.4-11.5-1.6
		c0.5,3.9,3.3,3.6,5.6,4.3c0.6,4.5,4,1.7,6.1,2.3"/>
	<path class="st0" d="M111.2,44.5c-0.4-1.2,0.7-3.8-1.1-3.5c-1.9,0.3-2.6,2.8-2.8,4.9c-0.1,1.4,0.2,2.7,2,2.5
		C112.2,48.2,110.8,45.9,111.2,44.5z"/>
	<path class="st0" d="M113.5,31.3c-0.6-1.3-0.4-3.5-2.9-3.3c-1.1,0.1-2.8-0.1-2.2,1.7c0.4,1.4-0.2,3.7,2.4,3.8
		C112.2,33.5,113.3,33.1,113.5,31.3z"/>
	<path class="st1" d="M2.5,44.6c0-4.3,2.3-8,4-11.7c2.2-5,5.1-9.7,9.2-13.6c1.4-1.4,3.1-2.6,4.6-3.8c1.2,1.9,2.7,1.7,4.3,0.5
		c1.8-1.3,3.7-2.4,5.9-3c1.2-0.3,2.7-1.3,3.4,0.4c0.8,1.8-1.1,2.1-2.1,2.6c-2.5,1.2-5.2,2.3-7.7,3.5c-1,0.4-3.2,7.4-2.5,8
		c2.2,1.7,3.4-1,5.2-1.3c1.2-0.2,1.3-1.5,1.3-2.6c0.1-2.2,1.3-3.3,3.5-3.5c3.3-0.2,5.8-2.4,8.8-2.9c0-1.8-2.8-2.3-1.3-3.9
		c1.1-1.3,2.4-3.3,4.8-1.9c0.4,0.2,1,0.1,1.5,0.1c0,0.3,0.1,0.5,0,0.8c-1.7,5.5-3.1,11.1-4.1,16.7c-0.8,4.8-1.2,9.9-1.6,14.8
		c-2.5,0-5-0.2-7.4-0.1c-3.2,0.1-4.3,2.5-4.6,5.7c-0.8,7.6,5.9,11.3,8.3,17.3c0.9,2.3,3.1,4,3.3,6.8c0.2,2.1,1.1-0.3,1.6,0
		c1,2,0.3,4.2,0.7,6.3c-0.5,0.2-0.8,0.5-0.1,0.8c0.1,0.5,0.1,1,0.2,1.4c-3.4,0.3-6.7,0.9-9.4,3.5c-0.8,0.8-2.3,1.1-3.1-0.2
		c-0.7-1.2-0.1-2.3,1.1-3c1.9-1.1,2.1-2.2,0-3.4c-1.9-1.1-1.2-2.3-0.1-3.5c0.5-0.6,1.3-0.9,1.8-1.5c0.7-0.8,2.2-1.5,0.9-2.9
		c-1.1-1.2-2.2,0-3.1,0.6c-0.9,0.5-1.1,1.7-2.3,1.9c-3.1,0.5-2.7,2.1-1.3,4.1c0.7,1,1.8,2.4,0.6,3.5c-1.4,1.3-3.4,2.3-5.3,1.4
		c-2.3-1.1-4.1-3-4.2-5.6c0-1.9,1.7-2.6,3.6-2.8c3.3-0.3,2.6-2.2,1.5-4.2c-0.9-1.5-2.4-1.2-3.9-1.3c-6-0.1-8.4-2.2-10.2-7.8
		c-1.1-3.5-1.4-7.6-4.4-10.3c0.2-1.6,0.5-3.2,0.7-4.8C4.8,43.9,3.7,44.2,2.5,44.6z"/>
	<path class="st2" d="M3.8,50.6c3,2.8,3.3,6.8,4.4,10.3c1.8,5.6,4.2,7.8,10.2,7.8c1.4,0,3-0.3,3.9,1.3c1.1,1.9,1.8,3.9-1.5,4.2
		c-1.9,0.2-3.6,0.9-3.6,2.8c0.1,2.6,1.9,4.5,4.2,5.6c2,0.9,3.9-0.1,5.3-1.4c1.2-1.1,0.1-2.5-0.6-3.5c-1.5-2-1.9-3.6,1.3-4.1
		c1.3-0.2,1.5-1.4,2.3-1.9c0.9-0.5,2-1.7,3.1-0.6c1.3,1.3-0.2,2.1-0.9,2.9c-0.5,0.6-1.3,0.9-1.8,1.5c-1.1,1.2-1.7,2.5,0.1,3.5
		c2.1,1.2,1.9,2.2,0,3.4c-1.2,0.7-1.7,1.8-1.1,3c0.8,1.3,2.3,1,3.1,0.2c2.7-2.5,6-3.2,9.4-3.5c1.9,6.8,3.8,13.6,5.8,20.4
		c-0.2,0.5-0.3,0.9-0.5,1.4c-3.8-0.8-7.5-1.7-11.3-2.5c-1.8-1.6-4.2-1.5-6.4-2.1c0,0-0.2,0-0.2,0c-0.3-0.2-0.5-0.5-0.8-0.7
		c-1.9-1.7-3.9-3.1-6.4-3.8c-1.3-1-2.6-2.1-3.9-3.1c-2-3.4-4.6-6.3-7.8-8.7c-3.2-5.6-5.4-11.7-7.3-17.8c-0.5-1.4-0.6-2.7-0.4-4.1
		c0.4,0,0.9,0,1.3,0c0.1,0.8,0.3,1.6,1.4,1.4C5.9,62.2,6,61.6,6,60.9c0-1.5-1-1.5-2.2-1.4C3.8,56.6,3.8,53.6,3.8,50.6z"/>
	<path class="st3" d="M47.4,102.4c-1.9-6.8-3.8-13.6-5.8-20.4c-0.1-0.5-0.1-1-0.2-1.4c0-0.3,0-0.5,0.1-0.8c-0.3-2.1,0.3-4.3-0.7-6.3
		c-0.2-2.1-0.5-4.1-0.7-6.2c0.5-1.4,0.6-2.7-0.2-4c-0.1-0.5-0.1-1.1-0.2-1.6c0.4-5.8,0.4-11.6-0.1-17.4c0.1-0.2,0.2-0.3,0-0.5
		c0.4-5,0.7-10.1,1.6-14.8c1-5.5,2.4-11.2,4.1-16.7c0.1-0.2,0-0.5,0-0.8c0.7-2,1.3-4.1,2-6.1C50,4.8,52.6,4.5,55.4,5
		c1.5,0.3,3.4,0.7,4.9-0.6c0.5,0,1,0,1.4,0l0.2,0.2c1.6,2.6,4.8,1.6,7,3c0.4,0,0.9,0,1.3-0.1c0.1,0.5,0.1,1.1,0.2,1.6
		c-4.7-1.7-9.6-1.8-14.5-1.6c-2.2,0.1-4.3-3.2-6-1c-1,1.4,0,4.2,0.1,6.4c-1.3,1.6,0.3,3.2,0,4.8c-1.6,0.1-1.6,1.2-1.6,2.3
		c-1.2,0.3-1.2-1.4-2.3-1.4c0.3,4.7-2,9.3,0,14c0,0.8,0,1.6,0,2.4c-0.5,0.1-1.4-1.8-1.4-0.2c0,3-1,5.9-0.9,8.9
		c-0.1,2.6,1.2,5.1,0.8,7.8c-2.9,1.2-3.3,3.5-0.9,5.5c0.5,0.4,0.9,0.9,1,1.5c0.8,1.2,2,0.7,3.1,0.8c0,0.5,0,1,0,1.6
		c-1.2,0.7-4-2.4-3.9,1.6c-2.5,2.1-2.5,4.2,0,6.3l0,0c0.1,1.7,0.4,3.4,1.6,4.8c0,0.5,0,1,0,1.5c-2.6,2.4-2.3,3.3,1.5,4.7
		c2.1,0.4,1.4,1.5,0.8,2.8c-0.9,2.1-2.5,5.3-0.8,6.4c3.7,2.4,2.5,5.4,2.1,8.2c-0.3,2.2,0.8,2.8,2.2,2.8c2.6,0,6,0.4,7.5-1
		c3.8-3.6,9.1-0.6,13-4.1c2.2-1.9,7.7-6.2,8.2-9.6c0.6-4.8,3.7-7.1,7.9-5.7c0.8,0.3,1.5,1.3,2.3,0.1c0.6-0.9,1.1-1.9,0.3-2.9
		c-1.3-1.5-1.1-3.1-1.1-4.8c0,0,0,0,0,0c1.9,0.1,0.4,3.8,2.9,2.9c1.9-0.7,1.5-2.7,1.8-4.3c0.5-2.9,2.4-1.4,3.8-1
		c-0.1,1.6-1.9,2.9-0.8,4.7c0,0,0,0,0,0c-2.5,1.1-2.4,3.3-2.4,5.5c0,0,0,0,0,0c-3.2,0.2-3.2,2.9-4,5.1c0,0,0.1,0.3,0.1,0.3
		c-3.6,3-7.9,5.2-10.2,9.6l0,0c-3.1,0.1-5,2-7.1,3.9l0,0c-1.3-0.2-2.3,0-2.4,1.6l-0.3,0c0,0-0.3,0-0.3,0c-2.7,0.2-5.5-0.1-7.3,2.5
		c-0.2,0.2-0.4,0.4-0.7,0.6c-2-1.6-4.2-0.6-6.3-0.3C53.3,103.4,50.3,104,47.4,102.4z M44.8,82.2c0.1,0.9-0.8,2.1,0.8,2.8
		C46,83.8,45.4,83,44.8,82.2z"/>
	<path class="st3" d="M64.8-8.1c5.7,0,5.7,0,5.5,5.6c-3.1-0.4-4.2,2.4-6.2,3.8c-0.6-0.1-1.4-0.6-1.7-0.4c-0.7,0.5,0.2,0.9,0.4,1.4
		c0.3,0.6,0.4,1.4,0.5,2.1c-0.5,0-0.9,0.1-1.4,0.1c0,0-0.2-0.2-0.2-0.2c-0.4-0.7-1-0.7-1.7-0.7c-3.6-1.1-7.3-1.3-11-1.5
		c0-0.8,0.1-1.7,0.1-2.5c0.8-0.1,1.6-0.3,1.4-1.3c0-0.2-0.6-0.6-0.7-0.6c-0.9,0.4-0.6,1.2-0.7,1.9c-0.8,0-1.6,0-2.4,0
		c-0.1-0.9,0.3-2.3-1.4-1.9c-0.8,0.2-2.3,0.6-0.9,2c0,0.3,0,0.5-0.1,0.8c-1.6,0.1-3.1-0.4-3.4-2c-0.4-1.9,1.7-0.9,2.5-1.6
		c2.5-2.3,6.7-2.4,7.1-6.6"/>
	<path class="st4" d="M31.4,110.1c4-4.5,8.6-2.5,13.1-2.1c0,0,0,0,0,0c0.4,2.2,2.1,1.5,3.4,1.6c2.4,0.2,4.9-0.4,7.3,0.6
		c0.7,0.3,1.7,0.4,1.6,1.4c0,1-0.9,1.2-1.7,1.1c-2.7-0.2-2.9,1.4-2.8,3.5"/>
	<path class="st2" d="M47.3,5.4c-0.7,2-1.3,4.1-2,6.1c-0.5,0-1.2,0.2-1.5-0.1c-2.4-1.4-3.7,0.6-4.8,1.9c-1.4,1.6,1.4,2.1,1.3,3.9
		c-3,0.5-5.5,2.7-8.8,2.9c-2.2,0.1-3.3,1.3-3.5,3.5c-0.1,1.1-0.2,2.4-1.3,2.6c-1.8,0.2-3.1,3-5.2,1.3c-0.7-0.6,1.5-7.5,2.5-8
		c2.6-1.2,5.2-2.3,7.7-3.5c1.1-0.5,2.9-0.8,2.1-2.6c-0.7-1.6-2.2-0.7-3.4-0.4c-2.2,0.6-4.1,1.7-5.9,3c-1.6,1.2-3.1,1.3-4.3-0.5
		c1.4-1.9,3.5-2.9,5.4-4.2c2.6-0.5,4-2.9,6.3-3.7C33.8,8,35,6.7,36.6,6.2c1.1,0.3,2,0.1,2.6-0.9c1-0.2,1.9-0.3,2.9-0.5
		c0.9,0.3,1.8,0.5,2.5-0.3C45.7,4.2,46.7,4.3,47.3,5.4z"/>
	<path class="st5" d="M97.1,30.4c0.6,0.1,1.2,0.3,1.9,0.4c-1.9,2.6,2.5,2.1,2,4.2c-0.5,2.3,1.3,3.8,2.1,5.6c0.6,1.3,2,2.4-0.4,3.2
		c-2.5-0.8-1.3-4-4.3-5.8c1.9,8.6,3.8,16.5,1.7,24.5c-0.3,0.6-0.5,1.1-0.8,1.7c-1.8-0.4-1.3-1.5-0.9-2.7c1.1-3.2,1.1-6.6,1.1-9.9
		c0-2.1-1.7-4-2.6-3.8c-4.3,1.1-2.3-1.9-2.3-3.3c-1.4-0.5-1.5,2.2-3,0.9c-0.7-2.9,1.6-5.1,1.5-7.8c1.1-2.1-0.7-1.3-1.5-1.6
		c0-0.5,0-1-0.1-1.6c1.6-2,0.5-4.2,0.8-6.4C94.2,28.3,94.6,31.3,97.1,30.4z"/>
	<path class="st5" d="M102.7,46c2.1,1.3,3.1,3.2,3,5.8c-0.1,6.4,0,12.8,0,19.2c0,1.3,0.6,3.2-1.7,3.2c-2.6,0-1.8-1.8-1.6-3.4
		c0.1-0.6-0.4-1.2-0.6-1.8c0-2.2,0-4.3,0-6.5C102.3,57,101.4,51.5,102.7,46z"/>
	<path class="st3" d="M74.9,7.8c2.6-1.5,4.9,1.3,7.6,0.4c0.8-0.3-0.1,2.3,1.1,3.5C84.3,9.5,84.7,7,88,7.6c2.5,0.4,3.9,2.1,2.4,4.2
		c-1.3,1.8-1.5,2.6,0,4.3c0.7,0.8,0.3,2.7,0.4,4.2c-0.8,0-1.5,0-2.3-0.1c1.6-3.2-1-2.2-2.4-2.3c-0.1-1-0.5-1.5-1.6-1.6
		c-1.1-1.7-2.6-2.7-4.2-3.9C78.5,11,75.9,10.3,74.9,7.8z"/>
	<path class="st6" d="M10.1,82.9c3.2,2.3,5.8,5.2,7.8,8.7c-1.2,0-2.2,0.8-3.6-0.8c-1.6-1.9-4.7-0.5-7-0.8c-1.4-0.2-3.4,0.5-3.7-1.2
		c-0.3-1.9,0-4.2,0.7-6c0.5-1.1,2.1-1,2.5,0.6c0.3,0.9-0.1,2.1,0.7,3.1C9.1,85.8,7.6,82.8,10.1,82.9z"/>
	<path class="st7" d="M102.7,46c-1.3,5.4-0.5,11-0.9,16.5c-0.6,0-1.2-0.1-1.8-0.1c2.1-8,0.2-15.9-1.7-24.5c3,1.8,1.8,5,4.3,5.8
		C102.7,44.5,102.7,45.2,102.7,46z"/>
	<path class="st8" d="M47.4,102.4c2.9,1.7,6,1,9,0.6c2.1-0.3,4.3-1.3,6.3,0.3c-0.1,0.5-0.2,1-0.2,1.5c-3.5-1.5-6.7,0.9-10.1,0.5
		c-1.3-0.6-2.6-0.8-3.5,0.6c0.4,1.2,2.5,0,2.4,1.8c-1.4-0.2-2.8-0.5-4.3-0.7c0-0.2,0-0.4,0-0.6c1.1-1-0.4-1.8-0.1-2.7
		C47,103.3,47.2,102.8,47.4,102.4z"/>
	<path class="st9" d="M32,7.6c-2.3,0.8-3.8,3.2-6.3,3.7c-0.2-1.4-0.9-1.2-1.9-0.8c-1.2,0.5-1.9,1.9-3.4,1.6c0.9-4.4,0.9-4.7,5-4.4
		C27.5,7.9,29.7,5.8,32,7.6z"/>
	<path class="st10" d="M3.8,50.6c0,3,0,5.9,0,8.9c0,0.5-0.1,1-0.1,1.4c-0.4,0-0.9,0-1.3,0C1.9,55.5,2,50,2.5,44.6
		c1.2-0.4,2.3-0.6,2,1.3C4.3,47.4,4.1,49,3.8,50.6z"/>
	<path class="st7" d="M80.6,94.7c2.3-4.3,6.7-6.5,10.2-9.6c0.2,2.7,0.3,5.1-3.6,5.2c-1.2,0-2.7,1.6-3.4,2.9
		C83,94.8,81.9,94.7,80.6,94.7z"/>
	<path class="st7" d="M74.9,7.8c1,2.5,3.6,3.1,5.5,4.5c1.6,1.1,3.1,2.2,4.2,3.9l-0.1,0.1c-1.5,0.3-2.3-0.8-3.3-1.5
		c-3.4-2.1-6.5-4.9-10.7-5.6l0,0c-0.1-0.5-0.1-1.1-0.2-1.6C71.7,7.6,73.3,7.7,74.9,7.8z"/>
	<path class="st7" d="M29.2,99.1c2.2,0.6,4.5,0.6,6.4,2.1c-0.8,0.4-1.7,0.7-2.4,1.2c-2.8,1.8,1.3,0.9,0.7,1.8
		C28.8,105.4,28.3,104.9,29.2,99.1z"/>
	<path class="st6" d="M111.2,44.5c-0.4,1.4,0.9,3.7-1.9,3.9c-1.8,0.1-2.2-1.1-2-2.5c0.2-2.1,0.9-4.6,2.8-4.9
		C111.9,40.7,110.8,43.2,111.2,44.5z"/>
	<path class="st4" d="M62.6,110.4c-2.2-0.6-5-0.4-5.6-4.3c3.7,1.9,7.6,0.6,11.5,1.6c-0.8,1.9-3,0.5-3.7,2
		C64,109.7,63.2,109.5,62.6,110.4z"/>
	<path class="st11" d="M21.8,94.6c2.5,0.7,4.5,2.1,6.4,3.8c0,0.3-0.1,0.7-0.1,1c-0.4,0.1-0.8,0.1-1.1,0.2
		C21.2,100.9,20.3,100.1,21.8,94.6z"/>
	<path class="st9" d="M64.1,1.3c2-1.4,3.1-4.3,6.2-3.8c-0.3,1.8,1,4.2-1.4,5.1C67.3,3.2,65.3,3.4,64.1,1.3z"/>
	<path class="st9" d="M44.6,4.6c-0.8,0.8-1.6,0.6-2.5,0.3c-0.2-1.6-1.9-0.9-2.7-1.7c1.1-2.4,4.6,0.6,5.1-2.6c0-0.3,0.1-0.5,0.1-0.8
		c0.8,0,1.5,0,2.3,0c0.8,0,1.6,0,2.4,0l0,0c0,0.8-0.1,1.7-0.1,2.5C47.4,2.7,45,1.8,44.6,4.6z"/>
	<path class="st4" d="M113.5,31.3c-0.2,1.8-1.3,2.2-2.7,2.1c-2.6-0.1-2-2.4-2.4-3.8c-0.5-1.7,1.1-1.6,2.2-1.7
		C113.1,27.8,112.8,30,113.5,31.3z"/>
	<path class="st9" d="M68.7,112.7c-2.1-0.6-5.5,2.1-6.1-2.3c0.6-0.8,1.4-0.7,2.2-0.7c0.3,0,0.5-0.1,0.8,0c1.6,0.4,3.8-1.2,4.6,1.4"
		/>
	<path class="st7" d="M97.1,30.4c-2.5,1-2.9-2.1-4.7-2.4c-0.2,0-0.4,0-0.6,0c-0.4-1.8-0.8-3.5-1.1-5.3l0.2-0.2
		c2.5,0.6,2.3,3.4,3.9,4.8c-0.1,1.7,1.1,1.6,2.3,1.6C97.1,29.3,97.1,29.8,97.1,30.4z"/>
	<path class="st7" d="M94.7,79.8c0-2.2-0.1-4.4,2.4-5.5c1,2.6,0.6,5-0.6,7.4C95.3,81.6,96.5,79.3,94.7,79.8z"/>
	<path class="st11" d="M62.4,104.8c0.1-0.5,0.2-1,0.2-1.5c0.2-0.2,0.4-0.4,0.7-0.6c2.4,0.7,4.7-0.2,7-0.2c0.2,1.5-0.2,2.6-2,2.5
		C66.3,104.8,64.4,104.8,62.4,104.8z"/>
	<path class="st8" d="M100,62.4c0.6,0,1.2,0.1,1.8,0.1c0,2.2,0,4.3,0,6.5c-0.7,0-1.5-0.1-2.2-0.1c-0.3-0.5-0.6-1.1-0.9-1.6
		c0.2-1,0.4-2.1,0.5-3.1C99.5,63.5,99.8,62.9,100,62.4z"/>
	<path class="st7" d="M73.5,98.6c2-1.9,4-3.9,7.1-3.9c0,1,0.3,1.8,1.4,2.2C79.2,97.5,76.4,98,73.5,98.6z"/>
	<path class="st7" d="M70.3,102.4c-2.3,0-4.6,1-7,0.2c1.8-2.6,4.7-2.3,7.3-2.5C70.5,100.9,70.4,101.7,70.3,102.4z"/>
	<path class="st7" d="M90.8,84.8c0.8-2.1,0.8-4.8,4-5.1C94.6,82.4,94.1,84.7,90.8,84.8z"/>
	<path class="st8" d="M61.9,4.6c0.5,0,0.9-0.1,1.4-0.1c1.9,1,5.3-0.7,5.5,3.1C66.7,6.2,63.5,7.3,61.9,4.6z"/>
	<path class="st4" d="M51.2,107.8c0.2-1.9-1.9-0.6-2.4-1.8c0.9-1.5,2.1-1.3,3.5-0.6c0,1.3,2.6,0.8,1.8,2.3
		C53.6,108.5,52.2,108,51.2,107.8z"/>
	<path class="st7" d="M98.7,67.2c0.3,0.5,0.6,1.1,0.9,1.6c0,0-0.1,0-0.1,0c-0.8,0.3-0.8,1-0.8,1.7c-0.3,1.3,0.9,3.4-1.6,3.7
		c-1.1-1.8,0.7-3.1,0.8-4.7C98,68.7,97.7,67.7,98.7,67.2z"/>
	<path class="st7" d="M88.5,20.2c0.8,0,1.5,0,2.3,0.1c0,0.7,0.1,1.5,0.1,2.2c0,0-0.2,0.2-0.2,0.2C89,22.7,88.1,22,88.5,20.2
		C88.4,20.2,88.5,20.2,88.5,20.2z"/>
	<path class="st4" d="M47,106.5c0,0.2,0,0.4,0,0.6c-0.5,1-1.5,0.9-2.4,0.9c0,0,0,0,0,0C44.6,106.4,45.8,106.4,47,106.5z"/>
	<path class="st5" d="M97.1,28.8c-1.2,0.1-2.3,0.2-2.3-1.6C95.9,27.2,97,27.2,97.1,28.8z"/>
	<path class="st7" d="M71.2,100.2c0.1-1.6,1.1-1.7,2.4-1.6C73.6,100.4,72.2,100.1,71.2,100.2z"/>
	<path class="st9" d="M39.2,5.3c-0.6,1-1.5,1.2-2.6,0.9C37.2,5.1,38.1,5.1,39.2,5.3z"/>
	<path class="st8" d="M98.7,70.6c0-0.7,0-1.4,0.8-1.7C99.9,69.7,99.4,70.2,98.7,70.6z"/>
	<path class="st7" d="M28,99.4c0-0.3,0.1-0.7,0.1-1c0.3,0.2,0.5,0.5,0.8,0.7C28.7,99.2,28.4,99.3,28,99.4z"/>
	<path class="st2" d="M39.6,43.8c0.1,0.2,0.1,0.4,0,0.5c-1.2,0.4-2.1,1.1-2.1,2.5c0,4.3,0,8.6,0,12.9c0,1.6,0.9,2,2.2,2
		c0.1,0.5,0.1,1.1,0.2,1.6c-3,1.5-0.6,2.7,0.2,4c0.2,2.1,0.5,4.1,0.7,6.2c-0.6-0.4-1.5,2.1-1.6,0c-0.2-2.8-2.4-4.5-3.3-6.8
		c-2.3-5.9-9.1-9.7-8.3-17.3c0.3-3.2,1.4-5.6,4.6-5.7C34.7,43.6,37.2,43.8,39.6,43.8z"/>
	<path class="st2" d="M41.4,79.8c0,0.3,0,0.5-0.1,0.8C40.7,80.2,41,80,41.4,79.8z"/>
	<path class="st1" d="M3.7,61c0-0.5,0.1-1,0.1-1.4C5,59.4,6,59.4,6,60.9c0,0.7-0.1,1.3-0.9,1.5C4.1,62.5,3.9,61.7,3.7,61z"/>
	<path class="st12" d="M98.7,67.2c-1.1,0.5-0.8,1.5-0.9,2.3c-1.5-0.5-3.3-2-3.8,1c-0.3,1.6,0.1,3.7-1.8,4.3
		c-2.6,0.9-1.1-2.8-2.9-2.9c-0.1-1.3,0.1-2.5,1.6-3.1c1.8,0.1,2.4-0.8,2.4-2.5c-0.1-1.8,0-3.5,0-5.3c0.7-0.4,1.6-0.9,1.3-1.7
		c-1.2-3-1.9-6.3-4.9-8.4c-1.5-1.1-2.4-1.7-3.6,0.3c-0.5,0.9-1.1,2.4-2.6,1.6c-1.5-0.7-1.7-2.4-1-3.4c1.2-1.9,1.3-3-1-3.7
		c-0.3-0.1-0.7-0.6-0.6-0.9c0.4-4-1.2-5.1-5-3.8c-1.2,0.4-2.7-1.1-1.9-2c2.2-2.8-0.4-4-1.5-5.5c-1.2-1.5-2.2-2.9-1.9-4.8
		c1.7,0.1,3.8,3.9,5.1-0.1c0.6-1.8-1.1-3-3.2-3.3c-2.7-0.4-1.6,1.5-1.9,2.7c-1.9-0.1-4.2,0.4-5.8-0.4c-2.1-1.2-2.4-2.8-5.6-0.1
		c-3.8,3.1-4.5,7.1-4.4,10.3c0.1,2.5,3.5,5.8,7.6,6.2c1.6,0.1,2.8,1.3,2.1,3.4c-1,3.3,1.1,6.4,0.6,9.7c-0.2,1.3,0.9,1.8,2.1,1.7
		c2.1-0.1,3.6,0.3,3.4,2.9c-0.1,1.1,0.5,1.7,1.6,1.8c1.1,0.1,2.2,0,2.7-1.1c0.3-0.8,0.3-1.8,0.4-2.7c0.4-2.5,2.1-3.9,4.3-3.5
		c1.7,0.3,3.9,1.1,2.9,4.2c-0.8,2.5,0.6,4.7,3,6.2c0.6,0.4,3.1,0.8,1.4,2.2c-1.2,1.1-1.8,1.8-1.1,3.1c1,1.7,2.3,0.1,3.5,0.2
		c0,1.7-0.1,3.4,1.1,4.8c0.8,0.9,0.3,2-0.3,2.9c-0.8,1.2-1.5,0.2-2.3-0.1c-4.2-1.4-7.3,0.9-7.9,5.7c-0.4,3.4-6,7.7-8.2,9.6
		c-3.9,3.5-9.2,0.5-13,4.1c-1.5,1.4-5,1-7.5,1c-1.4,0-2.5-0.6-2.2-2.8c0.4-2.8,1.6-5.8-2.1-8.2c-1.6-1.1-0.1-4.3,0.8-6.4
		c0.6-1.4,1.3-2.4-0.8-2.8c0.5-1.9-2.1-2.8-1.5-4.7c0-0.5,0-1,0-1.5c0.9-2.1,2.4-4.3-1.6-4.8c0,0,0,0,0,0c0-2.1,0-4.2,0-6.3
		c-0.1-4,2.7-0.9,3.9-1.6c2.6,0.5,2.1-3.2,4.9-2.8c-3.5-3.1-3.5-3.1-4.9,1.2c-1.1-0.1-2.3,0.4-3.1-0.8c2.8-2.3,2.2-4.7,0-7
		c0.5-2.7-0.9-5.1-0.8-7.8c3.1-1.2,5.6-2.6,2.6-6.4c-0.4-0.5-0.2-1.5-0.2-2.3c0-0.8,0-1.6,0-2.4c5.1,1.8,5-5.3,9-5.3
		C55,27,55,26.4,54.8,26c-0.8-1.8-2.3-3.4-4.1-3.1c-2.9,0.5-2.2-1.3-2.3-2.7c0-1.1,0-2.3,1.6-2.3c1.6-0.3,2.6,0.8,3.9,1.5
		c0.8,0.4,2,1.3,2.5,0.5c2.1-3.5,5.3-1.5,8-2c1.3-0.3,3.5,0.8,3.6-1.7c0-2-1.5-2.7-3.3-3.1c-4.9-1.1-9.7,0.7-14.6,0
		c-0.1-2.2-1.1-5-0.1-6.4c1.7-2.3,3.8,1,6,1c4.9-0.2,9.8-0.1,14.5,1.6c0,0,0,0,0,0c-0.8,5.3-0.9,5.6,4.4,6.1c2,0.2,2.2,1.5,3.2,2.4
		c2.8,2.4,3.4,4.8,1.5,7.8c-0.4,0.7-1.7,1.3-0.5,2.2c0.8,0.6,1.5,0.1,2.3-0.6c2.3-2.2,8.4-1.6,10.4,0.9c0.2-0.1,0.4-0.1,0.6,0
		c-0.3,2.1,0.8,4.4-0.8,6.4c-1,0.3-2,0.5-3,0.8c-2.8,0.9-4.5,2.9-3.7,5.8c1.5,5.5,2.3,5.9,6.8,4.4c1.5,1.3,1.6-1.3,3-0.9
		c0,1.5-2,4.4,2.3,3.3c0.9-0.2,2.6,1.7,2.6,3.8c-0.1,3.4,0,6.7-1.1,9.9c-0.4,1.2-0.9,2.3,0.9,2.7C99.1,65.1,98.9,66.2,98.7,67.2z
		 M48.7,50.1c2-1.7,2.6-1.2,3.4,0.5c1.2,2.4,3.1,1.7,4.9,0.5c2-1.3,1.5-2.8,0.3-4.3c-0.8-1-1.7-2-2.7-2.8c-2.1-1.7-4.7-0.8-5.3,1.8
		C49,47,48.9,48.1,48.7,50.1z M80.7,70.9c-0.2-2.9-1.1-4.4-3.3-4.3c-2,0.1-3.5,1.9-3.5,3.6c0,1.6,1.2,3.5,3.5,3.3
		C79.4,73.3,80.9,72.5,80.7,70.9z"/>
	<path class="st13" d="M50,13.1c4.9,0.7,9.7-1.1,14.6,0c1.9,0.4,3.4,1.1,3.3,3.1c-0.1,2.5-2.2,1.4-3.6,1.7c-2.7,0.5-5.9-1.4-8,2
		c-0.5,0.8-1.7-0.1-2.5-0.5c-1.2-0.7-2.3-1.8-3.9-1.5C50.3,16.2,48.7,14.6,50,13.1z"/>
	<path class="st13" d="M48.4,20.2c0.1,1.4-0.5,3.2,2.3,2.7c1.8-0.3,3.3,1.3,4.1,3.1c0.2,0.4,0.2,1,0.2,1.5c-4,0-3.9,7.1-9,5.3
		c-2-4.6,0.3-9.3,0-14C47.2,18.8,47.2,20.5,48.4,20.2z"/>
	<path class="st10" d="M39.7,61.7c-1.4,0-2.3-0.4-2.2-2c0-4.3,0-8.6,0-12.9c0-1.4,0.9-2.1,2.1-2.5C40.1,50.1,40.1,55.9,39.7,61.7z"
		/>
	<path class="st8" d="M44.6,4.6c0.4-2.8,2.8-1.9,4.5-2.3c3.7,0.2,7.4,0.4,11,1.5c0,0.3,0.1,0.5,0.2,0.7C58.8,5.7,57,5.3,55.4,5
		c-2.8-0.5-5.4-0.2-8.1,0.4C46.7,4.3,45.7,4.2,44.6,4.6z"/>
	<path class="st13" d="M46.1,35.1c0.1,0.8-0.2,1.8,0.2,2.3c3,3.8,0.6,5.2-2.6,6.4c-0.1-3,0.9-5.9,0.9-8.9
		C44.6,33.3,45.5,35.2,46.1,35.1z"/>
	<path class="st11" d="M44.5,51.5c2.2,2.3,2.8,4.7,0,7c-0.1-0.6-0.4-1.1-1-1.5C41.2,55.1,41.6,52.7,44.5,51.5z"/>
	<path class="st13" d="M47.6,59.4c1.3-4.3,1.3-4.3,4.9-1.2c-2.7-0.4-2.3,3.2-4.9,2.8C47.6,60.4,47.6,59.9,47.6,59.4z"/>
	<path class="st11" d="M45.3,75.1c-0.5,1.9,2.1,2.8,1.5,4.7C43,78.4,42.7,77.4,45.3,75.1z"/>
	<path class="st11" d="M43.7,62.5c0,2.1,0,4.2,0,6.3C41.2,66.7,41.2,64.6,43.7,62.5z"/>
	<path class="st11" d="M43.7,68.8c3.9,0.5,2.5,2.7,1.6,4.8C44.1,72.2,43.8,70.5,43.7,68.8z"/>
	<path class="st1" d="M40.1,67.3c-0.8-1.3-3.2-2.5-0.2-4C40.6,64.6,40.6,66,40.1,67.3z"/>
	<path class="st11" d="M44.8,82.2c0.6,0.8,1.3,1.5,0.8,2.8C44,84.4,44.8,83.1,44.8,82.2z"/>
	<path class="st0" d="M60.3,4.5c-0.1-0.2-0.2-0.5-0.2-0.7c0.7,0,1.3,0,1.7,0.7C61.2,4.4,60.8,4.4,60.3,4.5z"/>
	<path class="st0" d="M46.9-0.2c-0.8,0-1.5,0-2.3,0c-1.3-1.4,0.1-1.8,0.9-2C47.2-2.6,46.7-1.1,46.9-0.2z"/>
	<path class="st9" d="M49.2-0.2c0.1-0.7-0.2-1.6,0.7-1.9c0.1-0.1,0.7,0.4,0.7,0.6C50.8-0.5,50-0.4,49.2-0.2
		C49.2-0.2,49.2-0.2,49.2-0.2z"/>
	<path class="st13" d="M91.6,45.3c-4.5,1.5-5.3,1.2-6.8-4.4c-0.8-2.9,0.9-4.9,3.7-5.8c1-0.3,2-0.5,3-0.8c0,0.5,0,1,0.1,1.6
		c0.3,0.8,0.8,1.3,1.5,1.6C93.2,40.1,90.9,42.4,91.6,45.3z M91,39.5c0.1-0.2,0.3-0.5,0.2-0.6c-0.1-0.2-0.5-0.3-0.6-0.3
		c-0.2,0.1-0.3,0.5-0.3,0.6C90.4,39.4,90.8,39.4,91,39.5z"/>
	<path class="st12" d="M93.2,37.4c-0.7-0.3-1.3-0.8-1.5-1.6C92.5,36.1,94.2,35.4,93.2,37.4z"/>
	<path class="st7" d="M86.1,17.8c1.4,0.2,3.9-0.8,2.4,2.3c0,0,0,0,0,0C86.7,20.3,85.9,19.5,86.1,17.8L86.1,17.8z"/>
	<path class="st7" d="M84.5,16.2c1,0,1.5,0.6,1.6,1.6c0,0,0,0,0,0C85,17.9,84.4,17.5,84.5,16.2L84.5,16.2z"/>
	<path class="st5" d="M84.5,16.3c-0.1,1.2,0.6,1.6,1.6,1.5c-0.2,1.7,0.6,2.5,2.3,2.4c-0.3,1.8,0.6,2.5,2.2,2.5
		c0.4,1.8,0.8,3.5,1.1,5.3c-2-2.5-8.2-3.1-10.4-0.9c-0.8,0.8-1.5,1.2-2.3,0.6c-1.1-0.9,0.1-1.5,0.5-2.2c1.9-3.1,1.2-5.5-1.5-7.8
		c-1-0.9-1.2-2.2-3.2-2.4c-5.3-0.5-5.3-0.7-4.4-6.1c4.2,0.6,7.3,3.5,10.7,5.6C82.2,15.4,83,16.6,84.5,16.3z"/>
	<path class="st13" d="M70.4,28.7c-0.3,2,0.7,3.3,1.9,4.8c1.1,1.5,3.7,2.7,1.5,5.5c-0.8,1,0.7,2.5,1.9,2c3.8-1.4,5.4-0.2,5,3.8
		c0,0.3,0.4,0.8,0.6,0.9c2.3,0.7,2.3,1.8,1,3.7c-0.7,1-0.4,2.7,1,3.4c1.6,0.7,2.1-0.7,2.6-1.6c1.1-2,2-1.4,3.6-0.3
		c3,2.1,3.6,5.4,4.9,8.4c0.3,0.8-0.6,1.3-1.3,1.7c-0.5-0.4-1-1.2-1.4-1.2c-1,0-0.6,0.8-0.4,1.4c0.7,2.6,0.3,5.1-0.5,7.6
		c-1.4,0.6-1.6,1.8-1.6,3.1c0,0,0,0,0,0c-1.2-0.1-2.6,1.4-3.5-0.2c-0.8-1.3-0.2-2.1,1.1-3.1c1.6-1.4-0.8-1.9-1.4-2.2
		c-2.5-1.5-3.9-3.6-3-6.2c1-3.2-1.3-3.9-2.9-4.2c-2.2-0.4-3.9,1.1-4.3,3.5c-0.1,0.9-0.1,1.9-0.4,2.7c-0.5,1.1-1.6,1.2-2.7,1.1
		c-1.1-0.1-1.7-0.7-1.6-1.8c0.2-2.6-1.3-3-3.4-2.9c-1.2,0.1-2.3-0.4-2.1-1.7c0.5-3.3-1.6-6.4-0.6-9.7c0.6-2.1-0.5-3.2-2.1-3.4
		c-4.1-0.3-7.5-3.6-7.6-6.2c-0.1-3.2,0.6-7.1,4.4-10.3c3.2-2.6,3.5-1.1,5.6,0.1c1.5,0.9,3.8,0.3,5.8,0.4
		C70.4,28.2,70.4,28.5,70.4,28.7z"/>
	<path class="st13" d="M48.7,50.1c0.3-2,0.3-3.1,0.6-4.3c0.6-2.7,3.3-3.6,5.3-1.8c1,0.8,1.9,1.8,2.7,2.8c1.2,1.5,1.7,3-0.3,4.3
		c-1.8,1.2-3.8,1.9-4.9-0.5C51.3,48.9,50.7,48.4,48.7,50.1z"/>
	<path class="st13" d="M80.7,70.9c0.2,1.6-1.2,2.5-3.3,2.6c-2.3,0.2-3.5-1.7-3.5-3.3c0-1.6,1.4-3.4,3.5-3.6
		C79.5,66.4,80.5,68,80.7,70.9z"/>
	<path class="st11" d="M70.4,28.7c0-0.2,0-0.5,0-0.7c0.3-1.1-0.8-3.1,1.9-2.7c2.1,0.3,3.8,1.5,3.2,3.3
		C74.2,32.6,72.1,28.9,70.4,28.7z"/>
	<path class="st5" d="M90.8,68.8c0.8-2.5,1.2-5,0.5-7.6c-0.2-0.6-0.5-1.4,0.4-1.4c0.5,0,1,0.8,1.4,1.2c0,1.8-0.1,3.5,0,5.3
		C93.3,68,92.6,68.9,90.8,68.8z"/>
	<path class="st12" d="M91,39.5c-0.2-0.1-0.6-0.1-0.6-0.3c-0.1-0.2,0.1-0.5,0.3-0.6c0.2-0.1,0.5,0.1,0.6,0.3
		C91.3,39,91.1,39.3,91,39.5z"/>
</g>
<g>
	<path class="st14" d="M90.8,126.5H15c-2.2,0-4-1.8-4-4v-23c0-2.2,1.8-4,4-4h75.8c2.2,0,4,1.8,4,4v23
		C94.8,124.7,93,126.5,90.8,126.5z"/>
	<g>
		<path class="st15" d="M31.9,113c-0.1-2-0.1-4.4-0.1-6.8h-0.1c-0.5,2.1-1.2,4.4-1.8,6.4l-2,6.4H25l-1.8-6.4
			c-0.5-1.9-1.1-4.3-1.5-6.4l0,0c-0.1,2.2-0.2,4.8-0.3,6.8l-0.3,6.3h-3.4l1.1-16.5h5l1.6,5.5c0.5,1.9,1,4,1.4,5.9h0.1
			c0.5-1.9,1-4.1,1.6-5.9l1.8-5.5h4.9l0.9,16.5h-3.6L31.9,113z"/>
		<path class="st15" d="M53.7,110.9c0,5.4-3.3,8.7-8.1,8.7c-4.9,0-7.7-3.7-7.7-8.4c0-4.9,3.2-8.6,8-8.6
			C51,102.6,53.7,106.3,53.7,110.9z M41.8,111.1c0,3.2,1.5,5.5,4,5.5s4-2.4,4-5.6c0-3-1.4-5.5-4-5.5
			C43.3,105.5,41.8,107.9,41.8,111.1z"/>
		<path class="st15" d="M71.2,110.9c0,5.4-3.3,8.7-8.1,8.7c-4.9,0-7.7-3.7-7.7-8.4c0-4.9,3.2-8.6,8-8.6
			C68.5,102.6,71.2,106.3,71.2,110.9z M59.3,111.1c0,3.2,1.5,5.5,4,5.5c2.5,0,4-2.4,4-5.6c0-3-1.4-5.5-4-5.5
			C60.8,105.5,59.3,107.9,59.3,111.1z"/>
		<path class="st15" d="M73.7,119.3v-16.5H78l3.4,6c1,1.7,2,3.8,2.7,5.6h0.1c-0.2-2.2-0.3-4.4-0.3-6.9v-4.8h3.4v16.5h-3.9l-3.5-6.4
			c-1-1.8-2.1-3.9-2.9-5.8h-0.1c0.1,2.2,0.1,4.5,0.1,7.2v5h-3.3V119.3z"/>
	</g>
</g>
</svg>
