<?xml version="1.0" encoding="utf-8"?>
<!-- Generator: Adobe Illustrator 25.0.0, SVG Export Plug-In . SVG Version: 6.00 Build 0)  -->
<svg version="1.1" id="Layer_1" xmlns="http://www.w3.org/2000/svg" xmlns:xlink="http://www.w3.org/1999/xlink" x="0px" y="0px"
	 width="105.5px" height="129px" viewBox="0 0 105.5 129" style="enable-background:new 0 0 105.5 129;" xml:space="preserve">
<style type="text/css">
	.st0{fill:#FCFCFC;}
	.st1{fill:#F7F4EC;}
	.st2{fill:#4B5D65;}
	.st3{fill:#2D3C44;}
	.st4{fill:#F2F5F4;}
	.st5{fill:#B7C0C4;}
	.st6{fill:#EBEDEE;}
	.st7{fill:#E5E8EA;}
	.st8{fill:#252D32;}
	.st9{fill:#EEF1F2;}
	.st10{fill:#A5B0B2;}
	.st11{fill:#DDE2E3;}
	.st12{fill:#D0D7D8;}
	.st13{fill:#E9E0DB;}
	.st14{fill:#F8F4EC;}
	.st15{fill:#48A6DD;}
	.st16{fill:#FFFFFF;}
</style>
<g>
	<path class="st0" d="M56.2,108.9c0.7,0.1,1.3-0.3,1.3-1.1c0-0.8-0.6-1-1.3-1.2c-1.2-0.5-2.4-0.7-3.7-0.7c-0.7,0-2.1,0.1-1.9-0.6
		c1.2-4.5-2-1.1-2.9-1.7c-1.3-1-5.7,1.7-3.9-3.1c7.1,1.7,14.3,0.7,21.5,0.8c1.7-0.7,4.7,2.2,5.1-0.8c0.4-2.7,1.9-3.6,3.5-4.9
		c1-0.1,2-0.3,3-0.4c0.1,0.6,0.2,1.3,1,1.2c0.3,0,0.5-0.5,0.7-0.8c-0.6-0.1-1.2-0.3-1.8-0.4c0.6-1.1,1.8-1.5,2.9-1.5
		c2.3,0,0.8-1.5,1-2.3l0,0c3.7-2.9,9.7-3.2,10.6-9.4c0.1-0.9,1.3-2.3,2.2-2.5c5.1-1.3,5.2-5.4,5.6-9.4c0.1-1.4-0.2-2.8,1.5-3.6
		c1.2-0.5,0.9-1.7,1-2.7c0.2-5.7,0.5-11.5,0.7-17.2c1.2,1,0.8,2.3,0.8,3.6c0,4.5,0,8.9,0,13.4c0,0.9-0.6,2.4,0.8,2.6
		c1.6,0.2,1.5-1.4,1.5-2.5c0-5.1,0.1-10.2,0-15.3c0-2.1-1-3.8-3-4.8c-0.1-1-0.1-2-0.2-3c1-0.6,0.5-1.3,0.5-2.2
		c-0.1-1.8-2.7-2.2-2.2-4.2c1-3.6-1-3.6-3.5-2.8c0.3-3.2,0-6.1-3.9-6.9c0.1-1.2-0.3-2.1-1.1-3c-1.3-1.6-2.6-3.3-2.7-5.5
		c0-1.2-0.1-2.5-0.1-3.7c0.2-1.3-1.4-3,1-4c1-0.4,0.6-1.9-0.4-2.5c-1.2-0.7-1.8-0.2-2.2,1.1c-0.6,2.3-2.6,2-3.4,0.9
		c-2.6-3.5-3.7-1-5.2,0.9l0-0.1C79.6,4.7,77,6,75.3,5.8c-1.1,0.2-2.5,0.3-2.7,1.6C72.5,8.7,74,8.6,74.9,9c1.5,0.6,2.9,1.4,4.4,2.1
		l0.3,0l0.3,0c0,1.4,1.9,1.6,1.8,3c-1,0.1-1.6,0.6-1.6,1.6c-2.1-0.1-1.7-2.7-3.9-3.5c-3.4-1.3-7-3.1-9.2-6.5c0.5,0,1,0,1.5,0
		c0.5,0.7,1.4,1.2,1.7,0.4c0.3-0.7-0.9-1-1.6-1.1c-2-3.2-5-2.1-7.9-2.1c0-0.3-0.1-0.7-0.1-1c0.5-0.2,1-0.6,0.6-1
		c-0.7-0.8-1.3,0.3-2,0.3c-4.7-1-9.4-0.9-14.1-0.4c-1.2-0.3-2.7-0.8-3.6,0c-0.9,0.8,1,1.4,0.8,2.5c-0.3,0.1-0.5,0.1-0.8,0.2
		C38,4.6,34.4,5.7,30.8,6.8c-1.4-1.4-7.1-1.7-8.3-0.4c-2.8,3.1-2.8,3.1,0.9,4.5c0.3,1.5-1.8,1.3-1.8,2.6C14.3,19.2,9.4,26.6,6,35.2
		c-0.5,1.3-1.6,2.3-0.9,3.8c-0.2,0.9-0.4,1.9-0.6,2.8c-1.5,1.1-0.8,2.6-0.7,4c0,3.8,0,7.7,0,11.5c-0.2,1.2-0.6,2.5,0.5,3.5
		c0.3,0.9,0.5,1.8,0.8,2.6C5,64.2,4.9,65,4.8,65.8c-5.2,3.2-5.3,3.9-0.9,8c0.3,0.3,0.5,0.6,0.7,0.9c1.5,1.9,2.9,1.7,4.2-0.2
		c0.2,0.2,0.4,0.3,0.5,0.5c0.1,2.8,0.6,5.5,0,8.3C9,84.5,9.1,86.3,11,86.4c1.9,0.1,4.5,1.5,5.3-1.8c3.2,2.3,5,6,8.5,8
		c-1.2,0.3-2.6,0.3-2.4,2.2c0.1,0.6,0,1.6,0.7,1.5c2.3-0.4,5,1.5,7-1.1c2.8,1,5.6,2,8.5,3.1c0.8,0.3,1.5,0.6,2.3,0.9
		c-0.6,1.2-1.2,2.3,0.1,3.4c0.5,0.4,1.2,0.6,1,1.4c-0.4,2.3-0.4,2.4,2,2.8c0.8,0.1,1.8-0.2,2.5,0.6c-1.3,3.2-1.3,3.3,1.9,4.1"/>
	<path class="st0" d="M52.5-9.7c-3-0.2-2.6,3.2-4.6,4.2c-0.3,0.1,0.3,1,0.8,1.1c2.8,0.1,6.4,1.3,8.2-0.4c2.2-2.1,4.3-1.6,6.6-1.8"/>
	<path class="st0" d="M70.6,107.8c0.1-1.3-0.8-1.9-1.9-1.8c-2,0.2-3.6-0.5-4.9-2.3c-1.3,5.1-0.5,5.9,4.8,5.3"/>
	<path class="st0" d="M103.1,27c-0.1-0.6-0.4-1.2-1.4-1.2c-0.8,0-1.5,0.2-1.5,1.2c0,0.8,0.5,1.4,1.3,1.5
		C102.4,28.7,102.8,28,103.1,27"/>
	<path class="st0" d="M53.8,103.4c0.1-0.1,0.2-0.1,0.3-0.2c-0.1-0.1-0.2-0.2-0.3-0.2c-0.1,0-0.2,0.1-0.3,0.2
		C53.7,103.2,53.8,103.3,53.8,103.4z"/>
	<path class="st1" d="M67,5.7c2.2,3.4,5.8,5.2,9.2,6.5c2.2,0.8,1.8,3.4,3.9,3.5c0,0,0,0,0,0c0,1.1,0,2.2,1.5,2.3l0,0
		c0,1,0,2.1,0,3.1c-2.7-1-3.4,3.3-6.2,2.3c-1-1.9-2.1-1.6-3.2-0.2c-1.3,1.7-0.3,3.6,0.8,4.4c1.5,1.1,2.9,0.1,3.1-1.9
		c3.1-0.2,6.9,0.9,7.7-3.9c0-0.3,0-0.5,0-0.8c0.6,0,1.2-0.2,1.6-0.8c1,0,2,0,3.1,0l0,0c-0.2,1.7,0.5,2.5,2.3,2.3
		c0,0,0.1,0.1,0.1,0.1c-0.1,2.8-1.3,5.5-0.8,8.4c-0.1,1.1-0.9,1.3-1.8,1.6c-2.7,1-4.1,2.9-3.5,5.9c0.6,3.4,4.3,3.8,6.1,6
		c2.5-3.1,2.2-0.7,2.3,1.1c0,1.6,0,3.1,0,4.7c-1.5,0.3-2.4-0.8-3.3-1.6c-2-2-3.7-2.9-4.4,1c-0.2,0.8-0.6,1.5-1.6,1.3
		c-1-0.2-1.7-1.1-1.5-1.9c0.8-3.5-0.9-6.1-2.1-9.2c-0.9-2.2-1.2-2.2-3.2-1.6c-1.8,0.5-4.5,0.4-2.7-3c0.5-1,0-1.7-0.7-2.4
		c-2.9-2.8-3.3-8.7-9.5-7.2c-2.1-2.9-2.9-1.3-5.1,0.4c-3.3,2.7-3.8,6-3.5,9.2c0.3,3.1,3.3,5.1,6.5,5.7c2.8,0.5,3.8,1.6,2.8,4.4
		c-1.2,3.3,1.1,6.2,1.5,9.3c0.2,1.9,2.4,0.8,3.6,1.3c0.9,0.3,1.3,1.1,1.6,2c0.4,1.1,0.7,2.9,2.4,2.3c1.5-0.5,2.6-1.8,1.7-3.6
		c-0.7-1.4,0.1-2.2,1.3-2.7c1.1-0.5,2-1.2,3.5-0.3c2.1,1.3,1.7,3.2,1.8,5c0.1,2.4-0.3,5.2,3.8,4.5c1-0.2,1.7,0.7,2,1.5
		c0.4,1.1-0.6,1.2-1.3,1.3c-1.4,0.3-1.3,1.4-1.2,2.4c0.1,0.7,0.4,1.2,1.2,1.3c1.1,0.2,2-0.2,2.5-1.3c0.3-0.6,0.6-1.1,0.9-1.6
		c0,2.3,0,4.6,0,6.9c-1.4,2,0.5,4.8-1.6,6.6c-1.5,1.2-3,2.3-4,4c-0.4,0.7-1.1,1.7-2.1,1.4c-1.3-0.4-0.6-1.7-0.8-2.7
		c1.5-0.1,2.2-0.8,2.3-2.3c0.5-0.1,1-0.1,1.5-0.4c0.8-0.5,2.1-0.6,2-1.9c0-0.2-0.5-0.6-0.8-0.6c-1.2-0.3-1.9,0.5-2.3,1.5
		c-0.2,0.5-0.3,1-0.4,1.5c-1.7-0.2-2.5,0.6-2.3,2.3c-0.8,0.1-1.4,0.5-1.5,1.4c-0.2,2.6-3.6,2.8-4.1,5.3c-3.6-1.5-2.1,1.5-2.3,2.8
		c-1.4,0.5-2.6-1.9-3.1-0.4c-0.6,1.8-2.6,2.3-2.8,4.1c0,0,0,0,0,0c-6.8-0.9-13.4,1.5-20.2,1.7c-1.7,0-2.9-1.7-4.6-0.9
		c-3.3-3.7-4.5-8.6-7-12.7c-2.9-6.8-3.8-14.1-5.3-21.3c0.2-2.9,0-5.7-0.8-8.4c0.1-3.8,0.1-7.7,0.2-11.5c1.4-8.4,3.6-16.6,6-24.7
		c0.8-2.6,2.4-4.7,3.8-6.9c0.5,0,1,0,1.5,0c-2.8,5.4-3,11.6-4.3,17.4c-1.5-0.5-0.6-2.1-2.1-3.1c1.3,4.4-2.4,7.7-0.3,11.9
		c1.1,2.2,3.7,5.9,6.4,5.8c2.3,0,5.6-3.3,6.1-5.8c0.3-1.4-0.6-1.3-1.3-1.8c-2.5-1.6-2.5-3.9,0.3-4.6c3.1-0.8,4.9-2.3,6.8-4.8
		c2.1-2.7,2.4-3.3-0.9-4.9c-4.2-2-4.9-4.4-2.4-9.1c0,3,2,3.2,3.7,4.1c2,1.1,3.4,2.7,5.1-0.3c0.3-0.4,1.7-0.2,2.6-0.2
		c1.8,0,3.6,0,5.4-0.1c2.2-0.1,2.2-1.5,1.4-3c-0.8-1.6-2.4-1.7-4-1.7c-5,0-10,0.5-14.8-1.6c0.2-1.3-0.3-2.2-1.6-2.7
		c-1.1-0.4-1.3,0.4-1.4,1.2c-0.3,0-0.6,0-0.8,0c-0.2,0-0.5,0-0.7,0c0-1.1,0-2.2-0.1-3.3c0-0.2,0-0.4,0.1-0.6C52.1,4.8,59.5,6,67,5.7
		L67,5.7z M52.3,45.8L52.3,45.8c-0.1,2.1,0.8,3.6,2.9,3.8c1.8,0.2,3.5-0.7,4.2-2.2c0.8-1.9-1.2-2.8-2.4-3.8c-0.8-0.7-1.4-1.4-2-2.3
		c-0.9-1.2-1.9-0.8-3.1-0.3c-1.3,0.6-1.9,1.5-1.9,3C50.1,45.7,51.1,45.8,52.3,45.8z M36.9,75.9c-2.6,0.4-0.7,1.9-0.7,2.9
		c0,0.8,0.6,1.6,1.5,1.4c1-0.2,0.6-1.2,0.7-1.9c2.6,1.9,4.1,2.2,6.9-0.9c2.4-2.7,0.6-4.4,1-6.5c1.1-5.4-1.9-8.3-5.5-11.3
		c-1.9-1.5-1.8-1.1-2.5,0.8c-1.2,3.2-0.4,6.5-0.9,9.7c-0.4,0-0.7,0-1.1-0.1c0-4.2,0-8.4,0-13.7c-2.7,4.4-2.2-0.9-4.1,0.4
		C34.2,62.9,33.7,69.8,36.9,75.9z M79.8,65.9c0-0.2,0.9-2.6-1.5-2.2c-2.2,0.3-4.5,1.8-4.9,4c-0.4,2.1,1.7,2.6,3.7,2.8
		C79.7,70.7,80.4,69.4,79.8,65.9z M47.5,51c-0.6-1-1.3-2-2.8-2c-1.3,0-2.3,0.5-2.3,1.9c0.1,1.4,1.2,1.8,2.4,1.8
		C46,52.7,47.2,52.6,47.5,51z M49.5,56.4c0.8-1,3,0.2,3.1-1.8c0.1-1-1.3-1.4-2.1-0.9c-1,0.6-2.9-0.2-3.2,1.5
		C47.2,56.3,48.3,56.6,49.5,56.4z"/>
	<path class="st2" d="M36.1,18.1c-2.4,8.1-4.6,16.3-6,24.7c-1.9,0.1-1.7,1.5-1.7,2.7c0,2.9,0.1,5.8,0.1,8.7c-0.1,4-0.4,7.9,1.1,11.7
		c0.8,2.1,1.1,4.1-2.2,4.9c-1.6,0.4-3.1,2.1-0.3,3.3c1.2,0.6,1.6,1.4,1.2,2.4c-0.8,2-2.5,3.2-4.5,3c-2.9-0.4-4.2-2.7-4.6-5.4
		c-0.3-2.1,0.8-3.1,2.9-3c1.3,0,2.4-0.5,2.3-2c-0.2-1.5-0.8-3.1-2.7-3.3c-1.3-0.1-2.6-0.2-3.8,0c-2.7,0.5-4.7-0.7-5.6-2.9
		C9.6,56.6,5,50.7,6.1,43.1c0.2-1.3,0.9-3.1-1-4.1c-0.8-1.5,0.4-2.5,0.9-3.8c3.4-8.5,8.3-16,15.7-21.6c2.1,2.8,3.9,1.1,5.8-0.3
		c4.7-3.4,5.8-3.5,8-0.5c-0.1,1-0.6,1.5-1.6,1.5c-0.3-0.4-0.5-0.8-0.8-1.2c-2.9,2.9-8,3.4-9.3,8.1c-0.4,1.5-1.8,3.4,0.2,4.3
		c2.2,1,4.7-1.5,4.7-2.7c0-4.6,2.8-4.7,6-4.9C35.1,18,35.6,18,36.1,18.1z"/>
	<path class="st3" d="M5.1,39c1.9,1,1.2,2.8,1,4.1C5,50.7,9.6,56.6,12.3,63c0.9,2.2,3,3.3,5.6,2.9c1.2-0.2,2.6-0.1,3.8,0
		c1.9,0.2,2.5,1.7,2.7,3.3c0.2,1.5-1,2-2.3,2c-2.1,0-3.2,1-2.9,3c0.4,2.7,1.7,5,4.6,5.4c2,0.2,3.7-1,4.5-3c0.4-1,0-1.9-1.2-2.4
		c-2.8-1.3-1.3-3,0.3-3.3c3.3-0.7,3-2.8,2.2-4.9c-1.5-3.9-1.1-7.8-1.1-11.7c0.2,0,0.4,0,0.6,0c0.3,2.9-0.7,6,1.6,8.5
		c1.4,7.2,2.3,14.5,5.3,21.3c-1.8,0.3-0.6,3.9-3.4,3.3c-0.2,0-0.2,1,0.2,1.3c3,2.6,3,6.8,5.7,9.5c-2.8-1-5.6-2-8.5-3.1
		c-1.1-0.9-2.2-1.7-3.6-1.9c-0.6-0.2-1.1-0.4-1.7-0.6c0,0,0,0,0,0c-3.4-2-5.3-5.7-8.5-8c-2.3-3.3-5.3-6-7-9.7
		c-0.2-0.2-0.4-0.3-0.5-0.5C8.1,71.5,6,69.1,6,66c0.1-1,0.2-1.9-0.9-2.5c-0.3-0.9-0.5-1.8-0.8-2.6c0.2-1.2,0.6-2.5-0.5-3.5
		c0-3.8,0-7.7,0-11.5c1.2-1.2,0.7-2.6,0.7-4C4.7,40.8,4.9,39.9,5.1,39z M32.1,85.2c0-0.1,0-0.2-0.1-0.3c0,0-0.2,0-0.3,0.1
		c0,0.1,0,0.2,0.1,0.3C31.8,85.3,32,85.3,32.1,85.2z"/>
	<path class="st4" d="M81.6,82.8c0.2,0.9-0.5,2.2,0.8,2.7c1,0.3,1.7-0.7,2.1-1.4c1-1.7,2.6-2.8,4-4c2.1-1.7,0.2-4.6,1.6-6.6
		c1.3-0.3,3.1,0.8,3.8-1.4c2.4-7.1,5.4-14,4.8-21.9c-0.3-3.7-1.3-5-4.8-4.5c-0.1-3.8,0.5-7.7-0.8-11.5c0-0.3,0-0.5,0-0.8
		c3.2,1.6,2-1.2,2.4-2.4c0.9,0.5,1,2,2.7,1.7c-0.5-0.6-0.8-1.1-1.2-1.6c2.6-0.8,4.5-0.7,3.5,2.8c-0.6,2,2,2.4,2.2,4.2
		c0.1,0.9,0.5,1.6-0.5,2.2c-2.2,0.1-1-3.4-4-3.3c2.2,5.6,1.9,11.3,1.9,17c0,11.1-5,20-11.6,28.4c-2.4,3-6.4,4.6-7.7,8.6l0,0
		c-3-0.5-4.7,1.9-6.9,3.2c-2.1,0.3-3.8,2.1-6.2,1.5c0.2-1.8,2.2-2.3,2.8-4.1c0.5-1.5,1.7,0.9,3.1,0.4c0.2-1.2-1.3-4.3,2.3-2.8
		c0.5-2.4,3.8-2.7,4.1-5.3C80.2,83.3,80.7,82.9,81.6,82.8L81.6,82.8z"/>
	<path class="st5" d="M80.8,91.3c1.3-4,5.3-5.6,7.7-8.6c6.7-8.4,11.7-17.3,11.6-28.4c0-5.7,0.3-11.4-1.9-17c3.1-0.2,1.8,3.3,4,3.3
		c0.1,1,0.1,2,0.2,3c0,1-0.1,2-0.1,3.1c-0.2,5.7-0.5,11.5-0.7,17.2c0,1,0.3,2.2-1,2.7c-1.7,0.7-1.4,2.2-1.5,3.6
		c-0.4,4-0.5,8.1-5.6,9.4c-0.9,0.2-2,1.5-2.2,2.5C90.5,88.1,84.5,88.4,80.8,91.3z"/>
	<path class="st6" d="M48.3,111.3c-3.2-0.8-3.2-0.9-1.9-4.1c-0.7-0.8-1.7-0.4-2.5-0.6c-2.3-0.4-2.4-0.5-2-2.8c0.1-0.8-0.6-1.1-1-1.4
		c-1.4-1.1-0.8-2.3-0.1-3.4c0.8,0.4,1.6,0.4,2.4,0l0.1,0c0.2,0.5,0.4,1,0.6,1.5c-1.8,4.8,2.6,2.1,3.9,3.1c0.8,0.7,4.1-2.7,2.9,1.7
		c-0.2,0.7,1.2,0.6,1.9,0.6c1.3,0,2.5,0.2,3.7,0.7c0.6,0.2,1.3,0.4,1.3,1.2c0,0.8-0.6,1.2-1.3,1.1"/>
	<path class="st7" d="M63.5-6.6c-2.3,0.2-4.3-0.3-6.6,1.8c-1.8,1.7-5.4,0.5-8.2,0.4c-0.5,0-1-0.9-0.8-1.1c2-0.9,1.6-4.3,4.6-4.2"/>
	<path class="st3" d="M35.4,12.7c-2.2-3-3.3-2.9-8,0.5c-1.9,1.3-3.7,3.1-5.8,0.3c0-1.3,2.1-1.1,1.8-2.6c0,0,0-0.1,0-0.1
		c0.8,0.4,1.2-0.2,1.5-0.7c2.2-0.7,4.2-1.5,5.8-3.3c3.6-1.1,7.2-2.3,10.7-3.4c0.1,0.5,0.2,1.1,0.3,1.6L42,5.3l-0.1,0.2
		c-5.3-0.1-5.7,0.2-5.1,5.4C36.9,12.1,36.5,12.6,35.4,12.7z"/>
	<path class="st8" d="M43.1,99c-0.8,0.5-1.6,0.4-2.4,0c-0.8-0.3-1.5-0.6-2.3-0.9c-2.7-2.7-2.8-7-5.7-9.5c-0.4-0.4-0.3-1.3-0.2-1.3
		c2.9,0.6,1.6-3,3.4-3.3c2.5,4.1,3.7,9,7,12.7C43.1,97.4,43.1,98.2,43.1,99z M36.7,90.7c0-0.1,0-0.2,0.1-0.3c-0.1,0-0.3,0.1-0.4,0.1
		c0,0.1,0.1,0.2,0.1,0.3C36.5,90.7,36.6,90.7,36.7,90.7z"/>
	<path class="st9" d="M79.1,8.3c1.4-1.9,2.6-4.4,5.2-0.9c0.8,1.1,2.8,1.4,3.4-0.9c0.3-1.3,1-1.8,2.2-1.1c1,0.6,1.4,2.1,0.4,2.5
		c-2.4,1-0.8,2.7-1,4c-0.5,0-1,0-1.4,0c-1.5,0-3.1,0-4.6,0c-0.9-1.1-2.2-0.7-3.3-0.8l-0.3,0l-0.3,0C79.2,10.2,79.2,9.2,79.1,8.3z"/>
	<path class="st4" d="M102.4,46.6c0-1,0.1-2,0.1-3.1c2,1,3,2.7,3,4.8c0.1,5.1,0.1,10.2,0,15.3c0,1.1,0.1,2.7-1.5,2.5
		c-1.4-0.1-0.8-1.7-0.8-2.6c-0.1-4.5,0-8.9,0-13.4C103.1,48.9,103.6,47.5,102.4,46.6z"/>
	<path class="st6" d="M6,66c0,3.1,2.1,5.5,2.7,8.4c-1.3,1.9-2.7,2.1-4.2,0.2c-0.2-0.3-0.4-0.6-0.7-0.9c-4.4-4.1-4.3-4.8,0.9-8
		C5.2,65.8,5.6,65.9,6,66z"/>
	<path class="st10" d="M43.9,100.4c-0.2-0.5-0.4-1-0.6-1.5c1.7,0.5,3.4,0.7,5.2,0.8c6.6,0.4,12.9-1.2,19.2-2.2
		c-0.6,1.4-3,1.6-2.4,3.7C58.2,101.1,51,102.2,43.9,100.4z"/>
	<path class="st11" d="M9.3,74.9c1.7,3.7,4.8,6.4,7,9.7c-0.8,3.4-3.4,1.9-5.3,1.8c-1.9-0.1-2-1.9-1.7-3.3
		C9.8,80.4,9.4,77.6,9.3,74.9z"/>
	<path class="st10" d="M60.6,1.9c0,0.3,0.1,0.7,0.1,1c0,0,0,0.3,0,0.3c-5.1,0-10.2,0-15.3,0c-0.1-0.8-0.2-1.6-0.3-2.3
		c4.7-0.5,9.4-0.6,14.1,0.4C59.5,1.8,60,1.9,60.6,1.9z"/>
	<path class="st12" d="M30.8,6.8c-1.6,1.7-3.7,2.6-5.8,3.3c-0.3-0.5-0.7-1.2-1.4-0.8c-0.6,0.3-0.4,1-0.2,1.6c0,0,0,0.1,0,0.1
		c-3.7-1.4-3.7-1.4-0.9-4.5C23.7,5.1,29.5,5.4,30.8,6.8z"/>
	<path class="st12" d="M65.3,101.2c-0.6-2.1,1.8-2.3,2.4-3.7c0-0.5,0-1,0-1.6c0,0,0,0,0,0c2.3,0.6,4.1-1.1,6.2-1.5c0,0.3,0,0.7,0,1
		c-1.6,1.3-3.1,2.2-3.5,4.9C70,103.4,67,100.5,65.3,101.2z"/>
	<path class="st12" d="M68.6,109c-5.3,0.6-6.1-0.2-4.8-5.3c1.3,1.8,2.8,2.5,4.9,2.3c1.1-0.1,2,0.6,1.9,1.8"/>
	<path class="st5" d="M45.2,0.8c0.1,0.8,0.2,1.6,0.3,2.3c-0.3,0.4-0.5,0.7-0.8,1.1c-0.1,0.2-0.1,0.4-0.1,0.6
		c-2.1,1.1-1.6,4.4-4.4,4.9c-0.5-1.8,2-2.4,1.7-4.2L42,5.3c0,0-0.2-0.2-0.2-0.2c1.1-0.3,0.6-1.1,0.5-1.8c0.2-1-1.7-1.7-0.8-2.5
		C42.5,0,43.9,0.4,45.2,0.8z"/>
	<path class="st5" d="M89.4,15.7c0.1,2.2,1.4,3.9,2.7,5.5c0.8,1,1.2,1.9,1.1,3l0,0c-1.2,0.2-1.5-1.1-2.3-1.5c0,0-0.1-0.1-0.1-0.1
		c-0.4-1.1-1.3-1.7-2.3-2.3c0,0,0,0,0,0c-0.2-1.6-4.3-2.5-0.8-4.7C88.3,15.7,88.8,15.7,89.4,15.7z"/>
	<path class="st11" d="M26.4,93.2c1.4,0.2,2.5,1,3.6,1.9c-1.9,2.7-4.7,0.8-7,1.1c-0.7,0.1-0.6-0.9-0.7-1.5c-0.2-1.8,1.2-1.9,2.4-2.2
		c0,0,0,0,0,0c0,0.6-0.2,1.3,0.6,1.4C25.7,94,26,93.4,26.4,93.2z"/>
	<path class="st5" d="M97,31.2c0.4,0.5,0.8,1,1.2,1.6c-1.7,0.3-1.8-1.2-2.7-1.7c0,0-0.1,0-0.1,0c0.1-2.2-1.4-3.7-2.4-5.4l0,0
		c0-0.5,0-1,0-1.5l0,0C97,25.1,97.3,28,97,31.2z"/>
	<path class="st5" d="M79.1,8.3c0.1,1,0.1,1.9,0.2,2.9c-1.5-0.7-2.9-1.5-4.4-2.1c-0.9-0.4-2.4-0.3-2.2-1.6c0.1-1.3,1.6-1.4,2.7-1.6
		c0,2.9,2.2,2.1,3.8,2.4L79.1,8.3z"/>
	<path class="st5" d="M73.9,95.5c0-0.3,0-0.7,0-1c2.2-1.3,3.9-3.7,6.9-3.2c-0.2,0.8,1.3,2.3-1,2.3c-1.1,0-2.2,0.5-2.9,1.5l0,0
		C76,95.2,74.9,95.3,73.9,95.5z"/>
	<path class="st5" d="M60.8,3.1c0,0,0-0.3,0-0.3c2.8,0,5.9-1.1,7.9,2.1c-0.1,0.2-0.1,0.5-0.1,0.7c-0.5,0-1,0-1.5,0c0,0,0,0,0,0
		C65.1,4.3,62.4,5.1,60.8,3.1z"/>
	<path class="st5" d="M79.9,11.1c1.2,0.1,2.4-0.3,3.3,0.8c0.2,0.8,0.8,1.2,1.4,1.6c0.3,0.2,0.6,0.5,0.9,0.7c0,1.7-1.2,1.5-2.3,1.5
		l-0.1,0c0-1.1-0.4-1.6-1.5-1.5l0-0.1C81.8,12.7,79.9,12.5,79.9,11.1z"/>
	<path class="st9" d="M79.2,8.2c-1.6-0.3-3.8,0.5-3.8-2.4C77,6,79.6,4.7,79.2,8.2z"/>
	<path class="st4" d="M103.1,27c-0.3,1-0.7,1.6-1.5,1.5c-0.8-0.1-1.3-0.7-1.3-1.5c0-1,0.7-1.2,1.5-1.2C102.6,25.8,103,26.4,103.1,27
		"/>
	<path class="st2" d="M4.5,41.8c0,1.4,0.5,2.9-0.7,4C3.7,44.4,3,42.9,4.5,41.8z"/>
	<path class="st7" d="M89.4,15.7c-0.5,0-1.1,0-1.6,0c0-1.2,0.1-2.5,0.1-3.7c0.5,0,1,0,1.4,0C89.3,13.2,89.3,14.4,89.4,15.7z"/>
	<path class="st2" d="M3.8,57.4c1.1,1,0.8,2.3,0.5,3.5C3.2,59.8,3.6,58.6,3.8,57.4z"/>
	<path class="st2" d="M6,66c-0.4-0.1-0.8-0.2-1.2-0.2C4.9,65,5,64.2,5.2,63.5C6.2,64.1,6.1,65,6,66z"/>
	<path class="st5" d="M60.6,1.9c-0.6,0-1.1-0.1-1.4-0.7c0.7,0,1.3-1.1,2-0.3C61.6,1.3,61.1,1.7,60.6,1.9z"/>
	<path class="st1" d="M68.5,5.7c0-0.2,0-0.5,0.1-0.7c0.8,0.1,1.9,0.3,1.6,1.1C69.8,6.9,69,6.4,68.5,5.7z"/>
	<path class="st12" d="M76.9,95.1c0.6,0.1,1.2,0.3,1.8,0.4c-0.2,0.3-0.4,0.7-0.7,0.8C77.2,96.4,77.1,95.7,76.9,95.1
		C77,95.1,76.9,95.1,76.9,95.1z"/>
	<path class="st7" d="M80,15.8c0-1.1,0.7-1.5,1.6-1.6c0,0,0,0.1,0,0.1c0,0.5,0,1,0,1.6l-0.1,0.1C81.1,15.8,80.6,15.8,80,15.8
		L80,15.8z"/>
	<path class="st8" d="M42.3,3.3c0.1,0.7,0.6,1.5-0.5,1.8c-0.1-0.5-0.2-1.1-0.3-1.6C41.8,3.4,42.1,3.3,42.3,3.3z"/>
	<path class="st6" d="M53.8,103.4c-0.1-0.1-0.2-0.1-0.3-0.2c0.1-0.1,0.2-0.2,0.3-0.2c0.1,0,0.2,0.1,0.3,0.2
		C54,103.3,53.9,103.3,53.8,103.4z"/>
	<path class="st13" d="M90.1,66.6c-0.3,0.5-0.7,1.1-0.9,1.6c-0.5,1.1-1.3,1.5-2.5,1.3c-0.7-0.1-1.1-0.6-1.2-1.3
		c-0.1-1-0.2-2.1,1.2-2.4c0.7-0.2,1.7-0.2,1.3-1.3c-0.3-0.8-1-1.7-2-1.5c-4,0.8-3.6-2-3.8-4.5c-0.1-1.9,0.3-3.7-1.8-5
		c-1.5-0.9-2.4-0.2-3.5,0.3c-1.2,0.5-1.9,1.3-1.3,2.7c0.9,1.9-0.2,3.1-1.7,3.6c-1.7,0.6-2-1.1-2.4-2.3C71.3,57,71,56.3,70,56
		c-1.2-0.4-3.4,0.6-3.6-1.3c-0.4-3.1-2.7-6-1.5-9.3c1-2.8,0.1-3.9-2.8-4.4c-3.2-0.6-6.2-2.5-6.5-5.7c-0.3-3.2,0.2-6.5,3.5-9.2
		c2.2-1.7,3-3.3,5.1-0.4c6.1-1.5,6.6,4.5,9.5,7.2c0.7,0.6,1.2,1.4,0.7,2.4c-1.7,3.4,0.9,3.5,2.7,3c2-0.6,2.3-0.6,3.2,1.6
		c1.2,3,2.9,5.7,2.1,9.2c-0.2,0.9,0.5,1.7,1.5,1.9c1,0.2,1.4-0.4,1.6-1.3c0.7-3.8,2.4-2.9,4.4-1c0.9,0.9,1.8,1.9,3.3,1.6
		c0,1.8,0,3.6,0,5.4l0,0c-2.1,0.4-1.5,2-1.5,3.3C91.7,61.8,91.6,64.3,90.1,66.6z"/>
	<path class="st13" d="M44.6,8.1c0.2,0,0.5,0,0.7,0c0.4,0.5-0.6,1.7,0.8,1.5c0.5,0,1,0,1.5,0l0,0c0.5,0.8,1,0.8,1.5,0l0,0
		C54,11.6,59,11.1,64,11.1c1.6,0,3.2,0.1,4,1.7c0.8,1.5,0.8,2.8-1.4,3c-1.8,0.1-3.6,0-5.4,0.1c-0.9,0-2.3-0.2-2.6,0.2
		c-1.7,3-3.1,1.3-5.1,0.3c-1.8-0.9-3.7-1.1-3.7-4.1c-2.5,4.7-1.8,7,2.4,9.1c3.3,1.6,3,2.2,0.9,4.9c-1.9,2.5-3.7,4-6.8,4.8
		c-2.8,0.7-2.8,3-0.3,4.6c0.7,0.5,1.6,0.5,1.3,1.8c-0.5,2.4-3.8,5.7-6.1,5.8c-2.7,0-5.3-3.7-6.4-5.8c-2.1-4.2,1.6-7.5,0.3-11.9
		c1.5,1,0.6,2.6,2.1,3.1c1.3-5.9,1.5-12,4.3-17.4c0.5,0,1.1,0,1.6,0c0.1,0.7-0.3,1.6,0.7,1.9c0.2,0.1,0.5-0.1,0.6-0.3
		c0.3-0.7,0-1.2-0.6-1.6C43.9,10.1,43.4,8.8,44.6,8.1z"/>
	<path class="st13" d="M36.9,75.9c-3.3-6.1-2.7-13-4.7-19.2c1.9-1.3,1.3,4,4.1-0.4c0,5.3,0,9.5,0,13.7c0.4,0,0.7,0,1.1,0.1
		c0.6-3.2-0.3-6.5,0.9-9.7c0.7-1.9,0.6-2.4,2.5-0.8c3.6,3,6.6,5.9,5.5,11.3c-0.4,2.1,1.4,3.8-1,6.5c-2.8,3.1-4.3,2.7-6.9,0.9
		c0,0,0,0,0,0c0-0.7-0.1-1.3-0.9-1.6C37.4,76.4,37.1,76.1,36.9,75.9z"/>
	<path class="st14" d="M93.2,55.8c0-1.8,0-3.6,0-5.4c0-1.6,0-3.1,0-4.7c0,0,0.4,0,0.4,0l0.4,0c3.5-0.5,4.5,0.8,4.8,4.5
		c0.6,7.9-2.4,14.8-4.8,21.9c-0.8,2.2-2.5,1.1-3.8,1.4c0-2.3,0-4.6,0-6.9c1.5-2.3,1.7-4.9,1.6-7.5C91.6,57.9,91,56.2,93.2,55.8
		c0.1,0.7-0.3,1.6,0.7,1.9c0.1,0.1,0.7-0.3,0.7-0.6C94.7,56.1,94,55.9,93.2,55.8z"/>
	<path class="st13" d="M93.9,45.8l-0.4,0c0,0-0.4,0-0.4,0c-0.1-1.8,0.2-4.2-2.3-1.1c-1.8-2.2-5.5-2.6-6.1-6c-0.5-3,0.8-4.9,3.5-5.9
		c0.9-0.3,1.7-0.5,1.8-1.6c2.2-0.1,0.9,3.2,3.1,3.1C94.4,38.1,93.8,41.9,93.9,45.8z"/>
	<path class="st4" d="M67.8,95.9c0,0.5,0,1,0,1.6c-6.4,1-12.7,2.7-19.2,2.2c-1.8-0.1-3.5-0.3-5.2-0.8c0,0-0.1,0-0.1,0
		c0-0.8-0.1-1.5-0.1-2.3c1.7-0.7,2.9,1,4.6,0.9C54.4,97.4,60.9,95,67.8,95.9z"/>
	<path class="st13" d="M52.3,45.8c-1.3,0-2.3-0.2-2.3-1.8c0-1.5,0.6-2.4,1.9-3c1.1-0.5,2.2-0.8,3.1,0.3c0.6,0.8,1.2,1.6,2,2.3
		c1.2,1,3.2,1.9,2.4,3.8c-0.6,1.5-2.4,2.4-4.2,2.2C53.1,49.4,52.2,47.9,52.3,45.8c0.7-0.1,1.5,0.2,1.9-0.7c0.1-0.1-0.3-0.6-0.6-0.7
		C52.6,44.3,52.4,45,52.3,45.8z"/>
	<path class="st8" d="M41.8,5.5c0.3,1.7-2.1,2.4-1.7,4.2c-0.1,0.5-0.2,1-0.3,1.5c-1.4,2.2-3,4.4-3.8,6.9c-0.5,0-1-0.1-1.5-0.1
		c-0.3-1.3-0.5-2.5-0.8-3.8c1,0,1.5-0.5,1.6-1.5c1.1-0.1,1.5-0.7,1.3-1.8C36.2,5.7,36.6,5.4,41.8,5.5z"/>
	<path class="st0" d="M60.8,3.1c1.6,2,4.4,1.2,6.2,2.6C59.5,6,52.1,4.8,44.7,4.2c0.3-0.4,0.5-0.7,0.8-1.1
		C50.6,3.1,55.7,3.1,60.8,3.1z"/>
	<path class="st13" d="M79.8,65.9c0.5,3.4-0.1,4.8-2.8,4.6c-2-0.2-4-0.7-3.7-2.8c0.4-2.2,2.8-3.7,4.9-4
		C80.8,63.4,79.8,65.7,79.8,65.9z"/>
	<path class="st7" d="M75.4,23.5c2.7,1,3.5-3.3,6.2-2.3c0.6,0.9,1.5,0.7,2.3,0.8c-0.8,4.8-4.6,3.7-7.7,3.9
		C75.3,25.2,75.5,24.3,75.4,23.5z"/>
	<path class="st0" d="M87.8,11.9c0,1.3-0.1,2.5-0.1,3.7c-3.4,2.2,0.6,3.1,0.8,4.7c-1,0-2,0-3.1,0c0.1-2-2.6-2.6-2.3-4.7
		c1.1,0,2.3,0.2,2.3-1.5c0.4-0.1,1.2,0,0.9-0.7c-0.5-1-1.2-0.2-1.8,0c-0.6-0.4-1.3-0.8-1.4-1.6C84.7,11.9,86.3,11.9,87.8,11.9z"/>
	<path class="st13" d="M75.4,23.5c0,0.9-0.1,1.8,0.8,2.3c-0.2,2-1.6,3-3.1,1.9c-1.1-0.8-2.1-2.7-0.8-4.4
		C73.3,21.8,74.5,21.6,75.4,23.5z"/>
	<path class="st0" d="M93.1,34.3c-2.2,0.1-0.9-3.2-3.1-3.1c-0.5-2.9,0.7-5.6,0.8-8.4c0.8,0.4,1.1,1.7,2.3,1.5c0,0.5,0,1,0,1.5
		c-2.3,0.6-1.9,2.4-1,3.5c1.1,1.4,0.9,2.8,1,4.2C93.2,33.7,93.2,34,93.1,34.3z"/>
	<path class="st8" d="M29.2,54.3c-0.2,0-0.4,0-0.6,0c0-2.9-0.1-5.8-0.1-8.7c0-1.2-0.2-2.7,1.7-2.7c-0.1,3.8-0.1,7.7-0.2,11.5
		C29.7,54.3,29.4,54.3,29.2,54.3z"/>
	<path class="st13" d="M47.5,51c-0.3,1.7-1.5,1.8-2.6,1.8c-1.3,0-2.4-0.4-2.4-1.8c-0.1-1.4,1-2,2.3-1.9C46.2,49,46.9,49.9,47.5,51z"
		/>
	<path class="st0" d="M39.9,11.1c0.1-0.5,0.2-1,0.3-1.5c2.8-0.5,2.3-3.8,4.4-4.9c0,1.1,0,2.2,0.1,3.3c-1.2,0.8-0.7,2-0.8,3.1
		c-0.2,0-0.5,0-0.7,0c-0.5,0-1.1,0-1.6,0C40.9,11.1,40.4,11.1,39.9,11.1z"/>
	<path class="st13" d="M49.5,56.4c-1.1,0.1-2.3-0.2-2.1-1.2c0.2-1.7,2.1-0.9,3.2-1.5c0.8-0.5,2.2-0.1,2.1,0.9
		C52.5,56.6,50.3,55.5,49.5,56.4z"/>
	<path class="st2" d="M29.2,54.3c0.3,0,0.5,0,0.8,0c0.8,2.8,1,5.6,0.8,8.4C28.5,60.2,29.5,57.1,29.2,54.3z"/>
	<path class="st7" d="M83.2,15.7c-0.3,2.1,2.4,2.7,2.3,4.7c-0.3,0.6-0.9,0.8-1.6,0.8c-0.1-1.6-1.1-2.4-2.3-3.1c0,0,0,0,0,0
		c0-0.8,0-1.5,0-2.3c0,0,0.1-0.1,0.1-0.1C82.1,15.7,82.7,15.7,83.2,15.7L83.2,15.7z"/>
	<path class="st12" d="M36.9,75.9c0.2,0.2,0.4,0.5,0.7,0.7c0.1,0.6,0.2,1.2,0.9,1.6c0,0,0,0,0,0c-0.1,0.7,0.3,1.7-0.7,1.9
		c-0.9,0.2-1.5-0.6-1.5-1.4C36.2,77.8,34.3,76.3,36.9,75.9z"/>
	<path class="st4" d="M83.9,80.5c0.1-0.5,0.2-1,0.4-1.5c0.4-1,1-1.8,2.3-1.5c0.3,0.1,0.8,0.4,0.8,0.6c0.1,1.4-1.2,1.5-2,1.9
		C84.9,80.3,84.4,80.4,83.9,80.5C83.9,80.5,83.9,80.5,83.9,80.5z"/>
	<path class="st0" d="M81.6,18.1c1.2,0.7,2.2,1.5,2.3,3.1c0,0.3,0,0.5,0,0.8c-0.8,0-1.8,0.1-2.3-0.8C81.6,20.1,81.6,19.1,81.6,18.1z
		"/>
	<path class="st0" d="M46.2,8.1c0.1-0.8,0.3-1.5,1.4-1.2c1.3,0.4,1.8,1.4,1.6,2.7c0,0,0,0,0,0c-0.5,0-1,0-1.5,0l0,0
		C47.7,8.6,47.2,8.1,46.2,8.1L46.2,8.1z"/>
	<path class="st4" d="M81.6,82.8c-0.2-1.7,0.6-2.5,2.3-2.3c0,0,0,0,0,0C83.8,81.9,83.1,82.7,81.6,82.8
		C81.6,82.8,81.6,82.8,81.6,82.8z"/>
	<path class="st0" d="M88.5,20.4c1,0.6,1.8,1.2,2.3,2.3C89.1,22.9,88.4,22,88.5,20.4z"/>
	<path class="st0" d="M81.6,15.8c0,0.8,0,1.5,0,2.3C80,18,80,16.9,80.1,15.8C80.6,15.8,81.1,15.8,81.6,15.8z"/>
	<path class="st0" d="M46.2,9.6c-1.5,0.1-0.5-1.1-0.8-1.5c0.3,0,0.6,0,0.8,0c0,0,0,0,0,0C46.2,8.6,46.2,9.1,46.2,9.6z"/>
	<path class="st3" d="M33.8,14.2c0.3,1.3,0.5,2.5,0.8,3.8c-3.2,0.2-6,0.3-6,4.9c0,1.2-2.5,3.7-4.7,2.7c-2-0.9-0.6-2.8-0.2-4.3
		c1.3-4.8,6.4-5.2,9.3-8.1C33.3,13.4,33.6,13.8,33.8,14.2z"/>
	<path class="st0" d="M26.4,93.2c-0.3,0.3-0.7,0.8-1,0.8c-0.8-0.1-0.6-0.8-0.6-1.4C25.3,92.8,25.8,93,26.4,93.2z"/>
	<path class="st8" d="M32.1,85.2c-0.1,0-0.3,0.1-0.3,0.1c-0.1-0.1-0.1-0.2-0.1-0.3c0.1,0,0.3-0.1,0.3-0.1
		C32.1,85,32.1,85.1,32.1,85.2z"/>
	<path class="st7" d="M93.2,33.5c-0.1-1.5,0.1-2.9-1-4.2c-0.9-1.1-1.3-2.9,1-3.5c0,0,0,0,0,0c0.2,2.1-0.4,4.4,2.4,5.4
		c0,0,0.1,0,0.1,0C95.1,32.3,96.3,35,93.2,33.5z"/>
	<path class="st0" d="M23.5,10.9c-0.3-0.6-0.5-1.3,0.2-1.6c0.7-0.3,1,0.4,1.4,0.8C24.6,10.6,24.3,11.2,23.5,10.9z"/>
	<path class="st3" d="M36.7,90.7c-0.1,0-0.2,0.1-0.2,0c-0.1-0.1-0.1-0.2-0.1-0.3c0.1,0,0.3-0.1,0.4-0.1
		C36.7,90.5,36.7,90.6,36.7,90.7z"/>
	<path class="st4" d="M95.5,31.1c-2.7-0.9-2.2-3.3-2.4-5.4C94.1,27.5,95.6,29,95.5,31.1z"/>
	<path class="st0" d="M83.2,15.7c-0.5,0-1,0-1.6,0c0-0.5,0-1,0-1.6C82.8,14.1,83.2,14.7,83.2,15.7z"/>
	<path class="st7" d="M84.6,13.5c0.6-0.2,1.4-0.9,1.8,0c0.3,0.7-0.4,0.6-0.9,0.7C85.3,14,84.9,13.8,84.6,13.5z"/>
	<path class="st1" d="M43.1,11.2c0.2,0,0.5,0,0.7,0c0.6,0.4,0.9,0.9,0.6,1.6c-0.1,0.2-0.4,0.4-0.6,0.3
		C42.8,12.8,43.2,11.8,43.1,11.2z"/>
	<path class="st1" d="M46.2,9.6c0-0.5,0-1,0-1.5c1,0,1.5,0.5,1.5,1.5C47.2,9.6,46.7,9.6,46.2,9.6z"/>
	<path class="st1" d="M47.7,9.6c0.5,0,1,0,1.5,0C48.7,10.4,48.2,10.4,47.7,9.6z"/>
	<path class="st1" d="M38.5,78.2c-0.6-0.3-0.8-0.9-0.9-1.6C38.3,76.9,38.4,77.5,38.5,78.2z"/>
	<path class="st13" d="M93.2,55.8c0.8,0.1,1.5,0.3,1.3,1.3c0,0.2-0.5,0.6-0.7,0.6C92.9,57.4,93.2,56.5,93.2,55.8
		C93.1,55.8,93.2,55.8,93.2,55.8z"/>
	<path class="st1" d="M52.3,45.8c0.1-0.8,0.3-1.5,1.3-1.4c0.2,0,0.6,0.5,0.6,0.7C53.9,46,53,45.7,52.3,45.8
		C52.3,45.8,52.3,45.8,52.3,45.8z"/>
</g>
<g>
	<path class="st15" d="M90.8,126.5H15c-2.2,0-4-1.8-4-4v-23c0-2.2,1.8-4,4-4h75.8c2.2,0,4,1.8,4,4v23
		C94.8,124.7,93,126.5,90.8,126.5z"/>
	<g>
		<path class="st16" d="M31.9,113c-0.1-2-0.1-4.4-0.1-6.8h-0.1c-0.5,2.1-1.2,4.4-1.8,6.4l-2,6.4H25l-1.8-6.4
			c-0.5-1.9-1.1-4.3-1.5-6.4l0,0c-0.1,2.2-0.2,4.8-0.3,6.8l-0.3,6.3h-3.4l1.1-16.5h5l1.6,5.5c0.5,1.9,1,4,1.4,5.9h0.1
			c0.5-1.9,1-4.1,1.6-5.9l1.8-5.5h4.9l0.9,16.5h-3.6L31.9,113z"/>
		<path class="st16" d="M53.7,110.9c0,5.4-3.3,8.7-8.1,8.7c-4.9,0-7.7-3.7-7.7-8.4c0-4.9,3.2-8.6,8-8.6
			C51,102.6,53.7,106.3,53.7,110.9z M41.8,111.1c0,3.2,1.5,5.5,4,5.5s4-2.4,4-5.6c0-3-1.4-5.5-4-5.5
			C43.3,105.5,41.8,107.9,41.8,111.1z"/>
		<path class="st16" d="M71.2,110.9c0,5.4-3.3,8.7-8.1,8.7c-4.9,0-7.7-3.7-7.7-8.4c0-4.9,3.2-8.6,8-8.6
			C68.5,102.6,71.2,106.3,71.2,110.9z M59.3,111.1c0,3.2,1.5,5.5,4,5.5c2.5,0,4-2.4,4-5.6c0-3-1.4-5.5-4-5.5
			C60.8,105.5,59.3,107.9,59.3,111.1z"/>
		<path class="st16" d="M73.7,119.3v-16.5H78l3.4,6c1,1.7,2,3.8,2.7,5.6h0.1c-0.2-2.2-0.3-4.4-0.3-6.9v-4.8h3.4v16.5h-3.9l-3.5-6.4
			c-1-1.8-2.1-3.9-2.9-5.8h-0.1c0.1,2.2,0.1,4.5,0.1,7.2v5h-3.3V119.3z"/>
	</g>
</g>
</svg>
