<?xml version="1.0" encoding="utf-8"?>
<!-- Generator: Adobe Illustrator 25.0.0, SVG Export Plug-In . SVG Version: 6.00 Build 0)  -->
<svg version="1.1" id="Layer_1" xmlns="http://www.w3.org/2000/svg" xmlns:xlink="http://www.w3.org/1999/xlink" x="0px" y="0px"
	 width="105.5px" height="129px" viewBox="0 0 105.5 129" style="enable-background:new 0 0 105.5 129;" xml:space="preserve">
<style type="text/css">
	.st0{fill:#FCFCFC;}
	.st1{fill:#2D3C44;}
	.st2{fill:#E5E8EA;}
	.st3{fill:#EBEDEE;}
	.st4{fill:#DDE2E3;}
	.st5{fill:#EEF1F2;}
	.st6{fill:#D0D7D8;}
	.st7{fill:#B7C0C4;}
	.st8{fill:#A5B0B2;}
	.st9{fill:#4B5D65;}
	.st10{fill:#495C64;}
	.st11{fill:#252D32;}
	.st12{fill:#48A6DD;}
	.st13{fill:#FFFFFF;}
</style>
<g>
	<path class="st0" d="M6.8,90.2c0.5,1.4,2.7,1,3.7,0.5c1.6-0.8,3.3,0.7,4.7-0.5c1.3,0.7,2.7,0.9,4.2,0.7c0.2,1,0.5,2,0.7,3.1
		c-1,3.1-1.4,5.7,2.2,8.1c2.5,1.7,4.7,0.5,7,1c3.5,0,7,0,10.5,0c-5.9-1.1-5.9-1.1-6.7-3.8c0.7,0.1,1.5,0.1,2.2,0.2
		c0.3,1.1,0.9,1.4,2,1.1c3.3-0.4,6.2,1.6,9.5,1.5c0.8,1.4,1.6,1.5,2.5,0.1c3.5-0.1,7.1-0.3,10.6-0.4c1.7,1.7,4,1.1,6,1.4
		c3.3,0.4,4.3-1,3.7-4.1c0.7-1.3,2-1,3.1-1.3c1.5,0,3.2,0.3,3.2-2c2.5-1.9,5.1-3.7,7.6-5.6c0.6,0,1.3-0.1,1.8,0.1
		c1.4,0.4,3,1.4,3.9-0.3c0.8-1.5-0.4-2.8-1.6-3.8c0.4-2.1,2.3-3.1,3.4-4.6c2.2-2.1,3.5-4.7,4.1-7.6c0.1-0.3,0.3-0.5,0.4-0.8
		c1.3-0.4,1.3-1.3,0.9-2.3c0.1-0.1,0.3-0.1,0.4-0.1c1.7,0.1,1.7,1.6,2.3,2.7c0.3,0.7,0.3,2.1,1.5,1.9c1.6-0.3,0.9-1.5,0.6-2.4
		c-0.3-1,0-1.7,1.1-2c1.7-0.5,1.2-1.6,1.2-3c-0.1-5.9-0.7-11.9,0.4-17.8c0.4-2.5,1.1-5.7-2.8-6.8c-1-0.3-0.3-1.2-0.1-1.9
		c1.3-4.5,0.5-5.3-4-4.6c-0.1-0.6-0.2-1.1-0.3-1.7c3.7-1.8,0.5-4.2,0.6-6.4c0.1-3-2.7-4.6-4.2-5.3c-2.3-1.2,1.3,2.6-1.1,2.7
		c-0.1,0-0.2,0-0.4,0.1c-1.6-0.9-2.4-2.3-2.7-4c0.9-1.9,1.5-4.1,0-5.5c-1.4-1.4-3.5-0.4-5.1,0.5c-0.4-0.3-0.7-0.7-1.1-1
		c1.6-4.9,1.2-5.4-3.7-5.4c-1.2,0-2.5,0.2-3.7,0.4c-2.1-0.4-4-1.2-5.5-2.7c-0.1-5.3-0.1-5.3-5.3-5.3c-3.3,0-6.5-0.2-9.8,0.6
		c-1.6,0.4-3.8,1-5.3-0.7c-3.1-3.5-5.7-3.2-8.2,1c0.8,1.2,3-0.3,3.3,1.7c-2.3,0.4-4.5,0.9-6.8,1.3c-6.6-3.1-8.5-2.2-8.4,3.7
		c-0.1,0.2-0.3,0.2-0.5,0.1c-2.4-0.1-4.8-0.1-7.2-0.2c-1.6-0.1-2.4,0.5-2.3,2.2c0.2,2.8,2-0.5,2.9,1.1c-1.5,1.8-4.8,2.1-5.2,5l0,0
		c-0.5,0-1,0-1.4-0.1c-0.2-0.1-0.3-0.2-0.5-0.3c0.1,0.2,0.2,0.3,0.3,0.5c0,0.5,0,1,0,1.4c-0.9,0.4-1.7,1.2-2.6,1.2
		c-4-0.2-4.2,0.1-2.7,4.2c0,0.5,0,1,0,1.5l0,0c-0.8,0.4-0.7,1.2-0.8,1.8l0.1,0.1c-0.5,0.2-0.9,0.5-0.8,1.2l0,0c-1,0-1.9,0.1-2.9,0.1
		c-1.4,0.1-3.2-0.9-3.9,1.1c-0.9,2.6,0.6,5.7-1.2,8.2c3.3,3.1,1.4,7.1,1.9,10.8C2.3,50.9,2.2,51,2,51.1c-0.8,0.3-1.5,0.7-0.5,1.6
		c0.1,1.8,0.2,3.6,0.2,5.4C1.1,58.5,1,59.3,1,60c-0.2,4.2,0.5,8.5-1.4,12.7"/>
	<path class="st0" d="M1.9,75.4c0.3,2.6,2,4.4,4.2,5.4c1.6,0.8,1.5-1.7,2.6-2.2c1.2,1.3,0.5,3,0.8,4.5c-0.1,1-0.2,1.8-1.2,2.5
		c-1.6,1-2,3.1-1.5,4.5"/>
	<path class="st0" d="M109.4,31.1C109.4,31.1,109.4,31.1,109.4,31.1c0-1.9,0-3.8,0-5.7c0-1.6-1.2-1.7-2.4-1.7
		c-1.1,0-3.1-0.1-2.6,1.2c0.8,2.1-5.4,5.2,0.9,6.3c0.2,0,0.4,1.2,0.3,1.7c-0.2,1.5,0.5,2.6,1.4,3.8c0.5,0.6,0.6,1.5,1.6,1.2
		c0.9-0.3,0.8-1.2,0.8-1.9C109.4,34.4,109.4,32.7,109.4,31.1z"/>
	<path class="st0" d="M109.6,61.2c-0.1,0-0.1,0-0.2,0c0-2.5,0.1-5.1,0-7.6c0-1,0.5-2.7-1.1-2.8c-1.7-0.1-1.1,1.6-1.2,2.7
		c-0.6,6.1,1.2,12.4-1.2,18.4c-0.5,1.3,1,3.2,2.2,3.3c1.4,0.2,1-1.5,1-2.6C109.1,68.7,109.4,64.9,109.6,61.2z"/>
	<path class="st0" d="M29.6,109.3c0.2-1.7-1.6-1.7-2.8-1.6"/>
	<path class="st0" d="M46-11.5c0,1.3,0.2,2.3,1.8,2.3c0.9,0,1.8-0.1,1.9-1.6"/>
	<path class="st1" d="M37.7,7c2.3-0.4,4.5-0.9,6.8-1.3c3.7-0.8,7.4-0.2,11.1-0.1c4.9,0.1,9.4,2.1,14.2,2.7c1.6,1.5,3.5,2.2,5.5,2.7
		c1.5,1.5,3.1,2.7,5.1,3.6c0.3,0.2,0.6,0.4,0.8,0.6c0.2,0.7,0.9,0.8,1.5,0.8c0.4,0.3,0.7,0.7,1.1,1c1.4,2,3,3.7,5.1,5
		c0.3,1.8,1.2,3.1,2.7,4c1.6,3.1,3,6.2,5.1,9c0.1,0.6,0.2,1.1,0.3,1.7c-0.2,1,0.5,1.5,1.1,2.2c-0.1,1.1-0.3,2.2,0.3,3.3
		c0.3,1.5,0.6,2.9,0.8,4.4c0.7,8.2,0.1,16.3-2.2,24.2c-0.1,0-0.3,0-0.4,0.1c-1,0.5-1,1.4-0.9,2.3c-0.1,0.3-0.3,0.5-0.4,0.8
		c-2,2.2-3.4,4.7-4.1,7.6c-1.1,1.5-3,2.6-3.4,4.6c-2.2,0.5-3.1,2.3-4.2,3.9c-2.5,1.9-5.1,3.7-7.6,5.6c-1.4,0.2-2.5,0.8-3.2,2
		c-1.1,0.3-2.4,0-3.1,1.3c-3.3,0.8-6.7,0.9-9.7,2.7c-3.5,0.1-7.1,0.3-10.6,0.4c-0.8,0-1.6-0.1-2.5-0.1c-3.3,0.2-6.2-1.9-9.5-1.5
		c-0.5-0.6-1-1.2-2-1.1c-0.7-0.1-1.5-0.1-2.2-0.2c-0.7-1.4-2.3-1.7-3.5-2.7c-3.3-2-5.4-5.6-9.3-6.7l-0.1,0.1c0.3-0.9,0-1.1-0.8-0.8
		l0.1,0c0.7-1.8-1-2.4-1.8-3.3c-2.2-2.3-3.9-4.8-4.8-7.8c1.9-1.9,1.5-4.7,3.2-6.8c-6.4-1.4-6.6-1.7-6.6-7.3c0-0.3,0-0.5,0-0.8
		c1.1,0.1,1.8,0.7,2.2,1.8c1.1,3,3.2,4,6.3,3c0.8-0.3,1.8-0.2,2.6,0c1.7,0.4,2.4,1.9,2.4,3.5c-0.1,1.5-1.2,1.6-2.5,1.2
		c-1.7-0.5-1.9,0.7-1.9,2c-0.1,2.2,0.5,4,1.9,5.9c2.1,2.7,4.2,1.1,5.8,0.3c2-1,2.1-3,0.1-4.6c-1.4-1.2-1.3-2.8,0.2-3.4
		c1.6-0.6,2.8-1.5,3.9-2.7c0.7-0.9,1.8-1,2.7-0.1c0.9,0.9,0.7,1.9-0.1,2.7c-0.7,0.7-1.5,1.4-2.3,2c-1.4,1-2.1,2.2-0.6,3.4
		c1.9,1.5,1.4,2.3-0.3,3.4c-0.7,0.5-1.6,1.1-1,2.2c0.6,1.1,1.6,1,2.7,1c1.3,0,2-0.9,2.9-1.7c1.2-1.1,2.6-2.5,4.3-1.8
		c2.7,1.2,3.5-1.3,5.1-2.1c3.2-1.5,1.5-3,0.2-4.6c-0.3-0.3-0.3-1.1-0.1-1.4c3.1-4.5-1.5-6.9-2.7-10.2c-0.3-0.8-1.1-2.6-2.5-1.2
		c-0.8,0.8-1.5,2.1-0.5,3.5c0.3,0.4,0.7,0.8,1,1.2c0.7,0.9,0.8,2-0.1,2.7c-1.2,0.9-1.6-0.4-2.3-1c-2.5-2.1-2.1-5.8-4.9-7.9
		c-3.4-2.7-4.4-6.9-4.2-11.2c0.1-3.5,2-5.2,5.5-5.3c2.1-0.1,4,0.3,5.9,1c2.6,1,4.7-0.7,6.3-2.5c1.7-2-0.5-2.7-1.8-3.7
		c-1.9-1.5-1.7-3,0.1-4.3c2.1-1.4,4.1-2.8,6.6-3.7c1.9-0.6,5-2.8,2.4-4.5c-5.4-3.5-9.8-12.3-18.4-5.4c-0.1,0.1-0.3,0.1-0.4,0
		c-4-0.7-5.4,1.6-6.6,5c-0.5,1.5-2.7,3.1-4.6,2.4c-2.4-1-0.4-2.6,0-4.1c0.6-2.2,1.3-4.6-1.6-5.9c3-1.9,5.1-4.6,7.5-7.1
		c0.2,0.1,0.3,0,0.5-0.1c1.8-1,3.7-2,5.5-2.9c0,0,0.1-0.1,0.1-0.1C35.8,7.5,36.7,7.3,37.7,7z M82.7,56.6c0.1,2.5-0.7,6.7,0.4,7.3
		c3.9,2.1,2.7,4.3,1.4,7c-0.3,0.6-0.1,1.3,0.7,1.5c0.8,0.3,1.6,0.3,2-0.6c0.9-2.1,3-3.7,2.6-6.5c-0.3-2.2,0.5-4.1,2.1-5.8
		c0.7-0.7,2-1.6,1.1-2.9c-1.5-2.2-3-4.3-5.8-5.2c-2-0.6-2.2,0.5-2.2,2c-1.3-0.2-1.8,2.2-3.3,1.1c-0.9-0.7-0.6-1.9-0.5-2.9
		c0.3-2.6-0.1-4.7-1.3-7.2c-1.6-3.3-2.2-5.1-5.7-2.2c-0.8,0.7-1.9,0.7-2.8,0.1c-1.4-1,0-1.6,0.3-2.5c0.4-0.9,0.8-2,0.7-2.9
		c-0.6-4.3-8-9.8-12.4-9.3c-1.1,0.1-1.7,1-2.4,1.8C52.9,35.7,54.9,41.2,63,44c1.8,0.6,5.8,0.2,1.3,3.3c-0.6,0.4-0.6,1.1-0.2,1.7
		c1.1,1.7,0.9,3.6,1.1,5.5c0.3,2,1.1,3.6,3.6,3.6c1.3,0,2.8,0.4,1.8,2.3c-0.4,0.8-0.6,1.3,0.4,1.8c0.8,0.4,1.4,0.3,2.1-0.3
		c1.1-0.9,1.3-2.1,1.2-3.5c-0.2-3,1.3-3.9,4-3.2C79.8,55.6,81.2,56.1,82.7,56.6z M63.2,18.4c1.5-0.2,3.1,0,3.1-1.5
		c0-1.8-1.6-2.3-3.3-2.4c-5.6-0.2-11.2-0.2-16.7-1.5c-1.6-0.4-3.3-1.4-5.1-0.3c-1,0.6-2.9,0.3-2.4,2.2c0.4,1.5,1.6,1.4,3.1,1.3
		c3.6-0.3,7.4-0.9,10.3,2.3c0.8,0.9,2.3,1,3.2,0.5C58.1,17.6,60.8,17.2,63.2,18.4z M91.6,39.9c-0.1-2.1-2.7-4.7-4.4-4.8
		c-3.3-0.2-3.2,2.5-3.4,4.4c-0.3,2.6,2.7,6.5,4.4,6.1C91.4,44.9,89.6,41.1,91.6,39.9z M54.5,50.4c1-0.2,2.8,0.6,2.9-1.7
		c0.1-1.9-3.2-4.5-5.5-4.5c-1.4,0-2.3,0.6-2,2C50.3,48.8,51.4,50.7,54.5,50.4z M31.6,13.8c-1.8,0.5-4,0.7-5.5,2.5
		c-0.6,0.7-2,1.2-1.1,2.4c0.6,0.8,1.9,0.7,2.8,0.4c1.7-0.5,2.6-2.3,4.6-2.4c0.7,0,1.9-0.4,1.8-1.5C34,13.8,32.9,13.8,31.6,13.8z
		 M79.5,68.9c-0.5-1.3-1.3-2.4-2.9-2.3c-1.9,0.1-3,1.3-3.1,3.2c-0.1,1.6,0.4,2.8,2.3,2.8C78,72.5,78.7,70.7,79.5,68.9z M74.3,27.6
		c-0.1-1.3-0.6-2.3-2.1-2.2c-1.2,0.1-1.7,1-1.7,2.1c0,1.1,0.2,2.6,1.5,2.6C73.5,30.2,74.1,28.9,74.3,27.6z M49.3,59.6
		c1-0.1,1.9-0.6,2-1.8c0-1-0.5-1.8-1.5-1.7c-1.1,0.2-2.4,0.6-2.6,1.9C47,59.2,48.1,59.5,49.3,59.6z M42.3,53.6c0,1.1,0.4,1.8,1.4,2
		c1.2,0.2,2-0.4,2.1-1.5c0.2-1-0.4-1.7-1.4-1.9C43.3,51.9,42.6,52.5,42.3,53.6z"/>
	<path class="st2" d="M-0.4,72.7C1.5,68.6,0.8,64.3,1,60c0-0.8,0.1-1.5,0.9-2c2.9-2.2,1.4-4.7,0.7-7.3C2,47.2,3.8,43.2,0.6,40
		c1.8-2.5,0.3-5.6,1.2-8.2c0.7-2.1,2.5-1,3.9-1.1c-0.1,1.8-0.2,3.6-0.2,5.4c1.7-1.7,3.2-3.3,3.1-5.6c0,0,0,0,0,0
		c0.6-0.1,0.8-0.6,0.8-1.2c0,0-0.1-0.1-0.1-0.1c0.5-0.5,0.9-1.1,0.8-1.8c0,0,0,0,0,0c0.6-0.1,1.1-0.5,1.2-1.1c0-0.1-0.8-0.3-1.2-0.4
		c-1.5-4.1-1.3-4.4,2.7-4.2c0.8,0,1.7-0.8,2.6-1.2c1,0,1.6-0.5,1.6-1.5c0,0,0,0,0,0c1.3-0.2,2.5-0.5,3.8-0.7c0.2,1-0.7,1.2-1.2,1.7
		C11.9,28.9,6.1,38.5,6.8,50.8c-1.6,0.9-1.1,2.5-1,3.8c0.4,4.1,0.9,8.3,1.8,12.3c1,4.1,2.2,8.1,5.1,11.4c1,3,2.6,5.5,4.8,7.8
		c0.9,0.9,2.5,1.5,1.8,3.3c-2,0.4-2.2-2.3-3.9-2.2c-0.1-0.3-0.2-0.6-0.3-1c-0.1,0.1-0.3,0.2-0.4,0.3c0.2,0.2,0.4,0.5,0.7,0.7
		c-0.1,1-0.2,2.1-0.3,3.1c-1.4,1.3-3.1-0.2-4.7,0.5c-1,0.5-3.2,0.8-3.7-0.5"/>
	<path class="st2" d="M6.8,90.2c-0.6-1.5-0.2-3.5,1.5-4.5c1.1-0.7,1.1-1.5,1.2-2.5c0.8-0.3,2.8,0.8,2.2-1.2c-0.5-1.9-1.3-4.1-3.3-5
		c-0.5-0.2,0,1.1,0.3,1.7c-1.1,0.5-1,3-2.6,2.2c-2.2-1-3.9-2.8-4.2-5.4"/>
	<path class="st2" d="M6.8,71.1c-1.7-1.5-0.4-3.9-2.7-4.3c-0.7-0.1-0.7,0.8-0.8,1.4C2.9,70.3,3.8,71.2,6.8,71.1z"/>
	<path class="st2" d="M4.6,65.2c-0.3-1.6-0.1-2.6-1.2-3.2C3.2,62.9,2.8,63.9,4.6,65.2z"/>
	<path class="st2" d="M7.9,74.5c-0.1-0.2-0.2-0.4-0.4-0.6c-0.1,0.2-0.4,0.4-0.4,0.6c0,0.3,0,0.8,0.5,0.7C7.7,75.1,7.8,74.7,7.9,74.5
		z"/>
	<path class="st3" d="M98.1,38.9c-0.6-0.6-1.3-1.2-1.1-2.2c4.5-0.7,5.3,0.2,4,4.6c-0.2,0.7-0.9,1.7,0.1,1.9c3.9,1.1,3.2,4.3,2.8,6.8
		c-1,6-0.5,11.9-0.4,17.8c0,1.4,0.5,2.5-1.2,3c-1.1,0.3-1.4,1-1.1,2c0.3,0.9,1,2.1-0.6,2.4c-1.2,0.2-1.1-1.1-1.5-1.9
		c-0.5-1.1-0.6-2.6-2.3-2.7c2.3-7.9,2.9-16,2.2-24.2c-0.1-1.5-0.5-3-0.8-4.4c1-0.6,1.7-1.4,1.5-2.6C99.8,38.8,98.7,39,98.1,38.9z
		 M100.8,45.2c-0.7,1.2-0.6,1.8-0.2,2.4c0.3,0.3,0.8,0.3,0.8-0.1C101.5,46.9,101.2,46.3,100.8,45.2z"/>
	<path class="st4" d="M69.7,8.4C65,7.7,60.5,5.8,55.6,5.7C51.8,5.6,48.1,5,44.4,5.7c-0.4-2-2.6-0.5-3.3-1.7c2.5-4.2,5.1-4.5,8.2-1
		c1.5,1.6,3.7,1.1,5.3,0.7c3.3-0.8,6.5-0.5,9.8-0.6C69.6,3,69.6,3.1,69.7,8.4z"/>
	<path class="st2" d="M20.2,90c3.9,1.1,6.1,4.7,9.3,6.7c-0.1,0.1-0.3,0.2-0.4,0.4c-1.8,0.1-4.4-0.3-4.3,2.2c0.1,2.4,2.7,1.4,4.3,1.6
		c0,0.8,0,1.5,0,2.3c-2.3-0.5-4.5,0.6-7-1C18.7,99.7,19,97.1,20,94c3.4-1.1,0.5-2.1,0-3.1C20.1,90.6,20.2,90.3,20.2,90z"/>
	<path class="st5" d="M109.4,31.1c0,1.6,0,3.3,0,4.9c0,0.7,0.1,1.6-0.8,1.9c-1,0.3-1.1-0.6-1.6-1.2c-0.9-1.1-1.6-2.2-1.4-3.8
		c0.1-0.6-0.1-1.7-0.3-1.7c-6.3-1.1-0.1-4.2-0.9-6.3c-0.5-1.2,1.6-1.2,2.6-1.2c1.2,0,2.4,0.1,2.4,1.7
		C109.4,27.3,109.4,29.2,109.4,31.1C109.4,31.1,109.4,31.1,109.4,31.1z"/>
	<path class="st2" d="M109.6,61.2c-0.2,3.8-0.5,7.6-0.5,11.4c0,1.2,0.4,2.8-1,2.6c-1.2-0.2-2.8-2-2.2-3.3c2.5-6.1,0.6-12.3,1.2-18.4
		c0.1-1-0.5-2.7,1.2-2.7c1.6,0.1,1,1.8,1.1,2.8c0.1,2.5,0,5.1,0,7.6C109.5,61.2,109.5,61.2,109.6,61.2z"/>
	<path class="st6" d="M20.8,18.3c-1.3,0.2-2.5,0.5-3.8,0.7c0.5-2.9,3.8-3.2,5.2-5c-0.8-1.6-2.7,1.6-2.9-1.1
		c-0.1-1.7,0.7-2.3,2.3-2.2c2.4,0.1,4.8,0.1,7.2,0.2c-2.4,2.5-4.6,5.2-7.5,7.1C21.1,18.1,20.9,18.2,20.8,18.3z"/>
	<path class="st3" d="M96.7,35.1c-2.1-2.8-3.5-5.9-5.1-9c0.1,0,0.2-0.1,0.4-0.1c2.5-0.1-1.2-3.9,1.1-2.7c1.5,0.8,4.3,2.3,4.2,5.3
		C97.2,30.9,100.4,33.3,96.7,35.1z"/>
	<path class="st6" d="M59.8,101.7c3-1.8,6.5-1.9,9.7-2.7c0.6,3.1-0.4,4.5-3.7,4.1C63.8,102.9,61.5,103.5,59.8,101.7z"/>
	<path class="st4" d="M29.2,103.1c0-0.8,0-1.5,0-2.3c0.5,0,1.2,0.1,1.4-0.2c0.6-0.6-0.3-0.8-0.6-0.9c-1.6-0.6-0.9-1.7-0.8-2.8
		c0.1-0.1,0.2-0.3,0.4-0.4c1.1,0.9,2.7,1.2,3.5,2.7c0.8,2.6,0.8,2.6,6.7,3.8C36.3,103.1,32.7,103.1,29.2,103.1z"/>
	<path class="st6" d="M34.7,7.8c-1.8,1-3.7,2-5.5,2.9c-0.1-6,1.9-6.8,8.4-3.7C36.7,7.3,35.8,7.5,34.7,7.8c-0.5-0.5-0.9-1.4-1.8-0.3
		C33.6,7.6,34.2,7.7,34.7,7.8z"/>
	<path class="st4" d="M80.3,14.7c-1.9-0.9-3.6-2.1-5.1-3.6c1.2-0.1,2.4-0.3,3.7-0.4c5,0,5.3,0.5,3.7,5.4c-0.6,0-1.3,0-1.5-0.8
		c0.6-0.5,1.1-1.3,0.3-1.7C80.4,12.9,80.6,14.1,80.3,14.7z"/>
	<path class="st2" d="M88.8,22.1c-2.1-1.3-3.7-3-5.1-5c1.7-0.9,3.7-1.9,5.1-0.5C90.3,18,89.7,20.2,88.8,22.1z"/>
	<path class="st3" d="M26.7,107.8c1.2-0.1,3-0.2,2.8,1.6"/>
	<path class="st7" d="M83.5,90.2c1.1-1.7,2-3.5,4.2-3.9c1.2,1,2.3,2.3,1.6,3.8c-0.9,1.7-2.5,0.7-3.9,0.3
		C84.7,90.1,84.1,90.2,83.5,90.2z"/>
	<path class="st6" d="M49.7-10.8c-0.1,1.5-1,1.6-1.9,1.6c-1.6,0-1.8-1-1.8-2.3"/>
	<path class="st8" d="M8.6,30.5c0.1,2.3-1.5,3.8-3.1,5.6c0.1-1.8,0.2-3.6,0.2-5.4C6.7,30.6,7.6,30.6,8.6,30.5z"/>
	<path class="st8" d="M8.7,78.6c-0.3-0.6-0.8-2-0.3-1.7c1.9,0.9,2.7,3.1,3.3,5c0.6,2-1.4,0.9-2.2,1.2C9.3,81.6,9.9,80,8.7,78.6z"/>
	<path class="st9" d="M91.1,81.6c0.7-2.9,2.1-5.4,4.1-7.6C94.5,76.9,93.3,79.5,91.1,81.6z"/>
	<path class="st8" d="M20.2,90c-0.1,0.3-0.2,0.6-0.2,0.9c-0.2,0-0.5,0-0.7,0.1c-1.5,0.2-2.8,0-4.2-0.7c0.1-1,0.2-2.1,0.3-3.1
		c0,0,0,0,0,0c1.8,0,2,2.6,3.9,2.2c0,0-0.1,0-0.1,0c0.1,0.5,0.3,0.8,0.8,0.8C20.2,90.1,20.2,90,20.2,90z"/>
	<path class="st8" d="M2.5,50.8c0.7,2.5,2.2,5.1-0.7,7.3c-0.1-1.8-0.2-3.6-0.2-5.4c0.8-0.4,0.9-0.9,0.5-1.6
		C2.2,51,2.3,50.9,2.5,50.8z"/>
	<path class="st6" d="M72.7,97.7c0.7-1.3,1.8-1.9,3.2-2C75.9,98.1,74.2,97.8,72.7,97.7z"/>
	<path class="st4" d="M19.3,90.9c0.2-0.1,0.5-0.1,0.7-0.1c0.5,1,3.4,2.1,0,3.1C19.8,93,19.5,91.9,19.3,90.9z"/>
	<path class="st6" d="M46.7,102c0.8,0,1.6,0.1,2.5,0.1C48.3,103.5,47.5,103.4,46.7,102z"/>
	<path class="st9" d="M95.6,73.2c0-0.9,0-1.8,0.9-2.3C96.9,72,96.9,72.9,95.6,73.2z"/>
	<path class="st6" d="M35.3,99.5c0.9-0.2,1.5,0.4,2,1.1C36.2,100.9,35.5,100.6,35.3,99.5z"/>
	<path class="st2" d="M2,51.1c0.4,0.7,0.3,1.2-0.5,1.6C0.6,51.8,1.2,51.4,2,51.1z"/>
	<path class="st6" d="M17,19.1c0,1.1-0.5,1.6-1.6,1.5c0-0.5,0-1,0-1.4l0.2-0.2C16,19,16.5,19.1,17,19.1z"/>
	<path class="st8" d="M10.1,26c0.4,0.1,1.2,0.3,1.2,0.4c0,0.6-0.6,1-1.2,1.1C10.1,27,10.1,26.5,10.1,26z"/>
	<path class="st8" d="M10.1,27.5c0.1,0.8-0.3,1.3-0.8,1.8C9.4,28.6,9.3,27.9,10.1,27.5z"/>
	<path class="st8" d="M9.4,29.4c0,0.6-0.2,1-0.8,1.2C8.5,29.9,8.9,29.6,9.4,29.4z"/>
	<path class="st6" d="M15.4,19.2c-0.1-0.2-0.2-0.3-0.3-0.5c0.2,0.1,0.3,0.2,0.5,0.3C15.5,19,15.4,19.2,15.4,19.2z"/>
	<path class="st10" d="M20.8,18.3c0.2-0.1,0.3-0.2,0.5-0.4c3,1.3,2.2,3.7,1.6,5.9c-0.4,1.5-2.4,3.1,0,4.1c1.9,0.7,4.1-0.8,4.6-2.4
		c1.1-3.4,2.5-5.7,6.6-5c0.1,0,0.3,0,0.4,0c8.6-6.9,12.9,1.9,18.4,5.4c2.6,1.7-0.5,3.8-2.4,4.5c-2.5,0.8-4.5,2.2-6.6,3.7
		c-1.9,1.3-2.1,2.8-0.1,4.3c1.2,1,3.5,1.7,1.8,3.7c-1.5,1.8-3.6,3.5-6.3,2.5c-2-0.8-3.9-1.1-5.9-1c-3.5,0.1-5.3,1.8-5.5,5.3
		c-0.2,4.3,0.8,8.5,4.2,11.2c2.7,2.2,2.4,5.8,4.9,7.9c0.7,0.6,1.1,1.9,2.3,1c1-0.7,0.9-1.8,0.1-2.7c-0.3-0.4-0.7-0.7-1-1.2
		c-0.9-1.3-0.2-2.7,0.5-3.5c1.4-1.3,2.1,0.4,2.5,1.2c1.2,3.3,5.8,5.8,2.7,10.2c-0.2,0.3-0.2,1.1,0.1,1.4c1.3,1.6,3,3.1-0.2,4.6
		c-1.7,0.8-2.4,3.3-5.1,2.1c-1.7-0.8-3.1,0.7-4.3,1.8c-0.8,0.8-1.6,1.7-2.9,1.7c-1,0-2.1,0.1-2.7-1c-0.5-1.1,0.3-1.7,1-2.2
		c1.6-1.1,2.2-1.9,0.3-3.4c-1.5-1.1-0.9-2.4,0.6-3.4c0.8-0.6,1.6-1.2,2.3-2c0.8-0.8,1-1.8,0.1-2.7c-0.9-0.9-1.9-0.7-2.7,0.1
		c-1.1,1.3-2.3,2.1-3.9,2.7c-1.5,0.6-1.6,2.2-0.2,3.4c2,1.7,1.9,3.6-0.1,4.6c-1.6,0.8-3.8,2.4-5.8-0.3c-1.4-1.9-2-3.7-1.9-5.9
		c0.1-1.3,0.2-2.5,1.9-2c1.3,0.4,2.5,0.3,2.5-1.2c0.1-1.6-0.6-3-2.4-3.5c-0.8-0.2-1.8-0.2-2.6,0c-3.1,1-5.2,0-6.3-3
		c-0.4-1.1-1.1-1.7-2.2-1.8c0.5-4.5-2.6-8.2-2.6-12.6c-0.7-12.3,5.1-21.9,12.8-30.7C20,19.5,20.9,19.3,20.8,18.3z"/>
	<path class="st10" d="M82.7,56.6c-1.4-0.5-2.9-1-4.3-1.3c-2.7-0.7-4.2,0.2-4,3.2c0.1,1.3,0,2.5-1.2,3.5c-0.7,0.6-1.3,0.6-2.1,0.3
		c-1-0.5-0.8-0.9-0.4-1.8c0.9-1.9-0.5-2.3-1.8-2.3c-2.5,0-3.4-1.6-3.6-3.6c-0.2-1.9-0.1-3.8-1.1-5.5c-0.4-0.6-0.4-1.3,0.2-1.7
		c4.5-3.1,0.5-2.7-1.3-3.3c-8.1-2.7-10.1-8.2-5.3-14.6c0.6-0.8,1.2-1.7,2.4-1.8c4.4-0.4,11.8,5.1,12.4,9.3c0.1,0.9-0.3,2-0.7,2.9
		c-0.4,0.8-1.7,1.5-0.3,2.5c0.9,0.6,2,0.6,2.8-0.1c3.4-2.9,4.1-1.1,5.7,2.2c1.2,2.6,1.5,4.7,1.3,7.2c-0.1,1-0.4,2.2,0.5,2.9
		c1.5,1.1,2-1.3,3.3-1.1c2.9,1.4,4.4,3.4,3.1,6.8c-0.3,0.9,0.4,2.1-0.6,2.7c-0.3,0.2-0.9-0.1-1.3-0.4c-1.2-0.8-0.8-1.8-0.4-3
		C86.7,56.8,85.8,56,82.7,56.6z"/>
	<path class="st9" d="M82.7,56.6c3.1-0.6,4,0.2,3.1,3c-0.4,1.2-0.8,2.2,0.4,3c0.4,0.3,1,0.5,1.3,0.4c1.1-0.7,0.3-1.9,0.6-2.7
		c1.3-3.4-0.3-5.4-3.1-6.8c0-1.4,0.2-2.6,2.2-2c2.7,0.8,4.3,3,5.8,5.2c0.9,1.3-0.5,2.2-1.1,2.9c-1.6,1.7-2.5,3.7-2.1,5.8
		c0.4,2.8-1.7,4.3-2.6,6.5c-0.3,0.8-1.2,0.8-2,0.6c-0.7-0.2-0.9-1-0.7-1.5c1.3-2.7,2.5-4.9-1.4-7C81.9,63.2,82.7,59.1,82.7,56.6z"/>
	<path class="st10" d="M63.2,18.4c-2.5-1.2-5.2-0.9-7.9,0.6c-0.9,0.5-2.4,0.4-3.2-0.5c-2.9-3.2-6.7-2.6-10.3-2.3
		c-1.4,0.1-2.7,0.2-3.1-1.3c-0.4-1.9,1.4-1.6,2.4-2.2c1.8-1,3.5,0,5.1,0.3c5.5,1.3,11.1,1.2,16.7,1.5c1.7,0.1,3.2,0.5,3.3,2.4
		C66.3,18.4,64.8,18.2,63.2,18.4z"/>
	<path class="st11" d="M6.8,50.8c0,4.4,3.1,8.1,2.6,12.6c0,0.2,0,0.5,0,0.8c0,5.7,0.2,5.9,6.6,7.3c-1.8,2-1.3,4.9-3.2,6.8
		C9.8,75,8.6,70.9,7.6,66.8c-1-4-1.4-8.2-1.8-12.3C5.7,53.3,5.2,51.7,6.8,50.8z"/>
	<path class="st10" d="M91.6,39.9c-2,1.2-0.2,5-3.4,5.8c-1.7,0.4-4.7-3.6-4.4-6.1c0.2-1.9,0-4.6,3.4-4.4
		C88.9,35.2,91.6,37.8,91.6,39.9z"/>
	<path class="st9" d="M54.5,50.4c-3.2,0.2-4.3-1.6-4.7-4.1c-0.2-1.5,0.6-2,2-2c2.3,0,5.6,2.6,5.5,4.5C57.3,51,55.6,50.3,54.5,50.4z"
		/>
	<path class="st9" d="M31.6,13.8c1.3,0,2.4,0.1,2.6,1.3c0.2,1.1-1.1,1.5-1.8,1.5c-2,0.1-2.9,1.9-4.6,2.4c-1,0.3-2.2,0.4-2.8-0.4
		c-0.9-1.2,0.5-1.7,1.1-2.4C27.6,14.4,29.8,14.3,31.6,13.8z"/>
	<path class="st10" d="M79.5,68.9c-0.8,1.8-1.5,3.6-3.7,3.7c-1.8,0-2.4-1.2-2.3-2.8c0.1-1.9,1.1-3.1,3.1-3.2
		C78.2,66.5,79,67.6,79.5,68.9z"/>
	<path class="st10" d="M74.3,27.6c-0.2,1.3-0.8,2.6-2.2,2.6c-1.3-0.1-1.5-1.5-1.5-2.6c0-1.1,0.5-2,1.7-2.1
		C73.7,25.3,74.2,26.3,74.3,27.6z"/>
	<path class="st10" d="M49.3,59.6c-1.2-0.1-2.3-0.4-2.2-1.6c0.1-1.3,1.5-1.7,2.6-1.9c1.1-0.2,1.6,0.7,1.5,1.7
		C51.2,59,50.3,59.4,49.3,59.6z"/>
	<path class="st10" d="M42.3,53.6c0.3-1.1,1-1.7,2.2-1.5c1,0.2,1.6,0.9,1.4,1.9c-0.2,1.2-0.9,1.8-2.1,1.5
		C42.8,55.4,42.3,54.7,42.3,53.6z"/>
	<path class="st0" d="M98.1,38.9c0.7,0.1,1.7-0.2,1.8,0.7c0.2,1.1-0.5,2-1.5,2.6C97.8,41.2,97.9,40.1,98.1,38.9z"/>
	<path class="st0" d="M80.3,14.7c0.2-0.6,0.1-1.8,1.2-1.1c0.8,0.5,0.3,1.2-0.3,1.7C80.9,15.1,80.6,14.9,80.3,14.7z"/>
	<path class="st2" d="M20.2,90.1c-0.5,0-0.7-0.3-0.8-0.8C20.2,89,20.5,89.2,20.2,90.1z"/>
	<path class="st7" d="M6.8,71.1c-2.9,0.1-3.8-0.8-3.5-2.9c0.1-0.6,0.1-1.6,0.8-1.4C6.3,67.3,5.1,69.6,6.8,71.1z"/>
	<path class="st7" d="M4.6,65.2c-1.8-1.3-1.4-2.3-1.2-3.2C4.5,62.6,4.3,63.6,4.6,65.2z"/>
	<path class="st8" d="M7.9,74.5c-0.1,0.2-0.1,0.6-0.3,0.6c-0.5,0.1-0.5-0.4-0.5-0.7c0-0.2,0.2-0.4,0.4-0.6
		C7.6,74.1,7.7,74.3,7.9,74.5z"/>
	<path class="st8" d="M15.5,87.1c-0.2-0.2-0.4-0.5-0.7-0.7c0.1-0.1,0.3-0.2,0.4-0.3C15.3,86.4,15.4,86.7,15.5,87.1
		C15.5,87.1,15.5,87.1,15.5,87.1z"/>
	<path class="st0" d="M100.8,45.2c0.3,1.1,0.6,1.7,0.6,2.3c0,0.4-0.6,0.4-0.8,0.1C100.2,47,100.2,46.4,100.8,45.2z"/>
	<path class="st6" d="M29.2,97c0,1-0.8,2.2,0.8,2.8c0.3,0.1,1.2,0.2,0.6,0.9c-0.2,0.3-0.9,0.1-1.4,0.2c-1.6-0.3-4.2,0.8-4.3-1.6
		C24.8,96.7,27.4,97.1,29.2,97z"/>
	<path class="st0" d="M34.7,7.8c-0.6-0.1-1.2-0.2-1.8-0.3C33.8,6.4,34.3,7.4,34.7,7.8C34.8,7.8,34.7,7.8,34.7,7.8z"/>
</g>
<g>
	<path class="st12" d="M90.8,126.5H15c-2.2,0-4-1.8-4-4v-23c0-2.2,1.8-4,4-4h75.8c2.2,0,4,1.8,4,4v23
		C94.8,124.7,93,126.5,90.8,126.5z"/>
	<g>
		<path class="st13" d="M31.9,113c-0.1-2-0.1-4.4-0.1-6.8h-0.1c-0.5,2.1-1.2,4.4-1.8,6.4l-2,6.4H25l-1.8-6.4
			c-0.5-1.9-1.1-4.3-1.5-6.4l0,0c-0.1,2.2-0.2,4.8-0.3,6.8l-0.3,6.3h-3.4l1.1-16.5h5l1.6,5.5c0.5,1.9,1,4,1.4,5.9h0.1
			c0.5-1.9,1-4.1,1.6-5.9l1.8-5.5h4.9l0.9,16.5h-3.6L31.9,113z"/>
		<path class="st13" d="M53.7,110.9c0,5.4-3.3,8.7-8.1,8.7c-4.9,0-7.7-3.7-7.7-8.4c0-4.9,3.2-8.6,8-8.6
			C51,102.6,53.7,106.3,53.7,110.9z M41.8,111.1c0,3.2,1.5,5.5,4,5.5s4-2.4,4-5.6c0-3-1.4-5.5-4-5.5
			C43.3,105.5,41.8,107.9,41.8,111.1z"/>
		<path class="st13" d="M71.2,110.9c0,5.4-3.3,8.7-8.1,8.7c-4.9,0-7.7-3.7-7.7-8.4c0-4.9,3.2-8.6,8-8.6
			C68.5,102.6,71.2,106.3,71.2,110.9z M59.3,111.1c0,3.2,1.5,5.5,4,5.5c2.5,0,4-2.4,4-5.6c0-3-1.4-5.5-4-5.5
			C60.8,105.5,59.3,107.9,59.3,111.1z"/>
		<path class="st13" d="M73.7,119.3v-16.5H78l3.4,6c1,1.7,2,3.8,2.7,5.6h0.1c-0.2-2.2-0.3-4.4-0.3-6.9v-4.8h3.4v16.5h-3.9l-3.5-6.4
			c-1-1.8-2.1-3.9-2.9-5.8h-0.1c0.1,2.2,0.1,4.5,0.1,7.2v5h-3.3C73.7,119.2,73.7,119.3,73.7,119.3z"/>
	</g>
</g>
</svg>
