<?xml version="1.0" encoding="utf-8"?>
<!-- Generator: Adobe Illustrator 25.0.0, SVG Export Plug-In . SVG Version: 6.00 Build 0)  -->
<svg version="1.1" id="Layer_1" xmlns="http://www.w3.org/2000/svg" xmlns:xlink="http://www.w3.org/1999/xlink" x="0px" y="0px"
	 width="105.5px" height="129px" viewBox="0 0 105.5 129" style="enable-background:new 0 0 105.5 129;" xml:space="preserve">
<style type="text/css">
	.st0{fill:#FCFCFC;}
	.st1{fill:#2D3C44;}
	.st2{fill:#495C64;}
	.st3{fill:#F2F5F4;}
	.st4{fill:#252D32;}
	.st5{fill:#DDE2E3;}
	.st6{fill:#E5E8EA;}
	.st7{fill:#EBEDEE;}
	.st8{fill:#D0D7D8;}
	.st9{fill:#A5B0B2;}
	.st10{fill:#EEF1F2;}
	.st11{fill:#B7C0C4;}
	.st12{fill:#4B5D65;}
	.st13{fill:#F8F4EC;}
	.st14{fill:#E9E0DB;}
	.st15{fill:#48A6DD;}
	.st16{fill:#FFFFFF;}
</style>
<g>
	<path class="st0" d="M28.7,99.1c4.9,2.7,4.9,2.7,8.3-2c6.3,1,12.5,2.5,19,1.3c0.5,0.1,0.9,0.2,1.4,0.3c5.9,0.8,11.5-0.2,16.8-3
		c1.9,1.5,3.8,0.9,6.2,0.3c-1-0.8-1.7-1.3-2.4-1.8c2.6-0.3,3.2-2.4,3.8-4.4c0-0.2,0.1-0.4,0.1-0.5c0.9-0.8,2.2-1.3,2.6-2.6
		c0,0,0.4,0,0.4,0c3,0.1,4.6-1.1,4.1-4.3c3.8-4.5,8-8.8,8.2-15.3c3,0.2,3.3-1.6,3-3.9c1-1,1-2,0-3c0-0.5,0-1,0-1.5c0-0.5,0-1,0-1.5
		c0.1-2.6,0.2-5.2,0.2-7.9c0-1.5,0.2-2.8,2.1-2.7c1.8,1.1,2.4-0.3,2.2-1.5c-0.3-1.7,1.4-3.2,0.2-4.9c-2.2,2.2-2.9-2.2-4.8-1.1
		l-0.1,0c0.8-1.8-1.2-2.6-1.5-4c-0.5-3-3.3-6.2,1.1-8.8c1-0.6,0.8-2.4,0.1-3.5C98.1,20,95.1,19,93,17c-0.6-0.6-1.8-0.2-2,0.9
		c-0.2,0.9-0.4,1.7-1.5,1.8c0-1-0.1-2-0.1-2.9c0.1-2.1,0.1-4.1-2.9-2.5c-1-0.2-2.1-0.4-3.1-0.6c2-2.2,5-1.1,7.4-2.1
		c1-0.5,1.8-0.8,1.7-2c0-0.8,0.3-1.8-0.7-2.4c-1.3-0.7-1.6,0.9-2.4,1.2c-0.9-2.5-2.5-1.6-4.1-0.8C83,7.4,80.8,7.2,78.7,7
		c-2.2,0-4.5,0-6.7,0c0.1-1.8-2.5-1.2-2.6-2.9c0.3-1.6,0.9-3.5-0.9-4.4c-2.8-1.3-6.5,1-8.8-2.2c-0.2,0.1-0.4,0.2-0.6,0.4
		c-1.4,2.1-3.6,1.1-5.5,1.4c-1.3,0.2-2.9-0.6-4.1,0.9c1.6,1,3.1,0.5,4.6,0.6c1.3,0.1,2.6-0.1,2.7,1.8c-4-0.7-7.9-0.4-11.9-0.1
		c-1.2-0.1-2.4-0.5-3.3,0.7c-4.4,1.6-8.7,3.2-13.1,4.8c-0.6-0.8-1.4-0.9-2.3-1c-6.9-0.7-7.5,0-5,6.2c-0.2,0.4-0.3,0.9-0.5,1.3
		c-1.6,0.9-3.3,1.8-4.5,3.2C11.2,23.5,7.3,29.9,5,37.3C1.9,48.1,2.8,58.7,6.6,69.2c2.6,7.2,7.6,12.8,13,18c0,1.6-0.1,3.3-0.1,4.9"/>
	<path class="st0" d="M86.4,96.5c0.1,0.9-0.3,2.2,1.4,2.1c0.3,0,0.7-0.4,0.7-0.7C88.5,96.3,87.3,96.7,86.4,96.5c0-1.5-0.2-2.8-2-3.2
		C84.3,95.9,84.3,95.9,86.4,96.5z"/>
	<path class="st0" d="M-7.7,41.3c1-2.4-1.4-1.5-2.4-1.8"/>
	<path class="st0" d="M57.3,106c-2-4.1-3.8,0-5.8,0.2"/>
	<path class="st0" d="M60.4,108.4c1.9-3.1,4.9-1.6,7.5-2c2-0.3,5.3,1.2,5.6-1.3c0.2-1.8-3.7-1.7-5.4-1.5c-3.2,0.3-7.4-2.7-9.5,2.3"
		/>
	<path class="st0" d="M51.4,106.2c-1.1-1.1,1.4-1.9-0.2-2.7c-0.6-0.3-1.5-0.3-1.7,0.4c-1.1,2.8-3.5,2.5-5.7,2.5"/>
	<path class="st0" d="M106.1,43.8c0.1,1.1-0.2,2.5,1.5,2.5c1.4,0,1.5-1.1,1.5-2.1c0-1.1,0.1-2.6-1.3-2.7
		C106.2,41.3,106.2,42.7,106.1,43.8z"/>
	<path class="st0" d="M55.6,101.1c-0.2-0.6-0.6-0.7-1.1-0.6c-0.6,0.1-1.1,0.5-1.3,1.1c-0.1,0.6,0.4,0.9,0.9,0.7
		C54.7,102.1,55.5,102,55.6,101.1z"/>
	<path class="st0" d="M85.5,90.8c-0.1-0.6-0.4-1-0.9-1c-0.5,0-1,0.3-0.9,0.9c0.1,0.4,0.6,0.9,1,1C85.1,91.8,85.4,91.3,85.5,90.8z"/>
	<path class="st1" d="M19.6,87.2c-5.4-5.3-10.4-10.8-13-18C2.8,58.7,1.9,48.1,5,37.3c0.9,0.6,0.7,1.5,0.8,2.4c0.5,2.9,0.1,6,0.5,8.8
		c0.6,3.3,2.3,6.3,3.4,9.5c2.1,6.2,3.4,7,10.1,6.6c2-0.1,3.2,1.1,3.8,2.6c0.5,1.3-0.3,2.5-1.9,2.6c-2.1,0.2-3.9,0.8-3.5,3.3
		c0.6,3.6,3.5,5.7,6.3,5c2.7-0.7,3.7-3,2.2-5.3c-0.7-1.1-1.5-2.3,0.1-2.7c2.1-0.4,3-2.1,4.4-3.3c0.6-0.5,1.2-1,2-0.4
		c0.7,0.6,0.6,1.3,0.1,2c-0.5,0.7-0.9,1.7-1.5,2.1c-2.6,1.4-2.8,2.8-0.7,4.9c0.9,0.9,0.9,2.1-0.7,2.7c-1.2,0.5-1.1,1.7-0.8,2.6
		c0.5,1.7,1.7,0.4,2.5,0.4c1.4,0.1,2.4-0.8,3.2-1.7c1-1.1,2.2-1.4,3.7-1.2c3.7,0.5,6.6-2.9,5.9-6.6c-0.2-0.9-0.5-2-0.1-2.6
		c1.3-2.1,3.1-4-1.2-4.4c-0.2,0-0.5-0.9-0.4-1.3c0.1-1.8-1.3-2.6-2.1-3.9c-0.5-0.9-1.2-1.3-2.2-0.8c-1,0.5-0.9,1.3-0.5,2.3
		c0.5,1,0.8,2.1,1.2,3.2c0.4,0.9,0.5,1.8-0.6,2.2c-1.1,0.4-0.9-0.9-1.4-1.3c-2.7-2.3-3-6.2-5.8-8.6c-3.2-2.7-4-6.6-3.8-10.6
		c0.2-3.6,2.2-5.4,5.8-5.7c2.2-0.2,4.2,0.7,6.2,1.4c2.8,0.8,4.3-1.1,5.6-2.9c1.5-2-0.5-3.1-1.7-3.9c-2-1.4-1.2-2.5,0.2-3.4
		c2.6-1.8,5.4-3.2,7.9-5c2-1.5,2.6-3.2-0.3-4.6c-2-0.9-3.3-2.7-5.1-3.8c-2.5-1.6-5.7-3.2-8.6-2.3c-4.6,1.5-10.2,2.1-11.5,8.5
		c-0.1,0.6-1.4,1-2.2,1.3c-1,0.4-1.6-0.1-1.9-1.2c-0.5-2.5,1.9-6.7,4.3-8c2.1-1.1,4.7-1.2,6.5-2.8c0.7-0.6,1.5-1.1,1-2.2
		c-0.5-1.1-1.5-0.8-2.3-0.7c-2.2,0.4-4.8,0.9-6.2,2.6c-1.8,2.2-3.4,1.4-5.3,1c0.2-0.4,0.3-0.9,0.5-1.3c2.5-1.7,4.9-3.4,7.4-5.1
		c4.4-1.6,8.7-3.2,13.1-4.8c1.2,0.4,2.4,0.6,3.3-0.7c4-0.3,7.9-0.6,11.9,0.1c0.2,0.9,0.8,1.2,1.6,1.3c1,1.7,2,3.4,2.9,5.1
		c3,5.7,6.1,11.3,6.5,18c-2.9-1.1-6.3-2.9-9-1.3c-3,1.8-3.5,5.8-3.4,9.2c0.1,2.9,2.3,4.6,5,5.5c1.1,0.4,2.2,0.7,3.3,0.7
		c2.1,0.2,2.8,0.9,1.4,2.8c-2.5,3.5-0.1,6.6,1,9.7c0.8,2.4,3.3,0.7,5,1.2c0,0.5-0.1,1-0.1,1.5c-2.8,0-2.1,2.1-2,3.6
		c0.3,5.7-1.5,10.7-4.2,15.9c-1.8-3.1,0.6-5,1.4-7.2c0.3-0.8,1.1-1.8-0.3-2.1c-0.8-0.2-2.4,0-2.3,1.2c0.2,2.2-1.6,4-1.2,5.8
		c0.6,2.8-2.9,6.1,0.9,8.6c0.2,0.1,0.3,3.8-1.6,3.5c-3.8-0.6-2.8,2.2-3,3.7c-0.3,2.6,0.2,5.2-2.8,6.7c-1.1,0.6,0.2,1.5,0.1,2.4
		c-6.4,1.2-12.7-0.3-19-1.3C30.9,94.4,25,91.3,19.6,87.2z M43.8,12.9c5.4,0.1,10.2,4.4,15.9,2.4c0.7-0.3,2,0.2,2-1
		c0-1-0.7-1.9-1.9-2c-2.2-0.2-4.4-0.8-6.7-0.8c-3,0-6-0.3-8.6-2.1c-0.3,0-0.5,0-0.8,0c-2,0-4.3,1.3-4.2,2.7
		C39.8,14,42.3,12.7,43.8,12.9z M54.2,47.9c2,0,3.4-0.5,3.2-2.3c-0.3-2.9-2.8-3.7-5-4.4c-1.3-0.5-2.6,0.5-2.4,2.1
		C50.3,45.9,52.2,47.3,54.2,47.9z M43.9,49.6c-0.8,0.4-2.2,0.4-2,1.7c0.1,1,1.2,1.2,2.1,1.1c0.9-0.1,1.8-0.4,1.8-1.5
		C45.7,49.8,44.9,49.5,43.9,49.6z M49.4,56.3c0.9,0,1.9,0,1.9-1.2c0-1-0.6-1.6-1.6-1.7c-1-0.1-1.7,0.4-1.8,1.4
		C47.6,56,48.4,56.2,49.4,56.3z"/>
	<path class="st2" d="M20.6,14.4c1.9,0.4,3.6,1.2,5.3-1c1.4-1.7,3.9-2.2,6.2-2.6c0.8-0.2,1.9-0.4,2.3,0.7c0.4,1-0.3,1.6-1,2.2
		c-1.9,1.6-4.4,1.7-6.5,2.8c-2.4,1.2-4.8,5.4-4.3,8c0.2,1.1,0.8,1.6,1.9,1.2c0.8-0.3,2.1-0.8,2.2-1.3c1.2-6.4,6.8-7,11.5-8.5
		c2.9-0.9,6.1,0.6,8.6,2.3c1.8,1.1,3.1,2.9,5.1,3.8c2.8,1.4,2.3,3.1,0.3,4.6c-2.5,1.8-5.3,3.3-7.9,5c-1.4,0.9-2.2,2-0.2,3.4
		c1.2,0.8,3.1,2,1.7,3.9c-1.3,1.8-2.9,3.7-5.6,2.9c-2-0.6-4-1.5-6.2-1.4c-3.6,0.3-5.6,2.1-5.8,5.7c-0.2,4,0.7,7.9,3.8,10.6
		c2.8,2.4,3.1,6.3,5.8,8.6c0.5,0.4,0.3,1.7,1.4,1.3c1.1-0.4,1-1.3,0.6-2.2c-0.4-1-0.8-2.1-1.2-3.2c-0.4-0.9-0.5-1.7,0.5-2.3
		c1-0.6,1.6-0.1,2.2,0.8c0.8,1.2,2.3,2.1,2.1,3.9c0,0.5,0.2,1.3,0.4,1.3c4.3,0.5,2.5,2.4,1.2,4.4c-0.4,0.6-0.1,1.7,0.1,2.6
		c0.7,3.8-2.1,7.2-5.9,6.6c-1.6-0.2-2.7,0-3.7,1.2c-0.9,1-1.8,1.8-3.2,1.7c-0.9,0-2,1.3-2.5-0.4c-0.3-0.9-0.4-2.1,0.8-2.6
		c1.5-0.6,1.6-1.8,0.7-2.7c-2.1-2.1-1.9-3.5,0.7-4.9c0.7-0.4,1-1.4,1.5-2.1c0.5-0.7,0.6-1.4-0.1-2c-0.8-0.6-1.4-0.2-2,0.4
		c-1.4,1.2-2.3,2.8-4.4,3.3c-1.6,0.3-0.8,1.6-0.1,2.7c1.6,2.3,0.5,4.6-2.2,5.3c-2.8,0.7-5.7-1.4-6.3-5c-0.4-2.5,1.4-3.1,3.5-3.3
		c1.5-0.1,2.4-1.3,1.9-2.6c-0.6-1.5-1.8-2.7-3.8-2.6c-6.7,0.4-7.9-0.5-10.1-6.6c-1.1-3.2-2.9-6.3-3.4-9.5c-0.5-2.9,0-5.9-0.5-8.8
		c-0.1-0.9,0.1-1.8-0.8-2.4c2.2-7.4,6.2-13.8,11.1-19.7C17.3,16.1,19,15.3,20.6,14.4z"/>
	<path class="st3" d="M84.8,86.7c0,0-0.4,0-0.4,0c-1.7-0.1-3,0.3-3.4,2.3c-1.9,0.1-3.4,1.1-4.7,2.2c-3.7,3-8.3,3.9-12.5,5.7
		C62,97.6,60,98,58.2,96.5c2.3-2.2,3.2-5.2,5.1-7.6c2.1,1.2,3.6,0.4,4.8-1.4c0.2,0,0.5,0,0.7,0c0,1.5-0.2,3.3,1.3,4.1
		c0.9,0.5,2.7,0,2.9-0.9c1.2-3.8,7.5-4.5,5.9-9.9c-0.1-0.2,0.7-0.6,0.9-1.1c2.7-5.1,7.1-6.8,12.6-5.8c-0.2,3.1-4.1,4.2-3.9,7.5
		C85.9,82.1,84.6,83.9,84.8,86.7z"/>
	<path class="st4" d="M63.3,88.9c-1.9,2.4-2.8,5.5-5.1,7.6c-0.3,0.3-0.5,0.5-0.8,0.8c-0.3,0.2-0.5,0.4-0.3,0.7c0,0.3,0,0.5,0.2,0.7
		c-0.5-0.1-0.9-0.2-1.4-0.3c0.1-0.8-1.3-1.8-0.1-2.4c2.9-1.5,2.5-4.2,2.8-6.7c0.2-1.5-0.8-4.3,3-3.7c1.8,0.3,1.7-3.3,1.6-3.5
		c-3.8-2.5-0.3-5.8-0.9-8.6c-0.4-1.9,1.4-3.7,1.2-5.8c-0.1-1.2,1.5-1.4,2.3-1.2c1.4,0.3,0.6,1.2,0.3,2.1c-0.8,2.2-3.2,4.1-1.4,7.2
		c2.7-5.2,4.6-10.2,4.2-15.9c-0.1-1.4-0.8-3.6,2-3.6c0,5.9-1.7,11.5-2.4,17.2c-0.6,4.9-3.9,8.9-4.2,13.9
		C64,87.9,63.6,88.4,63.3,88.9z"/>
	<path class="st5" d="M19.5,92.2c0-1.6,0-3.3,0.1-4.9c5.4,4.1,11.3,7.2,17.4,9.9c-3.5,4.7-3.5,4.7-8.3,2"/>
	<path class="st6" d="M89.5,19.8c1.2-0.1,1.3-0.9,1.5-1.8c0.2-1.1,1.4-1.5,2-0.9c2.1,2,5.1,3,6.6,5.6c0.7,1.1,0.9,2.9-0.1,3.5
		c-4.4,2.5-1.6,5.7-1.1,8.8c0.2,1.5,2.3,2.2,1.5,4c-2-1.6-2.3-0.4-2.2,1.4c-0.2,0-0.5,0-0.7,0c-0.4-1.3,0.9-3.3-1.5-3.8l-0.1-0.1
		c-0.5-3.3-0.1-7.1-3.8-9.1c0-0.3,0-0.6,0.1-0.9c1-0.8,1-1.5-0.1-2.2l0,0c0-1-0.5-1.6-1.6-1.7l0-0.3C90.3,21.4,89.8,20.6,89.5,19.8z
		"/>
	<path class="st7" d="M43.8,106.4c2.3,0,4.6,0.2,5.7-2.5c0.2-0.6,1.2-0.6,1.7-0.4c1.6,0.8-0.9,1.6,0.2,2.7"/>
	<path class="st7" d="M58.6,105.9c2.1-5,6.3-2,9.5-2.3c1.7-0.2,5.6-0.2,5.4,1.5c-0.3,2.4-3.6,0.9-5.6,1.3c-2.6,0.4-5.6-1.1-7.5,2"/>
	<path class="st7" d="M51.4,106.2c2-0.3,3.8-4.3,5.8-0.2"/>
	<path class="st8" d="M58.3,3.8c-0.8-0.1-1.5-0.4-1.6-1.3c-0.1-1.8-1.4-1.7-2.7-1.8c-1.5-0.1-3,0.4-4.6-0.6c1.2-1.5,2.8-0.7,4.1-0.9
		C55.4-1,57.6,0.1,59-2.1c0.1-0.2,0.4-0.3,0.6-0.4c2.3,3.2,6.1,0.9,8.8,2.2c1.8,0.9,1.1,2.8,0.9,4.4c-1.2-0.1-2.5-0.5-3.6,0.6
		C63.1,5.6,60.9,2.8,58.3,3.8z"/>
	<path class="st9" d="M57.4,98.7c-0.1-0.2-0.2-0.5-0.2-0.7c0.1-0.2,0.2-0.5,0.2-0.7c0.3-0.3,0.5-0.5,0.8-0.8
		c1.8,1.5,3.8,1.1,5.6,0.3c4.2-1.8,8.8-2.6,12.5-5.7c1.3-1.1,2.9-2.1,4.7-2.2l0,0c0.2,0.3,0.5,0.6,0.7,0.8c-0.6,2.1-1.2,4.1-3.8,4.4
		c-1.5-0.1-3.5-1.6-3.8,1.5C68.9,98.5,63.3,99.6,57.4,98.7z"/>
	<path class="st10" d="M89.3,8.4c0.9-0.3,1.1-1.9,2.4-1.2c1,0.5,0.6,1.5,0.7,2.4c0.1,1.2-0.7,1.5-1.7,2c-2.4,1-5.4-0.1-7.4,2.1
		c-0.3,0-0.5,0-0.8,0c0,0,0,0,0,0c-0.3-0.3-0.5-0.5-0.8-0.8l0,0c-0.3-0.7-0.8-0.9-1.5-0.8l0,0c0.3-1.4-0.3-2.4-1.4-3.1
		c-0.1-0.7-0.1-1.5-0.2-2.2c2.2,0.2,4.4,0.5,6.6,0.7C86.3,9.6,87.6,9.8,89.3,8.4z"/>
	<path class="st5" d="M28.4,7.9c-2.5,1.7-4.9,3.4-7.4,5.1c-2.4-6.2-1.9-6.9,5-6.2C27,7,27.8,7.2,28.4,7.9z"/>
	<path class="st11" d="M88.6,81.3c-0.2-3.3,3.7-4.4,3.9-7.5c0.8-0.5,0.5-1.5,0.7-2.2c2.3-0.7,1.8-3.2,3-4.7l0.4-0.1l0.4,0L97,67
		c-0.1,6.5-4.4,10.8-8.2,15.3C88.8,82,88.7,81.6,88.6,81.3z"/>
	<path class="st9" d="M97.7,40.3c-0.1-1.8,0.1-3,2.2-1.4c0,0,0.1,0,0.1,0c-0.2,2.8,1.8,4.9,2.4,7.5c-1.9,0-2.1,1.2-2.1,2.7
		c0,2.6-0.1,5.2-0.2,7.9c-0.5,0-0.9-0.1-1.4-0.1c0.2-4.6,1.4-9.2-0.7-13.7C97.8,42.3,97.8,41.3,97.7,40.3z"/>
	<path class="st6" d="M102.3,46.4c-0.6-2.6-2.6-4.7-2.4-7.5c1.9-1.1,2.6,3.2,4.8,1.1c1.2,1.7-0.5,3.2-0.2,4.9
		C104.7,46.1,104.1,47.5,102.3,46.4z"/>
	<path class="st11" d="M82.5,13.7c0.3,0,0.5,0,0.8,0c1,0.2,2.1,0.4,3.1,0.6c0.9,1,1.5,2.2,2.9,2.5c0,1,0.1,2,0.1,2.9
		c0.4,0.8,0.9,1.7,0.6,2.6C87.4,19.6,84.3,17.3,82.5,13.7z"/>
	<path class="st9" d="M100,63.1c0.3,2.3,0,4.1-3,3.9c0,0-0.1-0.1-0.1-0.1c-0.6-3,0.1-5.7,1.5-8.4c0.5,0,1,0,1.5,0c0,0.5,0,1,0,1.5
		C99.1,61.1,99.1,62.1,100,63.1z"/>
	<path class="st6" d="M-10.1,39.5c1.1,0.3,3.4-0.7,2.4,1.8"/>
	<path class="st9" d="M78.7,7c0.1,0.7,0.1,1.5,0.2,2.2c-0.6,0.4-1.3,0.7-1.9,1.1c-1.5-1.3-4.2-1-5-3.4l0,0C74.2,6.9,76.4,6.9,78.7,7
		z"/>
	<path class="st6" d="M106.1,43.8c0.1-1.1,0.1-2.5,1.7-2.3c1.4,0.2,1.3,1.6,1.3,2.7c0,1-0.1,2.1-1.5,2.1
		C105.9,46.3,106.2,44.9,106.1,43.8z"/>
	<path class="st9" d="M88.6,81.3c0.1,0.4,0.2,0.7,0.3,1.1c0.6,3.3-1,4.4-4.1,4.3C84.6,83.9,85.9,82.1,88.6,81.3z"/>
	<path class="st7" d="M74.2,95.7c0.3-3,2.3-1.6,3.8-1.5c0.7,0.5,1.3,1,2.4,1.8C78,96.6,76,97.2,74.2,95.7z"/>
	<path class="st9" d="M65.7,4.7c1-1.1,2.3-0.8,3.6-0.6c0.1,1.6,2.7,1.1,2.6,2.9c0,0,0,0,0,0c-0.8,0-1.5,0-2.3,0
		C68.9,5.2,66,7.2,65.7,4.7z"/>
	<path class="st9" d="M89.3,8.4c-1.7,1.4-3,1.2-4.1-0.8C86.8,6.8,88.4,5.9,89.3,8.4z"/>
	<path class="st7" d="M86.4,96.5c-2.1-0.7-2.1-0.7-2-3.2C86.2,93.7,86.4,95.1,86.4,96.5L86.4,96.5z"/>
	<path class="st10" d="M89.4,16.8c-1.4-0.3-2.1-1.6-2.9-2.5C89.5,12.8,89.4,14.8,89.4,16.8z"/>
	<path class="st7" d="M55.6,101.1c-0.1,0.9-0.9,1-1.5,1.3c-0.5,0.2-1-0.1-0.9-0.7c0.1-0.6,0.6-1,1.3-1.1
		C55,100.4,55.4,100.4,55.6,101.1z"/>
	<path class="st7" d="M86.3,96.5c0.9,0.1,2.2-0.3,2.1,1.4c0,0.3-0.4,0.7-0.7,0.7C86.1,98.7,86.5,97.4,86.3,96.5
		C86.4,96.5,86.3,96.5,86.3,96.5z"/>
	<path class="st7" d="M85.5,90.8c0,0.5-0.3,1-0.9,0.8c-0.4-0.1-0.9-0.6-1-1c-0.1-0.5,0.3-0.9,0.9-0.9C85.1,89.9,85.4,90.2,85.5,90.8
		z"/>
	<path class="st8" d="M100,63.1c-0.9-1-0.9-2,0-3C101,61.1,101,62.1,100,63.1z"/>
	<path class="st11" d="M81,88.9c0.4-1.9,1.7-2.4,3.4-2.3c-0.4,1.3-1.6,1.8-2.6,2.6C81.6,89.1,81.3,89,81,88.9L81,88.9z"/>
	<path class="st8" d="M44.8,2.5c-0.9,1.3-2.1,1.1-3.3,0.7C42.4,2,43.6,2.4,44.8,2.5z"/>
	<path class="st8" d="M100,58.6c-0.5,0-1,0-1.5,0c0.1-0.5,0.1-1.1,0.2-1.6c0.5,0,0.9,0.1,1.4,0.1C100,57.5,100,58.1,100,58.6z"/>
	<path class="st7" d="M81,88.9c0.3,0.1,0.6,0.2,0.8,0.3c0,0.2-0.1,0.4-0.1,0.5C81.5,89.5,81.3,89.2,81,88.9z"/>
	<path class="st7" d="M65.7,4.7c0.3,2.6,3.2,0.5,3.9,2.2c0,0,0,0.1,0,0.1c-1.5,0.2-3.5-1.1-4.3,1.1c-0.8,2,0.8,2.9,2.5,3.5
		c1.1,0.3,1.1,0.9,0.1,1.4c-0.9,0.4-1.3,1.1-0.3,1.5c3.1,1,2.1,2.9,1.5,5c-0.6,1.8,0.1,3.7,1.4,5.7c1-2.4,2.3-4.2,4.5-1.5
		c0.4,4-1.6,8-0.5,12.2c1-1.2-0.1-3,1.3-3.9c2.2-0.1,3.1,1,3.1,3.2c-0.1,2.2,0,4.5,0,6.7c-1.3,1.2-3.4,2.1-0.6,4.2
		c1.1,0.8-0.8,1.2-1,2c-4,2.2-2,5.4-1.4,8.3c0,1.8,0,3.6,0,5.3c0,0.5,0,1,0,1.5c-2.2,0.9-0.9,2.5-0.8,3.8c-0.2,0-0.5,0-0.7,0
		c-1.7,0.3-2,1.1-0.8,2.3C71,75,67.6,80.7,68.9,87.4c-0.2,0-0.5,0-0.7,0c-1.3,0-2.6,0-3.9,0c0.3-5,3.6-9,4.2-13.9
		c0.7-5.8,2.4-11.4,2.4-17.2c0-0.5,0.1-1,0.1-1.5c0.8-9.5,0.2-18.9-3.3-27.9c-0.3-6.6-3.5-12.3-6.5-18c-0.9-1.7-1.9-3.4-2.9-5.1
		C60.9,2.8,63.1,5.6,65.7,4.7z"/>
	<path class="st12" d="M67.7,26.9c3.6,9,4.1,18.4,3.3,27.9c-1.7-0.5-4.2,1.2-5-1.2c-1.1-3.1-3.5-6.2-1-9.7c1.4-1.9,0.7-2.6-1.4-2.8
		c-1.1-0.1-2.2-0.4-3.3-0.7c-2.6-0.9-4.9-2.6-5-5.5c-0.1-3.4,0.3-7.4,3.4-9.2C61.4,24,64.7,25.8,67.7,26.9z"/>
	<path class="st2" d="M44.6,9.3c2.6,1.8,5.6,2.1,8.6,2.1c2.3,0,4.5,0.6,6.7,0.8c1.2,0.1,1.9,1,1.9,2c0,1.3-1.3,0.8-2,1
		C54,17.4,49.2,13,43.8,12.9C44.1,11.7,44.3,10.5,44.6,9.3z"/>
	<path class="st2" d="M54.2,47.9c-2-0.7-3.9-2-4.2-4.7c-0.2-1.5,1.1-2.5,2.4-2.1c2.2,0.8,4.7,1.6,5,4.4
		C57.6,47.4,56.2,47.9,54.2,47.9z"/>
	<path class="st12" d="M44.6,9.3c-0.3,1.2-0.5,2.4-0.8,3.7c-1.5-0.2-4,1-4.2-1c-0.1-1.5,2.1-2.7,4.2-2.7C44.1,9.2,44.3,9.3,44.6,9.3
		z"/>
	<path class="st2" d="M43.9,49.6c1,0,1.9,0.3,1.9,1.4c0,1.1-0.9,1.4-1.8,1.5c-0.9,0.1-2-0.2-2.1-1.1C41.7,50,43.1,49.9,43.9,49.6z"
		/>
	<path class="st2" d="M49.4,56.3c-0.9-0.1-1.8-0.3-1.6-1.5c0.2-1,0.9-1.5,1.8-1.4c1,0.1,1.6,0.7,1.6,1.7
		C51.2,56.3,50.2,56.2,49.4,56.3z"/>
	<path class="st13" d="M68.9,87.4C67.6,80.7,71,75,73.4,69.2c0.9-0.6,0.7-1.5,0.8-2.3c0.2,0,0.5,0,0.7,0c0.1,2-0.3,4.2,1.9,5.6
		c1-1.8-0.1-3.5,0.1-5.3c1.6,0.9,3,1.5,2.4-1.1c-0.4-1.8-1.4-3.3-3.6-3c0-0.5,0-1,0-1.5c1.2-1.8,1.2-3.6,0-5.3
		c-0.6-3-2.6-6.2,1.4-8.3c0,1.1-0.4,2.8,0.2,3.3c3.3,2.7,3.9,6.8,5.8,10.3c1.1,2,2.2,3.2,0.7,5.2c-0.9,1.2-0.2,2.2,0.7,2.9
		c0.9,0.6,1.8,0,2.3-0.7c1.5-2.2,3.8-4.1,3.3-7.3c-0.2-1-0.2-2.1,0.9-3c2.7-2.4,1.8-6.8-2.1-10.5c-2.7-2.6-3.6,0.4-4.8,1.9
		c-1.1,1.3-2.6,1.3-3.8,0.7c-1.4-0.8,0.5-1.7,0.4-2.5c-0.4-2.2,2.4-5.5-2-6.4c0-2.2-0.1-4.5,0-6.7c0.1-2.2-0.8-3.3-3.1-3.2
		c0-1.8,0.6-3.3,1.2-4.9c1.8,0.4,0.4,2.2,1.8,2.7c1.2-4.3,4.4-4.5,8.3-3.2c-0.4-0.8-0.5-1.2-0.7-1.4c-1-0.7-1.8-1.5-1.1-2.8
		c0.2-0.4,0.8-0.8,1.2-0.7c1.3,0.1,1.3,1.3,1.7,2.2c0.8,1.6,1.7,3.1,3.6,3.6c3.7,2,3.3,5.7,3.8,9.1c-1.4,1.3-1.7,8.1-0.3,9.4
		c0.7,0.7,1.4,0.5,1.7-0.4c0.3-0.8,0.2-1.8,1.1-2.2c2.1,4.5,0.9,9.1,0.7,13.7c-0.1,0.5-0.1,1.1-0.2,1.6c-1.5,2.6-2.2,5.4-1.5,8.4
		c0,0-0.4,0-0.4,0s-0.4,0.1-0.4,0.1c-4.1-0.4-4.1,1.8-3,4.7c-0.2,0.7,0.1,1.7-0.7,2.2c-5.5-0.9-9.9,0.7-12.6,5.8
		c-0.2,0.4-1,0.8-0.9,1.1c1.6,5.4-4.7,6.1-5.9,9.9c-0.3,0.9-2,1.5-2.9,0.9C68.7,90.7,68.9,88.9,68.9,87.4z M89.7,46.1
		c0.9-1.8-0.5-4.1,1.2-4.5c2.3-0.6,1.3-2,1.5-3.1c0.3-1.9-3.1-3.2-0.9-5.5c0,0-0.3-0.3-0.4-0.5c-1.9,1.6-3.6-1.2-5.5-0.3
		c-0.9,0.4-2.6,1-2,1.7c1.7,2.2-0.4,4.8,1.6,7.3C86.6,43,89.5,43,89.7,46.1z M91.9,43.9c-0.2,1-0.4,1.7,0.4,2.2
		c0.1,0.1,0.6-0.1,0.6-0.2C93,45.1,92.7,44.5,91.9,43.9z"/>
	<path class="st13" d="M64.3,87.4c1.3,0,2.6,0,3.9,0c-1.2,1.8-2.7,2.6-4.8,1.4C63.6,88.4,64,87.9,64.3,87.4z"/>
	<path class="st1" d="M57.4,97.3c-0.1,0.2-0.2,0.5-0.2,0.7C56.9,97.7,57.1,97.4,57.4,97.3z"/>
	<path class="st3" d="M91.7,27.4c-1.9-0.5-2.9-1.9-3.6-3.6c-0.4-0.9-0.4-2.1-1.7-2.2c-0.4,0-1,0.4-1.2,0.7c-0.7,1.3,0.1,2.1,1.1,2.8
		c0.2,0.2,0.3,0.6,0.7,1.4c-3.9-1.3-7.1-1.1-8.3,3.2c-1.4-0.6,0-2.4-1.8-2.7c-0.6,1.6-1.2,3.2-1.2,4.9c-1.4,0.9-0.2,2.6-1.3,3.9
		c-1.1-4.2,0.9-8.2,0.5-12.2c1.5-0.1,2.8-2.8,4.3-1c2.3,2.7,3,0,4.3-0.8c0.6-0.4,0.7-1.4,0.2-2c-0.7-0.7-1,0.2-1.4,0.6
		c-0.4,0.5-1,1-1.5,0.4c-0.3-0.4-0.3-1.2-0.3-1.8c0-0.9,1.6-1.4,1-2.4C75,16.1,72.9,10.9,69.6,7c0,0,0-0.1,0-0.1c0.8,0,1.5,0,2.3,0
		c0.8,2.4,3.5,2.1,5,3.4c0.8,1.1,2,1.7,3.3,2l0,0c0.3,0.7,0.8,0.9,1.5,0.8c0,0,0,0,0,0c0,0.5,0.3,0.8,0.8,0.8c0,0,0,0,0,0
		c1.7,3.6,4.9,5.9,7.6,8.7c0,0,0,0.3,0,0.3c0.1,1,0.4,1.7,1.6,1.7c0,0,0,0,0,0c0,0.7,0.1,1.4,0.1,2.2C91.7,26.8,91.7,27.1,91.7,27.4
		z"/>
	<path class="st10" d="M97.9,43.3c-0.9,0.5-0.8,1.4-1.1,2.2c-0.3,0.9-1,1-1.7,0.4c-1.3-1.3-1.1-8,0.3-9.4c0,0,0.1,0.1,0.1,0.1
		c0.3,1.3-0.9,3.3,1.5,3.8c0.2,0,0.5,0,0.7,0C97.8,41.3,97.8,42.3,97.9,43.3z"/>
	<path class="st13" d="M97,40.3c-2.5-0.5-1.2-2.4-1.5-3.8C97.9,37,96.6,39,97,40.3z"/>
	<path class="st11" d="M91.7,24.4c-1.1,0-1.5-0.7-1.6-1.7C91.1,22.8,91.7,23.4,91.7,24.4z"/>
	<path class="st11" d="M91.7,26.5c0-0.7-0.1-1.4-0.1-2.2C92.7,25,92.7,25.8,91.7,26.5z"/>
	<path class="st11" d="M80.3,12.2c-1.4-0.2-2.5-0.8-3.3-2c0.6-0.4,1.3-0.7,1.9-1.1C80,9.9,80.6,10.8,80.3,12.2z"/>
	<path class="st11" d="M81.8,13c-0.7,0.1-1.3,0-1.5-0.8C81,12.1,81.5,12.3,81.8,13z"/>
	<path class="st11" d="M82.6,13.8c-0.5,0-0.8-0.3-0.8-0.8C82,13.2,82.3,13.5,82.6,13.8z"/>
	<path class="st7" d="M93.2,71.6c-1.1-2.9-1.1-5.1,3-4.7C95,68.3,95.5,70.8,93.2,71.6z"/>
	<path class="st14" d="M78.8,41.8c4.4,0.9,1.6,4.2,2,6.4c0.1,0.8-1.8,1.7-0.4,2.5c1.1,0.6,2.6,0.7,3.8-0.7c1.2-1.5,2.1-4.5,4.8-1.9
		c3.9,3.7,4.8,8.1,2.1,10.5c-1.1,1-1.1,2-0.9,3c0.6,3.2-1.7,5.1-3.3,7.3c-0.5,0.7-1.4,1.3-2.3,0.7c-0.9-0.7-1.6-1.7-0.7-2.9
		c1.5-2,0.4-3.2-0.7-5.2c-1.9-3.4-2.5-7.5-5.8-10.3c-0.6-0.5-0.2-2.2-0.2-3.3c0.2-0.8,2.1-1.2,1-2C75.3,43.9,77.5,43,78.8,41.8z"/>
	<path class="st13" d="M69.6,7c3.3,3.9,5.5,9.1,11.8,9.6c0.6,1-1,1.5-1,2.4c0,0.6-0.1,1.4,0.3,1.8c0.5,0.6,1.1,0,1.5-0.4
		c0.4-0.4,0.8-1.2,1.4-0.6c0.6,0.6,0.5,1.6-0.2,2c-1.2,0.9-2,3.5-4.3,0.8c-1.5-1.7-2.8,0.9-4.3,1c-2.3-2.7-3.5-0.8-4.5,1.5
		c-1.4-2-2-3.9-1.4-5.7c0.7-2.2,1.6-4-1.5-5c-1.1-0.4-0.6-1.1,0.3-1.5c1-0.5,1-1.1-0.1-1.4c-1.7-0.6-3.3-1.4-2.5-3.5
		C66.1,5.9,68.1,7.2,69.6,7z"/>
	<path class="st14" d="M75.7,63.1c2.2-0.2,3.2,1.2,3.6,3c0.6,2.5-0.8,2-2.4,1.1c-0.2,1.8,0.9,3.5-0.1,5.3c-2.2-1.4-1.8-3.6-1.9-5.6
		C74.9,65.6,73.5,64,75.7,63.1z"/>
	<path class="st14" d="M75.7,56.2c1.2,1.8,1.2,3.6,0,5.3C75.7,59.8,75.7,58,75.7,56.2z"/>
	<path class="st14" d="M74.2,66.9c-0.1,0.8,0.1,1.7-0.8,2.3C72.2,68,72.5,67.2,74.2,66.9z"/>
	<path class="st14" d="M89.7,46.1c-0.2-3.1-3.1-3.1-4.6-5c-2-2.5,0.2-5.1-1.6-7.3c-0.6-0.7,1.2-1.3,2-1.7c1.9-0.9,3.5,1.9,5.5,0.3
		c0.1,0.2,0.4,0.5,0.4,0.5c-2.1,2.3,1.2,3.6,0.9,5.5c-0.2,1.1,0.8,2.6-1.5,3.1C89.2,41.9,90.6,44.3,89.7,46.1z"/>
	<path class="st14" d="M91.9,43.9c0.9,0.6,1.1,1.2,1,1.9c0,0.1-0.4,0.3-0.6,0.2C91.4,45.6,91.7,44.9,91.9,43.9z"/>
</g>
<g>
	<path class="st15" d="M90.8,126.5H15c-2.2,0-4-1.8-4-4v-23c0-2.2,1.8-4,4-4h75.8c2.2,0,4,1.8,4,4v23
		C94.8,124.7,93,126.5,90.8,126.5z"/>
	<g>
		<path class="st16" d="M31.9,113c-0.1-2-0.1-4.4-0.1-6.8h-0.1c-0.5,2.1-1.2,4.4-1.8,6.4l-2,6.4H25l-1.8-6.4
			c-0.5-1.9-1.1-4.3-1.5-6.4l0,0c-0.1,2.2-0.2,4.8-0.3,6.8l-0.3,6.3h-3.4l1.1-16.5h5l1.6,5.5c0.5,1.9,1,4,1.4,5.9h0.1
			c0.5-1.9,1-4.1,1.6-5.9l1.8-5.5h4.9l0.9,16.5h-3.6L31.9,113z"/>
		<path class="st16" d="M53.7,110.9c0,5.4-3.3,8.7-8.1,8.7c-4.9,0-7.7-3.7-7.7-8.4c0-4.9,3.2-8.6,8-8.6
			C51,102.6,53.7,106.3,53.7,110.9z M41.8,111.1c0,3.2,1.5,5.5,4,5.5s4-2.4,4-5.6c0-3-1.4-5.5-4-5.5
			C43.3,105.5,41.8,107.9,41.8,111.1z"/>
		<path class="st16" d="M71.2,110.9c0,5.4-3.3,8.7-8.1,8.7c-4.9,0-7.7-3.7-7.7-8.4c0-4.9,3.2-8.6,8-8.6
			C68.5,102.6,71.2,106.3,71.2,110.9z M59.3,111.1c0,3.2,1.5,5.5,4,5.5c2.5,0,4-2.4,4-5.6c0-3-1.4-5.5-4-5.5
			C60.8,105.5,59.3,107.9,59.3,111.1z"/>
		<path class="st16" d="M73.7,119.3v-16.5H78l3.4,6c1,1.7,2,3.8,2.7,5.6h0.1c-0.2-2.2-0.3-4.4-0.3-6.9v-4.8h3.4v16.5h-3.9l-3.5-6.4
			c-1-1.8-2.1-3.9-2.9-5.8h-0.1c0.1,2.2,0.1,4.5,0.1,7.2v5h-3.3V119.3z"/>
	</g>
</g>
</svg>
