<?xml version="1.0" encoding="utf-8"?>
<!-- Generator: Adobe Illustrator 25.0.0, SVG Export Plug-In . SVG Version: 6.00 Build 0)  -->
<svg version="1.1" id="Layer_1" xmlns="http://www.w3.org/2000/svg" xmlns:xlink="http://www.w3.org/1999/xlink" x="0px" y="0px"
	 width="105.5px" height="129px" viewBox="0 0 105.5 129" style="enable-background:new 0 0 105.5 129;" xml:space="preserve">
<style type="text/css">
	.st0{fill:#FCFCFC;}
	.st1{fill:#2D3C44;}
	.st2{fill:#495C64;}
	.st3{fill:#F2F5F4;}
	.st4{fill:#DDE2E3;}
	.st5{fill:#B7C0C4;}
	.st6{fill:#EEF1F2;}
	.st7{fill:#E5E8EA;}
	.st8{fill:#D0D7D8;}
	.st9{fill:#EBEDEE;}
	.st10{fill:#A5B0B2;}
	.st11{fill:#252D32;}
	.st12{fill:#F8F4EC;}
	.st13{fill:#E9E0DB;}
	.st14{fill:#48A6DD;}
	.st15{fill:#FFFFFF;}
</style>
<g>
	<path class="st0" d="M103.2,43.4c0.1-0.2-0.4-0.7-0.7-0.3c-2.4,2.7-1.7-0.5-2-1.2c-0.9-2.2-1.6-4.4-2.4-6.6c-0.1-0.5-0.1-1-0.2-1.6
		c0-0.4,0-0.8-0.1-1.2c1.1-1.3,1.9-2.8,4.2-2.5c0.1,0,0.2,0,0.3,0c-0.8-1-1.5-2.2-2-3.4c-0.1-0.2-0.3-0.4-0.3-0.8c0,0,0,0,0,0
		c-0.3-0.7-0.5-1.4-0.7-2.1c-0.1,0.1-0.2,0.2-0.3,0.3c-2.2,1.5,1.1,4.1-1.2,5.4c-1.3-0.1-2.2-0.4-2.1-2c0.2-3.7-1.9-6.7-2.5-10
		C91.6,17.2,91.4,20,91,19c-1.4-3.5-4-1.4-6-1.9c0.2-1.7-0.5-2.6-2.3-2.3c0.2-1.3,0.2-2.4-0.6-3.8c-1.7-3-4.4-1-6.4-1.6
		c-0.1,0-0.3,0-0.4,0.1C73.8,7.3,71.6,7,69.3,7c0,0-0.4,0.1-0.4,0.1c0-0.5-0.1-1-0.1-1.5l0,0c0.2-0.3,0.5-0.5,0.7-0.8
		c-0.3-2.3-5.8-5.1-8.2-4.2C57.4,2.3,53.3,2.9,49,2c-2.1-0.5-4.6-0.9-6.8,0.4c0.7,1.3,2.6,0.4,2.7,2c-2.3,0.4-4.7,0-6.8,1.2
		c-0.7-1.1-1.2-0.8-1.6,0.2l-0.8,0.5c-1.3,0.3-3.2-0.9-3.8,1.4c-0.3,0.7-0.9,0.8-1.6,0.6c-1.6-0.7-2.4,0.2-3.1,1.5
		c0,0.3-0.2,0.4-0.5,0.4c-2.1-0.7-4.1-1.1-6.3-0.9c-1,0.1-2.2-0.1-2.3,1.4c-0.1,1.1-0.6,2.4,0.8,3c0.7,0.4,1.3,0.7,1.4,1.6
		c-4.4,4.2-8.6,8.5-11.4,14c-1.7,0.3-4.2-0.9-4.8,1c-0.5,1.7-1,4.4,1.4,5.9c0.1,0.7,0.1,1.4,0.2,2.1c-0.9,0.4-1.2,1.2-1.4,2.1
		c-1.4,6.3-1.2,12.6-1.1,18.9c-0.8,1.3-1.1,2.5,0.8,3.1c0,0.5,0.1,1,0.1,1.5c-2.4,4.8-2.2,5.5,1.4,6.2c1.8,2.5,3.2,5.3,4.1,8.2
		c-0.3,2.1-0.9,4.1,0.8,6.1c0.8-0.9,1-2.3,2.5-2.2c1.4,1.6,2.9,3.2,4.3,4.9c-1.8,3.5,3.3,5.4,2,9c-0.4,1.2,1.4,0.4,2.3,0.1
		c0.1,0,0.5,0.5,0.4,0.8c-0.5,3.7,2.2,2.9,4.3,3c1,0,2.3-0.4,2.9,0.5c0.9,1.2,1.7,2.4,3.3,1.7c1.8-0.7,0.8-2.4,1.1-3.7
		c4.6,1,9.2,1.9,13.8,2.9c0.9,1.4,1.7,1.3,2.4-0.1c3.3-0.1,6.6-0.3,10-0.4c0.6,0.4,1.1,0.8,1.7,1.3c-1.6,1.3-3.4,0.8-5.1,1
		c-2.2,0.2-4.5-0.8-6.6,0.7c-1.5,0.6-3.2-1.4-5.6,0.8h5.6c6.7,0,13.3,0,20,0l0,3c-6.7,0-13.4-0.1-20.1,0.1c-1.4,0-4.1-1.1-4,1.2
		c0.1,2,2.7,0.7,4.2,1.1c-0.2,1.9,0.9,2.3,2.6,2.3c5-0.1,9.9-0.1,14.9,0c1.7,0,2.7-0.5,2.6-2.4c1.5,0,3-0.1,4.5,0.1
		c2.1,0.2,1.9-1,1.7-2.3c0.3,0,0.7,0,1.5,0.5c0,0.6,0,1.2,0.7,1.4c0.2,0,0.4-0.2-0.1-1c0.2,0.2,0.5,0.3,0.7,0.6
		c0.1-0.8-0.1-1.2-0.6-1.3c-0.1,0-0.5-0.4-0.7-0.1c0,0,0,0-0.1-0.1c-0.1-1,0.2-2.8-0.7-2.7c-3,0.5-4.5-2.3-7-2.7c0-1,0-2.1,0-3.1
		c0.5,0,1,0,1.5,0c0.1-1.5,1.1-1.6,2.3-1.5c1.1,0,2.2-0.1,3.3-0.1c3.3,0.7,4.3-0.8,3.7-5.2c2.1,0.4,2.8-1.9,4.4-2.4
		c1.3,0,2.6,0,3.9,0.1c0.5,0,1,0,1.6,0c0.7,0,1.5,0,2.2,0c1,0,2.1,0.1,2.2-1.3c0.2-1.7-1-1.7-2.2-1.7c0.1-1.2-0.3-2.3-0.9-3.3
		c0.1-1,0.7-1.3,1.6-1.4c1.6,0.2,2.8-0.1,3.6-1.9c1.5-3.1,3-6,2.6-9.6c1.5-3,0.4-6.2,0.7-9.2c0-0.5,0-1,0-1.5c1.2-1,0.7-2.3,0.9-3.6
		c0.2-2.2-0.2-5.7,0.8-6.2C106.2,48.4,102.2,45.6,103.2,43.4z"/>
	<path class="st0" d="M32.9,115.4c2.3-0.1,4.2-3.6,3.9-4c-1.2-2.5-4.2-0.2-5.9-1.6"/>
	<path class="st1" d="M17.2,87.2c-1.4-1.6-2.9-3.2-4.3-4.9c-0.6-1.7-1.6-3-3.2-3.9c-0.9-3-2.3-5.7-4.1-8.2C6.1,67.9,5.1,66,4.2,64
		c0-0.5-0.1-1-0.1-1.5c0-1.1,0.5-2.3-0.8-3.1c-0.1-6.3-0.3-12.7,1.1-18.9c0.2-0.9,0.5-1.7,1.4-2.1c0.2,8.6,1.3,17,5.5,24.7
		c1.6,2.9,3.2,6.1,7.6,4.1c0.6-0.3,1.5-0.1,2.3,0c1.8,0,1.7,1.7,2.2,2.8c0.5,1.1-0.2,1.9-1.3,2.4c-3.9,1.9-4.5,3.4-2,6.6
		c1.2,1.5,2.8,3.9,5.3,2c1.8-1.4,4.3-3.1,1.3-5.8c-1-0.9-1-2.8,0.1-2.8c2.5-0.1,3.8-3.4,6.4-2.3c0.8,0.3,0.5,1.7-0.1,2.4
		c-0.5,0.6-1.2,0.9-1.8,1.4c-1.3,1.1-2.3,2.2-0.3,3.6c1.5,1.1,1.3,2.4-0.2,3.4c-1,0.7-1.4,1.7-0.7,2.6c0.7,1,1.9,0.7,2.9,0.4
		c1.4-0.4,2.5-1.2,3.5-2.3c0.7-0.7,1.3-1.4,2.6-0.9c2.1,0.7,7.8-2,7.2-3.4c-1.2-3.1-0.7-5.7-0.4-8.7c0.1-1.3-2.1-3.3-2.6-5.5
		c-0.3-1.1-1.7-3-3.4-2.3c-1.9,0.8-1.9,2.4-0.6,4.1c0.8,1,0.9,2.3-0.1,3.4c-3.7-2.7-3.9-7.8-7.6-10.4c-2.6-1.9-2.9-5.1-3.2-7.9
		c-0.6-6.4,2.3-8.7,8.7-7.5c0.9,0.2,1.7,0.6,2.5,0.9c3,1,5.8-0.4,7.4-2.6c1.5-2.2-1.1-3.3-2.5-4.3c-2-1.4-1.4-2.3,0.3-3.3
		c2.2-1.3,4.4-2.7,6.5-4.1c4.2-2.8,4.2-3.4,0.1-6.1c-1-0.6-1.9-1.3-2.8-2c-3.8-2.9-7.4-6.2-12.3-1.8c-0.5,0.5-1.7,0.4-2.6,0.3
		c-2.2-0.1-4-0.1-4.3,2.9c-0.2,2-2.2,3.1-3.5,4.5c-0.8,0.8-1.6,1.3-2.6,0.3c-0.8-0.7-1.2-1.5-0.9-2.7c1.4-4.8,5-7.3,9.5-8.8
		c1.2-0.4,3.3-0.2,2.7-2.1c-0.5-1.6-2.4-1.2-3.7-0.7c-2.2,1-4.3,2.3-6.4,3.5c-2,1.1-2.5,0.1-2.5-1.7c0.9-2.3,3.9-2.2,5-4.3
		c0.3,0,0.4-0.2,0.5-0.4c1.3,0.1,2.3-0.5,3.1-1.5c0.7,0.2,1.2,0,1.6-0.6C33,7,34.9,8,35.7,6.3c0.3-0.2,0.5-0.3,0.8-0.5
		C37,6.1,37.5,6,38.1,5.7c2.1-1.2,4.6-0.8,6.8-1.2c1.6-0.1,3.3-0.2,4.9-0.3c3.3-0.1,6.7-0.4,9.7,1.5c0.6,1.9,1.4,3.4,3.6,3.9
		c1.5,0.3,2.4,1.4,2.5,3c-1.8,1.7-3.6,0.1-5.4,0.3c-5.2,0.6-10.3,0.6-15.2-1.6c-1.5-0.7-3-0.1-4.3,0.9c-0.8,0.6-2.5,0.5-1.8,2.3
		c0.7,1.6,1.9,0.9,2.9,0.5c3.6-1.6,6.8-0.5,9.6,1.7c1.5,1.2,3,1.7,4.6,1.1c2.5-0.8,5.1-0.8,7.6-0.6c3.1,0.2,3.9-1.1,3.4-3.8
		c1.6-0.2,2.6,0.4,2.4,2.1c-0.2,1.9,1.1,2.9,1.8,4.3c1.3,2.5,4,3.1,5.8,4.5c2,1.5-0.1,3.4,1.8,4.3c4.4,2.1,3.9,7.2,5.8,10.8
		c1.5,2.9,1.2,6.7,1.7,10.1c-2.1,3.1-4.3,6.1-3.8,10.2c0.2,1.5-0.5,3.2,1.2,4.1c2,1,1.6-2.1,3.1-2c0.2,0.3,0.4,0.6,0.6,0.8
		c-0.1,0.5-0.2,0.9-0.3,1.4c0,0.3-0.1,0.5-0.1,0.8c-0.9,2.6-1,5.5-2.6,7.9c-0.4-0.9-0.8-2-1.7-0.5c-1,1.6-2,3.3-2.5,5.1
		c-1.1,4.2-4.7,7.3-7.4,9.2c-3.3,2.3-3.4,4.2-3.4,7.1c0,0.2,0,0.4,0,0.6c-1.1-0.2-1.7,0.5-2,1.5c-0.4,0.3-0.8,0.6-1.1,0.9
		c-0.6,0-1.2-0.1-1.4,0.6c-1.4-0.1-1.8,1.3-2.8,1.8c-2-0.8-1.8,1.4-2.8,2c-3.3,0.1-6.6,0.3-10,0.4c-0.8,0-1.6,0.1-2.4,0.1
		c-4.6-1-9.2-1.9-13.8-2.9C27.9,95,21.8,92.2,17.2,87.2z M79.7,54.4c1.8,0.6,2.1-0.5,2.3-1.9c0.5-3.3,0-6-1.8-9.1
		c-1.7-3-2.3-4.1-5.3-2.1c-0.9,0.6-2,0.7-2.9,0c-1.3-1.1,0.1-1.7,0.5-2.5c0.4-0.7,0.8-1.4,0.8-2.1c-0.2-4.5-8.4-10.8-13-10.3
		c-1.2,0.1-1.7,0.8-2.4,1.7c-4.2,5.8-2.6,11.3,3.9,14.1c1.8,0.8,6.7,0.5,2.6,4.8c-0.2,0.3,0,1.3,0.3,1.7c0.9,1.1,1,2.3,0.9,3.6
		c-0.2,2.8,0.7,4.8,4,4.8c1.1,0,2.2,0.5,1.9,1.8c-0.4,1.6-0.1,2.9,1.6,2.5c1.4-0.3,2.8-2,2.3-3.5C74,53.1,76.8,53.8,79.7,54.4z
		 M58,47.5c0-1.8-3.3-5.1-5.1-4.9c-1.5,0.2-2.5,1.2-2.5,2.8c0,2.6,2.6,4.7,5.4,4.6C57.6,50,58,48.9,58,47.5z M79.6,68.7
		c0.1-1.7-0.3-3.1-2.4-3.1c-2.1,0.1-2.8,1.8-2.8,3.4c0,1.5,1.2,2.5,2.7,2.6C79.1,71.8,79.6,70.4,79.6,68.7z M74.9,27.1
		c0-1.7-1.2-2.4-2.6-2.7c-1.1-0.3-1.1,0.7-1.2,1.4c-0.1,1.6,0.6,2.9,2,3.2C74.4,29.4,74.8,28.2,74.9,27.1z M47,52.7
		c-0.2-1.2-1.3-1.5-2.2-1.6c-1.2-0.1-1.9,0.6-2,1.8c0,1,0.6,1.7,1.6,1.7C45.7,54.7,46.4,53.8,47,52.7z M49.6,55.6
		c-1,0.1-2,0.3-2,1.6c0,1.1,0.9,1.4,1.9,1.4c1,0,2.1-0.2,2.1-1.6C51.5,56,50.6,55.7,49.6,55.6z"/>
	<path class="st2" d="M21.8,14.6c0,1.8,0.5,2.8,2.5,1.7c2.1-1.2,4.2-2.5,6.4-3.5c1.3-0.6,3.2-0.9,3.7,0.7c0.6,1.9-1.5,1.7-2.7,2.1
		c-4.5,1.5-8,4-9.5,8.8c-0.4,1.2,0.1,2,0.9,2.7c1,1,1.8,0.5,2.6-0.3c1.3-1.4,3.3-2.5,3.5-4.5c0.3-3,2.1-3,4.3-2.9
		c0.9,0,2.1,0.2,2.6-0.3c4.9-4.3,8.6-1.1,12.3,1.8c0.9,0.7,1.8,1.4,2.8,2c4.1,2.7,4.1,3.3-0.1,6.1c-2.1,1.4-4.3,2.8-6.5,4.1
		c-1.8,1-2.4,1.9-0.3,3.3c1.5,1,4.1,2.2,2.5,4.3c-1.6,2.2-4.3,3.6-7.4,2.6c-0.8-0.3-1.6-0.7-2.5-0.9c-6.4-1.1-9.3,1.1-8.7,7.5
		c0.3,2.8,0.6,5.9,3.2,7.9c3.6,2.7,3.9,7.7,7.6,10.4c1.1-1.1,0.9-2.4,0.1-3.4c-1.3-1.7-1.3-3.3,0.6-4.1c1.7-0.7,3.1,1.1,3.4,2.3
		c0.5,2.2,2.7,4.2,2.6,5.5c-0.3,3-0.8,5.6,0.4,8.7c0.6,1.4-5.1,4.1-7.2,3.4c-1.3-0.5-1.9,0.2-2.6,0.9c-1,1-2.1,1.9-3.5,2.3
		c-1,0.3-2.2,0.5-2.9-0.4c-0.7-1-0.3-1.9,0.7-2.6c1.5-1,1.7-2.3,0.2-3.4c-2-1.5-1-2.5,0.3-3.6c0.6-0.5,1.3-0.8,1.8-1.4
		c0.6-0.7,0.9-2.1,0.1-2.4c-2.6-1.1-3.8,2.2-6.4,2.3c-1.2,0-1.1,1.9-0.1,2.8c3,2.7,0.6,4.4-1.3,5.8c-2.5,1.9-4.2-0.5-5.3-2
		c-2.5-3.2-1.9-4.8,2-6.6c1.1-0.5,1.7-1.3,1.3-2.4c-0.5-1.1-0.3-2.7-2.2-2.8c-0.8,0-1.7-0.2-2.3,0c-4.4,2-6-1.2-7.6-4.1
		C7,55.5,5.9,47,5.6,38.4c-0.1-0.7-0.1-1.4-0.2-2.1c2.2-1.8,2.4-4.5,3.4-6.9c2.8-5.5,7.1-9.8,11.4-14C20.8,15.2,21.3,14.9,21.8,14.6
		z"/>
	<path class="st3" d="M84.6,72.7c1.6-2.4,1.7-5.3,2.6-7.9c0.1-0.1,0.3-0.1,0.3-0.2c0-0.2-0.1-0.4-0.2-0.6c0.1-0.5,0.2-0.9,0.3-1.4
		c1.8-1.6,1.1-3.6,0.7-5.5c-0.1-0.3-0.1-0.5-0.2-0.8c0.5-2.1,0.5-4.1,0.1-6.2c0.7-1.6,0.1-3.1,0-4.6c0.8-1.3,0.9-2.4-0.6-3.2
		c-0.3-1.6-0.7-3.1-1-4.7c-0.2-1.6,0.6-3.4-1.3-4.5c-0.7-1-1.3-2.1-1.2-3.4c0.3-3.2-3.1-5-2.9-8.1c0.1-0.1,0.1-0.2,0.2-0.3
		c-0.1,0.1-0.1,0.2-0.2,0.3c-0.7-0.3-1.5-0.5-2.2-0.8c-1.4-1.7-2.8-3.4-4.1-5.2c0.3-0.3,0.6-0.7,1-1c0.8,0.1,1.5,0.3,2,1
		c2.1,2.8,2.4,0.8,2.8-1.1c0.7,0,1.4,0.1,2.2,0.1c0,0,0,0,0,0c0.3,0.7,0.7,1.5,1,2.2c-0.8,0.3-2.3-0.2-2.1,0.9
		c0.2,1.5,1.5,2.6,2.9,3.6c0.7-1.3-1-2.7,0.6-3.6c0.8,0.6,1.5,1.1,2.3,1.7c0,0.5,0,1,0.1,1.5c2.7,1.8,4,4.5,5.6,7.1
		c1.2,2,1.4,5.5,5,5.7c0.1,0.5,0.1,1,0.2,1.6c-0.8,0.6-0.5,1.2-0.3,2c0.8,4.5,2.2,8.8,2,13.5c-0.1,3.1-1.1,6.4,0.6,9.4
		c0,0.5,0,1,0,1.5c-2.8,0.9-0.7,3.9-2.3,5.5c-1.7,1.7-0.7,3.2,1.6,3.7c0.3,3.5-1.1,6.5-2.6,9.6c-0.9,1.7-2,2.1-3.6,1.9
		c-0.4-1.6,1-2.5,1.6-3.7c1-2.3,3-4.3,2.1-7.2c-1,0.1-0.9,0.9-1.3,1.4c-2.1,2.7-2.3,6.8-6.1,8.2c-0.8-3,2.1-5,2.3-7.7
		c0.8-0.1,1.5-0.3,1.4-1.3c0-0.2-0.5-0.6-0.7-0.6c-0.9,0.3-0.6,1.2-0.7,1.9c-3.7,1.7-4.6,4.9-2.3,7.8c0,1,0,2,0,3l0,0
		c-0.9,0.3-1.8,0.7-2.8,1c-1.4-1.1,1-1.6,0.5-2.6c0-2.1,0.3-4.2-1.9-5.7c-1.1,2.1,0.7,3.8,0.4,5.7c-3.6,0.1-5.1,1.9-4.9,5.5
		c0,0.2-0.8,0.4-1.2,0.6c-0.1-0.3-0.3-0.7-0.4-1c-0.1,0.3-0.3,0.6-0.4,1c-1.2,0.2-2.2,0.6-2.5,2.1c1.9,0.5,2.6-0.2,2.6-2
		c0,0,0.3,0,0.3,0l0.4,0c0.3,0.8,0.6,1.6,0.9,2.4c-0.3,0.5-0.5,0.9-0.8,1.4c-2.6,0.8-3.9,2.4-3,5.2c-1.1,0-2.2,0.1-3.3,0.1
		c-1.8-1.9-3.9-1.3-5.3,1.5c-0.3,2.6-2.2,2.6-3.9,2.3c-1.1-0.2-2.9-0.7-1.8-2.6c1-0.6,1.4-1.9,2.8-1.8c0.5-0.2,0.9-0.4,1.4-0.6
		c0.4-0.3,0.8-0.6,1.1-0.9c1,0,1.9-0.2,2-1.5c0.1-0.2,0.1-0.4,0-0.6C76.8,88.2,81.7,81.2,84.6,72.7z M89.6,40.2
		c0,0.6,0.1,1.2,0.7,1.5c0,1.3,0,2.6,0,3.9c0,2.6,0,5.1,0,7.7c1.1,4.9-2.4,9.8-0.4,15.3c1.4-1.5,1.1-2.7,1.2-3.8
		c0.1-1.9-0.8-4.3,2.4-4.5c2.7-0.6,1.5,1.9,2.3,3.1c3.3-3.3,2-7.3,2.3-10.9c0.2-2.4-1-3.5-3.1-2.9c-3.9,1.1-4.1-1-3.8-3.9
		c2.6-5.7,3.1-11.3-1.1-16.5c-0.8-1-1.3-2.1-1-3.5c0.2-0.3,0.3-0.6,0.5-0.8c0,0-0.2-0.1-0.3-0.2c-0.1,0.3-0.3,0.6-0.4,0.9
		c-3.7,3.3-3.6,3.4,0.5,5.4c0.8,0.4,1.6,2,1.5,2.9c-0.1,1.5-1,0-1.5,0c-0.8,0.1-1.2,0.8-0.8,1.3C89.3,36.7,88.1,38.8,89.6,40.2z
		 M85.7,24.3c-0.3-0.2-0.6-0.6-0.8-0.6c-0.2,0-0.6,0.4-0.6,0.7c-0.1,0.5,0.2,1,0.8,0.8C85.4,25.1,85.5,24.6,85.7,24.3z M65.2,99.2
		c0,0.1-0.1,0.2-0.1,0.3c0.1,0,0.3,0,0.4,0c0-0.1,0-0.2-0.1-0.3C65.4,99.2,65.3,99.2,65.2,99.2z"/>
	<path class="st4" d="M17.2,87.2c4.6,4.9,10.7,7.7,16.2,11.4c-0.3,1.3,0.7,3-1.1,3.7c-1.6,0.7-2.4-0.5-3.3-1.7
		c-0.6-0.9-1.9-0.4-2.9-0.5c-2.1-0.1-4.7,0.7-4.3-3c0-0.3-0.4-0.8-0.4-0.8c-0.9,0.2-2.7,1.1-2.3-0.1C20.5,92.6,15.3,90.7,17.2,87.2z
		"/>
	<path class="st4" d="M59.6,5.7c-3-1.9-6.4-1.6-9.7-1.5c-1.6,0.1-3.3,0.2-4.9,0.3c-0.1-1.6-2-0.8-2.7-2C44.4,1.1,46.8,1.5,49,2
		c4.4,1,8.4,0.3,12.4-1.3c2.4-1,7.9,1.9,8.2,4.2c-0.2,0.3-0.5,0.5-0.7,0.8c0,0,0,0,0,0c-1.1,0-2.2-0.5-3,0.7c-1,0-1.6,0.5-1.6,1.6
		C62.5,7.3,61.7,5.2,59.6,5.7z"/>
	<path class="st5" d="M97.9,33.8c-3.5-0.2-3.7-3.7-5-5.7c-1.7-2.6-3-5.3-5.6-7.1c0.7-0.5,0.9-1-0.1-1.5c-0.8-0.6-1.5-1.1-2.3-1.7
		c0-0.3,0-0.5,0-0.8l0,0c2,0.5,4.6-1.6,6,1.9c0.4,1.1,0.6-1.8,2.1-1.4c0.6,3.3,2.7,6.4,2.5,10c-0.1,1.6,0.9,1.9,2.1,2c0.3,1-2,2,0,3
		C97.9,33,97.9,33.4,97.9,33.8z"/>
	<path class="st3" d="M52.2,112.5c-1.7,0-2.7-0.4-2.6-2.3c6.6-1.4,13.3-0.5,20-0.8c0,0.2,0,0.5,0,0.7c0.1,1.9-0.8,2.4-2.6,2.4
		C62.1,112.5,57.1,112.5,52.2,112.5"/>
	<path class="st5" d="M100.4,60.3c-1.6-3-0.7-6.3-0.6-9.4c0.2-4.7-1.2-9-2-13.5c-0.1-0.8-0.5-1.5,0.3-2c0.8,2.2,1.5,4.4,2.4,6.6
		c0.3,0.7-0.4,3.8,2,1.2c0.4-0.4,0.8,0.1,0.7,0.3c-1,2.2,3,5-1.2,7.1c-1.1,0.5-0.6,4.1-0.8,6.2C101.1,58,101.6,59.3,100.4,60.3z"/>
	<path class="st4" d="M62.4,99c-1.1,2,0.6,2.4,1.8,2.6c1.8,0.3,3.7,0.3,3.9-2.3c0.5,0,1,0,1.5,0.1c0,1,0,2.1,0,3.1
		c0,0.8,0,1.5,0,2.3c-6.7,0-13.3,0-20,0c0-0.3,0-0.5,0-0.8c2-1.5,4.4-0.5,6.6-0.7c1.7-0.2,3.5,0.3,5.1-1c-0.6-0.4-1.1-0.9-1.7-1.3
		C60.5,100.4,60.4,98.2,62.4,99z"/>
	<path class="st6" d="M69.6,109.4c-6.7,0.3-13.4-0.7-20,0.8c-1.5-0.4-4.1,0.9-4.2-1.1c-0.1-2.3,2.6-1.1,4-1.2
		c6.7-0.1,13.4-0.1,20.1-0.1c0,0,0,0,0,0C69.6,108.4,69.6,108.9,69.6,109.4z"/>
	<path class="st3" d="M100.3,26.7c-0.1-0.2-0.3-0.4-0.3-0.8c0,0,0,0,0,0c-0.3-0.7-0.5-1.4-0.7-2.1c-0.1,0.1-0.2,0.2-0.3,0.3
		c-2.2,1.5,1.1,4.1-1.2,5.4c0.3,1-2,2,0,3c1.1-1.3,1.9-2.8,4.2-2.5c0.1,0,0.2,0,0.3,0C101.5,29,100.8,27.9,100.3,26.7z"/>
	<path class="st7" d="M30.9,109.7c1.7,1.5,4.7-0.9,5.9,1.6c0.2,0.5-1.6,3.9-3.9,4"/>
	<path class="st4" d="M21.8,14.6c-0.5,0.3-1,0.5-1.5,0.8c-0.1-0.9-0.6-1.2-1.4-1.6c-1.3-0.7-0.9-2-0.8-3c0.1-1.4,1.3-1.3,2.3-1.4
		c2.2-0.2,4.3,0.2,6.3,0.9C25.7,12.4,22.7,12.4,21.8,14.6z"/>
	<path class="st5" d="M89.6,81c3.8-1.4,4-5.5,6.1-8.2c0.4-0.4,0.3-1.3,1.3-1.4c0.9,2.9-1.1,5-2.1,7.2c-0.6,1.2-1.9,2.1-1.6,3.7
		c-0.9,0.1-1.5,0.4-1.6,1.4C91,83.9,90.3,84,89.6,84C89.6,83,89.6,82,89.6,81C89.6,81,89.6,81,89.6,81z"/>
	<path class="st6" d="M69.6,104.8c0-0.8,0-1.5,0-2.3c2.5,0.4,4,3.1,7,2.7c0.9-0.1,0.6,1.7,0.7,2.7c-0.5,0-1,0-1.5,0
		c-2.1,0-4.1,0-6.2,0c0,0,0,0,0,0C69.6,106.8,69.6,105.8,69.6,104.8z"/>
	<path class="st8" d="M8.9,29.5c-1,2.4-1.2,5.1-3.4,6.9c-2.4-1.5-1.9-4.2-1.4-5.9C4.6,28.6,7.2,29.7,8.9,29.5z"/>
	<path class="st3" d="M75.2,9.4c0.1,0,0.3,0,0.4-0.1c-0.1,0.3-0.1,0.6-0.2,0.9c-0.5,0.6-1.8,0.5-1.6,1.7c0,0.2,0.4,0.3,0.6,0.4
		c1,0.1,1.2-0.6,1.3-1.4c1.1,0,1.8,0.6,2.3,1.5c-0.5,1-2.5,0.6-2.3,2.3c-0.3,0.3-0.6,0.7-1,1c-1.7-1.6-3.5-3.2-5.2-4.8
		c0.1-1.6,1.3-1.6,2.4-1.7C73,9.4,74.1,9.4,75.2,9.4z"/>
	<path class="st5" d="M75.4,10.2c0.1-0.3,0.1-0.6,0.2-0.9C77.7,10,80.3,8,82.1,11c0.8,1.4,0.8,2.5,0.6,3.8c-0.7,0-1.4-0.1-2.2-0.1
		c0,0-0.1,0-0.1,0c0.1-0.2,0.1-0.5,0-0.7c-0.8-0.5-1.6-1-2.4-1.5c-0.5-0.9-1.2-1.5-2.3-1.5C75.6,10.7,75.5,10.5,75.4,10.2z"/>
	<path class="st5" d="M76.7,97.8c-1-2.9,0.3-4.4,3-5.2c0,0,0.4,0,0.4,0l0.4,0.1C81,97,80,98.4,76.7,97.8z M79.2,95.2
		c-0.1,0.1-0.3,0.2-0.3,0.2c0,0.2,0.1,0.4,0.2,0.6c0.1-0.2,0.2-0.4,0.3-0.6C79.5,95.4,79.3,95.3,79.2,95.2z"/>
	<path class="st5" d="M99.6,71c-2.3-0.5-3.3-2-1.6-3.7c1.6-1.7-0.5-4.6,2.3-5.5C100,64.9,101.1,68.1,99.6,71z"/>
	<path class="st9" d="M72,9.3c-1.1,0.1-2.3,0.1-2.4,1.7c-2.3-0.1-3.3-2.6-5.4-3.2c0-1.1,0.6-1.5,1.6-1.6c0.9,0.7,2,0.9,3.1,0.8
		c0,0,0.4-0.1,0.4-0.1C69.5,8.6,71.2,8.5,72,9.3z"/>
	<path class="st3" d="M89.6,84c0.7-0.1,1.5-0.1,2.2-0.2c0.6,1,1,2.1,0.9,3.3c-1.4,0.6-2.6,1.2-2.3,3c-0.5,0-1,0-1.6,0
		c-0.1-0.8-0.1-1.7-0.2-2.5c0-0.2,0.1-0.4,0.1-0.6c0.3-0.3,0.5-0.6,0.8-0.9C89.5,85.5,89.6,84.8,89.6,84L89.6,84z"/>
	<path class="st8" d="M69.6,107.9c2.1,0,4.1,0,6.2,0c0.2,1.3,0.4,2.5-1.7,2.3c-1.5-0.2-3,0-4.5-0.1c0-0.2,0-0.5,0-0.7
		C69.6,108.9,69.6,108.4,69.6,107.9z"/>
	<path class="st8" d="M4.2,64c0.9,2,1.9,3.9,1.4,6.2C1.9,69.5,1.8,68.9,4.2,64z"/>
	<path class="st8" d="M9.7,78.5c1.6,0.9,2.7,2.2,3.2,3.9c-1.5-0.1-1.6,1.3-2.5,2.2C8.8,82.6,9.3,80.5,9.7,78.5z"/>
	<path class="st7" d="M90.4,90.2c-0.3-1.8,0.9-2.5,2.3-3c1.2,0,2.4,0,2.2,1.7c-0.1,1.4-1.3,1.3-2.2,1.3
		C91.9,90.2,91.1,90.2,90.4,90.2z"/>
	<path class="st10" d="M80.4,92.6l-0.4-0.1c0,0-0.4,0-0.4,0c0.3-0.5,0.5-0.9,0.8-1.4c2.2-0.3,3-3.1,5.3-3.3c0.1,0.9-0.4,1.6-0.9,2.3
		C83.2,90.6,82.6,93,80.4,92.6z"/>
	<path class="st5" d="M69.6,99.4c-0.5,0-1,0-1.5-0.1c1.4-2.8,3.5-3.4,5.3-1.5c-1.2,0-2.3,0-2.3,1.6l0,0
		C70.6,99.4,70.1,99.4,69.6,99.4z"/>
	<path class="st5" d="M72,9.3c-0.8-0.9-2.4-0.7-2.6-2.3c2.3,0,4.4,0.3,5.9,2.4C74.1,9.4,73,9.4,72,9.3z"/>
	<path class="st7" d="M84.9,90.1c0.4-0.7,1-1.3,0.9-2.3l0,0c1-0.1,1.9-0.2,2.9-0.2c0.1,0.8,0.1,1.7,0.2,2.5
		C87.5,90.2,86.2,90.2,84.9,90.1z"/>
	<path class="st6" d="M49.6,104c0,0.3,0,0.5,0,0.8c-1.6,0-3.2,0-5.6,0C46.3,102.7,48,104.7,49.6,104z"/>
	<path class="st4" d="M35.7,6.3C34.9,8,33,7,31.8,7.7C32.4,5.4,34.3,6.6,35.7,6.3z"/>
	<path class="st8" d="M3.2,59.5c1.3,0.8,0.8,2,0.8,3.1C2.2,61.9,2.5,60.8,3.2,59.5z"/>
	<path class="st4" d="M30.3,8.4c-0.8,1-1.8,1.6-3.1,1.5C27.8,8.6,28.7,7.7,30.3,8.4z"/>
	<path class="st5" d="M83.7,17c-0.3-0.7-0.7-1.5-1-2.2c1.8-0.3,2.5,0.6,2.3,2.3c0,0,0,0,0,0C84.5,17.1,84.1,17,83.7,17z"/>
	<path class="st5" d="M69,7.1c-1.1,0.1-2.2-0.1-3.1-0.8c0.8-1.2,2-0.7,3-0.7C68.9,6.1,68.9,6.6,69,7.1z"/>
	<path class="st4" d="M47.2,101.6c0.8,0,1.6-0.1,2.4-0.1C48.9,102.9,48.1,102.9,47.2,101.6z"/>
	<path class="st6" d="M78.6,109.4c-0.1,0.1-0.5,0.4-0.7,0.4c-0.8-0.2-0.6-0.9-0.7-1.5c0-0.8,0.5-0.2,0.7-0.2
		C78.5,108.2,78.7,108.7,78.6,109.4z"/>
	<path class="st4" d="M38.1,5.7c-0.5,0.4-1,0.5-1.6,0.2C36.9,4.8,37.4,4.6,38.1,5.7z"/>
	<path class="st5" d="M68.8,5.6c0.2-0.3,0.5-0.5,0.7-0.8C69.3,5.1,69.1,5.3,68.8,5.6z"/>
	<path class="st5" d="M71.1,99.4c0.1,0,0.2,0.1,0.3,0.1C71.3,99.5,71.2,99.5,71.1,99.4C71.1,99.4,71.1,99.4,71.1,99.4z"/>
	<path class="st2" d="M79.7,54.4c-2.9-0.6-5.7-1.3-4.2,3.6c0.5,1.5-0.9,3.2-2.3,3.5c-1.7,0.4-2-0.9-1.6-2.5c0.3-1.3-0.8-1.8-1.9-1.8
		c-3.3,0-4.1-2-4-4.8c0.1-1.3-0.1-2.5-0.9-3.6c-0.3-0.4-0.6-1.5-0.3-1.7c4.1-4.3-0.9-4-2.6-4.8c-6.5-2.9-8.1-8.4-3.9-14.1
		c0.6-0.9,1.2-1.6,2.4-1.7c4.6-0.6,12.8,5.7,13,10.3c0,0.7-0.4,1.5-0.8,2.1c-0.4,0.8-1.9,1.4-0.5,2.5c0.9,0.7,2,0.7,2.9,0
		c3-2,3.6-0.9,5.3,2.1c1.8,3.2,2.3,5.8,1.8,9.1C81.7,54,81.5,55,79.7,54.4z"/>
	<path class="st11" d="M64.2,7.8c2.1,0.6,3,3,5.4,3.2c1.7,1.6,3.5,3.2,5.2,4.8c1.4,1.7,2.7,3.4,4.1,5.2c1,3.4,3,6.2,5.2,8.8
		c-0.1,1.3,0.5,2.4,1.2,3.4c0,1.6,0,3.3,1.3,4.5c0.3,1.6,0.7,3.1,1,4.7c-0.2,1.1-0.5,2.3,0.6,3.2c0.2,1.5,0.7,3.1,0,4.6
		c-0.3,0-0.7,0-1,0c-0.2-0.3-0.5-0.5-0.7-0.8c-0.5-3.4-0.2-7.2-1.7-10.1c-1.9-3.6-1.4-8.7-5.8-10.8c-1.9-0.9,0.2-2.8-1.8-4.3
		c-1.8-1.4-4.5-2.1-5.8-4.5c-0.7-1.4-2.1-2.4-1.8-4.3c0.2-1.7-0.8-2.3-2.4-2.1c-0.5-0.3-1-0.6-1.5-0.8c-0.1-1.6-1-2.7-2.5-3
		c-2.2-0.4-3.1-2-3.6-3.9C61.7,5.2,62.5,7.3,64.2,7.8z"/>
	<path class="st2" d="M65.7,12.5c0.5,0.3,1,0.6,1.5,0.8c0.5,2.7-0.3,4.1-3.4,3.8c-2.5-0.2-5.1-0.2-7.6,0.6c-1.6,0.5-3.1,0-4.6-1.1
		c-2.8-2.3-6-3.3-9.6-1.7c-1,0.4-2.3,1.1-2.9-0.5c-0.7-1.7,1-1.6,1.8-2.3c1.3-1,2.8-1.6,4.3-0.9c4.9,2.2,10,2.1,15.2,1.6
		C62.1,12.5,64,14.1,65.7,12.5z"/>
	<path class="st11" d="M84.6,72.7c-2.9,8.5-7.8,15.5-15,20.9c0-2.9,0.1-4.9,3.4-7.1c2.7-1.9,6.4-4.9,7.4-9.2
		c0.5-1.8,1.5-3.5,2.5-5.1C83.8,70.7,84.3,71.8,84.6,72.7z"/>
	<path class="st2" d="M86.5,49.5c0.2,0.3,0.5,0.5,0.7,0.8c0,1.4,0.1,2.7-0.2,4.1c-0.2,1.2-0.3,2,1.1,2.1c0.1,0.3,0.1,0.5,0.2,0.8
		c-1.9,1.1-0.4,3.2-1.3,4.6c-1.5-0.1-1.1,3-3.1,2c-1.8-0.9-1.1-2.6-1.2-4.1C82.2,55.6,84.4,52.5,86.5,49.5z"/>
	<path class="st2" d="M58,47.5c0,1.4-0.4,2.5-2.1,2.5c-2.9,0.1-5.4-2-5.4-4.6c0-1.7,1-2.6,2.5-2.8C54.8,42.4,58,45.7,58,47.5z"/>
	<path class="st2" d="M79.6,68.7c0.1,1.7-0.4,3.1-2.5,3c-1.5-0.1-2.8-1.1-2.7-2.6c0-1.6,0.7-3.3,2.8-3.4
		C79.2,65.6,79.6,67,79.6,68.7z"/>
	<path class="st2" d="M74.9,27.1c-0.1,1.1-0.5,2.3-1.8,2c-1.5-0.4-2.2-1.7-2-3.2c0.1-0.8,0.1-1.7,1.2-1.4
		C73.7,24.7,74.9,25.4,74.9,27.1z"/>
	<path class="st2" d="M47,52.7c-0.5,1.1-1.3,2-2.6,1.9c-1-0.1-1.7-0.7-1.6-1.7c0-1.2,0.8-1.9,2-1.8C45.7,51.2,46.7,51.5,47,52.7z"/>
	<path class="st2" d="M49.6,55.6c1,0.1,1.9,0.4,1.9,1.4c0,1.3-1,1.6-2.1,1.6c-0.9,0-1.9-0.3-1.9-1.4C47.5,55.9,48.6,55.7,49.6,55.6z
		"/>
	<path class="st10" d="M87,61.8c0.9-1.4-0.6-3.5,1.3-4.6c0.4,1.9,1.1,3.9-0.7,5.5C87.4,62.3,87.2,62.1,87,61.8z"/>
	<path class="st4" d="M69.6,94.2c-0.1,1.3-1,1.5-2,1.5C67.9,94.6,68.5,94,69.6,94.2z"/>
	<path class="st4" d="M66.5,96.5c-0.5,0.2-0.9,0.4-1.4,0.6C65.3,96.4,65.9,96.5,66.5,96.5z"/>
	<path class="st10" d="M87.3,64c0.1,0.2,0.2,0.4,0.2,0.6c0,0.1-0.2,0.1-0.3,0.2C87.3,64.5,87.3,64.3,87.3,64z"/>
	<path class="st12" d="M91.1,45.6c-0.3,2.9-0.1,5,3.8,3.9c2.2-0.6,3.3,0.5,3.1,2.9c-0.3,3.6,1,7.6-2.3,10.9
		c-0.8-1.3,0.4-3.8-2.3-3.1c-0.8-1.1-0.7-2.2-0.3-3.6c0.5-2-0.4-3.4-2.8-3.4c0-2.6,0-5.1,0-7.7C90.6,45.6,90.9,45.6,91.1,45.6z"/>
	<path class="st13" d="M91.1,45.6c-0.3,0-0.5,0-0.8,0c0-1.3,0-2.6,0-3.9c-0.2-0.9,1.2-1.9,0.2-2.6c-0.6-0.4-0.8,0.6-0.9,1.1
		c-1.5-1.4-0.3-3.5-1.3-5.1c-0.3-0.6,0-1.3,0.8-1.3c0.5,0,1.4,1.5,1.5,0c0.1-1-0.7-2.5-1.5-2.9c-4.1-2.1-4.2-2.1-0.5-5.4l0.2,0.1
		c-0.3,1.4,0.2,2.5,1,3.5C94.2,34.3,93.7,39.9,91.1,45.6z"/>
	<path class="st9" d="M85.8,87.9c-2.3,0.2-3.1,3-5.3,3.3c-0.3-0.8-0.6-1.6-0.9-2.4l0.1-0.1c0.4-0.2,1.2-0.5,1.2-0.6
		c-0.2-3.5,1.3-5.4,4.9-5.5c0.5,0,1,0,1.5,0c0.6,1-1.9,1.5-0.5,2.6C86.5,86,86.1,87,85.8,87.9L85.8,87.9z"/>
	<path class="st13" d="M90.4,53.2c2.4-0.1,3.3,1.4,2.8,3.4c-0.3,1.3-0.4,2.4,0.3,3.6c-3.2,0.3-2.3,2.7-2.4,4.5
		c-0.1,1.1,0.2,2.3-1.2,3.8C88,63.1,91.4,58.1,90.4,53.2z"/>
	<path class="st9" d="M84.1,29.8c-2.2-2.7-4.2-5.5-5.2-8.8c0.7,0.3,1.5,0.5,2.2,0.8v0C81,24.8,84.4,26.6,84.1,29.8z"/>
	<path class="st13" d="M91.9,73.3C91.8,76,88.8,78,89.6,81c0,0,0,0,0,0C87.3,78.2,88.2,75,91.9,73.3L91.9,73.3z"/>
	<path class="st9" d="M78.1,12.5c0.8,0.5,1.6,1,2.4,1.5c-0.3,0.1-0.9-0.1-0.9,0.5c0,0.1,0.6,0.1,0.9,0.2c0,0,0.1,0,0.1,0
		c-0.4,1.8-0.7,3.8-2.8,1.1c-0.5-0.7-1.2-0.9-2-1C75.6,13.1,77.5,13.5,78.1,12.5z"/>
	<path class="st9" d="M83.7,17c0.4,0,0.9,0.1,1.3,0.1c0,0.3,0,0.5,0,0.8c-1.6,0.9,0.1,2.3-0.6,3.6c-1.4-0.9-2.7-2-2.9-3.6
		C81.4,16.8,82.9,17.3,83.7,17z"/>
	<path class="st7" d="M87.3,82.5c-0.5,0-1,0-1.5,0c0.3-1.9-1.5-3.6-0.4-5.7C87.5,78.3,87.2,80.4,87.3,82.5z"/>
	<path class="st5" d="M85.7,87.9c0.4-0.9,0.7-1.9,1.1-2.8c0.9-0.3,1.8-0.7,2.8-1c0,0.7,0,1.5-0.1,2.2c-0.3,0.3-0.5,0.6-0.8,0.9
		c-0.1,0.2-0.1,0.4-0.1,0.6C87.6,87.7,86.7,87.8,85.7,87.9z"/>
	<path class="st1" d="M88.1,56.4c-1.4-0.1-1.4-0.9-1.1-2.1c0.3-1.3,0.1-2.7,0.2-4.1c0.3,0,0.7,0,1,0C88.6,52.3,88.7,54.3,88.1,56.4z
		"/>
	<path class="st9" d="M78.9,88.7c0,1.8-0.7,2.6-2.6,2C76.6,89.3,77.5,88.8,78.9,88.7C78.8,88.6,78.9,88.7,78.9,88.7z"/>
	<path class="st5" d="M86.6,37.7c-1.3-1.3-1.3-2.9-1.3-4.5C87.1,34.3,86.3,36.1,86.6,37.7z"/>
	<path class="st10" d="M88.1,45.6c-1.1-0.9-0.7-2.1-0.6-3.2C89,43.2,89,44.3,88.1,45.6z"/>
	<path class="st12" d="M89.6,40.2c0.1-0.6,0.3-1.6,0.9-1.1c1,0.7-0.4,1.7-0.2,2.6C89.7,41.4,89.6,40.8,89.6,40.2z"/>
	<path class="st13" d="M91.9,73.3c0.1-0.7-0.2-1.5,0.7-1.9c0.1-0.1,0.6,0.3,0.7,0.6C93.4,73,92.7,73.2,91.9,73.3
		C91.9,73.3,91.9,73.3,91.9,73.3z"/>
	<path class="st9" d="M85.7,24.3c-0.2,0.4-0.4,0.8-0.6,0.9c-0.6,0.2-0.8-0.3-0.8-0.8c0-0.3,0.4-0.6,0.6-0.7
		C85.2,23.6,85.4,24,85.7,24.3z"/>
	<path class="st9" d="M87.2,19.6c1,0.4,0.7,0.9,0.1,1.5C87.3,20.5,87.3,20.1,87.2,19.6z"/>
	<path class="st9" d="M88.8,25.4c0.1-0.3,0.3-0.6,0.4-0.9c0.1,0.1,0.3,0.2,0.3,0.2c-0.1,0.3-0.3,0.6-0.5,0.8
		C88.9,25.6,88.8,25.4,88.8,25.4z"/>
	<path class="st9" d="M79.6,88.7l-0.4,0c0,0-0.3,0-0.3,0c0,0-0.1-0.1-0.1-0.1c0.1-0.3,0.3-0.6,0.4-1C79.3,88,79.5,88.3,79.6,88.7
		C79.6,88.6,79.6,88.7,79.6,88.7z"/>
	<path class="st4" d="M65.2,99.2c0.1,0,0.2,0,0.2,0c0.1,0.1,0,0.2,0.1,0.3c-0.1,0-0.3,0-0.4,0C65.2,99.4,65.2,99.3,65.2,99.2z"/>
	<path class="st9" d="M81.1,21.7c0.1-0.1,0.1-0.2,0.2-0.3C81.2,21.5,81.2,21.6,81.1,21.7C81.1,21.7,81.1,21.7,81.1,21.7z"/>
	<path class="st9" d="M75.4,10.2c0.1,0.2,0.2,0.5,0.3,0.7c-0.1,0.8-0.3,1.5-1.3,1.4c-0.2,0-0.5-0.2-0.6-0.4
		C73.6,10.7,74.9,10.8,75.4,10.2z"/>
	<path class="st3" d="M80.4,14.7c-0.3-0.1-0.9-0.1-0.9-0.2c0-0.7,0.6-0.4,0.9-0.5C80.5,14.2,80.5,14.5,80.4,14.7z"/>
	<path class="st0" d="M79.2,95.2c0.1,0.1,0.3,0.2,0.2,0.2c-0.1,0.2-0.2,0.4-0.3,0.6c-0.1-0.2-0.2-0.4-0.2-0.6
		C79,95.3,79.1,95.2,79.2,95.2z"/>
	<path class="st7" d="M88.7,87.1c0.3-0.3,0.5-0.6,0.8-0.9C89.3,86.5,89,86.8,88.7,87.1z"/>
</g>
<g>
	<path class="st14" d="M90.8,126.5H15c-2.2,0-4-1.8-4-4v-23c0-2.2,1.8-4,4-4h75.8c2.2,0,4,1.8,4,4v23
		C94.8,124.7,93,126.5,90.8,126.5z"/>
	<g>
		<path class="st15" d="M31.9,113c-0.1-2-0.1-4.4-0.1-6.8h-0.1c-0.5,2.1-1.2,4.4-1.8,6.4l-2,6.4H25l-1.8-6.4
			c-0.5-1.9-1.1-4.3-1.5-6.4l0,0c-0.1,2.2-0.2,4.8-0.3,6.8l-0.3,6.3h-3.4l1.1-16.5h5l1.6,5.5c0.5,1.9,1,4,1.4,5.9h0.1
			c0.5-1.9,1-4.1,1.6-5.9l1.8-5.5h4.9l0.9,16.5h-3.6L31.9,113z"/>
		<path class="st15" d="M53.7,110.9c0,5.4-3.3,8.7-8.1,8.7c-4.9,0-7.7-3.7-7.7-8.4c0-4.9,3.2-8.6,8-8.6
			C51,102.6,53.7,106.3,53.7,110.9z M41.8,111.1c0,3.2,1.5,5.5,4,5.5s4-2.4,4-5.6c0-3-1.4-5.5-4-5.5
			C43.3,105.5,41.8,107.9,41.8,111.1z"/>
		<path class="st15" d="M71.2,110.9c0,5.4-3.3,8.7-8.1,8.7c-4.9,0-7.7-3.7-7.7-8.4c0-4.9,3.2-8.6,8-8.6
			C68.5,102.6,71.2,106.3,71.2,110.9z M59.3,111.1c0,3.2,1.5,5.5,4,5.5c2.5,0,4-2.4,4-5.6c0-3-1.4-5.5-4-5.5
			C60.8,105.5,59.3,107.9,59.3,111.1z"/>
		<path class="st15" d="M73.7,119.3v-16.5H78l3.4,6c1,1.7,2,3.8,2.7,5.6h0.1c-0.2-2.2-0.3-4.4-0.3-6.9v-4.8h3.4v16.5h-3.9l-3.5-6.4
			c-1-1.8-2.1-3.9-2.9-5.8h-0.1c0.1,2.2,0.1,4.5,0.1,7.2v5h-3.3V119.3z"/>
	</g>
</g>
</svg>
