<?xml version="1.0" encoding="utf-8"?>
<!-- Generator: Adobe Illustrator 25.0.0, SVG Export Plug-In . SVG Version: 6.00 Build 0)  -->
<svg version="1.1" id="Layer_1" xmlns="http://www.w3.org/2000/svg" xmlns:xlink="http://www.w3.org/1999/xlink" x="0px" y="0px"
	 width="105.5px" height="129px" viewBox="0 0 105.5 129" style="enable-background:new 0 0 105.5 129;" xml:space="preserve">
<style type="text/css">
	.st0{fill:#FCFCFC;}
	.st1{fill:#4B5D65;}
	.st2{fill:#2D3C44;}
	.st3{fill:#F2F5F4;}
	.st4{fill:#EBEDEE;}
	.st5{fill:#252D32;}
	.st6{fill:#D0D7D8;}
	.st7{fill:#A5B0B2;}
	.st8{fill:#DDE2E3;}
	.st9{fill:#EEF1F2;}
	.st10{fill:#E5E8EA;}
	.st11{fill:#B7C0C4;}
	.st12{fill:#495C64;}
	.st13{fill:#F8F4EC;}
	.st14{fill:#F7F4EC;}
	.st15{fill:#E9E0DB;}
	.st16{fill:#48A6DD;}
	.st17{fill:#FFFFFF;}
</style>
<g>
	<path class="st0" d="M54.4,116c0.4-3.2-3.6-1.3-3.7-3.1c-0.1-1.8,2.3-3.1,1.6-5.4c0-0.1,0-0.2,0-0.4c-0.2-1.7,0.3-2.8,2.3-2.7
		c1,0.1,2.3-0.3,1.7-1.5c-0.8-1.6-1.1-4.1-4-3.5c-0.6-5-2.8-1.1-4.3-0.7c-1.9,0.6-3.9,0.8-6,0.7c-0.7,0-1.5,0-1.7,0.9
		c-0.1,0.6,0.3,1.5,0.7,1.5c2.9-0.5,4.4,3,7.2,2.6c1.3-0.2,1.9,0.6,1.9,1.9c-0.1,1.2-0.5,2.1-1.8,2.2c-1.2,0.1-2.4,0-3.6,0.2
		c-1.2,0.2-2.3,1.2-1,2.2c1.8,1.4,1.3,3.2,1.4,4.9"/>
	<path class="st0" d="M61.3-1.6c0.6,1.3-0.2,2.5-1.2,3.4C56.5,1,53,2.1,49.4,1.9c-1.9,0.8-5.1-2.1-5.8,2.1c-2.4,0-4.8,0-7.2,0.1
		c-5.7-0.1-5.7-0.1-5,3.5c0.2,0.4,0.4,0.8,0.6,1.2C30,8.8,27.9,9,25.8,8.9c-2.2-0.1-2.8,1.9-3.8,3c-0.8,0.9,1.4,1,2,1.8
		c0.2,0.2,0.2,0.7,0.3,1c-0.2,0.3-0.4,0.6-0.7,0.9c-0.8-0.2-1.3,0.2-1.8,0.8c-6.3,6-11,13-13.8,21.3C8,37.8,8,38,7.9,38.2
		c-0.3,0.9-0.6,1.9-0.9,2.8c-0.2,2.3-0.5,4.6-0.7,6.8c-1.2,1.9-1.2,3.8,0,5.8c0.2,4,0.6,7.9,1.9,11.7c0,0.8,0.5,1.3,1,1.8
		c0.6,3.6,2.9,6.5,4.4,9.7c-2.3,1.7-1.5,4.2-1,6.1c0.5,1.8,2.6,0.8,4,1c0.9,0.1,1.9,0,2.8,0c2.5,2.1,4.6,4.7,7.8,5.8
		c-0.1,0.8-0.5,1.3-1.4,1.3c-0.9,0.1-1.9,0.3-1.8,1.3c0.1,1.1,1.3,0.9,2,0.8c2.6-0.2,5.4-0.8,5.5,3.2c0,0.3,0.6,0.9,0.9,0.9
		c3.3-0.3,6.8,1.5,9.7-1.3c3,0.6,6.1,1.9,8.9-0.7c0.2-0.2,0.3-0.5,0.5-0.7c0.2,0.4,0.4,0.8,0.5,1.2c4.8,2.1,10.1,1.2,15,2.1
		c1.2,0.2,1.4-1.4,1.4-2.5c-0.1-1.6,0.7-2.1,2.2-2.5c1.2-0.3,2.6-0.2,3.6-1.2c0.4,0,0.8,0,1.2,0c0.3,0.6,0.9,0.7,1.5,0.6
		c5.9-0.7,7.4-2.6,5.7-7.2c0-0.4,0.1-0.9,0.1-1.3l0,0c4.8-0.1,5-0.3,3.6-3.8c0.1-0.4,0.3-0.8,0.4-1.2c3.1,0,3.3-2.5,3.9-4.7
		c0,0,0,0,0,0c0.8-0.3,1.9-0.1,2.4-1c0.4-1.5,5.7-1.5,1.3-4.4c-0.3-1.6-0.5-3.3,1.8-3.6c1.1,0.2,1.6,0.8,1.6,2c0,1-0.2,2.3,1.4,2.3
		c1.6,0,1.4-1.3,1.4-2.3c0-6.2,0-12.5,0-18.7c0-1.1,0.1-2.2-1.4-2.4c1.4-4.9-2-8.7-3.4-12.9c-0.5-1.6-2.5-3.1-2.7-5.4
		c-0.1-1-1.4-1-2.4-1c-1.4-1-1.6-3.2-3.4-3.8c-0.4-2.6-0.4-5.6-4.5-4.7c-0.3-1.4,1-1.4,1.8-1.9c-1.1-0.4-2.1,0.1-3.1,0.3
		c-0.4-3-3.9-2.7-5.1-4.9C76.3,11,77,9.6,75.8,9.4c-1.1-0.2-0.6,1.2-0.8,1.9C72.8,10.2,70.9,8,67.9,9c0.1-0.8,0.3-1.5,0.5-3
		c-3.2,2.8-5.4,0.8-7.7-0.6c1.9-0.1,3.5-1.4,5.7-0.8c1.3,0.4,2.2-0.7,2.2-2.1c0-2,0-4,0-6.1"/>
	<path class="st0" d="M68.6,101.8c0.1-1.4-0.4-2.2-2-2.2c-1.6,0.1-3.3,0-4.9,0c-1.5,0-3.3,0.3-3.3,1.8c0,1.8,2,0.7,3.1,1
		c0.1,3.6,2.9,1.8,4.5,2.1C68,104.9,68.8,103.7,68.6,101.8z"/>
	<path class="st0" d="M-5.6,73.6c1.6,0.5,1.4-1.3,1.8-2.1c0.5-1.3,1.1-2,2.6-1.9c1.3,0.1,2-0.4,2-1.8c0.1-1.5-0.4-2.5-1.9-3
		c-3.8-1.3-5.2-0.1-5.2,4.5"/>
	<path class="st0" d="M106.7,39c-2.6,0-4.3,1.9-4.5,4.6c-0.3,3.7,2.9,2.8,4.4,3c2.7,0.2,1.7-1.9,1.4-3.5c-0.1-0.4,0.2-0.9,0.4-1.3
		C110.1,39,108,39.1,106.7,39z"/>
	<path class="st0" d="M34.2,106.8c1.6-0.2,3.9,0.7,3.7-2.3c-0.2-3-2.7-2.4-4.6-2.7c-1.7-0.3-2.6,0.4-2.6,2.3
		C30.6,106.9,32.3,106.9,34.2,106.8z"/>
	<path class="st0" d="M-6.3,43.9c-0.2,1.1-0.1,2.4,1.5,2.6c0.1,0,0.2-0.1,0.3-0.1c2.1-1.5-0.9-4.1,1.3-5.7c0.5-0.3-0.3-1-0.8-1.3
		c-0.3-0.2-0.6-0.3-1.1-0.5C-7.3,40.1-6,42.3-6.3,43.9"/>
	<path class="st0" d="M79.3,10.2c-0.2-0.4-0.3-0.8-0.5-0.9C78.3,9.1,78,9.5,78,10c0,0.2,0.3,0.6,0.5,0.7
		C78.8,10.7,79,10.4,79.3,10.2z"/>
	<path class="st0" d="M92,76c0.2,0.1,0.3,0.2,0.5,0.4c0,0,0.2-0.2,0.2-0.2c-0.1-0.2-0.2-0.3-0.3-0.5C92.2,75.7,92.1,75.8,92,76z"/>
	<path class="st1" d="M7.1,41c0.3-0.9,0.6-1.9,0.9-2.8c0.1-0.1,0.3-0.1,0.3-0.2c0-0.2-0.1-0.3-0.2-0.5c2.8-8.3,7.5-15.3,13.8-21.3
		c0.6-0.5,1-1,1.8-0.8c0.2,3,1.9,2.2,3.3,1.1c1.9-1.5,3.8-2.8,6.3-2.9c0.9-0.1,2-0.9,2.3,0.5c0.3,1.1-0.7,1.6-1.6,2.1
		c-2.5,1.1-4.9,2.3-7.4,3.4c-0.9,0.4-3.3,6.3-2.6,7.1c1.7,2.1,2.8-0.6,4.3-0.6c1.4-0.1,1.8-0.7,1.5-2.1c-0.5-2.3,1.2-3.1,3-3.6
		c1.1-0.3,2.4-0.4,3.4-0.8c7.5-2.9,11-1.3,13.2,6.3c0.3,0.9,0.9,1.4,1.8,1.5c0.4,1,0.5,2,0.1,3c-0.6,0-1.2,0-1.9,0
		c-2.5-0.1-4.1,1.6-5.7,3.2c-1,1-1,2.3,0.4,2.9c1.9,0.7,3.2,1.7,2,3.6c-1.2,1.8-3.1,3.5-5.6,2.4c-1.8-0.9-3.7-0.9-5.5-1
		c-2.2-0.1-4.7,0.3-5.4,3c-0.8,3.7-0.5,7.6,1.8,10.6c1.8,2.3,4.6,3.8,4.8,7.3c0.1,1,1.3,1.9,2,2.8c0.4,0.5,0.9,0.9,1.5,0.5
		c0.6-0.3,1-0.9,0.8-1.4c-0.2-0.9-0.6-1.8-1.1-2.6c-0.6-1-1.3-1.9-0.3-2.8c1.2-1.1,2.3,0.1,2.5,0.8c0.9,3.1,6.2,4.9,2.7,9.2
		c-0.3,0.4,0,1.4,0.2,2c0.4,1.2,3.2,2.2,0.6,3.6c-1.5,0.8-2.5,3.1-4,2.7c-3.3-0.9-5,0.9-7.2,2.6c-1.2,1-3.8,0.2-3.2-0.9
		c1.4-2.6,1.2-4.6,0-7c-0.1-0.3,0.5-1,0.9-1.4c0.5-0.5,1.2-0.8,1.6-1.4c0.6-0.6,1.7-1.3,0.8-2.4c-1-1.2-2-0.2-2.8,0.3
		c-0.9,0.6-1.4,1.7-2.8,2c-1.9,0.4-2.3,1.7-0.8,3.1c0.9,0.8,1.5,1.6,0.9,2.7c-1,1.8-2.6,2.8-4.7,2.5c-2.6-0.4-3.6-2.7-4.1-4.8
		c-0.5-1.9,1.2-2.9,3.1-3c1.2,0,2.3-0.4,2.2-1.7c-0.1-1.4-0.7-2.9-2.4-3.2c-1.2-0.2-2.4-0.2-3.6,0c-3.5,0.6-5.4-1.4-6.6-4.2
		c-2.1-5.2-4.5-10.3-3.8-16.1C9.5,42.8,9.7,40.9,7.1,41z"/>
	<path class="st2" d="M7.1,41c2.7-0.2,2.4,1.8,2.3,3.4c-0.6,5.8,1.8,10.9,3.8,16.1c1.1,2.8,3.1,4.8,6.6,4.2c1.2-0.2,2.4-0.2,3.6,0
		c1.7,0.3,2.3,1.7,2.4,3.2c0.1,1.3-1.1,1.7-2.2,1.7c-2,0.1-3.6,1.1-3.1,3c0.5,2.1,1.5,4.4,4.1,4.8c2.1,0.3,3.7-0.6,4.7-2.5
		c0.6-1.1,0-1.9-0.9-2.7c-1.5-1.3-1.1-2.7,0.8-3.1c1.4-0.3,1.9-1.3,2.8-2c0.8-0.5,1.8-1.5,2.8-0.3c0.9,1.1-0.2,1.7-0.8,2.4
		c-0.5,0.5-1.1,0.9-1.6,1.4C31.7,71,31,71.7,31.1,72c1.2,2.4,1.4,4.4,0,7c-0.6,1.2,1.9,1.9,3.2,0.9c2.2-1.7,3.9-3.5,7.2-2.6
		c1.4,0.4,2.5-1.9,4-2.7c2.6-1.4-0.3-2.4-0.6-3.6c-0.2-0.7-0.5-1.6-0.2-2c3.5-4.4-1.8-6.2-2.7-9.2c-0.2-0.7-1.3-2-2.5-0.8
		c-1,1-0.3,1.9,0.3,2.8c0.5,0.8,0.9,1.7,1.1,2.6c0.2,0.6-0.2,1.2-0.8,1.4c-0.7,0.3-1.1,0-1.5-0.5c-0.7-0.9-2-1.9-2-2.8
		c-0.2-3.5-3-5-4.8-7.3c-2.3-3-2.6-6.9-1.8-10.6c0.6-2.7,3.2-3.2,5.4-3c1.8,0.1,3.7,0.1,5.5,1c2.5,1.2,4.4-0.5,5.6-2.4
		c1.2-1.9-0.2-2.9-2-3.6c-1.4-0.5-1.4-1.9-0.4-2.9c1.6-1.6,3.2-3.3,5.7-3.2c0,3,0,6,0,9.1c0,1.3,0.1,2.4,1.8,2.3
		c0.3,1.4,0.2,2.9-0.1,4.3c-2.5,1.5-2.5,5.8,0,7.8c0,0.5,0,1,0,1.5c-1.6,1-1.7,2.7-1.7,4.4c0,10.9,0,21.9,0,32.8
		c0,1.3-0.2,2.7,1.8,2.8c-2.8,2.5-5.9,1.3-8.9,0.7c-0.6-0.6-1.2-1.3-2.2-0.7c-1.6-0.5-3.3-1-4.9-1.5c-2.3-2-5.3-2.7-7.9-4.2
		c-3.2-1.2-5.3-3.8-7.8-5.8c-1.3-2.9-3.6-5-5.8-7.1c-1.5-3.2-3.8-6-4.4-9.7c0.3-0.9,0.1-1.6-1-1.8c-1.3-3.8-1.7-7.7-1.9-11.7
		c0.3-1.9,0.3-3.8,0-5.8C6.6,45.6,6.8,43.3,7.1,41z M44.6,49.7c-0.9,0.1-1.5,0.6-1.6,1.5c-0.1,0.9,0.6,1.2,1.4,1.2
		c1,0,1.9-0.4,1.8-1.6C46.1,50.1,45.4,49.8,44.6,49.7z"/>
	<path class="st3" d="M51.1,46.1c0.3-1.4,0.4-2.9,0.1-4.3c0.4-3.8,0.3-7.6,0.1-11.4c0.5-1,0.3-2-0.1-3c0.2-4.1,0.7-8.1-0.2-12.1
		c0,0,0.2-0.2,0.2-0.2l-0.1-0.3c0-0.3,0.1-0.7,0.1-1c0.1-2.4,0.1-4.7,0.2-7.1c1.9-0.1,3.8-0.1,5.7-0.2c1.1,0.4,2.8-0.4,3.1,1.6
		c-1.5,0.2-3.1,0.1-3.6,2.1C56,12,56,10.7,55.7,10.2c-0.5-1.3-1.1-0.5-1.2,0.2c-0.2,0.9-0.1,1.9-0.2,2.8c-0.8,2.5-1.9,5,0.7,7.2
		c2.6,1.7,1,4.3,1.5,6.5l0,0c-1.9,0.2-1.3,1.7-1.4,2.8c-1.2,3.4-1.6,6.8,0.7,10c0,0.9,0,1.9,0,2.8c-1.7-0.1-2.2,0.8-2.2,2.3
		c0.1,1.5-0.3,3.3,1,4.2c1.4,0.9,1-1.9,2.5-1.6c0.2,0,0.5-0.4,0.8-0.6c2.1,0.8,0.8,2.5,0.4,3.1c-2.3,3.6,0.5,7.6-1,11.3
		c-0.1,0.3,0.5,1,0.9,1.4c1.7,1.7,1.5,3.6,0.6,5.5c-1.7,3.7-1.4,7.9-0.4,11.4c0.7,2.5,0.2,3.3-1.4,4.4c-1.9,1.2-1.1,2.8-0.8,4.4
		c0.3,1.8,1.5,2.3,3.1,2.1c3.6-0.6,7.1,0.8,10.9-2c2.4-1.8,3.8-2.4,3.1-5.3c-0.2-0.7,0.6-1.1,0.7-1.5c0.2-2.3,3.5-2.8,3.5-3.3
		c0.6-5.2,4.1-4.3,7.3-3.9c0.9,0.1,1.7,0.4,2.2-0.5c1.1-2.5,3.5-4.5,3.3-7.6c1.3-0.1,1.9-1.9,3.5-1.4c-0.2,1.7-0.5,3.3-0.7,5
		c0,0,0,0,0,0c-2.1,0.9-2,2.9-2.2,4.7c0,0,0,0,0,0C88.5,75,87.7,77,86.9,79c-0.1,0.4-0.3,0.8-0.4,1.2c-0.4,2-3.3,1.6-3.6,3.8
		c0,0,0,0,0,0c-1.4,0.1-2.6,0.5-2.9,2.2l0,0c-1.1-0.1-1.7,0.6-2.3,1.3c-0.8,1.8-2.8,1.2-4.1,2.1c-6.4,4.5-14.1,5.2-21.5,6.3
		c-0.2-0.4-0.4-0.8-0.5-1.2c-0.1-1.2-0.2-2.3-0.2-3.5c-0.2-11.9,0.4-23.9-0.3-35.8c0-0.5,0-1,0-1.5C51.5,51.3,51.6,48.7,51.1,46.1z"
		/>
	<path class="st2" d="M50.9,15.3c1,4,0.5,8.1,0.2,12.1c-0.9-0.2-1.5-0.6-1.8-1.5c-2.2-7.6-5.7-9.2-13.2-6.3
		c-1.1,0.4-2.3,0.4-3.4,0.8c-1.8,0.5-3.4,1.4-3,3.6c0.3,1.4-0.1,2-1.5,2.1c-1.5,0.1-2.6,2.7-4.3,0.6c-0.7-0.8,1.7-6.7,2.6-7.1
		c2.5-1.1,4.9-2.3,7.4-3.4c0.9-0.4,1.9-0.9,1.6-2.1c-0.4-1.5-1.4-0.6-2.3-0.5c-2.5,0.2-4.4,1.4-6.3,2.9c-1.4,1.1-3.1,1.9-3.3-1.1
		c0.2-0.3,0.4-0.6,0.7-0.9c3.1-1.9,6.3-3.8,9.4-5.6c4.3-0.9,8.4-2.6,12.8-2.8c2.8,1.6,3.3,4.2,2.8,7.1c-1.3-0.1-2.6,0.2-3.8-0.7
		c-1.6-1.3-3.1-0.7-4.6,0.2c-0.9,0.5-2.7,0.8-1.9,2.4c0.8,1.6,2.3,2.2,3.8,1.1c1.6-1.2,3.3-1.2,5-0.5C49.1,16.2,50,15.7,50.9,15.3
		L50.9,15.3z"/>
	<path class="st3" d="M45.1,116c-0.1-1.7,0.4-3.4-1.4-4.9c-1.3-1-0.2-1.9,1-2.2c1.2-0.2,2.4-0.1,3.6-0.2c1.3-0.1,1.8-1,1.8-2.2
		c0.1-1.3-0.5-2.1-1.9-1.9c-2.9,0.4-4.3-3.1-7.2-2.6c-0.4,0.1-0.8-0.8-0.7-1.5c0.2-0.9,1-1,1.7-0.9c2,0.1,4-0.1,6-0.7
		c1.3,1.3,2.9,0.5,4.3,0.7c2.9-0.7,3.3,1.9,4,3.5c0.6,1.2-0.7,1.5-1.7,1.5c-2-0.1-2.5,1-2.3,2.7c0,0.1,0,0.2,0,0.4
		c0.7,2.2-1.7,3.6-1.6,5.4c0.1,1.8,4.2-0.2,3.7,3.1"/>
	<path class="st3" d="M68.6-3.6c0,2,0,4,0,6.1c0,1.4-0.9,2.5-2.2,2.1c-2.1-0.6-3.8,0.7-5.7,0.8C60.5,4.2,60.3,3,60,1.8
		c1-0.9,1.8-2.1,1.2-3.4"/>
	<path class="st4" d="M90.8,26.8c1,0,2.3,0,2.4,1c0.2,2.3,2.2,3.8,2.7,5.4c1.3,4.2,4.7,8,3.4,12.9c0,0,0,0,0,0c-0.5,0-0.9,0-1.4,0
		c-0.5-3.2-1.2-6.3-3.5-8.9c0.5,2.7,1,5.4,1.5,8.1c-0.6,0.3-0.8,0.9-0.8,1.5c-0.5-0.2-1-0.5-1.4-0.7c-2-1.4-2.3-3.3-2.2-5.6
		c0.1-1.6,0.3-3.5-2.1-3.7l0,0c0-0.7,0-1.5,0-2.2c0-0.2,0-0.4,0-0.7c2.4-1.3,2.7-2,1.6-2.3c-2.9-0.7-1.6-2.6-1.6-4.1
		C89.9,27.5,90.6,27.6,90.8,26.8z"/>
	<path class="st5" d="M51.1,55.4c0.7,11.9,0.2,23.9,0.3,35.8c0,1.2,0.2,2.3,0.2,3.5c-0.2,0.2-0.3,0.5-0.5,0.7
		c-2-0.1-1.8-1.5-1.8-2.8c0-10.9,0-21.9,0-32.8C49.4,58.1,49.5,56.4,51.1,55.4z"/>
	<path class="st6" d="M52.2,95.9c7.5-1.2,15.1-1.8,21.5-6.3c1.3-0.9,3.3-0.3,4.1-2.1c0.1,0.3,0.1,0.7,0.2,1c0.8,1.6-1.1,2.6-0.8,4
		c-0.6,0-1.2,0-1.5-0.6c-0.4-0.9-0.8-0.7-1.2,0c-1,1.1-2.4,0.9-3.6,1.2c-1.5,0.4-2.3,0.9-2.2,2.5c0.1,1.1-0.2,2.7-1.4,2.5
		C62.2,97,57,97.9,52.2,95.9z"/>
	<path class="st6" d="M60,1.8c0.2,1.2,0.5,2.4,0.7,3.5C63,6.8,65.3,8.8,68.5,6c-0.3,1.4-0.4,2.2-0.5,3c0,0,0,0,0,0
		c-2.6,0.1-5.1-1.2-7.8-0.8c-0.3-1.9-2-1.2-3.1-1.6c0.3-1,0.8-2-1.1-2c-2,0-3.9-0.4-5.9-0.6c-0.2-0.2-0.5-0.5-0.7-0.7
		c0-0.5,0-0.9,0-1.4C53,2.1,56.5,1,60,1.8z"/>
	<path class="st7" d="M95.9,45.3c-0.5-2.7-1-5.4-1.5-8.1c2.3,2.6,3,5.7,3.5,8.9c-1.5,6-0.4,12-0.4,18c-0.8,0.1-1,0.6-1.1,1.2
		c-2.3,0.3-2.1,2-1.8,3.6c-0.6,0.3-1.1,0.5-1.6,0.8c0.2-1.7,0.5-3.3,0.7-5C96.6,58.4,96.7,51.9,95.9,45.3z"/>
	<path class="st8" d="M27.2,89.8c2.6,1.4,5.6,2.2,7.9,4.2c-0.2,1.8,0.9,2.6,2.4,2.8c1.1,0.2,2.5,0.5,2.6-1.3c1-0.6,1.6,0.1,2.2,0.7
		c-2.9,2.7-6.5,1-9.7,1.3c-0.3,0-0.9-0.6-0.9-0.9c-0.2-4-2.9-3.5-5.5-3.2c-0.7,0.1-1.9,0.4-2-0.8c-0.1-1,0.9-1.2,1.8-1.3
		C26.7,91,27.1,90.6,27.2,89.8z"/>
	<path class="st9" d="M-6.3,69.4c0-4.6,1.4-5.8,5.2-4.5c1.5,0.5,2,1.4,1.9,3c-0.1,1.4-0.8,1.9-2,1.8c-1.4-0.1-2.1,0.6-2.6,1.9
		c-0.3,0.8-0.1,2.6-1.8,2.1"/>
	<path class="st10" d="M106.7,39c1.3,0.2,3.4,0,1.7,2.7c-0.2,0.4-0.5,0.9-0.4,1.3c0.3,1.6,1.3,3.7-1.4,3.5c-1.6-0.1-4.7,0.7-4.4-3
		C102.4,40.9,104.1,38.9,106.7,39z"/>
	<path class="st4" d="M96.4,65.3c0.2-0.6,0.4-1.2,1.1-1.2c2.5,1.1,1.8-1,1.8-2c0.1-5.3,0-10.6,0-15.9c0,0,0,0,0,0
		c1.5,0.2,1.4,1.3,1.4,2.4c0,6.2,0,12.5,0,18.7c0,1,0.2,2.3-1.4,2.3c-1.6,0-1.4-1.3-1.4-2.3C97.9,66.1,97.5,65.4,96.4,65.3z"/>
	<path class="st8" d="M46.5,6.2C42.1,6.4,38,8.1,33.7,9c-0.6-0.1-1.1-0.2-1.7-0.2c-0.2-0.4-0.4-0.8-0.6-1.2c2.5,0,5.2,0.3,5-3.5
		c2.4,0,4.8,0,7.2-0.1c0,0,0.3,0,0.3,0s0.3,0,0.3,0C46,5.4,48,4.4,49.9,4.6c-0.2,0.4-0.4,0.9-0.6,1.3C48.4,6,47.4,6.1,46.5,6.2z"/>
	<path class="st6" d="M32.1,8.8c0.6,0.1,1.1,0.2,1.7,0.2c-3.1,1.9-6.3,3.8-9.4,5.6c-0.1-0.3-0.1-0.7-0.3-1c-0.6-0.7-2.8-0.9-2-1.8
		c1-1.1,1.6-3.1,3.8-3C27.9,9,30,8.8,32.1,8.8z"/>
	<path class="st8" d="M13.6,76.8c2.3,2.1,4.5,4.2,5.8,7.1c-0.9,0-1.9,0.1-2.8,0c-1.4-0.2-3.6,0.9-4-1C12,81,11.2,78.5,13.6,76.8z"/>
	<path class="st10" d="M34.2,106.8c-2,0.2-3.6,0.1-3.5-2.6c0.1-2,0.9-2.6,2.6-2.3c1.8,0.3,4.3-0.3,4.6,2.7
		C38.1,107.5,35.8,106.6,34.2,106.8z"/>
	<path class="st3" d="M77.1,92.4c-0.3-1.5,1.6-2.5,0.8-4.1c1.3-0.2,2.2-0.8,2.1-2.3c0,0,0,0,0,0c1.1,0.1,2-0.2,2.8-0.9
		C84.5,89.8,83,91.7,77.1,92.4z"/>
	<path class="st7" d="M76.5,11.8c1.2,2.1,4.7,1.9,5.1,4.9L81.3,17c-4.5-2.7-8.9-5.3-13.4-8c0,0,0,0,0,0c3-1,4.9,1.3,7.1,2.4
		C75.5,11.5,76,11.7,76.5,11.8z"/>
	<path class="st3" d="M61.5,102.5c-1.1-0.3-3.1,0.8-3.1-1c0-1.5,1.8-1.9,3.3-1.8c1.6,0,3.3,0.1,4.9,0c1.6-0.1,2.1,0.8,2,2.2
		C66.2,101.5,63.9,102.1,61.5,102.5z"/>
	<path class="st8" d="M-6.3,43.9c0.3-1.6-1-3.7,1.2-4.9c0.5,0.2,0.8,0.3,1.1,0.5c0.5,0.3,1.3,0.9,0.8,1.3c-2.2,1.6,0.9,4.2-1.3,5.7
		c-0.1,0.1-0.2,0.1-0.3,0.1C-6.4,46.3-6.5,45-6.3,43.9"/>
	<path class="st8" d="M61.5,102.5c2.4-0.3,4.7-1,7.1-0.7c0.2,1.9-0.6,3.1-2.6,2.8C64.4,104.3,61.6,106.1,61.5,102.5z"/>
	<path class="st6" d="M36.5,4c0.2,3.8-2.5,3.5-5,3.5C30.8,3.9,30.8,3.9,36.5,4z"/>
	<path class="st7" d="M82.9,18.3c4.1-0.9,4.1,2.1,4.5,4.7c-0.1,0.1-0.2,0.2-0.3,0.3C85,22.2,83.4,20.6,82.9,18.3L82.9,18.3z"/>
	<path class="st3" d="M44.3,4L44,4c0,0-0.3,0-0.3,0c0.6-4.2,3.9-1.3,5.8-2.1c0,0.5,0,0.9,0,1.4C47.7,3.7,46.1,4.2,44.3,4z"/>
	<path class="st10" d="M92.9,69.7c0.5-0.3,1.1-0.5,1.6-0.8c4.3,2.9-1,2.9-1.3,4.4C93.1,72,93,70.8,92.9,69.7
		C92.9,69.6,92.9,69.7,92.9,69.7z"/>
	<path class="st7" d="M90.8,26.8c-0.2,0.8-0.9,0.8-1.5,0.8c-1.7-0.9-1.9-2.6-2.2-4.3c0.1-0.1,0.2-0.2,0.3-0.3
		C89.3,23.6,89.4,25.8,90.8,26.8z"/>
	<path class="st11" d="M82.9,83.9c0.3-2.1,3.2-1.7,3.6-3.8C87.9,83.7,87.7,83.9,82.9,83.9z"/>
	<path class="st11" d="M86.9,79c0.9-1.9,1.6-3.9,3.9-4.6C90.2,76.5,90,78.9,86.9,79z"/>
	<path class="st10" d="M52.2,99.6c-1.4-0.3-3.1,0.6-4.3-0.7C49.4,98.5,51.6,94.7,52.2,99.6z"/>
	<path class="st7" d="M92.9,69.6c0.1,1.2,0.2,2.4,0.3,3.6c-0.6,0.9-1.6,0.7-2.4,1C90.9,72.5,90.8,70.6,92.9,69.6z"/>
	<path class="st1" d="M6.3,47.9c0.3,1.9,0.3,3.8,0,5.8C5.1,51.7,5.1,49.8,6.3,47.9z"/>
	<path class="st7" d="M81.6,16.7c1-0.2,2-0.7,3.1-0.3c-0.8,0.4-2.1,0.4-1.8,1.9c0,0,0,0,0,0c-0.9,0.1-1.5-0.3-1.6-1.2L81.6,16.7z"/>
	<path class="st11" d="M82.8,85.2c-0.8,0.6-1.7,1-2.8,0.9c0.2-1.7,1.5-2.1,2.9-2.2C82.9,84.4,82.9,84.8,82.8,85.2z"/>
	<path class="st10" d="M76.5,11.8c-0.5-0.2-0.9-0.3-1.4-0.5c0.2-0.7-0.4-2.1,0.8-1.9C77,9.6,76.3,11,76.5,11.8z"/>
	<path class="st10" d="M79.3,10.2c-0.3,0.2-0.6,0.5-0.8,0.5c-0.2-0.1-0.5-0.4-0.5-0.7c0-0.5,0.3-0.9,0.8-0.7
		C79,9.4,79.1,9.8,79.3,10.2z"/>
	<path class="st1" d="M8.2,65.3c1.1,0.2,1.3,0.9,1,1.8C8.7,66.6,8.1,66.1,8.2,65.3z"/>
	<path class="st11" d="M92,76c0.1-0.1,0.2-0.2,0.4-0.3c0.1,0.2,0.2,0.3,0.3,0.5c0,0-0.2,0.2-0.2,0.2C92.3,76.2,92.1,76.1,92,76z"/>
	<path class="st3" d="M74.4,91.8c0.4-0.7,0.8-0.9,1.2,0C75.2,91.8,74.8,91.8,74.4,91.8z"/>
	<path class="st2" d="M8,37.5c0.1,0.2,0.2,0.3,0.2,0.5c0,0-0.2,0.1-0.3,0.2C8,38,8,37.8,8,37.5z"/>
	<path class="st5" d="M51.2,30.4c0.2,3.8,0.3,7.6-0.1,11.4c-1.7,0.1-1.8-1-1.8-2.3c0-3,0-6,0-9.1C50,30.4,50.6,30.4,51.2,30.4z"/>
	<path class="st5" d="M51.1,46.1c0.6,2.6,0.5,5.2,0,7.8C48.6,51.8,48.6,47.5,51.1,46.1z"/>
	<path class="st0" d="M40,95.4c-0.1,1.9-1.5,1.5-2.6,1.3c-1.5-0.2-2.6-1-2.4-2.8C36.7,94.4,38.4,94.9,40,95.4z"/>
	<path class="st12" d="M44.7,49.7c0.8,0,1.5,0.4,1.6,1.1c0.1,1.2-0.8,1.6-1.8,1.6c-0.8,0-1.4-0.3-1.4-1.2
		C43.1,50.3,43.8,49.9,44.7,49.7z"/>
	<path class="st13" d="M90.1,66.1c0.3,3.1-2.2,5.1-3.3,7.6c-0.4,0.9-1.3,0.6-2.2,0.5c-3.2-0.3-6.7-1.2-7.3,3.9
		c-0.1,0.5-3.3,1-3.5,3.3c0,0.5-0.8,0.8-0.7,1.5c0.8,2.9-0.7,3.6-3.1,5.3c-3.8,2.8-7.3,1.5-10.9,2c-1.6,0.2-2.8-0.3-3.1-2.1
		c-0.3-1.6-1.2-3.2,0.8-4.4c1.7-1,2.2-1.8,1.4-4.4c-1-3.5-1.3-7.7,0.4-11.4c0.9-1.9,1.1-3.8-0.6-5.5c-0.4-0.4-1-1.1-0.9-1.4
		c1.5-3.6-1.3-7.6,1-11.3c0.4-0.6,1.7-2.4-0.4-3.1c-1.8-0.9-0.9-3.1-2.1-4.3c0-0.9,0-1.9,0-2.8c2.5-0.1,3.9,2.5,6.4,2.6
		c0.5,0,0.9,0.9,0.6,1.5c-1.3,2.7,0.5,5,0.9,7.5c0.3,2.1,0.5,4.6,3.9,4.3c0.8-0.1,1.1,0.8,1.1,1.6c-0.1,2.1,0.8,2.7,2.8,2.6
		c1.9-0.2,2.3-1.3,2.3-2.9c0-1.7,0-3.5,2.4-3.4c2.3,0.1,3.3,1.9,3.2,3.6c-0.2,3.8,2,5.5,5.2,7.2c-1.7,0.7-2.6,1.6-2.2,3.3
		c0.2,0.7,0.5,1.4,1.3,1.5c1.7,0.2,1.8-1.5,2.7-2.4c1.4-1.3,1.2-3.6,3.1-4.6C92.3,62.8,89.9,64.6,90.1,66.1z M75.1,68.9
		c1.7,0.2,3-0.1,2.9-2.5c-0.1-2-0.6-3.8-2.8-3.7c-2.2,0-3.8,1.9-4.1,3.7C70.7,68.6,72.9,69,75.1,68.9z"/>
	<path class="st14" d="M81.3,17c0.1,1,0.7,1.3,1.6,1.2c0.5,2.4,2.1,4,4.2,5.1c0.3,1.6,0.4,3.4,2.2,4.3c0,1.5-1.2,3.4,1.6,4.1
		c1.1,0.2,0.8,1-1.6,2.3c-1.8,0.3-3.1-2.1-5.1-0.9c-1.8,1.1-3.3,2.3-2.7,4.7c0.6,2.4,0.8,5.2,3.5,6.5c1.5,0.7,2.3-0.1,2.6-1.3
		c0.6-2,1.1-4.1,1.7-6.1c2.4,0.2,2.2,2.1,2.1,3.7c-0.2,2.2,0.2,4.2,2.2,5.6c-0.7,5-2.6,0.4-3.9,0.4c-0.7,1.1-0.3,2.2-0.4,3.2
		c-1.1-0.4-2.4-0.6-3.2-1.4c-1.6-1.5-2.5-1-3.5,0.6c-0.6,0.9-0.9,2.7-2.5,1.7c-1.3-0.8-1.2-2.5-0.5-3.5c1.1-1.5,0.9-2.6-0.6-3.5
		c-0.9-0.6-1.1-1.3-1.3-2.3c-0.7-3.2-2-3.8-4.8-2.2c-1,0.6-1.5,0.3-2.1-0.4c-0.6-0.7-1.1-1.4,0.2-1.9c1.2-0.4,1-1.4,0.4-1.9
		c-2.7-2.6-2.6-8.3-8.6-7.6c-1.4,0.2-2.9-3.1-4.8-0.1c-0.1,0.2-1.1-0.2-1.7-0.4C56,24.7,57.7,22,55,20.4c0.3-0.7,0.5-1.4,0.8-2.1
		c2.9-0.8,5.8,0.3,8.7,0c1-0.1,1.9-0.2,1.9-1.5c0.1-1.1-0.2-2.1-1.3-2.6c-3.9-1.7-6.8-0.9-9.4,2.7c-0.3-1.3,0.8-3.1-1.4-3.7
		c0-0.9,0-1.9,0.2-2.8c0.2-0.7,0.7-1.5,1.2-0.2c0.2,0.6,0.3,1.8,0.8,0.1c0.5-2,2.1-1.9,3.6-2.1c2.7-0.5,5.2,0.8,7.8,0.8
		C72.4,11.6,76.9,14.3,81.3,17z M73.5,27.8c-1-1.4-1.5-3.4-3.8-3.6c-1.1-0.1-1.1,0.7-1.1,1.4c0.1,1.9,0.9,3.4,2.9,3.9
		C72.6,29.8,73.3,29.1,73.5,27.8z"/>
	<path class="st15" d="M56.5,26.8c0.6,0.1,1.6,0.5,1.7,0.4c1.8-3,3.4,0.3,4.8,0.1c6-0.7,5.9,5,8.6,7.6c0.6,0.6,0.8,1.5-0.4,1.9
		c-1.3,0.5-0.9,1.2-0.2,1.9c0.6,0.6,1.2,1,2.1,0.4c2.8-1.7,4.1-1.1,4.8,2.2c0.2,1,0.4,1.8,1.3,2.3c1.5,0.9,1.6,2,0.6,3.5
		c-0.7,1-0.9,2.7,0.5,3.5c1.6,1,1.9-0.9,2.5-1.7c1-1.5,1.9-2,3.5-0.6c0.8,0.7,2.1,0.9,3.2,1.4c-0.8,2.5,2,3.6,2.1,5.7
		c-1.2,0.6-0.2,2.8-2.1,2.8c-0.1-0.7,0.3-1.6-0.8-2.6c0.4,1.8-1.8,2.4-1.1,4c0.3,0.7,1.2-0.1,1.9,0c0,0.7,0,1.5,0,2.2
		c-1.8,1-1.7,3.3-3.1,4.6c-0.9,0.8-1,2.6-2.7,2.4c-0.8-0.1-1.1-0.8-1.3-1.5c-0.4-1.7,0.5-2.6,2.2-3.3c-3.2-1.7-5.5-3.4-5.2-7.2
		c0.1-1.7-0.9-3.5-3.2-3.6c-2.4-0.1-2.5,1.7-2.4,3.4c0,1.6-0.3,2.8-2.3,2.9c-2,0.2-2.9-0.5-2.8-2.6c0.1-0.7-0.2-1.7-1.1-1.6
		c-3.3,0.4-3.5-2.2-3.9-4.3c-0.4-2.5-2.2-4.8-0.9-7.5c0.3-0.6-0.1-1.5-0.6-1.5c-2.5-0.2-3.8-2.7-6.4-2.6c-2.3-3.2-1.9-6.6-0.7-10
		C57,29.4,56.4,27.9,56.5,26.8L56.5,26.8z"/>
	<path class="st0" d="M89.3,58.2c1.9,0,1-2.2,2.1-2.8c1.3,2.1-1.3,4.7,1,7c2.5-5.2,2.9-10.3,2.6-15.7c0-0.6,0.2-1.2,0.8-1.5
		c0.9,6.7,0.7,13.2-2.3,19.4c-1.5-0.5-2.2,1.3-3.5,1.4c-0.3-1.4,2.2-3.3-0.7-4.3c0-0.7,0-1.5,0-2.2C89.3,59.2,89.3,58.7,89.3,58.2z"
		/>
	<path class="st12" d="M51,15.3c-1,0.4-1.9,0.9-3,0.5c-1.7-0.7-3.4-0.6-5,0.5c-1.6,1.1-3.1,0.5-3.8-1.1c-0.8-1.6,1-1.9,1.9-2.4
		c1.5-0.9,3-1.5,4.6-0.2c1.1,0.9,2.5,0.5,3.8,0.7c0.5,0.8,1.2,0.6,1.9,0.6c0,0.3-0.1,0.7-0.1,1C51.1,15,51.1,15.2,51,15.3z"/>
	<path class="st8" d="M55.8,42.5c1.2,1.2,0.3,3.4,2.1,4.3c-0.3,0.2-0.6,0.7-0.8,0.6c-1.4-0.3-1.1,2.5-2.5,1.6c-1.4-0.9-1-2.7-1-4.2
		C53.5,43.3,54.1,42.4,55.8,42.5z"/>
	<path class="st5" d="M51.2,13.9c-0.7,0-1.5,0.2-1.9-0.6c0.5-2.9,0-5.5-2.8-7.1c0.9-0.1,1.9-0.2,2.8-0.3c0.7,0.3,1.4,0.6,2.1,0.9
		C51.3,9.2,51.3,11.5,51.2,13.9z"/>
	<path class="st7" d="M51.4,6.8c-0.7-0.3-1.4-0.6-2.1-0.9c0.2-0.4,0.4-0.9,0.6-1.3C50,4.4,50,4.2,50.1,3.9C52,4.2,54,4.6,56,4.6
		c1.9,0,1.4,1,1.1,2C55.2,6.7,53.3,6.8,51.4,6.8z"/>
	<path class="st8" d="M55.8,18.2c-0.3,0.7-0.5,1.4-0.8,2.1c-2.6-2.2-1.5-4.7-0.7-7.2c2.2,0.5,1.2,2.4,1.4,3.7
		C55.8,17.3,55.8,17.8,55.8,18.2z"/>
	<path class="st14" d="M56.5,26.8c-0.1,1.1,0.5,2.6-1.4,2.8C55.2,28.5,54.6,27,56.5,26.8z"/>
	<path class="st11" d="M80.1,86.1c0.1,1.5-0.8,2.1-2.1,2.3c-0.1-0.3-0.1-0.7-0.2-1C78.4,86.7,79,86,80.1,86.1z"/>
	<path class="st5" d="M51,15.3c0.1-0.1,0.2-0.2,0.1-0.4c0,0,0.1,0.3,0.1,0.3S50.9,15.3,51,15.3C50.9,15.3,51,15.3,51,15.3z"/>
	<path class="st15" d="M89.3,36.8c-0.6,2-1,4.1-1.7,6.1c-0.4,1.3-1.1,2.1-2.6,1.3c-2.7-1.3-2.9-4.1-3.5-6.5
		c-0.6-2.4,0.9-3.7,2.7-4.7c2-1.2,3.3,1.2,5.1,0.9c0,0.2,0,0.4,0,0.7C88.4,35.3,88.4,36.1,89.3,36.8L89.3,36.8z"/>
	<path class="st13" d="M95,46.8c0.3,5.3-0.1,10.5-2.6,15.7c-2.3-2.3,0.4-4.9-1-7c-0.2-2.1-2.9-3.3-2.1-5.7c0.1-1-0.2-2.1,0.4-3.2
		c1.3,0,3.2,4.6,3.9-0.4C94.1,46.3,94.6,46.5,95,46.8z"/>
	<path class="st0" d="M99.3,46.1c0,5.3,0,10.6,0,15.9c0,1,0.7,3.1-1.8,2c0-6-1-12,0.4-17.9C98.4,46.1,98.9,46.1,99.3,46.1z"/>
	<path class="st14" d="M89.3,36.8c-1-0.7-0.9-1.5,0-2.2C89.3,35.3,89.3,36.1,89.3,36.8z"/>
	<path class="st0" d="M50.1,3.9c0,0.2-0.1,0.4-0.1,0.7C48,4.4,46,5.4,44.3,4c1.8,0.2,3.4-0.3,5.1-0.7C49.6,3.5,49.8,3.7,50.1,3.9z"
		/>
	<path class="st15" d="M75.1,68.9c-2.2,0.1-4.3-0.4-4-2.6c0.3-1.8,1.9-3.7,4.1-3.7c2.2,0,2.7,1.7,2.8,3.7
		C78.1,68.8,76.7,69.1,75.1,68.9z"/>
	<path class="st15" d="M55.8,18.2c0-0.5,0-1,0-1.4c2.6-3.6,5.5-4.4,9.4-2.7c1.2,0.5,1.4,1.5,1.3,2.6c-0.1,1.3-0.9,1.4-1.9,1.5
		C61.6,18.5,58.7,17.4,55.8,18.2z"/>
	<path class="st15" d="M73.5,27.8c-0.2,1.3-1,2-2,1.7c-2-0.5-2.8-2-2.9-3.9c0-0.7,0-1.5,1.1-1.4C72,24.5,72.6,26.4,73.5,27.8z"/>
	<path class="st13" d="M89.3,58.2c0,0.5,0,0.9,0,1.4c-0.7-0.1-1.6,0.7-1.9,0c-0.7-1.6,1.5-2.2,1.1-4C89.7,56.7,89.2,57.5,89.3,58.2z
		"/>
</g>
<g>
	<path class="st16" d="M90.8,126.5H15c-2.2,0-4-1.8-4-4v-23c0-2.2,1.8-4,4-4h75.8c2.2,0,4,1.8,4,4v23
		C94.8,124.7,93,126.5,90.8,126.5z"/>
	<g>
		<path class="st17" d="M31.9,113c-0.1-2-0.1-4.4-0.1-6.8h-0.1c-0.5,2.1-1.2,4.4-1.8,6.4l-2,6.4H25l-1.8-6.4
			c-0.5-1.9-1.1-4.3-1.5-6.4l0,0c-0.1,2.2-0.2,4.8-0.3,6.8l-0.3,6.3h-3.4l1.1-16.5h5l1.6,5.5c0.5,1.9,1,4,1.4,5.9h0.1
			c0.5-1.9,1-4.1,1.6-5.9l1.8-5.5h4.9l0.9,16.5h-3.6L31.9,113z"/>
		<path class="st17" d="M53.7,110.9c0,5.4-3.3,8.7-8.1,8.7c-4.9,0-7.7-3.7-7.7-8.4c0-4.9,3.2-8.6,8-8.6
			C51,102.6,53.7,106.3,53.7,110.9z M41.8,111.1c0,3.2,1.5,5.5,4,5.5s4-2.4,4-5.6c0-3-1.4-5.5-4-5.5
			C43.3,105.5,41.8,107.9,41.8,111.1z"/>
		<path class="st17" d="M71.2,110.9c0,5.4-3.3,8.7-8.1,8.7c-4.9,0-7.7-3.7-7.7-8.4c0-4.9,3.2-8.6,8-8.6
			C68.5,102.6,71.2,106.3,71.2,110.9z M59.3,111.1c0,3.2,1.5,5.5,4,5.5c2.5,0,4-2.4,4-5.6c0-3-1.4-5.5-4-5.5
			C60.8,105.5,59.3,107.9,59.3,111.1z"/>
		<path class="st17" d="M73.7,119.3v-16.5H78l3.4,6c1,1.7,2,3.8,2.7,5.6h0.1c-0.2-2.2-0.3-4.4-0.3-6.9v-4.8h3.4v16.5h-3.9l-3.5-6.4
			c-1-1.8-2.1-3.9-2.9-5.8h-0.1c0.1,2.2,0.1,4.5,0.1,7.2v5h-3.3C73.7,119.2,73.7,119.3,73.7,119.3z"/>
	</g>
</g>
</svg>
