<?xml version="1.0" encoding="utf-8"?>
<!-- Generator: Adobe Illustrator 25.0.0, SVG Export Plug-In . SVG Version: 6.00 Build 0)  -->
<svg version="1.1" id="Layer_1" xmlns="http://www.w3.org/2000/svg" xmlns:xlink="http://www.w3.org/1999/xlink" x="0px" y="0px"
	 width="105.5px" height="129px" viewBox="0 0 105.5 129" style="enable-background:new 0 0 105.5 129;" xml:space="preserve">
<style type="text/css">
	.st0{fill:#FCFCFC;}
	.st1{fill:#4B5D65;}
	.st2{fill:#2D3C44;}
	.st3{fill:#F2F5F4;}
	.st4{fill:#EBEDEE;}
	.st5{fill:#252D32;}
	.st6{fill:#D0D7D8;}
	.st7{fill:#A5B0B2;}
	.st8{fill:#DDE2E3;}
	.st9{fill:#EEF1F2;}
	.st10{fill:#E5E8EA;}
	.st11{fill:#B7C0C4;}
	.st12{fill:#495C64;}
	.st13{fill:#F8F4EC;}
	.st14{fill:#F7F4EC;}
	.st15{fill:#E9E0DB;}
	.st16{fill:#48A6DD;}
	.st17{fill:#FFFFFF;}
</style>
<g>
	<path class="st0" d="M51.8,108.7c-0.2-1.8,0.3-2.9,2.4-2.8c1,0.1,2.4-0.3,1.8-1.5c-0.8-1.7-1.2-4.3-4.2-3.6
		c-0.7-5.2-2.9-1.2-4.5-0.8c-2,0.7-4.1,0.9-6.2,0.8c-0.7,0-1.6,0-1.8,1c-0.1,0.7,0.3,1.6,0.7,1.5c3.1-0.5,4.5,3.1,7.5,2.7
		c1.4-0.2,2,0.6,2,2"/>
	<path class="st0" d="M51.1-8.5c-0.9,0-1.9,0.3-1.9,1.4c0,1.3,1.1,1.5,2.1,1.6c2.2,0,4.5,0,6.7,0.1c1.1,0,2.7-0.6,3.3,0.9
		c0.6,1.4-0.2,2.6-1.3,3.6c-3.7-0.9-7.4,0.3-11.1,0c-2,0.9-5.3-2.2-6,2.2c-2.5,0-5,0-7.5,0.1C29.5,1,29.5,1,30.2,4.8
		c0.2,0.4,0.4,0.8,0.6,1.3c-2.2,0.1-4.4,0.2-6.6,0.2c-2.3-0.1-2.9,2-3.9,3.1c-0.8,0.9,1.5,1.1,2.1,1.8c0.2,0.3,0.2,0.7,0.3,1
		c-0.2,0.3-0.5,0.6-0.7,0.9c-0.8-0.2-1.3,0.2-1.9,0.8C13.6,20.1,8.8,27.5,5.8,36.1c0,0.2-0.1,0.5-0.1,0.7c-0.3,1-0.6,1.9-0.9,2.9
		c-0.3,2.4-0.5,4.8-0.8,7.1c-1.2,2-1.2,4,0,6C4.2,57,4.6,61.1,6,65c0,0.8,0.6,1.3,1.1,1.9c0.6,3.8,3,6.7,4.6,10.1
		c-2.4,1.8-1.6,4.3-1.1,6.4c0.5,1.9,2.7,0.8,4.2,1c1,0.1,2,0,2.9,0c2.6,2.1,4.8,4.9,8.1,6.1c-0.1,0.8-0.5,1.3-1.4,1.4
		c-0.9,0.1-1.9,0.3-1.9,1.3c0.1,1.2,1.3,0.9,2.1,0.8c2.8-0.3,5.6-0.8,5.8,3.4c0,0.3,0.6,1,0.9,0.9c3.4-0.3,7.1,1.5,10.1-1.3
		c3.2,0.7,6.4,1.9,9.3-0.7c0.2-0.2,0.4-0.5,0.5-0.7c0.2,0.4,0.4,0.8,0.6,1.2c5,2.2,10.5,1.2,15.7,2.2c1.2,0.2,1.5-1.4,1.4-2.6
		c-0.1-1.7,0.7-2.2,2.3-2.6c1.2-0.3,2.7-0.2,3.7-1.3c0.4,0,0.9,0,1.3,0c0.3,0.6,0.9,0.7,1.6,0.7c6.1-0.8,7.7-2.7,5.9-7.5
		c0-0.5,0.1-0.9,0.1-1.4l0,0c5-0.1,5.2-0.3,3.7-3.9c0.1-0.4,0.3-0.8,0.4-1.3c3.2,0,3.5-2.6,4.1-4.8c0,0,0,0,0,0
		c0.9-0.4,1.9-0.2,2.5-1.1c0.4-1.5,5.9-1.5,1.4-4.6c-0.3-1.7-0.5-3.4,1.9-3.8c1.2,0.2,1.6,0.9,1.6,2c0,1.1-0.2,2.4,1.5,2.4
		c1.7,0,1.4-1.4,1.4-2.4c0-6.5,0-13,0-19.5c0-1.1,0.1-2.3-1.5-2.5c1.4-5.1-2.1-9.1-3.5-13.4c-0.5-1.6-2.6-3.2-2.8-5.6
		c-0.1-1-1.5-1.1-2.5-1.1c-1.5-1.1-1.6-3.3-3.6-4c-0.4-2.7-0.5-5.8-4.7-4.9c-0.3-1.5,1.1-1.5,1.9-1.9c-1.2-0.4-2.2,0.1-3.2,0.3
		c-0.4-3.1-4-2.9-5.3-5.1c-0.2-0.9,0.5-2.3-0.7-2.5c-1.2-0.2-0.6,1.2-0.8,2c-2.4-1.2-4.3-3.5-7.4-2.5c0.1-0.8,0.3-1.6,0.6-3.1
		c-3.3,3-5.6,0.9-8-0.7c2-0.1,3.7-1.5,5.9-0.8C68,2.1,68.9,1,68.9-0.5c0-2.1,0-4.2,0-6.3"/>
	<path class="st0" d="M68.9,103c0.1-1.5-0.4-2.3-2.1-2.3c-1.7,0.1-3.4,0.1-5.1,0c-1.6,0-3.5,0.4-3.5,1.9c0,1.9,2.1,0.7,3.3,1.1
		c0.1,3.7,3,1.9,4.7,2.2C68.3,106.2,69.1,105,68.9,103z"/>
	<path class="st0" d="M-6.5,71.5c0.5-1.3,1.2-2.1,2.7-2c1.3,0.1,2.1-0.5,2.1-1.9c0.1-1.6-0.5-2.6-2-3.1c-4-1.3-5.4-0.1-5.4,4.7"/>
	<path class="st0" d="M108.6,37.6c-2.7,0-4.5,2-4.7,4.8c-0.3,3.8,3,2.9,4.6,3.1c2.9,0.3,1.8-2,1.5-3.7"/>
	<path class="st0" d="M33.1,108.2c1.6-0.2,4.1,0.8,3.8-2.4c-0.2-3.1-2.8-2.5-4.7-2.8c-1.8-0.3-2.7,0.4-2.7,2.4"/>
	<path class="st0" d="M-7.9,37.6c-2.3,1.2-0.9,3.4-1.2,5.1c-0.2,1.2-0.2,2.5,1.6,2.7c0.1,0,0.2-0.1,0.3-0.1c2.2-1.5-0.9-4.3,1.3-5.9
		c0.5-0.3-0.3-1-0.9-1.3C-7,37.9-7.4,37.8-7.9,37.6z"/>
	<path class="st0" d="M80.1,7.6c-0.2-0.4-0.3-0.9-0.5-0.9c-0.6-0.2-0.9,0.2-0.8,0.8c0,0.3,0.3,0.6,0.6,0.7
		C79.5,8.2,79.8,7.8,80.1,7.6z"/>
	<path class="st0" d="M93.3,76.1c0.2,0.1,0.3,0.3,0.5,0.4c0,0,0.2-0.2,0.2-0.2c-0.1-0.2-0.2-0.3-0.3-0.5
		C93.5,75.8,93.4,76,93.3,76.1z"/>
	<path class="st1" d="M4.8,39.7c0.3-1,0.6-1.9,0.9-2.9C5.8,36.7,6,36.6,6,36.6c0-0.2-0.1-0.4-0.2-0.5c2.9-8.6,7.8-15.9,14.4-22.2
		c0.6-0.5,1-1,1.9-0.8c0.2,3.2,2,2.3,3.4,1.1c2-1.6,4-2.9,6.6-3.1c0.9-0.1,2-1,2.4,0.6c0.3,1.2-0.7,1.7-1.7,2.1
		c-2.6,1.2-5.1,2.4-7.7,3.6c-1,0.5-3.4,6.5-2.7,7.4c1.7,2.1,2.9-0.6,4.5-0.7c1.4-0.1,1.8-0.7,1.5-2.2c-0.5-2.4,1.3-3.2,3.1-3.8
		c1.2-0.4,2.5-0.4,3.6-0.8c7.8-3,11.5-1.3,13.8,6.6c0.3,1,0.9,1.4,1.8,1.6c0.4,1,0.5,2.1,0.1,3.1c-0.6,0-1.3,0-1.9,0
		c-2.6-0.1-4.3,1.7-5.9,3.3c-1.1,1.1-1.1,2.4,0.4,3c1.9,0.7,3.4,1.8,2.1,3.7c-1.2,1.9-3.3,3.7-5.8,2.5c-1.9-0.9-3.9-0.9-5.7-1.1
		c-2.3-0.2-4.9,0.4-5.6,3.2c-0.9,3.9-0.5,7.9,1.9,11c1.9,2.4,4.8,4,5,7.6c0.1,1,1.4,2,2.1,3c0.4,0.5,0.9,0.9,1.6,0.6
		c0.6-0.3,1-0.9,0.9-1.5c-0.2-0.9-0.6-1.9-1.2-2.7c-0.6-1-1.3-2-0.3-3c1.3-1.2,2.4,0.1,2.7,0.9c0.9,3.2,6.5,5.1,2.8,9.6
		c-0.3,0.4,0,1.4,0.2,2.1c0.4,1.2,3.3,2.2,0.7,3.7c-1.6,0.9-2.6,3.3-4.1,2.8c-3.4-1-5.3,0.9-7.5,2.7c-1.3,1-4,0.2-3.3-1
		c1.5-2.7,1.3-4.8,0-7.2c-0.1-0.3,0.5-1.1,1-1.5c0.5-0.5,1.2-0.9,1.7-1.4c0.6-0.7,1.8-1.3,0.9-2.5c-1-1.2-2.1-0.2-2.9,0.3
		c-1,0.6-1.5,1.8-2.9,2c-2,0.4-2.4,1.8-0.8,3.2c1,0.8,1.6,1.7,1,2.8c-1,1.9-2.7,2.9-4.9,2.6c-2.7-0.4-3.8-2.8-4.3-5
		c-0.5-2,1.2-3,3.2-3.1c1.2,0,2.4-0.4,2.3-1.8c-0.1-1.5-0.7-3-2.5-3.3c-1.2-0.2-2.5-0.2-3.7,0c-3.7,0.6-5.7-1.4-6.8-4.3
		c-2.2-5.4-4.6-10.7-4-16.8C7.3,41.6,7.6,39.5,4.8,39.7z"/>
	<path class="st2" d="M4.8,39.7c2.8-0.2,2.5,1.9,2.3,3.5C6.5,49.3,9,54.6,11.2,60c1.2,2.9,3.2,5,6.8,4.3c1.2-0.2,2.5-0.2,3.7,0
		c1.8,0.3,2.4,1.8,2.5,3.3c0.1,1.4-1.1,1.8-2.3,1.8c-2,0.1-3.7,1.1-3.2,3.1c0.5,2.1,1.6,4.5,4.3,5c2.2,0.4,3.9-0.7,4.9-2.6
		c0.6-1.1,0-2-1-2.8c-1.6-1.4-1.2-2.8,0.8-3.2c1.4-0.3,1.9-1.4,2.9-2c0.9-0.6,1.9-1.6,2.9-0.3c0.9,1.1-0.2,1.8-0.9,2.5
		c-0.5,0.5-1.2,0.9-1.7,1.4c-0.4,0.4-1.1,1.2-1,1.5c1.2,2.5,1.4,4.5,0,7.2c-0.7,1.2,2,2,3.3,1c2.2-1.8,4.1-3.7,7.5-2.7
		c1.5,0.4,2.6-2,4.1-2.8c2.7-1.5-0.3-2.5-0.7-3.7c-0.2-0.7-0.6-1.7-0.2-2.1c3.6-4.6-1.9-6.4-2.8-9.6c-0.2-0.8-1.4-2.1-2.7-0.9
		c-1.1,1-0.4,2,0.3,3c0.5,0.8,0.9,1.7,1.2,2.7c0.2,0.6-0.2,1.2-0.9,1.5c-0.7,0.3-1.2,0-1.6-0.6c-0.8-1-2.1-1.9-2.1-3
		c-0.2-3.6-3.2-5.2-5-7.6c-2.4-3.1-2.7-7.1-1.9-11c0.6-2.8,3.3-3.3,5.6-3.2c1.9,0.1,3.8,0.2,5.7,1.1c2.6,1.2,4.6-0.5,5.8-2.5
		c1.3-1.9-0.2-3-2.1-3.7c-1.5-0.6-1.5-1.9-0.4-3c1.7-1.6,3.3-3.4,5.9-3.3c0,3.1,0,6.3,0,9.4c0,1.4,0.1,2.5,1.9,2.4
		c0.4,1.5,0.2,3-0.1,4.5c-2.6,1.5-2.6,6,0,8.1c0,0.5,0,1,0,1.5c-1.7,1.1-1.8,2.9-1.8,4.6c0,11.4,0,22.8,0,34.2
		c0,1.4-0.2,2.9,1.9,2.9c-2.9,2.6-6.1,1.4-9.3,0.7c-0.7-0.6-1.3-1.4-2.3-0.7c-1.7-0.5-3.4-1-5.1-1.5c-2.4-2.1-5.5-2.8-8.2-4.3
		c-3.3-1.2-5.5-3.9-8.1-6.1c-1.4-3-3.7-5.2-6.1-7.4c-1.6-3.3-4-6.3-4.6-10.1c0.3-1,0.1-1.7-1.1-1.9c-1.3-3.9-1.8-8-2-12.2
		c0.4-2,0.3-4,0-6C4.3,44.5,4.6,42.1,4.8,39.7z M44,48.8c-0.9,0.1-1.6,0.6-1.7,1.6c-0.1,1,0.6,1.2,1.4,1.2c1.1,0,2-0.4,1.9-1.7
		C45.5,49.2,44.8,48.8,44,48.8z"/>
	<path class="st3" d="M50.7,45c0.3-1.5,0.4-3,0.1-4.5c0.5-3.9,0.3-7.9,0.1-11.8c0.5-1,0.3-2.1-0.1-3.1c0.2-4.2,0.7-8.5-0.3-12.7
		c0,0,0.2-0.2,0.2-0.2l-0.1-0.3c0-0.3,0.1-0.7,0.1-1C50.9,9,50.9,6.5,51,4.1c2-0.1,3.9-0.1,5.9-0.2c1.1,0.4,2.9-0.4,3.2,1.6
		c-1.6,0.2-3.2,0.1-3.8,2.2c-0.5,1.8-0.5,0.5-0.8-0.1C55,6.2,54.4,7,54.3,7.7c-0.2,0.9-0.1,2-0.2,2.9c-0.8,2.6-2,5.2,0.7,7.5
		c2.7,1.7,1,4.5,1.5,6.7l0,0c-2,0.2-1.4,1.8-1.5,2.9c-1.2,3.6-1.7,7.1,0.7,10.4c0,1,0,2,0,3c-1.8-0.1-2.3,0.8-2.2,2.4
		c0.1,1.6-0.4,3.4,1.1,4.4c1.4,0.9,1.1-2,2.6-1.7c0.2,0,0.5-0.4,0.8-0.6c2.2,0.8,0.8,2.6,0.4,3.3c-2.4,3.8,0.5,7.9-1,11.7
		c-0.1,0.3,0.5,1.1,0.9,1.5c1.8,1.8,1.5,3.7,0.6,5.7c-1.8,3.9-1.5,8.2-0.4,11.9c0.8,2.6,0.3,3.5-1.5,4.6c-2,1.3-1.1,2.9-0.8,4.6
		c0.3,1.8,1.5,2.4,3.2,2.2c3.8-0.6,7.4,0.8,11.4-2.1c2.4-1.8,4-2.5,3.2-5.5c-0.2-0.7,0.6-1.1,0.7-1.6c0.3-2.4,3.6-2.9,3.7-3.5
		c0.6-5.4,4.2-4.4,7.6-4.1c0.9,0.1,1.8,0.4,2.2-0.5c1.1-2.6,3.7-4.7,3.4-7.9c1.4-0.1,2-2,3.6-1.5c-0.2,1.7-0.5,3.5-0.7,5.2
		c0,0,0,0,0,0c-2.2,1-2.1,3-2.3,4.9c0,0,0,0,0,0c-2.4,0.7-3.2,2.8-4.1,4.8c-0.1,0.4-0.3,0.8-0.4,1.3c-0.4,2.1-3.4,1.7-3.7,3.9
		c0,0,0,0,0,0c-1.5,0.1-2.7,0.5-3,2.2l0,0c-1.1-0.1-1.8,0.6-2.4,1.4c-0.8,1.9-2.9,1.3-4.2,2.2c-6.7,4.7-14.7,5.4-22.4,6.6
		c-0.2-0.4-0.4-0.8-0.6-1.2c-0.1-1.2-0.2-2.4-0.3-3.6c-0.2-12.4,0.4-24.9-0.3-37.3c0-0.5,0-1,0-1.5C51.2,50.4,51.2,47.7,50.7,45z"/>
	<path class="st2" d="M50.5,12.9c1,4.2,0.5,8.4,0.3,12.7c-0.9-0.2-1.5-0.6-1.8-1.6c-2.3-7.9-6-9.6-13.8-6.6
		c-1.1,0.4-2.4,0.5-3.6,0.8c-1.8,0.6-3.6,1.4-3.1,3.8c0.3,1.5-0.1,2.1-1.5,2.2c-1.5,0.1-2.7,2.8-4.5,0.7c-0.7-0.8,1.8-6.9,2.7-7.4
		c2.6-1.2,5.1-2.4,7.7-3.6c0.9-0.4,1.9-1,1.7-2.1c-0.4-1.5-1.5-0.6-2.4-0.6c-2.6,0.2-4.6,1.5-6.6,3.1c-1.5,1.2-3.2,2-3.4-1.1
		c0.2-0.3,0.5-0.6,0.7-0.9c3.3-2,6.5-3.9,9.8-5.9c4.4-0.9,8.7-2.7,13.3-2.9c2.9,1.7,3.5,4.3,2.9,7.4c-1.3-0.2-2.7,0.2-3.9-0.7
		c-1.7-1.4-3.3-0.7-4.8,0.2c-1,0.6-2.8,0.8-2,2.5c0.8,1.6,2.4,2.3,4,1.1c1.7-1.2,3.4-1.2,5.2-0.5C48.6,13.9,49.6,13.3,50.5,12.9
		L50.5,12.9z"/>
	<path class="st3" d="M49.6,108c0.1-1.4-0.6-2.2-2-2c-3,0.4-4.5-3.2-7.5-2.7c-0.4,0.1-0.9-0.8-0.7-1.5c0.2-0.9,1-1,1.8-1
		c2.1,0.1,4.2-0.1,6.2-0.8c1.3,1.4,3,0.5,4.5,0.8c3-0.7,3.4,1.9,4.2,3.6c0.6,1.3-0.7,1.6-1.8,1.5c-2.1-0.1-2.6,1-2.4,2.8"/>
	<path class="st3" d="M68.9-6.8c0,2.1,0,4.2,0,6.3c0,1.5-1,2.6-2.3,2.2c-2.2-0.7-3.9,0.8-5.9,0.8c-0.2-1.2-0.5-2.5-0.7-3.7
		c1.1-1,1.8-2.2,1.3-3.6c-0.6-1.5-2.2-0.8-3.3-0.9c-2.2-0.1-4.4,0-6.7-0.1c-1,0-2.1-0.2-2.1-1.6c0-1.1,1-1.4,1.9-1.4"/>
	<path class="st4" d="M92.1,24.9c1,0,2.4,0,2.5,1.1c0.2,2.4,2.3,4,2.8,5.6c1.4,4.4,4.9,8.3,3.5,13.4c0,0,0,0,0,0c-0.5,0-1,0-1.5,0
		c-0.5-3.3-1.3-6.6-3.7-9.3c0.5,2.8,1,5.6,1.5,8.4c-0.7,0.3-0.8,0.9-0.9,1.6c-0.5-0.2-1-0.5-1.5-0.7c-2.1-1.4-2.4-3.5-2.3-5.8
		c0.1-1.7,0.3-3.6-2.2-3.9l0,0c0-0.8,0-1.5,0-2.3c0-0.2,0-0.5,0-0.7c2.5-1.3,2.8-2.1,1.7-2.4c-3-0.7-1.6-2.7-1.7-4.3
		C91.1,25.7,91.8,25.7,92.1,24.9z"/>
	<path class="st5" d="M50.7,54.7c0.7,12.4,0.2,24.8,0.3,37.3c0,1.2,0.2,2.4,0.3,3.6c-0.2,0.2-0.4,0.5-0.5,0.7
		c-2-0.1-1.9-1.5-1.9-2.9c0-11.4,0-22.8,0-34.2C48.9,57.5,49,55.7,50.7,54.7z"/>
	<path class="st6" d="M51.8,96.8c7.8-1.2,15.7-1.9,22.4-6.6c1.4-1,3.4-0.3,4.2-2.2c0.1,0.3,0.1,0.7,0.2,1c0.8,1.6-1.1,2.7-0.9,4.2
		c-0.6,0-1.2,0-1.5-0.7c-0.4-0.9-0.8-0.8-1.3,0c-1,1.1-2.5,1-3.7,1.3c-1.6,0.4-2.4,0.9-2.3,2.6c0.1,1.1-0.2,2.8-1.4,2.6
		C62.3,98,56.8,99,51.8,96.8z"/>
	<path class="st6" d="M60-1.1c0.2,1.2,0.5,2.5,0.7,3.7c2.4,1.5,4.7,3.6,8,0.7c-0.3,1.5-0.4,2.3-0.6,3.1c0,0,0,0,0,0
		c-2.7,0.1-5.4-1.3-8.1-0.8c-0.3-2-2-1.2-3.2-1.6c0.3-1.1,0.8-2.1-1.1-2.1c-2.1,0-4.1-0.4-6.2-0.7c-0.2-0.3-0.5-0.5-0.7-0.8
		c0-0.5,0-1,0-1.4C52.6-0.8,56.3-2,60-1.1z"/>
	<path class="st7" d="M97.3,44.1c-0.5-2.8-1-5.6-1.5-8.4c2.4,2.7,3.2,6,3.7,9.3C98,51.2,99,57.4,99,63.7c-0.8,0.1-1,0.6-1.2,1.3
		c-2.4,0.4-2.2,2.1-1.9,3.8c-0.6,0.3-1.1,0.5-1.7,0.8c0.2-1.7,0.5-3.5,0.7-5.2C98.1,57.8,98.2,51,97.3,44.1z"/>
	<path class="st8" d="M25.8,90.5c2.7,1.5,5.8,2.3,8.2,4.3c-0.2,1.9,0.9,2.7,2.5,2.9c1.1,0.2,2.6,0.5,2.7-1.4
		c1.1-0.7,1.7,0.1,2.3,0.7c-3.1,2.8-6.7,1-10.1,1.3c-0.3,0-0.9-0.6-0.9-0.9c-0.2-4.2-3-3.6-5.8-3.4c-0.8,0.1-2,0.4-2.1-0.8
		c-0.1-1,1-1.3,1.9-1.3C25.3,91.8,25.7,91.3,25.8,90.5z"/>
	<path class="st9" d="M-9.1,69.2c0-4.8,1.4-6,5.4-4.7c1.5,0.5,2.1,1.5,2,3.1c-0.1,1.5-0.8,2-2.1,1.9c-1.5-0.1-2.2,0.6-2.7,2"/>
	<path class="st10" d="M110,41.8c0.3,1.6,1.4,3.9-1.5,3.7c-1.6-0.1-4.9,0.7-4.6-3.1c0.2-2.8,2-4.8,4.7-4.8"/>
	<path class="st4" d="M97.8,65c0.2-0.6,0.4-1.2,1.2-1.3c2.6,1.1,1.9-1.1,1.9-2.1c0.1-5.5,0-11.1,0-16.6c0,0,0,0,0,0
		c1.6,0.2,1.5,1.3,1.5,2.5c0,6.5,0,13,0,19.5c0,1.1,0.2,2.4-1.4,2.4c-1.7,0-1.5-1.3-1.5-2.4C99.4,65.8,99,65.1,97.8,65z"/>
	<path class="st8" d="M45.9,3.4c-4.6,0.2-8.9,2-13.3,2.9c-0.6-0.1-1.2-0.2-1.7-0.3c-0.2-0.4-0.4-0.8-0.6-1.3c2.6,0,5.4,0.3,5.2-3.6
		c2.5,0,5,0,7.5-0.1c0,0,0.3,0,0.3,0s0.3,0,0.3,0c1.8,1.5,3.9,0.5,5.8,0.7c-0.2,0.5-0.4,0.9-0.6,1.4C47.9,3.3,46.9,3.3,45.9,3.4z"/>
	<path class="st6" d="M30.9,6.1c0.6,0.1,1.2,0.2,1.7,0.3c-3.3,2-6.5,3.9-9.8,5.9c-0.1-0.3-0.1-0.8-0.3-1c-0.6-0.8-2.9-0.9-2.1-1.8
		c1-1.1,1.7-3.2,3.9-3.1C26.5,6.3,28.7,6.2,30.9,6.1z"/>
	<path class="st8" d="M11.6,77c2.3,2.2,4.7,4.4,6.1,7.4c-1,0-2,0.1-2.9,0c-1.5-0.2-3.7,0.9-4.2-1C10,81.3,9.2,78.7,11.6,77z"/>
	<path class="st10" d="M29.5,105.4c0.1-2,0.9-2.7,2.7-2.4c1.9,0.3,4.5-0.3,4.7,2.8c0.2,3.2-2.2,2.2-3.8,2.4"/>
	<path class="st3" d="M77.8,93.3c-0.3-1.5,1.7-2.6,0.9-4.2c1.4-0.2,2.3-0.9,2.2-2.4c0,0,0,0,0,0c1.1,0.1,2-0.3,2.9-0.9
		C85.5,90.5,83.9,92.5,77.8,93.3z"/>
	<path class="st7" d="M77.1,9.3c1.3,2.2,4.9,1.9,5.3,5.1l-0.2,0.3c-4.6-2.8-9.3-5.6-13.9-8.3c0,0,0,0,0,0c3.1-1,5.1,1.3,7.4,2.5
		C76.1,9,76.6,9.1,77.1,9.3z"/>
	<path class="st3" d="M61.5,103.7c-1.1-0.3-3.2,0.8-3.3-1.1c0-1.6,1.9-2,3.5-1.9c1.7,0.1,3.4,0.1,5.1,0c1.6-0.1,2.2,0.8,2.1,2.3
		C66.4,102.7,64,103.4,61.5,103.7z"/>
	<path class="st8" d="M-7.9,37.6c0.5,0.2,0.9,0.3,1.2,0.5c0.6,0.3,1.3,1,0.9,1.3c-2.3,1.6,0.9,4.4-1.3,5.9c-0.1,0.1-0.2,0.1-0.3,0.1
		c-1.7-0.2-1.8-1.6-1.6-2.7C-8.8,41-10.1,38.8-7.9,37.6z"/>
	<path class="st8" d="M61.5,103.7c2.5-0.4,4.9-1.1,7.4-0.7c0.2,2-0.7,3.2-2.7,2.9C64.5,105.6,61.7,107.4,61.5,103.7z"/>
	<path class="st6" d="M35.4,1.2c0.2,4-2.6,3.7-5.2,3.6C29.5,1,29.5,1,35.4,1.2z"/>
	<path class="st7" d="M83.8,16c4.2-0.9,4.3,2.2,4.7,4.9c-0.1,0.1-0.2,0.2-0.3,0.3C86,20.1,84.4,18.5,83.8,16L83.8,16z"/>
	<path class="st3" d="M43.6,1.1l-0.3,0c0,0-0.3,0-0.3,0c0.7-4.4,4-1.4,6-2.2c0,0.5,0,1,0,1.4C47.2,0.8,45.4,1.3,43.6,1.1z"/>
	<path class="st10" d="M94.2,69.5c0.6-0.3,1.1-0.5,1.7-0.8c4.5,3-1,3-1.4,4.6C94.4,72,94.3,70.8,94.2,69.5
		C94.2,69.5,94.2,69.5,94.2,69.5z"/>
	<path class="st7" d="M92.1,24.9c-0.3,0.8-0.9,0.8-1.6,0.8c-1.8-0.9-2-2.7-2.3-4.4c0.1-0.1,0.2-0.2,0.3-0.3
		C90.5,21.5,90.6,23.8,92.1,24.9z"/>
	<path class="st11" d="M83.8,84.4c0.3-2.2,3.3-1.8,3.7-3.9C89,84.1,88.9,84.3,83.8,84.4z"/>
	<path class="st11" d="M87.9,79.2c0.9-2,1.7-4.1,4.1-4.8C91.4,76.6,91.2,79.2,87.9,79.2z"/>
	<path class="st10" d="M51.8,100.7c-1.5-0.3-3.2,0.6-4.5-0.8C49,99.6,51.2,95.6,51.8,100.7z"/>
	<path class="st7" d="M94.2,69.5c0.1,1.3,0.2,2.5,0.3,3.8c-0.6,0.9-1.7,0.7-2.5,1.1C92.1,72.5,92.1,70.5,94.2,69.5z"/>
	<path class="st1" d="M4,46.8c0.3,2,0.3,4,0,6C2.8,50.8,2.8,48.8,4,46.8z"/>
	<path class="st7" d="M82.4,14.4c1.1-0.2,2.1-0.8,3.2-0.3c-0.8,0.4-2.2,0.4-1.9,1.9c0,0,0,0,0,0c-0.9,0.1-1.5-0.3-1.7-1.3L82.4,14.4
		z"/>
	<path class="st11" d="M83.7,85.7c-0.9,0.6-1.8,1-2.9,0.9c0.3-1.7,1.5-2.2,3-2.2C83.8,84.8,83.8,85.3,83.7,85.7z"/>
	<path class="st10" d="M77.1,9.3c-0.5-0.2-1-0.3-1.5-0.5c0.2-0.7-0.4-2.1,0.8-2C77.7,7,76.9,8.4,77.1,9.3z"/>
	<path class="st10" d="M80.1,7.6c-0.3,0.2-0.6,0.6-0.8,0.5c-0.2-0.1-0.5-0.4-0.6-0.7c0-0.5,0.3-0.9,0.8-0.8
		C79.8,6.7,79.9,7.2,80.1,7.6z"/>
	<path class="st1" d="M6,65c1.1,0.2,1.3,0.9,1.1,1.9C6.5,66.3,5.9,65.8,6,65z"/>
	<path class="st11" d="M93.3,76.1c0.1-0.1,0.2-0.2,0.4-0.4c0.1,0.2,0.2,0.3,0.3,0.5c0,0-0.2,0.2-0.2,0.2
		C93.6,76.3,93.4,76.2,93.3,76.1z"/>
	<path class="st3" d="M75,92.6c0.4-0.8,0.9-0.9,1.3,0C75.8,92.6,75.4,92.6,75,92.6z"/>
	<path class="st2" d="M5.8,36.1C5.9,36.3,6,36.4,6,36.6c0,0-0.2,0.1-0.3,0.2C5.8,36.5,5.8,36.3,5.8,36.1z"/>
	<path class="st5" d="M50.8,28.7c0.2,3.9,0.3,7.9-0.1,11.8c-1.7,0.1-1.9-1-1.9-2.4c0-3.1,0-6.3,0-9.4C49.5,28.7,50.2,28.7,50.8,28.7
		z"/>
	<path class="st5" d="M50.7,45c0.6,2.7,0.5,5.4,0,8.1C48.1,51,48.1,46.5,50.7,45z"/>
	<path class="st0" d="M39.1,96.3c-0.1,1.9-1.5,1.6-2.7,1.4c-1.6-0.2-2.7-1.1-2.5-2.9C35.7,95.3,37.4,95.8,39.1,96.3z"/>
	<path class="st12" d="M44,48.8c0.8,0,1.5,0.4,1.6,1.2c0.1,1.2-0.8,1.6-1.9,1.7c-0.8,0-1.5-0.3-1.4-1.2C42.4,49.4,43,48.9,44,48.8z"
		/>
	<path class="st13" d="M91.3,65.8c0.3,3.2-2.3,5.3-3.4,7.9c-0.4,1-1.3,0.6-2.2,0.5c-3.4-0.3-7-1.3-7.6,4.1c-0.1,0.5-3.4,1-3.7,3.5
		c-0.1,0.5-0.9,0.9-0.7,1.6c0.8,3-0.7,3.7-3.2,5.5c-3.9,2.9-7.6,1.5-11.4,2.1c-1.7,0.3-2.9-0.3-3.2-2.2c-0.3-1.6-1.2-3.3,0.8-4.6
		c1.7-1.1,2.3-1.9,1.5-4.6c-1.1-3.6-1.4-8,0.4-11.9c0.9-2,1.2-4-0.6-5.7c-0.4-0.4-1-1.2-0.9-1.5c1.6-3.8-1.4-7.9,1-11.7
		c0.4-0.7,1.8-2.5-0.4-3.3c-1.9-0.9-1-3.3-2.2-4.5c0-1,0-2,0-3c2.6-0.1,4.1,2.6,6.6,2.8c0.5,0,0.9,0.9,0.6,1.5
		c-1.4,2.8,0.5,5.2,1,7.8c0.4,2.2,0.6,4.8,4,4.4c0.9-0.1,1.2,0.9,1.1,1.6c-0.2,2.1,0.9,2.8,2.9,2.7c2-0.2,2.4-1.4,2.3-3.1
		c0-1.8,0-3.7,2.5-3.6c2.3,0.1,3.4,2,3.3,3.7c-0.2,3.9,2.1,5.7,5.4,7.5c-1.8,0.7-2.7,1.7-2.3,3.4c0.2,0.8,0.6,1.5,1.4,1.6
		c1.8,0.2,1.9-1.6,2.8-2.5c1.4-1.3,1.3-3.8,3.2-4.8C93.6,62.3,91,64.3,91.3,65.8z M75.6,68.8c1.7,0.2,3.1-0.1,3-2.7
		c-0.1-2.1-0.6-3.9-2.9-3.9c-2.3,0-4,2-4.3,3.9C71.1,68.4,73.4,68.8,75.6,68.8z"/>
	<path class="st14" d="M82.2,14.6c0.1,1,0.7,1.4,1.7,1.3c0.5,2.5,2.2,4.1,4.4,5.3c0.3,1.7,0.5,3.5,2.3,4.4c0,1.6-1.3,3.6,1.7,4.3
		c1.1,0.3,0.8,1.1-1.7,2.4c-1.9,0.3-3.2-2.2-5.3-1c-1.9,1.1-3.5,2.4-2.9,4.9c0.6,2.5,0.8,5.4,3.6,6.8c1.6,0.8,2.3-0.1,2.8-1.4
		c0.7-2.1,1.2-4.2,1.7-6.4c2.5,0.2,2.3,2.2,2.2,3.9c-0.2,2.3,0.2,4.4,2.3,5.8c-0.7,5.2-2.7,0.5-4,0.4c-0.7,1.1-0.3,2.3-0.4,3.3
		c-1.1-0.5-2.5-0.7-3.3-1.4c-1.7-1.5-2.6-1-3.6,0.6c-0.6,0.9-0.9,2.8-2.6,1.8c-1.4-0.8-1.2-2.6-0.5-3.6c1.1-1.6,1-2.7-0.6-3.7
		c-0.9-0.6-1.1-1.4-1.4-2.4c-0.8-3.4-2.1-4-5-2.2c-1,0.6-1.6,0.3-2.2-0.4c-0.7-0.7-1.1-1.5,0.2-1.9c1.3-0.5,1-1.4,0.4-2
		c-2.8-2.7-2.7-8.7-9-7.9c-1.4,0.2-3-3.3-5-0.1c-0.1,0.2-1.1-0.2-1.7-0.4c-0.5-2.2,1.2-5-1.5-6.7c0.3-0.7,0.5-1.5,0.8-2.2
		c3-0.9,6.1,0.3,9.1,0c1.1-0.1,2-0.3,2-1.6c0.1-1.2-0.2-2.2-1.4-2.7c-4-1.8-7.1-0.9-9.7,2.8c-0.3-1.4,0.8-3.2-1.5-3.8
		c0-1,0-2,0.2-2.9C54.4,7,55,6.2,55.5,7.6c0.3,0.6,0.3,1.9,0.8,0.1c0.6-2,2.2-2,3.8-2.2c2.8-0.5,5.4,0.9,8.1,0.8
		C72.9,9.1,77.5,11.9,82.2,14.6z M74.1,26c-1-1.5-1.6-3.5-3.9-3.7C69,22.1,69,23,69,23.7c0.1,2,1,3.6,3,4.1C73,28,73.8,27.3,74.1,26
		z"/>
	<path class="st15" d="M56.3,24.9c0.6,0.1,1.6,0.5,1.7,0.4c1.9-3.2,3.5,0.3,5,0.1c6.3-0.7,6.1,5.2,9,7.9c0.6,0.6,0.9,1.6-0.4,2
		c-1.3,0.5-0.9,1.2-0.2,1.9c0.6,0.7,1.2,1,2.2,0.4c2.9-1.7,4.2-1.1,5,2.2c0.2,1,0.4,1.8,1.4,2.4c1.6,1,1.7,2.1,0.6,3.7
		c-0.8,1.1-0.9,2.8,0.5,3.6c1.7,1,2-0.9,2.6-1.8c1.1-1.6,2-2.1,3.6-0.6c0.8,0.8,2.2,1,3.3,1.4c-0.8,2.6,2.1,3.8,2.2,6
		c-1.2,0.6-0.2,2.9-2.2,3c-0.1-0.8,0.3-1.6-0.8-2.7c0.4,1.9-1.9,2.5-1.2,4.2c0.3,0.7,1.3-0.1,2,0c0,0.8,0,1.5,0,2.3
		c-1.9,1-1.7,3.4-3.2,4.8c-0.9,0.9-1,2.7-2.8,2.5c-0.8-0.1-1.2-0.8-1.4-1.6c-0.5-1.7,0.5-2.7,2.3-3.4c-3.3-1.8-5.7-3.6-5.4-7.5
		c0.1-1.7-0.9-3.7-3.3-3.7c-2.5-0.1-2.6,1.8-2.5,3.6c0,1.7-0.4,2.9-2.3,3.1c-2,0.2-3-0.5-2.9-2.7c0.1-0.8-0.2-1.7-1.1-1.6
		c-3.5,0.4-3.7-2.3-4-4.4c-0.4-2.6-2.3-5-1-7.8c0.3-0.6-0.1-1.5-0.6-1.5c-2.6-0.2-4-2.9-6.6-2.8c-2.4-3.3-2-6.8-0.7-10.4
		C56.8,27.6,56.2,26.1,56.3,24.9L56.3,24.9z"/>
	<path class="st0" d="M90.5,57.6c2,0,1-2.3,2.2-3c1.4,2.2-1.4,4.9,1,7.3c2.6-5.4,3.1-10.8,2.7-16.3c0-0.7,0.2-1.3,0.9-1.6
		c0.9,6.9,0.7,13.7-2.4,20.2c-1.6-0.5-2.3,1.4-3.6,1.5c-0.3-1.5,2.3-3.4-0.8-4.4c0-0.8,0-1.5,0-2.3C90.5,58.6,90.5,58.1,90.5,57.6z"
		/>
	<path class="st12" d="M50.6,12.9c-1,0.5-1.9,1-3.2,0.5c-1.8-0.7-3.5-0.7-5.2,0.5c-1.6,1.1-3.2,0.5-4-1.1c-0.8-1.7,1-1.9,2-2.5
		c1.5-0.9,3.1-1.6,4.8-0.2c1.2,1,2.6,0.6,3.9,0.7c0.5,0.8,1.3,0.6,2,0.6c0,0.3-0.1,0.7-0.1,1C50.7,12.6,50.7,12.8,50.6,12.9z"/>
	<path class="st8" d="M55.6,41.2c1.3,1.2,0.4,3.6,2.2,4.5c-0.3,0.2-0.6,0.7-0.8,0.6c-1.5-0.3-1.2,2.6-2.6,1.7
		c-1.4-0.9-1-2.8-1.1-4.4C53.2,42,53.8,41.1,55.6,41.2z"/>
	<path class="st5" d="M50.8,11.4c-0.7,0-1.5,0.2-2-0.6c0.5-3.1,0-5.7-2.9-7.4c1-0.1,1.9-0.2,2.9-0.3c0.7,0.3,1.5,0.6,2.2,0.9
		C50.9,6.5,50.9,9,50.8,11.4z"/>
	<path class="st7" d="M51,4.1c-0.7-0.3-1.5-0.6-2.2-0.9c0.2-0.5,0.4-0.9,0.6-1.4c0.1-0.2,0.1-0.4,0.1-0.7c2.1,0.2,4.1,0.6,6.2,0.7
		c2,0,1.4,1.1,1.1,2.1C54.9,3.9,53,4,51,4.1z"/>
	<path class="st8" d="M55.6,16c-0.3,0.7-0.5,1.5-0.8,2.2c-2.7-2.3-1.5-4.9-0.7-7.5c2.3,0.6,1.2,2.5,1.5,3.8
		C55.6,15,55.6,15.5,55.6,16z"/>
	<path class="st14" d="M56.3,24.9c-0.2,1.2,0.5,2.7-1.5,2.9C55,26.7,54.3,25.1,56.3,24.9z"/>
	<path class="st11" d="M80.9,86.6c0.1,1.6-0.8,2.2-2.2,2.4c-0.1-0.3-0.1-0.7-0.2-1C79.1,87.2,79.7,86.5,80.9,86.6z"/>
	<path class="st5" d="M50.6,12.9c0.1-0.1,0.2-0.2,0.1-0.4c0,0,0.1,0.3,0.1,0.3S50.5,12.9,50.6,12.9C50.5,12.9,50.6,12.9,50.6,12.9z"
		/>
	<path class="st15" d="M90.5,35.3c-0.6,2.1-1.1,4.3-1.7,6.4c-0.4,1.3-1.2,2.2-2.8,1.4c-2.8-1.4-3-4.2-3.6-6.8
		c-0.6-2.5,0.9-3.8,2.9-4.9c2.1-1.2,3.4,1.3,5.3,1c0,0.2,0,0.5,0,0.7C89.6,33.8,89.5,34.6,90.5,35.3L90.5,35.3z"/>
	<path class="st13" d="M96.5,45.7c0.3,5.5-0.1,10.9-2.7,16.3c-2.4-2.4,0.4-5.2-1-7.3c-0.2-2.2-3.1-3.4-2.2-6
		c0.1-1.1-0.3-2.2,0.4-3.3c1.3,0,3.3,4.8,4-0.4C95.5,45.2,96,45.5,96.5,45.7z"/>
	<path class="st0" d="M100.9,45c0,5.5,0,11.1,0,16.6c0,1.1,0.8,3.2-1.9,2.1c0-6.2-1.1-12.5,0.5-18.7C100,45,100.4,45,100.9,45z"/>
	<path class="st14" d="M90.5,35.3c-1-0.8-0.9-1.5,0-2.3C90.5,33.8,90.5,34.6,90.5,35.3z"/>
	<path class="st0" d="M49.6,1.1c0,0.2-0.1,0.5-0.1,0.7c-2-0.2-4,0.8-5.8-0.7c1.8,0.2,3.5-0.3,5.3-0.8C49.1,0.6,49.4,0.8,49.6,1.1z"
		/>
	<path class="st15" d="M75.6,68.8c-2.3,0.1-4.5-0.4-4.2-2.7c0.3-1.9,2-3.8,4.3-3.9c2.3,0,2.8,1.8,2.9,3.9
		C78.8,68.7,77.4,69,75.6,68.8z"/>
	<path class="st15" d="M55.6,16c0-0.5,0-1,0-1.5c2.7-3.7,5.7-4.6,9.7-2.8c1.2,0.5,1.4,1.5,1.4,2.7c-0.1,1.3-1,1.5-2,1.6
		C61.6,16.3,58.6,15.1,55.6,16z"/>
	<path class="st15" d="M74.1,26c-0.2,1.3-1,2-2.1,1.8c-2-0.5-2.9-2-3-4.1c0-0.7,0-1.6,1.1-1.5C72.5,22.5,73.1,24.5,74.1,26z"/>
	<path class="st13" d="M90.5,57.6c0,0.5,0,1,0,1.4c-0.7-0.1-1.6,0.8-2,0c-0.7-1.6,1.5-2.3,1.2-4.2C90.8,56,90.4,56.9,90.5,57.6z"/>
</g>
<g>
	<path class="st16" d="M90.8,126.5H15c-2.2,0-4-1.8-4-4v-23c0-2.2,1.8-4,4-4h75.8c2.2,0,4,1.8,4,4v23
		C94.8,124.7,93,126.5,90.8,126.5z"/>
	<g>
		<path class="st17" d="M31.9,113c-0.1-2-0.1-4.4-0.1-6.8h-0.1c-0.5,2.1-1.2,4.4-1.8,6.4l-2,6.4H25l-1.8-6.4
			c-0.5-1.9-1.1-4.3-1.5-6.4l0,0c-0.1,2.2-0.2,4.8-0.3,6.8l-0.3,6.3h-3.4l1.1-16.5h5l1.6,5.5c0.5,1.9,1,4,1.4,5.9h0.1
			c0.5-1.9,1-4.1,1.6-5.9l1.8-5.5h4.9l0.9,16.5h-3.6L31.9,113z"/>
		<path class="st17" d="M53.7,110.9c0,5.4-3.3,8.7-8.1,8.7c-4.9,0-7.7-3.7-7.7-8.4c0-4.9,3.2-8.6,8-8.6
			C51,102.6,53.7,106.3,53.7,110.9z M41.8,111.1c0,3.2,1.5,5.5,4,5.5s4-2.4,4-5.6c0-3-1.4-5.5-4-5.5
			C43.3,105.5,41.8,107.9,41.8,111.1z"/>
		<path class="st17" d="M71.2,110.9c0,5.4-3.3,8.7-8.1,8.7c-4.9,0-7.7-3.7-7.7-8.4c0-4.9,3.2-8.6,8-8.6
			C68.5,102.6,71.2,106.3,71.2,110.9z M59.3,111.1c0,3.2,1.5,5.5,4,5.5c2.5,0,4-2.4,4-5.6c0-3-1.4-5.5-4-5.5
			C60.8,105.5,59.3,107.9,59.3,111.1z"/>
		<path class="st17" d="M73.7,119.3v-16.5H78l3.4,6c1,1.7,2,3.8,2.7,5.6h0.1c-0.2-2.2-0.3-4.4-0.3-6.9v-4.8h3.4v16.5h-3.9l-3.5-6.4
			c-1-1.8-2.1-3.9-2.9-5.8h-0.1c0.1,2.2,0.1,4.5,0.1,7.2v5h-3.3V119.3z"/>
	</g>
</g>
</svg>
