<?xml version="1.0" encoding="utf-8"?>
<!-- Generator: Adobe Illustrator 25.0.0, SVG Export Plug-In . SVG Version: 6.00 Build 0)  -->
<svg version="1.1" id="Layer_1" xmlns="http://www.w3.org/2000/svg" xmlns:xlink="http://www.w3.org/1999/xlink" x="0px" y="0px"
	 width="105.5px" height="129px" viewBox="0 0 105.5 129" style="enable-background:new 0 0 105.5 129;" xml:space="preserve">
<style type="text/css">
	.st0{fill:#FCFCFC;}
	.st1{fill:#4B5D65;}
	.st2{fill:#2D3C44;}
	.st3{fill:#EBEDEE;}
	.st4{fill:#EEF1F2;}
	.st5{fill:#B7C0C4;}
	.st6{fill:#F2F5F4;}
	.st7{fill:#252D32;}
	.st8{fill:#E5E8EA;}
	.st9{fill:#A5B0B2;}
	.st10{fill:#D0D7D8;}
	.st11{fill:#F8F4EC;}
	.st12{fill:#E9E0DB;}
	.st13{fill:#48A6DD;}
	.st14{fill:#FFFFFF;}
</style>
<g>
	<path class="st0" d="M50.2,114.6c1.8-0.8,1.8-1.9,1.2-3.6c-0.4-1.1-0.1-2.5-0.2-3.7c0.4,0,0.8,0.1,1.1,0c1.3-0.3,3.7,0.9,3.8-1.1
		c0.1-1.8-2.4-1.6-3.9-1.9c-0.5-0.1-1,0-1.5,0c-0.6,0-1.6-0.2-1.3-0.8c1.8-3.9-1.3-1.2-2-1.4c-1.4-0.4-3-0.2-4.4-0.4
		c-1.7-0.3-3.3,1.1-2.6,1.9c1.2,1.3,1.3,4.1,4,3.7c0,1.2,0.2,2.2,1.8,2.3c0.9,0,2.3-0.4,2.5,0.9c0.2,1.8-2.1,1.3-2.7,2.6"/>
	<path class="st0" d="M88.6,6.8c-1.4-3-3.4,0.2-5.6-0.4c0.6,1.5,2.8,1.6,2,3.2c-0.8,1.5-2.4,1-3.7,1.3c-0.9,0-1.9-0.1-2.8-0.1
		c0.3-0.5,0.5-1.1,0.9-1.5c0.8-0.7,1.8-1.4,1.1-2.4c-0.9-1.2-1.6-0.4-2.1,0.6c-0.2,0.5-0.5,0.1-0.7-0.2c-0.9-1.8-2.5-0.8-3.9-0.9
		c-1.5-0.1-3.1-0.1-4.6-0.2c-0.6-2.6-2.2-3.1-4.8-3.1c-3,0-0.7-1.3-0.2-2.1c5.2,0,5.2,0,4.5-4.6"/>
	<path class="st0" d="M44-2.3c-0.6-0.5-1.2,0.1-1.4,0.8c-0.2,0.6,0.3,1,0.8,1C45.6-1,47.6,0.9,50-0.7C51.8-2,54.4-1.4,56.6-1
		c1.1,0.2,2.9,0.9,1.5,2.8C53.4,1,48.8,1.1,44.1,1.1c-2.1,0-2.7,0.7-1.9,2.6C42,3.8,41.8,3.9,41.5,4c-4,0.4-7.5,2.4-11.2,3.4
		c-1.8-2.1-6.5-2.1-8.3,0.2c-0.6,0.7-2.7,0.6-1.7,2.2C21,11.3,22,10.5,23,9.8c1.1-0.7,1,0.6,1.3,1.2c-0.5,1.5-2.9,1-3.1,2.8
		c-3.4,2.6-6.6,5.4-8.9,9.1C9.1,28.1,6,33.4,5,39.5c-1.1,1.7-1.1,3.6-1.2,5.4c-0.1,6.7-0.4,13.4,1.3,20c-1.3,0.5-2.5-1.2-3.9-0.1
		c0.6,1.5,1.9,2.1,3,3.1c1,0.9,1.1,2.9,3.1,1.7c0.6,3.1,3,5.4,3.8,8.4c-1.3,0-2.5-0.1-3.8-0.1c-3.1,0-1.7,2.8-2.5,4.3
		c-0.6,1.1-0.3,2.9,1.2,3c3.5,0.2,7.2,1.1,10.6-0.6c0.9,0.2,1.4,0.9,2.1,1.5c5.4,5.1,11.8,8.7,19,10.6c1.7,0.4,3.5,0.8,5.2,1.3
		c0.6,1.6,1.8,1.8,3.3,1.8c4.1,0,8.2-0.1,12.3,0.1c2.7,0.1,5.2-0.1,7-2.5c1.3,0.3-0.3,2.7,1.9,2.5c1.9-0.1,1.8-1.4,1.8-2.6
		c0-1.4,1-1.6,2-2.1c2.8-1.5,6.7-1.4,8.4-4c1.6-2.4,3.7-4.5,5.7-5c3.9-0.9,3.8-3.1,3.6-5.9c0.7-0.3,1.5-0.5,2.2-0.8
		c0.1,0.1,0.2,0.1,0.2,0.2c-0.1,0-0.2-0.1-0.3-0.1c0.2-1.4,1.1-2.6,2.1-3.1c1.2-0.6,1.8-0.6,2.1-1.5c0.3-0.9-0.2-1.9,0.1-2.5
		c1.1-2.3-0.3-6.2,3.9-6.6c0,0.4,0,0.7,0.1,1.1c0,1.6-0.1,3.6,2.3,3.4c2.4-0.2,1.4-2.3,1.5-3.6c0.1-6,0-12,0.1-18
		c0-2.4-0.8-4.2-2.9-5.5c0-0.8,0-1.5-0.1-2.3c0.9-3.1-0.1-4.8-2.4-4.5c-0.2-2.4-2-4.1-3.1-6.1c-0.3-1.4,0.9-3.5-0.5-4.2
		c-3.6-1.9-4.6-5.5-6.4-8.6c1.7,0.1,3.3,0.2,5.4,0.4c-1.6-2.2-3.5-1.8-5.4-1.7c-0.2,0-0.4,0-0.5-0.2c0.5-2-0.7-3-3-3.5
		c4.4-1.6,5.4-2.8,4.1-5.7"/>
	<path class="st0" d="M62,101.4c0.1,2.6-1,4.5,0.7,5.4c1.7,0.9,3.9,0.6,5.9,0.2c0.7-0.1,0.8-0.9,0.7-1.6c-0.1-0.9-0.8-1.3-1.6-1.2
		C65.6,104.5,63.9,103.9,62,101.4z"/>
	<path class="st0" d="M108.6,42.1c-0.3-1.3,0.6-3.7-1.3-3.6c-1.9,0.1-2.3,2.6-2.4,4.5c-0.1,1.3,0.1,2.6,1.9,2.5
		C109.2,45.4,108.4,43.5,108.6,42.1z"/>
	<path class="st0" d="M108.1,31.1c1.3-0.1,2.7-0.3,2.4-1.7c-0.3-1.4,0.1-3.8-2.7-3.6c-1.2,0.1-2.4,0.3-2.1,1.8
		C106,29.1,105.9,31.1,108.1,31.1z"/>
	<path class="st0" d="M93.5,20.7c-0.3-0.2-0.6-0.6-0.8-0.5c-0.2,0.1-0.5,0.5-0.6,0.7c0,0.5,0.3,0.9,0.9,0.7
		C93.2,21.6,93.3,21.1,93.5,20.7z"/>
	<path class="st0" d="M2,68.6c-0.2-0.1-0.4-0.2-0.6-0.3c-0.1,0.2-0.3,0.5-0.2,0.6c0.1,0.1,0.4,0.2,0.6,0.3C1.9,69,1.9,68.8,2,68.6z"
		/>
	<path class="st0" d="M96.3,16.4c-0.1,0.2-0.2,0.4-0.3,0.6c0.2,0.1,0.5,0.3,0.6,0.2c0.2-0.1,0.2-0.4,0.3-0.6
		C96.7,16.5,96.5,16.5,96.3,16.4z"/>
	<path class="st0" d="M53.8,101.6c-0.2-0.1-0.4-0.3-0.6-0.3c-0.2,0-0.4,0.2-0.6,0.3c0.2,0.1,0.4,0.3,0.6,0.3
		C53.4,101.9,53.6,101.7,53.8,101.6z"/>
	<path class="st1" d="M5,39.5c1-6.1,4.2-11.3,7.4-16.5c2.3-3.7,5.5-6.5,8.9-9.1c1.5,1.8,2.9,1.9,4.7,0.2c1.8-1.7,4-2.4,6.4-2.8
		c0.5-0.1,1-0.4,1.4,0.1c0.5,0.6,0.2,1.2,0,1.7c-0.4,1-1.4,1.1-2.3,1.6c-3.4,1.8-8,2.3-8.7,7.5c-0.1,1.2-1.3,2.4,0,3.4
		c1,0.8,2.4,0.4,3.5-0.4c1.2-0.9,1.9-1.7,2.4-3.6c1.1-4.2,5.2-3.2,8.5-3.2c-2.8,7.6-3.9,15.6-5.7,23.4c-1.7-0.9-1.8,0.4-2.1,1.5
		c-1.1,3.9-0.1,7.6,0.5,11.4c0.1,0.7,1,0.5,1.6,0.6c0.9,2.5,0.4,5.1,0.6,7.6c-1.3,0.2-1.5,0.8-1.3,2.1c0.4,2.3-0.4,4.1-2.9,4.8
		c-2.3,0.6-2,1.9-0.9,3.6c1.6,2.6,0.8,4.3-2.2,5.1c-2.2,0.6-3.7-0.7-4.6-2.3c-1-1.7-1.5-3.7-0.2-5.7c0.4-0.6,1-0.7,1.6-0.5
		c1.4,0.5,2.7,0.2,2.7-1.4c0-1.7-0.7-3.2-2.8-3.4c-1.2-0.1-2.5-0.2-3.7,0c-2.7,0.6-4.6-0.9-5.4-2.9c-2.4-5.7-5.8-11.1-5.6-17.7
		C6.5,43,7.3,40.6,5,39.5z"/>
	<path class="st2" d="M5,39.5c2.3,1.1,1.5,3.5,1.5,4.9c-0.2,6.6,3.2,12,5.6,17.7c0.9,2.1,2.7,3.5,5.4,2.9c1.2-0.2,2.5-0.1,3.7,0
		c2,0.2,2.8,1.8,2.8,3.4c0,1.6-1.3,1.9-2.7,1.4c-0.7-0.2-1.2-0.1-1.6,0.5c-1.3,1.9-0.8,3.9,0.2,5.7c1,1.6,2.4,2.9,4.6,2.3
		c2.9-0.8,3.8-2.6,2.2-5.1c-1.1-1.7-1.4-3,0.9-3.6c2.5-0.7,3.3-2.5,2.9-4.8c-0.2-1.3,0-1.9,1.3-2.1c0.8,2.9,1.3,5.7,1.4,8.7
		c-1.2-0.3-2.4-0.6-3.2,0.9c-0.8,1.5-0.1,2.1,1.1,2.9c1,0.6,0.8,1.8,0.1,2.6c-0.7,0.9-2.4,1.4-1.3,3c1.3,1.8,2.7,0,4.1,0.1
		c-0.5,1.3,1.8,3.2-0.7,4.2c-2.6,1-2.6,1-1.6,4.7c1.2-0.5,0.7-2.6,2.7-2.4c0,1.5,0,2.8,2.3,2.9c1.5,0,1.6,1.9,1.6,3.3
		c0,1.1-0.3,2.2-0.4,3.3c-7.2-2-13.5-5.5-19-10.6c-0.6-0.6-1.2-1.3-2.1-1.5c-1-2.9-3.5-4.5-5.6-6.6c-0.8-3-3.2-5.3-3.8-8.4
		c-1.4-1.2,0-3.8-2.2-4.7c-1.6-6.6-1.4-13.3-1.3-20C3.8,43,3.9,41.2,5,39.5z"/>
	<path class="st3" d="M66.4-3.5c0.8,2.3-3.1,2.2-2.3,4.6c-0.5,0.8-2.7,2.1,0.2,2.1c2.6,0,4.2,0.5,4.8,3.1c0.1,0.5,0.2,1,0.3,1.5
		c-3.2,0.7-5.7-2.1-9-1.6c-2.6,0.4-5.3,0.1-8-1c-3.3-1.4-7.1,1.6-6.9,5.3c0.1,1.4-1.3,2.1-1.1,3.4c-2.4-0.5-3.2,1.2-4.3,2.7
		c-2.1,3-2.6,6.9-3.4,10.1c-1.4,5-2.7,11.1,0.3,16.5c-0.9,3.4-0.4,7-1.8,10.2c-0.8,1.9,0.8,2,1.8,2.6c-0.4,2.1,0.7,4,0.8,6
		c-0.5,0-1,0-1.6,0c-2.8-0.5-1.3,1.3-1,2.1c0.7,2.4,3,5.3,2.2,7c-1.5,3.5,0.5,5.2,1.9,7.5c-0.3,2.8-0.1,5.4,3,6.7
		c-1,0.8-2,1.5-3,2.3c-1.8-2.8-2.5-6-3.9-9c-0.5-2.4-0.9-5-2.2-7.2c-0.1-3-0.6-5.8-1.4-8.7c-0.1-2.5,0.3-5.1-0.6-7.6
		c0-4.5,0-8.9,0-13.4c1.8-7.8,2.9-15.8,5.7-23.4c0.2-0.7,0.4-1.3,0.7-2c0.8-0.6,1.1-1.5,1-2.5c0.2-0.5,0.3-1,0.5-1.6
		c1.9-1.7,2.5-4.1,3.8-6.1c2.8-2.8,6.2-3.1,9.9-2.7c1.5,0.2,2.9,0.4,4.4,0.4c1.9,0,1.6-1,0.8-2.1c1.4-1.9-0.4-2.6-1.5-2.8
		c-2.2-0.4-4.7-1-6.6,0.3c-2.3,1.6-4.4-0.3-6.5,0.1c-0.5,0.1-1-0.3-0.8-1c0.2-0.7,0.8-1.2,1.4-0.8"/>
	<path class="st3" d="M60.3,3.1C60.4,3,60.5,3,60.6,2.9c-0.1-0.1-0.2-0.2-0.3-0.2c-0.1,0-0.2,0.1-0.3,0.1C60.2,2.9,60.2,3,60.3,3.1z
		"/>
	<path class="st2" d="M39.1,12.3c-0.2,0.5-0.3,1-0.5,1.6c-0.7-0.2-1.6-1.2-2.2,0.1c-0.4,1.1,0.1,1.9,1.2,2.4c-0.2,0.7-0.4,1.3-0.7,2
		c-3.3,0-7.4-1-8.5,3.2c-0.5,1.8-1.2,2.6-2.4,3.6c-1.1,0.8-2.4,1.2-3.5,0.4c-1.3-0.9-0.1-2.2,0-3.4c0.7-5.2,5.3-5.6,8.7-7.5
		c0.9-0.5,1.9-0.6,2.3-1.6c0.2-0.6,0.5-1.2,0-1.7c-0.4-0.5-0.9-0.2-1.4-0.1c-2.4,0.4-4.6,1.1-6.4,2.8c-1.7,1.7-3.2,1.6-4.7-0.2
		c0.2-1.8,2.6-1.3,3.1-2.8c2-1.2,4-2.3,6-3.5c3.8-1,7.3-3.1,11.2-3.4c-1,1.8-1.9,3.7-2.9,5.5C37.9,10.7,37,11.7,39.1,12.3z"/>
	<path class="st4" d="M46.1,113c0.7-1.3,3-0.8,2.7-2.6c-0.2-1.3-1.6-0.9-2.5-0.9c-1.6-0.1-1.8-1-1.8-2.3c2.3,1.2,4.5-0.1,6.8,0
		c0,1.3-0.2,2.6,0.2,3.7c0.6,1.7,0.5,2.8-1.2,3.6"/>
	<path class="st5" d="M99.5,65.6c-4.2,0.4-2.9,4.3-3.9,6.6c-0.3,0.6,0.2,1.6-0.1,2.5c-0.3,0.9-1,0.9-2.1,1.5c-1,0.5-1.9,1.8-2.1,3.1
		l0,0c-0.7,0.3-1.5,0.5-2.2,0.8c0,0-0.1-0.1-0.1-0.1c0.1-1.7,1.1-3,2-4.3c2.3-3.3,4.2-6.7,4.9-10.7c1.4-3.7,2.1-7.6,2.3-11.6
		c0.4-8-1.2-15.6-4-23c0.2,0,0.5-0.1,0.7-0.1c1.1,2,2.9,3.6,3.1,6.1c0.9,1.4-0.1,3.8,2.4,4.5c0,0.8,0,1.5,0.1,2.3
		C98.6,50.6,100,58.1,99.5,65.6z"/>
	<path class="st6" d="M99.5,65.6c0.6-7.5-0.8-15,0.9-22.4c2.1,1.2,3,3.1,2.9,5.5c0,6,0,12-0.1,18c0,1.3,0.9,3.4-1.5,3.6
		c-2.4,0.2-2.2-1.8-2.3-3.4C99.5,66.4,99.5,66,99.5,65.6z"/>
	<path class="st7" d="M35.4,78.6c1.4,3,2.1,6.2,3.9,9c1,3.3,3,6,4.8,8.9c-0.4,0.5-0.7,0.9-1.1,1.4c-1.7-0.4-3.5-0.8-5.2-1.3
		c0.2-1.1,0.4-2.2,0.4-3.3c0-1.3-0.1-3.2-1.6-3.3c-2.3-0.1-2.3-1.4-2.3-2.9c-1.9-0.2-1.5,1.9-2.7,2.4c-1-3.6-1-3.6,1.6-4.7
		c2.5-1,0.2-2.8,0.7-4.2C34,79.8,34,78.8,35.4,78.6z"/>
	<path class="st8" d="M11.1,78c2,2,4.6,3.6,5.6,6.6c-3.4,1.7-7.1,0.7-10.6,0.6c-1.5-0.1-1.9-1.8-1.2-3c0.8-1.4-0.6-4.2,2.5-4.3
		C8.6,77.9,9.9,77.9,11.1,78z"/>
	<path class="st5" d="M89,80.1c0.2,2.8,0.3,5-3.6,5.9c-2,0.5-4.2,2.6-5.7,5c-1.7,2.6-5.6,2.5-8.4,4c-1,0.6-2,0.7-2,2.1
		c0,1.2,0.1,2.5-1.8,2.6c-2.2,0.2-0.6-2.2-1.9-2.5c0-0.4,0-0.8,0-1.2c0.7-1,1.8-1.1,2.8-1.6c2.7-1.3,6-1.7,7.8-4.5l0,0
		c1.9,0.1,2.8-1.4,4.1-2.3C83.5,85.4,85.3,81.7,89,80.1L89,80.1z"/>
	<path class="st3" d="M51.3,107.2c-2.3-0.1-4.5,1.2-6.8,0c-2.7,0.4-2.8-2.5-4-3.7c-0.7-0.8,0.9-2.2,2.6-1.9c1.5,0.2,3,0.1,4.4,0.4
		c0.6,0.2,3.8-2.6,2,1.4c-0.3,0.6,0.7,0.8,1.3,0.8c0.5,0,1-0.1,1.5,0c1.5,0.3,4,0.1,3.9,1.9c-0.1,1.9-2.5,0.7-3.8,1.1
		C52.1,107.3,51.7,107.2,51.3,107.2z"/>
	<path class="st9" d="M58,1.8c0.8,1.1,1.1,2.1-0.8,2.1c-1.5,0-2.9-0.2-4.4-0.4c-3.6-0.4-7.1,0-9.9,2.7c0.5-1.1,0.7-2.1-0.7-2.6
		C41.4,1.7,42,1,44.1,1.1C48.8,1.1,53.4,1,58,1.8z"/>
	<path class="st4" d="M88.6,6.8c1.3,2.9,0.3,4.1-4.1,5.7c2.3,0.5,3.4,1.5,3,3.5c-0.5,0.1-1,0.2-1.5,0.3c-0.7-0.1-1.5-0.1-2.2-0.2
		c0-2.1-2.7-2.9-2.5-5.1c1.3-0.3,2.9,0.2,3.7-1.3C85.8,8,83.5,8,83,6.4C85.2,7,87.2,3.8,88.6,6.8"/>
	<path class="st9" d="M65.6,96.1c0,0.4,0,0.8,0,1.2c-1.7,2.5-4.2,2.6-7,2.5c-4.1-0.2-8.2-0.1-12.3-0.1c-1.5,0-2.7-0.2-3.3-1.8
		c0.4-0.5,0.7-0.9,1.1-1.4c1.7,1.3,3.7,1.6,5.9,1.7c3.8,0.2,7.4-1.4,11.2-0.8c1.3,1.1,1.4,0.1,1.5-0.8
		C63.5,95.7,64.6,96.3,65.6,96.1z"/>
	<path class="st9" d="M86,16.3c0.5-0.1,1-0.2,1.5-0.3c0.2,0.1,0.3,0.2,0.5,0.2c0,0.4,0,0.9,0,1.3c1.8,3.1,2.8,6.7,6.4,8.6
		c1.3,0.7,0.2,2.8,0.5,4.2c-0.2,0-0.5,0.1-0.7,0.1c-1.4-1.4-1.4-3.8-3.4-4.7c-0.5-0.9-0.2-2.4-1.8-2.4l-0.2,0c0,0-0.1,0.2-0.1,0.2
		c0.2-3.2-3.5-3.9-4.1-6.6C85,16.7,85.5,16.5,86,16.3z"/>
	<path class="st10" d="M30.3,7.5c-2,1.2-4,2.3-6,3.5c-0.2-0.6-0.2-1.9-1.3-1.2c-1,0.7-2,1.5-2.8,0.1c-1-1.6,1.1-1.5,1.7-2.2
		C23.8,5.4,28.5,5.4,30.3,7.5z"/>
	<path class="st5" d="M81.2,11c-0.3,2.2,2.5,3,2.5,5.1c0,0,0,0,0,0c-1.3,0-2-1-2.8-1.8c-3.3-3.1-7.3-5.1-11.5-6.5l0,0
		c-0.1-0.5-0.2-1-0.3-1.5c1.5,0.1,3.1,0.1,4.6,0.2c0.2,2.9,3.8,2.3,4.7,4.4C79.4,10.9,80.3,10.9,81.2,11z"/>
	<path class="st10" d="M62,101.4c1.9,2.5,3.6,3.1,5.7,2.8c0.8-0.1,1.5,0.3,1.6,1.2c0.1,0.7-0.1,1.4-0.7,1.6c-2,0.4-4.2,0.7-5.9-0.2
		C61,105.9,62.1,104,62,101.4z"/>
	<path class="st8" d="M108.6,42.1c-0.2,1.4,0.6,3.3-1.9,3.4c-1.8,0.1-2-1.2-1.9-2.5c0.2-1.9,0.5-4.3,2.4-4.5
		C109.2,38.3,108.3,40.8,108.6,42.1z"/>
	<path class="st3" d="M108.1,31.1c-2.2-0.1-2.1-2-2.4-3.5c-0.3-1.5,0.9-1.7,2.1-1.8c2.8-0.2,2.4,2.1,2.7,3.6
		C110.8,30.9,109.4,31.1,108.1,31.1z"/>
	<path class="st7" d="M42.2,3.6c1.4,0.5,1.2,1.5,0.7,2.6c-1.3,2-2,4.4-3.8,6.1c-2.1-0.6-1.2-1.6-0.5-2.8c1-1.8,2-3.7,2.9-5.5
		C41.8,3.9,42,3.8,42.2,3.6z"/>
	<path class="st3" d="M78.4,10.8c-0.9-2.2-4.5-1.5-4.7-4.4c1.3,0.1,3-0.9,3.9,0.9c0.2,0.3,0.5,0.7,0.7,0.2c0.5-1.1,1.2-1.9,2.1-0.6
		c0.7,1-0.3,1.7-1.1,2.4C78.9,9.7,78.7,10.3,78.4,10.8z"/>
	<path class="st8" d="M5.1,64.9c2.2,0.9,0.8,3.4,2.2,4.7c-2,1.2-2.2-0.8-3.1-1.7c-1.1-1-2.4-1.6-3-3.1C2.6,63.7,3.8,65.4,5.1,64.9z"
		/>
	<path class="st10" d="M68.7-3.5c0.7,4.6,0.7,4.6-4.5,4.6c-0.9-2.3,3.1-2.3,2.3-4.6"/>
	<path class="st6" d="M100.3,40.9c-2.4-0.6-1.5-3-2.4-4.5C100.2,36.1,101.2,37.9,100.3,40.9z"/>
	<path class="st4" d="M88.1,17.5c0-0.4,0-0.9,0-1.3c1.9-0.1,3.8-0.5,5.4,1.7C91.4,17.8,89.7,17.6,88.1,17.5z"/>
	<path class="st4" d="M93.5,20.7c-0.2,0.4-0.3,0.9-0.5,1c-0.6,0.2-0.9-0.2-0.9-0.7c0-0.3,0.3-0.7,0.6-0.7
		C92.9,20.2,93.2,20.5,93.5,20.7z"/>
	<path class="st8" d="M2,68.6c-0.1,0.2-0.2,0.4-0.3,0.6c-0.2-0.1-0.5-0.1-0.6-0.3c-0.1-0.2,0.1-0.4,0.2-0.6
		C1.6,68.4,1.8,68.5,2,68.6z"/>
	<path class="st4" d="M96.3,16.4c0.2,0.1,0.4,0.2,0.6,0.3c-0.1,0.2-0.1,0.5-0.3,0.6c-0.2,0.1-0.4-0.1-0.6-0.2
		C96.1,16.8,96.2,16.6,96.3,16.4z"/>
	<path class="st3" d="M53.8,101.6c-0.2,0.1-0.4,0.3-0.6,0.3c-0.2,0-0.4-0.2-0.6-0.3c0.2-0.1,0.4-0.3,0.6-0.3
		C53.4,101.3,53.6,101.5,53.8,101.6z"/>
	<path class="st5" d="M91.2,79.4c0.1,0,0.2,0.1,0.3,0.1C91.4,79.4,91.3,79.4,91.2,79.4C91.2,79.3,91.2,79.4,91.2,79.4z"/>
	<path class="st7" d="M31.2,41.7c0,4.5,0,8.9,0,13.4c-0.6,0-1.5,0.2-1.6-0.6c-0.7-3.8-1.6-7.5-0.5-11.4
		C29.4,42.1,29.6,40.8,31.2,41.7z"/>
	<path class="st1" d="M35.4,78.6C34,78.8,34,79.8,34,80.8c-1.4,0-2.8,1.7-4.1-0.1c-1.1-1.6,0.6-2.1,1.3-3c0.7-0.8,0.9-2-0.1-2.6
		c-1.3-0.8-2-1.4-1.1-2.9c0.8-1.5,2-1.2,3.2-0.9C34.5,73.7,34.8,76.2,35.4,78.6z"/>
	<path class="st11" d="M88.6,23.5l0.1-0.2c0,0,0.2,0,0.2,0c-0.1,0.9-1.1,1.8-0.4,2.7c0.7,1,1.5-0.1,2.2-0.3c2,0.9,2,3.3,3.4,4.7
		c2.8,7.4,4.5,15,4,23c-0.2,4-0.9,7.9-2.3,11.6c-2.1,0.5-3.6,1.3-3.5,3.9c0,1.1-0.6,2.7-1.4,3.4c-1.1,0.9-0.8-2-2.6-1.4
		c1.9,3.6-0.3,4.8-3.2,5.2c-2.2,0.3-2.2,1.6-2.1,3.2c0,0,0,0,0,0c-2.5-0.7-3.6,1.3-4.1,2.9c-0.8,2.4-2.3,3.7-4.8,4.4
		c1,1.1,2.6,1.7,2.2,3.3c0,0,0,0,0,0c-2.5,0.4-5.6-1.4-7.3,1.3c-1.4,2.2-3.6,2.8-5.6,3c-5.1,0.5-10.4,0.2-15.4,1.9
		c-0.8,0.3-0.9-0.7-1.3-1c-3.3-2.5-3.8-6.2-4.3-9.8c-3.1-1.3-3.3-3.9-3-6.7c2.1,0.1,4.1,0,5.3-2.2c0.5-0.9,1.4-0.8,2.2-0.8
		c0,0.6,0.2,1.5-0.1,1.8c-4,3.4-0.9,7.9-2.1,11.6c3.1,1,0.7-5,4.5-3.1c0-2.5-0.1-5.1,0-7.8c0-1.7-0.4-2.7-2.3-2.5
		c-0.6-2.7-1.5-5.4-0.8-8.3c0.2-0.7,0.1-1.9-0.7-1.9c-3.1,0-2.3-2-2.5-3.9c-0.1-1.7-1.1-3.5-3.1-3.8c-1.2-0.2-2-0.9-2.8-1.6
		c-1-0.6-2.6-0.8-1.8-2.6c1.4-3.3,0.8-6.9,1.8-10.2c2.1,0.4,4-0.3,5.9-0.8c3.2-0.8,4.1-4.2,2.2-7c-0.9-1.4-1.4-3.3,0.6-4.1
		c2.7-1,4.5-2.5,6.2-4.9c2.2-3.1,2.4-3.3-1-5.2c-2.3-1.3-5.7-2.6-4.2-6.6c1.2,0,2.1-0.8,3.5,0.7c1.2,1.3,4.4,3.8,5.4,2.6
		c2.5-2.8,5.3-1.3,7.9-1.8c1.3-0.2,3.4,0.8,3.5-1.6c0-2.1-1.6-2.9-3.6-2.9c-2.9,0-5.8,0.3-8.6-0.1c-2.4-0.4-5.8,0.5-6.3-3.7
		c0.2,2.6-2.5,4.3-1.7,6.8c-0.8,0-1.7,0.1-2.3-0.7c-0.2-1.3,1.2-2,1.1-3.4c-0.2-3.6,3.6-6.7,6.9-5.3c2.7,1.1,5.3,1.5,8,1
		c3.3-0.5,5.8,2.3,9,1.6c0,0,0,0,0,0c0,0.6-0.1,1.2-0.1,1.9c0,1-1.2,2-0.3,2.8c1.1,1.1,1.7-1.1,2.4-0.9c2,0.6,3.9,1.6,5.8,2.5
		c-0.2,0.3-0.5,0.6-0.7,0.8c-0.6,0.6-0.8,0.9,0.3,1.2c2.2,0.6,3.4,2.9,2.8,4.4c-0.6,1.7-2.3,3.6-4.9,3.1c-1.7-1.8-3.4-1.4-4.7,0.3
		c-1.4,1.8,0.8,3.2,1.7,3.9c1.4,1.1,2.8,0.1,3-1.9c2.7-0.7,5.9,1.6,8.3-1.7C83.1,23.9,86.8,25.3,88.6,23.5z M91.2,36.5
		c0.1,0.3,0.2,0.6,0.3,1c0.1-0.1,0.3-0.2,0.3-0.2C91.6,36.9,91.4,36.7,91.2,36.5c-1.1-4-1.6-4.6-3.5-4c-4.8,1.5-6,4.8-3.3,9.1
		c0.9,1.4,1.9,1.8,3.4,1.6c1.8-0.3,1.9-1.6,2-3C89.9,38.8,88.9,36.9,91.2,36.5z M87.4,68.1c0.1,0.3,0.2,0.6,0.3,1
		c0.1-0.1,0.2-0.1,0.3-0.2C87.8,68.6,87.7,68.3,87.4,68.1c0-0.4-0.1-1,0.1-1.1c3.9-2.9,0.6-8.8,4.7-11.7c0.6-0.4,0-1.4-0.2-2.1
		c-0.8-3.3-3.9-4.3-6-6.3c-1-1-1.4,0-1.8,0.9c-0.5,1.1-0.8,2.8-2.5,1.9c-1.5-0.8-1.6-2.5-0.7-3.6c1.3-1.6,0.6-2.5-0.6-3.3
		c-1-0.6-1.2-1.5-1.3-2.5c-0.2-2.1-0.9-3.2-3.4-2.4c-1.4,0.4-4-0.1-3.5-1.5c1.5-4.5-2.1-6.9-4-9.4c-1.4-1.8-5.1-1.8-7.7-3.1
		c-0.2-0.1-1.2,0.5-1.4,1c-0.5,0.9-1.1,1.5-1.9,2.1c-3.5,3-3.2,10,0.6,12.6c1,0.7,2.2,1.1,3.4,1.4c2.5,0.6,3.4,2,2.5,4.4
		c-1.2,3.1-0.4,6.4,1.3,8.6c1.5,2,4.5,2.9,5.4,5.8c0.1,0.2,1.2,0.2,1.8,0c2-0.5,1.7-2.2,1.7-3.7c-0.1-2.9,2.1-3.6,3.9-3.3
		c1.4,0.2,3.9,0.6,3.1,3.9c-0.6,2.5-1.4,6.5,3.9,5.9c0.5-0.1,1.1,0.9,1.5,1.5c0.3,0.5-0.1,1-0.6,1.1c-1.9,0.2-2.4,1.4-1.8,2.9
		C84.8,69.9,86.2,67.8,87.4,68.1z M47.8,46.2c2.5-0.6,3.6,1.1,4.7,2.3c1.3,1.4,2.3,1.4,3.7,0c1.4-1.4,2.6-2.9,0.8-4.3
		c-1.7-1.3-2.4-4.1-5-3.9c-2.8,0.2-2.7,2.8-3.3,4.7C48.5,45.5,48.1,45.8,47.8,46.2z M78.4,66.3c0.5-2-0.6-3.5-2.7-3.4
		c-2.1,0.1-3.5,2.2-3.8,3.9c-0.4,2.1,1.6,2.6,3.6,2.8C77.9,69.7,78.8,68.8,78.4,66.3z M44.1,52.2c1-0.1,2.4,0.3,2.6-1.4
		c0.1-1.3-0.5-2.4-1.8-2.2c-1.2,0.1-3,0-3.2,1.8C41.6,51.9,42.9,52.2,44.1,52.2z M72.1,88.2c-0.2-0.1-0.5-0.3-0.6-0.2
		c-0.1,0.1-0.2,0.4-0.3,0.6c0.2,0.1,0.5,0.3,0.6,0.2C72,88.7,72,88.4,72.1,88.2z"/>
	<path class="st12" d="M46.8,14.6c-1.5,4,1.8,5.3,4.2,6.6c3.3,1.9,3.2,2.1,1,5.2c-1.7,2.4-3.5,3.9-6.2,4.9c-2,0.8-1.5,2.7-0.6,4.1
		c1.9,2.8,1,6.1-2.2,7c-1.9,0.5-3.8,1.2-5.9,0.8c-2.9-5.4-1.7-11.5-0.3-16.5c0.9-3.2,1.3-7.1,3.4-10.1c1.1-1.5,2-3.3,4.3-2.7
		C45.1,14.7,46,14.6,46.8,14.6L46.8,14.6z"/>
	<path class="st12" d="M37,56c0.8,0.7,1.5,1.4,2.8,1.6c2,0.3,2.9,2.1,3.1,3.8c0.1,1.9-0.6,3.9,2.5,3.9c0.8,0,0.8,1.2,0.7,1.9
		c-0.7,2.9,0.2,5.6,0.8,8.3l0,0c-0.8,0-1.8-0.1-2.2,0.8c-1.1,2.2-3.2,2.3-5.3,2.2c-1.3-2.3-3.4-4-1.9-7.5c0.7-1.7-1.5-4.6-2.2-7
		c-0.3-0.8-1.7-2.6,1-2.1c0.7,0.8,0.5,2.1,1.8,2.8c0.7-1.1,0.8-1.9-0.2-2.8C37.7,60,36.6,58.1,37,56z"/>
	<path class="st6" d="M42.3,85.4c0.6,3.7,1.1,7.3,4.3,9.8c0.4,0.3,0.5,1.3,1.3,1c5-1.7,10.2-1.4,15.4-1.9c2.1-0.2,4.2-0.8,5.6-3
		c1.8-2.7,4.8-0.9,7.3-1.3c-1.8,2.9-5.1,3.3-7.8,4.5c-1,0.5-2.1,0.6-2.8,1.6c-1,0.2-2.2-0.4-3,0.6c-0.6,0-1.2,0.2-1.5,0.8
		c-3.8-0.6-7.4,1-11.2,0.8c-2.2-0.1-4.1-0.4-5.9-1.7c-1.8-2.9-3.8-5.6-4.8-8.9C40.3,86.9,41.3,86.1,42.3,85.4z"/>
	<path class="st7" d="M37.6,16.3c-1.1-0.4-1.6-1.3-1.2-2.4c0.5-1.3,1.4-0.3,2.2-0.1C38.7,14.9,38.3,15.7,37.6,16.3z"/>
	<path class="st11" d="M37.8,62c1,0.9,0.9,1.8,0.2,2.8c-1.3-0.7-1.1-2-1.8-2.8C36.7,62,37.3,62,37.8,62z"/>
	<path class="st0" d="M60.3,3.1c-0.1-0.1-0.2-0.1-0.3-0.2c0.1-0.1,0.2-0.2,0.3-0.1c0.1,0,0.2,0.1,0.3,0.2C60.5,3,60.4,3,60.3,3.1z"
		/>
	<path class="st6" d="M76.2,90c0.4-1.7-1.2-2.2-2.2-3.3c2.6-0.7,4-2,4.8-4.4c0.5-1.5,1.6-3.6,4.1-2.9c-0.5,2.1-2.8,3.1-3,5.3
		c-0.3,0.3-1,0.4-0.3,1c0.1-0.3,0.2-0.6,0.3-1c3.6-1.2,4.7-4.7,6.9-7.3c-1.3,0.7-2.6,1.4-3.9,2.1c-0.1-1.6,0-2.9,2.1-3.2
		c3-0.4,5.1-1.7,3.2-5.2c1.8-0.6,1.5,2.3,2.6,1.4c0.9-0.7,1.4-2.2,1.4-3.4c-0.1-2.6,1.4-3.4,3.5-3.9c-0.7,4-2.6,7.4-4.9,10.7
		c-0.9,1.3-1.9,2.6-2,4.3c-3.7,1.6-5.5,5.3-8.6,7.6C79,88.6,78.1,90.1,76.2,90z"/>
	<path class="st5" d="M86,16.3c-0.5,0.2-0.9,0.4-1.4,0.5c-0.3-0.3-0.6-0.5-0.8-0.7c0,0,0,0,0,0C84.5,16.1,85.2,16.2,86,16.3z"/>
	<path class="st5" d="M61.1,97.5c0.3-0.6,0.9-0.8,1.5-0.8C62.5,97.6,62.4,98.6,61.1,97.5z"/>
	<path class="st6" d="M83.7,16.1c0.3,0.2,0.6,0.5,0.8,0.7c0.6,2.7,4.3,3.5,4.1,6.6c-1.8,1.9-5.5,0.4-5.7,0.7c-2.4,3.2-5.6,1-8.3,1.7
		c0-0.8,0-1.5,0-2.3c2.6,0.5,4.3-1.4,4.9-3.1c0.5-1.5-0.6-3.8-2.8-4.4c-1-0.3-0.8-0.7-0.3-1.2c0.3-0.3,0.5-0.5,0.7-0.8
		c-1.9-0.8-3.8-1.8-5.8-2.5c-0.6-0.2-1.3,1.9-2.4,0.9c-0.9-0.8,0.3-1.8,0.3-2.8c0-0.6,0-1.2,0.1-1.9c4.3,1.4,8.2,3.4,11.5,6.5
		C81.7,15.1,82.4,16.1,83.7,16.1z"/>
	<path class="st6" d="M90.7,25.7C90,25.9,89.3,27,88.5,26c-0.7-0.9,0.3-1.8,0.4-2.7C90.6,23.4,90.2,24.9,90.7,25.7z"/>
	<path class="st12" d="M87.4,68.1c-1.2-0.2-2.7,1.8-3.6-0.2c-0.6-1.5-0.1-2.7,1.8-2.9c0.5-0.1,1-0.6,0.6-1.1
		c-0.4-0.6-1.1-1.5-1.5-1.5c-5.3,0.6-4.5-3.3-3.9-5.9c0.8-3.3-1.7-3.6-3.1-3.9c-1.8-0.3-4.1,0.4-3.9,3.3c0.1,1.4,0.4,3.2-1.7,3.7
		c-0.6,0.2-1.7,0.2-1.8,0c-0.9-2.9-3.9-3.8-5.4-5.8c-1.7-2.1-2.4-5.5-1.3-8.6c0.9-2.4-0.1-3.8-2.5-4.4c-1.2-0.3-2.4-0.7-3.4-1.4
		c-3.7-2.5-4.1-9.5-0.6-12.6c0.8-0.7,1.4-1.2,1.9-2.1c0.2-0.5,1.2-1.1,1.4-1c2.5,1.3,6.3,1.3,7.7,3.1c1.9,2.5,5.5,4.9,4,9.4
		c-0.5,1.4,2.2,1.9,3.5,1.5c2.5-0.8,3.2,0.3,3.4,2.4c0.1,1.1,0.3,1.9,1.3,2.5c1.3,0.8,1.9,1.7,0.6,3.3c-0.9,1.1-0.8,2.8,0.7,3.6
		c1.7,0.9,2.1-0.8,2.5-1.9c0.4-0.9,0.8-1.9,1.8-0.9c2.1,2,5.2,3,6,6.3c0.2,0.7,0.8,1.7,0.2,2.1c-4.2,2.9-0.8,8.7-4.7,11.7
		C87.4,67.1,87.5,67.7,87.4,68.1L87.4,68.1z"/>
	<path class="st12" d="M46.8,14.6c-0.8-2.6,1.9-4.2,1.7-6.8c0.5,4.3,3.9,3.4,6.3,3.7c2.8,0.4,5.7,0.1,8.6,0.1c2,0,3.6,0.8,3.6,2.9
		c0,2.4-2.2,1.4-3.5,1.6c-2.6,0.5-5.4-1-7.9,1.8c-1,1.1-4.2-1.3-5.4-2.6C48.8,13.8,48,14.6,46.8,14.6C46.8,14.6,46.8,14.6,46.8,14.6
		z"/>
	<path class="st12" d="M91.2,36.5c-2.3,0.5-1.3,2.3-1.4,3.7c-0.1,1.5-0.3,2.8-2,3c-1.5,0.2-2.5-0.2-3.4-1.6
		c-2.6-4.3-1.4-7.6,3.3-9.1C89.6,31.9,90.1,32.4,91.2,36.5L91.2,36.5z"/>
	<path class="st12" d="M47.8,46.2c0.3-0.4,0.7-0.7,0.8-1.1c0.6-1.9,0.5-4.5,3.3-4.7c2.6-0.2,3.3,2.6,5,3.9c1.8,1.4,0.6,2.9-0.8,4.3
		c-1.4,1.4-2.4,1.4-3.7,0C51.4,47.3,50.3,45.6,47.8,46.2z"/>
	<path class="st6" d="M46.8,75.6c1.9-0.1,2.3,0.9,2.3,2.5c-0.1,2.6,0,5.2,0,7.8C45.2,84,47.6,90,44.6,89c1.2-3.6-1.9-8.1,2.1-11.6
		C47,77.1,46.8,76.2,46.8,75.6C46.8,75.6,46.8,75.6,46.8,75.6z"/>
	<path class="st12" d="M78.4,66.3c0.4,2.4-0.5,3.4-2.8,3.3c-1.9-0.1-3.9-0.7-3.6-2.8c0.3-1.7,1.7-3.8,3.8-3.9
		C77.8,62.8,78.9,64.3,78.4,66.3z"/>
	<path class="st12" d="M74.6,23.6c0,0.8,0,1.5,0,2.3c-0.2,1.9-1.7,2.9-3,1.9c-0.9-0.7-3-2-1.7-3.9C71.2,22.2,73,21.8,74.6,23.6z"/>
	<path class="st12" d="M44.1,52.2c-1.2,0-2.5-0.4-2.4-1.7c0.1-1.8,2-1.7,3.2-1.8c1.3-0.2,2,0.9,1.8,2.2
		C46.5,52.5,45.2,52.1,44.1,52.2z"/>
	<path class="st6" d="M72.1,88.2c-0.1,0.2-0.1,0.5-0.3,0.6c-0.1,0.1-0.4-0.1-0.6-0.2c0.1-0.2,0.1-0.5,0.3-0.6
		C71.7,87.9,71.9,88.1,72.1,88.2z"/>
	<path class="st6" d="M87.5,68c0.2,0.3,0.4,0.5,0.6,0.8c-0.1,0.1-0.2,0.1-0.3,0.2C87.6,68.7,87.5,68.4,87.5,68
		C87.4,68.1,87.5,68,87.5,68z"/>
	<path class="st12" d="M91.3,36.4c0.2,0.3,0.4,0.5,0.5,0.8c0,0-0.2,0.1-0.3,0.2C91.4,37.1,91.3,36.8,91.3,36.4
		C91.2,36.5,91.3,36.4,91.3,36.4z"/>
	<path class="st8" d="M79.9,84.6c0.2-2.2,2.5-3.2,3-5.3c0,0,0,0,0,0c1.3-0.7,2.6-1.4,3.9-2.1C84.6,79.9,83.5,83.5,79.9,84.6
		L79.9,84.6z"/>
	<path class="st8" d="M79.9,84.6c-0.1,0.3-0.2,0.6-0.3,1C79,85,79.6,84.9,79.9,84.6C79.9,84.6,79.9,84.6,79.9,84.6z"/>
</g>
<g>
	<path class="st13" d="M90.8,126.5H15c-2.2,0-4-1.8-4-4v-23c0-2.2,1.8-4,4-4h75.8c2.2,0,4,1.8,4,4v23
		C94.8,124.7,93,126.5,90.8,126.5z"/>
	<g>
		<path class="st14" d="M31.9,113c-0.1-2-0.1-4.4-0.1-6.8h-0.1c-0.5,2.1-1.2,4.4-1.8,6.4l-2,6.4H25l-1.8-6.4
			c-0.5-1.9-1.1-4.3-1.5-6.4l0,0c-0.1,2.2-0.2,4.8-0.3,6.8l-0.3,6.3h-3.4l1.1-16.5h5l1.6,5.5c0.5,1.9,1,4,1.4,5.9h0.1
			c0.5-1.9,1-4.1,1.6-5.9l1.8-5.5h4.9l0.9,16.5h-3.6L31.9,113z"/>
		<path class="st14" d="M53.7,110.9c0,5.4-3.3,8.7-8.1,8.7c-4.9,0-7.7-3.7-7.7-8.4c0-4.9,3.2-8.6,8-8.6
			C51,102.6,53.7,106.3,53.7,110.9z M41.8,111.1c0,3.2,1.5,5.5,4,5.5s4-2.4,4-5.6c0-3-1.4-5.5-4-5.5
			C43.3,105.5,41.8,107.9,41.8,111.1z"/>
		<path class="st14" d="M71.2,110.9c0,5.4-3.3,8.7-8.1,8.7c-4.9,0-7.7-3.7-7.7-8.4c0-4.9,3.2-8.6,8-8.6
			C68.5,102.6,71.2,106.3,71.2,110.9z M59.3,111.1c0,3.2,1.5,5.5,4,5.5c2.5,0,4-2.4,4-5.6c0-3-1.4-5.5-4-5.5
			C60.8,105.5,59.3,107.9,59.3,111.1z"/>
		<path class="st14" d="M73.7,119.3v-16.5H78l3.4,6c1,1.7,2,3.8,2.7,5.6h0.1c-0.2-2.2-0.3-4.4-0.3-6.9v-4.8h3.4v16.5h-3.9l-3.5-6.4
			c-1-1.8-2.1-3.9-2.9-5.8h-0.1c0.1,2.2,0.1,4.5,0.1,7.2v5h-3.3V119.3z"/>
	</g>
</g>
</svg>
