<?xml version="1.0" encoding="utf-8"?>
<!-- Generator: Adobe Illustrator 25.0.0, SVG Export Plug-In . SVG Version: 6.00 Build 0)  -->
<svg version="1.1" id="Layer_1" xmlns="http://www.w3.org/2000/svg" xmlns:xlink="http://www.w3.org/1999/xlink" x="0px" y="0px"
	 width="105.5px" height="129px" viewBox="0 0 105.5 129" style="enable-background:new 0 0 105.5 129;" xml:space="preserve">
<style type="text/css">
	.st0{fill:#48A6DD;}
	.st1{fill:#FFFFFF;}
	.st2{fill:#231F20;}
	.st3{fill:#181815;}
	.st4{fill:#262620;}
	.st5{fill:#E2DABD;}
	.st6{fill:#35332B;}
	.st7{fill:#38372D;}
	.st8{fill:#DAD2B5;}
	.st9{fill:#E7E1C8;}
	.st10{fill:#D1C9AC;}
	.st11{fill:#1B1B17;}
	.st12{fill:#E8E0C9;}
	.st13{fill:#C0BA9B;}
	.st14{fill:#6D6A57;}
	.st15{fill:#C8C4A8;}
	.st16{fill:#1C1C19;}
	.st17{fill:#B4AE93;}
	.st18{fill:#DCD4B9;}
	.st19{fill:#4B4A3F;}
	.st20{fill:#131311;}
	.st21{fill:#A9A286;}
	.st22{fill:#A49E86;}
	.st23{fill:#8E8972;}
	.st24{fill:#E6E1C6;}
	.st25{fill:#615E51;}
	.st26{fill:#838071;}
	.st27{fill:#B8B09A;}
	.st28{fill:#47463F;}
	.st29{fill:#515049;}
	.st30{fill:#46443F;}
	.st31{fill:#DCD5B9;}
	.st32{fill:#424035;}
	.st33{fill:#36342C;}
	.st34{fill:#2D2C26;}
	.st35{fill:#303028;}
	.st36{fill:#48473D;}
	.st37{fill:#DDD5B6;}
	.st38{fill:#EEE6C9;}
	.st39{fill:#514E41;}
	.st40{fill:#5F5B4C;}
	.st41{fill:#22221C;}
	.st42{fill:#716E5A;}
	.st43{fill:#434138;}
	.st44{fill:#504D40;}
	.st45{fill:#C0BA9C;}
	.st46{fill:#D1C9AA;}
	.st47{fill:#C1BB9C;}
	.st48{fill:#C9C3A8;}
	.st49{fill:#E6DDC1;}
	.st50{fill:#ACA48A;}
	.st51{fill:#ADA689;}
	.st52{fill:#B7B094;}
	.st53{fill:#A29C81;}
	.st54{fill:#D1CAAE;}
	.st55{fill:#3E3D33;}
	.st56{fill:#605F54;}
	.st57{fill:#7A7769;}
	.st58{fill:#5B5849;}
	.st59{fill:#84806A;}
	.st60{fill:#726E5B;}
	.st61{fill:#B0A98E;}
	.st62{fill:#45453A;}
	.st63{fill:#A59D82;}
	.st64{fill:#B1AA8E;}
	.st65{fill:#D4C9AE;}
	.st66{fill:#080808;}
	.st67{fill:#8C8771;}
	.st68{fill:#9D967F;}
	.st69{fill:#85826B;}
	.st70{fill:#938C75;}
	.st71{fill:#635E4D;}
	.st72{fill:#555243;}
	.st73{fill:#545144;}
	.st74{fill:#393527;}
	.st75{fill:#C7C0A3;}
	.st76{fill:#696554;}
	.st77{fill:#343328;}
	.st78{fill:#6F6B56;}
	.st79{fill:#3D3A27;}
	.st80{fill:#59574A;}
	.st81{fill:#AEA78C;}
	.st82{fill:#B8B296;}
	.st83{fill:#999377;}
	.st84{fill:#A59E83;}
	.st85{fill:#98927B;}
	.st86{fill:#7C7865;}
	.st87{fill:#9C957C;}
	.st88{fill:#968F76;}
	.st89{fill:#8C8772;}
	.st90{fill:#8F8972;}
	.st91{fill:#C5BEA3;}
	.st92{fill:#BEB89C;}
	.st93{fill:#B7B191;}
	.st94{fill:#282619;}
	.st95{fill:#7C7764;}
	.st96{fill:#99937B;}
	.st97{fill:#716D5A;}
	.st98{fill:#736E5C;}
	.st99{fill:#847E6A;}
	.st100{fill:#7F7C6C;}
	.st101{fill:#625F4E;}
	.st102{fill:#898570;}
	.st103{fill:#9B977F;}
</style>
<g>
	<path class="st0" d="M90.8,126.5H15c-2.2,0-4-1.8-4-4v-23c0-2.2,1.8-4,4-4h75.8c2.2,0,4,1.8,4,4v23C94.8,124.7,93,126.5,90.8,126.5
		z"/>
	<g>
		<path class="st1" d="M31.9,113c-0.1-2-0.1-4.4-0.1-6.8h-0.1c-0.5,2.1-1.2,4.4-1.8,6.4l-2,6.4H25l-1.8-6.4
			c-0.5-1.9-1.1-4.3-1.5-6.4l0,0c-0.1,2.2-0.2,4.8-0.3,6.8l-0.3,6.3h-3.4l1.1-16.5h5l1.6,5.5c0.5,1.9,1,4,1.4,5.9h0.1
			c0.5-1.9,1-4.1,1.6-5.9l1.8-5.5h4.9l0.9,16.5h-3.6L31.9,113z"/>
		<path class="st1" d="M53.7,110.9c0,5.4-3.3,8.7-8.1,8.7c-4.9,0-7.7-3.7-7.7-8.4c0-4.9,3.2-8.6,8-8.6
			C51,102.6,53.7,106.3,53.7,110.9z M41.8,111.1c0,3.2,1.5,5.5,4,5.5s4-2.4,4-5.6c0-3-1.4-5.5-4-5.5
			C43.3,105.5,41.8,107.9,41.8,111.1z"/>
		<path class="st1" d="M71.2,110.9c0,5.4-3.3,8.7-8.1,8.7c-4.9,0-7.7-3.7-7.7-8.4c0-4.9,3.2-8.6,8-8.6
			C68.5,102.6,71.2,106.3,71.2,110.9z M59.3,111.1c0,3.2,1.5,5.5,4,5.5c2.5,0,4-2.4,4-5.6c0-3-1.4-5.5-4-5.5
			C60.8,105.5,59.3,107.9,59.3,111.1z"/>
		<path class="st1" d="M73.7,119.3v-16.5H78l3.4,6c1,1.7,2,3.8,2.7,5.6h0.1c-0.2-2.2-0.3-4.4-0.3-6.9v-4.8h3.4v16.5h-3.9l-3.5-6.4
			c-1-1.8-2.1-3.9-2.9-5.8h-0.1c0.1,2.2,0.1,4.5,0.1,7.2v5h-3.3C73.7,119.2,73.7,119.3,73.7,119.3z"/>
	</g>
</g>
<circle class="st2" cx="53" cy="52.3" r="51.2"/>
<g>
	<path class="st3" d="M73.9,55.1c0.2-1.8-0.9-0.5-1.4-0.6c-0.1-0.1-0.1-0.2-0.1-0.2c2.9-3.1,0.9-7.1,1.9-10.6
		c1.2-4.1-0.8-8.1-1-12.1c-0.2-3.5-1.8-6.6-2.1-10c-0.1-0.9-0.7-1.3-1.1-1.9c-1.6-2.4-1.7-5.4-2.8-8c-0.8-1.7-1-3.7-2.8-4.6
		c-1.1-0.6-0.5-2.6-1.6-2.4c-1.7,0.2-1-1.1-1.5-1.6c0.5-0.5,1.1-0.4,1.6,0c1.4,1.1,3,2.1,3.8,3.9c0.6,1.3,1.5,2.4,2.2,3.6
		c0.2,0.4,0.7,0.7,0.7,1.1c0.5,2.9,2.6,5.1,3.2,7.7c1.1,5,4,9.6,3.9,15c0,1.7-0.3,3.9,1.1,5.6c0.2,0.3-0.2,10.1-0.4,10.4
		C76.4,52.1,75.2,53.7,73.9,55.1z"/>
	<path class="st4" d="M73.9,55.1c0.2-2.6,3.6-3.6,3.3-6.2c-0.3-3,0.3-5.8,0.2-8.7c0-0.5,0-1.6-1.1-1.6c-0.4,0-0.7-0.5-0.5-0.8
		c1.5-2.4,0-4.8-0.2-7.1c-0.3-2.8-0.5-5.9-3-8c-0.4-0.3-0.6-0.9-0.3-1.2c1.3-1.6,0-2.7-0.7-3.7c-0.8-1.3-2-2.1-1.9-4.1
		c0.1-2.1-2-3.7-3.1-5.5c-0.2-0.3-0.9-0.5-0.4-1.1c2.3-0.1,3.2,1.8,4.2,3.3c2.5,4,3.6,8.6,5.6,12.9c0.3,0.5,0.6,1,0.9,1.5
		c0.3,1.8,1.1,3.5,0.5,5.6c-0.5,1.9,1.3,2.5,2.8,3c0.2,0.7-0.3,1.3-0.4,2c-0.1,0.3-0.3,0.5-0.4,0.8c0.1,2.6-0.2,5.2,1,7.6
		c0.3,0.6,0.9,1.4,0.5,1.9c-1.4,1.7-1.2,3.7-1.2,5.7c0,0.5-0.4,1-0.8,1.3c-0.7,0.3-1.3,0.8-1.6,1.6c-0.4,0.6-0.6,1.2-0.7,1.9
		c-0.1,0.3-0.2,0.6-0.4,0.8c-1.2-0.3-1.3,0.4-1.3,1.3c-0.1,0.5-0.1,1.1-0.6,1.4C73.3,58.3,73.4,56.7,73.9,55.1z"/>
	<path class="st5" d="M97.7,77.3c-1.2,2.3-2.7,4.4-4.4,6.4c-0.7,0.5-1,0-1.3-0.6c-0.3-0.7-0.4-1.4-0.9-1.9c-0.5-0.7,0.4-1.2,0.3-1.9
		c-0.4,0.8-1,1.4-0.7,2.3c-0.4,0.8-1,1-1.8,0.8c-0.8-0.3-0.8-0.9-0.8-1.6c0-0.9-0.2-1.8,0.3-2.6c1.5-2.3,4-3.3,6-5.1
		c1.3-0.1,1.3-0.1,1.7,2c0.1-1.1,0.3-1.5,1-1.6c1.5-0.1,2.1,0.3,1.1,1.8C97.8,75.9,97.2,76.5,97.7,77.3z"/>
	<path class="st6" d="M71.2,78.3c0-0.1,0-0.3,0-0.4c0.2-0.2,0.3-0.2,0.6-0.2c0.6,0.2,0.8,0.7,0.6,1.2c-0.7,1.5,0.8,0,0.7,0.6
		c1.3,0.5,1.7,1.3,0.9,2.6c-1,1.6-1.1,3.4-1.7,5.1c-0.1,0.8-0.9-1.2-0.9,0.2c0,1.3-1.3,2.3-0.7,3.6c0.5,2.1-1.3,3.1-2.2,4.5
		c-0.4,0.7-1.3,1-1.1,2c-0.1,0.7-0.3,1.2-1,1.5c-1.1,0.3-1.4-0.9-2.2-1.2c-1.9-1.6,0.1-2.5,0.7-3.6l0,0c1.4-3.6,4-6.5,4.9-10.4
		C70.2,81.9,70.9,80.2,71.2,78.3z"/>
	<path class="st7" d="M76.6,25.2c-2.2-3.5-3.3-7.4-4.9-11.2c-1.2-2.8-2.5-5.5-5.5-7c-1.3-1.8-2.6-3.5-5-4.1
		c-0.1-0.2-0.3-0.3-0.4-0.5c-0.3-0.5,0.2-0.7,0.5-0.9c1.2,0.9,2.9-0.1,4.1,0.9c-0.5,0.6-1,0.4-1.4,0.3c1.6,1,3.4,2,4.6,3.9
		c1,1.7,3.3,2.3,3.8,4.3c0.3,1.3,1.1,2.3,1.8,3.3c0.5,2.4,1.2,4.6,2.8,6.5c1,1.2,1.3,2.9,0.1,4.3C77,25.4,76.8,25.4,76.6,25.2z"/>
	<path class="st8" d="M90.1,17.1c2,1.7,3.8,3.5,5,5.9c0.4,3.1,2.2,5.5,3.6,8.1c0.4,0.7,1,1.3,0.6,2.2c-1,0.5-1.6-0.8-2.5-0.6
		c-0.9-0.8-2.1-1.3-2.6-2.5c-0.2-0.7-0.5-1.3-0.7-2c0-0.2,0-0.4,0.1-0.6c0.4-0.8,1.4-1.8-0.7-1.6c-1.6,0.1-1.9-0.6-1.3-2.4
		c0.5-0.2,0.5-0.5,0.1-0.8c-0.3-0.4-0.7-0.7-0.9-1.1c0.2-1.7-1.7-1.8-2.2-3c-0.1-0.4,0-0.9,0.1-1.3C89.1,16.4,89.6,16.4,90.1,17.1z"
		/>
	<path class="st9" d="M97.7,77.3c-1.2-1.1,0-2,0.4-2.6c1-1.5-0.9-0.4-0.8-1c-0.5-0.6-0.1-0.9,0.3-1.3c0.4-0.3,0.5-0.8,0.7-1.3
		c0.9-1.9,1.5-4,2.3-5.9c0.6-1.3-0.5-2.5,0.1-3.7c0.5-0.6,1-1.2,1.2-2c0.3-1.3,0.1-2.7,0.3-4c0.2-1.1,0.5-2,1.9-1.3
		c0,0.2,0,0.3,0,0.5c-0.5,1.2,0.1,2.6-0.4,3.8c-0.1,5.9-2.1,11.2-4.7,16.3C98.5,75.7,98.1,76.5,97.7,77.3z"/>
	<path class="st10" d="M88.8,78.3c-0.7,1,0.1,2.2-0.1,3.3c-0.1,0.8,1.2,0.6,1.9-0.1c0-0.3,0.2-0.4,0.4-0.5c0.9-0.1,1.4,0.3,1.4,1.2
		c0,0.7,0,1.4,0.9,1.5c-1,1.5-2.1,2.9-3.5,4.1c-1,0.2-1-0.4-1.1-1.2c-0.2-2-1.3-2.5-3-1.4c-0.5,0.2-0.8,0.1-1.1-0.3
		c-0.2-0.4-0.2-0.8-0.1-1.3c0.1-0.2,0.2-0.4,0.3-0.5c0.2-0.2,0.5-0.4,0.8-0.5c0.8-0.7,1-1.6,1.3-2.5c0.3-0.9,0.6-1.8,1.8-1.9
		C88.6,78.2,88.7,78.2,88.8,78.3z"/>
	<path class="st11" d="M71.2,78.3c0.2,1.2-0.3,2.6,0.4,3.8c0.1,0.2,0.1,0.4,0.1,0.6c-2.2-0.2-1.4,1.9-2,2.9
		c-0.7,1.2-0.9,2.7-1.2,4.1c-0.2,0.6-0.1,1.2-1.2,1c-1.1-0.2-0.4,1.5-1.2,1.9c0.7,1.3-0.8,1.1-1.2,1.7c-1.4-3.2,2-4.6,2.5-7.2
		c-0.4-0.7-1.4,0.8-1.5-0.3c-0.1-0.8,0.6-1.7,1.3-1.9c1.2-0.3,1.3-1,1.3-2c0-0.5,0-1.1,0.6-1.4C70.4,80.8,70.7,79.5,71.2,78.3z"/>
	<path class="st12" d="M99.1,33.4c-0.5-2-1.4-3.8-3-5.2c-0.5-0.5-0.6-1-0.6-1.6c0-1.1-0.4-2.2-1-3.1c-0.6-1,0.2-0.6,0.6-0.6
		c3.3,4.8,6.2,9.7,6.7,15.7c0.3,0.8,0.1,1.2-0.7,1.3c-1.3-0.5-1.2-1.7-1.4-2.7C100.2,35.8,98.3,34.8,99.1,33.4z"/>
	<path class="st4" d="M72.5,66.9c0.3-1.9,0.6-3.8,0.7-5.7c0.1-0.9,0.4-1,1.1-1.1c0.2,1,1,0.1,1.4,0.4c0.5,0.2,0.9,0.4,1.3,0.8
		c0.1,0.2,0.1,0.4,0.1,0.6c-0.2,0.4-0.5,0.6-0.8,0.9c-0.6,0.6-0.5,1.3-0.4,2c0,0.5-0.2,1-0.4,1.5c-0.7,1.3-0.6,2.5,0.2,3.8
		c0.4,0.6,0.6,1.4,0.1,2.1c-0.3,0.4-0.8,0.4-1.2,0.3c-0.9-0.4-1.1-1.1-1.1-2c0-0.5,0.1-1-0.7-1C72.5,68.7,72,67.9,72.5,66.9z"/>
	<path class="st13" d="M85.6,85.1c0.2-1.1,0.8-1.8,1.8-1c0.8,0.6,3,0.4,1.9,2.4c-0.4,0.8-0.1,1.1,0.5,1.4c-1.1,1.5-2.4,2.7-4,3.6
		c-0.9,0.1-1.7,0.4-2.5,0.6c-0.8,0.2-1.8,0.3-2-1c0.3-1.1,1.5-0.8,2.2-1.4C86.3,88.4,86.8,87.2,85.6,85.1z"/>
	<path class="st14" d="M68.5,3.5c0.3,0.2,0.6,0.3,0.9,0.5c2,2.2,4.2,4.1,6.2,6.4c0.4,1.6,1.7,2.7,2,4.2c0.1,1.1,1.1,1.4,1.6,2.2
		c0.5,0.8,0.8,1.6,0.3,2.6c-0.2,0.2-0.3,0.3-0.6,0.3c-0.8-0.2-1.4-0.7-1.7-1.4c-0.8-2.1-2.7-3.5-3.2-5.7c-0.6-2.6-3-3.6-4.8-5.2
		c-0.6-0.8-1.5-1.2-1.9-2.1c-0.2-0.5-1.4-0.8-0.7-1.6C67.1,3,67.9,3.2,68.5,3.5z"/>
	<path class="st15" d="M90.1,17.1c-0.5-0.2-1-0.4-1,0.5c-0.8,0.1-1.5-0.3-2.3-0.3c-0.9-0.9-1.7-1.9-2.7-2.7c-0.5-0.7-1.1-0.9-2-0.9
		c-0.5-0.1-0.8-0.4-0.9-0.9c-0.1-1.3-0.7-2.1-2-2.2c-0.5-0.1-1-0.4-1-1c0-0.6,0.1-1.2,1-1.1C83.3,10.8,87.3,13.2,90.1,17.1z"/>
	<path class="st16" d="M64.9,94.1c-0.1,0.6,0.7,1.4-0.7,1.8c-1.1,0.3,0.6,1.1,0.3,1.9c0.5,0.7,0.3,1.3-0.2,1.8
		c-1.5-0.1-2.2,1.2-3.3,1.9c-0.7,0.5-1.2-0.6-1.9-0.2c-1-1.2,0.3-2.7,0.6-3C61.3,96.9,62.3,94.5,64.9,94.1z"/>
	<path class="st17" d="M81.5,91c0.4,1.2,1.3,1,2,0.4c0.8-0.6,1.5-0.3,2.2,0.1c-2.6,2.4-5.5,4.4-8.7,5.8c-1.4,0-2.1-0.4-1.1-1.9
		c0.5-0.4,1.2-0.5,1.7-0.8c1.9-0.4,1.7-2.3,2.4-3.5C80.5,90.9,81,90.6,81.5,91z"/>
	<path class="st18" d="M104,54.2c-1.1-0.1-1.3,0.5-1.4,1.5c0,1.5,0.3,3-0.4,4.4c-1.6,0.5-2.7-0.3-3.7-1.4c0-0.2,0-0.4,0.2-0.6
		c0.2-0.2,0.5-0.3,0.8-0.3c1.8-0.2,2.4-0.9,1.2-2.6c-0.2-0.2-0.1-0.6,0-0.9c0.5-0.8,1-1.5,0.7-2.5c-0.1-1.1-0.4-2.3,0.5-3.2
		c1-0.2,1.2,0.7,1.5,1.3c0-0.6-0.7-1.5,0.6-1.7C104.3,50.3,104.3,52.3,104,54.2z"/>
	<path class="st19" d="M68.5,3.5c-0.5,0.1-1.3,0-1.4,0.3c-0.4,0.7,0.6,0.9,0.8,1.4c0.3,0.9,1.9,0.6,1.6,2c1,1.1,2.4,1.6,3.3,2.7
		c0.5,0.6,1.2,1.1,1.2,2.1c0.1,0.8,0.8,1.7,0,2.5c-0.9-0.7-1.7-1.3-1.9-2.6c-0.1-1.2-0.9-2.2-2-2.8c-0.8-0.5-1.5-1.2-2-2
		C67,5.1,65,4.3,63.4,2.7c0.7-0.1,1.4-0.1,2-0.1C66.5,2.7,67.5,2.9,68.5,3.5z"/>
	<path class="st20" d="M72.5,66.9c0.2,0.9,0.3,1.8,0.5,2.7c0.5,0.5,0.4,1.2,0.4,1.8c-0.3,1.5-0.4,3-0.7,4.5
		c-0.2,0.8-0.2,1.5-1.1,1.8c-0.1,0-0.3,0-0.4,0c0-0.3,0-0.6,0-0.9c0.2-0.2,0.4-0.5,0.1-0.8c0.2,0.3,0.1,0.5-0.1,0.8
		c-0.7,0.4-1.3,1.1-2,0c-0.8-1.4,0.4-2.3,1.2-2.9c0.4-0.3,0.8-0.3,0.7-1C70.8,70.8,72,68.9,72.5,66.9z"/>
	<path class="st21" d="M79.3,8.5c-0.6,0.8-1.5,1.6,0.5,1.6c1.2,0,2.1,0.7,1.9,2c-0.1,0.8,0.1,1.1,0.7,1.4c0.1,0.2,0.1,0.4,0,0.6
		c-0.3,0.5-0.8,0.7-1.4,0.7c-0.2,0-0.4-0.1-0.6-0.2c-1-1.8-2.2-3.4-4-4.5c-1.3-0.3-2.9-0.3-2.2-2.4c1.5-1,2.8,0.5,4.2,0.3
		C78.8,7.9,79.1,8.1,79.3,8.5z"/>
	<path class="st22" d="M76.1,95.5c-0.8,1.2,0.1,1.4,0.9,1.8c-1.5,1-3.2,1.7-4.9,2.3c-1,0.2-2,0.8-3.1,0.6c-0.7-0.8-0.1-1.2,0.4-1.7
		c1.8-1.3,3.9-2.3,5.3-4c0.6-0.1,1,0.2,1.3,0.7C76.1,95.3,76.1,95.4,76.1,95.5z"/>
	<path class="st23" d="M74.8,7.6c-0.4,1.7-0.4,1.8,2.2,1.8c0.2,0.8-0.4,0.9-0.9,1.1c-0.3,0.1-0.6,0-0.9-0.2
		c-2.5-1.5-3.8-4.4-6.4-5.8c-0.3-0.2,0.3-0.5,0.6-0.6c1.4,0.2,2.8,0.5,4,1.4C72.5,7,74.6,6.2,74.8,7C74.9,7.2,74.9,7.4,74.8,7.6z"/>
	<path class="st24" d="M104,48.4c-0.7,0.5-0.2,1.3-0.5,1.9c-0.6-0.3-0.9-0.9-1.2-1.4c-0.8-0.8-0.1-1.8-0.2-2.6
		c0.2-1.4-0.6-2.5-1-3.8c-0.2-0.8-0.6-1.5-0.4-2.4c0.1-0.1,0.1-0.2,0.2-0.3c0.7,0,0.9-0.5,1-1.1c0.1,0.1,0.3,0.1,0.4,0.2
		c0.4,1.2,0.4,2.4,0.9,3.6c0.5,0.8,0.5,1.7,0.5,2.6c0.5,0.9-0.1,1.9,0.4,2.8C104,48.1,104,48.2,104,48.4z"/>
	<path class="st25" d="M64,99.5c0.4-0.5,0.5-1.1,0.5-1.7c1.1-0.8,0.8,1.3,1.8,0.9c0.6,0.2,0.8,0.7,0.7,1.3c-0.6,0.4-0.2,1-0.2,1.5
		c-1.2,0.7-2.6,1-4,1c-0.4,0.2-0.6-0.1-0.7-0.4C62,100.6,63.2,100.3,64,99.5z"/>
	<path class="st26" d="M66.7,101.4c-0.2-0.6-1.2,0.3-1.2-0.6c0-0.7,0.6-0.7,1.2-0.8c0.8-2.1,1.5-0.5,2.3,0c1.1-0.1,2.2-0.3,3.3-0.4
		C70.5,100.6,68.6,101.1,66.7,101.4z"/>
	<path class="st27" d="M74.8,7.6c0-0.1,0-0.3,0-0.4c-0.5-0.5-1.7-0.2-1.3-1.5c1.9,0.1,3.5,1.2,5,2.3C77.1,9.1,76.1,7.1,74.8,7.6z"/>
	<path class="st28" d="M62.1,101.8c0.2,0.2,0.4,0.4,0.5,0.5c-0.5,0.5-1.1,0.3-1.7,0.5c-1.5,0.6-2-0.1-2-1.5c0.6-1.9,1.2,0.6,1.8,0
		C61.4,101.1,61.8,101.4,62.1,101.8z"/>
	<path class="st29" d="M75.7,61.1c-1-0.7-0.8,0.7-1.5,0.7c0-0.6,0.1-1.1,0.1-1.7c0-0.1,0-0.3,0-0.4c0-0.6,0-1.2,0.1-1.8
		c1.1-0.2,1.3,0.7,1.7,1.5C76.2,60,76.2,60.6,75.7,61.1z"/>
	<path class="st3" d="M61.3,1.7C61.1,2,61,2.3,60.8,2.6c-1.2,0.7-1.8-1-3-0.7C59,0.7,60.2,2.1,61.3,1.7z"/>
	<path class="st21" d="M73.5,5.6c0.1,0.8,1,0.9,1.3,1.5c-0.8-0.3-2.2,0.3-2.2-1.3c0-0.2-0.2-0.4,0.1-0.4c0.2,0,0.4,0,0.7,0
		C73.5,5.4,73.5,5.5,73.5,5.6z"/>
	<path class="st30" d="M56.6,103c0.4-0.8,0.8-1.3,1.6-1c0.1,0,0.3,0.4,0.2,0.5C58,103.2,57.5,103.4,56.6,103z"/>
	<path class="st31" d="M103.2,42.5c-0.9-1-1-2.3-0.9-3.6C102.9,40,103.1,41.2,103.2,42.5z"/>
	<path class="st18" d="M103.7,58.5c0-1.3-0.5-2.6,0.4-3.8C104.1,56,104.1,57.3,103.7,58.5z"/>
	<path class="st18" d="M104,47.9c-0.7-0.9-0.4-1.9-0.4-2.8C104.1,46,104.1,46.9,104,47.9z"/>
	<path class="st32" d="M79.7,35.2c-0.3-0.6-0.3-1.1,0.4-1.4c0.3-0.4,0.1-1.2,1-0.9c0.5,0.6,0.6,1.3,1,2c1.3,1.8,2.1,3.9,3.6,5.6
		c1.7,1.8,0.7,4,0,5.9c-0.7,1.7-1.4,3.5-2.1,5.2c-0.7,1.1-0.5,2.5-0.9,3.7c-0.2,0.4-0.8,0.5-0.7,0.8c0.3,2.2-1.4,3.4-2.3,5
		c-0.3,0.2-0.6,0.1-0.9,0c-0.4-0.3-0.6-0.7-0.7-1.1c-0.4-1.2-0.1-2.1,0.8-3.2c1.5-1.8,2.9-3.7,2.5-6.5c-0.2-1.5,0.4-3.1,0.7-4.7
		c0.3-1.3,0.2-2.5-0.1-3.7C81.5,39.7,81.2,37.3,79.7,35.2z"/>
	<path class="st33" d="M79.7,35.2c1.6,1.2,2.6,2.7,2.2,4.8c-0.2,1.1,1,1.6,0.9,2.7c-0.1,0.8-0.9,5.6-1.1,6.9
		c-0.3,1.4,0.8,2.8-0.3,4.3c-1,1.3-1.3,3-2.8,4c-0.9,0.6,0,1.5-0.3,2.2c0,0.3-0.1,0.5-0.3,0.8c-0.3,0.3-0.4,0.9-1.1,0.6
		c-0.4-0.1-0.9-0.3-1.3-0.4c0-0.6,0-1.2,0-1.8c0-0.1,0-0.2,0.1-0.3c0.2-0.6,0.5-1.1,0.5-1.7c0-0.1,0-0.2,0-0.3c0-0.3,0-0.6,0-0.9
		c0.4-0.4,0.7-0.9,1.1-1.2c0.6-0.4-0.2-0.4-0.3-0.6c0-1,0.2-1.7,1.4-1.8c0.7,0.3,1.1-0.3,1.2-0.7c0.3-2.9,2.1-5.7,0.7-8.7
		c-0.2-0.5-0.2-1-0.1-1.6c0.2-2,0.2-4-0.8-5.8C79.4,35.5,79.6,35.4,79.7,35.2z"/>
	<path class="st34" d="M79.3,35.7c1.2,1.1,2.1,2.2,1.4,4c-0.3,0.8-0.3,2,0,2.9c0.8,2.3,0.2,4.6,0.2,6.9c0,0.5-0.4,2.4-1.5,3.1
		c-0.4,0.2-0.7,0.2-0.9-0.2c1.4-0.9,0.9-2.2,0.7-3.5c-0.1-0.7-0.5-1.5,0.3-2c1.5-0.9,1.3-2,0.3-3.1c-0.8-0.9-1.1-1.9-0.6-3.1
		c0.4-0.8,0-1.6-0.4-2.3C78.1,37.4,78.1,36.4,79.3,35.7z"/>
	<path class="st35" d="M81.1,32.9c-0.3,0.3-0.6,0.6-0.9,0.9c-3.2-0.5-3.8-1.5-2.9-5c0.1-0.4,0.3-0.9,0-1c-1.4-0.6-0.4-1.7-0.7-2.5
		c0.2,0,0.3,0,0.5,0c0.7-0.3,1.2,0.2,1.7,0.6c0.2,0.1,0.3,0.3,0.4,0.5c0.3,1,0.7,1.8,1.6,2.3C80.6,30,81.6,31.4,81.1,32.9z"/>
	<path class="st33" d="M75.7,59.3c-0.5-0.4-0.6-1.2-1.3-1.3c0.6-0.8-0.4-1.3-0.3-2.1c1-0.2,1.3,0.9,2,1.1c0,0,0,0,0,0
		C76.8,57.9,76.1,58.5,75.7,59.3L75.7,59.3z"/>
	<path class="st36" d="M77,54.2c0.5,0,0.7-1.3,1.3-0.3c0.2,0.3,0.5,1.3-0.4,1.3c-0.8,0-1,0.9-1.7,0.8C76.1,55.3,76.2,54.6,77,54.2z"
		/>
	<path class="st37" d="M98.2,72.8c-0.6,0-0.9,0.3-0.9,0.9c-1.3-0.1-0.2,1.9-1.9,1.7c-0.7-0.3,1.2-2.3-0.8-2.1
		c-0.8-0.9-0.8-2-0.9-3.1c0-0.6,0.2-1.2,0.7-1.6c0.4-0.3,0.8-0.3,1.3-0.4c0.7-0.1,1.7,0.9,2.2-0.2c0.6-1.1,1.1-2.3,0.5-3.6
		c-0.3-0.6-0.6-1.2-0.4-1.9c0.8-1,1.9-1,2.9-1c1.2,3.8-0.8,6.8-2.3,10C97.9,71.7,98.5,72.4,98.2,72.8z"/>
	<path class="st10" d="M94.1,70.1c0.3,1,0.6,2.1,0.5,3.2c-1.5,2.1-4.2,3-5.8,5c0,0-0.1,0-0.1,0c-2-2-2-2.4,0-4.1
		c0.1-0.1,0.3-0.2,0.3-0.3c0.5-2.5,2.7-2.9,4.5-3.8C93.8,69.9,94,70,94.1,70.1z"/>
	<path class="st38" d="M91,81c-0.1,0.2-0.3,0.3-0.4,0.5c-1.3-1.3,1.3-2.1,0.2-3.4C92.2,79,92.2,80,91,81z"/>
	<path class="st39" d="M72.1,86.9c0.1,0,0.2-0.1,0.2-0.1c-0.7-2.1,0.5-3.8,1.5-5.3c0.9-1.4-0.7-1.2-0.8-1.8c-0.4-1,0-1.7,0.9-2.1
		c1.8-0.1,2.2,1.3,2.6,2.5c0.1,3.2-0.4,6.1-2.5,8.6c-0.5,0.6-0.9,1.3-1,2.2c-0.1,0.8-0.4,1.4-1.3,1.6c-1.3-0.3-0.6-1.3-0.7-1.9
		C70.6,89.1,70.9,87.8,72.1,86.9z"/>
	<path class="st40" d="M71.6,90.5c0.2,0.6-0.8,1.2,0,1.8c0.4-0.2,0.5,0,0.6,0.3c-0.1,0.6-0.4,1.1-0.4,1.7c-0.3,0.6-1,0.9-1.3,1.5
		c-0.7,1.4-1.6,2.4-3.3,1.5c-0.5-0.3-1-0.5-0.2-1c1.4-0.9,1.8-2.5,3-3.6c0.3-0.3,0.2-1.1,0.4-1.7C70.7,90.6,71,90.2,71.6,90.5z"/>
	<path class="st41" d="M73.8,77.8c-0.5,0.5-0.8,1.1-0.9,1.8c-0.4-0.1-1.6,0.9-1-0.7c0.2-0.5,0.1-0.8-0.3-1.1c0.9-2,0.4-4.3,1.4-6.3
		c1.1,0.4,1.4,1.5,2.1,2.3c0.1,0.3,0.1,0.6,0,0.9C74.3,75.6,73.4,76.4,73.8,77.8z"/>
	<path class="st42" d="M67.1,97.3c1.6,0.3,2.3-0.9,3.1-1.8c0.7-0.1,0.7,0.4,0.7,0.8c-0.1,0.9-0.6,1.7-1.2,2.4
		c-0.3,0.4-1,0.6-0.9,1.3c-0.4,0-0.8,0.8-1.2-0.1c-0.1-0.3-0.6-0.2-1,0.1c-0.1-0.4-0.3-0.9-0.4-1.3C66.5,98.2,66.8,97.8,67.1,97.3z"
		/>
	<path class="st43" d="M71.6,90.5c-0.4,0.2-0.9,0.3-1.3,0.5c-0.1-0.4-1-0.5-0.4-1.3c0.9-1.3,1.2-2.8,0.3-4.5
		c1.3,0.1,1.2,1.3,1.9,1.6C71.7,88.1,70.8,89.2,71.6,90.5z"/>
	<path class="st44" d="M78.8,26.1c-0.8,0.1-1.2-0.6-1.8-0.9c0.7-2.6-0.3-4.6-2.2-6.3c-1.3-1.2-0.3-3.1-1-4.5
		c-0.1-0.9-0.3-1.8-0.4-2.7c0.7-0.2,0.8,0.4,0.9,0.7c0.4,2.8,2.8,4.6,3.5,7.2c0.2,0.6,0.8-0.1,1.2,0.2c1.8,1.5,2,2.5,0.3,3.9
		c-0.5,0.4-0.2,0.3,0,0.6C79.8,24.9,79.8,25.7,78.8,26.1z"/>
	<path class="st45" d="M94.6,29.8c0.3,1.3,2,1.4,2.3,2.7c-0.1,0.1-0.1,0.1-0.2,0.2c-1.5,0.5-3,0.4-4.5,0.4c-0.2,0.3-0.4,0.5-0.8,0.5
		c-0.4-0.1-0.6-0.3-0.7-0.7c0-1.2-0.3-2.1-1.5-2.7c-1.3-0.6-1.8-2-2.1-3.3c-0.3-1-0.2-2,1.3-1.9c0.1,0,0.2,0.1,0.3,0.2
		c0-0.1-0.1-0.1-0.1-0.2c-0.1-0.3-0.1-0.5,0.1-0.8c0.2-0.1,0.4-0.2,0.6-0.1c0.9,0.2,1.5,0.8,2,1.5c0.3,1,0.3,1,2.4,2.3l0,0
		C94,28.6,94.1,29.3,94.6,29.8z"/>
	<path class="st46" d="M93.7,28c-0.2-0.1-0.4-0.3-0.6-0.3c-1.8,0.6-1.9,0.6-2.1-2c-0.4-0.9-1-1.5-1.6-2.2c-0.4-0.6-0.6-1.2-0.5-1.9
		c0.7-1.7,1.4-0.9,2.1,0c0.6,0,0.9,0.3,0.9,0.9c0,0.3,0,0.6,0,0.9c-0.3,0.7-0.8,1.3,0.2,1.9c1.1,0.7,1.1-0.6,2-0.8
		C94.3,25.8,96.1,27,93.7,28z"/>
	<path class="st47" d="M89.2,21.6c0.2,0.6,0.3,1.2,0.5,1.8c0.2,0.5,0,0.7-0.5,0.9c-0.1,0-0.3,0-0.4,0c-1.3-1.7-1.8-3.9-3-5.7
		c-0.6-0.9-0.3-1.9,1.2-1.6c0.9-0.7,1.6-0.4,2.2,0.5c-0.1,0.3-0.3,0.6-0.4,0.9C88.7,19.5,88.8,20.6,89.2,21.6z"/>
	<path class="st15" d="M89.2,21.6c-1-0.9-1.7-1.9-0.4-3.2c0.9,0.9,3.4,0.8,2.2,3.2C90.4,21.9,89.8,20.2,89.2,21.6z"/>
	<path class="st48" d="M99.1,33.4c0,1.3,1.5,2.2,0.9,3.6c-0.1,0-0.2,0.1-0.3,0.1c-0.6-0.1-0.9-0.5-1.1-1c-0.2-1.4-2.4-1.8-1.8-3.6
		c0,0,0.1,0,0.1,0C97.9,32,98.5,32.6,99.1,33.4z"/>
	<path class="st15" d="M91.9,23.4c-0.2,0-0.6,0-0.6-0.4c0-0.2,0.4-0.4,0.6-0.5c0.2,0.2,0.5,0.3,0.6,0.5
		C92.5,23.5,92.1,23.4,91.9,23.4z"/>
	<path class="st46" d="M94.6,29.8c-0.8-0.3-0.9-1-0.9-1.8C94.3,28.4,94.5,29.1,94.6,29.8z"/>
	<path class="st49" d="M100.9,61.5c-0.7,0.9-1.8,0.5-2.7,0.9c-1.3-1.1-0.9-2.3-0.3-3.5c0.2-0.2,0.4-0.3,0.6-0.2
		c1.3,0.2,2.6,0.5,3.7,1.4C102.2,61,101.8,61.5,100.9,61.5z"/>
	<path class="st5" d="M98.2,72.8c0-0.5-1-0.8-0.5-1.4c0.3-0.4,0.6,0,1,0.1C98.6,72,98.7,72.5,98.2,72.8z"/>
	<path class="st50" d="M93.7,70.1c0,0.5-0.3,1-0.7,1c-2.1,0.2-3.2,1.3-3.4,3.3c0,0.1,0,0.2-0.1,0.2c-3.6,0.4-0.8,2.3-0.8,3.6
		c-1.1,0.4-1.5,1.3-1.7,2.4c-0.2,1.1-0.7,1.9-1.4,2.6c-0.3-0.3-0.6-0.3-0.9,0.1l0,0c-0.2,0.2-0.4,0.2-0.6,0.2
		c-0.2,0-0.4-0.2-0.5-0.3c-0.3-1.4-0.6-2.8-0.8-4.3c0.1-0.3,0.6-0.4,0.4-0.8c-0.1-0.1-0.2-0.3-0.3-0.5c-0.2-0.4-0.2-0.8,0.2-1
		c1.4-0.7,1.8,0.2,2.2,1c0.9-1.7,0.8-3.9,1.5-5.8c0.4-1.1,0.4-2.4,1.5-3.1c1,0.5,1.1-0.7,1.7-0.9c0.1,0,0.3,0,0.4-0.1
		c0.9-0.2,1.4-1.9,2.6-0.9C94,67.5,94.3,68.8,93.7,70.1z"/>
	<path class="st51" d="M84.2,83.3c0.2,0,0.3,0,0.5,0c0,0.4,0,0.9,0,1.3c0.2,1.2,0.6,2.4,0.2,3.7c-0.3,0.9-0.7,1.5-1.5,1.7
		c-0.2,1.1-1.2,0.6-1.8,0.9c-0.5,0.2-0.9,0.3-1.4,0.5c-0.4-1-0.8-1.9-0.3-2.9c0.4-0.8,0.4-1.7,0.3-2.6c-0.1-0.8,0.3-1.4,1.2-1.7
		c1.1-0.3,0.8,0.8,1.3,1.2c0.1,0.2,0.2,0.3,0.3,0.5c0.1,0.2,0,0.5,0.1,0.6c0.2,0.3,0.1-0.1,0.2-0.1C83.4,85.4,82.9,84,84.2,83.3z"/>
	<path class="st52" d="M83.3,90.1c1.1-1.1,1.3-2.6,1.1-4.1c-0.1-0.5-0.3-1,0.2-1.4c0.2,0.4,0.5,0.4,0.9,0.4c0.4-0.2,0.7-0.4,1.2-0.6
		C86.4,89.1,86.1,89.5,83.3,90.1z"/>
	<path class="st53" d="M84.7,83.3c0.1-0.4-0.2-1.2,0.5-1.1c0.5,0,0.3,0.7,0.4,1.1C85.3,83.2,85,83.2,84.7,83.3z"/>
	<path class="st54" d="M102.7,46.1c-0.1,0.9-0.3,1.8-0.4,2.7c-0.9,1.1-0.3,2.4-0.4,3.6c-0.1,0-0.2,0-0.3,0.1c-0.1,0-0.2-0.1-0.2-0.1
		c-0.6-1.2-0.7-1.3-1.7-1.6c-0.7-0.9-1.1-2-2-2.9c-1.1-1.1-0.3-2.7,0.2-4c0.2-0.5,0.7-1,0.9-1.5c0.6-1.7,0.2-3.7,1.3-5.3
		c0,0,0.1,0,0.1,0c0.7,0.8,0.2,1.9,0.9,2.7c0,0,0,0,0,0c-0.4,0.7-0.1,1.4-0.3,2.2c-0.2,0.9-0.6,1.9,1.1,2.1
		C102.5,44.1,102.3,45.4,102.7,46.1z"/>
	<path class="st55" d="M74.8,73.8c-0.9-0.5-1.2-1.5-1.8-2.3c0-0.6,0-1.2,0-1.8c0.3,0,0.5-1,0.8-0.1c0.2,0.5,0,1.1,0.1,1.6
		c0.1,0.6,0.4,1.3,1.2,1c1-0.3,0.3-1,0.1-1.4c-0.9-1.6-1.6-3.1-0.1-4.7c0.9-0.1,0.9,0.7,1.2,1.2c0,0.5,0.3,0.9,0.8,1.1
		c0.4,0.7-0.1,1.5,0.2,2.3c0,0.2,0,0.4-0.1,0.6C76.5,72,76.4,73.7,74.8,73.8z"/>
	<path class="st33" d="M76.1,67.4c-0.3-0.5-0.6-0.9-0.9-1.4c0.1-0.4,0.3-0.9,0.5-1.3c0.2-0.8,0.1-1.6,0.5-2.3
		c0.2-0.4,0.5-0.4,0.9-0.5c0.6,0.1,0.8,0.6,1,1.1c0.1,0.3,0.2,0.6,0.3,0.9c0,0.3,0,0.6-0.2,0.9c-0.6,0.6-0.4,1.6-1.1,2.2
		c-0.7,0.1-0.4-0.8-0.8-0.9C76.5,66.5,76.5,67,76.1,67.4z"/>
	<path class="st56" d="M76.1,62.4c-0.2,0.8,1.2,1.8-0.5,2.3C74.9,63.8,75.2,63,76.1,62.4z"/>
	<path class="st57" d="M77.5,63.2c-0.2-0.4-0.4-0.9-0.5-1.3c0-0.1,0-0.3,0-0.4c0.3-0.3,0.6-0.6,0.9-0.9
		C79.3,61.7,78.7,62.5,77.5,63.2z"/>
	<path class="st40" d="M78.8,26.1c0.6-1.4-0.1-3.1,1-4.5c0.5-0.6-0.8-1.1-1-1.8c-0.1-0.1-0.1-0.2-0.1-0.3c0-0.1,0.1-0.2,0.1-0.2
		c0.1,0,0.3,0,0.4,0c2-0.3,1.7,1.6,2.5,2.6c-0.1,1.3,0.8,2.7-0.5,3.9c-0.4,0.4,0.5,1.1,0.6,1.7c0.2,1.3,0.4,2.7,0.9,3.9
		c0.3,0.8,0.4,2.1,1.9,1.3c0.3-0.1,0.7,0,0.8,0.3c0.8,2.2,3.3,3.8,2.5,6.7c-1.2,0.9-1.7-0.9-2.8-0.8c-1.6,0.2-1.6-1.3-1.7-2.3
		c-0.1-1.3-1-1.2-1.9-1.4c-0.2-0.8-0.3-1.5-0.5-2.3c-0.4-1.5-1.4-2.9-0.5-4.5C79.7,27.9,79.5,26.8,78.8,26.1L78.8,26.1z"/>
	<path class="st58" d="M78.8,19.3c0,0.2,0,0.3,0,0.5c-0.7,0-0.2,1.8-1.3,0.9c-0.9-0.7-0.3-2.6-2-2.8c1.1-2.1-1.7-3.1-1.3-5
		c0.1-0.4-0.5-0.9-0.8-1.3c-0.3-1.5-1.5-2-2.5-2.9c-0.5-0.5-1.8-0.3-1.6-1.6c2.7,1.1,4.4,3,5.5,5.8C75.8,15.2,77.2,17.4,78.8,19.3z"
		/>
	<path class="st59" d="M75.2,10.3c0.3,0,0.6,0,0.9,0c2,0.5,2.7,2,3,3.8c-0.4,1-1.2,1.1-2.1,0.7C76.9,13.1,75,12.1,75.2,10.3z"/>
	<path class="st60" d="M81.5,22.1c-1.2-0.5-0.6-2.6-2.2-2.7c0.2-1-0.3-1.8-0.5-2.7c0.1,0,0.2-0.1,0.3-0.1c0.9-0.2,1.3,0.3,1.6,1.1
		c0.4,1,1.1,1.9,1.5,2.9c0.1,0.2,0.1,0.4,0.1,0.6c0,0.3-0.2,0.6-0.5,0.8C81.7,22,81.6,22,81.5,22.1z"/>
	<path class="st60" d="M77,14.8c0.6-0.1,1.2-0.3,1.8-0.4c0.2,0.1,0.3,0.2,0.4,0.4c0.4,0.7,0.2,1.3-0.4,1.8c0,0,0,0,0,0
		C78.1,16.2,77,16,77,14.8z"/>
	<path class="st61" d="M86.9,17.1c-0.9,0.2-1.6,0.8-0.7,1.5c1.3,1,0.9,2.8,2.1,3.8c0.5,0.4,0.3,1.3,0.3,1.9c0,0.3,0,0.6,0,0.9v0
		c-0.7,0-1.5,0.1-1.3,1c0.4,1.3,0.6,2.9,2.1,3.5c1.8,0.6,2.2,1.6,1.4,3.2c-0.4,0.5-0.1,0.9,0.2,1.3c0.2,0.4,0.2,0.8,0.1,1.2
		c-0.1,0.2-0.2,0.3-0.4,0.5c-0.7,0.1-1.4,0.5-2.2,0.3c-0.4-0.3-0.4-0.8-0.4-1.2c0-1.2,1.5-2.9-1.1-3.1c-0.2-2.1-2-3.5-2.2-5.5
		c-0.2-1.5-0.6-2.9,0-4.4c0.2-0.5,0.3-1-0.4-1.3c-2.2-1.1-2.9-3.4-3.8-5.5c0-0.2,0.1-0.4,0.2-0.6c0.5-0.2,0.9-0.3,1.4-0.5
		c0.1,0.1,0.2,0.1,0.2,0.2c0.4,0.6,0.3,1.5,1.3,1.8c-0.5-0.6-0.4-1,0-1.5c0.1,0,0.2-0.1,0.3-0.1C85.7,14.8,86.6,15.7,86.9,17.1z"/>
	<path class="st61" d="M82.4,13.9c0-0.2,0-0.3,0-0.5c1.2-0.9,1.6-0.1,1.8,0.9c0,0,0,0,0,0C83.5,14.9,83,14.4,82.4,13.9L82.4,13.9z"
		/>
	<path class="st62" d="M62.1,101.8c-0.4-0.1-0.9-0.3-1.3-0.4c0-0.9,1-1.1,1.2-2.1c0.2-0.9,1.2,0.8,1.9,0.2
		C63.8,100.6,62.6,101,62.1,101.8z"/>
	<path class="st63" d="M80.2,88.7c-0.7,0.9,1,1.8,0,2.7c-1.2,1.1,0.4,1.2,0.7,1.8c-1,0.6-2,1.2-3,1.8c-0.4,0.2-0.5-0.1-0.6-0.4
		c-0.5-1.2,0.3-2.6-0.4-3.9c-1.3-0.9-1.3-1.7,0.1-2.5c0.3-0.2,0.6-0.4,0.9-0.7c0.5-0.5,0.7-1.6,1.6-1.3
		C80.6,86.7,80.1,87.9,80.2,88.7z"/>
	<path class="st22" d="M77.5,94.6c0.2,0.2,0.3,0.3,0.5,0.5c-0.5,0.6-1.2,0.4-1.8,0.5c0,0,0,0,0,0c-0.1-0.3,0,0.1-0.1-0.2
		c-0.3-0.7-1-1.6,0.1-2C77,92.9,77.3,93.9,77.5,94.6z"/>
	<path class="st64" d="M93.7,70.1c-0.1-0.6-0.2-1.3-0.4-1.9c-0.4-1.3-0.8-2.4-1.9-0.4c-0.2,0.4-0.8,1.4-1.3,0
		c-0.5-0.5-0.2-1.1,0.1-1.6c0.9-0.8,1.2-1.9,1.4-3c3.4-1,3.8-4.2,4.9-7c0.8-2.1,1.3-4.3,2.4-6.2c0.3,0,0.4,0.1,0.6,0.4
		c0.7,2.2,1,4.5,0.6,6.8c-0.1,0.8-0.9,0.8-1.4,1.2c0,0.1-0.1,0.3-0.1,0.4c-0.1,0-0.2,0-0.4,0.1c-0.8,1.3-1.1,2.7-0.8,4.3
		c0.2,1.5-0.5,2.9-0.9,4.4c-0.3,1.1-1.4,0.6-1.9,1.3c-0.2,0.4-0.3,0.9-0.5,1.3C94,70.1,93.8,70.1,93.7,70.1z"/>
	<path class="st65" d="M98.7,58.3c0.3-0.3,0.6-0.6,0.9-0.9c0.5-0.7,0.2-1.6,0.2-2.3c0-0.6,0.1-1,0.8-1c0.1,0.1,0.2,0.1,0.3,0.2
		c0,0.3,0,0.7,0.1,0.9c0.5,0.6,1.6,0.8,0.9,2.1c-0.6,1.2-1.6,1.2-2.6,1.2C99.1,58.3,98.9,58.3,98.7,58.3z"/>
	<path class="st54" d="M101.8,52.4c0.7,1.1,0,1.5-0.9,1.8c0,0,0,0,0,0C100.3,53.2,101.1,52.8,101.8,52.4L101.8,52.4z"/>
	<path class="st66" d="M71.2,76.9c0.5-1-1.4-0.1-0.8-1.1c0.1-0.2,0.8-0.5,1-0.4C71.9,75.9,71.7,76.5,71.2,76.9L71.2,76.9z"/>
	<path class="st67" d="M81.1,14.4c0,0.1,0,0.3,0,0.4c0.1,1.6,1.1,2.9,1.3,4.4c0.1,0.5,0.8,1.3-0.4,1.5c-0.7-1-1.7-2-1.9-3.1
		c-0.2-1.1-1-0.6-1.3-1c0-0.6,0.4-1.2,0-1.8c0.5-0.5,1-1,1.8-0.4C80.8,14.4,80.9,14.4,81.1,14.4z"/>
	<path class="st68" d="M80.6,14.4c-0.6,0.1-1.2,0.3-1.8,0.4c0-0.1,0-0.3-0.1-0.4c-0.4-1.7-1.1-3.2-2.7-4.1c0.3-0.3,0.6-0.6,0.9-0.9
		C78.3,11,80.3,12,80.6,14.4z"/>
	<path class="st69" d="M69.9,98.7c0.1-0.8,0.3-1.6,0.9-2.3c0.8-0.7,1.5-1.5,1.4-2.6c0-0.2,0.1-0.4,0.2-0.6c0.2-0.1,0.4-0.2,0.6-0.2
		c0.7,0.1,1.4-0.2,2.1,0.1c0.7,0.7,0.4,1.1-0.3,1.5C74,97,71.7,97.6,69.9,98.7z"/>
	<path class="st70" d="M74.8,94.6c0.1-0.5,0.7-0.9,0-1.4c-0.3-0.2-0.3-0.5-0.2-0.8c0.1-0.5,1,0.2,1-0.8c0-1.1,1.1-0.8,1.8-1.1
		c0.3,0.5,0.3,3,0,4.1c-0.4-0.4-0.8-0.7-1.3-1.1c-0.6,0.7,0.2,1.4-0.1,2C75.7,95.2,75.2,94.9,74.8,94.6z"/>
	<path class="st31" d="M102.7,46.1c-0.2-0.4-0.4-0.8-0.6-1.2c-0.2-0.4-0.5-0.9-1-0.7c-0.3,0.1-0.3,0.7-0.6,1.5c-0.6-2.3-1-4.2,0.4-6
		C101.2,41.9,102.8,43.8,102.7,46.1z"/>
	<path class="st71" d="M82.4,55.6c0.1-1.4-0.4-2.9,0.9-4.1c0.2-0.1,0.4,0,0.5,0.1c0.5,2.5,0.7,5.1,1.1,7.6c-0.1,0.2-0.2,0.4-0.3,0.5
		c-0.3,0.1-0.5-0.1-0.8-0.1c0.1,0.3,0.4,0.5,0.6,0.7c0.2,0.2,0.4,0.5,0.5,0.8c0.8,2.7-0.6,5.1-0.7,7.7c0,0.6-0.7,0.7-1.2,0.6
		c-0.7-0.2-1.3-0.3-2-0.3c-0.2,0-0.4-0.1-0.6-0.1c-1.3-0.5-1.8-1.5-2-2.8c0-0.2,0-0.4,0.1-0.6c0.9-0.4,1.2-1.1,0.8-2
		c0.1-0.2,0.2-0.3,0.4-0.4c0.2-0.1,0.4-0.1,0.6-0.1c0.6-0.1,1.4,0.4,1.8-0.3c0.4-0.7-0.5-1-0.7-1.4c-0.2-0.3-0.3-0.7-0.3-1
		C81.7,58.7,81.8,57.1,82.4,55.6z"/>
	<path class="st72" d="M83.8,51.5c-0.2,0-0.3,0-0.5,0c0.4-1.8,1-3.4,1.9-4.9c1.1-1.9,0.6-5.1-0.7-6.8c-1.2-1.4-2-3.1-3-4.6
		c0.5-0.6,1-1,1.9-0.4c0.7,0.5,0.7,1,0.5,1.7c-0.4,1.3,0.1,1.9,1.5,2.1c0.9,0.1,1.6,0.8,2.5,1.2c0.1,0.1,0.2,0.1,0.2,0.2
		c0.5,0.8,0.6,1.7,0.2,2.5c-0.3,0.6-0.4,1.3-0.1,2c0.4,0.9,0.1,1.5-0.6,2.1c-0.9,0.8-1.6,1.8,0.1,2.6c0.7,0.3,0.7,0.9,0.3,1.5
		c-1.2,0.6-2.8-0.5-3.9,0.8C84,51.5,83.9,51.5,83.8,51.5z"/>
	<path class="st73" d="M82.4,55.6c0,1.7-0.4,3.4-0.9,5c0.4,2,0.4,2-1.5,1.5c-0.3-0.3-0.6-0.6-0.3-1.1c-0.2-0.5-0.6-0.9,0-1.4
		c1.2-0.8,2.1-1.6,1.4-3.3C80.9,55.6,81.6,55.2,82.4,55.6z"/>
	<path class="st73" d="M77.5,63.2c0.5-0.8,0.9-1.7,0.4-2.6c0.1-0.2,0.3-0.3,0.4-0.5c0.4,0.2,0.5,0.5,0.5,0.9
		c1.2,0.8,0.1,1.7,0.1,2.5c-0.3,0.4-0.6,0.6-1,0.2C77.8,63.6,77.7,63.4,77.5,63.2z"/>
	<path class="st74" d="M78.8,63.3c-0.6-0.8,0.7-1.5,0-2.3c0.3,0,0.6,0,0.9,0c0.1,0.3,0.3,0.6,0.4,0.9c0.1,0.5,0,1-0.5,1.3l0,0
		C79.4,63.6,79.1,63.6,78.8,63.3z"/>
	<path class="st4" d="M75.7,59.2c0.1-0.8,0.3-1.5,0.4-2.3C77.1,57.7,77.1,58,75.7,59.2z"/>
	<path class="st44" d="M78.8,26.1c1.6,0,1.1,1.6,1.8,2.3C78.2,29.1,79.5,26.9,78.8,26.1z"/>
	<path class="st75" d="M94.6,68.8c0-0.2-0.1-0.6,0-0.6c2.4-1.1,2.3-3.4,2.1-5.4c-0.1-1.7,0.3-2.9,1.4-3.9c-0.1,1.2-0.6,2.4,0,3.6
		c-0.1,1.5,1.7,2.6,0.8,4.4c-0.7,1.5-0.8,3.1-3.1,2C95.6,68.6,95.1,68.8,94.6,68.8z"/>
	<path class="st76" d="M78.8,66c0.6,0.9,0.6,2.2,1.8,2.7c0.7,0.8-0.8,1.9,0.3,2.6c0.2,0.4,0.4,0.7,0.5,1.1c0.2,1.1-0.2,1.7-1.4,1.9
		c1.9,1.9,0.5,4,0.2,6.2c0,0.2-0.1,0.4-0.2,0.6c0,0.1-0.1,0.4-0.2,0.4c-1.5,0.4-1.2,1.7-1.3,2.8c0,0.5-0.1,1.1-0.3,1.5
		c-0.9,1.5-2.5,2.6-2.3,4.7c0,0.5-0.7,0.9-1.1,1.3c-0.4,0.6-0.9,1.3-1.8,1.2c-0.2,0-0.3,0-0.5,0c-0.4,0.1-0.5,0-0.4-0.4
		c-0.1-0.2-0.3-0.3-0.4-0.5c0.3-0.5,1-0.7,0.8-1.5c-0.3-1.4,0.5-2.3,1.6-3c0.3-0.2,0.7-0.4,0.7-0.8c-0.1-2.4,1.8-4.4,1.4-6.9
		c0.1-1.4-0.1-2.7,0-4.1c0.6-1.6,1.1-3.3,0.9-5c0-0.1,0-0.3,0-0.4c1.5-1,1.5-1,0.8-2.8C77.9,67.1,78.3,66.5,78.8,66z"/>
	<path class="st55" d="M76.6,76c-0.1,1.4,0.8,2.9-0.4,4.1c-0.7-0.9-0.8-2.3-2.3-2.3c-1.7-0.9-1.4-1.6,1-3.1
		C75.9,74.5,76.2,75.3,76.6,76z"/>
	<path class="st77" d="M74.2,83.1c-0.4,0-0.5-0.2-0.4-0.4c0.1-0.2,0.4-0.4,0.6-0.6c0.1,0.1,0.3,0.4,0.3,0.4
		C74.5,82.8,74.3,82.9,74.2,83.1z"/>
	<path class="st78" d="M72.5,93.7c0.2,1.8,0,2.1-1.8,2.7c0-0.4-0.1-0.7-0.5-0.9c-0.1-1,1-0.7,1.4-1.3C71.8,93.7,72,93.5,72.5,93.7z"
		/>
	<path class="st79" d="M72.5,93.7c-0.3,0.2-0.6,0.3-0.9,0.5c-0.8-0.8-0.1-1,0.4-1.4c0.1,0.1,0.3,0.3,0.4,0.4
		C72.5,93.4,72.6,93.5,72.5,93.7z"/>
	<path class="st80" d="M76.6,76c-0.6-0.5-1.2-0.9-1.8-1.4c0-0.3,0-0.6-0.1-0.9c1.3-0.4,1-2.3,2.3-2.7C78.4,72.8,77.4,74.4,76.6,76z"
		/>
	<path class="st81" d="M96.8,32.5c0.3,1.5,2.4,1.9,2.3,3.6c-2.2,0.4-4.1-0.9-6.3-0.7c-2.5,0-0.3-1.8-1-2.5c0.1-0.6-0.2-1.4,0.6-2
		c0.2,1.5,0.6,2.7,2.4,1.3C95.3,32,96.2,32.4,96.8,32.5z"/>
	<path class="st82" d="M91.9,32.9c0.7,0.3,0.8,0.7,0.3,1.3c-0.5,0.7,0,0.9,0.6,0.9c0.6,0.1,0.5,0.3,0.2,0.7c-0.7,0.4-1.4,0.4-2-0.2
		c0-0.5,0-0.9,0-1.4c-0.2-0.5,0.1-0.7,0.4-0.9C91.6,33.3,91.7,33.1,91.9,32.9z"/>
	<path class="st15" d="M89.2,24.3c0.2-0.3,0.3-0.6,0.5-0.9c1.1,0.4,1.5,1.1,1.3,2.3C90.4,25.2,89.8,24.8,89.2,24.3z"/>
	<path class="st83" d="M91.4,33.4c-0.1,0.3-0.3,0.6-0.4,0.9c-0.5-0.1-0.9-0.2-0.8-0.8C90.2,33,90.6,33,91,33
		C91.1,33.1,91.3,33.3,91.4,33.4z"/>
	<path class="st61" d="M88.7,25.2c0.6,0.4,1.1,0.7,0.6,1.6C88.4,26.6,88.9,25.8,88.7,25.2C88.7,25.2,88.7,25.2,88.7,25.2z"/>
	<path class="st84" d="M93.2,35.7c-0.1-0.2-0.3-0.3-0.4-0.5c0.1-0.8,0.5-1,1.2-0.7c1.2,0.5,2.2,1.9,3.7,0.6c0.4-0.3,0.8,0.7,1.3,1
		c0.3,0.3,0.6,0.6,0.8,0.9c0,2-0.3,3.9-0.8,5.9c-1.4,1.3-2.6,1.1-3.8-0.4c-0.6-0.8-1.4-1.4-1.6-2.4c-0.2-0.7-0.1-1.5-0.2-2.2
		c-0.1-0.2-0.1-0.4-0.1-0.6c-0.1-0.5-0.2-0.9-0.1-1.4C93.2,35.9,93.2,35.8,93.2,35.7z"/>
	<path class="st85" d="M88.3,68.7c-0.6,1-0.5,2.3-1.3,3.2c-0.1-0.1-0.2-0.1-0.2-0.2c-0.7-1.3,0.1-2.7-0.6-4c-0.2-0.5-0.2-1-0.1-1.6
		c1.1-2.6,0.9-5-0.7-7.3c-0.1-0.3-0.1-0.6-0.1-0.9c0.5-1.2,1.3-1.2,2.4-0.8c1.3,0.6,3,0.7,2.6,2.9c0,0.2,0,0.4,0,0.6
		c-1.6,1.4-0.6,3.3-1,5c0,0.2-0.1,0.4-0.2,0.6c-0.5,0.7-0.6,1.5-0.6,2.3C88.3,68.5,88.3,68.6,88.3,68.7z"/>
	<path class="st86" d="M79.7,81c-0.1-1,0-1.9,0.4-2.9c0.2-0.3,0.5-0.9,0.3-1c-1.4-1.8-0.3-3.2,0.6-4.7c0.4-0.9,1-1,1.8-0.6
		c0.8,1.3-0.2,2.8,0.3,4.1c0,0.4-0.1,0.7-0.3,1c0.1,0.3,0.3,0.6,0.4,0.9c-0.3,0.5-1.1,0.9-0.9,1.7c0.1,0.9-0.8,1.4-1.2,2
		C80.6,82.5,80.1,81.6,79.7,81z"/>
	<path class="st87" d="M82.9,76.9c0-0.3,0-0.6,0-0.9c1.6-1.1,1.9-3.5,4-4.1c0,0,0,0,0,0c0.2,2.4-0.7,4.6-1.6,6.7
		C84.7,78,84.8,76.1,82.9,76.9z"/>
	<path class="st53" d="M82,79.2c0-0.9,0.5-1.3,1.4-1.4c0,0,0,0,0,0c0.2,0.3,0.3,0.6,0,0.9c0.1,1.5,0.7,3,0.5,4.5
		c-0.7,0.6,0.1,2.1-1.3,2.3l0,0C81.2,83.5,82.3,81.3,82,79.2z"/>
	<path class="st52" d="M82.5,85.5c0.7-0.6,0.2-2,1.3-2.3c0.2,0,0.3,0,0.5,0c-0.8,1.5-0.2,3.4-1.4,4.8C82.2,87.3,82.6,86.4,82.5,85.5
		z"/>
	<path class="st88" d="M90.5,66.5c-0.1,0.4-0.3,0.9-0.4,1.3c-0.4,0.7-0.8,1.4-1.8,0.9c0,0,0,0,0,0c-0.1-0.9-0.1-1.9,0.5-2.7l0,0
		C89.4,65.9,90.1,65.7,90.5,66.5z"/>
	<path class="st89" d="M83.3,78.7c0-0.3,0-0.6,0-0.9c0.4,0.3,1,0.5,0.6,1.1C83.8,79.2,83.5,79,83.3,78.7z"/>
	<path class="st90" d="M82,79.2c1.1,2-0.1,4.3,0.4,6.3c-0.9,0.4-0.2-1.5-1.2-0.9c-0.9,0.5-0.6,1.1-0.4,1.9c0.1,0.6,0,1.6-0.7,2.3
		c-0.8-0.5-0.2-1.4-0.8-2.1c-0.9,0.9-1.4,2.1-2.8,2.6c-1.1,0.4,0.5,0.9,0.9,1.3c-0.4,0.7-1.9,0.3-1.5,1.8c0.1,0.4-0.7-0.1-1.1,0.1
		c-0.3,0-0.4-0.3-0.5-0.4c0.7-0.9,1.5-1.7,1.5-3c0.1-1.3,0.9-2.3,2.1-3c0.9-0.8-0.6-3.1,1.8-2.9c-0.2-0.7-0.5-1.4,0-2.1c0,0,0,0,0,0
		C81,81.5,81.3,81.3,82,79.2z"/>
	<path class="st91" d="M94.1,39.8c1.4,3,2.6,3.8,5,3.2c-1.3,1-1,2.6-1.5,3.9c-0.1,0.3,0.3,1.1,0.5,1.1c1.9,0.1,1.2,1.8,1.9,2.7
		c-0.5,0.3-0.6-0.2-0.9-0.5c-0.2,0-0.3,0-0.5,0c-0.7,0.5-1.2,0.3-1.8-0.1c-0.2-0.2-0.3-0.3-0.4-0.5c-0.9-1.8-2.3-3.2-3.5-4.7
		c-0.7-1.2-1-2.5-1.4-3.8c-0.1-0.6,0-1.2-0.2-1.7c-0.1-0.2-0.1-0.3-0.2-0.5c-0.3-0.6-0.8-1-1.3-1.5c-0.1-0.2-0.2-0.3-0.3-0.5
		c0-1.2,1.1-0.6,1.6-1.1c0,0,0,0,0,0c0.7,0,1.5,0,2.2,0c0,0,0,0,0,0c0.5,0.5-0.3,1.4,0.5,1.8v0C94.2,38.2,93.1,39.2,94.1,39.8z"/>
	<path class="st92" d="M99.1,50.2c0.3,0.2,0.6,0.3,0.9,0.5c1.9-0.7,1,1.4,1.8,1.8c-0.2,0.6-1,1-0.9,1.8c-1.8,0.5-0.2,2.4-1.3,3.2
		C99.8,55,99.1,52.6,99.1,50.2z"/>
	<path class="st93" d="M101.4,45.8c0.2,0.3,0.3,0.5,0.3,0.6c-0.1,0.2-0.2,0.6-0.4,0.7c-0.5,0.2-0.4-0.3-0.4-0.5
		C101,46.3,101.2,46.1,101.4,45.8z"/>
	<path class="st58" d="M77.9,67.8c1.4,0.3,1.3,1.8,1.2,2.5c-0.3,1.3-1.4-0.3-2.1,0.2c-1-0.8,0.2-1.5,0-2.3c-0.4-0.4-0.4-0.9,0-1.3
		c0.2-0.8-0.5-1.9,0.9-2.3c0.2-0.2,0.4-0.2,0.6-0.1C79,65.8,77.9,66.7,77.9,67.8z"/>
	<path class="st94" d="M77,66.9c0,0.4,0,0.9,0,1.3c-0.3,0.1-0.6,0.2-0.9,0.3c0-0.4,0-0.8,0.1-1.2c0-0.5,0-0.9,0-1.7
		C76.5,66.3,76.8,66.6,77,66.9z"/>
	<path class="st76" d="M78.3,64.7c-0.2,0-0.3,0-0.5,0c0-0.3,0.1-0.6,0.1-0.9c0.4,0,0.7-0.1,0.8-0.4c0.3,0,0.6,0,0.9,0
		c0,0.9,0.5,2-0.9,2.3C78.5,65.4,78.8,64.8,78.3,64.7z"/>
	<path class="st95" d="M87.8,39.7c0.1-2.5-2.1-4.1-2.6-6.3c-0.1-0.2-0.4-0.4-0.7-0.1c-0.7,0.5-1.7,0.4-1.9-0.4
		c-0.6-1.7-1.6-3.4-1.1-5.4c-0.5-0.8-0.2-1.5,0.5-2c0.8-0.1,1.2-0.8,2-0.9c1,0.7,0.8,1.7,0.6,2.6c-0.4,2.3,0,2.3,1.4,4.4
		c1.8,2.8,3.4,5.9,3.2,9.4C88,41.5,88.3,40.2,87.8,39.7L87.8,39.7z"/>
	<path class="st60" d="M82.5,25.7c-0.8,0.3-1,1-0.9,1.8c-0.2-0.8-2.4-1.6,0.1-2.2c-1.2-1,0.4-2.1-0.1-3.2c0,0,0,0,0,0
		c0.7-0.2,1.3,0.1,1.8,0.6c0.1,0.2,0.2,0.4,0.3,0.6C83.5,24.2,82.9,24.9,82.5,25.7z"/>
	<path class="st96" d="M89.2,41.1c-0.2-1.7-0.7-3.5-1.3-4.8c-0.6-1.4-1.1-3.3-2.3-4.4c-0.5-0.5-0.9-0.7-1.1-1.4
		c-0.2-1.2-1-1.1-2.1-0.4c1.1-1.9,2.9-3.3,1.4-5.4c-0.7-0.5,0.1-1.3-0.5-1.8v0c0.3-1.2-1.1-1-1.3-1.8c0-0.2,0-0.3,0-0.5
		c0.4-1.3-0.4-2.5-0.9-3.6c-0.3-0.9-0.1-1.5-0.1-2.3c0.9,1.5,1.8,3,2.7,4.5c0.1,0.2,0.1,0.7,0.5,0.6c2.9-0.7,1.5,1.2,1.2,2.2
		c-0.6,2.3-0.3,4.5,1,6.3c0.8,1,0.9,1.9,0.9,3.3c0.6-0.2,0.8-1.4,1.4-0.7c0.5,0.5,0.5,1.4,0.5,2.1c0,1-1.2,2-0.2,3.1
		c0.4,0.2,0.2,0.7,0.5,0.9c0.1,0,0.3,0,0.4,0c0.4,0.6,1,1.2,1.4,1.8l0,0c0.5,0.5-0.2,1.3,0.5,1.8c0.5,1.3,0.9,2.7,1.4,4
		c0.1,0.1,0.2,0.2,0.1,0.3c0,0.1-0.1,0.2-0.1,0.2c-2,0.1-2-1.9-2.9-2.9C90,41.9,89.5,41.7,89.2,41.1z"/>
	<path class="st67" d="M82,21.2c0.6,0.4,1.2,0.5,2-0.1c-0.3,0.9-0.5,1.4-0.7,2c-0.6-0.3-1.2-0.6-1.8-0.9
		C81.7,21.8,81.9,21.5,82,21.2z"/>
	<path class="st21" d="M82.4,13.9c0.6,0.2,1.2,0.3,1.8,0.5c-0.3,0.6-0.7,1.3,1,1.5C82.5,16.2,82.5,16.2,82.4,13.9z"/>
	<path class="st82" d="M89.7,37c-0.4-0.2-0.5-0.5-0.5-0.9c0.4-1.1,1.2-0.5,1.8-0.5C90.7,36.3,89.6,36,89.7,37z"/>
	<path class="st85" d="M96.9,49.7c0.5,0.4,1.1,0.6,1.7,0.5c0.5,2.2-1.2,3.8-1.4,5.8c-0.3,2.3-2.1,4-2.5,6.3
		c-0.4,2.1-2.1,0.2-2.8,1.1c-1.3,0.6-2.1,0.1-2.1-1.3c0-0.7,0.7-1.1,0.4-1.9l0,0c0.1-1.2,0.9-0.9,1.6-0.6c0.5,0.2,1,0.6,1.6,0.3
		c1.4-0.4,1.3-1.7,1.5-2.8c0.2-0.9,0-1.8,0.5-2.7C95.3,54.4,96.9,49.7,96.9,49.7z"/>
	<path class="st50" d="M90.1,60.2c1.2,0.2,0.4,0.8,0.2,1.3c-0.4,1.4-0.2,2.3,1.5,1.9c0,1.3,0.2,2.6-1.4,3.2
		c-0.6-0.2-1.2-0.3-1.8-0.5c0-1,0.1-1.9,0-2.9C88.5,61.8,89,60.9,90.1,60.2z"/>
	<path class="st78" d="M74.3,91.9c0.2,0.1,0.3,0.3,0.5,0.4c0,0.3,0,0.6,0,0.9c-0.6,0.2-1.2,0.9-1.8,0C73.4,92.8,73.9,92.3,74.3,91.9
		z"/>
	<path class="st97" d="M82.9,71.9c-0.7-0.1-1.2,0.1-1.8,0.4c-0.4-0.2-0.4-0.5-0.4-0.9c-0.2-1,0.1-1.8,0.4-2.7c1-0.8,1.8,0.2,2.9,0.3
		c-0.3-2.8,1.4-5.3,0.7-8c0.4-0.8,1-0.6,1.4-0.1c0.7,0.8,1.2,1.7,0.7,2.8c-0.3,0.8-0.8,1.5-0.3,2.3c0,0.6,0,1.2,0,1.8
		c0.5,1.4,0.5,2.5-1.3,2.7C84.2,70.7,83.9,71.9,82.9,71.9z"/>
	<path class="st98" d="M85.6,57.9c0,0.3,0,0.6,0,0.9c-0.1,0.5-0.1,1.1-0.9,0.9c-0.5-2.2-1-4.4-1.1-6.7c0-0.6,0-1,0.2-1.5
		c0,0,0,0,0,0c1.2-1.8,2.6-0.8,4-0.2c0.1,0.2,0.2,0.3,0.3,0.6c0,0.7-0.1,1.3-0.3,2c-0.2,0.4-0.4,0.6-0.8,0.6
		c-0.6-0.1-0.6-0.5-0.6-0.7C87.2,55.1,86.3,56.5,85.6,57.9z"/>
	<path class="st99" d="M84.7,59.7c0.3-0.3,0.6-0.6,0.9-0.9c2.2,2.2,2.2,4.7,0.9,7.3c-1.6-0.7-0.3-1.8-0.1-2.5c0.5-1.6,0-2.4-1.6-2.5
		c-0.2-0.2-0.3-0.3-0.5-0.5C84,60.1,84.3,59.9,84.7,59.7C84.7,59.7,84.7,59.7,84.7,59.7z"/>
	<path class="st76" d="M79.7,63.3c0-0.5,0-1,0.5-1.3c0.9,0,1.7-0.1,1.4-1.3c0.2,0.2,0.4,0.4,0.6,0.6c0.5,0.5,1.7,0.8,1.3,1.5
		c-0.4,0.7-1.3,1.4-2.5,0.7C80.7,63.3,80.1,63.5,79.7,63.3z"/>
	<path class="st86" d="M81.1,68.8c-0.1,0.9,0.4,1.9-0.4,2.7c-1.8-0.9-0.1-1.8,0-2.7C80.8,68.8,80.9,68.8,81.1,68.8z"/>
	<path class="st100" d="M78.3,64.7c0.5-0.1,0.5-0.1,0.5,0.9c0,0.1,0,0.3,0,0.4c0.2,0.8-0.4,1.3-0.9,1.8
		C77.1,66.7,78.5,65.8,78.3,64.7z"/>
	<path class="st97" d="M84.7,59.7c-0.1,0.3-0.3,0.6-0.4,0.9c-0.8-0.4-1-1-0.8-1.9C83.9,59,84.3,59.4,84.7,59.7z"/>
	<path class="st101" d="M89.2,41.1c0.6,0,1.1,0.4,1.4,0.9c1.3,1.1-0.4,1.5-0.6,2.2c-0.8,1.6-0.7,3.4-0.7,5.2c0,0.9,0.2,1.8-0.8,2.3
		c-0.2,0-0.4,0-0.6-0.2l0,0c-0.3-0.3-0.3-0.6,0-0.9c-0.1-0.4,0.2-1.1-0.5-1c-0.8,0-1.7-0.5-1.4-1c0.4-0.8-0.3-2.3,1.2-2.5
		c0.4-0.1,1-0.4,0.8-0.6c-1.6-1.9,0.8-3.9-0.1-5.7C88.4,40.1,88.5,40.9,89.2,41.1z"/>
	<path class="st71" d="M87.8,50.6c0,0.3,0,0.6,0,0.9c-1.4,0-2.7-1.4-4.1,0C84.7,49.2,86.4,50.4,87.8,50.6z"/>
	<path class="st86" d="M79.7,81c0.1,1.4-0.1,2-1.8,5C78,84.1,77.5,82,79.7,81z"/>
	<path class="st86" d="M78.5,78c-0.2-1-0.1-1.6,0.6-1.8c0.1,0,0.4,0.2,0.4,0.3C79.7,77.3,79.1,77.5,78.5,78z"/>
	<path class="st82" d="M94.1,39.8c-2.8-0.2,0.2-1.6-0.4-2.3C94.5,38.1,94,39,94.1,39.8z"/>
	<path class="st82" d="M93.7,37.5c-1.6-0.2-0.2-1.2-0.5-1.8C93.9,36.1,93.6,36.9,93.7,37.5z"/>
	<path class="st99" d="M87.8,51.5c0.1,0,0.3,0,0.4,0c1,0.1,0.7-1.6,1.9-1.3c1.1-0.2,2.3-0.8,3,0.4c0.7,1.1,0.3,2.3-0.5,3.3
		c-0.1,0.1-0.7-0.2-0.2,0.3c1.5,1.8,1.1,3.9,0.8,6c-0.4,0.5-0.7,1.4-1.4,0.2c-0.5-0.9-1.1-0.8-1.8-0.2c-0.2-0.1-0.6-0.2-0.7-0.4
		c-0.3-0.5,0.9-1.5,0.1-1.4c-1.5,0.4-2.3-2.1-3.7-0.7c-0.1,0-0.1,0.1-0.1,0.2c0-1.9,0.8-3.7,0.3-6.2c1,1.1,0.2,1.9,1,2.4
		C87.8,53.4,87.1,52.2,87.8,51.5z"/>
	<path class="st89" d="M82.9,71.9c0.4-1,0.8-1.9,2.1-1.9c1.6,0.1,1.5-1.1,1.5-2.2c1.2,1.2,0,2.7,0.4,4.1c-1.5,1.2-1.8,3.6-4,4.1
		C81.7,74.7,83,73.3,82.9,71.9z"/>
	<path class="st50" d="M88.7,66c0,0.9,0.1,1.9-0.5,2.7C87.6,67.7,87.6,66.8,88.7,66z"/>
	<path class="st102" d="M93.2,60.1c-0.5-1.5-0.1-3.1-0.5-4.6c-0.3-1.2-0.2-2.1,0.1-3.1c0.5-2,0.1-2.4-1.9-1.8
		c-0.3,0.1-0.5,0.2-0.8-0.1c-0.6-2.2-0.5-4.5-0.4-6.8c0.1-0.7,1.5-0.8,0.9-1.8c1.4,0.7,1,2.8,2.7,3.2c0.8,1.3-1.1,1.4-1,2.7
		c2.3-1.9,3.3,0,4.5,1.4c0,0.1,0,0.3,0.1,0.4c0,0.6,0.2,1,0.7,1.3c0.8,0.5,0.8,1.3,0.2,1.6c-2.5,1.4-2.3,4-2.6,6.2
		C94.9,60.2,94.4,60.5,93.2,60.1z"/>
	<path class="st103" d="M96.8,49.3c-1,0-1.1-1.2-1.9-1.4c-0.5-0.2-0.9-1-1.4,0.2c-0.4,1.2-1.4,0.5-2,0.1c-0.9-0.7,0-1,0.4-1.5
		c0.5-0.4,1.3-0.6,1.2-1.4c0-0.2,0-0.3,0-0.5C94.7,46,96,47.5,96.8,49.3z"/>
	<path class="st82" d="M91.4,38.8c-0.7-0.4-1.3-0.9-1.4-1.8C90.8,37.4,91.4,37.9,91.4,38.8z"/>
	<path class="st82" d="M91.9,40.7c-1.1-0.4-0.5-1.2-0.5-1.8C92.1,39.3,91.8,40,91.9,40.7z"/>
	<path class="st67" d="M83.3,23c0.7,0.5,0.4,1.2,0.5,1.8c-0.2,0.6-0.5,1.1-1.3,0.9C82.1,24.6,83.1,23.9,83.3,23z"/>
	<path class="st98" d="M89.6,43.8c0.9,2.2,0.9,4.5,0.4,6.8c-1-0.5-0.6,1.8-1.8,0.9c1.1-1.6,0-3.4,0.4-5.1C89,45.6,89,44.6,89.6,43.8
		z"/>
</g>
</svg>
