<?xml version="1.0" encoding="utf-8"?>
<!-- Generator: Adobe Illustrator 25.0.0, SVG Export Plug-In . SVG Version: 6.00 Build 0)  -->
<svg version="1.1" id="Layer_1" xmlns="http://www.w3.org/2000/svg" xmlns:xlink="http://www.w3.org/1999/xlink" x="0px" y="0px"
	 width="105.5px" height="129px" viewBox="0 0 105.5 129" style="enable-background:new 0 0 105.5 129;" xml:space="preserve">
<style type="text/css">
	.st0{fill:#FCFCFC;}
	.st1{fill:#2D3C44;}
	.st2{fill:#495C64;}
	.st3{fill:#EEF1F2;}
	.st4{fill:#E5E8EA;}
	.st5{fill:#A5B0B2;}
	.st6{fill:#DDE2E3;}
	.st7{fill:#B7C0C4;}
	.st8{fill:#252D32;}
	.st9{fill:#EBEDEE;}
	.st10{fill:#4B5D65;}
	.st11{fill:#F8F4EC;}
	.st12{fill:#E9E0DB;}
	.st13{fill:#F7F4EC;}
	.st14{fill:none;stroke:#B7C0C4;stroke-miterlimit:10;}
	.st15{fill:#48A6DD;}
	.st16{fill:#FFFFFF;}
</style>
<g>
	<g>
		<path class="st0" d="M50.9,102.9c-1.3,0.1-2.6,0.3-3.9,0.6c-0.8,0.2-1.9-0.1-1.8,1.2l3,0.6C48.9,104.3,49.9,103.5,50.9,102.9z"/>
		<path class="st0" d="M98.2,54.5c0.1-2.5-0.7-6.1,0.4-7.3c3-3.5,0.7-5-1.2-7.1c1-1.1-0.1-1.3-0.8-1.6c0-0.2,0-0.3,0-0.5
			c0.7-2.9-1-4.8-2.9-6.6c0-0.3-0.1-0.5-0.1-0.8c0.5-1.2,1.2-2.4,0.1-3.6c0-1.5,0-2.7-0.1-3.7c-0.7-1-1.3-2-1.8-3.2
			c-1-0.2-2.4,0-4.6,0.3c0.4-4.8,0.3-4.9-4.2-5.3c-0.3,0-0.7-0.2-1-0.2c0.4-0.9,1.2-1.2,1.9-1.4c-2.3-1.3-4.3-3.1-5.7-5.4
			c0,0,0,0-0.1,0l-6.4-0.3c-0.4-0.2-0.9-0.4-1.3-0.6c-1.4-0.6-1.6-1.8-1.7-3c-2.6-0.3-5-1.2-7-2.6c-1-0.1-2-0.3-3-0.6
			c-0.6,0.1-1.2,0.1-1.8,0.1c-1,0-1.9-0.1-2.8-0.3c-0.6,0.1-1.3,0.2-1.9,0.2c-1.3,0.4-2.7,0.6-4.1,0.6c-1.5,0-2.9-0.2-4.2-0.6
			c-0.6,0.5-0.6,1,0.3,1.8c0,0.3,0,0.5-0.1,0.8c-2.3,0.2-4.6-0.3-6.9-0.6c-2.1,1.4-4.5,2.3-7,2.5c0,0.7,0.1,1.7,0.2,2.8
			c-0.3,0.2-0.6,0.4-0.9,0.6c-0.8-1.1-1.8-1.3-2.8-1.2c-1.8,1.4-3.9,2.5-6.1,3c0.1,0.9,0.5,1.8,1.6,2.4c-0.8,2.2-3,3-4.4,4.5
			c-4.9,5.7-9.1,11.9-11,19.3c-0.1,0.8-0.2,1.5-0.3,2.3c-1.3,0.9-1.1,2.2-0.9,3.6c-0.5,4.1-0.5,8.2,0,12.3c-0.1,1.3-0.8,2.8,0.8,3.8
			l0.6,3.5c-0.3,1,0.6,1.4,1,2C8,66.3,8,68,9.5,69.2c-0.3,0.9-0.3,1.6,0.9,1.8l0,0c-0.1,0.1-0.2,0.3-0.2,0.5c-0.4,2-0.3,3.9,0.2,5.5
			c2,0.7,3.7,1.8,5.2,3.2c0.1-0.1,0.3-0.2,0.5-0.3c0.2,0.4,0.4,0.9,0.6,1.3c0,0,0,0.1,0,0.1c0.7,0.8,1.3,1.6,1.8,2.5
			c0.1,0,0.3-0.1,0.4-0.1c0.8,0.4,1.8,0.2,2.2,1.2c0,1.4-0.1,2.7-0.1,4.1c2.9,0.3,5.5,1.4,7.7,3c3.1,0.8,5.8,2.5,7.9,4.9
			c0.7-0.6,1.3-1.4,1.9-2.2c5.8,1,11.6,1.6,17.5,1.2c1.4,1.4,2.9,1.3,4.5,0.1c0.7,0,1.4,0.1,2.2,0.1c-0.4,2-2,1.3-3.2,1.3
			c-3.9,0.1-7.7,0-11.6,0c0,0.5,0,0.9,0,1.4c2.9-0.2,5.7-0.9,8.6-0.7c1.4,0.1,2.4,0.3,2.5,1.8c0.3,0,0.6,0,0.9,0
			c1.7,0,3.3,0.3,4.8,0.8c1-1.2,2.1-2.2,3.4-3.1c-0.6-0.2-1.2-0.5-1.8-0.8c2.2-0.3,2.7-1.9,3-3.7c0.2,0,0.5,0,0.7-0.1
			c1.7,0.9,3.4,1.5,4.7-0.4c0.7-0.9,1.3-1.2,2.3-1.2c0.6,0.1,1.3,0.1,1.8,0.5c1-1.3,2.2-2.5,3.5-3.5c-0.3-0.6-0.5-1.3-0.7-1.9
			c0.7-0.8,1.5-1.5,2.2-2.3c3.5,0.6,4.2-1.4,3.9-4.3c0.2-0.5,0.3-1,0.5-1.5c4.3-3,7.3-6.8,7.3-12.4c0-0.4,0-0.7,0-1.1
			c2.7,0.3,3.8-0.9,3.5-3.6C98.4,59.3,98.1,56.8,98.2,54.5z"/>
		<path class="st1" d="M6.5,59.1c-1.6-1-0.9-2.5-0.8-3.8c2.6-2.1,0.5-5,1.3-7.4c2.5,2.7,3.3,6.2,4.3,9.5c1.3,4.9,4,7.2,8.4,6.5
			c0.7-0.1,1.4-0.6,2.1-0.5c1.9,0.1,2.6,1.6,3.1,3.2c0.3,1.2-0.7,1.8-1.8,1.7c-1.6,0-3.1,0.5-3.5,2c-0.5,1.9,0.9,3.6,2,4.8
			c1.6,1.7,3.9,2,6,0.6c2.1-1.5,0.9-2.9-0.4-4.2c-0.8-0.8-0.9-2.2,0.2-2.5c2.2-0.6,3.4-2.2,4.8-3.6c0.5-0.5,1.3-0.9,1.9-0.3
			c0.7,0.6,0.3,1.3-0.1,1.9c-0.4,0.6-0.7,1.5-1.2,1.8C30.5,70.3,30,71.9,32,74c0.6,0.6,0.8,1.6-0.1,2.3c-1.2,0.9-2.3,1.9-0.9,3.2
			c1.4,1.4,2.7,0.1,3.9-0.7c1.3-0.9,2.2-2.8,3.9-2.2c2.4,0.8,3.6-1,5.3-1.7c3.8-1.4,0.9-3.5,0.9-5.2c0-0.9,0.1-1.7,0.7-2.4
			c0.6-0.7,1.1-2,0.5-2.3c-2.9-1.3-2.3-4.9-4.5-6.6c-0.6-0.5-1.1-1-1.9-0.7c-0.9,0.3-0.9,1.2-0.7,1.9c0.3,1.3,0.9,2.5,1.3,3.8
			c0.2,0.7,0.3,1.5-0.5,1.9c-0.9,0.4-1.1-0.5-1.6-1c-2.1-2.1-2.3-5.3-4.4-7.2c-2.6-2.3-3.7-5.4-4.7-8.4c-1.7-5,2.2-9.4,7.4-8.6
			c1.1,0.2,2.1,0.6,3.1,0.9c2.6,0.7,5-0.1,6.4-2.1c1.4-2-0.7-3.1-2.2-4.2c-1.7-1.3-1.2-2.4,0.5-3.4c2.6-1.5,5.3-2.9,7.7-4.6
			c2.4-1.7,2.1-3.5-0.4-4.7c-1.9-0.9-3.3-2.4-4.9-3.5c-2.1-1.4-4.7-3.4-7.6-2c-1.9,0.9-3.8,1.5-5.8,1.9c-2.2,0.5-3.8,1-3.8,3.8
			c0,1.8-1.8,2.7-3.4,3.5c-0.8,0.4-1.6,0.5-2.3-0.2c-0.7-0.7-0.8-1.6-0.5-2.4c1.2-2.6,1.8-5.7,5.4-6.4c1.9-0.4,3.2-2.1,5.2-2.4
			c0.9-0.1,1.7-0.7,1.3-1.8c-0.3-0.9-1.2-1.1-2.1-0.9c-2.3,0.7-4.8,1.1-6.6,2.8c-2.1,2-3.1,1.4-3.3-1.3c0.6-0.5,1.3-1,1.9-1.6
			c1.6-0.9,3.1-1.7,4.7-2.6c0.3-0.2,0.6-0.4,0.9-0.6c4.6-1.3,8.8-3.8,13.6-4c0.9,0.1,1.6-0.3,2.1-0.9c4.2,0,8.3,0,12.5,0.7
			c0.5,1.2,0.2,2.9,2.1,3.2c0.9,2,1.8,3.9,2.7,5.9c-2-0.2-4-2-6.1-0.3c-0.3,0.2-1.1-0.3-1.7-0.3c-4.6-0.1-8.9-1.9-13.5-1.8
			c-1.3,0-2.6,0.1-2.3,1.9c0.2,1.4,1.1,1.5,2.4,1.3c3.4-0.7,6.7-0.6,9.5,1.9c0.8,0.7,1.8,1,2.7,0.7c3.4-1.2,7-0.3,10.4-0.9
			c2.4,5.5,4.4,11,5.3,16.9c-1,0-1.7-0.2-2.1-1.5c-1.2-4.5-3.4-5.9-8.2-5.9c-1.7,0-2.7,0.7-3.5,2c-3.3,5.6-1.3,10.8,4.9,12.8
			c0.9,0.3,1.9,0.4,2.8,0.6c0.9,0.2,1.5,1.1,0.9,1.5c-2,1.7-1.2,3.6-0.9,5.7c0.5,2.7,0.1,5.8,4.2,5.9c1.1,0,1.2,1,1.3,1.8
			c0.1,1.2,0.4,2.4,1.5,3.2c0.2,7.2-1.7,13.9-4.6,20.3c-1.4-0.9-1.8-0.2-2.3,1.1c-0.7,1.8-1.2,4.1-4.3,3.1c-1.5-0.5-1.3,1.1-1.3,1.9
			c0,2.9,0,5.8,0.1,8.7l0.1-0.1c-0.7,0.1-0.9,0.7-0.9,1.3c-0.7,0.3-1.7-0.3-2.3,0.6c-5.9,0.5-11.7-0.1-17.5-1.2
			c-0.3-0.3-0.6-0.9-1-1c-6.4-1.1-11.1-5.5-16.3-8.9c-0.3-1.1-1.4-0.9-2.2-1.2c-0.2-1.3-1.1-1.9-2.2-2.4c-0.2-0.4-0.4-0.9-0.6-1.3
			c-2-2.8-3.9-5.6-5.9-8.4c0-0.2,0.1-0.4,0.2-0.5c0.3-0.1,0.7-0.2,1-0.3c0.3,0.3,0.6,0.6,0.9,1c0.1-0.1,0.2-0.3,0.3-0.4
			c-0.4-0.2-0.8-0.3-1.2-0.5c0.3-3.9-2.8-6.9-3.1-10.7C8.2,59,7.3,59.1,6.5,59.1z M57.3,45.1c0-1.5-3.6-4.3-5-4.3
			c-1.5,0-2.5,0.8-2.2,2.2c0.5,2.3,2,3.9,4.3,4.2C55.9,47.4,57.2,46.7,57.3,45.1z M44.6,48.8c-0.7,0.1-1.5,0.3-1.6,1.3
			c-0.1,1,0.7,1.5,1.6,1.5c0.9,0,1.6-0.6,1.6-1.5C46.3,49.1,45.6,48.9,44.6,48.8z M49.8,55.3c0.6,0,1.4-0.2,1.3-0.9
			c-0.2-1.1-1.1-1.9-2.3-1.9c-0.7,0-1,0.6-1,1.3C47.9,55.2,48.8,55.4,49.8,55.3z"/>
		<path class="st2" d="M23.1,13.3c0.1,2.8,1.1,3.3,3.3,1.3c1.8-1.7,4.3-2.1,6.6-2.8c0.9-0.3,1.8-0.1,2.1,0.9
			c0.4,1.1-0.4,1.6-1.3,1.8c-2,0.3-3.3,2-5.2,2.4c-3.6,0.7-4.2,3.7-5.4,6.4c-0.4,0.8-0.2,1.7,0.5,2.4c0.7,0.7,1.5,0.6,2.3,0.2
			c1.6-0.8,3.4-1.7,3.4-3.5c0-2.8,1.7-3.3,3.8-3.8c2-0.4,3.9-1,5.8-1.9c2.9-1.4,5.5,0.6,7.6,2c1.6,1.1,3,2.6,4.9,3.5
			c2.6,1.2,2.8,2.9,0.4,4.7c-2.4,1.8-5.1,3.1-7.7,4.6c-1.6,0.9-2.1,2.1-0.5,3.4c1.5,1.1,3.6,2.2,2.2,4.2c-1.4,2-3.8,2.9-6.4,2.1
			c-1-0.3-2.1-0.7-3.1-0.9c-5.1-0.8-9.1,3.6-7.4,8.6c1,3,2.2,6.1,4.7,8.4c2.1,1.9,2.3,5.2,4.4,7.2c0.5,0.5,0.7,1.4,1.6,1
			c0.8-0.4,0.7-1.2,0.5-1.9c-0.4-1.3-0.9-2.5-1.3-3.8c-0.2-0.7-0.1-1.5,0.7-1.9c0.8-0.3,1.3,0.2,1.9,0.7c2.2,1.7,1.6,5.3,4.5,6.6
			c0.5,0.2,0.1,1.6-0.5,2.3c-0.6,0.7-0.8,1.5-0.7,2.4c0.1,1.8,2.9,3.8-0.9,5.2c-1.8,0.7-2.9,2.5-5.3,1.7c-1.7-0.6-2.6,1.3-3.9,2.2
			c-1.2,0.8-2.5,2.1-3.9,0.7c-1.4-1.3-0.3-2.3,0.9-3.2c0.9-0.6,0.7-1.6,0.1-2.3c-2-2.2-1.5-3.7,0.9-5.1c0.6-0.3,0.8-1.2,1.2-1.8
			c0.4-0.6,0.8-1.3,0.1-1.9c-0.7-0.6-1.4-0.2-1.9,0.3c-1.4,1.4-2.7,3-4.8,3.6c-1,0.3-0.9,1.6-0.2,2.5c1.2,1.3,2.4,2.7,0.4,4.2
			c-2.1,1.5-4.4,1.1-6-0.6c-1.1-1.2-2.5-2.8-2-4.8c0.4-1.5,1.9-2.1,3.5-2c1,0,2.1-0.5,1.8-1.7c-0.4-1.5-1.2-3-3.1-3.2
			c-0.7-0.1-1.4,0.4-2.1,0.5c-4.4,0.6-7.1-1.6-8.4-6.5c-0.9-3.4-1.8-6.8-4.3-9.5c0-1.4,0-2.8,0-4.2c1.4-0.5,1.7-1.2,0.6-2.3
			C7.5,40,8.4,38.4,7,37.1c1.9-7.4,6.1-13.7,11-19.3c1.4-1.6,3.6-2.3,4.4-4.5c0,0,0,0,0,0l0.3-0.1L23.1,13.3z"/>
		<path class="st3" d="M96.3,39.7c0.1-0.4,0.2-0.9,0.3-1.3c0-0.2,0-0.3,0-0.5c-2.4-1.6-2.9-4-2.9-6.6c-0.2-0.2-0.5-0.5-0.7-0.7
			c-0.8-1.4-3.4-3.2,0.7-3.6c0-1.5,0-2.7-0.1-3.7c-0.7-1-1.3-2-1.8-3.2c-1-0.2-2.4,0-4.6,0.3c-2.9-0.7-3.9-3.3-5.2-5.5
			c0.4-0.9,1.2-1.2,1.9-1.4c-2.3-1.3-4.3-3.1-5.7-5.4c0,0,0,0-0.1,0c0.1,0.9,0.2,1.9,0.2,2.8c0,0.4-0.1,0.9-0.6,1.1
			c-1,0.4-5.8-3-5.9-4.2c-0.4-0.2-0.9-0.4-1.3-0.6c-2.4,1.1-4.3-0.2-5.9-1.5C63.2,4.6,62,6,60.8,5.3l0,2l2.7,5.9
			c0.6,0.8,1.4,1.4,1.4,2.5c2.4,5.5,4.4,11,5.3,16.9c2.7,8.7,2.2,17.5,0.9,26.3c0.2,7.2-1.7,13.9-4.6,20.3
			c-1.7,5.4-3.4,10.7-7.7,14.7c-0.1,0.5,0.1,1.3-0.9,1.3c-0.7,0.3-1.7-0.3-2.3,0.6c1.4,1.4,2.9,1.3,4.5,0.1c0.2-1.9,1.7-1.2,2.7-1.5
			c2-0.4,3.8-2.1,6.1-1.4c0.2,0,0.5,0,0.7-0.1c1.9-1.6,3.7-3.5,5.8-4.6c2.8-1.4,4.5-4.2,7.6-5.1c0.6-1.5,1.8-2.6,3-3.6
			c0.3-0.7,0.8-1.3,1.7-1.2c-0.3-1.6,0.6-2.9,1.5-3.9c1.8-1.8,2.7-4,3.4-6.2c0.4-1.3,0.7-2.3,2.3-2.3c0-0.4,0-0.7,0-1.1
			c-0.1-0.6-0.2-1.2-0.3-1.8c-2.2,0-2.8,2.6-4.8,2.9c0,0.2,0.1,0.5,0,0.7c-0.3,0.9,1.4,2.4-0.2,2.6c-1.8,0.3-1-1.6-1.3-2.6
			c-0.7,0.2-1.5,0.5-2.2,0.7c-0.2,0.2-0.5,0.5-0.7,0.7c0.7,3.7-2.4,4.7-4.7,5.7c-1.8,0.8-3,1.7-2.9,3.5c0.1,1.4-0.2,1.7-1.5,1.7
			c-1.5,0-2-0.8-1.8-2.1c0.2-1.9,0.5-3.8,1-5.6c0.3-1.1,0.1-1.6-1-1.7c-1.7-0.4-1.7-0.4-1-2.1c0.4-0.9,1.7-1.9-0.4-2.2
			c-0.1,0.3-0.2,0.6-0.3,1c-0.1-0.1-0.3-0.2-0.3-0.2c0.2-0.3,0.3-0.5,0.5-0.8c0.1-1.1-0.5-2.7,1.5-2.9c1.9-2.4-0.8-4.9,0-7.3
			c-2.3-0.5-1.2-2.4-1.4-3.7l0.7-5.8c-0.2-0.7-1.2-1.5,0-2.2c0-1.4,0-2.8-0.5-4.2c-0.6-1.7,0.2-2.5,2-2.3c-0.1-2.7,2.3-4.8,1.9-7.8
			c-2.5,1-2.6,3.3-3,5.9c-2.3-5.6-0.6-8.3,4.5-8.3c1.5,0,2.8-0.5,4.1-1c1.4-0.6,2.4,1.2,4,1.8c-3.4-0.1-5.4,0.8-3.6,4.4
			c2.5,0.4,4.5-0.3,5.5-3.2c-1.2,3.8,1.8,6.9,1.1,10.5c1.1,0.9,1.5,2.2,1.4,3.6c-0.1,1.7,0.1,3.1,2.4,3.1c1.7,0,2,1.4,2,2.9
			c0,2.9,0.2,5.8-1,8.5c-0.8,1.8-0.7,3.5,0.3,5.2c2.4-6.9,3.2-13.9,1.1-21.1C96.2,40.9,96.3,40.3,96.3,39.7z M74.3,13.5
			c-0.2,0.1-0.3,0.1-0.4,0.1c0-0.1,0-0.2-0.1-0.3C74,13.4,74.1,13.4,74.3,13.5z M76,21.6c-1.5,0.2-1.1-1.2-1.3-2.1
			c-0.1-0.6-0.4-1.2-1.1-0.9c-0.8,0.3-1.4,0.9-1.5,1.9c-0.1,0.9,1.2,2.5-0.5,2.6c-1.4,0.1-2.6-1.3-2.6-2.9c0-1.6-0.2-3-1.2-4.4
			c-0.7-1-0.1-2.2,0.8-2.9c1.2-0.9,1.4,0.4,2,1.1c1,1.2,2.3,1.9,4,2.3c1.2,0.3,2.8,0.9,2.8,2.6C76.7,19.7,77.5,21.4,76,21.6z
			 M78.3,21.6c0-0.1-0.1-0.2-0.1-0.3c0.1-0.1,0.2-0.1,0.3-0.1c0,0.1,0.1,0.2,0.1,0.3C78.5,21.6,78.4,21.6,78.3,21.6z"/>
		<path class="st3" d="M56.2,98.3c1.4,0.1,2.4,0.3,2.5,1.8c0.3,0,0.6,0,0.9,0c1.7,0,3.3,0.3,4.8,0.8c1-1.2,2.1-2.2,3.4-3.1
			c-0.6-0.2-1.2-0.5-1.8-0.8c-1.1-0.9-2.3-1-3.7-0.7c-0.4,2-2,1.3-3.2,1.3c-3.9,0.1-7.7,0-11.6,0c0,0.5,0,0.9,0,1.4
			C50.4,98.7,53.3,98.1,56.2,98.3z"/>
		<path class="st3" d="M50.9,102.9c-1.3,0.1-2.6,0.3-3.9,0.6c-0.8,0.2-1.9-0.1-1.8,1.2l3,0.6C48.9,104.3,49.9,103.5,50.9,102.9z"/>
		<path class="st4" d="M61.8,1.6c-1-0.1-2-0.3-3-0.6c-0.6,0.1-1.2,0.1-1.8,0.1c-1,0-1.9-0.1-2.8-0.3c-0.6,0.1-1.3,0.2-1.9,0.2
			c-1.3,0.4-2.7,0.6-4.1,0.6c-1.5,0-2.9-0.2-4.2-0.6c-0.6,0.5-0.6,1,0.3,1.8c0.7,0.1,1.5-0.2,2,0.6c4.2,0,8.3,0,12.5,0.7
			c1.8-0.7,3.6-1.1,5.4-1.2C63.3,2.6,62.5,2.1,61.8,1.6z"/>
		<path class="st4" d="M37.3,93.9c-6.4-1.1-11.1-5.5-16.3-8.9c0,1.4-0.1,2.7-0.1,4.1c2.9,0.3,5.5,1.4,7.7,3c3.1,0.8,5.8,2.5,7.9,4.9
			c0.7-0.6,1.3-1.4,1.9-2.2C38,94.5,37.7,93.9,37.3,93.9z"/>
		<path class="st5" d="M95.2,65.2c-0.1-0.6-0.2-1.2-0.3-1.8c0.1-0.3,0.2-0.5,0.3-0.8c2.4-6.9,3.2-13.9,1.1-21.1
			c-0.2-0.5,0-1.2,0-1.7c0.4,0.1,0.7,0.2,1.1,0.3c1.9,2.1,4.2,3.6,1.2,7.1c-1.1,1.2-0.3,4.8-0.4,7.3c-0.1,2.4,0.1,4.8,0.4,7.2
			C98.9,64.4,97.9,65.5,95.2,65.2z"/>
		<path class="st6" d="M37.3,3.1c-2.1,1.4-4.5,2.3-7,2.5c0,0.7,0.1,1.7,0.2,2.8c4.6-1.3,8.8-3.8,13.6-4c0-0.2,0-0.5,0-0.7
			C41.9,3.9,39.6,3.4,37.3,3.1z"/>
		<path class="st7" d="M68.9,4.3c-1.7-0.2-3.2-0.6-4.7-1.3c-1.8,0.2-3.6,0.5-5.4,1.2c0.5,1.2,0.2,2.9,2.1,3.2l0-2
			C62,6,63.2,4.6,64.6,5.7c1.6,1.4,3.6,2.6,5.9,1.5C69.1,6.6,68.9,5.5,68.9,4.3z"/>
		<path class="st6" d="M15.6,80.3c0.1-0.1,0.3-0.2,0.5-0.3c-2-2.8-3.9-5.6-5.9-8.4c-0.4,2-0.3,3.9,0.2,5.5
			C12.3,77.8,14.1,78.9,15.6,80.3z"/>
		<path class="st7" d="M81.3,86.7c-0.6,0-1.2,0-1.5,0.6c-0.2,0.3-0.5,0.5-0.7,0.8c-1.5,0.7-2.2,1.9-2.3,3.6c-1-0.1-1.7,0.2-2.3,1.2
			c-1.3,1.8-3.1,1.2-4.7,0.4c1.9-1.6,3.7-3.5,5.8-4.6c2.8-1.4,4.5-4.2,7.6-5.1c0.1,0.3,0.2,0.6,0.3,0.9C82.8,85.2,82.1,86,81.3,86.7
			z"/>
		<path class="st6" d="M26.9,7.8c-1.8,1.4-3.9,2.5-6.1,3c0.1,0.9,0.5,1.8,1.6,2.4c0-2,1.4-1.6,2.6-1.6c1.6-0.9,3.1-1.7,4.7-2.6
			C28.9,8,27.9,7.8,26.9,7.8z"/>
		<path class="st7" d="M87.9,78.7c-0.3-1.6,0.5-2.9,1.5-3.9c1.8-1.8,2.7-4,3.4-6.2c0.4-1.3,0.7-2.3,2.3-2.3
			C95.2,71.9,92.2,75.7,87.9,78.7z"/>
		<path class="st5" d="M66,97c-1.1-0.9-2.3-1-3.7-0.7c-0.7,0-1.4-0.1-2.2-0.1c0.2-1.9,1.7-1.2,2.7-1.5c2-0.4,3.8-2.1,6.1-1.4
			C68.8,95.1,68.2,96.7,66,97z"/>
		<path class="st5" d="M78.2,8.1c0.1,0.9,0.2,1.9,0.2,2.8c0,0.4-0.1,0.9-0.6,1.1c-1,0.4-5.8-3-5.9-4.2C74,7.9,76.1,8,78.2,8.1z"/>
		<path class="st8" d="M11.4,70.7c-0.3,0.1-0.7,0.2-1,0.3c0,0,0,0,0,0c0.4-0.9,0.2-1.6-0.9-1.8C8,68,8,66.3,8.1,64.7
			c0.4-1,0.2-1.8-1-2c-0.2-1.2-0.4-2.3-0.6-3.5c0.7,0,1.7-0.1,1.8,0.8C8.6,63.7,11.7,66.7,11.4,70.7C11.4,70.6,11.4,70.7,11.4,70.7z
			"/>
		<path class="st8" d="M7.1,43.8c0,1.4,0,2.8,0,4.2c-0.8,2.4,1.2,5.3-1.3,7.4c-0.4-4.1-0.5-8.2,0-12.3C6.4,43,6.8,43.3,7.1,43.8z"/>
		<path class="st5" d="M87.2,20.4c-2.9-0.7-3.9-3.3-5.2-5.5c0.3,0.1,0.7,0.2,1,0.2C87.5,15.5,87.6,15.6,87.2,20.4z"/>
		<path class="st7" d="M96.6,37.9c-2.4-1.6-2.9-4-2.9-6.6C95.6,33.1,97.3,34.9,96.6,37.9z"/>
		<path class="st5" d="M83.5,84.4c-0.1-0.3-0.2-0.6-0.3-0.9c0.6-1.5,1.8-2.6,3-3.6c0.4,0.1,0.8,0.2,1.2,0.2
			C87.7,83,87.1,85,83.5,84.4z"/>
		<path class="st9" d="M79.9,90.6c-0.7-0.6-0.8-1.5-0.7-2.5c-1.5,0.7-2.2,1.9-2.3,3.6c0.6,0.1,1.3,0.1,1.8,0.5
			C79,91.6,79.4,91.1,79.9,90.6z"/>
		<path class="st5" d="M93,30.6c-0.8-1.4-3.4-3.2,0.7-3.6c1.1,1.2,0.5,2.4-0.1,3.6C93.4,30.6,93.2,30.6,93,30.6z"/>
		<path class="st1" d="M7.1,43.8C6.8,43.3,6.4,43,5.8,43c-0.2-1.3-0.4-2.6,0.9-3.6c0.3,0.7,0.7,1.4,1,2.1
			C8.8,42.6,8.5,43.3,7.1,43.8z"/>
		<path class="st8" d="M7.7,41.5c-0.3-0.7-0.7-1.4-1-2.1c0.1-0.8,0.2-1.5,0.3-2.3C8.4,38.4,7.5,40,7.7,41.5z"/>
		<path class="st7" d="M44.2,4.4c0-0.2,0-0.5,0-0.7c0-0.3,0-0.5,0.1-0.8c0.7,0.1,1.5-0.2,2,0.6C45.7,4.1,45.1,4.5,44.2,4.4z"/>
		<path class="st7" d="M87.4,80.1c-0.4-0.1-0.8-0.2-1.2-0.2c0.3-0.8,0.8-1.3,1.7-1.2C87.7,79.2,87.6,79.7,87.4,80.1z"/>
		<path class="st7" d="M97.4,40c-0.4-0.1-0.7-0.2-1.1-0.3c0.1-0.4,0.2-0.9,0.3-1.3C97.3,38.8,98.4,38.9,97.4,40z"/>
		<path class="st1" d="M9.5,69.2c1.1,0.2,1.3,0.8,0.9,1.8C9.2,70.8,9.2,70,9.5,69.2z"/>
		<path class="st1" d="M7.1,62.6c1.2,0.2,1.4,1,1,2C7.7,64,6.8,63.6,7.1,62.6z"/>
		<path class="st7" d="M93,30.6c0.2,0,0.4,0,0.7,0c0,0.3,0.1,0.5,0.1,0.8C93.5,31.1,93.2,30.8,93,30.6z"/>
		<path class="st10" d="M70.2,32.7c2.7,8.7,2.2,17.5,0.9,26.3c-1.1-0.8-1.4-1.9-1.5-3.2c-0.1-0.9-0.2-1.8-1.3-1.8
			c-4.1-0.1-3.8-3.2-4.2-5.9c-0.3-2.1-1.1-4,0.9-5.7c0.5-0.5-0.1-1.3-0.9-1.5c-0.9-0.2-1.9-0.3-2.8-0.6c-6.2-1.9-8.1-7.2-4.9-12.8
			c0.8-1.3,1.8-2,3.5-2c4.8,0,7,1.3,8.2,5.9C68.5,32.6,69.2,32.7,70.2,32.7z"/>
		<path class="st10" d="M63.6,13.3c0.6,0.8,1.4,1.4,1.4,2.5c-3.4,0.6-7-0.3-10.4,0.9c-0.9,0.3-1.9,0-2.7-0.7
			c-2.8-2.5-6.1-2.6-9.5-1.9c-1.3,0.3-2.2,0.1-2.4-1.3c-0.3-1.8,1-1.9,2.3-1.9c4.6-0.1,9,1.7,13.5,1.8c0.6,0,1.4,0.5,1.7,0.3
			C59.6,11.3,61.5,13,63.6,13.3z"/>
		<path class="st8" d="M66.6,79.3c-1.7,5.4-3.4,10.8-7.7,14.8c0-2.9-0.1-5.8-0.1-8.7c0-0.8-0.3-2.4,1.3-1.9c3.1,1.1,3.6-1.2,4.3-3.1
			C64.8,79.1,65.2,78.5,66.6,79.3z"/>
		<path class="st2" d="M57.3,45.1c0,1.5-1.4,2.3-2.9,2.1c-2.3-0.3-3.8-1.9-4.3-4.2c-0.3-1.4,0.7-2.2,2.2-2.2
			C53.7,40.8,57.3,43.7,57.3,45.1z"/>
		<path class="st2" d="M44.6,48.8c1,0,1.6,0.3,1.6,1.2c-0.1,1-0.7,1.5-1.6,1.5c-0.9,0-1.7-0.4-1.6-1.5C43.1,49.1,44,48.9,44.6,48.8z
			"/>
		<path class="st2" d="M49.8,55.3c-1,0-2-0.1-2-1.5c0-0.7,0.3-1.3,1-1.3c1.2,0,2.1,0.8,2.3,1.9C51.3,55.1,50.5,55.3,49.8,55.3z"/>
		<path class="st0" d="M22.4,13.3c0-2,1.4-1.6,2.6-1.6c-0.6,0.5-1.3,1-1.9,1.6c0,0-0.3-0.1-0.3-0.1L22.4,13.3z"/>
		<path class="st8" d="M11.4,70.6c0.4,0.2,0.8,0.3,1.2,0.5c-0.1,0.1-0.2,0.3-0.3,0.4C12,71.3,11.7,71,11.4,70.6
			C11.4,70.7,11.4,70.6,11.4,70.6z"/>
		<path class="st8" d="M58.9,94c-0.1,0.5,0.1,1.3-0.9,1.3C58,94.7,58.2,94.2,58.9,94z"/>
		<path class="st11" d="M95.2,62.6c-0.1,0.3-0.2,0.5-0.3,0.8c-2.2,0-2.8,2.6-4.8,2.9c-0.6,0-1.2,0.1-1.5,0.7
			c-0.7,0.2-1.5,0.5-2.2,0.7c-0.1-1.4,0.9-2.2,1.5-3.3c1.7-3.2-0.2-7.6,3.3-10.3c-1.1-3.1-3-5.5-5.9-7c-2.4-1.3-1.6,2.1-3.1,2.6
			c-1.1,0.4-2.4,1.5-3.3,0.8c-1.3-0.9,0.4-1.8,0.6-2.8c0.5-1.9,0.8-3.8-0.8-5.5c-0.5-0.5-1.2-1.1-0.8-1.9c1.5-2.9-0.8-2.8-2.5-3.2
			c-0.1-2.7,2.3-4.8,1.9-7.8c-2.5,1-2.6,3.3-3,5.9c-2.3-5.6-0.6-8.3,4.5-8.3c1.5,0,2.8-0.5,4.1-1c1.4-0.6,2.4,1.2,4,1.8
			c-3.4-0.1-5.4,0.8-3.6,4.4c-0.4,0.9-0.9,1.7,0.1,2.5c0.7,0.5,1.2,0.9,0.5,2c-1.6,2.5-0.6,5,1.6,6.1c2.8,1.4,3.2-1.7,4.3-3.3
			c1.1,0.9,1.5,2.2,1.4,3.6c-0.1,1.7,0.1,3.1,2.4,3.1c1.7,0,2,1.4,2,2.9c0,2.9,0.2,5.8-1,8.5C94.1,59.1,94.2,60.9,95.2,62.6z
			 M88.1,44.9c0,0.1-0.1,0.2-0.1,0.3c0.1,0,0.3,0,0.4,0c0-0.1,0-0.2-0.1-0.3C88.3,44.9,88.2,45,88.1,44.9z"/>
		<path class="st12" d="M75.5,37.1c1.7,0.4,4,0.3,2.5,3.2c-0.4,0.7,0.3,1.3,0.8,1.9c1.6,1.6,1.2,3.6,0.8,5.5c-0.2,1-1.9,1.9-0.6,2.8
			c0.9,0.6,2.2-0.5,3.3-0.8c1.4-0.5,0.6-3.9,3.1-2.6c2.8,1.5,4.8,4,5.9,7c-3.6,2.7-1.6,7.2-3.3,10.3c-0.6,1.1-1.5,1.9-1.5,3.3
			c-0.2,0.2-0.5,0.5-0.7,0.7c-2.5,0.1-3.7-1.2-3.6-3.6c0,0,0,0,0,0c1.5-0.2,1.5-1.3,1.4-2.4c-0.1-1.3-1.2-1.2-2.1-1.3
			c-0.2,0-0.5,0-0.7,0c-0.2-1.4-0.9-2.9-0.6-4.2c0.8-2.9-0.7-3.7-3.1-3.9c0-0.5,0-0.9-0.1-1.4c0.7-2.5,0.1-4.4-2.2-5.8
			c1.2-1.2,0.8-1.9-0.7-2.2c0-1.4,0-2.8-0.5-4.2C72.9,37.8,73.7,37,75.5,37.1z"/>
		<path class="st11" d="M82.1,64.8c0,2.5,1.1,3.7,3.6,3.6c0.7,3.7-2.4,4.7-4.7,5.7c-1.8,0.8-3,1.7-2.9,3.5c0.1,1.4-0.2,1.7-1.5,1.7
			c-1.5,0-2-0.8-1.8-2.1c0.2-1.9,0.5-3.8,1-5.6c0.3-1.1,0.1-1.6-1-1.7c-0.1-2.6,2.8-3.2,3.7-5.1C79.6,64.8,80.8,64.8,82.1,64.8z"/>
		<path class="st12" d="M90.1,39.3c-1.1,1.6-1.6,4.7-4.3,3.3c-2.2-1.1-3.2-3.6-1.6-6.1c0.7-1.1,0.2-1.5-0.5-2
			c-1-0.8-0.5-1.7-0.1-2.5c2.5,0.4,4.5-0.3,5.5-3.2C87.8,32.6,90.8,35.7,90.1,39.3z"/>
		<path class="st11" d="M77.4,18.8c-0.8,0.9,0,2.6-1.4,2.8c-1.5,0.2-1.1-1.2-1.3-2.1c-0.1-0.6-0.4-1.2-1.1-0.9
			c-0.8,0.3-1.4,0.9-1.5,1.9c-0.1,0.9,1.2,2.5-0.5,2.6c-1.4,0.1-2.6-1.3-2.6-2.9c0-1.6-0.2-3-1.2-4.4c-0.7-1-0.1-2.2,0.8-2.9
			c1.2-0.9,1.4,0.4,2,1.1c1,1.2,2.3,1.9,4,2.3C75.8,16.4,77.4,17.1,77.4,18.8z"/>
		<path class="st12" d="M78.4,64.8c-0.9,1.9-3.7,2.5-3.7,5.1c-1.7-0.4-1.7-0.4-1-2.1c0.4-0.9,1.7-1.9-0.4-2.2l0,0
			c0.1-1.1-0.5-2.7,1.5-2.9c0.1,0.6-0.2,1.6,0.7,1.7c0.8,0.1,0.6-0.8,0.8-1.3c0.2-0.4,0.5-0.8,0.7-1.2
			C77.4,62.9,78.5,63.6,78.4,64.8z"/>
		<path class="st9" d="M74.8,45.9c2.2,1.4,2.8,3.4,2.2,5.8c-0.8,0-1.6-0.1-2.2,0.7c-0.5-0.2-1-0.5-1.4-0.7c0.2-1.9,0.5-3.9,0.7-5.8
			c0,0,0.4,0,0.4,0L74.8,45.9z"/>
		<path class="st13" d="M77,61.9c-0.2,0.4-0.5,0.8-0.7,1.2c-0.2,0.5,0,1.4-0.8,1.3c-0.9-0.1-0.6-1.1-0.7-1.7c1.9-2.4-0.8-4.9,0-7.3
			c0,0,0,0,0,0C77,57,76.3,59.7,77,61.9z"/>
		<path class="st12" d="M88.6,67c0.3-0.6,0.9-0.7,1.5-0.7c0,0.2,0.1,0.5,0,0.7c-0.3,0.9,1.4,2.4-0.2,2.6C88,69.9,88.9,68,88.6,67z"
			/>
		<path class="st13" d="M73.3,51.7c0.5,0.2,1,0.5,1.4,0.7c0,1,0,1.9,0,2.9c0,0,0,0,0,0C72.4,54.9,73.6,53,73.3,51.7z"/>
		<path class="st11" d="M74.8,45.9l-0.4,0c0,0-0.4,0-0.4,0c-0.2-0.7-1.2-1.5,0-2.2C75.6,44,76,44.7,74.8,45.9z"/>
		<path class="st12" d="M73.3,65.6c-0.1,0.3-0.2,0.6-0.3,1c-0.1-0.1-0.3-0.2-0.3-0.2C72.9,66.1,73.1,65.8,73.3,65.6
			C73.3,65.5,73.3,65.6,73.3,65.6z"/>
		<path class="st11" d="M78.5,21.3c0,0.1,0.1,0.2,0.1,0.3c-0.1,0.1-0.2,0.1-0.3,0.1c0-0.1-0.1-0.2-0.1-0.3
			C78.3,21.3,78.4,21.3,78.5,21.3z"/>
		<path class="st11" d="M74.3,13.5c-0.2,0.1-0.3,0.1-0.4,0.1c0-0.1,0-0.2-0.1-0.3C74,13.4,74.1,13.4,74.3,13.5z"/>
		<path class="st0" d="M79.9,90.6c0.3-0.4,0.7-0.7,1-1c-0.4-0.8-1.4-1.4-1.1-2.3c-0.2,0.3-0.5,0.5-0.7,0.8
			C79.1,89.1,79.2,90,79.9,90.6z"/>
		<path class="st12" d="M88.1,44.9c0.1,0,0.2,0,0.2,0c0,0.1,0,0.2,0.1,0.3c-0.1,0-0.3,0-0.4,0C88.1,45.1,88.1,45,88.1,44.9z"/>
		<path class="st3" d="M74.8,55.3c0-1,0-1.9,0-2.9c0.5-0.8,1.4-0.7,2.2-0.7c0,0.5,0,0.9,0.1,1.4c0,0.5-0.2,1.1,0,1.4
			c1.3,2.1,0.1,5.7,3.7,6.6c0.2,0,0.5,0,0.7,0c0.7,1.1,0.8,2.4,0.7,3.7c0,0,0,0,0,0c-1.2,0-2.4,0-3.6,0c0.1-1.3-1.1-1.9-1.5-2.9
			C76.3,59.7,77,57,74.8,55.3z"/>
		<path class="st13" d="M80.6,61.2c-3.6-0.9-2.3-4.5-3.7-6.6c-0.2-0.3,0-0.9,0-1.4c2.4,0.2,3.8,0.9,3.1,3.9
			C79.7,58.2,80.4,59.8,80.6,61.2z"/>
		<path class="st13" d="M82.1,64.8c0.1-1.3,0-2.5-0.7-3.7c0.9,0,2,0,2.1,1.3C83.6,63.6,83.6,64.7,82.1,64.8z"/>
	</g>
	<ellipse class="st14" cx="51.9" cy="49.9" rx="46.2" ry="47"/>
</g>
<g>
	<path class="st15" d="M90.8,126.5H15c-2.2,0-4-1.8-4-4v-23c0-2.2,1.8-4,4-4h75.8c2.2,0,4,1.8,4,4v23
		C94.8,124.7,93,126.5,90.8,126.5z"/>
	<g>
		<path class="st16" d="M31.9,113c-0.1-2-0.1-4.4-0.1-6.8h-0.1c-0.5,2.1-1.2,4.4-1.8,6.4l-2,6.4H25l-1.8-6.4
			c-0.5-1.9-1.1-4.3-1.5-6.4l0,0c-0.1,2.2-0.2,4.8-0.3,6.8l-0.3,6.3h-3.4l1.1-16.5h5l1.6,5.5c0.5,1.9,1,4,1.4,5.9h0.1
			c0.5-1.9,1-4.1,1.6-5.9l1.8-5.5h4.9l0.9,16.5h-3.6L31.9,113z"/>
		<path class="st16" d="M53.7,110.9c0,5.4-3.3,8.7-8.1,8.7c-4.9,0-7.7-3.7-7.7-8.4c0-4.9,3.2-8.6,8-8.6
			C51,102.6,53.7,106.3,53.7,110.9z M41.8,111.1c0,3.2,1.5,5.5,4,5.5s4-2.4,4-5.6c0-3-1.4-5.5-4-5.5
			C43.3,105.5,41.8,107.9,41.8,111.1z"/>
		<path class="st16" d="M71.2,110.9c0,5.4-3.3,8.7-8.1,8.7c-4.9,0-7.7-3.7-7.7-8.4c0-4.9,3.2-8.6,8-8.6
			C68.5,102.6,71.2,106.3,71.2,110.9z M59.3,111.1c0,3.2,1.5,5.5,4,5.5c2.5,0,4-2.4,4-5.6c0-3-1.4-5.5-4-5.5
			C60.8,105.5,59.3,107.9,59.3,111.1z"/>
		<path class="st16" d="M73.7,119.3v-16.5H78l3.4,6c1,1.7,2,3.8,2.7,5.6h0.1c-0.2-2.2-0.3-4.4-0.3-6.9v-4.8h3.4v16.5h-3.9l-3.5-6.4
			c-1-1.8-2.1-3.9-2.9-5.8h-0.1c0.1,2.2,0.1,4.5,0.1,7.2v5h-3.3V119.3z"/>
	</g>
</g>
</svg>
