<?xml version="1.0" encoding="utf-8"?>
<!-- Generator: Adobe Illustrator 25.0.0, SVG Export Plug-In . SVG Version: 6.00 Build 0)  -->
<svg version="1.1" id="Layer_1" xmlns="http://www.w3.org/2000/svg" xmlns:xlink="http://www.w3.org/1999/xlink" x="0px" y="0px"
	 width="105.5px" height="129px" viewBox="0 0 105.5 129" style="enable-background:new 0 0 105.5 129;" xml:space="preserve">
<style type="text/css">
	.st0{fill:#FCFCFC;}
	.st1{fill:#4B5D65;}
	.st2{fill:#2D3C44;}
	.st3{fill:#EEF1F2;}
	.st4{fill:#EBEDEE;}
	.st5{fill:#F2F5F4;}
	.st6{fill:#E5E8EA;}
	.st7{fill:#B7C0C4;}
	.st8{fill:#A5B0B2;}
	.st9{fill:#D0D7D8;}
	.st10{fill:#252D32;}
	.st11{fill:#DDE2E3;}
	.st12{fill:#F8F4EC;}
	.st13{fill:#E9E0DB;}
	.st14{fill:#48A6DD;}
	.st15{fill:#FFFFFF;}
</style>
<g>
	<path class="st0" d="M34.6,113.9c-1.1-4.4,1.7-5.6,5.1-6.3c1.9-0.3,4.3-1.4,3.6,2.3c-0.3,1.3,0.6,0.8,1.1,0.8c1,0.1,2,0.1,3.1,0.1
		c1.6,0,2.2,1.1,2.5,2.4"/>
	<path class="st0" d="M47,101.9c-3.7-0.8-7.4-1.7-11.1-2.5c-0.8,0.4-1.7,0.7-2.4,1.2c-2.8,1.8,1.3,0.9,0.7,1.8
		c-1.5,0.4-2.5,0.5-3.3,0.5l-1.2,6.9c0.6-0.7,1.6-0.9,2.2-1.6c4-4.4,8.5-2.4,12.9-2.1c0.1-1.6,1.2-1.6,2.4-1.5
		C48.2,103.6,46.7,102.8,47,101.9z"/>
	<path class="st0" d="M44.4,1.3C43.5,3,40.6,1,39.7,3.1c0.8,0.7,2.5,0.1,2.7,1.7c-1,0.2-1.9,0.3-2.9,0.5C38.5,5,37.5,5,36.9,6
		c-1.5,0.4-2.8,1.7-4.5,1.3c-2.2-1.7-4.4,0.3-6.6,0.1c-4-0.3-4,0-4.9,4.3c1.5,0.3,2.2-1.1,3.3-1.6c1-0.4,1.7-0.6,1.9,0.7
		c-1.8,1.3-3.9,2.3-5.3,4.1c-1.5,1.3-3.1,2.4-4.5,3.8c-4,3.8-6.8,8.4-9,13.3c-1.6,3.7-3.9,7.2-3.9,11.5C3,49.1,2.9,54.4,3.3,59.8
		c-0.2,1.4,0,2.7,0.4,4.1c1.9,6.1,4,12,7.2,17.5c-1.5-0.1-1.5,1-1.7,2.1c0.2,0.4,0.5,0.8,0.7,1.2c0.4,0.8,0.7,1.6,1.1,2.4
		c0.2,0.4,0.3,0.8,0.5,1.1c1.4-0.1,2.7-0.1,3.6,1c1.4,1.6,2.3,0.8,3.5,0.8c1.3,1,2.6,2,3.8,3c-1.4,5.4-0.6,6.2,5.1,4.9
		c0.4-0.1,0.7-0.1,1.1-0.2c0.3-0.1,0.6-0.2,0.9-0.3l0.1,0c-0.6,4-0.5,5.4,1.3,5.5l18-101.6C47.4,1.3,45.9,1.3,44.4,1.3z"/>
	<path class="st0" d="M55.2,110.7c0.8,0.1,1.6-0.1,1.7-1.1c0-1-0.9-1.1-1.6-1.4c-0.7-0.3-1.5-0.5-2.2-0.5l-0.4,4.1
		C53,111,53.7,110.5,55.2,110.7z"/>
	<path class="st0" d="M62.1,1.3c0,0.3,0.5,0.6,0.6,1c0.3,0.6,0.3,1.4,0.5,2.1c0.1,0,0.1,0.1,0.2,0.1l0.3-3
		C63.2,1.4,62.6,1.3,62.1,1.3z"/>
	<path class="st0" d="M104.9,69.7c0-6,0-12,0-18c-0.3-0.7-0.5-1.4-0.5-2.2V48c-0.5-1.1-1.3-2.1-2.5-2.8c0-0.8,0-1.5-0.1-2.3
		c2.5-0.7,1-1.9,0.4-3.1c-0.8-1.8-2.6-3.3-2.1-5.5c0.5-2-3.9-1.5-2-4.1c-0.6-0.1-1.2-0.3-1.8-0.4c0-0.5,0-1,0-1.6
		c-0.1-1.5-1.1-1.5-2.2-1.5c-1.6-1.3-1.4-4.1-3.9-4.7c0-0.7-0.1-1.5-0.1-2.2c0-0.7,0-1.5,0.1-2.2c-0.6-0.6-1.3-1.1-2-1.7
		c-0.1-0.1-0.5-0.4-0.6-0.5c-0.2-0.1-0.8-0.6-0.8-0.6c-1.1-0.8-1.9-1.9-2.4-3c-0.5-0.3-0.9-0.7-1.2-1.1c-0.1,0.2-0.2,0.5-0.2,0.7
		c-0.3-0.3-0.5-0.8-0.6-1.2c-0.8-0.5-1.3-1.2-1.7-2c-2.2,0-4.1-1.8-6.2-0.6c-1.5-0.1-3.1-0.2-4.6-0.3c-0.4,0-0.8,0-1.3,0.1
		c-0.3-3.6-3.4-2.2-5.2-3l-9.9,99c2.9-0.1,5.8-1.9,8.8-0.6c1.9,0,3.8,0.1,5.7,0.2c1.8,0.1,2.2-0.9,2-2.4c0.1-0.7,0.2-1.5,0.3-2.2
		l0.3,0l0.3,0c1-0.1,2.4,0.2,2.3-1.5c2.8-0.6,5.6-1.1,8.4-1.7c-1.1-0.4-1.4-1.2-1.4-2.1c1.2,0,2.3,0.1,3.1-1.4
		c0.7-1.2,2.2-2.8,3.3-2.9c3.9-0.1,3.8-2.4,3.6-5.1l-0.1-0.3c3.3-0.1,3.8-2.4,3.9-4.9c1.7-0.5,0.6,1.7,1.7,1.9
		c1.2-2.4,1.6-4.7,0.6-7.3c2.5-0.4,1.2-2.4,1.6-3.7c0.7-0.4,1.2-0.8,0.8-1.7l0.1,0c0.7,0,1.5,0.1,2.2,0.1c0.2,0.6,0.7,1.2,0.6,1.8
		c-0.2,1.5-1,3.3,1.5,3.3C105.4,72.9,104.8,70.9,104.9,69.7z"/>
	<path class="st0" d="M47.1,105.2c-0.5,1-1.5,0.9-2.4,0.9c0.4,2.1,2.1,1.4,3.3,1.5c1.6,0.1,3.3-0.1,5,0.1l0.2-1.5
		c-0.6,0-1.3-0.2-1.9-0.3C49.9,105.6,48.5,105.4,47.1,105.2z"/>
	<path class="st0" d="M64.7,107.7c0.7-1.5,2.8-0.1,3.6-2c-3.8-0.9-7.7,0.4-11.3-1.5c0.5,3.8,3.3,3.6,5.5,4.2c0.6,4.4,4,1.6,6,2.3
		c0.9,0.3,1.9-0.6,1.5-1.6c-0.8-2.5-3-0.9-4.5-1.4C65.2,107.6,65,107.7,64.7,107.7z"/>
	<path class="st1" d="M3.4,43.7c0-4.3,2.3-7.8,3.9-11.5c2.2-4.9,5-9.5,9-13.3c1.4-1.4,3-2.5,4.5-3.8c1.2,1.8,2.7,1.7,4.2,0.5
		c1.8-1.3,3.6-2.4,5.8-3c1.2-0.3,2.6-1.3,3.4,0.4c0.8,1.8-1,2-2.1,2.5c-2.5,1.2-5.1,2.3-7.6,3.5c-0.9,0.4-3.2,7.3-2.5,7.9
		c2.1,1.7,3.4-1,5.2-1.3c1.1-0.2,1.2-1.4,1.3-2.5c0.1-2.1,1.3-3.3,3.4-3.4c3.2-0.2,5.7-2.4,8.6-2.9c0-1.7-2.7-2.3-1.3-3.8
		c1.1-1.3,2.4-3.2,4.8-1.8c0.4,0.2,1,0.1,1.5,0.1c0,0.3,0.1,0.5,0,0.8c-1.7,5.4-3,11-4,16.4c-0.8,4.7-1.2,9.7-1.6,14.6
		c-2.4,0-4.9-0.2-7.3-0.1c-3.1,0.1-4.2,2.5-4.5,5.6c-0.8,7.5,5.8,11.1,8.1,17c0.9,2.2,3,3.9,3.2,6.7c0.2,2.1,1-0.3,1.6,0
		c1,2,0.3,4.1,0.7,6.2c-0.5,0.2-0.8,0.5-0.1,0.8c0.1,0.5,0.1,0.9,0.2,1.4c-3.4,0.3-6.6,0.9-9.3,3.4c-0.8,0.7-2.3,1.1-3-0.2
		c-0.7-1.2-0.1-2.3,1.1-2.9c1.9-1.1,2.1-2.2,0-3.3c-1.8-1-1.2-2.3-0.1-3.5c0.5-0.6,1.3-0.9,1.8-1.5c0.7-0.8,2.2-1.5,0.9-2.8
		c-1.1-1.2-2.1,0-3.1,0.6c-0.8,0.5-1.1,1.7-2.3,1.9c-3.1,0.5-2.7,2-1.2,4c0.7,1,1.8,2.4,0.6,3.5C25.9,81,23.9,82,22,81.1
		c-2.3-1-4-2.9-4.1-5.5c0-1.9,1.6-2.6,3.5-2.7c3.2-0.3,2.5-2.2,1.5-4.1c-0.9-1.5-2.4-1.2-3.8-1.2c-5.9-0.1-8.2-2.2-10-7.7
		C8,56.4,7.7,52.4,4.8,49.7C5,48.1,5.2,46.6,5.4,45C5.7,43.1,4.6,43.4,3.4,43.7z"/>
	<path class="st2" d="M4.8,49.7c3,2.7,3.2,6.7,4.4,10.1c1.8,5.5,4.1,7.6,10,7.7c1.4,0,2.9-0.3,3.8,1.2c1.1,1.9,1.7,3.8-1.5,4.1
		c-1.9,0.2-3.6,0.9-3.5,2.7c0.1,2.5,1.8,4.5,4.1,5.5c1.9,0.9,3.9-0.1,5.3-1.4c1.2-1.1,0.1-2.5-0.6-3.5c-1.4-2-1.8-3.6,1.2-4
		c1.2-0.2,1.5-1.4,2.3-1.9c0.9-0.5,1.9-1.7,3.1-0.6c1.3,1.3-0.2,2-0.9,2.8c-0.5,0.6-1.3,0.9-1.8,1.5c-1,1.2-1.7,2.4,0.1,3.5
		c2,1.2,1.8,2.2,0,3.3c-1.1,0.7-1.7,1.8-1.1,2.9c0.8,1.3,2.2,1,3,0.2c2.6-2.5,5.9-3.1,9.3-3.4c1.9,6.7,3.8,13.3,5.7,20
		c-0.2,0.5-0.3,0.9-0.5,1.4c-3.7-0.8-7.4-1.7-11.1-2.5c-1.8-1.5-4.1-1.5-6.3-2.1c0,0-0.1,0-0.1,0c-0.3-0.2-0.5-0.5-0.8-0.7
		c-1.8-1.7-3.8-3.1-6.3-3.7c-1.3-1-2.6-2-3.8-3c-2-3.4-4.5-6.2-7.6-8.5c-3.2-5.5-5.3-11.5-7.2-17.5c-0.4-1.4-0.5-2.7-0.4-4.1
		c0.4,0,0.9,0,1.3,0C4.8,60.6,5,61.4,6,61.2c0.8-0.1,0.9-0.8,0.9-1.5c0-1.5-1-1.5-2.1-1.4C4.8,55.5,4.8,52.6,4.8,49.7z"/>
	<path class="st3" d="M47.5,100.5c-1.9-6.7-3.8-13.3-5.7-20c-0.1-0.5-0.1-0.9-0.2-1.4c0-0.3,0-0.5,0.1-0.8c-0.3-2,0.3-4.2-0.7-6.2
		c-0.2-2-0.5-4-0.7-6.1c0.5-1.3,0.6-2.6-0.2-3.9c-0.1-0.5-0.1-1-0.2-1.6c0.4-5.7,0.4-11.4-0.1-17.1c0.1-0.2,0.2-0.3,0-0.5
		c0.4-4.9,0.7-9.9,1.6-14.6c1-5.4,2.3-11,4-16.4c0.1-0.2,0-0.5,0-0.8c0.7-2,1.3-4,2-6c2.6-0.6,5.2-0.9,8-0.4
		c1.5,0.3,3.3,0.7,4.8-0.6c0.5,0,0.9,0,1.4,0l0.2,0.2c1.6,2.6,4.7,1.6,6.8,2.9c0.4,0,0.8,0,1.3-0.1C70,7.9,70.1,8.4,70.2,9
		c-4.6-1.7-9.4-1.7-14.2-1.5c-2.1,0.1-4.2-3.1-5.9-0.9c-1,1.3,0,4.1,0.1,6.3c-1.3,1.6,0.2,3.1,0,4.7c-1.6,0.1-1.5,1.2-1.5,2.3
		c-1.2,0.3-1.2-1.4-2.3-1.4c0.3,4.6-1.9,9.2,0,13.7c0,0.8,0,1.6,0,2.3c-0.5,0.1-1.4-1.8-1.4-0.2c0,3-0.9,5.8-0.9,8.7
		c-0.1,2.6,1.2,5,0.7,7.6c-2.8,1.2-3.3,3.5-0.9,5.4c0.5,0.4,0.9,0.8,1,1.5c0.8,1.2,2,0.7,3,0.8c0,0.5,0,1,0,1.5
		c-1.2,0.7-3.9-2.3-3.8,1.6c-2.4,2.1-2.5,4.1,0,6.2l0,0c0.1,1.7,0.4,3.3,1.5,4.7c0,0.5,0,1,0,1.5C42.9,76,43.2,77,47,78.3
		c2.1,0.4,1.4,1.4,0.8,2.8c-0.9,2-2.4,5.2-0.8,6.3c3.6,2.4,2.4,5.3,2.1,8.1c-0.3,2.1,0.8,2.8,2.1,2.7c2.5,0,5.9,0.4,7.4-1
		c3.7-3.5,9-0.6,12.8-4c2.2-1.9,7.6-6.1,8-9.5c0.6-4.8,3.7-7,7.7-5.6c0.8,0.3,1.5,1.3,2.2,0.1c0.6-0.9,1.1-1.9,0.3-2.8
		c-1.2-1.4-1.1-3.1-1.1-4.7c0,0,0,0,0,0c1.9,0.1,0.4,3.8,2.9,2.9c1.9-0.7,1.5-2.7,1.8-4.3c0.5-2.9,2.3-1.4,3.8-0.9
		c0,1.6-1.9,2.9-0.8,4.7c0,0,0,0,0,0c-2.5,1.1-2.4,3.3-2.3,5.4c0,0,0,0,0,0c-3.1,0.2-3.2,2.9-3.9,5c0,0,0.1,0.3,0.1,0.3
		c-3.5,3-7.8,5.2-10.1,9.4l0,0c-3,0.1-5,2-7,3.9l0,0c-1.2-0.2-2.2,0-2.3,1.5l-0.3,0c0,0-0.3,0-0.3,0c-2.6,0.2-5.4-0.1-7.2,2.5
		c-0.2,0.2-0.4,0.4-0.6,0.6c-2-1.6-4.1-0.6-6.2-0.3C53.4,101.6,50.4,102.2,47.5,100.5z M45,80.7c0.1,0.9-0.8,2.1,0.7,2.7
		C46.2,82.2,45.6,81.5,45,80.7z"/>
	<path class="st3" d="M62.1,1.3c-4.3-0.2-8.5-0.2-12.8-0.1c0,0.3,0,0.6,0,0.9c3.6,0.2,7.3,0.4,10.8,1.5c0.7,0,1.3,0,1.6,0.7
		c0,0,0.2,0.2,0.2,0.2c0.5,0,0.9-0.1,1.4-0.1c-0.2-0.7-0.2-1.4-0.5-2.1C62.6,2,62.1,1.6,62.1,1.3z"/>
	<path class="st4" d="M29.4,111.4c-0.5-2.1,1.5-2.2,2.5-3.2c4-4.4,8.5-2.4,12.9-2.1c0,0,0,0,0,0c0.4,2.1,2.1,1.4,3.3,1.5
		c2.4,0.2,4.9-0.4,7.2,0.6c0.7,0.3,1.6,0.4,1.6,1.4c0,1-0.9,1.2-1.7,1.1c-2.7-0.2-2.8,1.4-2.8,3.4"/>
	<path class="st4" d="M50,113.1c-0.3-1.3-0.9-2.4-2.5-2.4c-1,0-2.1,0-3.1-0.1c-0.4,0-1.3,0.5-1.1-0.8c0.7-3.6-1.7-2.6-3.6-2.3
		c-3.5,0.6-6.2,1.9-5.1,6.3"/>
	<path class="st2" d="M47.5,5.3c-0.7,2-1.3,4-2,6c-0.5,0-1.1,0.2-1.5-0.1c-2.4-1.4-3.6,0.6-4.8,1.8c-1.4,1.6,1.4,2.1,1.3,3.8
		c-2.9,0.5-5.4,2.7-8.6,2.9c-2.1,0.1-3.3,1.3-3.4,3.4c-0.1,1.1-0.2,2.4-1.3,2.5c-1.8,0.2-3,3-5.2,1.3c-0.7-0.6,1.5-7.4,2.5-7.9
		c2.5-1.2,5.1-2.3,7.6-3.5c1.1-0.5,2.9-0.8,2.1-2.5c-0.7-1.6-2.2-0.7-3.4-0.4c-2.1,0.6-4,1.7-5.8,3c-1.5,1.1-3,1.3-4.2-0.5
		c1.4-1.9,3.5-2.8,5.3-4.1c2.5-0.4,3.9-2.8,6.2-3.6c1.8,0.4,3-0.9,4.5-1.3c1.1,0.3,1.9,0.1,2.5-0.9c1-0.2,1.9-0.3,2.9-0.5
		c0.9,0.3,1.7,0.5,2.5-0.3C45.9,4,46.9,4.1,47.5,5.3z"/>
	<path class="st5" d="M96.4,29.8c0.6,0.1,1.2,0.3,1.8,0.4c-1.9,2.6,2.5,2.1,2,4.1c-0.5,2.2,1.3,3.7,2.1,5.5c0.6,1.3,2,2.4-0.4,3.1
		c-2.4-0.8-1.3-4-4.2-5.7c1.9,8.4,3.7,16.2,1.6,24.1c-0.2,0.6-0.5,1.1-0.7,1.7c-1.8-0.4-1.3-1.5-0.9-2.6c1.1-3.2,1-6.5,1.1-9.8
		c0-2-1.6-4-2.5-3.7C92,47.9,94,45,94,43.5c-1.4-0.5-1.5,2.2-3,0.9c-0.7-2.8,1.6-5,1.5-7.7c1-2-0.7-1.3-1.5-1.5c0-0.5,0-1-0.1-1.5
		c1.5-1.9,0.5-4.2,0.7-6.2C93.5,27.7,93.9,30.7,96.4,29.8z"/>
	<path class="st5" d="M104.9,51.7c-0.3-0.7-0.5-1.4-0.5-2.2V48c-0.5-1.1-1.3-2.1-2.5-2.8c-1.2,5.4-0.5,10.8-0.9,16.2
		c0,2.1,0,4.2,0,6.4c0.2,0.6,0.7,1.2,0.6,1.8c-0.2,1.5-1,3.3,1.5,3.3c2.3,0,1.7-1.9,1.7-3.2C104.9,63.7,104.8,57.7,104.9,51.7z"/>
	<path class="st3" d="M90.3,17.6c-0.6-0.6-1.3-1.1-2-1.7c-0.1-0.1-0.5-0.4-0.6-0.5c-0.2-0.1-0.8-0.6-0.8-0.6c-1.1-0.8-1.9-1.9-2.4-3
		c-0.5-0.3-0.9-0.7-1.2-1.1c-0.1,0.2-0.2,0.5-0.2,0.7c-0.3-0.3-0.5-0.8-0.6-1.2c-0.8-0.5-1.3-1.2-1.7-2c-2.2,0-4.1-1.8-6.2-0.6
		c1,2.4,3.5,3.1,5.4,4.4c1.6,1.1,3.1,2.2,4.1,3.8c1,0,1.4,0.6,1.5,1.6c1.4,0.2,3.9-0.8,2.3,2.3c0.8,0,1.5,0,2.3,0.1
		C90.2,19.1,90.2,18.3,90.3,17.6z"/>
	<path class="st6" d="M10.9,81.4c-1.5-0.1-1.5,1-1.7,2.1c0.2,0.4,0.5,0.8,0.7,1.2c0.4,0.8,0.7,1.6,1.1,2.4c0.2,0.4,0.3,0.8,0.5,1.1
		c1.4-0.1,2.7-0.1,3.6,1c1.4,1.6,2.3,0.8,3.5,0.8C16.6,86.5,14.1,83.7,10.9,81.4z"/>
	<path class="st7" d="M101.9,45.2c-1.2,5.4-0.5,10.8-0.9,16.2c-0.6,0-1.2-0.1-1.7-0.1c2.1-7.9,0.2-15.6-1.6-24.1
		c2.9,1.8,1.8,4.9,4.2,5.7C101.9,43.6,101.9,44.4,101.9,45.2z"/>
	<path class="st8" d="M47.5,100.5c2.9,1.6,5.9,1,8.9,0.6c2.1-0.3,4.2-1.3,6.2,0.3c-0.1,0.5-0.2,1-0.2,1.5c-3.4-1.5-6.6,0.9-9.9,0.5
		c-1.3-0.6-2.5-0.8-3.4,0.6c0.4,1.2,2.5,0,2.3,1.8c-1.4-0.2-2.8-0.4-4.2-0.7c0-0.2,0-0.4,0-0.6c1.1-0.9-0.4-1.8-0.1-2.7
		C47.2,101.4,47.4,101,47.5,100.5z"/>
	<path class="st9" d="M32.4,7.4c-2.3,0.8-3.7,3.2-6.2,3.6c-0.2-1.4-0.9-1.1-1.9-0.7c-1.2,0.4-1.8,1.9-3.3,1.6
		c0.8-4.4,0.9-4.6,4.9-4.3C28,7.7,30.2,5.6,32.4,7.4z"/>
	<path class="st10" d="M4.8,49.7c0,2.9,0,5.8,0,8.7c0,0.5-0.1,0.9-0.1,1.4c-0.4,0-0.9,0-1.3,0C2.9,54.4,3,49.1,3.4,43.7
		c1.2-0.4,2.3-0.6,2,1.3C5.2,46.6,5,48.1,4.8,49.7z"/>
	<path class="st7" d="M80.2,93c2.3-4.3,6.6-6.4,10.1-9.4c0.2,2.7,0.3,5-3.6,5.1c-1.2,0-2.7,1.6-3.3,2.9C82.5,93.1,81.5,93,80.2,93z"
		/>
	<path class="st7" d="M74.6,7.6c1,2.4,3.5,3.1,5.4,4.4c1.6,1.1,3.1,2.2,4.1,3.8L84,15.9c-1.5,0.3-2.2-0.8-3.3-1.5
		c-3.4-2.1-6.4-4.8-10.6-5.5l0,0c-0.1-0.5-0.1-1.1-0.2-1.6C71.5,7.4,73,7.5,74.6,7.6z"/>
	<path class="st7" d="M29.6,97.3c2.1,0.6,4.5,0.6,6.3,2.1c-0.8,0.4-1.7,0.7-2.4,1.2c-2.8,1.8,1.3,0.9,0.7,1.8
		C29.3,103.5,28.8,103,29.6,97.3z"/>
	<path class="st4" d="M62.5,108.4c-2.2-0.6-5-0.4-5.5-4.2c3.6,1.9,7.5,0.6,11.3,1.5c-0.8,1.9-2.9,0.5-3.6,2
		C63.9,107.7,63.1,107.6,62.5,108.4z"/>
	<path class="st11" d="M22.4,92.9c2.4,0.6,4.4,2.1,6.3,3.7c0,0.3-0.1,0.6-0.1,1c-0.4,0.1-0.7,0.1-1.1,0.2
		C21.8,99.1,21,98.3,22.4,92.9z"/>
	<path class="st9" d="M44.4,1.3C43.5,3,40.6,1,39.7,3.1c0.8,0.7,2.5,0.1,2.7,1.7c0.9,0.3,1.7,0.5,2.5-0.3c0.4-2.8,2.8-1.9,4.4-2.3
		c0-0.3,0-0.6,0-0.9C47.7,1.3,46,1.3,44.4,1.3z"/>
	<path class="st9" d="M62.5,108.4c0.6-0.8,1.4-0.7,2.2-0.7c0.3,0,0.5-0.1,0.8,0c1.5,0.4,3.7-1.1,4.5,1.4c0.3,1-0.6,1.9-1.5,1.6
		C66.5,110,63.1,112.8,62.5,108.4z"/>
	<path class="st7" d="M96.4,29.8c-2.5,1-2.9-2.1-4.7-2.4c-0.2,0-0.4,0-0.5,0c-0.4-1.7-0.7-3.5-1.1-5.2l0.2-0.2
		c2.5,0.6,2.3,3.3,3.9,4.7c-0.1,1.7,1.1,1.6,2.2,1.5C96.4,28.7,96.4,29.2,96.4,29.8z"/>
	<path class="st7" d="M94.1,78.4c0-2.2-0.1-4.4,2.3-5.4c1,2.5,0.6,4.9-0.6,7.3C94.7,80.1,95.8,77.9,94.1,78.4z"/>
	<path class="st11" d="M62.3,102.9c0.1-0.5,0.1-1,0.2-1.5c0.2-0.2,0.4-0.4,0.6-0.6c2.3,0.7,4.6-0.2,6.9-0.2c0.2,1.5-0.2,2.5-2,2.4
		C66.1,103,64.2,102.9,62.3,102.9z"/>
	<path class="st8" d="M99.3,61.2c0.6,0,1.2,0.1,1.7,0.1c0,2.1,0,4.2,0,6.4c-0.7,0-1.5-0.1-2.2-0.1c-0.3-0.5-0.6-1.1-0.9-1.6
		c0.2-1,0.4-2.1,0.5-3.1C98.8,62.3,99,61.8,99.3,61.2z"/>
	<path class="st7" d="M73.3,96.9c2-1.9,4-3.8,7-3.9c0,1,0.3,1.7,1.4,2.1C78.8,95.7,76.1,96.3,73.3,96.9z"/>
	<path class="st7" d="M70.1,100.6c-2.3,0-4.6,0.9-6.9,0.2c1.8-2.5,4.6-2.3,7.2-2.5C70.3,99.1,70.2,99.9,70.1,100.6z"/>
	<path class="st7" d="M90.2,83.3c0.7-2.1,0.8-4.8,3.9-5C94,80.9,93.5,83.2,90.2,83.3z"/>
	<path class="st8" d="M61.8,4.5c0.5,0,0.9-0.1,1.4-0.1c1.8,1,5.2-0.7,5.4,3.1C66.6,6.1,63.4,7.1,61.8,4.5z"/>
	<path class="st4" d="M51.3,105.9c0.2-1.8-1.9-0.6-2.3-1.8c0.9-1.4,2.1-1.2,3.4-0.6c0,1.3,2.5,0.8,1.7,2.3
		C53.7,106.5,52.3,106,51.3,105.9z"/>
	<path class="st7" d="M98,66c0.3,0.5,0.6,1.1,0.9,1.6c0,0-0.1,0-0.1,0c-0.8,0.3-0.8,1-0.8,1.7c-0.3,1.3,0.9,3.3-1.6,3.7
		c-1.1-1.8,0.7-3.1,0.8-4.7C97.3,67.5,97,66.5,98,66z"/>
	<path class="st7" d="M87.9,19.7c0.8,0,1.5,0,2.3,0.1c0,0.7,0.1,1.5,0.1,2.2c0,0-0.2,0.2-0.2,0.2C88.4,22.2,87.6,21.5,87.9,19.7
		C87.9,19.8,87.9,19.7,87.9,19.7z"/>
	<path class="st4" d="M47.1,104.6c0,0.2,0,0.4,0,0.6c-0.5,1-1.5,0.9-2.4,0.9c0,0,0,0,0,0C44.9,104.5,46,104.5,47.1,104.6z"/>
	<path class="st5" d="M96.4,28.2c-1.1,0.1-2.3,0.2-2.2-1.5C95.3,26.7,96.3,26.7,96.4,28.2z"/>
	<path class="st7" d="M71,98.4c0.1-1.6,1.1-1.7,2.3-1.5C73.3,98.6,72,98.3,71,98.4z"/>
	<path class="st9" d="M39.5,5.2c-0.6,1-1.5,1.2-2.5,0.9C37.5,5,38.5,5,39.5,5.2z"/>
	<path class="st8" d="M98,69.3c0-0.7,0-1.4,0.8-1.7C99.2,68.5,98.6,68.9,98,69.3z"/>
	<path class="st7" d="M28.6,97.6c0-0.3,0.1-0.6,0.1-1c0.3,0.2,0.5,0.5,0.8,0.7C29.2,97.4,28.9,97.5,28.6,97.6z"/>
	<path class="st2" d="M39.9,43c0.1,0.2,0.1,0.3,0,0.5c-1.2,0.4-2.1,1.1-2.1,2.5c0,4.2,0,8.5,0,12.7c0,1.6,0.9,2,2.2,1.9
		c0.1,0.5,0.1,1,0.2,1.6c-2.9,1.4-0.6,2.6,0.2,3.9c0.2,2,0.5,4,0.7,6.1c-0.6-0.4-1.4,2-1.6,0c-0.2-2.8-2.3-4.4-3.2-6.7
		c-2.3-5.8-8.9-9.5-8.1-17c0.3-3.1,1.4-5.5,4.5-5.6C35.1,42.8,37.5,42.9,39.9,43z"/>
	<path class="st2" d="M41.7,78.3c0,0.3,0,0.5-0.1,0.8C41,78.8,41.3,78.5,41.7,78.3z"/>
	<path class="st1" d="M4.6,59.8c0-0.5,0.1-0.9,0.1-1.4c1.1-0.1,2.1-0.1,2.1,1.4c0,0.7-0.1,1.3-0.9,1.5C5,61.4,4.8,60.6,4.6,59.8z"/>
	<path class="st12" d="M98,66c-1,0.5-0.7,1.5-0.8,2.3c-1.5-0.5-3.3-1.9-3.8,0.9c-0.3,1.6,0.1,3.6-1.8,4.3c-2.5,0.9-1-2.8-2.9-2.9
		c-0.1-1.3,0.1-2.5,1.5-3.1c1.8,0.1,2.4-0.8,2.3-2.5c-0.1-1.7,0-3.5,0-5.2c0.7-0.4,1.6-0.9,1.3-1.7c-1.2-3-1.9-6.2-4.8-8.3
		c-1.5-1.1-2.4-1.7-3.5,0.3c-0.5,0.9-1,2.3-2.6,1.6c-1.4-0.7-1.7-2.3-1-3.3c1.2-1.8,1.3-2.9-1-3.6c-0.3-0.1-0.7-0.6-0.6-0.9
		c0.3-3.9-1.2-5.1-4.9-3.7c-1.2,0.4-2.6-1-1.9-2c2.2-2.7-0.4-4-1.5-5.4c-1.2-1.5-2.2-2.8-1.9-4.8c1.7,0.1,3.7,3.8,5-0.1
		c0.6-1.8-1.1-3-3.2-3.3c-2.6-0.4-1.6,1.5-1.8,2.6c-1.9-0.1-4.2,0.4-5.7-0.4c-2.1-1.2-2.4-2.7-5.5-0.1c-3.7,3.1-4.4,6.9-4.3,10.1
		c0.1,2.5,3.4,5.7,7.5,6.1c1.6,0.1,2.7,1.2,2.1,3.3c-1,3.2,1,6.3,0.6,9.5c-0.2,1.3,0.9,1.8,2,1.7c2.1-0.1,3.6,0.3,3.3,2.9
		c-0.1,1,0.5,1.7,1.6,1.7c1.1,0.1,2.2,0,2.6-1.1c0.3-0.8,0.3-1.7,0.4-2.6c0.3-2.4,2-3.9,4.2-3.5c1.6,0.3,3.9,1,2.9,4.1
		c-0.8,2.5,0.6,4.6,3,6.1c0.6,0.4,3,0.8,1.4,2.2c-1.2,1-1.8,1.8-1,3.1c0.9,1.7,2.3,0.1,3.5,0.2c0,1.7-0.1,3.3,1.1,4.7
		c0.8,0.9,0.3,1.9-0.3,2.8c-0.8,1.2-1.4,0.2-2.2-0.1c-4.1-1.4-7.1,0.9-7.7,5.6c-0.4,3.4-5.9,7.6-8,9.5c-3.9,3.4-9.1,0.5-12.8,4
		c-1.5,1.4-4.9,1-7.4,1c-1.4,0-2.4-0.6-2.1-2.7c0.4-2.8,1.5-5.7-2.1-8.1c-1.6-1.1-0.1-4.3,0.8-6.3c0.6-1.3,1.3-2.4-0.8-2.8
		c0.5-1.9-2-2.8-1.5-4.6c0-0.5,0-1,0-1.5c0.9-2,2.3-4.2-1.5-4.7c0,0,0,0,0,0c0-2.1,0-4.1,0-6.2c-0.1-3.9,2.6-0.9,3.8-1.6
		c2.5,0.5,2.1-3.1,4.8-2.7c-3.5-3.1-3.5-3.1-4.8,1.2c-1.1-0.1-2.3,0.4-3-0.8c2.7-2.3,2.1-4.6,0-6.9c0.5-2.6-0.9-5.1-0.7-7.6
		c3.1-1.2,5.5-2.6,2.5-6.3c-0.4-0.5-0.2-1.5-0.2-2.2c0-0.8,0-1.6,0-2.3c5,1.8,4.9-5.2,8.8-5.2c-0.1-0.5-0.1-1-0.2-1.4
		c-0.8-1.8-2.2-3.4-4-3.1c-2.8,0.5-2.1-1.3-2.3-2.7c0-1.1,0-2.2,1.5-2.3c1.6-0.3,2.6,0.8,3.8,1.5c0.7,0.4,2,1.3,2.4,0.5
		c2-3.4,5.2-1.4,7.9-2c1.3-0.3,3.5,0.8,3.5-1.7c0-1.9-1.4-2.6-3.3-3c-4.8-1.1-9.6,0.7-14.3,0c-0.1-2.1-1.1-4.9-0.1-6.3
		c1.6-2.2,3.7,1,5.9,0.9c4.8-0.2,9.6-0.1,14.2,1.5c0,0,0,0,0,0c-0.8,5.2-0.9,5.5,4.3,6c1.9,0.2,2.1,1.5,3.2,2.4
		c2.7,2.3,3.4,4.7,1.5,7.7c-0.4,0.7-1.6,1.3-0.5,2.2c0.8,0.6,1.5,0.1,2.3-0.6c2.2-2.2,8.3-1.6,10.3,0.9c0.2-0.1,0.4-0.1,0.5,0
		c-0.3,2.1,0.8,4.3-0.7,6.2c-1,0.3-2,0.5-3,0.8c-2.8,0.9-4.4,2.9-3.7,5.7c1.5,5.5,2.3,5.8,6.7,4.3c1.5,1.3,1.6-1.3,3-0.9
		c0,1.4-2,4.3,2.2,3.3c0.9-0.2,2.6,1.7,2.5,3.7c-0.1,3.3,0,6.6-1.1,9.8c-0.4,1.1-0.9,2.2,0.9,2.6C98.4,63.9,98.2,65,98,66z
		 M48.8,49.2c2-1.7,2.6-1.2,3.4,0.5c1.1,2.4,3.1,1.7,4.9,0.5c1.9-1.3,1.5-2.8,0.3-4.2c-0.8-1-1.7-1.9-2.7-2.8
		c-2-1.7-4.6-0.8-5.2,1.8C49.2,46.1,49.1,47.2,48.8,49.2z M80.3,69.6c-0.2-2.8-1.1-4.4-3.3-4.2c-2,0.1-3.4,1.9-3.4,3.5
		c0,1.6,1.1,3.4,3.4,3.3C79,72,80.4,71.2,80.3,69.6z"/>
	<path class="st13" d="M50.1,12.8c4.8,0.7,9.5-1.1,14.3,0c1.8,0.4,3.3,1.1,3.3,3c-0.1,2.5-2.2,1.4-3.5,1.7c-2.6,0.5-5.8-1.4-7.9,2
		c-0.5,0.8-1.7-0.1-2.4-0.5c-1.2-0.7-2.2-1.7-3.8-1.5C50.4,15.9,48.9,14.3,50.1,12.8z"/>
	<path class="st13" d="M48.6,19.7c0.1,1.4-0.5,3.1,2.3,2.7c1.8-0.3,3.3,1.3,4,3.1c0.2,0.4,0.2,1,0.2,1.4c-4,0-3.8,7-8.8,5.2
		c-1.9-4.6,0.3-9.1,0-13.7C47.4,18.4,47.4,20.1,48.6,19.7z"/>
	<path class="st10" d="M40,60.6c-1.3,0-2.2-0.4-2.2-1.9c0-4.2,0-8.5,0-12.7c0-1.3,0.9-2.1,2.1-2.5C40.4,49.2,40.4,54.9,40,60.6z"/>
	<path class="st8" d="M44.8,4.4c0.4-2.8,2.8-1.9,4.4-2.3c3.6,0.2,7.3,0.4,10.8,1.5c0,0.3,0.1,0.5,0.2,0.7c-1.5,1.2-3.3,0.8-4.8,0.6
		c-2.7-0.5-5.3-0.2-8,0.4C46.9,4.1,45.9,4,44.8,4.4z"/>
	<path class="st13" d="M46.3,34.4c0.1,0.8-0.2,1.7,0.2,2.2c3,3.7,0.6,5.1-2.5,6.3c-0.1-2.9,0.9-5.8,0.9-8.7
		C44.9,32.7,45.7,34.5,46.3,34.4z"/>
	<path class="st11" d="M44.7,50.6c2.2,2.3,2.7,4.6,0,6.9c-0.1-0.6-0.4-1-1-1.5C41.5,54,41.9,51.7,44.7,50.6z"/>
	<path class="st13" d="M47.8,58.3c1.3-4.2,1.3-4.2,4.8-1.2c-2.7-0.4-2.2,3.2-4.8,2.7C47.8,59.3,47.8,58.8,47.8,58.3z"/>
	<path class="st11" d="M45.5,73.7c-0.5,1.9,2,2.8,1.5,4.6C43.2,77,42.9,76,45.5,73.7z"/>
	<path class="st11" d="M44,61.4c0,2.1,0,4.1,0,6.2C41.5,65.5,41.5,63.4,44,61.4z"/>
	<path class="st11" d="M44,67.5c3.9,0.4,2.4,2.7,1.5,4.7C44.4,70.9,44,69.2,44,67.5z"/>
	<path class="st1" d="M40.4,66.1c-0.7-1.3-3.1-2.5-0.2-3.9C40.9,63.4,40.9,64.7,40.4,66.1z"/>
	<path class="st11" d="M45,80.7c0.6,0.7,1.3,1.5,0.7,2.7C44.2,82.8,45,81.6,45,80.7z"/>
	<path class="st0" d="M60.2,4.3C60.1,4.1,60,3.8,60,3.6c0.6,0,1.3,0,1.6,0.7C61.2,4.3,60.7,4.3,60.2,4.3z"/>
	<path class="st13" d="M91,44.4c-4.4,1.5-5.2,1.1-6.7-4.3c-0.8-2.8,0.9-4.8,3.7-5.7c1-0.3,2-0.5,3-0.8c0,0.5,0,1,0.1,1.5
		c0.2,0.8,0.8,1.3,1.5,1.5C92.6,39.4,90.3,41.6,91,44.4z M90.4,38.7c0.1-0.2,0.3-0.5,0.2-0.6c-0.1-0.2-0.4-0.3-0.6-0.3
		c-0.2,0.1-0.3,0.4-0.3,0.6C89.9,38.6,90.2,38.7,90.4,38.7z"/>
	<path class="st12" d="M92.6,36.7c-0.7-0.3-1.3-0.8-1.5-1.5C91.8,35.4,93.6,34.7,92.6,36.7z"/>
	<path class="st7" d="M85.6,17.4c1.4,0.2,3.9-0.8,2.3,2.3c0,0,0,0,0,0C86.2,19.9,85.4,19.1,85.6,17.4L85.6,17.4z"/>
	<path class="st7" d="M84.1,15.9c1,0,1.4,0.6,1.5,1.6c0,0,0,0,0,0C84.6,17.5,83.9,17.1,84.1,15.9L84.1,15.9z"/>
	<path class="st5" d="M84,15.9c-0.1,1.1,0.6,1.5,1.6,1.5c-0.2,1.7,0.6,2.5,2.3,2.3c-0.3,1.7,0.6,2.4,2.2,2.4
		c0.4,1.7,0.7,3.5,1.1,5.2c-2-2.4-8-3-10.3-0.9c-0.8,0.7-1.5,1.2-2.3,0.6c-1.1-0.9,0.1-1.5,0.5-2.2c1.9-3,1.2-5.4-1.5-7.7
		c-1-0.9-1.2-2.2-3.2-2.4c-5.2-0.5-5.2-0.7-4.3-6c4.1,0.6,7.2,3.4,10.6,5.5C81.8,15.1,82.5,16.2,84,15.9z"/>
	<path class="st13" d="M70.2,28.2c-0.3,2,0.7,3.3,1.9,4.8c1.1,1.4,3.7,2.7,1.5,5.4c-0.8,1,0.6,2.4,1.9,2c3.8-1.4,5.3-0.2,4.9,3.7
		c0,0.3,0.4,0.8,0.6,0.9c2.3,0.7,2.2,1.8,1,3.6c-0.7,1-0.4,2.6,1,3.3c1.5,0.7,2.1-0.7,2.6-1.6c1.1-2,2-1.4,3.5-0.3
		c2.9,2.1,3.6,5.3,4.8,8.3c0.3,0.8-0.6,1.3-1.3,1.7c-0.5-0.4-0.9-1.2-1.4-1.2c-0.9,0-0.6,0.8-0.4,1.4c0.7,2.5,0.2,5-0.5,7.4
		c-1.4,0.6-1.6,1.8-1.5,3.1c0,0,0,0,0,0c-1.2-0.1-2.5,1.4-3.5-0.2c-0.7-1.3-0.2-2,1-3.1c1.6-1.4-0.8-1.9-1.4-2.2
		c-2.4-1.4-3.8-3.6-3-6.1c1-3.1-1.2-3.8-2.9-4.1c-2.2-0.4-3.8,1.1-4.2,3.5c-0.1,0.9-0.1,1.8-0.4,2.6c-0.5,1.1-1.6,1.2-2.6,1.1
		c-1.1-0.1-1.7-0.7-1.6-1.7c0.2-2.6-1.3-3-3.3-2.9c-1.2,0.1-2.2-0.4-2-1.7c0.5-3.2-1.6-6.3-0.6-9.5c0.6-2.1-0.5-3.2-2.1-3.3
		c-4.1-0.3-7.4-3.6-7.5-6.1c-0.1-3.1,0.6-7,4.3-10.1c3.1-2.6,3.4-1,5.5,0.1c1.5,0.8,3.7,0.3,5.7,0.4C70.2,27.7,70.2,27.9,70.2,28.2z
		"/>
	<path class="st13" d="M48.8,49.2c0.3-2,0.3-3.1,0.6-4.2c0.6-2.6,3.2-3.5,5.2-1.8c1,0.8,1.9,1.8,2.7,2.8c1.2,1.4,1.6,2.9-0.3,4.2
		c-1.8,1.2-3.7,1.9-4.9-0.5C51.4,48,50.8,47.5,48.8,49.2z"/>
	<path class="st13" d="M80.3,69.6c0.2,1.6-1.2,2.4-3.3,2.6c-2.3,0.2-3.5-1.7-3.4-3.3c0-1.6,1.4-3.4,3.4-3.5
		C79.2,65.2,80.1,66.7,80.3,69.6z"/>
	<path class="st11" d="M70.2,28.2c0-0.2,0-0.5,0-0.7c0.3-1.1-0.8-3,1.8-2.6c2.1,0.3,3.8,1.5,3.2,3.3C73.9,32,71.9,28.3,70.2,28.2z"
		/>
	<path class="st5" d="M90.2,67.5c0.7-2.4,1.2-4.9,0.5-7.4c-0.2-0.6-0.5-1.4,0.4-1.4c0.5,0,0.9,0.7,1.4,1.2c0,1.7-0.1,3.5,0,5.2
		C92.6,66.8,92,67.7,90.2,67.5z"/>
	<path class="st12" d="M90.4,38.7c-0.2-0.1-0.6-0.1-0.6-0.3c-0.1-0.2,0.1-0.5,0.3-0.6c0.2-0.1,0.5,0.1,0.6,0.3
		C90.7,38.3,90.5,38.5,90.4,38.7z"/>
</g>
<g>
	<path class="st14" d="M90.8,126.5H15c-2.2,0-4-1.8-4-4v-23c0-2.2,1.8-4,4-4h75.8c2.2,0,4,1.8,4,4v23
		C94.8,124.7,93,126.5,90.8,126.5z"/>
	<g>
		<path class="st15" d="M31.9,113c-0.1-2-0.1-4.4-0.1-6.8h-0.1c-0.5,2.1-1.2,4.4-1.8,6.4l-2,6.4H25l-1.8-6.4
			c-0.5-1.9-1.1-4.3-1.5-6.4l0,0c-0.1,2.2-0.2,4.8-0.3,6.8l-0.3,6.3h-3.4l1.1-16.5h5l1.6,5.5c0.5,1.9,1,4,1.4,5.9h0.1
			c0.5-1.9,1-4.1,1.6-5.9l1.8-5.5h4.9l0.9,16.5h-3.6L31.9,113z"/>
		<path class="st15" d="M53.7,110.9c0,5.4-3.3,8.7-8.1,8.7c-4.9,0-7.7-3.7-7.7-8.4c0-4.9,3.2-8.6,8-8.6
			C51,102.6,53.7,106.3,53.7,110.9z M41.8,111.1c0,3.2,1.5,5.5,4,5.5s4-2.4,4-5.6c0-3-1.4-5.5-4-5.5
			C43.3,105.5,41.8,107.9,41.8,111.1z"/>
		<path class="st15" d="M71.2,110.9c0,5.4-3.3,8.7-8.1,8.7c-4.9,0-7.7-3.7-7.7-8.4c0-4.9,3.2-8.6,8-8.6
			C68.5,102.6,71.2,106.3,71.2,110.9z M59.3,111.1c0,3.2,1.5,5.5,4,5.5c2.5,0,4-2.4,4-5.6c0-3-1.4-5.5-4-5.5
			C60.8,105.5,59.3,107.9,59.3,111.1z"/>
		<path class="st15" d="M73.7,119.3v-16.5H78l3.4,6c1,1.7,2,3.8,2.7,5.6h0.1c-0.2-2.2-0.3-4.4-0.3-6.9v-4.8h3.4v16.5h-3.9l-3.5-6.4
			c-1-1.8-2.1-3.9-2.9-5.8h-0.1c0.1,2.2,0.1,4.5,0.1,7.2v5h-3.3V119.3z"/>
	</g>
</g>
</svg>
