<?xml version="1.0" encoding="utf-8"?>
<!-- Generator: Adobe Illustrator 25.0.0, SVG Export Plug-In . SVG Version: 6.00 Build 0)  -->
<svg version="1.1" id="Layer_1" xmlns="http://www.w3.org/2000/svg" xmlns:xlink="http://www.w3.org/1999/xlink" x="0px" y="0px"
	 width="105.5px" height="129px" viewBox="0 0 105.5 129" style="enable-background:new 0 0 105.5 129;" xml:space="preserve">
<style type="text/css">
	.st0{fill:#48A6DD;}
	.st1{fill:#FFFFFF;}
	.st2{fill:#231F20;}
	.st3{fill:#13130F;}
	.st4{fill:#727060;}
	.st5{fill:#BCB9A6;}
	.st6{fill:#C2BEAC;}
	.st7{fill:#D2D0BB;}
	.st8{fill:#939283;}
	.st9{fill:#D0CDBA;}
	.st10{fill:#A7A490;}
	.st11{fill:#181912;}
	.st12{fill:#1D1C18;}
	.st13{fill:#9A9A8B;}
	.st14{fill:#1D1E1B;}
	.st15{fill:#34322C;}
	.st16{fill:#848374;}
	.st17{fill:#090908;}
	.st18{fill:#363731;}
	.st19{fill:#646357;}
	.st20{fill:#4D4E44;}
	.st21{fill:#55574A;}
	.st22{fill:#191916;}
	.st23{fill:#88877C;}
	.st24{fill:#282823;}
	.st25{fill:#121010;}
	.st26{fill:#C9C7B3;}
	.st27{fill:#24241C;}
	.st28{fill:#36352A;}
	.st29{fill:#1D1D17;}
	.st30{fill:#545346;}
	.st31{fill:#535245;}
	.st32{fill:#807F6D;}
	.st33{fill:#6A6859;}
	.st34{fill:#8D8A78;}
	.st35{fill:#999784;}
	.st36{fill:#B7B4A0;}
	.st37{fill:#CFCCB6;}
	.st38{fill:#A19D8B;}
	.st39{fill:#9E9B86;}
	.st40{fill:#7D7A69;}
	.st41{fill:#9F9D89;}
	.st42{fill:#8E8D79;}
	.st43{fill:#5C5A4C;}
	.st44{fill:#2C2D24;}
	.st45{fill:#38372E;}
	.st46{fill:#4F4E43;}
	.st47{fill:#767463;}
	.st48{fill:#615F50;}
	.st49{fill:#130F0B;}
	.st50{fill:#727265;}
	.st51{fill:#3C3C32;}
	.st52{fill:#615E50;}
	.st53{fill:#767464;}
	.st54{fill:#9C9886;}
	.st55{fill:#696A5B;}
</style>
<g>
	<path class="st0" d="M90.8,126.5H15c-2.2,0-4-1.8-4-4v-23c0-2.2,1.8-4,4-4h75.8c2.2,0,4,1.8,4,4v23C94.8,124.7,93,126.5,90.8,126.5
		z"/>
	<g>
		<path class="st1" d="M31.9,113c-0.1-2-0.1-4.4-0.1-6.8h-0.1c-0.5,2.1-1.2,4.4-1.8,6.4l-2,6.4H25l-1.8-6.4
			c-0.5-1.9-1.1-4.3-1.5-6.4l0,0c-0.1,2.2-0.2,4.8-0.3,6.8l-0.3,6.3h-3.4l1.1-16.5h5l1.6,5.5c0.5,1.9,1,4,1.4,5.9h0.1
			c0.5-1.9,1-4.1,1.6-5.9l1.8-5.5h4.9l0.9,16.5h-3.6L31.9,113z"/>
		<path class="st1" d="M53.7,110.9c0,5.4-3.3,8.7-8.1,8.7c-4.9,0-7.7-3.7-7.7-8.4c0-4.9,3.2-8.6,8-8.6
			C51,102.6,53.7,106.3,53.7,110.9z M41.8,111.1c0,3.2,1.5,5.5,4,5.5s4-2.4,4-5.6c0-3-1.4-5.5-4-5.5
			C43.3,105.5,41.8,107.9,41.8,111.1z"/>
		<path class="st1" d="M71.2,110.9c0,5.4-3.3,8.7-8.1,8.7c-4.9,0-7.7-3.7-7.7-8.4c0-4.9,3.2-8.6,8-8.6
			C68.5,102.6,71.2,106.3,71.2,110.9z M59.3,111.1c0,3.2,1.5,5.5,4,5.5c2.5,0,4-2.4,4-5.6c0-3-1.4-5.5-4-5.5
			C60.8,105.5,59.3,107.9,59.3,111.1z"/>
		<path class="st1" d="M73.7,119.3v-16.5H78l3.4,6c1,1.7,2,3.8,2.7,5.6h0.1c-0.2-2.2-0.3-4.4-0.3-6.9v-4.8h3.4v16.5h-3.9l-3.5-6.4
			c-1-1.8-2.1-3.9-2.9-5.8h-0.1c0.1,2.2,0.1,4.5,0.1,7.2v5h-3.3C73.7,119.2,73.7,119.3,73.7,119.3z"/>
	</g>
</g>
<circle class="st2" cx="53" cy="52.3" r="51.2"/>
<g>
	<path class="st3" d="M20.8,20.3c-0.2,1.2-0.7,2.3-1.4,3.3c-2.4,3.5-3.2,7.7-4.2,11.7c-0.5,2.2-0.9,4.5-0.5,6.9
		c0,0.2,0.2,0.5,0.1,0.7c-2.1,4.5-1.3,9.1-0.7,13.7c0.2,1.8,0.4,3.6,0.6,5.4c0.7,5.3,2.8,10.1,4.7,15c-1.1,0.4-1.6-0.5-2-1.2
		c-0.6-1.1-1.2-2.2-2-3.2c-0.3-0.4-0.5-0.8-0.6-1.3c-0.3-2.9-1.7-5.4-2.1-8.3c-1.1-8.1-2-16.3-0.1-24.4c1.1-4.9,2-10,4.7-14.4
		c1.2-1.1,1.3-3.2,3.1-3.9C20.6,20.2,20.7,20.2,20.8,20.3z"/>
	<path class="st4" d="M21.3,12.1c1.1-0.8,2.1-1.5,3.2-2.3c1.7-0.2,0.9,0.9,0.9,1.6c-0.4,0.8-0.9,1.4-1.3,2.1c-0.5,0.7-1,1.2-1.5,1.9
		c-0.1,0.2-0.3,0.3-0.4,0.4c-4.4,2.5-6.1,7.1-8.3,11.2c-1.3,2.5-2.6,5.1-2.6,8.1c-0.2,0.4-0.6,0.7-1,0.8c-0.2,0-0.4,0-0.6-0.1
		c-1.2-0.8-2.1-1.6-0.9-3.1C8.9,32.3,8.9,31.6,9,31c0.1-1.1,0.7-2,1.4-2.9c0.6-0.8,0.6-1.8,1-2.6c1.5-3,3.2-5.8,5.6-8.2
		C19.1,16.1,20,14,21.3,12.1z"/>
	<path class="st5" d="M4.1,37.5c1.7-6,4.6-11.5,8.5-16.4c0.8,0.8,0.9,1,0.1,2.1c-1.4,1.9-2.3,4-3.1,6.1c-0.2,0.6-0.4,1.1-0.3,1.7
		C9,31.6,8.7,32,8.4,32.5c-2.1,3.1-2.4,6.9-3.6,10.4c0,0,0-0.1,0.1-0.1c0.8,0,1.3,0.4,0.9,1.1c-1.4,2.8-0.2,5.6-0.2,8.5
		c-0.1,1,0.1,1.9,0.7,2.8c0.4,0.7,0.6,1.5,0.4,2.3C6.5,58,6.5,58.7,6,59.3c-0.2,0.1-0.4,0.2-0.7,0.2c-1.5-0.9-0.7-2.5-1-3.7
		c-0.1-0.2-0.1-0.4-0.2-0.6C4,54.3,3,53.8,2.8,53c-0.1-0.4,0-0.7,0.1-1.1c0.9-1.6,0.5-3.3,0.6-5c0.1-1.6-0.1-3.1,0.1-4.7
		c0.1-0.6,0-1.2,0.1-1.8C4.1,39.5,4.2,38.5,4.1,37.5z"/>
	<path class="st6" d="M15.1,86.4c-3.7-4-6.6-8.5-8.7-13.6c-0.4-1.3,1.3,1.3,0.6-0.4c-0.2-0.5-0.2-1,0.1-1.4c0.2-0.1,0.4-0.2,0.6-0.1
		C8.6,71.4,9,72.2,9.5,73c1.5,2.1,2.2,4.6,3.6,6.8c0.3,1,0.8,1.9,1.6,2.7c0.8,0.7,1.3,1.7,1.5,2.7C16.3,85.9,16.3,86.7,15.1,86.4z"
		/>
	<path class="st7" d="M3.2,52.4c0,0.3,0,0.6,0,0.9c0.4,0.6,1.2,1,1.4,1.8l0,0c0,1.6,0,3.2,0.1,4.8c-0.1,0.8-0.2,1.7-0.3,2.5
		c-0.2,0.5-0.5,1-1.2,0.8c-1.3-5.2-1.6-10.5-0.9-15.9c0.5-0.9-0.1-1.9,0.4-2.8l0,0c0.6-0.9,0-2,0.4-2.9c0.1-0.7-0.2-1.5,0.4-2.1
		c0.5-0.1,0.7,0,0.6,0.5c0,0.6,0,1.2,0,1.8c-0.5,1.2-0.2,2.5-0.2,3.7C3.8,48,3.6,50.2,3.2,52.4z"/>
	<path class="st8" d="M9,31.1c0-2.8,1.1-5.2,2.8-7.4c0.5-0.7,1.7-1.3,0.8-2.5c1.8-2.6,3.7-5.1,6.4-6.8c1.2,0.2,0.7,0.8,0.3,1.3
		c-0.6,0.7-1.4,1.2-2.1,1.9c-2,2.6-3.9,5.3-5.5,8.1c-0.8,0.7-0.5,1.8-0.9,2.7c-0.6,0.8-1.5,1.5-1.4,2.7C9.3,31.3,9.2,31.3,9,31.1z"
		/>
	<path class="st9" d="M3.2,63.3c0.4-0.2,0.7-0.5,0.9-0.9c0.4-0.6-0.3-2,1.2-2c0.2,0.1,0.4,0.2,0.5,0.4c0.4,1-0.3,2.2,0.8,3
		c0.1,0.3,0.1,0.6,0,0.9c-0.8,0.9-0.4,1.8,0,2.7c0.4,1.2,1,2.3,0.8,3.6c0.2,0.9,0.3,1.7,0.5,2.9c-0.6-0.5-1-0.8-1.4-1.1
		C5,69.8,3.6,66.7,3.2,63.3z"/>
	<path class="st10" d="M15.1,86.4c1.5-1.7-0.1-2.8-1-3.7c-0.9-0.9-1.5-1.8-1.4-3.1c1.6-1.8,1.8,0.4,2.6,0.9c0.2,0.2,0.3,0.3,0.4,0.5
		c0.7,0.7,0.4,2.3,2,2.4c0.2,0,0.2,0.6,0,0.8c-0.8,0.9,0,1.4,0.5,2c0.3,0.4,0.4,0.9,0.7,1.3c0.7,1.4,0.5,2-0.9,2.1
		C16.9,88.7,16,87.6,15.1,86.4z"/>
	<path class="st11" d="M29,91.4c0.4,1.2,1.6,1.7,2.5,2.6c0.8,0.7,2.6,0.5,2.1,2.3c2-0.5,1.6,2.2,3.1,2.4c-0.1,0.5-0.5,0.7-1,0.7
		c-1.4-0.4-2.4-1.6-3.8-2c-0.7-0.2-1.3-0.7-1.8-1.2c-0.4-0.4-0.8-0.9-1.1-1.5c0-1.4-1.7-1.9-1.9-3.2c0.5-0.2,0.8-0.5,0.5-1.1
		C29.3,89.1,28.4,91.2,29,91.4z"/>
	<path class="st12" d="M15.9,72.4c1.2,0.7,1.5,2,2.1,3.1c0.4,0.7,0.8,1.2,1.5,1.5c0.4,0.7,1.1,1.3,0.9,2.3c0.3,1.6,2.4,2.2,2.3,4.1
		c0.1,0.5,0.3,0.9,0.4,1.4c-0.5,0.8-0.9,0.5-1.3-0.1c-0.8-1.3-1.9-2.4-2.7-3.7c-1.5-1.8-2.8-3.7-3.4-6.1
		C15.8,73.9,15.3,73.1,15.9,72.4z"/>
	<path class="st13" d="M18.1,89.6c1.1-0.3,1.2-1,0.5-1.8c0.3-0.4,0.7-0.4,1.1-0.3c0.2,0.1,0.4,0.2,0.5,0.3c0.4,0.5,1,0.9,1.5,1.4
		c0.7,0.7,0.5,1.9,1.4,2.6c0.5,0.5,1.2,1,1.4,1.7c0.2,0.7,0.1,1.2-0.8,0.7C21.6,92.8,19.7,91.3,18.1,89.6z"/>
	<path class="st14" d="M35.8,99.1c0.3-0.2,0.6-0.3,1-0.5c2.1-0.2,2.6,2.2,4.6,2.5c1.5,0.2,3,1.2,4.6,1.6c-2.7,0.2-5.3-0.4-7.9-1.3
		c0-0.2,0.6-0.3,0.3-0.4C37.3,100.6,36,100.5,35.8,99.1z"/>
	<path class="st15" d="M19.5,80.5c0.8,1.4,2.4,2.3,2.8,4.1c0.1,0.3,0.5,0.1,0.8,0.1c0.2,0.1,0.3,0.3,0.5,0.4c0.8,0.3,1.1,1,1.2,1.8
		c0,0.5-0.3,0.8-0.6,1c-0.2,0.1-0.4,0-0.6,0c-0.1-0.2-0.2-0.4-0.2-0.6c-0.2,0.1,0,0.4-0.1,0.5c-0.7,0.9-1.2,0.5-1.6-0.2
		c-0.1-0.2-0.2-0.4-0.3-0.6c-0.5-1.3-1.2-2.6-2-3.7c-0.2-0.5-0.2-1.1-0.6-1.7C18.2,80.8,18.8,80.6,19.5,80.5z"/>
	<path class="st16" d="M23.6,94.1c0.6-0.1,0.8-0.3,0.3-0.8c-0.4-0.5-0.8-1-1.3-1.5c0.3-1.2,1-0.6,1.5-0.2c0.6,0.5,1.2,1,2,1.2
		c0.5,0.2,0.9,0.5,1.3,0.9c0.4,0.6,0.4,1.5,1.4,1.7c0.3,0.2,0.4,0.5,0.5,0.8c-0.1,0.7-0.5,1-1.2,0.6C26.5,96.1,24.9,95.3,23.6,94.1z
		"/>
	<path class="st17" d="M24.5,86.8c-0.3-0.6-0.6-1.2-1-1.8c3.1-1.6,2.1,1.8,3.1,2.7c0.2,0.2,0,0.9,0.7,1c1.5,0.2,1.7,1.4,1.7,2.7
		c-0.6-0.1-0.3-1.6-1.3-0.9C25.8,89.9,24.7,88.8,24.5,86.8z"/>
	<path class="st18" d="M27.7,10.3c-0.3,0.4-0.6,0.9-1,1.3c-0.9-1.1-0.9-1.7,0.1-2.7c0.4-0.4,1.3-0.5,1.2-1.4
		c1.7-1.2,3.4-2.2,5.4-2.7c0.5-0.3,0.9-0.3,0.9,0.5c-0.6,0.3-1.2,0.6-1.8,0.9C30.6,7.2,29.6,9.4,27.7,10.3z"/>
	<path class="st19" d="M28.1,96.8c0.6,0,0.9-0.3,0.9-0.9c0.5-0.5,1-0.3,1.5-0.1c0.6,0.3,1,1,1.7,1c0.6,0.7,1.6,1.1,2.1,1.9
		c0.4,0.8,0.1,1.1-0.8,0.8C31.6,98.9,29.7,98.1,28.1,96.8z"/>
	<path class="st20" d="M33.5,99.6c0.2-0.1,0.9,0,0.4-0.6c-0.6-0.7-1.4-1.2-1.7-2.1c1.4,0.4,2.5,1.4,3.6,2.2c1,0.6,1.9,1.1,2.9,1.7
		c0.2,0.1,0.6,0.3,0.1,0.5c-0.2,0.1-0.4,0-0.7,0.1C36.3,101.2,34.9,100.5,33.5,99.6z"/>
	<path class="st21" d="M28.1,7.6c1.6,0.6,0.4,1-0.1,1.2c-1.3,0.6-1.9,1.5-1.2,2.9c0,0.1,0,0.3,0,0.4c-0.8,0.6-1.3,0.2-1.8-0.5
		c-0.3-0.6,0.9-1.5-0.5-1.8C25.5,8.8,26.8,8.2,28.1,7.6z"/>
	<path class="st22" d="M27.7,10.3c1.5-1.6,2.4-3.8,5-4.1C31.3,8.1,30.2,10,27.7,10.3z"/>
	<path class="st23" d="M17.2,17.6c0-1,0.7-1.4,1.4-1.9c0.5-0.3,1.1-0.7,0.3-1.3c0.6-0.9,1.3-1.7,2.3-2.3c0.1,0.2,0.4,0.5,0.4,0.5
		C20.1,14.2,19.7,16.8,17.2,17.6z"/>
	<path class="st17" d="M22.7,83.2c-0.8-1.3-2.5-2.2-2.3-4.1c1.1,1.1,2.6,1.6,3.6,2.9C23.6,82.4,23.1,82.8,22.7,83.2z"/>
	<path class="st24" d="M24.9,11.6c0.6,0.2,1.2,0.3,1.8,0.5c-0.3,0.5-0.6,0.9-0.9,1.4c-1,0-1.1,1.3-2,1.5c-0.2,0-0.4-0.1-0.5-0.3
		c0-0.4-0.1-0.8,0.2-1.2C23.9,12.8,24.1,12,24.9,11.6z"/>
	<path class="st25" d="M24,16.2c-1.1,1.3-1.6,3.1-3.2,4.1c0,0,0,0,0,0c-0.1-2,1.2-3.9,2.9-4.3C23.8,16.1,23.9,16.1,24,16.2z"/>
	<path class="st25" d="M23.6,14.9c0.8-0.4,1-1.7,2.2-1.4c0.4,0.2,0.7,0.9,0.6,0.9c-1.9-0.7-1.5,1.4-2.4,1.9c0,0,0,0,0,0
		C23.5,15.9,23.1,15.5,23.6,14.9z"/>
	<path class="st22" d="M34.4,5.3c-0.2-0.4-0.5-0.4-0.9-0.5c0.7-0.7,1.6-0.4,2.7-1C35.7,5.1,35.1,5.3,34.4,5.3z"/>
	<path class="st26" d="M4.1,40.2c-0.2-0.2-0.4-0.3-0.6-0.5c0.2-0.7-0.1-1.6,0.6-2.2C4.8,38.4,4.7,39.3,4.1,40.2z"/>
	<path class="st26" d="M3.1,41.8c-0.1,1,0.5,2-0.4,2.9C2.6,43.7,2.6,42.7,3.1,41.8z"/>
	<path class="st26" d="M2.7,44.7c0,0.9,0.4,1.9-0.4,2.8C2.2,46.5,2.2,45.6,2.7,44.7z"/>
	<path class="st27" d="M18.1,23.9c-1.9,3.6-2.3,7.8-3.8,11.5c-2.1,5-1.8,10.2-1.9,15.2c0,6,0.5,12.2,2.6,18c0.3,0.9,0.5,1.9,0.4,2.9
		c-0.9,0.1-1.1-0.6-1.3-1.2c-0.4-1.1-1.1-2.1-1.8-3.1c-0.3-1.8-0.4-3.6-1.3-5.2c-0.3-0.5-0.4-1.2-0.4-1.8c0.5-5-1-9.9-0.3-14.8
		c0.4-3.3,0.7-6.6,1.8-9.7c1.3-3.7,2.1-7.7,4.1-11.2c0.5-0.8,0.7-1.9,1.9-2C18.5,22.9,18.4,23.4,18.1,23.9z"/>
	<path class="st28" d="M12.7,67.4c2,0.6,1.3,3,2.7,4.1c0.2,0.3,0.3,0.6,0.5,0.9c0.1,0.8,0.3,1.5,0.4,2.3C16,75,15.6,75,15.2,74.9
		c-0.2-0.1-0.3-0.2-0.5-0.3c-0.3-0.6-0.6-1.2-1.1-1.7c-0.9-0.8-1.7-1.7-1.5-3c0-0.5,0-1.1,0.1-1.6C12.3,67.9,12.4,67.6,12.7,67.4z"
		/>
	<path class="st29" d="M18.1,23.9c0-0.5,0-0.9,0-1.4c-0.1-1.7,0.8-2.9,1.8-4c0.7-0.8,1.3-1.5,1.8-2.4c0.1-0.3,0.2-0.6,0.5-0.8l0,0
		c0.4-0.4,0.7-0.7,1.3-0.5c0,0,0,0.1,0,0.1c0.1,0.4,0.3,0.9,0.4,1.3c-2,0.6-2.3,2.6-3.2,4.1C19.3,21,19.4,23,18.1,23.9z"/>
	<path class="st30" d="M10,35.7c0.3-0.2,0.6-0.3,0.9-0.5c0.2,0.2,0.3,0.4,0.4,0.6c0.1,2,0.3,4-0.4,6c-1.4,4.4-0.6,8.9-0.5,13.4
		c0.1,3.2,0.4,6.4,1.5,9.5c0.2,0.5,0.3,1.2,0,1.8c-1.3,0.3-1.3-0.7-1.7-1.5c-0.9-1.8-0.4-4-1.6-5.7c-1.4-3.5-1.7-7.2-1-10.9
		c0.7-1.4,0.8-2.8,0.7-4.4C8.1,41,8.9,38.3,10,35.7z"/>
	<path class="st31" d="M10.9,35.7c0-0.2,0-0.3,0-0.5c-0.2-2.3,0.8-4.3,1.4-6.4c1-3.4,3.5-5.8,4.8-8.9c0.9-2.2,2.9-3.6,5.1-4.5
		c0,0.3,0,0.6,0,0.9c-4.2,4.7-7.3,10-9,16.1C12.8,33.6,13,35.5,10.9,35.7z"/>
	<path class="st32" d="M9,31.1c0.2,0,0.3,0,0.5,0c0.1,1.2-0.5,2.2-1.2,3.3c0.7,0.2,2.2-0.4,1.2,1.2c-0.4,3.1-1.5,6-2,9.1
		c-1.1,2-0.4,4.3-1.1,6.3c-0.7,0.2-1.1-0.2-1.1-0.7c-0.2-1.7-0.5-3.4,0-5.1C5.7,44.1,5.8,43,6,41.8C6.4,38.5,6.3,35,8.1,32
		C8.1,31.4,8.4,31.1,9,31.1z"/>
	<path class="st33" d="M7.2,44.7c-0.1-1.6,0.1-3.1,0.8-4.5c0.5-0.9,0.9-1.9,0.4-3C8,36.1,8.9,36,9.5,35.7c0.2,0,0.3,0,0.5,0
		c0,3.2-1.7,6.2-1,9.5c0.2,1-0.2,2.2-0.8,3.2C6.3,47.5,6.6,46.2,7.2,44.7z"/>
	<path class="st34" d="M10.9,28.4c0.1-1-0.3-2.1,0.9-2.7C11.5,26.6,11.6,27.6,10.9,28.4z"/>
	<path class="st31" d="M23.5,14.8c-0.4,0.2-0.9,0.3-1.3,0.5c0-0.9,0.8-1.3,1.3-1.8C23.5,13.9,23.5,14.4,23.5,14.8z"/>
	<path class="st35" d="M8.1,32c0.1,0.6-0.1,1.2-0.5,1.7c-0.3,0.4-0.8,1-0.7,1.4c0.5,1.9,0.3,3.5-0.4,5.4c-0.3,0.8,0,1.9-0.4,2.9
		c-0.9,2.1-0.3,4.4-0.7,6.5c-0.1,0.6,0.4,0.9,0.8,1.2c1,2.2,1.2,4.7,1.8,7.1C8.2,58.6,8,59,7.6,59.3c-1.1-0.2-1-1.2-1.2-1.9
		c0-0.8,0-1.6-0.4-2.3c-0.5-0.8-0.3-1.9-0.9-2.7c0.1-1.5-0.1-3-0.5-4.4c-0.4-1.8,0.7-3.3,0.7-5.1c-0.1,0.3-0.3,0.6-0.4,0.9
		C4.9,39.6,5.6,35.5,8.1,32z"/>
	<path class="st36" d="M5.4,61c0-0.1,0-0.3,0-0.4c-0.2-0.2-0.3-0.5-0.3-0.8c0.1-0.2,0.2-0.4,0.3-0.5c0.2,0,0.3,0,0.5,0
		c0.6-0.4,1,0.2,1.5,0.4c0.1,0.2,0.2,0.4,0.3,0.6c0.2,2.3,0.9,4.6,0.6,7C8.2,68,8.7,68.6,9,69.3c0.4,1.3,1.1,2.6,0.1,4
		c-0.5-0.8-0.9-1.5-1.4-2.3c-1-1.4-1-3.3-2-4.8c-0.3-0.5,0-1.2,0.6-1.5c0-0.3,0-0.6,0-0.9C5.1,63.2,6.2,61.8,5.4,61z"/>
	<path class="st26" d="M3.2,52.4c-1.5-1.4,0.2-2.7,0.3-4C3.6,46.3,3.1,44,4.1,42c0,2.4,0,4.9,0,7.3C4.1,50.5,3.9,51.5,3.2,52.4z"/>
	<path class="st37" d="M5.4,59.2c0,0.1,0,0.3,0,0.4c-0.4,0.4-0.7,0.7-1.3,0.5c0.5-1.6-0.6-3.4,0.4-5C5.7,56.3,4.3,58,5.4,59.2z"/>
	<path class="st38" d="M7.3,59.7c-0.5-0.1-0.9-0.3-1.4-0.4c0.1-0.6-0.2-1.3,0.4-1.8c0.8,0.3,0.9,1.1,0.9,1.8
		c0.1,0.1,0.1,0.2,0.1,0.3C7.3,59.6,7.3,59.7,7.3,59.7z"/>
	<path class="st38" d="M5,52.4c1.2,0.6,0.8,1.7,0.9,2.7C5,54.4,5,53.5,5,52.4z"/>
	<path class="st37" d="M4.5,55.2c-0.5-0.6-1.3-0.9-1.4-1.8C4,53.7,4.7,54.1,4.5,55.2z"/>
	<path class="st39" d="M9.1,73.3c0.2-1.4-0.3-2.7-0.5-4c0.1,0,0.2-0.1,0.3-0.1c0.9,0.4,1.3,1.3,2.1,1.9c0.8,0.7,1.2,1.6,1.7,2.6
		c0.9,1.9,0.9,4.1,2.5,5.7c0.4,0.4,0.4,1.1-0.1,1.7c-0.8-0.3-0.6-2.4-2.3-1.3C10.9,77.8,10.5,75.3,9.1,73.3z"/>
	<path class="st5" d="M6.3,64.7c-0.9,1.6,0.4,2.9,0.9,4c0.4,0.9,0.1,1.6,0.5,2.3c-0.2,0-0.3,0-0.5,0c-0.6-1.5-1.3-3-1.7-4.6
		C5.4,65.9,4.6,64.6,6.3,64.7z"/>
	<path class="st5" d="M4.1,60.2C4.5,60,5,59.8,5.4,59.7c0,0.3,0,0.6,0,0.9c-1.3,0-0.6,1.4-1.3,1.8C3.6,61.6,4.2,60.9,4.1,60.2z"/>
	<path class="st5" d="M5.4,61c1.1,0.6,0.2,1.9,0.9,2.7C4.2,63.5,5.7,62,5.4,61z"/>
	<path class="st40" d="M15,81c-0.1-0.5-0.1-1.2-0.4-1.5c-2-1.6-1.7-4.1-2.6-6.1c-0.4-0.9-1.2-1.5-1.6-2.4c0-0.1,0-0.2,0-0.3
		c-0.1-0.7-0.1-1.4,0.1-2.1c0.1-0.2,0.2-0.3,0.4-0.4c1.1,0.2,1.2,1.2,1.7,1.9c-0.3,1.3,1.2,1.7,1.4,2.7c0.5,0.5,0.2,1.4,0.9,1.8l0,0
		c0.2,0.1,0.3,0.3,0.4,0.5c0.2,0.9-0.3,2.1,0.9,2.6c0.9,0.8,1.2,1.8,0.9,3c-0.4,0.8-1.1,0.4-1.7,0.4C15.3,81,15.1,81,15,81z"/>
	<path class="st41" d="M15.4,81c0.4-0.8,0.9-0.1,1.4-0.1c0.3,0,0.6,0.2,0.8,0.4c0.8,1,1.6,1.9,1.8,3.2c-0.2,0.8-0.5,1.4-1.3,1.8
		c-1-0.7-2.5-1.2-0.2-2.8C15.2,84,15.8,82.1,15.4,81z"/>
	<path class="st42" d="M18.1,86.4c0-0.8,0.7-1.2,0.9-1.9c1.1,0.2,1.1,1.1,1.3,1.9c0,0.5,0,1-0.4,1.3c-0.5,0-0.9,0-1.4,0
		C18,87.4,18.1,86.9,18.1,86.4z"/>
	<path class="st43" d="M30.4,95.9c-0.5,0-1,0-1.5,0.1c-0.1-0.2-0.3-0.3-0.4-0.5c-0.5-0.4-1-0.8-1.3-1.4c-0.3-0.3-0.6-0.6-0.9-0.9
		c-2.2-1-3.6-2.7-4.8-4.7c-0.2-0.4-0.1-0.9,0.2-1.2c0.4,0.3,0.7,0.9,1.4,0.4c0.2-0.2,0.3-0.2,0.4,0c0.2,0,0.3,0,0.5,0
		c0.8,1.3,1.5,2.6,2.8,3.5c0.5,1.4,1.8,2.1,2.6,3.3C29.8,95,30.1,95.4,30.4,95.9z"/>
	<path class="st44" d="M26.7,91.4c-1.7-0.6-2.8-1.7-2.7-3.6c0.2-0.3,0.3-0.6,0.5-0.9c0.7,1.5,2,2.5,3.2,3.6c0.2,0.5,0.4,0.9-0.4,0.9
		C27,91.6,26.9,91.6,26.7,91.4z"/>
	<path class="st45" d="M26.7,91.4c0.2,0,0.3,0,0.5,0c0.8,1,2.4,1.5,2.3,3.2C28,94,27.2,92.9,26.7,91.4z"/>
	<path class="st46" d="M17.2,81.4c-0.1-0.2-0.3-0.3-0.4-0.5c0.1-1.2-0.1-2.2-0.9-3.2c-0.9-0.7-0.4-1.9-0.9-2.7c0-0.1,0-0.3,0-0.4
		c0.5,0,0.9,0,1.4,0c0.5,2.3,1.9,4,3.2,5.9c-0.1,0.3-0.7,0.7-0.4,0.8c1.4,0.4,0.3,1.3,0.5,1.9C18.3,83.2,18.4,81.5,17.2,81.4z"/>
	<path class="st47" d="M21.7,87.3c0.5,2.7,2.8,4.1,4.5,5.9c-0.8,0-1.6,0-2.1-0.9c-0.3-0.5-0.7-1.3-1.5-0.5c-1.6-0.3-0.5-2-1.4-2.7
		c-0.5-0.4-0.9-0.9-1.3-1.4c0,0,0,0,0,0c0-0.5,0-0.9,0-1.4C20.8,86.2,21.2,86.9,21.7,87.3L21.7,87.3z"/>
	<path class="st42" d="M19.9,87.8c0.9,0,1,0.8,1.3,1.4C20.4,89.1,20,88.6,19.9,87.8z"/>
	<path class="st48" d="M21.7,87.3c-0.8,0.2-1.3-0.4-1.8-0.9c-0.3-0.6-0.6-1.2-0.9-1.8c-0.6-1-1.2-2.1-1.9-3.1
		c1.6-0.5,1.5,1.3,2.3,1.8C20.9,84.2,21.8,85.5,21.7,87.3z"/>
	<path class="st49" d="M23.5,87.7c-0.1,0-0.3,0-0.4,0c-0.2-0.5-0.8-0.9-0.5-1.6C23.4,86.5,23.5,87.1,23.5,87.7z"/>
	<path class="st50" d="M27.2,94.1c0.6,0.3,1.4,0.5,1.3,1.4C27.1,95.9,27.4,94.8,27.2,94.1z"/>
	<path class="st51" d="M10.9,35.7c0.8-0.7,1.3-1.5,1.6-2.6c1-5.1,4-9.4,6.5-13.8c0.7-1.2,1.7-2.6,3.2-3.1c-0.9,2.4-3.2,3.9-4.1,6.4
		C15.5,26,14.5,30,13.3,34c-2.3,7.5-3.4,15-1.6,22.8c0.1,0.5,0.2,1.1-0.1,1.5c-0.9,1.3-0.5,2.7,0.2,3.8c0.9,1.7,1,3.4,1,5.2
		c0,0.3,0,0.6,0,0.9c-1.8,0.1-1.4-0.8-0.9-1.8c-1.2-5.2-1.7-10.5-2.2-15.8C9,45.5,11.7,40.8,10.9,35.7z"/>
	<path class="st52" d="M11.8,66.5c0.1,0.7-0.3,1.7,0.9,1.8c0,0.6,0,1.2,0,1.8c-0.9-0.4-1.1-1.3-1.7-1.9c-0.7-0.5-0.9-1.4-1.2-2.2
		c-0.8-2.4-1.7-4.7-0.6-7.3c1.6,1.7,0.7,4.2,1.7,6.1C11.1,65.4,11.1,66.2,11.8,66.5z"/>
	<path class="st46" d="M14.9,74.7c-2.5,0.5-0.2-1.4-0.9-1.8C14.9,73.2,15,73.9,14.9,74.7z"/>
	<path class="st53" d="M9.1,58.8c0.3,2.4,0,5,1.3,7.3c-0.2,0.2-0.4,0.2-0.7,0.2c-1.2-0.5-1.5-1.5-1.6-2.7c-0.1-1.3-0.1-2.7-0.9-3.9
		c0,0,0,0,0,0c0-0.1,0-0.3,0-0.4c1-1.3,0-2.6-0.3-3.8c-0.4-1.4-0.7-2.9-0.7-4.3c-0.2-2.2-0.6-4.4,0.9-6.4c-0.1,1.3-0.1,2.6,0.9,3.6
		c-0.5,2.5-0.4,5.1,0.1,7.5C8.5,56.8,8.1,58,9.1,58.8z"/>
	<path class="st54" d="M7.3,59.7c1.3,0.6,1.4,1.8,1.4,3C8.6,64,8.7,65.2,10,66c0.8,1.6-0.8,2.2-1.3,3.2c0,0-0.1,0-0.1,0
		c-0.5-0.3-1-0.8-0.9-1.4C8.2,65,7.1,62.4,7.3,59.7z"/>
	<path class="st40" d="M8.6,69.2c-0.8-1.6,1.7-1.7,1.3-3.2c0.1,0,0.3,0,0.4,0c0.2,0.7,0.3,1.5,0.5,2.2c0,0-0.1,0.1-0.1,0.1
		C10,69.1,11,70.2,10.4,71c0,0,0,0,0,0C9.5,70.7,9.2,69.8,8.6,69.2z"/>
	<path class="st55" d="M14.9,75.1c0.7,0.8,0.9,1.7,0.9,2.7C13.7,77.5,15.2,76,14.9,75.1z"/>
	<path class="st39" d="M10.4,71c0.3-0.9-1.1-2,0.4-2.7C10.8,69.3,11.2,70.2,10.4,71z"/>
</g>
</svg>
