<?xml version="1.0" encoding="utf-8"?>
<!-- Generator: Adobe Illustrator 25.0.0, SVG Export Plug-In . SVG Version: 6.00 Build 0)  -->
<svg version="1.1" id="Layer_1" xmlns="http://www.w3.org/2000/svg" xmlns:xlink="http://www.w3.org/1999/xlink" x="0px" y="0px"
	 width="105.5px" height="129px" viewBox="0 0 105.5 129" style="enable-background:new 0 0 105.5 129;" xml:space="preserve">
<style type="text/css">
	.st0{fill:#FCFCFC;}
	.st1{fill:#2D3C44;}
	.st2{fill:#495C64;}
	.st3{fill:#F2F5F4;}
	.st4{fill:#252D32;}
	.st5{fill:#DDE2E3;}
	.st6{fill:#E5E8EA;}
	.st7{fill:#EBEDEE;}
	.st8{fill:#D0D7D8;}
	.st9{fill:#A5B0B2;}
	.st10{fill:#EEF1F2;}
	.st11{fill:#B7C0C4;}
	.st12{fill:#4B5D65;}
	.st13{fill:#F8F4EC;}
	.st14{fill:#E9E0DB;}
	.st15{fill:#48A6DD;}
	.st16{fill:#FFFFFF;}
</style>
<g>
	<path class="st0" d="M82.8,91.3c1-0.8,2.3-1.3,2.7-2.7c0,0,0.4,0,0.4,0c3.1,0.1,4.8-1.1,4.2-4.5c3.9-4.7,8.3-9.1,8.4-15.9
		c3.1,0.2,3.4-1.6,3.1-4c1.1-1,1.1-2.1,0-3.1c0-0.5,0-1,0-1.5c0-0.5,0-1.1,0-1.6c0.1-2.7,0.2-5.4,0.2-8.1c0-1.6,0.2-2.9,2.2-2.8
		c1.9,1.1,2.4-0.3,2.2-1.6c-0.3-1.7,1.5-3.3,0.2-5.1c-2.2,2.2-2.9-2.3-4.9-1.1l-0.1,0c0.8-1.9-1.3-2.7-1.5-4.2
		c-0.5-3.1-3.4-6.4,1.1-9c1.1-0.6,0.8-2.4,0.1-3.6c-1.6-2.7-4.6-3.8-6.8-5.8c-0.7-0.6-1.8-0.2-2.1,1c-0.2,1-0.4,1.8-1.6,1.9
		c0-1-0.1-2-0.1-3c0.1-2.1,0.1-4.2-3-2.6c-1.1-0.2-2.1-0.4-3.2-0.6c2.1-2.3,5.1-1.1,7.6-2.2c1.1-0.5,1.8-0.8,1.8-2.1
		c0-0.9,0.3-1.9-0.7-2.4c-1.3-0.7-1.6,0.9-2.5,1.3c-0.9-2.6-2.6-1.7-4.2-0.8c-2.3-0.2-4.5-0.5-6.8-0.7c-2.3,0-4.6,0-7,0
		c0.1-1.9-2.6-1.3-2.7-2.9c0.3-1.6,1-3.6-0.9-4.5c-2.8-1.3-6.7,1.1-9.1-2.3c-0.2,0.1-0.5,0.3-0.6,0.5c-1.5,2.2-3.7,1.2-5.7,1.5
		c-1.4,0.2-3-0.7-4.2,0.9c1.6,1,3.2,0.5,4.7,0.6c1.3,0.1,2.7-0.1,2.8,1.8c-4.1-0.7-8.2-0.4-12.3-0.1c-1.2-0.1-2.5-0.5-3.4,0.7
		c-4.5,1.6-9,3.3-13.5,4.9c-0.6-0.8-1.5-1-2.4-1.1c-7.1-0.8-7.7,0-5.2,6.4c-0.2,0.4-0.3,0.9-0.5,1.3c-1.7,0.9-3.4,1.8-4.6,3.4
		C9.8,23.4,5.7,30,3.4,37.6C0.1,48.8,1.1,59.8,5,70.6c2.7,7.5,7.9,13.2,13.4,18.6c0,1.7-0.1,3.4-0.1,5.1c0,5.1,1.7,6.7,6.8,6.9
		c0.9,0,1.9-0.1,2.7,0.3c5,2.8,5,2.8,8.6-2.1c6.5,1.1,13,2.5,19.6,1.3c0.5,0.1,1,0.2,1.4,0.3c6.1,0.9,11.9-0.2,17.3-3.1
		c2,1.6,3.9,0.9,6.4,0.3c-1.1-0.8-1.8-1.3-2.5-1.8c2.7-0.3,3.3-2.4,3.9-4.6C82.7,91.7,82.7,91.5,82.8,91.3z"/>
	<path class="st0" d="M87.4,98.9c0.1,0.9-0.3,2.3,1.4,2.1c0.3,0,0.7-0.5,0.7-0.7C89.7,98.6,88.3,99,87.4,98.9c0-1.5-0.2-2.9-2.1-3.3
		C85.3,98.2,85.3,98.2,87.4,98.9z"/>
	<path class="st0" d="M51.3,108.9c-1.1-1.1,1.4-2-0.2-2.8c-0.6-0.3-1.5-0.3-1.8,0.4c-1.1,2.9-3.6,2.6-5.9,2.6
		c-0.9,0-2.1-0.1-2.1,1.2c0,1.3,1.2,1.1,2.1,1.2c4.8,0,9.7,0,14.5,0c0.9,0,2.3,0.2,2.6-0.3c2-3.2,5.1-1.7,7.7-2.1
		c2.1-0.3,5.5,1.2,5.8-1.3c0.2-1.8-3.8-1.7-5.6-1.6c-3.3,0.3-7.7-2.8-9.8,2.4c-0.2,0.5-1.1,0.6-1.3,0.1
		C55.2,104.4,53.4,108.6,51.3,108.9z"/>
	<path class="st0" d="M67,116.9c1.2,0,2.7,0.1,2.8-1.4c0.1-1.9-1.7-1.6-2.9-1.7c-2.5,0-5,0-7.4,0c-2.6,0-5.2,0.1-7.8,0
		c-3.1-0.2-2.7,3.3-4.7,4.3"/>
	<path class="st0" d="M20.4,107.8c1.9,0.5,3.1,1.1,4.3,1.1c1.3,0,3.6,1,3.6-1.6c0-2.2-2.1-1.4-3.4-1.4
		C23.6,105.9,22.2,106.4,20.4,107.8z"/>
	<path class="st0" d="M107.8,44.4c0.1,1.1-0.2,2.6,1.6,2.6c1.5,0,1.5-1.1,1.5-2.2c0-1.2,0.1-2.6-1.4-2.8
		C107.9,41.8,107.9,43.2,107.8,44.4z"/>
	<path class="st0" d="M55.6,103.5c-0.2-0.6-0.7-0.7-1.2-0.6c-0.7,0.1-1.2,0.5-1.3,1.2c-0.1,0.7,0.4,0.9,0.9,0.8
		C54.7,104.6,55.6,104.5,55.6,103.5z"/>
	<path class="st0" d="M86.5,92.9c-0.1-0.6-0.4-1-1-1c-0.6,0-1.1,0.3-0.9,0.9c0.1,0.4,0.6,0.9,1,1C86.2,94,86.5,93.5,86.5,92.9z"/>
	<path class="st1" d="M18.4,89.3C12.9,83.8,7.7,78.1,5,70.6c-3.9-10.8-4.9-21.8-1.6-33c0.9,0.6,0.7,1.6,0.8,2.5
		c0.5,3,0.1,6.2,0.6,9.1c0.6,3.4,2.4,6.5,3.5,9.8c2.2,6.4,3.5,7.3,10.4,6.9c2-0.1,3.3,1.1,3.9,2.7c0.5,1.4-0.3,2.6-1.9,2.7
		c-2.2,0.2-4.1,0.8-3.7,3.4c0.6,3.7,3.6,5.9,6.5,5.2c2.8-0.7,3.8-3.1,2.2-5.4c-0.8-1.1-1.5-2.4,0.1-2.7c2.2-0.5,3.1-2.1,4.5-3.4
		c0.6-0.5,1.3-1,2.1-0.4c0.7,0.6,0.7,1.3,0.1,2c-0.5,0.7-0.9,1.8-1.6,2.2c-2.6,1.4-2.9,2.9-0.7,5.1c0.9,0.9,0.9,2.1-0.7,2.8
		c-1.3,0.5-1.2,1.7-0.9,2.7c0.5,1.7,1.7,0.4,2.6,0.4c1.5,0.1,2.4-0.8,3.3-1.8c1.1-1.2,2.2-1.4,3.8-1.2c3.9,0.6,6.8-3,6.1-6.8
		c-0.2-0.9-0.5-2-0.1-2.7c1.3-2.1,3.2-4.1-1.3-4.6c-0.2,0-0.5-0.9-0.4-1.4c0.2-1.9-1.4-2.7-2.2-4c-0.6-0.9-1.2-1.4-2.3-0.8
		c-1,0.6-1,1.4-0.5,2.3c0.5,1.1,0.8,2.2,1.3,3.3c0.4,1,0.5,1.9-0.6,2.3c-1.1,0.4-0.9-0.9-1.4-1.4c-2.8-2.4-3.1-6.5-6-8.9
		c-3.3-2.8-4.2-6.8-4-11c0.2-3.7,2.3-5.6,6-5.8c2.3-0.2,4.3,0.8,6.4,1.4c2.8,0.9,4.4-1.1,5.8-3c1.5-2-0.5-3.2-1.7-4.1
		c-2.1-1.5-1.3-2.6,0.2-3.6c2.7-1.8,5.6-3.3,8.2-5.2c2.1-1.5,2.6-3.3-0.3-4.7c-2-1-3.4-2.8-5.3-4c-2.6-1.7-5.9-3.3-8.9-2.3
		c-4.8,1.5-10.6,2.2-11.8,8.8c-0.1,0.6-1.4,1.1-2.2,1.4c-1.1,0.4-1.7-0.1-1.9-1.2c-0.5-2.6,2-7,4.5-8.2c2.2-1.1,4.8-1.2,6.8-2.9
		c0.7-0.6,1.5-1.2,1.1-2.2c-0.5-1.1-1.6-0.9-2.4-0.7c-2.3,0.4-5,1-6.4,2.7c-1.8,2.3-3.6,1.4-5.5,1c0.2-0.4,0.3-0.9,0.5-1.3
		c2.5-1.8,5.1-3.5,7.6-5.3c4.5-1.6,9-3.3,13.5-4.9c1.3,0.4,2.5,0.6,3.4-0.7c4.1-0.3,8.2-0.6,12.3,0.1c0.2,0.9,0.8,1.2,1.7,1.3
		c1,1.8,2.1,3.5,3,5.3c3.1,5.9,6.3,11.7,6.7,18.5c-3-1.1-6.5-3-9.3-1.3c-3.1,1.9-3.6,6-3.5,9.5c0.1,3,2.4,4.7,5.1,5.7
		c1.1,0.4,2.3,0.7,3.4,0.8c2.2,0.2,2.9,0.9,1.5,2.9c-2.6,3.6-0.1,6.9,1,10.1c0.9,2.4,3.5,0.7,5.2,1.2c0,0.5-0.1,1-0.1,1.6
		c-2.8,0-2.2,2.2-2.1,3.7c0.4,5.9-1.5,11.1-4.4,16.5c-1.9-3.2,0.6-5.2,1.4-7.4c0.3-0.8,1.1-1.8-0.3-2.1c-0.8-0.2-2.5,0-2.4,1.3
		c0.2,2.2-1.7,4.1-1.3,6c0.7,2.9-3,6.3,0.9,8.9c0.2,0.1,0.3,3.9-1.6,3.6c-3.9-0.6-2.9,2.3-3.1,3.8c-0.3,2.7,0.2,5.4-2.9,7
		c-1.2,0.6,0.2,1.6,0.1,2.4c-6.6,1.2-13.1-0.3-19.6-1.3C30.1,96.7,24,93.4,18.4,89.3z M43.5,12.5c5.6,0.1,10.5,4.6,16.4,2.4
		c0.8-0.3,2.1,0.2,2.1-1.1c0-1.1-0.7-2-1.9-2.1c-2.3-0.2-4.6-0.9-6.9-0.9c-3.1,0-6.2-0.3-8.9-2.2c-0.3,0-0.5-0.1-0.8-0.1
		c-2.1,0-4.5,1.3-4.3,2.8C39.3,13.6,41.9,12.3,43.5,12.5z M54.2,48.6c2.1,0,3.5-0.5,3.3-2.3c-0.3-3-2.9-3.8-5.2-4.6
		c-1.4-0.5-2.7,0.6-2.5,2.1C50.2,46.6,52.1,47.9,54.2,48.6z M43.5,50.3c-0.9,0.4-2.2,0.4-2.1,1.8c0.1,1,1.2,1.3,2.2,1.2
		c1-0.1,1.9-0.4,1.8-1.5C45.5,50.6,44.6,50.3,43.5,50.3z M49.2,57.3c0.9-0.1,1.9,0,1.9-1.3c0-1-0.7-1.6-1.7-1.7
		c-1-0.1-1.7,0.5-1.9,1.5C47.3,57,48.2,57.2,49.2,57.3z"/>
	<path class="st2" d="M19.5,14c2,0.4,3.7,1.3,5.5-1c1.4-1.7,4.1-2.3,6.4-2.7c0.8-0.2,1.9-0.4,2.4,0.7c0.4,1.1-0.4,1.6-1.1,2.2
		c-2,1.7-4.6,1.8-6.8,2.9c-2.5,1.3-5,5.6-4.5,8.2c0.2,1.1,0.8,1.6,1.9,1.2c0.8-0.3,2.1-0.8,2.2-1.4c1.3-6.6,7-7.3,11.8-8.8
		c3-0.9,6.3,0.6,8.9,2.3c1.8,1.2,3.2,3,5.3,4c2.9,1.4,2.4,3.2,0.3,4.7c-2.6,1.9-5.5,3.4-8.2,5.2c-1.4,1-2.3,2.1-0.2,3.6
		c1.2,0.9,3.2,2,1.7,4.1c-1.4,1.9-3,3.8-5.8,3c-2.1-0.6-4.1-1.6-6.4-1.4c-3.7,0.3-5.8,2.1-6,5.8c-0.2,4.2,0.7,8.2,4,11
		c2.9,2.5,3.2,6.5,6,8.9c0.5,0.4,0.3,1.8,1.4,1.4c1.1-0.4,1-1.3,0.6-2.3c-0.5-1.1-0.8-2.2-1.3-3.3c-0.4-1-0.5-1.8,0.5-2.3
		c1-0.6,1.7-0.1,2.3,0.8c0.8,1.3,2.3,2.1,2.2,4c0,0.5,0.2,1.4,0.4,1.4c4.5,0.5,2.6,2.5,1.3,4.6c-0.4,0.6-0.1,1.8,0.1,2.7
		c0.8,3.9-2.2,7.4-6.1,6.8c-1.6-0.2-2.8,0-3.8,1.2c-0.9,1-1.9,1.9-3.3,1.8c-0.9,0-2.1,1.3-2.6-0.4c-0.3-1-0.4-2.2,0.9-2.7
		c1.6-0.6,1.6-1.8,0.7-2.8c-2.1-2.2-1.9-3.6,0.7-5.1c0.7-0.4,1-1.5,1.6-2.2c0.6-0.7,0.6-1.4-0.1-2c-0.8-0.6-1.5-0.2-2.1,0.4
		c-1.4,1.2-2.3,2.9-4.5,3.4c-1.6,0.3-0.8,1.7-0.1,2.7c1.6,2.3,0.6,4.8-2.2,5.4c-2.9,0.7-5.9-1.5-6.5-5.2c-0.4-2.6,1.5-3.2,3.7-3.4
		c1.6-0.1,2.5-1.3,1.9-2.7c-0.6-1.6-1.9-2.8-3.9-2.7c-6.9,0.4-8.2-0.5-10.4-6.9c-1.1-3.3-3-6.5-3.5-9.8c-0.5-2.9,0-6.1-0.6-9.1
		c-0.2-0.9,0.1-1.9-0.8-2.5C5.7,30,9.8,23.4,14.8,17.3C16.1,15.8,17.8,14.9,19.5,14z"/>
	<path class="st3" d="M85.8,88.7c0,0-0.4,0-0.4,0c-1.8-0.1-3.1,0.4-3.5,2.3c-1.9,0.1-3.5,1.2-4.9,2.3c-3.8,3.1-8.5,4-12.9,5.8
		c-1.9,0.8-3.9,1.3-5.8-0.3c2.4-2.2,3.3-5.4,5.3-7.9c2.2,1.2,3.7,0.4,5-1.5c0.3,0,0.5,0,0.8,0c0,1.6-0.2,3.4,1.3,4.2
		c1,0.6,2.7,0,3-1c1.2-3.9,7.7-4.7,6.1-10.3c-0.1-0.2,0.7-0.7,1-1.1c2.8-5.3,7.3-7,13-6c-0.2,3.2-4.3,4.4-4.1,7.7
		C87,83.9,85.6,85.8,85.8,88.7z"/>
	<path class="st4" d="M63.6,90.9c-2,2.5-2.9,5.7-5.3,7.9c-0.3,0.3-0.5,0.5-0.8,0.8c-0.4,0.2-0.5,0.4-0.3,0.8c0,0.3,0,0.5,0.2,0.7
		c-0.5-0.1-1-0.2-1.4-0.3c0.1-0.8-1.3-1.8-0.1-2.4c3-1.6,2.6-4.3,2.9-7c0.2-1.5-0.8-4.4,3.1-3.8c1.9,0.3,1.8-3.5,1.6-3.6
		c-3.9-2.6-0.3-6-0.9-8.9c-0.4-1.9,1.4-3.8,1.3-6c-0.1-1.2,1.6-1.4,2.4-1.3c1.4,0.3,0.6,1.3,0.3,2.1c-0.8,2.3-3.3,4.2-1.4,7.4
		c2.8-5.4,4.7-10.6,4.4-16.5c-0.1-1.5-0.8-3.7,2.1-3.7c0,6-1.7,11.9-2.5,17.8c-0.6,5-4.1,9.2-4.4,14.3
		C64.3,89.9,63.9,90.4,63.6,90.9z"/>
	<path class="st5" d="M18.4,89.3c5.6,4.2,11.6,7.4,18,10.2c-3.6,4.9-3.6,4.8-8.6,2.1c-0.7-0.4-1.8-0.3-2.7-0.3
		c-5.1-0.2-6.8-1.8-6.8-6.9C18.4,92.6,18.4,90.9,18.4,89.3z"/>
	<path class="st6" d="M90.6,19.6c1.2-0.1,1.4-0.9,1.6-1.9c0.2-1.2,1.4-1.6,2.1-1c2.2,2,5.2,3.1,6.8,5.8c0.7,1.2,0.9,3-0.1,3.6
		c-4.6,2.6-1.6,5.9-1.1,9c0.2,1.5,2.3,2.3,1.5,4.2c-2.1-1.6-2.4-0.4-2.2,1.4c-0.2,0-0.5,0-0.7,0c-0.4-1.3,0.9-3.4-1.6-3.9l-0.1-0.1
		c-0.5-3.5-0.1-7.3-3.9-9.4c0-0.3,0-0.6,0.1-0.9c1-0.8,1-1.5-0.1-2.2l0,0c0-1.1-0.5-1.6-1.6-1.7l0-0.3C91.5,21.3,91,20.4,90.6,19.6z
		"/>
	<path class="st7" d="M51.3,108.9c2.1-0.3,3.9-4.4,6-0.2c0.2,0.5,1.1,0.4,1.3-0.1c2.2-5.1,6.5-2.1,9.8-2.4c1.8-0.2,5.8-0.2,5.6,1.6
		c-0.3,2.5-3.7,1-5.8,1.3c-2.6,0.4-5.7-1.1-7.7,2.1c-0.3,0.5-1.7,0.3-2.6,0.3c-4.8,0-9.7,0-14.5,0c-0.9,0-2.1,0.1-2.1-1.2
		c0-1.3,1.2-1.2,2.1-1.2c2.3,0,4.8,0.2,5.9-2.6c0.3-0.6,1.2-0.6,1.8-0.4C52.7,106.9,50.2,107.8,51.3,108.9z"/>
	<path class="st6" d="M46.8,118c2-1,1.6-4.4,4.7-4.3c2.6,0.1,5.2,0,7.8,0c2.5,0,5,0,7.4,0c1.3,0,3-0.2,2.9,1.7
		c0,1.5-1.6,1.4-2.8,1.4"/>
	<path class="st8" d="M58.4,3.1c-0.8-0.1-1.5-0.4-1.7-1.3C56.7-0.1,55.3,0,54,0c-1.5-0.1-3.1,0.4-4.7-0.6c1.2-1.6,2.9-0.7,4.2-0.9
		c2-0.3,4.2,0.7,5.7-1.5c0.1-0.2,0.4-0.3,0.6-0.5c2.4,3.3,6.3,0.9,9.1,2.3c1.9,0.9,1.2,2.9,0.9,4.5c-1.3-0.2-2.6-0.5-3.7,0.6
		C63.4,4.9,61.1,2.1,58.4,3.1z"/>
	<path class="st9" d="M57.5,101.1c-0.2-0.2-0.2-0.5-0.2-0.7c0.1-0.3,0.2-0.5,0.3-0.8c0.3-0.3,0.5-0.5,0.8-0.8
		c1.9,1.6,3.9,1.1,5.8,0.3c4.3-1.8,9.1-2.7,12.9-5.8c1.3-1.1,3-2.1,4.9-2.3l0,0c0.2,0.3,0.5,0.6,0.7,0.9c-0.6,2.1-1.2,4.3-3.9,4.6
		c-1.6-0.1-3.6-1.6-3.9,1.5C69.4,100.9,63.6,102,57.5,101.1z"/>
	<path class="st10" d="M90.5,7.8c0.9-0.3,1.2-2,2.5-1.3c1,0.5,0.6,1.6,0.7,2.4c0.1,1.2-0.7,1.6-1.8,2.1c-2.5,1.1-5.5-0.1-7.6,2.2
		c-0.3,0-0.5,0-0.8,0c0,0,0,0,0,0c-0.3-0.3-0.5-0.5-0.8-0.8l0,0c-0.3-0.7-0.8-1-1.6-0.8l0,0c0.3-1.4-0.3-2.4-1.5-3.2
		c-0.1-0.8-0.1-1.5-0.2-2.3C81.7,6.6,84,6.8,86.3,7C87.3,9,88.7,9.3,90.5,7.8z"/>
	<path class="st5" d="M27.6,7.3c-2.5,1.8-5.1,3.5-7.6,5.3c-2.5-6.4-1.9-7.1,5.2-6.4C26.1,6.4,27,6.5,27.6,7.3z"/>
	<path class="st11" d="M89.7,83.1c-0.2-3.4,3.8-4.6,4.1-7.7c0.9-0.6,0.5-1.5,0.7-2.3c2.3-0.8,1.9-3.3,3.1-4.8l0.4-0.1l0.4,0l0.1,0.1
		c-0.1,6.7-4.5,11.2-8.4,15.9C89.9,83.8,89.8,83.5,89.7,83.1z"/>
	<path class="st9" d="M99.1,40.8c-0.2-1.9,0.1-3,2.2-1.4c0,0,0.1,0,0.1,0c-0.2,2.9,1.8,5.1,2.5,7.7c-2,0-2.2,1.2-2.2,2.8
		c0,2.7-0.1,5.4-0.2,8.1c-0.5,0-0.9-0.1-1.4-0.1c0.2-4.7,1.5-9.5-0.8-14.1C99.3,42.8,99.2,41.8,99.1,40.8z"/>
	<path class="st6" d="M103.9,47.1c-0.6-2.6-2.7-4.8-2.5-7.7c2-1.2,2.7,3.4,4.9,1.1c1.2,1.7-0.5,3.3-0.2,5.1
		C106.3,46.8,105.8,48.2,103.9,47.1z"/>
	<path class="st11" d="M83.5,13.3c0.3,0,0.5,0,0.8,0c1.1,0.2,2.1,0.4,3.2,0.6c0.9,1,1.6,2.3,3,2.6c0,1,0.1,2,0.1,3
		c0.4,0.9,0.9,1.7,0.7,2.7C88.5,19.4,85.2,17,83.5,13.3z"/>
	<path class="st9" d="M101.5,64.3c0.3,2.4,0,4.2-3.1,4c0,0-0.1-0.1-0.1-0.1c-0.6-3.1,0.1-5.9,1.6-8.6c0.5,0,1,0,1.6,0
		c0,0.5,0,1,0,1.5C100.5,62.2,100.6,63.3,101.5,64.3z"/>
	<path class="st6" d="M20.4,107.8c1.8-1.5,3.1-1.9,4.5-1.9c1.3,0,3.4-0.8,3.4,1.4c0,2.5-2.3,1.6-3.6,1.6
		C23.5,109,22.3,108.4,20.4,107.8z"/>
	<path class="st9" d="M79.4,6.3c0.1,0.8,0.1,1.5,0.2,2.3c-0.7,0.4-1.3,0.8-2,1.1c-1.6-1.4-4.3-1.1-5.2-3.5l0,0
		C74.8,6.3,77.1,6.3,79.4,6.3z"/>
	<path class="st6" d="M107.8,44.4c0.1-1.2,0.1-2.6,1.7-2.4c1.5,0.2,1.4,1.7,1.4,2.8c0,1.1-0.1,2.2-1.5,2.2
		C107.6,46.9,107.9,45.5,107.8,44.4z"/>
	<path class="st9" d="M89.7,83.1c0.1,0.4,0.2,0.7,0.3,1.1c0.6,3.4-1.1,4.6-4.2,4.5C85.6,85.8,87,83.9,89.7,83.1z"/>
	<path class="st7" d="M74.8,98c0.3-3.1,2.4-1.7,3.9-1.5c0.7,0.5,1.4,1,2.5,1.8C78.7,98.9,76.7,99.6,74.8,98z"/>
	<path class="st9" d="M66.1,4c1.1-1.1,2.4-0.8,3.7-0.6c0.1,1.7,2.7,1.1,2.7,2.9c0,0,0,0,0,0c-0.8,0-1.6,0-2.4,0
		C69.4,4.5,66.4,6.6,66.1,4z"/>
	<path class="st9" d="M90.5,7.8C88.7,9.3,87.3,9,86.3,7C87.9,6.2,89.5,5.2,90.5,7.8z"/>
	<path class="st7" d="M87.4,98.9c-2.1-0.7-2.1-0.7-2.1-3.3C87.2,95.9,87.4,97.3,87.4,98.9L87.4,98.9z"/>
	<path class="st10" d="M90.5,16.5c-1.5-0.3-2.1-1.6-3-2.6C90.6,12.3,90.6,14.4,90.5,16.5z"/>
	<path class="st7" d="M55.6,103.5c-0.1,0.9-0.9,1.1-1.6,1.3c-0.5,0.2-1-0.1-0.9-0.8c0.1-0.7,0.6-1,1.3-1.2
		C55,102.8,55.4,102.9,55.6,103.5z"/>
	<path class="st7" d="M87.4,98.9c0.9,0.1,2.3-0.3,2.1,1.4c0,0.3-0.5,0.7-0.7,0.7C87.1,101.1,87.5,99.8,87.4,98.9
		C87.4,98.9,87.4,98.9,87.4,98.9z"/>
	<path class="st7" d="M86.5,92.9c0,0.5-0.3,1-0.9,0.9c-0.4-0.1-0.9-0.6-1-1c-0.1-0.6,0.4-0.9,0.9-0.9C86.1,92,86.4,92.3,86.5,92.9z"
		/>
	<path class="st8" d="M101.5,64.3c-0.9-1-1-2.1,0-3.1C102.5,62.2,102.5,63.3,101.5,64.3z"/>
	<path class="st11" d="M81.9,91c0.4-2,1.8-2.4,3.5-2.3c-0.4,1.4-1.7,1.9-2.7,2.7C82.5,91.2,82.2,91.1,81.9,91L81.9,91z"/>
	<path class="st8" d="M44.5,1.7c-0.9,1.3-2.1,1.1-3.4,0.7C42,1.2,43.3,1.6,44.5,1.7z"/>
	<path class="st8" d="M101.5,59.6c-0.5,0-1,0-1.6,0c0.1-0.6,0.1-1.1,0.2-1.7c0.5,0,0.9,0.1,1.4,0.1
		C101.5,58.6,101.5,59.1,101.5,59.6z"/>
	<path class="st7" d="M81.9,91c0.3,0.1,0.6,0.2,0.9,0.3c0,0.2-0.1,0.4-0.1,0.6C82.4,91.6,82.1,91.3,81.9,91z"/>
	<path class="st7" d="M66.1,4c0.3,2.6,3.3,0.5,4,2.3c0,0,0,0.1,0,0.1c-1.6,0.2-3.7-1.1-4.5,1.1c-0.8,2.1,0.8,3,2.6,3.6
		c1.1,0.4,1.1,1,0.1,1.5c-0.9,0.4-1.4,1.2-0.3,1.6c3.2,1.1,2.2,3,1.5,5.2c-0.6,1.9,0.1,3.8,1.5,5.9c1.1-2.5,2.3-4.4,4.7-1.6
		c0.4,4.2-1.6,8.2-0.5,12.6c1.1-1.3-0.1-3.1,1.3-4c2.3-0.1,3.2,1,3.2,3.3c-0.1,2.3,0,4.6,0,6.9c-1.3,1.3-3.5,2.2-0.6,4.3
		c1.1,0.8-0.8,1.3-1,2c-4.2,2.2-2.1,5.5-1.5,8.6c0,1.8,0,3.7,0,5.5c0,0.5,0,1,0,1.6c-2.3,0.9-0.9,2.6-0.8,3.9c-0.2,0-0.5,0-0.7,0
		c-1.7,0.3-2,1.1-0.8,2.4c-2.5,6-6,11.8-4.7,18.8c-0.3,0-0.5,0-0.8,0c-1.3,0-2.7,0-4,0c0.3-5.1,3.7-9.3,4.4-14.3
		c0.8-5.9,2.4-11.8,2.5-17.8c0-0.5,0.1-1,0.1-1.6c0.8-9.8,0.2-19.5-3.5-28.8c-0.3-6.9-3.6-12.7-6.7-18.5c-0.9-1.8-2-3.5-3-5.3
		C61.1,2.1,63.4,4.9,66.1,4z"/>
	<path class="st12" d="M68.1,26.9c3.7,9.3,4.3,19,3.5,28.8c-1.7-0.5-4.3,1.2-5.2-1.2c-1.1-3.2-3.6-6.5-1-10.1c1.4-2,0.8-2.7-1.5-2.9
		c-1.2-0.1-2.3-0.4-3.4-0.8c-2.7-1-5.1-2.7-5.1-5.7c-0.1-3.5,0.4-7.6,3.5-9.5C61.6,23.9,65.1,25.8,68.1,26.9z"/>
	<path class="st2" d="M44.2,8.7c2.7,1.8,5.8,2.2,8.9,2.2c2.4,0,4.6,0.7,6.9,0.9c1.3,0.1,1.9,1,1.9,2.1c0,1.3-1.3,0.8-2.1,1.1
		c-5.9,2.1-10.8-2.3-16.4-2.4C43.7,11.2,44,10,44.2,8.7z"/>
	<path class="st2" d="M54.2,48.6c-2.1-0.7-4.1-2.1-4.4-4.8c-0.2-1.6,1.1-2.6,2.5-2.1c2.2,0.8,4.9,1.6,5.2,4.6
		C57.7,48.1,56.3,48.7,54.2,48.6z"/>
	<path class="st12" d="M44.2,8.7c-0.3,1.3-0.5,2.5-0.8,3.8c-1.5-0.2-4.1,1.1-4.3-1C39,10,41.3,8.7,43.5,8.7
		C43.7,8.7,44,8.7,44.2,8.7z"/>
	<path class="st2" d="M43.5,50.3c1.1,0,1.9,0.3,2,1.4c0,1.1-0.9,1.5-1.8,1.5c-1,0.1-2-0.2-2.2-1.2C41.3,50.7,42.7,50.7,43.5,50.3z"
		/>
	<path class="st2" d="M49.2,57.3c-1-0.1-1.9-0.3-1.7-1.5c0.2-1,0.9-1.5,1.9-1.5c1,0.1,1.7,0.7,1.7,1.7
		C51.1,57.3,50.1,57.2,49.2,57.3z"/>
	<path class="st13" d="M69.3,89.4c-1.3-7,2.2-12.8,4.7-18.8c0.9-0.6,0.7-1.5,0.8-2.4c0.2,0,0.5,0,0.7,0c0.1,2.1-0.3,4.3,2,5.8
		c1-1.9-0.1-3.6,0.1-5.5c1.7,0.9,3.1,1.5,2.5-1.1c-0.4-1.9-1.4-3.4-3.7-3.1c0-0.5,0-1,0-1.6c1.2-1.8,1.2-3.7,0-5.5
		c-0.6-3.1-2.7-6.4,1.5-8.6c0,1.2-0.4,2.9,0.2,3.4c3.4,2.8,4.1,7.1,6,10.6c1.1,2,2.3,3.3,0.8,5.4c-0.9,1.3-0.2,2.3,0.7,3
		c0.9,0.7,1.8,0,2.4-0.7c1.6-2.3,4-4.2,3.4-7.6c-0.2-1.1-0.2-2.1,0.9-3.1c2.8-2.5,1.9-7-2.2-10.8c-2.8-2.7-3.7,0.4-5,2
		c-1.2,1.4-2.7,1.3-3.9,0.7c-1.5-0.8,0.5-1.7,0.4-2.6c-0.4-2.3,2.5-5.6-2.1-6.6c0-2.3-0.1-4.6,0-6.9c0.1-2.2-0.8-3.4-3.2-3.3
		c0-1.8,0.7-3.4,1.2-5.1c1.9,0.4,0.4,2.2,1.9,2.8c1.3-4.4,4.5-4.6,8.6-3.3c-0.4-0.8-0.5-1.3-0.8-1.5c-1-0.8-1.9-1.5-1.1-2.9
		c0.2-0.4,0.8-0.8,1.2-0.8c1.4,0.1,1.3,1.4,1.7,2.3c0.8,1.7,1.8,3.2,3.7,3.7c3.8,2.1,3.4,5.9,3.9,9.4c-1.4,1.4-1.7,8.4-0.3,9.7
		c0.7,0.7,1.4,0.5,1.8-0.4c0.3-0.8,0.2-1.8,1.1-2.3c2.2,4.6,1,9.4,0.8,14.1c-0.1,0.6-0.1,1.1-0.2,1.7c-1.5,2.7-2.2,5.5-1.6,8.6
		c0,0-0.4,0-0.4,0s-0.4,0.1-0.4,0.1c-4.2-0.4-4.2,1.8-3.1,4.8c-0.2,0.8,0.1,1.7-0.7,2.3c-5.7-1-10.2,0.7-13,6c-0.2,0.4-1,0.9-1,1.1
		c1.6,5.6-4.9,6.3-6.1,10.3c-0.3,1-2.1,1.5-3,1C69.2,92.8,69.3,91,69.3,89.4z M90.9,46.7c1-1.8-0.5-4.2,1.2-4.7
		c2.4-0.6,1.4-2.1,1.6-3.2c0.3-2-3.2-3.3-1-5.7c0,0-0.3-0.4-0.4-0.5c-2,1.6-3.7-1.2-5.6-0.3c-0.9,0.4-2.7,1-2.1,1.8
		c1.8,2.3-0.4,4.9,1.6,7.5C87.7,43.5,90.6,43.6,90.9,46.7z M93.1,44.5c-0.2,1.1-0.4,1.8,0.4,2.2c0.1,0.1,0.6-0.1,0.6-0.2
		C94.3,45.7,94,45.1,93.1,44.5z"/>
	<path class="st13" d="M64.6,89.4c1.3,0,2.7,0,4,0c-1.2,1.9-2.8,2.7-5,1.5C63.9,90.4,64.3,89.9,64.6,89.4z"/>
	<path class="st1" d="M57.5,99.6c-0.1,0.3-0.2,0.5-0.3,0.8C57,100,57.2,99.8,57.5,99.6z"/>
	<path class="st3" d="M92.9,27.4c-2-0.5-3-2-3.7-3.7c-0.4-0.9-0.4-2.2-1.7-2.3c-0.4,0-1,0.4-1.2,0.8c-0.8,1.4,0.1,2.2,1.1,2.9
		c0.3,0.2,0.3,0.6,0.8,1.5c-4.1-1.4-7.3-1.2-8.6,3.3c-1.5-0.6,0-2.5-1.9-2.8c-0.6,1.6-1.3,3.3-1.2,5.1c-1.4,0.9-0.2,2.7-1.3,4
		c-1.1-4.4,0.9-8.5,0.5-12.6c1.6-0.1,2.9-2.8,4.4-1.1c2.3,2.7,3.1,0,4.4-0.9c0.7-0.5,0.8-1.5,0.2-2.1c-0.7-0.7-1.1,0.2-1.5,0.6
		c-0.4,0.5-1,1.1-1.6,0.4c-0.3-0.4-0.3-1.2-0.3-1.8c0-1,1.6-1.5,1-2.5c-6.6-0.5-8.8-5.9-12.2-10c0,0,0-0.1,0-0.1c0.8,0,1.6,0,2.4,0
		c0.9,2.4,3.6,2.1,5.2,3.5c0.9,1.2,2,1.8,3.4,2l0,0c0.3,0.8,0.9,0.9,1.6,0.8c0,0,0,0,0,0c0,0.5,0.3,0.8,0.8,0.8c0,0,0,0,0,0
		c1.8,3.7,5.1,6.1,7.8,9c0,0,0,0.3,0,0.3c0.1,1,0.4,1.7,1.6,1.7c0,0,0,0,0,0c0,0.7,0.1,1.5,0.1,2.2C92.9,26.8,92.9,27.1,92.9,27.4z"
		/>
	<path class="st10" d="M99.4,43.8c-0.9,0.5-0.8,1.5-1.1,2.3c-0.4,0.9-1.1,1.1-1.8,0.4c-1.4-1.3-1.1-8.3,0.3-9.7c0,0,0.1,0.1,0.1,0.1
		c0.3,1.4-1,3.4,1.6,3.9c0.2,0,0.5,0,0.7,0C99.2,41.8,99.3,42.8,99.4,43.8z"/>
	<path class="st13" d="M98.4,40.8c-2.5-0.5-1.3-2.5-1.6-3.9C99.3,37.4,98,39.4,98.4,40.8z"/>
	<path class="st11" d="M92.9,24.3c-1.2,0-1.5-0.7-1.6-1.7C92.3,22.7,92.9,23.3,92.9,24.3z"/>
	<path class="st11" d="M93,26.5c0-0.7-0.1-1.5-0.1-2.2C94,25,93.9,25.8,93,26.5z"/>
	<path class="st11" d="M81.1,11.8c-1.4-0.2-2.6-0.9-3.4-2c0.6-0.4,1.3-0.8,2-1.1C80.8,9.3,81.4,10.3,81.1,11.8z"/>
	<path class="st11" d="M82.7,12.6c-0.7,0.1-1.3,0-1.6-0.8C81.8,11.6,82.4,11.8,82.7,12.6z"/>
	<path class="st11" d="M83.5,13.3c-0.5,0-0.8-0.3-0.8-0.8C82.9,12.8,83.2,13.1,83.5,13.3z"/>
	<path class="st7" d="M94.5,73.1c-1.1-3-1.1-5.2,3.1-4.8C96.4,69.7,96.9,72.3,94.5,73.1z"/>
	<path class="st14" d="M79.5,42.3c4.6,1,1.7,4.3,2.1,6.6c0.1,0.8-1.9,1.8-0.4,2.6c1.2,0.6,2.7,0.7,3.9-0.7c1.3-1.5,2.2-4.6,5-2
		c4,3.8,5,8.4,2.2,10.8c-1.1,1-1.1,2.1-0.9,3.1c0.6,3.3-1.8,5.3-3.4,7.6c-0.5,0.8-1.5,1.4-2.4,0.7c-1-0.7-1.6-1.8-0.7-3
		c1.5-2.1,0.4-3.3-0.8-5.4c-2-3.5-2.6-7.8-6-10.6c-0.6-0.5-0.2-2.3-0.2-3.4c0.2-0.8,2.1-1.2,1-2C76,44.5,78.3,43.6,79.5,42.3z"/>
	<path class="st13" d="M70.1,6.4c3.4,4,5.6,9.4,12.2,10c0.6,1-1,1.5-1,2.5c0,0.6-0.1,1.4,0.3,1.8c0.5,0.6,1.1,0,1.6-0.4
		c0.4-0.4,0.8-1.3,1.5-0.6c0.6,0.6,0.5,1.6-0.2,2.1c-1.3,0.9-2.1,3.6-4.4,0.9c-1.5-1.8-2.9,0.9-4.4,1.1c-2.3-2.8-3.6-0.9-4.7,1.6
		c-1.4-2.1-2.1-4-1.5-5.9c0.7-2.2,1.7-4.1-1.5-5.2c-1.1-0.4-0.6-1.1,0.3-1.6c1.1-0.5,1-1.1-0.1-1.5c-1.8-0.6-3.4-1.5-2.6-3.6
		C66.4,5.3,68.5,6.6,70.1,6.4z"/>
	<path class="st14" d="M76.4,64.3c2.3-0.3,3.3,1.2,3.7,3.1c0.6,2.6-0.8,2-2.5,1.1c-0.2,1.9,0.9,3.6-0.1,5.5c-2.3-1.4-1.9-3.7-2-5.8
		C75.5,66.9,74.1,65.2,76.4,64.3z"/>
	<path class="st14" d="M76.4,57.2c1.2,1.8,1.2,3.7,0,5.5C76.4,60.9,76.4,59.1,76.4,57.2z"/>
	<path class="st14" d="M74.9,68.3c-0.1,0.9,0.1,1.8-0.8,2.4C72.8,69.3,73.1,68.6,74.9,68.3z"/>
	<path class="st14" d="M90.9,46.7c-0.2-3.2-3.2-3.2-4.7-5.1c-2-2.6,0.2-5.3-1.6-7.5c-0.6-0.7,1.2-1.3,2.1-1.8
		c1.9-0.9,3.7,1.9,5.6,0.3c0.1,0.2,0.4,0.5,0.4,0.5c-2.2,2.3,1.2,3.7,1,5.7c-0.2,1.2,0.8,2.6-1.6,3.2C90.4,42.5,91.8,44.9,90.9,46.7
		z"/>
	<path class="st14" d="M93.1,44.5c0.9,0.6,1.2,1.2,1,2c0,0.1-0.5,0.3-0.6,0.2C92.7,46.3,92.9,45.5,93.1,44.5z"/>
</g>
<g>
	<path class="st15" d="M90.8,126.5H15c-2.2,0-4-1.8-4-4v-23c0-2.2,1.8-4,4-4h75.8c2.2,0,4,1.8,4,4v23
		C94.8,124.7,93,126.5,90.8,126.5z"/>
	<g>
		<path class="st16" d="M31.9,113c-0.1-2-0.1-4.4-0.1-6.8h-0.1c-0.5,2.1-1.2,4.4-1.8,6.4l-2,6.4H25l-1.8-6.4
			c-0.5-1.9-1.1-4.3-1.5-6.4l0,0c-0.1,2.2-0.2,4.8-0.3,6.8l-0.3,6.3h-3.4l1.1-16.5h5l1.6,5.5c0.5,1.9,1,4,1.4,5.9h0.1
			c0.5-1.9,1-4.1,1.6-5.9l1.8-5.5h4.9l0.9,16.5h-3.6L31.9,113z"/>
		<path class="st16" d="M53.7,110.9c0,5.4-3.3,8.7-8.1,8.7c-4.9,0-7.7-3.7-7.7-8.4c0-4.9,3.2-8.6,8-8.6
			C51,102.6,53.7,106.3,53.7,110.9z M41.8,111.1c0,3.2,1.5,5.5,4,5.5s4-2.4,4-5.6c0-3-1.4-5.5-4-5.5
			C43.3,105.5,41.8,107.9,41.8,111.1z"/>
		<path class="st16" d="M71.2,110.9c0,5.4-3.3,8.7-8.1,8.7c-4.9,0-7.7-3.7-7.7-8.4c0-4.9,3.2-8.6,8-8.6
			C68.5,102.6,71.2,106.3,71.2,110.9z M59.3,111.1c0,3.2,1.5,5.5,4,5.5c2.5,0,4-2.4,4-5.6c0-3-1.4-5.5-4-5.5
			C60.8,105.5,59.3,107.9,59.3,111.1z"/>
		<path class="st16" d="M73.7,119.3v-16.5H78l3.4,6c1,1.7,2,3.8,2.7,5.6h0.1c-0.2-2.2-0.3-4.4-0.3-6.9v-4.8h3.4v16.5h-3.9l-3.5-6.4
			c-1-1.8-2.1-3.9-2.9-5.8h-0.1c0.1,2.2,0.1,4.5,0.1,7.2v5h-3.3V119.3z"/>
	</g>
</g>
</svg>
