<?xml version="1.0" encoding="utf-8"?>
<!-- Generator: Adobe Illustrator 25.0.0, SVG Export Plug-In . SVG Version: 6.00 Build 0)  -->
<svg version="1.1" id="Layer_1" xmlns="http://www.w3.org/2000/svg" xmlns:xlink="http://www.w3.org/1999/xlink" x="0px" y="0px"
	 width="105.5px" height="129px" viewBox="0 0 105.5 129" style="enable-background:new 0 0 105.5 129;" xml:space="preserve">
<style type="text/css">
	.st0{fill:#FCFCFC;}
	.st1{fill:#4B5D65;}
	.st2{fill:#2D3C44;}
	.st3{fill:#EBEDEE;}
	.st4{fill:#EEF1F2;}
	.st5{fill:#B7C0C4;}
	.st6{fill:#F2F5F4;}
	.st7{fill:#252D32;}
	.st8{fill:#E5E8EA;}
	.st9{fill:#A5B0B2;}
	.st10{fill:#D0D7D8;}
	.st11{fill:#F8F4EC;}
	.st12{fill:#E9E0DB;}
	.st13{fill:#48A6DD;}
	.st14{fill:#FFFFFF;}
</style>
<g>
	<path class="st0" d="M53.3,114.4c-0.4-1.2-0.1-2.6-0.2-3.9c0.4,0,0.8,0.1,1.2,0c1.4-0.3,3.9,0.9,4-1.1c0.1-1.9-2.5-1.7-4-2
		c-0.5-0.1-1,0-1.6,0c-0.6,0-1.7-0.2-1.4-0.9c1.9-4.1-1.4-1.2-2.1-1.4c-1.5-0.4-3.1-0.2-4.6-0.5c-1.8-0.3-3.5,1.2-2.7,2
		c1.2,1.3,1.3,4.3,4.2,3.9c0,1.3,0.2,2.3,1.8,2.4"/>
	<path class="st0" d="M104.8,51.2c0.2-2.1,0.4-4.3,0.7-6.6c-0.3-0.3-0.7-0.6-1.1-0.8c0-0.8,0-1.6-0.1-2.4c0.9-3.2-0.1-5-2.5-4.7
		c-0.2-2.5-2.1-4.3-3.2-6.3c-0.3-1.5,0.9-3.7-0.5-4.4c-3.7-2-4.8-5.7-6.6-9c1.7,0.1,3.5,0.3,5.6,0.4c-1.6-2.3-3.7-1.9-5.7-1.8
		c-0.2,0-0.4,0-0.6-0.2c0.5-2.1-0.7-3.2-3.1-3.7c4.6-1.7,5.7-2.9,4.3-6c-1.4-3.1-3.6,0.2-5.9-0.4c0.6,1.6,2.9,1.7,2,3.4
		c-0.8,1.6-2.5,1.1-3.8,1.4c-1,0-2-0.1-2.9-0.1c0.3-0.5,0.5-1.2,0.9-1.6c0.8-0.7,1.9-1.5,1.1-2.5c-0.9-1.3-1.6-0.4-2.2,0.7
		c-0.2,0.5-0.6,0.1-0.7-0.3c-1-1.9-2.7-0.9-4.1-1c-1.6-0.1-3.2-0.1-4.8-0.2c-0.6-2.7-2.3-3.3-5-3.2c-3.1,0-0.7-1.3-0.2-2.1
		c1,0,1.9,0,2.5,0c-1.9-0.5-3.9-1-5.8-1.1c-0.9-0.1-1.8-0.1-2.7-0.1c0.3,0.5,0.4,1.1-0.3,2c-4.8-0.9-9.7-0.7-14.5-0.8
		c-2.2,0-2.8,0.7-2,2.7c-0.2,0.1-0.5,0.3-0.7,0.4c-4.2,0.4-7.8,2.5-11.7,3.6c-1.9-2.2-6.8-2.2-8.7,0.3c-0.6,0.8-2.8,0.6-1.8,2.3
		c0.8,1.4,1.8,0.5,2.9-0.2c1.1-0.7,1.1,0.6,1.3,1.2c-0.5,1.6-3,1.1-3.2,3c-3.5,2.8-6.9,5.7-9.3,9.5c-3.3,5.4-6.6,10.8-7.7,17.2
		c-1.2,1.7-1.2,3.7-1.2,5.7c-0.1,7-0.4,14,1.3,20.9c-1.3,0.5-2.6-1.3-4-0.1c0.6,1.6,2,2.2,3.1,3.2c1,0.9,1.1,3,3.3,1.7
		c0.6,3.2,3.1,5.6,4,8.7c-1.3,0-2.6-0.1-3.9-0.1c-3.2,0-1.7,3-2.6,4.5c-0.7,1.2-0.3,3,1.3,3.1c3.7,0.2,7.5,1.2,11-0.6
		c1,0.2,1.5,0.9,2.2,1.5c5.7,5.3,12.3,9,19.8,11.1c1.8,0.4,3.6,0.9,5.5,1.3c0.6,1.6,1.9,1.9,3.5,1.9c4.3,0,8.6-0.1,12.8,0.1
		c2.9,0.1,5.5-0.1,7.3-2.6c1.4,0.3-0.3,2.8,2,2.6c2-0.1,1.9-1.5,1.9-2.7c0-1.5,1-1.6,2.1-2.2c2.9-1.6,6.9-1.5,8.7-4.2
		c1.6-2.5,3.9-4.7,6-5.2c4.1-0.9,3.9-3.2,3.8-6.1c0.8-0.3,1.5-0.6,2.3-0.8c0.2-1.4,1.1-2.7,2.2-3.3c1.2-0.7,1.9-0.7,2.2-1.6
		c0.3-0.9-0.2-2,0.1-2.6c1.1-2.3-0.2-6.1,3.6-6.8C103.4,61.9,104.2,56.6,104.8,51.2z"/>
	<path class="st0" d="M64.3,104.5c0.1,2.7-1,4.7,0.7,5.6c1.8,1,4.1,0.6,6.1,0.2c0.7-0.1,0.9-0.9,0.8-1.6c-0.1-0.9-0.8-1.4-1.7-1.3
		C68.1,107.7,66.2,107.1,64.3,104.5z"/>
	<path class="st0" d="M97.2,20.3c-0.3-0.2-0.7-0.6-0.9-0.5c-0.3,0.1-0.6,0.5-0.6,0.8c0,0.5,0.3,1,0.9,0.8
		C96.9,21.2,96.9,20.7,97.2,20.3z"/>
	<path class="st0" d="M1.8,70.3c-0.2-0.1-0.4-0.2-0.6-0.3c-0.1,0.2-0.3,0.5-0.2,0.6c0.1,0.2,0.4,0.2,0.6,0.3
		C1.6,70.7,1.7,70.5,1.8,70.3z"/>
	<path class="st0" d="M100.1,15.8c-0.1,0.2-0.2,0.4-0.3,0.7c0.2,0.1,0.5,0.3,0.6,0.3c0.2-0.1,0.2-0.4,0.3-0.6
		C100.5,16,100.3,15.9,100.1,15.8z"/>
	<path class="st0" d="M55.7,104.6c-0.2-0.1-0.4-0.3-0.6-0.3c-0.2,0-0.4,0.2-0.6,0.3c0.2,0.1,0.4,0.3,0.6,0.3
		C55.3,105,55.5,104.8,55.7,104.6z"/>
	<path class="st1" d="M4.8,39.9c1.1-6.4,4.4-11.8,7.7-17.2c2.4-3.9,5.7-6.8,9.3-9.5c1.5,1.9,3.1,2,4.9,0.3c1.8-1.8,4.2-2.5,6.7-3
		c0.5-0.1,1-0.4,1.4,0.1c0.5,0.6,0.2,1.2,0,1.8c-0.5,1.1-1.5,1.2-2.4,1.7c-3.5,1.9-8.4,2.4-9.1,7.8c-0.2,1.2-1.4,2.5,0,3.5
		c1.1,0.8,2.5,0.4,3.6-0.4c1.3-1,2-1.8,2.5-3.7c1.1-4.3,5.4-3.3,8.8-3.3c-2.9,7.9-4.1,16.3-6,24.4c-1.7-0.9-1.9,0.4-2.2,1.5
		c-1.1,4-0.1,8,0.6,11.9c0.1,0.8,1,0.5,1.7,0.6c0.9,2.6,0.5,5.3,0.6,7.9c-1.4,0.2-1.6,0.9-1.4,2.2c0.4,2.4-0.4,4.3-3,5
		c-2.4,0.7-2.1,2-1,3.8c1.7,2.7,0.8,4.5-2.3,5.4c-2.3,0.6-3.8-0.7-4.8-2.4c-1.1-1.8-1.6-3.9-0.2-5.9c0.4-0.7,1-0.7,1.7-0.5
		c1.5,0.5,2.8,0.2,2.9-1.5c0-1.7-0.8-3.4-2.9-3.6c-1.3-0.1-2.7-0.2-3.9,0c-2.8,0.6-4.8-0.9-5.7-3.1C9.7,57.6,6.1,52,6.4,45
		C6.4,43.6,7.2,41,4.8,39.9z"/>
	<path class="st2" d="M4.8,39.9C7.2,41,6.4,43.6,6.4,45C6.1,52,9.7,57.6,12.2,63.5c0.9,2.1,2.8,3.6,5.7,3.1c1.3-0.3,2.6-0.1,3.9,0
		c2.1,0.2,2.9,1.8,2.9,3.6c0,1.7-1.4,2-2.9,1.5c-0.7-0.2-1.2-0.1-1.7,0.5c-1.4,2-0.9,4.1,0.2,5.9c1,1.7,2.5,3,4.8,2.4
		c3.1-0.8,4-2.7,2.3-5.4c-1.2-1.8-1.5-3.1,1-3.8c2.6-0.7,3.4-2.6,3-5c-0.2-1.3,0-2,1.4-2.2c0.8,3,1.4,6,1.5,9.1
		c-1.3-0.3-2.5-0.6-3.3,0.9c-0.8,1.6-0.2,2.2,1.2,3c1,0.6,0.8,1.8,0.1,2.7c-0.8,0.9-2.5,1.5-1.3,3.1c1.3,1.9,2.8,0,4.2,0.1
		c-0.5,1.4,1.9,3.3-0.8,4.3c-2.7,1.1-2.8,1.1-1.7,4.9c1.2-0.5,0.8-2.7,2.8-2.5c0,1.5,0,2.9,2.4,3c1.6,0,1.7,2,1.7,3.4
		c0,1.1-0.3,2.3-0.5,3.4c-7.5-2.1-14.1-5.8-19.8-11.1C18.6,87.8,18,87,17,86.9c-1-3-3.7-4.7-5.8-6.8c-0.9-3.1-3.4-5.5-4-8.7
		c-1.5-1.3,0-4-2.3-4.9c-1.7-6.9-1.4-13.9-1.3-20.9C3.6,43.6,3.7,41.6,4.8,39.9z"/>
	<path class="st3" d="M66.8,2c-3.1,0-0.7-1.3-0.2-2.1c-0.1-0.3-0.1-0.5-0.1-0.7c-1.1-0.2-2.1-0.4-3.2-0.5c-0.9-0.1-1.8-0.1-2.7-0.1
		c0.3,0.5,0.4,1.1-0.3,2c0.8,1.2,1.2,2.2-0.9,2.2c-1.5,0-3.1-0.3-4.6-0.4c-3.8-0.4-7.4,0-10.3,2.9c-1.4,2.1-2.1,4.6-4,6.3
		c-0.2,0.5-0.4,1.1-0.5,1.6c0.1,1.1-0.3,1.9-1.1,2.6c-0.2,0.7-0.5,1.4-0.7,2.1c-2.9,7.9-4.1,16.3-6,24.4c0,4.7,0,9.3,0,14
		c0.9,2.6,0.5,5.3,0.6,7.9c0.8,3,1.4,6,1.5,9.1c1.3,2.3,1.7,4.9,2.3,7.5c1.5,3.1,2.2,6.5,4.1,9.4c1-0.8,2.1-1.6,3.1-2.4
		c-3.3-1.4-3.4-4.1-3.1-7c-1.4-2.4-3.5-4.2-1.9-7.8c0.8-1.8-1.6-4.8-2.3-7.3c-0.3-0.9-1.8-2.7,1.1-2.2c0.5,0,1.1,0,1.6,0
		c-0.1-2.1-1.2-4.1-0.8-6.2c-1-0.6-2.7-0.8-1.8-2.7c1.5-3.4,0.9-7.2,1.8-10.7C35.2,38,36.5,31.7,38,26.5c0.9-3.3,1.4-7.4,3.6-10.5
		c1.1-1.6,2-3.4,4.5-2.8c-0.2-1.4,1.2-2.1,1.1-3.6c-0.3-3.8,3.8-7,7.2-5.5c2.8,1.2,5.6,1.5,8.3,1.1c3.4-0.5,6,2.3,9.4,1.6
		c-0.1-0.5-0.2-1.1-0.3-1.6C71.1,2.5,69.4,1.9,66.8,2z"/>
	<path class="st3" d="M62.6,1.9c0.1-0.1,0.2-0.1,0.3-0.2c-0.1-0.1-0.2-0.2-0.3-0.2c-0.1,0-0.2,0.1-0.3,0.2
		C62.4,1.8,62.5,1.8,62.6,1.9z"/>
	<path class="st2" d="M40.4,11.5c-0.2,0.5-0.4,1.1-0.5,1.6c-0.8-0.2-1.7-1.3-2.3,0.1c-0.5,1.1,0.1,2,1.2,2.5
		c-0.2,0.7-0.5,1.4-0.7,2.1c-3.4,0-7.7-1-8.8,3.3c-0.5,1.9-1.2,2.8-2.5,3.7c-1.1,0.9-2.5,1.2-3.6,0.4c-1.4-1-0.1-2.3,0-3.5
		c0.7-5.4,5.5-5.9,9.1-7.8c0.9-0.5,1.9-0.6,2.4-1.7c0.3-0.6,0.5-1.2,0-1.8c-0.4-0.5-0.9-0.2-1.4-0.1c-2.5,0.4-4.8,1.2-6.7,3
		c-1.8,1.8-3.4,1.7-4.9-0.3c0.2-1.9,2.7-1.4,3.2-3c2.1-1.2,4.2-2.4,6.2-3.7c4-1.1,7.6-3.2,11.7-3.6c-1,1.9-2,3.9-3.1,5.7
		C39.2,9.8,38.2,10.9,40.4,11.5z"/>
	<path class="st4" d="M47.9,112.9c-1.6-0.1-1.9-1.1-1.8-2.4c2.4,1.3,4.7-0.1,7.1,0c0,1.3-0.2,2.7,0.2,3.9"/>
	<path class="st5" d="M103.5,61.5c-0.1-5.9-0.6-11.9,0.8-17.8c0-0.8,0-1.6-0.1-2.4c-2.5-0.6-1.5-3.2-2.5-4.7
		c-0.2-2.5-2.1-4.3-3.2-6.3c-0.3,0-0.5,0.1-0.8,0.1c3,7.7,4.7,15.6,4.2,24c-0.2,4.2-0.9,8.2-2.4,12.1c-0.7,4.2-2.7,7.7-5.1,11.1
		c-0.9,1.3-2,2.7-2.1,4.5c0,0,0.1,0.1,0.1,0.1c0.8-0.3,1.5-0.6,2.3-0.8c0.2-1.4,1.1-2.7,2.2-3.3c1.2-0.7,1.9-0.7,2.2-1.6
		c0.3-0.9-0.2-2,0.1-2.6c1.1-2.3-0.2-6.1,3.6-6.8C103,65.3,103.3,63.4,103.5,61.5z"/>
	<path class="st6" d="M104.8,51.2c0.2-2.1,0.4-4.3,0.7-6.6c-0.3-0.3-0.7-0.6-1.1-0.8c-1.4,5.9-0.9,11.8-0.8,17.8
		C103.9,58.1,104.4,54.7,104.8,51.2z"/>
	<path class="st7" d="M36.5,80.7c1.5,3.1,2.2,6.5,4.1,9.4c1,3.5,3.2,6.3,5,9.3c-0.4,0.5-0.8,0.9-1.1,1.4c-1.8-0.4-3.6-0.9-5.5-1.3
		c0.2-1.1,0.4-2.3,0.5-3.4c0-1.4-0.1-3.4-1.7-3.4c-2.4-0.1-2.4-1.5-2.4-3c-2-0.2-1.6,2-2.8,2.5c-1.1-3.8-1.1-3.8,1.7-4.9
		c2.6-1,0.3-2.9,0.8-4.3C35.1,81.9,35.1,80.9,36.5,80.7z"/>
	<path class="st8" d="M11.2,80c2.1,2.1,4.8,3.8,5.8,6.8c-3.6,1.8-7.4,0.8-11,0.6c-1.6-0.1-2-1.9-1.3-3.1c0.9-1.5-0.6-4.4,2.6-4.5
		C8.6,79.9,9.9,80,11.2,80z"/>
	<path class="st5" d="M92.5,82.3c0.2,2.9,0.3,5.2-3.8,6.1c-2.1,0.5-4.3,2.7-6,5.2c-1.8,2.7-5.9,2.6-8.7,4.2
		c-1.1,0.6-2.1,0.8-2.1,2.2c0,1.3,0.1,2.6-1.9,2.7c-2.3,0.2-0.6-2.3-2-2.6c0-0.4,0-0.8,0-1.2c0.7-1,1.9-1.2,2.9-1.7
		c2.8-1.3,6.2-1.7,8.1-4.7l0,0c2,0.1,2.9-1.4,4.3-2.4C86.7,87.8,88.6,83.9,92.5,82.3L92.5,82.3z"/>
	<path class="st3" d="M53.2,110.5c-2.4-0.1-4.7,1.3-7.1,0c-2.8,0.4-2.9-2.6-4.2-3.9c-0.7-0.8,0.9-2.3,2.7-2c1.5,0.3,3.1,0.1,4.6,0.5
		c0.7,0.2,3.9-2.7,2.1,1.4c-0.3,0.7,0.8,0.8,1.4,0.9c0.5,0,1.1-0.1,1.6,0c1.6,0.3,4.1,0.1,4,2c-0.1,2-2.6,0.8-4,1.1
		C54,110.6,53.6,110.5,53.2,110.5z"/>
	<path class="st9" d="M60.2,0.6c0.8,1.2,1.2,2.2-0.9,2.2c-1.5,0-3.1-0.3-4.6-0.4c-3.8-0.4-7.4,0-10.3,2.9c0.5-1.1,0.7-2.1-0.8-2.7
		c-0.8-2-0.2-2.7,2-2.7C50.5-0.1,55.4-0.3,60.2,0.6z"/>
	<path class="st4" d="M84.4,10.1c1.3-0.3,3,0.2,3.8-1.4c0.9-1.7-1.4-1.8-2-3.4C88.5,6,90.6,2.7,92,5.8c1.4,3,0.3,4.3-4.3,6
		c2.4,0.5,3.6,1.6,3.1,3.7c-0.5,0.1-1.1,0.2-1.6,0.3c-0.8-0.1-1.6-0.1-2.3-0.2C87,13.2,84.1,12.5,84.4,10.1z"/>
	<path class="st9" d="M68.1,98.9c0,0.4,0,0.8,0,1.2c-1.8,2.6-4.4,2.8-7.3,2.6c-4.3-0.2-8.6-0.1-12.8-0.1c-1.5,0-2.9-0.2-3.5-1.9
		c0.4-0.5,0.8-0.9,1.1-1.4c1.8,1.4,3.9,1.7,6.1,1.8c3.9,0.2,7.7-1.5,11.6-0.8c1.3,1.1,1.4,0.2,1.5-0.9C65.8,98.5,67,99.2,68.1,98.9z
		"/>
	<path class="st9" d="M89.3,15.7c0.5-0.1,1.1-0.2,1.6-0.3c0.2,0.1,0.4,0.2,0.6,0.2c0,0.5,0,0.9,0,1.4c1.9,3.2,2.9,7,6.6,9
		c1.4,0.7,0.2,2.9,0.5,4.4c-0.3,0-0.5,0.1-0.8,0.1c-1.5-1.4-1.5-3.9-3.6-4.9c-0.5-0.9-0.2-2.5-1.9-2.5l-0.2,0c0,0-0.1,0.2-0.1,0.2
		c0.2-3.3-3.7-4.1-4.3-6.9C88.3,16.1,88.8,15.9,89.3,15.7z"/>
	<path class="st10" d="M31.2,6.5c-2.1,1.2-4.2,2.4-6.2,3.7c-0.3-0.6-0.2-1.9-1.3-1.2c-1.1,0.7-2.1,1.5-2.9,0.2
		c-1-1.7,1.2-1.6,1.8-2.3C24.4,4.3,29.3,4.3,31.2,6.5z"/>
	<path class="st5" d="M84.4,10.1c-0.3,2.3,2.6,3.1,2.6,5.3c0,0,0,0,0,0c-1.3,0-2-1.1-2.9-1.8c-3.5-3.3-7.6-5.3-12-6.8l0,0
		c-0.1-0.5-0.2-1.1-0.3-1.6c1.6,0.1,3.2,0.1,4.8,0.2c0.2,3,3.9,2.3,4.9,4.6C82.4,10,83.4,10.1,84.4,10.1z"/>
	<path class="st10" d="M64.3,104.5c1.9,2.6,3.8,3.2,5.9,3c0.8-0.1,1.5,0.3,1.7,1.3c0.1,0.7-0.1,1.5-0.8,1.6
		c-2.1,0.4-4.4,0.8-6.1-0.2C63.3,109.2,64.4,107.2,64.3,104.5z"/>
	<path class="st7" d="M43.7,2.5c1.5,0.6,1.2,1.6,0.8,2.7c-1.4,2.1-2.1,4.6-4,6.3c-2.2-0.6-1.2-1.7-0.5-2.9c1.1-1.9,2.1-3.8,3.1-5.7
		C43.2,2.8,43.4,2.6,43.7,2.5z"/>
	<path class="st3" d="M81.4,10c-0.9-2.3-4.7-1.6-4.9-4.6c1.4,0.1,3.1-0.9,4.1,1c0.2,0.3,0.5,0.8,0.7,0.3c0.5-1.1,1.2-2,2.2-0.7
		c0.7,1-0.3,1.8-1.1,2.5C81.9,8.8,81.7,9.4,81.4,10z"/>
	<path class="st8" d="M4.9,66.4c2.3,0.9,0.8,3.6,2.3,4.9C5.1,72.6,5,70.5,4,69.6c-1.1-1-2.5-1.7-3.1-3.2C2.3,65.2,3.6,66.9,4.9,66.4
		z"/>
	<path class="st6" d="M104.3,41.4c-2.5-0.6-1.5-3.2-2.5-4.7C104.2,36.3,105.2,38.2,104.3,41.4z"/>
	<path class="st4" d="M91.5,17c0-0.5,0-0.9,0-1.4c2-0.1,4-0.5,5.7,1.8C95,17.2,93.2,17.1,91.5,17z"/>
	<path class="st4" d="M97.2,20.3c-0.2,0.4-0.3,0.9-0.5,1c-0.6,0.2-0.9-0.2-0.9-0.8c0-0.3,0.3-0.7,0.6-0.8
		C96.5,19.7,96.8,20.1,97.2,20.3z"/>
	<path class="st8" d="M1.8,70.3c-0.1,0.2-0.2,0.4-0.3,0.6c-0.2-0.1-0.6-0.1-0.6-0.3C0.8,70.4,1,70.2,1.1,70
		C1.3,70.1,1.5,70.2,1.8,70.3z"/>
	<path class="st4" d="M100.1,15.8c0.2,0.1,0.4,0.2,0.7,0.3c-0.1,0.2-0.1,0.6-0.3,0.6c-0.2,0.1-0.4-0.2-0.6-0.3
		C99.9,16.2,100,16,100.1,15.8z"/>
	<path class="st3" d="M55.7,104.6c-0.2,0.1-0.4,0.3-0.6,0.3c-0.2,0-0.4-0.2-0.6-0.3c0.2-0.1,0.4-0.3,0.6-0.3
		C55.3,104.3,55.5,104.5,55.7,104.6z"/>
	<path class="st5" d="M94.8,81.5c0.1,0,0.2,0.1,0.3,0.1C95,81.6,94.9,81.5,94.8,81.5C94.8,81.4,94.8,81.5,94.8,81.5z"/>
	<path class="st7" d="M32.2,42.2c0,4.7,0,9.3,0,14c-0.6,0-1.5,0.2-1.7-0.6c-0.7-3.9-1.7-7.9-0.6-11.9C30.3,42.6,30.5,41.3,32.2,42.2
		z"/>
	<path class="st1" d="M36.5,80.7c-1.4,0.2-1.4,1.2-1.5,2.3c-1.4,0-2.9,1.8-4.2-0.1c-1.1-1.6,0.6-2.2,1.3-3.1c0.7-0.9,1-2.1-0.1-2.7
		c-1.3-0.8-2-1.4-1.2-3c0.8-1.5,2.1-1.2,3.3-0.9C35.6,75.6,35.9,78.2,36.5,80.7z"/>
	<path class="st11" d="M92.1,23.2l0.1-0.2c0,0,0.2,0,0.2,0c-0.1,1-1.1,1.9-0.4,2.8c0.8,1,1.5-0.2,2.3-0.3c2.1,1,2.1,3.5,3.6,4.9
		c3,7.7,4.7,15.6,4.2,24c-0.2,4.2-0.9,8.2-2.4,12.1c-2.2,0.5-3.8,1.3-3.7,4.1c0,1.2-0.6,2.8-1.5,3.5c-1.2,0.9-0.8-2.1-2.7-1.4
		c2,3.7-0.3,5-3.4,5.5c-2.3,0.3-2.3,1.6-2.2,3.3c0,0,0,0,0,0c-2.6-0.7-3.7,1.4-4.3,3c-0.9,2.5-2.3,3.9-5,4.6
		c1.1,1.2,2.7,1.7,2.3,3.5c0,0,0,0,0,0c-2.6,0.4-5.8-1.5-7.6,1.4c-1.5,2.3-3.7,2.9-5.9,3.2c-5.4,0.6-10.8,0.2-16,2
		c-0.9,0.3-0.9-0.7-1.3-1c-3.4-2.6-3.9-6.4-4.5-10.3c-3.3-1.4-3.4-4.1-3.1-7c2.2,0.1,4.3,0,5.5-2.3c0.5-0.9,1.4-0.8,2.3-0.9
		c0,0.7,0.2,1.6-0.1,1.9c-4.1,3.6-0.9,8.3-2.2,12.1c3.2,1.1,0.7-5.2,4.7-3.2c0-2.6-0.1-5.4,0-8.1c0.1-1.7-0.5-2.8-2.4-2.7
		c-0.6-2.8-1.6-5.6-0.8-8.6c0.2-0.7,0.1-2-0.7-2c-3.2,0-2.5-2.1-2.6-4.1c-0.1-1.8-1.1-3.6-3.2-4c-1.3-0.2-2-1-2.9-1.7
		c-1-0.6-2.7-0.8-1.8-2.7c1.5-3.4,0.9-7.2,1.8-10.7c2.1,0.4,4.1-0.4,6.1-0.9c3.3-0.9,4.3-4.4,2.3-7.3c-1-1.4-1.5-3.5,0.6-4.3
		c2.8-1.1,4.7-2.6,6.5-5.1c2.3-3.2,2.5-3.5-1-5.4c-2.4-1.4-5.9-2.7-4.3-6.9c1.2,0,2.1-0.8,3.6,0.7c1.3,1.3,4.6,3.9,5.7,2.7
		c2.6-2.9,5.5-1.4,8.2-1.9c1.4-0.3,3.6,0.8,3.6-1.7c0-2.2-1.7-3-3.7-3c-3,0-6,0.3-9-0.1c-2.5-0.4-6.1,0.6-6.6-3.9
		c0.2,2.7-2.6,4.5-1.8,7.1c-0.9,0-1.8,0.2-2.4-0.8c-0.2-1.4,1.2-2.1,1.1-3.6c-0.3-3.8,3.8-7,7.2-5.5c2.8,1.2,5.6,1.5,8.3,1.1
		c3.4-0.5,6,2.3,9.4,1.6c0,0,0,0,0,0c0,0.7-0.1,1.3-0.1,2c0,1-1.3,2.1-0.3,2.9c1.2,1.1,1.8-1.1,2.5-0.9c2.1,0.6,4,1.7,6,2.6
		c-0.3,0.3-0.5,0.6-0.8,0.8c-0.6,0.6-0.8,1,0.3,1.3c2.3,0.7,3.5,3,3,4.6c-0.6,1.8-2.4,3.8-5.1,3.2c-1.7-1.9-3.6-1.5-4.9,0.3
		c-1.4,1.9,0.8,3.3,1.7,4c1.4,1.1,2.9,0.1,3.2-2c2.8-0.7,6.1,1.6,8.6-1.8C86.3,23.6,90.2,25.1,92.1,23.2z M94.8,36.7
		c0.1,0.3,0.2,0.7,0.3,1c0.1-0.1,0.3-0.2,0.3-0.2C95.2,37.2,95,36.9,94.8,36.7c-1.1-4.2-1.7-4.8-3.7-4.2c-5,1.6-6.2,5-3.5,9.5
		c0.9,1.5,2,1.9,3.6,1.7c1.9-0.3,2-1.6,2.1-3.2C93.4,39.2,92.3,37.2,94.8,36.7z M90.8,69.7c0.1,0.3,0.2,0.7,0.3,1
		c0.1-0.1,0.2-0.1,0.3-0.2C91.3,70.2,91.1,69.9,90.8,69.7c0-0.4-0.1-1,0.1-1.2c4.1-3.1,0.6-9.2,4.9-12.2c0.6-0.4,0-1.4-0.2-2.2
		c-0.8-3.4-4.1-4.5-6.2-6.6c-1.1-1-1.5,0-1.8,0.9c-0.5,1.1-0.8,2.9-2.6,2c-1.6-0.8-1.7-2.6-0.8-3.7c1.4-1.7,0.6-2.6-0.7-3.5
		c-1-0.7-1.3-1.5-1.4-2.6c-0.2-2.2-1-3.3-3.5-2.5c-1.4,0.4-4.2-0.1-3.7-1.6c1.6-4.7-2.2-7.2-4.2-9.8c-1.4-1.9-5.4-1.9-8-3.3
		c-0.3-0.1-1.2,0.5-1.5,1c-0.5,1-1.2,1.5-2,2.2c-3.7,3.2-3.3,10.5,0.6,13.1c1,0.7,2.3,1.2,3.6,1.5c2.6,0.6,3.6,2,2.6,4.6
		c-1.2,3.2-0.4,6.7,1.3,8.9c1.6,2.1,4.7,3,5.6,6c0.1,0.2,1.3,0.2,1.9,0c2.1-0.5,1.8-2.3,1.7-3.9c-0.1-3,2.2-3.7,4.1-3.4
		c1.4,0.2,4.1,0.6,3.2,4c-0.7,2.6-1.4,6.8,4,6.1c0.5-0.1,1.2,0.9,1.6,1.5c0.3,0.5-0.1,1.1-0.6,1.1c-2,0.2-2.5,1.5-1.9,3
		C88,71.6,89.6,69.4,90.8,69.7z M49.5,46.9c2.6-0.6,3.7,1.2,4.9,2.4c1.4,1.5,2.4,1.5,3.8,0c1.4-1.4,2.7-3.1,0.8-4.5
		c-1.8-1.3-2.5-4.3-5.2-4c-2.9,0.2-2.8,2.9-3.4,4.9C50.2,46.2,49.8,46.5,49.5,46.9z M81.4,67.9c0.5-2.1-0.6-3.6-2.8-3.5
		c-2.2,0.1-3.6,2.3-3.9,4c-0.4,2.2,1.7,2.8,3.7,2.9C80.9,71.4,81.8,70.4,81.4,67.9z M45.6,53.2c1.1-0.1,2.5,0.3,2.7-1.4
		c0.1-1.4-0.5-2.5-1.9-2.3c-1.2,0.2-3.2,0-3.3,1.9C43,52.8,44.4,53.1,45.6,53.2z M74.9,90.7c-0.2-0.1-0.5-0.3-0.6-0.2
		c-0.2,0.1-0.2,0.4-0.3,0.6c0.2,0.1,0.5,0.3,0.6,0.2C74.7,91.2,74.8,90.9,74.9,90.7z"/>
	<path class="st12" d="M48.4,13.9c-1.6,4.2,1.9,5.5,4.3,6.9c3.5,1.9,3.3,2.2,1,5.4c-1.8,2.5-3.7,4-6.5,5.1c-2.1,0.8-1.6,2.8-0.6,4.3
		c2,2.9,1,6.4-2.3,7.3c-2,0.5-4,1.3-6.1,0.9C35.2,38,36.5,31.7,38,26.5c0.9-3.3,1.4-7.4,3.6-10.5c1.1-1.6,2-3.4,4.5-2.8
		C46.6,14,47.6,13.9,48.4,13.9L48.4,13.9z"/>
	<path class="st12" d="M38.2,57.1c0.9,0.7,1.6,1.5,2.9,1.7c2,0.4,3.1,2.2,3.2,4c0.1,2-0.6,4,2.6,4.1c0.8,0,0.9,1.3,0.7,2
		c-0.8,3,0.2,5.8,0.8,8.6l0,0c-0.9,0-1.8-0.1-2.3,0.9c-1.2,2.3-3.3,2.4-5.5,2.3c-1.4-2.4-3.5-4.2-1.9-7.8c0.8-1.8-1.6-4.8-2.3-7.3
		c-0.3-0.9-1.8-2.7,1.1-2.2c0.7,0.8,0.5,2.2,1.8,2.9c0.7-1.1,0.8-2-0.2-3C39,61.3,37.8,59.3,38.2,57.1z"/>
	<path class="st6" d="M43.7,87.7c0.6,3.8,1.1,7.7,4.5,10.3c0.4,0.3,0.5,1.3,1.3,1c5.2-1.8,10.7-1.4,16-2c2.1-0.2,4.4-0.9,5.9-3.2
		c1.8-2.8,5-0.9,7.6-1.4c-1.9,3-5.3,3.4-8.1,4.7c-1,0.5-2.2,0.7-2.9,1.7c-1,0.3-2.3-0.4-3.1,0.6c-0.7,0-1.2,0.2-1.5,0.9
		c-3.9-0.7-7.7,1.1-11.6,0.8c-2.3-0.1-4.3-0.4-6.1-1.8c-1.8-3-4-5.8-5-9.3C41.6,89.3,42.7,88.5,43.7,87.7z"/>
	<path class="st7" d="M38.8,15.7c-1.2-0.5-1.7-1.4-1.2-2.5c0.6-1.4,1.5-0.3,2.3-0.1C40,14.2,39.6,15,38.8,15.7z"/>
	<path class="st11" d="M39,63.4c1,0.9,0.9,1.8,0.2,3c-1.4-0.7-1.1-2.1-1.8-2.9C37.9,63.4,38.5,63.4,39,63.4z"/>
	<path class="st0" d="M62.6,1.9c-0.1-0.1-0.2-0.1-0.3-0.2c0.1-0.1,0.2-0.2,0.3-0.2c0.1,0,0.2,0.1,0.3,0.2
		C62.8,1.8,62.7,1.8,62.6,1.9z"/>
	<path class="st6" d="M79.1,92.5c0.4-1.7-1.2-2.3-2.3-3.5c2.7-0.7,4.2-2.1,5-4.6c0.6-1.6,1.7-3.7,4.3-3c-0.5,2.1-2.9,3.2-3.1,5.5
		c-0.3,0.3-1,0.4-0.3,1c0.1-0.3,0.2-0.7,0.3-1c3.7-1.2,4.9-4.9,7.2-7.7c-1.3,0.7-2.7,1.4-4,2.2c-0.1-1.7,0-3,2.2-3.3
		c3.1-0.4,5.4-1.8,3.4-5.5c1.9-0.7,1.5,2.4,2.7,1.4c0.9-0.7,1.5-2.3,1.5-3.5c-0.1-2.8,1.5-3.6,3.7-4.1c-0.7,4.2-2.7,7.7-5.1,11.1
		c-0.9,1.3-2,2.7-2.1,4.5c-3.8,1.7-5.7,5.6-9,7.9C82.1,91.1,81.1,92.7,79.1,92.5z"/>
	<path class="st5" d="M89.3,15.7c-0.5,0.2-1,0.4-1.5,0.6c-0.3-0.3-0.6-0.5-0.9-0.8c0,0,0,0,0,0C87.7,15.5,88.5,15.6,89.3,15.7z"/>
	<path class="st5" d="M63.4,100.4c0.3-0.7,0.9-0.8,1.5-0.9C64.8,100.5,64.7,101.5,63.4,100.4z"/>
	<path class="st6" d="M86.9,15.5c0.3,0.3,0.6,0.5,0.9,0.8c0.6,2.8,4.4,3.6,4.3,6.9c-1.9,1.9-5.7,0.5-5.9,0.7c-2.5,3.4-5.8,1-8.6,1.8
		c0-0.8,0-1.6,0-2.4c2.7,0.5,4.5-1.5,5.1-3.2c0.5-1.6-0.6-3.9-3-4.6c-1.1-0.3-0.8-0.7-0.3-1.3c0.3-0.3,0.5-0.6,0.8-0.8
		c-2-0.9-4-1.9-6-2.6c-0.7-0.2-1.3,2-2.5,0.9c-0.9-0.8,0.3-1.9,0.3-2.9c0-0.7,0-1.3,0.1-2c4.4,1.5,8.6,3.6,12,6.8
		C84.9,14.4,85.6,15.4,86.9,15.5z"/>
	<path class="st6" d="M94.3,25.5c-0.8,0.1-1.5,1.3-2.3,0.3c-0.7-0.9,0.3-1.8,0.4-2.8C94.1,23.1,93.7,24.6,94.3,25.5z"/>
	<path class="st12" d="M90.8,69.7c-1.2-0.3-2.8,1.9-3.7-0.2c-0.6-1.5-0.1-2.8,1.9-3c0.6-0.1,1-0.6,0.6-1.1c-0.4-0.6-1.1-1.6-1.6-1.5
		c-5.5,0.7-4.7-3.5-4-6.1c0.8-3.4-1.8-3.8-3.2-4c-1.9-0.3-4.2,0.4-4.1,3.4c0.1,1.5,0.4,3.3-1.7,3.9c-0.6,0.2-1.8,0.2-1.9,0
		c-0.9-3-4-4-5.6-6c-1.7-2.2-2.5-5.7-1.3-8.9c0.9-2.5-0.1-3.9-2.6-4.6C62.3,41,61,40.6,60,39.9c-3.9-2.6-4.3-9.9-0.6-13.1
		c0.8-0.7,1.5-1.2,2-2.2c0.2-0.5,1.2-1.2,1.5-1c2.6,1.4,6.6,1.3,8,3.3c2,2.6,5.7,5.1,4.2,9.8c-0.5,1.4,2.3,2,3.7,1.6
		c2.6-0.8,3.4,0.3,3.5,2.5c0.1,1.1,0.3,2,1.4,2.6c1.3,0.9,2,1.8,0.7,3.5c-0.9,1.1-0.8,2.9,0.8,3.7c1.8,0.9,2.2-0.8,2.6-2
		c0.4-0.9,0.8-2,1.8-0.9c2.2,2.1,5.4,3.2,6.2,6.6c0.2,0.8,0.9,1.7,0.2,2.2c-4.4,3-0.9,9.1-4.9,12.2C90.8,68.7,90.9,69.3,90.8,69.7
		L90.8,69.7z"/>
	<path class="st12" d="M48.4,13.9c-0.8-2.7,2-4.4,1.8-7.1c0.5,4.4,4.1,3.5,6.6,3.9c2.9,0.4,6,0.1,9,0.1c2.1,0,3.8,0.8,3.7,3
		c0,2.5-2.2,1.4-3.6,1.7c-2.7,0.5-5.6-1-8.2,1.9c-1.1,1.2-4.4-1.4-5.7-2.7C50.6,13.1,49.7,13.9,48.4,13.9
		C48.4,13.9,48.4,13.9,48.4,13.9z"/>
	<path class="st12" d="M94.8,36.7c-2.4,0.5-1.3,2.5-1.5,3.8c-0.1,1.5-0.3,2.9-2.1,3.2c-1.5,0.2-2.7-0.2-3.6-1.7
		c-2.7-4.5-1.5-7.9,3.5-9.5C93.1,31.9,93.6,32.5,94.8,36.7L94.8,36.7z"/>
	<path class="st12" d="M49.5,46.9c0.3-0.4,0.7-0.7,0.9-1.2c0.6-2,0.5-4.7,3.4-4.9c2.8-0.2,3.4,2.7,5.2,4c1.9,1.4,0.6,3.1-0.8,4.5
		c-1.4,1.4-2.5,1.5-3.8,0C53.2,48.1,52.1,46.3,49.5,46.9z"/>
	<path class="st6" d="M48.4,77.5c1.9-0.1,2.4,0.9,2.4,2.7c-0.1,2.7,0,5.5,0,8.1c-4-2-1.5,4.3-4.7,3.2c1.3-3.8-1.9-8.5,2.2-12.1
		C48.6,79.1,48.4,78.2,48.4,77.5C48.4,77.5,48.4,77.5,48.4,77.5z"/>
	<path class="st12" d="M81.4,67.9c0.4,2.5-0.5,3.6-3,3.4c-2-0.1-4.1-0.7-3.7-2.9c0.3-1.8,1.7-3.9,3.9-4
		C80.8,64.2,81.9,65.7,81.4,67.9z"/>
	<path class="st12" d="M77.5,23.3c0,0.8,0,1.6,0,2.4c-0.3,2-1.7,3.1-3.2,2c-0.9-0.7-3.2-2.1-1.7-4C73.9,21.9,75.7,21.4,77.5,23.3z"
		/>
	<path class="st12" d="M45.6,53.2c-1.3,0-2.6-0.4-2.5-1.8c0.1-1.9,2.1-1.8,3.3-1.9c1.4-0.2,2,1,1.9,2.3
		C48.2,53.5,46.7,53.1,45.6,53.2z"/>
	<path class="st6" d="M74.9,90.7c-0.1,0.2-0.1,0.6-0.3,0.6c-0.2,0.1-0.4-0.2-0.6-0.2c0.1-0.2,0.1-0.6,0.3-0.6
		C74.4,90.4,74.6,90.6,74.9,90.7z"/>
	<path class="st6" d="M90.9,69.7c0.2,0.3,0.4,0.6,0.6,0.8c-0.1,0.1-0.2,0.1-0.3,0.2C91.1,70.4,90.9,70,90.9,69.7
		C90.8,69.7,90.9,69.7,90.9,69.7z"/>
	<path class="st12" d="M94.8,36.7c0.2,0.3,0.4,0.6,0.5,0.9c0,0-0.2,0.1-0.3,0.2C95,37.4,94.9,37.1,94.8,36.7
		C94.8,36.7,94.8,36.7,94.8,36.7z"/>
	<path class="st8" d="M83,87c0.2-2.3,2.6-3.3,3.1-5.5c0,0,0,0,0,0c1.3-0.7,2.7-1.4,4-2.2C87.9,82,86.7,85.7,83,87L83,87z"/>
	<path class="st8" d="M83,87c-0.1,0.3-0.2,0.7-0.3,1C82,87.4,82.7,87.2,83,87C83,87,83,87,83,87z"/>
</g>
<g>
	<path class="st13" d="M90.8,126.5H15c-2.2,0-4-1.8-4-4v-23c0-2.2,1.8-4,4-4h75.8c2.2,0,4,1.8,4,4v23
		C94.8,124.7,93,126.5,90.8,126.5z"/>
	<g>
		<path class="st14" d="M31.9,113c-0.1-2-0.1-4.4-0.1-6.8h-0.1c-0.5,2.1-1.2,4.4-1.8,6.4l-2,6.4H25l-1.8-6.4
			c-0.5-1.9-1.1-4.3-1.5-6.4l0,0c-0.1,2.2-0.2,4.8-0.3,6.8l-0.3,6.3h-3.4l1.1-16.5h5l1.6,5.5c0.5,1.9,1,4,1.4,5.9h0.1
			c0.5-1.9,1-4.1,1.6-5.9l1.8-5.5h4.9l0.9,16.5h-3.6L31.9,113z"/>
		<path class="st14" d="M53.7,110.9c0,5.4-3.3,8.7-8.1,8.7c-4.9,0-7.7-3.7-7.7-8.4c0-4.9,3.2-8.6,8-8.6
			C51,102.6,53.7,106.3,53.7,110.9z M41.8,111.1c0,3.2,1.5,5.5,4,5.5s4-2.4,4-5.6c0-3-1.4-5.5-4-5.5
			C43.3,105.5,41.8,107.9,41.8,111.1z"/>
		<path class="st14" d="M71.2,110.9c0,5.4-3.3,8.7-8.1,8.7c-4.9,0-7.7-3.7-7.7-8.4c0-4.9,3.2-8.6,8-8.6
			C68.5,102.6,71.2,106.3,71.2,110.9z M59.3,111.1c0,3.2,1.5,5.5,4,5.5c2.5,0,4-2.4,4-5.6c0-3-1.4-5.5-4-5.5
			C60.8,105.5,59.3,107.9,59.3,111.1z"/>
		<path class="st14" d="M73.7,119.3v-16.5H78l3.4,6c1,1.7,2,3.8,2.7,5.6h0.1c-0.2-2.2-0.3-4.4-0.3-6.9v-4.8h3.4v16.5h-3.9l-3.5-6.4
			c-1-1.8-2.1-3.9-2.9-5.8h-0.1c0.1,2.2,0.1,4.5,0.1,7.2v5h-3.3V119.3z"/>
	</g>
</g>
</svg>
