<?xml version="1.0" encoding="utf-8"?>
<!-- Generator: Adobe Illustrator 25.0.0, SVG Export Plug-In . SVG Version: 6.00 Build 0)  -->
<svg version="1.1" id="Layer_1" xmlns="http://www.w3.org/2000/svg" xmlns:xlink="http://www.w3.org/1999/xlink" x="0px" y="0px"
	 width="105.5px" height="129px" viewBox="0 0 105.5 129" style="enable-background:new 0 0 105.5 129;" xml:space="preserve">
<style type="text/css">
	.st0{fill:#FCFCFC;}
	.st1{fill:#2D3C44;}
	.st2{fill:#495C64;}
	.st3{fill:#E5E8EA;}
	.st4{fill:#D0D7D8;}
	.st5{fill:#EBEDEE;}
	.st6{fill:#A5B0B2;}
	.st7{fill:#EEF1F2;}
	.st8{fill:#B7C0C4;}
	.st9{fill:#252D32;}
	.st10{fill:#4B5D65;}
	.st11{fill:#48A6DD;}
	.st12{fill:#FFFFFF;}
</style>
<g>
	<path class="st0" d="M23.3,102.2c2.6,2.2,5.4,0.8,8,1.2c3.3,0.9,3.8-1.6,4.7-3.8c2.7-0.4,4.9,1.2,7.5,1.6c13.2,2,25.9,2.1,36.6-7.4
		c0.6,2,2.2,2.2,3.8,0.2c1-1.2,1.9-2.2,3.4-2.3c6-0.7,6-0.6,6.1-6.3c0-0.5,0-1,0-1.6c2.2,0,1.4,2.6,2.8,3.2c1.9-0.7,0.2-3.8,2.8-4
		c0.3,2,0.6,4.1,0.8,6.2c0.1,1.1,0.7,1.5,1.7,1.7c3.8,0.8,5.3-1.4,4.5-6c-0.4-2.2-2.5-2.4-3-1.5c-1.9,3.2-2.8-0.5-4.1-0.3
		c0.1-0.9-0.8-1.7,0.6-2.6c1.6-1.1,1.7-2.8-0.6-3.7c-0.3-0.3-0.5-0.6-0.8-0.9c0-0.2,0-0.4-0.1-0.6c0.5,0,1.1,0,1.6,0
		c1.7,0.1,3.3-0.5,3.5-2.2c0.2-1.3-1.3-0.8-2.1-0.9c2.7-1.9,2.8-4.7,2.5-7.6c-0.1-1.1-0.1-2.3-0.1-3.4c0.3-1,0.6-2,0.9-3
		c0.1-3.2,0.3-6.4,0.4-9.6c1.4-0.8,1-1.3-0.2-1.8l-0.2,0c0.1-0.5,0.1-1,0.2-1.5c1.2-1.4-0.9-1.5-1-2.4c-0.1-1.4,0.4-2.9-0.8-4.1
		c0-0.2,0-0.5-0.1-0.7c-0.5-2.9-1-5.8-1.6-8.6c2.1-0.1,3.8,0.2,2.9,3c-0.8,2.5,1.3,4.1,2.3,5.9c0.5,0.8,1.7,0.4,1.8-0.4
		c0.2-2.5,0.1-5,0.2-7.5c0-1.7-1.3-1.6-2.4-2.1c-0.7-0.3-1-1.2-0.7-1.6c1.9-2.1-0.3-3.8-1.1-4.7c-1.1-1.1-1.8-3.6-2.7-3.4
		c-2.8,0.8-5.4-0.9-8.1-0.3c-0.1-0.8-0.2-1.5-0.3-2.3c0.6-2.5-0.5-3.4-2.9-3.1c-0.9,0.1-1.4,0.3-2.4-0.4C84.5,10,80.8,7.9,76.2,8
		l-0.1,0c-0.2-1.2-0.8-1.6-2-1.3c-0.7-0.4-1.3-0.8-2-1.2c0.3-2.3,1.4-5.1-2.4-5.2C66,0.3,62.1-0.2,58.2,0.8c-3.5,1-8.1,0.8-10.2-1.1
		c-3.6-3.3-3.3,0.1-4.7,1.1c0.9,1.5,3.3-0.1,3.6,2.1c-2.3,0.4-4.6,0.9-7,1.3c-1.9-1.4-4.2-1.7-6.5-1.7c-0.9,0-2.1,0-2.1,1.2
		c0,2.2-1.9,3.2-2.5,5c-0.3,0.7-0.9,0.9-1.6,0.8c-2-2-4.7-1.9-6.9-1.1c-1.2,0.4-0.2,2.6-0.6,4c1.5,0.1,2.7-2.3,3.9,0
		c-0.2,0.3-0.3,0.6-0.5,0.9C14.6,19.9,9.2,28.6,5.9,38.8c-0.1,0.6-0.3,1.3-0.4,1.9c-2.5,11.8-1.7,23,3.7,34
		c3.1,6.4,8,11.1,12.6,16.2C21.2,94.8,19.3,98.7,23.3,102.2"/>
	<path class="st0" d="M113.8,30.9c0,0,0.1,0,0.1,0c0-1.6,0-3.1,0-4.7c0-1.2,0.1-2.6-1.4-2.8c-1.6-0.2-1.9,1.4-1.9,2.4
		c-0.1,4,0.1,8,0.2,11.9c0,1.2,0.1,3.1,1.8,2.8c1-0.2,2.1-1.7,1.7-3.5C114,35.1,114,33,113.8,30.9z"/>
	<path class="st0" d="M114,71.6c0,0-0.1,0-0.1,0c0-1.7,0.1-3.4,0-5.1c-0.1-0.8-0.7-1.4-1.6-1.5c-0.8-0.1-1.4,0.4-1.3,1.1
		c0.3,2.9-1.6,5.6-0.6,8.5c0.4,1.1,0.3,2.9,2.2,2.8c2-0.1,1.4-1.8,1.5-3C114,73.4,114,72.5,114,71.6z"/>
	<path class="st1" d="M23.2,13.4c0.2-0.3,0.3-0.6,0.5-0.9c1.5-0.6,2.5-1.7,3.6-2.9c0.7,0.1,1.3-0.1,1.6-0.8c3.7-1.5,7.4-3,11.1-4.5
		c2.3-0.4,4.6-0.9,7-1.3c4.2-0.4,8.4-0.1,12.7,0.1c4.5,0.1,8.4,2.2,12.7,2.5c0.7,0.4,1.3,0.8,2,1.2c0.5,0.7,1,1.3,2,1.3l0.1,0
		c0,0.2,0,0.4,0,0.6c-0.2,2.8,1.3,5.4,3.4,6c3.4,1.1,2.8,2.5,0.8,5.3c2.6-1,4-0.1,4.9,1.4c0.4,0.6,0.1,1.2-0.5,1.7
		c-1.7,1.3-3.2,0-4.8-0.2c-0.5-0.1-0.8-1-1.3-1.4c-2-1.4-2.5-0.2-2.5,1.6c-1.7,0.2-2.5,1.2-2.3,2.9c0.1,1,0.8,1.7,1.8,1.7
		c2,0,2-1.6,2.2-3.1c1.3,1.3,4.4-1,4.5,1.8c0.1,3.5,2.5,3.1,4.1,2.6c2.8-0.8,5.3-0.3,8,0.3c1,1.6,3.2,2.8,2.3,5.2
		c0.2,0.4,0.5,0.7,0.7,1.1c0.1,0.2,0.1,0.4,0.1,0.7c-0.1,0.3-0.1,0.6-0.2,0.9c-0.7-0.1-1.2,0.2-1.5,0.8c-1.2-0.6-1.3-1.8-1.7-2.9
		c-0.5-1.6-2-1.9-3.5-1.8c-1.3,0-2.4,0.5-2.5,1.9c-0.3,2.9,0,5.8,2.3,7.9c1.8,1.7,3.3,1.7,3.8-1.1c0.2-1.3,0.2-2.6,1.6-3.3
		c1,0.5,1.4,1.3,1.6,2.4c0.8,4.3,1.4,8.6,1.5,13c0,1.3-0.7,3,1.5,3.4c0.3,0.9,0.3,1.7-0.5,2.4c-3.5,2.6-3.6,6.3-3.1,10.1
		c0.5,1.5-0.2,2.7-0.9,4c-0.4,0.9-0.4,1.9,1.2,1.5c0,0,0.1,0.1,0.1,0.1l0.1-0.1c-2.9-0.2-3.6,1.8-3.8,4.1l-0.2,0.1l0.1,0.2
		c-1.1,0.3-1.8,0.8-1.4,2.1c-0.2,0.5-1,0.9-0.2,1.5l0.1-0.1c-1.1-0.8-1.3,0.1-1.6,0.9c0,0,0,0,0,0c-0.4,0.2-0.8,0.5-1.2,0.7
		c-2.2,3.7-6.4,5.3-9,8.7c-10.8,9.6-23.5,9.4-36.6,7.4c-2.6-0.4-4.8-2-7.5-1.6c-2.4-1.9-5.1-3.5-8.3-3.4c-1.1-2.7-3.8-3.7-5.9-5.3
		c-4.6-5.1-9.5-9.7-12.6-16.2C3.8,63.6,3,52.4,5.5,40.6c0.1-0.6,0.3-1.3,0.4-1.9c1.4,1.1,1,2.7,0.9,4c-0.4,5,0.8,9.6,3.2,13.9
		c0.4,0.7,0.6,1.4,0.7,2.2c1,6.3,3.3,8.3,9.5,8.3c0.9,0,1.8-0.1,2.7,0.1c1.7,0.3,2.3,1.7,2.6,3.1c0.3,1.6-1.2,2-2.3,2.1
		c-1.8,0.3-3.9,1-3.6,2.8c0.4,2.1,1.1,4.6,3.7,5.6c2.1,0.8,4,0.5,5.5-1c1.6-1.5,0.8-3.1-0.6-4.4c-1.1-1.1-0.8-2.8,0.1-3
		c2.7-0.4,3.6-4.2,6.6-3.3c1.1,0.3,1.2,1.7,0.4,2.6c-0.9,1-1.9,1.7-3,2.5c-1.1,0.9-1.7,1.8-0.4,2.9c2,1.7,2.3,3.1-0.3,4.4
		c-0.6,0.3-0.6,1.2-0.3,1.8c0.3,0.9,1.2,1,2,0.8c1.3-0.2,2.3-1.1,3.5-1.8c1.3-0.8,2.7-2.4,4.2-1.6c3.8,1.9,4.6-1.7,6.5-3.1
		c1.9-1.4,0.1-2.5-0.7-3.5c-0.9-1.1-0.1-2,0.4-2.9c0.4-0.8,1.7-1.7,1-2.3c-2.5-2.1-2.5-5.7-4.9-7.9c-0.7-0.7-1.2-1.4-2.2-0.5
		c-0.7,0.6-1.4,1.3-0.8,2.4c0.5,0.9,2,2.2,0.3,2.9C39.1,66.7,37,65.6,37,64c0-2.7-1.9-3.8-3.4-5.3c-2.9-2.9-4-6.6-3.9-10.6
		c0.2-4.8,3.2-7.1,7.9-6.4c1.2,0.2,2.5,0.7,3.7,1.1c3.1,1.1,5.7-0.5,7.3-3c1.5-2.4-1.2-2.9-2.6-3.8c-2.1-1.3-1.5-2.4,0.2-3.5
		c2-1.3,4-2.5,6-3.8c5.2-3.4,5.2-3.4,0.4-6.9c-0.8-0.6-1.5-1.5-2.3-2.1c-3.7-2.9-7.4-6-12.3-1.8c-0.6,0.5-1.8,0.4-2.7,0.4
		c-2.5-0.2-4.1,0.1-4.5,3.3c-0.2,1.5-2,3-3.2,4.3c-0.6,0.6-1.5,1.2-2.5,0.6c-0.9-0.5-1.2-1.5-1-2.4c0.5-3.1,0.5-6.6,4.6-7.6
		c2-0.5,3.6-2.1,5.7-2.4c0.9-0.1,1.6-1,1.3-2.1c-0.3-1-1.2-1-2-0.8c-2.4,0.6-4.7,1.3-6.7,2.9C25.5,15.4,24,16,23.2,13.4z M96.7,57.7
		c-0.1-3.6-3-8.2-5.8-8.2c-2.9,0-3.9,3.1-4.8,5.4c-2,4.9-1.1,6.8,3.8,9.4c1.2,0.6,1.4,1.4,0.5,2.5c-0.6,0.8-1.3,1.6-1.8,2.5
		c-0.5,0.8-0.9,1.8,0.2,2.3c0.8,0.4,1.5-0.1,2-0.7c2.1-2.7,4.5-5.4,3.4-9.1c-0.8-2.6,0.7-2.5,2.4-2.5c0.8,0,1.7-0.1,1.6-1.2
		C98,57,97.2,57.6,96.7,57.7z M73.2,39.8c3.8-2.2,2.5-4.9,1-7.9c-2.2-4.5-6.7-4.9-10.5-6.3c-1.2-0.5-2.2,0.6-3,1.5
		c-5.4,6.4-3.2,12.4,5.3,15.1c1.9,0.6,5.8,0.7,1.4,3.8c-0.7,0.5-0.7,1.1-0.3,1.7c1.1,1.8,1,3.7,1.1,5.7c0.1,1.3,0.6,2.7,1.9,3.2
		c1.8,0.8,5.4-0.3,3.4,3.9c-0.2,0.3,1.5,1.3,2.6,0.5c1.2-0.8,1.6-2.1,1.4-3.4c-0.5-3.2,0.9-4.6,4-3.6c2.4,0.7,2.2-0.5,2.4-2.1
		c0.4-3.4-0.3-6.5-1.4-9.8c-0.9-2.9-2.2-3.1-4.1-2C76.8,41.2,75.3,41.5,73.2,39.8z M66.6,15.9c1.5,0,2.7,0,3-1.3
		c0.3-1.3-0.9-1.8-1.9-2.1c-1-0.3-2-0.5-3-0.5c-6.1,0.1-12.3,0-18.1-2.2c-1.6-0.6-3.1,0.2-4.3,1.3c-0.8,0.7-0.9,1.7-0.4,2.5
		c0.6,0.9,1.4,0.3,2.1,0c4-1.8,7.4-0.4,10.5,2c1.5,1.2,2.9,1.4,4.4,1C61.4,15.8,64,14.5,66.6,15.9z M55.6,42.8c-2.5,0-3,0.3-3.1,2
		c-0.1,2.4,2.6,4.8,5.5,5c2,0.1,2.5-1.1,2.4-2.7C60.1,43.8,57.6,43.2,55.6,42.8z M82.5,68.7c0.2-1.9-1-2.8-2.5-2.9
		c-1.9-0.1-2.9,1.2-2.9,3c0,1.6,1,2.9,2.6,3C81.4,71.8,82.2,70.4,82.5,68.7z M73.8,11.4c-1.9,2.1-1.3,4.3-2.8,5.9
		c2.3-1.4,3.2,0.7,4.5,1.6C77.6,15.5,72.8,14.7,73.8,11.4z M48.4,52.9c0.1-1.2-0.5-2-1.7-2.2c-1.3-0.2-2.4,0.1-2.7,1.6
		c-0.2,1.4,1,1.7,2,2C47.2,54.7,48,54.2,48.4,52.9z M51.8,58.5c1-0.1,2-0.3,2-1.4c0-1.3-1-1.6-2.1-1.6c-1,0-1.9,0.4-1.9,1.4
		C49.7,58.2,50.8,58.4,51.8,58.5z"/>
	<path class="st2" d="M23.2,13.4c0.7,2.7,2.3,2.1,3.8,0.8c2-1.6,4.3-2.4,6.7-2.9c0.7-0.2,1.7-0.1,2,0.8c0.4,1.1-0.3,1.9-1.3,2.1
		c-2.2,0.3-3.7,1.8-5.7,2.4c-4.1,1-4.1,4.5-4.6,7.6c-0.2,0.9,0.1,1.9,1,2.4c1,0.5,1.9-0.1,2.5-0.6c1.2-1.3,3-2.8,3.2-4.3
		c0.4-3.2,2-3.5,4.5-3.3c0.9,0.1,2.1,0.1,2.7-0.4c4.8-4.3,8.5-1.1,12.3,1.8c0.8,0.6,1.5,1.5,2.3,2.1c4.8,3.5,4.8,3.5-0.4,6.9
		c-2,1.3-4,2.5-6,3.8c-1.7,1.1-2.4,2.1-0.2,3.5c1.4,0.9,4,1.4,2.6,3.8c-1.6,2.6-4.2,4.1-7.3,3c-1.2-0.4-2.4-0.9-3.7-1.1
		c-4.7-0.8-7.8,1.6-7.9,6.4c-0.1,4,1,7.7,3.9,10.6c1.5,1.5,3.4,2.6,3.4,5.3c0,1.6,2.1,2.7,3.6,2.1c1.7-0.7,0.2-1.9-0.3-2.9
		c-0.5-1.1,0.1-1.7,0.8-2.4c1-0.9,1.5-0.2,2.2,0.5c2.3,2.2,2.4,5.7,4.9,7.9c0.7,0.6-0.7,1.5-1,2.3c-0.4,0.9-1.2,1.8-0.4,2.9
		c0.8,1,2.6,2.1,0.7,3.5c-1.9,1.4-2.8,5.1-6.5,3.1c-1.5-0.8-2.9,0.8-4.2,1.6c-1.1,0.7-2.1,1.5-3.5,1.8c-0.8,0.1-1.6,0.1-2-0.8
		c-0.2-0.6-0.3-1.5,0.3-1.8c2.5-1.4,2.3-2.8,0.3-4.4c-1.3-1.1-0.7-2,0.4-2.9c1-0.8,2.1-1.6,3-2.5c0.8-0.9,0.7-2.3-0.4-2.6
		c-3-0.8-3.9,2.9-6.6,3.3c-0.9,0.2-1.3,1.9-0.1,3c1.4,1.3,2.2,2.9,0.6,4.4c-1.5,1.4-3.4,1.8-5.5,1c-2.5-1-3.3-3.5-3.7-5.6
		c-0.3-1.9,1.7-2.5,3.6-2.8c1.1-0.2,2.6-0.6,2.3-2.1c-0.3-1.4-0.8-2.9-2.6-3.1c-0.9-0.1-1.8-0.1-2.7-0.1c-6.2,0-8.5-2.1-9.5-8.3
		c-0.1-0.8-0.3-1.5-0.7-2.2c-2.4-4.3-3.6-8.9-3.2-13.9c0.1-1.3,0.5-2.9-0.9-4C9.2,28.6,14.6,19.9,23.2,13.4z"/>
	<path class="st3" d="M97.2,75.8c-1.5,0.4-1.6-0.6-1.2-1.5c0.6-1.3,1.4-2.5,0.9-4.1c2.9-2.8,2.7-6.5,3.1-10.1
		c0.8-0.7,0.8-1.5,0.5-2.4c0.4-4.2,0.6-8.4-0.1-12.6c0.3-0.9,0.1-1.7-0.6-2.4c-0.3-1.6,0.1-3.3-1.2-4.6c0.7-1.2-0.5-1.3-1.1-1.8
		c0.1-0.2,0-0.4-0.1-0.7c0.2-0.6-0.2-0.9-0.7-1.1c0.9-2.5-1.3-3.6-2.3-5.2c0.2-2.1-1.4-3.5-1.7-5.5c0-0.3,0-0.5,0-0.8
		c0.5,0,1-0.1,1.6-0.1c0,0.7,0.1,1.3,0.8,1.7c0.6,1.3,3.1,1.3,2.9,1.7c-1.3,3.7,2.3,5.9,2.6,9.1c0.1,1.4,0.6,2.6,2.3,2.5
		c0,0.2,0.1,0.5,0.1,0.7c-1.6,1.7-1.1,3,0.8,4.1c0.2,0.9,2.2,0.9,1,2.4c-1.9-0.8-1.9,0.3-1.5,1.7c0.9,3.7-0.6,7.7,1.4,11.2
		c-0.3,1-0.6,2-0.9,3c-2.2,3.1-1.8,7.1-4,10.2c-2.2,0.5-2.1,2.3-2.3,3.9C97.3,75.3,97.2,75.5,97.2,75.8z"/>
	<path class="st3" d="M93.4,18.4c2.7-0.7,5.3,1,8.1,0.3c1-0.3,1.7,2.3,2.7,3.4c0.9,0.9,3,2.5,1.1,4.7c-0.4,0.4,0,1.4,0.7,1.6
		c1,0.4,2.4,0.4,2.4,2.1c-0.1,2.5,0,5-0.2,7.5c-0.1,0.9-1.3,1.2-1.8,0.4c-1-1.8-3.1-3.4-2.3-5.9c0.9-2.8-0.7-3.1-2.9-3
		c0.3-0.9,1.5-2,0.2-2.7c-1.2-0.7-0.4,2.1-1.6,1.7c-1.2-1.7,0.1-4.8-3.4-4.4c0-1.1-0.7-1.5-1.7-1.6C95,20.8,92.8,20.1,93.4,18.4z"/>
	<path class="st4" d="M72.3,5.5c-4.3-0.3-8.2-2.3-12.7-2.5C55.4,2.9,51.1,2.6,46.9,3c-0.3-2.1-2.6-0.6-3.6-2.1
		c1.4-1,1.1-4.4,4.7-1.1c2.1,1.9,6.7,2,10.2,1.1c3.9-1.1,7.8-0.6,11.7-0.5C73.6,0.4,72.6,3.3,72.3,5.5z"/>
	<path class="st4" d="M76.2,8.6c0-0.2,0-0.4,0-0.6c4.5-0.1,8.2,2,11.6,4.6c0.9,0.7,1.5,0.5,2.4,0.4c2.4-0.4,3.5,0.6,2.9,3.1
		c-2.4-0.8-0.8,2-2,2.2c-0.8,0-1.5,0.3-1.8,1.1C85.5,15.1,80.9,11.8,76.2,8.6z"/>
	<path class="st5" d="M23.3,102.2c-3.9-3.5-2.1-7.4-1.5-11.3c2,1.7,4.8,2.6,5.9,5.3c-1.8,0.2-2,1.4-1.8,2.8c0.2,1.4,1.1,2,2.4,2
		c1.7,0,3.2,0,3.1,2.4C28.6,103,25.8,104.4,23.3,102.2"/>
	<path class="st6" d="M80.1,93.8c2.6-3.3,6.8-5,9-8.7c0.3,0.2,0.7,0.6,0.8,0.5c0.6-0.2,0.5-0.7,0.3-1.2c0,0,0,0,0,0
		c0.9,0.3,1.5,0.1,1.6-0.9c0,0-0.1,0.1-0.1,0.1c0.6,0,1.1,0.1,1.7,0.1l0,0c0,0.5,0,1,0,1.6c-0.1,5.7-0.1,5.6-6.1,6.3
		c-1.5,0.2-2.4,1.1-3.4,2.3C82.3,96,80.7,95.8,80.1,93.8z"/>
	<path class="st3" d="M113.8,30.9c0.2,2.1,0.2,4.2,0.5,6.2c0.3,1.8-0.7,3.3-1.7,3.5c-1.7,0.3-1.7-1.6-1.8-2.8c-0.2-4-0.3-8-0.2-11.9
		c0-1,0.3-2.6,1.9-2.4c1.5,0.2,1.4,1.6,1.4,2.8c0,1.6,0,3.1,0,4.7C113.9,30.9,113.9,30.9,113.8,30.9z"/>
	<path class="st4" d="M31.3,103.4c0.2-2.3-1.4-2.4-3.1-2.4c-1.3,0-2.2-0.6-2.4-2c-0.2-1.4,0.1-2.6,1.8-2.8c3.3-0.1,5.9,1.4,8.3,3.4
		C35.1,101.8,34.6,104.3,31.3,103.4z"/>
	<path class="st3" d="M99,83c1.3-0.1,2.2,3.5,4.1,0.3c0.5-0.9,2.6-0.6,3,1.5c0.8,4.6-0.8,6.8-4.5,6c-1-0.2-1.6-0.6-1.7-1.7
		C99.6,87,99.3,85,99,83C99,82.9,99,83,99,83z"/>
	<path class="st7" d="M114,71.6c0,0.9,0.1,1.8,0,2.7c-0.1,1.2,0.5,2.9-1.5,3c-1.9,0.1-1.8-1.7-2.2-2.8c-0.9-2.9,0.9-5.6,0.6-8.5
		c-0.1-0.7,0.5-1.1,1.3-1.1c0.9,0.1,1.5,0.7,1.6,1.5c0.1,1.7,0,3.4,0,5.1C113.9,71.6,113.9,71.6,114,71.6z"/>
	<path class="st8" d="M96.6,23.9c3.5-0.4,2.2,2.7,3.4,4.4c1.1,0.4,0.4-2.4,1.6-1.7c1.3,0.8,0.1,1.8-0.2,2.7c0.5,2.9,1,5.8,1.6,8.6
		c-1.8,0.1-2.2-1.1-2.3-2.5c-0.2-3.2-3.9-5.4-2.6-9.1c0.1-0.4-2.3-0.4-2.9-1.7C95.4,24,96,23.9,96.6,23.9z"/>
	<path class="st4" d="M39.9,4.3c-3.7,1.5-7.4,3-11.1,4.5c0.7-1.7,2.5-2.8,2.5-5c0-1.2,1.2-1.2,2.1-1.2C35.8,2.6,38,2.9,39.9,4.3z"/>
	<path class="st3" d="M99.1,76.6c2.3,0.9,2.2,2.7,0.6,3.7c-1.4,0.9-0.5,1.7-0.6,2.6c0,0,0,0,0,0c-2.6,0.2-0.9,3.3-2.8,4
		c-1.4-0.6-0.5-3.3-2.8-3.2c0,0,0,0,0,0c0-0.2,0-0.5-0.1-0.7c2.9,0.3,3.2-1.3,2.4-3.5c-0.1-1.3,0.3-2.3,1.4-2.9
		C97.9,77.7,98.5,77.5,99.1,76.6z"/>
	<path class="st4" d="M27.3,9.6c-1.1,1.1-2.1,2.2-3.6,2.9c-1.2-2.4-2.3,0.1-3.9,0c0.3-1.4-0.7-3.5,0.6-4C22.6,7.7,25.3,7.6,27.3,9.6
		z"/>
	<path class="st8" d="M99.7,71.2c2.2-3.1,1.8-7.1,4-10.2c0,1.1,0,2.3,0.1,3.4c0.2,2.9,0.1,5.7-2.5,7.6c-0.5,0.3-1,0.6-1.6,0.9
		C99.7,72.3,99.7,71.8,99.7,71.2z"/>
	<path class="st8" d="M91.1,18.3c1.2-0.3-0.3-3,2-2.2c0.1,0.8,0.2,1.5,0.3,2.3c-0.6,1.7,1.6,2.4,1.5,3.9c-0.2,0.2-0.5,0.4-0.7,0.6
		c-0.5,0-1,0.1-1.6,0.1c0,0,0,0,0,0c0.3-1.2-0.4-2.1-0.9-3.1c-0.2-0.3-0.4-0.6-0.7-0.9C91.1,18.8,91.1,18.6,91.1,18.3z"/>
	<path class="st6" d="M104.6,58c-2-3.5-0.5-7.5-1.4-11.2c0.5,0,0.9-0.1,1.4-0.1c0,0,0.2,0,0.2,0c0.1,0.6,0.2,1.2,0.2,1.8
		C104.9,51.6,104.7,54.8,104.6,58z"/>
	<path class="st3" d="M99.7,72.9c0.5-0.3,1-0.6,1.6-0.9c0.8,0.1,2.3-0.3,2.1,0.9c-0.3,1.7-1.8,2.3-3.5,2.2c0-0.5,0-1,0-1.5
		C99.8,73.3,99.7,73.1,99.7,72.9z"/>
	<path class="st8" d="M103.7,42.8c-1.8-1.1-2.4-2.4-0.8-4.1C104.2,39.9,103.6,41.4,103.7,42.8z"/>
	<path class="st8" d="M104.6,46.6c-0.5,0-0.9,0.1-1.4,0.1c-0.4-1.4-0.4-2.4,1.5-1.7C104.7,45.6,104.6,46.1,104.6,46.6z"/>
	<path class="st4" d="M76.2,8c-0.9,0-1.5-0.6-2-1.3C75.4,6.4,76,6.9,76.2,8z"/>
	<path class="st3" d="M105,48.4c-0.1-0.6-0.2-1.2-0.2-1.8C106,47,106.4,47.6,105,48.4z"/>
	<path class="st8" d="M99.1,76.6c-0.6,0.9-1.2,1-1.8,0c0-0.3,0-0.6,0.1-0.9c0,0-0.1,0.1-0.1,0.1c0.3,0,0.6-0.1,1-0.1
		C98.5,76,98.8,76.3,99.1,76.6z"/>
	<path class="st8" d="M99.8,73.5c0,0.5,0,1,0,1.5c-0.5,0-1.1,0-1.6,0c0,0,0,0,0,0C98.5,74.3,98.9,73.7,99.8,73.5z"/>
	<path class="st3" d="M98.3,75.7c-0.3,0-0.6,0.1-1,0.1c0,0-0.1-0.1-0.1-0.1c0-0.2,0.1-0.5,0.2-0.7c0.3,0,0.5,0,0.8,0c0,0,0,0,0,0
		C98.2,75.3,98.3,75.5,98.3,75.7z"/>
	<path class="st2" d="M73.2,39.8c2,1.7,3.5,1.4,5.4,0.4c1.9-1.1,3.2-1,4.1,2c1.1,3.3,1.8,6.4,1.4,9.8c-0.2,1.6,0,2.8-2.4,2.1
		c-3-0.9-4.4,0.5-4,3.6c0.2,1.4-0.3,2.6-1.4,3.4c-1.1,0.8-2.8-0.2-2.6-0.5c2-4.2-1.6-3.2-3.4-3.9c-1.3-0.6-1.8-1.9-1.9-3.2
		c-0.2-1.9,0-3.9-1.1-5.7c-0.4-0.6-0.4-1.2,0.3-1.7c4.4-3,0.5-3.2-1.4-3.8c-8.5-2.7-10.6-8.8-5.3-15.1c0.8-0.9,1.7-2,3-1.5
		c3.8,1.5,8.3,1.9,10.5,6.3C75.8,34.9,77.1,37.6,73.2,39.8z"/>
	<path class="st2" d="M96.5,59.3c-1.7,0-3.2-0.1-2.4,2.5c1.1,3.8-1.3,6.4-3.4,9.1c-0.5,0.7-1.2,1.2-2,0.7c-1.1-0.6-0.7-1.6-0.2-2.3
		c0.5-0.9,1.2-1.7,1.8-2.5c0.9-1.1,0.7-1.9-0.5-2.5c-4.9-2.6-5.8-4.4-3.8-9.4c0.9-2.2,1.9-5.3,4.8-5.4c2.9,0,5.7,4.6,5.8,8.2
		C96.6,58.3,96.5,58.8,96.5,59.3z"/>
	<path class="st9" d="M76.2,8.6c4.7,3.2,9.3,6.5,13.1,10.8c-0.4,1.3,1.1,1.7,1.2,2.7c-1,0.9-3.7,0.9-2.7,2.7c0.9,1.6,2.6-0.2,3.9-1
		c0.1-0.1,0.2-0.1,0.3-0.2c0.2,0.1,0.4,0.1,0.6,0.1c0.3,1.9,2,3.4,1.7,5.5c-2.6-0.6-5.2-1-8-0.3c-1.6,0.4-4.1,0.8-4.1-2.6
		c-0.1-2.9-3.2-0.5-4.5-1.8c-0.5-0.5-1.1-1.1-1.6-1.6c0-1.8,0.4-3,2.5-1.6c0.5,0.4,0.8,1.3,1.3,1.4c1.6,0.3,3.1,1.6,4.8,0.2
		c0.6-0.5,0.9-1.1,0.5-1.7c-0.9-1.5-2.2-2.3-4.9-1.4c2-2.8,2.7-4.2-0.8-5.3C77.5,14,76,11.4,76.2,8.6z"/>
	<path class="st2" d="M66.6,15.9c-2.5-1.4-5.2-0.1-8,0.7c-1.5,0.4-2.9,0.2-4.4-1c-3-2.4-6.5-3.8-10.5-2c-0.7,0.3-1.5,0.9-2.1,0
		c-0.5-0.8-0.4-1.8,0.4-2.5c1.2-1,2.7-1.9,4.3-1.3c5.9,2.2,12,2.2,18.1,2.2c1,0,2.1,0.2,3,0.5c1,0.3,2.2,0.8,1.9,2.1
		C69.2,15.9,68,16,66.6,15.9z"/>
	<path class="st2" d="M95.8,38.8c-1.5,0.7-1.4,2-1.6,3.3c-0.5,2.7-2.1,2.7-3.8,1.1c-2.3-2.2-2.7-5-2.3-7.9c0.2-1.4,1.2-1.9,2.5-1.9
		c1.5,0,3,0.2,3.5,1.8c0.4,1.1,0.5,2.3,1.7,2.9C95.8,38.3,95.8,38.6,95.8,38.8z"/>
	<path class="st2" d="M55.6,42.8c2.1,0.4,4.5,1,4.8,4.2c0.1,1.6-0.4,2.8-2.4,2.7c-2.9-0.1-5.6-2.5-5.5-5
		C52.6,43.1,53.1,42.7,55.6,42.8z"/>
	<path class="st9" d="M95.8,38.8c0-0.3,0-0.5,0-0.8c0.3-0.6,0.8-0.8,1.5-0.8c0.2,0.5,0.6,0.9,1.2,0.9c1.3,1.3,0.9,3.1,1.2,4.6
		c-1,1.1-0.9,1.9,0.6,2.4c0.8,4.2,0.5,8.4,0.1,12.6c-2.2-0.4-1.5-2.1-1.5-3.4c-0.1-4.4-0.8-8.7-1.5-13
		C97.3,40.2,96.9,39.3,95.8,38.8z"/>
	<path class="st10" d="M82.5,68.7c-0.2,1.7-1,3.2-2.9,3.1c-1.6-0.1-2.6-1.3-2.6-3c0-1.8,1.1-3.1,2.9-3
		C81.5,65.9,82.7,66.8,82.5,68.7z"/>
	<path class="st9" d="M73.8,11.4c-0.9,3.3,3.8,4.1,1.7,7.5c-1.3-1-2.2-3-4.5-1.6C72.4,15.7,71.9,13.5,73.8,11.4z"/>
	<path class="st9" d="M100,60.2c-0.4,3.5-0.2,7.3-3.1,10.1C96.5,66.4,96.5,62.8,100,60.2z"/>
	<path class="st2" d="M76.2,23c0.5,0.5,1.1,1.1,1.6,1.6c-0.1,1.4-0.2,3-2.2,3.1c-1,0-1.6-0.7-1.8-1.7C73.6,24.2,74.4,23.2,76.2,23z"
		/>
	<path class="st2" d="M48.4,52.9c-0.4,1.2-1.2,1.8-2.4,1.4c-0.9-0.3-2.2-0.6-2-2c0.2-1.5,1.4-1.8,2.7-1.6
		C47.9,51,48.6,51.7,48.4,52.9z"/>
	<path class="st2" d="M51.8,58.5c-1-0.1-2.1-0.3-2.1-1.6c0-1.1,1-1.4,1.9-1.4c1.1,0,2.2,0.3,2.1,1.6C53.7,58.1,52.8,58.4,51.8,58.5z
		"/>
	<path class="st0" d="M97.4,75.7c0,0.3,0,0.6-0.1,0.9c-1.1,0.6-1.6,1.6-1.4,2.9c-0.8,0.1-1.6,0.2-2.3,0.2
		C93.8,77.5,94.5,75.5,97.4,75.7z"/>
	<path class="st8" d="M93.5,79.8c0.8-0.1,1.6-0.2,2.3-0.2c0.8,2.3,0.5,3.8-2.4,3.5c0-0.3,0-0.6,0-0.9c0-0.7,0-1.4,0-2.1l-0.1-0.2
		L93.5,79.8z"/>
	<path class="st9" d="M96.5,59.3c0.1-0.5,0.1-1,0.2-1.5c0.5-0.1,1.3-0.8,1.4,0.4C98.2,59.2,97.3,59.3,96.5,59.3z"/>
	<path class="st3" d="M93.4,80.1c0,0.7,0,1.4,0,2.1c-0.5,0-0.9,0-1.4,0C91.6,80.9,92.3,80.3,93.4,80.1z"/>
	<path class="st0" d="M92,82.2c0.5,0,0.9,0,1.4,0c0,0.3,0,0.6,0,0.9c0,0.2,0,0.5,0,0.7c-0.6,0-1.1-0.1-1.7-0.1
		C91,83,91.8,82.7,92,82.2z"/>
	<path class="st10" d="M98.6,38.1c-0.6,0-1-0.3-1.2-0.9c0.1-0.3,0.1-0.6,0.2-0.9C98.1,36.8,99.3,36.9,98.6,38.1z"/>
	<path class="st0" d="M91.9,83.6c-0.1,1-0.7,1.2-1.6,0.9C90.5,83.7,90.7,82.8,91.9,83.6z"/>
	<path class="st0" d="M90.3,84.5c0.2,0.5,0.2,1-0.3,1.2c-0.2,0.1-0.6-0.4-0.8-0.5C89.5,84.9,89.9,84.7,90.3,84.5z"/>
	<path class="st9" d="M96.7,34.6c0.5,0.2,0.9,0.5,0.7,1.1C97.2,35.3,97,34.9,96.7,34.6z"/>
	<path class="st0" d="M98.2,75.1c-0.3,0-0.5,0-0.8,0c0.2-1.6,0.1-3.4,2.3-3.9c0,0.6,0,1.1,0,1.7c0,0.2,0.1,0.4,0.1,0.7
		C98.9,73.7,98.5,74.3,98.2,75.1z"/>
	<path class="st4" d="M94.3,22.9c0.2-0.2,0.5-0.4,0.7-0.6c1,0.1,1.6,0.5,1.7,1.6c-0.6,0-1.2,0.1-1.5,0.7
		C94.4,24.3,94.3,23.6,94.3,22.9z"/>
	<path class="st10" d="M100.4,45.2c-1.4-0.5-1.5-1.3-0.6-2.4C100.5,43.5,100.6,44.3,100.4,45.2z"/>
	<path class="st4" d="M92.7,23.9c-0.2,0-0.4,0-0.6-0.1c0-0.2,0-0.5,0-0.7l0.4,0l0.4,0c0,0,0,0,0,0C92.7,23.3,92.7,23.6,92.7,23.9z"
		/>
	<path class="st3" d="M92.7,23l-0.4,0c0,0-0.4,0-0.4,0c-0.5-0.3-1-0.6-1.4-0.9c-0.1-1.1-1.7-1.4-1.2-2.7c0.3-0.8,1-1.1,1.8-1.1
		c0,0.3,0,0.5,0,0.8c0.2,0.3,0.4,0.6,0.7,0.9C92.3,20.9,93.1,21.8,92.7,23z"/>
	<path class="st4" d="M91.8,20c-0.2-0.3-0.4-0.6-0.7-0.9C91.4,19.4,91.6,19.7,91.8,20z"/>
	<path class="st1" d="M90.6,22.2c0.5,0.3,1,0.6,1.4,0.9c0,0.2,0,0.5,0,0.7c-0.1,0.1-0.2,0.1-0.3,0.2c-1.2,0.7-2.9,2.6-3.9,1
		C86.8,23.1,89.5,23,90.6,22.2z"/>
</g>
<g>
	<path class="st11" d="M90.8,126.5H15c-2.2,0-4-1.8-4-4v-23c0-2.2,1.8-4,4-4h75.8c2.2,0,4,1.8,4,4v23
		C94.8,124.7,93,126.5,90.8,126.5z"/>
	<g>
		<path class="st12" d="M31.9,113c-0.1-2-0.1-4.4-0.1-6.8h-0.1c-0.5,2.1-1.2,4.4-1.8,6.4l-2,6.4H25l-1.8-6.4
			c-0.5-1.9-1.1-4.3-1.5-6.4l0,0c-0.1,2.2-0.2,4.8-0.3,6.8l-0.3,6.3h-3.4l1.1-16.5h5l1.6,5.5c0.5,1.9,1,4,1.4,5.9h0.1
			c0.5-1.9,1-4.1,1.6-5.9l1.8-5.5h4.9l0.9,16.5h-3.6L31.9,113z"/>
		<path class="st12" d="M53.7,110.9c0,5.4-3.3,8.7-8.1,8.7c-4.9,0-7.7-3.7-7.7-8.4c0-4.9,3.2-8.6,8-8.6
			C51,102.6,53.7,106.3,53.7,110.9z M41.8,111.1c0,3.2,1.5,5.5,4,5.5s4-2.4,4-5.6c0-3-1.4-5.5-4-5.5
			C43.3,105.5,41.8,107.9,41.8,111.1z"/>
		<path class="st12" d="M71.2,110.9c0,5.4-3.3,8.7-8.1,8.7c-4.9,0-7.7-3.7-7.7-8.4c0-4.9,3.2-8.6,8-8.6
			C68.5,102.6,71.2,106.3,71.2,110.9z M59.3,111.1c0,3.2,1.5,5.5,4,5.5c2.5,0,4-2.4,4-5.6c0-3-1.4-5.5-4-5.5
			C60.8,105.5,59.3,107.9,59.3,111.1z"/>
		<path class="st12" d="M73.7,119.3v-16.5H78l3.4,6c1,1.7,2,3.8,2.7,5.6h0.1c-0.2-2.2-0.3-4.4-0.3-6.9v-4.8h3.4v16.5h-3.9l-3.5-6.4
			c-1-1.8-2.1-3.9-2.9-5.8h-0.1c0.1,2.2,0.1,4.5,0.1,7.2v5h-3.3V119.3z"/>
	</g>
</g>
</svg>
