<?xml version="1.0" encoding="utf-8"?>
<!-- Generator: Adobe Illustrator 25.0.0, SVG Export Plug-In . SVG Version: 6.00 Build 0)  -->
<svg version="1.1" id="Layer_1" xmlns="http://www.w3.org/2000/svg" xmlns:xlink="http://www.w3.org/1999/xlink" x="0px" y="0px"
	 width="105.5px" height="129px" viewBox="0 0 105.5 129" style="enable-background:new 0 0 105.5 129;" xml:space="preserve">
<style type="text/css">
	.st0{fill:#48A6DD;}
	.st1{fill:#FFFFFF;}
	.st2{fill:#231F20;}
	.st3{fill:#020202;}
	.st4{fill:#030303;}
	.st5{fill:#2A2A2A;}
	.st6{fill:#616161;}
	.st7{fill:#0D0D0D;}
	.st8{fill:#404040;}
	.st9{fill:#181818;}
	.st10{fill:#393939;}
	.st11{fill:#1F1F1F;}
	.st12{fill:#262626;}
	.st13{fill:#171717;}
	.st14{fill:#323232;}
	.st15{fill:#8D8D8D;}
	.st16{fill:#191919;}
	.st17{fill:#151515;}
	.st18{fill:#222222;}
	.st19{fill:#585858;}
	.st20{fill:#101010;}
	.st21{fill:#E0E0E0;}
	.st22{fill:#D9D9D9;}
	.st23{fill:#9A9A9A;}
	.st24{fill:#B8B8B8;}
	.st25{fill:#CCCCCC;}
	.st26{fill:#B2B2B2;}
	.st27{fill:#DDDDDD;}
	.st28{fill:#D8D8D8;}
	.st29{fill:#0B0B0B;}
	.st30{fill:#4A4A4A;}
	.st31{fill:#C2C2C2;}
	.st32{fill:#6E6E6E;}
	.st33{fill:#5A5A5A;}
	.st34{fill:#A1A1A1;}
	.st35{fill:#D2D2D2;}
	.st36{fill:#505050;}
	.st37{fill:#414141;}
	.st38{fill:#707070;}
	.st39{fill:#525252;}
	.st40{fill:#686868;}
	.st41{fill:#5B5B5B;}
	.st42{fill:#353535;}
	.st43{fill:#747474;}
	.st44{fill:#545454;}
	.st45{fill:#7C7C7C;}
	.st46{fill:#272727;}
	.st47{fill:#BBBBBB;}
	.st48{fill:#D4D4D4;}
	.st49{fill:#CFCFCF;}
	.st50{fill:#848484;}
	.st51{fill:#ADADAD;}
	.st52{fill:#7E7E7E;}
	.st53{fill:#7B7B7B;}
	.st54{fill:#606060;}
	.st55{fill:#B5B5B5;}
	.st56{fill:#909090;}
	.st57{fill:#6B6B6B;}
	.st58{fill:#949494;}
	.st59{fill:#787878;}
	.st60{fill:#1B1B1B;}
	.st61{fill:#9D9D9D;}
	.st62{fill:#A4A4A4;}
	.st63{fill:#C7C7C7;}
	.st64{fill:#636363;}
	.st65{fill:#8A8A8A;}
</style>
<g>
	<path class="st0" d="M90.8,126.5H15c-2.2,0-4-1.8-4-4v-23c0-2.2,1.8-4,4-4h75.8c2.2,0,4,1.8,4,4v23C94.8,124.7,93,126.5,90.8,126.5
		z"/>
	<g>
		<path class="st1" d="M31.9,113c-0.1-2-0.1-4.4-0.1-6.8h-0.1c-0.5,2.1-1.2,4.4-1.8,6.4l-2,6.4H25l-1.8-6.4
			c-0.5-1.9-1.1-4.3-1.5-6.4l0,0c-0.1,2.2-0.2,4.8-0.3,6.8l-0.3,6.3h-3.4l1.1-16.5h5l1.6,5.5c0.5,1.9,1,4,1.4,5.9h0.1
			c0.5-1.9,1-4.1,1.6-5.9l1.8-5.5h4.9l0.9,16.5h-3.6L31.9,113z"/>
		<path class="st1" d="M53.7,110.9c0,5.4-3.3,8.7-8.1,8.7c-4.9,0-7.7-3.7-7.7-8.4c0-4.9,3.2-8.6,8-8.6
			C51,102.6,53.7,106.3,53.7,110.9z M41.8,111.1c0,3.2,1.5,5.5,4,5.5s4-2.4,4-5.6c0-3-1.4-5.5-4-5.5
			C43.3,105.5,41.8,107.9,41.8,111.1z"/>
		<path class="st1" d="M71.2,110.9c0,5.4-3.3,8.7-8.1,8.7c-4.9,0-7.7-3.7-7.7-8.4c0-4.9,3.2-8.6,8-8.6
			C68.5,102.6,71.2,106.3,71.2,110.9z M59.3,111.1c0,3.2,1.5,5.5,4,5.5c2.5,0,4-2.4,4-5.6c0-3-1.4-5.5-4-5.5
			C60.8,105.5,59.3,107.9,59.3,111.1z"/>
		<path class="st1" d="M73.7,119.3v-16.5H78l3.4,6c1,1.7,2,3.8,2.7,5.6h0.1c-0.2-2.2-0.3-4.4-0.3-6.9v-4.8h3.4v16.5h-3.9l-3.5-6.4
			c-1-1.8-2.1-3.9-2.9-5.8h-0.1c0.1,2.2,0.1,4.5,0.1,7.2v5h-3.3C73.7,119.2,73.7,119.3,73.7,119.3z"/>
	</g>
</g>
<circle class="st2" cx="53" cy="52.3" r="51.2"/>
<g>
	<path class="st3" d="M102.9,34.3"/>
	<path class="st3" d="M87.2,24.6c-0.9-0.6-1.4-1.3-1.3-2.5c0.1-0.5-0.2-1-0.6-1.3c-0.9-0.6-1.1-1.6-1.2-2.6c-1.4-1.9-2.6-4-4.6-5.5
		c-0.2,0-0.4,0-0.6,0c-0.7,0.8-2.1,1.5-1.4,2.7c0.7,1.4-0.2,1.7-1.1,1.9l12.1,10.9c0-0.2,0-0.3-0.1-0.5C88,26.8,88.5,25.4,87.2,24.6
		z"/>
	<path class="st3" d="M67.7,10.2c0.8,0.5,1.7,0.4,2.5,0.1c1-0.3,2-0.7,3.1-0.7c0.2,0,0.4,0.1,0.6,0.2c0.8,0.5,0.7,1.3,0.6,2.1
		c-0.2,1.4-0.1,2.8-0.1,4.3"/>
	<path class="st4" d="M74,16.1c0-2,0-4.1,0-6.1c-1.2,0.1-2.4,0.4-3.5,0.9c-1.3,0.6-2.4,0.6-3.6-0.4"/>
	<path class="st4" d="M66.1,3.6c1.2-0.2,2.1,0.3,2.8,1.3c0,0.4,0,0.9,0.7,0.9c0.5,0,1,0.1,1.5-0.1c1.5,0,2.4,1.3,3.7,1.7
		c0.2,0.1,0.3,0.2,0.5,0.3c0.3,0.3,0.5,0.6,0.3,1c-0.3,0.2-0.2,0.6-0.4,0.9c0.2-0.2,0.1-0.7,0.4-0.9c1.2,0,1.4,1.2,2.1,1.8
		c0.5,0.8,1.9,1.1,1.3,2.5c-0.6,0.4-0.4,1.4-1.2,1.7c-0.2,0.1-0.6,0.5-0.2,0.6c1.6,0.3,0.8,1.2,0.4,1.8c-0.8,1.2-2,1.2-3.2,1"/>
	<path class="st3" d="M65.9-0.5"/>
	<path class="st3" d="M106.1-0.4"/>
	<path class="st5" d="M91.6,44.9C90.7,44,92,43.5,92,42.7c0.2-0.1,0.4-0.1,0.6,0.1c1.4,3.5,1.9,7.2,1.5,11c-1.4,4.3-1.3,8.8-2.8,13
		c-0.3,0.7-0.4,1.5-0.9,2.2c-0.4,0.5-0.7,1.4-1.6,0.8c0-3.6,0.8-7,1.8-10.5C91.8,54.5,91.9,49.7,91.6,44.9z"/>
	<path class="st6" d="M63.2,102.6c-0.4-0.1-0.9,0.1-1.1-0.4c-0.1-0.6,0.3-0.7,0.8-0.7c1.3-0.1,2.4-0.7,3.4-1.4
		c0.9-1.8,3.1-1.6,4.3-2.8c1.2-0.7,2.7-1,3.5-2.3c1-0.7,1.5-2.2,3.1-2c0.5,0.4,0.4,1,0.7,1.5c0,0.6-0.5,1-0.8,1.4
		c-0.2,0.2-0.4,0.4-0.7,0.6c-0.7,0.5-1.9,0.2-2.1,1.4c-0.1,0.5-0.6,0.5-1.2,0.5c-0.7-0.1-1.3,0.4-0.8,1.3
		C69.4,101,66.2,101.7,63.2,102.6L63.2,102.6z"/>
	<path class="st7" d="M91.6,44.9c1,3.1,0.6,6.3,0.3,9.5c-0.3,3.1-0.9,6.1-2.2,9c-0.9,1.9,0,4.4-0.7,6.5c0.2,0.4,0,0.7-0.4,0.9
		c-0.2,0.1-0.4,0-0.5-0.1c-0.1-1.2-1-0.8-1.7-0.9v0c0.3-0.6-0.1-1.7,1.4-1.3c0.9,0.3,0.7-0.8,0.7-1.3c0.6-0.8-0.1-1.8,0.4-2.6
		c-0.9-1.7,0.6-2.9,0.9-4.3c0.8-3.6,1-7.3,1.3-10.9C91.3,47.9,90.8,46.3,91.6,44.9z"/>
	<path class="st8" d="M92.4,42.8c-0.1,0-0.3,0-0.4,0c-1.2-0.7-1.5-2.1-2.5-3c0.5-1.5,1.3,0.1,2-0.2c-0.1-1.7-0.9-3.3-1.1-5.1
		c-0.9,0.3-0.7,1.5-1.8,1.5c-0.4-0.5-0.4-1.1,0-1.7c0.1-0.6,0.3-1.1,0.4-1.7c0.2-0.4,0.6-0.7,1.1-0.6c1.5,0.1,2.1,0.9,2.6,2.3
		c0.8,2.3,1.4,4.6,1.3,7C94,42.3,93.5,42.8,92.4,42.8z"/>
	<path class="st9" d="M88.5,34.1c0,0.4,0,0.8,0,1.5c0.3-0.3,0.4-0.4,0.5-0.5c0.5-0.6,0-2,0.9-1.9c1,0.1,1,1.4,1.1,2.3
		c0.3,1.8,1.6,3.4,0.7,5.3c-1,0.2-1-1.9-2.3-1C89.5,37.8,87.4,36.2,88.5,34.1z"/>
	<path class="st10" d="M77.4,93.2c-1.5,0-1.8,1.7-3,2.1c-0.3,0.2-0.5,0.3-0.9,0.1c-0.3-1,0.6-1.5,0.9-2.2l0,0c1.6-1,2.3-3,4-3.9
		c0.1-0.1,0-0.5,0.1-0.8c1.1-0.5,1.6-1.5,1.8-2.7c0.1-0.3,0.3-0.6,0.4-0.9c0.5-0.4,1-0.4,1.5-0.2c0.8,0.7,0.5,1.3,0,2
		c-1.4,2.2-3,4.3-4.7,6.3C77.6,93.1,77.5,93.1,77.4,93.2z"/>
	<path class="st11" d="M74.4,93.1c0.1,0.9-0.1,1.6-0.9,2.1c-0.6,1.1-2.2,1.2-2.6,2.6c-0.1,0-0.1,0-0.2,0c-1.5,0.7-3,1.4-4.5,2.2
		c-1.2-0.8-0.4-1,0.4-1.4C69.3,96.9,71.8,95,74.4,93.1z"/>
	<path class="st12" d="M88.2,28.1c-0.6-1.4-0.6-3.2-2.3-4c0.6-2.4-3.1-3.3-2-5.9C84,18,84.2,18,84.4,18c1,0.3,1.4,1.2,1.8,2
		c0.3,1.1,1,2,1.3,3.2c0.2,0.5,0.5,1,0.8,1.5c0.1,0.2,0.3,0.5,0.4,0.8C89.2,26.4,89.1,27.3,88.2,28.1z"/>
	<path class="st13" d="M82.5,84.9c-0.6,0-1.2,0-1.7,0c-0.5-1.1-0.4-1.9,0.9-2.6c0.6-0.3,1.5-0.9,1.1-2.1c-0.3-1-0.2-1.4,1-0.9
		c0.7,0.3,0.3-0.8,0.9-1c0.1,0.1,0.1,0.1,0.2,0.2c0.3,0.6,0.3,1.3-0.2,1.8c-0.8,0.6-0.7,1.5-0.8,2.3c0,0.2-0.1,0.4-0.2,0.6
		c-0.3,0.5-0.5,1-0.9,1.5C82.7,84.8,82.6,84.9,82.5,84.9z"/>
	<path class="st14" d="M84.3,18.1c-0.2,0-0.3,0-0.5,0c-1.8-1.5-2.9-3.4-4.3-5.2c-0.2-0.6-0.1-1.2,0.4-1.8c0.4-0.1,0.6,0.1,0.8,0.3
		c1,1.6,2.6,2.8,3.3,4.6C84.2,16.8,84.8,17.4,84.3,18.1z"/>
	<path class="st15" d="M72.3,99.6c-0.3-0.2-1.1-0.2-0.9-0.3c0.8-0.4,0.6-2.3,1.9-1.6c0.6,0.4,0.7,0.3,0.8-0.1
		c0.4-1.4,1.5-1.3,2.5-1.6c0.5,0.2,0.8,0.5,1,1c-0.8,0.5-1.6,1.1-2.4,1.6C74.2,99,73.2,99.3,72.3,99.6z"/>
	<path class="st16" d="M84.6,78.5c-0.1-0.2-0.2-0.4-0.3-0.6c-0.2-0.8-0.8-1.6-0.1-2.4c0.8-0.9,1.3,0.7,2.1,0.4
		c0.1,0.1,0.1,0.1,0.2,0.2c0.3,0.8,0,1.7,0.1,2.5c-0.1,0.4-0.2,0.7-0.5,1C84.7,80.6,85.1,78.9,84.6,78.5L84.6,78.5z"/>
	<path class="st17" d="M78.7,88.4c-0.7,2.2-2.2,3.7-4.3,4.7c0.6-2.4,2.8-3.5,4.3-5.2c0.1,0.1,0.1,0.2,0.1,0.3
		C78.7,88.4,78.7,88.4,78.7,88.4z"/>
	<path class="st18" d="M86.4,75.9c-0.1-0.4-0.3-0.8-0.4-1.3c0.5-0.6-0.1-1.5,0.4-2.1c0.3-0.1,0.6-0.3,0.8-0.4
		c0.2-0.9,0.9-1.1,1.7-0.9c0.7,0.8,0.2,1.4-0.2,2.1c-0.4,0.7-0.8,1.5-1.2,2.2c-0.3,0.4-0.6,0.6-1,0.5L86.4,75.9z"/>
	<path class="st19" d="M88.2,28.1c-0.2-0.9,0.8-1.7,0-2.6c0.2-0.5,0.6-0.8,1.2-0.6c0.2,0.9,1.8,1.1,1.1,2.4
		c-0.2,0.3-0.9-0.1-0.8,0.6c0,0.6,0,1.3-1,1.2c-0.3-0.2-0.3-0.4-0.5-0.7C88.1,28.3,88.2,28.2,88.2,28.1z"/>
	<path class="st11" d="M80,11.2c-0.2,0.6-0.3,1.2-0.5,1.8c-0.1,0-0.3,0-0.4,0c0-1.2-1.2-1.4-1.7-2.2c0.7-1.2,1.6-0.8,2.5-0.2
		C80,10.8,80.1,11,80,11.2z"/>
	<path class="st20" d="M88.1,28.4c0.1,0.2,0.3,0.3,0.4,0.5c1,0.7,2.1,1.3,1.4,2.8c-0.1,0.1-0.2,0.1-0.2,0.2
		c-0.3,0.2-0.5,0.3-0.8,0.5c-0.2-0.7,0.6-1.5-0.7-2C87.2,30.1,88.2,29.1,88.1,28.4z"/>
	<path class="st13" d="M78.7,88.4c0-0.2,0-0.3,0-0.5c0.2-1,1.3-1.3,1.7-2.1C80.3,87,80.9,88.6,78.7,88.4z"/>
	<path class="st7" d="M86.4,69.9c0,0.1,0,0.2,0,0.2c-0.4,0.7-0.1,1.8-1.1,2.1c-0.1,0-0.4-0.3-0.4-0.4C84.9,70.8,85.7,70.4,86.4,69.9
		L86.4,69.9z"/>
	<path d="M83.8,97.4"/>
	<path class="st7" d="M88.6,71.1c-0.4,0.3-0.9,0.6-1.3,0.9c0.3-0.4-0.7-1.7,0.9-1.3c0.1,0,0.3,0,0.4,0c0.1,0.1,0.1,0.2,0.1,0.3
		C88.6,71.1,88.6,71.1,88.6,71.1z"/>
	<path class="st7" d="M89,64.7c-0.1,0.9,0.4,1.8-0.4,2.6C88.7,66.4,88.2,65.5,89,64.7z"/>
	<path class="st7" d="M86.4,72.5c-0.1,0.7,0.3,1.5-0.4,2.1C86.1,73.9,85.7,73.1,86.4,72.5z"/>
	<path class="st21" d="M102.7,64.8c-0.1,1.1-0.2,2.1-0.8,3c-0.5,1-0.9,2-1.3,3c-0.5,0.3-0.2,0.9-0.4,1.3c-0.5,0.5-0.6,1.2-0.8,1.8
		l0,0c-1.2,0.1-1.3-0.9-1.6-1.6c-0.1-0.3-0.1-0.6-0.1-1c0.1-0.5,0.2-1,0.4-1.5c0.1-1.4,1.5-1.9,2-3c0.3-3.1,0.3-6.2,1.2-9.3
		c0.4-1.3,0.8-2.7,0.5-4.2c0-0.2-0.1-0.4-0.1-0.6c-0.2-2-0.9-4-0.5-6.1c0.4-0.7,0.1-1.4,0-2.1c-0.1-0.7-0.3-1.6,0.7-1.7
		c0.7,0,1.5,0.5,1.6,1.4c0.1,1.5,0.4,3.1,0.7,4.6c0,0.1,0,0.3,0,0.4c0.1,3.6,0.1,7.2-0.4,10.8l0,0C103.1,61.5,103.1,63.2,102.7,64.8
		z"/>
	<path class="st22" d="M95.9,24.6c3.3,4.7,5.9,9.7,6.5,15.5c-0.3,0.5,0.5,1.5-0.7,1.5c-0.4-0.2-0.7-0.6-0.7-0.9
		c0.1-1.3-0.8-1.9-1.7-2.6c-1.2-4-3.3-7.6-4.2-11.7c-0.2-0.8-0.5-1.4-1.2-1.8c-0.1-0.1-0.3-0.3-0.4-0.4c-0.3-0.8-1-1.4-1.2-2.2
		c0.3-1.1,0.8-0.9,1.5-0.4l0,0C94.3,22.7,95,23.7,95.9,24.6z"/>
	<path class="st23" d="M77.5,97.1c-0.6-0.1-1-0.3-1-1c0.1-0.1,0.3-0.3,0.4-0.4c0.9-0.7,1.9-1.2,2.7-1.9c0.3-0.3,0.7-0.6,0.8-1.1
		c0.1-1.4,1.6-2,2.3-2.9c0.7-0.9,1-1.9,1.7-2.8c0.7,0.5,0.3-0.4,0.6-0.5c1.1-0.7,0.8-2,1.5-2.9c1.6-1.1,1.5-3.2,2.5-4.6
		c0.1-0.1,0.3-0.3,0.5-0.3c0.4-0.1,0.8-0.1,1.2,0.2c0.5,0.6,0.5,1.3,0.6,2c0,0.2-0.1,0.4-0.2,0.5c-1.2,0.2-1.2,1.1-1.1,2
		c-0.6,1.6-2.6,2.6-2.4,4.6c-2.3,0.8-2,3.9-4.2,4.7c-0.3,0.1-0.5,0.5-0.4,0.9C81.4,95.1,79.4,96,77.5,97.1z"/>
	<path class="st24" d="M83,93.6c-1.8-0.8,0.2-1.4,0.2-1.5c1.3-0.3,1.8-1.3,2-2.4c0.2-1,0.6-1.4,1.5-1.7c0.2-0.1,0.7-0.3,0.6-0.4
		c-0.7-2.4,1.8-2.9,2.5-4.5c-0.7-1.4,1-1.4,1.3-2.2l0,0c0.2-0.9,0.6-1.6,1.7-1.4c0.5,0.4,0.9,1,0.6,1.4c-1,1.2-0.4,3.1-1.9,4.1
		c-0.1,0.2-0.3,0.3-0.4,0.4c-0.4,0.3-1.1,0.4-0.9,1.2c0,0.1,0,0.2,0,0.3C88.2,89.7,85.6,91.7,83,93.6z"/>
	<path class="st25" d="M91.1,85.4c0-1.2,1.2-1.5,1.6-2.6c-0.5-0.4-0.8,0.4-1.3,0.2c-0.2-1.3,2.5-1.5,1.4-3.2
		c-0.3-0.3-0.4-0.7-0.3-1.1c0.1-1,1.3-0.5,1.6-1.2c0.1-0.2,0.2-0.3,0.2-0.5c0.2-2.6,0.5-5,2.8-6.7c1.1,1.3-0.2,2.6-0.1,4
		c-0.1,1-0.8,1.8-1.1,2.8c-0.2,0.9-0.2,1.7,0.4,2.4c-1,1.9-2.3,3.6-3.8,5.2C92,84.8,91.9,85.7,91.1,85.4z"/>
	<path class="st26" d="M86.9,14.2c1.4,1.8,3.9,2.5,4.7,4.9c-0.3,0.3-0.9,0.4-0.3,1.1c0.6,0.7,0.7,1.5-0.2,2.1
		c-1.6,0-1.9-1.4-2.3-2.4c-0.8-2.2-2.5-3.7-4-5.4c-0.4-0.7-0.7-1.4,0.5-1.7C86.1,12.9,86.5,13.5,86.9,14.2z"/>
	<path class="st27" d="M96.3,79.4c-2.8-0.6-0.4-2.3-0.6-3.4c-0.1-0.5,0.6-1.2,1-1.8c0.5-0.7-0.3-2.2,1.3-2.2
		c0.6,0.5,0.4,1.5,1.4,1.8C98.7,75.9,97.5,77.6,96.3,79.4z"/>
	<path class="st28" d="M101.8,41.4c0.5-0.3-0.3-1.2,0.5-1.3c0.2,0,0.4,0.1,0.4,0.3c0.5,0.8-0.4,1.9,0.4,2.7c0.6,1.8,0.9,3.7,0.8,5.6
		c-0.7-1-0.9-2.2-0.8-3.4c0.1-1.3-0.5-1.9-1.6-2.2c-0.7,1.1,1.4,2.4-0.1,3.4c-0.4-0.1-0.6-0.4-0.8-0.8c-0.2-0.5-0.3-0.9-0.4-1.4
		C99.9,43,100.4,41.9,101.8,41.4z"/>
	<path class="st15" d="M80,11.2c0-0.1-0.1-0.2-0.1-0.3c-0.6-0.7-1.7-0.8-1.8-2c0.3-0.5,0.6-0.5,1.1-0.3c0.2,0.1,0.5,0.1,0.7,0.2
		c1.1,0.2,1.9,0.8,2.5,1.7c0,0.1,0,0.3,0,0.4c0,0.8,0.6,1.1,1.1,1.4c0.9,0.5,1.1,1.2,0.9,2.1c-0.6,0.7-1,0.5-1.5-0.1
		c-0.8-0.9-1.7-1.6-2.4-2.6C80.3,11.5,80.1,11.4,80,11.2z"/>
	<path class="st29" d="M65.1,2.6c1.4-0.2,2.4,0.7,3.7,0.9C69.5,3,70,3.6,70.5,4c0,0.1,0,0.3,0,0.4c0.1,0.5,0.9,0.8,0.5,1.5
		c-0.4,0.8-0.9,0.1-1.3,0.2c-0.5-0.1-0.8-0.4-0.9-0.9c-0.8-0.8-1.7-1.5-3-1.3"/>
	<path class="st28" d="M103.6,60c0.1-3.6-0.2-7.2,0.4-10.8C104.5,52.8,104.6,56.4,103.6,60z"/>
	<path class="st30" d="M73.9,5.6c0.5,0.3,0.9,0.6,1.4,0.8c-0.9,0.2,0,1-0.5,1.3C73.3,7.7,72.6,6,71,5.9c0.2-0.6-1-0.8-0.5-1.5
		C71.7,4.8,72.8,5.2,73.9,5.6z"/>
	<path class="st31" d="M91.1,22.1c0.4-0.7,0.1-1.3-0.3-1.9c-0.6-0.9-0.6-0.9,0.8-1.1c0.9,0.7,1.7,1.4,2.2,2.5
		c-0.6-0.2-1.1-0.3-1.4,0.5c-0.1,0.1-0.1,0.2-0.2,0.2c-0.3,0.3-0.7,0.4-1.1,0.3C91,22.5,91,22.3,91,22.2
		C91,22.1,91.1,22.1,91.1,22.1z"/>
	<path class="st32" d="M74.8,7.8c0.1-0.5-0.7-1.2,0.5-1.3c1.3,0.6,2.5,1.2,3.8,1.8c0,0.1,0.1,0.2,0.1,0.4c-0.4,0.1-0.8,0.1-1,0.5
		c-1.4,0.6-2-0.9-3.1-1.2C75,7.9,74.9,7.9,74.8,7.8z"/>
	<path class="st33" d="M75.2,7.9c1,0.4,2.1,0.8,3.1,1.2c0.7,0.5,1.4,0.9,1.7,1.8c-0.8-0.2-1.7-0.7-2.5-0.1c-0.6-0.7-1.1-1.4-1.7-2.2
		c0,0,0,0,0,0C75.5,8.4,75.3,8.1,75.2,7.9z"/>
	<path class="st34" d="M84.2,12c0.4,0.3,1,0.5,1.2,1c-1.1,0.2-0.5,0.8-0.3,1.3c-0.1,0.4-0.4,0.6-0.8,0.5c-0.1-0.1-0.2-0.2-0.1-0.3
		c0-0.1,0-0.2,0.1-0.2c0-0.7,0.1-1.3-0.9-1.7c-0.4-0.2-1.8-0.6-0.9-1.8C82.9,11.4,83.5,11.8,84.2,12z"/>
	<path class="st3" d="M82.4,10.5c-0.8-0.6-1.7-1.1-2.5-1.7"/>
	<path class="st28" d="M102.7,64.8c-0.1-1.7,0.1-3.3,0.9-4.8C103.7,61.6,103.4,63.2,102.7,64.8z"/>
	<path class="st31" d="M95.9,24.6c-1.3-0.6-2.1-1.6-2.2-3.1C94.8,22.4,95.4,23.4,95.9,24.6z"/>
	<path class="st24" d="M91.1,85.4c0.5-0.3,0.9-0.6,1.4-0.8c-0.5,1.1-1.3,1.9-2.2,2.6c0-0.1-0.1-0.1-0.1-0.2
		C89.8,86,90.7,85.8,91.1,85.4L91.1,85.4z"/>
	<path class="st27" d="M100.5,70.7c0-1.2,0.5-2.2,1.3-3C101.7,68.8,101.4,69.9,100.5,70.7z"/>
	<path class="st3" d="M68.8,5.2c0.4,0.2,0.7,0.4,0.9,0.9c-0.7,0.7-1.2,0.1-1.5-0.3C67.9,5.4,68.5,5.3,68.8,5.2z"/>
	<path class="st3" d="M72.2,9.6c-0.5-0.8-0.5-1.4-0.5-2.2C72.4,8.1,72.8,8.6,72.2,9.6z"/>
	<path class="st35" d="M103.2,43.1c-1.7-0.6,0.1-1.9-0.4-2.7C103.1,41.3,103.3,42.2,103.2,43.1z"/>
	<path class="st3" d="M75.7,8.7c0,0.1,0,0.1,0,0.2c-0.2,0.5,0.5,1.1-0.2,1.5c-0.1,0-0.3,0-0.4-0.1C74.7,9.5,75.2,9.1,75.7,8.7
		C75.7,8.7,75.7,8.7,75.7,8.7z"/>
	<path class="st3" d="M74,8.9c0.1,0.1,0.3,0.2,0.3,0.4c0,0.2-0.1,0.5-0.2,0.6c-0.4,0.2-0.3-0.3-0.4-0.5C73.6,9.2,73.6,9,74,8.9z"/>
	<path class="st3" d="M70.8,9.7c-0.3-0.6-0.3-1,0-1.5C71,8.6,71,9.1,70.8,9.7"/>
	<path class="st27" d="M99.3,73.8c-0.1-0.8,0-1.4,0.8-1.8C100.1,72.7,99.8,73.3,99.3,73.8z"/>
	<path class="st36" d="M92.4,42.8c0.8-0.4,1.1-1,1.1-2.1c0.1-2.7-1.1-5-1.6-7.5c-0.2-1.1-1.6-0.5-2.1-1.2c0,0,0,0,0,0
		c0.1-0.7,0.7-1.3,0.7-2.1c0.1-0.5,0.3-0.7,0.8-0.8c0.3,0,0.6,0.1,0.9,0.3c0.2,1.2,0.5,2.4,1.1,3.6c1.4,2.9,1.7,6.1,1.8,9.3
		c-0.1,0.2-0.4,0.2-0.6,0.4c0.2,0.1,0.4-0.1,0.5,0.1c0.7,1.6-0.6,3.3,0.2,5c1.6,3.3,0.1,6.7,0.2,10c-0.3,0.6-0.6,1.2-1.2,1.5
		c-0.2,0.1-0.4,0-0.6-0.1c-0.7-1.8,0.1-3.5,0.2-5.2C94,50.1,92.9,46.5,92.4,42.8z"/>
	<path class="st30" d="M93.7,53.9c0.4,1.7-0.1,3.5,0,5.2c-0.1,2-0.4,4.1-0.5,6.1c-0.2,1.5-0.8,2.8-1.3,4.2c-0.5,1.9-1.2,3.7-2.4,5.3
		c-0.1,0.2-0.2,0.3-0.4,0.4c-0.3,0.2-0.7,0.2-1,0.4c-0.1,0.1-0.3,0.1-0.5,0.2c-0.2,0-0.3,0-0.5-0.2c0-1.2,0.7-2.1,1.4-3
		c0.4-0.5,0.4-0.9-0.1-1.3c0-0.1,0-0.3,0-0.4c0.2-0.3,0.3-0.6,0.5-0.9c2.3-2.6,2.6-6,3.2-9.2C92.6,58.4,92.6,56,93.7,53.9z"/>
	<path class="st37" d="M70.9,97.9c0.3-1.5,1.1-2.3,2.6-2.6c0.3,0,0.6,0,0.9,0C73.8,96.9,71.9,96.8,70.9,97.9z"/>
	<path class="st15" d="M80,94c-0.7,1.1-1.8,1.5-3,1.7c0-0.7,0.6-0.8,0.9-1.3c0.1-0.2,0.2-0.3,0.4-0.4c0.5-0.3,1-0.5,1.6-0.2
		C79.8,93.9,79.9,93.9,80,94z"/>
	<path class="st38" d="M78.2,94.4c-0.1,0-0.3,0-0.4,0c-1.1-0.1-0.2-0.9-0.4-1.3c0,0,0,0,0,0c0.4-0.3,0.8-0.4,1.2-0.1
		C79,93.6,78.5,94,78.2,94.4z"/>
	<path class="st39" d="M78.7,93.1c-0.4,0-0.9,0-1.3,0c1-2.5,3.1-4.2,4.5-6.5c0.3-0.6,0.7-1,0.7-1.7c0,0,0,0,0,0
		c0.5-0.5,0.6-1.2,0.9-1.7l0,0c0.4-0.3,0.7-0.2,1,0.2c0.5,2-0.3,3.5-1.7,4.8c-0.1,0.4-0.2,0.7-0.4,1.1c-1.2,1.2-2.8,1.9-3.5,3.6
		C78.8,93,78.7,93.1,78.7,93.1z"/>
	<path class="st40" d="M89.4,25.1c-0.4,0.1-0.8,0.3-1.2,0.4c0-0.3-0.1-0.6-0.1-0.8c-0.5-0.3,0.4-1.5-0.8-1.3
		c-0.5-1.1-1.4-2.1-1.3-3.5c-0.3-0.5-0.5-1-0.2-1.6c1.1-0.7,1.5,0.5,2.3,0.7c1.5,1.6,2.6,3.2,1.8,5.5C89.8,24.8,89.6,25,89.4,25.1z"
		/>
	<path class="st41" d="M86,18.2c0,0.6,0,1.2,0,1.8c-0.5-0.6-1.1-1.2-1.6-1.8c-0.7-1.7-1.5-3.4-2.9-4.7c-0.5-0.5-1.1-0.9-0.9-1.7
		c1.3,0.3,1.9,1.4,2.7,2.3c0.3,0.4,0.6,0.6,1,0.4c0,0.1,0,0.2,0,0.4c1.2,0.4,1.8,1.4,2.1,2.6C86.3,17.6,86.2,17.9,86,18.2z"/>
	<path class="st42" d="M87.3,23.4c0.1-0.3,0.1-0.7,0.2-1c0.2,0.1,0.5,0.2,0.7,0.4c0.7,0.6,0.4,1.3,0,1.9
		C87.5,24.4,87.2,24,87.3,23.4z"/>
	<path class="st10" d="M84.2,83.7c-0.2-0.4-0.5-0.4-0.9-0.4c-0.8-1.9,1.5-3,1.3-4.7c0.9-0.4,0.1,1.6,1.3,0.8
		c0.4,0.1,0.6,0.5,0.7,0.9c-0.5,1.3-1.2,2.6-1.7,4C84.5,84.3,84.1,84.3,84.2,83.7z"/>
	<path class="st10" d="M83.4,83.2c0,0.7-0.1,1.4-0.9,1.7C82.6,84.3,82.8,83.7,83.4,83.2z"/>
	<path class="st43" d="M86.4,80.2c-0.1-0.3-0.3-0.6-0.4-0.8c0.1-0.3,0.3-0.6,0.4-0.9c0.3-0.9,1-1.1,1.8-1c-0.2-1-0.3-1.9,0.8-2.4
		c0-0.1,0-0.3,0.1-0.4c1.2,0.1,1.5,0.9,1.2,1.9c-0.2,0.8-0.2,1.7-0.9,2.4h0c-0.8,0.4-1.4,1.1-2.2,1.5C86.9,80.5,86.6,80.5,86.4,80.2
		z"/>
	<path class="st44" d="M88.9,75c0,0.1-0.1,0.1-0.1,0.2c-0.5,1.8-0.9,2.3-2.5,3.3c-0.6-0.9,0-1.7,0.1-2.5c0.2-0.2,0.5-0.3,0.7-0.5
		c0.2,0,0.3,0,0.5,0c0.1,0.1,0.1,0.2,0.1,0.2c0.1,0.1,0,0-0.1-0.2C87.7,74.4,88.4,74.8,88.9,75z"/>
	<path class="st45" d="M89.4,25.1c0-0.1,0-0.3,0-0.4c2.2,0.1,3.5,1.8,3.2,4.1c-0.1,0.3-0.3,0.5-0.6,0.6c-0.3,0-0.6,0-0.8,0
		c-0.9-0.5-1.2-1.2-0.9-2.2C90.6,26.2,89.2,26,89.4,25.1z"/>
	<path class="st8" d="M90.6,30.2c-0.1,0.7-0.4,1.2-0.9,1.7c0.4-1.3-0.7-2.1-1.2-3c1,0,0.4-0.9,0.8-1.3
		C91.2,27.8,90.1,29.4,90.6,30.2z"/>
	<path class="st46" d="M90.6,30.2c-0.8-0.7,0-2.1-1.3-2.6c-0.1-0.8,0.6-0.2,0.9-0.4c0.3,0.7,0.6,1.4,0.9,2.2
		C90.7,29.5,90.7,29.9,90.6,30.2z"/>
	<path class="st47" d="M100.5,44.5c0.1,0.4,0.3,0.8,0.4,1.3c-0.5,2.2,0.9,4.2,0.7,6.4c0,0.2,0.4,0.4,0.6,0.6c0,0.1,0,0.3,0,0.4
		c-0.2,1.4-1.2,2.6-0.9,4.2c0.1,0.7-0.4,1.5-1.3,1.6c-1-0.4-0.8-1.2-0.9-2c0-2.1-0.1-4.3-0.4-6.4c-0.1-0.7-0.3-1.4,0-2.1
		c0.7-2.2-0.1-3.9-1.5-5.5C97,42.7,97,42.5,97,42.3c0.9-0.7,1-1.6,0.9-2.6c-0.4-4.1-2.3-7.7-4.3-11.2c-0.4-1.3-0.7-2.7-0.1-4
		c0.1-0.1,0.2-0.2,0.3-0.2c0.1,0,0.3,0,0.4,0c0.4,0.6,0.5,1.4,1.3,1.7c1.4,4,2.9,8,4.3,12c0.8,1.4,0.9,2.9,0.6,4.5
		C100.2,43.2,100.2,43.8,100.5,44.5z"/>
	<path class="st28" d="M100.1,58.7c0.3-0.5,1-0.7,0.8-1.4c-0.5-1.7,0.4-3,1.3-4.2c0.7,1.5,0.1,3.1-0.4,4.4c-0.7,1.9-0.9,3.7-0.9,5.6
		c0,1.3-0.9,2.5-0.4,3.8c-1,0.6-1.5,0.1-1.7-0.9c0.3-1.9,0.9-3.8,0.9-5.7C99.9,59.8,99.8,59.2,100.1,58.7z"/>
	<path class="st35" d="M102.3,52.7c-0.3-0.1-0.8-0.2-0.8-0.3c0-2.2-1.8-4.3-0.5-6.7c0.1,0.3,0.3,0.6,0.4,0.9
		C101.6,48.6,101.7,50.7,102.3,52.7z"/>
	<path class="st48" d="M99.3,65.6c-0.1,1,0.3,1.4,1.3,1.3c-0.1,0.3-0.2,1-0.2,1c-1.5-0.1-1.5,1.1-1.9,2c-0.4,0.1-0.6-0.2-0.8-0.5
		c-0.3-1-0.2-2,0.3-3C98.3,66,98.5,65.4,99.3,65.6z"/>
	<path class="st49" d="M98,72c-1.3,0.2-0.1,1.9-1.3,2.2c-0.6-1.4,0.8-2.5,0.4-3.9c-0.1-0.4,0.1-0.5,0.5-0.5c0.5,0.4,0.1,1,0.4,1.4
		C98,71.5,98,71.7,98,72z"/>
	<path class="st27" d="M98,71.2c-0.5-0.3-0.4-0.8-0.4-1.3c-0.1-0.4,0.1-0.5,0.4-0.4c0.1,0.1,0.3,0.3,0.4,0.4
		C98.3,70.3,98.1,70.7,98,71.2z"/>
	<path class="st35" d="M100.5,44.5c-0.8-0.6-0.8-1.5-0.7-2.3c0.2-1.4-0.1-2.8-0.2-4.2c0.3,0,0.5,0.8,0.7,0.4
		c0.9-1.2,0.9-0.3,0.8,0.3c-0.1,1,0.1,1.9,0.6,2.7C101,42.3,100.3,43.1,100.5,44.5z"/>
	<path class="st31" d="M92.4,22c0.8,0.5,1.4,1.1,1.3,2.1c0,0,0,0.1,0,0.1c-0.6,0.4-1,0.1-1.4-0.3c-0.1-0.2-0.2-0.4-0.2-0.6
		C91.9,22.8,92.1,22.4,92.4,22L92.4,22z"/>
	<path class="st31" d="M95.4,25.9c-2.1,0.7-0.9-1.1-1.3-1.7C94.8,24.6,95.4,25.1,95.4,25.9z"/>
	<path class="st50" d="M89.4,78.9c-0.6-1.4,1.4-3-0.4-4.3c1.1-1.6,1.8-3.4,2.5-5.2c0.7-0.7,0.7-1.8,1.5-2.7c1.1,0.6,1.1,1.7,1.5,2.6
		c0.1,0.4,0.2,0.8,0.1,1.2c-0.8,3-2,5.8-3.9,8.3C90.2,78.9,89.8,78.9,89.4,78.9z"/>
	<path class="st51" d="M90.7,78.9c0.9-1.9,1.8-3.9,2.7-5.8c0.3-0.7,0.5-1.6,0.8-2.3c0.5-1.3,0.9-2.6,1.5-3.7
		c0.2-0.5,0.3-1.4,1.3-0.9c0.9,1.7-0.3,3-0.9,4.4c-0.9,2.3-1.9,4.5-1.5,7.1l0,0c-0.3,0.3-0.6,0.3-0.9,0.1c-1-0.6-0.9,0.1-0.8,0.8
		c0,0.4,0,0.9,0,1.3c-0.7,0.2-1.2,0.8-1.7,1.3C90.7,80.4,90.6,79.7,90.7,78.9z"/>
	<path class="st52" d="M82.1,89.3c0-0.4,0-0.8,0-1.3c0.9,0,1.6-0.2,1.5-1.3c0-0.5,0.4-0.8,0.9-0.5c0.4,0.2,0.5,0.6,0.1,1
		c-0.2,2.1-0.9,3.2-3.1,4.6c-0.6,0.4,0,1.2-0.7,1.3c-0.5,0.2-0.8,0-1-0.4C79.3,90.7,81.4,90.5,82.1,89.3z"/>
	<path class="st53" d="M86.4,80.2c0.3,0,0.6,0,0.9,0c0.1,0.1,0.1,0.1,0.2,0.2c0.6,1.1-1.3,1.7-0.5,2.8c0,0.2,0,0.4-0.2,0.5
		c-0.7,0.9,0.4,2.9-1.7,3c-0.6-0.9-0.6-1.7-0.1-2.6C84.3,82.4,85.8,81.5,86.4,80.2z"/>
	<path class="st54" d="M85.1,84.1c0,0.9,0,1.8,0.1,2.6c-0.1,0.2,0.2,0.9-0.5,0.4c-0.5-1.3-0.7-0.8-0.8,0.1c-0.1,1.4-0.5,1.9-1.7,0.7
		c1.5-1.1,1.8-2.7,2.1-4.3C84.4,84,84.7,84.1,85.1,84.1z"/>
	<path class="st50" d="M86.8,83.7c0-0.2,0-0.3,0-0.5c-0.3-0.7,0.2-1.1,0.5-1.5c0.4-0.5,0.5-1-0.1-1.5c0,0,0,0,0,0
		c0.5-0.9,1.1-1.4,2.1-1.3C88.6,80.5,88.9,82.8,86.8,83.7z"/>
	<path class="st51" d="M91.1,81.1c0,1-1.4,1.1-1.3,2.2C89,81.8,88.9,80.7,91.1,81.1z"/>
	<path class="st15" d="M80,92.7c0.3,0.1,0.6,0.3,0.9,0.4c-0.2,0.4-0.4,0.7-0.9,0.9c0,0,0,0,0,0c-0.4-0.3-1.1-0.2-1-1
		C79.2,92.5,79.5,92.4,80,92.7z"/>
	<path class="st25" d="M91.1,85.4c-0.3,0.5-0.6,1-1,1.6c-0.4-0.1-1-0.5-0.8-0.8C89.7,85.6,90.5,85.5,91.1,85.4z"/>
	<path class="st55" d="M94.5,77.6c-1.6-3.2,0.5-5.8,1.7-8.5c0.5-1.1,0.4-2.1,0.5-3.1c-0.7-0.8-0.6-1.7-0.4-2.6
		c0.6-0.9,1-1.8,0.8-3.1c-0.3-1.3,1.5-3.5,2.6-3.8c0.1,0.7-0.3,1.6,0.4,2.2c0.1,0.4,0.6,0.9,0,1.3c-1.2,2-0.7,4.4-1.7,6.5
		c-0.6,0.9-0.4,2-0.4,3c-0.1,0.1-0.3,0.3-0.4,0.4c-0.1,0.1-0.3,0.3-0.4,0.4C95.5,72.5,95,75,94.5,77.6z"/>
	<path class="st55" d="M92.8,78.5c-0.5-0.5-1-0.9-0.3-1.6c0.8-0.8,0.8,0.3,1.2,0.5c0.3,0.1,0.5,0.2,0.8,0.2
		C94.2,78.5,93.8,79,92.8,78.5z"/>
	<path class="st56" d="M92.4,23.4c0,0.1,0,0.3,0,0.4c1,1.4,0.4,3.4,1.7,4.7c2.4,3.4,3.9,7.1,4.3,11.3c0.1,1.2,0.6,2.4-1.3,2.5
		c-0.8-0.7-0.6-1.8-0.7-2.6c-0.3-3.7-2.1-6.7-4.2-9.6c-0.2-0.4,0.5-0.6,0.2-1c0,0-0.1-0.2-0.1-0.2c0.1-2.2-1.1-3.5-3-4.3
		c0.6-1.7-0.3-4.2-1.7-5.2c-0.4-0.9-0.9-1.7-1.7-2.1c-0.3-1.1-1.2-1.7-1.7-2.6c0.3-0.2,0.6-0.3,0.9-0.5c2.1,1.4,3.3,3.5,4.3,5.8
		c0.4,0.8,0.6,1.7,1.7,2c0,0.1,0,0.3,0.1,0.4C91.5,22.8,92.1,22.9,92.4,23.4z"/>
	<path class="st26" d="M92.4,23.4c-0.6-0.1-1.3,0-1.2-0.9c0.4-0.1,0.8-0.2,1.2-0.4C92.4,22.5,92.4,22.9,92.4,23.4z"/>
	<path class="st57" d="M92.4,29.8c3.5,3.4,4.7,7.8,4.7,12.5c0,0.1,0,0.3,0,0.4c0,0.1-0.1,0.2-0.1,0.3c-0.9,1.2-1,2.3-0.3,3.7
		c0.9,1.8,0.1,3.9,0.4,5.9c0.2,1.3,0.6,2.7,0,4c-0.1,0.2-0.2,0.3-0.4,0.5c-0.6,0.4-1,1-1.9,0.7c-0.7-3.2,1.5-6.5-0.1-9.7
		c-0.9-1.8,0.1-3.6-0.2-5.4c-0.1-0.1-0.2-0.2-0.2-0.3c0-0.1,0.1-0.1,0.1-0.1c-0.2-3.2-0.5-6.5-1.9-9.4c-0.7-1.3-1-2.2-0.7-3.5
		c0.1-0.2,0.3-0.3,0.4-0.5c0,0,0,0,0,0C92.7,29.2,92.6,29.5,92.4,29.8z"/>
	<path class="st58" d="M94.9,57.8c0.6-0.1,1-0.9,1.7-0.8c2,1.3,0.4,2.2-0.4,3.1c-0.4-0.3-0.1-0.8-0.3-1.1c0.2,0.7-0.1,1.4,0.2,2
		c0.3,0.6,1.2,1.1,0.5,2c0,1,0,2,0,3c-1.1,1.5-1.2,3.4-2.6,4.8c0-0.4,0-0.9,0-1.3c-0.2-1,0.5-1.9,0.6-2.9c0.2-2.1,0.2-4.1-0.9-6
		c-0.1-0.6,0-1.1,0.3-1.5C94.4,58.6,94.7,58.2,94.9,57.8z"/>
	<path class="st6" d="M94.1,59.1c0,0.6,0.1,1.1,0.1,1.7c0.2,1.5,1.6,3.2-0.7,4.3c-0.2,0.1-0.4,0.1-0.6,0c0-2-0.5-4.2,0.9-6
		C93.8,59.1,93.9,59.1,94.1,59.1z"/>
	<path class="st8" d="M94.5,42.3c0,0.1,0,0.3,0,0.4c-0.1,0.6-0.2,1.2-1.1,1.2C93.4,43,94,42.6,94.5,42.3z"/>
	<path class="st59" d="M92.8,65.1c1.8-1,1.1-2.8,1.3-4.3c1.9,2.9,1.4,5.8,0,8.6c-0.4-0.7-0.7-1.5-1.1-2.2c-0.7,0.6-0.2,2-1.5,2.2
		C92,68,92.4,66.6,92.8,65.1z"/>
	<path class="st52" d="M79.1,93.1c0.3,0.3,0.6,0.6,0.8,0.8c-0.6-0.1-1.2,0.2-1.7,0.4c0.1-0.4,0.3-0.9,0.4-1.3c0,0,0,0,0,0
		C78.8,93,79,93,79.1,93.1z"/>
	<path class="st38" d="M79.1,93.1c-0.1,0-0.3,0-0.4,0c-0.6-1.7,1-2.1,1.8-3c0.4-0.4,1.1-0.6,1.6-0.9c-0.2,1.5-2.2,1.8-2.1,3.4
		C79.6,92.7,79.3,92.8,79.1,93.1z"/>
	<path class="st53" d="M86,17.3c1.8-0.3,1.8,0.9,1.7,2.1c-0.6-0.4-1.1-0.9-1.7-1.3C86,17.9,86,17.6,86,17.3z"/>
	<path class="st60" d="M87.7,75.5c0.7,0.6,0.4,1-0.2,1.5C87,76.4,87.8,76,87.7,75.5C87.7,75.5,87.7,75.5,87.7,75.5z"/>
	<path class="st61" d="M96.3,60c0.2-1,1.3-1.9,0.3-3c0,0,0,0,0,0c0.5-2.3,1.5-4.2,0.4-6.9c-0.8-2.1-0.5-4.9,0-7.3c0,0,0.1,0,0.1,0
		c1.7,0.2,2.2,2,2.1,2.9c-0.3,3.7,0.4,7.3,0.4,10.9c-1.4,1.2-2.4,2.8-1.9,4.6c0.3,1.2-0.3,1.5-1,1.9c0.4-0.9-0.9-1-0.9-1.8
		C95.6,60.7,95.9,60.3,96.3,60z"/>
	<path class="st62" d="M94.1,28.5c-1.8-1.1-1.7-3-1.7-4.7c0.4,0.2,0.8,0.3,1.3,0.5C93.7,25.7,93.6,27.1,94.1,28.5z"/>
	<path class="st63" d="M98.4,66.4c0.1-1.7,0.2-3.4,0.3-5.1c0.1-0.7,1-0.8,1.4-1.3c0,1.9-0.2,3.8-0.9,5.6
		C99,65.9,98.7,66.1,98.4,66.4z"/>
	<path class="st64" d="M87.2,80.2c0.8,0.1,1.4,0.3,0.7,1.3c-0.4,0.6-0.8,1.1-1.1,1.7c-1.2-0.2-1-0.9-0.4-1.4
		C87,81.3,87.3,80.9,87.2,80.2z"/>
	<path class="st45" d="M92.4,29.8c0-0.3,0-0.6,0-0.9c0.4,0.1,1-0.1,1.1,0.3C93.5,29.8,92.7,29.5,92.4,29.8z"/>
	<path class="st65" d="M97.1,42.7c1.1,2.1-0.1,4.3,0.2,6.4c0.1,0.6-0.5,1.4,0.8,0.8c0,0,0.3,0.3,0.3,0.4c-0.1,2.3-0.1,4.7-1.7,6.5
		c0.6-1.3,0.2-2.7-0.1-4c-0.5-2.4,0.7-5-0.9-7.4C95,44.6,95.8,43.3,97.1,42.7z"/>
	<path class="st57" d="M96.3,60c-0.2,0.4-0.3,0.8-0.5,1.3c-1-1,0.4-2,0.1-3C96.5,58.8,96.2,59.4,96.3,60z"/>
</g>
</svg>
