<?xml version="1.0" encoding="utf-8"?>
<!-- Generator: Adobe Illustrator 25.0.0, SVG Export Plug-In . SVG Version: 6.00 Build 0)  -->
<svg version="1.1" id="Layer_1" xmlns="http://www.w3.org/2000/svg" xmlns:xlink="http://www.w3.org/1999/xlink" x="0px" y="0px"
	 width="105.5px" height="129px" viewBox="0 0 105.5 129" style="enable-background:new 0 0 105.5 129;" xml:space="preserve">
<style type="text/css">
	.st0{fill:#FCFCFC;}
	.st1{fill:#2D3C44;}
	.st2{fill:#495C64;}
	.st3{fill:#E5E8EA;}
	.st4{fill:#D0D7D8;}
	.st5{fill:#DDE2E3;}
	.st6{fill:#EEF1F2;}
	.st7{fill:#252D32;}
	.st8{fill:#A5B0B2;}
	.st9{fill:#B7C0C4;}
	.st10{fill:#4B5D65;}
	.st11{fill:#48A6DD;}
	.st12{fill:#FFFFFF;}
</style>
<g>
	<path class="st0" d="M3.9,42.6C4,47.5,4,52.4,4.1,57.3c-1,2.8,1.6,5.1,1.2,7.8c-1,0.1-1.9,0.6-1.7,1.7c0.2,1.6,1.7,1.2,2.8,1.4
		c0.8,1.7,1.7,3.5,2.5,5.2C8.6,74.4,9,75,10,75.2c1.3,2.8,3.1,5.2,5.4,7.2c0.9,0.8,1.5,1.7,1.3,3c-2,1.8-2,1.8,0.7,4.7
		c0.9-1.1,0.3-2.4,0.8-3.6c1,0.8,2.1,1.6,3.1,2.4c-0.8,0.2-2.5,0.5-1.8,1.3c1.5,1.7-0.1,3.9,1.5,5.3c0.1,0,0.6-0.3,0.8-0.6
		c0.4-0.6,0.9-0.7,0.8,0.1c-0.7,3.7,2.4,2.5,4,3.2c1.1,0.4,2.7-0.4,3.3,0.6c1,1.9,2.6,2.3,4.2,1.6c1.9-0.8-1.3-2.4,0.2-3.6
		c0.8,0,1.6-0.2,2.3,0.1c5.6,2.3,11.4,2.6,17.3,2.6c12.1-0.1,22.6-4.1,31.5-12.2c5.2,2.1,6.6,1.1,6.1-4.2c0-0.5-0.3-1-0.4-1.5
		c0.3-0.4,0.7-0.9,1-1.3c1.1,0,2.4,0.6,3.1-0.6c0.5-0.8-0.1-1.4-0.9-1.8c1.4-3.7,3.9-6.9,4.9-10.8c2,0.7,1.8,2.7,2.5,4.1
		c0.3,0.6,0.5,1.3,1.2,1.2c0.3,0,0.9-0.5,0.9-0.5c-1.5-3.3,2.3-5.2,2-8.6c-0.5-5.7-0.6-11.5,0.4-17.3c0.4-2.4,0.9-5.6-3.3-6.1
		c-1.5-0.2-0.9-1.4-0.2-2c1.9-1.5,1.3-3.3,0.3-4.8c-1.1-1.8-2.5,0.2-3.8,0c-0.6-0.4-0.5-1.1-0.5-1.7c1.9-0.6,2.3-1.8,1.4-3.5
		c-0.5-0.9-1.3-1.7-1.4-2.6c-0.6-4.1-3-5.7-6.9-5.5c-0.1-0.3-0.3-0.6-0.4-1c0.1-1.6,0.2-3.2,0.3-4.9c0-1.8-1.3-2.2-2.6-1.8
		c-2,0.6-0.1,1.4,0.1,2.1c0.2,0.7-0.1,1.2-0.6,1.6c-1.6-1.5-3.2-3-4.7-4.5C86.1,7.1,86.1,7,80.6,7c-2.1,0-4-0.7-6.1-0.8
		c-1.2-0.2-2.4-0.4-3.1-1.5c-0.1-6.2,0.4-5.1-5.4-5.4c-6.4-0.3-12.7,1.9-19-0.1c0.5-1.7,2.3-0.5,3.4-1.8c-3.4-0.5-6.6-1.5-8,2.8
		c0.7,1.3,3.1-0.3,3.3,1.8c-5.4,0.4-10.3,2.6-15.4,4.3c-1.1,0-2.3-0.1-2.4,1.5c-0.4,1.1-1.4,0.8-2.3,1c-0.8-3-3.2-1.4-4.8-1.5
		c-1.4-0.1-1.3,1.3-1.4,2.3c-0.1,2.1,1.3,2.2,2.8,2.3c-0.2,0.5-0.3,1-0.5,1.4c-7,4.6-11.2,11.4-14.4,18.9c-0.9-0.5-1.2-1.2-0.9-2.3
		c0.2-0.8,1.6-1.3,0.6-2.3c-0.2-0.3-1-0.3-1.4-0.1C4.4,28,5,29.2,4.9,30.2c-0.1,1.4,0.3,2.5,1.7,3.1c0,1.4-2,2.2-1.1,3.9
		c-0.5,1,0.1,2.3-1,3C2.9,40.7,3,41.6,3.9,42.6z"/>
	<path class="st0" d="M110.4,72.9c1.9-7.6,1.1-14.9,1.2-22.1c0-1.2,0.9-3.3-1.4-3.2c-1.9,0.1-1.6,2-1.6,3.4c0,5.3,0.3,10.6-0.2,15.9
		C108.1,69.3,108.6,70.9,110.4,72.9z"/>
	<path class="st0" d="M111.6,27.2C111.7,27.2,111.7,27.2,111.6,27.2c0-1.2,0.1-2.3,0-3.5c-0.1-1.6,0.5-3.5-2.2-3.6
		c-2.2-0.1-2.7,0.8-3.5,2.9c-1,2.6-2.5,4.1,1.5,4.9c0.2,0,0.3,1.4,0.3,2.2c-0.1,1.3,0.5,2.2,1.3,3.1c0.5,0.5,0.4,1.7,1.5,1.3
		c0.8-0.2,1.1-1.1,1.1-1.9C111.7,30.8,111.6,29,111.6,27.2z"/>
	<path class="st0" d="M37.6,109.7c0.5-2-2.1-0.8-3.4-1.4c-1.1,0.8-3.8-1-3.7,1.8"/>
	<path class="st0" d="M37.9,100.3c0.9,0.6,1.7,0.5,2.6,0.1C39.6,99.8,38.8,99.9,37.9,100.3z"/>
	<path class="st1" d="M25.7,8.6c0.8-0.2,1.8,0.1,2.3-1c0.8-0.4,2.1-0.1,2.4-1.5c5.1-1.6,10-3.9,15.4-4.3c3.8-0.6,7.6-0.3,11.5-0.1
		c4.9,0.3,9.4,2.2,14.2,2.8c0.8,1.1,2,1.3,3.1,1.5c3.1,1.8,5.8,4.2,9.2,5.6c1.6,1.5,3.2,3,4.7,4.5c0.6,1.3,1.7,2.1,2.8,2.9
		c0.1,0.3,0.3,0.6,0.4,1c2.3,3.9,4.7,7.7,7,11.6c0,0.6-0.1,1.2,0.5,1.7c3.3,11.3,3.6,22.6-0.1,33.9c-1,3.9-3.5,7.1-4.9,10.8
		c-1,0.6-1.8,1.3-2.2,2.4c-0.3,0.4-0.7,0.9-1,1.3c-1.9,1.9-3.8,3.8-5.6,5.7c-9,8.1-19.4,12.1-31.5,12.2c-5.9,0-11.8-0.3-17.3-2.6
		c-0.7-0.3-1.5,0-2.3-0.1c-3.5-2.1-7-4.1-10.5-6.2c-0.3-0.1-0.7-0.3-1-0.4c-0.5-0.4-0.9-0.9-1.4-1.3c-1-0.8-2.1-1.6-3.1-2.4l0,0
		c-0.2-0.8-0.5-1.4-1.5-1.1l0.1-0.1c0.2-1.3-0.4-2.2-1.3-3c-2.3-2.1-4.1-4.5-5.4-7.2c0.1-0.9-0.4-1.5-1.1-1.9
		c-0.8-1.7-1.7-3.5-2.5-5.2c0-1.1,0.3-2.4-1.1-3c0.4-2.7-2.2-5-1.2-7.8c1.6-0.3,1.4-1.5,1.4-2.6c0-2.3,0.1-4.5,0.1-6.8
		c2.9,2.3,3.7,5.8,4.4,9c0.5,2.7,2,4.7,3.2,6.9c1.7,3.1,4.4,1.7,6.9,1.4c0.7-0.1,1.7,0,2.2,0.4c1,0.9,2.4,1.7,2.4,3.3
		c0,0.9-1,1.1-1.7,1.4c-4.3,1.9-4.7,3.3-2.1,7.3c1.9,2.9,4.3,1.6,6.4,0.6c2.1-1.1,1.9-2.9,0.3-4.5c-1.7-1.7-0.8-2.8,0.8-3.6
		c0.9-0.5,1.8-0.9,2.4-1.8c0.7-0.9,1.8-1.3,2.7-0.5c1.3,1,0.3,2.4-0.4,3c-2,1.8-4.5,3.2-0.8,5.8c0.5,0.3,0.1,1.2-0.5,1.6
		c-1.3,0.9-2.3,2.2-0.9,3.5c1.3,1.2,2.8,0.4,4.1-0.7c1.9-1.6,3.8-2.7,6.6-2.1c2.4,0.5,6.2-4.2,4.8-5.6c-1.6-1.7-1-2.8,0.1-4.3
		c0.4-0.6,1.1-1.6,0.4-2.1c-2.1-1.7-2.3-4.5-3.9-6.4c-0.6-0.8-0.9-2.9-2.8-1.7c-1.7,1-1.2,2.2-0.2,3.5c1.3,1.6,1,3.3-0.3,4.8
		c-3.2-2.8-3.7-7.3-6.8-9.9c-2.2-1.9-3.2-4.4-3.9-6.8c-1-3.2-0.8-7,1.8-9.4c2.2-2.1,5.4-1.4,8-0.1c3,1.5,5.3,0.3,7.4-1.3
		c1.8-1.3,2.9-2.8-0.4-4c-2.4-0.9-3.3-2.5-0.5-4.4c2.1-1.5,4-3.2,6.5-4c1.5-0.5,2.8-1.6,3.1-3.2c0.4-1.9-1.5-2.2-2.6-3
		c-2.2-1.7-4.5-3.2-6.7-5c-0.9-0.7-1.6-1.4-2.7-0.9c-5.2,2-12.6-0.5-14.6,7.7c-0.2,0.9-1.7,1.5-2.6,2.2c-0.7,0.5-1.4,0.7-2.1,0.3
		c-0.9-0.5-1.3-1.5-1-2.3c1-3,1.2-6.6,5.1-7.6c1.9-0.5,3.3-2,5.3-2.2c1.1-0.1,2-0.8,1.7-2.1c-0.4-1.4-1.7-1-2.6-0.8
		C31.5,10.3,31,11,30.4,11c-3.1,0-5,4.6-8.7,2.2c0.2-0.5,0.3-1,0.5-1.4C23.6,10.9,25.1,10.4,25.7,8.6z M84.5,58.1
		c-0.1,2.2,0.2,4.1,3.1,3.9c2.7,1.6,0.9,2.7-0.4,3.7c-1.4,1.1-1.7,2.6-0.5,3.6c1.4,1.2,1.9-0.4,2.8-1.4c1.8-2,2.2-4.2,2-6.8
		c-0.1-1.5-0.4-3,1.3-4.1c3.5-2.4,1-5.2-0.4-6.9c-1.3-1.4-4-4.1-6.3-0.3c-0.4,0.7-1.2,1.4-2.3,1c-1.1-0.4-0.8-1.5-0.8-2.4
		c0-2.7-0.3-4.8-1.7-7.5c-1.8-3.3-2.6-3.8-5.4-1.9c-0.9,0.6-2,0.6-2.9-0.2c-1.3-1.2,0.3-1.7,0.6-2.6c0.8-1.7,0.6-3.1-0.3-5
		c-2.1-4.8-6.5-5.7-10.6-7.2c-1.2-0.5-2.2,0.3-3.1,1.1c-5.2,4.6-3.7,12.2,3,14.5c1.2,0.4,2.4,0.9,3.6,1.3c1,0.3,1.3,0.8,0.7,1.7
		c-2.8,3.8,0.5,7.1,0.7,10.7c0.1,1.1,1.3,1.5,2.4,1.6c1.9,0.1,3.3,0.3,2.2,3c-0.6,1.3,1.3,1.8,2.3,1.1c1.2-0.8,2.6-1.7,1.9-3.7
		c-1.1-3.3,0.9-3.8,3.5-3.4c1.8,0.2,3.5,0.7,4.7,2.3c0,0.5,0,1,0,1.5C83.6,56.6,83.6,57.4,84.5,58.1z M44.9,8.5
		c-0.6,0.2-1.3,0.3-1.8,0.6c-1.2,0.6-3.6,0.2-3.1,2.5c0.6,2.5,2.5,1,3.7,0.6c3.3-1.2,6.1,0.1,8.6,2c1.5,1.1,3.1,2,4.5,1.3
		c2.8-1.5,5.5-1.6,8.5-0.7c1,0.3,2.3,0,2.5-1.2c0.3-1.4-0.9-2.1-2-2.4c-1-0.3-2.1,0-3.1-0.2C58.5,10,54,11.2,49.7,10
		C48.1,9.6,46.6,9,44.9,8.5z M88.2,31.8c-3.1,0.2-2.2,3.1-1.9,5.3c0.3,2.3,0.7,5.5,3.9,5.3c3.1-0.2,1.9-4,3.3-5.8
		C94.3,35.4,90.8,31.7,88.2,31.8z M55.7,47.3c1.1-0.2,2.9,0.7,3.2-1.5c0.2-1.9-3-4.6-5.4-4.7c-1.3,0-2.4,0.3-2.3,1.9
		C51.5,45.5,52.5,47.4,55.7,47.3z M78,63.6c-1.8,0.4-2.8,1.6-2.8,3.5c0,1.7,0.7,2.8,2.5,2.6c1.9-0.2,2.8-1.5,2.9-3.4
		C80.8,64.5,79.5,64,78,63.6z M76,24.2c0-1.3-0.5-2.3-1.9-2.4c-1.2,0-1.9,0.8-1.9,2c0,1.3,0.2,2.9,1.8,2.9
		C75.1,26.7,75.8,25.5,76,24.2z M44.8,52.6c1.3,0,2.3-0.5,2.4-1.8c0.1-1-0.6-1.7-1.6-1.8c-1.5-0.1-2.5,0.7-2.6,2.1
		C42.9,52.2,43.9,52.5,44.8,52.6z M52.5,54.9c-0.3-1.2-1.2-1.5-2.3-1.4c-0.9,0.1-1.8,0.5-1.7,1.6c0.1,1.3,1.2,1.5,2.3,1.4
		C51.7,56.4,52.4,56,52.5,54.9z"/>
	<path class="st2" d="M21.7,13.2c3.7,2.5,5.6-2.1,8.7-2.2c0.6,0,1.1-0.7,1.7-0.8c1-0.1,2.2-0.5,2.6,0.8c0.4,1.3-0.6,2-1.7,2.1
		c-2,0.3-3.4,1.8-5.3,2.2c-4,1-4.1,4.6-5.1,7.6c-0.3,0.9,0.1,1.8,1,2.3c0.8,0.4,1.5,0.2,2.1-0.3c0.9-0.7,2.4-1.3,2.6-2.2
		c2-8.2,9.5-5.8,14.6-7.7c1.1-0.4,1.8,0.2,2.7,0.9c2.1,1.8,4.5,3.3,6.7,5c1,0.8,3,1.1,2.6,3c-0.3,1.6-1.6,2.6-3.1,3.2
		c-2.5,0.8-4.4,2.5-6.5,4c-2.8,1.9-1.8,3.5,0.5,4.4c3.3,1.2,2.1,2.7,0.4,4c-2.2,1.6-4.4,2.8-7.4,1.3c-2.6-1.3-5.8-1.9-8,0.1
		c-2.5,2.4-2.7,6.2-1.8,9.4c0.7,2.4,1.7,5,3.9,6.8c3.1,2.6,3.6,7.1,6.8,9.9c1.3-1.6,1.6-3.2,0.3-4.8c-1.1-1.3-1.5-2.5,0.2-3.5
		c1.9-1.2,2.1,0.9,2.8,1.7c1.6,1.9,1.8,4.7,3.9,6.4c0.7,0.5,0,1.5-0.4,2.1c-1,1.5-1.7,2.6-0.1,4.3c1.4,1.4-2.4,6.1-4.8,5.6
		c-2.8-0.6-4.7,0.5-6.6,2.1c-1.3,1.1-2.9,1.9-4.1,0.7c-1.4-1.2-0.4-2.6,0.9-3.5c0.6-0.4,1-1.3,0.5-1.6c-3.6-2.6-1.1-4,0.8-5.8
		c0.7-0.7,1.7-2,0.4-3c-0.9-0.7-2.1-0.4-2.7,0.5c-0.6,0.9-1.5,1.3-2.4,1.8c-1.6,0.8-2.4,1.9-0.8,3.6c1.5,1.5,1.8,3.4-0.3,4.5
		c-2.1,1.1-4.5,2.3-6.4-0.6c-2.6-4.1-2.2-5.5,2.1-7.3c0.7-0.3,1.7-0.5,1.7-1.4c0-1.5-1.4-2.4-2.4-3.3c-0.5-0.4-1.5-0.5-2.2-0.4
		c-2.5,0.3-5.2,1.7-6.9-1.4c-1.2-2.2-2.7-4.2-3.2-6.9c-0.6-3.2-1.5-6.7-4.4-9c-0.2-3.6,2.1-7.2-0.2-10.7c-0.9-1.6,1.1-2.5,1.1-3.9
		c0.3-0.4,0.5-0.8,0.8-1.3C10.5,24.6,14.7,17.8,21.7,13.2z"/>
	<path class="st3" d="M99.1,67.3c3.7-11.3,3.4-22.6,0.1-33.9c1.3,0.2,2.7-1.8,3.8,0c0.9,1.5,1.5,3.3-0.3,4.8c-0.7,0.6-1.3,1.8,0.2,2
		c4.2,0.4,3.7,3.7,3.3,6.1c-1.1,5.8-0.9,11.6-0.4,17.3c0.3,3.4-3.5,5.3-2,8.6c0,0-0.6,0.5-0.9,0.5c-0.8,0-0.9-0.6-1.2-1.2
		C100.9,70,101,68,99.1,67.3z M102.6,44.1c0.1,0.2,0.2,0.5,0.3,0.5c0.2,0,0.4-0.1,0.6-0.2c-0.1-0.2-0.3-0.5-0.4-0.7
		C103,43.9,102.8,44,102.6,44.1z"/>
	<path class="st4" d="M71.4,4.7C66.6,4,62.1,2.1,57.2,1.9c-3.9-0.2-7.6-0.5-11.5,0.1c-0.3-2.1-2.6-0.5-3.3-1.8
		c1.4-4.3,4.5-3.3,8-2.8c-1.1,1.3-2.9,0.1-3.4,1.8c6.3,2,12.7-0.3,19,0.1C71.7-0.5,71.3-1.5,71.4,4.7z"/>
	<path class="st5" d="M21.2,89.1c0.5,0.4,0.9,0.9,1.4,1.3c0.1,0.4,0.3,0.8,0.4,1.2c0.2-0.3,0.4-0.5,0.6-0.8c3.5,2.1,7,4.1,10.5,6.2
		c-1.5,1.2,1.7,2.8-0.2,3.6c-1.6,0.7-3.1,0.3-4.2-1.6c-0.6-1.1-2.2-0.2-3.3-0.6c-1.6-0.6-4.7,0.6-4-3.2c0.1-0.7-0.4-0.7-0.8-0.1
		c-0.2,0.3-0.7,0.6-0.8,0.6c-1.5-1.4,0-3.6-1.5-5.3C18.8,89.6,20.4,89.3,21.2,89.1z"/>
	<path class="st3" d="M110.4,72.9c-1.9-2-2.3-3.6-2-6c0.6-5.2,0.2-10.6,0.2-15.9c0-1.4-0.3-3.3,1.6-3.4c2.3-0.1,1.4,2,1.4,3.2
		C111.5,58,112.4,65.2,110.4,72.9z"/>
	<path class="st6" d="M111.6,27.2c0,1.8,0,3.6,0,5.4c0,0.8-0.3,1.6-1.1,1.9c-1.1,0.3-1-0.8-1.5-1.3c-0.8-0.9-1.4-1.8-1.3-3.1
		c0-0.7-0.1-2.1-0.3-2.2c-3.9-0.8-2.5-2.4-1.5-4.9c0.8-2.1,1.3-2.9,3.5-2.9c2.7,0.1,2.1,2,2.2,3.6C111.7,24.9,111.7,26,111.6,27.2
		C111.7,27.2,111.7,27.2,111.6,27.2z"/>
	<path class="st3" d="M98.6,31.7c-2.3-3.9-4.7-7.7-7-11.6c3.9-0.3,6.4,1.3,6.9,5.5c0.1,0.9,0.9,1.7,1.4,2.6
		C100.9,29.9,100.5,31.1,98.6,31.7z"/>
	<path class="st7" d="M5.5,37.2c2.3,3.5-0.1,7.2,0.2,10.7c0,2.3-0.1,4.5-0.1,6.8c0,1.1,0.2,2.4-1.4,2.6C4,52.4,4,47.5,3.9,42.6
		c0.2-0.8,0.4-1.6,0.6-2.4C5.6,39.4,5,38.1,5.5,37.2z"/>
	<path class="st4" d="M83.7,11.8c-3.4-1.4-6.1-3.8-9.2-5.6c2,0.1,4,0.8,6.1,0.8C86.1,7,86.1,7.1,83.7,11.8z"/>
	<path class="st3" d="M30.5,110.1c-0.1-2.8,2.6-1,3.7-1.8c1.4,0.6,3.9-0.6,3.4,1.4"/>
	<path class="st8" d="M85.3,87.5c1.9-1.9,3.8-3.8,5.6-5.7c0.2,0.5,0.4,1,0.4,1.5C91.9,88.6,90.5,89.6,85.3,87.5z"/>
	<path class="st3" d="M25.7,8.6c-0.6,1.7-2.1,2.3-3.5,3.1c-1.5-0.1-2.9-0.2-2.8-2.3c0.1-1,0-2.4,1.4-2.3C22.5,7.2,24.9,5.7,25.7,8.6
		z M22.8,9.6c-0.1,0-0.2-0.1-0.3-0.1c0,0.1,0,0.3,0,0.4c0.1,0,0.2,0,0.3-0.1C22.8,9.8,22.8,9.7,22.8,9.6z"/>
	<path class="st3" d="M91.2,19.2c-1.1-0.8-2.2-1.6-2.8-2.9c0.5-0.4,0.8-0.9,0.6-1.6c-0.2-0.7-2.1-1.5-0.1-2.1
		c1.3-0.4,2.6-0.1,2.6,1.8C91.4,15.9,91.3,17.5,91.2,19.2z"/>
	<path class="st9" d="M7.3,32.1c-0.3,0.4-0.5,0.8-0.8,1.3c-1.4-0.6-1.8-1.7-1.7-3.1c0.1-1-0.4-2.2,0.8-2.7c0.4-0.2,1.2-0.2,1.4,0.1
		c0.9,1-0.4,1.5-0.6,2.3C6.1,30.9,6.4,31.6,7.3,32.1z"/>
	<path class="st5" d="M18.1,86.6c-0.5,1.1,0.1,2.5-0.8,3.6c-2.7-2.9-2.7-2.9-0.7-4.7c0,0-0.1,0.1-0.1,0.1
		C16.5,86.7,17.2,86.8,18.1,86.6L18.1,86.6z"/>
	<path class="st9" d="M5.3,65.1c1.4,0.7,1.1,1.9,1.1,3c-1.1-0.2-2.5,0.2-2.8-1.4C3.5,65.7,4.4,65.2,5.3,65.1z"/>
	<path class="st3" d="M91.9,80.4c0.4-1.1,1.3-1.8,2.2-2.4c0.7,0.4,1.4,1,0.9,1.8C94.3,81.1,93,80.4,91.9,80.4z"/>
	<path class="st9" d="M4.5,40.2c-0.2,0.8-0.4,1.6-0.6,2.4C3,41.6,2.9,40.7,4.5,40.2z"/>
	<path class="st5" d="M37.9,100.3c0.9-0.4,1.7-0.5,2.6,0.1C39.6,100.8,38.8,100.9,37.9,100.3z"/>
	<path class="st3" d="M30.3,6.2c-0.2,1.4-1.6,1-2.4,1.5C28.1,6.1,29.3,6.2,30.3,6.2z"/>
	<path class="st9" d="M8.9,73.3c0.7,0.4,1.3,1,1.1,1.9C9,75,8.6,74.4,8.9,73.3z"/>
	<path class="st2" d="M84.5,54.3c-1.2-1.6-2.9-2.1-4.7-2.3c-2.6-0.3-4.6,0.1-3.5,3.4c0.7,2-0.7,2.9-1.9,3.7c-1,0.7-2.9,0.2-2.3-1.1
		c1.2-2.7-0.3-2.9-2.2-3c-1.1-0.1-2.3-0.5-2.4-1.6c-0.2-3.6-3.5-6.9-0.7-10.7c0.6-0.8,0.3-1.4-0.7-1.7c-1.2-0.4-2.4-0.8-3.6-1.3
		c-6.6-2.3-8.2-9.9-3-14.5c0.9-0.8,1.9-1.6,3.1-1.1c4.1,1.5,8.5,2.4,10.6,7.2c0.8,1.9,1,3.3,0.3,5c-0.4,0.8-1.9,1.4-0.6,2.6
		c0.9,0.8,2,0.8,2.9,0.2c2.8-1.8,3.7-1.4,5.4,1.9c1.4,2.7,1.8,4.8,1.7,7.5c0,0.9-0.3,1.9,0.8,2.4c1,0.4,1.8-0.3,2.3-1
		c2.3-3.8,5-1.1,6.3,0.3c1.5,1.6,3.9,4.5,0.4,6.9c-1.7,1.1-1.4,2.7-1.3,4.1c0.2,2.5-0.3,4.7-2,6.8c-0.9,1-1.4,2.5-2.8,1.4
		c-1.2-1-0.9-2.5,0.5-3.6c1.3-1,3.1-2.1,0.4-3.7c0.1-2.1-1-4-0.3-6.3C88,53.5,86.2,53.4,84.5,54.3z"/>
	<path class="st2" d="M44.9,8.5c1.6,0.5,3.2,1.1,4.8,1.5c4.3,1.2,8.8,0,13.2,0.8c1,0.2,2.1,0,3.1,0.2c1.1,0.3,2.3,1,2,2.4
		c-0.3,1.2-1.5,1.5-2.5,1.2c-2.9-0.9-5.6-0.8-8.5,0.7c-1.4,0.8-3.1-0.1-4.5-1.3c-2.5-1.9-5.2-3.1-8.6-2c-1.2,0.4-3.1,1.9-3.7-0.6
		c-0.5-2.3,1.8-1.9,3.1-2.5C43.7,8.8,44.3,8.7,44.9,8.5z"/>
	<path class="st2" d="M88.2,31.8c2.6,0,6.1,3.6,5.3,4.8c-1.4,1.9-0.2,5.6-3.3,5.8c-3.2,0.2-3.5-3-3.9-5.3
		C85.9,34.9,85.1,31.9,88.2,31.8z"/>
	<path class="st2" d="M55.7,47.3c-3.2,0.1-4.2-1.8-4.5-4.3c-0.2-1.6,0.9-1.9,2.3-1.9c2.4,0.1,5.6,2.8,5.4,4.7
		C58.6,48,56.8,47,55.7,47.3z"/>
	<path class="st2" d="M78,63.6c1.5,0.4,2.7,0.9,2.7,2.7c-0.1,1.9-1,3.2-2.9,3.4c-1.8,0.2-2.5-0.9-2.5-2.6C75.3,65.2,76.2,64,78,63.6
		z"/>
	<path class="st10" d="M84.5,54.3c1.7-0.9,3.5-0.7,2.9,1.4c-0.7,2.3,0.3,4.2,0.3,6.3c-2.9,0.2-3.3-1.6-3.1-3.9c1-0.8,1.1-1.6,0-2.4
		C84.5,55.3,84.5,54.8,84.5,54.3z"/>
	<path class="st2" d="M76,24.2c-0.2,1.3-0.9,2.5-2,2.5c-1.6,0-1.7-1.6-1.8-2.9c0-1.2,0.7-2,1.9-2C75.5,21.9,76,22.9,76,24.2z"/>
	<path class="st2" d="M44.8,52.6c-0.9-0.1-1.9-0.4-1.8-1.5c0.2-1.4,1.2-2.2,2.6-2.1c1,0.1,1.6,0.8,1.6,1.8
		C47.1,52.2,46.1,52.7,44.8,52.6z"/>
	<path class="st2" d="M52.5,54.9c-0.1,1.1-0.8,1.5-1.8,1.6c-1.1,0.1-2.1-0.1-2.3-1.4c-0.1-1.1,0.8-1.5,1.7-1.6
		C51.2,53.4,52.2,53.7,52.5,54.9z"/>
	<path class="st2" d="M84.5,55.8c1,0.8,1,1.6,0,2.4C83.6,57.4,83.6,56.6,84.5,55.8z"/>
	<path class="st0" d="M23.6,90.8c-0.2,0.3-0.4,0.5-0.6,0.8c-0.1-0.4-0.3-0.8-0.4-1.2C23,90.5,23.3,90.6,23.6,90.8z"/>
	<path class="st0" d="M18.1,86.6c-0.9,0.1-1.6,0-1.5-1.1C17.6,85.2,17.9,85.9,18.1,86.6z"/>
	<path class="st0" d="M102.6,44.1c0.2-0.1,0.3-0.3,0.5-0.4c0.1,0.2,0.3,0.5,0.4,0.7c-0.2,0.1-0.4,0.2-0.6,0.2
		C102.8,44.6,102.8,44.3,102.6,44.1z"/>
	<path class="st0" d="M22.8,9.6c0,0.1,0,0.2,0,0.2c-0.1,0.1-0.2,0-0.3,0.1c0-0.1,0-0.3,0-0.4C22.6,9.5,22.7,9.5,22.8,9.6z"/>
</g>
<g>
	<path class="st11" d="M90.8,126.5H15c-2.2,0-4-1.8-4-4v-23c0-2.2,1.8-4,4-4h75.8c2.2,0,4,1.8,4,4v23
		C94.8,124.7,93,126.5,90.8,126.5z"/>
	<g>
		<path class="st12" d="M31.9,113c-0.1-2-0.1-4.4-0.1-6.8h-0.1c-0.5,2.1-1.2,4.4-1.8,6.4l-2,6.4H25l-1.8-6.4
			c-0.5-1.9-1.1-4.3-1.5-6.4l0,0c-0.1,2.2-0.2,4.8-0.3,6.8l-0.3,6.3h-3.4l1.1-16.5h5l1.6,5.5c0.5,1.9,1,4,1.4,5.9h0.1
			c0.5-1.9,1-4.1,1.6-5.9l1.8-5.5h4.9l0.9,16.5h-3.6L31.9,113z"/>
		<path class="st12" d="M53.7,110.9c0,5.4-3.3,8.7-8.1,8.7c-4.9,0-7.7-3.7-7.7-8.4c0-4.9,3.2-8.6,8-8.6
			C51,102.6,53.7,106.3,53.7,110.9z M41.8,111.1c0,3.2,1.5,5.5,4,5.5s4-2.4,4-5.6c0-3-1.4-5.5-4-5.5
			C43.3,105.5,41.8,107.9,41.8,111.1z"/>
		<path class="st12" d="M71.2,110.9c0,5.4-3.3,8.7-8.1,8.7c-4.9,0-7.7-3.7-7.7-8.4c0-4.9,3.2-8.6,8-8.6
			C68.5,102.6,71.2,106.3,71.2,110.9z M59.3,111.1c0,3.2,1.5,5.5,4,5.5c2.5,0,4-2.4,4-5.6c0-3-1.4-5.5-4-5.5
			C60.8,105.5,59.3,107.9,59.3,111.1z"/>
		<path class="st12" d="M73.7,119.3v-16.5H78l3.4,6c1,1.7,2,3.8,2.7,5.6h0.1c-0.2-2.2-0.3-4.4-0.3-6.9v-4.8h3.4v16.5h-3.9l-3.5-6.4
			c-1-1.8-2.1-3.9-2.9-5.8h-0.1c0.1,2.2,0.1,4.5,0.1,7.2v5h-3.3C73.7,119.2,73.7,119.3,73.7,119.3z"/>
	</g>
</g>
</svg>
