<?xml version="1.0" encoding="utf-8"?>
<!-- Generator: Adobe Illustrator 25.0.0, SVG Export Plug-In . SVG Version: 6.00 Build 0)  -->
<svg version="1.1" id="Layer_1" xmlns="http://www.w3.org/2000/svg" xmlns:xlink="http://www.w3.org/1999/xlink" x="0px" y="0px"
	 width="105.5px" height="129px" viewBox="0 0 105.5 129" style="enable-background:new 0 0 105.5 129;" xml:space="preserve">
<style type="text/css">
	.st0{fill:#FCFCFC;}
	.st1{fill:#2D3C44;}
	.st2{fill:#495C64;}
	.st3{fill:#F2F5F4;}
	.st4{fill:#DDE2E3;}
	.st5{fill:#B7C0C4;}
	.st6{fill:#EEF1F2;}
	.st7{fill:#D0D7D8;}
	.st8{fill:#EBEDEE;}
	.st9{fill:#E5E8EA;}
	.st10{fill:#A5B0B2;}
	.st11{fill:#252D32;}
	.st12{fill:#F8F4EC;}
	.st13{fill:#E9E0DB;}
	.st14{fill:#48A6DD;}
	.st15{fill:#FFFFFF;}
</style>
<g>
	<path class="st0" d="M78,108.3c0.2,0.1,0.5-0.3-0.7-1.9c-0.1-1,0.2-2.8-0.7-2.7c-3,0.5-4.5-2.3-7-2.7c0-1,0-2,0-3.1
		c0.5,0,1,0,1.5,0c0.1,0.1,0.2,0.1,0.3,0.2c-0.1,0-0.2-0.1-0.3-0.1c0-1.6,1.1-1.6,2.3-1.6c1.1,0,2.2-0.1,3.3-0.1
		c3.3,0.7,4.3-0.8,3.7-5.2c2.1,0.4,2.8-1.9,4.4-2.4c1.3,0,2.6,0,3.9,0.1c0.5,0,1,0,1.6,0c0.7,0,1.5,0,2.2,0c1,0,2.1,0.1,2.2-1.3
		c0.2-1.7-1-1.7-2.2-1.7c0.1-1.2-0.3-2.3-0.9-3.3c0.1-1,0.7-1.3,1.6-1.4c1.6,0.2,2.7-0.1,3.6-1.9c1.5-3,3-6,2.6-9.5
		c1.5-3,0.4-6.1,0.7-9.2c0-0.5,0-1,0-1.5c1.2-1,0.7-2.3,0.9-3.6c0.2-2.2-0.2-5.7,0.8-6.2c4.1-2.1,0.1-4.9,1.1-7
		c0.1-0.2-0.4-0.7-0.7-0.3c-2.4,2.7-1.7-0.5-2-1.2c-0.9-2.1-1.6-4.4-2.4-6.6c-0.1-0.5-0.1-1-0.2-1.6c0-0.4,0-0.8-0.1-1.2
		c1.1-1.3,1.9-2.8,4.2-2.5c1.1,0.2,2.9-0.3,2.7-2c-0.2-1.5-1.8-0.8-2.9-1c-0.7-0.1-1.6,0.2-1.9-1.2c0.2-0.1,0.5-0.3,0.8-0.5
		c0.8-0.6,1.8-1.2,1.6-2.4c-0.1-0.4-0.6-0.9-1-1c-1.5-0.1-1.5,1.5-2.4,2.1c-2.2,1.5,1.1,4-1.2,5.4c-1.3-0.1-2.2-0.4-2.1-2
		c0.2-3.6-1.9-6.7-2.5-10c-1.5-0.4-1.7,2.5-2.1,1.4c-1.4-3.5-4-1.4-6-1.9c0.2-1.7-0.5-2.6-2.3-2.3c0,0,0,0,0,0
		c0.2-1.3,0.2-2.4-0.6-3.8c-1.7-3-4.3-1-6.4-1.6c-0.1,0-0.3,0-0.4,0.1c-1.4-2.1-3.6-2.4-5.9-2.4c0,0-0.4,0.1-0.4,0.1
		c0-0.5-0.1-1-0.1-1.5l0,0c0.2-0.3,0.5-0.5,0.7-0.8c-0.3-2.3-5.8-5.1-8.1-4.2c-4,1.6-8.1,2.3-12.4,1.3c-2.1-0.5-4.6-0.9-6.8,0.4
		c0.7,1.3,2.6,0.4,2.7,2c-2.3,0.4-4.7,0-6.8,1.2c-0.7-1.1-1.2-0.8-1.6,0.2c-0.3,0.2-0.5,0.3-0.8,0.5c-1.3,0.3-3.2-0.9-3.8,1.4
		c-0.3,0.7-0.9,0.8-1.6,0.6c-1.6-0.7-2.4,0.2-3.1,1.5C27.4,8.8,27.2,9,27,9c-2.1-0.7-4.1-1.1-6.3-0.9c-1,0.1-2.2-0.1-2.3,1.4
		c-0.1,1.1-0.6,2.4,0.8,3c0.7,0.4,1.3,0.7,1.4,1.6c-4.3,4.2-8.6,8.5-11.4,14c-1.7,0.2-4.2-0.9-4.8,0.9c-0.5,1.7-1,4.4,1.4,5.9
		c0.1,0.7,0.1,1.4,0.2,2.1c-0.9,0.4-1.2,1.2-1.4,2.1C3.1,45.4,3.3,51.7,3.5,58c-0.8,1.3-1.1,2.5,0.8,3.1c0,0.5,0.1,1,0.1,1.5
		c-2.4,4.8-2.2,5.5,1.4,6.2C7.6,71.3,9,74,9.9,77c-0.3,2.1-0.9,4.1,0.8,6.1c0.8-0.9,1-2.3,2.5-2.2c1.4,1.6,2.9,3.2,4.3,4.9
		c-1.8,3.5,3.3,5.3,2,9c-0.4,1.2,1.4,0.4,2.3,0.1c0.1,0,0.5,0.5,0.4,0.8c-0.5,3.7,2.2,2.9,4.2,3c1,0,2.3-0.4,2.9,0.5
		c0.9,1.2,1.7,2.4,3.3,1.7c1.8-0.7,0.8-2.4,1.1-3.7c4.6,1,9.2,1.9,13.8,2.9c0.9,1.4,1.7,1.3,2.4-0.1c3.3-0.1,6.6-0.3,9.9-0.4
		c0.6,0.4,1.1,0.8,1.7,1.3c-1.6,1.3-3.4,0.8-5.1,1c-2.2,0.2-4.5-0.8-6.6,0.7c-1.5,0.6-3.2-1.4-5.6,0.8c2.4,0,4,0,5.6,0
		c6.7,0,13.3,0,20,0c0,1,0,2,0,3c-6.7,0-13.4-0.1-20.1,0.1c-1.4,0-4.1-1.1-4,1.2c0.1,2,2.7,0.7,4.2,1.1"/>
	<path class="st0" d="M78.7,107.9c0.1-0.8-0.1-1.2-0.6-1.3c-0.2,0-0.7-0.6-0.7,0.2c0,0.6-0.1,1.3,0.6,1.5"/>
	<path class="st0" d="M67.2,111c1.7,0,2.7-0.5,2.5-2.4c1.5,0,3-0.1,4.5,0.1c2.1,0.2,1.9-1,1.7-2.3c0.5,0,1,0,2.8,1.5"/>
	<path class="st0" d="M109.9,17.5c-0.6-2.1-2.1-1.8-3.6-1.8c-0.8,0-2-0.3-2.4,0.6c-0.7,2.1,1.8,1.2,2.3,2.1c0.3,0.5,0.3,1.2,0.4,1.8
		c0.1,1.1-0.4,2.3,0.8,3.1c0,1-0.1,2,0,3c0,1-0.1,2.3,1.4,2.1c1.4-0.2,1.7-1.2,1.4-2.6c-0.2-1.1-0.4-2.2-0.5-3.3"/>
	<path class="st0" d="M105,63.4c-1-0.7-0.3-3.7-2.2-2.3c-1.7,1.3,0.3,3.9-0.1,6c-0.3,1.5,1,1.8,2.2,1.7c1.1,0,2.3,0,3.4-0.1
		c1.1-0.1,1.6-1.5,1-1.9C107.9,65.7,107.5,63.1,105,63.4z"/>
	<path class="st0" d="M107.4,46.4c0,3.1,0,5.5,0,8c0,0.5,0.3,1,0.8,1.1c0.6,0.1,1.2-0.2,1.2-0.6C109.2,52.2,111.6,49.1,107.4,46.4z"
		/>
	<path class="st1" d="M17.4,85.8c-1.4-1.6-2.9-3.2-4.3-4.9c-0.6-1.7-1.6-3-3.2-3.9c-0.9-3-2.3-5.7-4.1-8.2c0.5-2.3-0.5-4.2-1.4-6.2
		c0-0.5-0.1-1-0.1-1.5c0-1.1,0.5-2.3-0.8-3.1c-0.1-6.3-0.3-12.6,1.1-18.9c0.2-0.9,0.5-1.7,1.4-2.1c0.2,8.6,1.3,17,5.5,24.6
		c1.6,2.9,3.2,6.1,7.6,4.1c0.6-0.3,1.5-0.1,2.3,0c1.8,0,1.7,1.7,2.2,2.8c0.5,1.1-0.2,1.9-1.3,2.4c-3.9,1.9-4.5,3.4-2,6.6
		c1.2,1.5,2.8,3.9,5.3,2c1.8-1.4,4.2-3.1,1.3-5.8c-1-0.9-1-2.8,0.1-2.8c2.5-0.1,3.7-3.4,6.3-2.3c0.8,0.3,0.5,1.7-0.1,2.4
		c-0.5,0.6-1.2,0.9-1.8,1.4C30,73.4,29,74.5,31,76c1.5,1.1,1.3,2.4-0.2,3.4c-1,0.7-1.4,1.7-0.7,2.6c0.7,0.9,1.9,0.7,2.8,0.4
		c1.4-0.4,2.5-1.2,3.5-2.3c0.7-0.7,1.3-1.4,2.6-0.9c2.1,0.7,7.8-2,7.2-3.4c-1.2-3.1-0.7-5.7-0.4-8.7c0.1-1.3-2.1-3.3-2.6-5.5
		c-0.3-1.1-1.7-3-3.4-2.3c-1.9,0.8-1.9,2.4-0.6,4.1c0.8,1,0.9,2.3-0.1,3.4c-3.7-2.7-3.9-7.7-7.6-10.4c-2.6-1.9-2.9-5.1-3.2-7.9
		c-0.6-6.4,2.3-8.6,8.7-7.5c0.9,0.2,1.7,0.6,2.5,0.9c3,1,5.7-0.4,7.3-2.6c1.5-2.1-1.1-3.3-2.5-4.3c-2-1.4-1.4-2.3,0.3-3.3
		c2.2-1.3,4.4-2.6,6.5-4.1c4.2-2.8,4.2-3.4,0.1-6.1c-1-0.6-1.8-1.3-2.8-2c-3.7-2.9-7.4-6.1-12.3-1.8c-0.5,0.5-1.7,0.4-2.6,0.3
		c-2.2-0.1-4-0.1-4.3,2.9c-0.2,2-2.2,3.1-3.5,4.5c-0.8,0.8-1.6,1.3-2.6,0.3C22.5,25,22,24.2,22.4,23c1.4-4.8,5-7.3,9.4-8.8
		c1.2-0.4,3.3-0.2,2.7-2.1c-0.5-1.6-2.4-1.2-3.7-0.7c-2.2,1-4.3,2.3-6.4,3.5c-2,1.1-2.5,0.1-2.5-1.7c0.9-2.3,3.9-2.2,5-4.3
		c0.3,0,0.4-0.2,0.5-0.4c1.3,0.1,2.3-0.5,3.1-1.5c0.7,0.2,1.2,0,1.6-0.6c1.2-0.8,3,0.3,3.8-1.4c0.3-0.2,0.5-0.3,0.8-0.5
		c0.6,0.3,1.1,0.2,1.6-0.2c2.1-1.2,4.5-0.8,6.8-1.2C46.7,3,48.3,2.9,50,2.8c3.3-0.1,6.7-0.4,9.7,1.5c0.6,1.9,1.4,3.4,3.6,3.9
		c1.5,0.3,2.4,1.4,2.5,3c-1.8,1.7-3.6,0.1-5.4,0.3c-5.2,0.6-10.2,0.6-15.1-1.6c-1.5-0.7-3-0.1-4.3,0.9c-0.8,0.6-2.5,0.5-1.8,2.3
		c0.7,1.6,1.9,0.9,2.9,0.5c3.6-1.6,6.8-0.5,9.6,1.7c1.5,1.2,3,1.7,4.6,1.1c2.5-0.8,5.1-0.8,7.6-0.6c3.1,0.2,3.9-1.1,3.4-3.8
		c1.6-0.2,2.6,0.4,2.4,2.1c-0.2,1.9,1.1,2.9,1.8,4.3c1.3,2.5,4,3.1,5.8,4.5c2,1.5-0.1,3.4,1.8,4.3c4.4,2.1,3.9,7.2,5.8,10.8
		c1.5,2.9,1.2,6.7,1.7,10c-2.1,3.1-4.3,6.1-3.8,10.2c0.2,1.5-0.5,3.2,1.2,4.1c2,1,1.6-2.1,3.1-2c0.2,0.3,0.4,0.6,0.6,0.8
		c-0.1,0.5-0.2,0.9-0.3,1.4c0,0.3-0.1,0.5-0.1,0.8c-0.9,2.6-1,5.5-2.6,7.9c-0.4-0.9-0.8-2-1.7-0.5c-1,1.6-2,3.3-2.4,5.1
		c-1.1,4.2-4.7,7.3-7.4,9.1c-3.3,2.3-3.4,4.2-3.4,7.1c0,0.2,0,0.4,0,0.6c-1.1-0.2-1.7,0.5-2,1.5c-0.4,0.3-0.7,0.6-1.1,0.9
		c-0.6,0-1.2-0.1-1.4,0.6c-1.4-0.1-1.8,1.3-2.8,1.8c-2-0.8-1.8,1.4-2.8,2c-3.3,0.1-6.6,0.3-9.9,0.4c-0.8,0-1.6,0.1-2.4,0.1
		c-4.6-1-9.2-1.9-13.8-2.9C28.1,93.5,22,90.7,17.4,85.8z M79.8,53c1.8,0.6,2.1-0.5,2.3-1.9c0.5-3.3,0-5.9-1.8-9.1
		c-1.7-3-2.3-4.1-5.3-2.1c-0.9,0.6-2,0.7-2.9,0c-1.3-1.1,0.1-1.7,0.5-2.5c0.3-0.7,0.8-1.4,0.8-2.1c-0.2-4.5-8.3-10.8-13-10.2
		c-1.2,0.1-1.7,0.8-2.4,1.7c-4.2,5.7-2.6,11.3,3.9,14.1c1.8,0.8,6.7,0.5,2.6,4.8c-0.2,0.3,0,1.3,0.3,1.7c0.9,1.1,1,2.3,0.9,3.6
		c-0.2,2.8,0.7,4.8,4,4.8c1.1,0,2.2,0.5,1.9,1.8c-0.4,1.6-0.1,2.9,1.6,2.5c1.4-0.3,2.8-2,2.3-3.5C74.1,51.7,76.9,52.4,79.8,53z
		 M58.2,46.1c0-1.8-3.3-5.1-5-4.9c-1.5,0.2-2.5,1.2-2.5,2.8c0,2.6,2.6,4.7,5.4,4.6C57.8,48.6,58.2,47.5,58.2,46.1z M79.7,67.3
		c0.1-1.7-0.3-3.1-2.4-3.1c-2.1,0.1-2.7,1.8-2.8,3.4c0,1.5,1.2,2.5,2.7,2.6C79.2,70.3,79.7,69,79.7,67.3z M75.1,25.7
		c0-1.7-1.2-2.4-2.6-2.7c-1.1-0.3-1.1,0.7-1.2,1.4c-0.1,1.6,0.6,2.9,2,3.2C74.5,28,74.9,26.9,75.1,25.7z M47.2,51.3
		c-0.2-1.2-1.3-1.5-2.2-1.6c-1.2-0.1-1.9,0.6-2,1.8c0,1,0.6,1.7,1.6,1.7C45.9,53.3,46.6,52.4,47.2,51.3z M49.8,54.2
		c-1,0.1-2,0.3-2,1.6c0,1.1,0.9,1.4,1.9,1.4c1,0,2.1-0.2,2.1-1.6C51.7,54.5,50.8,54.3,49.8,54.2z"/>
	<path class="st2" d="M22,13.3c0,1.8,0.5,2.8,2.5,1.7c2.1-1.2,4.2-2.5,6.4-3.5c1.3-0.6,3.2-0.9,3.7,0.7c0.6,1.9-1.5,1.7-2.7,2.1
		c-4.5,1.5-8,4-9.4,8.8c-0.4,1.2,0.1,1.9,0.9,2.7c1,1,1.8,0.5,2.6-0.3c1.3-1.4,3.3-2.5,3.5-4.5c0.3-3,2.1-3,4.3-2.9
		c0.9,0,2.1,0.2,2.6-0.3c4.9-4.3,8.5-1.1,12.3,1.8c0.9,0.7,1.8,1.4,2.8,2c4.1,2.7,4.1,3.3-0.1,6.1c-2.1,1.4-4.3,2.8-6.5,4.1
		c-1.8,1-2.4,1.9-0.3,3.3c1.5,1,4.1,2.2,2.5,4.3c-1.6,2.2-4.3,3.6-7.3,2.6c-0.8-0.3-1.6-0.7-2.5-0.9c-6.4-1.1-9.3,1.1-8.7,7.5
		c0.3,2.8,0.6,5.9,3.2,7.9c3.6,2.7,3.9,7.7,7.6,10.4c1.1-1.1,0.9-2.4,0.1-3.4c-1.3-1.7-1.3-3.3,0.6-4.1c1.7-0.7,3.1,1.1,3.4,2.3
		c0.5,2.2,2.7,4.2,2.6,5.5c-0.3,3-0.8,5.6,0.4,8.7c0.6,1.4-5.1,4.1-7.2,3.4c-1.3-0.5-1.9,0.2-2.6,0.9c-1,1-2.1,1.9-3.5,2.3
		c-1,0.3-2.2,0.5-2.8-0.4c-0.7-0.9-0.3-1.9,0.7-2.6c1.5-1,1.7-2.3,0.2-3.4c-2-1.5-1-2.5,0.3-3.6c0.6-0.5,1.3-0.8,1.8-1.4
		c0.6-0.7,0.9-2.1,0.1-2.4c-2.6-1.1-3.8,2.2-6.3,2.3c-1.1,0-1.1,1.9-0.1,2.8c3,2.7,0.6,4.4-1.3,5.8c-2.5,1.9-4.2-0.5-5.3-2
		c-2.5-3.2-1.9-4.7,2-6.6c1.1-0.5,1.7-1.3,1.3-2.4c-0.4-1.1-0.3-2.7-2.2-2.8c-0.8,0-1.6-0.2-2.3,0c-4.4,2-6-1.2-7.6-4.1
		C7.2,54,6.1,45.6,5.9,37.1c-0.1-0.7-0.1-1.4-0.2-2.1c2.2-1.8,2.4-4.5,3.4-6.9c2.8-5.5,7-9.8,11.4-14C21,13.8,21.5,13.6,22,13.3z"/>
	<path class="st3" d="M84.7,71.3c1.6-2.4,1.7-5.3,2.6-7.9c0.1-0.1,0.3-0.1,0.3-0.2c0-0.2-0.1-0.4-0.2-0.6c0.1-0.5,0.2-0.9,0.3-1.4
		c1.8-1.6,1.1-3.6,0.7-5.5c-0.1-0.3-0.1-0.5-0.2-0.8c0.5-2,0.5-4.1,0.1-6.2c0.7-1.6,0.1-3.1,0-4.6c0.8-1.2,0.9-2.4-0.6-3.2
		c-0.3-1.6-0.7-3.1-1-4.7c-0.2-1.6,0.6-3.4-1.3-4.5c-0.7-1-1.3-2.1-1.2-3.4c0.3-3.2-3.1-5-2.9-8.1c0.1-0.1,0.1-0.2,0.2-0.3
		c-0.1,0.1-0.1,0.2-0.2,0.3c-0.7-0.3-1.5-0.5-2.2-0.8c-1.4-1.7-2.7-3.4-4.1-5.1c0.3-0.3,0.6-0.7,1-1c0.8,0.1,1.5,0.3,2,1
		c2.1,2.8,2.4,0.8,2.8-1.1c0.7,0,1.4,0.1,2.2,0.1c0,0,0,0,0,0c0.3,0.7,0.7,1.5,1,2.2c-0.8,0.3-2.3-0.2-2.1,0.9
		c0.2,1.5,1.5,2.6,2.9,3.6c0.7-1.3-1-2.7,0.6-3.6c0.8,0.6,1.5,1.1,2.3,1.7c0,0.5,0,1,0.1,1.5c2.7,1.8,4,4.5,5.6,7.1
		c1.2,2,1.4,5.5,5,5.7c0.1,0.5,0.1,1,0.2,1.6c-0.8,0.6-0.5,1.2-0.3,2c0.8,4.5,2.2,8.8,2,13.5c-0.1,3.1-1.1,6.3,0.6,9.4
		c0,0.5,0,1,0,1.5c-2.8,0.9-0.7,3.9-2.3,5.5c-1.7,1.7-0.7,3.2,1.6,3.7c0.3,3.5-1.1,6.5-2.6,9.5c-0.9,1.7-2,2.1-3.6,1.9
		c-0.4-1.6,1-2.5,1.6-3.7c1-2.3,3-4.3,2.1-7.2c-1,0.1-0.9,0.9-1.3,1.3c-2.1,2.7-2.3,6.8-6.1,8.1c-0.8-3,2.1-5,2.3-7.7
		c0.8-0.1,1.5-0.3,1.4-1.3c0-0.2-0.5-0.6-0.7-0.6c-0.9,0.3-0.6,1.2-0.7,1.9c-3.7,1.7-4.6,4.9-2.2,7.7c0,1,0,2,0,3l0,0
		c-0.9,0.3-1.8,0.7-2.8,1c-1.4-1.1,1-1.6,0.5-2.6c0-2.1,0.3-4.2-1.9-5.7c-1.1,2.1,0.7,3.8,0.4,5.7c-3.6,0.1-5.1,1.9-4.9,5.5
		c0,0.2-0.8,0.4-1.2,0.6c-0.1-0.3-0.3-0.7-0.4-1c-0.1,0.3-0.3,0.6-0.4,1c-1.2,0.2-2.2,0.6-2.5,2.1c1.9,0.5,2.6-0.2,2.6-2
		c0,0,0.3,0,0.3,0l0.3,0c0.3,0.8,0.6,1.6,0.9,2.4c-0.3,0.5-0.5,0.9-0.8,1.4c-2.6,0.8-3.9,2.4-2.9,5.2c-1.1,0-2.2,0.1-3.3,0.1
		c-1.8-1.9-3.9-1.3-5.3,1.5c-0.3,2.6-2.2,2.6-3.9,2.3c-1.1-0.2-2.9-0.7-1.8-2.6c1-0.6,1.4-1.9,2.8-1.8c0.5-0.2,0.9-0.4,1.4-0.6
		c0.4-0.3,0.7-0.6,1.1-0.9c1,0,1.9-0.2,2-1.5c0.1-0.2,0.1-0.4,0-0.6C76.9,86.7,81.8,79.7,84.7,71.3z M89.7,38.8
		c0,0.6,0.1,1.2,0.7,1.5c0,1.3,0,2.6,0,3.8c0,2.5,0,5.1,0,7.6c1.1,4.9-2.4,9.8-0.4,15.2c1.4-1.5,1.1-2.7,1.2-3.8
		c0.1-1.9-0.8-4.3,2.4-4.5c2.7-0.6,1.5,1.9,2.3,3.1c3.3-3.3,2-7.3,2.3-10.9c0.2-2.4-1-3.5-3.1-2.9c-3.9,1.1-4.1-1-3.8-3.9
		c2.6-5.7,3.1-11.3-1.1-16.5c-0.8-1-1.3-2.1-1-3.5c0.2-0.3,0.3-0.6,0.5-0.8c0,0-0.2-0.1-0.3-0.2c-0.1,0.3-0.3,0.6-0.4,0.9
		c-3.6,3.3-3.6,3.3,0.5,5.4c0.8,0.4,1.6,2,1.5,2.9c-0.1,1.5-1,0-1.5,0c-0.8,0.1-1.2,0.8-0.8,1.3C89.4,35.4,88.2,37.4,89.7,38.8z
		 M85.8,22.9c-0.3-0.2-0.6-0.6-0.8-0.6c-0.2,0-0.6,0.4-0.6,0.7c-0.1,0.5,0.2,1,0.8,0.8C85.5,23.7,85.6,23.3,85.8,22.9z M65.4,97.7
		c0,0.1-0.1,0.2-0.1,0.3c0.1,0,0.3,0,0.4,0c0-0.1,0-0.2-0.1-0.3C65.6,97.7,65.5,97.7,65.4,97.7z"/>
	<path class="st4" d="M17.4,85.8c4.6,4.9,10.7,7.7,16.2,11.4c-0.3,1.3,0.7,3-1.1,3.7c-1.6,0.7-2.4-0.5-3.3-1.7
		c-0.6-0.9-1.9-0.4-2.9-0.5c-2.1-0.1-4.7,0.7-4.2-3c0-0.3-0.4-0.8-0.4-0.8c-0.9,0.2-2.7,1.1-2.3-0.1C20.7,91.1,15.6,89.2,17.4,85.8z
		"/>
	<path class="st4" d="M59.7,4.3c-3-1.9-6.4-1.6-9.7-1.5c-1.6,0.1-3.3,0.2-4.9,0.3c-0.1-1.6-2-0.8-2.7-2c2.2-1.3,4.6-0.9,6.8-0.4
		c4.4,1,8.4,0.3,12.4-1.3c2.4-1,7.9,1.8,8.1,4.2c-0.2,0.3-0.5,0.5-0.7,0.8c0,0,0,0,0,0c-1.1,0-2.2-0.5-3,0.7c-1,0-1.6,0.5-1.6,1.6
		C62.7,6,61.8,3.9,59.7,4.3z"/>
	<path class="st5" d="M98,32.4c-3.5-0.2-3.7-3.7-5-5.7c-1.6-2.6-2.9-5.3-5.6-7.1c0.7-0.5,0.9-1-0.1-1.5c-0.8-0.6-1.5-1.1-2.3-1.7
		c0-0.3,0-0.5,0-0.8l0,0c2,0.5,4.6-1.6,6,1.9c0.4,1.1,0.6-1.8,2.1-1.4c0.6,3.3,2.7,6.3,2.5,10c-0.1,1.6,0.9,1.9,2.1,2
		c0.3,1-1.9,2,0,3C97.9,31.6,98,32,98,32.4z"/>
	<path class="st3" d="M49.7,108.7c6.6-1.4,13.3-0.5,19.9-0.8c0,0.2,0,0.5,0,0.7c0.1,1.9-0.8,2.4-2.5,2.4"/>
	<path class="st5" d="M100.4,58.9c-1.6-3-0.7-6.3-0.6-9.4c0.2-4.7-1.2-9-2-13.5c-0.1-0.8-0.5-1.4,0.3-2c0.8,2.2,1.5,4.4,2.4,6.6
		c0.3,0.7-0.4,3.8,2,1.2c0.4-0.4,0.8,0.1,0.7,0.3c-1,2.2,3,5-1.1,7c-1.1,0.5-0.6,4.1-0.8,6.2C101.2,56.6,101.6,57.9,100.4,58.9z"/>
	<path class="st4" d="M62.5,97.5c-1.1,2,0.6,2.4,1.8,2.6c1.8,0.3,3.7,0.3,3.9-2.3c0.5,0,1,0,1.5,0.1c0,1,0,2,0,3.1
		c0,0.8,0,1.5,0,2.3c-6.7,0-13.3,0-20,0c0-0.3,0-0.5,0-0.8c2-1.5,4.4-0.5,6.6-0.7c1.7-0.2,3.5,0.3,5.1-1c-0.6-0.4-1.1-0.9-1.7-1.3
		C60.7,98.9,60.5,96.7,62.5,97.5z"/>
	<path class="st6" d="M49.7,108.7c-1.5-0.4-4.1,0.9-4.2-1.1c-0.1-2.3,2.6-1.1,4-1.2c6.7-0.1,13.4-0.1,20.1-0.1c0,0,0,0,0,0
		c0,0.5,0,1,0,1.5C63,108.2,56.3,107.2,49.7,108.7"/>
	<path class="st3" d="M97.9,31.2c-2-1,0.2-2,0-3c2.3-1.4-1-3.9,1.2-5.4c0.9-0.6,0.9-2.3,2.4-2.1c0.4,0,1,0.6,1,1
		c0.2,1.2-0.8,1.7-1.6,2.4c-0.3,0.2-0.6,0.4-0.8,0.5c0.3,1.4,1.2,1.1,1.9,1.2c1,0.2,2.7-0.5,2.9,1c0.2,1.6-1.5,2.1-2.7,2
		C99.8,28.4,99,29.9,97.9,31.2z"/>
	<path class="st4" d="M22,13.3c-0.5,0.3-1,0.5-1.5,0.8c-0.1-0.9-0.6-1.2-1.4-1.6c-1.3-0.7-0.9-2-0.8-3c0.1-1.4,1.3-1.3,2.3-1.4
		C22.8,7.9,24.9,8.3,27,9C25.9,11.1,22.9,11,22,13.3z"/>
	<path class="st5" d="M89.7,79.5c3.8-1.4,4-5.5,6.1-8.1c0.4-0.4,0.3-1.2,1.3-1.3C98,72.9,96,75,95,77.3c-0.6,1.2-1.9,2.1-1.6,3.7
		c-0.9,0.1-1.5,0.4-1.6,1.4c-0.7,0.1-1.5,0.1-2.2,0.2C89.7,81.6,89.7,80.6,89.7,79.5C89.7,79.5,89.7,79.5,89.7,79.5z"/>
	<path class="st6" d="M69.7,103.3c0-0.8,0-1.5,0-2.3c2.5,0.4,4,3.1,7,2.7c0.9-0.1,0.6,1.7,0.7,2.7c-0.5,0-1,0-1.5,0
		c-2.1,0-4.1,0-6.2,0c0,0,0,0,0,0C69.7,105.3,69.7,104.3,69.7,103.3z"/>
	<path class="st7" d="M9.1,28.1c-1,2.4-1.2,5.1-3.4,6.9c-2.4-1.5-1.9-4.2-1.4-5.9C4.9,27.2,7.5,28.3,9.1,28.1z"/>
	<path class="st3" d="M75.3,8.1c0.1,0,0.3,0,0.4-0.1c-0.1,0.3-0.1,0.6-0.2,0.8C75,9.5,73.7,9.4,74,10.6c0,0.2,0.4,0.3,0.6,0.4
		c1,0.1,1.2-0.6,1.3-1.4c1.1,0,1.8,0.6,2.3,1.5c-0.5,1-2.5,0.6-2.3,2.3c-0.3,0.3-0.6,0.7-1,1c-1.7-1.6-3.5-3.2-5.2-4.8
		c0.1-1.6,1.3-1.6,2.4-1.7C73.2,8,74.3,8.1,75.3,8.1z"/>
	<path class="st8" d="M109.6,21.1c-1.1,0.1-2.1-0.2-3.1-0.8c-0.1-0.6-0.1-1.3-0.4-1.8c-0.5-1-3,0-2.3-2.1c0.3-1,1.5-0.6,2.4-0.6
		c1.5,0,3-0.3,3.6,1.8"/>
	<path class="st5" d="M75.6,8.9c0.1-0.3,0.1-0.6,0.2-0.8c2.1,0.7,4.7-1.4,6.4,1.6c0.8,1.4,0.8,2.5,0.6,3.8c-0.7,0-1.4-0.1-2.2-0.1
		c0,0-0.1,0-0.1,0c0.1-0.2,0.1-0.5,0-0.7c-0.8-0.5-1.6-1-2.3-1.5c-0.5-0.9-1.2-1.5-2.3-1.5C75.8,9.4,75.7,9.1,75.6,8.9z"/>
	<path class="st8" d="M107.4,46.4c4.2,2.7,1.8,5.8,2,8.4c0,0.5-0.6,0.8-1.2,0.6c-0.6-0.1-0.8-0.6-0.8-1.1
		C107.4,51.9,107.4,49.4,107.4,46.4z"/>
	<path class="st6" d="M105,63.4c2.4-0.2,2.8,2.3,4.4,3.4c0.6,0.4,0.1,1.7-1,1.9c-1.1,0.1-2.2,0.1-3.4,0.1
		C105,66.9,105,65.2,105,63.4z"/>
	<path class="st5" d="M76.8,96.2c-1-2.8,0.3-4.4,2.9-5.2c0,0,0.4,0,0.4,0l0.4,0.1C81.1,95.5,80.1,96.9,76.8,96.2z M79.3,93.7
		c-0.1,0.1-0.3,0.2-0.3,0.2c0,0.2,0.1,0.4,0.2,0.6c0.1-0.2,0.2-0.4,0.3-0.6C79.6,93.9,79.4,93.8,79.3,93.7z"/>
	<path class="st5" d="M99.7,69.6c-2.3-0.5-3.3-2-1.6-3.7c1.6-1.7-0.5-4.6,2.3-5.5C100.1,63.4,101.2,66.6,99.7,69.6z"/>
	<path class="st3" d="M105,63.4c0,1.8,0,3.6,0,5.4c-1.2,0-2.5-0.2-2.2-1.7c0.4-2.1-1.6-4.7,0.1-6C104.7,59.6,104.1,62.7,105,63.4z"
		/>
	<path class="st8" d="M72.1,8c-1.1,0.1-2.3,0.1-2.4,1.7c-2.3-0.1-3.3-2.6-5.4-3.2c0-1.1,0.6-1.5,1.6-1.6c0.9,0.7,2,0.9,3.1,0.8
		c0,0,0.4-0.1,0.4-0.1C69.6,7.3,71.3,7.1,72.1,8z"/>
	<path class="st4" d="M109.6,22.7c0.2,1.1,0.3,2.2,0.5,3.3c0.3,1.3,0,2.4-1.4,2.6c-1.5,0.2-1.4-1.1-1.4-2.1c0-1,0-2,0-3
		C108.1,23.2,108.9,22.9,109.6,22.7"/>
	<path class="st3" d="M89.7,82.6c0.7-0.1,1.5-0.1,2.2-0.2c0.6,1,1,2.1,0.9,3.3c-1.4,0.6-2.6,1.2-2.3,3c-0.5,0-1,0-1.6,0
		c-0.1-0.8-0.1-1.7-0.2-2.5c0-0.2,0.1-0.4,0.1-0.6c0.3-0.3,0.5-0.6,0.8-0.9C89.6,84,89.7,83.3,89.7,82.6L89.7,82.6z"/>
	<path class="st7" d="M69.7,106.4c2.1,0,4.1,0,6.2,0c0.2,1.3,0.4,2.5-1.7,2.3c-1.5-0.2-3,0-4.5-0.1c0-0.2,0-0.5,0-0.7
		C69.7,107.4,69.7,106.9,69.7,106.4z"/>
	<path class="st7" d="M4.4,62.6c0.9,2,1.9,3.9,1.4,6.2C2.2,68.1,2.1,67.4,4.4,62.6z"/>
	<path class="st7" d="M9.9,77c1.6,0.9,2.6,2.2,3.2,3.9c-1.5-0.1-1.6,1.3-2.5,2.2C9,81.2,9.6,79.1,9.9,77z"/>
	<path class="st9" d="M90.5,88.7c-0.3-1.8,0.9-2.5,2.3-3c1.2,0,2.4,0,2.2,1.7c-0.1,1.4-1.3,1.3-2.2,1.3
		C91.9,88.7,91.2,88.7,90.5,88.7z"/>
	<path class="st10" d="M80.5,91.1L80.2,91c0,0-0.4,0-0.4,0c0.3-0.5,0.5-0.9,0.8-1.4c2.2-0.3,3-3.1,5.3-3.3c0.1,0.9-0.4,1.6-0.9,2.3
		C83.3,89.2,82.7,91.5,80.5,91.1z"/>
	<path class="st5" d="M69.7,97.9c-0.5,0-1,0-1.5-0.1c1.4-2.8,3.5-3.4,5.3-1.5c-1.2,0-2.3,0-2.3,1.6l0,0
		C70.7,97.9,70.2,97.9,69.7,97.9z"/>
	<path class="st5" d="M72.1,8c-0.8-0.9-2.4-0.7-2.6-2.3c2.3,0,4.4,0.3,5.9,2.4C74.3,8.1,73.2,8,72.1,8z"/>
	<path class="st9" d="M85,88.6c0.4-0.7,1-1.3,0.9-2.3l0,0c1-0.1,1.9-0.2,2.9-0.2c0.1,0.8,0.1,1.7,0.2,2.5
		C87.6,88.7,86.3,88.7,85,88.6z"/>
	<path class="st3" d="M109.6,22.7c-0.8,0.2-1.5,0.5-2.3,0.7c-1.2-0.8-0.7-2-0.8-3.1c1,0.5,2,0.9,3.1,0.8"/>
	<path class="st6" d="M49.7,102.5c0,0.3,0,0.5,0,0.8c-1.6,0-3.2,0-5.6,0C46.5,101.2,48.2,103.1,49.7,102.5z"/>
	<path class="st4" d="M35.9,5c-0.8,1.7-2.7,0.7-3.8,1.4C32.6,4.1,34.5,5.3,35.9,5z"/>
	<path class="st7" d="M3.5,58c1.3,0.7,0.8,2,0.8,3.1C2.4,60.5,2.7,59.3,3.5,58z"/>
	<path class="st4" d="M30.5,7.1c-0.8,1-1.7,1.6-3.1,1.5C28.1,7.3,28.9,6.4,30.5,7.1z"/>
	<path class="st5" d="M83.8,15.7c-0.3-0.7-0.7-1.5-1-2.2c1.8-0.3,2.5,0.6,2.3,2.3c0,0,0,0,0,0C84.6,15.7,84.2,15.7,83.8,15.7z"/>
	<path class="st5" d="M69.1,5.8c-1.1,0.1-2.2-0.1-3.1-0.8c0.8-1.2,2-0.7,3-0.7C69,4.8,69,5.3,69.1,5.8z"/>
	<path class="st4" d="M47.4,100c0.8,0,1.6-0.1,2.4-0.1C49,101.4,48.2,101.4,47.4,100z"/>
	<path class="st6" d="M78,108.3c-0.8-0.2-0.6-0.9-0.6-1.5c0-0.8,0.5-0.2,0.7-0.2c0.5,0.1,0.8,0.6,0.6,1.3"/>
	<path class="st4" d="M38.2,4.3c-0.5,0.4-1,0.5-1.6,0.2C37.1,3.5,37.6,3.2,38.2,4.3z"/>
	<path class="st5" d="M68.9,4.3c0.2-0.3,0.5-0.5,0.7-0.8C69.4,3.8,69.2,4,68.9,4.3z"/>
	<path class="st5" d="M71.2,97.9c0.1,0,0.2,0.1,0.3,0.1C71.4,98,71.3,98,71.2,97.9C71.3,97.9,71.2,97.9,71.2,97.9z"/>
	<path class="st2" d="M79.8,53c-2.9-0.6-5.7-1.3-4.1,3.6c0.5,1.5-0.9,3.2-2.3,3.5c-1.7,0.4-2-0.9-1.6-2.5c0.3-1.3-0.8-1.8-1.9-1.8
		c-3.3,0-4.1-2-4-4.8c0.1-1.3-0.1-2.5-0.9-3.6c-0.3-0.4-0.6-1.5-0.3-1.7c4.1-4.3-0.8-4-2.6-4.8c-6.5-2.8-8.1-8.4-3.9-14.1
		c0.6-0.9,1.2-1.6,2.4-1.7c4.6-0.6,12.7,5.7,13,10.2c0,0.7-0.4,1.5-0.8,2.1c-0.4,0.8-1.9,1.4-0.5,2.5c0.9,0.7,2,0.7,2.9,0
		c3-2,3.6-0.9,5.3,2.1c1.8,3.2,2.3,5.8,1.8,9.1C81.8,52.6,81.6,53.6,79.8,53z"/>
	<path class="st11" d="M64.3,6.5c2.1,0.6,3,3,5.4,3.2c1.7,1.6,3.5,3.2,5.2,4.8c1.4,1.7,2.7,3.4,4.1,5.1c1,3.4,3,6.1,5.1,8.8
		c-0.1,1.3,0.5,2.4,1.2,3.4c0,1.6,0,3.3,1.3,4.5c0.3,1.6,0.7,3.1,1,4.7c-0.2,1.1-0.5,2.3,0.6,3.2c0.2,1.5,0.7,3.1,0,4.6
		c-0.3,0-0.7,0-1,0c-0.2-0.3-0.5-0.5-0.7-0.8c-0.5-3.4-0.2-7.2-1.7-10c-1.9-3.6-1.4-8.7-5.8-10.8c-1.9-0.9,0.2-2.8-1.8-4.3
		c-1.8-1.4-4.5-2.1-5.8-4.5c-0.7-1.4-2.1-2.4-1.8-4.3c0.2-1.7-0.8-2.3-2.4-2.1c-0.5-0.3-1-0.6-1.5-0.8c-0.1-1.6-1-2.7-2.5-3
		c-2.2-0.4-3.1-2-3.6-3.9C61.8,3.9,62.7,6,64.3,6.5z"/>
	<path class="st2" d="M65.9,11.1c0.5,0.3,1,0.6,1.5,0.8c0.5,2.7-0.3,4-3.4,3.8c-2.5-0.2-5.1-0.2-7.6,0.6c-1.6,0.5-3.1,0-4.6-1.1
		c-2.8-2.3-6-3.3-9.6-1.7c-1,0.4-2.3,1.1-2.9-0.5c-0.7-1.7,1-1.6,1.8-2.3c1.3-1,2.8-1.6,4.3-0.9c4.9,2.2,9.9,2.1,15.1,1.6
		C62.2,11.2,64.1,12.8,65.9,11.1z"/>
	<path class="st11" d="M84.7,71.3c-2.9,8.4-7.8,15.5-15,20.8c0-2.9,0.1-4.9,3.4-7.1c2.7-1.9,6.3-4.9,7.4-9.1
		c0.5-1.8,1.5-3.5,2.4-5.1C83.9,69.3,84.4,70.4,84.7,71.3z"/>
	<path class="st2" d="M86.6,48.1c0.2,0.3,0.5,0.5,0.7,0.8c0,1.4,0.1,2.7-0.2,4.1c-0.2,1.2-0.3,1.9,1.1,2.1c0.1,0.3,0.1,0.5,0.2,0.8
		c-1.9,1.1-0.4,3.2-1.3,4.6c-1.5-0.1-1.1,3-3.1,2c-1.7-0.9-1.1-2.6-1.2-4.1C82.3,54.2,84.5,51.1,86.6,48.1z"/>
	<path class="st2" d="M58.2,46.1c0,1.4-0.4,2.5-2.1,2.5c-2.8,0.1-5.4-2-5.4-4.6c0-1.7,1-2.6,2.5-2.8C54.9,41,58.2,44.3,58.2,46.1z"
		/>
	<path class="st2" d="M79.7,67.3c0.1,1.7-0.4,3.1-2.5,3c-1.5-0.1-2.8-1.1-2.7-2.6c0-1.6,0.7-3.3,2.8-3.4
		C79.3,64.1,79.7,65.6,79.7,67.3z"/>
	<path class="st2" d="M75.1,25.7c-0.1,1.1-0.5,2.3-1.8,2c-1.5-0.4-2.2-1.7-2-3.2c0.1-0.8,0.1-1.7,1.2-1.4
		C73.8,23.4,75.1,24,75.1,25.7z"/>
	<path class="st2" d="M47.2,51.3c-0.5,1.1-1.3,2-2.6,1.9c-1-0.1-1.6-0.7-1.6-1.7c0-1.2,0.7-1.9,2-1.8C45.9,49.8,46.9,50.1,47.2,51.3
		z"/>
	<path class="st2" d="M49.8,54.2c1,0.1,1.9,0.4,1.9,1.4c0,1.3-1,1.5-2.1,1.6c-0.9,0-1.8-0.3-1.9-1.4C47.7,54.5,48.8,54.3,49.8,54.2z
		"/>
	<path class="st10" d="M87.1,60.4c0.9-1.4-0.6-3.5,1.3-4.6c0.4,1.9,1.1,3.9-0.7,5.5C87.5,60.9,87.3,60.6,87.1,60.4z"/>
	<path class="st4" d="M69.7,92.7c-0.1,1.3-1,1.5-2,1.5C68,93.1,68.6,92.5,69.7,92.7z"/>
	<path class="st4" d="M66.6,95c-0.5,0.2-0.9,0.4-1.4,0.6C65.5,94.9,66.1,95,66.6,95z"/>
	<path class="st10" d="M87.4,62.6c0.1,0.2,0.2,0.4,0.2,0.6c0,0.1-0.2,0.1-0.3,0.2C87.4,63.1,87.4,62.8,87.4,62.6z"/>
	<path class="st12" d="M91.2,44.2c-0.3,2.9-0.1,5,3.8,3.9c2.2-0.6,3.3,0.5,3.1,2.9c-0.3,3.6,0.9,7.6-2.3,10.9
		c-0.8-1.3,0.4-3.7-2.3-3.1c-0.8-1.1-0.7-2.2-0.3-3.6c0.5-2-0.4-3.4-2.8-3.4c0-2.5,0-5.1,0-7.6C90.7,44.2,91,44.2,91.2,44.2z"/>
	<path class="st13" d="M91.2,44.2c-0.3,0-0.5,0-0.8,0c0-1.3,0-2.6,0-3.8c-0.2-0.9,1.2-1.9,0.2-2.6c-0.6-0.4-0.8,0.6-0.9,1.1
		c-1.5-1.4-0.3-3.5-1.3-5.1c-0.3-0.6,0-1.3,0.8-1.3c0.5,0,1.4,1.5,1.5,0c0.1-1-0.7-2.5-1.5-2.9c-4.1-2.1-4.1-2.1-0.5-5.4l0.2,0.1
		c-0.3,1.4,0.2,2.5,1,3.5C94.3,32.9,93.8,38.5,91.2,44.2z"/>
	<path class="st8" d="M85.9,86.4c-2.3,0.2-3,3-5.3,3.3c-0.3-0.8-0.6-1.6-0.9-2.4l0.1-0.1c0.4-0.2,1.2-0.5,1.2-0.6
		c-0.2-3.5,1.3-5.4,4.9-5.5c0.5,0,1,0,1.5,0c0.6,1-1.8,1.4-0.5,2.6C86.5,84.5,86.2,85.5,85.9,86.4L85.9,86.4z"/>
	<path class="st13" d="M90.4,51.8c2.4-0.1,3.3,1.3,2.8,3.4c-0.3,1.3-0.4,2.4,0.3,3.6c-3.2,0.3-2.3,2.7-2.4,4.5
		c-0.1,1.1,0.2,2.3-1.2,3.8C88.1,61.6,91.5,56.7,90.4,51.8z"/>
	<path class="st8" d="M84.2,28.4C82,25.7,80,23,79,19.6c0.7,0.3,1.5,0.5,2.2,0.8v0C81.1,23.5,84.5,25.3,84.2,28.4z"/>
	<path class="st13" d="M92,71.8c-0.1,2.8-3.1,4.7-2.3,7.7c0,0,0,0,0,0C87.3,76.7,88.3,73.5,92,71.8L92,71.8z"/>
	<path class="st8" d="M78.2,11.1c0.8,0.5,1.6,1,2.3,1.5c-0.3,0.1-0.9-0.1-0.9,0.5c0,0.1,0.6,0.1,0.9,0.2c0,0,0.1,0,0.1,0
		c-0.4,1.8-0.7,3.8-2.8,1.1c-0.5-0.7-1.2-0.9-2-1C75.7,11.8,77.7,12.2,78.2,11.1z"/>
	<path class="st8" d="M83.8,15.7c0.4,0,0.9,0.1,1.3,0.1c0,0.3,0,0.5,0,0.8c-1.6,0.9,0.1,2.3-0.6,3.6c-1.4-0.9-2.7-2-2.9-3.6
		C81.5,15.5,83,15.9,83.8,15.7z"/>
	<path class="st9" d="M87.4,81c-0.5,0-1,0-1.5,0c0.3-1.9-1.5-3.6-0.4-5.7C87.6,76.8,87.3,79,87.4,81z"/>
	<path class="st5" d="M85.8,86.4c0.4-0.9,0.7-1.9,1.1-2.8c0.9-0.3,1.8-0.7,2.8-1c0,0.7,0,1.5-0.1,2.2c-0.3,0.3-0.5,0.6-0.8,0.9
		c-0.1,0.2-0.1,0.4-0.1,0.6C87.7,86.2,86.8,86.3,85.8,86.4z"/>
	<path class="st1" d="M88.2,55c-1.4-0.1-1.3-0.9-1.1-2.1c0.3-1.3,0.1-2.7,0.2-4.1c0.3,0,0.7,0,1,0C88.7,50.9,88.8,52.9,88.2,55z"/>
	<path class="st8" d="M79,87.2c0,1.8-0.7,2.6-2.6,2C76.7,87.8,77.7,87.3,79,87.2C78.9,87.1,79,87.2,79,87.2z"/>
	<path class="st5" d="M86.7,36.3c-1.3-1.3-1.3-2.9-1.3-4.5C87.2,32.9,86.4,34.8,86.7,36.3z"/>
	<path class="st10" d="M88.2,44.2c-1.1-0.9-0.7-2.1-0.6-3.2C89.1,41.8,89.1,42.9,88.2,44.2z"/>
	<path class="st12" d="M89.7,38.8c0.1-0.6,0.3-1.6,0.9-1.1c1,0.7-0.4,1.7-0.2,2.6C89.8,40,89.7,39.4,89.7,38.8z"/>
	<path class="st13" d="M92,71.8c0.1-0.7-0.2-1.5,0.7-1.9c0.1-0.1,0.6,0.3,0.7,0.6C93.5,71.5,92.8,71.7,92,71.8
		C92,71.8,92,71.8,92,71.8z"/>
	<path class="st8" d="M85.8,22.9c-0.2,0.4-0.4,0.8-0.6,0.9c-0.6,0.2-0.8-0.3-0.8-0.8c0-0.3,0.4-0.6,0.6-0.7
		C85.3,22.3,85.5,22.7,85.8,22.9z"/>
	<path class="st8" d="M87.3,18.2c1,0.4,0.7,0.9,0.1,1.5C87.4,19.2,87.4,18.7,87.3,18.2z"/>
	<path class="st8" d="M88.8,24.1c0.1-0.3,0.3-0.6,0.4-0.9c0.1,0.1,0.3,0.2,0.3,0.2c-0.1,0.3-0.3,0.6-0.5,0.8
		C89,24.2,88.8,24.1,88.8,24.1z"/>
	<path class="st8" d="M79.7,87.2l-0.3,0c0,0-0.3,0-0.3,0c0,0-0.1-0.1-0.1-0.1c0.1-0.3,0.3-0.6,0.4-1C79.4,86.5,79.6,86.8,79.7,87.2
		C79.7,87.1,79.7,87.2,79.7,87.2z"/>
	<path class="st4" d="M65.4,97.7c0.1,0,0.2,0,0.2,0c0.1,0.1,0,0.2,0.1,0.3c-0.1,0-0.3,0-0.4,0C65.3,97.9,65.3,97.8,65.4,97.7z"/>
	<path class="st8" d="M81.2,20.4c0.1-0.1,0.1-0.2,0.2-0.3C81.3,20.2,81.3,20.3,81.2,20.4C81.2,20.4,81.2,20.4,81.2,20.4z"/>
	<path class="st8" d="M75.6,8.9c0.1,0.2,0.2,0.5,0.3,0.7c-0.1,0.8-0.3,1.5-1.3,1.4c-0.2,0-0.5-0.2-0.6-0.4C73.7,9.4,75,9.5,75.6,8.9
		z"/>
	<path class="st3" d="M80.5,13.4c-0.3-0.1-0.9-0.1-0.9-0.2c0-0.7,0.6-0.4,0.9-0.5C80.6,12.9,80.6,13.2,80.5,13.4z"/>
	<path class="st0" d="M79.3,93.7c0.1,0.1,0.3,0.2,0.2,0.2c-0.1,0.2-0.2,0.4-0.3,0.6c-0.1-0.2-0.2-0.4-0.2-0.6
		C79.1,93.8,79.2,93.7,79.3,93.7z"/>
	<path class="st9" d="M88.8,85.6c0.3-0.3,0.5-0.6,0.8-0.9C89.3,85,89.1,85.3,88.8,85.6z"/>
</g>
<g>
	<path class="st14" d="M90.8,126.5H15c-2.2,0-4-1.8-4-4v-23c0-2.2,1.8-4,4-4h75.8c2.2,0,4,1.8,4,4v23
		C94.8,124.7,93,126.5,90.8,126.5z"/>
	<g>
		<path class="st15" d="M31.9,113c-0.1-2-0.1-4.4-0.1-6.8h-0.1c-0.5,2.1-1.2,4.4-1.8,6.4l-2,6.4H25l-1.8-6.4
			c-0.5-1.9-1.1-4.3-1.5-6.4l0,0c-0.1,2.2-0.2,4.8-0.3,6.8l-0.3,6.3h-3.4l1.1-16.5h5l1.6,5.5c0.5,1.9,1,4,1.4,5.9h0.1
			c0.5-1.9,1-4.1,1.6-5.9l1.8-5.5h4.9l0.9,16.5h-3.6L31.9,113z"/>
		<path class="st15" d="M53.7,110.9c0,5.4-3.3,8.7-8.1,8.7c-4.9,0-7.7-3.7-7.7-8.4c0-4.9,3.2-8.6,8-8.6
			C51,102.6,53.7,106.3,53.7,110.9z M41.8,111.1c0,3.2,1.5,5.5,4,5.5s4-2.4,4-5.6c0-3-1.4-5.5-4-5.5
			C43.3,105.5,41.8,107.9,41.8,111.1z"/>
		<path class="st15" d="M71.2,110.9c0,5.4-3.3,8.7-8.1,8.7c-4.9,0-7.7-3.7-7.7-8.4c0-4.9,3.2-8.6,8-8.6
			C68.5,102.6,71.2,106.3,71.2,110.9z M59.3,111.1c0,3.2,1.5,5.5,4,5.5c2.5,0,4-2.4,4-5.6c0-3-1.4-5.5-4-5.5
			C60.8,105.5,59.3,107.9,59.3,111.1z"/>
		<path class="st15" d="M73.7,119.3v-16.5H78l3.4,6c1,1.7,2,3.8,2.7,5.6h0.1c-0.2-2.2-0.3-4.4-0.3-6.9v-4.8h3.4v16.5h-3.9l-3.5-6.4
			c-1-1.8-2.1-3.9-2.9-5.8h-0.1c0.1,2.2,0.1,4.5,0.1,7.2v5h-3.3V119.3z"/>
	</g>
</g>
</svg>
