<?xml version="1.0" encoding="utf-8"?>
<!-- Generator: Adobe Illustrator 25.0.0, SVG Export Plug-In . SVG Version: 6.00 Build 0)  -->
<svg version="1.1" id="Layer_1" xmlns="http://www.w3.org/2000/svg" xmlns:xlink="http://www.w3.org/1999/xlink" x="0px" y="0px"
	 width="105.5px" height="129px" viewBox="0 0 105.5 129" style="enable-background:new 0 0 105.5 129;" xml:space="preserve">
<style type="text/css">
	.st0{fill:#FCFCFC;}
	.st1{fill:#2D3C44;}
	.st2{fill:#495C64;}
	.st3{fill:#F2F5F4;}
	.st4{fill:#EEF1F2;}
	.st5{fill:#EBEDEE;}
	.st6{fill:#E5E8EA;}
	.st7{fill:#D0D7D8;}
	.st8{fill:#B7C0C4;}
	.st9{fill:#252D32;}
	.st10{fill:#A5B0B2;}
	.st11{fill:#4B5D65;}
	.st12{fill:#E9E0DB;}
	.st13{fill:#F8F4EC;}
	.st14{fill:none;stroke:#B7C0C4;stroke-miterlimit:10;}
	.st15{fill:#48A6DD;}
	.st16{fill:#FFFFFF;}
</style>
<g>
	<path class="st0" d="M102.9,48.4c0-0.3-0.1-0.5-0.1-0.8c0-0.1,0-0.1,0-0.2c-0.5-1.2-1-1.3-2.5-1.5c0-0.8,0-1.5,0-2.3
		c1.1-0.2,1.4-0.8,1.1-1.8c-0.5-2.6-2.1-4.4-4.3-5.7c-0.7-1.8-2-3.6-2-5.5c-0.1-4.1-3.3-5.7-5.6-8.1c0.2-1.7-0.8-2.9-2-3.8
		c-3.2-2.4-4.8-6.8-9.3-7.5c0.3-4.8-3.1-4.7-6.4-4.5c-0.5,0-1,0-1.5,0l-0.1,0c-0.7-1.5-2.5-2.5-1.9-4.5c0-0.1-0.1-0.2-0.1-0.3
		c-0.8,0.1-1.6,0.2-2.4,0.2c-4.4-0.1-8.8-0.8-13.2-1.4c-0.4-0.1-0.9-0.1-1.3-0.2c-0.7,0.1-1.3,0.2-2,0.2c-1.7,0-3.3-0.3-4.8-0.8
		c-0.7,0-1.3-0.1-1.9-0.2c-0.8,0.8,0,2,0.2,3.2C41.7,3,40.4,3,39.2,3.1c-1.6-1.4-2.1-0.8-2.1,1c-3.3,1.3-6.7,2.6-10,3.9
		c-0.2-0.2-0.4-0.4-0.6-0.5c-1.4,1.1-3,2-4.6,2.7c0.4,0.2,0.8,0.4,1.2,0.5c-0.4,0.8-1.8,0.2-2,1.3c-8,6.6-13.7,14.8-16.6,24.9
		c-0.2,2.1-2,3.8-1.2,6.1c-0.1,1.7-0.2,3.5-0.3,5.2c-0.7,1.5-0.8,3,0,4.5c0.1,1.8,0.2,3.5,0.2,5.3c-0.3,1.3,0,2.4,0.4,3.7
		c1.3,4.7,3.2,9.2,5.4,13.5c0,0.8,0,1.6-0.1,2.3c0.9,1,1.7,2,2.3,3.2c1.2,0.9,2.2,2,3.1,3.3c0.8,0.4,1.5,0.9,2.2,1.5
		c0.2,0,0.3-0.1,0.5-0.1c1.1-0.1,1.9,0.4,2.4,1.4c0,0.2,0,0.3,0,0.5c1.5,1,2.8,2.1,3.9,3.5c2.6,0.5,5,1.8,6.9,3.4
		c2.7,0.1,5.2,0.9,7.4,2.3c1.3,0,2.6-0.3,3.7,0.8c0.7,1.9,1.8,1.6,3.1,0.6c1.2,0,2.5,0.1,3.7,0.1c-0.8,0.8-1.1,1.5-1,2
		c0.2,0.1,0.4,0.2,0.6,0.3c1-0.2,2.1-0.4,3.2-0.4c1.7,0,3.3,0.3,4.9,0.8c0.1,0,0.2,0,0.3,0c2.2-1.2,4.7-1.9,7.3-1.9
		c0.7,0,1.4,0.1,2,0.1c0.8-0.6,1.6-1.1,2.5-1.5c0.8-4.2,4-0.9,5.7-1.8c1.7,0.2,3.4,0.2,3.1-2.3l0.3,0l0.3,0c0.2,0.2,0.3,0.3,0.5,0.5
		c1.3-1.4,2.8-2.7,4.5-3.6c-0.1-0.2-0.2-0.5-0.3-0.7c-0.3-2.3,0.6-3.7,3.1-3.8c3.6,0.2,2.3-2.6,2.6-4.3c0.1-0.5,0.3-1,0.4-1.5
		c2.4-0.2,2.6-4.7,5.9-3.1c0.1-0.7,2.2-1,0.4-2.1c-0.4-0.3-1.1-0.7-0.5-0.9c3.3-1.6,0.8-4.6,1.6-6.7c0-0.4,0-0.7,0-1.1
		c1.7,0.1,2.4-0.6,2.3-2.4c-0.1-2.3-0.1-4.7-0.2-7c2-2-0.1-5,2-7.1c0.3,3.2,0.3,6.4,0.4,9.6c0.2-0.3,0.4-0.6,0.6-0.9
		c-0.1-0.5-0.1-1-0.1-1.4C100.4,53.7,101.3,50.8,102.9,48.4z"/>
	<path class="st1" d="M73.8,55.7c-0.9,0.4-1.3,1.1-1.6,2c-0.3,1.1-1.3,1.1-2.1,0.9c-0.9-0.3-1.5-0.9-1.2-2c0.3-1,0.5-2.6-0.8-2.2
		c-3.5,1.2-3.2-1.2-3.8-3.1c-0.8-2.9-2.5-5.7,0-8.6c0.8-1,0.2-1.9-1.1-2c-0.9-0.1-1.7-0.3-2.6-0.5c-6.3-2-8.4-7.1-5.3-12.8
		c1.6-2.8,4.2-2.9,6.9-2.1c2.4,0.7,4.6,1.8,6.9,2.7c0.2-0.7,1.5-0.8,0.9-2.1c-0.9-1.8-1.8-3.8-2.1-5.8c-0.4-2.6-1.7-3.6-4.3-3.6
		c-0.8,0-2.4,0.4-2.6-1.3c-2-0.1-4-0.2-5.9,0.5c-1.4,0.5-3,0.5-4.3-0.6c-2.9-2.6-6.3-2.7-9.9-1.9c-1.6,0.3-3,0.2-3.1-1.6
		c-0.1-1.6,1.5-1.9,2.8-1.7c4.7,0.5,9.4,1,14,1.8c1.6,0.3,3.2,0.3,4.8,0.4c0-0.3,0-0.5,0-0.8c-2-1.7-2-1.7,1.6-3.8
		c0.2-0.9-0.3-1.5-0.9-2c-0.6-0.7-1.1-1.4-1.7-2.1c-5.2-1-10.3-1.9-15.5-0.3C41.7,3,40.4,3,39.2,3.1c-0.6,0.6-1.2,1.1-2.1,1
		c-3.3,1.3-6.7,2.6-10,3.9c-0.8,1.7-2.8,1.5-4,2.7c-0.4,0.8-1.8,0.2-2,1.3c0.3,3,2,2.9,3.7,1.4c1.9-1.8,4.2-1.9,6.5-2.1
		c0.6-0.1,1.4,0,1.4,0.8c0.1,0.7-0.5,1.2-1.1,1.3c-2.8,0.2-4.5,2.6-6.9,3.6c-2.8,1.1-2.8,3.9-3.6,6.2c-0.4,1,0.4,2.3,1.5,2.1
		c1.9-0.2,4.8,0,4.8-2.5c-0.1-4.9,3.3-4.9,6.5-5.8c3-0.8,5.6-2.7,9.1-0.8c3.1,1.7,5.3,4.3,8.2,6.2c1.5,1,0.3,2.5-0.8,3.4
		c-2.4,1.8-4.5,3.8-7.3,5c-2.1,0.9-2.3,2.2-0.5,3.6c1.3,1,3.2,1.7,2.1,3.7c-1.2,2-3.1,3.2-5.7,2.8c-1.7-0.3-3.4-0.9-5.1-1.1
		c-4.6-0.4-6.9,1.5-6.8,6.1c0.1,3.9,1,7.9,4.3,10.6c2.6,2.1,2.7,5.8,5.2,8c0.6,0.5,0.5,1.9,1.7,1.3c1-0.5,0.6-1.5,0.6-2.3
		c0-0.2-0.1-0.5-0.2-0.7c-0.9-1.4-2.2-3.5-0.7-4.3c1.9-0.9,3.3,1.6,4.1,3c1.1,2.1,3.8,4.2,1.6,7.3c-0.3,0.5,0,1.5,0.1,2.2
		c0.6,3.2-1,6.3-4,6.3c-3,0-5.2,1.3-7.5,2.8c-0.9,0.6-2.2,1.8-3.3,0.3c-0.8-1.2-0.6-2.2,0.9-3c1.6-0.8,0.7-1.9-0.1-2.7
		c-1.6-1.7-1.6-3,0.6-4.1c0.9-0.4,1.1-1.3,1.3-2.2c0.2-0.7,0.8-1.4-0.1-1.9c-0.6-0.3-1.3,0-1.7,0.5c-1.1,1.2-2.1,2.3-3.8,2.7
		c-1.3,0.3-1.6,1.8-0.6,2.7c3.2,3.1,0.5,4.1-1.7,5.4c-1.3,0.8-2.4,0.6-3.4-0.5c-1.6-1.7-2.7-3.7-2.8-5.9c0-1.3,1.5-2.2,3.1-2.1
		c1.4,0,2.7-0.4,2.4-2.1c-0.3-1.7-1.6-3.2-3.3-3c-3.2,0.3-6,1.8-8.4-2.3c-1.6-2.8-3.4-5.4-3.9-8.6c-0.3-2-1.1-3.5-2.9-4.4
		c0,2.2-0.1,4.5-0.1,6.7c0,1,0.2,2.1-1.2,2.4c-0.3,1.3,0,2.4,0.4,3.7c1.3,4.7,3.2,9.2,5.4,13.5c2.7,3.4,5.3,6.8,8,10.2
		c1.1-0.1,1.9,0.4,2.4,1.4c3.9,3,7.9,5.9,12.5,7.7c2,0.3,3.9,1,5.6,2.1c1.3,0,2.6-0.3,3.7,0.8c1,0.2,2.1,0.4,3.1,0.6
		c1.2,0,2.5,0.1,3.7,0.1c3.8-0.7,7.9,0.8,11.5-1.5c0.2-0.3,0.4-0.5,0.6-0.8c0.5-0.7,1.1-1.5,1.6-2.2c-1.7-1.2-4.3-2.1-3.7-4.6
		c0.6-2.5,2.9-3.2,5.4-3c2,0.1,3.3-0.8,3.5-3c0.4-3.3,3.6-5.2,4.1-8.5c0.4,0.1,0.7,0.2,1.1,0.2c2-1.8,2-4.4,2.6-6.8
		c-1-0.8-2.6,2.2-3.1-0.4c-0.4-2,0.3-3.7,2.6-4.1c0.1-1.7-1-3.5,0.5-5.2C75.7,57.3,75.4,55.9,73.8,55.7z M43.3,51.8
		c-0.9,0-1.8-0.4-1.6-1.5c0.1-1,1-1.3,1.9-1.3c0.8,0,1.4,0.3,1.4,1.3C44.9,51.2,44.3,51.8,43.3,51.8z M48.1,55.6
		c-0.8,0-1.4-0.4-1.4-1.3c0-0.8,0.2-1.5,1.2-1.5c1,0,1.5,0.6,1.7,1.5C49.6,55.4,49,55.7,48.1,55.6z M53.7,47.3c-2.5-0.2-4-2-4.6-4.2
		c-0.4-1.4,0.5-2.4,2.1-2.5c1.4-0.1,5.3,2.9,5.3,4.2C56.1,46.3,55.2,47.4,53.7,47.3z"/>
	<path class="st2" d="M21.1,12c0.3,3,2,2.9,3.7,1.4c1.9-1.8,4.2-1.9,6.5-2.1c0.6-0.1,1.4,0,1.4,0.8c0.1,0.7-0.5,1.2-1.1,1.3
		c-2.8,0.2-4.5,2.6-6.9,3.6c-2.8,1.1-2.8,3.9-3.6,6.2c-0.4,1,0.4,2.3,1.5,2.1c1.9-0.2,4.8,0,4.8-2.5c-0.1-4.9,3.3-4.9,6.5-5.8
		c3-0.8,5.6-2.7,9.1-0.8c3.1,1.7,5.3,4.3,8.2,6.2c1.5,1,0.3,2.5-0.8,3.4c-2.4,1.8-4.5,3.8-7.3,5c-2.1,0.9-2.3,2.2-0.5,3.6
		c1.3,1,3.2,1.7,2.1,3.7c-1.2,2-3.1,3.2-5.7,2.8c-1.7-0.3-3.4-0.9-5.1-1.1c-4.6-0.4-6.9,1.5-6.8,6.1c0.1,3.9,1,7.9,4.3,10.6
		c2.6,2.1,2.7,5.8,5.2,8c0.6,0.5,0.5,1.9,1.7,1.3c1-0.4,0.6-1.5,0.6-2.3c0-0.2-0.1-0.5-0.2-0.7c-0.9-1.4-2.2-3.5-0.7-4.3
		c1.9-0.9,3.3,1.6,4.1,3c1.1,2.1,3.8,4.2,1.6,7.3c-0.3,0.5,0,1.5,0.1,2.2c0.6,3.2-1,6.3-4,6.3c-3,0-5.2,1.3-7.5,2.8
		c-0.9,0.6-2.2,1.8-3.3,0.3c-0.8-1.2-0.6-2.2,0.9-3c1.6-0.8,0.7-1.9-0.1-2.7c-1.6-1.7-1.6-3,0.6-4.1c0.9-0.4,1.1-1.3,1.3-2.2
		c0.2-0.7,0.8-1.4-0.1-1.9c-0.6-0.3-1.3,0-1.7,0.5c-1.1,1.2-2.1,2.3-3.8,2.7c-1.3,0.3-1.6,1.8-0.6,2.7c3.2,3.1,0.5,4.1-1.7,5.4
		c-1.3,0.8-2.4,0.6-3.4-0.5c-1.6-1.7-2.7-3.7-2.8-5.9c0-1.3,1.5-2.2,3.1-2.1c1.4,0,2.7-0.4,2.4-2.1c-0.3-1.7-1.6-3.2-3.3-3
		c-3.2,0.3-6,1.8-8.4-2.3c-1.6-2.8-3.4-5.4-3.9-8.6c-0.3-2-1.1-3.5-2.9-4.4c0-1.7,0-3.4,0-5c2.1-2.3,2.2-4.6-0.1-6.9
		C7.4,26.8,13.1,18.7,21.1,12z"/>
	<path class="st3" d="M95.6,65.9c0,0.4,0,0.7,0,1.1c-3.2,3.9-6.1,7.9-7.6,12.9c0,0,0,0,0,0c-1.1-0.1-1.8,0.6-2.3,1.5
		c-0.3,0.4-0.6,0.8-0.9,1.3c-0.7,0.3-1.3,0.8-1.4,1.6l-0.1,0c-0.6,0.1-1.2,0.2-1.8,0.3c-1.2-0.4-0.8-2.6-2.6-2.5
		c0-1.1,0-2.2-1.5-2.3c0-0.5,0-1,0-1.5c1.2,0.3,2.5,0.5,3.7,0.8c0.1,0.9,0.3,1.9,1.3,1.9c1.7,0,0.5-2.2,1.8-2.7
		c3.5-1,5.1-3.4,3.1-4.9c-1.8-1.3-1.4-2.6-1.6-4.2c-0.5-2.8,3-4,2.7-6.8c-0.2-1.6,0.2-3.2,0.4-4.8c0.1-0.5,0.4-1,1-0.9
		c0.8,0,1,0.6,0.8,1.3c-0.4,1.4-0.7,2.8,0.6,4.8c0.5-2.1,0.8-3.6,1.1-5.1c0.5-3-2.8-9.5-5.6-10.7c-0.7-0.3-2.2-0.4-2.5,0
		c-1.6,2.7-4,1-6,1.3c-0.2-0.4-0.5-0.8-0.7-1.2c0.1-0.4,0.2-0.7,0.2-1.1c1,0.7,2.1,1.2,2.6-0.4c0.3-0.8,0-2-1-2
		c-1.7-0.1-1.1,1.6-1.6,2.4c-1.2-1.6-0.9-3.4-1-5.2c1.5-1.3,0-2.1-0.4-3c-1.3-7.2-5.1-13.5-6.9-20.5c0.2-0.2,0.4-0.4,0.6-0.6
		c0.9,0.8,1.7,2,3,2.1c2.1,0.1,2.3,1.4,2.3,3c0.1,1.5,0.8,2.9,0.9,4.4c0.2,2.9,3.6,4.4,3.4,7.3c-0.2,3.9,2.1,6.5,3.8,9.5
		c0.7,1.3,1.8,2,3.1,1.4c1.9-1,2.9,0.1,3.8,1.6c1.4-1.9,0-2.7-0.8-3.7c0-1,0-2,0-3c0.6-0.3,0.7-0.8,0.7-1.4c0.5-0.3,0.5-0.6,0-0.9
		c0-0.2,0-0.4,0-0.7c0.6-1.9,2.4-3.9-0.7-5.3c-0.1,0,0-0.5,0-0.7c0.7-1.2,0.9-2.4,0.7-3.8l0.1,0c1.4,0.5,1.6,1.8,2.1,2.9
		c1.4,3.3,2.7,6.6,4.1,9.9c-0.7,2.5,1.5,4.5,1.3,6.9c-1.4,3.4-0.5,7-0.6,10.5C96.6,59.7,95.6,62.7,95.6,65.9z"/>
	<path class="st4" d="M66,2.2c-1,0-2.1-0.1-3.1-0.2c0.5,1-0.6,1.6-0.6,2.4c0.3,0,0.6,0.1,0.9,0.1C65,3.7,66.8,3,68.5,2.3
		c0-0.1-0.1-0.2-0.1-0.3C67.6,2.1,66.8,2.2,66,2.2z"/>
	<path class="st4" d="M51.5,0.5c-0.7,0.1-1.3,0.2-2,0.2c-1.7,0-3.3-0.3-4.8-0.8c-0.7,0-1.3-0.1-1.9-0.2c-0.8,0.8,0,2,0.2,3.2
		c5.2-1.6,10.4-0.7,15.5,0.3C59.8,3,61.2,2.9,62.2,2c-3.2-0.3-6.3-0.7-9.4-1.2C52.4,0.7,51.9,0.6,51.5,0.5z"/>
	<path class="st3" d="M62.3,4.4c0.3,0,0.6,0.1,0.9,0.1c2,1.8,4.6,1.9,7.1,2.2c0,0,0.1,0,0.2,0c2,2.6,4.7,3.9,7.8,4.6c0,0,0,0,0,0
		c3.4,4.1,7.2,7.9,11.3,11.3c0,0,0,0,0,0c-0.5,1.4,0.8,2.5,0.8,3.8c0,0-0.1,0-0.1,0c-5.4,0.5-8.9-2.2-11.2-6.9
		c-1.3-2.7-4-3.9-6.7-4.9c-1.7-0.7-2.6,0.2-2.5,2.1c-0.2,0.2-0.4,0.4-0.6,0.6c-1.6-1.4-2.3-3.5-3.6-5.1c-1.4-1.7-2.1-4.3-4.8-4.6
		c0.2-0.9-0.3-1.5-0.9-2C60.5,4.3,61.5,4.4,62.3,4.4z"/>
	<path class="st5" d="M99.7,49.4c0.3,3.2,0.3,6.4,0.4,9.6c0.2-0.3,0.4-0.6,0.6-0.9c-0.1-0.5-0.1-1-0.1-1.4c-0.1-3,0.8-5.8,2.3-8.2
		c0-0.3-0.1-0.5-0.1-0.8c0-0.1,0-0.1,0-0.2c-0.5-1.2-1-1.3-2.5-1.5c-0.8,0.1-1.6,0.1-2.4,0.2c-1.4,3.4-0.5,7-0.6,10.5
		c0.2-0.1,0.3-0.1,0.5-0.2C99.8,54.5,97.6,51.5,99.7,49.4z"/>
	<path class="st6" d="M19.5,86.7c0,0.2,0,0.3,0,0.5c1.5,1,2.8,2.1,3.9,3.5c2.6,0.5,5,1.8,7,3.5c0.6,0,1.2,0.1,1.8,0.2
		C27.4,92.6,23.5,89.7,19.5,86.7z"/>
	<path class="st7" d="M9.1,75.1c0,0.8,0,1.6-0.1,2.3c0.9,1,1.7,2,2.3,3.2c1.2,0.9,2.2,2,3.1,3.3c0.8,0.4,1.5,0.9,2.2,1.5
		c0.2,0,0.3-0.1,0.5-0.1C14.5,81.9,11.8,78.5,9.1,75.1z"/>
	<path class="st6" d="M47.8,100.2c1-0.2,2.1-0.4,3.2-0.4c1.7,0,3.3,0.3,4.9,0.8c0.1,0,0.2,0,0.3,0c1.8-0.9,3.7-1.6,5.6-1.8
		c-0.2-0.8-0.5-1.6-0.7-2.4c-0.2,0-0.4-0.1-0.6-0.1l-0.8,0.1c-3.6,2.3-7.7,0.8-11.5,1.5c-0.8,0.8-1.1,1.5-1,2
		C47.4,100,47.6,100.1,47.8,100.2z"/>
	<path class="st8" d="M63.4,98.7c0.7,0,1.4,0.1,2,0.1c0.8-0.6,1.6-1.1,2.5-1.5c0.8-4.2,4-0.9,5.7-1.8c-0.2-0.7-0.4-1.5-0.6-2.2
		c-0.3-0.3-0.5-0.5-0.8-0.8c-3.7,1.3-7.5,2.6-11.2,3.9c0.2,0.8,0.5,1.6,0.7,2.4C62.3,98.7,62.8,98.7,63.4,98.7z"/>
	<path class="st8" d="M88.1,79.8c1.4-4.9,4.4-9,7.6-12.9c-0.8,2.1,1.7,5.1-1.6,6.7c-0.6,0.3,0.1,0.7,0.5,0.9
		c1.8,1.1-0.4,1.4-0.4,2.1C90.7,75.1,90.5,79.6,88.1,79.8z"/>
	<path class="st8" d="M90.4,26.3c0-1.3-1.2-2.4-0.8-3.8c2.2,2.4,5.5,4,5.6,8.1c0,1.8,1.3,3.6,2,5.5c0,1,0,2,0,3
		c-0.2,0-0.4,0-0.6,0.1c-1.4-3.3-2.6-6.7-4.1-9.9C92,28.2,91.8,26.8,90.4,26.3z"/>
	<path class="st6" d="M21.8,10.2c0.4,0.2,0.8,0.4,1.2,0.5c1.2-1.2,3.2-0.9,4-2.7c-0.2-0.2-0.4-0.4-0.6-0.5
		C25.1,8.6,23.5,9.5,21.8,10.2z"/>
	<path class="st8" d="M89.6,22.6c-4.1-3.4-7.9-7.2-11.3-11.3c4.5,0.7,6.1,5.2,9.3,7.6C88.8,19.7,89.8,20.9,89.6,22.6z"/>
	<path class="st3" d="M77.3,93.2c0.2,0.2,0.3,0.3,0.5,0.5c1.3-1.4,2.8-2.7,4.5-3.6c-0.1-0.2-0.2-0.5-0.3-0.7
		c-1.2-0.2-2.4-0.4-3.7-0.6c0.4,1.5-1.3,1.9-1.5,3C77.3,92.1,77.4,92.6,77.3,93.2z"/>
	<path class="st8" d="M78.3,11.3c-3.1-0.7-5.8-2-7.8-4.6c0.5,0,1,0,1.5,0C75.3,6.6,78.6,6.4,78.3,11.3z"/>
	<path class="st9" d="M4.7,43.8c0,1.7,0,3.4,0,5c0,2.2-0.1,4.5-0.1,6.7c0,1,0.2,2.1-1.2,2.4c-0.1-1.8-0.2-3.5-0.2-5.3
		c1-1.5,1-3,0-4.5c0.1-1.7,0.2-3.5,0.3-5.2C3.8,43.2,4.2,43.5,4.7,43.8z"/>
	<path class="st5" d="M97.2,39.1c0-1,0-2,0-3c2.2,1.3,3.8,3.1,4.3,5.7c0.2,1,0,1.7-1.1,1.8C99.3,42.1,98.2,40.6,97.2,39.1z"/>
	<path class="st1" d="M4.7,43.8c-0.4-0.3-0.9-0.6-1.3-0.8c-0.9-2.3,0.9-4,1.2-6.1C6.9,39.1,6.8,41.4,4.7,43.8z"/>
	<path class="st8" d="M82,89.4c-1.2-0.2-2.4-0.4-3.7-0.6c0-1.4,1.6-1.7,1.8-2.9c0.8-0.2,1.2-0.7,1.5-1.5c0.6-0.1,1.2-0.2,1.8-0.4
		c0.6,0.5,1.1,1,1.7,1.5C82.6,85.7,81.7,87.1,82,89.4z"/>
	<path class="st7" d="M70.4,6.7c-2.5-0.3-5.1-0.4-7.1-2.2C65,3.7,66.8,3,68.5,2.3C67.9,4.3,69.7,5.3,70.4,6.7z"/>
	<path class="st10" d="M97.3,56.6c0.2-0.1,0.3-0.1,0.5-0.2c0.1,2.3,0,4.7,0.2,7c0.1,1.8-0.6,2.5-2.3,2.4
		C95.6,62.7,96.6,59.7,97.3,56.6z"/>
	<path class="st10" d="M97.2,39.1c1.1,1.5,2.1,3,3.2,4.5c0,0.8,0,1.5,0,2.3c-0.8,0.1-1.6,0.1-2.4,0.2c0.2-2.4-2-4.4-1.3-6.9
		C96.7,39.2,97,39.1,97.2,39.1z"/>
	<path class="st10" d="M85.1,85.6c-0.6-0.5-1.1-1-1.7-1.5c0,0,0.1,0,0.1,0c1.2,0.1,1.6-0.5,1.4-1.6c0.3-0.4,0.6-0.8,0.9-1.3
		c0.6,0,1.2,0,1.9,0C87.3,83.1,88.6,85.8,85.1,85.6z"/>
	<path class="st10" d="M76.8,91.8c0.5,0.3,0.7,0.8,0.5,1.4c0,0-0.3,0-0.3,0s-0.3,0-0.3,0c-1.3-1-2.5-0.1-3.7,0.1
		c-0.3-0.3-0.5-0.5-0.8-0.8c0.8-1.4,2.4-1.8,3.7-2.5C76,90.8,76.1,91.4,76.8,91.8z"/>
	<path class="st3" d="M73,93.3c1.2-0.2,2.5-1.1,3.7-0.1c0.3,2.5-1.4,2.5-3.1,2.3C73.4,94.8,73.2,94.1,73,93.3z"/>
	<path class="st1" d="M3.1,48.2c1.1,1.5,1,3,0,4.5C2.2,51.2,2.3,49.7,3.1,48.2z"/>
	<path class="st6" d="M41.4,97.3c1,0.2,2.1,0.4,3.1,0.6C43.2,98.9,42.1,99.1,41.4,97.3z"/>
	<path class="st4" d="M39.2,3.1c-0.6,0.6-1.2,1.1-2.1,1C37,2.3,37.6,1.7,39.2,3.1z"/>
	<path class="st8" d="M87.7,81.3c-0.6,0-1.2,0-1.9,0c0.5-0.9,1.1-1.6,2.3-1.5C88,80.3,87.8,80.8,87.7,81.3z"/>
	<path class="st2" d="M76.8,40.6c0.1,1.8-0.2,3.6,1,5.2c0,0,0,0.1,0,0.1c-0.1,0.4-0.2,0.7-0.2,1.1c-0.2,1.1-0.5,2.3-0.7,3.4
		c-0.6,0-1.3,0.1-1.6,0.8c-1.7,0.4-3.1,1-1.5,3c0,0.5,0,1,0,1.5c-0.9,0.4-1.3,1.1-1.6,2c-0.3,1.1-1.3,1.1-2.1,0.9
		c-0.9-0.3-1.5-0.9-1.2-2c0.3-1,0.5-2.6-0.8-2.2c-3.5,1.2-3.2-1.2-3.8-3.1c-0.8-2.9-2.5-5.7,0-8.6c0.8-1,0.2-1.9-1.1-2
		c-0.9-0.1-1.7-0.3-2.6-0.5c-6.3-2-8.4-7.1-5.3-12.8c1.6-2.8,4.2-2.9,6.9-2.1c2.4,0.7,4.6,1.8,6.9,2.7c0.2,0,0.4,0.1,0.7,0
		c-0.2,0.5-0.4,0.9-0.6,1.4c0.5,0.5,1,1,1.5,1.5c0,1,0.5,1.5,1.5,1.6c0,0.5,0,0.9,0,1.4c-1.4,1.2-3.2,2.7-2.5,4.5
		c0.6,1.6,2.9,0.5,4.5,0.8c0.5,0.1,1,0.1,1.5,0.2C76.1,39.8,76.5,40.2,76.8,40.6z"/>
	<path class="st4" d="M77.6,78.3c0,0.5,0,1,0,1.5c-2.6,1.9-5.2,3.9-7.9,5.8c-1,0.7-1.2,1.5-1.1,2.5c-0.6-0.3-1.1-0.6-1.7-0.8
		c2.2-4.1,4.8-8,5.5-12.7c2-1.8,2-4.4,2.6-6.8c0.9-1.1,0.5-2.4,0.6-3.6c1.6-4.1,1.3-8.6,1.9-12.9c0.3,0,0.6-0.1,0.9-0.1
		c0.8,0.1,1.3,0.5,1.5,1.4c0.7,3.5,0,7.4,3.5,10.1c1,0.7,0.5,2.9-1.2,3.7c-2.5-0.3-3.8,0.2-4,3.3C77.9,72.4,79,75.5,77.6,78.3z"/>
	<path class="st9" d="M70.8,30.9c-0.5-0.5-1-1-1.5-1.5c0.7-0.1,1.6,0.3,1.8-0.7c0.2-0.9-0.7-0.7-1.3-0.7c-0.2,0-0.5,0-0.7,0
		c0.2-0.7,1.5-0.8,0.9-2.1c-0.9-1.8-1.8-3.8-2.1-5.8c-0.4-2.6-1.7-3.6-4.3-3.6c-0.8,0-2.4,0.4-2.6-1.3c0-0.2,0-0.5,0-0.7
		c0.3,0.2,0.7,0.3,1,0.5c1.1,0.4,2,0.2,2.5-0.9c0.1-0.3-0.2-1-0.5-1.3c-1.1-1.1-1.7,0.2-2.4,0.7c-0.3,0.2-0.4,0.6-0.7,0.9
		c-1-0.4-1.3-1.2-1.4-2.2c0,0,0,0,0,0c0.8,0,1.4-0.2,1.4-1.2c0-0.2-0.1-0.6-0.2-0.6c-0.8-0.2-1,0.5-1.2,1c-2-1.7-2-1.7,1.6-3.8
		c2.7,0.4,3.4,2.9,4.8,4.6c1.3,1.6,2,3.7,3.6,5.1c1.9,7,5.7,13.3,6.9,20.5c-0.8,0-0.3,0.8-0.7,1.1c-2.2-0.9-1.3-3.9-3.5-4.8
		c0-0.5,0-0.9,0-1.4C72.3,31.4,71.8,30.9,70.8,30.9z"/>
	<path class="st3" d="M66.8,87.2c0.6,0.3,1.1,0.6,1.7,0.8c0.7,0.5,0.5,2.6,2,1.4c1.5-1.2,2.7-2.9,4.1-4.4l0,0
		c1.2-0.2,2.5-0.5,3.7-0.7c0,1.2,0.9,1.5,1.8,1.7c-0.3,1.2-1.9,1.5-1.8,2.9c0,0,0,0,0,0c-1,0.1-2.1-0.1-2.3,1.3
		c-1.3,0.7-2.9,1-3.7,2.5c-3.7,1.3-7.5,2.6-11.2,3.9c-0.2,0-0.4-0.1-0.6-0.1c-0.1-0.2-0.1-0.5-0.2-0.7c0.5-0.7,1.1-1.5,1.6-2.2
		C63.5,91.4,65.2,89.3,66.8,87.2z"/>
	<path class="st2" d="M61,14.3c0,0.2,0,0.5,0,0.7c-2-0.1-4-0.2-5.9,0.5c-1.4,0.5-3,0.5-4.3-0.6c-2.9-2.6-6.3-2.7-9.9-1.9
		c-1.6,0.3-3,0.2-3.1-1.6c-0.1-1.6,1.5-1.9,2.8-1.7c4.7,0.5,9.4,1,14,1.8c1.6,0.3,3.2,0.3,4.8,0.4c0.1,1,0.5,1.8,1.4,2.2L61,14.3z"
		/>
	<path class="st9" d="M66.8,87.2c-1.6,2.1-3.3,4.1-4.9,6.2c-1.7-1.2-4.3-2.1-3.7-4.6c0.6-2.5,2.9-3.2,5.4-3c2,0.1,3.3-0.8,3.5-3
		c0.4-3.3,3.6-5.2,4.1-8.5c0.4,0.1,0.7,0.2,1.1,0.2C71.6,79.2,69,83.1,66.8,87.2z"/>
	<path class="st2" d="M56.4,44.9c-0.3,1.4-1.2,2.5-2.7,2.4c-2.5-0.2-4-2-4.6-4.2c-0.4-1.4,0.5-2.4,2.1-2.5
		C52.5,40.6,56.4,43.6,56.4,44.9z"/>
	<path class="st9" d="M77.4,51.2c-0.6,4.3-0.3,8.7-1.9,12.9c-0.3-0.3-0.7-0.6-1-0.8c0.1-1.7-1-3.5,0.5-5.2c0.7-0.8,0.4-2.2-1.2-2.4
		c0-0.5,0-1,0-1.5c1-0.8,1.4-1.8,1.5-3c0.3-0.7,1-0.7,1.6-0.8C77.1,50.7,77.2,51,77.4,51.2z"/>
	<path class="st11" d="M74.5,63.3c0.3,0.3,0.7,0.6,1,0.8c0,1.2,0.3,2.5-0.6,3.6c-1-0.8-2.6,2.2-3.1-0.4
		C71.5,65.4,72.1,63.7,74.5,63.3z"/>
	<path class="st2" d="M45,50.3c-0.1,0.9-0.7,1.5-1.7,1.5c-0.9,0-1.8-0.4-1.6-1.5c0.1-1,1-1.3,1.9-1.3C44.4,49,45,49.2,45,50.3z"/>
	<path class="st2" d="M49.6,54.3c0,1-0.6,1.3-1.4,1.3c-0.8,0-1.4-0.4-1.4-1.3c0-0.8,0.2-1.5,1.2-1.5C48.9,52.8,49.4,53.5,49.6,54.3z
		"/>
	<path class="st8" d="M62.2,2c-1.1,0.9-2.5,1-3.8,1.3c0.6,0.7,1.1,1.4,1.7,2.1c0.4-1.1,1.3-1,2.2-1c0-0.8,1-1.4,0.6-2.4
		C62.7,2,62.5,2,62.2,2z"/>
	<path class="st2" d="M59.4,11.2c0.3-0.5,0.5-1.1,1.2-1c0.1,0,0.2,0.4,0.2,0.6c0,1-0.7,1.1-1.4,1.2C59.5,11.8,59.5,11.5,59.4,11.2z"
		/>
	<path class="st8" d="M60.3,95.7c0,0.2,0.1,0.5,0.2,0.7c-0.3,0-0.5,0-0.8,0.1C59.8,96.2,60.1,95.9,60.3,95.7z"/>
	<path class="st12" d="M82.1,66.2c1.7-0.9,2.1-3,1.2-3.7c-3.5-2.7-2.8-6.5-3.5-10.1c-0.2-0.9-0.7-1.2-1.5-1.4c0-1,0-1.9,0-2.9
		c2-0.3,4.4,1.4,6-1.3c0.2-0.4,1.7-0.3,2.5,0c2.7,1.2,6,7.6,5.6,10.7c-0.2,1.5-0.6,3-1.1,5.1c-1.2-2-0.9-3.4-0.6-4.8
		c0.2-0.7,0.1-1.3-0.8-1.3c-0.6,0-0.9,0.4-1,0.9c-0.2,1.6-0.6,3.2-0.4,4.8c0.3,2.8-3.2,4-2.7,6.8C83.7,69.3,82.4,68.4,82.1,66.2z"/>
	<path class="st13" d="M70,16.5c-0.1-1.8,0.7-2.7,2.5-2.1c2.7,1,5.4,2.2,6.7,4.9c2.3,4.8,5.7,7.4,11.2,6.9c0.1,1.3,0,2.6-0.7,3.8
		c-0.5,0-1,0-1.5,0c0.4-1.5,0.4-2.7-1.8-2.1c-3,0.9-0.4,2.4-0.4,3.5c-4,0.2-4.5,1.6-3.7,5.3c1,4.3,3.6,5.4,7.4,5.2
		c0.8,1,2.3,1.8,0.8,3.7c-0.9-1.5-1.9-2.6-3.8-1.6c-1.2,0.6-2.3-0.1-3.1-1.4c-1.7-3-4-5.6-3.8-9.5c0.2-2.8-3.2-4.3-3.4-7.3
		c-0.1-1.5-0.9-2.9-0.9-4.4c-0.1-1.7-0.2-2.9-2.3-3C71.7,18.6,70.9,17.4,70,16.5z"/>
	<path class="st13" d="M82.1,66.2c0.3,2.2,1.6,3.1,3.7,3c0.1,1.5-0.2,2.9,1.6,4.2c2,1.5,0.5,3.9-3.1,4.9c-1.5-1.7-2.1,0.2-3,0.8
		c-1.2-0.3-2.5-0.5-3.7-0.8c1.4-2.8,0.4-5.9,0.6-8.8C78.3,66.4,79.6,65.9,82.1,66.2z"/>
	<path class="st12" d="M89.6,42.1c-3.8,0.1-6.4-0.9-7.4-5.2c-0.9-3.7-0.3-5.1,3.7-5.3c1.2,0.1,1.5-1,2.2-1.5c0.5,0,1,0,1.5,0
		c0,0.2-0.1,0.7,0,0.7c3.2,1.4,1.3,3.4,0.7,5.3c-1.6,0.6-4.8-0.7-3.5,3.1c1.6-1.1,1.6-1.1,2.7-0.1C89.6,40.1,89.6,41.1,89.6,42.1z"
		/>
	<path class="st13" d="M78.3,84.3c-1.2,0.2-2.5,0.5-3.7,0.7c-0.1-0.1-0.2-0.1-0.3-0.2c0.1,0.1,0.2,0.1,0.3,0.2
		c-1.3,1.5-2.5,3.1-4.1,4.4c-1.5,1.2-1.3-0.9-2-1.4c0-1,0.2-1.8,1.1-2.5c2.7-1.9,5.3-3.8,7.9-5.8c1.5,0.1,1.5,1.2,1.5,2.3
		C78.2,82.6,78.3,83.5,78.3,84.3z"/>
	<path class="st4" d="M78.3,84.3c0-0.8-0.1-1.7,0.8-2.3c1.7-0.1,1.3,2.1,2.6,2.5c-0.3,0.7-0.7,1.3-1.5,1.5
		C79.2,85.8,78.3,85.5,78.3,84.3z"/>
	<path class="st13" d="M89.6,39.1c-1.1-1-1.1-1-2.7,0.1c-1.3-3.8,1.9-2.6,3.5-3.1c0,0.2,0,0.4,0,0.7c0,0.3,0,0.6,0,0.9
		C90.3,38.3,90.2,38.8,89.6,39.1z"/>
	<path class="st7" d="M77.8,45.9C77.8,45.9,77.9,45.8,77.8,45.9c0.6-0.9-0.1-2.6,1.6-2.5c1,0.1,1.3,1.2,1,2
		C79.9,47.1,78.8,46.6,77.8,45.9z"/>
	<path class="st4" d="M81.3,79c0.9-0.5,1.5-2.5,3-0.8c-1.2,0.5-0.1,2.7-1.8,2.7C81.6,80.9,81.4,79.9,81.3,79z"/>
	<path class="st7" d="M78.3,48.2c0,1,0,1.9,0,2.9c-0.3,0-0.6,0.1-0.9,0.1c-0.2-0.3-0.4-0.6-0.5-0.9c0.2-1.1,0.5-2.3,0.7-3.4
		C77.8,47.4,78.1,47.8,78.3,48.2z"/>
	<path class="st7" d="M75.7,38.7c0.4-0.2-0.2-1.1,0.7-1.1c0.4,1,2,1.8,0.4,3c-0.4-0.4-0.8-0.9-1.1-1.3
		C75.9,39.1,75.9,38.9,75.7,38.7z"/>
	<path class="st8" d="M84.9,82.5c0.2,1.1-0.3,1.7-1.4,1.6C83.6,83.3,84.2,82.9,84.9,82.5z"/>
	<path class="st12" d="M90.4,37.7c0-0.3,0-0.6,0-0.9C90.9,37.1,90.9,37.4,90.4,37.7z"/>
	<path class="st8" d="M76,90.1c0.2-1.4,1.4-1.2,2.3-1.3c0.4,1.5-1.3,1.9-1.5,3C76.1,91.4,76,90.8,76,90.1z"/>
	<path class="st1" d="M75.7,38.7c0.2,0.2,0.1,0.5,0,0.7c-0.5-0.1-1-0.1-1.5-0.2c-1.5-0.3-3.8,0.8-4.5-0.8c-0.7-1.8,1.1-3.3,2.5-4.5
		C74.4,34.7,73.6,37.8,75.7,38.7z"/>
	<path class="st1" d="M75.3,51.1c-0.1,1.2-0.5,2.3-1.5,3C72.2,52.2,73.6,51.6,75.3,51.1z"/>
	<path class="st1" d="M69.8,27.9c0.6,0,1.4-0.2,1.3,0.7c-0.2,0.9-1.2,0.6-1.8,0.7C69.5,28.9,69.7,28.4,69.8,27.9z"/>
	<path class="st1" d="M70.8,30.9c1,0,1.5,0.5,1.5,1.6C71.3,32.3,70.8,31.8,70.8,30.9z"/>
	<path class="st2" d="M60.9,14.2c0.2-0.3,0.4-0.7,0.7-0.9c0.7-0.5,1.3-1.8,2.4-0.7c0.3,0.3,0.6,1,0.5,1.3C64,15,63.1,15.2,62,14.8
		c-0.3-0.1-0.7-0.3-1-0.5C61,14.3,60.9,14.2,60.9,14.2z"/>
	<path class="st3" d="M88.1,30.1c-0.8,0.5-1.1,1.6-2.2,1.5c0-1.2-2.5-2.7,0.4-3.5C88.5,27.4,88.5,28.5,88.1,30.1z"/>
	<path class="st3" d="M74.5,85.1c-0.1-0.1-0.2-0.1-0.3-0.2C74.3,84.9,74.4,85,74.5,85.1C74.6,85,74.5,85.1,74.5,85.1z"/>
</g>
<circle class="st14" cx="50.6" cy="49.7" r="48"/>
<g>
	<path class="st15" d="M90.8,126.5H15c-2.2,0-4-1.8-4-4v-23c0-2.2,1.8-4,4-4h75.8c2.2,0,4,1.8,4,4v23
		C94.8,124.7,93,126.5,90.8,126.5z"/>
	<g>
		<path class="st16" d="M31.9,113c-0.1-2-0.1-4.4-0.1-6.8h-0.1c-0.5,2.1-1.2,4.4-1.8,6.4l-2,6.4H25l-1.8-6.4
			c-0.5-1.9-1.1-4.3-1.5-6.4l0,0c-0.1,2.2-0.2,4.8-0.3,6.8l-0.3,6.3h-3.4l1.1-16.5h5l1.6,5.5c0.5,1.9,1,4,1.4,5.9h0.1
			c0.5-1.9,1-4.1,1.6-5.9l1.8-5.5h4.9l0.9,16.5h-3.6L31.9,113z"/>
		<path class="st16" d="M53.7,110.9c0,5.4-3.3,8.7-8.1,8.7c-4.9,0-7.7-3.7-7.7-8.4c0-4.9,3.2-8.6,8-8.6
			C51,102.6,53.7,106.3,53.7,110.9z M41.8,111.1c0,3.2,1.5,5.5,4,5.5s4-2.4,4-5.6c0-3-1.4-5.5-4-5.5
			C43.3,105.5,41.8,107.9,41.8,111.1z"/>
		<path class="st16" d="M71.2,110.9c0,5.4-3.3,8.7-8.1,8.7c-4.9,0-7.7-3.7-7.7-8.4c0-4.9,3.2-8.6,8-8.6
			C68.5,102.6,71.2,106.3,71.2,110.9z M59.3,111.1c0,3.2,1.5,5.5,4,5.5c2.5,0,4-2.4,4-5.6c0-3-1.4-5.5-4-5.5
			C60.8,105.5,59.3,107.9,59.3,111.1z"/>
		<path class="st16" d="M73.7,119.3v-16.5H78l3.4,6c1,1.7,2,3.8,2.7,5.6h0.1c-0.2-2.2-0.3-4.4-0.3-6.9v-4.8h3.4v16.5h-3.9l-3.5-6.4
			c-1-1.8-2.1-3.9-2.9-5.8h-0.1c0.1,2.2,0.1,4.5,0.1,7.2v5h-3.3V119.3z"/>
	</g>
</g>
</svg>
