<?xml version="1.0" encoding="utf-8"?>
<!-- Generator: Adobe Illustrator 25.0.0, SVG Export Plug-In . SVG Version: 6.00 Build 0)  -->
<svg version="1.1" id="Layer_1" xmlns="http://www.w3.org/2000/svg" xmlns:xlink="http://www.w3.org/1999/xlink" x="0px" y="0px"
	 width="105.5px" height="129px" viewBox="0 0 105.5 129" style="enable-background:new 0 0 105.5 129;" xml:space="preserve">
<style type="text/css">
	.st0{fill:#48A6DD;}
	.st1{fill:#FFFFFF;}
	.st2{fill:#231F20;}
	.st3{fill:#232323;}
	.st4{fill:#CECECE;}
	.st5{fill:#1C1C1C;}
	.st6{fill:#3D3D3D;}
	.st7{fill:#B3B3B3;}
	.st8{fill:#BFBFBF;}
	.st9{fill:#B0B0B0;}
	.st10{fill:#7B7B7B;}
	.st11{fill:#272727;}
	.st12{fill:#2F2F2F;}
	.st13{fill:#949494;}
	.st14{fill:#4D4D4D;}
	.st15{fill:#5A5A5A;}
	.st16{fill:#9E9E9E;}
	.st17{fill:#121212;}
	.st18{fill:#424242;}
	.st19{fill:#787878;}
	.st20{fill:#767676;}
	.st21{fill:#141414;}
	.st22{fill:#8E8E8E;}
	.st23{fill:#414141;}
	.st24{fill:#717171;}
	.st25{fill:#A6A6A6;}
	.st26{fill:#444444;}
	.st27{fill:#595959;}
	.st28{fill:#5C5C5C;}
	.st29{fill:#666666;}
	.st30{fill:#747474;}
	.st31{fill:#7D7D7D;}
	.st32{fill:#656565;}
	.st33{fill:#404040;}
</style>
<g>
	<path class="st0" d="M90.8,126.5H15c-2.2,0-4-1.8-4-4v-23c0-2.2,1.8-4,4-4h75.8c2.2,0,4,1.8,4,4v23C94.8,124.7,93,126.5,90.8,126.5
		z"/>
	<g>
		<path class="st1" d="M31.9,113c-0.1-2-0.1-4.4-0.1-6.8h-0.1c-0.5,2.1-1.2,4.4-1.8,6.4l-2,6.4H25l-1.8-6.4
			c-0.5-1.9-1.1-4.3-1.5-6.4l0,0c-0.1,2.2-0.2,4.8-0.3,6.8l-0.3,6.3h-3.4l1.1-16.5h5l1.6,5.5c0.5,1.9,1,4,1.4,5.9h0.1
			c0.5-1.9,1-4.1,1.6-5.9l1.8-5.5h4.9l0.9,16.5h-3.6L31.9,113z"/>
		<path class="st1" d="M53.7,110.9c0,5.4-3.3,8.7-8.1,8.7c-4.9,0-7.7-3.7-7.7-8.4c0-4.9,3.2-8.6,8-8.6
			C51,102.6,53.7,106.3,53.7,110.9z M41.8,111.1c0,3.2,1.5,5.5,4,5.5s4-2.4,4-5.6c0-3-1.4-5.5-4-5.5
			C43.3,105.5,41.8,107.9,41.8,111.1z"/>
		<path class="st1" d="M71.2,110.9c0,5.4-3.3,8.7-8.1,8.7c-4.9,0-7.7-3.7-7.7-8.4c0-4.9,3.2-8.6,8-8.6
			C68.5,102.6,71.2,106.3,71.2,110.9z M59.3,111.1c0,3.2,1.5,5.5,4,5.5c2.5,0,4-2.4,4-5.6c0-3-1.4-5.5-4-5.5
			C60.8,105.5,59.3,107.9,59.3,111.1z"/>
		<path class="st1" d="M73.7,119.3v-16.5H78l3.4,6c1,1.7,2,3.8,2.7,5.6h0.1c-0.2-2.2-0.3-4.4-0.3-6.9v-4.8h3.4v16.5h-3.9l-3.5-6.4
			c-1-1.8-2.1-3.9-2.9-5.8h-0.1c0.1,2.2,0.1,4.5,0.1,7.2v5h-3.3C73.7,119.2,73.7,119.3,73.7,119.3z"/>
	</g>
</g>
<circle class="st2" cx="53" cy="52.3" r="51.2"/>
<g>
	<path class="st3" d="M98.3,56.8c-0.3-0.5,1.3-1.3-0.3-1.6c-0.4-0.1-0.5-0.6-0.3-0.9c1.3-2.4-0.2-5,0.6-7.6c0.8-2.3-1.4-4.1-1.7-6.3
		c-0.5-3.9-1.5-7.9-3.5-11.3c-1.2-1.9-1.2-4.5-3.2-6c0.3-0.4,0.7-0.4,1.2-0.3c1.2,0.8,1.7,2.1,2.8,3.1c0.6,1.9,1.3,3.7,2.5,5.3
		c0.5,0.7,0.8,1.5,0.9,2.4c0.9,4.5,2,9,2.9,13.4c0.7,3-0.5,5.8-0.5,8.7c0,0.5-0.4,0.9-1,1.1C98.5,56.9,98.4,56.8,98.3,56.8z"/>
	<path class="st4" d="M102.8,41.3c1.7,6.6,2,13.2,0.4,19.9c-0.7,1.4-1.3,1.4-1.9-0.1c0.5-1.6,0.8-3.2,0.9-4.9c0.4-2.5,0.7-5-0.1-7.5
		c0.2-1.4-0.3-2.6-0.5-4c0.1-1-0.2-1.9-0.1-2.9C101.6,41.1,101.8,40.3,102.8,41.3z"/>
	<path class="st5" d="M92.2,79.7c-0.4-1-0.2-2,0.4-2.9c2.5-4.1,3.4-8.8,4.8-13.2c0.5-1.5,1.2-3.5,0.1-5.3c-0.4-0.6,0.6-1,0.9-1.6
		h0.1c1.3,2.8,0.1,5.6-0.1,8.4c-0.2,2.3-1,4.4-1.7,6.5c0,0.2,0,0.4,0,0.7c-1.4,2.4-2.3,4.9-3.8,7.3C92.9,79.8,92.5,79.9,92.2,79.7z"
		/>
	<path class="st6" d="M92.2,79.7c0.9-0.7,1.3-1.7,1.6-2.8c0.4-1.3,0.5-2.8,2.2-3.3c0.2-0.1,0.2-0.9,0.2-1.4c0.8,0,0.8,0.7,0.9,1.2
		c-1.2,2.4-2.2,4.9-3.5,7.2c-0.5,0.7-0.6,1.5-1.1,2.2c-0.2,0.3-0.4,0.5-0.6,0.7C90.4,85,90,87.2,88,88.3c-0.8,0.9-1.4,1.9-2.8,1.6
		c-0.5-0.9,0.5-1,0.8-1.5C88.6,86,90,82.6,92.2,79.7z"/>
	<path class="st7" d="M101.5,61.2c0.6,0.9,1.2,0.6,1.7,0c-0.4,3.6-1.3,7-3,10.2c-0.5,0.3-0.9,0.8-1.5,0.4c-0.1-0.2-0.2-0.4-0.3-0.6
		c0.4-2.4,1-4.8,1.2-7.2c0-0.2,0.1-0.4,0.1-0.6c0.3-0.8,0.4-1.7,1.1-2.3C101.1,61,101.3,61,101.5,61.2z"/>
	<path class="st8" d="M102.8,41.3c-1-0.4-1,0.3-0.8,0.8c0.3,0.9,0.5,1.8,0,2.7c-0.1,0-0.2,0.1-0.3,0.1c-1.3-0.8-0.7-2.3-1.2-3.3
		c0.1-3.1-1-5.9-2.2-8.7c-0.3-0.7-0.5-1.5-0.2-2.3c0.1-0.2,0.2-0.4,0.4-0.5c1.2,0.5,1.1,1.8,1.4,2.7
		C100.9,35.6,102.5,38.2,102.8,41.3z"/>
	<path class="st9" d="M91.3,18.8c2,2,3.7,4.1,5,6.6c-0.1,0.9,0.8,2-0.4,2.8c-1.3-0.2-1.5-1.3-1.9-2.3c-0.3-0.8-0.9-1.5-1.2-2.4
		c-0.4-1-1.2-1.7-1.8-2.6c-0.4-0.5-0.8-0.9-0.7-1.6C90.5,18.9,90.8,18.6,91.3,18.8z"/>
	<path class="st10" d="M92.3,82.9c0.1-0.8,0.3-1.6,0.8-2.2c1-0.7,1.6-1.7,1.8-2.9c0.2-0.9,0.5-1.9,1.6-2.1c0.8,0.2,1,0.8,1.1,1.5
		c-1.6,2.2-2.5,4.7-4.5,6.6c0-0.1-0.1-0.1-0.1-0.2C92.7,83.5,93.6,82,92.3,82.9z"/>
	<path class="st11" d="M86,88.5c-0.3,0.5-0.6,0.9-0.9,1.4c0,1.4-1,2.2-2,2.9C82,94,80.3,94.6,79.3,96c-0.6,1.2-2.3,0.8-3,1.9
		c-0.3,0.3-0.7,0.3-0.9-0.1c-0.2-0.3,0.1-0.6,0.4-0.8c3.1-2.5,6.7-4.5,9-7.9C85.1,88.8,85.6,88.7,86,88.5z"/>
	<path class="st12" d="M91.4,23.2c-0.4,0-0.9,0-1.3,0c-1.4-3.3-4.5-5.3-6.2-8.4c-0.1-0.2-0.1-0.4,0-0.5c2,0.6,2.6,2.7,4.3,3.7
		c1.2,0.8,2,2,2.7,3.3C91,21.9,91.7,22.4,91.4,23.2z"/>
	<path class="st13" d="M91.3,18.8c-0.3,0.1-0.6,0.3-0.8,0.4c-1.7,0.3-2-1.2-2.9-2.1c-0.4-0.7-1-1.2-1.3-1.9
		c-0.3-0.8-0.4-1.4,0.8-0.9C88.6,15.6,90.2,17,91.3,18.8z"/>
	<path class="st14" d="M77.1,7.3c1.6,1.1,3.6,1.6,4.9,3.1c-0.2,0.5,0.4,0.9,0.1,1.4c-0.2,0.1-0.4,0.2-0.6,0.2
		c-1-0.1-1.3-1.4-2.3-1.5C78,9.6,76.6,9,76,7.6C76.3,7.2,76.6,6.9,77.1,7.3z"/>
	<path class="st15" d="M82.9,92.5c0.8-0.9,1.5-1.8,2.3-2.6c1.2-0.2,1.8-1.1,2.7-1.8c0.3,0.2,0.3,0.5,0.3,0.8
		c-1.3,1.6-2.7,3.2-4.7,4.1C83,93.2,82.8,93,82.9,92.5z"/>
	<path class="st16" d="M97.5,77.1c-0.6-0.3-0.6-0.9-0.9-1.4c0.5-0.9,0.2-2,0.7-2.9c0.2-0.6,0.3-1.2,0.9-1.6c0.2-0.1,0.4-0.1,0.6,0
		c0,0.2,0,0.3,0.1,0.5c0.4,0.4,0.5,0.9,0.5,1.4C98.7,74.5,98.5,76,97.5,77.1z"/>
	<path class="st17" d="M75.8,97c-0.2,0.5-0.3,0.9,0.4,0.9c-2.2,1.2-4.5,2.2-7.1,2.3C71.4,99.1,73.6,98,75.8,97z"/>
	<path class="st17" d="M76.2,7.8c0.8,1.2,2.4,1.3,3.2,2.5c0.2,0.2,0.2,0.3,0,0.5c-2.1-0.6-3.4-2.7-5.6-3.3c-0.8-0.1-1.6-0.6-1.9-1.6
		C73.8,5.6,75,6.6,76.2,7.8z"/>
	<path class="st18" d="M76.2,7.8c-1.4-0.6-2.9-1.3-4.3-1.9l0,0c-0.5-0.1-0.7-0.5-0.9-0.8l0,0c0.2-0.4,0.5-0.4,0.9-0.5
		c1.8,0.9,3.7,1.3,5.3,2.7C76.7,7.3,76.4,7.5,76.2,7.8z"/>
	<path class="st19" d="M87,14.3c-0.5,0.1-0.9,0.2-0.4,0.8c0.5,0.6,1.2,1,1.3,1.9c-0.2,0.2-0.3,0.3-0.6,0.3c-1.7-0.9-2.5-2.6-3.5-4.1
		c0-0.5-0.4-1.2,0.6-1.1C85.3,12.7,86.3,13.3,87,14.3z"/>
	<path class="st20" d="M88.2,88.9c-0.1-0.3-0.2-0.6-0.3-0.8c1.1-1.3,2.5-2.4,2.9-4.3c0.1-0.4,0.6-0.6,1.1-0.6c0.7,1.3-0.9,2-0.9,3.1
		C90.2,87.5,89.2,88.2,88.2,88.9z"/>
	<path class="st7" d="M95.7,28.1c0.2-0.9,0.3-1.8,0.5-2.7c1,1.4,1.7,3,2.3,4.7c0,0.2-0.1,0.4-0.1,0.6c-0.3,0.6-0.7,0.7-1.3,0.3
		c-0.1-0.1-0.2-0.3-0.3-0.5c-0.1-0.7-0.1-1.5-1-1.8c-0.1-0.1-0.2-0.2-0.1-0.3C95.6,28.2,95.6,28.1,95.7,28.1z"/>
	<path class="st21" d="M79.4,10.8c0-0.2,0-0.3,0-0.5c1,0,1.4,1.1,2.2,1.4c1.3,0.4,2,1.3,2.3,2.6c0,0.2,0,0.3,0,0.5
		c-0.4-0.1-1,0.1-1.2-0.4C81.9,12.8,80.2,12.2,79.4,10.8z"/>
	<path class="st22" d="M90.9,86.4C90,85,92,84.5,91.8,83.3c0.2-0.1,0.3-0.3,0.5-0.4c0.4-0.2,0.7-0.4,1.1-0.6c-0.1,0.5-0.2,1-0.3,1.4
		C92.4,84.7,91.9,85.7,90.9,86.4z"/>
	<path class="st23" d="M82.9,92.5c0.2,0.2,0.4,0.4,0.6,0.6c-1.1,1.3-2.6,2.2-4.2,2.9C79.8,94.1,81.7,93.7,82.9,92.5z"/>
	<path class="st24" d="M84.4,12c-0.6,0.2-0.2,0.7-0.2,1c-0.7,0.4-1.2,0.5-1.4-0.5c-0.1-0.5-0.6-0.6-0.8-0.9c0-0.4-1.3-0.7-0.1-1.3
		C82.8,10.9,83.6,11.5,84.4,12z"/>
	<path class="st25" d="M99.3,73.2c-0.6-0.3-0.5-0.9-0.5-1.4c0.5-0.1,0.9-0.3,1.4-0.4C100.2,72.1,100,72.8,99.3,73.2z"/>
	<path class="st17" d="M71,5.1c0.4,0.1,0.7,0.4,0.9,0.8C71.6,6,71.3,6.1,71,6.2C70.9,5.9,70.9,5.5,71,5.1z"/>
	<path class="st26" d="M96.2,71.8c-0.7-1.6,0.9-2.7,1.1-4.2c0.5-3.6,1.2-7.2,1.1-10.9c0.3-0.3,0.8-0.7,0.8-1c-0.2-3.6,1-7.2,0-10.9
		c-1-3.8-2.2-7.6-2.6-11.6c0.3-0.3,0.6-0.3,0.9-0.2c0.9,0.6,0.6,1.6,1,2.4c1.9,5.3,2.3,10.9,2.9,16.4c0.3,2.5-0.1,5.1-0.7,7.6
		c-1.1,2.3-1.1,4.8-1.8,7.2c-0.3,0.8-0.7,1.5-0.6,2.4C97.9,70.3,98.3,72,96.2,71.8z"/>
	<path class="st27" d="M97.4,33.4c-0.3,0-0.6,0-0.9,0c-0.3-2-2-3.3-2.6-5.3c-0.2-0.7-0.6-1.4-0.5-2.2c0.2-0.2,0.3-0.2,0.5,0
		c0.6,0.8,1.1,1.5,1.7,2.3c0,0.1,0,0.3,0.1,0.4c0.9,0.5,0.9,1.4,1.2,2.2l0,0C97.6,31.5,98.4,32.3,97.4,33.4z"/>
	<path class="st28" d="M94,25.8c-0.2,0-0.3,0-0.5,0c-1.4-0.3-1.7-1.6-2.2-2.7c-0.2-0.6-1-1-0.9-1.8c0.4-0.2,0.7,0,1,0.3
		c0.5,0.6,1,1.1,1.6,1.5C93.3,24.1,93.6,25,94,25.8z"/>
	<path class="st8" d="M102.4,48.4c1.6,2.6,0.7,5.3,0.4,8c-0.4,0.1-0.6-0.2-0.8-0.5c-1.2-2.2-0.5-4.6-0.8-6.8c-0.1-0.5,0.4-0.9,1-0.9
		C102.2,48.3,102.3,48.3,102.4,48.4z"/>
	<path class="st25" d="M102.3,55.9c0.1,0.2,0.3,0.3,0.4,0.5c-0.4,1.6,0.2,3.5-1.3,4.9c-0.2,0-0.3,0-0.5,0c-1-1.8,0.3-3.5,0.4-5.2
		C101.5,55.7,102,55.6,102.3,55.9z"/>
	<path class="st8" d="M101.9,44.8c0.4,1.2,1.3,2.3,0.4,3.6l-0.1-0.1C101.5,47.3,101,46.1,101.9,44.8L101.9,44.8z"/>
	<path class="st29" d="M96.2,71.8c1.8-0.3,1-2.1,1.7-3.1c0.2-0.1,0.4-0.2,0.6-0.1c0.5,0.9-0.1,1.8,0,2.7c-0.2,0.6-0.3,1.2-0.5,1.7
		c-0.7-0.6-0.6,0.8-1.3,0.5c-0.1-0.5,0-1-0.5-1.3C96.2,72.1,96.1,71.9,96.2,71.8z"/>
	<path class="st30" d="M96.6,73.6c0.4-0.3,0.6-0.9,1.3-0.5c-0.4,0.9-0.9,1.8-1.3,2.7c-0.8,0.4-1.2,1.1-1.4,2
		c-0.3,1.2-0.5,2.7-2.2,2.9C94.3,78.3,95,75.7,96.6,73.6z"/>
	<path class="st31" d="M101.9,44.9c0.2,1.2,0.3,2.3,0.5,3.5c-0.9,0.1-0.9,0.8-0.8,1.5c0.4,2-0.1,4.1,0.8,6.1c-1.3,1.6-1,3.5-1.3,5.3
		c-0.2,0.8-0.3,1.6-0.9,2.3c-0.9-1.2-0.5-2.4,0-3.6c0.6-4.8,0.6-9.6-0.2-14.4c-0.6-3.5-1.5-6.8-2.1-10.3c2.2,0.7,2.2,2.7,2.6,4.4
		c0.2,0.7,0,1.6,0.6,2.2C101.6,42.7,100.8,44,101.9,44.9z"/>
	<path class="st31" d="M98.4,71.4c-0.8-0.9-0.2-1.8,0-2.7c0.2-0.7,0.2-1.4,0.3-2.1c0.7-0.8-0.3-2.5,1.5-2.8c0.1,2.6-0.6,5.1-1.3,7.5
		C98.6,71.3,98.5,71.3,98.4,71.4z"/>
	<path class="st29" d="M100.1,63.8c-1.1,0.8-0.7,2.2-1.3,3.1c-0.2,0.1-0.3,0.1-0.5,0c0.6-2.4,0.4-4.9,1.8-7.1c0,1.2,0,2.4,0,3.6
		C100.2,63.5,100.2,63.7,100.1,63.8z"/>
	<path class="st9" d="M101,41.7c-0.9-0.1-0.8-0.9-0.9-1.5c-0.3-1.9-1-3.6-2.3-5.1c-0.7-0.5,0.4-1.4-0.4-1.8c0.3-1-0.3-1.8-0.4-2.7
		c0.4,0.2,0.9,0.3,1.3,0c-0.2,1.9,1.1,3.2,1.6,4.8C100.7,37.5,101,39.6,101,41.7z"/>
	<path class="st32" d="M91.4,21.8c-0.3-0.1-0.6-0.3-0.9-0.4c-1-1-1.5-2.4-2.7-3.1c-0.2-0.4-0.7-0.7-0.5-1.3c0.2,0,0.3,0,0.5-0.1
		c1,0.6,1.1,2.2,2.6,2.3c0,0.6,0.3,1.1,0.9,1.4C91.7,21,91.6,21.4,91.4,21.8z"/>
	<path class="st13" d="M91.4,21.8c0-0.4,0-0.9-0.1-1.3c0.6,0.9,1.2,1.8,1.8,2.6C92.1,23.4,91.7,22.6,91.4,21.8z"/>
	<path class="st33" d="M87.3,17c0.2,0.4,0.3,0.9,0.5,1.3c-1.6-1-2.6-2.7-4-4c-1.1-0.6-1.3-1.9-2.3-2.6c0.2,0,0.3,0,0.5-0.1
		c1.3-0.5,0.9,1.8,2.2,1.4C85.1,14.5,85.8,16,87.3,17z"/>
	<path class="st9" d="M97,30.7c-0.7-0.6-0.8-1.5-1.2-2.2C98.2,28.2,97,29.8,97,30.7z"/>
	<path class="st30" d="M98.3,66.9c0.2,0,0.3,0,0.5,0c0.5,0.7,0.5,1.4-0.4,1.8c-0.2,0-0.3,0-0.5,0C97.5,68,97.9,67.4,98.3,66.9z"/>
</g>
</svg>
