<?xml version="1.0" encoding="utf-8"?>
<!-- Generator: Adobe Illustrator 25.0.0, SVG Export Plug-In . SVG Version: 6.00 Build 0)  -->
<svg version="1.1" id="Layer_1" xmlns="http://www.w3.org/2000/svg" xmlns:xlink="http://www.w3.org/1999/xlink" x="0px" y="0px"
	 width="105.5px" height="129px" viewBox="0 0 105.5 129" style="enable-background:new 0 0 105.5 129;" xml:space="preserve">
<style type="text/css">
	.st0{fill:#FCFCFC;}
	.st1{fill:#2D3C44;}
	.st2{fill:#495C64;}
	.st3{fill:#F2F5F4;}
	.st4{fill:#EEF1F2;}
	.st5{fill:#EBEDEE;}
	.st6{fill:#E5E8EA;}
	.st7{fill:#D0D7D8;}
	.st8{fill:#B7C0C4;}
	.st9{fill:#252D32;}
	.st10{fill:#A5B0B2;}
	.st11{fill:#DDE2E3;}
	.st12{fill:#4B5D65;}
	.st13{fill:#E9E0DB;}
	.st14{fill:#F8F4EC;}
	.st15{fill:#48A6DD;}
	.st16{fill:#FFFFFF;}
</style>
<g>
	<path class="st0" d="M78.2,93.8l0.3,0l0.3,0c1.4,1.5,2.8,2.6,4.5,0.2c0.1-0.2,0.7-0.1,1.1-0.1c-0.9,1.9-0.7,3.8,1.5,4.4
		c1.5,0.4,4,1.1,3.8-2.2c0.2-2.3-0.3-3.8-3-2.2c-0.8,0-1.5,0-2.3,0c0.1-1.4-0.1-2.8-0.9-4c-0.3-2.4,0.6-3.7,3.1-3.8
		c3.6,0.2,2.3-2.6,2.6-4.4c0.1-0.5,0.3-1,0.4-1.5l0,0c2.5-0.2,2.6-4.7,6-3.2c0.1-0.7,2.2-1,0.5-2.1c-0.4-0.3-1.1-0.7-0.5-1
		c3.4-1.6,0.8-4.6,1.7-6.8c0-0.4,0-0.7,0-1.1c1.7,0.1,2.5-0.6,2.4-2.4c-0.2-2.3-0.1-4.7-0.2-7.1c2.1-2-0.1-5.1,2-7.2
		c0.4,4.6,0.4,9.2,0.4,13.8c0.1,3.1,1.1,3.6,3.7,2.1c2.2-1.3,2.5-2.8,0.2-4.3c-1.2-0.8-1.6-1.9-1.6-3.2c0-0.6,0.5-1.1,1-0.8
		c2.9,1.7,2-0.9,1.9-1.8c-0.2-3.4,1.6-6.7,3.6-8.2c3-2.4,0.1-5.6,2.2-7.6c0.1-0.1-0.7-0.9-1.4-1c-0.8-0.1-1.5,0-1.9,0.9
		c-0.3,0.7-0.1,1.6-1,1.9c-3.3,1.1-3.1,3.4-2.4,6.1c0.3,1.2,0.7,2.6-0.7,3.8c-1.1-4.7-1.1-4.7-3.5-5.1c0-0.8,0-1.5,0-2.3
		c1.1-0.2,1.4-0.8,1.2-1.9c-0.5-2.6-2.1-4.4-4.3-5.8c-0.7-1.8-2-3.7-2-5.5c-0.1-4.2-3.4-5.7-5.6-8.2l0,0c0.2-1.7-0.8-2.9-2-3.8
		c-3.3-2.4-4.9-6.9-9.4-7.6l0,0c0.3-4.9-3.1-4.7-6.4-4.6c-0.5,0-1,0-1.5,0l-0.2,0c-0.7-1.5-2.5-2.5-1.9-4.5c-1-2.7,0.9-5.7-0.7-8.4
		c1.3-1.9-0.7-2.1-1.4-2.1c-5.9-0.1-11.8-1-17.7,0.5c-0.9,0.2-2-0.4-2.7,0.9c0.7,0.9,1.8,0.6,2.7,0.7l0,0c0.2,3.1-2.8,4.6-4.4,5
		c-3.4,0.7-1.9,2.4-1.7,4c-1.3,0.1-2.5,0.1-3.8,0.2C38.6,1.3,38,1.9,38,3.7c-3.4,1.3-6.7,2.6-10.1,3.9c-2.4-2.5-5.4-1.2-8.2-1
		c-1.3,0.1-1,1.9-0.8,2.9c0.3,1.9,1.3,0.9,2.1,0.3c1.1-0.7,1.9,0.2,2.8,0.5c-0.4,0.8-1.8,0.2-2,1.3c-8.1,6.7-13.8,15-16.7,25.1
		C5,38.9,3.1,40.7,4,43c-0.1,1.8-0.2,3.5-0.3,5.3c-0.7,1.5-0.9,3,0,4.5c0.1,1.8,0.2,3.6,0.2,5.3c-0.3,1.3,0,2.5,0.4,3.7
		c1.4,4.8,3.3,9.3,5.5,13.7c0,1.2-0.1,2.5-0.1,3.7c0,7.9,0.2,8.1,8.2,6.6c1.1-0.1,1.9,0.4,2.4,1.4c0,0.5,0,1-0.1,1.5
		c-1.1,6.8,0.7,9.2,7.6,9.7c1,0.1,1.7,0.3,2.6,1.1c1.8,1.7,3.8,2.3,5.4-0.5c0.5-0.8,1.4-1.4,2.1-2.1c1.5,0.1,3.2-0.5,4.5,0.8
		c0.7,1.9,1.8,1.6,3.1,0.6c1.3,0,2.5,0.1,3.8,0.1c-1.8,1.8-1.1,2.7,1.1,2.9c4.4,0.3,8.6-0.2,12.8-1.6c2.5,0.9,6-1.4,6.1-1.7
		c0.7-4.6,4.1-1.1,5.8-2C76.8,96.3,78.5,96.4,78.2,93.8z"/>
	<path class="st0" d="M68.5,99.5c0.9,3.3-0.6,4.5-3.1,3.8c-0.8-0.2-1.5-1.4-2.3-0.3c-2.9,4.1-6.8,3.4-10.9,2.4
		c-1.2-0.3-2.5,0-2.7,1.4c-0.3,1.8,1.3,1.5,2.3,1.5c5.2,0,10.4,0,15.5,0c2.5,0,3.8-3,6.5-2.8c0.1,0,0.4-1.1,0.5-1.7
		C75,99.1,70.8,101.6,68.5,99.5z"/>
	<path class="st1" d="M9.8,75.5c-2.2-4.4-4.1-8.9-5.5-13.7C4,60.6,3.7,59.4,4,58.1c1.4-0.4,1.1-1.5,1.2-2.4c0.1-2.3,0.1-4.5,0.1-6.8
		c1.8,1,2.6,2.5,3,4.5c0.5,3.2,2.3,5.9,3.9,8.7c2.4,4.1,5.3,2.7,8.5,2.3c1.8-0.2,3.1,1.4,3.4,3.1c0.3,1.7-1.1,2.1-2.5,2.1
		c-1.6,0-3.1,0.8-3.1,2.2c0.1,2.2,1.2,4.2,2.8,5.9c1,1.1,2.1,1.2,3.4,0.5c2.2-1.3,4.9-2.4,1.7-5.4c-1-1-0.7-2.5,0.6-2.7
		c1.8-0.4,2.8-1.5,3.9-2.7c0.4-0.5,1.1-0.8,1.7-0.5c1,0.5,0.3,1.3,0.1,2c-0.2,0.9-0.5,1.7-1.3,2.2c-2.2,1.1-2.2,2.5-0.6,4.2
		c0.8,0.8,1.7,1.9,0.1,2.7c-1.5,0.8-1.7,1.9-0.9,3.1c1.1,1.5,2.4,0.3,3.3-0.3c2.3-1.5,4.5-2.8,7.6-2.8c3.1,0,4.7-3.1,4.1-6.4
		c-0.1-0.7-0.5-1.7-0.1-2.2c2.3-3.1-0.5-5.2-1.6-7.4c-0.7-1.4-2.2-4-4.1-3.1c-1.5,0.7-0.2,2.9,0.7,4.3c0.1,0.2,0.2,0.5,0.2,0.7
		c0,0.9,0.4,1.9-0.6,2.4c-1.2,0.6-1.2-0.8-1.8-1.3c-2.6-2.2-2.7-5.9-5.3-8.1c-3.3-2.7-4.2-6.8-4.3-10.7c-0.1-4.6,2.2-6.6,6.9-6.2
		c1.7,0.2,3.4,0.8,5.2,1.1c2.6,0.4,4.5-0.8,5.7-2.8c1.2-2-0.8-2.8-2.1-3.8c-1.9-1.4-1.6-2.7,0.5-3.6c2.8-1.2,5-3.3,7.4-5.1
		c1.2-0.9,2.4-2.4,0.8-3.4c-2.9-1.9-5.1-4.5-8.2-6.2c-3.6-2-6.2,0-9.2,0.8c-3.3,0.8-6.7,0.8-6.6,5.8c0,2.5-2.9,2.3-4.8,2.5
		C22.4,25.3,21.7,24,22,23c0.8-2.3,0.8-5.1,3.6-6.3c2.4-1,4.1-3.4,7-3.6c0.6-0.1,1.2-0.6,1.1-1.3c-0.1-0.8-0.8-0.9-1.4-0.8
		c-2.3,0.2-4.7,0.3-6.6,2.1c-1.7,1.6-3.5,1.7-3.7-1.4c0.2-1.1,1.6-0.5,2-1.3c1.2-1.2,3.3-0.9,4-2.7c3.4-1.3,6.7-2.6,10.1-3.9
		c0.9,0,1.6-0.4,2.2-1.1c1.3-0.1,2.5-0.1,3.8-0.2c5.3-1.6,10.5-0.7,15.7,0.3c0.6,0.7,1.1,1.4,1.7,2.2c0.7,0.5,1.1,1.2,0.9,2.1
		c-3.6,2.2-3.6,2.2-1.6,3.9c0,0.3,0,0.5,0,0.8c0,0,0,0,0,0c-1.6-0.1-3.2-0.1-4.9-0.4c-4.7-0.8-9.5-1.3-14.2-1.8
		c-1.3-0.1-2.9,0.1-2.8,1.7c0.1,1.8,1.5,1.9,3.1,1.6c3.6-0.7,7-0.6,10,1.9c1.3,1.1,2.9,1.1,4.3,0.6c2-0.7,4-0.6,6-0.5
		c0.2,1.7,1.8,1.3,2.7,1.3c2.6,0,3.9,0.9,4.3,3.6c0.3,2,1.2,4,2.2,5.9c0.7,1.3-0.7,1.4-0.9,2.1c-2.3-0.9-4.6-2-7-2.8
		c-2.7-0.9-5.4-0.8-7,2.1c-3.2,5.8-1,11,5.3,13c0.8,0.3,1.7,0.4,2.6,0.5c1.4,0.2,2,1.1,1.2,2.1c-2.5,3-0.8,5.8,0,8.7
		c0.5,2,0.3,4.4,3.8,3.2c1.3-0.5,1.1,1.2,0.8,2.2c-0.3,1.1,0.3,1.7,1.2,2c0.9,0.3,1.8,0.2,2.2-0.9c0.3-0.9,0.7-1.6,1.6-2
		c1.6,0.2,2,1.6,1.3,2.4c-1.5,1.8-0.5,3.5-0.5,5.3c-2.4,0.4-3.1,2.1-2.7,4.1c0.5,2.6,2.1-0.4,3.1,0.4c-0.6,2.4-0.7,5-2.6,6.8
		c-0.4-0.1-0.7-0.2-1.1-0.2c-0.5,3.3-3.8,5.3-4.1,8.6c-0.3,2.3-1.6,3.1-3.6,3c-2.6-0.1-4.8,0.6-5.4,3.1c-0.6,2.6,1.9,3.5,3.7,4.7
		c-0.6,0.8-1.1,1.5-1.7,2.3c-0.2,0.3-0.4,0.5-0.6,0.8c-3.6,2.3-7.8,0.8-11.6,1.5c-1.3,0-2.5-0.1-3.8-0.1c-1-0.2-2.1-0.4-3.1-0.6
		c-1.3-1.3-3-0.7-4.5-0.8c-0.4-0.3-0.7-0.9-1.1-1c-6.4-1.4-11.4-5.1-16.4-8.9c-0.5-1.1-1.3-1.5-2.4-1.4
		C15.2,82.4,12.5,78.9,9.8,75.5z M57.6,45c0-1.4-3.9-4.4-5.4-4.3c-1.6,0.1-2.5,1.1-2.1,2.5c0.6,2.3,2.1,4.1,4.7,4.2
		C56.4,47.5,57.3,46.3,57.6,45z M46.1,50.4c0-1.1-0.6-1.3-1.5-1.3c-0.9,0-1.8,0.3-1.9,1.3c-0.1,1.1,0.7,1.5,1.7,1.5
		C45.4,51.9,46,51.3,46.1,50.4z M50.7,54.5C50.5,53.6,50,53,49,53c-0.9,0-1.2,0.7-1.2,1.5c0,0.9,0.5,1.3,1.4,1.3
		C50.1,55.8,50.7,55.5,50.7,54.5z"/>
	<path class="st2" d="M21.9,11.7c0.3,3.1,2,3,3.7,1.4c2-1.8,4.3-1.9,6.6-2.1c0.6-0.1,1.4,0,1.4,0.8c0.1,0.7-0.5,1.2-1.1,1.3
		c-2.8,0.3-4.5,2.6-7,3.6c-2.8,1.2-2.8,4-3.6,6.3c-0.4,1,0.4,2.3,1.5,2.2c1.9-0.2,4.9,0,4.8-2.5c-0.1-5,3.3-5,6.6-5.8
		c3.1-0.8,5.6-2.8,9.2-0.8c3.1,1.7,5.4,4.3,8.2,6.2c1.5,1,0.3,2.5-0.8,3.4c-2.4,1.8-4.6,3.8-7.4,5.1c-2.1,0.9-2.4,2.2-0.5,3.6
		c1.3,1,3.2,1.7,2.1,3.8c-1.2,2.1-3.2,3.3-5.7,2.8c-1.7-0.3-3.4-0.9-5.2-1.1c-4.6-0.4-7,1.5-6.9,6.2c0.1,4,1,8,4.3,10.7
		c2.6,2.2,2.7,5.9,5.3,8.1c0.6,0.5,0.5,1.9,1.8,1.3c1-0.5,0.7-1.5,0.6-2.4c0-0.2-0.1-0.5-0.2-0.7c-0.9-1.4-2.2-3.6-0.7-4.3
		c1.9-0.9,3.4,1.6,4.1,3.1c1.1,2.2,3.9,4.3,1.6,7.4c-0.3,0.5,0,1.5,0.1,2.2c0.6,3.3-1,6.4-4.1,6.4c-3.1,0-5.2,1.3-7.6,2.8
		c-1,0.6-2.2,1.8-3.3,0.3c-0.8-1.2-0.7-2.3,0.9-3.1c1.6-0.8,0.7-1.9-0.1-2.7c-1.7-1.7-1.6-3,0.6-4.2c0.9-0.4,1.1-1.3,1.3-2.2
		c0.2-0.7,0.8-1.4-0.1-2c-0.6-0.3-1.3,0-1.7,0.5c-1.1,1.2-2.1,2.3-3.9,2.7c-1.3,0.3-1.6,1.8-0.6,2.7c3.3,3.1,0.5,4.1-1.7,5.4
		c-1.3,0.8-2.4,0.6-3.4-0.5c-1.6-1.7-2.8-3.7-2.8-5.9c0-1.4,1.5-2.2,3.1-2.2c1.4,0,2.8-0.4,2.5-2.1c-0.3-1.7-1.6-3.2-3.4-3.1
		c-3.2,0.3-6.1,1.8-8.5-2.3c-1.6-2.8-3.4-5.5-3.9-8.7c-0.3-2-1.2-3.5-3-4.5c0-1.7,0-3.4,0-5.1c2.2-2.4,2.2-4.7-0.1-7
		C8.1,26.7,13.8,18.4,21.9,11.7z"/>
	<path class="st3" d="M97.2,66.2c0,0.4,0,0.7,0,1.1c-3.2,3.9-6.2,8-7.6,13c0,0,0,0,0,0c-1.2-0.1-1.8,0.6-2.3,1.5
		c-0.3,0.4-0.6,0.9-0.9,1.3c-0.7,0.3-1.3,0.8-1.4,1.6l-0.1,0c-0.6,0.1-1.2,0.2-1.8,0.4c-1.3-0.4-0.8-2.6-2.6-2.5
		c0-1.1,0-2.2-1.5-2.3c0-0.5,0-1,0-1.5c1.3,0.3,2.5,0.5,3.8,0.8c0.1,0.9,0.3,1.9,1.3,1.9c1.7,0,0.5-2.2,1.8-2.7
		c3.6-1,5.1-3.4,3.1-4.9c-1.8-1.3-1.4-2.7-1.6-4.2c-0.5-2.8,3.1-4,2.8-6.9c-0.2-1.6,0.2-3.2,0.4-4.9c0.1-0.5,0.4-1,1-1
		c0.9,0,1,0.6,0.8,1.3c-0.4,1.4-0.7,2.8,0.6,4.9c0.5-2.2,0.9-3.7,1.1-5.2c0.5-3.1-2.9-9.6-5.6-10.8c-0.7-0.3-2.2-0.4-2.5,0
		c-1.6,2.7-4.1,1-6.1,1.3c-0.2-0.4-0.5-0.8-0.7-1.3c0.1-0.4,0.2-0.7,0.2-1.1c1,0.7,2.1,1.2,2.6-0.4c0.3-0.8,0-2-1-2.1
		c-1.7-0.1-1.1,1.6-1.6,2.4c-1.2-1.6-0.9-3.5-1-5.3c1.5-1.3,0-2.1-0.4-3.1c-1.3-7.3-5.1-13.6-7-20.7c0.2-0.2,0.4-0.4,0.6-0.6
		c0.9,0.8,1.7,2.1,3,2.1c2.1,0.1,2.3,1.4,2.4,3.1c0.1,1.5,0.8,2.9,0.9,4.4c0.2,3,3.6,4.5,3.5,7.3c-0.2,3.9,2.1,6.6,3.9,9.6
		c0.7,1.3,1.9,2,3.1,1.4c1.9-1,2.9,0.1,3.8,1.6c1.5-1.9,0-2.8-0.8-3.8c0-1,0-2,0-3c0.6-0.3,0.7-0.8,0.8-1.4c0.5-0.3,0.5-0.6,0-0.9
		c0-0.2,0-0.4,0-0.7c0.6-1.9,2.4-4-0.8-5.4c-0.1,0,0-0.5,0-0.7c0.7-1.2,0.9-2.5,0.7-3.8l0.1,0c1.4,0.5,1.6,1.9,2.1,3
		c1.5,3.3,2.8,6.7,4.1,10c-0.7,2.5,1.5,4.5,1.3,7c-1.4,3.5-0.5,7.1-0.6,10.7C98.2,59.9,97.2,63,97.2,66.2z"/>
	<path class="st4" d="M59.6,2.8c-5.2-1-10.4-1.9-15.7-0.3c-0.2-1.6-1.8-3.3,1.7-4c1.6-0.3,4.6-1.9,4.4-5c6.4,0,12.7,0,19.1,0
		c1.6,2.7-0.3,5.6,0.7,8.4c-1.8,0.8-3.5,1.5-5.3,2.3c-0.3,0-0.6-0.1-0.9-0.1c-0.1-0.9,1.4-1.6,0.3-2.8C62.8,2.5,61.2,2.6,59.6,2.8z"
		/>
	<path class="st3" d="M63.6,4c0.3,0,0.6,0.1,0.9,0.1c2,1.8,4.6,2,7.2,2.3c0,0,0.2,0,0.2,0c2,2.6,4.8,3.9,7.9,4.6c0,0,0,0,0,0
		c3.5,4.2,7.3,8,11.5,11.5c0,0,0,0,0,0c-0.5,1.4,0.8,2.5,0.8,3.8c0,0-0.1,0-0.1,0c-5.5,0.5-9-2.2-11.3-7c-1.3-2.7-4.1-4-6.8-5
		c-1.7-0.7-2.6,0.2-2.5,2.1c-0.2,0.2-0.4,0.4-0.6,0.6c-1.6-1.4-2.3-3.5-3.6-5.1C65.7,10,65,7.4,62.3,7.1C62.5,6.2,62,5.5,61.3,5
		C61.8,3.9,62.7,4,63.6,4z"/>
	<path class="st5" d="M98.9,56.8c0.1-3.6-0.8-7.2,0.6-10.7c0.8-0.1,1.7-0.1,2.5-0.2c2.4,0.4,2.4,0.4,3.5,5.1c1.4-1.2,1-2.6,0.7-3.8
		c-0.7-2.7-0.9-5,2.4-6.1c0.9-0.3,0.8-1.2,1-1.9c0.4-0.9,1.1-0.9,1.9-0.9c0.7,0.1,1.5,0.9,1.4,1c-2.2,2,0.8,5.2-2.2,7.6
		c-1.9,1.5-3.7,4.8-3.6,8.2c0.1,0.9,0.9,3.5-1.9,1.8c-0.5-0.3-0.9,0.2-1,0.8c-0.1,1.4,0.4,2.4,1.6,3.2c2.3,1.5,2,3-0.2,4.3
		c-2.6,1.6-3.6,1-3.7-2.1c-0.1-4.6,0-9.2-0.4-13.8c-2.1,2.1,0.1,5.2-2,7.2C99.2,56.7,99.1,56.8,98.9,56.8z"/>
	<path class="st6" d="M20.3,87.2c5,3.8,10.1,7.5,16.4,8.9c0.4,0.1,0.7,0.6,1.1,1c-0.7,0.7-1.6,1.3-2.1,2.1c-1.6,2.7-3.6,2.1-5.4,0.5
		c-0.8-0.8-1.6-1.1-2.6-1.1c-6.9-0.5-8.7-2.9-7.6-9.7C20.3,88.2,20.3,87.7,20.3,87.2z"/>
	<path class="st4" d="M68.5,99.5c2.3,2.1,6.5-0.5,5.9,4.4c-0.1,0.6-0.4,1.7-0.5,1.7c-2.7-0.3-4,2.8-6.5,2.8c-5.2,0-10.4,0-15.5,0
		c-1.1,0-2.6,0.3-2.3-1.5c0.2-1.4,1.5-1.6,2.7-1.4c4,1,7.9,1.6,10.9-2.4c0.8-1.1,1.5,0.1,2.3,0.3C67.9,104,69.4,102.8,68.5,99.5z"/>
	<path class="st7" d="M9.8,75.5c2.7,3.4,5.4,6.9,8.1,10.3c-7.9,1.6-8.2,1.3-8.2-6.6C9.7,78,9.8,76.7,9.8,75.5z"/>
	<path class="st6" d="M49.3,98.6c3.8-0.7,8,0.8,11.6-1.5c0.3,0,0.5,0,0.8-0.1c0.2,0,0.4,0,0.6,0.1c0.3,0.9,0.6,1.9,0.8,2.8
		c-4.2,1.4-8.4,1.9-12.8,1.6C48.1,101.3,47.5,100.3,49.3,98.6z"/>
	<path class="st8" d="M63.2,99.9c-0.3-0.9-0.6-1.9-0.8-2.8c3.8-1.3,7.5-2.6,11.3-3.9c0.3,0.3,0.5,0.5,0.8,0.8
		c0.2,0.7,0.4,1.5,0.6,2.2c-1.8,0.9-5.1-2.6-5.8,2C69.2,98.4,65.6,100.7,63.2,99.9z"/>
	<path class="st8" d="M89.6,80.3c1.5-5,4.4-9.1,7.6-13c-0.8,2.2,1.7,5.1-1.7,6.8c-0.6,0.3,0.1,0.7,0.5,1c1.8,1.1-0.4,1.4-0.5,2.1
		C92.3,75.5,92.1,80.1,89.6,80.3z"/>
	<path class="st8" d="M91.9,26.2c0-1.3-1.3-2.4-0.8-3.8c2.3,2.5,5.6,4,5.6,8.2c0,1.8,1.3,3.7,2,5.5c0,1,0,2,0,3
		c-0.2,0-0.4,0-0.6,0.1c-1.4-3.4-2.7-6.7-4.1-10C93.6,28,93.4,26.6,91.9,26.2z"/>
	<path class="st6" d="M27.9,7.7c-0.8,1.7-2.9,1.5-4,2.7c-0.9-0.2-1.7-1.2-2.8-0.4c-0.8,0.5-1.8,1.5-2.1-0.3c-0.2-1-0.5-2.8,0.8-2.9
		C22.5,6.5,25.5,5.2,27.9,7.7z"/>
	<path class="st8" d="M91.2,22.4c-4.2-3.5-8-7.3-11.5-11.5c4.6,0.8,6.2,5.2,9.4,7.6C90.4,19.5,91.4,20.7,91.2,22.4z"/>
	<path class="st3" d="M83.5,90c0.8,1.2,1,2.6,0.9,4h0c-0.4,0-0.9-0.1-1.1,0.1c-1.7,2.4-3.1,1.3-4.5-0.2c0.1-0.6,0-1.1-0.5-1.4
		c0.2-1.2,2-1.5,1.5-3.1l0,0C81,89.6,82.2,89.8,83.5,90z"/>
	<path class="st8" d="M79.8,11c-3.1-0.7-5.9-2-7.9-4.6c0.5,0,1,0,1.5,0C76.7,6.2,80.1,6,79.8,11z"/>
	<path class="st9" d="M5.3,43.8c0,1.7,0,3.4,0,5.1c0,2.3-0.1,4.5-0.1,6.8c0,1,0.2,2.1-1.2,2.4c-0.1-1.8-0.2-3.6-0.2-5.3
		c1-1.5,1-3,0-4.5C3.8,46.5,3.9,44.7,4,43C4.4,43.3,4.9,43.5,5.3,43.8z"/>
	<path class="st3" d="M89.6,96.2c0.2,3.2-2.4,2.6-3.8,2.2c-2.1-0.6-2.3-2.5-1.5-4.4c0,0,0,0,0,0c0.8,0,1.5,0,2.3,0
		C86.4,96.4,88,96.3,89.6,96.2z"/>
	<path class="st5" d="M98.8,39.1c0-1,0-2,0-3c2.2,1.3,3.8,3.1,4.3,5.8c0.2,1,0,1.7-1.2,1.9C100.9,42.2,99.9,40.6,98.8,39.1z"/>
	<path class="st1" d="M5.3,43.8C4.9,43.5,4.4,43.3,4,43c-0.9-2.3,1-4,1.2-6.1C7.5,39.1,7.5,41.5,5.3,43.8z"/>
	<path class="st8" d="M83.5,90c-1.2-0.2-2.5-0.4-3.7-0.6c0-1.4,1.6-1.7,1.8-2.9c0.8-0.2,1.3-0.7,1.5-1.5c0.6-0.1,1.2-0.2,1.8-0.4
		c0.6,0.5,1.1,1,1.7,1.5C84.1,86.2,83.2,87.6,83.5,90z"/>
	<path class="st7" d="M71.7,6.4c-2.5-0.3-5.1-0.4-7.2-2.3c1.8-0.8,3.5-1.5,5.3-2.3C69.2,3.9,71,4.9,71.7,6.4z"/>
	<path class="st10" d="M98.9,56.8c0.2-0.1,0.3-0.1,0.5-0.2c0.1,2.4,0,4.7,0.2,7.1c0.1,1.8-0.6,2.5-2.4,2.4
		C97.2,63,98.2,59.9,98.9,56.8z"/>
	<path class="st10" d="M98.8,39.1c1.1,1.5,2.1,3.1,3.2,4.6c0,0.8,0,1.5,0,2.3c-0.8,0.1-1.6,0.1-2.5,0.2c0.2-2.4-2-4.5-1.3-7
		C98.4,39.2,98.6,39.1,98.8,39.1z"/>
	<path class="st10" d="M86.6,86.1c-0.6-0.5-1.1-1-1.7-1.5c0,0,0.1,0,0.1,0c1.2,0.1,1.6-0.5,1.4-1.6c0.3-0.4,0.6-0.9,0.9-1.3
		c0.6,0,1.3,0,1.9,0C88.9,83.5,90.2,86.3,86.6,86.1z"/>
	<path class="st10" d="M78.2,92.4c0.5,0.3,0.7,0.8,0.5,1.4c0,0-0.3,0-0.3,0s-0.3,0-0.3,0.1c-1.3-1-2.5-0.1-3.8,0.1
		c-0.3-0.3-0.5-0.5-0.8-0.8c0.8-1.5,2.4-1.8,3.8-2.5C77.5,91.3,77.5,92,78.2,92.4z"/>
	<path class="st3" d="M74.4,93.9c1.3-0.2,2.5-1.1,3.8-0.1c0.3,2.6-1.4,2.5-3.2,2.3C74.8,95.4,74.6,94.7,74.4,93.9z"/>
	<path class="st11" d="M89.6,96.2c-1.6,0.1-3.2,0.2-3-2.2C89.4,92.4,89.8,93.9,89.6,96.2z"/>
	<path class="st1" d="M3.7,48.3c1.1,1.5,1,3,0,4.5C2.8,51.3,2.9,49.8,3.7,48.3z"/>
	<path class="st6" d="M42.4,97.9c1,0.2,2.1,0.4,3.1,0.6C44.2,99.6,43.1,99.8,42.4,97.9z"/>
	<path class="st4" d="M40.2,2.7c-0.6,0.6-1.3,1.1-2.2,1.1C38,1.9,38.6,1.3,40.2,2.7z"/>
	<path class="st8" d="M89.2,81.8c-0.6,0-1.3,0-1.9,0c0.5-0.9,1.2-1.6,2.3-1.5C89.5,80.7,89.4,81.3,89.2,81.8z"/>
	<path class="st2" d="M78.3,40.6c0.2,1.8-0.2,3.7,1,5.3c0,0,0,0.1,0,0.1c-0.1,0.4-0.2,0.7-0.2,1.1c-0.2,1.2-0.5,2.3-0.7,3.5
		c-0.6,0-1.3,0.1-1.6,0.8c-1.7,0.4-3.1,1-1.5,3.1c0,0.5,0,1,0,1.5c-0.9,0.4-1.3,1.1-1.6,2c-0.3,1.1-1.3,1.2-2.2,0.9
		c-1-0.3-1.6-0.9-1.2-2c0.3-1,0.5-2.7-0.8-2.2c-3.5,1.2-3.3-1.2-3.8-3.2c-0.8-2.9-2.5-5.7,0-8.7c0.8-1,0.2-1.9-1.2-2.1
		c-0.9-0.1-1.7-0.3-2.6-0.5c-6.3-2-8.5-7.2-5.3-13c1.6-2.9,4.3-3,7-2.1c2.4,0.7,4.7,1.8,7,2.8c0.2,0,0.5,0.1,0.7,0
		c-0.2,0.5-0.4,0.9-0.6,1.4c0.5,0.5,1,1,1.5,1.5c0,1,0.5,1.5,1.5,1.6c0,0.5,0,1,0,1.4c-1.5,1.2-3.3,2.7-2.5,4.6
		c0.6,1.6,3,0.5,4.5,0.8c0.5,0.1,1,0.1,1.5,0.2C77.5,39.8,77.9,40.2,78.3,40.6z"/>
	<path class="st4" d="M79,78.7c0,0.5,0,1,0,1.5c-2.7,2-5.3,4-8,5.8c-1,0.7-1.2,1.5-1.2,2.5c-0.6-0.3-1.2-0.6-1.7-0.8
		c2.2-4.1,4.8-8.1,5.6-12.8c2-1.9,2-4.5,2.6-6.8c0.9-1.1,0.5-2.4,0.6-3.7c1.7-4.2,1.4-8.7,1.9-13c0.3,0,0.6-0.1,0.9-0.1
		c0.8,0.1,1.4,0.5,1.5,1.4c0.7,3.5,0,7.4,3.5,10.2c1,0.7,0.5,2.9-1.2,3.8c-2.5-0.3-3.8,0.2-4,3.3C79.4,72.8,80.4,75.9,79,78.7z"/>
	<path class="st9" d="M72.1,30.8c-0.5-0.5-1-1-1.5-1.5c0.7-0.1,1.7,0.3,1.9-0.7c0.2-0.9-0.7-0.7-1.3-0.7c-0.2,0-0.5,0-0.7,0
		c0.2-0.7,1.6-0.8,0.9-2.1c-0.9-1.9-1.8-3.9-2.2-5.9c-0.4-2.7-1.7-3.6-4.3-3.6c-0.8,0-2.4,0.4-2.7-1.3c0-0.3,0-0.5,0-0.8
		c0.3,0.2,0.7,0.4,1,0.5c1.1,0.4,2,0.2,2.5-0.9c0.1-0.3-0.2-1-0.5-1.3c-1.1-1.1-1.7,0.2-2.5,0.7c-0.3,0.2-0.5,0.6-0.7,0.9
		c-1-0.4-1.4-1.2-1.5-2.2c0,0,0,0,0,0c0.8,0,1.4-0.2,1.4-1.2c0-0.2-0.1-0.6-0.2-0.6c-0.8-0.2-1,0.5-1.3,1c-2-1.7-2-1.7,1.6-3.9
		c2.8,0.4,3.5,2.9,4.9,4.7c1.3,1.6,2,3.7,3.6,5.1c1.9,7.1,5.7,13.4,7,20.7c-0.8,0-0.3,0.8-0.7,1.1c-2.2-0.9-1.3-4-3.5-4.9
		c0-0.5,0-1,0-1.4C73.7,31.3,73.1,30.8,72.1,30.8z"/>
	<path class="st3" d="M68.1,87.8c0.6,0.3,1.2,0.6,1.7,0.8c0.7,0.5,0.5,2.6,2,1.4c1.6-1.2,2.7-2.9,4.1-4.4l0,0
		c1.3-0.2,2.5-0.5,3.8-0.7c0,1.2,0.9,1.5,1.8,1.7c-0.3,1.2-1.9,1.5-1.8,2.9c0,0,0,0,0,0c-1,0.1-2.1-0.1-2.3,1.3
		c-1.3,0.7-2.9,1-3.8,2.5c-3.8,1.3-7.5,2.6-11.3,3.9c-0.2,0-0.4-0.1-0.6-0.1c-0.1-0.2-0.1-0.5-0.2-0.7c0.6-0.8,1.1-1.5,1.7-2.3
		C64.8,91.9,66.5,89.8,68.1,87.8z"/>
	<path class="st2" d="M62.3,14.1c0,0.3,0,0.5,0,0.8c-2-0.1-4-0.2-6,0.5c-1.4,0.5-3,0.5-4.3-0.6c-3-2.6-6.4-2.7-10-1.9
		c-1.6,0.3-3,0.2-3.1-1.6c-0.1-1.6,1.5-1.9,2.8-1.7c4.7,0.5,9.5,1.1,14.2,1.8c1.6,0.3,3.3,0.3,4.9,0.4c0.1,1,0.5,1.8,1.5,2.2
		L62.3,14.1z"/>
	<path class="st9" d="M68.1,87.8c-1.6,2.1-3.3,4.2-4.9,6.2c-1.8-1.2-4.3-2.1-3.7-4.7c0.6-2.5,2.9-3.2,5.4-3.1c2,0.1,3.3-0.8,3.6-3
		c0.4-3.3,3.6-5.3,4.1-8.6c0.4,0.1,0.7,0.2,1.1,0.2C72.9,79.7,70.3,83.6,68.1,87.8z"/>
	<path class="st2" d="M57.6,45c-0.3,1.4-1.2,2.5-2.8,2.4c-2.5-0.2-4-2-4.7-4.2c-0.4-1.4,0.5-2.4,2.1-2.5
		C53.7,40.6,57.6,43.6,57.6,45z"/>
	<path class="st9" d="M78.8,51.4c-0.6,4.3-0.3,8.8-1.9,13c-0.3-0.3-0.7-0.6-1-0.8c0.1-1.8-1-3.5,0.5-5.3c0.7-0.8,0.4-2.2-1.3-2.4
		c0-0.5,0-1,0-1.5c1-0.8,1.4-1.9,1.5-3.1c0.4-0.7,1-0.7,1.6-0.8C78.5,50.8,78.7,51.1,78.8,51.4z"/>
	<path class="st12" d="M75.9,63.5c0.3,0.3,0.7,0.6,1,0.8c-0.1,1.3,0.3,2.6-0.6,3.7c-1-0.8-2.6,2.2-3.1-0.4
		C72.8,65.7,73.5,63.9,75.9,63.5z"/>
	<path class="st2" d="M46.1,50.4c-0.1,0.9-0.8,1.5-1.7,1.5c-0.9,0-1.8-0.4-1.7-1.5c0.1-1,1-1.3,1.9-1.3
		C45.5,49.1,46.1,49.4,46.1,50.4z"/>
	<path class="st2" d="M50.7,54.5c0,1-0.6,1.3-1.4,1.3c-0.9,0-1.4-0.4-1.4-1.3c0-0.8,0.2-1.5,1.2-1.5C50,53,50.5,53.6,50.7,54.5z"/>
	<path class="st8" d="M63.6,4c-0.9,0-1.8-0.1-2.3,1c-0.6-0.7-1.1-1.4-1.7-2.2c1.5-0.2,3.1-0.4,4.3-1.6C65,2.5,63.6,3.1,63.6,4z"/>
	<path class="st2" d="M60.7,10.9c0.3-0.5,0.5-1.1,1.3-1c0.1,0,0.2,0.4,0.2,0.6c0,1-0.7,1.1-1.4,1.2C60.7,11.5,60.7,11.2,60.7,10.9z"
		/>
	<path class="st8" d="M61.5,96.3c0,0.2,0.1,0.5,0.2,0.7c-0.3,0-0.5,0-0.8,0.1C61.1,96.8,61.3,96.5,61.5,96.3z"/>
	<path class="st13" d="M83.6,66.5c1.7-0.9,2.2-3,1.2-3.8c-3.6-2.7-2.9-6.6-3.5-10.2c-0.2-0.9-0.7-1.2-1.5-1.4c0-1,0-2,0-2.9
		c2-0.3,4.5,1.4,6.1-1.3c0.2-0.4,1.8-0.3,2.5,0c2.8,1.2,6.1,7.7,5.6,10.8c-0.2,1.5-0.6,3-1.1,5.2c-1.3-2-1-3.4-0.6-4.9
		c0.2-0.7,0.1-1.3-0.8-1.3c-0.6,0-0.9,0.4-1,1c-0.2,1.6-0.6,3.3-0.4,4.9c0.3,2.9-3.2,4.1-2.8,6.9C85.2,69.7,83.9,68.8,83.6,66.5z"/>
	<path class="st14" d="M71.4,16.3c-0.1-1.8,0.7-2.7,2.5-2.1c2.7,1,5.5,2.2,6.8,5c2.3,4.8,5.8,7.5,11.3,7c0.1,1.3,0,2.6-0.7,3.8
		c-0.5,0-1,0-1.5,0c0.4-1.6,0.4-2.7-1.8-2.1c-3,0.9-0.4,2.4-0.4,3.6c-4.1,0.2-4.6,1.6-3.7,5.3c1,4.4,3.6,5.4,7.5,5.3
		c0.8,1,2.3,1.8,0.8,3.8c-0.9-1.5-1.9-2.6-3.8-1.6c-1.3,0.6-2.4-0.1-3.1-1.4c-1.7-3-4.1-5.7-3.9-9.6c0.2-2.9-3.3-4.4-3.5-7.3
		c-0.1-1.5-0.9-2.9-0.9-4.4c-0.1-1.7-0.2-2.9-2.4-3.1C73.1,18.3,72.3,17.1,71.4,16.3z"/>
	<path class="st14" d="M83.6,66.5c0.3,2.2,1.6,3.1,3.8,3c0.1,1.5-0.2,2.9,1.6,4.2c2,1.5,0.5,3.9-3.1,4.9c-1.5-1.8-2.1,0.2-3,0.8
		c-1.3-0.3-2.5-0.5-3.8-0.8c1.4-2.9,0.4-5.9,0.6-8.9C79.8,66.7,81.1,66.2,83.6,66.5z"/>
	<path class="st13" d="M91.1,42.1c-3.8,0.1-6.5-0.9-7.5-5.3c-0.9-3.8-0.3-5.1,3.7-5.3c1.2,0.1,1.5-1,2.3-1.5c0.5,0,1,0,1.5,0
		c0,0.2-0.1,0.7,0,0.7c3.2,1.4,1.3,3.5,0.8,5.4c-1.6,0.6-4.9-0.7-3.5,3.2c1.6-1.1,1.6-1.1,2.8-0.1C91.2,40.1,91.1,41.1,91.1,42.1z"
		/>
	<path class="st14" d="M79.7,84.8c-1.3,0.2-2.5,0.5-3.8,0.7c-0.1-0.1-0.2-0.1-0.3-0.2c0.1,0.1,0.2,0.1,0.3,0.2
		c-1.4,1.5-2.5,3.2-4.1,4.4c-1.5,1.2-1.3-0.9-2-1.4c0-1,0.2-1.9,1.2-2.5c2.7-1.9,5.3-3.9,8-5.8c1.5,0.1,1.5,1.2,1.5,2.3
		C79.6,83.1,79.8,84,79.7,84.8z"/>
	<path class="st4" d="M79.7,84.8c0-0.8-0.1-1.7,0.8-2.3c1.8-0.1,1.3,2.1,2.6,2.5c-0.3,0.7-0.7,1.3-1.5,1.5
		C80.6,86.3,79.8,86,79.7,84.8z"/>
	<path class="st14" d="M91.2,39.1c-1.1-1-1.1-1-2.8,0.1c-1.3-3.9,1.9-2.6,3.5-3.2c0,0.2,0,0.4,0,0.7c0,0.3,0,0.6,0,0.9
		C91.9,38.3,91.8,38.8,91.2,39.1z"/>
	<path class="st7" d="M79.3,46C79.3,46,79.3,45.9,79.3,46c0.6-0.9-0.1-2.6,1.6-2.5c1,0.1,1.3,1.2,1,2.1C81.3,47.2,80.3,46.7,79.3,46
		z"/>
	<path class="st4" d="M82.8,79.5c0.9-0.5,1.5-2.5,3-0.8c-1.3,0.5-0.1,2.7-1.8,2.7C83.1,81.4,82.9,80.4,82.8,79.5z"/>
	<path class="st7" d="M79.7,48.3c0,1,0,2,0,2.9c-0.3,0-0.6,0.1-0.9,0.1c-0.2-0.3-0.4-0.6-0.5-0.9c0.2-1.2,0.5-2.3,0.7-3.5
		C79.3,47.5,79.5,47.9,79.7,48.3z"/>
	<path class="st7" d="M77.1,38.7c0.4-0.2-0.2-1.1,0.7-1.1c0.4,1,2,1.8,0.5,3.1c-0.4-0.4-0.8-0.9-1.2-1.3
		C77.3,39.1,77.3,38.9,77.1,38.7z"/>
	<path class="st8" d="M86.4,83c0.2,1.2-0.3,1.7-1.4,1.6C85.1,83.8,85.7,83.4,86.4,83z"/>
	<path class="st13" d="M91.9,37.7c0-0.3,0-0.6,0-0.9C92.5,37.1,92.5,37.4,91.9,37.7z"/>
	<path class="st8" d="M77.4,90.6c0.3-1.4,1.4-1.2,2.3-1.3c0.5,1.5-1.3,1.9-1.5,3.1C77.5,92,77.5,91.3,77.4,90.6z"/>
	<path class="st1" d="M77.1,38.7c0.2,0.2,0.1,0.5,0,0.7c-0.5-0.1-1-0.1-1.5-0.2c-1.6-0.3-3.9,0.8-4.5-0.8c-0.7-1.8,1.1-3.3,2.5-4.6
		C75.8,34.7,75,37.8,77.1,38.7z"/>
	<path class="st1" d="M76.7,51.3c-0.1,1.2-0.5,2.3-1.5,3.1C73.6,52.3,75,51.7,76.7,51.3z"/>
	<path class="st1" d="M71.2,27.8c0.6,0,1.5-0.2,1.3,0.7c-0.2,0.9-1.2,0.6-1.9,0.7C70.8,28.8,71,28.3,71.2,27.8z"/>
	<path class="st1" d="M72.1,30.8c1,0,1.6,0.5,1.5,1.6C72.7,32.2,72.1,31.7,72.1,30.8z"/>
	<path class="st2" d="M62.2,13.9c0.2-0.3,0.4-0.7,0.7-0.9c0.7-0.5,1.3-1.8,2.5-0.7c0.3,0.3,0.6,1,0.5,1.3c-0.5,1.1-1.4,1.3-2.5,0.9
		c-0.3-0.1-0.7-0.3-1-0.5C62.3,14.1,62.2,13.9,62.2,13.9z"/>
	<path class="st3" d="M89.6,30c-0.8,0.5-1.1,1.7-2.3,1.5c0-1.2-2.6-2.7,0.4-3.6C90,27.2,90,28.4,89.6,30z"/>
	<path class="st3" d="M75.9,85.6c-0.1-0.1-0.2-0.1-0.3-0.2C75.7,85.4,75.8,85.5,75.9,85.6C76,85.5,75.9,85.6,75.9,85.6z"/>
</g>
<g>
	<path class="st15" d="M90.8,126.5H15c-2.2,0-4-1.8-4-4v-23c0-2.2,1.8-4,4-4h75.8c2.2,0,4,1.8,4,4v23
		C94.8,124.7,93,126.5,90.8,126.5z"/>
	<g>
		<path class="st16" d="M31.9,113c-0.1-2-0.1-4.4-0.1-6.8h-0.1c-0.5,2.1-1.2,4.4-1.8,6.4l-2,6.4H25l-1.8-6.4
			c-0.5-1.9-1.1-4.3-1.5-6.4l0,0c-0.1,2.2-0.2,4.8-0.3,6.8l-0.3,6.3h-3.4l1.1-16.5h5l1.6,5.5c0.5,1.9,1,4,1.4,5.9h0.1
			c0.5-1.9,1-4.1,1.6-5.9l1.8-5.5h4.9l0.9,16.5h-3.6L31.9,113z"/>
		<path class="st16" d="M53.7,110.9c0,5.4-3.3,8.7-8.1,8.7c-4.9,0-7.7-3.7-7.7-8.4c0-4.9,3.2-8.6,8-8.6
			C51,102.6,53.7,106.3,53.7,110.9z M41.8,111.1c0,3.2,1.5,5.5,4,5.5s4-2.4,4-5.6c0-3-1.4-5.5-4-5.5
			C43.3,105.5,41.8,107.9,41.8,111.1z"/>
		<path class="st16" d="M71.2,110.9c0,5.4-3.3,8.7-8.1,8.7c-4.9,0-7.7-3.7-7.7-8.4c0-4.9,3.2-8.6,8-8.6
			C68.5,102.6,71.2,106.3,71.2,110.9z M59.3,111.1c0,3.2,1.5,5.5,4,5.5c2.5,0,4-2.4,4-5.6c0-3-1.4-5.5-4-5.5
			C60.8,105.5,59.3,107.9,59.3,111.1z"/>
		<path class="st16" d="M73.7,119.3v-16.5H78l3.4,6c1,1.7,2,3.8,2.7,5.6h0.1c-0.2-2.2-0.3-4.4-0.3-6.9v-4.8h3.4v16.5h-3.9l-3.5-6.4
			c-1-1.8-2.1-3.9-2.9-5.8h-0.1c0.1,2.2,0.1,4.5,0.1,7.2v5h-3.3V119.3z"/>
	</g>
</g>
</svg>
