<?xml version="1.0" encoding="utf-8"?>
<!-- Generator: Adobe Illustrator 25.0.0, SVG Export Plug-In . SVG Version: 6.00 Build 0)  -->
<svg version="1.1" id="Layer_1" xmlns="http://www.w3.org/2000/svg" xmlns:xlink="http://www.w3.org/1999/xlink" x="0px" y="0px"
	 width="105.5px" height="129px" viewBox="0 0 105.5 129" style="enable-background:new 0 0 105.5 129;" xml:space="preserve">
<style type="text/css">
	.st0{fill:#FCFCFC;}
	.st1{fill:#4B5D65;}
	.st2{fill:#2D3C44;}
	.st3{fill:#F2F5F4;}
	.st4{fill:#EBEDEE;}
	.st5{fill:#252D32;}
	.st6{fill:#D0D7D8;}
	.st7{fill:#A5B0B2;}
	.st8{fill:#DDE2E3;}
	.st9{fill:#E5E8EA;}
	.st10{fill:#B7C0C4;}
	.st11{fill:#495C64;}
	.st12{fill:#F8F4EC;}
	.st13{fill:#F7F4EC;}
	.st14{fill:#E9E0DB;}
	.st15{fill:#48A6DD;}
	.st16{fill:#FFFFFF;}
</style>
<g>
	<path class="st0" d="M53.3,110.7c-0.2-1.8,0.4-2.9,2.5-2.8c1.1,0.1,2.4-0.3,1.8-1.6c-0.8-1.7-1.2-4.4-4.3-3.7
		c-0.7-5.2-2.9-1.2-4.6-0.8c-2,0.7-4.2,0.9-6.3,0.8c-0.8,0-1.6,0-1.8,1c-0.1,0.7,0.3,1.6,0.7,1.5c3.1-0.5,4.6,3.2,7.6,2.8"/>
	<path class="st0" d="M104.6,48.5c0-1.1,0.1-2.3-1.5-2.5c1.5-5.2-2.2-9.2-3.5-13.6c-0.5-1.7-2.6-3.2-2.9-5.7
		c-0.1-1.1-1.5-1.1-2.5-1.1c-1.5-1.1-1.7-3.4-3.6-4c-0.4-2.8-0.5-5.9-4.8-5c-0.3-1.5,1.1-1.5,1.9-2c-1.2-0.4-2.2,0.1-3.3,0.3
		c-0.4-3.2-4.1-2.9-5.4-5.1c-0.2-0.9,0.6-2.4-0.7-2.5c-1.2-0.2-0.6,1.3-0.8,2c-2.4-1.2-4.4-3.6-7.5-2.5C70,6,70.2,5.3,70.4,4.2
		c-0.2,0-0.4,0-0.6,0c-3,2.2-5.2,0.2-7.5-1.2c0.2,0,0.4,0,0.6-0.1c-2.9-0.8-5.8-1.7-8.7-2.5c0,0-0.1,0-0.1,0
		c-0.7,0.3-1.5,0.4-2.4,0.4c-2.4-0.1-4.7-0.7-7-0.6c-0.2,0.3-0.3,0.8-0.4,1.4l-5.3,0c-1.2,0.5-2.4,1-3.6,1.4c-1.4,0.5-2.7,1-4,1.6
		c0,0.2,0.1,0.5,0.1,0.7c0.2,0.4,0.4,0.9,0.6,1.3c-1.7,0.1-3.5,0.2-5.2,0.2c-1.7,1-3.3,2.3-4.6,3.9c-0.1,0.1-0.2,0.2-0.2,0.3
		c0.5,0.2,1.2,0.5,1.5,0.8c0.2,0.3,0.2,0.7,0.3,1c-0.2,0.3-0.5,0.6-0.7,0.9c-0.9-0.2-1.3,0.2-1.9,0.8C14.5,20.8,9.6,28.2,6.6,37
		c0,0.2-0.1,0.5-0.1,0.7c-0.3,1-0.6,2-0.9,3c-0.3,2.4-0.5,4.8-0.8,7.2c-1.3,2-1.3,4,0,6.1c0.2,4.2,0.6,8.3,2,12.4
		c0,0.9,0.6,1.4,1.1,1.9c0.6,3.8,3.1,6.8,4.6,10.2c-0.9,0.7-1.4,1.4-1.6,2.3c1.5,0.4,2.6,1.5,3.2,2.7c1,0.6,1.7,1.5,2.1,2.5
		c0.8,0,1.6,0,2.4,0c2.7,2.2,4.9,4.9,8.3,6.2c-0.1,0.9-0.5,1.3-1.4,1.4c-0.9,0.1-2,0.3-1.9,1.4c0.1,1.2,1.4,0.9,2.1,0.8
		c2.8-0.3,5.7-0.8,5.8,3.4c0,0.3,0.6,1,0.9,1c3.5-0.3,7.2,1.6,10.3-1.3c3.2,0.7,6.5,2,9.4-0.7c0.2-0.3,0.4-0.5,0.5-0.8
		c0.2,0.4,0.4,0.8,0.6,1.3c5.1,2.2,10.6,1.2,15.9,2.3c1.2,0.2,1.5-1.5,1.5-2.6c-0.1-1.7,0.7-2.2,2.3-2.6c1.2-0.3,2.8-0.2,3.8-1.3
		c0.4,0,0.9,0,1.3,0C78.4,95,79,95,79.6,95c6.2-0.8,7.8-2.8,6-7.6c0-0.5,0.1-0.9,0.1-1.4c5.1-0.1,5.3-0.3,3.7-4
		c0.1-0.4,0.3-0.9,0.4-1.3c3.3,0,3.5-2.6,4.1-4.9c0,0,0,0,0,0c0.9-0.4,2-0.2,2.6-1.1c0.4-1.6,6-1.5,1.4-4.6
		c-0.3-1.7-0.5-3.4,1.9-3.8c1.2,0.2,1.6,0.9,1.7,2.1c0,1.1-0.2,2.5,1.5,2.4c1.7,0,1.5-1.4,1.5-2.5C104.6,61.7,104.6,55.1,104.6,48.5
		z"/>
	<path class="st0" d="M70.6,104.9c0.1-1.5-0.4-2.4-2.1-2.3c-1.7,0.1-3.5,0.1-5.2,0c-1.6,0-3.5,0.4-3.5,1.9c0,1.9,2.1,0.7,3.3,1.1
		c0.1,3.8,3,1.9,4.8,2.2C70,108.2,70.8,106.9,70.6,104.9z"/>
	<path class="st0" d="M82,8.1c-0.2-0.4-0.3-0.9-0.5-0.9c-0.6-0.2-0.9,0.3-0.8,0.8c0,0.3,0.3,0.6,0.6,0.7C81.4,8.7,81.7,8.3,82,8.1z"
		/>
	<path class="st0" d="M95.3,77.6c0.2,0.1,0.3,0.3,0.5,0.4c0,0,0.2-0.2,0.2-0.2c-0.1-0.2-0.2-0.3-0.3-0.5
		C95.6,77.3,95.5,77.5,95.3,77.6z"/>
	<path class="st1" d="M5.6,40.7c0.3-1,0.6-2,0.9-3c0.1-0.1,0.3-0.1,0.3-0.2c0-0.2-0.1-0.4-0.2-0.5c3-8.7,7.9-16.2,14.6-22.5
		c0.6-0.6,1.1-1,1.9-0.8c0.2,3.2,2,2.4,3.5,1.2c2-1.6,4-2.9,6.7-3.1c0.9-0.1,2.1-1,2.4,0.6c0.3,1.2-0.7,1.7-1.7,2.2
		c-2.6,1.2-5.2,2.4-7.8,3.6c-1,0.5-3.5,6.6-2.8,7.5c1.8,2.2,3-0.6,4.5-0.7c1.5-0.1,1.9-0.7,1.6-2.2c-0.5-2.4,1.3-3.3,3.2-3.8
		c1.2-0.4,2.5-0.4,3.6-0.8c7.9-3.1,11.6-1.3,14,6.7c0.3,1,0.9,1.4,1.9,1.6c0.4,1,0.5,2.1,0.1,3.1c-0.7,0-1.3,0-2,0
		c-2.7-0.1-4.3,1.7-6,3.4c-1.1,1.1-1.1,2.5,0.4,3.1c2,0.7,3.4,1.8,2.1,3.8c-1.3,2-3.3,3.7-5.9,2.5c-1.9-0.9-3.9-0.9-5.8-1.1
		c-2.3-0.2-5,0.4-5.7,3.2c-0.9,3.9-0.6,8,1.9,11.2c1.9,2.5,4.9,4,5.1,7.7c0.1,1,1.4,2,2.2,3c0.4,0.5,0.9,0.9,1.6,0.6
		c0.6-0.3,1-0.9,0.9-1.5c-0.2-0.9-0.6-1.9-1.2-2.7c-0.6-1-1.4-2-0.3-3c1.3-1.2,2.5,0.1,2.7,0.9c0.9,3.2,6.6,5.1,2.9,9.8
		c-0.3,0.4,0,1.4,0.3,2.1c0.4,1.3,3.4,2.3,0.7,3.8c-1.6,0.9-2.7,3.3-4.2,2.9c-3.5-1-5.3,1-7.6,2.8c-1.3,1-4,0.3-3.3-1
		c1.5-2.7,1.3-4.9,0-7.4c-0.1-0.3,0.6-1.1,1-1.5c0.5-0.5,1.2-0.9,1.7-1.4c0.7-0.7,1.8-1.4,0.9-2.5c-1-1.3-2.1-0.2-3,0.3
		c-1,0.7-1.5,1.8-3,2.1c-2,0.4-2.4,1.8-0.8,3.2c1,0.9,1.6,1.7,1,2.9c-1,1.9-2.8,3-5,2.6c-2.7-0.5-3.8-2.9-4.4-5.1
		c-0.5-2,1.2-3.1,3.3-3.2c1.2,0,2.4-0.4,2.4-1.8c-0.1-1.5-0.7-3-2.5-3.3c-1.2-0.2-2.5-0.2-3.8,0c-3.7,0.6-5.7-1.4-6.9-4.4
		c-2.2-5.4-4.7-10.8-4.1-17C8.1,42.6,8.4,40.5,5.6,40.7z"/>
	<path class="st2" d="M5.6,40.7c2.8-0.2,2.6,1.9,2.4,3.6c-0.7,6.2,1.9,11.6,4.1,17c1.2,3,3.2,5,6.9,4.4c1.2-0.2,2.5-0.2,3.8,0
		c1.8,0.3,2.4,1.8,2.5,3.3c0.1,1.4-1.1,1.8-2.4,1.8c-2.1,0.1-3.8,1.1-3.3,3.2c0.5,2.2,1.6,4.6,4.4,5.1c2.2,0.4,3.9-0.7,5-2.6
		c0.6-1.2,0-2-1-2.9c-1.6-1.4-1.2-2.9,0.8-3.2c1.5-0.3,2-1.4,3-2.1c0.9-0.6,1.9-1.6,3-0.3c0.9,1.1-0.2,1.8-0.9,2.5
		c-0.5,0.5-1.2,0.9-1.7,1.4c-0.4,0.4-1.1,1.2-1,1.5c1.3,2.5,1.5,4.6,0,7.4c-0.7,1.2,2.1,2,3.3,1c2.3-1.8,4.1-3.7,7.6-2.8
		c1.5,0.4,2.6-2,4.2-2.9c2.7-1.5-0.3-2.5-0.7-3.8c-0.2-0.7-0.6-1.7-0.3-2.1c3.7-4.6-2-6.5-2.9-9.8c-0.2-0.8-1.4-2.1-2.7-0.9
		c-1.1,1-0.4,2,0.3,3c0.5,0.8,0.9,1.8,1.2,2.7c0.2,0.6-0.3,1.2-0.9,1.5c-0.7,0.3-1.2,0-1.6-0.6c-0.8-1-2.1-2-2.2-3
		c-0.2-3.7-3.2-5.2-5.1-7.7c-2.4-3.1-2.8-7.3-1.9-11.2c0.6-2.9,3.4-3.4,5.7-3.2c1.9,0.1,3.9,0.2,5.8,1.1c2.6,1.2,4.7-0.6,5.9-2.5
		c1.3-2-0.2-3.1-2.1-3.8c-1.5-0.6-1.5-2-0.4-3.1c1.7-1.6,3.3-3.4,6-3.4c0,3.2,0,6.4,0,9.6c0,1.4,0.1,2.5,1.9,2.4
		c0.4,1.5,0.2,3-0.1,4.6c-2.6,1.5-2.6,6.1,0,8.3c0,0.5,0,1,0,1.6c-1.7,1.1-1.8,2.9-1.8,4.6c0,11.6,0,23.1,0,34.7
		c0,1.4-0.2,2.9,1.9,3c-3,2.7-6.2,1.4-9.4,0.7c-0.7-0.6-1.3-1.4-2.3-0.7c-1.7-0.5-3.5-1-5.2-1.5c-2.4-2.1-5.6-2.9-8.3-4.4
		c-3.4-1.2-5.6-4-8.3-6.2c-1.4-3.1-3.8-5.3-6.2-7.5c-1.6-3.4-4.1-6.4-4.6-10.2c0.3-1,0.1-1.7-1.1-1.9c-1.3-4-1.8-8.2-2-12.4
		c0.4-2,0.3-4.1,0-6.1C5.1,45.5,5.3,43.1,5.6,40.7z M45.3,49.9c-0.9,0.1-1.6,0.6-1.7,1.6c-0.1,1,0.6,1.3,1.4,1.2
		c1.1,0,2-0.4,1.9-1.7C46.9,50.3,46.1,49.9,45.3,49.9z"/>
	<path class="st3" d="M52.1,46c0.3-1.5,0.4-3,0.1-4.6c0.5-4,0.3-8,0.1-12c0.5-1.1,0.4-2.1-0.1-3.1C52.5,22,53,17.7,52,13.5
		c0,0,0.2-0.2,0.2-0.2L52.1,13c0-0.4,0.1-0.7,0.1-1.1c0.1-2.5,0.1-5,0.2-7.5c2-0.1,4-0.1,6-0.2c1.2,0.4,2.9-0.4,3.2,1.7
		c-1.6,0.2-3.3,0.1-3.8,2.2C57.3,10,57.3,8.6,57,8c-0.6-1.4-1.1-0.5-1.3,0.2c-0.2,1-0.1,2-0.2,3c-0.8,2.6-2,5.3,0.7,7.6
		c2.8,1.8,1,4.6,1.6,6.8l0,0c-2,0.2-1.4,1.8-1.5,3c-1.3,3.6-1.7,7.2,0.8,10.6c0,1,0,2,0,3c-1.8-0.1-2.4,0.8-2.3,2.5
		c0.1,1.6-0.4,3.5,1.1,4.5c1.4,1,1.1-2,2.6-1.7c0.2,0,0.5-0.4,0.8-0.7c2.2,0.8,0.8,2.6,0.4,3.3c-2.5,3.8,0.6,8.1-1.1,11.9
		c-0.1,0.3,0.5,1.1,0.9,1.5c1.8,1.8,1.6,3.8,0.6,5.8c-1.8,4-1.5,8.3-0.4,12c0.8,2.7,0.3,3.5-1.5,4.6c-2,1.3-1.1,3-0.8,4.6
		c0.3,1.9,1.5,2.5,3.3,2.2c3.8-0.6,7.5,0.8,11.5-2.2c2.5-1.9,4.1-2.5,3.2-5.6c-0.2-0.7,0.6-1.1,0.7-1.6c0.3-2.5,3.7-3,3.7-3.5
		c0.6-5.4,4.3-4.5,7.7-4.2c0.9,0.1,1.8,0.5,2.3-0.6c1.1-2.7,3.7-4.8,3.4-8.1c1.4-0.1,2.1-2,3.7-1.5c-0.2,1.8-0.5,3.5-0.7,5.3
		c0,0,0,0,0,0c-2.2,1-2.1,3-2.3,5c0,0,0,0,0,0c-2.4,0.7-3.2,2.9-4.1,4.9c-0.1,0.4-0.3,0.9-0.4,1.3c-0.4,2.2-3.5,1.7-3.8,4
		c0,0,0,0,0,0c-1.5,0.1-2.8,0.5-3.1,2.3l0,0c-1.1-0.1-1.8,0.6-2.4,1.4c-0.8,1.9-2.9,1.3-4.3,2.2c-6.8,4.8-14.9,5.4-22.8,6.7
		c-0.2-0.4-0.4-0.8-0.6-1.3c-0.1-1.2-0.2-2.5-0.3-3.7c-0.2-12.6,0.4-25.2-0.3-37.8c0-0.5,0-1,0-1.6C52.6,51.5,52.7,48.8,52.1,46z"/>
	<path class="st2" d="M52,13.5c1,4.3,0.5,8.6,0.3,12.8c-0.9-0.2-1.6-0.7-1.9-1.6c-2.3-8-6-9.7-14-6.7c-1.1,0.4-2.5,0.5-3.6,0.8
		c-1.9,0.6-3.6,1.4-3.2,3.8c0.3,1.5-0.1,2.2-1.6,2.2c-1.6,0.1-2.8,2.9-4.5,0.7c-0.7-0.9,1.8-7,2.8-7.5c2.6-1.2,5.2-2.4,7.8-3.6
		c0.9-0.4,2-1,1.7-2.2c-0.4-1.5-1.5-0.6-2.4-0.6c-2.7,0.2-4.7,1.5-6.7,3.1c-1.5,1.2-3.3,2-3.5-1.2c0.2-0.3,0.5-0.6,0.7-0.9
		c3.3-2,6.6-4,9.9-6c4.5-0.9,8.8-2.7,13.5-3c2.9,1.7,3.5,4.4,3,7.5c-1.3-0.2-2.8,0.3-4-0.7c-1.7-1.4-3.3-0.7-4.8,0.2
		c-1,0.6-2.8,0.8-2,2.5c0.8,1.7,2.4,2.3,4.1,1.2c1.7-1.2,3.5-1.2,5.3-0.6C50,14.4,51,13.9,52,13.5L52,13.5z"/>
	<path class="st3" d="M49,107.9c-3,0.4-4.5-3.3-7.6-2.8c-0.4,0.1-0.9-0.9-0.7-1.5c0.2-1,1-1,1.8-1c2.2,0.1,4.3-0.1,6.3-0.8
		c1.3,1.4,3,0.5,4.6,0.8c3.1-0.7,3.5,2,4.3,3.7c0.6,1.3-0.8,1.6-1.8,1.6c-2.1-0.1-2.6,1-2.5,2.8"/>
	<path class="st4" d="M94.1,25.6c1,0,2.4,0,2.5,1.1c0.3,2.4,2.4,4,2.9,5.7c1.4,4.4,5,8.5,3.5,13.6c0,0,0,0,0,0c-0.5,0-1,0-1.5,0
		c-0.5-3.4-1.3-6.7-3.7-9.4c0.5,2.9,1,5.7,1.5,8.6c-0.7,0.3-0.9,0.9-0.9,1.6c-0.5-0.2-1-0.5-1.5-0.7c-2.1-1.4-2.5-3.5-2.3-5.9
		c0.1-1.7,0.3-3.7-2.2-3.9l0,0c0-0.8,0-1.5,0-2.3c0-0.2,0-0.5,0-0.7c2.5-1.3,2.8-2.2,1.7-2.4c-3-0.7-1.7-2.7-1.7-4.3
		C93.2,26.4,93.9,26.4,94.1,25.6z"/>
	<path class="st5" d="M52.1,55.8c0.7,12.6,0.2,25.2,0.3,37.8c0,1.2,0.2,2.5,0.3,3.7c-0.2,0.3-0.4,0.5-0.5,0.8
		c-2.1-0.1-1.9-1.6-1.9-3c0-11.6,0-23.1,0-34.7C50.3,58.7,50.4,56.9,52.1,55.8z"/>
	<path class="st6" d="M53.3,98.6c7.9-1.3,15.9-1.9,22.8-6.7c1.4-1,3.5-0.3,4.3-2.2c0.1,0.4,0.1,0.7,0.2,1.1c0.9,1.7-1.2,2.7-0.9,4.3
		c-0.6,0-1.2,0-1.6-0.7c-0.4-0.9-0.9-0.8-1.3,0c-1,1.1-2.5,1-3.8,1.3c-1.6,0.4-2.4,0.9-2.3,2.6c0.1,1.1-0.2,2.8-1.5,2.6
		C63.9,99.9,58.4,100.8,53.3,98.6z"/>
	<path class="st6" d="M69.8,4.2c-3,2.2-5.2,0.2-7.5-1.2c0-0.1,0-0.2,0-0.2c-2.7-0.7-5.4-1.6-8.1-2.3c0,0-0.1,0-0.1,0
		c-0.7,0.3-1.5,0.4-2.4,0.4c-0.4,0-0.9-0.1-1.3-0.1c0,0,0,0.1,0,0.1C50.5,1,50.8,1.2,51,1.5c2.1,0.2,4.2,0.6,6.3,0.7
		c2,0,1.5,1.1,1.2,2.2c1.2,0.4,2.9-0.4,3.2,1.7c2.8-0.5,5.5,0.9,8.2,0.8C70,6,70.2,5.3,70.4,4.2C70.2,4.2,70,4.2,69.8,4.2z"/>
	<path class="st7" d="M99.5,45.1c-0.5-2.9-1-5.7-1.5-8.6c2.5,2.8,3.2,6.1,3.7,9.4c-1.5,6.3-0.5,12.6-0.5,19c-0.8,0.1-1,0.7-1.2,1.3
		c-2.4,0.4-2.2,2.1-1.9,3.8c-0.6,0.3-1.2,0.5-1.7,0.8c0.2-1.8,0.5-3.5,0.7-5.3C100.2,59.1,100.4,52.2,99.5,45.1z"/>
	<path class="st8" d="M26.9,92.2c2.8,1.5,5.9,2.3,8.3,4.4c-0.2,1.9,0.9,2.7,2.5,3c1.1,0.2,2.6,0.6,2.7-1.4c1.1-0.7,1.7,0.1,2.3,0.7
		c-3.1,2.9-6.8,1.1-10.3,1.3c-0.3,0-0.9-0.6-0.9-1c-0.2-4.3-3-3.7-5.8-3.4c-0.8,0.1-2,0.4-2.1-0.8c-0.1-1,1-1.3,1.9-1.4
		C26.3,93.5,26.8,93,26.9,92.2z"/>
	<path class="st4" d="M100,66.3c0.2-0.7,0.4-1.2,1.2-1.3c2.7,1.1,1.9-1.1,1.9-2.2c0.1-5.6,0-11.2,0-16.8c0,0,0,0,0,0
		c1.6,0.2,1.5,1.4,1.5,2.5c0,6.6,0,13.2,0,19.8c0,1.1,0.2,2.4-1.5,2.5c-1.7,0-1.5-1.3-1.5-2.4C101.6,67.2,101.2,66.5,100,66.3z"/>
	<path class="st8" d="M45,1.5c0,0-0.4,0-0.4,0s-0.4,0-0.4,0c-1.8,0-3.5,0-5.3,0c-0.8,0.3-1.5,0.6-2.3,0.9c-0.2,3.1-2.8,2.8-5.3,2.8
		c0.2,0.4,0.4,0.9,0.6,1.3c0.6,0.1,1.2,0.2,1.8,0.3c4.5-0.9,8.8-2.7,13.5-3c1-0.1,2-0.2,3-0.3c0.2-0.5,0.4-0.9,0.6-1.4
		C48.9,2,46.8,3,45,1.5z"/>
	<path class="st6" d="M26.8,6.7c-1.7,1-3.3,2.3-4.6,3.9c-0.1,0.1-0.2,0.2-0.2,0.3c0.5,0.2,1.2,0.5,1.5,0.8c0.2,0.3,0.2,0.7,0.3,1
		c3.3-2,6.6-4,9.9-6c-0.6-0.1-1.2-0.2-1.8-0.3C30.3,6.6,28.5,6.7,26.8,6.7z"/>
	<path class="st8" d="M12.4,78.5c-0.9,0.7-1.4,1.4-1.6,2.3c1.5,0.4,2.6,1.5,3.2,2.7c1,0.6,1.7,1.5,2.1,2.5c0.8,0,1.6,0,2.4,0
		C17.2,82.9,14.8,80.7,12.4,78.5z"/>
	<path class="st3" d="M79.6,95c-0.3-1.5,1.7-2.6,0.9-4.3c1.4-0.2,2.3-0.9,2.2-2.5c0,0,0,0,0,0c1.1,0.1,2.1-0.3,2.9-0.9
		C87.4,92.2,85.9,94.2,79.6,95z"/>
	<path class="st7" d="M78.9,9.8c1.3,2.3,5,2,5.4,5.1l-0.3,0.3c-4.7-2.8-9.4-5.6-14.1-8.5c0,0,0,0,0,0c3.2-1.1,5.1,1.3,7.5,2.5
		C77.9,9.5,78.4,9.6,78.9,9.8z"/>
	<path class="st3" d="M63.1,105.6c-1.2-0.4-3.3,0.8-3.3-1.1c0-1.6,1.9-2,3.5-1.9c1.7,0.1,3.5,0.1,5.2,0c1.7-0.1,2.2,0.8,2.1,2.3
		C68.1,104.5,65.6,105.3,63.1,105.6z"/>
	<path class="st8" d="M63.1,105.6c2.5-0.4,5-1.1,7.5-0.7c0.2,2-0.7,3.3-2.7,2.9C66.2,107.6,63.3,109.4,63.1,105.6z"/>
	<path class="st6" d="M35.3,3c-1.4,0.5-2.7,1-4,1.6c0,0.2,0.1,0.5,0.1,0.7c2.4,0,5,0.3,5.3-2.8C36.2,2.6,35.7,2.8,35.3,3z"/>
	<path class="st7" d="M85.7,16.6c4.3-0.9,4.4,2.2,4.8,5c-0.1,0.1-0.2,0.2-0.3,0.3C88,20.7,86.3,19.1,85.7,16.6L85.7,16.6z"/>
	<path class="st3" d="M44.6,0.1c-0.2,0.3-0.3,0.8-0.4,1.4c0,0,0.4,0,0.4,0l0.4,0c1.9,0.2,3.6-0.3,5.3-0.8c0,0,0-0.1,0-0.1
		C48.4,0.4,46.5,0.1,44.6,0.1z"/>
	<path class="st9" d="M96.3,70.9c0.6-0.3,1.2-0.5,1.7-0.8c4.6,3.1-1,3.1-1.4,4.6C96.5,73.4,96.4,72.2,96.3,70.9
		C96.3,70.9,96.3,70.9,96.3,70.9z"/>
	<path class="st7" d="M94.1,25.6c-0.3,0.8-0.9,0.8-1.6,0.8c-1.8-1-2-2.8-2.3-4.5c0.1-0.1,0.2-0.2,0.3-0.3
		C92.5,22.2,92.6,24.5,94.1,25.6z"/>
	<path class="st10" d="M85.7,86c0.3-2.3,3.4-1.8,3.8-4C91.1,85.7,90.9,85.9,85.7,86z"/>
	<path class="st10" d="M89.9,80.8c0.9-2,1.7-4.2,4.1-4.9C93.5,78.1,93.2,80.7,89.9,80.8z"/>
	<path class="st9" d="M53.3,102.6c-1.5-0.3-3.2,0.6-4.6-0.8C50.4,101.4,52.6,97.4,53.3,102.6z"/>
	<path class="st7" d="M96.3,70.9c0.1,1.3,0.2,2.6,0.3,3.9c-0.6,1-1.7,0.7-2.6,1.1C94.2,73.9,94.1,71.9,96.3,70.9z"/>
	<path class="st1" d="M4.8,47.9c0.3,2,0.3,4.1,0,6.1C3.5,51.9,3.5,49.9,4.8,47.9z"/>
	<path class="st7" d="M84.3,14.9c1.1-0.2,2.1-0.8,3.3-0.3c-0.8,0.4-2.2,0.4-1.9,2c0,0,0,0,0,0c-1,0.1-1.6-0.3-1.7-1.3L84.3,14.9z"/>
	<path class="st10" d="M85.7,87.4c-0.9,0.6-1.8,1-2.9,0.9c0.3-1.8,1.5-2.2,3.1-2.3C85.7,86.5,85.7,86.9,85.7,87.4z"/>
	<path class="st9" d="M78.9,9.8c-0.5-0.2-1-0.3-1.5-0.5c0.2-0.7-0.4-2.2,0.8-2C79.5,7.4,78.8,8.9,78.9,9.8z"/>
	<path class="st9" d="M82,8.1c-0.3,0.2-0.6,0.6-0.8,0.5c-0.2-0.1-0.5-0.4-0.6-0.7c0-0.5,0.3-0.9,0.8-0.8C81.7,7.2,81.8,7.7,82,8.1z"
		/>
	<path class="st1" d="M6.7,66.3c1.1,0.2,1.4,0.9,1.1,1.9C7.3,67.7,6.7,67.2,6.7,66.3z"/>
	<path class="st10" d="M95.3,77.6c0.1-0.1,0.3-0.2,0.4-0.4c0.1,0.2,0.3,0.3,0.3,0.5c0,0-0.2,0.2-0.2,0.2
		C95.7,77.8,95.5,77.7,95.3,77.6z"/>
	<path class="st3" d="M76.8,94.3c0.4-0.8,0.9-0.9,1.3,0C77.6,94.3,77.2,94.3,76.8,94.3z"/>
	<path class="st2" d="M6.6,37c0.1,0.2,0.2,0.4,0.2,0.5c0,0-0.2,0.1-0.3,0.2C6.5,37.5,6.6,37.2,6.6,37z"/>
	<path class="st5" d="M52.3,29.5c0.2,4,0.3,8-0.1,12c-1.8,0.1-1.9-1-1.9-2.4c0.1-3.2,0-6.4,0-9.6C51,29.5,51.6,29.5,52.3,29.5z"/>
	<path class="st5" d="M52.1,46c0.6,2.8,0.5,5.5,0,8.3C49.5,52.1,49.5,47.6,52.1,46z"/>
	<path class="st0" d="M40.4,98.1c-0.1,2-1.6,1.6-2.7,1.4c-1.6-0.2-2.7-1.1-2.5-3C36.9,97.1,38.7,97.6,40.4,98.1z"/>
	<path class="st11" d="M45.3,49.9c0.8,0,1.6,0.4,1.7,1.2c0.1,1.3-0.8,1.7-1.9,1.7c-0.8,0-1.5-0.3-1.4-1.2
		C43.7,50.5,44.4,50,45.3,49.9z"/>
	<path class="st12" d="M93.4,67.1c0.3,3.3-2.3,5.4-3.4,8.1c-0.4,1-1.4,0.6-2.3,0.6c-3.4-0.4-7.1-1.3-7.7,4.2
		c-0.1,0.5-3.5,1.1-3.7,3.5c-0.1,0.5-0.9,0.9-0.7,1.6c0.8,3.1-0.8,3.8-3.2,5.6c-4,3-7.7,1.6-11.5,2.2c-1.7,0.3-2.9-0.3-3.3-2.2
		c-0.3-1.7-1.2-3.4,0.8-4.6c1.8-1.1,2.3-2,1.5-4.6c-1.1-3.7-1.4-8.1,0.4-12c0.9-2.1,1.2-4-0.6-5.8c-0.4-0.4-1.1-1.2-0.9-1.5
		c1.6-3.8-1.4-8.1,1.1-11.9c0.4-0.7,1.8-2.5-0.4-3.3c-1.9-0.9-1-3.3-2.3-4.6c0-1,0-2,0-3c2.7-0.1,4.1,2.6,6.7,2.8
		c0.5,0,0.9,1,0.6,1.6c-1.4,2.9,0.5,5.3,1,7.9c0.4,2.2,0.6,4.9,4.1,4.5c0.9-0.1,1.2,0.9,1.1,1.7c-0.2,2.2,0.9,2.9,2.9,2.7
		c2-0.2,2.4-1.4,2.4-3.1c0-1.8,0-3.7,2.6-3.6c2.4,0.1,3.4,2,3.3,3.8c-0.2,4,2.2,5.8,5.5,7.6c-1.8,0.7-2.8,1.7-2.3,3.4
		c0.2,0.8,0.6,1.5,1.4,1.6c1.8,0.2,1.9-1.6,2.9-2.5c1.5-1.4,1.3-3.8,3.2-4.8C95.7,63.6,93.1,65.6,93.4,67.1z M77.5,70.2
		c1.7,0.2,3.2-0.1,3.1-2.7c-0.1-2.1-0.6-4-3-4c-2.3,0-4.1,2-4.3,3.9C72.9,69.8,75.2,70.2,77.5,70.2z"/>
	<path class="st13" d="M84.1,15.2c0.1,1,0.7,1.4,1.7,1.3c0.5,2.6,2.2,4.2,4.4,5.4c0.3,1.7,0.5,3.6,2.3,4.5c0,1.6-1.3,3.6,1.7,4.3
		c1.1,0.3,0.8,1.1-1.7,2.4c-1.9,0.3-3.2-2.2-5.4-1c-1.9,1.1-3.5,2.5-2.9,5c0.6,2.6,0.8,5.5,3.7,6.9c1.6,0.8,2.4-0.1,2.8-1.4
		c0.7-2.1,1.2-4.3,1.8-6.5c2.6,0.2,2.4,2.2,2.2,3.9c-0.2,2.4,0.2,4.4,2.3,5.9c-0.7,5.2-2.7,0.5-4.1,0.4c-0.7,1.1-0.3,2.3-0.4,3.4
		c-1.1-0.5-2.5-0.7-3.4-1.4c-1.7-1.6-2.6-1-3.7,0.6c-0.6,0.9-0.9,2.8-2.6,1.8c-1.4-0.8-1.3-2.6-0.5-3.7c1.1-1.6,1-2.7-0.6-3.7
		c-1-0.6-1.2-1.4-1.4-2.5c-0.8-3.4-2.1-4-5.1-2.3c-1,0.6-1.6,0.3-2.3-0.4c-0.7-0.7-1.1-1.5,0.2-2c1.3-0.5,1.1-1.4,0.4-2
		c-2.9-2.8-2.7-8.8-9.1-8c-1.4,0.2-3.1-3.3-5-0.1c-0.1,0.2-1.1-0.2-1.8-0.4c-0.5-2.3,1.2-5.1-1.6-6.8c0.3-0.7,0.5-1.5,0.8-2.2
		c3.1-0.9,6.1,0.3,9.2,0c1.1-0.1,2-0.3,2.1-1.6c0.1-1.2-0.2-2.2-1.4-2.8c-4.1-1.8-7.2-0.9-9.9,2.9c-0.3-1.4,0.8-3.3-1.5-3.9
		c0-1,0-2,0.2-3C55.9,7.5,56.5,6.7,57,8c0.3,0.6,0.3,2,0.8,0.1c0.6-2.1,2.2-2.1,3.8-2.2c2.8-0.5,5.5,0.9,8.3,0.8
		C74.6,9.6,79.4,12.4,84.1,15.2z M75.8,26.7c-1-1.5-1.6-3.6-4-3.8c-1.1-0.1-1.2,0.7-1.2,1.5c0.1,2.1,1,3.6,3,4.1
		C74.8,28.8,75.6,28.1,75.8,26.7z"/>
	<path class="st14" d="M57.8,25.6c0.6,0.1,1.7,0.5,1.8,0.4c1.9-3.2,3.6,0.3,5,0.1c6.4-0.8,6.2,5.2,9.1,8c0.6,0.6,0.9,1.6-0.4,2
		c-1.3,0.5-0.9,1.3-0.2,2c0.6,0.7,1.2,1,2.3,0.4c2.9-1.7,4.3-1.1,5.1,2.3c0.2,1,0.4,1.9,1.4,2.5c1.6,1,1.7,2.1,0.6,3.7
		c-0.8,1.1-0.9,2.9,0.5,3.7c1.7,1,2-0.9,2.6-1.8c1.1-1.6,2-2.2,3.7-0.6c0.9,0.8,2.2,1,3.4,1.4c-0.8,2.6,2.1,3.8,2.3,6.1
		c-1.2,0.6-0.2,3-2.3,3c-0.1-0.8,0.3-1.6-0.8-2.8c0.4,1.9-1.9,2.6-1.2,4.2c0.3,0.7,1.3-0.1,2,0c0,0.8,0,1.5,0,2.3
		c-2,1-1.8,3.5-3.2,4.8c-0.9,0.9-1.1,2.7-2.9,2.5c-0.8-0.1-1.2-0.8-1.4-1.6c-0.5-1.8,0.5-2.7,2.3-3.4c-3.4-1.8-5.8-3.6-5.5-7.6
		c0.1-1.8-1-3.7-3.3-3.8c-2.6-0.1-2.6,1.8-2.6,3.6c0,1.7-0.4,2.9-2.4,3.1c-2.1,0.2-3.1-0.5-2.9-2.7c0.1-0.8-0.2-1.8-1.1-1.7
		c-3.5,0.4-3.7-2.3-4.1-4.5c-0.4-2.6-2.4-5.1-1-7.9c0.3-0.6-0.1-1.5-0.6-1.6c-2.6-0.2-4.1-2.9-6.7-2.8c-2.5-3.4-2-6.9-0.8-10.6
		C58.4,28.4,57.7,26.8,57.8,25.6L57.8,25.6z"/>
	<path class="st0" d="M92.5,58.9c2.1,0,1-2.4,2.3-3c1.4,2.2-1.4,5,1,7.4c2.6-5.5,3.1-10.9,2.8-16.5c0-0.7,0.2-1.3,0.9-1.6
		c0.9,7,0.7,13.9-2.4,20.5c-1.6-0.5-2.3,1.4-3.7,1.5c-0.3-1.5,2.3-3.5-0.8-4.5c0-0.8,0-1.5,0-2.3C92.6,59.8,92.5,59.3,92.5,58.9z"/>
	<path class="st11" d="M52,13.4c-1,0.5-2,1-3.2,0.5c-1.8-0.7-3.6-0.7-5.3,0.6c-1.7,1.2-3.3,0.5-4.1-1.2c-0.8-1.7,1-2,2-2.5
		c1.5-0.9,3.2-1.6,4.8-0.2c1.2,1,2.6,0.6,4,0.7c0.5,0.8,1.3,0.6,2,0.6c0,0.4-0.1,0.7-0.1,1.1C52.2,13.2,52.1,13.3,52,13.4z"/>
	<path class="st8" d="M57.1,42.2c1.3,1.2,0.4,3.6,2.3,4.6c-0.3,0.2-0.6,0.7-0.8,0.7c-1.5-0.3-1.2,2.7-2.6,1.7c-1.5-1-1-2.9-1.1-4.5
		C54.7,43,55.2,42.1,57.1,42.2z"/>
	<path class="st5" d="M52.3,12c-0.7,0-1.5,0.2-2-0.6c0.5-3.1,0-5.8-3-7.5c1-0.1,2-0.2,3-0.3c0.7,0.3,1.5,0.6,2.2,0.9
		C52.4,7,52.3,9.5,52.3,12z"/>
	<path class="st7" d="M52.4,4.5c-0.7-0.3-1.5-0.6-2.2-0.9c0.2-0.5,0.4-0.9,0.6-1.4C51,1.9,51,1.7,51,1.5c2.1,0.2,4.2,0.6,6.3,0.7
		c2,0,1.5,1.1,1.2,2.2C56.4,4.4,54.4,4.4,52.4,4.5z"/>
	<path class="st8" d="M57.1,16.6c-0.3,0.7-0.5,1.5-0.8,2.2c-2.7-2.3-1.5-5-0.7-7.6c2.3,0.6,1.2,2.5,1.5,3.9
		C57.1,15.6,57.1,16.1,57.1,16.6z"/>
	<path class="st13" d="M57.8,25.6c-0.2,1.2,0.5,2.8-1.5,3C56.5,27.4,55.8,25.9,57.8,25.6z"/>
	<path class="st10" d="M82.7,88.3c0.1,1.6-0.8,2.2-2.2,2.5c-0.1-0.4-0.1-0.7-0.2-1.1C81,88.9,81.6,88.2,82.7,88.3z"/>
	<path class="st5" d="M52,13.4c0.1-0.1,0.2-0.2,0.1-0.4c0,0,0.1,0.3,0.1,0.3S52,13.5,52,13.4C52,13.5,52,13.4,52,13.4z"/>
	<path class="st14" d="M92.5,36.2c-0.6,2.2-1.1,4.3-1.8,6.5c-0.4,1.3-1.2,2.2-2.8,1.4c-2.9-1.4-3.1-4.3-3.7-6.9
		c-0.6-2.5,1-3.9,2.9-5c2.1-1.2,3.5,1.3,5.4,1c0,0.2,0,0.5,0,0.7C91.6,34.7,91.5,35.4,92.5,36.2L92.5,36.2z"/>
	<path class="st12" d="M98.6,46.7c0.3,5.6-0.1,11.1-2.8,16.5c-2.4-2.4,0.4-5.2-1-7.4c-0.2-2.2-3.1-3.5-2.3-6.1
		c0.1-1.1-0.3-2.2,0.4-3.4c1.3,0,3.4,4.8,4.1-0.4C97.6,46.2,98.1,46.5,98.6,46.7z"/>
	<path class="st0" d="M103.1,46c0,5.6,0,11.2,0,16.8c0,1.1,0.8,3.3-1.9,2.2c0-6.3-1.1-12.7,0.5-19C102.1,46,102.6,46,103.1,46z"/>
	<path class="st13" d="M92.5,36.2c-1-0.8-0.9-1.5,0-2.3C92.5,34.7,92.5,35.4,92.5,36.2z"/>
	<path class="st0" d="M51,1.5c0,0.2-0.1,0.5-0.1,0.7C48.9,2,46.8,3,45,1.5c1.9,0.2,3.6-0.3,5.3-0.8C50.5,1,50.8,1.2,51,1.5z"/>
	<path class="st14" d="M77.5,70.2c-2.3,0.1-4.6-0.4-4.2-2.7c0.3-1.9,2-3.9,4.3-3.9c2.3,0,2.8,1.8,3,4C80.6,70.1,79.2,70.4,77.5,70.2
		z"/>
	<path class="st14" d="M57.1,16.6c0-0.5,0-1,0-1.5c2.7-3.8,5.8-4.7,9.9-2.9c1.2,0.5,1.5,1.6,1.4,2.8c-0.1,1.4-1,1.5-2.1,1.6
		C63.2,16.9,60.1,15.7,57.1,16.6z"/>
	<path class="st14" d="M75.8,26.7c-0.2,1.3-1,2.1-2.1,1.8c-2.1-0.5-3-2.1-3-4.1c0-0.7,0-1.6,1.2-1.5C74.2,23.2,74.8,25.2,75.8,26.7z
		"/>
	<path class="st12" d="M92.5,58.9c0,0.5,0,1,0,1.5c-0.7-0.1-1.7,0.8-2,0c-0.7-1.6,1.6-2.3,1.2-4.2C92.9,57.2,92.4,58.1,92.5,58.9z"
		/>
</g>
<g>
	<path class="st15" d="M90.8,126.5H15c-2.2,0-4-1.8-4-4v-23c0-2.2,1.8-4,4-4h75.8c2.2,0,4,1.8,4,4v23
		C94.8,124.7,93,126.5,90.8,126.5z"/>
	<g>
		<path class="st16" d="M31.9,113c-0.1-2-0.1-4.4-0.1-6.8h-0.1c-0.5,2.1-1.2,4.4-1.8,6.4l-2,6.4H25l-1.8-6.4
			c-0.5-1.9-1.1-4.3-1.5-6.4l0,0c-0.1,2.2-0.2,4.8-0.3,6.8l-0.3,6.3h-3.4l1.1-16.5h5l1.6,5.5c0.5,1.9,1,4,1.4,5.9h0.1
			c0.5-1.9,1-4.1,1.6-5.9l1.8-5.5h4.9l0.9,16.5h-3.6L31.9,113z"/>
		<path class="st16" d="M53.7,110.9c0,5.4-3.3,8.7-8.1,8.7c-4.9,0-7.7-3.7-7.7-8.4c0-4.9,3.2-8.6,8-8.6
			C51,102.6,53.7,106.3,53.7,110.9z M41.8,111.1c0,3.2,1.5,5.5,4,5.5s4-2.4,4-5.6c0-3-1.4-5.5-4-5.5
			C43.3,105.5,41.8,107.9,41.8,111.1z"/>
		<path class="st16" d="M71.2,110.9c0,5.4-3.3,8.7-8.1,8.7c-4.9,0-7.7-3.7-7.7-8.4c0-4.9,3.2-8.6,8-8.6
			C68.5,102.6,71.2,106.3,71.2,110.9z M59.3,111.1c0,3.2,1.5,5.5,4,5.5c2.5,0,4-2.4,4-5.6c0-3-1.4-5.5-4-5.5
			C60.8,105.5,59.3,107.9,59.3,111.1z"/>
		<path class="st16" d="M73.7,119.3v-16.5H78l3.4,6c1,1.7,2,3.8,2.7,5.6h0.1c-0.2-2.2-0.3-4.4-0.3-6.9v-4.8h3.4v16.5h-3.9l-3.5-6.4
			c-1-1.8-2.1-3.9-2.9-5.8h-0.1c0.1,2.2,0.1,4.5,0.1,7.2v5h-3.3V119.3z"/>
	</g>
</g>
</svg>
