<?xml version="1.0" encoding="utf-8"?>
<!-- Generator: Adobe Illustrator 25.0.0, SVG Export Plug-In . SVG Version: 6.00 Build 0)  -->
<svg version="1.1" id="Layer_1" xmlns="http://www.w3.org/2000/svg" xmlns:xlink="http://www.w3.org/1999/xlink" x="0px" y="0px"
	 width="105.5px" height="129px" viewBox="0 0 105.5 129" style="enable-background:new 0 0 105.5 129;" xml:space="preserve">
<style type="text/css">
	.st0{fill:#FCFCFC;}
	.st1{fill:#F2F5F4;}
	.st2{fill:#B7C0C4;}
	.st3{fill:#EEF1F2;}
	.st4{fill:#DDE2E3;}
	.st5{fill:#EBEDEE;}
	.st6{fill:#F7F4EC;}
	.st7{fill:#A5B0B2;}
	.st8{fill:#E5E8EA;}
	.st9{fill:#D0D7D8;}
	.st10{fill:#E9E0DB;}
	.st11{fill:#F8F4EC;}
	.st12{fill:#48A6DD;}
	.st13{fill:#FFFFFF;}
</style>
<g>
	<path class="st0" d="M32.3-3c0.2,1.2-0.7,3.1,1,3.5c1.6,0.4,3.6,1.2,4.9-0.9c0.3-0.5,3.6-0.1,3.6,0.3c-0.4,4,2.5,3,4.7,3.2
		c-0.1,0.2-0.2,0.5-0.3,0.7c-2.5,0.5-5.5-1.4-7.3,1.9c-3,0.5-6.9-1.2-8.4,3.3c-1.1-0.1-1.3,1-2,1.5c-1.5,0-2.2,1.8-3.8,1.5
		c-0.1-0.7-0.6-1.7-1.3-0.9c-1,1-3.1,1.8-1.7,4c-4.4,4.1-10.3,7-10.5,14.2l0.1,0.3c-1.8,1-2.1-0.9-3-1.7c-2.1,2.9-0.4,6.2-1.1,8.9
		c-2,7.7-1.6,15.6-1.5,23.4c0,3.9,2.4,7.5,2.9,11.5c0.2,1.7,1.9,2.5,3.6,2.7c0,1.1-0.2,2.3,0.1,3.3c0.6,1.6,1.1,0.8,1.4-0.3
		c1,0.4,0.9,1.3,1,2.1c-1.9,0.7-1.7,2.3-1.7,3.8c0,1.2,0,2.4,0,3.6c0,0.6,0.2,1.2,0.9,1.4c0.6,0.2,1.5,0.2,1.6-0.3
		c0.2-1.6,2.3-3.3-0.3-4.7c0-1,0-2.1,0-3.1c1,0.5,1.5,1.6,2.3,2.3c1.4,1.3,1.9,3.8,4.3,3.9c-0.4,0.8-1.6,1-1.4,2.2
		c-0.7,0.1-1.5,0.3-1.3,1.3c0,0.2,0.5,0.6,0.7,0.6c0.9-0.3,0.5-1.2,0.6-1.8c1.1,1.7,2.1,3.5,4.5,1.5c0.7,0,1.5,0,2.2,0l0,0
		c0.8,1.5,1.9,2.5,3.7,2.3l0,0c0,1,0.6,1.4,1.5,1.5c-0.2,3.9,3.2,1.2,4.5,2.6c0.1,1-1.8,0.3-1.3,1.9c4.1,0,8.3,0,12.4,0
		c1.4,0.3,2.9-0.4,4.2,1.5c1.3,1.8,4.3,1.3,5.8,0.5c2.5-1.4,2.3-1.8,5-1.9c2,0,3.9,0,5.9-0.1c0.7,0,1.9-0.2,2-0.5
		c1.6-5.1,7.4-3.4,10.4-6.5c0.9-1,3.2-1,3.4-2.9c1.7-0.3,1.1,2.2,1.7,1.5c1.2-1.2,3.5-1.3,3.5-3.8c0-2.7,1-5.1,3-7.2
		c1.2-1.3,3-2,4-3.1c4.3-4.7,4.8-10.9,5.1-17c0.2-4.4,0.1-8.9,0.1-13.3c1.2,0.9,0.8,2.2,0.8,3.4c0,4.1,0,8.1,0,12.2
		c0,1-0.5,2.6,1,2.7c1.7,0.1,1.2-1.6,1.2-2.6c0.1-4.6,0.4-9.1-0.1-13.7c-0.3-3.1-1.6-6.1-3.4-8.8c-0.1-0.5-0.2-0.9-0.2-1.4
		c0.3-2.5-1.7-4.2-2.3-6.4c-0.4-1.4-1.3-0.6-2.1-0.4l-0.2,0.1c-0.4-2.1,1.9-5.5-2.8-5.5c-0.7,0-0.6-1-0.9-1.4c-2-2-2.1-5-3.5-7.3
		c-0.2-0.3-0.5-0.5-0.7-0.8c-0.5,0-1-0.1-1.5-0.1c0.4-2.4-0.8-3-2.9-2.8c0-0.2,0-0.4-0.1-0.7c0-1.6-1.1-1.6-2.2-1.5l0,0
		c0.1-0.8-0.1-1.8,1-2.2c0.7-0.3,2.1,0.1,1.6-1.3c-0.4-1.1-1.8-1.3-2.5-0.9c-1.6,1-2.6,0.1-3.8-0.5c-1.1-0.5-2.4-0.7-3.5,0.1
		c-2.7,0.9-5.1-0.4-7.6-1.2c0.8-0.4,2.7,0.7,2.4-1.1c-0.1-0.7-0.6-2.8-2.2-2.4C65.8,1.7,67.2,3,67.2,4c0,0.2,0.1,0.5,0.1,0.7
		c-1.2-0.1-2.4-0.1-3.7-0.2c-0.7-0.9-1.3-0.4-1.9,0.1c-0.6-1.8-2-1.5-3.4-1.5c-3.7,0-7.4,0-11.1,0c0.1-0.6,0.3-1.3,1.1-1.2
		c4.4,1,8.9,0.2,13.3,0.5c0.9,0.1,2.3,0.9,2.3-0.7c0-1.3-1.6-0.7-2.5-0.8c-1.5-0.1-3.7,0.5-4.3-0.3c-2-2.6-4.6-2.3-7-1.9
		c-5.6,0.9-8-5-12.9-5.8"/>
	<path class="st0" d="M51.6-6.5c0,0.8,0,2,1.2,1.8c1.2-0.1,1-1.3,1-2.1"/>
	<path class="st0" d="M111.2,35.2c-2.7,0.3-4.9,4.4-3.9,7.2c-0.3,2.2,1.2,2.3,2.8,2.3"/>
	<path class="st0" d="M-3.2,29.7c1.5,4.1,2.4,8.3,2.1,12.7c-0.2,2.6,1.7,2.2,3.3,2.2c1.9,0,1.6-1.1,1.5-2.5c-0.3-4.3-2.6-8.5-1-12.5
		c-0.2-2,0.5-3.8-1.6-4.6c-1.3-0.5-2.5-0.4-3.5,0.4C-4.1,26.5-3.7,28.4-3.2,29.7"/>
	<path class="st0" d="M111,64.1c-1.9-0.2-1.6,1.5-1.5,2.7c0.1,1.6-0.1,4.1,1.9,4.2"/>
	<path class="st0" d="M-2.3,36.2c0,0.2,0,0.4,0,0.5c0.1-0.1,0.2-0.2,0.2-0.3C-2.1,36.4-2.2,36.3-2.3,36.2z"/>
	<path class="st1" d="M13.7,77.4c-0.3,1.1-0.8,1.8-1.4,0.3c-0.4-1-0.1-2.2-0.1-3.3c1.2-1.6-0.1-2.8-0.7-4
		c-3.8-7.9-5.4-16.2-4.3-24.7C7.6,42.1,8,38,10.6,34.8l0.1,0.2c1,3.5-1.5,6.5-1.2,10.1c0.5,5,1.8,9.5,3.3,14.2
		c1.4,4.4,4.6,6.6,9.1,5.6c1.7-0.4,3.4,0,4,1.8c0.4,1.3-0.8,2.3-1.8,2.3c-5.1,0.1-3.8,3.3-3.1,6.2c-1.6,0.1-1.5,1.3-1.4,2.4
		c0,1.3,0.8,0.8,1.5,0.6c0,0.5,0,1,0,1.5c0,0.2,0,0.4,0,0.7c-0.8,0.5-0.8,1.1,0,1.6c4.4,3.6,9.3,6.6,14.4,8.5
		c2.6,0.9,5.1,2.2,7.7,3.1c4.9,1.6,9.3,5,14-0.1c0.2-0.2,0.7-0.3,1-0.2c2.6,1,5.1-0.7,7.6-0.2c3.5,0.7,5-1.1,5-4.4
		c1.1,0,2.2,0,3.3,0c2.3,0,5,0.8,5.3-3.2c0.1-1.2,1.8-2.2,3.5-2.1c1,0.1,2.5,0.3,2.6-1.3c0.2-3.3,2.4-3.2,4.7-3.1
		c-1.4,1.8-2.8,3.7-4.4,5.3c-10.3,10.4-23.4,13.9-37.9,13c-5.4-0.9-10.5-2.6-15.6-4.5c-0.3-0.7-0.9-0.8-1.5-0.6l0,0
		c-0.5-2-2-2.3-3.7-2.3l0,0c0-1.6-1-1.7-2.2-1.5l0,0c0.1-1.6-0.9-2.1-2.3-2.2l0,0c-2.3-4-6.2-6.6-8.8-11.3
		C13.7,76.4,13.7,76.9,13.7,77.4z M10.9,59.2c1-1.3,0.1-1.9-0.5-2.6C10.1,57.6,9.6,58.6,10.9,59.2z"/>
	<path class="st2" d="M47.9,97.2C62.4,98,75.3,94.5,85.9,84c1.6-1.6,2.9-3.5,4.4-5.3c2.6-2.5,4.4-5.6,5.8-8.8
		c4.7-10.5,5.2-21.4,2-32.5c-0.7-2.4-1.4-4.7-2-7h0.3h0.3l0.2-0.1c1.6,2.2,1.5,5.4,4.4,6.8c0.1,0.5,0.2,0.9,0.2,1.4
		c-2.4,2.4,1.5,4.3,0.5,6.6c0,4.4,0,8.9-0.1,13.3c-0.2,6.1-0.8,12.2-5.1,17c-0.9,1-2.8,1.8-4,3.1c-1.9,2-3,4.4-3,7.2
		c0,2.4-2.3,2.6-3.5,3.8c-0.7,0.7-0.1-1.8-1.7-1.5c-0.2,2-2.5,2-3.4,2.9c-3,3.1-8.9,1.3-10.4,6.5c-0.1,0.4-1.3,0.5-2,0.5
		C66.9,98,65,98,63,98c-2.8,0-2.5,0.5-5,1.9c-1.5,0.8-4.6,1.3-5.8-0.5c-1.3-1.8-2.7-1.2-4.2-1.5C47.9,97.8,47.9,97.5,47.9,97.2z
		 M98.2,70.6c0.3-0.2,0.5-0.3,0.7-0.4c-0.2-0.2-0.3-0.5-0.5-0.7c0,0-0.5,0.2-0.5,0.3C98,70,98.1,70.3,98.2,70.6z"/>
	<path class="st3" d="M11.5,29.5l-0.1-0.3c0.7,0,1.1-0.3,1.5-0.8c3-4,5.8-8,9.4-11.6c2.1-2.1,5.3-3.2,6.3-6.3c0.7-0.4,0.9-1.5,2-1.5
		c3.4,0.4,6-1.2,8.4-3.3c1.8-3.2,4.8-1.4,7.3-1.9c0.5,0.8,1.4,0.8,2.3,0.8c4.4,0,8.7-0.1,13.1-0.1c0.6-0.6,1.2-1,1.9-0.1
		c-0.9,1.1,0.7,0.9,0.8,1.5c-4.8,0-9.6,0.2-14.4,0c-3-0.2-4,1-3.6,3.8c-0.5,0-1,0-1.5,0c-1.1-1.1-1.3-0.3-1.5,0.7
		c-1.6,0.2-2.8,2.2-2.6,2.6c2,3.5-1.8,2.3-2.6,3.4c-2-0.7-4.6,0.3-6-2.2c-3.5-1.3-10.9,4.6-10.2,8.3c0.2,1.2-0.3,1.1-1,1.3
		c-4.2,1.4-7.8,6-8.1,10.5c-0.2,2.8-1.1,1.7-2.2,0.7l-0.1-0.2C10.6,33,11.9,31.4,11.5,29.5z"/>
	<path class="st3" d="M37.2-7.1c4.9,0.8,7.3,6.7,12.9,5.8c2.3-0.4,5-0.8,7,1.9c0.6,0.7,2.8,0.2,4.3,0.3c0.9,0.1,2.4-0.5,2.5,0.8
		c0,1.6-1.4,0.7-2.3,0.7c-4.4-0.3-8.9,0.5-13.3-0.5c-0.8-0.2-1,0.5-1.1,1.2c-0.2,0.1-0.4,0.1-0.6,0.1C44.5,3,41.5,4,41.9,0
		c0-0.4-3.3-0.8-3.6-0.3C37,1.9,34.9,1,33.4,0.6c-1.7-0.4-0.8-2.3-1-3.5"/>
	<path class="st2" d="M11.5,29.5c0.4,1.9-0.8,3.5-0.9,5.3c-2.6,3.1-3,7.3-3.4,10.9c-1.1,8.5,0.5,16.8,4.3,24.7
		c0.6,1.2,1.9,2.4,0.7,4c-1.7-0.3-3.4-1.1-3.6-2.7c-0.5-4-2.9-7.6-2.9-11.5c-0.1-7.8-0.5-15.7,1.6-23.5c0.7-2.7-1-6,1.1-8.9
		C9.4,28.5,9.7,30.5,11.5,29.5z"/>
	<path class="st4" d="M-3.2,29.7c-0.5-1.3-0.9-3.2,0.7-4.4c1-0.8,2.3-0.9,3.5-0.4c2.1,0.9,1.3,2.7,1.6,4.6c-1.6,4,0.8,8.2,1,12.5
		c0.1,1.4,0.4,2.5-1.5,2.5c-1.6,0-3.5,0.3-3.3-2.2C-0.8,38-1.7,33.9-3.2,29.7"/>
	<path class="st5" d="M53.8-6.8c0.1,0.8,0.2,2-1,2.1c-1.3,0.1-1.2-1-1.2-1.8"/>
	<path class="st6" d="M102,45.3c1-2.3-2.8-4.2-0.5-6.6c1.8,2.7,3.1,5.7,3.4,8.8c0.4,4.5,0.1,9.1,0.1,13.7c0,1,0.5,2.7-1.2,2.6
		c-1.5-0.1-1-1.7-1-2.7c-0.1-4.1,0-8.1,0-12.2C102.8,47.5,103.1,46.2,102,45.3z"/>
	<path class="st2" d="M28.6,10.4c-1,3.1-4.2,4.2-6.3,6.3c-3.5,3.6-6.4,7.6-9.3,11.6c-0.4,0.5-0.9,0.8-1.5,0.8
		c0.1-7.2,6.1-10.2,10.5-14.2c1.2-0.8,2.3-1.7,3-3C26.4,12.2,27.2,10.4,28.6,10.4z"/>
	<path class="st2" d="M64.4,5.9c0-0.7-1.6-0.4-0.8-1.5c1.2,0.1,2.4,0.1,3.7,0.2l0,0c2.3,0.7,4.7,2,7.4,1.1c1.1,3.6,4.8,3.3,7.3,4.8
		l0,0c0,1.5,0.4,2.6,2.2,1.5c0,0.2,0,0.4,0.1,0.7c0,1,0,2,0,3c-1.3-0.9-2.5-1.9-3.9-2.7C75.3,9.8,70.5,6.4,64.4,5.9z"/>
	<path class="st7" d="M96.7,30.5h-0.3h-0.3c-3-4-5.9-8-8.9-12c-0.1-0.9-0.8-1.9,0-2.8l-0.1-0.2c0.5,0,1,0.1,1.5,0.1
		c0.2,0.3,0.5,0.5,0.7,0.8c1.4,2.3,1.5,5.2,3.5,7.3c0.4,0.4,0.3,1.4,0.9,1.4C98.6,25,96.2,28.5,96.7,30.5z"/>
	<path class="st7" d="M47.9,97.2c0,0.3,0,0.5,0,0.8c-4.2,0-8.3,0-12.4,0c-0.5-1.6,1.5-0.9,1.3-1.9c-1.3-1.3-4.7,1.3-4.5-2.6
		c0-0.3,0-0.6,0-0.9C37.4,94.6,42.5,96.3,47.9,97.2z M38.4,96.2l0.2,0.1v-0.2L38.4,96.2z"/>
	<path class="st8" d="M112.4,41.7c-1.7,0.2-3.4,0.5-5.1,0.7c-1-2.8,1.2-6.9,3.9-7.2"/>
	<path class="st8" d="M81.9,10.5c-2.5-1.5-6.1-1.2-7.3-4.8C75.8,5,77,5.1,78.1,5.6c1.2,0.6,2.2,1.4,3.8,0.5C82.6,5.7,84,5.9,84.4,7
		c0.5,1.4-0.9,1.1-1.6,1.3C81.8,8.8,82,9.7,81.9,10.5z"/>
	<path class="st2" d="M13.7,77.4c0-0.5,0.1-1,0.1-2.4c2.6,4.7,6.5,7.3,8.8,11.3c-0.3,0-0.5,0-0.8,0.1c-2.5-0.1-2.9-2.5-4.3-3.9
		c-0.8-0.7-1.3-1.8-2.3-2.3c-0.2-0.2-0.4-0.5-0.5-0.7C14.5,78.7,14.7,77.8,13.7,77.4z"/>
	<path class="st2" d="M46.6,3.1c0.2,0,0.4,0,0.6-0.1c3.7,0,7.4,0,11.1,0c1.3,0,2.8-0.3,3.4,1.5c-4.4,0-8.7,0-13.1,0.1
		c-0.9,0-1.7,0-2.3-0.8C46.4,3.5,46.5,3.3,46.6,3.1z"/>
	<path class="st5" d="M111.4,71c-2-0.1-1.8-2.6-1.9-4.2c-0.1-1.1-0.4-2.9,1.5-2.7"/>
	<path class="st8" d="M15.2,83.2c2.6,1.4,0.5,3.1,0.3,4.7c-0.1,0.5-1,0.5-1.6,0.3C13.2,88,13,87.4,13,86.8c0-1.2,0-2.4,0-3.6
		C13.7,83.2,14.4,83.2,15.2,83.2z"/>
	<path class="st7" d="M39,5.6c-2.4,2.1-5,3.7-8.4,3.3C32.1,4.4,36,6.1,39,5.6z"/>
	<path class="st8" d="M21.8,86.2c0.3,0,0.5,0,0.8-0.1l0,0c0,1.5,0.8,2.2,2.3,2.2l0,0c0,0.5,0,1,0,1.5c-2.3,2-3.4,0.2-4.5-1.5l0,0
		C20.2,87.3,21.4,87,21.8,86.2z"/>
	<path class="st9" d="M110,44.7c-1.6,0-3.1,0-2.8-2.3c1.7-0.2,3.4-0.5,5.1-0.7"/>
	<path class="st6" d="M101.3,37.2c-2.9-1.4-2.8-4.6-4.4-6.8c0.8-0.2,1.7-1,2.1,0.4C99.6,33,101.6,34.7,101.3,37.2z"/>
	<path class="st3" d="M67.2,4.5c0-0.2-0.1-0.5-0.1-0.7c-0.1-1-1.5-2.3,0.3-2.8c1.6-0.4,2.1,1.7,2.2,2.4C69.8,5.3,68,4.1,67.2,4.5
		L67.2,4.5z"/>
	<path class="st8" d="M84.2,15.7c0-1,0-2,0-3c2.1-0.2,3.3,0.4,2.9,2.8l0.1,0.2c-0.8,0-1.6,0-2.5-0.1C84.6,15.7,84.4,15.7,84.2,15.7z
		"/>
	<path class="st5" d="M24.8,11.9c-0.6,1.3-1.8,2.2-3,3c-1.4-2.1,0.7-2.9,1.7-4C24.3,10.2,24.7,11.1,24.8,11.9z"/>
	<path class="st1" d="M15.2,83.2c-0.7,0-1.5,0-2.2,0c0-1.5-0.2-3.1,1.7-3.8c0.2,0.2,0.4,0.5,0.5,0.7C15.2,81.1,15.2,82.1,15.2,83.2z
		"/>
	<path class="st2" d="M27.1,89.9c1.7,0,3.2,0.3,3.7,2.3C29,92.4,27.9,91.3,27.1,89.9z"/>
	<path class="st8" d="M84.2,12c-1.8,1.1-2.2,0-2.2-1.5C83.1,10.4,84.2,10.4,84.2,12z"/>
	<path class="st8" d="M20.4,88.4c-0.1,0.7,0.2,1.5-0.6,1.8c-0.1,0.1-0.6-0.3-0.7-0.6C18.9,88.7,19.6,88.5,20.4,88.4L20.4,88.4z"/>
	<path class="st2" d="M24.8,89.9c0-0.5,0-1,0-1.5c1.2-0.2,2.2,0,2.2,1.5C26.3,89.9,25.6,89.9,24.8,89.9z"/>
	<path class="st2" d="M32.3,92.7c0,0.3,0,0.6,0,0.9c-0.9-0.1-1.5-0.5-1.5-1.5C31.4,91.9,32,92,32.3,92.7z"/>
	<path class="st4" d="M-2.3,36.2c0.1,0.1,0.1,0.2,0.1,0.3c0,0.1-0.1,0.2-0.2,0.3C-2.3,36.5-2.3,36.4-2.3,36.2z"/>
	<path class="st2" d="M89.4,16.4c-0.2-0.3-0.5-0.5-0.7-0.8C88.9,15.9,89.2,16.1,89.4,16.4z"/>
	<path class="st6" d="M84.2,15.7c0.2,0,0.3,0,0.5,0c0.4,1.3,1.3,2.3,2.5,2.9c3,4,5.9,8,8.9,12c0.7,2.3,1.4,4.7,2,7
		c3.2,11.1,2.7,21.9-2,32.5c-1.4,3.2-3.2,6.3-5.8,8.8c-2.3-0.1-4.5-0.2-4.7,3.1c-0.1,1.6-1.6,1.3-2.6,1.3c-1.7-0.1-3.4,0.9-3.5,2.1
		c-0.3,3.9-3,3.1-5.3,3.2c-1.1,0-2.2,0-6.6-2.6c-3.3-2.6-3.3-2.5-3.3-2.5c-2,0-3.9,0-5.9,0c-0.6,0-1.2,0.4-1.3,1.1
		c-0.1,0.6,0.4,0.8,0.9,1c3.2,1.7,6.3,4,10.3,2.9c0.9-0.3,2.9,1.2,2.6-1.5c-0.2-1.8,0.5-3.9-2.5-3.7c-1.3,0.1-2.7,0-0.8,2.6
		c3.3,6,1.9,7.7-1.7,7c-2.6-0.5-5.1,1.2-7.6,0.2c-0.3-0.1-0.8,0-1,0.2c-4.7,5.1-9.1,1.7-14,0.1c-2.6-0.9-5.2-2.2-7.7-3.1
		c-5.2-1.8-10.1-4.9-14.4-8.5c0-0.5,0-1,0-1.6c0-0.2,0-0.4,0-0.7c2.1-0.8,4.1-2.2,6.6-1c1.4,0.6,1.9-1,2.1-2c0.3-1.3,0.2-2.7-0.3-4
		c-0.4-1-0.1-1.8,1-1.9s1.6,0.5,1.6,1.6c0,1.7-0.1,3.5,0.1,5.2c0.1,1.4-0.8,3.2,0.9,4c1.7,0.8,3.3,0.1,4.7-1.1
		c1-0.9,2.2-2.5,3.8-1.9c2.6,0.9,3.8-1.3,5.6-2c2.9-1.2,1.3-3.4,0.9-5.3c-0.2-0.8,0.3-1.7,0.4-2.5c0.1-1.2,0.3-2.5-0.8-3.5
		c-1-1-1.7-1.8-1.9-3.5c-0.2-2.1-2.7-3.7-4.9-3.7c-1.2,0-0.6,2.3-0.4,3.6c0.2,0.8,1.8,1.6,0.2,2.4c-1.4,0.7-1.9-0.6-2.3-1.7
		c-1-2.9-2.1-5.5-4.9-7.3c-1.7-1.1-2.4-10.6-1.1-12.2c0.8-1,1.8-1.5,3.2-1.3c2.3,0.3,4.5,0.2,6.8,1c2.7,0.9,5.2-0.2,6.1-2.9
		c0.7-2,0-4.1-2.8-4.6c-1.5-0.3-0.8-1.5-0.1-1.8c2.7-1.2,4.4-3.8,7.3-4.8c2.4-0.8,3.6-4.6,1.9-5.5c-3.8-1.9-5.4-5.9-9-8.1
		c1.9-0.3,3.7-1.1,5.5,0.3c4,3.1,8.5,3,13.1,2.1c1-0.2,1.9-0.6,2.9-0.6s2.3-0.5,3,0.7c0.7,1.3-0.3,2-1.2,2.7
		c-0.4,0.3-0.6,0.8-0.1,1.6c3-1.5,6.3-1.7,9.6-1.6c0.4,0,0.9-0.3,1.2-0.7c0.4-0.5,0-1.1-0.5-1.1c-2.1-0.1-2.4-3-4.6-2.8
		c0.2-1.6,2-0.6,2.2-2.1c-2.4-1.2-5-4.2-5.9,1.5c-0.2,1.5-1.1,0.7-2-0.2c-1.8-1.7-3.9-2.3-6.5-2.5c-5.5-0.4-11.4,1.3-16.5-2.4
		c-0.4-2.8,0.6-3.9,3.6-3.8c4.8,0.2,9.6,0,14.4,0c6.2,0.5,11.1,3.9,16.1,7C81.7,13.8,82.9,14.7,84.2,15.7z M93.1,54.3
		c0.1,1-0.3,2.2,1.1,4.1C94.4,56.2,95.5,54.8,93.1,54.3c1.4-4.7-4-3.9-5.2-6.5c-0.3-0.6-1.5,0.3-2,1c-0.7,0.9-0.8,3-2.4,2.1
		c-1.4-0.8-1.1-2.8-0.2-4c1.3-1.8,0.2-2.8-0.6-4.2c-1.6-2.8-2.3-6.4-7-5.2c-0.7,0.2-1.5-1.1-1.8-2.1c-0.2-1.1-0.5-2.2-0.8-3.2
		c-1.3-4.2-5.6-7.1-10-6.9c-1.7,0.1-5.8,5.1-6.2,7.8c-0.2,1.2-0.5,2.6,0.6,3.5c2.2,2,3.6,5.1,7.3,5.2c1.4,0,2.8,0.6,1.6,2.9
		c-1.8,3.4,0.9,6.8,0.7,10.4c-0.1,1.3,2.4,0.4,3.6,0.8c0.7,0.2,1,0.7,1,1.4c0.4,3.8,2.4,1.8,3.8,1c2.8-1.7,0.6-3.4-0.5-5
		c7.4-1.2,7.7-0.9,8,6.2c0.1,1.6,0.8,2.9,2.7,2.6c1-0.2,2.1-0.6,2.6,0.5c0.7,1.6-1.2,1.4-1.8,2.2c-0.8,1-2.3,1.8-1.7,3.4
		c0.3,0.9,1.2,1.8,2.3,1.6c1.4-0.3,2.6-1.2,3.3-2.7c1.3-2.9,1.4-6,1.5-9.2C91.7,56.6,90.8,54.8,93.1,54.3z M84.9,36.6
		c0.2,2.3,1.2,4,2.3,5.9c1.2,2.1,2.8,1,4.2,0.8c2.2-0.4,0.3-1.7,0.3-2.5c0.1-1-0.3-2.1,0.4-2.8c2-2.1-0.1-3.3-1.1-4.6
		c-0.8-1.1-1.8-1.7-3.2-1C86.2,33.4,85.2,34.8,84.9,36.6z M57.1,48.2c1.8,0.4,3.5-0.3,4.1-2.3c0.2-0.9-5.8-5.7-6.9-5.4
		c-1.7,0.4-2.8,1.4-2.6,3.4C51.9,47.3,54.7,47.7,57.1,48.2z M78.7,69.2c1.2,0.2,1.9-0.8,1.8-2.7c-0.1-1.6,0.2-3.7-1.9-3.7
		c-1.7,0-3.7,1-3.9,3.1C74.5,68.1,75.9,69,78.7,69.2z M72.9,23c-0.8,0.1-2.2,0.1-1.7,1.2c0.7,1.6,1.6,3.4,3.6,3.7
		c0.9,0.1,2-0.9,1.8-1.9C76,24.3,74.7,23.2,72.9,23z M46.7,52.8c1.5,0,2.8,0,2.6-1.8c-0.2-1.5-1.3-1.9-2.6-1.9
		c-1.4,0-2.4,0.6-2.4,2.1C44.3,53.1,45.8,52.7,46.7,52.8z"/>
	<path class="st10" d="M46.4,9.7c5.1,3.6,11,1.9,16.5,2.4c2.6,0.2,4.7,0.8,6.5,2.5c0.8,0.8,1.7,1.6,2,0.2c0.9-5.7,3.5-2.7,5.9-1.5
		c-0.2,1.5-2,0.4-2.2,2.1c2.2-0.3,2.4,2.6,4.6,2.8c0.5,0,0.9,0.6,0.5,1.1c-0.3,0.3-0.8,0.7-1.2,0.7c-3.3-0.1-6.6,0.1-9.6,1.6
		c-0.5-0.8-0.3-1.2,0.1-1.6c0.9-0.7,1.9-1.4,1.2-2.7c-0.7-1.2-2-0.8-3-0.7c-1,0-1.9,0.4-2.9,0.6c-4.6,0.9-9.1,1-13.1-2.1
		c-1.8-1.4-3.6-0.6-5.5-0.3c3.6,2.2,5.3,6.2,9,8.1c1.8,0.9,0.6,4.7-1.9,5.5c-2.9,0.9-4.6,3.6-7.3,4.8c-0.7,0.3-1.4,1.6,0.1,1.8
		c2.8,0.5,3.5,2.5,2.8,4.6c-0.9,2.6-3.4,3.7-6.1,2.9c-2.3-0.7-4.5-0.7-6.8-1c-1.4-0.2-2.5,0.3-3.2,1.3c-1.3,1.6-0.6,11.1,1.1,12.2
		c2.7,1.8,3.9,4.5,4.9,7.3c0.4,1.1,0.9,2.3,2.3,1.7c1.6-0.8-0.1-1.6-0.2-2.4c-0.3-1.3-0.8-3.6,0.4-3.6c2.1,0,4.6,1.6,4.9,3.7
		c0.2,1.8,0.9,2.5,1.9,3.5c1,1,0.8,2.3,0.8,3.5c-0.1,0.8-0.5,1.7-0.4,2.5c0.4,2,2,4.2-0.9,5.3c-1.8,0.7-3.1,3-5.6,2
		c-1.5-0.5-2.7,1-3.8,1.9c-1.5,1.3-3,1.9-4.7,1.1c-1.7-0.8-0.8-2.6-0.9-4c-0.1-1.7,0-3.5-0.1-5.2c0-1-0.6-1.7-1.6-1.6
		c-1.2,0.1-1.4,0.9-1,1.9c0.5,1.3,0.6,2.7,0.3,4c-0.3,1-0.8,2.6-2.1,2c-2.6-1.2-4.5,0.2-6.6,1c0-0.5,0-1,0-1.5c1.8-1,1.8-2-0.1-3
		c-0.7-2.9-2-6,3.1-6.2c1,0,2.3-1.1,1.8-2.3c-0.6-1.8-2.3-2.2-4-1.8c-4.5,1-7.7-1.2-9.1-5.6C11.7,54.5,10.3,50,9.9,45
		c-0.7-3.5,1.8-6.5,0.8-10c1.1,1.1,2.1,2.1,2.2-0.7c0.3-4.5,3.9-9.1,8.1-10.5c0.7-0.2,1.3-0.1,1-1.3c-0.7-3.6,6.7-9.6,10.2-8.3
		c-2.4-0.3,0.1,2.8-2.4,3.1C26,17.6,27,22,25.2,24.2c-0.7,0.9,0.9,1.1,1.7,1.1c3.1-0.1,3.7-3,4.4-5c0.8-2.2,1.3-3.6,4-2.5
		c1.1,0.4,2.5,0.5,2.9-1.3c0.8-1.1,4.6,0.2,2.6-3.4c-0.3-0.5,1-2.4,2.6-2.6c0.6,0,1.1-0.1,1.5-0.7C45.4,9.7,45.9,9.7,46.4,9.7z"/>
	<path class="st6" d="M21.1,75.1c1.9,1,1.8,2,0.1,3c-0.6,0.2-1.5,0.6-1.5-0.6C19.6,76.4,19.5,75.2,21.1,75.1z"/>
	<path class="st10" d="M10.9,59.2c-1.3-0.7-0.8-1.7-0.5-2.6C11,57.3,11.9,58,10.9,59.2z"/>
	<path class="st2" d="M24.9,88.4c-1.5,0-2.2-0.8-2.3-2.2C24,86.3,24.9,86.8,24.9,88.4z"/>
	<path class="st10" d="M21.1,80.1c0,0.5,0,1,0,1.6C20.3,81.2,20.4,80.7,21.1,80.1z"/>
	<path class="st0" d="M98.2,70.6c-0.1-0.3-0.3-0.6-0.3-0.8c0-0.1,0.5-0.3,0.5-0.3c0.2,0.2,0.3,0.5,0.5,0.7
		C98.7,70.3,98.5,70.4,98.2,70.6z"/>
	<path class="st11" d="M38.3,16.4c-0.3,1.8-1.8,1.8-2.9,1.3c-2.7-1.1-3.2,0.3-4,2.5c-0.7,2.1-1.3,4.9-4.4,5c-0.8,0-2.4-0.2-1.7-1.1
		c1.7-2.2,0.8-6.6,4.6-6.9c2.5-0.2,0-3.4,2.4-3.1C33.6,16.7,36.3,15.7,38.3,16.4z"/>
	<path class="st6" d="M44.9,9.7c-0.3,0.6-0.9,0.7-1.5,0.7C43.6,9.4,43.8,8.6,44.9,9.7z"/>
	<path class="st2" d="M87.2,18.5c-1.2-0.6-2-1.6-2.5-2.9c0.8,0,1.6,0,2.5,0.1C86.4,16.6,87.2,17.6,87.2,18.5z"/>
	<polygon class="st0" points="38.4,96.2 38.7,96.1 38.6,96.3 	"/>
	<path class="st10" d="M93.1,54.3c-2.3,0.5-1.4,2.3-1.4,3.6c-0.1,3.1-0.2,6.2-1.5,9.2c-0.7,1.5-1.8,2.3-3.3,2.7
		c-1.1,0.2-2-0.6-2.3-1.6c-0.5-1.6,1-2.3,1.7-3.4c0.6-0.8,2.5-0.6,1.8-2.2c-0.5-1.1-1.6-0.7-2.6-0.5c-1.9,0.3-2.7-1-2.7-2.6
		c-0.3-7.1-0.7-7.4-8-6.2c1.1,1.6,3.3,3.3,0.5,5c-1.4,0.9-3.4,2.8-3.8-1c-0.1-0.7-0.3-1.1-1-1.4c-1.2-0.4-3.7,0.5-3.6-0.8
		c0.2-3.6-2.6-7-0.7-10.4c1.2-2.3-0.1-2.9-1.6-2.9c-3.7-0.1-5-3.2-7.3-5.2c-1-0.9-0.7-2.3-0.6-3.5c0.4-2.7,4.5-7.7,6.2-7.8
		c4.4-0.2,8.7,2.7,10,6.9c0.3,1.1,0.6,2.1,0.8,3.2s1.1,2.3,1.8,2.1c4.6-1.2,5.4,2.4,7,5.2c0.8,1.4,1.9,2.4,0.6,4.2
		c-0.8,1.2-1.2,3.2,0.2,4c1.6,0.9,1.7-1.2,2.4-2.1c0.6-0.7,1.8-1.6,2-1C89.1,50.4,94.5,49.6,93.1,54.3L93.1,54.3z"/>
	<path class="st10" d="M84.9,36.6c0.3-1.8,1.3-3.3,3-4.2c1.4-0.8,2.4-0.1,3.2,1c1,1.4,3.1,2.5,1.1,4.6c-0.7,0.8-0.4,1.9-0.4,2.8
		c0,0.8,1.9,2.1-0.3,2.5c-1.4,0.2-3,1.3-4.2-0.8C86.1,40.7,85.1,38.9,84.9,36.6z"/>
	<path class="st1" d="M64.3,83.2c1.4,0,2.7,0.1,4.1,0c3.1-0.2,2.4,2,2.5,3.7c0.3,2.6-1.7,1.2-2.6,1.5c-4,1.1-7.1-1.2-10.3-2.9
		c-0.4-0.2-1-0.3-0.9-1c0.1-0.7,0.7-1.1,1.3-1.1C60.4,83.2,62.4,83.3,64.3,83.2L64.3,83.2z"/>
	<path class="st10" d="M57.1,48.2c-2.4-0.5-5.2-0.9-5.4-4.4c-0.2-2,1-3,2.6-3.4c1-0.3,7.1,4.5,6.9,5.4
		C60.6,47.9,58.8,48.6,57.1,48.2z"/>
	<path class="st10" d="M78.7,69.2c-2.8-0.2-4.3-1.1-4.1-3.2c0.2-2.1,2.2-3.2,3.9-3.1c2.1,0,1.9,2.1,1.9,3.7
		C80.6,68.5,79.9,69.4,78.7,69.2z"/>
	<path class="st4" d="M72.9,23c1.9,0.2,3.3,1.3,3.7,3c0.2,1-0.9,2-1.8,1.9c-2-0.3-2.9-2.1-3.6-3.7C70.7,23.2,72.1,23.2,72.9,23z"/>
	<path class="st10" d="M46.7,52.8c-0.9-0.1-2.4,0.3-2.4-1.6c0-1.5,1-2.1,2.4-2.1c1.3,0,2.5,0.3,2.6,1.9
		C49.5,52.8,48.2,52.8,46.7,52.8z"/>
	<path class="st10" d="M93.1,54.3c2.3,0.6,1.2,1.9,1,4.1C92.8,56.5,93.2,55.4,93.1,54.3L93.1,54.3z"/>
</g>
<g>
	<path class="st12" d="M90.8,126.5H15c-2.2,0-4-1.8-4-4v-23c0-2.2,1.8-4,4-4h75.8c2.2,0,4,1.8,4,4v23
		C94.8,124.7,93,126.5,90.8,126.5z"/>
	<g>
		<path class="st13" d="M31.9,113c-0.1-2-0.1-4.4-0.1-6.8h-0.1c-0.5,2.1-1.2,4.4-1.8,6.4l-2,6.4H25l-1.8-6.4
			c-0.5-1.9-1.1-4.3-1.5-6.4l0,0c-0.1,2.2-0.2,4.8-0.3,6.8l-0.3,6.3h-3.4l1.1-16.5h5l1.6,5.5c0.5,1.9,1,4,1.4,5.9h0.1
			c0.5-1.9,1-4.1,1.6-5.9l1.8-5.5h4.9l0.9,16.5h-3.6L31.9,113z"/>
		<path class="st13" d="M53.7,110.9c0,5.4-3.3,8.7-8.1,8.7c-4.9,0-7.7-3.7-7.7-8.4c0-4.9,3.2-8.6,8-8.6
			C51,102.6,53.7,106.3,53.7,110.9z M41.8,111.1c0,3.2,1.5,5.5,4,5.5s4-2.4,4-5.6c0-3-1.4-5.5-4-5.5
			C43.3,105.5,41.8,107.9,41.8,111.1z"/>
		<path class="st13" d="M71.2,110.9c0,5.4-3.3,8.7-8.1,8.7c-4.9,0-7.7-3.7-7.7-8.4c0-4.9,3.2-8.6,8-8.6
			C68.5,102.6,71.2,106.3,71.2,110.9z M59.3,111.1c0,3.2,1.5,5.5,4,5.5c2.5,0,4-2.4,4-5.6c0-3-1.4-5.5-4-5.5
			C60.8,105.5,59.3,107.9,59.3,111.1z"/>
		<path class="st13" d="M73.7,119.3v-16.5H78l3.4,6c1,1.7,2,3.8,2.7,5.6h0.1c-0.2-2.2-0.3-4.4-0.3-6.9v-4.8h3.4v16.5h-3.9l-3.5-6.4
			c-1-1.8-2.1-3.9-2.9-5.8h-0.1c0.1,2.2,0.1,4.5,0.1,7.2v5h-3.3C73.7,119.2,73.7,119.3,73.7,119.3z"/>
	</g>
</g>
</svg>
