<?xml version="1.0" encoding="utf-8"?>
<!-- Generator: Adobe Illustrator 25.0.0, SVG Export Plug-In . SVG Version: 6.00 Build 0)  -->
<svg version="1.1" id="Layer_1" xmlns="http://www.w3.org/2000/svg" xmlns:xlink="http://www.w3.org/1999/xlink" x="0px" y="0px"
	 width="105.5px" height="129px" viewBox="0 0 105.5 129" style="enable-background:new 0 0 105.5 129;" xml:space="preserve">
<style type="text/css">
	.st0{fill:#FCFCFC;}
	.st1{fill:#2D3C44;}
	.st2{fill:#495C64;}
	.st3{fill:#EEF1F2;}
	.st4{fill:#252D32;}
	.st5{fill:#D0D7D8;}
	.st6{fill:#DDE2E3;}
	.st7{fill:#EBEDEE;}
	.st8{fill:#E5E8EA;}
	.st9{fill:#A5B0B2;}
	.st10{fill:#B7C0C4;}
	.st11{fill:#4B5D65;}
	.st12{fill:#48A6DD;}
	.st13{fill:#FFFFFF;}
</style>
<g>
	<path class="st0" d="M101.2,40.1c0-1.8-0.1-3.6-1.4-5c0,0,0,0,0,0c0-0.6,0-1.3-0.1-1.9c1.1-0.9,0.8-1.9,0.5-3
		c-0.3-0.9-0.1-1.2,0.2-1.4c-0.1-0.7-0.2-1.5-0.1-2.2v-0.2c0-0.5,0-0.9,0.1-1.4c-0.2-0.4-0.3-0.7-0.5-1.1c-0.8-0.2-1.6-0.2-2.5,0
		c0.1-1.6-0.3-3-2.2-3.2l0,0c1.5-2,0.9-4-0.8-5c-1.7-1.1-1.3,1.7-2.5,2.1c-0.4-2.1-1.7-2.9-3.7-2.6C87.9,14,90,13.5,89,12.5
		c-0.7-0.7-1.9-0.4-2.9-0.1c-0.6,0.2-1.2,0.3-1.8,0.5c-0.3,0-0.5,0-0.8,0c0.2-4.2-1.8-6.1-6-5.5c-0.4,0.1-0.8,0-1.1,0l-0.2,0.1
		c-0.6-0.4-1.3-0.7-1.9-1.1c-0.9-0.7,0.1-2.4-0.4-2.3c-4.3,0.8-3.2-1.8-3-4C70.4,0,70-0.1,69.6-0.2c-0.4,0.3-0.8,0.4-1.1,0.4
		C63.6-0.8,58.8,0,54,0.5c-1.3,0.1-2.9,0.5-4-0.7c0-0.2,0-0.3,0-0.4c-1.5,0.5-3.1,0.8-4.7,0.8c-1,0-1.9-0.1-2.8-0.3
		c-0.1,0-0.3,0-0.4,0c-0.2,0-0.3,0-0.5,0c-0.1,0.4-0.3,0.8-0.3,1.3h3.5c0.6,0.2,0.6,0.8,0.6,1.3c-2.3,0.3-4.7,0.3-6.9,1.3
		c-6.2-3.4-8.3-2.6-9.4,3.7c-0.6,0.3-1.2,0.5-1.8,0.8c-2.4-0.3-4.7-0.9-7.1-0.7c-2.1,0.2-2,1.6-1.9,3c0.2,2.2,1.3,1.2,2.3,0.6
		c0.9-0.6,1.4,0,1.8,0.7c-0.1,0.4-0.2,0.7-0.3,1.1c-5.7,3.7-9.5,9.3-13.3,14.8c-4.8,0.2-5.3,0.6-4.4,5.3c0.3,1.4-0.2,2.7,0.2,4
		c0.1,0.3,0.1,0.5,0.2,0.8C0.7,56,3.8,72.4,17.3,86.1c-0.4,1-1.2,2.1,0.1,3.1c2.4,1.6,0.7,6,4.6,6.6c-0.4,5.1,3.4,3.3,5.8,3.3
		c2,0,4.8,1.4,5.9-1.8l9.2,2.2c1.2,1.1,2.6,0.7,4,0.5c3.6,0.1,7.3,0.1,10.9,0.2c3.3,0.9,6.7,1.4,10.1,1.3c0.8,0,1.7,0.1,2-0.8
		c1-3.4,3.3-4.6,6.7-4.2c0.1,0,0.3-0.9,0.4-1.3c0.3-0.3,0.6-0.5,1-0.8c0.2,0.7-0.4,2.1,0.8,2c1.2-0.2,0.5-1.6,0.8-2.5
		c0.8,0,1.5,0,2.3-0.1c3.2,1.7,2.6-0.6,2.4-2.3c0.9,0.7,1.5,1.2,2.1,1.5c1.2-2.9,3.3-5.3,5.9-7.1c-0.6,0-1.3,0-1.9,0
		c0-2.2,0.3-4.3,3.2-4.7c1.5,0.3,2.8,0.1,3.6-0.8c0.2-0.5,0.4-1,0.6-1.5c0.1-0.3,0.2-0.5,0.3-0.8c0,0,0-0.1,0-0.1
		c0.1-1.4,0.7-2.2,1.6-2.9c0.3-0.5,0.7-0.9,1-1.3c-0.8-0.7-1.7-0.3-2.5-0.5c0-1.3,0-2.7,0.1-4c0-0.2,0-0.4,0-0.7
		c1.3-0.1,2.6-0.1,2.5-2c-0.1-1.6,0.2-3.3,0.3-4.9c1.1-1.1,1.2-2.5,1.2-3.9c0.4-4.4,1.4-8.8-0.1-13.3
		C102.2,43.2,102.4,41.5,101.2,40.1z"/>
	<path class="st0" d="M37.5,109.1c-2-1-2.6-4-5-5c-1.2-0.5-2.6-0.2-2.6,1.8c0,1.4-0.2,2.8-0.6,4.2c-0.5,2.1,1.5,3.2,2.6,4.1
		C33.6,115.4,37.7,111.9,37.5,109.1z"/>
	<path class="st0" d="M91.5,13.3c-0.2,0-0.4,0-0.6-0.1c0.1,0.1,0.2,0.2,0.3,0.2C91.3,13.5,91.4,13.4,91.5,13.3z"/>
	<path class="st1" d="M27.3,8.2C27.9,8,28.4,7.7,29,7.5c3.1-1.2,6.2-2.5,9.4-3.7c2.2-1,4.6-1,6.9-1.3c5.8-0.9,11.5,0.3,17.3,0.5
		c1.1,0,2.5-0.3,2.6,1.5c-0.6,1.7,0.4,2.5,1.7,2.8c3.1,0.7,3.4,2.9,3.5,5.6c0.1,3.4-0.8,7,0.7,10.3c0.1,0.7,0.1,1.5,0.4,2.2
		c0.5,1.2,1,2.6,2.7,2.1c1.8-0.5,1.7-2,1.5-3.4c-0.1-0.6-0.5-1.2-0.7-1.8c0.4-0.2,1.1-0.3,1.3-0.7c0.6-1.5,1.2-2.9,3.3-2.1
		c1.8,0.7,2.6,1.9,2.5,3.8c-0.1,1.9,0.1,3.8-1.9,5.8c3.5-0.5,5.1,1.2,6.5,3.2c-1.1,3.6-1.5,7,1.3,10.1c0.5,0.6,1,1.4,1.8,1.2
		c1-0.2,0.7-1.2,0.8-1.9c0.2-1.1-0.6-2.7,1.4-3.1c0.1,0.7,0.2,1.5,0.4,2.2c-1.3,0.9-0.9,1.3,0.4,1.6c0.3,0.8,0.5,1.6,0.8,2.5
		c-1.7,1.1-1.4,2.1,0.2,2.9c-0.1,3.4,0.2,6.8-0.7,10.2c-1.4-1.1-0.9-2.6-0.8-3.9c0.2-2-0.7-3.5-1.8-4.9c-1-1.5-2.2-1.7-3.4-0.2
		c-2.7,3.4-3.8,7.1-3.4,11.5c0.2,3.2,5,1.3,4.5,4.2c-0.4,2-3.2,3.5-1.3,6c-1.3,3-4.2,4.9-5.3,8c-0.1,0.2-0.4,0.2-0.7,0.3
		c-3.6,0.3-4.3,3.3-4.4,5.7c-0.1,4-2.6,4.5-5.2,4.3c-3-0.3-5.8,0.2-8.7,0.6c-0.8,0.1-1.7-0.6-2.1,0.8c-0.5,2,1.2,3,1.9,4.4
		c0.4,0.8,1.4,0.5,2-0.1c0.5-0.5,1.6-0.5,1.3-1.5c-0.2-0.6-2.3-0.8-0.3-1.6c1-0.4,2.4-0.7,3.2,0.5c0.6,0.9-0.1,1.7-0.8,2.4
		c-1,1.1-2.2,2.2-3.5,2.2c-4.8,0-9.2,2.7-14.2,1.8c-1.2-0.2-2.7-0.4-3,1.5c-1.4,0.2-2.8,0.6-4-0.5c-0.1-0.7,1.7-1.2,0.5-1.7
		c-4.3-1.9-8.6-3.5-13-5.2c-1.1-0.4-2-0.4-2.8,0.6L27.4,93c1.1-3-1.8-3.4-3.2-4.3c-1.3-0.9-1.3,1-1.4,1.9c-2.3-0.9-3.4-3.4-5.5-4.5
		C3.8,72.4,0.7,56,4.7,37.7c0.8,0.4,1,1.1,1,2c0.1,4.2-0.1,8.5,1.4,12.6c0.7,2,2.8,3.1,2.5,5.5c-0.3,2.7,1.8,4.4,2.9,6.6
		c1.5,3,4.2,1.6,6.5,1.4c0.8-0.1,1.6-0.1,2.3,0c1.7,0.2,1.6,1.8,2,3c0.4,1.2-0.4,2-1.5,2.3c-1.9,0.5-4.1,0.7-3.2,3.6
		c1,2.8,1.8,5.8,6,5.2c3.1-0.5,4.4-2.6,2.7-5.1c-0.7-1.1-2.3-2.2-1-3.3c1.9-1.6,4.2-2.7,6.5-3.7c0.6-0.3,0.7,0.9,0.8,1.5
		c0.1,1.5-0.8,2.3-2,3c-1.7,1.1-2.9,2.4-0.4,4.1c1,0.7,1.1,1.8,0.2,2.7c-1,1-2.6,2-1,3.4c1.3,1.1,2.9,0.4,4.2-0.8
		c1.2-1.2,3.2-2.8,4.3-2.2c3.9,1.9,6.9-1.7,7.1-3c0.3-3.1-1-6.3,0.5-9.4c-2.9-0.7-2.4-3.1-3-5.2c-0.4-1.3-1.8-2.9-3.4-2.5
		c-1.9,0.6-1.6,2.1-0.6,3.7c0.8,1.4,0.7,3.1-0.1,4.8c-3.2-4-5.1-8.4-8.2-12.1c-3-3.6-4-8.1-2-12.7c0.5-1.1,1-2.2,2.5-2.1
		c2.7,0.2,5.3-0.5,8,0.7c2.6,1.3,5.3,0,6.8-2.1c1.5-2.1-0.1-3.8-2.1-5c-2-1.2-1.2-2.3,0.4-3.1c2.6-1.2,4.7-3.1,7.3-4.3
		c1.5-0.8,4.1-2.4,1.3-4.7c-2.4-2-4.9-3.8-7.5-5.5c-2.6-1.7-5.3-1.3-8.4-0.7c-5.2,0.9-8.7,3.4-11,8c-0.2,0.3-0.5,0.6-0.8,0.8
		c-1.8,1.7-3.6,0.1-3.4-1.1c0.4-2.4,0.2-5.8,2.8-7c2.7-1.2,4.6-3.8,8-3.6c0.7,0,2-0.5,1.6-1.7c-0.3-1-1.3-1.3-2.3-1.1
		c-2.3,0.5-4.4,1.4-6.3,2.8c-1.3,0.9-3.2,2.4-4.2-0.6c0.1-0.4,0.2-0.7,0.3-1.1C23.9,10.6,26,10,27.3,8.2z M71.6,39
		c0.6-1.7,2.6-2.7,2.3-4.7c-0.7-4.3-8.1-10.1-12.3-9.7c-0.7,0.1-1.4,0.5-2,1c-2.9,2.4-3.5,5.6-3.1,9.1c0.4,3.2,2.3,5.4,5.8,5.8
		c1.3,0.1,2.4,0.8,3.7,1.2c0.7,0.2,1.4,0.9,0.8,1.3c-3.9,3.1-0.1,6.1,0,9.1c0,1.8,0.9,3.8,3.6,3.6c1.5-0.1,2.4,0.7,1.9,2.5
		c-0.3,1.1,0.3,1.7,1.3,1.9c1.2,0.2,1.6-0.7,1.9-1.6c0.3-1,0.4-2,0.4-3c-0.3-3.2,1.9-3.8,3.9-2.7c3.2,1.8,3-0.6,3.1-2.2
		c0.2-3.3-0.3-6.2-1.8-9.4c-1.5-3.3-2.5-3.2-4.9-1.8C74.3,40.5,72.9,40.1,71.6,39z M67.8,13.5c-0.7-1.3-2.1-2-3.7-2.1
		c-6.7-0.2-13.4,0.4-19.9-2.3c-1.3-0.6-2.7,0.5-3.8,1.5c-0.5,0.5-0.6,1.3-0.1,1.8c1.1,1,2.6,0.8,3.7,0.3c3.3-1.3,5.8-0.1,8.1,2
		c1.3,1.2,2.8,2,4.2,1.1c3-1.7,5.9-1.6,8.9-0.8C66.4,15.4,67.3,15.1,67.8,13.5z M55.1,48.3c2.5,0.5,3.4-0.3,3.5-2
		c0.1-3.4-2.7-4.1-5-5c-1.3-0.5-2.7,0.3-2.6,1.9C51,46.3,52.4,48.4,55.1,48.3z M80.4,67.3c-0.1-1.4,0.3-2.8-1.7-3
		c-2.4-0.2-3.3,1.4-3.6,3.2c-0.2,1.6,1,2.8,2.5,2.8C79.4,70.3,80.2,68.9,80.4,67.3z M44.8,53.3c1.3-0.2,2.2-0.8,2-2.2
		c-0.1-1-0.9-1.6-1.9-1.5c-1.2,0.1-2.2,0.9-2.3,2.1C42.5,53.1,43.7,53.3,44.8,53.3z M49.9,54.2c-0.8,0.2-1.9,0.3-1.8,1.7
		c0.1,0.8,0.8,1.4,1.6,1.3c1-0.1,2.2-0.3,2.3-1.5C52.1,54.5,51,54.3,49.9,54.2z"/>
	<path class="st2" d="M22,12.9c1,3,2.9,1.5,4.2,0.6c2-1.3,4.1-2.3,6.3-2.8c0.9-0.2,2,0,2.3,1.1c0.4,1.2-0.9,1.7-1.6,1.7
		c-3.3-0.2-5.3,2.5-8,3.6c-2.7,1.1-2.4,4.5-2.8,7c-0.2,1.2,1.5,2.8,3.4,1.1c0.3-0.3,0.7-0.5,0.8-0.8c2.3-4.6,5.8-7,11-8
		c3.1-0.6,5.8-1,8.4,0.7c2.6,1.7,5.1,3.5,7.5,5.5c2.8,2.3,0.2,3.9-1.3,4.7c-2.6,1.3-4.7,3.1-7.3,4.3c-1.6,0.8-2.4,1.9-0.4,3.1
		c2,1.2,3.6,2.9,2.1,5c-1.5,2.1-4.2,3.4-6.8,2.1c-2.7-1.3-5.3-0.6-8-0.7c-1.4-0.1-2,1-2.5,2.1c-2,4.7-1,9.1,2,12.7
		c3.1,3.7,5,8.1,8.2,12.1c0.9-1.7,1-3.5,0.1-4.8c-1-1.6-1.3-3.1,0.6-3.7c1.6-0.5,3,1.1,3.4,2.5c0.6,2,0.1,4.5,3,5.2
		c-1.5,3.1-0.2,6.4-0.5,9.4c-0.1,1.3-3.1,4.9-7.1,3c-1.2-0.6-3.1,1-4.3,2.2c-1.3,1.2-2.9,1.9-4.2,0.8c-1.6-1.4,0-2.4,1-3.4
		c0.9-0.9,0.8-2-0.2-2.7c-2.5-1.7-1.3-3,0.4-4.1c1.1-0.8,2.1-1.5,2-3c-0.1-0.6-0.1-1.8-0.8-1.5c-2.3,1-4.6,2.1-6.5,3.7
		c-1.3,1.1,0.3,2.2,1,3.3c1.7,2.5,0.4,4.6-2.7,5.1c-4.2,0.6-5-2.4-6-5.2c-1-2.8,1.2-3.1,3.2-3.6c1.1-0.3,1.9-1.1,1.5-2.3
		c-0.4-1.1-0.3-2.7-2-3c-0.8-0.1-1.6-0.1-2.3,0c-2.3,0.2-5,1.6-6.5-1.4c-1.1-2.1-3.2-3.9-2.9-6.6c0.2-2.4-1.9-3.5-2.5-5.5
		c-1.5-4.2-1.3-8.4-1.4-12.6c0-0.8-0.2-1.5-1-2c-0.1-0.3-0.1-0.5-0.2-0.8c2.8-2.5,2.8-6.2,4.2-9.3C12.5,22.1,16.3,16.6,22,12.9z"/>
	<path class="st3" d="M92.2,40.9c-0.1-0.7-0.2-1.5-0.4-2.2c-0.1-2.4-0.8-4.6-2.6-6.4c0.2-0.5,0.4-1,0.6-1.5c2.3,1.1,4.1,0.9,4.9-1.9
		c0.1-0.2,0.6-0.3,1-0.4c1,2.5,0.9,5.5,4.1,6.6c0,0,0,0,0,0c-0.6,1.7,0.1,3.4,0,5.1c0.3,1.6,0.7,3.1,1,4.7c0.6,4.4,0.2,8.7,0,13.1
		c-0.3,1.3-0.5,2.7-0.8,4c0.3,2.5-1.7,4.5-1.7,7c0,0.2,0,0.4,0,0.7c-2,3-4.2,5.8-4.7,9.4l0,0c-3.8,2.7-6.8,6.2-9.4,10.1c0,0,0,0,0,0
		c-1.5,0.2-2.9,0.5-3.1,2.4l0,0c-1.6-0.2-2.5,1.2-3.8,1.7c-0.3,0.2-0.6,0.5-0.8,0.7c-0.5,0.5-1,1-1.6,1.5c-1.3-0.7-2.6,1.5-3.9-0.1
		c1.3-1.2,2.7-2.3,4-3.5c7.8-6.5,13.4-14.4,15.9-24.4c1.8-2.9,1.3-6.2,2-9.3c0.9-3.3,0.6-6.8,0.7-10.2c0.2-1,0.3-2-0.2-2.9
		c-0.3-0.8-0.5-1.6-0.8-2.5C92.8,41.9,92.8,41.3,92.2,40.9z M94.6,37.3c0.2,0.1,0.4,0.2,0.7,0.3c0.1-0.2,0.3-0.5,0.3-0.6
		c-0.1-0.2-0.4-0.2-0.6-0.3C94.8,36.8,94.7,37,94.6,37.3z"/>
	<path class="st4" d="M90.9,67.4c-2.4,10-8.1,17.9-15.9,24.4c-1.4,1.1-2.7,2.3-4,3.5c-2.1-0.3-3.2,1.4-4.5,2.4c-2.6,2-6,0.7-8.6,2.5
		c-3.6-0.1-7.3-0.1-10.9-0.2c0.3-1.9,1.8-1.7,3-1.5c4.9,0.9,9.4-1.8,14.2-1.8c1.4,0,2.6-1.1,3.5-2.2c0.6-0.7,1.4-1.4,0.8-2.4
		c-0.8-1.2-2.2-0.9-3.2-0.5c-2,0.8,0.1,1.1,0.3,1.6c0.3,1-0.9,1-1.3,1.5c-0.6,0.6-1.6,0.9-2,0.1c-0.7-1.4-2.4-2.4-1.9-4.4
		c0.3-1.4,1.3-0.7,2.1-0.8c2.9-0.4,5.7-0.9,8.7-0.6c2.6,0.2,5.1-0.3,5.2-4.3c0-2.4,0.8-5.4,4.4-5.7c0.2,0,0.6-0.1,0.7-0.3
		c1.2-3.1,4-5,5.3-8C88.8,70.6,88.2,66.9,90.9,67.4z"/>
	<path class="st5" d="M73.7,4c-4.3,0.8-3.2-1.8-3-4C70.4,0,70-0.1,69.6-0.2c-0.4,0.3-0.8,0.4-1.1,0.4C63.6-0.8,58.8,0,54,0.5
		c-1.3,0.1-2.9,0.5-4-0.7C49.3,0.1,48.4,0,47.7,0c-0.6,0.1-1.2,0.2-1.8,0.2c-0.4,0.2-0.8,0.5-1.2,1.1c0.6,0.2,0.6,0.8,0.6,1.3
		c5.8-0.9,11.5,0.3,17.3,0.5c1.1,0,2.5-0.3,2.6,1.5c2,1,3.9,2,5.9,2.9c1.1-1.2,2.1-0.2,3.2,0c0-0.3,0-0.7-0.1-1
		C73.2,5.7,74.2,3.9,73.7,4z"/>
	<path class="st6" d="M17.3,86.1c2.1,1.1,3.2,3.6,5.5,4.5c1.7,0.5,2.4,2.9,4.6,2.4c0,0,0.3,0.2,0.3,0.2c1.2,2.6,4.5,2,6,4.2
		c-1.1,3.2-3.9,1.8-5.9,1.8c-2.3,0-6.2,1.8-5.8-3.3c-3.8-0.6-2.2-5-4.6-6.6C16.1,88.3,16.9,87.2,17.3,86.1z"/>
	<path class="st7" d="M71,7.4c1.1-1.2,2.1-0.2,3.2,0c0.6,0,1.2,0.1,1.9,0.1c0,0,0.2-0.1,0.2-0.1c1.6,2.9,4.4,4.1,7.2,5.5
		c0,0,0,0,0,0c0.3,0.9,0.6,0.6,0.8,0c0.6-0.2,1.2-0.3,1.8-0.5c1-0.3,2.2-0.6,2.9,0.1c0.9,1-1.1,1.5-0.9,2.6
		c-0.4,0.6-2.5-0.5-1.5,1.5c-0.9,0.6-0.9,1.6-0.9,2.5l0,0c-0.9,0.6-0.7,1.5-0.8,2.4c-2.4-2.5-4.4-5.5-6.9-8
		C75.8,11.4,72.6,10.3,71,7.4z"/>
	<path class="st7" d="M37.5,109.1c0.2,2.9-3.9,6.4-5.6,5c-1.1-0.8-3.2-2-2.6-4.1c0.4-1.4,0.6-2.8,0.6-4.2c0-1.9,1.4-2.3,2.6-1.8
		C34.9,105.1,35.5,108,37.5,109.1z"/>
	<path class="st5" d="M57.9,100.2c2.6-1.8,6-0.5,8.6-2.5c1.3-1,2.4-2.8,4.5-2.4c1.3,1.6,2.6-0.6,3.9,0.1c0.7,0,1.4-0.1,2.1-0.1
		c-0.1,0.5-0.3,1.3-0.4,1.3c-3.4-0.4-5.7,0.8-6.7,4.2c-0.3,0.9-1.2,0.8-2,0.8C64.5,101.6,61.2,101.1,57.9,100.2z"/>
	<path class="st8" d="M92.3,86c-0.6,0-1.3,0-1.9,0c-2.6,0-3.5,3.4-6.2,3.1c0,0.7-0.1,1.5-0.1,2.2c0,0,0.2,0.2,0.2,0.2
		c0.9,0.7,1.5,1.2,2.1,1.5C87.6,90.2,89.7,87.8,92.3,86z"/>
	<path class="st4" d="M33.7,97.3c-1.5-2.2-4.8-1.6-6-4.2c0.8-0.9,1.7-1,2.8-0.5c4.3,1.7,8.7,3.3,13,5.2c1.1,0.5-0.7,1-0.5,1.7
		C39.8,98.8,36.8,98.1,33.7,97.3z"/>
	<path class="st9" d="M86.7,16.6c-1-2,1.1-1,1.5-1.5c2.1-0.3,3.4,0.5,3.7,2.6c-0.2,2.4,1.9,2.2,3.3,2.9c0,0,0,0,0,0
		c0,1.6,0,3.2-0.1,4.7c-2.4,0.2-2.2-2.6-3.8-3.3c-0.4-0.5-0.8-0.9-1.5-0.6l0,0c0.6-1.8-1.5-2.4-1.7-3.8c-0.3-0.6-0.8-0.8-1.4-0.9
		L86.7,16.6z"/>
	<path class="st5" d="M38.4,3.7C35.3,5,32.2,6.2,29,7.5C30.1,1.2,32.2,0.3,38.4,3.7z"/>
	<path class="st6" d="M27.3,8.2c-1.2,1.8-3.3,2.4-5,3.6c-0.4-0.7-0.9-1.3-1.8-0.7c-1,0.6-2.1,1.6-2.3-0.6c-0.1-1.4-0.2-2.8,1.9-3
		C22.6,7.3,24.9,8,27.3,8.2z"/>
	<path class="st5" d="M8.7,27.7c-1.4,3.1-1.5,6.8-4.2,9.3c-0.4-1.3,0.1-2.6-0.2-4C3.4,28.3,3.9,27.9,8.7,27.7z"/>
	<path class="st7" d="M100.4,28.7c-0.1-0.7-0.2-1.5-0.1-2.2v-0.2c0-0.5,0-0.9,0.1-1.4c-0.2-0.4-0.3-0.7-0.5-1.1
		c-0.8-0.2-1.6-0.2-2.5,0c0,0.3,0,0.5,0,0.8c1,0,2.1-0.1,2.2,1.3c0.1,1-0.3,1.7-1.4,1.8c-0.1,2,0.2,3.8,1.4,5.5
		c1.1-0.9,0.8-1.9,0.5-3C100,29.3,100.1,28.9,100.4,28.7z"/>
	<path class="st9" d="M90.4,86c-2.6,0-3.5,3.4-6.2,3.1c2.6-3.9,5.6-7.4,9.4-10.1c0,0.8,0,1.6,0,2.4C90.7,81.7,90.5,83.8,90.4,86z"/>
	<path class="st3" d="M42.4-0.1c-0.1,0-0.3,0-0.4,0c-0.2,0-0.3,0-0.5,0c-0.1,0.4-0.3,0.8-0.3,1.3c1.2,0,2.3,0,3.5,0
		c0.3-0.6,0.7-0.9,1.2-1.1c-0.2,0-0.4,0-0.6,0C44.3,0.2,43.3,0.1,42.4-0.1z"/>
	<path class="st3" d="M97.8,79.1c0.1-0.3,0.2-0.5,0.3-0.8c0,0,0-0.1,0-0.1c0.1-1.4,0.7-2.2,1.6-2.9c0.3-0.5,0.7-0.9,1-1.3
		c-0.8-0.7-1.7-0.3-2.5-0.5c-1.9,1.5-1.1,5.3-4.6,5.5c0,0.8,0,1.5,0,2.3c1.5,0.3,2.8,0.1,3.6-0.8C97.3,80.1,97.5,79.6,97.8,79.1z"/>
	<path class="st9" d="M83.5,12.9c-2.8-1.4-5.6-2.6-7.2-5.5c0.4,0,0.8,0.1,1.1,0C81.8,6.8,83.7,8.7,83.5,12.9z"/>
	<path class="st9" d="M100.8,58c0.2-4.4,0.6-8.7,0-13.1c0.5,0,0.9,0,1.4-0.1c1.5,4.4,0.4,8.8,0.1,13.3C101.7,58,101.3,58,100.8,58z"
		/>
	<path class="st9" d="M98.2,73.6c-1.9,1.5-1.1,5.3-4.7,5.5c0.5-3.7,2.8-6.5,4.7-9.4C98.3,70.9,98.2,72.3,98.2,73.6z"/>
	<path class="st6" d="M95.2,20.6c-1.4-0.7-3.5-0.5-3.3-2.9c1.2-0.4,0.8-3.2,2.5-2.1C96.1,16.7,96.7,18.7,95.2,20.6z"/>
	<path class="st9" d="M98.4,27.7c-0.1,2,0.2,3.8,1.4,5.5c0,0.6,0,1.3,0.1,1.9c-3.2-1-3.2-4.1-4.1-6.6c0.3-0.3,0.7-0.7,1-1
		C97.3,27.5,97.8,27.6,98.4,27.7z"/>
	<path class="st9" d="M98.2,68.9c0-2.5,2.1-4.4,1.7-7c0.4,0,0.7,0,1.1,0c-0.1,1.6-0.4,3.3-0.3,4.9C100.8,68.9,99.6,68.9,98.2,68.9z"
		/>
	<path class="st9" d="M77.1,95.2c-0.7,0-1.4,0.1-2.1,0.1c0.5-0.5,1-1,1.6-1.5c0.3-0.2,0.6-0.5,0.8-0.7c1.3-0.5,2.2-1.8,3.8-1.7
		c0.3,0.8,0.5,1.6,0.8,2.4c-0.8,0-1.5,0-2.3,0.1c-0.5,0.2-1.1,0.4-1.6,0.5C77.7,94.7,77.4,95,77.1,95.2z"/>
	<path class="st6" d="M97.5,23.8c0,0.3,0,0.5,0,0.8c-0.3,0.2-0.5,0.5-0.8,0.7c-0.5,0-1.1,0-1.6,0l0,0c0-1.6,0-3.2,0.1-4.7
		C97.2,20.9,97.5,22.2,97.5,23.8z"/>
	<path class="st8" d="M81.9,93.9c-0.3-0.8-0.5-1.6-0.8-2.4c0,0,0,0,0,0c1,0,2-0.1,3-0.1c0,0,0.2,0.2,0.2,0.2
		C84.5,93.3,85.2,95.6,81.9,93.9z"/>
	<path class="st10" d="M102.1,44.8c-0.5,0-0.9,0-1.4,0.1c-0.3-1.6-0.7-3.1-1-4.7c0.5,0,1,0,1.4-0.1
		C102.4,41.5,102.2,43.2,102.1,44.8z"/>
	<path class="st10" d="M101,62c-0.4,0-0.7,0-1.1,0c0.3-1.3,0.5-2.7,0.8-4c0.5,0,0.9,0.1,1.4,0.1C102.2,59.5,102.1,60.9,101,62z"/>
	<path class="st9" d="M101.2,40.1c-0.5,0-1,0-1.4,0.1c0.1-1.7-0.6-3.4,0-5.1C101.1,36.5,101.2,38.3,101.2,40.1z"/>
	<path class="st8" d="M78,94.5c0.5-0.2,1.1-0.4,1.6-0.5c-0.2,0.9,0.5,2.3-0.8,2.5C77.6,96.6,78.2,95.2,78,94.5z"/>
	<path class="st9" d="M76.1,7.5c-0.6,0-1.2-0.1-1.9-0.1c0-0.3,0-0.7-0.1-1C74.8,6.8,75.4,7.1,76.1,7.5z"/>
	<path class="st7" d="M91.5,13.4c-0.1,0.1-0.2,0.2-0.3,0.2c-0.1,0-0.2-0.1-0.3-0.2C91.2,13.3,91.3,13.3,91.5,13.4z"/>
	<path class="st9" d="M84.3,12.9c-0.3,0.6-0.6,0.9-0.8,0C83.7,12.9,84,12.9,84.3,12.9z"/>
	<path class="st2" d="M71.6,39c1.4,1.1,2.7,1.5,4.3,0.5c2.4-1.5,3.4-1.5,4.9,1.8c1.5,3.2,2,6.2,1.8,9.4c-0.1,1.6,0.1,4-3.1,2.2
		c-2-1.1-4.1-0.5-3.9,2.7c0.1,1-0.1,2.1-0.4,3c-0.2,0.8-0.7,1.8-1.9,1.6c-1-0.2-1.7-0.8-1.3-1.9c0.5-1.8-0.3-2.6-1.9-2.5
		c-2.7,0.2-3.6-1.8-3.6-3.6c-0.1-3-3.9-6.1,0-9.1c0.6-0.5-0.1-1.1-0.8-1.3c-1.2-0.4-2.4-1-3.7-1.2c-3.5-0.4-5.3-2.6-5.8-5.8
		c-0.5-3.4,0.2-6.7,3.1-9.1c0.6-0.5,1.3-0.9,2-1c4.3-0.4,11.6,5.4,12.3,9.7C74.2,36.4,72.1,37.4,71.6,39z"/>
	<path class="st4" d="M71,7.4c1.5,3,4.8,4,7.1,6.2c2.6,2.5,4.5,5.4,6.9,8c1,1.8,2,3.6,3.1,5.4c-0.4,1.7,1,2.7,1.8,3.9
		c-0.2,0.5-0.4,1-0.6,1.5c-0.9,0-1.8,0.1-2.7,0.1c-1.4-2-3-3.7-6.5-3.2c1.9-2,1.8-3.9,1.9-5.8c0.1-2-0.7-3.1-2.5-3.8
		c-2.1-0.8-2.7,0.6-3.3,2.1c-0.1,0.3-0.8,0.5-1.3,0.7c-1.4-0.3-2.6,0.6-3.9,0.8c-1.5-3.3-0.7-6.9-0.7-10.3C70.3,10.1,70,8,66.9,7.3
		c-1.3-0.3-2.4-1.2-1.7-2.8C67.1,5.4,69.1,6.4,71,7.4z"/>
	<path class="st11" d="M90.9,67.4c-2.7-0.5-2.1,3.2-4.3,3.3c-1.9-2.6,0.9-4,1.3-6c0.6-2.9-4.2-1.1-4.5-4.2
		c-0.3-4.4,0.7-8.1,3.4-11.5c1.2-1.5,2.4-1.3,3.4,0.2c1,1.5,1.9,3,1.8,4.9c-0.1,1.3-0.6,2.9,0.8,3.9C92.2,61.2,92.7,64.5,90.9,67.4z
		"/>
	<path class="st2" d="M67.8,13.5c-0.5,1.6-1.4,1.9-2.5,1.6c-3.1-0.8-6-1-8.9,0.8c-1.4,0.8-2.9,0-4.2-1.1c-2.3-2.1-4.9-3.3-8.1-2
		c-1.1,0.5-2.6,0.7-3.7-0.3c-0.5-0.4-0.4-1.3,0.1-1.8c1.1-1,2.5-2,3.8-1.5c6.4,2.7,13.2,2.1,19.9,2.3C65.6,11.5,67,12.2,67.8,13.5z"
		/>
	<path class="st11" d="M86.6,32.4c0.9,0,1.8-0.1,2.7-0.1c1.7,1.8,2.5,3.9,2.6,6.4c-2,0.3-1.2,1.9-1.4,3.1c-0.1,0.7,0.2,1.7-0.8,1.9
		c-0.9,0.2-1.3-0.6-1.8-1.2C85.1,39.4,85.5,35.9,86.6,32.4z"/>
	<path class="st2" d="M55.1,48.3c-2.7,0.1-4.1-2-4.2-5.1c-0.1-1.6,1.4-2.4,2.6-1.9c2.3,0.8,5.1,1.5,5,5
		C58.5,48.1,57.6,48.8,55.1,48.3z"/>
	<path class="st2" d="M80.4,67.3c-0.2,1.6-1,3-2.8,3c-1.5,0-2.7-1.2-2.5-2.8c0.3-1.9,1.2-3.4,3.6-3.2C80.6,64.5,80.3,65.9,80.4,67.3
		z"/>
	<path class="st2" d="M71,23.1c1.3-0.2,2.5-1.1,3.9-0.8c0.2,0.6,0.6,1.2,0.7,1.8c0.2,1.4,0.3,3-1.5,3.4c-1.6,0.4-2.2-1-2.7-2.1
		C71.2,24.7,71.2,23.9,71,23.1z"/>
	<path class="st2" d="M44.8,53.3c-1.1,0-2.2-0.2-2.2-1.5c0-1.2,1-2,2.3-2.1c1-0.1,1.8,0.5,1.9,1.5C47,52.5,46.1,53.1,44.8,53.3z"/>
	<path class="st4" d="M27.4,93c-2.2,0.5-2.9-1.9-4.6-2.4c0.1-1,0.1-2.8,1.4-1.9C25.6,89.6,28.5,90,27.4,93z"/>
	<path class="st2" d="M49.9,54.2c1.1,0.1,2.2,0.3,2.1,1.4c-0.1,1.2-1.3,1.4-2.3,1.5c-0.8,0.1-1.6-0.4-1.6-1.3
		C47.9,54.5,49,54.3,49.9,54.2z"/>
	<path class="st10" d="M93.4,45c0.5,0.9,0.4,1.9,0.2,2.9C91.9,47.1,91.6,46.1,93.4,45z"/>
	<path class="st11" d="M92.2,40.9c0.6,0.4,0.6,1,0.4,1.6C91.4,42.2,90.9,41.7,92.2,40.9z"/>
	<path class="st7" d="M89.8,30.8c-0.8-1.2-2.1-2.2-1.8-3.9c1.2,0.3,2.6,1.8,3.2-0.7c0.1-0.1,0.2-0.2,0.3-0.4
		c-0.1,0.1-0.2,0.2-0.4,0.3c-1.6-1.4,0.3-2.7,0.1-4.1c1.6,0.7,1.4,3.5,3.8,3.3c0,0,0,0,0,0c-0.2,1.7,0.8,1.1,1.6,0.8
		c0,0.4,0,0.9,0,1.3c-0.3,0.3-0.7,0.7-1,1c-0.3,0.1-0.9,0.2-1,0.4C93.9,31.7,92.2,32,89.8,30.8z"/>
	<path class="st9" d="M84.1,91.3c-1,0-2,0.1-3,0.1c0.2-1.9,1.6-2.2,3.1-2.4C84.2,89.9,84.1,90.6,84.1,91.3z"/>
	<path class="st8" d="M94.6,37.3c0.1-0.2,0.2-0.4,0.3-0.7c0.2,0.1,0.6,0.1,0.6,0.3c0.1,0.2-0.2,0.4-0.3,0.6
		C95.1,37.5,94.9,37.4,94.6,37.3z"/>
	<path class="st5" d="M77.3,93.1c-0.3,0.2-0.6,0.5-0.8,0.7C76.8,93.6,77,93.4,77.3,93.1z"/>
	<path class="st3" d="M91.2,26.2c-0.5,2.5-2,1.1-3.2,0.7c-1-1.8-2-3.6-3.1-5.4c0-0.9-0.2-1.8,0.8-2.4c0.1,0.5,0.1,1.1,0.7,1.2
		c0.1,0,0.4-0.3,0.4-0.4c-0.1-0.7-0.7-0.7-1.2-0.7c0-0.9,0-1.9,0.9-2.5c0,0,0,0.1,0,0.1c0.2,0.7,0.8,0.8,1.4,0.9
		c0.2,1.4,2.3,2,1.7,3.8c-0.7,0.2-1.6-0.2-2,0.7c-0.2,0.4,0.2,0.7,0.6,0.7c1.1,0.1,1.2-0.7,1.4-1.5c0.7-0.3,1.1,0.1,1.5,0.6
		C91.5,23.4,89.6,24.7,91.2,26.2L91.2,26.2z"/>
	<path class="st7" d="M88,17.6c-0.6,0-1.2-0.2-1.4-0.9C87.3,16.8,87.8,17,88,17.6z"/>
	<path class="st0" d="M96.7,27.5c0-0.4,0-0.9,0-1.3c0-0.3,0-0.5,0-0.8c0.3-0.2,0.5-0.5,0.8-0.7c1,0,2.1-0.1,2.2,1.3
		c0.1,1-0.3,1.7-1.4,1.8C97.8,27.6,97.3,27.5,96.7,27.5z"/>
	<path class="st9" d="M96.7,25.4c0,0.3,0,0.5,0,0.8c-0.8,0.3-1.8,0.9-1.6-0.8C95.6,25.4,96.2,25.4,96.7,25.4z"/>
	<path class="st6" d="M91.2,26.2c0.1-0.1,0.2-0.2,0.4-0.3C91.4,26,91.3,26.1,91.2,26.2C91.2,26.2,91.2,26.2,91.2,26.2z"/>
	<path class="st7" d="M89.8,21.4c-0.2,0.7-0.4,1.6-1.4,1.5c-0.4,0-0.8-0.3-0.6-0.7C88.1,21.2,89.1,21.6,89.8,21.4
		C89.8,21.4,89.8,21.4,89.8,21.4z"/>
	<path class="st7" d="M85.8,19.2c0.5,0.1,1.1,0.1,1.2,0.7c0,0.1-0.3,0.4-0.4,0.4C85.9,20.2,85.9,19.7,85.8,19.2
		C85.8,19.2,85.8,19.2,85.8,19.2z"/>
</g>
<g>
	<path class="st12" d="M90.8,126.5H15c-2.2,0-4-1.8-4-4v-23c0-2.2,1.8-4,4-4h75.8c2.2,0,4,1.8,4,4v23
		C94.8,124.7,93,126.5,90.8,126.5z"/>
	<g>
		<path class="st13" d="M31.9,113c-0.1-2-0.1-4.4-0.1-6.8h-0.1c-0.5,2.1-1.2,4.4-1.8,6.4l-2,6.4H25l-1.8-6.4
			c-0.5-1.9-1.1-4.3-1.5-6.4l0,0c-0.1,2.2-0.2,4.8-0.3,6.8l-0.3,6.3h-3.4l1.1-16.5h5l1.6,5.5c0.5,1.9,1,4,1.4,5.9h0.1
			c0.5-1.9,1-4.1,1.6-5.9l1.8-5.5h4.9l0.9,16.5h-3.6L31.9,113z"/>
		<path class="st13" d="M53.7,110.9c0,5.4-3.3,8.7-8.1,8.7c-4.9,0-7.7-3.7-7.7-8.4c0-4.9,3.2-8.6,8-8.6
			C51,102.6,53.7,106.3,53.7,110.9z M41.8,111.1c0,3.2,1.5,5.5,4,5.5s4-2.4,4-5.6c0-3-1.4-5.5-4-5.5
			C43.3,105.5,41.8,107.9,41.8,111.1z"/>
		<path class="st13" d="M71.2,110.9c0,5.4-3.3,8.7-8.1,8.7c-4.9,0-7.7-3.7-7.7-8.4c0-4.9,3.2-8.6,8-8.6
			C68.5,102.6,71.2,106.3,71.2,110.9z M59.3,111.1c0,3.2,1.5,5.5,4,5.5c2.5,0,4-2.4,4-5.6c0-3-1.4-5.5-4-5.5
			C60.8,105.5,59.3,107.9,59.3,111.1z"/>
		<path class="st13" d="M73.7,119.3v-16.5H78l3.4,6c1,1.7,2,3.8,2.7,5.6h0.1c-0.2-2.2-0.3-4.4-0.3-6.9v-4.8h3.4v16.5h-3.9l-3.5-6.4
			c-1-1.8-2.1-3.9-2.9-5.8h-0.1c0.1,2.2,0.1,4.5,0.1,7.2v5h-3.3V119.3z"/>
	</g>
</g>
</svg>
