<?xml version="1.0" encoding="utf-8"?>
<!-- Generator: Adobe Illustrator 25.0.0, SVG Export Plug-In . SVG Version: 6.00 Build 0)  -->
<svg version="1.1" id="Layer_1" xmlns="http://www.w3.org/2000/svg" xmlns:xlink="http://www.w3.org/1999/xlink" x="0px" y="0px"
	 width="105.5px" height="140px" viewBox="0 0 105.5 140" enable-background="new 0 0 105.5 140" xml:space="preserve">
<g>
	<g>
		<defs>
			<path id="SVGID_1_" d="M9.1,24.3c2.3-3.5,5.1-6.7,8.2-9.6c6-5.4,12.8-9.3,20.6-11.5C40.2,2.5,42.6,2,45,1.7
				c3.1-0.4,6.1-0.6,9.2-0.4c7.2,0.3,14.1,2.1,20.6,5.3C87.5,12.9,97,24,101.2,37.5c0.8,2.5,1.3,5.1,1.7,7.6
				c0.4,2.5,0.5,4.9,0.5,7.4c0,21.9-13.8,41-33.8,48.3c-3.1,1.1-6.3,1.9-9.6,2.5c-3.4,0.5-6.9,0.7-10.4,0.6
				c-7.4-0.3-14.3-2.1-20.9-5.5C20.6,94.3,14.1,88.5,9.1,81c0,0,0,0,0-0.1c0-0.2,0.1-0.3,0.2-0.2c2.2,1.5,4.6,2.8,7.1,3.8
				c2.6,1,5.2,1.7,7.9,2.1c2,0.3,4.1,0.4,6.1,0.3c10.6-0.4,20.1-5.5,26.2-13.6c3-4,5.1-8.5,6.1-13.4c0.4-1.7,0.6-3.4,0.7-5.1
				c0.1-1.7,0.1-3.5-0.1-5.2c-0.4-4.6-1.7-9-3.9-13.1C55,28,47.2,21.9,38,19.4c-2.2-0.6-4.5-0.9-6.8-1.1c-1.7-0.1-3.3-0.1-5,0.1
				c-4.7,0.4-9.2,1.7-13.4,4c-1,0.5-2,1.2-3,1.8c-0.1,0-0.1,0-0.1,0.1l0,0c-0.1,0-0.2,0-0.2,0.1l0,0C9.4,24.4,9.2,24.5,9.1,24.3z"/>
		</defs>
		<clipPath id="SVGID_2_">
			<use xlink:href="#SVGID_1_"  overflow="visible"/>
		</clipPath>
		<g clip-path="url(#SVGID_2_)">
			<path fill="#688AC2" d="M3.3,67c-1.1-3-1.5-6.1-1.9-9.2c-0.6-5.3-0.2-10.5,0.9-15.7c0.1-0.6-0.1-1.2,0.3-1.7
				c0-0.4-0.2-0.8,0.4-1.1c1.5-0.1,2.1-0.8,2.1-2.1c-0.8,0.1-0.7,1.7-1.9,1.1C3.1,37,3.5,35.9,4.3,35l0,0c0.3-0.2-0.1-0.8,0.5-0.8
				c0.5,0.5,0.8,1.1,1.7,1.2c1.7,0.1,2.4-0.4,3-2.4c-0.6,0-0.8,0.4-1.1,0.8c-0.3,0.3-0.5,0.6-0.9,0.7c-0.4,0.1-0.8,0.1-1.1-0.2
				c-0.3-0.4,0.1-0.7,0.3-0.9C7,33,7.4,32.7,7.8,32.3c0.3-0.3,0.7-0.5,0.5-1c-0.2-0.4-0.6-0.5-1-0.6c-0.3,0-0.6,0-0.8-0.2
				c-0.1-0.2-0.1-0.3,0.1-0.5c0.2-0.3,0.5-0.7,0.7-1c0.1,0,0.2-0.1,0.2-0.1c1.4,1,2.8,2,3.5,3.7c-0.2,1-0.7,1.9-1.2,2.8
				C9,37,8.4,38.7,7.9,40.5c-0.5,2,0.4,3.8,2.2,4.4c1.8,0.6,3.7-0.4,4.4-2.4c0.6-1.7,1.2-3.5,2-5.2c0.7-1.4,0.9-1.4,2.1-0.4
				c4.8,4.2,11.8,3.1,15-2.4c1.8-3.2,1.5-8.9-2.2-11.8c-1.8-1.5-1.8-1.5,0.1-2.9c1.1-0.8,2.4-1.4,3.5-2.1c1.8-1.1,2.5-2.6,2-4.1
				c-0.6-2.2-2.9-3.2-5.1-2.1c-1.8,0.9-3.5,1.9-5.1,3c-2.9,2-5.5,4.4-7.9,6.9c-0.4,0.5-0.8,1-1.6,1c-0.6-0.3-0.5-0.8-0.6-1.3
				s0.1-0.9-0.1-1.4c-0.5,0.4-0.4,1-0.4,1.5s0.1,1-0.5,1.2c-0.5,0.2-0.8-0.2-1.1-0.5c-0.5-0.5-1.1-1-1.6-1.6
				c-0.2-0.5,0.2-0.6,0.5-0.9c6.3-7.1,13.8-12.3,22.9-15.2C44.3,1.6,52.3,1,60.5,2.3c0.7,0.1,1.3,0.3,2,0.5c0.3,0.5,0.2,1,0.1,1.5
				c-0.6,4.1,1.7,8,5,9.7c3.8,1.9,8,1.2,11-1.8c0.4-0.4,0.8-0.8,1.1-1.3c0.3-0.4,0.7-0.7,1.2-0.5c0.9,0.6,1.8,1.2,2.6,2
				c4.6,4.9,7.4,10.8,9.3,17.2c0.3,0.9,0.1,1.5-0.8,2c-1.2,0.7-1.6,1.6-1.3,2.6c0.3,1.1,1,1.6,2.5,1.8c1,0.1,1.4,0.8,1.3,2.2
				c0,1-0.6,1.2-1.5,1.1c-2.5-0.2-4.7,0.2-6.7,1.9c-2.5,2.2-3.4,5.6-2.3,8.8c1.1,3.1,4,5.2,7.3,5.3c1.8,0,1.9,0.2,1.5,1.9
				c-2.1,7.1-5.6,13.4-10.5,18.9c-1.5,1.7-3.1,3.3-4.9,4.7c-0.4,0.2-0.7,0.6-1.3,0.6c-0.6-0.2-0.7-0.7-0.8-1.2
				c-0.1-0.6,0-1.2-0.1-1.9C74.9,78.8,75,79.4,75,80c0,0.4-0.1,0.8-0.5,1c-0.5,0.2-0.8-0.1-1.1-0.4c-0.6-0.5-1.1-1.2-1.8-1.7
				c-0.2-0.1-0.4-0.3-0.7-0.1c-0.2,0.2,0,0.5,0.1,0.6c0.9,1.1,2.1,2,2.9,3.3c0,0.1,0.1,0.2,0.1,0.3c0,0.3,0.1,0.7-0.2,1
				c-0.2,0.2-0.4,0.2-0.6,0c-0.3-0.3-0.5-0.6-0.8-0.9c-1-1.1-1-1.1-2-0.1c-0.5,0.2-1,0-1.4,0.1c-1.5,0.4-2,1.5-2.2,2.9
				c-0.5,0.9-0.2,1.6,0.5,2.3c0.5,0.5,1.3,0.9,1.2,1.8c-0.1,0.1-0.3,0.2-0.5,0.2c-1-0.2-1.9-0.6-2.5-1.5c-0.2-0.3-0.5-0.5-0.9-0.3
				c-1,0.5-2.1,0.8-3.1,1.2C60.9,90,61,90.5,61,91s0,1-0.1,1.4c-0.2,0.6-0.8,0.8-1.3,1.1c-1,0.7-1.2,2-0.4,3.1
				c0.1,0.2,0,0.4-0.1,0.6c-0.4,0.4-0.8,0.9-1.3,1.1c-0.2,0.1-0.5,0.1-0.7-0.1c-0.3-0.4-0.2-0.8,0-1.2c0.3-0.6,0.1-1.1-0.2-1.7
				c-0.1-0.6,0.2-1,0.4-1.5c1.1-2.5,0.4-5.3-1.6-7c-1.9-1.6-4.9-1.7-7-0.4c-2.1,1.4-3.1,4.3-2.3,6.7c0.8,2.3,2.4,3.6,4.9,4
				c0.3,0.1,0.6,0.1,0.7,0.5c-1.1,0.7-0.4,1.7-0.3,2.6c-0.4,0.3-0.8,0.2-1.3,0.1c-3.8-0.8-6.2-3.1-7.2-6.8c-0.3-1-0.7-1.5-1.7-1.6
				c-3.5-0.3-7-1-10.4-2.1c-5.2-1.7-10-4.1-14.4-7.4C12.1,79.2,8.2,75,4.9,70.1C4.3,69.1,3.8,68.1,3.3,67z"/>
			<path fill="#406495" d="M77.3,80.6C83.4,75.4,88,69.2,91,61.8c0.7-1.7,1.3-3.4,1.8-5.1c0.3-0.9,0.1-1.1-0.8-1.1
				c-3.3,0.2-5.7-1.4-7.3-4c-1.6-2.5-1.8-5.2-0.5-7.9c1.5-3,3.9-4.8,7.3-4.9c0.6,0,1.2-0.1,1.8,0c0.7,0.1,1.2,0.1,1-0.7
				c-0.2-0.7,0.6-1.9-1-1.8c-1.3,0.1-2.4-0.8-2.8-2.1c-0.3-1.2,0.2-2.4,1.5-3c0.8-0.4,0.9-0.7,0.7-1.5c-1.5-5.2-3.8-9.9-6.9-14.3
				c-0.7-1-1.7-1.9-2.1-3c2.2,1.4,4,3.3,5.8,5.1c3.5,3.6,6.4,7.7,8.6,12.2c0.1,0.2,0.2,0.3,0.4,0.5c0.7,1.6,1.4,3.2,1.9,4.8
				c2.4,6.6,3.6,13.4,3.1,20.4c-0.8,12.2-5.2,23-13.5,32c-7.2,7.9-16.1,12.9-26.5,15.3c-2.1,0.5-4.3,0.7-6.4,1.1
				c-0.2,0.2-0.4,0.2-0.6,0.1c0.1-1.2-0.8-1.7-1.5-2.4c-0.6-0.7-0.8-1.3,0.1-1.8c0.2-0.2,0.5-0.3,0.8-0.3c0.9-0.2,1.4,0.5,2,1.1
				c0.4,0.4,0.8,1.3,1.4,0.7c0.6-0.6-0.3-1-0.7-1.4c-0.4-0.5-1.1-0.8-0.4-1.6c0.4-0.3,0.8-0.7,1.2-1c0.8,0.6,1.6,1,2.6,0.9
				s1.7-0.8,2.1-1.6c0.1-0.2,0.2-0.5-0.1-0.6c-0.2-0.1-0.4,0.1-0.5,0.2c-0.3,0.4-0.6,0.9-1.1,1.1c-0.4,0.1-0.8,0.2-1.1-0.2
				c-0.3-0.4,0-0.7,0.2-1s0.5-0.6,0.8-0.9c1-1,1-1.2-0.3-1.8c-0.5-0.2-0.9-0.4-0.8-1c0.3-0.9-0.7-2.1,0.6-2.8
				c1.1-0.4,2.1-0.8,3.2-1.2c0.3-0.2,0.6-0.2,0.8,0.1c0.1,0.4-0.2,0.4-0.5,0.6c-0.3,0.1-0.7,0.3-1,0.5c-1.2,0.8-1.4,1.6-0.8,3
				c0.1,0.1,0.2,0.3,0.3,0.4c0.6,1.1,1.6,1.3,2.7,1.1c1.1-0.2,1.6-1.1,2-2.2c-0.8,0-0.8,0.6-1.2,0.9c-0.6,0.4-1.1,1.2-1.9,0.3
				c0-0.3,0-0.5,0.2-0.7c0.4-0.7,0.9-1.2,1.5-1.7c0.4-0.4,0.8-0.6,1.4-0.3c0.2,0,0.3,0,0.5,0c0.1,0,0.1,0,0.2,0
				c0.8,0.3,1.4,0.9,2,1.5c0.2,0.2,0.5,0.5,0.8,0.2c0.3-0.2,0-0.5-0.1-0.7c-0.3-0.4-0.7-0.7-0.3-1.3c0.3-0.4,0.7-0.5,1-0.9
				c0.1-0.1,0.2-0.2,0.4-0.3c0.9-0.6,1.3-1.6,1.4-2.6c0.1-0.7-0.3-1.5,0.1-2.2c0-0.2-0.3-0.5,0-0.7c0.7-0.3,1,0.4,1.5,0.7
				c0.2,0.1,0.4,0.4,0.7,0.2c0.3-0.2,0.1-0.5-0.1-0.8c-0.7-1.2-0.5-1.5,1-1.5c0.5,0,1.1,0.2,1.6-0.2C78.3,81.1,77.2,81.6,77.3,80.6z
				"/>
			<path fill="#406495" d="M3.3,67c1.6,2.3,3,4.7,4.7,6.8c3.7,4.6,8.1,8.5,13.2,11.5c4.8,2.7,9.7,4.7,15,5.8c2,0.4,4,0.7,6,0.8
				c1.1,0.1,1.2,0.6,1.4,1.4c0.6,3,2.3,5.1,5,6.4c1,0.5,2.1,0.7,3.3,0.8l0.1,0.1c0.1,0.8,0.3,1.4,1.4,1.4c0.7,0,1.3,0.7,1.6,1.5
				c0.1,0.3,0.1,0.6-0.4,0.6c-2.1,0.9-4.2,0.1-6.3,0.2c-0.7,0-1.3-0.1-1.8-0.6c-7.1-0.9-13.8-3.1-20-6.7c-6.7-4-12.2-9.2-16.6-15.6
				C7.1,77.3,5,72.8,3.5,68C3.4,67.7,3.4,67.3,3.3,67z"/>
			<path fill="#688AC2" d="M65.4,3.5c4.4,1.1,8.5,2.7,12.4,5.1c0.5,0.7,0.1,1.2-0.3,1.7c-1.9,2.2-4.3,3-7.1,2.4
				c-2.7-0.6-4.7-2.3-5.5-5.1c-0.3-0.9-0.5-1.9-0.3-2.9C64.8,4.2,64.8,3.7,65.4,3.5z"/>
			<path fill="#406495" d="M65.4,3.5c-1.3,2.9,0.6,6.9,3.2,8.2c3.2,1.5,6.8,0.8,8.9-2c0.3-0.4,0.3-0.7,0.3-1.1C79,9,80,9.8,81,10.5
				c-0.5,0-0.7,0.4-1,0.8c-3.6,4.9-10.3,5.7-14.7,1.6c-2.9-2.7-3.7-6.2-2.7-10C63.5,2.8,64.5,3.1,65.4,3.5z"/>
			<path fill="#7393C7" d="M10.6,32.6C9.8,31,8.4,30,7.2,28.9c0.3-1,0.9-1.8,1.5-2.6c2.2-1.5,3.3-1.4,5.4,0.6
				c-0.2,1-0.6,1.7-1.5,2.2c-0.3-0.2-0.4-0.6-0.7-0.8c-0.3-0.4-0.7-0.6-1.3-0.5c-0.4,0.2-0.6,0.5-0.5,1s0.5,0.8,1,0.8
				c0.3,0,0.7-0.1,1,0.2C12.1,30.9,11.6,31.9,10.6,32.6z"/>
			<path fill="#688CC1" d="M14,26.8c-0.4,0.2-0.6,0-0.8-0.3c-0.6-0.7-1.4-0.7-2.2-0.9c-0.9-0.3-1.3,0.3-1.8,0.9
				c-0.2,0.3-0.4-0.1-0.6-0.2c0.4-1.1,1.2-1.9,1.7-2.9c0.1-0.2,0.2-0.4,0.4-0.5c0.6,0,0.7-0.6,0.9-1c0.4-0.7,1.1-0.8,1.5-0.3
				c0.8,1,2,1.8,2.4,3.1c0,0.1-0.1,0.2-0.1,0.3c-0.4,0.4-0.9,0.3-1.3,0c-0.3-0.2-0.5-0.5-0.8-0.8c-0.2-0.3-0.5-0.8-0.9-0.4
				s0.1,0.7,0.4,1c0.4,0.6,1.1,0.9,1.1,1.7C14.1,26.7,14.1,26.7,14,26.8z"/>
			<path fill="#9EB2D7" d="M15.5,25c0-0.1,0-0.2,0-0.2c0.4-1,0.9-1.9,1.9-2.4c0.9-0.9,1.9-1.8,2.8-2.7c3.4-3.5,7.3-6.2,11.5-8.5
				c1.8-1,4.2-0.4,5.2,1.3c1.1,1.8,0.7,4-1.2,5.2c-1.6,1.1-3.2,2-4.9,2.9c-0.7,0.4-0.8,0.7-0.1,1.2c2.1,1.4,3.5,3.4,3.9,5.9
				c0.8,4.3-0.2,7.8-4.2,10.5c-3.6,2.4-8.1,2.2-11.4-0.4c-0.3-0.2-0.6-0.3-0.8-0.6c-0.9-1.5-1.3-0.4-1.6,0.4c-0.7,1.7-1.4,3.4-2,5.2
				c-0.6,1.9-2.7,3.1-4.6,2.6c-2-0.5-3.2-2.5-2.8-4.4c0.7-2.9,2-5.6,3.2-8.3c0.5-1,1-1.9,1.5-2.9c-0.1-0.4-0.1-0.7,0.5-0.7
				c0.5-0.7,1-1.5,1.5-2.2l0,0C14.1,25.9,14.8,25.5,15.5,25z"/>
			<path fill="#406495" d="M17.4,70c-0.3-5,4.1-9.8,9.7-9.7c5.4,0,9.7,4.4,9.7,9.8c0,5.1-4.3,9.8-9.7,9.8
				C21.9,79.8,17.2,75.5,17.4,70z"/>
			<path fill="#406495" d="M51.4,97.8c-2.7-0.1-5.7-2.9-5.4-6.3c0.4-5,4.4-6.6,7.3-6c4.4,0.9,6.4,5.2,4.4,9.2
				c-0.1,0.3-0.3,0.6-0.4,0.9c-0.1,0.6-0.5,0.8-0.9,1.2c-0.6,0.4-1.2,0.9-2,1c-0.3,0-0.6,0.1-0.8-0.1C52.8,97,52.1,97.4,51.4,97.8z"
				/>
			<path fill="#9EB2D7" d="M50.3,5.7c3.4-0.4,5.1,3.1,3.7,5.7c-0.6,1.1-1.7,1.6-2.9,1.8c-1.8,0.3-3.6,0.5-5.4,0.8
				c-2.1,0.4-4.1-0.8-4.6-2.7c-0.5-2.1,0.7-4.1,2.8-4.7c0.7-0.2,1.4-0.4,2.1-0.5C47.6,6,48.9,5.6,50.3,5.7z"/>
			<path fill="#406496" d="M84.2,57.5c2.4,0,4,1.6,4,4s-1.7,4-4,4s-4-1.7-4-3.9C80.2,59.2,81.8,57.5,84.2,57.5z"/>
			<path fill="#406495" d="M78.8,48.8c0.3,2-1.7,3.8-3.8,3.8c-2,0-3.7-1.8-3.7-3.8c0-2.4,1.4-3.9,3.8-3.9
				C77.3,44.9,78.8,46.4,78.8,48.8z"/>
			<path fill="#9EB2D7" d="M43.9,25.3c0,2.2-1.5,3.7-3.8,3.7c-2.1,0-3.9-1.7-3.8-3.7c0-2.2,1.7-3.9,3.9-3.9
				C42.4,21.4,43.9,22.9,43.9,25.3z"/>
			<path fill="#406495" d="M43,69.2c-1.6,0-2.8-1.1-2.8-2.7c-0.1-1.5,1.2-2.8,2.7-2.9c1.5-0.1,2.8,1.2,2.9,2.7
				C45.8,68,44.7,69.2,43,69.2z"/>
			<path fill="#4F6F9F" d="M61.5,89.5c-0.9,0.9-0.4,2.1-0.4,3.1c0,0.4,0.7,0.3,1,0.5c1.4,0.6,1.5,1,0.4,2c-0.3,0.3-0.6,0.6-0.9,0.9
				c-0.2,0.2-0.7,0.5-0.4,0.8s0.8,0.1,1.1-0.1c0.3-0.3,0.5-0.7,0.6-1c0.2-0.6,0.7-0.5,1.1-0.3c0.5,0.1,0.4,0.6,0.3,0.9
				c-0.6,1.9-2.9,2.7-4.6,1.8c-0.5-0.2-0.3-0.7-0.6-0.9c0.1-0.2,0.2-0.3,0.2-0.5c0-1.5,0.9-2.7,1.5-4.1c0-0.8,0-1.6,0-2.4
				C60.8,89.8,61,89.5,61.5,89.5z"/>
			<path fill="#7393C7" d="M4.8,34.2c0.4-1.3,1-2.6,1.7-3.8c0.3-0.1,0.6-0.2,0.9-0.2c0.6,0,1.1,0.4,1.4,0.9s-0.3,0.8-0.6,1.1
				c-0.6,0.6-1.2,1.1-2,1.8c1,0.4,1.5,0.3,1.9-0.4c0.4-0.8,1-1.2,2-1c-0.3,0.7-0.6,1.4-1,2.1c-0.7,1.2-1.8,1.1-3,1.1
				C5.3,35.6,4.9,35,4.8,34.2z"/>
			<path fill="#7393C7" d="M73.9,83c-1.1-1.2-2.3-2.4-3.4-3.6c-0.3-0.3-0.3-0.6,0.1-0.8c0.3-0.3,0.7-0.5,1.1-0.1
				c0.6,0.5,1.1,1.1,1.8,1.7c0.3,0.3,0.5,0.9,1,0.6c0.4-0.2,0.2-0.7,0.2-1.1c-0.1-0.9,0.2-1.7,1.1-2.1c0.4,1.2-0.3,2.6,0.6,3.7
				C75.8,82.2,75.2,83.1,73.9,83z"/>
			<path fill="#406395" d="M11.4,70.7c0-1.2,0.8-2,2.1-2s2,0.8,2.1,2c0,1.2-1,2.1-2.2,2.1C12.1,72.8,11.3,72,11.4,70.7z"/>
			<path fill="#406495" d="M78.6,22.2c-1.3,0-2-0.7-2-2c0-1.2,0.9-2.1,2-2.1s2.1,0.9,2.1,2.1C80.7,21.4,79.9,22.2,78.6,22.2z"/>
			<path fill="#7493C7" d="M17.4,22.4c-0.6,0.8-1.2,1.7-1.9,2.4C15,23.7,13.9,23,13.3,22c-0.4-0.6-1-0.5-1.4,0.3
				c-0.2,0.4-0.2,1.2-1.1,0.7c0.4-0.5,0.7-1.1,1.1-1.6c0.4-0.4,0.8-0.9,1.1-1.3c1,0.2,1.4,1.1,2.1,1.7c0.2,0.2,0.4,0.5,0.7,0.3
				C16,22,16,21.7,16,21.4c0-1-0.1-2,1.1-2.5C17.5,20.1,16.8,21.3,17.4,22.4z"/>
			<path fill="#7393C6" d="M56.2,96.6c0.2-0.4,0.6-0.7,1-1c0.9,0.2,0.9,0.9,0.5,1.4c-0.3,0.5-0.3,1-0.3,1.5
				c-0.1,1.2-1.1,0.9-1.7,1.2c-0.2,0.1-0.5,0.2-0.7,0.3c-1,0.5-2,1.2-3.2,0.5l0,0c-0.3-0.4-0.8-0.7-0.8-1.4c0-0.7,0.2-1.1,1-1
				c0.1-0.1,0.2-0.1,0.3-0.2c0.2,0,0.5,0,0.5,0.2c0.4,1.2,1.1,0.8,1.6,0.3C55.1,97.7,55.7,97.3,56.2,96.6z"/>
			<path fill="#7393C7" d="M72.5,89c-0.1,0.1-0.2,0.2-0.2,0.2c-0.5,0.3-1.1,0.6-1.5,1.1c-0.7,0.4-1.4,0.2-2.1-0.1l0,0
				c-0.6-0.7-1-1.5-1.7-2c-1-0.7-0.7-1.4-0.2-2.1c0.2,0.1,0.3,0.2,0.4,0.3c0.6,0.6,1,1.4,1.9,1.5c0.7,0.1,1.5,0,2.1-0.5
				c0.6-0.4,0.7-1.2,1.1-1.8c0.1-0.1,0.2-0.1,0.3,0C73.3,86.9,73.3,88,72.5,89z"/>
			<path fill="#4F709F" d="M63,92.7c-1.2-1.7-0.1-3.4,2.3-4.1c-0.1-0.3-0.4-0.2-0.6-0.2c0.3-0.3,0.7-0.4,0.9,0
				c0.5,1.1,1.6,1.4,2.5,1.9c-1.4,0.2-1.8,1.4-2.7,2.2c-0.1,0-0.1-0.1-0.2-0.2c-0.3-0.5-0.3-1.2-1-1.2c-0.8,0-0.8,0.8-1,1.3
				C63.2,92.5,63.1,92.6,63,92.7z"/>
			<path fill="#406496" d="M83.6,70.2c0,0.8-0.9,1.7-1.7,1.7c-0.8,0-1.6-0.9-1.6-1.7c0-0.8,0.8-1.6,1.6-1.6
				C82.9,68.5,83.6,69.2,83.6,70.2z"/>
			<path fill="#426596" d="M66.7,86.6c0-0.2,0-0.3,0-0.5c0.1-2.6,1.5-3.7,3.9-3.2c1.2,0,1.6,0.9,1.9,1.8c0.1,0.3,0.1,0.7-0.2,0.9
				l0,0c-0.5,0.2-0.8-0.3-1.1-0.5c-1.3-0.8-2.4-0.6-3.3,0.7C67.5,86.3,67.3,86.8,66.7,86.6z"/>
			<path fill="#4F709F" d="M73.9,83c1-0.3,1.6-1.1,2.4-1.7c0.3-0.2,0.7-0.5,1-0.7c0.3,0.6,0.9,0.4,1.4,0.5c0.2,0,0.5-0.1,0.6,0.2
				c0.1,0.3-0.2,0.5-0.4,0.7c-0.3,0.4-0.8,0.3-1.2,0.3c-0.6,0-1.3-0.3-2,0.2c0.3,0.3,0.6,0.6,0.8,0.9c0.5,0.5,0.2,0.9-0.2,1.2
				c-0.4,0.4-0.6,0.2-0.9-0.2c-0.4-0.5-0.9-0.9-1.5-1.2C73.9,83.2,73.9,83.1,73.9,83z"/>
			<path fill="#7393C7" d="M72.2,84.7c-0.4-0.7-1-1.3-1.7-1.7c0.1-0.5,0.2-1,0.7-1.1c0.6-0.1,0.8,0.4,1.1,0.7
				c0.5,0.5,0.7,1.3,1.5,1.4c0.3,0.8,0.3,1.6,0.2,2.4c-0.2,0.4-0.5,0.3-0.7,0C73,85.8,72.6,85.3,72.2,84.7z"/>
			<path fill="#4F709F" d="M55.7,99.7c0.6-0.4,1.3-0.6,1.7-1.2c0.2-0.1,0.3-0.2,0.5-0.2c-0.2,0.5,0.1,0.8,0.4,1.1
				c0.4,0.3,0.8,0.7,1.2,1c0.5,0.4,0.2,0.8-0.1,1.1c-0.3,0.4-0.7,0.4-1,0.1c-0.5-0.4-0.9-0.8-1.3-1.3C56.7,99.9,56.3,99.7,55.7,99.7
				z"/>
			<path fill="#7393C7" d="M60.8,92.7c0,1.5-0.9,2.8-1.5,4.1c-0.3,0-0.6,0.3-0.8-0.2c-0.4-1,0.1-2.8,1.1-3.3
				C60,93.1,60.4,92.9,60.8,92.7z"/>
			<path fill="#7393C6" d="M3.1,39.3c0-0.3,0.1-0.7,0.3-0.9c0.5-0.3,0.8-0.7,1-1.3c0.1-0.4,0.4-0.6,0.9-0.5c0.6,0.2,0.4,0.6,0.3,0.9
				c-0.2,1-0.9,1.6-1.8,2C3.3,39.8,3.2,39.7,3.1,39.3z"/>
			<path fill="#4D6F9F" d="M52.3,98L52.3,98h-0.2c-0.2-0.3-0.5-0.2-0.7-0.2c0.6-0.8,1.3-1.6,2.2-0.3c0.1,0.1,0.5,0.1,0.7,0.1
				c-0.1,0.7-0.6,0.6-1.1,0.5C52.9,98.1,52.6,97.8,52.3,98z"/>
			<path fill="#4E6F9D" d="M51.8,100.5c1.1,0.1,2.1-0.3,3.2-0.5c-0.6,0.5-0.6,0.9,0,1.4c0.7,0.6,1.4,1.3,2,1.9
				c-0.2,0.5-0.7,0.2-0.8,0.5c-0.4,0-0.8,0-1.2,0c-0.6-0.8-1-2-2.5-1.6c-0.3,0.1-1.2-0.3-0.7-1.1C52,100.9,52,100.7,51.8,100.5z"/>
			<path fill="#4F709F" d="M65.2,92.9c1,0.6,1.5-0.3,1.9-0.9c0.3-0.6,0.7-1,1.3-0.6c0.6,0.4,0.1,0.9-0.2,1.4
				c-0.6,1.2-1.5,1.8-2.9,1.7c-1-0.1-1.7-0.5-2-1.5C63.9,92.6,64.5,92.6,65.2,92.9z"/>
			<path fill="#7192C4" d="M65.2,92.9c-0.6,0.3-1.3,0.3-1.9,0c-0.1-0.1-0.2-0.2-0.2-0.2c0-0.1,0-0.2,0-0.2c-0.1-0.9,0-1.7,1.1-1.8
				c0.9-0.1,1.3,0.6,1.4,1.8C65.3,92.6,65.3,92.8,65.2,92.9z"/>
			<path fill="#4E709F" d="M68.6,90.3c0.7-0.1,1.5,0.2,2.2-0.2c0.2-0.1,0.3-0.1,0.5,0c-0.3,0.6,0.3,0.8,0.6,1.1
				c0.4,0.4,0.5,0.7,0,1.2c-0.5,0.4-0.8,0.3-1.1-0.1C70.1,91.5,69.3,91,68.6,90.3z"/>
			<path fill="#688ABF" d="M72.2,84.7c0.7,0.2,1.1,0.9,1.4,1.5c0.2,0.3,0.3,0.3,0.5,0.2c-0.3,1.1-0.5,2.2-1.7,2.7
				c0.4-1.2,0.5-2.3-0.2-3.4C72.2,85.3,72.2,85,72.2,84.7z"/>
			<path fill="#688ABF" d="M71.2,90c-0.2,0-0.3,0-0.5,0c0.4-0.4,0.9-0.6,1.5-0.7C72,89.7,71.6,89.8,71.2,90z"/>
			<path fill="#688AC3" d="M42.4,96.1c0,1.4-1.1,2.5-2.5,2.5c-1.3,0-2.5-1.2-2.5-2.6c0-1.3,1.1-2.4,2.5-2.4
				C41.4,93.6,42.4,94.6,42.4,96.1z"/>
			<path fill="#4D6F9D" d="M46.2,103.2c0.6-0.3,1.1-0.5,1.1-1.3c0-0.3,0.4-0.6,0.6-0.3c0.4,0.5,0.5,1.4,1.3,1.7
				c0.1,0-0.3,0.4-0.5,0.3C47.9,103.2,47.1,103.5,46.2,103.2z"/>
			<path fill="#698AC2" d="M12.6,28.9c-0.2,0.2-0.3,0.5-0.5,0.7c-1.4,0.5-2.4,0-2.4-1.1c0-0.6,0.3-1.1,0.9-1.3
				c0.7-0.2,1.3,0.1,1.7,0.8C12.4,28.3,12.5,28.6,12.6,28.9z"/>
			<path fill="#7593C8" d="M15.5,25c-0.5,0.6-1,1.1-1.4,1.7c-0.3-0.8-1-1.4-1.7-2c-0.4-0.4-0.6-0.8-0.1-1.3c0.6-0.6,0.9-0.1,1.3,0.3
				C14.1,24.4,14.4,25.3,15.5,25z"/>
			<path fill="#688AC2" d="M19.8,29.8c-0.3-2.4,2.1-5.4,5.4-5.3c2.9,0.1,5.3,2.4,5.3,5.5c0,3-2.3,5.2-5.3,5.2
				C22,35.2,19.8,33.1,19.8,29.8z"/>
			<path fill="#688AC2" d="M27.1,76.2c-3.3,0.3-6.3-2.8-6.3-6.3c0-3.3,2.9-6.1,6.4-6.1s6.2,2.7,6.2,6.2
				C33.5,73.4,30.3,76.6,27.1,76.2z"/>
			<path fill="#688AC2" d="M52.3,98c0.6-0.5,1.4,0.1,1.9-0.5c0.8-0.1,1.2-0.7,1.9-1c0,0.1,0.2,0.3,0.1,0.3c-1,0.9-1.6,2.1-3,2.5
				c-0.4,0.1-0.5-0.1-0.5-0.5C52.8,98.6,52.9,98.1,52.3,98z"/>
			<path fill="#4F709E" d="M66.7,86.6c0.3-0.2,0.6-0.3,0.8-0.7c1-2,2.8-2.2,4.3-0.6c0.1,0.1,0.3,0.3,0.4,0.4c0,0.8-0.3,1.5-0.9,2
				c-0.4-0.1-0.4-0.4-0.6-0.7c-0.3-0.6-0.8-0.8-1.4-0.6c-0.6,0.2-0.6,0.7-0.5,1.3c0.1,0.2,0.2,0.5,0,0.7
				C67.7,88.2,67.3,87.3,66.7,86.6z"/>
			<path fill="#416496" d="M68.8,88.3c-0.5-0.7-0.8-1.5-0.1-2.1c0.7-0.6,1.4-0.4,2.1,0.1c0.5,0.4,0.1,0.9,0.5,1.3
				C70.6,88.5,69.7,88.3,68.8,88.3z"/>
		</g>
	</g>
</g>
<g>
	<path fill="#47A5DC" d="M86.1,131.8H19.4c-2.2,0-4-1.8-4-4v-23c0-2.2,1.8-4,4-4h66.8c2.2,0,4,1.8,4,4v23
		C90.1,130,88.4,131.8,86.1,131.8z"/>
	<g>
		<path fill="#FFFFFF" d="M22.7,108.9c1.2-0.2,2.9-0.3,4.9-0.3c2.4,0,4.1,0.4,5.2,1.3c1,0.8,1.5,1.9,1.5,3.4c0,2.1-1.5,3.5-2.9,4
			v0.1c1.1,0.5,1.8,1.5,2.2,3c0.5,1.8,1,3.9,1.3,4.6h-3.7c-0.3-0.5-0.6-1.8-1.1-3.8c-0.4-2-1.1-2.6-2.6-2.6h-1.1v6.4h-3.6
			L22.7,108.9L22.7,108.9z M26.3,115.9h1.4c1.8,0,2.9-0.9,2.9-2.3c0-1.5-1-2.2-2.7-2.3c-0.9,0-1.4,0.1-1.7,0.1v4.5H26.3z"/>
		<path fill="#FFFFFF" d="M40.9,120.7l-1.2,4.2H36l4.9-16.2h4.8l5,16.2h-3.9l-1.2-4.2H40.9z M45,118l-1-3.4c-0.3-1-0.6-2.2-0.8-3.1
			l0,0c-0.2,1-0.5,2.2-0.7,3.1l-1,3.4H45z"/>
		<path fill="#FFFFFF" d="M56.6,108.7v6.2h6v-6.2h3.6v16.2h-3.6v-6.8h-6v6.8h-3.7v-16.2H56.6z"/>
		<path fill="#FFFFFF" d="M73.1,108.7v9.3c0,2.8,1.1,4.2,2.9,4.2c1.9,0,3-1.3,3-4.2v-9.3h3.6v9.1c0,5-2.5,7.4-6.7,7.4
			c-4.1,0-6.5-2.3-6.5-7.4v-9L73.1,108.7L73.1,108.7z"/>
	</g>
</g>
</svg>
