<?xml version="1.0" encoding="utf-8"?>
<!-- Generator: Adobe Illustrator 27.4.1, SVG Export Plug-In . SVG Version: 6.00 Build 0)  -->
<svg version="1.1" id="Layer_1" xmlns="http://www.w3.org/2000/svg" xmlns:xlink="http://www.w3.org/1999/xlink" x="0px" y="0px"
	 viewBox="0 0 30 30" style="enable-background:new 0 0 30 30;" xml:space="preserve">
<style type="text/css">
	.st0{fill:#FFFFFF;}
</style>
<path class="st0" d="M18.3,10.2c0,0,0.1,0.1,0.1,0.1c1-1,2-0.9,3.1,0.1c-0.1-0.6-0.1-0.9-0.2-1.3c-0.1-0.4,0-0.7,0.3-1
	c0.3-0.2,0.6-0.5,0.8-0.7c0-0.1,0-0.1-0.1-0.2c-1.4,0.2-2.1-0.4-2.4-1.8c-0.1,0.2-0.2,0.2-0.2,0.2c-0.3,1-0.8,1.7-2,1.6
	c-0.1,0-0.2,0.1-0.4,0.1c0.3,0.3,0.5,0.6,0.8,0.8c0.3,0.3,0.5,0.5,0.3,1C18.4,9.4,18.4,9.8,18.3,10.2z"/>
<path class="st0" d="M2.2,3.3C2,2.6,2.3,2.2,2.7,1.7C2,1.8,1.7,1.4,1.4,0.8C1.3,1.6,0.8,1.7,0,1.7c0.8,0.4,0.9,0.9,0.6,1.6
	C1.2,2.9,1.7,2.8,2.2,3.3z"/>
<path class="st0" d="M25.9,15.2c0.5-0.4,1-0.4,1.6,0c-0.2-0.7,0-1.1,0.7-1.6c-0.9,0.1-1.2-0.2-1.4-1c-0.2,0.8-0.6,1.1-1.4,1
	C25.9,14.1,26.2,14.5,25.9,15.2z"/>
<path class="st0" d="M16.3,6.5c0-0.1,0.1-0.1,0.1-0.2C12.2,5.1,7.9,3.9,3.6,2.7c0,0.1,0,0.1-0.1,0.2C7.8,4.1,12.1,5.3,16.3,6.5z"/>
<path class="st0" d="M29.4,21.9c-0.3-0.7,0-1.1,0.5-1.5c-0.7,0.1-1.1-0.3-1.2-0.8c-0.4,0.3-0.8,0.6-1.2,0.9c0.4,0.2,0.6,0.7,0.3,1.4
	C28.3,21.5,28.8,21.5,29.4,21.9z"/>
<path class="st0" d="M10.4,25.8c0,0.7,0,1.4,0,2.1c0.1,0,0.1,0,0.2,0c0-0.3,0-0.5,0.1-0.8c0.7-0.2,0.5,0.8,1.1,0.8
	c-0.2-0.3-0.3-0.6-0.5-0.9c0.1,0,0.1,0,0.2,0c0.1-0.3,0.3-0.6,0.2-0.9C11.5,25.6,10.9,25.9,10.4,25.8z"/>
<path class="st0" d="M14.2,27.8c0,0,0-0.1,0-0.1c-0.3,0-0.6-0.1-0.9-0.1c0-0.3,0-0.5,0-0.7c0.3,0,0.5,0,0.7-0.1c0-0.1,0-0.1,0-0.2
	c-0.2,0-0.5-0.1-0.7-0.1c0-0.2,0-0.4,0-0.6c0.3,0,0.6,0,0.9-0.1c0,0,0-0.1,0-0.1c-0.4,0-0.8,0-1.2,0c0,0.7,0,1.3,0,2
	C13.5,27.8,13.9,27.8,14.2,27.8z"/>
<path class="st0" d="M14.7,27.5c0,0.1-0.1,0.1-0.1,0.2c0.3,0.1,0.5,0.3,0.8,0.2c0.2,0,0.6-0.3,0.6-0.5c0.1-0.1-0.2-0.4-0.4-0.6
	c-0.1-0.1-0.3-0.1-0.4-0.2c-0.1-0.1-0.2-0.3-0.2-0.4c0.1-0.1,0.3-0.2,0.4-0.2c0.2,0,0.3,0.1,0.5,0.1c0-0.1,0-0.1,0-0.2
	c-0.3,0-0.6-0.1-0.9-0.1c-0.1,0-0.4,0.4-0.3,0.4c0.1,0.2,0.3,0.4,0.5,0.6c0,0,0.2,0,0.2,0.1c0.1,0.1,0.2,0.3,0.3,0.5
	c-0.2,0.1-0.4,0.2-0.5,0.2C15,27.7,14.9,27.6,14.7,27.5z"/>
<path class="st0" d="M8.4,27.8c0,0.1,0.1,0.2,0.1,0.2c0.1-0.8,0.5-0.8,1-0.7c0.1,0.2,0.2,0.4,0.4,0.6c0.1,0,0.1-0.1,0.2-0.1
	c-0.2-0.7-0.5-1.4-0.7-2.1c-0.1,0-0.2,0-0.2,0C8.9,26.4,8.6,27.1,8.4,27.8z"/>
<path class="st0" d="M22.3,9.3c-0.1,0.1-0.1,0.1-0.2,0.2c1,1,2,2.1,3,3.1c0.1,0,0.1-0.1,0.2-0.1C24.2,11.3,23.2,10.3,22.3,9.3z"/>
<path class="st0" d="M27.9,19.1c0.1,0,0.1,0,0.2-0.1c-0.3-1.1-0.6-2.3-0.9-3.4c-0.1,0-0.1,0-0.2,0.1C27.3,16.9,27.6,18,27.9,19.1z"
	/>
<path class="st0" d="M12.4,25.8c0,0-0.1,0-0.1,0c0,0.7,0,1.4,0,2c0,0,0.1,0,0.1,0C12.4,27.2,12.4,26.5,12.4,25.8z"/>
<path d="M18.3,10.2c0.1-0.4,0.1-0.7,0.2-1.1c0.1-0.4,0-0.7-0.3-1c-0.3-0.2-0.5-0.5-0.8-0.8c0.2,0,0.3-0.1,0.4-0.1
	c1.1,0.1,1.7-0.6,2-1.6c0,0,0.1-0.1,0.2-0.2c0.3,1.3,1,2,2.4,1.8c0,0.1,0,0.1,0.1,0.2c-0.3,0.2-0.6,0.5-0.8,0.7
	c-0.3,0.3-0.5,0.6-0.3,1c0.1,0.4,0.1,0.7,0.2,1.3c-1.1-0.9-2.1-1.1-3.1-0.1C18.4,10.3,18.3,10.2,18.3,10.2z"/>
<path d="M2.2,3.3c-0.6-0.4-1.1-0.4-1.6,0C0.9,2.7,0.8,2.2,0,1.7c0.8,0,1.3-0.2,1.4-0.9c0.3,0.6,0.6,1,1.3,0.9C2.3,2.2,2,2.6,2.2,3.3
	z"/>
<path d="M25.9,15.2c0.3-0.7,0-1.1-0.6-1.6c0.8,0.1,1.2-0.3,1.4-1c0.2,0.7,0.6,1.1,1.4,1c-0.6,0.4-0.9,0.9-0.7,1.6
	C26.9,14.7,26.4,14.8,25.9,15.2z"/>
<path d="M16.3,6.5C12.1,5.3,7.8,4.1,3.6,2.9c0-0.1,0-0.1,0.1-0.2c4.3,1.2,8.5,2.4,12.8,3.7C16.4,6.4,16.4,6.5,16.3,6.5z"/>
<path d="M29.4,21.9c-0.6-0.4-1.1-0.4-1.6,0c0.2-0.6,0.1-1.2-0.3-1.4c0.4-0.3,0.8-0.6,1.2-0.9c0.1,0.4,0.5,0.8,1.2,0.8
	C29.4,20.8,29.1,21.2,29.4,21.9z"/>
<path d="M10.4,25.8c0.4,0.1,1-0.2,1.3,0.4c0.1,0.2-0.1,0.6-0.2,0.9c-0.1,0-0.1,0-0.2,0c0.1,0.3,0.3,0.5,0.5,0.9
	c-0.6,0-0.4-1-1.1-0.8c0,0.3,0,0.5-0.1,0.8c-0.1,0-0.1,0-0.2,0C10.4,27.2,10.4,26.5,10.4,25.8z M10.7,26c0,0.4,0,0.6,0,0.9
	c0.3-0.1,0.5-0.2,0.7-0.3c0.1,0,0-0.4,0-0.4C11.2,26.1,10.9,26,10.7,26z"/>
<path d="M14.2,27.8c-0.4,0-0.8,0-1.2,0c0-0.7,0-1.3,0-2c0.4,0,0.8,0,1.2,0c0,0,0,0.1,0,0.1c-0.3,0-0.5,0-0.9,0.1c0,0.2,0,0.4,0,0.6
	c0.2,0,0.5,0.1,0.7,0.1c0,0.1,0,0.1,0,0.2c-0.2,0-0.5,0-0.7,0.1c0,0.2,0,0.4,0,0.7c0.3,0,0.6,0.1,0.9,0.1
	C14.3,27.8,14.3,27.8,14.2,27.8z"/>
<path d="M14.7,27.5c0.2,0.1,0.3,0.2,0.5,0.2c0.2,0,0.4-0.1,0.5-0.2c-0.1-0.2-0.2-0.3-0.3-0.5c0-0.1-0.2,0-0.2-0.1
	c-0.2-0.2-0.4-0.4-0.5-0.6c0-0.1,0.2-0.4,0.3-0.4c0.3,0,0.6,0,0.9,0.1c0,0.1,0,0.1,0,0.2c-0.2,0-0.3-0.1-0.5-0.1
	c-0.2,0-0.3,0.1-0.4,0.2c0.1,0.1,0.1,0.3,0.2,0.4c0.1,0.1,0.3,0.1,0.4,0.2c0.2,0.2,0.4,0.5,0.4,0.6c-0.1,0.2-0.4,0.5-0.6,0.5
	c-0.2,0-0.5-0.1-0.8-0.2C14.6,27.6,14.7,27.6,14.7,27.5z"/>
<path d="M8.4,27.8c0.2-0.7,0.5-1.3,0.7-2c0.1,0,0.2,0,0.2,0c0.2,0.7,0.5,1.4,0.7,2.1c-0.1,0-0.1,0.1-0.2,0.1
	c-0.1-0.2-0.2-0.4-0.4-0.6c-0.5-0.1-0.9-0.1-1,0.7C8.5,27.9,8.4,27.8,8.4,27.8z M9.5,27c-0.1-0.3-0.2-0.6-0.3-1
	C9,26.4,9,26.7,8.9,27.1C9.1,27,9.3,27,9.5,27z"/>
<path d="M22.3,9.3c1,1,2,2.1,3,3.1c-0.1,0-0.1,0.1-0.2,0.1c-1-1-2-2.1-3-3.1C22.1,9.4,22.2,9.3,22.3,9.3z"/>
<path d="M27.9,19.1c-0.3-1.1-0.6-2.3-0.9-3.4c0.1,0,0.1,0,0.2-0.1c0.3,1.1,0.6,2.3,0.9,3.4C28,19.1,27.9,19.1,27.9,19.1z"/>
<path d="M12.4,25.8c0,0.7,0,1.4,0,2c0,0-0.1,0-0.1,0c0-0.7,0-1.4,0-2C12.3,25.8,12.4,25.8,12.4,25.8z"/>
<path class="st0" d="M10.7,26c0.3,0.1,0.5,0.1,0.7,0.2c0.1,0,0.1,0.3,0,0.4c-0.2,0.1-0.4,0.2-0.7,0.3C10.7,26.5,10.7,26.3,10.7,26z"
	/>
<path class="st0" d="M9.5,27c-0.2,0-0.4,0-0.6,0C9,26.7,9,26.4,9.2,26C9.3,26.4,9.4,26.7,9.5,27z"/>
<g>
</g>
<g>
</g>
<g>
</g>
<g>
</g>
<g>
</g>
<g>
</g>
<g>
</g>
<g>
</g>
<g>
</g>
<g>
</g>
<g>
</g>
<g>
</g>
<g>
</g>
<g>
</g>
<g>
</g>
</svg>
